G04 #@! TF.FileFunction,Copper,L1,Top,Signal*
%FSLAX46Y46*%
G04 Gerber Fmt 4.6, Leading zero omitted, Abs format (unit mm)*
G04 Created by KiCad (PCBNEW 4.0.6-e0-6349~53~ubuntu14.04.1) date Fri Mar 31 13:28:52 2017*
%MOMM*%
%LPD*%
G01*
G04 APERTURE LIST*
%ADD10C,0.100000*%
%ADD11C,1.727200*%
%ADD12R,1.727200X1.727200*%
%ADD13O,1.727200X1.727200*%
%ADD14R,0.850000X0.300000*%
%ADD15R,0.300000X0.850000*%
%ADD16R,1.837500X1.837500*%
%ADD17R,0.500000X0.600000*%
%ADD18R,0.600000X0.500000*%
%ADD19R,1.700000X2.100000*%
%ADD20C,0.950000*%
%ADD21C,1.550000*%
%ADD22C,0.600000*%
%ADD23C,0.250000*%
G04 APERTURE END LIST*
D10*
G36*
X-9250986Y-16817029D02*
X-9958093Y-17524136D01*
X-10453068Y-17029161D01*
X-9745961Y-16322054D01*
X-9250986Y-16817029D01*
X-9250986Y-16817029D01*
G37*
G36*
X-10665200Y-15402816D02*
X-11372307Y-16109923D01*
X-11867282Y-15614948D01*
X-11160175Y-14907841D01*
X-10665200Y-15402816D01*
X-10665200Y-15402816D01*
G37*
G36*
X-12079414Y-13988602D02*
X-12786521Y-14695709D01*
X-13281496Y-14200734D01*
X-12574389Y-13493627D01*
X-12079414Y-13988602D01*
X-12079414Y-13988602D01*
G37*
G36*
X-13493627Y-12574389D02*
X-14200734Y-13281496D01*
X-14695709Y-12786521D01*
X-13988602Y-12079414D01*
X-13493627Y-12574389D01*
X-13493627Y-12574389D01*
G37*
G36*
X-14907841Y-11160175D02*
X-15614948Y-11867282D01*
X-16109923Y-11372307D01*
X-15402816Y-10665200D01*
X-14907841Y-11160175D01*
X-14907841Y-11160175D01*
G37*
G36*
X-16322054Y-9745961D02*
X-17029161Y-10453068D01*
X-17524136Y-9958093D01*
X-16817029Y-9250986D01*
X-16322054Y-9745961D01*
X-16322054Y-9745961D01*
G37*
G36*
X-18867639Y-9392408D02*
X-19362614Y-9887383D01*
X-20352563Y-8897434D01*
X-19857588Y-8402459D01*
X-18867639Y-9392408D01*
X-18867639Y-9392408D01*
G37*
G36*
X-20281853Y-10806621D02*
X-20776828Y-11301596D01*
X-21766777Y-10311647D01*
X-21271802Y-9816672D01*
X-20281853Y-10806621D01*
X-20281853Y-10806621D01*
G37*
G36*
X-21696066Y-12220835D02*
X-22191041Y-12715810D01*
X-23180990Y-11725861D01*
X-22686015Y-11230886D01*
X-21696066Y-12220835D01*
X-21696066Y-12220835D01*
G37*
G36*
X-23110280Y-13635048D02*
X-23605255Y-14130023D01*
X-24595204Y-13140074D01*
X-24100229Y-12645099D01*
X-23110280Y-13635048D01*
X-23110280Y-13635048D01*
G37*
G36*
X-24524493Y-15049262D02*
X-25019468Y-15544237D01*
X-26009417Y-14554288D01*
X-25514442Y-14059313D01*
X-24524493Y-15049262D01*
X-24524493Y-15049262D01*
G37*
G36*
X-25938707Y-16463475D02*
X-26433682Y-16958450D01*
X-27423631Y-15968501D01*
X-26928656Y-15473526D01*
X-25938707Y-16463475D01*
X-25938707Y-16463475D01*
G37*
G36*
X-27352920Y-17877689D02*
X-27847895Y-18372664D01*
X-28837844Y-17382715D01*
X-28342869Y-16887740D01*
X-27352920Y-17877689D01*
X-27352920Y-17877689D01*
G37*
G36*
X-28767134Y-19291903D02*
X-29262109Y-19786878D01*
X-30252058Y-18796929D01*
X-29757083Y-18301954D01*
X-28767134Y-19291903D01*
X-28767134Y-19291903D01*
G37*
G36*
X-8402459Y-19857588D02*
X-8897434Y-20352563D01*
X-9887383Y-19362614D01*
X-9392408Y-18867639D01*
X-8402459Y-19857588D01*
X-8402459Y-19857588D01*
G37*
G36*
X-9816672Y-21271802D02*
X-10311647Y-21766777D01*
X-11301596Y-20776828D01*
X-10806621Y-20281853D01*
X-9816672Y-21271802D01*
X-9816672Y-21271802D01*
G37*
G36*
X-11230886Y-22686015D02*
X-11725861Y-23180990D01*
X-12715810Y-22191041D01*
X-12220835Y-21696066D01*
X-11230886Y-22686015D01*
X-11230886Y-22686015D01*
G37*
G36*
X-12645099Y-24100229D02*
X-13140074Y-24595204D01*
X-14130023Y-23605255D01*
X-13635048Y-23110280D01*
X-12645099Y-24100229D01*
X-12645099Y-24100229D01*
G37*
G36*
X-14059313Y-25514442D02*
X-14554288Y-26009417D01*
X-15544237Y-25019468D01*
X-15049262Y-24524493D01*
X-14059313Y-25514442D01*
X-14059313Y-25514442D01*
G37*
G36*
X-15473526Y-26928656D02*
X-15968501Y-27423631D01*
X-16958450Y-26433682D01*
X-16463475Y-25938707D01*
X-15473526Y-26928656D01*
X-15473526Y-26928656D01*
G37*
G36*
X-16887740Y-28342869D02*
X-17382715Y-28837844D01*
X-18372664Y-27847895D01*
X-17877689Y-27352920D01*
X-16887740Y-28342869D01*
X-16887740Y-28342869D01*
G37*
G36*
X-18301954Y-29757083D02*
X-18796929Y-30252058D01*
X-19786878Y-29262109D01*
X-19291903Y-28767134D01*
X-18301954Y-29757083D01*
X-18301954Y-29757083D01*
G37*
G36*
X14077763Y24705922D02*
X12640922Y26142763D01*
X13862237Y27364078D01*
X15299078Y25927237D01*
X14077763Y24705922D01*
X14077763Y24705922D01*
G37*
D11*
X15658288Y27938814D02*
X15873814Y27723288D01*
X17454339Y29734865D02*
X17669865Y29519339D01*
D10*
G36*
X-12140642Y13024526D02*
X-11681023Y13484145D01*
X-10931490Y12734612D01*
X-11391109Y12274993D01*
X-12140642Y13024526D01*
X-12140642Y13024526D01*
G37*
G36*
X-12812393Y12352774D02*
X-12352774Y12812393D01*
X-11603241Y12062860D01*
X-12062860Y11603241D01*
X-12812393Y12352774D01*
X-12812393Y12352774D01*
G37*
G36*
X-13484145Y11681023D02*
X-13024526Y12140642D01*
X-12274993Y11391109D01*
X-12734612Y10931490D01*
X-13484145Y11681023D01*
X-13484145Y11681023D01*
G37*
G36*
X-11928510Y10125388D02*
X-11468891Y10585007D01*
X-10719358Y9835474D01*
X-11178977Y9375855D01*
X-11928510Y10125388D01*
X-11928510Y10125388D01*
G37*
G36*
X-10585007Y11468891D02*
X-10125388Y11928510D01*
X-9375855Y11178977D01*
X-9835474Y10719358D01*
X-10585007Y11468891D01*
X-10585007Y11468891D01*
G37*
G36*
X-10484526Y-9600642D02*
X-10944145Y-9141023D01*
X-10194612Y-8391490D01*
X-9734993Y-8851109D01*
X-10484526Y-9600642D01*
X-10484526Y-9600642D01*
G37*
G36*
X-9812774Y-10272393D02*
X-10272393Y-9812774D01*
X-9522860Y-9063241D01*
X-9063241Y-9522860D01*
X-9812774Y-10272393D01*
X-9812774Y-10272393D01*
G37*
G36*
X-9141023Y-10944145D02*
X-9600642Y-10484526D01*
X-8851109Y-9734993D01*
X-8391490Y-10194612D01*
X-9141023Y-10944145D01*
X-9141023Y-10944145D01*
G37*
G36*
X-7585388Y-9388510D02*
X-8045007Y-8928891D01*
X-7295474Y-8179358D01*
X-6835855Y-8638977D01*
X-7585388Y-9388510D01*
X-7585388Y-9388510D01*
G37*
G36*
X-8928891Y-8045007D02*
X-9388510Y-7585388D01*
X-8638977Y-6835855D01*
X-8179358Y-7295474D01*
X-8928891Y-8045007D01*
X-8928891Y-8045007D01*
G37*
G36*
X14045642Y-14929526D02*
X13586023Y-15389145D01*
X12836490Y-14639612D01*
X13296109Y-14179993D01*
X14045642Y-14929526D01*
X14045642Y-14929526D01*
G37*
G36*
X14717393Y-14257774D02*
X14257774Y-14717393D01*
X13508241Y-13967860D01*
X13967860Y-13508241D01*
X14717393Y-14257774D01*
X14717393Y-14257774D01*
G37*
G36*
X15389145Y-13586023D02*
X14929526Y-14045642D01*
X14179993Y-13296109D01*
X14639612Y-12836490D01*
X15389145Y-13586023D01*
X15389145Y-13586023D01*
G37*
G36*
X13833510Y-12030388D02*
X13373891Y-12490007D01*
X12624358Y-11740474D01*
X13083977Y-11280855D01*
X13833510Y-12030388D01*
X13833510Y-12030388D01*
G37*
G36*
X12490007Y-13373891D02*
X12030388Y-13833510D01*
X11280855Y-13083977D01*
X11740474Y-12624358D01*
X12490007Y-13373891D01*
X12490007Y-13373891D01*
G37*
G36*
X17775812Y9431951D02*
X19119315Y10775454D01*
X20109264Y9785505D01*
X18765761Y8442002D01*
X17775812Y9431951D01*
X17775812Y9431951D01*
G37*
G36*
X9184464Y19437512D02*
X10527967Y20781015D01*
X11517916Y19791066D01*
X10174413Y18447563D01*
X9184464Y19437512D01*
X9184464Y19437512D01*
G37*
G36*
X23856930Y23715509D02*
X24846879Y24705458D01*
X25766118Y23786219D01*
X24776169Y22796270D01*
X23856930Y23715509D01*
X23856930Y23715509D01*
G37*
G36*
X19826422Y27746018D02*
X20816371Y28735967D01*
X21735610Y27816728D01*
X20745661Y26826779D01*
X19826422Y27746018D01*
X19826422Y27746018D01*
G37*
G36*
X17231339Y15053451D02*
X18291999Y16114111D01*
X18857685Y15548425D01*
X17797025Y14487765D01*
X17231339Y15053451D01*
X17231339Y15053451D01*
G37*
G36*
X16736365Y16114111D02*
X17797025Y17174771D01*
X18362711Y16609085D01*
X17302051Y15548425D01*
X16736365Y16114111D01*
X16736365Y16114111D01*
G37*
G36*
X15675704Y16609086D02*
X16736364Y17669746D01*
X17302050Y17104060D01*
X16241390Y16043400D01*
X15675704Y16609086D01*
X15675704Y16609086D01*
G37*
G36*
X14756466Y17245482D02*
X15817126Y18306142D01*
X16382812Y17740456D01*
X15322152Y16679796D01*
X14756466Y17245482D01*
X14756466Y17245482D01*
G37*
G36*
X14120069Y18164721D02*
X15180729Y19225381D01*
X15746415Y18659695D01*
X14685755Y17599035D01*
X14120069Y18164721D01*
X14120069Y18164721D01*
G37*
G36*
X13200831Y18801117D02*
X14261491Y19861777D01*
X14827177Y19296091D01*
X13766517Y18235431D01*
X13200831Y18801117D01*
X13200831Y18801117D01*
G37*
G36*
X12564435Y19720356D02*
X13625095Y20781016D01*
X14190781Y20215330D01*
X13130121Y19154670D01*
X12564435Y19720356D01*
X12564435Y19720356D01*
G37*
G36*
X11786617Y20498173D02*
X12847277Y21558833D01*
X13412963Y20993147D01*
X12352303Y19932487D01*
X11786617Y20498173D01*
X11786617Y20498173D01*
G37*
G36*
X21230028Y26971736D02*
X21901779Y27643487D01*
X22608886Y26936380D01*
X21937135Y26264629D01*
X21230028Y26971736D01*
X21230028Y26971736D01*
G37*
D12*
X11430000Y-28575000D03*
D13*
X11430000Y-31115000D03*
X8890000Y-28575000D03*
X8890000Y-31115000D03*
X6350000Y-28575000D03*
X6350000Y-31115000D03*
X3810000Y-28575000D03*
X3810000Y-31115000D03*
X1270000Y-28575000D03*
X1270000Y-31115000D03*
X-1270000Y-28575000D03*
X-1270000Y-31115000D03*
X-3810000Y-28575000D03*
X-3810000Y-31115000D03*
X-6350000Y-28575000D03*
X-6350000Y-31115000D03*
X-8890000Y-28575000D03*
X-8890000Y-31115000D03*
X-11430000Y-28575000D03*
X-11430000Y-31115000D03*
D12*
X-28575000Y-11430000D03*
D13*
X-31115000Y-11430000D03*
X-28575000Y-8890000D03*
X-31115000Y-8890000D03*
X-28575000Y-6350000D03*
X-31115000Y-6350000D03*
X-28575000Y-3810000D03*
X-31115000Y-3810000D03*
X-28575000Y-1270000D03*
X-31115000Y-1270000D03*
X-28575000Y1270000D03*
X-31115000Y1270000D03*
X-28575000Y3810000D03*
X-31115000Y3810000D03*
X-28575000Y6350000D03*
X-31115000Y6350000D03*
X-28575000Y8890000D03*
X-31115000Y8890000D03*
X-28575000Y11430000D03*
X-31115000Y11430000D03*
D12*
X-11430000Y28575000D03*
D13*
X-11430000Y31115000D03*
X-8890000Y28575000D03*
X-8890000Y31115000D03*
X-6350000Y28575000D03*
X-6350000Y31115000D03*
X-3810000Y28575000D03*
X-3810000Y31115000D03*
X-1270000Y28575000D03*
X-1270000Y31115000D03*
X1270000Y28575000D03*
X1270000Y31115000D03*
X3810000Y28575000D03*
X3810000Y31115000D03*
X6350000Y28575000D03*
X6350000Y31115000D03*
X8890000Y28575000D03*
X8890000Y31115000D03*
X11430000Y28575000D03*
X11430000Y31115000D03*
D12*
X28575000Y11430000D03*
D13*
X31115000Y11430000D03*
X28575000Y8890000D03*
X31115000Y8890000D03*
X28575000Y6350000D03*
X31115000Y6350000D03*
X28575000Y3810000D03*
X31115000Y3810000D03*
X28575000Y1270000D03*
X31115000Y1270000D03*
X28575000Y-1270000D03*
X31115000Y-1270000D03*
X28575000Y-3810000D03*
X31115000Y-3810000D03*
X28575000Y-6350000D03*
X31115000Y-6350000D03*
X28575000Y-8890000D03*
X31115000Y-8890000D03*
X28575000Y-11430000D03*
X31115000Y-11430000D03*
D14*
X4450000Y-18750000D03*
X4450000Y-18250000D03*
X4450000Y-17750000D03*
X4450000Y-17250000D03*
X4450000Y-16750000D03*
X4450000Y-16250000D03*
X4450000Y-15750000D03*
X4450000Y-15250000D03*
X4450000Y-14750000D03*
X4450000Y-14250000D03*
X4450000Y-13750000D03*
X4450000Y-13250000D03*
X4450000Y-12750000D03*
X4450000Y-12250000D03*
X4450000Y-11750000D03*
X4450000Y-11250000D03*
D15*
X3750000Y-10550000D03*
X3250000Y-10550000D03*
X2750000Y-10550000D03*
X2250000Y-10550000D03*
X1750000Y-10550000D03*
X1250000Y-10550000D03*
X750000Y-10550000D03*
X250000Y-10550000D03*
X-250000Y-10550000D03*
X-750000Y-10550000D03*
X-1250000Y-10550000D03*
X-1750000Y-10550000D03*
X-2250000Y-10550000D03*
X-2750000Y-10550000D03*
X-3250000Y-10550000D03*
X-3750000Y-10550000D03*
D14*
X-4450000Y-11250000D03*
X-4450000Y-11750000D03*
X-4450000Y-12250000D03*
X-4450000Y-12750000D03*
X-4450000Y-13250000D03*
X-4450000Y-13750000D03*
X-4450000Y-14250000D03*
X-4450000Y-14750000D03*
X-4450000Y-15250000D03*
X-4450000Y-15750000D03*
X-4450000Y-16250000D03*
X-4450000Y-16750000D03*
X-4450000Y-17250000D03*
X-4450000Y-17750000D03*
X-4450000Y-18250000D03*
X-4450000Y-18750000D03*
D15*
X-3750000Y-19450000D03*
X-3250000Y-19450000D03*
X-2750000Y-19450000D03*
X-2250000Y-19450000D03*
X-1750000Y-19450000D03*
X-1250000Y-19450000D03*
X-750000Y-19450000D03*
X-250000Y-19450000D03*
X250000Y-19450000D03*
X750000Y-19450000D03*
X1250000Y-19450000D03*
X1750000Y-19450000D03*
X2250000Y-19450000D03*
X2750000Y-19450000D03*
X3250000Y-19450000D03*
X3750000Y-19450000D03*
D16*
X-2756250Y-12243750D03*
X-2756250Y-14081250D03*
X-2756250Y-15918750D03*
X-2756250Y-17756250D03*
X-918750Y-12243750D03*
X-918750Y-14081250D03*
X-918750Y-15918750D03*
X-918750Y-17756250D03*
X918750Y-12243750D03*
X918750Y-14081250D03*
X918750Y-15918750D03*
X918750Y-17756250D03*
X2756250Y-12243750D03*
X2756250Y-14081250D03*
X2756250Y-15918750D03*
X2756250Y-17756250D03*
D15*
X-18750000Y-4450000D03*
X-18250000Y-4450000D03*
X-17750000Y-4450000D03*
X-17250000Y-4450000D03*
X-16750000Y-4450000D03*
X-16250000Y-4450000D03*
X-15750000Y-4450000D03*
X-15250000Y-4450000D03*
X-14750000Y-4450000D03*
X-14250000Y-4450000D03*
X-13750000Y-4450000D03*
X-13250000Y-4450000D03*
X-12750000Y-4450000D03*
X-12250000Y-4450000D03*
X-11750000Y-4450000D03*
X-11250000Y-4450000D03*
D14*
X-10550000Y-3750000D03*
X-10550000Y-3250000D03*
X-10550000Y-2750000D03*
X-10550000Y-2250000D03*
X-10550000Y-1750000D03*
X-10550000Y-1250000D03*
X-10550000Y-750000D03*
X-10550000Y-250000D03*
X-10550000Y250000D03*
X-10550000Y750000D03*
X-10550000Y1250000D03*
X-10550000Y1750000D03*
X-10550000Y2250000D03*
X-10550000Y2750000D03*
X-10550000Y3250000D03*
X-10550000Y3750000D03*
D15*
X-11250000Y4450000D03*
X-11750000Y4450000D03*
X-12250000Y4450000D03*
X-12750000Y4450000D03*
X-13250000Y4450000D03*
X-13750000Y4450000D03*
X-14250000Y4450000D03*
X-14750000Y4450000D03*
X-15250000Y4450000D03*
X-15750000Y4450000D03*
X-16250000Y4450000D03*
X-16750000Y4450000D03*
X-17250000Y4450000D03*
X-17750000Y4450000D03*
X-18250000Y4450000D03*
X-18750000Y4450000D03*
D14*
X-19450000Y3750000D03*
X-19450000Y3250000D03*
X-19450000Y2750000D03*
X-19450000Y2250000D03*
X-19450000Y1750000D03*
X-19450000Y1250000D03*
X-19450000Y750000D03*
X-19450000Y250000D03*
X-19450000Y-250000D03*
X-19450000Y-750000D03*
X-19450000Y-1250000D03*
X-19450000Y-1750000D03*
X-19450000Y-2250000D03*
X-19450000Y-2750000D03*
X-19450000Y-3250000D03*
X-19450000Y-3750000D03*
D16*
X-12243750Y2756250D03*
X-14081250Y2756250D03*
X-15918750Y2756250D03*
X-17756250Y2756250D03*
X-12243750Y918750D03*
X-14081250Y918750D03*
X-15918750Y918750D03*
X-17756250Y918750D03*
X-12243750Y-918750D03*
X-14081250Y-918750D03*
X-15918750Y-918750D03*
X-17756250Y-918750D03*
X-12243750Y-2756250D03*
X-14081250Y-2756250D03*
X-15918750Y-2756250D03*
X-17756250Y-2756250D03*
D14*
X-4450000Y18750000D03*
X-4450000Y18250000D03*
X-4450000Y17750000D03*
X-4450000Y17250000D03*
X-4450000Y16750000D03*
X-4450000Y16250000D03*
X-4450000Y15750000D03*
X-4450000Y15250000D03*
X-4450000Y14750000D03*
X-4450000Y14250000D03*
X-4450000Y13750000D03*
X-4450000Y13250000D03*
X-4450000Y12750000D03*
X-4450000Y12250000D03*
X-4450000Y11750000D03*
X-4450000Y11250000D03*
D15*
X-3750000Y10550000D03*
X-3250000Y10550000D03*
X-2750000Y10550000D03*
X-2250000Y10550000D03*
X-1750000Y10550000D03*
X-1250000Y10550000D03*
X-750000Y10550000D03*
X-250000Y10550000D03*
X250000Y10550000D03*
X750000Y10550000D03*
X1250000Y10550000D03*
X1750000Y10550000D03*
X2250000Y10550000D03*
X2750000Y10550000D03*
X3250000Y10550000D03*
X3750000Y10550000D03*
D14*
X4450000Y11250000D03*
X4450000Y11750000D03*
X4450000Y12250000D03*
X4450000Y12750000D03*
X4450000Y13250000D03*
X4450000Y13750000D03*
X4450000Y14250000D03*
X4450000Y14750000D03*
X4450000Y15250000D03*
X4450000Y15750000D03*
X4450000Y16250000D03*
X4450000Y16750000D03*
X4450000Y17250000D03*
X4450000Y17750000D03*
X4450000Y18250000D03*
X4450000Y18750000D03*
D15*
X3750000Y19450000D03*
X3250000Y19450000D03*
X2750000Y19450000D03*
X2250000Y19450000D03*
X1750000Y19450000D03*
X1250000Y19450000D03*
X750000Y19450000D03*
X250000Y19450000D03*
X-250000Y19450000D03*
X-750000Y19450000D03*
X-1250000Y19450000D03*
X-1750000Y19450000D03*
X-2250000Y19450000D03*
X-2750000Y19450000D03*
X-3250000Y19450000D03*
X-3750000Y19450000D03*
D16*
X2756250Y12243750D03*
X2756250Y14081250D03*
X2756250Y15918750D03*
X2756250Y17756250D03*
X918750Y12243750D03*
X918750Y14081250D03*
X918750Y15918750D03*
X918750Y17756250D03*
X-918750Y12243750D03*
X-918750Y14081250D03*
X-918750Y15918750D03*
X-918750Y17756250D03*
X-2756250Y12243750D03*
X-2756250Y14081250D03*
X-2756250Y15918750D03*
X-2756250Y17756250D03*
D15*
X18750000Y4450000D03*
X18250000Y4450000D03*
X17750000Y4450000D03*
X17250000Y4450000D03*
X16750000Y4450000D03*
X16250000Y4450000D03*
X15750000Y4450000D03*
X15250000Y4450000D03*
X14750000Y4450000D03*
X14250000Y4450000D03*
X13750000Y4450000D03*
X13250000Y4450000D03*
X12750000Y4450000D03*
X12250000Y4450000D03*
X11750000Y4450000D03*
X11250000Y4450000D03*
D14*
X10550000Y3750000D03*
X10550000Y3250000D03*
X10550000Y2750000D03*
X10550000Y2250000D03*
X10550000Y1750000D03*
X10550000Y1250000D03*
X10550000Y750000D03*
X10550000Y250000D03*
X10550000Y-250000D03*
X10550000Y-750000D03*
X10550000Y-1250000D03*
X10550000Y-1750000D03*
X10550000Y-2250000D03*
X10550000Y-2750000D03*
X10550000Y-3250000D03*
X10550000Y-3750000D03*
D15*
X11250000Y-4450000D03*
X11750000Y-4450000D03*
X12250000Y-4450000D03*
X12750000Y-4450000D03*
X13250000Y-4450000D03*
X13750000Y-4450000D03*
X14250000Y-4450000D03*
X14750000Y-4450000D03*
X15250000Y-4450000D03*
X15750000Y-4450000D03*
X16250000Y-4450000D03*
X16750000Y-4450000D03*
X17250000Y-4450000D03*
X17750000Y-4450000D03*
X18250000Y-4450000D03*
X18750000Y-4450000D03*
D14*
X19450000Y-3750000D03*
X19450000Y-3250000D03*
X19450000Y-2750000D03*
X19450000Y-2250000D03*
X19450000Y-1750000D03*
X19450000Y-1250000D03*
X19450000Y-750000D03*
X19450000Y-250000D03*
X19450000Y250000D03*
X19450000Y750000D03*
X19450000Y1250000D03*
X19450000Y1750000D03*
X19450000Y2250000D03*
X19450000Y2750000D03*
X19450000Y3250000D03*
X19450000Y3750000D03*
D16*
X12243750Y-2756250D03*
X14081250Y-2756250D03*
X15918750Y-2756250D03*
X17756250Y-2756250D03*
X12243750Y-918750D03*
X14081250Y-918750D03*
X15918750Y-918750D03*
X17756250Y-918750D03*
X12243750Y918750D03*
X14081250Y918750D03*
X15918750Y918750D03*
X17756250Y918750D03*
X12243750Y2756250D03*
X14081250Y2756250D03*
X15918750Y2756250D03*
X17756250Y2756250D03*
D17*
X8000000Y-16950000D03*
X8000000Y-18050000D03*
X8000000Y-14950000D03*
X8000000Y-16050000D03*
D18*
X1450000Y-6000000D03*
X2550000Y-6000000D03*
X-550000Y-6000000D03*
X550000Y-6000000D03*
D17*
X7000000Y-16950000D03*
X7000000Y-18050000D03*
X7000000Y-14950000D03*
X7000000Y-16050000D03*
D18*
X1450000Y-7000000D03*
X2550000Y-7000000D03*
X-550000Y-7000000D03*
X550000Y-7000000D03*
D17*
X-7000000Y-18050000D03*
X-7000000Y-16950000D03*
X-7000000Y-16050000D03*
X-7000000Y-14950000D03*
X-3000000Y-20950000D03*
X-3000000Y-22050000D03*
D18*
X3050000Y-22000000D03*
X1950000Y-22000000D03*
X1050000Y-22000000D03*
X-50000Y-22000000D03*
X-950000Y-22000000D03*
X-2050000Y-22000000D03*
X2050000Y-21000000D03*
X950000Y-21000000D03*
D17*
X-8000000Y-18050000D03*
X-8000000Y-16950000D03*
X-8000000Y-16050000D03*
X-8000000Y-14950000D03*
D18*
X3050000Y-23000000D03*
X1950000Y-23000000D03*
X1050000Y-23000000D03*
X-50000Y-23000000D03*
X-950000Y-23000000D03*
X-2050000Y-23000000D03*
X-2950000Y-23000000D03*
X-4050000Y-23000000D03*
X-16950000Y-8000000D03*
X-18050000Y-8000000D03*
X-14950000Y-8000000D03*
X-16050000Y-8000000D03*
D17*
X-6000000Y-1450000D03*
X-6000000Y-2550000D03*
X-6000000Y550000D03*
X-6000000Y-550000D03*
D18*
X-16950000Y-7000000D03*
X-18050000Y-7000000D03*
X-14950000Y-7000000D03*
X-16050000Y-7000000D03*
D17*
X-7000000Y-1450000D03*
X-7000000Y-2550000D03*
X-7000000Y550000D03*
X-7000000Y-550000D03*
D18*
X-18050000Y7000000D03*
X-16950000Y7000000D03*
X-16050000Y7000000D03*
X-14950000Y7000000D03*
X-20950000Y3000000D03*
X-22050000Y3000000D03*
D17*
X-22000000Y-3050000D03*
X-22000000Y-1950000D03*
X-22000000Y-1050000D03*
X-22000000Y50000D03*
X-22000000Y950000D03*
X-22000000Y2050000D03*
X-21000000Y-2050000D03*
X-21000000Y-950000D03*
D18*
X-18050000Y8000000D03*
X-16950000Y8000000D03*
X-16050000Y8000000D03*
X-14950000Y8000000D03*
D17*
X-23000000Y-3050000D03*
X-23000000Y-1950000D03*
X-23000000Y-1050000D03*
X-23000000Y50000D03*
X-23000000Y950000D03*
X-23000000Y2050000D03*
X-23000000Y2950000D03*
X-23000000Y4050000D03*
X-8000000Y16950000D03*
X-8000000Y18050000D03*
X-8000000Y14950000D03*
X-8000000Y16050000D03*
D18*
X-1450000Y6000000D03*
X-2550000Y6000000D03*
X550000Y6000000D03*
X-550000Y6000000D03*
D17*
X-7000000Y16950000D03*
X-7000000Y18050000D03*
X-7000000Y14950000D03*
X-7000000Y16050000D03*
D18*
X-1450000Y7000000D03*
X-2550000Y7000000D03*
X550000Y7000000D03*
X-550000Y7000000D03*
D17*
X7000000Y18050000D03*
X7000000Y16950000D03*
X7000000Y16050000D03*
X7000000Y14950000D03*
X3000000Y20950000D03*
X3000000Y22050000D03*
D18*
X-3050000Y22000000D03*
X-1950000Y22000000D03*
X-1050000Y22000000D03*
X50000Y22000000D03*
X950000Y22000000D03*
X2050000Y22000000D03*
X-2050000Y21000000D03*
X-950000Y21000000D03*
D17*
X8000000Y18050000D03*
X8000000Y16950000D03*
X8000000Y16050000D03*
X8000000Y14950000D03*
D18*
X-3050000Y23000000D03*
X-1950000Y23000000D03*
X-1050000Y23000000D03*
X50000Y23000000D03*
X950000Y23000000D03*
X2050000Y23000000D03*
X2950000Y23000000D03*
X4050000Y23000000D03*
X16950000Y8000000D03*
X18050000Y8000000D03*
X14950000Y8000000D03*
X16050000Y8000000D03*
D17*
X6000000Y1450000D03*
X6000000Y2550000D03*
X6000000Y-550000D03*
X6000000Y550000D03*
D18*
X16950000Y7000000D03*
X18050000Y7000000D03*
X14950000Y7000000D03*
X16050000Y7000000D03*
D17*
X7000000Y1450000D03*
X7000000Y2550000D03*
X7000000Y-550000D03*
X7000000Y550000D03*
D18*
X18050000Y-7000000D03*
X16950000Y-7000000D03*
X16050000Y-7000000D03*
X14950000Y-7000000D03*
X20950000Y-3000000D03*
X22050000Y-3000000D03*
D17*
X22000000Y3050000D03*
X22000000Y1950000D03*
X22000000Y1050000D03*
X22000000Y-50000D03*
X22000000Y-950000D03*
X22000000Y-2050000D03*
X21000000Y2050000D03*
X21000000Y950000D03*
D18*
X18050000Y-8000000D03*
X16950000Y-8000000D03*
X16050000Y-8000000D03*
X14950000Y-8000000D03*
D17*
X23000000Y3050000D03*
X23000000Y1950000D03*
X23000000Y1050000D03*
X23000000Y-50000D03*
X23000000Y-950000D03*
X23000000Y-2050000D03*
X23000000Y-2950000D03*
X23000000Y-4050000D03*
D10*
G36*
X11474264Y-6072182D02*
X11827818Y-6425736D01*
X11403554Y-6850000D01*
X11050000Y-6496446D01*
X11474264Y-6072182D01*
X11474264Y-6072182D01*
G37*
G36*
X10696446Y-6850000D02*
X11050000Y-7203554D01*
X10625736Y-7627818D01*
X10272182Y-7274264D01*
X10696446Y-6850000D01*
X10696446Y-6850000D01*
G37*
G36*
X5875736Y-12377818D02*
X5522182Y-12024264D01*
X5946446Y-11600000D01*
X6300000Y-11953554D01*
X5875736Y-12377818D01*
X5875736Y-12377818D01*
G37*
G36*
X6653554Y-11600000D02*
X6300000Y-11246446D01*
X6724264Y-10822182D01*
X7077818Y-11175736D01*
X6653554Y-11600000D01*
X6653554Y-11600000D01*
G37*
D19*
X1350000Y-2950000D03*
X1350000Y2950000D03*
X-1350000Y2950000D03*
X-1350000Y-2950000D03*
D10*
G36*
X-10462660Y-15165011D02*
X-9599989Y-14302340D01*
X-8956522Y-14945807D01*
X-9819193Y-15808478D01*
X-10462660Y-15165011D01*
X-10462660Y-15165011D01*
G37*
G36*
X-12633478Y-12994193D02*
X-11770807Y-12131522D01*
X-11127340Y-12774989D01*
X-11990011Y-13637660D01*
X-12633478Y-12994193D01*
X-12633478Y-12994193D01*
G37*
G36*
X-14302340Y-9599989D02*
X-15165011Y-10462660D01*
X-15808478Y-9819193D01*
X-14945807Y-8956522D01*
X-14302340Y-9599989D01*
X-14302340Y-9599989D01*
G37*
G36*
X-12131522Y-11770807D02*
X-12994193Y-12633478D01*
X-13637660Y-11990011D01*
X-12774989Y-11127340D01*
X-12131522Y-11770807D01*
X-12131522Y-11770807D01*
G37*
G36*
X-20872196Y17513439D02*
X-21084328Y17725571D01*
X-20483288Y18326611D01*
X-20271156Y18114479D01*
X-20872196Y17513439D01*
X-20872196Y17513439D01*
G37*
G36*
X-20518642Y17159886D02*
X-20730774Y17372018D01*
X-20129734Y17973058D01*
X-19917602Y17760926D01*
X-20518642Y17159886D01*
X-20518642Y17159886D01*
G37*
G36*
X-20165089Y16806332D02*
X-20377221Y17018464D01*
X-19776181Y17619504D01*
X-19564049Y17407372D01*
X-20165089Y16806332D01*
X-20165089Y16806332D01*
G37*
G36*
X-19811536Y16452779D02*
X-20023668Y16664911D01*
X-19422628Y17265951D01*
X-19210496Y17053819D01*
X-19811536Y16452779D01*
X-19811536Y16452779D01*
G37*
G36*
X-19457982Y16099226D02*
X-19670114Y16311358D01*
X-19069074Y16912398D01*
X-18856942Y16700266D01*
X-19457982Y16099226D01*
X-19457982Y16099226D01*
G37*
G36*
X-19104429Y15745672D02*
X-19316561Y15957804D01*
X-18715521Y16558844D01*
X-18503389Y16346712D01*
X-19104429Y15745672D01*
X-19104429Y15745672D01*
G37*
G36*
X-17513439Y15957804D02*
X-17725571Y15745672D01*
X-18326611Y16346712D01*
X-18114479Y16558844D01*
X-17513439Y15957804D01*
X-17513439Y15957804D01*
G37*
G36*
X-17159886Y16311358D02*
X-17372018Y16099226D01*
X-17973058Y16700266D01*
X-17760926Y16912398D01*
X-17159886Y16311358D01*
X-17159886Y16311358D01*
G37*
G36*
X-16806332Y16664911D02*
X-17018464Y16452779D01*
X-17619504Y17053819D01*
X-17407372Y17265951D01*
X-16806332Y16664911D01*
X-16806332Y16664911D01*
G37*
G36*
X-16452779Y17018464D02*
X-16664911Y16806332D01*
X-17265951Y17407372D01*
X-17053819Y17619504D01*
X-16452779Y17018464D01*
X-16452779Y17018464D01*
G37*
G36*
X-16099226Y17372018D02*
X-16311358Y17159886D01*
X-16912398Y17760926D01*
X-16700266Y17973058D01*
X-16099226Y17372018D01*
X-16099226Y17372018D01*
G37*
G36*
X-15745672Y17725571D02*
X-15957804Y17513439D01*
X-16558844Y18114479D01*
X-16346712Y18326611D01*
X-15745672Y17725571D01*
X-15745672Y17725571D01*
G37*
G36*
X-16346712Y18503389D02*
X-16558844Y18715521D01*
X-15957804Y19316561D01*
X-15745672Y19104429D01*
X-16346712Y18503389D01*
X-16346712Y18503389D01*
G37*
G36*
X-16700266Y18856942D02*
X-16912398Y19069074D01*
X-16311358Y19670114D01*
X-16099226Y19457982D01*
X-16700266Y18856942D01*
X-16700266Y18856942D01*
G37*
G36*
X-17053819Y19210496D02*
X-17265951Y19422628D01*
X-16664911Y20023668D01*
X-16452779Y19811536D01*
X-17053819Y19210496D01*
X-17053819Y19210496D01*
G37*
G36*
X-17407372Y19564049D02*
X-17619504Y19776181D01*
X-17018464Y20377221D01*
X-16806332Y20165089D01*
X-17407372Y19564049D01*
X-17407372Y19564049D01*
G37*
G36*
X-17760926Y19917602D02*
X-17973058Y20129734D01*
X-17372018Y20730774D01*
X-17159886Y20518642D01*
X-17760926Y19917602D01*
X-17760926Y19917602D01*
G37*
G36*
X-18114479Y20271156D02*
X-18326611Y20483288D01*
X-17725571Y21084328D01*
X-17513439Y20872196D01*
X-18114479Y20271156D01*
X-18114479Y20271156D01*
G37*
G36*
X-18503389Y20483288D02*
X-18715521Y20271156D01*
X-19316561Y20872196D01*
X-19104429Y21084328D01*
X-18503389Y20483288D01*
X-18503389Y20483288D01*
G37*
G36*
X-18856942Y20129734D02*
X-19069074Y19917602D01*
X-19670114Y20518642D01*
X-19457982Y20730774D01*
X-18856942Y20129734D01*
X-18856942Y20129734D01*
G37*
G36*
X-19210496Y19776181D02*
X-19422628Y19564049D01*
X-20023668Y20165089D01*
X-19811536Y20377221D01*
X-19210496Y19776181D01*
X-19210496Y19776181D01*
G37*
G36*
X-19564049Y19422628D02*
X-19776181Y19210496D01*
X-20377221Y19811536D01*
X-20165089Y20023668D01*
X-19564049Y19422628D01*
X-19564049Y19422628D01*
G37*
G36*
X-19917602Y19069074D02*
X-20129734Y18856942D01*
X-20730774Y19457982D01*
X-20518642Y19670114D01*
X-19917602Y19069074D01*
X-19917602Y19069074D01*
G37*
G36*
X-20271156Y18715521D02*
X-20483288Y18503389D01*
X-21084328Y19104429D01*
X-20872196Y19316561D01*
X-20271156Y18715521D01*
X-20271156Y18715521D01*
G37*
G36*
X-17495761Y17495761D02*
X-18415000Y18415000D01*
X-17495761Y19334239D01*
X-16576522Y18415000D01*
X-17495761Y17495761D01*
X-17495761Y17495761D01*
G37*
G36*
X-18415000Y18415000D02*
X-19334239Y19334239D01*
X-18415000Y20253478D01*
X-17495761Y19334239D01*
X-18415000Y18415000D01*
X-18415000Y18415000D01*
G37*
G36*
X-18415000Y16576522D02*
X-19334239Y17495761D01*
X-18415000Y18415000D01*
X-17495761Y17495761D01*
X-18415000Y16576522D01*
X-18415000Y16576522D01*
G37*
G36*
X-19334239Y17495761D02*
X-20253478Y18415000D01*
X-19334239Y19334239D01*
X-18415000Y18415000D01*
X-19334239Y17495761D01*
X-19334239Y17495761D01*
G37*
G36*
X-22524426Y16179431D02*
X-23514050Y15189807D01*
X-24361786Y16037543D01*
X-23372162Y17027167D01*
X-22524426Y16179431D01*
X-22524426Y16179431D01*
G37*
G36*
X-23810399Y17465403D02*
X-24800023Y16475779D01*
X-25507667Y17183423D01*
X-24518043Y18173047D01*
X-23810399Y17465403D01*
X-23810399Y17465403D01*
G37*
G36*
X-25365779Y15910023D02*
X-26355403Y14920399D01*
X-27063047Y15628043D01*
X-26073423Y16617667D01*
X-25365779Y15910023D01*
X-25365779Y15910023D01*
G37*
G36*
X-24022333Y14566577D02*
X-25011957Y13576953D01*
X-25719601Y14284597D01*
X-24729977Y15274221D01*
X-24022333Y14566577D01*
X-24022333Y14566577D01*
G37*
G36*
X-11287182Y-11219264D02*
X-11640736Y-11572818D01*
X-12065000Y-11148554D01*
X-11711446Y-10795000D01*
X-11287182Y-11219264D01*
X-11287182Y-11219264D01*
G37*
G36*
X-12065000Y-10441446D02*
X-12418554Y-10795000D01*
X-12842818Y-10370736D01*
X-12489264Y-10017182D01*
X-12065000Y-10441446D01*
X-12065000Y-10441446D01*
G37*
D20*
X-19986714Y-23523521D03*
X-23522248Y-19987987D03*
D21*
X-21188796Y-26139816D03*
X-26138543Y-21190068D03*
D10*
G36*
X5460532Y-8076828D02*
X6379771Y-7157589D01*
X7793984Y-8571802D01*
X6874745Y-9491041D01*
X5460532Y-8076828D01*
X5460532Y-8076828D01*
G37*
G36*
X8288959Y-10905255D02*
X9208198Y-9986016D01*
X10622411Y-11400229D01*
X9703172Y-12319468D01*
X8288959Y-10905255D01*
X8288959Y-10905255D01*
G37*
G36*
X9986016Y-9208198D02*
X10905255Y-8288959D01*
X12319468Y-9703172D01*
X11400229Y-10622411D01*
X9986016Y-9208198D01*
X9986016Y-9208198D01*
G37*
G36*
X7157589Y-6379771D02*
X8076828Y-5460532D01*
X9491041Y-6874745D01*
X8571802Y-7793984D01*
X7157589Y-6379771D01*
X7157589Y-6379771D01*
G37*
G36*
X-19701992Y15578338D02*
X-19171662Y15048008D01*
X-19737348Y14482322D01*
X-20267678Y15012652D01*
X-19701992Y15578338D01*
X-19701992Y15578338D01*
G37*
G36*
X-20762652Y14517678D02*
X-20232322Y13987348D01*
X-20798008Y13421662D01*
X-21328338Y13951992D01*
X-20762652Y14517678D01*
X-20762652Y14517678D01*
G37*
G36*
X-17998008Y13971662D02*
X-18528338Y14501992D01*
X-17962652Y15067678D01*
X-17432322Y14537348D01*
X-17998008Y13971662D01*
X-17998008Y13971662D01*
G37*
G36*
X-16937348Y15032322D02*
X-17467678Y15562652D01*
X-16901992Y16128338D01*
X-16371662Y15598008D01*
X-16937348Y15032322D01*
X-16937348Y15032322D01*
G37*
G36*
X-14010008Y11367662D02*
X-14540338Y11897992D01*
X-13974652Y12463678D01*
X-13444322Y11933348D01*
X-14010008Y11367662D01*
X-14010008Y11367662D01*
G37*
G36*
X-12949348Y12428322D02*
X-13479678Y12958652D01*
X-12913992Y13524338D01*
X-12383662Y12994008D01*
X-12949348Y12428322D01*
X-12949348Y12428322D01*
G37*
G36*
X13675992Y-16318338D02*
X13145662Y-15788008D01*
X13711348Y-15222322D01*
X14241678Y-15752652D01*
X13675992Y-16318338D01*
X13675992Y-16318338D01*
G37*
G36*
X14736652Y-15257678D02*
X14206322Y-14727348D01*
X14772008Y-14161662D01*
X15302338Y-14691992D01*
X14736652Y-15257678D01*
X14736652Y-15257678D01*
G37*
G36*
X-8976992Y11619338D02*
X-8446662Y11089008D01*
X-9012348Y10523322D01*
X-9542678Y11053652D01*
X-8976992Y11619338D01*
X-8976992Y11619338D01*
G37*
G36*
X-10037652Y10558678D02*
X-9507322Y10028348D01*
X-10073008Y9462662D01*
X-10603338Y9992992D01*
X-10037652Y10558678D01*
X-10037652Y10558678D01*
G37*
G36*
X10881992Y-13524338D02*
X10351662Y-12994008D01*
X10917348Y-12428322D01*
X11447678Y-12958652D01*
X10881992Y-13524338D01*
X10881992Y-13524338D01*
G37*
G36*
X11942652Y-12463678D02*
X11412322Y-11933348D01*
X11978008Y-11367662D01*
X12508338Y-11897992D01*
X11942652Y-12463678D01*
X11942652Y-12463678D01*
G37*
G36*
X-8954662Y-11470008D02*
X-9484992Y-12000338D01*
X-10050678Y-11434652D01*
X-9520348Y-10904322D01*
X-8954662Y-11470008D01*
X-8954662Y-11470008D01*
G37*
G36*
X-10015322Y-10409348D02*
X-10545652Y-10939678D01*
X-11111338Y-10373992D01*
X-10581008Y-9843662D01*
X-10015322Y-10409348D01*
X-10015322Y-10409348D01*
G37*
G36*
X-8952338Y-6436992D02*
X-8422008Y-5906662D01*
X-7856322Y-6472348D01*
X-8386652Y-7002678D01*
X-8952338Y-6436992D01*
X-8952338Y-6436992D01*
G37*
G36*
X-7891678Y-7497652D02*
X-7361348Y-6967322D01*
X-6795662Y-7533008D01*
X-7325992Y-8063338D01*
X-7891678Y-7497652D01*
X-7891678Y-7497652D01*
G37*
G36*
X-19225736Y14727818D02*
X-18872182Y14374264D01*
X-19296446Y13950000D01*
X-19650000Y14303554D01*
X-19225736Y14727818D01*
X-19225736Y14727818D01*
G37*
G36*
X-20003554Y13950000D02*
X-19650000Y13596446D01*
X-20074264Y13172182D01*
X-20427818Y13525736D01*
X-20003554Y13950000D01*
X-20003554Y13950000D01*
G37*
G36*
X-17274264Y13722182D02*
X-17627818Y14075736D01*
X-17203554Y14500000D01*
X-16850000Y14146446D01*
X-17274264Y13722182D01*
X-17274264Y13722182D01*
G37*
G36*
X-16496446Y14500000D02*
X-16850000Y14853554D01*
X-16425736Y15277818D01*
X-16072182Y14924264D01*
X-16496446Y14500000D01*
X-16496446Y14500000D01*
G37*
G36*
X-11746338Y-11643992D02*
X-11216008Y-11113662D01*
X-10650322Y-11679348D01*
X-11180652Y-12209678D01*
X-11746338Y-11643992D01*
X-11746338Y-11643992D01*
G37*
G36*
X-10685678Y-12704652D02*
X-10155348Y-12174322D01*
X-9589662Y-12740008D01*
X-10119992Y-13270338D01*
X-10685678Y-12704652D01*
X-10685678Y-12704652D01*
G37*
G36*
X-25290000Y20478685D02*
X-26511315Y21700000D01*
X-25290000Y22921315D01*
X-24068685Y21700000D01*
X-25290000Y20478685D01*
X-25290000Y20478685D01*
G37*
D11*
X-23493949Y19903949D02*
X-23493949Y19903949D01*
X-23493949Y23496051D02*
X-23493949Y23496051D01*
X-21697898Y21700000D02*
X-21697898Y21700000D01*
X-21697898Y25292102D02*
X-21697898Y25292102D01*
X-19901846Y23496051D02*
X-19901846Y23496051D01*
D10*
G36*
X25290000Y-20478685D02*
X26511315Y-21700000D01*
X25290000Y-22921315D01*
X24068685Y-21700000D01*
X25290000Y-20478685D01*
X25290000Y-20478685D01*
G37*
D11*
X23493949Y-19903949D02*
X23493949Y-19903949D01*
X23493949Y-23496051D02*
X23493949Y-23496051D01*
X21697898Y-21700000D02*
X21697898Y-21700000D01*
X21697898Y-25292102D02*
X21697898Y-25292102D01*
X19901846Y-23496051D02*
X19901846Y-23496051D01*
D22*
X7850000Y-10550000D03*
X5550000Y-7250000D03*
X19750000Y4600000D03*
X24800000Y21300000D03*
X-16750000Y11400000D03*
X8700000Y9900000D03*
X-9850000Y7450000D03*
X16500000Y18400000D03*
X21150000Y25050000D03*
X-13150000Y-9800000D03*
X-8850000Y-15750000D03*
X-15750000Y-8850000D03*
X-9750000Y13850000D03*
X1050000Y23750000D03*
X-23750000Y1000000D03*
X-1000000Y-23750000D03*
X23750000Y-1050000D03*
X-3050000Y21250000D03*
X-21250000Y-3050000D03*
X21250000Y3050000D03*
X3050000Y-21250000D03*
X13650000Y9300000D03*
X9050000Y-15050000D03*
X13750000Y-9200000D03*
X9200000Y13750000D03*
X-13750000Y9200000D03*
X5100000Y-2800000D03*
X-5750000Y-6650000D03*
X5750000Y-3350000D03*
X3550000Y-5550000D03*
X4400000Y-5650000D03*
X-9600000Y2900000D03*
X-8500000Y4650000D03*
X-6850000Y6400000D03*
X4650000Y26300000D03*
X5300000Y25800000D03*
X5400000Y3950000D03*
X9500000Y-2600000D03*
X7000000Y4300000D03*
X7100000Y3500000D03*
X8000000Y3500000D03*
X8900000Y-3800000D03*
X8100000Y-4800000D03*
X-3100000Y-9300000D03*
X-4400000Y-8900000D03*
X21250000Y-700000D03*
X5250000Y-50000D03*
X4450000Y-1750000D03*
X-3150000Y-2950000D03*
X50000Y5250000D03*
X700000Y21250000D03*
X-5000000Y-500000D03*
X-21250000Y700000D03*
X500000Y-5000000D03*
X-700000Y-21200000D03*
X11500000Y5800000D03*
X-11300000Y8450000D03*
X10600000Y-6350000D03*
X-8850000Y8150000D03*
X-10550000Y-6650000D03*
X-10850000Y10850000D03*
X10600000Y-14200000D03*
X5800000Y-11150000D03*
X-10950000Y-10950000D03*
X-9950000Y-25200000D03*
X25200000Y-9950000D03*
X9950000Y25150000D03*
X-25200000Y9950000D03*
X1350000Y4550000D03*
X15050000Y20000000D03*
X10950000Y14600000D03*
X-250000Y25250000D03*
X-25250000Y-250000D03*
X250000Y-25250000D03*
X25250000Y250000D03*
X5000000Y1500000D03*
X1500000Y-5000000D03*
X-5000000Y-1500000D03*
X-1500000Y5000000D03*
X-8550000Y-24050000D03*
X-3500000Y-24050000D03*
X1600000Y-24200000D03*
X6650000Y-24000000D03*
X-24000000Y-6650000D03*
X-24050000Y-1600000D03*
X-24050000Y3500000D03*
X-24050000Y8550000D03*
X-6700000Y24050000D03*
X-1600000Y24050000D03*
X3500000Y24050000D03*
X8550000Y24050000D03*
X24050000Y6700000D03*
X24050000Y1600000D03*
X24050000Y-3500000D03*
X24050000Y-8550000D03*
X-3500000Y-5300000D03*
X-4400000Y-5300000D03*
X-6850000Y-3750000D03*
X-6850000Y-4650000D03*
X2750000Y9550000D03*
X-4750000Y4100000D03*
X-4700000Y5050000D03*
X-4200000Y6450000D03*
X-5050000Y6500000D03*
X3700000Y8600000D03*
X5000000Y8300000D03*
X-22900000Y-8050000D03*
X-22000000Y-8050000D03*
X-21350000Y-6750000D03*
X-21350000Y-7550000D03*
X-14150000Y-7700000D03*
X-13350000Y-7900000D03*
X-13200000Y-6600000D03*
X-12400000Y-6700000D03*
X2650000Y1150000D03*
X-2250000Y-5600000D03*
X0Y0D03*
X-4000000Y3650000D03*
X-11750000Y7400000D03*
X-12550000Y7300000D03*
X-13350000Y7150000D03*
X-14150000Y7000000D03*
X-23150000Y4900000D03*
X-22350000Y4850000D03*
X-21550000Y4700000D03*
X-20700000Y4700000D03*
X-8050000Y22900000D03*
X-8050000Y22000000D03*
X-6750000Y21350000D03*
X-7600000Y21300000D03*
X-7800000Y14100000D03*
X-8450000Y13300000D03*
X-6700000Y13200000D03*
X-7350000Y12400000D03*
X7450000Y11750000D03*
X7300000Y12550000D03*
X7150000Y13350000D03*
X7000000Y14150000D03*
X4850000Y23650000D03*
X4850000Y22750000D03*
X4700000Y21950000D03*
X4700000Y21050000D03*
X22900000Y8050000D03*
X22000000Y8050000D03*
X21350000Y6750000D03*
X21350000Y7550000D03*
X14150000Y7800000D03*
X13350000Y8000000D03*
X13200000Y6700000D03*
X12550000Y7150000D03*
X11750000Y-7450000D03*
X12550000Y-7300000D03*
X13350000Y-7150000D03*
X14150000Y-7000000D03*
X23350000Y-4900000D03*
X22450000Y-4900000D03*
X21650000Y-4700000D03*
X20700000Y-4700000D03*
X8100000Y-22850000D03*
X8100000Y-21950000D03*
X6800000Y-21300000D03*
X7600000Y-21300000D03*
X7750000Y-14150000D03*
X7950000Y-13350000D03*
X6650000Y-13200000D03*
X6850000Y-12400000D03*
X-7450000Y-11750000D03*
X-7300000Y-12550000D03*
X-7150000Y-13350000D03*
X-7000000Y-14150000D03*
X-4900000Y-23250000D03*
X-4850000Y-22350000D03*
X-4700000Y-21550000D03*
X-4700000Y-20650000D03*
X-20600000Y1400000D03*
X-12450000Y9000000D03*
X-12450000Y-7700000D03*
X-8350000Y12450000D03*
X1400000Y20600000D03*
X9050000Y12400000D03*
X15850000Y-13450000D03*
X-13850000Y-13850000D03*
X-14450000Y14450000D03*
X0Y26300000D03*
X-26300000Y0D03*
X0Y-26300000D03*
X26300000Y0D03*
X20600000Y-1400000D03*
X12400000Y-9000000D03*
X12500000Y8000000D03*
X-8250000Y-11650000D03*
X-1400000Y-20600000D03*
X7950000Y-12450000D03*
X-23500000Y17850000D03*
X-12650000Y-9000000D03*
X-8900000Y-12200000D03*
X-23250000Y-23250000D03*
X-22300000Y-23200000D03*
X-18750000Y22050000D03*
X-17100000Y-20250000D03*
X-31400000Y-14650000D03*
X-18250000Y23150000D03*
X26500000Y-5300000D03*
X7450000Y5550000D03*
X11350000Y8400000D03*
X3950000Y4150000D03*
X3350000Y4750000D03*
X4700000Y5250000D03*
X5250000Y5900000D03*
X4750000Y6550000D03*
X12250000Y13250000D03*
X18400000Y13500000D03*
X14250000Y11250000D03*
X4600000Y3550000D03*
X-23100000Y-14650000D03*
X29150000Y13900000D03*
X-23100000Y-16850000D03*
X-18450000Y25350000D03*
X-21250000Y16850000D03*
X-23750000Y-17500000D03*
X-15400000Y-28200000D03*
D23*
X10661091Y-7238909D02*
X10661091Y-8964034D01*
X10661091Y-8964034D02*
X11152742Y-9455685D01*
X11152742Y-9455685D02*
X8944315Y-9455685D01*
X8944315Y-9455685D02*
X7850000Y-10550000D01*
X6688909Y-11211091D02*
X6688909Y-8385966D01*
X6688909Y-8385966D02*
X6627258Y-8324315D01*
X6627258Y-8324315D02*
X5552943Y-7250000D01*
X5552943Y-7250000D02*
X5550000Y-7250000D01*
X19750000Y4600000D02*
X24650000Y4600000D01*
X26350000Y6300000D02*
X26350000Y12650000D01*
X24650000Y4600000D02*
X26350000Y6300000D01*
X24800000Y14200000D02*
X24800000Y21300000D01*
X26350000Y12650000D02*
X24800000Y14200000D01*
X16500000Y18400000D02*
X16500000Y19900000D01*
X-16750000Y11400000D02*
X-15330431Y9980431D01*
X11200000Y13123330D02*
X15569639Y17492969D01*
X11200000Y13123330D02*
X11200000Y11450000D01*
X10150000Y10400000D02*
X9200000Y10400000D01*
X9200000Y10400000D02*
X8700000Y9900000D01*
X11200000Y11450000D02*
X10150000Y10400000D01*
X-8994670Y11071330D02*
X-9727827Y11071330D01*
X-9727827Y11071330D02*
X-9980431Y11323934D01*
X-15330431Y9980431D02*
X-11323934Y9980431D01*
X-9800000Y9000000D02*
X-9850000Y8950000D01*
X-9850000Y8950000D02*
X-9850000Y7450000D01*
X-11323934Y9980431D02*
X-10343503Y9000000D01*
X-9150000Y9650000D02*
X-9150000Y10493503D01*
X-9800000Y9000000D02*
X-9150000Y9650000D01*
X-10343503Y9000000D02*
X-9800000Y9000000D01*
X-9150000Y10493503D02*
X-9980431Y11323934D01*
X-9980431Y11323934D02*
X-9205406Y10548909D01*
X-9205406Y10548909D02*
X-9136091Y10548909D01*
X16500000Y18400000D02*
X16476670Y18400000D01*
X16476670Y18400000D02*
X15569639Y17492969D01*
X16500000Y19900000D02*
X16500000Y20400000D01*
X16500000Y20400000D02*
X21150000Y25050000D01*
X-19450000Y2250000D02*
X-20700000Y2250000D01*
X-16250000Y4450000D02*
X-16250000Y5650000D01*
X-10140431Y-7440431D02*
X-12350000Y-9650000D01*
X-10775431Y-8075431D02*
X-10140431Y-7440431D01*
X-10775431Y-8075431D02*
X-12350000Y-9650000D01*
X-7000000Y-16950000D02*
X-8000000Y-16950000D01*
X-8000000Y-16950000D02*
X-8150000Y-16950000D01*
X-8150000Y-16950000D02*
X-8850000Y-16250000D01*
X-8850000Y-16250000D02*
X-8850000Y-15750000D01*
X-8783934Y-7440431D02*
X-10140431Y-7440431D01*
X-12350000Y-9650000D02*
X-13000000Y-9650000D01*
X-13000000Y-9650000D02*
X-13150000Y-9800000D01*
X-7440431Y-8783934D02*
X-6500000Y-7843503D01*
X-6500000Y-7843503D02*
X-6500000Y-7250000D01*
X-6500000Y-7250000D02*
X-7153909Y-6596091D01*
X-7153909Y-6596091D02*
X-7939594Y-6596091D01*
X-7939594Y-6596091D02*
X-8783934Y-7440431D01*
X-8783934Y-7440431D02*
X-8404330Y-7060827D01*
X-8404330Y-7060827D02*
X-8404330Y-6454670D01*
X-13000000Y-9650000D02*
X-13150000Y-9800000D01*
X-12350000Y-9650000D02*
X-13000000Y-9650000D01*
X-7153909Y-6596091D02*
X-8008909Y-6596091D01*
X-6500000Y-7250000D02*
X-7153909Y-6596091D01*
X-6500000Y-7843503D02*
X-6500000Y-7250000D01*
X-8783934Y-7440431D02*
X-8008909Y-6665406D01*
X-8008909Y-6665406D02*
X-8008909Y-6596091D01*
X-8000000Y-16950000D02*
X-8150000Y-16950000D01*
X-8150000Y-16950000D02*
X-8850000Y-16250000D01*
X-8850000Y-16250000D02*
X-8850000Y-15750000D01*
X-16950000Y-8000000D02*
X-16950000Y-8150000D01*
X-16950000Y-8150000D02*
X-16250000Y-8850000D01*
X-16250000Y-8850000D02*
X-15750000Y-8850000D01*
X-8000000Y16950000D02*
X-8150000Y16950000D01*
X-8150000Y16950000D02*
X-8600000Y16500000D01*
X-9750000Y13850000D02*
X-9750000Y13850000D01*
X-8600000Y15000000D02*
X-9750000Y13850000D01*
X-8600000Y16500000D02*
X-8600000Y15000000D01*
X950000Y23000000D02*
X950000Y23650000D01*
X950000Y23650000D02*
X1050000Y23750000D01*
X-23000000Y950000D02*
X-23700000Y950000D01*
X-23700000Y950000D02*
X-23750000Y1000000D01*
X-950000Y-23000000D02*
X-950000Y-23700000D01*
X-950000Y-23700000D02*
X-1000000Y-23750000D01*
X23000000Y-950000D02*
X23650000Y-950000D01*
X23650000Y-950000D02*
X23750000Y-1050000D01*
X-3050000Y22000000D02*
X-3050000Y21250000D01*
X-22000000Y-3050000D02*
X-21250000Y-3050000D01*
X22000000Y3050000D02*
X21250000Y3050000D01*
X3050000Y-22000000D02*
X3050000Y-21250000D01*
X16950000Y8000000D02*
X16950000Y8150000D01*
X16950000Y8150000D02*
X16500000Y8600000D01*
X14350000Y9300000D02*
X13650000Y9300000D01*
X15050000Y8600000D02*
X14350000Y9300000D01*
X16500000Y8600000D02*
X15050000Y8600000D01*
X8000000Y-16950000D02*
X8150000Y-16950000D01*
X8150000Y-16950000D02*
X8600000Y-16500000D01*
X8600000Y-16500000D02*
X8600000Y-15500000D01*
X8600000Y-15500000D02*
X9050000Y-15050000D01*
X8150000Y-16950000D02*
X8600000Y-16500000D01*
X16950000Y-8000000D02*
X16950000Y-8150000D01*
X16950000Y-8150000D02*
X16500000Y-8600000D01*
X14350000Y-8600000D02*
X13750000Y-9200000D01*
X16500000Y-8600000D02*
X14350000Y-8600000D01*
X8000000Y16950000D02*
X8150000Y16950000D01*
X8150000Y16950000D02*
X8600000Y16500000D01*
X8600000Y14350000D02*
X9200000Y13750000D01*
X8600000Y16500000D02*
X8600000Y14350000D01*
X-16950000Y8000000D02*
X-16950000Y8150000D01*
X-16950000Y8150000D02*
X-16500000Y8600000D01*
X-14350000Y8600000D02*
X-13750000Y9200000D01*
X-16500000Y8600000D02*
X-14350000Y8600000D01*
X-16950000Y7000000D02*
X-16950000Y8000000D01*
X-16950000Y6350000D02*
X-16950000Y7000000D01*
X-16250000Y5650000D02*
X-16950000Y6350000D01*
X-16950000Y-7000000D02*
X-16950000Y-8000000D01*
X-16250000Y-4450000D02*
X-16250000Y-5600000D01*
X-16950000Y-6300000D02*
X-16950000Y-7000000D01*
X-16250000Y-5600000D02*
X-16950000Y-6300000D01*
X-4450000Y-16250000D02*
X-5650000Y-16250000D01*
X-6350000Y-16950000D02*
X-7000000Y-16950000D01*
X-5650000Y-16250000D02*
X-6350000Y-16950000D01*
X7000000Y-16950000D02*
X8000000Y-16950000D01*
X4450000Y-16250000D02*
X5600000Y-16250000D01*
X6350000Y-17000000D02*
X6750000Y-17000000D01*
X5600000Y-16250000D02*
X6350000Y-17000000D01*
X6750000Y-17000000D02*
X7000000Y-16950000D01*
X16950000Y-7000000D02*
X16950000Y-8000000D01*
X16250000Y-4450000D02*
X16250000Y-5650000D01*
X16950000Y-6350000D02*
X16950000Y-7000000D01*
X16250000Y-5650000D02*
X16950000Y-6350000D01*
X16950000Y7000000D02*
X16950000Y8000000D01*
X-7000000Y16950000D02*
X-8000000Y16950000D01*
X-6300000Y16950000D02*
X-7000000Y16950000D01*
X7000000Y16950000D02*
X8000000Y16950000D01*
X4450000Y16250000D02*
X5600000Y16250000D01*
X6300000Y16950000D02*
X7000000Y16950000D01*
X5600000Y16250000D02*
X6300000Y16950000D01*
X16250000Y4450000D02*
X16250000Y5600000D01*
X16950000Y6300000D02*
X16950000Y7000000D01*
X16250000Y5600000D02*
X16950000Y6300000D01*
X23000000Y3050000D02*
X23000000Y3000000D01*
X23000000Y-50000D02*
X23000000Y-950000D01*
X-23000000Y50000D02*
X-23000000Y950000D01*
X-50000Y-23000000D02*
X-950000Y-23000000D01*
X3050000Y-23000000D02*
X3000000Y-23000000D01*
X-23000000Y-3050000D02*
X-23000000Y-3000000D01*
X-3050000Y23000000D02*
X-3000000Y23000000D01*
X-23000000Y-3050000D02*
X-23000000Y-3035000D01*
X-22000000Y950000D02*
X-23000000Y950000D01*
X-20700000Y2250000D02*
X-22000000Y950000D01*
X-22000000Y50000D02*
X-23000000Y50000D01*
X-19450000Y-750000D02*
X-20150000Y-750000D01*
X-20950000Y50000D02*
X-22000000Y50000D01*
X-20150000Y-750000D02*
X-20950000Y50000D01*
X-22000000Y-3050000D02*
X-23000000Y-3050000D01*
X-19450000Y-2750000D02*
X-21700000Y-2750000D01*
X-21700000Y-2750000D02*
X-22000000Y-3050000D01*
X-950000Y-22000000D02*
X-950000Y-23000000D01*
X-2250000Y-19450000D02*
X-2250000Y-20700000D01*
X-2250000Y-20700000D02*
X-950000Y-22000000D01*
X-50000Y-22000000D02*
X-50000Y-23000000D01*
X750000Y-19450000D02*
X750000Y-20150000D01*
X-50000Y-20950000D02*
X-50000Y-22000000D01*
X750000Y-20150000D02*
X-50000Y-20950000D01*
X3050000Y-22000000D02*
X3050000Y-23000000D01*
X2750000Y-19450000D02*
X2750000Y-21700000D01*
X2750000Y-21700000D02*
X3050000Y-22000000D01*
X22000000Y-950000D02*
X23000000Y-950000D01*
X19450000Y-2250000D02*
X20700000Y-2250000D01*
X20700000Y-2250000D02*
X22000000Y-950000D01*
X22000000Y-50000D02*
X23000000Y-50000D01*
X19450000Y750000D02*
X20150000Y750000D01*
X20950000Y-50000D02*
X22000000Y-50000D01*
X20150000Y750000D02*
X20950000Y-50000D01*
X22000000Y3050000D02*
X23000000Y3050000D01*
X19450000Y2750000D02*
X21700000Y2750000D01*
X21700000Y2750000D02*
X22000000Y3050000D01*
X950000Y23000000D02*
X50000Y23000000D01*
X23050000Y-1000000D02*
X23000000Y-950000D01*
X0Y-23050000D02*
X-50000Y-23000000D01*
X-750000Y19450000D02*
X-750000Y20150000D01*
X50000Y20950000D02*
X50000Y22000000D01*
X-750000Y20150000D02*
X50000Y20950000D01*
X950000Y22000000D02*
X950000Y23000000D01*
X2250000Y19450000D02*
X2250000Y20700000D01*
X2250000Y20700000D02*
X950000Y22000000D01*
X50000Y22000000D02*
X50000Y23000000D01*
X-3050000Y22000000D02*
X-3050000Y23000000D01*
X0Y21950000D02*
X50000Y22000000D01*
X-2750000Y19450000D02*
X-2750000Y21700000D01*
X-2750000Y21700000D02*
X-3050000Y22000000D01*
X-4450000Y16250000D02*
X-5600000Y16250000D01*
X-5600000Y16250000D02*
X-6300000Y16950000D01*
X5100000Y-3950000D02*
X5100000Y-2800000D01*
X2750000Y-9650000D02*
X4300000Y-8100000D01*
X2750000Y-10550000D02*
X2750000Y-9650000D01*
X4300000Y-8100000D02*
X4300000Y-6700000D01*
X4300000Y-6700000D02*
X5100000Y-5900000D01*
X5100000Y-5900000D02*
X5100000Y-3950000D01*
X-6400000Y-11900000D02*
X-6400000Y-9200000D01*
X-5750000Y-8550000D02*
X-5750000Y-6650000D01*
X-6400000Y-9200000D02*
X-5750000Y-8550000D01*
X-4450000Y-12750000D02*
X-5550000Y-12750000D01*
X-5550000Y-12750000D02*
X-6400000Y-11900000D01*
X5300000Y-6350000D02*
X5750000Y-5900000D01*
X5750000Y-4850000D02*
X5750000Y-3350000D01*
X3250000Y-9850000D02*
X4750000Y-8350000D01*
X4750000Y-6900000D02*
X5300000Y-6350000D01*
X4750000Y-8350000D02*
X4750000Y-6900000D01*
X3250000Y-10550000D02*
X3250000Y-9850000D01*
X5750000Y-5900000D02*
X5750000Y-4850000D01*
X1750000Y-8800000D02*
X3400000Y-7150000D01*
X1750000Y-10550000D02*
X1750000Y-8800000D01*
X3400000Y-7150000D02*
X3400000Y-5700000D01*
X3400000Y-5700000D02*
X3550000Y-5550000D01*
X4400000Y-5650000D02*
X3850000Y-6200000D01*
X2250000Y-10550000D02*
X2250000Y-9200000D01*
X3850000Y-6200000D02*
X3850000Y-7600000D01*
X3850000Y-7600000D02*
X2250000Y-9200000D01*
X-10550000Y2750000D02*
X-9750000Y2750000D01*
X-9750000Y2750000D02*
X-9600000Y2900000D01*
X-11250000Y4450000D02*
X-8700000Y4450000D01*
X-8700000Y4450000D02*
X-8500000Y4650000D01*
X-11250000Y4450000D02*
X-11200000Y4400000D01*
X-12750000Y4450000D02*
X-12750000Y5550000D01*
X-12750000Y5550000D02*
X-11900000Y6400000D01*
X-11900000Y6400000D02*
X-6850000Y6400000D01*
X5150000Y27050000D02*
X6750000Y27050000D01*
X13800000Y28900000D02*
X14697102Y28900000D01*
X11950000Y27050000D02*
X13800000Y28900000D01*
X14697102Y28900000D02*
X15766051Y27831051D01*
X6750000Y27050000D02*
X11950000Y27050000D01*
X4650000Y26300000D02*
X4650000Y26550000D01*
X4650000Y26550000D02*
X5150000Y27050000D01*
X5300000Y26300000D02*
X5300000Y25800000D01*
X5300000Y26300000D02*
X5600000Y26600000D01*
X5600000Y26600000D02*
X13405000Y26600000D01*
X5300000Y26300000D02*
X5600000Y26600000D01*
X13405000Y26600000D02*
X13970000Y26035000D01*
X6750000Y4950000D02*
X6500000Y4950000D01*
X5500000Y3950000D02*
X5400000Y3950000D01*
X6500000Y4950000D02*
X5500000Y3950000D01*
X7150000Y4950000D02*
X6750000Y4950000D01*
X10550000Y3250000D02*
X9800000Y3250000D01*
X9800000Y3250000D02*
X8200000Y4850000D01*
X8200000Y4850000D02*
X7250000Y4850000D01*
X7250000Y4850000D02*
X7150000Y4950000D01*
X9650000Y-2750000D02*
X10550000Y-2750000D01*
X9500000Y-2600000D02*
X9650000Y-2750000D01*
X10550000Y2750000D02*
X9650000Y2750000D01*
X8100000Y4300000D02*
X7000000Y4300000D01*
X9650000Y2750000D02*
X8100000Y4300000D01*
X10550000Y1750000D02*
X8850000Y1750000D01*
X8850000Y1750000D02*
X7100000Y3500000D01*
X10550000Y2250000D02*
X9250000Y2250000D01*
X9250000Y2250000D02*
X8000000Y3500000D01*
X11250000Y-4450000D02*
X11050000Y-4250000D01*
X11050000Y-4250000D02*
X9350000Y-4250000D01*
X9350000Y-4250000D02*
X8900000Y-3800000D01*
X9700000Y-5700000D02*
X9000000Y-5700000D01*
X9000000Y-5700000D02*
X8100000Y-4800000D01*
X12750000Y-4450000D02*
X12750000Y-5200000D01*
X12250000Y-5700000D02*
X9700000Y-5700000D01*
X12750000Y-5200000D02*
X12250000Y-5700000D01*
X-2750000Y-10550000D02*
X-2750000Y-9650000D01*
X-2750000Y-9650000D02*
X-3100000Y-9300000D01*
X-4450000Y-11250000D02*
X-4250000Y-11050000D01*
X-4250000Y-11050000D02*
X-4250000Y-9050000D01*
X-4250000Y-9050000D02*
X-4400000Y-8900000D01*
X10550000Y-3750000D02*
X9750000Y-3750000D01*
X7200000Y-1200000D02*
X6750000Y-1200000D01*
X9750000Y-3750000D02*
X7200000Y-1200000D01*
X5450000Y-1200000D02*
X3800000Y450000D01*
X200000Y1400000D02*
X-1350000Y2950000D01*
X6750000Y-1200000D02*
X5450000Y-1200000D01*
X3800000Y450000D02*
X1150000Y450000D01*
X1150000Y450000D02*
X200000Y1400000D01*
X-10550000Y3750000D02*
X-9500000Y3750000D01*
X-8700000Y2950000D02*
X-1350000Y2950000D01*
X-9500000Y3750000D02*
X-8700000Y2950000D01*
X0Y-4250000D02*
X0Y-1850000D01*
X-3750000Y-8000000D02*
X0Y-4250000D01*
X-3750000Y-10550000D02*
X-3750000Y-8000000D01*
X0Y-1850000D02*
X-1350000Y-500000D01*
X-1350000Y-500000D02*
X-1350000Y2950000D01*
X3750000Y10550000D02*
X3750000Y9600000D01*
X3750000Y9600000D02*
X1400000Y7250000D01*
X1400000Y7250000D02*
X1400000Y5700000D01*
X1400000Y5700000D02*
X-1350000Y2950000D01*
X750000Y-10550000D02*
X750000Y-8000000D01*
X1450000Y-7300000D02*
X1450000Y-7000000D01*
X750000Y-8000000D02*
X1450000Y-7300000D01*
X1450000Y-7000000D02*
X1450000Y-6000000D01*
X19450000Y-750000D02*
X21200000Y-750000D01*
X21200000Y-750000D02*
X21250000Y-700000D01*
X5250000Y-50000D02*
X6000000Y-500000D01*
X6150000Y-2850000D02*
X5450000Y-2150000D01*
X4850000Y-2150000D02*
X4450000Y-1750000D01*
X5450000Y-2150000D02*
X4850000Y-2150000D01*
X6600000Y-6600000D02*
X6600000Y-3300000D01*
X8150000Y-8150000D02*
X6600000Y-6600000D01*
X8150000Y-8700000D02*
X8150000Y-8150000D01*
X7200000Y-9650000D02*
X8150000Y-8700000D01*
X7200000Y-10800000D02*
X7200000Y-9650000D01*
X9050000Y-12650000D02*
X7200000Y-10800000D01*
X6600000Y-3300000D02*
X6150000Y-2850000D01*
X6150000Y-2850000D02*
X5600000Y-2300000D01*
X11250431Y-12593934D02*
X11194365Y-12650000D01*
X11194365Y-12650000D02*
X9050000Y-12650000D01*
X11885431Y-13228934D02*
X11306497Y-12650000D01*
X11306497Y-12650000D02*
X9050000Y-12650000D01*
X9050000Y-12650000D02*
X7200000Y-10800000D01*
X7200000Y-10800000D02*
X7200000Y-9650000D01*
X7200000Y-9650000D02*
X8150000Y-8700000D01*
X8150000Y-8700000D02*
X8150000Y-8150000D01*
X8150000Y-8150000D02*
X6600000Y-6600000D01*
X6600000Y-6600000D02*
X6600000Y-3300000D01*
X6600000Y-3300000D02*
X5600000Y-2300000D01*
X250000Y-10550000D02*
X250000Y-7800000D01*
X250000Y-7800000D02*
X-550000Y-7000000D01*
X11306497Y-12650000D02*
X9050000Y-12650000D01*
X11041091Y-12453909D02*
X11041091Y-11608909D01*
X12293503Y-10950000D02*
X13228934Y-11885431D01*
X11700000Y-10950000D02*
X12293503Y-10950000D01*
X11041091Y-11608909D02*
X11700000Y-10950000D01*
X11041091Y-12453909D02*
X11110406Y-12453909D01*
X11110406Y-12453909D02*
X11885431Y-13228934D01*
X-1350000Y-2950000D02*
X-3150000Y-2950000D01*
X50000Y5250000D02*
X550000Y6000000D01*
X750000Y21200000D02*
X700000Y21250000D01*
X750000Y19450000D02*
X750000Y21200000D01*
X-19450000Y750000D02*
X-21200000Y750000D01*
X-5000000Y-500000D02*
X-6000000Y500000D01*
X-21200000Y750000D02*
X-21250000Y700000D01*
X-750000Y-19450000D02*
X-750000Y-21150000D01*
X500000Y-5000000D02*
X-500000Y-6000000D01*
X-750000Y-21150000D02*
X-700000Y-21200000D01*
X-550000Y-6000000D02*
X-500000Y-6000000D01*
X-6000000Y550000D02*
X-6000000Y500000D01*
X550000Y6000000D02*
X500000Y6000000D01*
X6000000Y-550000D02*
X6000000Y-500000D01*
X-250000Y10550000D02*
X-250000Y7800000D01*
X-250000Y7800000D02*
X550000Y7000000D01*
X-10550000Y-250000D02*
X-7800000Y-250000D01*
X-7800000Y-250000D02*
X-7000000Y550000D01*
X250000Y-7800000D02*
X-550000Y-7000000D01*
X10550000Y250000D02*
X7800000Y250000D01*
X7800000Y250000D02*
X7000000Y-550000D01*
X7000000Y-550000D02*
X6000000Y-550000D01*
X-550000Y-7000000D02*
X-550000Y-6000000D01*
X-7000000Y550000D02*
X-6000000Y550000D01*
X550000Y7000000D02*
X550000Y6000000D01*
X-2750000Y-19450000D02*
X-2750000Y-20700000D01*
X-2750000Y-20700000D02*
X-3000000Y-20950000D01*
X-12243750Y-918750D02*
X-12243750Y-2756250D01*
X-12243750Y-2756250D02*
X-14081250Y-2756250D01*
X-14081250Y-2756250D02*
X-15918750Y-2756250D01*
X-15918750Y-2756250D02*
X-17756250Y-2756250D01*
X-17756250Y-2756250D02*
X-17756250Y-918750D01*
X-17756250Y-918750D02*
X-15918750Y-918750D01*
X-15918750Y-918750D02*
X-14081250Y-918750D01*
X-14081250Y-918750D02*
X-12243750Y918750D01*
X-12243750Y918750D02*
X-14081250Y918750D01*
X-14081250Y918750D02*
X-15918750Y918750D01*
X-15918750Y918750D02*
X-17756250Y918750D01*
X-17756250Y918750D02*
X-17756250Y2756250D01*
X-17756250Y2756250D02*
X-15918750Y2756250D01*
X-15918750Y2756250D02*
X-14081250Y2756250D01*
X-14081250Y2756250D02*
X-12243750Y2756250D01*
X918750Y-12243750D02*
X2756250Y-12243750D01*
X2756250Y-12243750D02*
X2756250Y-14081250D01*
X2756250Y-14081250D02*
X2756250Y-15918750D01*
X2756250Y-15918750D02*
X2756250Y-17756250D01*
X2756250Y-17756250D02*
X918750Y-17756250D01*
X918750Y-17756250D02*
X918750Y-15918750D01*
X918750Y-15918750D02*
X918750Y-14081250D01*
X918750Y-14081250D02*
X-918750Y-12243750D01*
X-918750Y-12243750D02*
X-918750Y-14081250D01*
X-918750Y-14081250D02*
X-918750Y-15918750D01*
X-918750Y-15918750D02*
X-918750Y-17756250D01*
X-918750Y-17756250D02*
X-2756250Y-17756250D01*
X-2756250Y-17756250D02*
X-2756250Y-15918750D01*
X-2756250Y-15918750D02*
X-2756250Y-14081250D01*
X-2756250Y-14081250D02*
X-2756250Y-12243750D01*
X12243750Y918750D02*
X12243750Y2756250D01*
X12243750Y2756250D02*
X14081250Y2756250D01*
X14081250Y2756250D02*
X15918750Y2756250D01*
X15918750Y2756250D02*
X17756250Y2756250D01*
X17756250Y2756250D02*
X17756250Y918750D01*
X17756250Y918750D02*
X15918750Y918750D01*
X15918750Y918750D02*
X14081250Y918750D01*
X14081250Y918750D02*
X12243750Y-918750D01*
X12243750Y-918750D02*
X14081250Y-918750D01*
X14081250Y-918750D02*
X15918750Y-918750D01*
X15918750Y-918750D02*
X17756250Y-918750D01*
X17756250Y-918750D02*
X17756250Y-2756250D01*
X17756250Y-2756250D02*
X15918750Y-2756250D01*
X15918750Y-2756250D02*
X14081250Y-2756250D01*
X14081250Y-2756250D02*
X12243750Y-2756250D01*
X-918750Y15918750D02*
X-918750Y17756250D01*
X-918750Y15918750D02*
X-2756250Y17756250D01*
X-918750Y14081250D02*
X-2756250Y15918750D01*
X918750Y15918750D02*
X-918750Y14081250D01*
X918750Y15918750D02*
X-918750Y15918750D01*
X918750Y15918750D02*
X-918750Y17756250D01*
X918750Y15918750D02*
X918750Y17756250D01*
X918750Y15918750D02*
X2756250Y17756250D01*
X918750Y14081250D02*
X918750Y15918750D01*
X918750Y14081250D02*
X2756250Y15918750D01*
X918750Y14081250D02*
X2756250Y14081250D01*
X918750Y12243750D02*
X2756250Y12243750D01*
X-918750Y12243750D02*
X918750Y14081250D01*
X-918750Y12243750D02*
X918750Y12243750D01*
X-918750Y12243750D02*
X-918750Y14081250D01*
X-918750Y12243750D02*
X-2756250Y14081250D01*
X-918750Y12243750D02*
X-2756250Y12243750D01*
X10550000Y4850000D02*
X11500000Y5800000D01*
X10550000Y3750000D02*
X10550000Y4850000D01*
X10711091Y-6461091D02*
X10600000Y-6350000D01*
X10711091Y-6461091D02*
X11438909Y-6461091D01*
X3750000Y-10550000D02*
X5200000Y-10550000D01*
X5200000Y-10550000D02*
X5800000Y-11150000D01*
X-3750000Y10550000D02*
X-6450000Y10550000D01*
X-6450000Y10550000D02*
X-8850000Y8150000D01*
X-10550000Y-3750000D02*
X-10550000Y-6650000D01*
X-9667817Y-9667817D02*
X-7515330Y-7515330D01*
X-7515330Y-7515330D02*
X-7343670Y-7515330D01*
X-9667817Y-9667817D02*
X-9712477Y-9667817D01*
X-9712477Y-9667817D02*
X-10436330Y-10391670D01*
X-10850000Y10850000D02*
X-10850000Y10805340D01*
X-10850000Y10805340D02*
X-10055330Y10010670D01*
X-12931670Y12976330D02*
X-12931670Y12931670D01*
X-12931670Y12931670D02*
X-12207817Y12207817D01*
X14112817Y-14112817D02*
X13800000Y-13800000D01*
X13800000Y-13800000D02*
X12900000Y-13800000D01*
X10650000Y-14150000D02*
X10600000Y-14200000D01*
X12550000Y-14150000D02*
X10650000Y-14150000D01*
X12900000Y-13800000D02*
X12550000Y-14150000D01*
X-12207817Y12207817D02*
X-12946091Y12946091D01*
X-12946091Y12946091D02*
X-13088909Y12946091D01*
X-9913909Y9913909D02*
X-10850000Y10850000D01*
X-10850000Y10850000D02*
X-12207817Y12207817D01*
X-9913909Y9913909D02*
X-9913909Y9771091D01*
X14112817Y-14112817D02*
X12400000Y-12400000D01*
X14112817Y-14112817D02*
X11818909Y-11818909D01*
X11818909Y-11818909D02*
X11818909Y-11676091D01*
X14112817Y-14112817D02*
X14851091Y-14851091D01*
X14851091Y-14851091D02*
X14993909Y-14851091D01*
X-9667817Y-9667817D02*
X-7373909Y-7373909D01*
X-7373909Y-7373909D02*
X-7231091Y-7373909D01*
X-10406091Y-10548909D02*
X-10406091Y-10406091D01*
X-10406091Y-10406091D02*
X-9667817Y-9667817D01*
X-10406091Y-10406091D02*
X-9667817Y-9667817D01*
X5911091Y-11261091D02*
X5800000Y-11150000D01*
X5911091Y-11261091D02*
X5911091Y-11988909D01*
X-10950000Y-10950000D02*
X-10302817Y-10302817D01*
X-11676091Y-11183909D02*
X-11183909Y-11183909D01*
X-11183909Y-11183909D02*
X-10302817Y-10302817D01*
X-11676091Y-11183909D02*
X-11183909Y-11676091D01*
X-11183909Y-11676091D02*
X-11183909Y-11183909D01*
X-11183909Y-11183909D02*
X-10302817Y-10302817D01*
X5911091Y-11988909D02*
X5911091Y-11961091D01*
X1350000Y2950000D02*
X1350000Y4550000D01*
X14965400Y20000000D02*
X14014004Y19048604D01*
X15050000Y20000000D02*
X14965400Y20000000D01*
X14014004Y19048604D02*
X12700000Y17734600D01*
X12700000Y16350000D02*
X10950000Y14600000D01*
X12700000Y17734600D02*
X12700000Y16350000D01*
X-12207817Y12207817D02*
X-11935000Y11935000D01*
X-22050000Y3000000D02*
X-22950000Y3000000D01*
X-16050000Y7000000D02*
X-16050000Y8000000D01*
X-15750000Y4450000D02*
X-15750000Y6700000D01*
X-15750000Y6700000D02*
X-16050000Y7000000D01*
X-18050000Y7000000D02*
X-18050000Y8000000D01*
X-16750000Y4450000D02*
X-16750000Y5500000D01*
X-16750000Y5500000D02*
X-18050000Y6800000D01*
X-18050000Y6800000D02*
X-18050000Y7000000D01*
X-16050000Y-7000000D02*
X-16050000Y-8000000D01*
X-15750000Y-4450000D02*
X-15750000Y-6700000D01*
X-15750000Y-6700000D02*
X-16050000Y-7000000D01*
X-18050000Y-7000000D02*
X-18050000Y-8000000D01*
X-16750000Y-4450000D02*
X-16750000Y-5450000D01*
X-16750000Y-5450000D02*
X-18050000Y-6750000D01*
X-18050000Y-6750000D02*
X-18050000Y-7000000D01*
X-7000000Y-16050000D02*
X-8000000Y-16050000D01*
X-4450000Y-15750000D02*
X-6700000Y-15750000D01*
X-6700000Y-15750000D02*
X-7000000Y-16050000D01*
X-7000000Y-18050000D02*
X-8000000Y-18050000D01*
X-4450000Y-16750000D02*
X-5500000Y-16750000D01*
X-5500000Y-16750000D02*
X-6800000Y-18050000D01*
X-6800000Y-18050000D02*
X-7000000Y-18050000D01*
X7000000Y-16050000D02*
X8000000Y-16050000D01*
X4450000Y-15750000D02*
X6700000Y-15750000D01*
X6700000Y-15750000D02*
X7000000Y-16050000D01*
X7000000Y-18050000D02*
X8000000Y-18050000D01*
X4450000Y-16750000D02*
X5450000Y-16750000D01*
X5450000Y-16750000D02*
X6750000Y-18050000D01*
X6750000Y-18050000D02*
X7000000Y-18050000D01*
X16050000Y-7000000D02*
X16050000Y-8000000D01*
X15750000Y-4450000D02*
X15750000Y-6700000D01*
X15750000Y-6700000D02*
X16050000Y-7000000D01*
X18050000Y-7000000D02*
X18050000Y-8000000D01*
X16750000Y-4450000D02*
X16750000Y-5500000D01*
X16750000Y-5500000D02*
X18050000Y-6800000D01*
X18050000Y-6800000D02*
X18050000Y-7000000D01*
X18050000Y7000000D02*
X18050000Y8000000D01*
X16050000Y7000000D02*
X16050000Y8000000D01*
X15750000Y4450000D02*
X15750000Y6700000D01*
X15750000Y6700000D02*
X16050000Y7000000D01*
X4450000Y15750000D02*
X6700000Y15750000D01*
X6700000Y15750000D02*
X7000000Y16050000D01*
X-7000000Y16050000D02*
X-8000000Y16050000D01*
X-7000000Y18050000D02*
X-8000000Y18050000D01*
X-4450000Y15750000D02*
X-6700000Y15750000D01*
X-6700000Y15750000D02*
X-7000000Y16050000D01*
X-4450000Y16750000D02*
X-5450000Y16750000D01*
X-5450000Y16750000D02*
X-6750000Y18050000D01*
X-6750000Y18050000D02*
X-7000000Y18050000D01*
X7000000Y18050000D02*
X8000000Y18050000D01*
X7000000Y16050000D02*
X8000000Y16050000D01*
X4450000Y16750000D02*
X5450000Y16750000D01*
X5450000Y16750000D02*
X6750000Y18050000D01*
X6750000Y18050000D02*
X7000000Y18050000D01*
X16750000Y4450000D02*
X16750000Y5450000D01*
X16750000Y5450000D02*
X18050000Y6750000D01*
X18050000Y6750000D02*
X18050000Y7000000D01*
X-10550000Y-1250000D02*
X-11912500Y-1250000D01*
X-11912500Y-1250000D02*
X-12243750Y-918750D01*
X-15750000Y4450000D02*
X-15750000Y2925000D01*
X-15750000Y2925000D02*
X-15918750Y2756250D01*
X-16750000Y4450000D02*
X-16750000Y3587500D01*
X-16750000Y3587500D02*
X-15918750Y2756250D01*
X-19450000Y3250000D02*
X-18250000Y3250000D01*
X-18250000Y3250000D02*
X-17756250Y2756250D01*
X-19450000Y1750000D02*
X-18587500Y1750000D01*
X-19450000Y-1750000D02*
X-18587500Y-1750000D01*
X-18587500Y-1750000D02*
X-17756250Y-918750D01*
X-19450000Y-2250000D02*
X-18262500Y-2250000D01*
X-18262500Y-2250000D02*
X-17756250Y-2756250D01*
X-15750000Y-4450000D02*
X-15750000Y-2925000D01*
X-15750000Y-2925000D02*
X-15918750Y-2756250D01*
X-16750000Y-4450000D02*
X-16750000Y-3587500D01*
X-16750000Y-3587500D02*
X-15918750Y-2756250D01*
X-4450000Y-16750000D02*
X-3587500Y-16750000D01*
X-3587500Y-16750000D02*
X-2756250Y-15918750D01*
X-4450000Y-15750000D02*
X-2925000Y-15750000D01*
X-2925000Y-15750000D02*
X-2756250Y-15918750D01*
X-3250000Y-19450000D02*
X-3250000Y-18250000D01*
X-3250000Y-18250000D02*
X-2756250Y-17756250D01*
X-1750000Y-19450000D02*
X-1750000Y-18587500D01*
X-1750000Y-18587500D02*
X-918750Y-17756250D01*
X2250000Y-19450000D02*
X2250000Y-18262500D01*
X2250000Y-18262500D02*
X2756250Y-17756250D01*
X1750000Y-19450000D02*
X1750000Y-18587500D01*
X1750000Y-18587500D02*
X918750Y-17756250D01*
X4450000Y-15750000D02*
X2925000Y-15750000D01*
X2925000Y-15750000D02*
X2756250Y-15918750D01*
X4450000Y-16750000D02*
X3587500Y-16750000D01*
X3587500Y-16750000D02*
X2756250Y-15918750D01*
X1250000Y-10550000D02*
X1250000Y-11912500D01*
X1250000Y-11912500D02*
X918750Y-12243750D01*
X4450000Y15750000D02*
X2925000Y15750000D01*
X2925000Y15750000D02*
X2756250Y15918750D01*
X4450000Y16750000D02*
X3587500Y16750000D01*
X3587500Y16750000D02*
X2756250Y15918750D01*
X-1250000Y10550000D02*
X-1250000Y11912500D01*
X-1250000Y11912500D02*
X-918750Y12243750D01*
X-4450000Y15750000D02*
X-2925000Y15750000D01*
X-2925000Y15750000D02*
X-2756250Y15918750D01*
X-4450000Y16750000D02*
X-3587500Y16750000D01*
X-3587500Y16750000D02*
X-2756250Y15918750D01*
X-2250000Y19450000D02*
X-2250000Y18262500D01*
X-2250000Y18262500D02*
X-2756250Y17756250D01*
X-1750000Y19450000D02*
X-1750000Y18587500D01*
X-1750000Y18587500D02*
X-918750Y17756250D01*
X1750000Y19450000D02*
X1750000Y18587500D01*
X1750000Y18587500D02*
X918750Y17756250D01*
X3250000Y19450000D02*
X3250000Y18250000D01*
X3250000Y18250000D02*
X2756250Y17756250D01*
X16750000Y4450000D02*
X16750000Y3587500D01*
X16750000Y3587500D02*
X15918750Y2756250D01*
X15750000Y4450000D02*
X15750000Y2925000D01*
X15750000Y2925000D02*
X15918750Y2756250D01*
X10550000Y1250000D02*
X11912500Y1250000D01*
X11912500Y1250000D02*
X12243750Y918750D01*
X15750000Y-4450000D02*
X15750000Y-2925000D01*
X15750000Y-2925000D02*
X15918750Y-2756250D01*
X16750000Y-4450000D02*
X16750000Y-3587500D01*
X16750000Y-3587500D02*
X15918750Y-2756250D01*
X19450000Y-3250000D02*
X18250000Y-3250000D01*
X18250000Y-3250000D02*
X17756250Y-2756250D01*
X19450000Y-1750000D02*
X18587500Y-1750000D01*
X18587500Y-1750000D02*
X17756250Y-918750D01*
X19450000Y1750000D02*
X18587500Y1750000D01*
X18587500Y1750000D02*
X17756250Y918750D01*
X19450000Y2250000D02*
X18262500Y2250000D01*
X18262500Y2250000D02*
X17756250Y2756250D01*
X-22050000Y3000000D02*
X-22050000Y2100000D01*
X-22050000Y2100000D02*
X-22000000Y2050000D01*
X-22050000Y3000000D02*
X-23000000Y2050000D01*
X-22950000Y3000000D02*
X-23000000Y2950000D01*
X-19450000Y3250000D02*
X-20150000Y3250000D01*
X-21450000Y3600000D02*
X-22050000Y3000000D01*
X-20500000Y3600000D02*
X-21450000Y3600000D01*
X-20150000Y3250000D02*
X-20500000Y3600000D01*
X-22000000Y-1950000D02*
X-23000000Y-1950000D01*
X-19450000Y-2250000D02*
X-20800000Y-2250000D01*
X-20800000Y-2250000D02*
X-21000000Y-2050000D01*
X-19450000Y-1750000D02*
X-20700000Y-1750000D01*
X-20700000Y-1750000D02*
X-21000000Y-2050000D01*
X-3000000Y-22050000D02*
X-3000000Y-22950000D01*
X-3000000Y-22950000D02*
X-2950000Y-23000000D01*
X-3000000Y-22050000D02*
X-2050000Y-23000000D01*
X-3000000Y-22050000D02*
X-2100000Y-22050000D01*
X-2100000Y-22050000D02*
X-2050000Y-22000000D01*
X-3250000Y-19450000D02*
X-3250000Y-20150000D01*
X-3600000Y-21450000D02*
X-3000000Y-22050000D01*
X-3600000Y-20500000D02*
X-3600000Y-21450000D01*
X-3250000Y-20150000D02*
X-3600000Y-20500000D01*
X1950000Y-22000000D02*
X1950000Y-23000000D01*
X1950000Y-22000000D02*
X1950000Y-22100000D01*
X1950000Y-22100000D02*
X1050000Y-23000000D01*
X1950000Y-22000000D02*
X1050000Y-22000000D01*
X2050000Y-21000000D02*
X2050000Y-21900000D01*
X2050000Y-21900000D02*
X1950000Y-22000000D01*
X2250000Y-19450000D02*
X2250000Y-20800000D01*
X2250000Y-20800000D02*
X2050000Y-21000000D01*
X1750000Y-19450000D02*
X1750000Y-20700000D01*
X1750000Y-20700000D02*
X2050000Y-21000000D01*
X22050000Y-3000000D02*
X22950000Y-3000000D01*
X22950000Y-3000000D02*
X23000000Y-2950000D01*
X22050000Y-3000000D02*
X23000000Y-2050000D01*
X22050000Y-3000000D02*
X22050000Y-2100000D01*
X22050000Y-2100000D02*
X22000000Y-2050000D01*
X19450000Y-3250000D02*
X20150000Y-3250000D01*
X21450000Y-3600000D02*
X22050000Y-3000000D01*
X20500000Y-3600000D02*
X21450000Y-3600000D01*
X20150000Y-3250000D02*
X20500000Y-3600000D01*
X22000000Y1950000D02*
X22000000Y1050000D01*
X22000000Y1950000D02*
X22100000Y1950000D01*
X22100000Y1950000D02*
X23000000Y1050000D01*
X22000000Y1950000D02*
X23000000Y1950000D01*
X21000000Y2050000D02*
X21900000Y2050000D01*
X21900000Y2050000D02*
X22000000Y1950000D01*
X19450000Y2250000D02*
X20800000Y2250000D01*
X20800000Y2250000D02*
X21000000Y2050000D01*
X19450000Y1750000D02*
X20700000Y1750000D01*
X20700000Y1750000D02*
X21000000Y2050000D01*
X6000000Y2550000D02*
X6000000Y2500000D01*
X6000000Y2500000D02*
X5000000Y1500000D01*
X2550000Y-6000000D02*
X2500000Y-6000000D01*
X2500000Y-6000000D02*
X1500000Y-5000000D01*
X-6000000Y-2550000D02*
X-6000000Y-2500000D01*
X-6000000Y-2500000D02*
X-5000000Y-1500000D01*
X-2550000Y6000000D02*
X-2500000Y6000000D01*
X-2500000Y6000000D02*
X-1500000Y5000000D01*
X-1250000Y10550000D02*
X-1250000Y8300000D01*
X-1250000Y8300000D02*
X-2550000Y7000000D01*
X-10550000Y-1250000D02*
X-8300000Y-1250000D01*
X-8300000Y-1250000D02*
X-7000000Y-2550000D01*
X1250000Y-10550000D02*
X1250000Y-8300000D01*
X1250000Y-8300000D02*
X2550000Y-7000000D01*
X10550000Y1250000D02*
X8300000Y1250000D01*
X8300000Y1250000D02*
X7000000Y2550000D01*
X6000000Y550000D02*
X7000000Y550000D01*
X6000000Y2550000D02*
X5400000Y1950000D01*
X5400000Y1000000D02*
X5850000Y550000D01*
X5400000Y1950000D02*
X5400000Y1000000D01*
X5850000Y550000D02*
X6000000Y550000D01*
X2550000Y-6000000D02*
X1950000Y-5400000D01*
X1000000Y-5400000D02*
X550000Y-5850000D01*
X1950000Y-5400000D02*
X1000000Y-5400000D01*
X550000Y-5850000D02*
X550000Y-6000000D01*
X-5400000Y-1450000D02*
X-5400000Y-1000000D01*
X-5400000Y-1950000D02*
X-5400000Y-1450000D01*
X-6000000Y-2550000D02*
X-5400000Y-1950000D01*
X-5400000Y-1000000D02*
X-5850000Y-550000D01*
X-5850000Y-550000D02*
X-6000000Y-550000D01*
X7000000Y2550000D02*
X6000000Y2550000D01*
X550000Y-6000000D02*
X550000Y-7000000D01*
X2550000Y-7000000D02*
X2550000Y-6000000D01*
X-7000000Y-550000D02*
X-6000000Y-550000D01*
X-7000000Y-2550000D02*
X-6000000Y-2550000D01*
X-550000Y6000000D02*
X-550000Y7000000D01*
X-2550000Y6000000D02*
X-1950000Y5400000D01*
X-950000Y5400000D02*
X-550000Y5800000D01*
X-1950000Y5400000D02*
X-950000Y5400000D01*
X-550000Y5800000D02*
X-550000Y6000000D01*
X-2550000Y7000000D02*
X-2550000Y6000000D01*
X3250000Y19450000D02*
X3250000Y20150000D01*
X3600000Y21450000D02*
X3000000Y22050000D01*
X3600000Y20500000D02*
X3600000Y21450000D01*
X3250000Y20150000D02*
X3600000Y20500000D01*
X3000000Y22050000D02*
X3000000Y22950000D01*
X3000000Y22950000D02*
X2950000Y23000000D01*
X3000000Y22050000D02*
X2050000Y23000000D01*
X3000000Y22050000D02*
X2100000Y22050000D01*
X2100000Y22050000D02*
X2050000Y22000000D01*
X-1950000Y22000000D02*
X-1050000Y22000000D01*
X-1950000Y22000000D02*
X-1950000Y22100000D01*
X-1950000Y22100000D02*
X-1050000Y23000000D01*
X-1950000Y22000000D02*
X-1950000Y23000000D01*
X-2050000Y21000000D02*
X-2050000Y21900000D01*
X-2050000Y21900000D02*
X-1950000Y22000000D01*
X-2250000Y19450000D02*
X-2250000Y20800000D01*
X-2250000Y20800000D02*
X-2050000Y21000000D01*
X-1750000Y19450000D02*
X-1750000Y20700000D01*
X-1750000Y20700000D02*
X-2050000Y21000000D01*
X-3250000Y-10550000D02*
X-3250000Y-11750000D01*
X-3250000Y-11750000D02*
X-2756250Y-12243750D01*
X-250000Y-19450000D02*
X-250000Y-18425000D01*
X-250000Y-18425000D02*
X-918750Y-17756250D01*
X-10550000Y3250000D02*
X-11750000Y3250000D01*
X-11750000Y3250000D02*
X-12243750Y2756250D01*
X-19450000Y250000D02*
X-18425000Y250000D01*
X-18425000Y250000D02*
X-17756250Y918750D01*
X3250000Y10550000D02*
X3250000Y11750000D01*
X3250000Y11750000D02*
X2756250Y12243750D01*
X250000Y19450000D02*
X250000Y18425000D01*
X250000Y18425000D02*
X918750Y17756250D01*
X10550000Y-3250000D02*
X11750000Y-3250000D01*
X11750000Y-3250000D02*
X12243750Y-2756250D01*
X19450000Y-250000D02*
X18425000Y-250000D01*
X18425000Y-250000D02*
X17756250Y-918750D01*
X-22100000Y-1950000D02*
X-23000000Y-1050000D01*
X-18587500Y1750000D02*
X-17756250Y918750D01*
X-22000000Y-1950000D02*
X-22000000Y-1050000D01*
X-22000000Y-1950000D02*
X-22100000Y-1950000D01*
X-21000000Y-2050000D02*
X-21900000Y-2050000D01*
X-21900000Y-2050000D02*
X-22000000Y-1950000D01*
X1250000Y-19450000D02*
X1250000Y-20700000D01*
X1250000Y-20700000D02*
X950000Y-21000000D01*
X-19450000Y3750000D02*
X-20000000Y3750000D01*
X-20300000Y4050000D02*
X-23000000Y4050000D01*
X-20000000Y3750000D02*
X-20300000Y4050000D01*
X-10550000Y-750000D02*
X-7950000Y-750000D01*
X-7950000Y-750000D02*
X-7250000Y-1450000D01*
X-7250000Y-1450000D02*
X-7000000Y-1450000D01*
X-7000000Y-1450000D02*
X-6000000Y-1450000D01*
X-19450000Y2750000D02*
X-20700000Y2750000D01*
X-20700000Y2750000D02*
X-20950000Y3000000D01*
X-19450000Y-1250000D02*
X-20700000Y-1250000D01*
X-20700000Y-1250000D02*
X-21000000Y-950000D01*
X3750000Y19450000D02*
X3750000Y20000000D01*
X4050000Y20300000D02*
X4050000Y23000000D01*
X3750000Y20000000D02*
X4050000Y20300000D01*
X-750000Y10550000D02*
X-750000Y8000000D01*
X-1450000Y7300000D02*
X-1450000Y7000000D01*
X-750000Y8000000D02*
X-1450000Y7300000D01*
X-1450000Y7000000D02*
X-1450000Y6000000D01*
X-1250000Y7200000D02*
X-1450000Y7000000D01*
X2750000Y19450000D02*
X2750000Y20700000D01*
X2750000Y20700000D02*
X3000000Y20950000D01*
X-1250000Y19450000D02*
X-1250000Y20700000D01*
X-1250000Y20700000D02*
X-950000Y21000000D01*
X19450000Y-3750000D02*
X20000000Y-3750000D01*
X20300000Y-4050000D02*
X23000000Y-4050000D01*
X20000000Y-3750000D02*
X20300000Y-4050000D01*
X10550000Y750000D02*
X8000000Y750000D01*
X7300000Y1450000D02*
X7000000Y1450000D01*
X8000000Y750000D02*
X7300000Y1450000D01*
X7000000Y1450000D02*
X6000000Y1450000D01*
X19450000Y-2750000D02*
X20700000Y-2750000D01*
X20700000Y-2750000D02*
X20950000Y-3000000D01*
X19450000Y1250000D02*
X20700000Y1250000D01*
X20700000Y1250000D02*
X21000000Y950000D01*
X-3750000Y-19450000D02*
X-3750000Y-20000000D01*
X-4050000Y-20300000D02*
X-4050000Y-23000000D01*
X-3750000Y-20000000D02*
X-4050000Y-20300000D01*
X-7000000Y-6050000D02*
X-4250000Y-6050000D01*
X-4250000Y-6050000D02*
X-3500000Y-5300000D01*
X-10550000Y-3250000D02*
X-9800000Y-3250000D01*
X-9800000Y-3250000D02*
X-7000000Y-6050000D01*
X-4750000Y-5300000D02*
X-4400000Y-5300000D01*
X-10550000Y-2750000D02*
X-9650000Y-2750000D01*
X-7100000Y-5300000D02*
X-4750000Y-5300000D01*
X-9650000Y-2750000D02*
X-7100000Y-5300000D01*
X-10550000Y-1750000D02*
X-8850000Y-1750000D01*
X-8850000Y-1750000D02*
X-6850000Y-3750000D01*
X-10550000Y-2250000D02*
X-9250000Y-2250000D01*
X-9250000Y-2250000D02*
X-6850000Y-4650000D01*
X2750000Y10550000D02*
X2750000Y9550000D01*
X-3250000Y10550000D02*
X-3250000Y9850000D01*
X-6200000Y5550000D02*
X-4750000Y4100000D01*
X-6200000Y6900000D02*
X-6200000Y5550000D01*
X-3250000Y9850000D02*
X-6200000Y6900000D01*
X-2750000Y10550000D02*
X-2750000Y9700000D01*
X-4700000Y5200000D02*
X-4700000Y5050000D01*
X-5700000Y6200000D02*
X-4700000Y5200000D01*
X-5700000Y6750000D02*
X-5700000Y6200000D01*
X-2750000Y9700000D02*
X-5700000Y6750000D01*
X-1750000Y10550000D02*
X-1750000Y8900000D01*
X-1750000Y8900000D02*
X-4200000Y6450000D01*
X-2250000Y10550000D02*
X-2250000Y9300000D01*
X-2250000Y9300000D02*
X-5050000Y6500000D01*
X4250000Y9750000D02*
X4250000Y9200000D01*
X4250000Y9150000D02*
X3700000Y8600000D01*
X4250000Y9200000D02*
X4250000Y9150000D01*
X4450000Y11250000D02*
X4250000Y11050000D01*
X4250000Y11050000D02*
X4250000Y9750000D01*
X5700000Y9350000D02*
X5700000Y9000000D01*
X5700000Y9000000D02*
X5000000Y8300000D01*
X4450000Y12750000D02*
X5200000Y12750000D01*
X5700000Y12250000D02*
X5700000Y9350000D01*
X5200000Y12750000D02*
X5700000Y12250000D01*
X-18750000Y-4450000D02*
X-18750000Y-4700000D01*
X-18750000Y-4700000D02*
X-19700000Y-5650000D01*
X-19700000Y-5650000D02*
X-21850000Y-5650000D01*
X-22900000Y-6700000D02*
X-22900000Y-8050000D01*
X-21850000Y-5650000D02*
X-22900000Y-6700000D01*
X-18250000Y-4450000D02*
X-18250000Y-5000000D01*
X-22000000Y-6450000D02*
X-22000000Y-8050000D01*
X-21650000Y-6100000D02*
X-22000000Y-6450000D01*
X-19500000Y-6100000D02*
X-21650000Y-6100000D01*
X-18600000Y-5200000D02*
X-19500000Y-6100000D01*
X-18450000Y-5200000D02*
X-18600000Y-5200000D01*
X-18250000Y-5000000D02*
X-18450000Y-5200000D01*
X-17750000Y-4450000D02*
X-17750000Y-5150000D01*
X-19500000Y-6750000D02*
X-21350000Y-6750000D01*
X-18400000Y-5650000D02*
X-19500000Y-6750000D01*
X-18250000Y-5650000D02*
X-18400000Y-5650000D01*
X-17750000Y-5150000D02*
X-18250000Y-5650000D01*
X-18200000Y-6100000D02*
X-19650000Y-7550000D01*
X-19650000Y-7550000D02*
X-21350000Y-7550000D01*
X-17250000Y-4450000D02*
X-17250000Y-5300000D01*
X-17250000Y-5300000D02*
X-18050000Y-6100000D01*
X-18050000Y-6100000D02*
X-18200000Y-6100000D01*
X-14750000Y-4450000D02*
X-14750000Y-6150000D01*
X-14750000Y-6150000D02*
X-14300000Y-6600000D01*
X-14300000Y-6600000D02*
X-14300000Y-7550000D01*
X-14300000Y-7550000D02*
X-14150000Y-7700000D01*
X-13350000Y-7350000D02*
X-13350000Y-7900000D01*
X-13850000Y-6350000D02*
X-13850000Y-6850000D01*
X-13850000Y-6850000D02*
X-13350000Y-7350000D01*
X-14250000Y-4450000D02*
X-14250000Y-5950000D01*
X-14250000Y-5950000D02*
X-13850000Y-6350000D01*
X-13750000Y-4450000D02*
X-13750000Y-5750000D01*
X-13400000Y-6400000D02*
X-13200000Y-6600000D01*
X-13400000Y-6100000D02*
X-13400000Y-6400000D01*
X-13750000Y-5750000D02*
X-13400000Y-6100000D01*
X-12400000Y-6450000D02*
X-12400000Y-6700000D01*
X-13250000Y-5600000D02*
X-12400000Y-6450000D01*
X-13250000Y-4450000D02*
X-13250000Y-5600000D01*
X10400000Y-5250000D02*
X9450000Y-5250000D01*
X9450000Y-5250000D02*
X7050000Y-2850000D01*
X2700000Y6700000D02*
X2700000Y1200000D01*
X2700000Y1200000D02*
X2650000Y1150000D01*
X4350000Y8350000D02*
X2700000Y6700000D01*
X-4250000Y-7750000D02*
X-2250000Y-5750000D01*
X-2250000Y-5750000D02*
X-2250000Y-5600000D01*
X-4450000Y-12250000D02*
X-5050000Y-12250000D01*
X-5400000Y-8900000D02*
X-4250000Y-7750000D01*
X-5400000Y-11900000D02*
X-5400000Y-8900000D01*
X-5050000Y-12250000D02*
X-5400000Y-11900000D01*
X5850000Y-1650000D02*
X5250000Y-1650000D01*
X7050000Y-2850000D02*
X5850000Y-1650000D01*
X12250000Y-4450000D02*
X12250000Y-5050000D01*
X12050000Y-5250000D02*
X10400000Y-5250000D01*
X12250000Y-5050000D02*
X12050000Y-5250000D01*
X5250000Y-1650000D02*
X3600000Y0D01*
X3600000Y0D02*
X0Y0D01*
X-6350000Y3450000D02*
X-4200000Y3450000D01*
X-7600000Y4700000D02*
X-6350000Y3450000D01*
X-11500000Y5300000D02*
X-8200000Y5300000D01*
X-11750000Y5050000D02*
X-11500000Y5300000D01*
X-8200000Y5300000D02*
X-7600000Y4700000D01*
X-11750000Y5050000D02*
X-11750000Y4450000D01*
X-4200000Y3450000D02*
X-4000000Y3650000D01*
X5250000Y9800000D02*
X5250000Y9500000D01*
X4350000Y8600000D02*
X4350000Y8350000D01*
X5250000Y9500000D02*
X4350000Y8600000D01*
X-12000000Y5350000D02*
X-11750000Y5100000D01*
X-12250000Y5100000D02*
X-12000000Y5350000D01*
X-12250000Y4450000D02*
X-12250000Y5100000D01*
X-11750000Y5100000D02*
X-11750000Y4450000D01*
X4450000Y12250000D02*
X5050000Y12250000D01*
X5250000Y12050000D02*
X5250000Y9800000D01*
X5050000Y12250000D02*
X5250000Y12050000D01*
X-11900000Y7050000D02*
X-11750000Y7200000D01*
X-13250000Y5700000D02*
X-11900000Y7050000D01*
X-13250000Y4450000D02*
X-13250000Y5700000D01*
X-11750000Y7200000D02*
X-11750000Y7400000D01*
X-13750000Y4450000D02*
X-13750000Y5850000D01*
X-12550000Y7050000D02*
X-12550000Y7300000D01*
X-13750000Y5850000D02*
X-12550000Y7050000D01*
X-14250000Y4450000D02*
X-14250000Y6000000D01*
X-13350000Y6900000D02*
X-13350000Y7150000D01*
X-14250000Y6000000D02*
X-13350000Y6900000D01*
X-14750000Y6150000D02*
X-14150000Y6750000D01*
X-14150000Y6750000D02*
X-14150000Y7000000D01*
X-14750000Y4450000D02*
X-14750000Y6150000D01*
X-17250000Y4450000D02*
X-17250000Y5350000D01*
X-21800000Y6250000D02*
X-23150000Y4900000D01*
X-18150000Y6250000D02*
X-21800000Y6250000D01*
X-17250000Y5350000D02*
X-18150000Y6250000D01*
X-17750000Y4450000D02*
X-17750000Y5150000D01*
X-21400000Y5800000D02*
X-22350000Y4850000D01*
X-18400000Y5800000D02*
X-21400000Y5800000D01*
X-17750000Y5150000D02*
X-18400000Y5800000D01*
X-18250000Y4450000D02*
X-18250000Y5000000D01*
X-20900000Y5350000D02*
X-21550000Y4700000D01*
X-18600000Y5350000D02*
X-20900000Y5350000D01*
X-18250000Y5000000D02*
X-18600000Y5350000D01*
X-18750000Y4450000D02*
X-20050000Y4450000D01*
X-20050000Y4450000D02*
X-20300000Y4700000D01*
X-20300000Y4700000D02*
X-20700000Y4700000D01*
X-4450000Y18750000D02*
X-4700000Y18750000D01*
X-4700000Y18750000D02*
X-5650000Y19700000D01*
X-5650000Y19700000D02*
X-5650000Y21800000D01*
X-6750000Y22900000D02*
X-8050000Y22900000D01*
X-5650000Y21800000D02*
X-6750000Y22900000D01*
X-5500000Y18750000D02*
X-5500000Y18900000D01*
X-6100000Y19500000D02*
X-6100000Y21600000D01*
X-5500000Y18900000D02*
X-6100000Y19500000D01*
X-4450000Y18250000D02*
X-5000000Y18250000D01*
X-6500000Y22000000D02*
X-8050000Y22000000D01*
X-6100000Y21600000D02*
X-6500000Y22000000D01*
X-5000000Y18250000D02*
X-5500000Y18750000D01*
X-5950000Y18550000D02*
X-5950000Y18700000D01*
X-6750000Y19500000D02*
X-6750000Y21350000D01*
X-5950000Y18700000D02*
X-6750000Y19500000D01*
X-4450000Y17750000D02*
X-5150000Y17750000D01*
X-5150000Y17750000D02*
X-5950000Y18550000D01*
X-6400000Y18350000D02*
X-6400000Y18500000D01*
X-7600000Y19700000D02*
X-7600000Y21300000D01*
X-6400000Y18500000D02*
X-7600000Y19700000D01*
X-4450000Y17250000D02*
X-5300000Y17250000D01*
X-5300000Y17250000D02*
X-6400000Y18350000D01*
X-7600000Y14300000D02*
X-7450000Y14300000D01*
X-6150000Y14750000D02*
X-6600000Y14300000D01*
X-6600000Y14300000D02*
X-7450000Y14300000D01*
X-6150000Y14750000D02*
X-4450000Y14750000D01*
X-7600000Y14300000D02*
X-7800000Y14100000D01*
X-6950000Y13850000D02*
X-7500000Y13300000D01*
X-7500000Y13300000D02*
X-8450000Y13300000D01*
X-6400000Y13850000D02*
X-6950000Y13850000D01*
X-6000000Y14250000D02*
X-6400000Y13850000D01*
X-4450000Y14250000D02*
X-6000000Y14250000D01*
X-4450000Y13750000D02*
X-5850000Y13750000D01*
X-6500000Y13400000D02*
X-6700000Y13200000D01*
X-6200000Y13400000D02*
X-6500000Y13400000D01*
X-5850000Y13750000D02*
X-6200000Y13400000D01*
X-7200000Y12550000D02*
X-7350000Y12400000D01*
X-6400000Y12550000D02*
X-7200000Y12550000D01*
X-5700000Y13250000D02*
X-6400000Y12550000D01*
X-4450000Y13250000D02*
X-5700000Y13250000D01*
X4450000Y13250000D02*
X5700000Y13250000D01*
X5700000Y13250000D02*
X7200000Y11750000D01*
X7200000Y11750000D02*
X7450000Y11750000D01*
X5850000Y13750000D02*
X7050000Y12550000D01*
X7050000Y12550000D02*
X7300000Y12550000D01*
X4450000Y13750000D02*
X5850000Y13750000D01*
X6000000Y14250000D02*
X6900000Y13350000D01*
X6900000Y13350000D02*
X7150000Y13350000D01*
X4450000Y14250000D02*
X6000000Y14250000D01*
X4450000Y14750000D02*
X6150000Y14750000D01*
X6750000Y14150000D02*
X7000000Y14150000D01*
X6150000Y14750000D02*
X6750000Y14150000D01*
X4450000Y17250000D02*
X5300000Y17250000D01*
X6250000Y22250000D02*
X4850000Y23650000D01*
X6250000Y18200000D02*
X6250000Y22250000D01*
X5300000Y17250000D02*
X6250000Y18200000D01*
X4450000Y17750000D02*
X5150000Y17750000D01*
X4850000Y22700000D02*
X4850000Y22750000D01*
X5800000Y21750000D02*
X4850000Y22700000D01*
X5800000Y18400000D02*
X5800000Y21750000D01*
X5150000Y17750000D02*
X5800000Y18400000D01*
X5000000Y18250000D02*
X5350000Y18600000D01*
X4450000Y18250000D02*
X5000000Y18250000D01*
X5350000Y21300000D02*
X4700000Y21950000D01*
X5350000Y18600000D02*
X5350000Y21300000D01*
X4450000Y18750000D02*
X4450000Y20050000D01*
X4700000Y20300000D02*
X4700000Y21050000D01*
X4450000Y20050000D02*
X4700000Y20300000D01*
X18750000Y4450000D02*
X18750000Y4700000D01*
X18750000Y4700000D02*
X19700000Y5650000D01*
X19700000Y5650000D02*
X21800000Y5650000D01*
X22900000Y6750000D02*
X22900000Y8050000D01*
X21800000Y5650000D02*
X22900000Y6750000D01*
X18750000Y5500000D02*
X18900000Y5500000D01*
X19500000Y6100000D02*
X21600000Y6100000D01*
X18900000Y5500000D02*
X19500000Y6100000D01*
X18250000Y4450000D02*
X18250000Y5000000D01*
X22000000Y6500000D02*
X22000000Y8050000D01*
X21600000Y6100000D02*
X22000000Y6500000D01*
X18250000Y5000000D02*
X18750000Y5500000D01*
X17750000Y4450000D02*
X17750000Y5150000D01*
X19500000Y6750000D02*
X21350000Y6750000D01*
X18700000Y5950000D02*
X19500000Y6750000D01*
X18550000Y5950000D02*
X18700000Y5950000D01*
X17750000Y5150000D02*
X18550000Y5950000D01*
X18500000Y6400000D02*
X19650000Y7550000D01*
X19650000Y7550000D02*
X21350000Y7550000D01*
X17250000Y4450000D02*
X17250000Y5300000D01*
X18350000Y6400000D02*
X18500000Y6400000D01*
X17250000Y5300000D02*
X18350000Y6400000D01*
X14750000Y4450000D02*
X14750000Y6150000D01*
X14750000Y6150000D02*
X14300000Y6600000D01*
X14300000Y6600000D02*
X14300000Y7650000D01*
X14300000Y7650000D02*
X14150000Y7800000D01*
X13850000Y6950000D02*
X13350000Y7450000D01*
X13350000Y7450000D02*
X13350000Y8000000D01*
X13850000Y6400000D02*
X13850000Y6950000D01*
X14250000Y6000000D02*
X13850000Y6400000D01*
X14250000Y4450000D02*
X14250000Y6000000D01*
X13750000Y4450000D02*
X13750000Y5850000D01*
X13400000Y6500000D02*
X13200000Y6700000D01*
X13400000Y6200000D02*
X13400000Y6500000D01*
X13750000Y5850000D02*
X13400000Y6200000D01*
X12550000Y6400000D02*
X12550000Y7150000D01*
X13250000Y5700000D02*
X12550000Y6400000D01*
X13250000Y4450000D02*
X13250000Y5700000D01*
X13250000Y-4450000D02*
X13250000Y-5700000D01*
X13250000Y-5700000D02*
X11750000Y-7200000D01*
X11750000Y-7200000D02*
X11750000Y-7450000D01*
X13750000Y-4450000D02*
X13750000Y-5850000D01*
X12550000Y-7050000D02*
X12550000Y-7300000D01*
X13750000Y-5850000D02*
X12550000Y-7050000D01*
X14250000Y-4450000D02*
X14250000Y-6000000D01*
X13350000Y-6900000D02*
X13350000Y-7150000D01*
X14250000Y-6000000D02*
X13350000Y-6900000D01*
X14750000Y-4450000D02*
X14750000Y-6150000D01*
X14150000Y-6750000D02*
X14150000Y-7000000D01*
X14750000Y-6150000D02*
X14150000Y-6750000D01*
X17250000Y-4450000D02*
X17250000Y-5350000D01*
X22000000Y-6250000D02*
X23350000Y-4900000D01*
X18150000Y-6250000D02*
X22000000Y-6250000D01*
X17250000Y-5350000D02*
X18150000Y-6250000D01*
X17750000Y-4450000D02*
X17750000Y-5200000D01*
X21550000Y-5800000D02*
X22450000Y-4900000D01*
X18350000Y-5800000D02*
X21550000Y-5800000D01*
X17750000Y-5200000D02*
X18350000Y-5800000D01*
X18250000Y-4450000D02*
X18250000Y-5050000D01*
X21000000Y-5350000D02*
X21650000Y-4700000D01*
X18550000Y-5350000D02*
X21000000Y-5350000D01*
X18250000Y-5050000D02*
X18550000Y-5350000D01*
X18750000Y-4450000D02*
X20050000Y-4450000D01*
X20300000Y-4700000D02*
X20700000Y-4700000D01*
X20050000Y-4450000D02*
X20300000Y-4700000D01*
X4450000Y-18750000D02*
X5700000Y-20000000D01*
X6800000Y-22850000D02*
X8100000Y-22850000D01*
X5700000Y-21750000D02*
X6800000Y-22850000D01*
X5700000Y-20000000D02*
X5700000Y-21750000D01*
X4450000Y-18250000D02*
X5000000Y-18250000D01*
X6550000Y-21950000D02*
X8100000Y-21950000D01*
X6150000Y-21550000D02*
X6550000Y-21950000D01*
X6150000Y-19550000D02*
X6150000Y-21550000D01*
X5500000Y-18900000D02*
X6150000Y-19550000D01*
X5500000Y-18750000D02*
X5500000Y-18900000D01*
X5000000Y-18250000D02*
X5500000Y-18750000D01*
X4450000Y-17750000D02*
X5150000Y-17750000D01*
X6800000Y-19550000D02*
X6800000Y-21300000D01*
X5950000Y-18700000D02*
X6800000Y-19550000D01*
X5950000Y-18550000D02*
X5950000Y-18700000D01*
X5150000Y-17750000D02*
X5950000Y-18550000D01*
X6400000Y-18500000D02*
X7600000Y-19700000D01*
X7600000Y-19700000D02*
X7600000Y-21300000D01*
X4450000Y-17250000D02*
X5300000Y-17250000D01*
X6400000Y-18350000D02*
X6400000Y-18500000D01*
X5300000Y-17250000D02*
X6400000Y-18350000D01*
X4450000Y-14750000D02*
X6150000Y-14750000D01*
X6150000Y-14750000D02*
X6600000Y-14300000D01*
X6600000Y-14300000D02*
X7600000Y-14300000D01*
X7600000Y-14300000D02*
X7750000Y-14150000D01*
X6600000Y-14300000D02*
X7650000Y-14300000D01*
X6400000Y-13850000D02*
X6900000Y-13850000D01*
X7400000Y-13350000D02*
X7950000Y-13350000D01*
X6900000Y-13850000D02*
X7400000Y-13350000D01*
X6000000Y-14250000D02*
X6400000Y-13850000D01*
X4450000Y-14250000D02*
X6000000Y-14250000D01*
X4450000Y-13750000D02*
X5850000Y-13750000D01*
X6400000Y-13200000D02*
X6650000Y-13200000D01*
X5850000Y-13750000D02*
X6400000Y-13200000D01*
X6550000Y-12400000D02*
X6850000Y-12400000D01*
X5700000Y-13250000D02*
X6550000Y-12400000D01*
X4450000Y-13250000D02*
X5700000Y-13250000D01*
X-4450000Y-13250000D02*
X-5700000Y-13250000D01*
X-5700000Y-13250000D02*
X-7200000Y-11750000D01*
X-7200000Y-11750000D02*
X-7450000Y-11750000D01*
X-4450000Y-13750000D02*
X-5850000Y-13750000D01*
X-7050000Y-12550000D02*
X-7300000Y-12550000D01*
X-5850000Y-13750000D02*
X-7050000Y-12550000D01*
X-4450000Y-14250000D02*
X-6000000Y-14250000D01*
X-6900000Y-13350000D02*
X-7150000Y-13350000D01*
X-6000000Y-14250000D02*
X-6900000Y-13350000D01*
X-6150000Y-14750000D02*
X-6750000Y-14150000D01*
X-6750000Y-14150000D02*
X-7000000Y-14150000D01*
X-4450000Y-14750000D02*
X-6150000Y-14750000D01*
X-4450000Y-17250000D02*
X-5350000Y-17250000D01*
X-6250000Y-21900000D02*
X-4900000Y-23250000D01*
X-6250000Y-18150000D02*
X-6250000Y-21900000D01*
X-5350000Y-17250000D02*
X-6250000Y-18150000D01*
X-4450000Y-17750000D02*
X-5200000Y-17750000D01*
X-5200000Y-17750000D02*
X-5800000Y-18350000D01*
X-5800000Y-18350000D02*
X-5800000Y-21400000D01*
X-5800000Y-21400000D02*
X-4850000Y-22350000D01*
X-4450000Y-18250000D02*
X-5050000Y-18250000D01*
X-5350000Y-20900000D02*
X-4700000Y-21550000D01*
X-5350000Y-18550000D02*
X-5350000Y-20900000D01*
X-5050000Y-18250000D02*
X-5350000Y-18550000D01*
X-4450000Y-18750000D02*
X-4450000Y-20050000D01*
X-4700000Y-20300000D02*
X-4700000Y-20650000D01*
X-4450000Y-20050000D02*
X-4700000Y-20300000D01*
X-12450000Y-7700000D02*
X-12450000Y-7900000D01*
X-14400000Y-8550000D02*
X-14950000Y-8000000D01*
X-13100000Y-8550000D02*
X-14400000Y-8550000D01*
X-12450000Y-7900000D02*
X-13100000Y-8550000D01*
X-13350000Y8100000D02*
X-12450000Y9000000D01*
X-13350000Y8100000D02*
X-14850000Y8100000D01*
X-14950000Y-8000000D02*
X-14750000Y-8000000D01*
X-14950000Y8000000D02*
X-14850000Y8100000D01*
X-14950000Y7000000D02*
X-14950000Y8000000D01*
X-15250000Y4450000D02*
X-15250000Y6700000D01*
X-15250000Y6700000D02*
X-14950000Y7000000D01*
X-14950000Y-7000000D02*
X-14950000Y-8000000D01*
X-15250000Y-4450000D02*
X-15250000Y-6700000D01*
X-15250000Y-6700000D02*
X-14950000Y-7000000D01*
X-8350000Y12450000D02*
X-8500000Y12450000D01*
X-9100000Y13850000D02*
X-8000000Y14950000D01*
X-9100000Y13050000D02*
X-9100000Y13850000D01*
X-8500000Y12450000D02*
X-9100000Y13050000D01*
X8100000Y13350000D02*
X9050000Y12400000D01*
X8100000Y13350000D02*
X8100000Y14850000D01*
X-8000000Y14950000D02*
X-8000000Y14800000D01*
X8000000Y14950000D02*
X8100000Y14850000D01*
X-7000000Y14950000D02*
X-8000000Y14950000D01*
X-4450000Y15250000D02*
X-6700000Y15250000D01*
X-6700000Y15250000D02*
X-7000000Y14950000D01*
X7000000Y14950000D02*
X8000000Y14950000D01*
X4450000Y15250000D02*
X6700000Y15250000D01*
X6700000Y15250000D02*
X7000000Y14950000D01*
X14784569Y-13441066D02*
X15841066Y-13441066D01*
X15841066Y-13441066D02*
X15850000Y-13450000D01*
X-12884591Y-12884591D02*
X-13850000Y-13850000D01*
X-12884591Y-11880409D02*
X-12884591Y-10836773D01*
X-12884591Y-10836773D02*
X-12453909Y-10406091D01*
X-12453909Y-10406091D02*
X-11678884Y-9631066D01*
X-11678884Y-9631066D02*
X-10974569Y-9631066D01*
X-10974569Y-9631066D02*
X-10339569Y-8996066D01*
X-11880409Y-12884591D02*
X-12884591Y-11880409D01*
X-9375670Y-11452330D02*
X-10807931Y-12884591D01*
X-10807931Y-12884591D02*
X-11880409Y-12884591D01*
X-13992330Y11915670D02*
X-13259173Y11915670D01*
X-13259173Y11915670D02*
X-12879569Y11536066D01*
X14784569Y-13441066D02*
X15750000Y-14406497D01*
X15100000Y-15600000D02*
X14256497Y-15600000D01*
X15750000Y-14950000D02*
X15100000Y-15600000D01*
X15750000Y-14406497D02*
X15750000Y-14950000D01*
X14256497Y-15600000D02*
X13441066Y-14784569D01*
X13441066Y-14784569D02*
X13441066Y-14853884D01*
X13441066Y-14853884D02*
X14216091Y-15628909D01*
X-8996066Y-10339569D02*
X-9631066Y-10974569D01*
X-9631066Y-11678884D02*
X-9631066Y-10974569D01*
X-9631066Y-11678884D02*
X-10406091Y-12453909D01*
X-10836773Y-12884591D02*
X-10406091Y-12453909D01*
X-11880409Y-12884591D02*
X-10836773Y-12884591D01*
X-13723909Y-13723909D02*
X-13700000Y-13700000D01*
X-13723909Y-13723909D02*
X-13700000Y-13700000D01*
X-12884591Y-11880409D02*
X-12884591Y-12884591D01*
X-12884591Y-12884591D02*
X-13850000Y-13850000D01*
X-11880409Y-12884591D02*
X-12884591Y-12884591D01*
X-12453909Y-10406091D02*
X-11678884Y-9631066D01*
X-11678884Y-9631066D02*
X-10974569Y-9631066D01*
X-12884591Y-10836773D02*
X-12453909Y-10406091D01*
X-12879569Y11536066D02*
X-14450000Y13106497D01*
X-13106497Y14450000D02*
X-14450000Y14450000D01*
X-13106497Y14450000D02*
X-11536066Y12879569D01*
X-14450000Y13106497D02*
X-14450000Y14450000D01*
X12500000Y8000000D02*
X12500000Y8050000D01*
X14300000Y8650000D02*
X14950000Y8000000D01*
X13100000Y8650000D02*
X14300000Y8650000D01*
X12500000Y8050000D02*
X13100000Y8650000D01*
X13300000Y-8100000D02*
X12400000Y-9000000D01*
X13300000Y-8100000D02*
X14850000Y-8100000D01*
X14950000Y8000000D02*
X14900000Y8000000D01*
X14950000Y-8000000D02*
X14850000Y-8100000D01*
X14950000Y-7000000D02*
X14950000Y-8000000D01*
X15250000Y-4450000D02*
X15250000Y-6700000D01*
X15250000Y-6700000D02*
X14950000Y-7000000D01*
X14950000Y7000000D02*
X14950000Y8000000D01*
X15250000Y4450000D02*
X15250000Y6700000D01*
X15250000Y6700000D02*
X14950000Y7000000D01*
X-8100000Y-12850000D02*
X-8100000Y-11800000D01*
X-8100000Y-11800000D02*
X-8250000Y-11650000D01*
X7950000Y-12450000D02*
X8600000Y-13100000D01*
X8600000Y-14350000D02*
X8000000Y-14950000D01*
X8600000Y-13100000D02*
X8600000Y-14350000D01*
X-8100000Y-12850000D02*
X-8100000Y-14850000D01*
X-8100000Y-14850000D02*
X-8000000Y-14950000D01*
X8000000Y-14950000D02*
X8000000Y-14800000D01*
X-8000000Y-14950000D02*
X-8100000Y-14850000D01*
X-7000000Y-14950000D02*
X-8000000Y-14950000D01*
X-4450000Y-15250000D02*
X-6700000Y-15250000D01*
X-6700000Y-15250000D02*
X-7000000Y-14950000D01*
X7000000Y-14950000D02*
X8000000Y-14950000D01*
X4450000Y-15250000D02*
X6700000Y-15250000D01*
X6700000Y-15250000D02*
X7000000Y-14950000D01*
X-21750000Y26500000D02*
X-20650000Y26500000D01*
X-15250000Y21100000D02*
X-15250000Y17250000D01*
X-20650000Y26500000D02*
X-15250000Y21100000D01*
X-23500000Y17850000D02*
X-24025587Y17324413D01*
X-24025587Y17324413D02*
X-24659033Y17324413D01*
X-25290000Y21700000D02*
X-25290000Y23410000D01*
X-15250000Y17250000D02*
X-16919670Y15580330D01*
X-22200000Y26500000D02*
X-21750000Y26500000D01*
X-25290000Y23410000D02*
X-22200000Y26500000D01*
X-24633446Y17350000D02*
X-24659033Y17324413D01*
X-16919670Y15630330D02*
X-16919670Y15580330D01*
X-16919670Y15580330D02*
X-16461091Y15121751D01*
X-16461091Y15121751D02*
X-16461091Y14888909D01*
X-17920025Y16152258D02*
X-17348097Y15580330D01*
X-17348097Y15580330D02*
X-16919670Y15580330D01*
X-17566472Y16505812D02*
X-17920025Y16152259D01*
X-17920025Y16152259D02*
X-17920025Y16152258D01*
X-14345818Y-9000000D02*
X-15055409Y-9709591D01*
X-12650000Y-9000000D02*
X-14345818Y-9000000D01*
X-9200000Y-14545818D02*
X-9000000Y-14345818D01*
X-9000000Y-12300000D02*
X-8900000Y-12200000D01*
X-9000000Y-14345818D02*
X-9000000Y-12300000D01*
X-9200000Y-14545818D02*
X-9709591Y-15055409D01*
X-26850000Y-15100000D02*
X-27050000Y-15100000D01*
X-31550000Y-16050000D02*
X-33700000Y-13900000D01*
X-28000000Y-16050000D02*
X-31550000Y-16050000D01*
X-27050000Y-15100000D02*
X-28000000Y-16050000D01*
X-23700000Y14800000D02*
X-22383553Y14800000D01*
X-22383553Y14800000D02*
X-19970635Y17212918D01*
X-26214413Y15769033D02*
X-24669033Y15769033D01*
X-24669033Y15769033D02*
X-23700000Y14800000D01*
X-28453446Y14800000D02*
X-27183446Y14800000D01*
X-27183446Y14800000D02*
X-26214413Y15769033D01*
X-33025000Y14375000D02*
X-32600000Y14800000D01*
X-32600000Y14800000D02*
X-28453446Y14800000D01*
X-24800000Y-20950000D02*
X-25100000Y-20650000D01*
X-25100000Y-16850000D02*
X-26850000Y-15100000D01*
X-25100000Y-20650000D02*
X-25100000Y-16850000D01*
X-23250000Y-22500000D02*
X-24600000Y-21150000D01*
X-23250000Y-23250000D02*
X-23250000Y-22500000D01*
X-33700000Y13700000D02*
X-33025000Y14375000D01*
X-33700000Y-13900000D02*
X-33700000Y13700000D01*
X-24600000Y-21150000D02*
X-24800000Y-20950000D01*
X-26700000Y-14350000D02*
X-27000000Y-14350000D01*
X-31400000Y-15550000D02*
X-33250000Y-13700000D01*
X-28200000Y-15550000D02*
X-31400000Y-15550000D01*
X-27000000Y-14350000D02*
X-28200000Y-15550000D01*
X-23250000Y14350000D02*
X-22126447Y14350000D01*
X-22126447Y14350000D02*
X-19617082Y16859365D01*
X-24870967Y14425587D02*
X-24795380Y14350000D01*
X-24795380Y14350000D02*
X-23250000Y14350000D01*
X-26900000Y14350000D02*
X-24946554Y14350000D01*
X-24946554Y14350000D02*
X-24870967Y14425587D01*
X-32750000Y14000000D02*
X-32400000Y14350000D01*
X-32400000Y14350000D02*
X-26900000Y14350000D01*
X-24625000Y-20475000D02*
X-24625000Y-16425000D01*
X-24625000Y-16425000D02*
X-26700000Y-14350000D01*
X-33250000Y13500000D02*
X-32750000Y14000000D01*
X-33250000Y-13700000D02*
X-33250000Y13500000D01*
X-22300000Y-22800000D02*
X-24075000Y-21025000D01*
X-24075000Y-21025000D02*
X-24625000Y-20475000D01*
X-22300000Y-23200000D02*
X-22300000Y-22800000D01*
X-29400000Y15700000D02*
X-28150000Y15700000D01*
X-24700000Y20400000D02*
X-23400000Y21700000D01*
X-24700000Y19150000D02*
X-24700000Y20400000D01*
X-28150000Y15700000D02*
X-24700000Y19150000D01*
X-34600000Y14100000D02*
X-33000000Y15700000D01*
X-23400000Y21700000D02*
X-21697898Y21700000D01*
X-33000000Y15700000D02*
X-29400000Y15700000D01*
X-28095382Y-17630202D02*
X-31269798Y-17630202D01*
X-34600000Y-14300000D02*
X-34600000Y14100000D01*
X-31269798Y-17630202D02*
X-34600000Y-14300000D01*
X-19263528Y20324188D02*
X-20638289Y21698949D01*
X-20638289Y21698949D02*
X-21698949Y21698949D01*
X-28095382Y-17630202D02*
X-28225584Y-17500000D01*
X-22150000Y22150000D02*
X-21698949Y21698949D01*
X-17920025Y20677742D02*
X-18750000Y21507717D01*
X-18750000Y21507717D02*
X-18750000Y22050000D01*
X-10559134Y-21024315D02*
X-16325685Y-21024315D01*
X-16325685Y-21024315D02*
X-17100000Y-20250000D01*
X-29200000Y15250000D02*
X-27950000Y15250000D01*
X-27950000Y15250000D02*
X-23493949Y19706051D01*
X-23493949Y19706051D02*
X-23493949Y19903949D01*
X-34150000Y13900000D02*
X-32800000Y15250000D01*
X-32800000Y15250000D02*
X-29200000Y15250000D01*
X-19617082Y19970635D02*
X-20046447Y20400000D01*
X-21697102Y19902898D02*
X-23495000Y19902898D01*
X-21200000Y20400000D02*
X-21697102Y19902898D01*
X-20046447Y20400000D02*
X-21200000Y20400000D01*
X-29509596Y-19044416D02*
X-29855584Y-19044416D01*
X-29509596Y-19044416D02*
X-28044416Y-19044416D01*
X-34150000Y-14100000D02*
X-34150000Y13900000D01*
X-31700000Y-16550000D02*
X-34150000Y-14100000D01*
X-28200000Y-16550000D02*
X-31700000Y-16550000D01*
X-27000000Y-17750000D02*
X-28200000Y-16550000D01*
X-27000000Y-18000000D02*
X-27000000Y-17750000D01*
X-28044416Y-19044416D02*
X-27000000Y-18000000D01*
X-25375000Y-13425000D02*
X-26725000Y-13425000D01*
X-27950000Y-14650000D02*
X-31400000Y-14650000D01*
X-26725000Y-13425000D02*
X-27950000Y-14650000D01*
X-18909975Y20677742D02*
X-19400000Y21167767D01*
X-18250000Y23150000D02*
X-18550000Y23150000D01*
X-19400000Y21167767D02*
X-19400000Y22300000D01*
X-19400000Y22300000D02*
X-18550000Y23150000D01*
X-21024315Y-10559134D02*
X-22509134Y-10559134D01*
X-22509134Y-10559134D02*
X-25375000Y-13425000D01*
X27900000Y13200000D02*
X28600000Y13900000D01*
X26500000Y-5300000D02*
X27200000Y-4600000D01*
X27200000Y-4600000D02*
X27200000Y11550000D01*
X27200000Y12500000D02*
X27900000Y13200000D01*
X27200000Y11550000D02*
X27200000Y12500000D01*
X9050000Y6100000D02*
X8000000Y6100000D01*
X8000000Y6100000D02*
X7450000Y5550000D01*
X11350000Y8400000D02*
X9050000Y6100000D01*
X12250000Y18500000D02*
X12250000Y17500000D01*
X13377608Y19967843D02*
X12250000Y18840235D01*
X12250000Y18840235D02*
X12250000Y18500000D01*
X12250000Y17500000D02*
X10300000Y15550000D01*
X10300000Y15550000D02*
X10300000Y12100000D01*
X9500000Y11300000D02*
X8550000Y11300000D01*
X8550000Y11300000D02*
X7300000Y10050000D01*
X10300000Y12100000D02*
X9500000Y11300000D01*
X7300000Y9050000D02*
X5450000Y7200000D01*
X5450000Y7200000D02*
X4500000Y7200000D01*
X4500000Y7200000D02*
X3800000Y6500000D01*
X7300000Y10050000D02*
X7300000Y9050000D01*
X3800000Y5250000D02*
X4000000Y5050000D01*
X4000000Y5050000D02*
X4000000Y4200000D01*
X4000000Y4200000D02*
X3950000Y4150000D01*
X3800000Y6500000D02*
X3800000Y5250000D01*
X9850000Y14000000D02*
X9850000Y15950000D01*
X9850000Y15950000D02*
X11600000Y17700000D01*
X11600000Y19100000D02*
X11600000Y17700000D01*
X12599790Y20745660D02*
X11900000Y20045870D01*
X11900000Y19400000D02*
X11600000Y19100000D01*
X11900000Y20045870D02*
X11900000Y19400000D01*
X9850000Y14000000D02*
X9850000Y12300000D01*
X9300000Y11750000D02*
X8350000Y11750000D01*
X8350000Y11750000D02*
X6850000Y10250000D01*
X9850000Y12300000D02*
X9300000Y11750000D01*
X6850000Y9250000D02*
X5250000Y7650000D01*
X5250000Y7650000D02*
X4300000Y7650000D01*
X4300000Y7650000D02*
X3150000Y6500000D01*
X6850000Y10250000D02*
X6850000Y9250000D01*
X3150000Y4950000D02*
X3350000Y4750000D01*
X3150000Y6500000D02*
X3150000Y4950000D01*
X5500000Y5250000D02*
X4700000Y5250000D01*
X8600000Y8350000D02*
X5500000Y5250000D01*
X8500000Y8800000D02*
X8350000Y8800000D01*
X5450000Y5900000D02*
X5250000Y5900000D01*
X8350000Y8800000D02*
X5450000Y5900000D01*
X16837940Y15650000D02*
X16350000Y15650000D01*
X16350000Y15650000D02*
X15950000Y15250000D01*
X17549538Y16361598D02*
X16837940Y15650000D01*
X9500000Y8800000D02*
X8500000Y8800000D01*
X15950000Y15250000D02*
X9500000Y8800000D01*
X7750000Y9850000D02*
X7750000Y8850000D01*
X5450000Y6550000D02*
X4750000Y6550000D01*
X7750000Y8850000D02*
X5450000Y6550000D01*
X10750000Y11900000D02*
X9700000Y10850000D01*
X8750000Y10850000D02*
X7750000Y9850000D01*
X9700000Y10850000D02*
X8750000Y10850000D01*
X13150000Y16628966D02*
X13150000Y15850000D01*
X13150000Y15850000D02*
X10750000Y13450000D01*
X10750000Y13450000D02*
X10750000Y11900000D01*
X14933242Y18412208D02*
X13150000Y16628966D01*
X16488877Y16856573D02*
X12882304Y13250000D01*
X12882304Y13250000D02*
X12250000Y13250000D01*
X18400000Y13500000D02*
X16850000Y11950000D01*
X16150000Y11250000D02*
X14250000Y11250000D01*
X16850000Y11950000D02*
X16150000Y11250000D01*
X10200000Y8200000D02*
X9900000Y7900000D01*
X21919457Y18119457D02*
X17900000Y14100000D01*
X17900000Y14100000D02*
X16100000Y14100000D01*
X16100000Y14100000D02*
X10200000Y8200000D01*
X21919457Y26954058D02*
X21919457Y18119457D01*
X9900000Y7900000D02*
X8800000Y7900000D01*
X5500000Y4600000D02*
X5150000Y4600000D01*
X8800000Y7900000D02*
X5500000Y4600000D01*
X4650000Y4100000D02*
X4650000Y3600000D01*
X4650000Y3600000D02*
X4600000Y3550000D01*
X5150000Y4600000D02*
X4650000Y4100000D01*
X9700000Y8350000D02*
X8600000Y8350000D01*
X18044512Y15300938D02*
X17593574Y14850000D01*
X17593574Y14850000D02*
X16200000Y14850000D01*
X16200000Y14850000D02*
X9700000Y8350000D01*
X-19719670Y15030330D02*
X-19261091Y14571751D01*
X-19261091Y14571751D02*
X-19261091Y14338909D01*
X-18909975Y16152258D02*
X-19719670Y15342563D01*
X-19719670Y15342563D02*
X-19719670Y15030330D01*
X-23852742Y-13387561D02*
X-23852742Y-13897258D01*
X-23852742Y-13897258D02*
X-23100000Y-14650000D01*
X-23737561Y-13387561D02*
X-23852742Y-13387561D01*
X28600000Y13900000D02*
X29150000Y13900000D01*
X-19610101Y-13360101D02*
X-19610101Y-9144921D01*
X-23100000Y-16850000D02*
X-19610101Y-13360101D01*
X-18450000Y25350000D02*
X-14800000Y21700000D01*
X-14800000Y21700000D02*
X-14800000Y15700000D01*
X-14800000Y15700000D02*
X-16388909Y14111091D01*
X-16388909Y14111091D02*
X-17238909Y14111091D01*
X-23443106Y16108487D02*
X-21782173Y16108487D01*
X-21782173Y16108487D02*
X-20324188Y17566472D01*
X-19334239Y18415000D02*
X-18415000Y17495761D01*
X-19334239Y18415000D02*
X-17495761Y18415000D01*
X-19334239Y18415000D02*
X-18415000Y19334239D01*
X-20038909Y13561091D02*
X-18938909Y13561091D01*
X-18938909Y13561091D02*
X-17980330Y14519670D01*
X-20780330Y13769670D02*
X-20780330Y13969670D01*
X-20780330Y13969670D02*
X-20371751Y13561091D01*
X-20371751Y13561091D02*
X-20038909Y13561091D01*
X-17980330Y14519670D02*
X-17571751Y14111091D01*
X-17571751Y14111091D02*
X-17238909Y14111091D01*
X-20324188Y17566472D02*
X-19475660Y18415000D01*
X-19475660Y18415000D02*
X-19334239Y18415000D01*
X-20324188Y17566472D02*
X-21040660Y16850000D01*
X-21040660Y16850000D02*
X-21250000Y16850000D01*
X-22438528Y-11973348D02*
X-22438528Y-15238528D01*
X-23750000Y-16550000D02*
X-23750000Y-17500000D01*
X-22438528Y-15238528D02*
X-23750000Y-16550000D01*
X-23750000Y-17500000D02*
X-20800000Y-17500000D01*
X-18689899Y-19610101D02*
X-9144921Y-19610101D01*
X-20800000Y-17500000D02*
X-18689899Y-19610101D01*
X-15400000Y-28200000D02*
X-16215988Y-27384012D01*
X-16215988Y-27384012D02*
X-16215988Y-26681169D01*
X-16215988Y-26681169D02*
X-14731169Y-26681169D01*
X-9144921Y-21094921D02*
X-9144921Y-19610101D01*
X-14731169Y-26681169D02*
X-9144921Y-21094921D01*
M02*
