G04 #@! TF.FileFunction,Legend,Top*
%FSLAX46Y46*%
G04 Gerber Fmt 4.6, Leading zero omitted, Abs format (unit mm)*
G04 Created by KiCad (PCBNEW 4.0.6-e0-6349~53~ubuntu14.04.1) date Thu Mar 30 17:13:45 2017*
%MOMM*%
%LPD*%
G01*
G04 APERTURE LIST*
%ADD10C,0.100000*%
%ADD11C,0.150000*%
%ADD12C,0.120000*%
G04 APERTURE END LIST*
D10*
D11*
X-24418427Y-35732136D02*
X-35732136Y-24418427D01*
X-35732136Y-24418427D02*
X-18761573Y-7447864D01*
X-18761573Y-7447864D02*
X-7447864Y-18761573D01*
X-7447864Y-18761573D02*
X-24418427Y-35732136D01*
X12873984Y27131016D02*
X11777969Y26035000D01*
X11777969Y26035000D02*
X13970000Y23842969D01*
X13970000Y23842969D02*
X15066016Y24938984D01*
X13970000Y27831051D02*
X17562102Y31423154D01*
X17562102Y31423154D02*
X19358154Y29627102D01*
X19358154Y29627102D02*
X15766051Y26035000D01*
X15766051Y26035000D02*
X13970000Y27831051D01*
X-10340051Y12844214D02*
G75*
G03X-10340051Y12844214I-100000J0D01*
G01*
X-10227918Y12278528D02*
X-10581472Y12632082D01*
X-12278528Y10227918D02*
X-10227918Y12278528D01*
X-12632082Y10581472D02*
X-12278528Y10227918D01*
X-10581472Y12632082D02*
X-12632082Y10581472D01*
X-10204214Y-7900051D02*
G75*
G03X-10204214Y-7900051I-100000J0D01*
G01*
X-9738528Y-7687918D02*
X-10092082Y-8041472D01*
X-7687918Y-9738528D02*
X-9738528Y-7687918D01*
X-8041472Y-10092082D02*
X-7687918Y-9738528D01*
X-10092082Y-8041472D02*
X-8041472Y-10092082D01*
X12445051Y-14749214D02*
G75*
G03X12445051Y-14749214I-100000J0D01*
G01*
X12132918Y-14183528D02*
X12486472Y-14537082D01*
X14183528Y-12132918D02*
X12132918Y-14183528D01*
X14537082Y-12486472D02*
X14183528Y-12132918D01*
X12486472Y-14537082D02*
X14537082Y-12486472D01*
X17775812Y11411851D02*
X17068705Y10704744D01*
X17068705Y10704744D02*
X18836472Y8936977D01*
X19685000Y29584495D02*
X9644084Y19543579D01*
X9644084Y19543579D02*
X17775812Y11411851D01*
X18836472Y8936977D02*
X29584495Y19685000D01*
X29584495Y19685000D02*
X19685000Y29584495D01*
X11684000Y-30099000D02*
X11684000Y-29591000D01*
X11176000Y-30099000D02*
X11176000Y-29591000D01*
X-11684000Y-30099000D02*
X-11684000Y-29591000D01*
X-11176000Y-30099000D02*
X-11176000Y-29591000D01*
X-6096000Y-30099000D02*
X-6096000Y-29591000D01*
X-6604000Y-30099000D02*
X-6604000Y-29591000D01*
X-8636000Y-30099000D02*
X-8636000Y-29591000D01*
X-9144000Y-30099000D02*
X-9144000Y-29591000D01*
X-4064000Y-30099000D02*
X-4064000Y-29591000D01*
X-3556000Y-30099000D02*
X-3556000Y-29591000D01*
X-1524000Y-30099000D02*
X-1524000Y-29591000D01*
X-1016000Y-30099000D02*
X-1016000Y-29591000D01*
X9144000Y-30099000D02*
X9144000Y-29591000D01*
X8636000Y-30099000D02*
X8636000Y-29591000D01*
X6604000Y-30099000D02*
X6604000Y-29591000D01*
X6096000Y-30099000D02*
X6096000Y-29591000D01*
X1016000Y-30099000D02*
X1016000Y-29591000D01*
X1524000Y-30099000D02*
X1524000Y-29591000D01*
X3556000Y-30099000D02*
X3556000Y-29591000D01*
X4064000Y-30099000D02*
X4064000Y-29591000D01*
X-11684000Y-32639000D02*
X-11684000Y-32131000D01*
X-11176000Y-32639000D02*
X-11176000Y-32131000D01*
X-9144000Y-32639000D02*
X-9144000Y-32131000D01*
X-8636000Y-32639000D02*
X-8636000Y-32131000D01*
X-3556000Y-32639000D02*
X-3556000Y-32131000D01*
X-4064000Y-32639000D02*
X-4064000Y-32131000D01*
X-6096000Y-32639000D02*
X-6096000Y-32131000D01*
X-6604000Y-32639000D02*
X-6604000Y-32131000D01*
X-1524000Y-32639000D02*
X-1524000Y-32131000D01*
X-1016000Y-32639000D02*
X-1016000Y-32131000D01*
X1016000Y-32639000D02*
X1016000Y-32131000D01*
X1524000Y-32639000D02*
X1524000Y-32131000D01*
X11684000Y-32639000D02*
X11684000Y-32131000D01*
X11176000Y-32639000D02*
X11176000Y-32131000D01*
X9144000Y-32639000D02*
X9144000Y-32131000D01*
X8636000Y-32639000D02*
X8636000Y-32131000D01*
X3556000Y-32639000D02*
X3556000Y-32131000D01*
X4064000Y-32639000D02*
X4064000Y-32131000D01*
X6096000Y-32639000D02*
X6096000Y-32131000D01*
X6604000Y-32639000D02*
X6604000Y-32131000D01*
X12980000Y-28575000D02*
X12980000Y-27425000D01*
X12980000Y-27425000D02*
X11430000Y-27425000D01*
X11557000Y-35179000D02*
X11557000Y-41148000D01*
X11557000Y-41148000D02*
X11303000Y-41148000D01*
X11303000Y-41148000D02*
X11303000Y-35306000D01*
X11303000Y-35306000D02*
X11430000Y-35306000D01*
X11430000Y-35306000D02*
X11430000Y-41148000D01*
X-7620000Y-32639000D02*
X-7620000Y-35179000D01*
X-7620000Y-32639000D02*
X-10160000Y-32639000D01*
X-10160000Y-32639000D02*
X-10160000Y-35179000D01*
X-8636000Y-35179000D02*
X-8636000Y-41275000D01*
X-8636000Y-41275000D02*
X-9144000Y-41275000D01*
X-9144000Y-41275000D02*
X-9144000Y-35179000D01*
X-10160000Y-35179000D02*
X-7620000Y-35179000D01*
X-12700000Y-35179000D02*
X-10160000Y-35179000D01*
X-11684000Y-41275000D02*
X-11684000Y-35179000D01*
X-11176000Y-41275000D02*
X-11684000Y-41275000D01*
X-11176000Y-35179000D02*
X-11176000Y-41275000D01*
X-10160000Y-32639000D02*
X-12700000Y-32639000D01*
X-10160000Y-32639000D02*
X-10160000Y-35179000D01*
X-12700000Y-32639000D02*
X-12700000Y-35179000D01*
X2540000Y-32639000D02*
X2540000Y-35179000D01*
X2540000Y-32639000D02*
X0Y-32639000D01*
X0Y-32639000D02*
X0Y-35179000D01*
X1524000Y-35179000D02*
X1524000Y-41275000D01*
X1524000Y-41275000D02*
X1016000Y-41275000D01*
X1016000Y-41275000D02*
X1016000Y-35179000D01*
X0Y-35179000D02*
X2540000Y-35179000D01*
X-2540000Y-35179000D02*
X0Y-35179000D01*
X-1524000Y-41275000D02*
X-1524000Y-35179000D01*
X-1016000Y-41275000D02*
X-1524000Y-41275000D01*
X-1016000Y-35179000D02*
X-1016000Y-41275000D01*
X-2540000Y-32639000D02*
X-2540000Y-35179000D01*
X0Y-32639000D02*
X-2540000Y-32639000D01*
X0Y-32639000D02*
X0Y-35179000D01*
X-5080000Y-32639000D02*
X-5080000Y-35179000D01*
X-5080000Y-32639000D02*
X-7620000Y-32639000D01*
X-7620000Y-32639000D02*
X-7620000Y-35179000D01*
X-6096000Y-35179000D02*
X-6096000Y-41275000D01*
X-6096000Y-41275000D02*
X-6604000Y-41275000D01*
X-6604000Y-41275000D02*
X-6604000Y-35179000D01*
X-7620000Y-35179000D02*
X-5080000Y-35179000D01*
X-5080000Y-35179000D02*
X-2540000Y-35179000D01*
X-4064000Y-41275000D02*
X-4064000Y-35179000D01*
X-3556000Y-41275000D02*
X-4064000Y-41275000D01*
X-3556000Y-35179000D02*
X-3556000Y-41275000D01*
X-5080000Y-32639000D02*
X-5080000Y-35179000D01*
X-2540000Y-32639000D02*
X-5080000Y-32639000D01*
X-2540000Y-32639000D02*
X-2540000Y-35179000D01*
X7620000Y-32639000D02*
X7620000Y-35179000D01*
X7620000Y-32639000D02*
X5080000Y-32639000D01*
X5080000Y-32639000D02*
X5080000Y-35179000D01*
X6604000Y-35179000D02*
X6604000Y-41275000D01*
X6604000Y-41275000D02*
X6096000Y-41275000D01*
X6096000Y-41275000D02*
X6096000Y-35179000D01*
X5080000Y-35179000D02*
X7620000Y-35179000D01*
X2540000Y-35179000D02*
X5080000Y-35179000D01*
X3556000Y-41275000D02*
X3556000Y-35179000D01*
X4064000Y-41275000D02*
X3556000Y-41275000D01*
X4064000Y-35179000D02*
X4064000Y-41275000D01*
X2540000Y-32639000D02*
X2540000Y-35179000D01*
X5080000Y-32639000D02*
X2540000Y-32639000D01*
X5080000Y-32639000D02*
X5080000Y-35179000D01*
X10160000Y-32639000D02*
X10160000Y-35179000D01*
X10160000Y-32639000D02*
X7620000Y-32639000D01*
X7620000Y-32639000D02*
X7620000Y-35179000D01*
X9144000Y-35179000D02*
X9144000Y-41275000D01*
X9144000Y-41275000D02*
X8636000Y-41275000D01*
X8636000Y-41275000D02*
X8636000Y-35179000D01*
X7620000Y-35179000D02*
X10160000Y-35179000D01*
X10160000Y-35179000D02*
X12700000Y-35179000D01*
X11176000Y-41275000D02*
X11176000Y-35179000D01*
X11684000Y-41275000D02*
X11176000Y-41275000D01*
X11684000Y-35179000D02*
X11684000Y-41275000D01*
X10160000Y-32639000D02*
X10160000Y-35179000D01*
X12700000Y-32639000D02*
X10160000Y-32639000D01*
X12700000Y-32639000D02*
X12700000Y-35179000D01*
X-30099000Y-11684000D02*
X-29591000Y-11684000D01*
X-30099000Y-11176000D02*
X-29591000Y-11176000D01*
X-30099000Y11684000D02*
X-29591000Y11684000D01*
X-30099000Y11176000D02*
X-29591000Y11176000D01*
X-30099000Y6096000D02*
X-29591000Y6096000D01*
X-30099000Y6604000D02*
X-29591000Y6604000D01*
X-30099000Y8636000D02*
X-29591000Y8636000D01*
X-30099000Y9144000D02*
X-29591000Y9144000D01*
X-30099000Y4064000D02*
X-29591000Y4064000D01*
X-30099000Y3556000D02*
X-29591000Y3556000D01*
X-30099000Y1524000D02*
X-29591000Y1524000D01*
X-30099000Y1016000D02*
X-29591000Y1016000D01*
X-30099000Y-9144000D02*
X-29591000Y-9144000D01*
X-30099000Y-8636000D02*
X-29591000Y-8636000D01*
X-30099000Y-6604000D02*
X-29591000Y-6604000D01*
X-30099000Y-6096000D02*
X-29591000Y-6096000D01*
X-30099000Y-1016000D02*
X-29591000Y-1016000D01*
X-30099000Y-1524000D02*
X-29591000Y-1524000D01*
X-30099000Y-3556000D02*
X-29591000Y-3556000D01*
X-30099000Y-4064000D02*
X-29591000Y-4064000D01*
X-32639000Y11684000D02*
X-32131000Y11684000D01*
X-32639000Y11176000D02*
X-32131000Y11176000D01*
X-32639000Y9144000D02*
X-32131000Y9144000D01*
X-32639000Y8636000D02*
X-32131000Y8636000D01*
X-32639000Y3556000D02*
X-32131000Y3556000D01*
X-32639000Y4064000D02*
X-32131000Y4064000D01*
X-32639000Y6096000D02*
X-32131000Y6096000D01*
X-32639000Y6604000D02*
X-32131000Y6604000D01*
X-32639000Y1524000D02*
X-32131000Y1524000D01*
X-32639000Y1016000D02*
X-32131000Y1016000D01*
X-32639000Y-1016000D02*
X-32131000Y-1016000D01*
X-32639000Y-1524000D02*
X-32131000Y-1524000D01*
X-32639000Y-11684000D02*
X-32131000Y-11684000D01*
X-32639000Y-11176000D02*
X-32131000Y-11176000D01*
X-32639000Y-9144000D02*
X-32131000Y-9144000D01*
X-32639000Y-8636000D02*
X-32131000Y-8636000D01*
X-32639000Y-3556000D02*
X-32131000Y-3556000D01*
X-32639000Y-4064000D02*
X-32131000Y-4064000D01*
X-32639000Y-6096000D02*
X-32131000Y-6096000D01*
X-32639000Y-6604000D02*
X-32131000Y-6604000D01*
X-28575000Y-12980000D02*
X-27425000Y-12980000D01*
X-27425000Y-12980000D02*
X-27425000Y-11430000D01*
X-35179000Y-11557000D02*
X-41148000Y-11557000D01*
X-41148000Y-11557000D02*
X-41148000Y-11303000D01*
X-41148000Y-11303000D02*
X-35306000Y-11303000D01*
X-35306000Y-11303000D02*
X-35306000Y-11430000D01*
X-35306000Y-11430000D02*
X-41148000Y-11430000D01*
X-32639000Y7620000D02*
X-35179000Y7620000D01*
X-32639000Y7620000D02*
X-32639000Y10160000D01*
X-32639000Y10160000D02*
X-35179000Y10160000D01*
X-35179000Y8636000D02*
X-41275000Y8636000D01*
X-41275000Y8636000D02*
X-41275000Y9144000D01*
X-41275000Y9144000D02*
X-35179000Y9144000D01*
X-35179000Y10160000D02*
X-35179000Y7620000D01*
X-35179000Y12700000D02*
X-35179000Y10160000D01*
X-41275000Y11684000D02*
X-35179000Y11684000D01*
X-41275000Y11176000D02*
X-41275000Y11684000D01*
X-35179000Y11176000D02*
X-41275000Y11176000D01*
X-32639000Y10160000D02*
X-32639000Y12700000D01*
X-32639000Y10160000D02*
X-35179000Y10160000D01*
X-32639000Y12700000D02*
X-35179000Y12700000D01*
X-32639000Y-2540000D02*
X-35179000Y-2540000D01*
X-32639000Y-2540000D02*
X-32639000Y0D01*
X-32639000Y0D02*
X-35179000Y0D01*
X-35179000Y-1524000D02*
X-41275000Y-1524000D01*
X-41275000Y-1524000D02*
X-41275000Y-1016000D01*
X-41275000Y-1016000D02*
X-35179000Y-1016000D01*
X-35179000Y0D02*
X-35179000Y-2540000D01*
X-35179000Y2540000D02*
X-35179000Y0D01*
X-41275000Y1524000D02*
X-35179000Y1524000D01*
X-41275000Y1016000D02*
X-41275000Y1524000D01*
X-35179000Y1016000D02*
X-41275000Y1016000D01*
X-32639000Y2540000D02*
X-35179000Y2540000D01*
X-32639000Y0D02*
X-32639000Y2540000D01*
X-32639000Y0D02*
X-35179000Y0D01*
X-32639000Y5080000D02*
X-35179000Y5080000D01*
X-32639000Y5080000D02*
X-32639000Y7620000D01*
X-32639000Y7620000D02*
X-35179000Y7620000D01*
X-35179000Y6096000D02*
X-41275000Y6096000D01*
X-41275000Y6096000D02*
X-41275000Y6604000D01*
X-41275000Y6604000D02*
X-35179000Y6604000D01*
X-35179000Y7620000D02*
X-35179000Y5080000D01*
X-35179000Y5080000D02*
X-35179000Y2540000D01*
X-41275000Y4064000D02*
X-35179000Y4064000D01*
X-41275000Y3556000D02*
X-41275000Y4064000D01*
X-35179000Y3556000D02*
X-41275000Y3556000D01*
X-32639000Y5080000D02*
X-35179000Y5080000D01*
X-32639000Y2540000D02*
X-32639000Y5080000D01*
X-32639000Y2540000D02*
X-35179000Y2540000D01*
X-32639000Y-7620000D02*
X-35179000Y-7620000D01*
X-32639000Y-7620000D02*
X-32639000Y-5080000D01*
X-32639000Y-5080000D02*
X-35179000Y-5080000D01*
X-35179000Y-6604000D02*
X-41275000Y-6604000D01*
X-41275000Y-6604000D02*
X-41275000Y-6096000D01*
X-41275000Y-6096000D02*
X-35179000Y-6096000D01*
X-35179000Y-5080000D02*
X-35179000Y-7620000D01*
X-35179000Y-2540000D02*
X-35179000Y-5080000D01*
X-41275000Y-3556000D02*
X-35179000Y-3556000D01*
X-41275000Y-4064000D02*
X-41275000Y-3556000D01*
X-35179000Y-4064000D02*
X-41275000Y-4064000D01*
X-32639000Y-2540000D02*
X-35179000Y-2540000D01*
X-32639000Y-5080000D02*
X-32639000Y-2540000D01*
X-32639000Y-5080000D02*
X-35179000Y-5080000D01*
X-32639000Y-10160000D02*
X-35179000Y-10160000D01*
X-32639000Y-10160000D02*
X-32639000Y-7620000D01*
X-32639000Y-7620000D02*
X-35179000Y-7620000D01*
X-35179000Y-9144000D02*
X-41275000Y-9144000D01*
X-41275000Y-9144000D02*
X-41275000Y-8636000D01*
X-41275000Y-8636000D02*
X-35179000Y-8636000D01*
X-35179000Y-7620000D02*
X-35179000Y-10160000D01*
X-35179000Y-10160000D02*
X-35179000Y-12700000D01*
X-41275000Y-11176000D02*
X-35179000Y-11176000D01*
X-41275000Y-11684000D02*
X-41275000Y-11176000D01*
X-35179000Y-11684000D02*
X-41275000Y-11684000D01*
X-32639000Y-10160000D02*
X-35179000Y-10160000D01*
X-32639000Y-12700000D02*
X-32639000Y-10160000D01*
X-32639000Y-12700000D02*
X-35179000Y-12700000D01*
X-11684000Y30099000D02*
X-11684000Y29591000D01*
X-11176000Y30099000D02*
X-11176000Y29591000D01*
X11684000Y30099000D02*
X11684000Y29591000D01*
X11176000Y30099000D02*
X11176000Y29591000D01*
X6096000Y30099000D02*
X6096000Y29591000D01*
X6604000Y30099000D02*
X6604000Y29591000D01*
X8636000Y30099000D02*
X8636000Y29591000D01*
X9144000Y30099000D02*
X9144000Y29591000D01*
X4064000Y30099000D02*
X4064000Y29591000D01*
X3556000Y30099000D02*
X3556000Y29591000D01*
X1524000Y30099000D02*
X1524000Y29591000D01*
X1016000Y30099000D02*
X1016000Y29591000D01*
X-9144000Y30099000D02*
X-9144000Y29591000D01*
X-8636000Y30099000D02*
X-8636000Y29591000D01*
X-6604000Y30099000D02*
X-6604000Y29591000D01*
X-6096000Y30099000D02*
X-6096000Y29591000D01*
X-1016000Y30099000D02*
X-1016000Y29591000D01*
X-1524000Y30099000D02*
X-1524000Y29591000D01*
X-3556000Y30099000D02*
X-3556000Y29591000D01*
X-4064000Y30099000D02*
X-4064000Y29591000D01*
X11684000Y32639000D02*
X11684000Y32131000D01*
X11176000Y32639000D02*
X11176000Y32131000D01*
X9144000Y32639000D02*
X9144000Y32131000D01*
X8636000Y32639000D02*
X8636000Y32131000D01*
X3556000Y32639000D02*
X3556000Y32131000D01*
X4064000Y32639000D02*
X4064000Y32131000D01*
X6096000Y32639000D02*
X6096000Y32131000D01*
X6604000Y32639000D02*
X6604000Y32131000D01*
X1524000Y32639000D02*
X1524000Y32131000D01*
X1016000Y32639000D02*
X1016000Y32131000D01*
X-1016000Y32639000D02*
X-1016000Y32131000D01*
X-1524000Y32639000D02*
X-1524000Y32131000D01*
X-11684000Y32639000D02*
X-11684000Y32131000D01*
X-11176000Y32639000D02*
X-11176000Y32131000D01*
X-9144000Y32639000D02*
X-9144000Y32131000D01*
X-8636000Y32639000D02*
X-8636000Y32131000D01*
X-3556000Y32639000D02*
X-3556000Y32131000D01*
X-4064000Y32639000D02*
X-4064000Y32131000D01*
X-6096000Y32639000D02*
X-6096000Y32131000D01*
X-6604000Y32639000D02*
X-6604000Y32131000D01*
X-12980000Y28575000D02*
X-12980000Y27425000D01*
X-12980000Y27425000D02*
X-11430000Y27425000D01*
X-11557000Y35179000D02*
X-11557000Y41148000D01*
X-11557000Y41148000D02*
X-11303000Y41148000D01*
X-11303000Y41148000D02*
X-11303000Y35306000D01*
X-11303000Y35306000D02*
X-11430000Y35306000D01*
X-11430000Y35306000D02*
X-11430000Y41148000D01*
X7620000Y32639000D02*
X7620000Y35179000D01*
X7620000Y32639000D02*
X10160000Y32639000D01*
X10160000Y32639000D02*
X10160000Y35179000D01*
X8636000Y35179000D02*
X8636000Y41275000D01*
X8636000Y41275000D02*
X9144000Y41275000D01*
X9144000Y41275000D02*
X9144000Y35179000D01*
X10160000Y35179000D02*
X7620000Y35179000D01*
X12700000Y35179000D02*
X10160000Y35179000D01*
X11684000Y41275000D02*
X11684000Y35179000D01*
X11176000Y41275000D02*
X11684000Y41275000D01*
X11176000Y35179000D02*
X11176000Y41275000D01*
X10160000Y32639000D02*
X12700000Y32639000D01*
X10160000Y32639000D02*
X10160000Y35179000D01*
X12700000Y32639000D02*
X12700000Y35179000D01*
X-2540000Y32639000D02*
X-2540000Y35179000D01*
X-2540000Y32639000D02*
X0Y32639000D01*
X0Y32639000D02*
X0Y35179000D01*
X-1524000Y35179000D02*
X-1524000Y41275000D01*
X-1524000Y41275000D02*
X-1016000Y41275000D01*
X-1016000Y41275000D02*
X-1016000Y35179000D01*
X0Y35179000D02*
X-2540000Y35179000D01*
X2540000Y35179000D02*
X0Y35179000D01*
X1524000Y41275000D02*
X1524000Y35179000D01*
X1016000Y41275000D02*
X1524000Y41275000D01*
X1016000Y35179000D02*
X1016000Y41275000D01*
X2540000Y32639000D02*
X2540000Y35179000D01*
X0Y32639000D02*
X2540000Y32639000D01*
X0Y32639000D02*
X0Y35179000D01*
X5080000Y32639000D02*
X5080000Y35179000D01*
X5080000Y32639000D02*
X7620000Y32639000D01*
X7620000Y32639000D02*
X7620000Y35179000D01*
X6096000Y35179000D02*
X6096000Y41275000D01*
X6096000Y41275000D02*
X6604000Y41275000D01*
X6604000Y41275000D02*
X6604000Y35179000D01*
X7620000Y35179000D02*
X5080000Y35179000D01*
X5080000Y35179000D02*
X2540000Y35179000D01*
X4064000Y41275000D02*
X4064000Y35179000D01*
X3556000Y41275000D02*
X4064000Y41275000D01*
X3556000Y35179000D02*
X3556000Y41275000D01*
X5080000Y32639000D02*
X5080000Y35179000D01*
X2540000Y32639000D02*
X5080000Y32639000D01*
X2540000Y32639000D02*
X2540000Y35179000D01*
X-7620000Y32639000D02*
X-7620000Y35179000D01*
X-7620000Y32639000D02*
X-5080000Y32639000D01*
X-5080000Y32639000D02*
X-5080000Y35179000D01*
X-6604000Y35179000D02*
X-6604000Y41275000D01*
X-6604000Y41275000D02*
X-6096000Y41275000D01*
X-6096000Y41275000D02*
X-6096000Y35179000D01*
X-5080000Y35179000D02*
X-7620000Y35179000D01*
X-2540000Y35179000D02*
X-5080000Y35179000D01*
X-3556000Y41275000D02*
X-3556000Y35179000D01*
X-4064000Y41275000D02*
X-3556000Y41275000D01*
X-4064000Y35179000D02*
X-4064000Y41275000D01*
X-2540000Y32639000D02*
X-2540000Y35179000D01*
X-5080000Y32639000D02*
X-2540000Y32639000D01*
X-5080000Y32639000D02*
X-5080000Y35179000D01*
X-10160000Y32639000D02*
X-10160000Y35179000D01*
X-10160000Y32639000D02*
X-7620000Y32639000D01*
X-7620000Y32639000D02*
X-7620000Y35179000D01*
X-9144000Y35179000D02*
X-9144000Y41275000D01*
X-9144000Y41275000D02*
X-8636000Y41275000D01*
X-8636000Y41275000D02*
X-8636000Y35179000D01*
X-7620000Y35179000D02*
X-10160000Y35179000D01*
X-10160000Y35179000D02*
X-12700000Y35179000D01*
X-11176000Y41275000D02*
X-11176000Y35179000D01*
X-11684000Y41275000D02*
X-11176000Y41275000D01*
X-11684000Y35179000D02*
X-11684000Y41275000D01*
X-10160000Y32639000D02*
X-10160000Y35179000D01*
X-12700000Y32639000D02*
X-10160000Y32639000D01*
X-12700000Y32639000D02*
X-12700000Y35179000D01*
X30099000Y11684000D02*
X29591000Y11684000D01*
X30099000Y11176000D02*
X29591000Y11176000D01*
X30099000Y-11684000D02*
X29591000Y-11684000D01*
X30099000Y-11176000D02*
X29591000Y-11176000D01*
X30099000Y-6096000D02*
X29591000Y-6096000D01*
X30099000Y-6604000D02*
X29591000Y-6604000D01*
X30099000Y-8636000D02*
X29591000Y-8636000D01*
X30099000Y-9144000D02*
X29591000Y-9144000D01*
X30099000Y-4064000D02*
X29591000Y-4064000D01*
X30099000Y-3556000D02*
X29591000Y-3556000D01*
X30099000Y-1524000D02*
X29591000Y-1524000D01*
X30099000Y-1016000D02*
X29591000Y-1016000D01*
X30099000Y9144000D02*
X29591000Y9144000D01*
X30099000Y8636000D02*
X29591000Y8636000D01*
X30099000Y6604000D02*
X29591000Y6604000D01*
X30099000Y6096000D02*
X29591000Y6096000D01*
X30099000Y1016000D02*
X29591000Y1016000D01*
X30099000Y1524000D02*
X29591000Y1524000D01*
X30099000Y3556000D02*
X29591000Y3556000D01*
X30099000Y4064000D02*
X29591000Y4064000D01*
X32639000Y-11684000D02*
X32131000Y-11684000D01*
X32639000Y-11176000D02*
X32131000Y-11176000D01*
X32639000Y-9144000D02*
X32131000Y-9144000D01*
X32639000Y-8636000D02*
X32131000Y-8636000D01*
X32639000Y-3556000D02*
X32131000Y-3556000D01*
X32639000Y-4064000D02*
X32131000Y-4064000D01*
X32639000Y-6096000D02*
X32131000Y-6096000D01*
X32639000Y-6604000D02*
X32131000Y-6604000D01*
X32639000Y-1524000D02*
X32131000Y-1524000D01*
X32639000Y-1016000D02*
X32131000Y-1016000D01*
X32639000Y1016000D02*
X32131000Y1016000D01*
X32639000Y1524000D02*
X32131000Y1524000D01*
X32639000Y11684000D02*
X32131000Y11684000D01*
X32639000Y11176000D02*
X32131000Y11176000D01*
X32639000Y9144000D02*
X32131000Y9144000D01*
X32639000Y8636000D02*
X32131000Y8636000D01*
X32639000Y3556000D02*
X32131000Y3556000D01*
X32639000Y4064000D02*
X32131000Y4064000D01*
X32639000Y6096000D02*
X32131000Y6096000D01*
X32639000Y6604000D02*
X32131000Y6604000D01*
X28575000Y12980000D02*
X27425000Y12980000D01*
X27425000Y12980000D02*
X27425000Y11430000D01*
X35179000Y11557000D02*
X41148000Y11557000D01*
X41148000Y11557000D02*
X41148000Y11303000D01*
X41148000Y11303000D02*
X35306000Y11303000D01*
X35306000Y11303000D02*
X35306000Y11430000D01*
X35306000Y11430000D02*
X41148000Y11430000D01*
X32639000Y-7620000D02*
X35179000Y-7620000D01*
X32639000Y-7620000D02*
X32639000Y-10160000D01*
X32639000Y-10160000D02*
X35179000Y-10160000D01*
X35179000Y-8636000D02*
X41275000Y-8636000D01*
X41275000Y-8636000D02*
X41275000Y-9144000D01*
X41275000Y-9144000D02*
X35179000Y-9144000D01*
X35179000Y-10160000D02*
X35179000Y-7620000D01*
X35179000Y-12700000D02*
X35179000Y-10160000D01*
X41275000Y-11684000D02*
X35179000Y-11684000D01*
X41275000Y-11176000D02*
X41275000Y-11684000D01*
X35179000Y-11176000D02*
X41275000Y-11176000D01*
X32639000Y-10160000D02*
X32639000Y-12700000D01*
X32639000Y-10160000D02*
X35179000Y-10160000D01*
X32639000Y-12700000D02*
X35179000Y-12700000D01*
X32639000Y2540000D02*
X35179000Y2540000D01*
X32639000Y2540000D02*
X32639000Y0D01*
X32639000Y0D02*
X35179000Y0D01*
X35179000Y1524000D02*
X41275000Y1524000D01*
X41275000Y1524000D02*
X41275000Y1016000D01*
X41275000Y1016000D02*
X35179000Y1016000D01*
X35179000Y0D02*
X35179000Y2540000D01*
X35179000Y-2540000D02*
X35179000Y0D01*
X41275000Y-1524000D02*
X35179000Y-1524000D01*
X41275000Y-1016000D02*
X41275000Y-1524000D01*
X35179000Y-1016000D02*
X41275000Y-1016000D01*
X32639000Y-2540000D02*
X35179000Y-2540000D01*
X32639000Y0D02*
X32639000Y-2540000D01*
X32639000Y0D02*
X35179000Y0D01*
X32639000Y-5080000D02*
X35179000Y-5080000D01*
X32639000Y-5080000D02*
X32639000Y-7620000D01*
X32639000Y-7620000D02*
X35179000Y-7620000D01*
X35179000Y-6096000D02*
X41275000Y-6096000D01*
X41275000Y-6096000D02*
X41275000Y-6604000D01*
X41275000Y-6604000D02*
X35179000Y-6604000D01*
X35179000Y-7620000D02*
X35179000Y-5080000D01*
X35179000Y-5080000D02*
X35179000Y-2540000D01*
X41275000Y-4064000D02*
X35179000Y-4064000D01*
X41275000Y-3556000D02*
X41275000Y-4064000D01*
X35179000Y-3556000D02*
X41275000Y-3556000D01*
X32639000Y-5080000D02*
X35179000Y-5080000D01*
X32639000Y-2540000D02*
X32639000Y-5080000D01*
X32639000Y-2540000D02*
X35179000Y-2540000D01*
X32639000Y7620000D02*
X35179000Y7620000D01*
X32639000Y7620000D02*
X32639000Y5080000D01*
X32639000Y5080000D02*
X35179000Y5080000D01*
X35179000Y6604000D02*
X41275000Y6604000D01*
X41275000Y6604000D02*
X41275000Y6096000D01*
X41275000Y6096000D02*
X35179000Y6096000D01*
X35179000Y5080000D02*
X35179000Y7620000D01*
X35179000Y2540000D02*
X35179000Y5080000D01*
X41275000Y3556000D02*
X35179000Y3556000D01*
X41275000Y4064000D02*
X41275000Y3556000D01*
X35179000Y4064000D02*
X41275000Y4064000D01*
X32639000Y2540000D02*
X35179000Y2540000D01*
X32639000Y5080000D02*
X32639000Y2540000D01*
X32639000Y5080000D02*
X35179000Y5080000D01*
X32639000Y10160000D02*
X35179000Y10160000D01*
X32639000Y10160000D02*
X32639000Y7620000D01*
X32639000Y7620000D02*
X35179000Y7620000D01*
X35179000Y9144000D02*
X41275000Y9144000D01*
X41275000Y9144000D02*
X41275000Y8636000D01*
X41275000Y8636000D02*
X35179000Y8636000D01*
X35179000Y7620000D02*
X35179000Y10160000D01*
X35179000Y10160000D02*
X35179000Y12700000D01*
X41275000Y11176000D02*
X35179000Y11176000D01*
X41275000Y11684000D02*
X41275000Y11176000D01*
X35179000Y11684000D02*
X41275000Y11684000D01*
X32639000Y10160000D02*
X35179000Y10160000D01*
X32639000Y12700000D02*
X32639000Y10160000D01*
X32639000Y12700000D02*
X35179000Y12700000D01*
X-4700000Y-19700000D02*
X-4700000Y-19125000D01*
X4700000Y-10300000D02*
X4700000Y-10875000D01*
X-4700000Y-10300000D02*
X-4700000Y-10875000D01*
X4700000Y-19700000D02*
X4125000Y-19700000D01*
X4700000Y-10300000D02*
X4125000Y-10300000D01*
X-4700000Y-10300000D02*
X-4125000Y-10300000D01*
X-4700000Y-19700000D02*
X-4125000Y-19700000D01*
X-19700000Y4700000D02*
X-19125000Y4700000D01*
X-10300000Y-4700000D02*
X-10875000Y-4700000D01*
X-10300000Y4700000D02*
X-10875000Y4700000D01*
X-19700000Y-4700000D02*
X-19700000Y-4125000D01*
X-10300000Y-4700000D02*
X-10300000Y-4125000D01*
X-10300000Y4700000D02*
X-10300000Y4125000D01*
X-19700000Y4700000D02*
X-19700000Y4125000D01*
X4700000Y19700000D02*
X4700000Y19125000D01*
X-4700000Y10300000D02*
X-4700000Y10875000D01*
X4700000Y10300000D02*
X4700000Y10875000D01*
X-4700000Y19700000D02*
X-4125000Y19700000D01*
X-4700000Y10300000D02*
X-4125000Y10300000D01*
X4700000Y10300000D02*
X4125000Y10300000D01*
X4700000Y19700000D02*
X4125000Y19700000D01*
X19700000Y-4700000D02*
X19125000Y-4700000D01*
X10300000Y4700000D02*
X10875000Y4700000D01*
X10300000Y-4700000D02*
X10875000Y-4700000D01*
X19700000Y4700000D02*
X19700000Y4125000D01*
X10300000Y4700000D02*
X10300000Y4125000D01*
X10300000Y-4700000D02*
X10300000Y-4125000D01*
X19700000Y-4700000D02*
X19700000Y-4125000D01*
X8475000Y-17750000D02*
X8475000Y-17250000D01*
X7525000Y-17250000D02*
X7525000Y-17750000D01*
X8475000Y-15750000D02*
X8475000Y-15250000D01*
X7525000Y-15250000D02*
X7525000Y-15750000D01*
X2250000Y-5525000D02*
X1750000Y-5525000D01*
X1750000Y-6475000D02*
X2250000Y-6475000D01*
X250000Y-5525000D02*
X-250000Y-5525000D01*
X-250000Y-6475000D02*
X250000Y-6475000D01*
X7475000Y-17750000D02*
X7475000Y-17250000D01*
X6525000Y-17250000D02*
X6525000Y-17750000D01*
X7475000Y-15750000D02*
X7475000Y-15250000D01*
X6525000Y-15250000D02*
X6525000Y-15750000D01*
X2250000Y-6525000D02*
X1750000Y-6525000D01*
X1750000Y-7475000D02*
X2250000Y-7475000D01*
X250000Y-6525000D02*
X-250000Y-6525000D01*
X-250000Y-7475000D02*
X250000Y-7475000D01*
X-7475000Y-17250000D02*
X-7475000Y-17750000D01*
X-6525000Y-17750000D02*
X-6525000Y-17250000D01*
X-7475000Y-15250000D02*
X-7475000Y-15750000D01*
X-6525000Y-15750000D02*
X-6525000Y-15250000D01*
X-2525000Y-21750000D02*
X-2525000Y-21250000D01*
X-3475000Y-21250000D02*
X-3475000Y-21750000D01*
X2250000Y-22475000D02*
X2750000Y-22475000D01*
X2750000Y-21525000D02*
X2250000Y-21525000D01*
X250000Y-22475000D02*
X750000Y-22475000D01*
X750000Y-21525000D02*
X250000Y-21525000D01*
X-1750000Y-22475000D02*
X-1250000Y-22475000D01*
X-1250000Y-21525000D02*
X-1750000Y-21525000D01*
X1250000Y-21475000D02*
X1750000Y-21475000D01*
X1750000Y-20525000D02*
X1250000Y-20525000D01*
X-8475000Y-17250000D02*
X-8475000Y-17750000D01*
X-7525000Y-17750000D02*
X-7525000Y-17250000D01*
X-8475000Y-15250000D02*
X-8475000Y-15750000D01*
X-7525000Y-15750000D02*
X-7525000Y-15250000D01*
X2250000Y-23475000D02*
X2750000Y-23475000D01*
X2750000Y-22525000D02*
X2250000Y-22525000D01*
X250000Y-23475000D02*
X750000Y-23475000D01*
X750000Y-22525000D02*
X250000Y-22525000D01*
X-1750000Y-23475000D02*
X-1250000Y-23475000D01*
X-1250000Y-22525000D02*
X-1750000Y-22525000D01*
X-3750000Y-23475000D02*
X-3250000Y-23475000D01*
X-3250000Y-22525000D02*
X-3750000Y-22525000D01*
X-17750000Y-8475000D02*
X-17250000Y-8475000D01*
X-17250000Y-7525000D02*
X-17750000Y-7525000D01*
X-15750000Y-8475000D02*
X-15250000Y-8475000D01*
X-15250000Y-7525000D02*
X-15750000Y-7525000D01*
X-5525000Y-2250000D02*
X-5525000Y-1750000D01*
X-6475000Y-1750000D02*
X-6475000Y-2250000D01*
X-5525000Y-250000D02*
X-5525000Y250000D01*
X-6475000Y250000D02*
X-6475000Y-250000D01*
X-17750000Y-7475000D02*
X-17250000Y-7475000D01*
X-17250000Y-6525000D02*
X-17750000Y-6525000D01*
X-15750000Y-7475000D02*
X-15250000Y-7475000D01*
X-15250000Y-6525000D02*
X-15750000Y-6525000D01*
X-6525000Y-2250000D02*
X-6525000Y-1750000D01*
X-7475000Y-1750000D02*
X-7475000Y-2250000D01*
X-6525000Y-250000D02*
X-6525000Y250000D01*
X-7475000Y250000D02*
X-7475000Y-250000D01*
X-17250000Y7475000D02*
X-17750000Y7475000D01*
X-17750000Y6525000D02*
X-17250000Y6525000D01*
X-15250000Y7475000D02*
X-15750000Y7475000D01*
X-15750000Y6525000D02*
X-15250000Y6525000D01*
X-21750000Y2525000D02*
X-21250000Y2525000D01*
X-21250000Y3475000D02*
X-21750000Y3475000D01*
X-22475000Y-2250000D02*
X-22475000Y-2750000D01*
X-21525000Y-2750000D02*
X-21525000Y-2250000D01*
X-22475000Y-250000D02*
X-22475000Y-750000D01*
X-21525000Y-750000D02*
X-21525000Y-250000D01*
X-22475000Y1750000D02*
X-22475000Y1250000D01*
X-21525000Y1250000D02*
X-21525000Y1750000D01*
X-21475000Y-1250000D02*
X-21475000Y-1750000D01*
X-20525000Y-1750000D02*
X-20525000Y-1250000D01*
X-17250000Y8475000D02*
X-17750000Y8475000D01*
X-17750000Y7525000D02*
X-17250000Y7525000D01*
X-15250000Y8475000D02*
X-15750000Y8475000D01*
X-15750000Y7525000D02*
X-15250000Y7525000D01*
X-23475000Y-2250000D02*
X-23475000Y-2750000D01*
X-22525000Y-2750000D02*
X-22525000Y-2250000D01*
X-23475000Y-250000D02*
X-23475000Y-750000D01*
X-22525000Y-750000D02*
X-22525000Y-250000D01*
X-23475000Y1750000D02*
X-23475000Y1250000D01*
X-22525000Y1250000D02*
X-22525000Y1750000D01*
X-23475000Y3750000D02*
X-23475000Y3250000D01*
X-22525000Y3250000D02*
X-22525000Y3750000D01*
X-8475000Y17750000D02*
X-8475000Y17250000D01*
X-7525000Y17250000D02*
X-7525000Y17750000D01*
X-8475000Y15750000D02*
X-8475000Y15250000D01*
X-7525000Y15250000D02*
X-7525000Y15750000D01*
X-2250000Y5525000D02*
X-1750000Y5525000D01*
X-1750000Y6475000D02*
X-2250000Y6475000D01*
X-250000Y5525000D02*
X250000Y5525000D01*
X250000Y6475000D02*
X-250000Y6475000D01*
X-7475000Y17750000D02*
X-7475000Y17250000D01*
X-6525000Y17250000D02*
X-6525000Y17750000D01*
X-7475000Y15750000D02*
X-7475000Y15250000D01*
X-6525000Y15250000D02*
X-6525000Y15750000D01*
X-2250000Y6525000D02*
X-1750000Y6525000D01*
X-1750000Y7475000D02*
X-2250000Y7475000D01*
X-250000Y6525000D02*
X250000Y6525000D01*
X250000Y7475000D02*
X-250000Y7475000D01*
X7475000Y17250000D02*
X7475000Y17750000D01*
X6525000Y17750000D02*
X6525000Y17250000D01*
X7475000Y15250000D02*
X7475000Y15750000D01*
X6525000Y15750000D02*
X6525000Y15250000D01*
X2525000Y21750000D02*
X2525000Y21250000D01*
X3475000Y21250000D02*
X3475000Y21750000D01*
X-2250000Y22475000D02*
X-2750000Y22475000D01*
X-2750000Y21525000D02*
X-2250000Y21525000D01*
X-250000Y22475000D02*
X-750000Y22475000D01*
X-750000Y21525000D02*
X-250000Y21525000D01*
X1750000Y22475000D02*
X1250000Y22475000D01*
X1250000Y21525000D02*
X1750000Y21525000D01*
X-1250000Y21475000D02*
X-1750000Y21475000D01*
X-1750000Y20525000D02*
X-1250000Y20525000D01*
X8475000Y17250000D02*
X8475000Y17750000D01*
X7525000Y17750000D02*
X7525000Y17250000D01*
X8475000Y15250000D02*
X8475000Y15750000D01*
X7525000Y15750000D02*
X7525000Y15250000D01*
X-2250000Y23475000D02*
X-2750000Y23475000D01*
X-2750000Y22525000D02*
X-2250000Y22525000D01*
X-250000Y23475000D02*
X-750000Y23475000D01*
X-750000Y22525000D02*
X-250000Y22525000D01*
X1750000Y23475000D02*
X1250000Y23475000D01*
X1250000Y22525000D02*
X1750000Y22525000D01*
X3750000Y23475000D02*
X3250000Y23475000D01*
X3250000Y22525000D02*
X3750000Y22525000D01*
X17750000Y8475000D02*
X17250000Y8475000D01*
X17250000Y7525000D02*
X17750000Y7525000D01*
X15750000Y8475000D02*
X15250000Y8475000D01*
X15250000Y7525000D02*
X15750000Y7525000D01*
X5525000Y2250000D02*
X5525000Y1750000D01*
X6475000Y1750000D02*
X6475000Y2250000D01*
X5525000Y250000D02*
X5525000Y-250000D01*
X6475000Y-250000D02*
X6475000Y250000D01*
X17750000Y7475000D02*
X17250000Y7475000D01*
X17250000Y6525000D02*
X17750000Y6525000D01*
X15750000Y7475000D02*
X15250000Y7475000D01*
X15250000Y6525000D02*
X15750000Y6525000D01*
X6525000Y2250000D02*
X6525000Y1750000D01*
X7475000Y1750000D02*
X7475000Y2250000D01*
X6525000Y250000D02*
X6525000Y-250000D01*
X7475000Y-250000D02*
X7475000Y250000D01*
X17250000Y-7475000D02*
X17750000Y-7475000D01*
X17750000Y-6525000D02*
X17250000Y-6525000D01*
X15250000Y-7475000D02*
X15750000Y-7475000D01*
X15750000Y-6525000D02*
X15250000Y-6525000D01*
X21750000Y-2525000D02*
X21250000Y-2525000D01*
X21250000Y-3475000D02*
X21750000Y-3475000D01*
X22475000Y2250000D02*
X22475000Y2750000D01*
X21525000Y2750000D02*
X21525000Y2250000D01*
X22475000Y250000D02*
X22475000Y750000D01*
X21525000Y750000D02*
X21525000Y250000D01*
X22475000Y-1750000D02*
X22475000Y-1250000D01*
X21525000Y-1250000D02*
X21525000Y-1750000D01*
X21475000Y1250000D02*
X21475000Y1750000D01*
X20525000Y1750000D02*
X20525000Y1250000D01*
X17250000Y-8475000D02*
X17750000Y-8475000D01*
X17750000Y-7525000D02*
X17250000Y-7525000D01*
X15250000Y-8475000D02*
X15750000Y-8475000D01*
X15750000Y-7525000D02*
X15250000Y-7525000D01*
X23475000Y2250000D02*
X23475000Y2750000D01*
X22525000Y2750000D02*
X22525000Y2250000D01*
X23475000Y250000D02*
X23475000Y750000D01*
X22525000Y750000D02*
X22525000Y250000D01*
X23475000Y-1750000D02*
X23475000Y-1250000D01*
X22525000Y-1250000D02*
X22525000Y-1750000D01*
X23475000Y-3750000D02*
X23475000Y-3250000D01*
X22525000Y-3250000D02*
X22525000Y-3750000D01*
X11209099Y-7362652D02*
X11562652Y-7009099D01*
X10890901Y-6337348D02*
X10537348Y-6690901D01*
X6140901Y-11087348D02*
X5787348Y-11440901D01*
X6459099Y-12112652D02*
X6812652Y-11759099D01*
D12*
X-2400000Y-3700000D02*
X-2700000Y-3700000D01*
X-2700000Y-3700000D02*
X-2700000Y3700000D01*
X-2700000Y3700000D02*
X-2400000Y3700000D01*
X2400000Y-4200000D02*
X2400000Y-3700000D01*
X2400000Y-3700000D02*
X2700000Y-3700000D01*
X2700000Y-3700000D02*
X2700000Y3700000D01*
X2700000Y3700000D02*
X2400000Y3700000D01*
X300000Y-4200000D02*
X300000Y-3700000D01*
X300000Y-3700000D02*
X-300000Y-3700000D01*
X-300000Y3700000D02*
X300000Y3700000D01*
D11*
X-10229315Y-13404315D02*
X-11183909Y-12449720D01*
X-11183909Y-12449720D02*
X-12315280Y-13581091D01*
X-12315280Y-13581091D02*
X-10406091Y-15490280D01*
X-10406091Y-15490280D02*
X-9274720Y-14358909D01*
X-9274720Y-14358909D02*
X-10229315Y-13404315D01*
X-14535685Y-11360685D02*
X-13581091Y-12315280D01*
X-13581091Y-12315280D02*
X-12449720Y-11183909D01*
X-12449720Y-11183909D02*
X-14358909Y-9274720D01*
X-14358909Y-9274720D02*
X-15490280Y-10406091D01*
X-15490280Y-10406091D02*
X-14535685Y-11360685D01*
X-18415000Y21455559D02*
X-18043769Y21084328D01*
X-18415000Y15374441D02*
X-18786231Y15745672D01*
X-15374441Y18415000D02*
X-15745672Y18786231D01*
X-21455559Y18415000D02*
X-21084328Y18786231D01*
X-18415000Y15374441D02*
X-18043769Y15745672D01*
X-15374441Y18415000D02*
X-15745672Y18043769D01*
X-18415000Y21455559D02*
X-18786231Y21084328D01*
X-24892903Y16317823D02*
X-24391805Y16818921D01*
X-24391805Y16818921D02*
X-24675581Y17102697D01*
D12*
X-12574117Y-10950563D02*
X-12220563Y-11304117D01*
X-11555883Y-10639437D02*
X-11909437Y-10285883D01*
D11*
X6910101Y-7192944D02*
X6415126Y-6697969D01*
X7192944Y-9597107D02*
X6839390Y-9950660D01*
X8184364Y-10588527D02*
X7192944Y-9597107D01*
X9596371Y-7192208D02*
X10587792Y-8183629D01*
X10587056Y-10869899D02*
X10869899Y-10587056D01*
X6910101Y-7192944D02*
X7192944Y-6910101D01*
D12*
X-19578249Y14323223D02*
X-20073223Y13828249D01*
X-20921751Y14676777D02*
X-20426777Y15171751D01*
X-18121751Y15226777D02*
X-17626777Y15721751D01*
X-16778249Y14873223D02*
X-17273223Y14378249D01*
X-14133751Y12622777D02*
X-13638777Y13117751D01*
X-12790249Y12269223D02*
X-13285223Y11774249D01*
X13552249Y-15063223D02*
X14047223Y-14568249D01*
X14895751Y-15416777D02*
X14400777Y-15911751D01*
X-8853249Y10364223D02*
X-9348223Y9869249D01*
X-10196751Y10717777D02*
X-9701777Y11212751D01*
X10758249Y-12269223D02*
X11253223Y-11774249D01*
X12101751Y-12622777D02*
X11606777Y-13117751D01*
X-10209777Y-11593751D02*
X-10704751Y-11098777D01*
X-9856223Y-10250249D02*
X-9361249Y-10745223D01*
X-7697223Y-6313249D02*
X-7202249Y-6808223D01*
X-8050777Y-7656751D02*
X-8545751Y-7161777D01*
X-19494437Y13440883D02*
X-19140883Y13794437D01*
X-19805563Y14459117D02*
X-20159117Y14105563D01*
X-17005563Y15009117D02*
X-17359117Y14655563D01*
X-16694437Y13990883D02*
X-16340883Y14344437D01*
X-10491223Y-11520249D02*
X-9996249Y-12015223D01*
X-10844777Y-12863751D02*
X-11339751Y-12368777D01*
D11*
X-21697898Y27088154D02*
X-25290000Y23496051D01*
X-27482031Y21700000D02*
X-26386016Y22796016D01*
X-25290000Y19903949D02*
X-23493949Y21700000D01*
X-23493949Y21700000D02*
X-25290000Y23496051D01*
X-21697898Y27088154D02*
X-18105795Y23496051D01*
X-18105795Y23496051D02*
X-21697898Y19903949D01*
X-27482031Y21700000D02*
X-26386016Y20603984D01*
X-23493949Y18107898D02*
X-25290000Y19903949D01*
X-21697898Y19903949D02*
X-23493949Y18107898D01*
X21697898Y-27088154D02*
X25290000Y-23496051D01*
X27482031Y-21700000D02*
X26386016Y-22796016D01*
X25290000Y-19903949D02*
X23493949Y-21700000D01*
X23493949Y-21700000D02*
X25290000Y-23496051D01*
X21697898Y-27088154D02*
X18105795Y-23496051D01*
X18105795Y-23496051D02*
X21697898Y-19903949D01*
X27482031Y-21700000D02*
X26386016Y-20603984D01*
X23493949Y-18107898D02*
X25290000Y-19903949D01*
X21697898Y-19903949D02*
X23493949Y-18107898D01*
X-21034416Y-19956920D02*
X-21606836Y-20529340D01*
X-21640508Y-20630355D01*
X-21640508Y-20697698D01*
X-21606836Y-20798713D01*
X-21472148Y-20933401D01*
X-21371133Y-20967073D01*
X-21303790Y-20967073D01*
X-21202775Y-20933401D01*
X-20630355Y-20360981D01*
X-19956920Y-21034416D02*
X-20293638Y-20697698D01*
X-20664026Y-21000744D01*
X-20596683Y-21000744D01*
X-20495668Y-21034415D01*
X-20327309Y-21202775D01*
X-20293637Y-21303790D01*
X-20293637Y-21371133D01*
X-20327309Y-21472149D01*
X-20495668Y-21640508D01*
X-20596683Y-21674179D01*
X-20664026Y-21674179D01*
X-20765042Y-21640508D01*
X-20933401Y-21472148D01*
X-20967073Y-21371133D01*
X-20967073Y-21303790D01*
X9825007Y28462733D02*
X9117900Y29169840D01*
X9387274Y29439215D01*
X9488290Y29472886D01*
X9555633Y29472886D01*
X9656648Y29439215D01*
X9757663Y29338200D01*
X9791335Y29237184D01*
X9791335Y29169841D01*
X9757663Y29068826D01*
X9488289Y28799451D01*
X10902503Y29540230D02*
X10498442Y29136169D01*
X10700472Y29338199D02*
X9993365Y30045306D01*
X10027037Y29876947D01*
X10027037Y29742260D01*
X9993365Y29641245D01*
X11575938Y30213665D02*
X11171877Y29809604D01*
X11373907Y30011634D02*
X10666800Y30718741D01*
X10700472Y30550382D01*
X10700472Y30415695D01*
X10666800Y30314680D01*
X-10150473Y14531168D02*
X-10722893Y13958749D01*
X-10756565Y13857733D01*
X-10756565Y13790390D01*
X-10722893Y13689375D01*
X-10588206Y13554687D01*
X-10487190Y13521016D01*
X-10419847Y13521016D01*
X-10318832Y13554687D01*
X-9746412Y14127107D01*
X-9477038Y13857733D02*
X-9039305Y13420000D01*
X-9544382Y13386329D01*
X-9443366Y13285314D01*
X-9409694Y13184298D01*
X-9409694Y13116955D01*
X-9443366Y13015939D01*
X-9611725Y12847580D01*
X-9712740Y12813909D01*
X-9780084Y12813909D01*
X-9881099Y12847580D01*
X-10083130Y13049611D01*
X-10116802Y13150627D01*
X-10116802Y13217970D01*
X-9409695Y12376176D02*
X-9275008Y12241490D01*
X-9173992Y12207817D01*
X-9106649Y12207817D01*
X-8938290Y12241489D01*
X-8769931Y12342504D01*
X-8500557Y12611878D01*
X-8466885Y12712894D01*
X-8466885Y12780237D01*
X-8500557Y12881252D01*
X-8635245Y13015940D01*
X-8736260Y13049611D01*
X-8803603Y13049611D01*
X-8904618Y13015940D01*
X-9072977Y12847581D01*
X-9106649Y12746566D01*
X-9106649Y12679222D01*
X-9072978Y12578207D01*
X-8938290Y12443519D01*
X-8837275Y12409847D01*
X-8769931Y12409848D01*
X-8668916Y12443520D01*
X-11654451Y-7273756D02*
X-11082031Y-7846176D01*
X-10981016Y-7879848D01*
X-10913673Y-7879848D01*
X-10812658Y-7846176D01*
X-10677970Y-7711488D01*
X-10644298Y-7610473D01*
X-10644298Y-7543130D01*
X-10677970Y-7442115D01*
X-11250390Y-6869695D01*
X-9836176Y-6869695D02*
X-10240238Y-7273756D01*
X-10038207Y-7071726D02*
X-10745314Y-6364619D01*
X-10711642Y-6532978D01*
X-10711642Y-6667664D01*
X-10745314Y-6768680D01*
X11415710Y-14247505D02*
X10843290Y-14819925D01*
X10809618Y-14920940D01*
X10809618Y-14988283D01*
X10843290Y-15089298D01*
X10977978Y-15223986D01*
X11078993Y-15257658D01*
X11146336Y-15257658D01*
X11247351Y-15223986D01*
X11819771Y-14651566D01*
X12055473Y-15021955D02*
X12122817Y-15021955D01*
X12223832Y-15055627D01*
X12392191Y-15223986D01*
X12425863Y-15325001D01*
X12425863Y-15392345D01*
X12392191Y-15493360D01*
X12324848Y-15560703D01*
X12190161Y-15628047D01*
X11382038Y-15628047D01*
X11819771Y-16065780D01*
X18489653Y20240583D02*
X17917233Y19668164D01*
X17883561Y19567148D01*
X17883561Y19499805D01*
X17917233Y19398790D01*
X18051920Y19264102D01*
X18152936Y19230431D01*
X18220279Y19230431D01*
X18321294Y19264102D01*
X18893714Y19836522D01*
X19297775Y18961057D02*
X18826371Y18489652D01*
X19398790Y19398790D02*
X18725355Y19062072D01*
X19163088Y18624339D01*
X19836523Y18893713D02*
X20274256Y18455980D01*
X19769179Y18422309D01*
X19870195Y18321293D01*
X19903867Y18220278D01*
X19903867Y18152935D01*
X19870195Y18051919D01*
X19701836Y17883560D01*
X19600821Y17849889D01*
X19533477Y17849889D01*
X19432462Y17883560D01*
X19230431Y18085591D01*
X19196760Y18186607D01*
X19196760Y18253950D01*
X16982381Y-29313095D02*
X15982381Y-29313095D01*
X15982381Y-28932142D01*
X16030000Y-28836904D01*
X16077619Y-28789285D01*
X16172857Y-28741666D01*
X16315714Y-28741666D01*
X16410952Y-28789285D01*
X16458571Y-28836904D01*
X16506190Y-28932142D01*
X16506190Y-29313095D01*
X16982381Y-27789285D02*
X16982381Y-28360714D01*
X16982381Y-28075000D02*
X15982381Y-28075000D01*
X16125238Y-28170238D01*
X16220476Y-28265476D01*
X16268095Y-28360714D01*
X-29313095Y-16982381D02*
X-29313095Y-15982381D01*
X-28932142Y-15982381D01*
X-28836904Y-16030000D01*
X-28789285Y-16077619D01*
X-28741666Y-16172857D01*
X-28741666Y-16315714D01*
X-28789285Y-16410952D01*
X-28836904Y-16458571D01*
X-28932142Y-16506190D01*
X-29313095Y-16506190D01*
X-28360714Y-16077619D02*
X-28313095Y-16030000D01*
X-28217857Y-15982381D01*
X-27979761Y-15982381D01*
X-27884523Y-16030000D01*
X-27836904Y-16077619D01*
X-27789285Y-16172857D01*
X-27789285Y-16268095D01*
X-27836904Y-16410952D01*
X-28408333Y-16982381D01*
X-27789285Y-16982381D01*
X-16077619Y27836905D02*
X-17077619Y27836905D01*
X-17077619Y28217858D01*
X-17030000Y28313096D01*
X-16982381Y28360715D01*
X-16887143Y28408334D01*
X-16744286Y28408334D01*
X-16649048Y28360715D01*
X-16601429Y28313096D01*
X-16553810Y28217858D01*
X-16553810Y27836905D01*
X-17077619Y28741667D02*
X-17077619Y29360715D01*
X-16696667Y29027381D01*
X-16696667Y29170239D01*
X-16649048Y29265477D01*
X-16601429Y29313096D01*
X-16506190Y29360715D01*
X-16268095Y29360715D01*
X-16172857Y29313096D01*
X-16125238Y29265477D01*
X-16077619Y29170239D01*
X-16077619Y28884524D01*
X-16125238Y28789286D01*
X-16172857Y28741667D01*
X27836905Y16077619D02*
X27836905Y17077619D01*
X28217858Y17077619D01*
X28313096Y17030000D01*
X28360715Y16982381D01*
X28408334Y16887143D01*
X28408334Y16744286D01*
X28360715Y16649048D01*
X28313096Y16601429D01*
X28217858Y16553810D01*
X27836905Y16553810D01*
X29265477Y16744286D02*
X29265477Y16077619D01*
X29027381Y17125238D02*
X28789286Y16410952D01*
X29408334Y16410952D01*
X-1238095Y-20327381D02*
X-1238095Y-21136905D01*
X-1190476Y-21232143D01*
X-1142857Y-21279762D01*
X-1047619Y-21327381D01*
X-857142Y-21327381D01*
X-761904Y-21279762D01*
X-714285Y-21232143D01*
X-666666Y-21136905D01*
X-666666Y-20327381D01*
X333334Y-21327381D02*
X-238095Y-21327381D01*
X47619Y-21327381D02*
X47619Y-20327381D01*
X-47619Y-20470238D01*
X-142857Y-20565476D01*
X-238095Y-20613095D01*
X666667Y-20327381D02*
X1285715Y-20327381D01*
X952381Y-20708333D01*
X1095239Y-20708333D01*
X1190477Y-20755952D01*
X1238096Y-20803571D01*
X1285715Y-20898810D01*
X1285715Y-21136905D01*
X1238096Y-21232143D01*
X1190477Y-21279762D01*
X1095239Y-21327381D01*
X809524Y-21327381D01*
X714286Y-21279762D01*
X666667Y-21232143D01*
X-21422619Y-1238095D02*
X-20613095Y-1238095D01*
X-20517857Y-1190476D01*
X-20470238Y-1142857D01*
X-20422619Y-1047619D01*
X-20422619Y-857142D01*
X-20470238Y-761904D01*
X-20517857Y-714285D01*
X-20613095Y-666666D01*
X-21422619Y-666666D01*
X-21327381Y-238095D02*
X-21375000Y-190476D01*
X-21422619Y-95238D01*
X-21422619Y142858D01*
X-21375000Y238096D01*
X-21327381Y285715D01*
X-21232143Y333334D01*
X-21136905Y333334D01*
X-20994048Y285715D01*
X-20422619Y-285714D01*
X-20422619Y333334D01*
X-21422619Y952381D02*
X-21422619Y1047620D01*
X-21375000Y1142858D01*
X-21327381Y1190477D01*
X-21232143Y1238096D01*
X-21041667Y1285715D01*
X-20803571Y1285715D01*
X-20613095Y1238096D01*
X-20517857Y1190477D01*
X-20470238Y1142858D01*
X-20422619Y1047620D01*
X-20422619Y952381D01*
X-20470238Y857143D01*
X-20517857Y809524D01*
X-20613095Y761905D01*
X-20803571Y714286D01*
X-21041667Y714286D01*
X-21232143Y761905D01*
X-21327381Y809524D01*
X-21375000Y857143D01*
X-21422619Y952381D01*
X-1238095Y21422619D02*
X-1238095Y20613095D01*
X-1190476Y20517857D01*
X-1142857Y20470238D01*
X-1047619Y20422619D01*
X-857142Y20422619D01*
X-761904Y20470238D01*
X-714285Y20517857D01*
X-666666Y20613095D01*
X-666666Y21422619D01*
X-238095Y21327381D02*
X-190476Y21375000D01*
X-95238Y21422619D01*
X142858Y21422619D01*
X238096Y21375000D01*
X285715Y21327381D01*
X333334Y21232143D01*
X333334Y21136905D01*
X285715Y20994048D01*
X-285714Y20422619D01*
X333334Y20422619D01*
X666667Y21422619D02*
X1333334Y21422619D01*
X904762Y20422619D01*
X20327381Y-1238095D02*
X21136905Y-1238095D01*
X21232143Y-1190476D01*
X21279762Y-1142857D01*
X21327381Y-1047619D01*
X21327381Y-857142D01*
X21279762Y-761904D01*
X21232143Y-714285D01*
X21136905Y-666666D01*
X20327381Y-666666D01*
X20327381Y-285714D02*
X20327381Y333334D01*
X20708333Y0D01*
X20708333Y142858D01*
X20755952Y238096D01*
X20803571Y285715D01*
X20898810Y333334D01*
X21136905Y333334D01*
X21232143Y285715D01*
X21279762Y238096D01*
X21327381Y142858D01*
X21327381Y-142857D01*
X21279762Y-238095D01*
X21232143Y-285714D01*
X20660714Y1190477D02*
X21327381Y1190477D01*
X20279762Y952381D02*
X20994048Y714286D01*
X20994048Y1333334D01*
X10057143Y-18142857D02*
X10104762Y-18190476D01*
X10152381Y-18333333D01*
X10152381Y-18428571D01*
X10104762Y-18571429D01*
X10009524Y-18666667D01*
X9914286Y-18714286D01*
X9723810Y-18761905D01*
X9580952Y-18761905D01*
X9390476Y-18714286D01*
X9295238Y-18666667D01*
X9200000Y-18571429D01*
X9152381Y-18428571D01*
X9152381Y-18333333D01*
X9200000Y-18190476D01*
X9247619Y-18142857D01*
X10152381Y-17190476D02*
X10152381Y-17761905D01*
X10152381Y-17476191D02*
X9152381Y-17476191D01*
X9295238Y-17571429D01*
X9390476Y-17666667D01*
X9438095Y-17761905D01*
X9247619Y-16809524D02*
X9200000Y-16761905D01*
X9152381Y-16666667D01*
X9152381Y-16428571D01*
X9200000Y-16333333D01*
X9247619Y-16285714D01*
X9342857Y-16238095D01*
X9438095Y-16238095D01*
X9580952Y-16285714D01*
X10152381Y-16857143D01*
X10152381Y-16238095D01*
X10057143Y-16142857D02*
X10104762Y-16190476D01*
X10152381Y-16333333D01*
X10152381Y-16428571D01*
X10104762Y-16571429D01*
X10009524Y-16666667D01*
X9914286Y-16714286D01*
X9723810Y-16761905D01*
X9580952Y-16761905D01*
X9390476Y-16714286D01*
X9295238Y-16666667D01*
X9200000Y-16571429D01*
X9152381Y-16428571D01*
X9152381Y-16333333D01*
X9200000Y-16190476D01*
X9247619Y-16142857D01*
X10152381Y-15190476D02*
X10152381Y-15761905D01*
X10152381Y-15476191D02*
X9152381Y-15476191D01*
X9295238Y-15571429D01*
X9390476Y-15666667D01*
X9438095Y-15761905D01*
X9152381Y-14857143D02*
X9152381Y-14238095D01*
X9533333Y-14571429D01*
X9533333Y-14428571D01*
X9580952Y-14333333D01*
X9628571Y-14285714D01*
X9723810Y-14238095D01*
X9961905Y-14238095D01*
X10057143Y-14285714D01*
X10104762Y-14333333D01*
X10152381Y-14428571D01*
X10152381Y-14714286D01*
X10104762Y-14809524D01*
X10057143Y-14857143D01*
X1357143Y-4657143D02*
X1309524Y-4704762D01*
X1166667Y-4752381D01*
X1071429Y-4752381D01*
X928571Y-4704762D01*
X833333Y-4609524D01*
X785714Y-4514286D01*
X738095Y-4323810D01*
X738095Y-4180952D01*
X785714Y-3990476D01*
X833333Y-3895238D01*
X928571Y-3800000D01*
X1071429Y-3752381D01*
X1166667Y-3752381D01*
X1309524Y-3800000D01*
X1357143Y-3847619D01*
X2309524Y-4752381D02*
X1738095Y-4752381D01*
X2023809Y-4752381D02*
X2023809Y-3752381D01*
X1928571Y-3895238D01*
X1833333Y-3990476D01*
X1738095Y-4038095D01*
X3166667Y-4085714D02*
X3166667Y-4752381D01*
X2928571Y-3704762D02*
X2690476Y-4419048D01*
X3309524Y-4419048D01*
X-642857Y-4657143D02*
X-690476Y-4704762D01*
X-833333Y-4752381D01*
X-928571Y-4752381D01*
X-1071429Y-4704762D01*
X-1166667Y-4609524D01*
X-1214286Y-4514286D01*
X-1261905Y-4323810D01*
X-1261905Y-4180952D01*
X-1214286Y-3990476D01*
X-1166667Y-3895238D01*
X-1071429Y-3800000D01*
X-928571Y-3752381D01*
X-833333Y-3752381D01*
X-690476Y-3800000D01*
X-642857Y-3847619D01*
X309524Y-4752381D02*
X-261905Y-4752381D01*
X23809Y-4752381D02*
X23809Y-3752381D01*
X-71429Y-3895238D01*
X-166667Y-3990476D01*
X-261905Y-4038095D01*
X1214286Y-3752381D02*
X738095Y-3752381D01*
X690476Y-4228571D01*
X738095Y-4180952D01*
X833333Y-4133333D01*
X1071429Y-4133333D01*
X1166667Y-4180952D01*
X1214286Y-4228571D01*
X1261905Y-4323810D01*
X1261905Y-4561905D01*
X1214286Y-4657143D01*
X1166667Y-4704762D01*
X1071429Y-4752381D01*
X833333Y-4752381D01*
X738095Y-4704762D01*
X690476Y-4657143D01*
X9057143Y-18142857D02*
X9104762Y-18190476D01*
X9152381Y-18333333D01*
X9152381Y-18428571D01*
X9104762Y-18571429D01*
X9009524Y-18666667D01*
X8914286Y-18714286D01*
X8723810Y-18761905D01*
X8580952Y-18761905D01*
X8390476Y-18714286D01*
X8295238Y-18666667D01*
X8200000Y-18571429D01*
X8152381Y-18428571D01*
X8152381Y-18333333D01*
X8200000Y-18190476D01*
X8247619Y-18142857D01*
X9152381Y-17190476D02*
X9152381Y-17761905D01*
X9152381Y-17476191D02*
X8152381Y-17476191D01*
X8295238Y-17571429D01*
X8390476Y-17666667D01*
X8438095Y-17761905D01*
X8152381Y-16333333D02*
X8152381Y-16523810D01*
X8200000Y-16619048D01*
X8247619Y-16666667D01*
X8390476Y-16761905D01*
X8580952Y-16809524D01*
X8961905Y-16809524D01*
X9057143Y-16761905D01*
X9104762Y-16714286D01*
X9152381Y-16619048D01*
X9152381Y-16428571D01*
X9104762Y-16333333D01*
X9057143Y-16285714D01*
X8961905Y-16238095D01*
X8723810Y-16238095D01*
X8628571Y-16285714D01*
X8580952Y-16333333D01*
X8533333Y-16428571D01*
X8533333Y-16619048D01*
X8580952Y-16714286D01*
X8628571Y-16761905D01*
X8723810Y-16809524D01*
X9057143Y-16142857D02*
X9104762Y-16190476D01*
X9152381Y-16333333D01*
X9152381Y-16428571D01*
X9104762Y-16571429D01*
X9009524Y-16666667D01*
X8914286Y-16714286D01*
X8723810Y-16761905D01*
X8580952Y-16761905D01*
X8390476Y-16714286D01*
X8295238Y-16666667D01*
X8200000Y-16571429D01*
X8152381Y-16428571D01*
X8152381Y-16333333D01*
X8200000Y-16190476D01*
X8247619Y-16142857D01*
X9152381Y-15190476D02*
X9152381Y-15761905D01*
X9152381Y-15476191D02*
X8152381Y-15476191D01*
X8295238Y-15571429D01*
X8390476Y-15666667D01*
X8438095Y-15761905D01*
X8152381Y-14857143D02*
X8152381Y-14190476D01*
X9152381Y-14619048D01*
X1357143Y-5657143D02*
X1309524Y-5704762D01*
X1166667Y-5752381D01*
X1071429Y-5752381D01*
X928571Y-5704762D01*
X833333Y-5609524D01*
X785714Y-5514286D01*
X738095Y-5323810D01*
X738095Y-5180952D01*
X785714Y-4990476D01*
X833333Y-4895238D01*
X928571Y-4800000D01*
X1071429Y-4752381D01*
X1166667Y-4752381D01*
X1309524Y-4800000D01*
X1357143Y-4847619D01*
X2309524Y-5752381D02*
X1738095Y-5752381D01*
X2023809Y-5752381D02*
X2023809Y-4752381D01*
X1928571Y-4895238D01*
X1833333Y-4990476D01*
X1738095Y-5038095D01*
X2880952Y-5180952D02*
X2785714Y-5133333D01*
X2738095Y-5085714D01*
X2690476Y-4990476D01*
X2690476Y-4942857D01*
X2738095Y-4847619D01*
X2785714Y-4800000D01*
X2880952Y-4752381D01*
X3071429Y-4752381D01*
X3166667Y-4800000D01*
X3214286Y-4847619D01*
X3261905Y-4942857D01*
X3261905Y-4990476D01*
X3214286Y-5085714D01*
X3166667Y-5133333D01*
X3071429Y-5180952D01*
X2880952Y-5180952D01*
X2785714Y-5228571D01*
X2738095Y-5276190D01*
X2690476Y-5371429D01*
X2690476Y-5561905D01*
X2738095Y-5657143D01*
X2785714Y-5704762D01*
X2880952Y-5752381D01*
X3071429Y-5752381D01*
X3166667Y-5704762D01*
X3214286Y-5657143D01*
X3261905Y-5561905D01*
X3261905Y-5371429D01*
X3214286Y-5276190D01*
X3166667Y-5228571D01*
X3071429Y-5180952D01*
X-642857Y-5657143D02*
X-690476Y-5704762D01*
X-833333Y-5752381D01*
X-928571Y-5752381D01*
X-1071429Y-5704762D01*
X-1166667Y-5609524D01*
X-1214286Y-5514286D01*
X-1261905Y-5323810D01*
X-1261905Y-5180952D01*
X-1214286Y-4990476D01*
X-1166667Y-4895238D01*
X-1071429Y-4800000D01*
X-928571Y-4752381D01*
X-833333Y-4752381D01*
X-690476Y-4800000D01*
X-642857Y-4847619D01*
X309524Y-5752381D02*
X-261905Y-5752381D01*
X23809Y-5752381D02*
X23809Y-4752381D01*
X-71429Y-4895238D01*
X-166667Y-4990476D01*
X-261905Y-5038095D01*
X785714Y-5752381D02*
X976190Y-5752381D01*
X1071429Y-5704762D01*
X1119048Y-5657143D01*
X1214286Y-5514286D01*
X1261905Y-5323810D01*
X1261905Y-4942857D01*
X1214286Y-4847619D01*
X1166667Y-4800000D01*
X1071429Y-4752381D01*
X880952Y-4752381D01*
X785714Y-4800000D01*
X738095Y-4847619D01*
X690476Y-4942857D01*
X690476Y-5180952D01*
X738095Y-5276190D01*
X785714Y-5323810D01*
X880952Y-5371429D01*
X1071429Y-5371429D01*
X1166667Y-5323810D01*
X1214286Y-5276190D01*
X1261905Y-5180952D01*
X-8342857Y-18142857D02*
X-8295238Y-18190476D01*
X-8247619Y-18333333D01*
X-8247619Y-18428571D01*
X-8295238Y-18571429D01*
X-8390476Y-18666667D01*
X-8485714Y-18714286D01*
X-8676190Y-18761905D01*
X-8819048Y-18761905D01*
X-9009524Y-18714286D01*
X-9104762Y-18666667D01*
X-9200000Y-18571429D01*
X-9247619Y-18428571D01*
X-9247619Y-18333333D01*
X-9200000Y-18190476D01*
X-9152381Y-18142857D01*
X-9152381Y-17761905D02*
X-9200000Y-17714286D01*
X-9247619Y-17619048D01*
X-9247619Y-17380952D01*
X-9200000Y-17285714D01*
X-9152381Y-17238095D01*
X-9057143Y-17190476D01*
X-8961905Y-17190476D01*
X-8819048Y-17238095D01*
X-8247619Y-17809524D01*
X-8247619Y-17190476D01*
X-9247619Y-16571429D02*
X-9247619Y-16476190D01*
X-9200000Y-16380952D01*
X-9152381Y-16333333D01*
X-9057143Y-16285714D01*
X-8866667Y-16238095D01*
X-8628571Y-16238095D01*
X-8438095Y-16285714D01*
X-8342857Y-16333333D01*
X-8295238Y-16380952D01*
X-8247619Y-16476190D01*
X-8247619Y-16571429D01*
X-8295238Y-16666667D01*
X-8342857Y-16714286D01*
X-8438095Y-16761905D01*
X-8628571Y-16809524D01*
X-8866667Y-16809524D01*
X-9057143Y-16761905D01*
X-9152381Y-16714286D01*
X-9200000Y-16666667D01*
X-9247619Y-16571429D01*
X-8342857Y-16142857D02*
X-8295238Y-16190476D01*
X-8247619Y-16333333D01*
X-8247619Y-16428571D01*
X-8295238Y-16571429D01*
X-8390476Y-16666667D01*
X-8485714Y-16714286D01*
X-8676190Y-16761905D01*
X-8819048Y-16761905D01*
X-9009524Y-16714286D01*
X-9104762Y-16666667D01*
X-9200000Y-16571429D01*
X-9247619Y-16428571D01*
X-9247619Y-16333333D01*
X-9200000Y-16190476D01*
X-9152381Y-16142857D01*
X-9152381Y-15761905D02*
X-9200000Y-15714286D01*
X-9247619Y-15619048D01*
X-9247619Y-15380952D01*
X-9200000Y-15285714D01*
X-9152381Y-15238095D01*
X-9057143Y-15190476D01*
X-8961905Y-15190476D01*
X-8819048Y-15238095D01*
X-8247619Y-15809524D01*
X-8247619Y-15190476D01*
X-8247619Y-14238095D02*
X-8247619Y-14809524D01*
X-8247619Y-14523810D02*
X-9247619Y-14523810D01*
X-9104762Y-14619048D01*
X-9009524Y-14714286D01*
X-8961905Y-14809524D01*
X-942857Y-22142857D02*
X-895238Y-22190476D01*
X-847619Y-22333333D01*
X-847619Y-22428571D01*
X-895238Y-22571429D01*
X-990476Y-22666667D01*
X-1085714Y-22714286D01*
X-1276190Y-22761905D01*
X-1419048Y-22761905D01*
X-1609524Y-22714286D01*
X-1704762Y-22666667D01*
X-1800000Y-22571429D01*
X-1847619Y-22428571D01*
X-1847619Y-22333333D01*
X-1800000Y-22190476D01*
X-1752381Y-22142857D01*
X-1752381Y-21761905D02*
X-1800000Y-21714286D01*
X-1847619Y-21619048D01*
X-1847619Y-21380952D01*
X-1800000Y-21285714D01*
X-1752381Y-21238095D01*
X-1657143Y-21190476D01*
X-1561905Y-21190476D01*
X-1419048Y-21238095D01*
X-847619Y-21809524D01*
X-847619Y-21190476D01*
X-1752381Y-20809524D02*
X-1800000Y-20761905D01*
X-1847619Y-20666667D01*
X-1847619Y-20428571D01*
X-1800000Y-20333333D01*
X-1752381Y-20285714D01*
X-1657143Y-20238095D01*
X-1561905Y-20238095D01*
X-1419048Y-20285714D01*
X-847619Y-20857143D01*
X-847619Y-20238095D01*
X1857143Y-24057143D02*
X1809524Y-24104762D01*
X1666667Y-24152381D01*
X1571429Y-24152381D01*
X1428571Y-24104762D01*
X1333333Y-24009524D01*
X1285714Y-23914286D01*
X1238095Y-23723810D01*
X1238095Y-23580952D01*
X1285714Y-23390476D01*
X1333333Y-23295238D01*
X1428571Y-23200000D01*
X1571429Y-23152381D01*
X1666667Y-23152381D01*
X1809524Y-23200000D01*
X1857143Y-23247619D01*
X2238095Y-23247619D02*
X2285714Y-23200000D01*
X2380952Y-23152381D01*
X2619048Y-23152381D01*
X2714286Y-23200000D01*
X2761905Y-23247619D01*
X2809524Y-23342857D01*
X2809524Y-23438095D01*
X2761905Y-23580952D01*
X2190476Y-24152381D01*
X2809524Y-24152381D01*
X3142857Y-23152381D02*
X3761905Y-23152381D01*
X3428571Y-23533333D01*
X3571429Y-23533333D01*
X3666667Y-23580952D01*
X3714286Y-23628571D01*
X3761905Y-23723810D01*
X3761905Y-23961905D01*
X3714286Y-24057143D01*
X3666667Y-24104762D01*
X3571429Y-24152381D01*
X3285714Y-24152381D01*
X3190476Y-24104762D01*
X3142857Y-24057143D01*
X-142857Y-24057143D02*
X-190476Y-24104762D01*
X-333333Y-24152381D01*
X-428571Y-24152381D01*
X-571429Y-24104762D01*
X-666667Y-24009524D01*
X-714286Y-23914286D01*
X-761905Y-23723810D01*
X-761905Y-23580952D01*
X-714286Y-23390476D01*
X-666667Y-23295238D01*
X-571429Y-23200000D01*
X-428571Y-23152381D01*
X-333333Y-23152381D01*
X-190476Y-23200000D01*
X-142857Y-23247619D01*
X238095Y-23247619D02*
X285714Y-23200000D01*
X380952Y-23152381D01*
X619048Y-23152381D01*
X714286Y-23200000D01*
X761905Y-23247619D01*
X809524Y-23342857D01*
X809524Y-23438095D01*
X761905Y-23580952D01*
X190476Y-24152381D01*
X809524Y-24152381D01*
X1666667Y-23152381D02*
X1476190Y-23152381D01*
X1380952Y-23200000D01*
X1333333Y-23247619D01*
X1238095Y-23390476D01*
X1190476Y-23580952D01*
X1190476Y-23961905D01*
X1238095Y-24057143D01*
X1285714Y-24104762D01*
X1380952Y-24152381D01*
X1571429Y-24152381D01*
X1666667Y-24104762D01*
X1714286Y-24057143D01*
X1761905Y-23961905D01*
X1761905Y-23723810D01*
X1714286Y-23628571D01*
X1666667Y-23580952D01*
X1571429Y-23533333D01*
X1380952Y-23533333D01*
X1285714Y-23580952D01*
X1238095Y-23628571D01*
X1190476Y-23723810D01*
X-2142857Y-24057143D02*
X-2190476Y-24104762D01*
X-2333333Y-24152381D01*
X-2428571Y-24152381D01*
X-2571429Y-24104762D01*
X-2666667Y-24009524D01*
X-2714286Y-23914286D01*
X-2761905Y-23723810D01*
X-2761905Y-23580952D01*
X-2714286Y-23390476D01*
X-2666667Y-23295238D01*
X-2571429Y-23200000D01*
X-2428571Y-23152381D01*
X-2333333Y-23152381D01*
X-2190476Y-23200000D01*
X-2142857Y-23247619D01*
X-1761905Y-23247619D02*
X-1714286Y-23200000D01*
X-1619048Y-23152381D01*
X-1380952Y-23152381D01*
X-1285714Y-23200000D01*
X-1238095Y-23247619D01*
X-1190476Y-23342857D01*
X-1190476Y-23438095D01*
X-1238095Y-23580952D01*
X-1809524Y-24152381D01*
X-1190476Y-24152381D01*
X-857143Y-23152381D02*
X-190476Y-23152381D01*
X-619048Y-24152381D01*
X857143Y-23057143D02*
X809524Y-23104762D01*
X666667Y-23152381D01*
X571429Y-23152381D01*
X428571Y-23104762D01*
X333333Y-23009524D01*
X285714Y-22914286D01*
X238095Y-22723810D01*
X238095Y-22580952D01*
X285714Y-22390476D01*
X333333Y-22295238D01*
X428571Y-22200000D01*
X571429Y-22152381D01*
X666667Y-22152381D01*
X809524Y-22200000D01*
X857143Y-22247619D01*
X1238095Y-22247619D02*
X1285714Y-22200000D01*
X1380952Y-22152381D01*
X1619048Y-22152381D01*
X1714286Y-22200000D01*
X1761905Y-22247619D01*
X1809524Y-22342857D01*
X1809524Y-22438095D01*
X1761905Y-22580952D01*
X1190476Y-23152381D01*
X1809524Y-23152381D01*
X2380952Y-22580952D02*
X2285714Y-22533333D01*
X2238095Y-22485714D01*
X2190476Y-22390476D01*
X2190476Y-22342857D01*
X2238095Y-22247619D01*
X2285714Y-22200000D01*
X2380952Y-22152381D01*
X2571429Y-22152381D01*
X2666667Y-22200000D01*
X2714286Y-22247619D01*
X2761905Y-22342857D01*
X2761905Y-22390476D01*
X2714286Y-22485714D01*
X2666667Y-22533333D01*
X2571429Y-22580952D01*
X2380952Y-22580952D01*
X2285714Y-22628571D01*
X2238095Y-22676190D01*
X2190476Y-22771429D01*
X2190476Y-22961905D01*
X2238095Y-23057143D01*
X2285714Y-23104762D01*
X2380952Y-23152381D01*
X2571429Y-23152381D01*
X2666667Y-23104762D01*
X2714286Y-23057143D01*
X2761905Y-22961905D01*
X2761905Y-22771429D01*
X2714286Y-22676190D01*
X2666667Y-22628571D01*
X2571429Y-22580952D01*
X-9342857Y-18142857D02*
X-9295238Y-18190476D01*
X-9247619Y-18333333D01*
X-9247619Y-18428571D01*
X-9295238Y-18571429D01*
X-9390476Y-18666667D01*
X-9485714Y-18714286D01*
X-9676190Y-18761905D01*
X-9819048Y-18761905D01*
X-10009524Y-18714286D01*
X-10104762Y-18666667D01*
X-10200000Y-18571429D01*
X-10247619Y-18428571D01*
X-10247619Y-18333333D01*
X-10200000Y-18190476D01*
X-10152381Y-18142857D01*
X-10152381Y-17761905D02*
X-10200000Y-17714286D01*
X-10247619Y-17619048D01*
X-10247619Y-17380952D01*
X-10200000Y-17285714D01*
X-10152381Y-17238095D01*
X-10057143Y-17190476D01*
X-9961905Y-17190476D01*
X-9819048Y-17238095D01*
X-9247619Y-17809524D01*
X-9247619Y-17190476D01*
X-9247619Y-16714286D02*
X-9247619Y-16523810D01*
X-9295238Y-16428571D01*
X-9342857Y-16380952D01*
X-9485714Y-16285714D01*
X-9676190Y-16238095D01*
X-10057143Y-16238095D01*
X-10152381Y-16285714D01*
X-10200000Y-16333333D01*
X-10247619Y-16428571D01*
X-10247619Y-16619048D01*
X-10200000Y-16714286D01*
X-10152381Y-16761905D01*
X-10057143Y-16809524D01*
X-9819048Y-16809524D01*
X-9723810Y-16761905D01*
X-9676190Y-16714286D01*
X-9628571Y-16619048D01*
X-9628571Y-16428571D01*
X-9676190Y-16333333D01*
X-9723810Y-16285714D01*
X-9819048Y-16238095D01*
X-9342857Y-16142857D02*
X-9295238Y-16190476D01*
X-9247619Y-16333333D01*
X-9247619Y-16428571D01*
X-9295238Y-16571429D01*
X-9390476Y-16666667D01*
X-9485714Y-16714286D01*
X-9676190Y-16761905D01*
X-9819048Y-16761905D01*
X-10009524Y-16714286D01*
X-10104762Y-16666667D01*
X-10200000Y-16571429D01*
X-10247619Y-16428571D01*
X-10247619Y-16333333D01*
X-10200000Y-16190476D01*
X-10152381Y-16142857D01*
X-10247619Y-15809524D02*
X-10247619Y-15190476D01*
X-9866667Y-15523810D01*
X-9866667Y-15380952D01*
X-9819048Y-15285714D01*
X-9771429Y-15238095D01*
X-9676190Y-15190476D01*
X-9438095Y-15190476D01*
X-9342857Y-15238095D01*
X-9295238Y-15285714D01*
X-9247619Y-15380952D01*
X-9247619Y-15666667D01*
X-9295238Y-15761905D01*
X-9342857Y-15809524D01*
X-10247619Y-14571429D02*
X-10247619Y-14476190D01*
X-10200000Y-14380952D01*
X-10152381Y-14333333D01*
X-10057143Y-14285714D01*
X-9866667Y-14238095D01*
X-9628571Y-14238095D01*
X-9438095Y-14285714D01*
X-9342857Y-14333333D01*
X-9295238Y-14380952D01*
X-9247619Y-14476190D01*
X-9247619Y-14571429D01*
X-9295238Y-14666667D01*
X-9342857Y-14714286D01*
X-9438095Y-14761905D01*
X-9628571Y-14809524D01*
X-9866667Y-14809524D01*
X-10057143Y-14761905D01*
X-10152381Y-14714286D01*
X-10200000Y-14666667D01*
X-10247619Y-14571429D01*
X1857143Y-25057143D02*
X1809524Y-25104762D01*
X1666667Y-25152381D01*
X1571429Y-25152381D01*
X1428571Y-25104762D01*
X1333333Y-25009524D01*
X1285714Y-24914286D01*
X1238095Y-24723810D01*
X1238095Y-24580952D01*
X1285714Y-24390476D01*
X1333333Y-24295238D01*
X1428571Y-24200000D01*
X1571429Y-24152381D01*
X1666667Y-24152381D01*
X1809524Y-24200000D01*
X1857143Y-24247619D01*
X2190476Y-24152381D02*
X2809524Y-24152381D01*
X2476190Y-24533333D01*
X2619048Y-24533333D01*
X2714286Y-24580952D01*
X2761905Y-24628571D01*
X2809524Y-24723810D01*
X2809524Y-24961905D01*
X2761905Y-25057143D01*
X2714286Y-25104762D01*
X2619048Y-25152381D01*
X2333333Y-25152381D01*
X2238095Y-25104762D01*
X2190476Y-25057143D01*
X3761905Y-25152381D02*
X3190476Y-25152381D01*
X3476190Y-25152381D02*
X3476190Y-24152381D01*
X3380952Y-24295238D01*
X3285714Y-24390476D01*
X3190476Y-24438095D01*
X-142857Y-25057143D02*
X-190476Y-25104762D01*
X-333333Y-25152381D01*
X-428571Y-25152381D01*
X-571429Y-25104762D01*
X-666667Y-25009524D01*
X-714286Y-24914286D01*
X-761905Y-24723810D01*
X-761905Y-24580952D01*
X-714286Y-24390476D01*
X-666667Y-24295238D01*
X-571429Y-24200000D01*
X-428571Y-24152381D01*
X-333333Y-24152381D01*
X-190476Y-24200000D01*
X-142857Y-24247619D01*
X190476Y-24152381D02*
X809524Y-24152381D01*
X476190Y-24533333D01*
X619048Y-24533333D01*
X714286Y-24580952D01*
X761905Y-24628571D01*
X809524Y-24723810D01*
X809524Y-24961905D01*
X761905Y-25057143D01*
X714286Y-25104762D01*
X619048Y-25152381D01*
X333333Y-25152381D01*
X238095Y-25104762D01*
X190476Y-25057143D01*
X1190476Y-24247619D02*
X1238095Y-24200000D01*
X1333333Y-24152381D01*
X1571429Y-24152381D01*
X1666667Y-24200000D01*
X1714286Y-24247619D01*
X1761905Y-24342857D01*
X1761905Y-24438095D01*
X1714286Y-24580952D01*
X1142857Y-25152381D01*
X1761905Y-25152381D01*
X-2142857Y-25057143D02*
X-2190476Y-25104762D01*
X-2333333Y-25152381D01*
X-2428571Y-25152381D01*
X-2571429Y-25104762D01*
X-2666667Y-25009524D01*
X-2714286Y-24914286D01*
X-2761905Y-24723810D01*
X-2761905Y-24580952D01*
X-2714286Y-24390476D01*
X-2666667Y-24295238D01*
X-2571429Y-24200000D01*
X-2428571Y-24152381D01*
X-2333333Y-24152381D01*
X-2190476Y-24200000D01*
X-2142857Y-24247619D01*
X-1809524Y-24152381D02*
X-1190476Y-24152381D01*
X-1523810Y-24533333D01*
X-1380952Y-24533333D01*
X-1285714Y-24580952D01*
X-1238095Y-24628571D01*
X-1190476Y-24723810D01*
X-1190476Y-24961905D01*
X-1238095Y-25057143D01*
X-1285714Y-25104762D01*
X-1380952Y-25152381D01*
X-1666667Y-25152381D01*
X-1761905Y-25104762D01*
X-1809524Y-25057143D01*
X-857143Y-24152381D02*
X-238095Y-24152381D01*
X-571429Y-24533333D01*
X-428571Y-24533333D01*
X-333333Y-24580952D01*
X-285714Y-24628571D01*
X-238095Y-24723810D01*
X-238095Y-24961905D01*
X-285714Y-25057143D01*
X-333333Y-25104762D01*
X-428571Y-25152381D01*
X-714286Y-25152381D01*
X-809524Y-25104762D01*
X-857143Y-25057143D01*
X-4142857Y-25057143D02*
X-4190476Y-25104762D01*
X-4333333Y-25152381D01*
X-4428571Y-25152381D01*
X-4571429Y-25104762D01*
X-4666667Y-25009524D01*
X-4714286Y-24914286D01*
X-4761905Y-24723810D01*
X-4761905Y-24580952D01*
X-4714286Y-24390476D01*
X-4666667Y-24295238D01*
X-4571429Y-24200000D01*
X-4428571Y-24152381D01*
X-4333333Y-24152381D01*
X-4190476Y-24200000D01*
X-4142857Y-24247619D01*
X-3809524Y-24152381D02*
X-3190476Y-24152381D01*
X-3523810Y-24533333D01*
X-3380952Y-24533333D01*
X-3285714Y-24580952D01*
X-3238095Y-24628571D01*
X-3190476Y-24723810D01*
X-3190476Y-24961905D01*
X-3238095Y-25057143D01*
X-3285714Y-25104762D01*
X-3380952Y-25152381D01*
X-3666667Y-25152381D01*
X-3761905Y-25104762D01*
X-3809524Y-25057143D01*
X-2333333Y-24485714D02*
X-2333333Y-25152381D01*
X-2571429Y-24104762D02*
X-2809524Y-24819048D01*
X-2190476Y-24819048D01*
X-18142857Y-10057143D02*
X-18190476Y-10104762D01*
X-18333333Y-10152381D01*
X-18428571Y-10152381D01*
X-18571429Y-10104762D01*
X-18666667Y-10009524D01*
X-18714286Y-9914286D01*
X-18761905Y-9723810D01*
X-18761905Y-9580952D01*
X-18714286Y-9390476D01*
X-18666667Y-9295238D01*
X-18571429Y-9200000D01*
X-18428571Y-9152381D01*
X-18333333Y-9152381D01*
X-18190476Y-9200000D01*
X-18142857Y-9247619D01*
X-17809524Y-9152381D02*
X-17190476Y-9152381D01*
X-17523810Y-9533333D01*
X-17380952Y-9533333D01*
X-17285714Y-9580952D01*
X-17238095Y-9628571D01*
X-17190476Y-9723810D01*
X-17190476Y-9961905D01*
X-17238095Y-10057143D01*
X-17285714Y-10104762D01*
X-17380952Y-10152381D01*
X-17666667Y-10152381D01*
X-17761905Y-10104762D01*
X-17809524Y-10057143D01*
X-16285714Y-9152381D02*
X-16761905Y-9152381D01*
X-16809524Y-9628571D01*
X-16761905Y-9580952D01*
X-16666667Y-9533333D01*
X-16428571Y-9533333D01*
X-16333333Y-9580952D01*
X-16285714Y-9628571D01*
X-16238095Y-9723810D01*
X-16238095Y-9961905D01*
X-16285714Y-10057143D01*
X-16333333Y-10104762D01*
X-16428571Y-10152381D01*
X-16666667Y-10152381D01*
X-16761905Y-10104762D01*
X-16809524Y-10057143D01*
X-16142857Y-10057143D02*
X-16190476Y-10104762D01*
X-16333333Y-10152381D01*
X-16428571Y-10152381D01*
X-16571429Y-10104762D01*
X-16666667Y-10009524D01*
X-16714286Y-9914286D01*
X-16761905Y-9723810D01*
X-16761905Y-9580952D01*
X-16714286Y-9390476D01*
X-16666667Y-9295238D01*
X-16571429Y-9200000D01*
X-16428571Y-9152381D01*
X-16333333Y-9152381D01*
X-16190476Y-9200000D01*
X-16142857Y-9247619D01*
X-15809524Y-9152381D02*
X-15190476Y-9152381D01*
X-15523810Y-9533333D01*
X-15380952Y-9533333D01*
X-15285714Y-9580952D01*
X-15238095Y-9628571D01*
X-15190476Y-9723810D01*
X-15190476Y-9961905D01*
X-15238095Y-10057143D01*
X-15285714Y-10104762D01*
X-15380952Y-10152381D01*
X-15666667Y-10152381D01*
X-15761905Y-10104762D01*
X-15809524Y-10057143D01*
X-14333333Y-9152381D02*
X-14523810Y-9152381D01*
X-14619048Y-9200000D01*
X-14666667Y-9247619D01*
X-14761905Y-9390476D01*
X-14809524Y-9580952D01*
X-14809524Y-9961905D01*
X-14761905Y-10057143D01*
X-14714286Y-10104762D01*
X-14619048Y-10152381D01*
X-14428571Y-10152381D01*
X-14333333Y-10104762D01*
X-14285714Y-10057143D01*
X-14238095Y-9961905D01*
X-14238095Y-9723810D01*
X-14285714Y-9628571D01*
X-14333333Y-9580952D01*
X-14428571Y-9533333D01*
X-14619048Y-9533333D01*
X-14714286Y-9580952D01*
X-14761905Y-9628571D01*
X-14809524Y-9723810D01*
X-3942857Y-2642857D02*
X-3895238Y-2690476D01*
X-3847619Y-2833333D01*
X-3847619Y-2928571D01*
X-3895238Y-3071429D01*
X-3990476Y-3166667D01*
X-4085714Y-3214286D01*
X-4276190Y-3261905D01*
X-4419048Y-3261905D01*
X-4609524Y-3214286D01*
X-4704762Y-3166667D01*
X-4800000Y-3071429D01*
X-4847619Y-2928571D01*
X-4847619Y-2833333D01*
X-4800000Y-2690476D01*
X-4752381Y-2642857D01*
X-4847619Y-2309524D02*
X-4847619Y-1690476D01*
X-4466667Y-2023810D01*
X-4466667Y-1880952D01*
X-4419048Y-1785714D01*
X-4371429Y-1738095D01*
X-4276190Y-1690476D01*
X-4038095Y-1690476D01*
X-3942857Y-1738095D01*
X-3895238Y-1785714D01*
X-3847619Y-1880952D01*
X-3847619Y-2166667D01*
X-3895238Y-2261905D01*
X-3942857Y-2309524D01*
X-4847619Y-1357143D02*
X-4847619Y-690476D01*
X-3847619Y-1119048D01*
X-3942857Y-642857D02*
X-3895238Y-690476D01*
X-3847619Y-833333D01*
X-3847619Y-928571D01*
X-3895238Y-1071429D01*
X-3990476Y-1166667D01*
X-4085714Y-1214286D01*
X-4276190Y-1261905D01*
X-4419048Y-1261905D01*
X-4609524Y-1214286D01*
X-4704762Y-1166667D01*
X-4800000Y-1071429D01*
X-4847619Y-928571D01*
X-4847619Y-833333D01*
X-4800000Y-690476D01*
X-4752381Y-642857D01*
X-4847619Y-309524D02*
X-4847619Y309524D01*
X-4466667Y-23810D01*
X-4466667Y119048D01*
X-4419048Y214286D01*
X-4371429Y261905D01*
X-4276190Y309524D01*
X-4038095Y309524D01*
X-3942857Y261905D01*
X-3895238Y214286D01*
X-3847619Y119048D01*
X-3847619Y-166667D01*
X-3895238Y-261905D01*
X-3942857Y-309524D01*
X-4419048Y880952D02*
X-4466667Y785714D01*
X-4514286Y738095D01*
X-4609524Y690476D01*
X-4657143Y690476D01*
X-4752381Y738095D01*
X-4800000Y785714D01*
X-4847619Y880952D01*
X-4847619Y1071429D01*
X-4800000Y1166667D01*
X-4752381Y1214286D01*
X-4657143Y1261905D01*
X-4609524Y1261905D01*
X-4514286Y1214286D01*
X-4466667Y1166667D01*
X-4419048Y1071429D01*
X-4419048Y880952D01*
X-4371429Y785714D01*
X-4323810Y738095D01*
X-4228571Y690476D01*
X-4038095Y690476D01*
X-3942857Y738095D01*
X-3895238Y785714D01*
X-3847619Y880952D01*
X-3847619Y1071429D01*
X-3895238Y1166667D01*
X-3942857Y1214286D01*
X-4038095Y1261905D01*
X-4228571Y1261905D01*
X-4323810Y1214286D01*
X-4371429Y1166667D01*
X-4419048Y1071429D01*
X-18142857Y-9057143D02*
X-18190476Y-9104762D01*
X-18333333Y-9152381D01*
X-18428571Y-9152381D01*
X-18571429Y-9104762D01*
X-18666667Y-9009524D01*
X-18714286Y-8914286D01*
X-18761905Y-8723810D01*
X-18761905Y-8580952D01*
X-18714286Y-8390476D01*
X-18666667Y-8295238D01*
X-18571429Y-8200000D01*
X-18428571Y-8152381D01*
X-18333333Y-8152381D01*
X-18190476Y-8200000D01*
X-18142857Y-8247619D01*
X-17809524Y-8152381D02*
X-17190476Y-8152381D01*
X-17523810Y-8533333D01*
X-17380952Y-8533333D01*
X-17285714Y-8580952D01*
X-17238095Y-8628571D01*
X-17190476Y-8723810D01*
X-17190476Y-8961905D01*
X-17238095Y-9057143D01*
X-17285714Y-9104762D01*
X-17380952Y-9152381D01*
X-17666667Y-9152381D01*
X-17761905Y-9104762D01*
X-17809524Y-9057143D01*
X-16714286Y-9152381D02*
X-16523810Y-9152381D01*
X-16428571Y-9104762D01*
X-16380952Y-9057143D01*
X-16285714Y-8914286D01*
X-16238095Y-8723810D01*
X-16238095Y-8342857D01*
X-16285714Y-8247619D01*
X-16333333Y-8200000D01*
X-16428571Y-8152381D01*
X-16619048Y-8152381D01*
X-16714286Y-8200000D01*
X-16761905Y-8247619D01*
X-16809524Y-8342857D01*
X-16809524Y-8580952D01*
X-16761905Y-8676190D01*
X-16714286Y-8723810D01*
X-16619048Y-8771429D01*
X-16428571Y-8771429D01*
X-16333333Y-8723810D01*
X-16285714Y-8676190D01*
X-16238095Y-8580952D01*
X-16142857Y-9057143D02*
X-16190476Y-9104762D01*
X-16333333Y-9152381D01*
X-16428571Y-9152381D01*
X-16571429Y-9104762D01*
X-16666667Y-9009524D01*
X-16714286Y-8914286D01*
X-16761905Y-8723810D01*
X-16761905Y-8580952D01*
X-16714286Y-8390476D01*
X-16666667Y-8295238D01*
X-16571429Y-8200000D01*
X-16428571Y-8152381D01*
X-16333333Y-8152381D01*
X-16190476Y-8200000D01*
X-16142857Y-8247619D01*
X-15285714Y-8485714D02*
X-15285714Y-9152381D01*
X-15523810Y-8104762D02*
X-15761905Y-8819048D01*
X-15142857Y-8819048D01*
X-14571429Y-8152381D02*
X-14476190Y-8152381D01*
X-14380952Y-8200000D01*
X-14333333Y-8247619D01*
X-14285714Y-8342857D01*
X-14238095Y-8533333D01*
X-14238095Y-8771429D01*
X-14285714Y-8961905D01*
X-14333333Y-9057143D01*
X-14380952Y-9104762D01*
X-14476190Y-9152381D01*
X-14571429Y-9152381D01*
X-14666667Y-9104762D01*
X-14714286Y-9057143D01*
X-14761905Y-8961905D01*
X-14809524Y-8771429D01*
X-14809524Y-8533333D01*
X-14761905Y-8342857D01*
X-14714286Y-8247619D01*
X-14666667Y-8200000D01*
X-14571429Y-8152381D01*
X-4942857Y-2642857D02*
X-4895238Y-2690476D01*
X-4847619Y-2833333D01*
X-4847619Y-2928571D01*
X-4895238Y-3071429D01*
X-4990476Y-3166667D01*
X-5085714Y-3214286D01*
X-5276190Y-3261905D01*
X-5419048Y-3261905D01*
X-5609524Y-3214286D01*
X-5704762Y-3166667D01*
X-5800000Y-3071429D01*
X-5847619Y-2928571D01*
X-5847619Y-2833333D01*
X-5800000Y-2690476D01*
X-5752381Y-2642857D01*
X-5514286Y-1785714D02*
X-4847619Y-1785714D01*
X-5895238Y-2023810D02*
X-5180952Y-2261905D01*
X-5180952Y-1642857D01*
X-4847619Y-738095D02*
X-4847619Y-1309524D01*
X-4847619Y-1023810D02*
X-5847619Y-1023810D01*
X-5704762Y-1119048D01*
X-5609524Y-1214286D01*
X-5561905Y-1309524D01*
X-4942857Y-642857D02*
X-4895238Y-690476D01*
X-4847619Y-833333D01*
X-4847619Y-928571D01*
X-4895238Y-1071429D01*
X-4990476Y-1166667D01*
X-5085714Y-1214286D01*
X-5276190Y-1261905D01*
X-5419048Y-1261905D01*
X-5609524Y-1214286D01*
X-5704762Y-1166667D01*
X-5800000Y-1071429D01*
X-5847619Y-928571D01*
X-5847619Y-833333D01*
X-5800000Y-690476D01*
X-5752381Y-642857D01*
X-5514286Y214286D02*
X-4847619Y214286D01*
X-5895238Y-23810D02*
X-5180952Y-261905D01*
X-5180952Y357143D01*
X-5847619Y642857D02*
X-5847619Y1261905D01*
X-5466667Y928571D01*
X-5466667Y1071429D01*
X-5419048Y1166667D01*
X-5371429Y1214286D01*
X-5276190Y1261905D01*
X-5038095Y1261905D01*
X-4942857Y1214286D01*
X-4895238Y1166667D01*
X-4847619Y1071429D01*
X-4847619Y785714D01*
X-4895238Y690476D01*
X-4942857Y642857D01*
X-18142857Y8342857D02*
X-18190476Y8295238D01*
X-18333333Y8247619D01*
X-18428571Y8247619D01*
X-18571429Y8295238D01*
X-18666667Y8390476D01*
X-18714286Y8485714D01*
X-18761905Y8676190D01*
X-18761905Y8819048D01*
X-18714286Y9009524D01*
X-18666667Y9104762D01*
X-18571429Y9200000D01*
X-18428571Y9247619D01*
X-18333333Y9247619D01*
X-18190476Y9200000D01*
X-18142857Y9152381D01*
X-17285714Y8914286D02*
X-17285714Y8247619D01*
X-17523810Y9295238D02*
X-17761905Y8580952D01*
X-17142857Y8580952D01*
X-16333333Y8914286D02*
X-16333333Y8247619D01*
X-16571429Y9295238D02*
X-16809524Y8580952D01*
X-16190476Y8580952D01*
X-16142857Y8342857D02*
X-16190476Y8295238D01*
X-16333333Y8247619D01*
X-16428571Y8247619D01*
X-16571429Y8295238D01*
X-16666667Y8390476D01*
X-16714286Y8485714D01*
X-16761905Y8676190D01*
X-16761905Y8819048D01*
X-16714286Y9009524D01*
X-16666667Y9104762D01*
X-16571429Y9200000D01*
X-16428571Y9247619D01*
X-16333333Y9247619D01*
X-16190476Y9200000D01*
X-16142857Y9152381D01*
X-15285714Y8914286D02*
X-15285714Y8247619D01*
X-15523810Y9295238D02*
X-15761905Y8580952D01*
X-15142857Y8580952D01*
X-14285714Y9247619D02*
X-14761905Y9247619D01*
X-14809524Y8771429D01*
X-14761905Y8819048D01*
X-14666667Y8866667D01*
X-14428571Y8866667D01*
X-14333333Y8819048D01*
X-14285714Y8771429D01*
X-14238095Y8676190D01*
X-14238095Y8438095D01*
X-14285714Y8342857D01*
X-14333333Y8295238D01*
X-14428571Y8247619D01*
X-14666667Y8247619D01*
X-14761905Y8295238D01*
X-14809524Y8342857D01*
X-22142857Y942857D02*
X-22190476Y895238D01*
X-22333333Y847619D01*
X-22428571Y847619D01*
X-22571429Y895238D01*
X-22666667Y990476D01*
X-22714286Y1085714D01*
X-22761905Y1276190D01*
X-22761905Y1419048D01*
X-22714286Y1609524D01*
X-22666667Y1704762D01*
X-22571429Y1800000D01*
X-22428571Y1847619D01*
X-22333333Y1847619D01*
X-22190476Y1800000D01*
X-22142857Y1752381D01*
X-21285714Y1514286D02*
X-21285714Y847619D01*
X-21523810Y1895238D02*
X-21761905Y1180952D01*
X-21142857Y1180952D01*
X-20333333Y1847619D02*
X-20523810Y1847619D01*
X-20619048Y1800000D01*
X-20666667Y1752381D01*
X-20761905Y1609524D01*
X-20809524Y1419048D01*
X-20809524Y1038095D01*
X-20761905Y942857D01*
X-20714286Y895238D01*
X-20619048Y847619D01*
X-20428571Y847619D01*
X-20333333Y895238D01*
X-20285714Y942857D01*
X-20238095Y1038095D01*
X-20238095Y1276190D01*
X-20285714Y1371429D01*
X-20333333Y1419048D01*
X-20428571Y1466667D01*
X-20619048Y1466667D01*
X-20714286Y1419048D01*
X-20761905Y1371429D01*
X-20809524Y1276190D01*
X-23342857Y-3142857D02*
X-23295238Y-3190476D01*
X-23247619Y-3333333D01*
X-23247619Y-3428571D01*
X-23295238Y-3571429D01*
X-23390476Y-3666667D01*
X-23485714Y-3714286D01*
X-23676190Y-3761905D01*
X-23819048Y-3761905D01*
X-24009524Y-3714286D01*
X-24104762Y-3666667D01*
X-24200000Y-3571429D01*
X-24247619Y-3428571D01*
X-24247619Y-3333333D01*
X-24200000Y-3190476D01*
X-24152381Y-3142857D01*
X-23914286Y-2285714D02*
X-23247619Y-2285714D01*
X-24295238Y-2523810D02*
X-23580952Y-2761905D01*
X-23580952Y-2142857D01*
X-24247619Y-1857143D02*
X-24247619Y-1190476D01*
X-23247619Y-1619048D01*
X-23342857Y-1142857D02*
X-23295238Y-1190476D01*
X-23247619Y-1333333D01*
X-23247619Y-1428571D01*
X-23295238Y-1571429D01*
X-23390476Y-1666667D01*
X-23485714Y-1714286D01*
X-23676190Y-1761905D01*
X-23819048Y-1761905D01*
X-24009524Y-1714286D01*
X-24104762Y-1666667D01*
X-24200000Y-1571429D01*
X-24247619Y-1428571D01*
X-24247619Y-1333333D01*
X-24200000Y-1190476D01*
X-24152381Y-1142857D01*
X-23914286Y-285714D02*
X-23247619Y-285714D01*
X-24295238Y-523810D02*
X-23580952Y-761905D01*
X-23580952Y-142857D01*
X-23819048Y380952D02*
X-23866667Y285714D01*
X-23914286Y238095D01*
X-24009524Y190476D01*
X-24057143Y190476D01*
X-24152381Y238095D01*
X-24200000Y285714D01*
X-24247619Y380952D01*
X-24247619Y571429D01*
X-24200000Y666667D01*
X-24152381Y714286D01*
X-24057143Y761905D01*
X-24009524Y761905D01*
X-23914286Y714286D01*
X-23866667Y666667D01*
X-23819048Y571429D01*
X-23819048Y380952D01*
X-23771429Y285714D01*
X-23723810Y238095D01*
X-23628571Y190476D01*
X-23438095Y190476D01*
X-23342857Y238095D01*
X-23295238Y285714D01*
X-23247619Y380952D01*
X-23247619Y571429D01*
X-23295238Y666667D01*
X-23342857Y714286D01*
X-23438095Y761905D01*
X-23628571Y761905D01*
X-23723810Y714286D01*
X-23771429Y666667D01*
X-23819048Y571429D01*
X-23342857Y857143D02*
X-23295238Y809524D01*
X-23247619Y666667D01*
X-23247619Y571429D01*
X-23295238Y428571D01*
X-23390476Y333333D01*
X-23485714Y285714D01*
X-23676190Y238095D01*
X-23819048Y238095D01*
X-24009524Y285714D01*
X-24104762Y333333D01*
X-24200000Y428571D01*
X-24247619Y571429D01*
X-24247619Y666667D01*
X-24200000Y809524D01*
X-24152381Y857143D01*
X-23914286Y1714286D02*
X-23247619Y1714286D01*
X-24295238Y1476190D02*
X-23580952Y1238095D01*
X-23580952Y1857143D01*
X-23247619Y2285714D02*
X-23247619Y2476190D01*
X-23295238Y2571429D01*
X-23342857Y2619048D01*
X-23485714Y2714286D01*
X-23676190Y2761905D01*
X-24057143Y2761905D01*
X-24152381Y2714286D01*
X-24200000Y2666667D01*
X-24247619Y2571429D01*
X-24247619Y2380952D01*
X-24200000Y2285714D01*
X-24152381Y2238095D01*
X-24057143Y2190476D01*
X-23819048Y2190476D01*
X-23723810Y2238095D01*
X-23676190Y2285714D01*
X-23628571Y2380952D01*
X-23628571Y2571429D01*
X-23676190Y2666667D01*
X-23723810Y2714286D01*
X-23819048Y2761905D01*
X-22342857Y-2142857D02*
X-22295238Y-2190476D01*
X-22247619Y-2333333D01*
X-22247619Y-2428571D01*
X-22295238Y-2571429D01*
X-22390476Y-2666667D01*
X-22485714Y-2714286D01*
X-22676190Y-2761905D01*
X-22819048Y-2761905D01*
X-23009524Y-2714286D01*
X-23104762Y-2666667D01*
X-23200000Y-2571429D01*
X-23247619Y-2428571D01*
X-23247619Y-2333333D01*
X-23200000Y-2190476D01*
X-23152381Y-2142857D01*
X-23247619Y-1238095D02*
X-23247619Y-1714286D01*
X-22771429Y-1761905D01*
X-22819048Y-1714286D01*
X-22866667Y-1619048D01*
X-22866667Y-1380952D01*
X-22819048Y-1285714D01*
X-22771429Y-1238095D01*
X-22676190Y-1190476D01*
X-22438095Y-1190476D01*
X-22342857Y-1238095D01*
X-22295238Y-1285714D01*
X-22247619Y-1380952D01*
X-22247619Y-1619048D01*
X-22295238Y-1714286D01*
X-22342857Y-1761905D01*
X-23247619Y-571429D02*
X-23247619Y-476190D01*
X-23200000Y-380952D01*
X-23152381Y-333333D01*
X-23057143Y-285714D01*
X-22866667Y-238095D01*
X-22628571Y-238095D01*
X-22438095Y-285714D01*
X-22342857Y-333333D01*
X-22295238Y-380952D01*
X-22247619Y-476190D01*
X-22247619Y-571429D01*
X-22295238Y-666667D01*
X-22342857Y-714286D01*
X-22438095Y-761905D01*
X-22628571Y-809524D01*
X-22866667Y-809524D01*
X-23057143Y-761905D01*
X-23152381Y-714286D01*
X-23200000Y-666667D01*
X-23247619Y-571429D01*
X-18142857Y9342857D02*
X-18190476Y9295238D01*
X-18333333Y9247619D01*
X-18428571Y9247619D01*
X-18571429Y9295238D01*
X-18666667Y9390476D01*
X-18714286Y9485714D01*
X-18761905Y9676190D01*
X-18761905Y9819048D01*
X-18714286Y10009524D01*
X-18666667Y10104762D01*
X-18571429Y10200000D01*
X-18428571Y10247619D01*
X-18333333Y10247619D01*
X-18190476Y10200000D01*
X-18142857Y10152381D01*
X-17238095Y10247619D02*
X-17714286Y10247619D01*
X-17761905Y9771429D01*
X-17714286Y9819048D01*
X-17619048Y9866667D01*
X-17380952Y9866667D01*
X-17285714Y9819048D01*
X-17238095Y9771429D01*
X-17190476Y9676190D01*
X-17190476Y9438095D01*
X-17238095Y9342857D01*
X-17285714Y9295238D01*
X-17380952Y9247619D01*
X-17619048Y9247619D01*
X-17714286Y9295238D01*
X-17761905Y9342857D01*
X-16238095Y9247619D02*
X-16809524Y9247619D01*
X-16523810Y9247619D02*
X-16523810Y10247619D01*
X-16619048Y10104762D01*
X-16714286Y10009524D01*
X-16809524Y9961905D01*
X-16142857Y9342857D02*
X-16190476Y9295238D01*
X-16333333Y9247619D01*
X-16428571Y9247619D01*
X-16571429Y9295238D01*
X-16666667Y9390476D01*
X-16714286Y9485714D01*
X-16761905Y9676190D01*
X-16761905Y9819048D01*
X-16714286Y10009524D01*
X-16666667Y10104762D01*
X-16571429Y10200000D01*
X-16428571Y10247619D01*
X-16333333Y10247619D01*
X-16190476Y10200000D01*
X-16142857Y10152381D01*
X-15238095Y10247619D02*
X-15714286Y10247619D01*
X-15761905Y9771429D01*
X-15714286Y9819048D01*
X-15619048Y9866667D01*
X-15380952Y9866667D01*
X-15285714Y9819048D01*
X-15238095Y9771429D01*
X-15190476Y9676190D01*
X-15190476Y9438095D01*
X-15238095Y9342857D01*
X-15285714Y9295238D01*
X-15380952Y9247619D01*
X-15619048Y9247619D01*
X-15714286Y9295238D01*
X-15761905Y9342857D01*
X-14857143Y10247619D02*
X-14238095Y10247619D01*
X-14571429Y9866667D01*
X-14428571Y9866667D01*
X-14333333Y9819048D01*
X-14285714Y9771429D01*
X-14238095Y9676190D01*
X-14238095Y9438095D01*
X-14285714Y9342857D01*
X-14333333Y9295238D01*
X-14428571Y9247619D01*
X-14714286Y9247619D01*
X-14809524Y9295238D01*
X-14857143Y9342857D01*
X-24342857Y-3142857D02*
X-24295238Y-3190476D01*
X-24247619Y-3333333D01*
X-24247619Y-3428571D01*
X-24295238Y-3571429D01*
X-24390476Y-3666667D01*
X-24485714Y-3714286D01*
X-24676190Y-3761905D01*
X-24819048Y-3761905D01*
X-25009524Y-3714286D01*
X-25104762Y-3666667D01*
X-25200000Y-3571429D01*
X-25247619Y-3428571D01*
X-25247619Y-3333333D01*
X-25200000Y-3190476D01*
X-25152381Y-3142857D01*
X-25247619Y-2238095D02*
X-25247619Y-2714286D01*
X-24771429Y-2761905D01*
X-24819048Y-2714286D01*
X-24866667Y-2619048D01*
X-24866667Y-2380952D01*
X-24819048Y-2285714D01*
X-24771429Y-2238095D01*
X-24676190Y-2190476D01*
X-24438095Y-2190476D01*
X-24342857Y-2238095D01*
X-24295238Y-2285714D01*
X-24247619Y-2380952D01*
X-24247619Y-2619048D01*
X-24295238Y-2714286D01*
X-24342857Y-2761905D01*
X-24914286Y-1333333D02*
X-24247619Y-1333333D01*
X-25295238Y-1571429D02*
X-24580952Y-1809524D01*
X-24580952Y-1190476D01*
X-24342857Y-1142857D02*
X-24295238Y-1190476D01*
X-24247619Y-1333333D01*
X-24247619Y-1428571D01*
X-24295238Y-1571429D01*
X-24390476Y-1666667D01*
X-24485714Y-1714286D01*
X-24676190Y-1761905D01*
X-24819048Y-1761905D01*
X-25009524Y-1714286D01*
X-25104762Y-1666667D01*
X-25200000Y-1571429D01*
X-25247619Y-1428571D01*
X-25247619Y-1333333D01*
X-25200000Y-1190476D01*
X-25152381Y-1142857D01*
X-25247619Y-238095D02*
X-25247619Y-714286D01*
X-24771429Y-761905D01*
X-24819048Y-714286D01*
X-24866667Y-619048D01*
X-24866667Y-380952D01*
X-24819048Y-285714D01*
X-24771429Y-238095D01*
X-24676190Y-190476D01*
X-24438095Y-190476D01*
X-24342857Y-238095D01*
X-24295238Y-285714D01*
X-24247619Y-380952D01*
X-24247619Y-619048D01*
X-24295238Y-714286D01*
X-24342857Y-761905D01*
X-25247619Y714286D02*
X-25247619Y238095D01*
X-24771429Y190476D01*
X-24819048Y238095D01*
X-24866667Y333333D01*
X-24866667Y571429D01*
X-24819048Y666667D01*
X-24771429Y714286D01*
X-24676190Y761905D01*
X-24438095Y761905D01*
X-24342857Y714286D01*
X-24295238Y666667D01*
X-24247619Y571429D01*
X-24247619Y333333D01*
X-24295238Y238095D01*
X-24342857Y190476D01*
X-24342857Y857143D02*
X-24295238Y809524D01*
X-24247619Y666667D01*
X-24247619Y571429D01*
X-24295238Y428571D01*
X-24390476Y333333D01*
X-24485714Y285714D01*
X-24676190Y238095D01*
X-24819048Y238095D01*
X-25009524Y285714D01*
X-25104762Y333333D01*
X-25200000Y428571D01*
X-25247619Y571429D01*
X-25247619Y666667D01*
X-25200000Y809524D01*
X-25152381Y857143D01*
X-25247619Y1761905D02*
X-25247619Y1285714D01*
X-24771429Y1238095D01*
X-24819048Y1285714D01*
X-24866667Y1380952D01*
X-24866667Y1619048D01*
X-24819048Y1714286D01*
X-24771429Y1761905D01*
X-24676190Y1809524D01*
X-24438095Y1809524D01*
X-24342857Y1761905D01*
X-24295238Y1714286D01*
X-24247619Y1619048D01*
X-24247619Y1380952D01*
X-24295238Y1285714D01*
X-24342857Y1238095D01*
X-25247619Y2666667D02*
X-25247619Y2476190D01*
X-25200000Y2380952D01*
X-25152381Y2333333D01*
X-25009524Y2238095D01*
X-24819048Y2190476D01*
X-24438095Y2190476D01*
X-24342857Y2238095D01*
X-24295238Y2285714D01*
X-24247619Y2380952D01*
X-24247619Y2571429D01*
X-24295238Y2666667D01*
X-24342857Y2714286D01*
X-24438095Y2761905D01*
X-24676190Y2761905D01*
X-24771429Y2714286D01*
X-24819048Y2666667D01*
X-24866667Y2571429D01*
X-24866667Y2380952D01*
X-24819048Y2285714D01*
X-24771429Y2238095D01*
X-24676190Y2190476D01*
X-24342857Y2857143D02*
X-24295238Y2809524D01*
X-24247619Y2666667D01*
X-24247619Y2571429D01*
X-24295238Y2428571D01*
X-24390476Y2333333D01*
X-24485714Y2285714D01*
X-24676190Y2238095D01*
X-24819048Y2238095D01*
X-25009524Y2285714D01*
X-25104762Y2333333D01*
X-25200000Y2428571D01*
X-25247619Y2571429D01*
X-25247619Y2666667D01*
X-25200000Y2809524D01*
X-25152381Y2857143D01*
X-25247619Y3761905D02*
X-25247619Y3285714D01*
X-24771429Y3238095D01*
X-24819048Y3285714D01*
X-24866667Y3380952D01*
X-24866667Y3619048D01*
X-24819048Y3714286D01*
X-24771429Y3761905D01*
X-24676190Y3809524D01*
X-24438095Y3809524D01*
X-24342857Y3761905D01*
X-24295238Y3714286D01*
X-24247619Y3619048D01*
X-24247619Y3380952D01*
X-24295238Y3285714D01*
X-24342857Y3238095D01*
X-25247619Y4142857D02*
X-25247619Y4809524D01*
X-24247619Y4380952D01*
X-9342857Y16857143D02*
X-9295238Y16809524D01*
X-9247619Y16666667D01*
X-9247619Y16571429D01*
X-9295238Y16428571D01*
X-9390476Y16333333D01*
X-9485714Y16285714D01*
X-9676190Y16238095D01*
X-9819048Y16238095D01*
X-10009524Y16285714D01*
X-10104762Y16333333D01*
X-10200000Y16428571D01*
X-10247619Y16571429D01*
X-10247619Y16666667D01*
X-10200000Y16809524D01*
X-10152381Y16857143D01*
X-10247619Y17761905D02*
X-10247619Y17285714D01*
X-9771429Y17238095D01*
X-9819048Y17285714D01*
X-9866667Y17380952D01*
X-9866667Y17619048D01*
X-9819048Y17714286D01*
X-9771429Y17761905D01*
X-9676190Y17809524D01*
X-9438095Y17809524D01*
X-9342857Y17761905D01*
X-9295238Y17714286D01*
X-9247619Y17619048D01*
X-9247619Y17380952D01*
X-9295238Y17285714D01*
X-9342857Y17238095D01*
X-9819048Y18380952D02*
X-9866667Y18285714D01*
X-9914286Y18238095D01*
X-10009524Y18190476D01*
X-10057143Y18190476D01*
X-10152381Y18238095D01*
X-10200000Y18285714D01*
X-10247619Y18380952D01*
X-10247619Y18571429D01*
X-10200000Y18666667D01*
X-10152381Y18714286D01*
X-10057143Y18761905D01*
X-10009524Y18761905D01*
X-9914286Y18714286D01*
X-9866667Y18666667D01*
X-9819048Y18571429D01*
X-9819048Y18380952D01*
X-9771429Y18285714D01*
X-9723810Y18238095D01*
X-9628571Y18190476D01*
X-9438095Y18190476D01*
X-9342857Y18238095D01*
X-9295238Y18285714D01*
X-9247619Y18380952D01*
X-9247619Y18571429D01*
X-9295238Y18666667D01*
X-9342857Y18714286D01*
X-9438095Y18761905D01*
X-9628571Y18761905D01*
X-9723810Y18714286D01*
X-9771429Y18666667D01*
X-9819048Y18571429D01*
X-9342857Y14857143D02*
X-9295238Y14809524D01*
X-9247619Y14666667D01*
X-9247619Y14571429D01*
X-9295238Y14428571D01*
X-9390476Y14333333D01*
X-9485714Y14285714D01*
X-9676190Y14238095D01*
X-9819048Y14238095D01*
X-10009524Y14285714D01*
X-10104762Y14333333D01*
X-10200000Y14428571D01*
X-10247619Y14571429D01*
X-10247619Y14666667D01*
X-10200000Y14809524D01*
X-10152381Y14857143D01*
X-10247619Y15761905D02*
X-10247619Y15285714D01*
X-9771429Y15238095D01*
X-9819048Y15285714D01*
X-9866667Y15380952D01*
X-9866667Y15619048D01*
X-9819048Y15714286D01*
X-9771429Y15761905D01*
X-9676190Y15809524D01*
X-9438095Y15809524D01*
X-9342857Y15761905D01*
X-9295238Y15714286D01*
X-9247619Y15619048D01*
X-9247619Y15380952D01*
X-9295238Y15285714D01*
X-9342857Y15238095D01*
X-9247619Y16285714D02*
X-9247619Y16476190D01*
X-9295238Y16571429D01*
X-9342857Y16619048D01*
X-9485714Y16714286D01*
X-9676190Y16761905D01*
X-10057143Y16761905D01*
X-10152381Y16714286D01*
X-10200000Y16666667D01*
X-10247619Y16571429D01*
X-10247619Y16380952D01*
X-10200000Y16285714D01*
X-10152381Y16238095D01*
X-10057143Y16190476D01*
X-9819048Y16190476D01*
X-9723810Y16238095D01*
X-9676190Y16285714D01*
X-9628571Y16380952D01*
X-9628571Y16571429D01*
X-9676190Y16666667D01*
X-9723810Y16714286D01*
X-9819048Y16761905D01*
X-2642857Y3942857D02*
X-2690476Y3895238D01*
X-2833333Y3847619D01*
X-2928571Y3847619D01*
X-3071429Y3895238D01*
X-3166667Y3990476D01*
X-3214286Y4085714D01*
X-3261905Y4276190D01*
X-3261905Y4419048D01*
X-3214286Y4609524D01*
X-3166667Y4704762D01*
X-3071429Y4800000D01*
X-2928571Y4847619D01*
X-2833333Y4847619D01*
X-2690476Y4800000D01*
X-2642857Y4752381D01*
X-1785714Y4847619D02*
X-1976191Y4847619D01*
X-2071429Y4800000D01*
X-2119048Y4752381D01*
X-2214286Y4609524D01*
X-2261905Y4419048D01*
X-2261905Y4038095D01*
X-2214286Y3942857D01*
X-2166667Y3895238D01*
X-2071429Y3847619D01*
X-1880952Y3847619D01*
X-1785714Y3895238D01*
X-1738095Y3942857D01*
X-1690476Y4038095D01*
X-1690476Y4276190D01*
X-1738095Y4371429D01*
X-1785714Y4419048D01*
X-1880952Y4466667D01*
X-2071429Y4466667D01*
X-2166667Y4419048D01*
X-2214286Y4371429D01*
X-2261905Y4276190D01*
X-1071429Y4847619D02*
X-976190Y4847619D01*
X-880952Y4800000D01*
X-833333Y4752381D01*
X-785714Y4657143D01*
X-738095Y4466667D01*
X-738095Y4228571D01*
X-785714Y4038095D01*
X-833333Y3942857D01*
X-880952Y3895238D01*
X-976190Y3847619D01*
X-1071429Y3847619D01*
X-1166667Y3895238D01*
X-1214286Y3942857D01*
X-1261905Y4038095D01*
X-1309524Y4228571D01*
X-1309524Y4466667D01*
X-1261905Y4657143D01*
X-1214286Y4752381D01*
X-1166667Y4800000D01*
X-1071429Y4847619D01*
X-642857Y3942857D02*
X-690476Y3895238D01*
X-833333Y3847619D01*
X-928571Y3847619D01*
X-1071429Y3895238D01*
X-1166667Y3990476D01*
X-1214286Y4085714D01*
X-1261905Y4276190D01*
X-1261905Y4419048D01*
X-1214286Y4609524D01*
X-1166667Y4704762D01*
X-1071429Y4800000D01*
X-928571Y4847619D01*
X-833333Y4847619D01*
X-690476Y4800000D01*
X-642857Y4752381D01*
X214286Y4847619D02*
X23809Y4847619D01*
X-71429Y4800000D01*
X-119048Y4752381D01*
X-214286Y4609524D01*
X-261905Y4419048D01*
X-261905Y4038095D01*
X-214286Y3942857D01*
X-166667Y3895238D01*
X-71429Y3847619D01*
X119048Y3847619D01*
X214286Y3895238D01*
X261905Y3942857D01*
X309524Y4038095D01*
X309524Y4276190D01*
X261905Y4371429D01*
X214286Y4419048D01*
X119048Y4466667D01*
X-71429Y4466667D01*
X-166667Y4419048D01*
X-214286Y4371429D01*
X-261905Y4276190D01*
X1261905Y3847619D02*
X690476Y3847619D01*
X976190Y3847619D02*
X976190Y4847619D01*
X880952Y4704762D01*
X785714Y4609524D01*
X690476Y4561905D01*
X-8342857Y16857143D02*
X-8295238Y16809524D01*
X-8247619Y16666667D01*
X-8247619Y16571429D01*
X-8295238Y16428571D01*
X-8390476Y16333333D01*
X-8485714Y16285714D01*
X-8676190Y16238095D01*
X-8819048Y16238095D01*
X-9009524Y16285714D01*
X-9104762Y16333333D01*
X-9200000Y16428571D01*
X-9247619Y16571429D01*
X-9247619Y16666667D01*
X-9200000Y16809524D01*
X-9152381Y16857143D01*
X-9247619Y17714286D02*
X-9247619Y17523809D01*
X-9200000Y17428571D01*
X-9152381Y17380952D01*
X-9009524Y17285714D01*
X-8819048Y17238095D01*
X-8438095Y17238095D01*
X-8342857Y17285714D01*
X-8295238Y17333333D01*
X-8247619Y17428571D01*
X-8247619Y17619048D01*
X-8295238Y17714286D01*
X-8342857Y17761905D01*
X-8438095Y17809524D01*
X-8676190Y17809524D01*
X-8771429Y17761905D01*
X-8819048Y17714286D01*
X-8866667Y17619048D01*
X-8866667Y17428571D01*
X-8819048Y17333333D01*
X-8771429Y17285714D01*
X-8676190Y17238095D01*
X-9152381Y18190476D02*
X-9200000Y18238095D01*
X-9247619Y18333333D01*
X-9247619Y18571429D01*
X-9200000Y18666667D01*
X-9152381Y18714286D01*
X-9057143Y18761905D01*
X-8961905Y18761905D01*
X-8819048Y18714286D01*
X-8247619Y18142857D01*
X-8247619Y18761905D01*
X-8342857Y14857143D02*
X-8295238Y14809524D01*
X-8247619Y14666667D01*
X-8247619Y14571429D01*
X-8295238Y14428571D01*
X-8390476Y14333333D01*
X-8485714Y14285714D01*
X-8676190Y14238095D01*
X-8819048Y14238095D01*
X-9009524Y14285714D01*
X-9104762Y14333333D01*
X-9200000Y14428571D01*
X-9247619Y14571429D01*
X-9247619Y14666667D01*
X-9200000Y14809524D01*
X-9152381Y14857143D01*
X-9247619Y15714286D02*
X-9247619Y15523809D01*
X-9200000Y15428571D01*
X-9152381Y15380952D01*
X-9009524Y15285714D01*
X-8819048Y15238095D01*
X-8438095Y15238095D01*
X-8342857Y15285714D01*
X-8295238Y15333333D01*
X-8247619Y15428571D01*
X-8247619Y15619048D01*
X-8295238Y15714286D01*
X-8342857Y15761905D01*
X-8438095Y15809524D01*
X-8676190Y15809524D01*
X-8771429Y15761905D01*
X-8819048Y15714286D01*
X-8866667Y15619048D01*
X-8866667Y15428571D01*
X-8819048Y15333333D01*
X-8771429Y15285714D01*
X-8676190Y15238095D01*
X-9247619Y16142857D02*
X-9247619Y16761905D01*
X-8866667Y16428571D01*
X-8866667Y16571429D01*
X-8819048Y16666667D01*
X-8771429Y16714286D01*
X-8676190Y16761905D01*
X-8438095Y16761905D01*
X-8342857Y16714286D01*
X-8295238Y16666667D01*
X-8247619Y16571429D01*
X-8247619Y16285714D01*
X-8295238Y16190476D01*
X-8342857Y16142857D01*
X-2642857Y4942857D02*
X-2690476Y4895238D01*
X-2833333Y4847619D01*
X-2928571Y4847619D01*
X-3071429Y4895238D01*
X-3166667Y4990476D01*
X-3214286Y5085714D01*
X-3261905Y5276190D01*
X-3261905Y5419048D01*
X-3214286Y5609524D01*
X-3166667Y5704762D01*
X-3071429Y5800000D01*
X-2928571Y5847619D01*
X-2833333Y5847619D01*
X-2690476Y5800000D01*
X-2642857Y5752381D01*
X-1785714Y5847619D02*
X-1976191Y5847619D01*
X-2071429Y5800000D01*
X-2119048Y5752381D01*
X-2214286Y5609524D01*
X-2261905Y5419048D01*
X-2261905Y5038095D01*
X-2214286Y4942857D01*
X-2166667Y4895238D01*
X-2071429Y4847619D01*
X-1880952Y4847619D01*
X-1785714Y4895238D01*
X-1738095Y4942857D01*
X-1690476Y5038095D01*
X-1690476Y5276190D01*
X-1738095Y5371429D01*
X-1785714Y5419048D01*
X-1880952Y5466667D01*
X-2071429Y5466667D01*
X-2166667Y5419048D01*
X-2214286Y5371429D01*
X-2261905Y5276190D01*
X-833333Y5514286D02*
X-833333Y4847619D01*
X-1071429Y5895238D02*
X-1309524Y5180952D01*
X-690476Y5180952D01*
X-642857Y4942857D02*
X-690476Y4895238D01*
X-833333Y4847619D01*
X-928571Y4847619D01*
X-1071429Y4895238D01*
X-1166667Y4990476D01*
X-1214286Y5085714D01*
X-1261905Y5276190D01*
X-1261905Y5419048D01*
X-1214286Y5609524D01*
X-1166667Y5704762D01*
X-1071429Y5800000D01*
X-928571Y5847619D01*
X-833333Y5847619D01*
X-690476Y5800000D01*
X-642857Y5752381D01*
X214286Y5847619D02*
X23809Y5847619D01*
X-71429Y5800000D01*
X-119048Y5752381D01*
X-214286Y5609524D01*
X-261905Y5419048D01*
X-261905Y5038095D01*
X-214286Y4942857D01*
X-166667Y4895238D01*
X-71429Y4847619D01*
X119048Y4847619D01*
X214286Y4895238D01*
X261905Y4942857D01*
X309524Y5038095D01*
X309524Y5276190D01*
X261905Y5371429D01*
X214286Y5419048D01*
X119048Y5466667D01*
X-71429Y5466667D01*
X-166667Y5419048D01*
X-214286Y5371429D01*
X-261905Y5276190D01*
X1214286Y5847619D02*
X738095Y5847619D01*
X690476Y5371429D01*
X738095Y5419048D01*
X833333Y5466667D01*
X1071429Y5466667D01*
X1166667Y5419048D01*
X1214286Y5371429D01*
X1261905Y5276190D01*
X1261905Y5038095D01*
X1214286Y4942857D01*
X1166667Y4895238D01*
X1071429Y4847619D01*
X833333Y4847619D01*
X738095Y4895238D01*
X690476Y4942857D01*
X9057143Y16857143D02*
X9104762Y16809524D01*
X9152381Y16666667D01*
X9152381Y16571429D01*
X9104762Y16428571D01*
X9009524Y16333333D01*
X8914286Y16285714D01*
X8723810Y16238095D01*
X8580952Y16238095D01*
X8390476Y16285714D01*
X8295238Y16333333D01*
X8200000Y16428571D01*
X8152381Y16571429D01*
X8152381Y16666667D01*
X8200000Y16809524D01*
X8247619Y16857143D01*
X8152381Y17714286D02*
X8152381Y17523809D01*
X8200000Y17428571D01*
X8247619Y17380952D01*
X8390476Y17285714D01*
X8580952Y17238095D01*
X8961905Y17238095D01*
X9057143Y17285714D01*
X9104762Y17333333D01*
X9152381Y17428571D01*
X9152381Y17619048D01*
X9104762Y17714286D01*
X9057143Y17761905D01*
X8961905Y17809524D01*
X8723810Y17809524D01*
X8628571Y17761905D01*
X8580952Y17714286D01*
X8533333Y17619048D01*
X8533333Y17428571D01*
X8580952Y17333333D01*
X8628571Y17285714D01*
X8723810Y17238095D01*
X8152381Y18666667D02*
X8152381Y18476190D01*
X8200000Y18380952D01*
X8247619Y18333333D01*
X8390476Y18238095D01*
X8580952Y18190476D01*
X8961905Y18190476D01*
X9057143Y18238095D01*
X9104762Y18285714D01*
X9152381Y18380952D01*
X9152381Y18571429D01*
X9104762Y18666667D01*
X9057143Y18714286D01*
X8961905Y18761905D01*
X8723810Y18761905D01*
X8628571Y18714286D01*
X8580952Y18666667D01*
X8533333Y18571429D01*
X8533333Y18380952D01*
X8580952Y18285714D01*
X8628571Y18238095D01*
X8723810Y18190476D01*
X9057143Y14857143D02*
X9104762Y14809524D01*
X9152381Y14666667D01*
X9152381Y14571429D01*
X9104762Y14428571D01*
X9009524Y14333333D01*
X8914286Y14285714D01*
X8723810Y14238095D01*
X8580952Y14238095D01*
X8390476Y14285714D01*
X8295238Y14333333D01*
X8200000Y14428571D01*
X8152381Y14571429D01*
X8152381Y14666667D01*
X8200000Y14809524D01*
X8247619Y14857143D01*
X8152381Y15714286D02*
X8152381Y15523809D01*
X8200000Y15428571D01*
X8247619Y15380952D01*
X8390476Y15285714D01*
X8580952Y15238095D01*
X8961905Y15238095D01*
X9057143Y15285714D01*
X9104762Y15333333D01*
X9152381Y15428571D01*
X9152381Y15619048D01*
X9104762Y15714286D01*
X9057143Y15761905D01*
X8961905Y15809524D01*
X8723810Y15809524D01*
X8628571Y15761905D01*
X8580952Y15714286D01*
X8533333Y15619048D01*
X8533333Y15428571D01*
X8580952Y15333333D01*
X8628571Y15285714D01*
X8723810Y15238095D01*
X8152381Y16142857D02*
X8152381Y16809524D01*
X9152381Y16380952D01*
X1657143Y20857143D02*
X1704762Y20809524D01*
X1752381Y20666667D01*
X1752381Y20571429D01*
X1704762Y20428571D01*
X1609524Y20333333D01*
X1514286Y20285714D01*
X1323810Y20238095D01*
X1180952Y20238095D01*
X990476Y20285714D01*
X895238Y20333333D01*
X800000Y20428571D01*
X752381Y20571429D01*
X752381Y20666667D01*
X800000Y20809524D01*
X847619Y20857143D01*
X752381Y21714286D02*
X752381Y21523809D01*
X800000Y21428571D01*
X847619Y21380952D01*
X990476Y21285714D01*
X1180952Y21238095D01*
X1561905Y21238095D01*
X1657143Y21285714D01*
X1704762Y21333333D01*
X1752381Y21428571D01*
X1752381Y21619048D01*
X1704762Y21714286D01*
X1657143Y21761905D01*
X1561905Y21809524D01*
X1323810Y21809524D01*
X1228571Y21761905D01*
X1180952Y21714286D01*
X1133333Y21619048D01*
X1133333Y21428571D01*
X1180952Y21333333D01*
X1228571Y21285714D01*
X1323810Y21238095D01*
X1180952Y22380952D02*
X1133333Y22285714D01*
X1085714Y22238095D01*
X990476Y22190476D01*
X942857Y22190476D01*
X847619Y22238095D01*
X800000Y22285714D01*
X752381Y22380952D01*
X752381Y22571429D01*
X800000Y22666667D01*
X847619Y22714286D01*
X942857Y22761905D01*
X990476Y22761905D01*
X1085714Y22714286D01*
X1133333Y22666667D01*
X1180952Y22571429D01*
X1180952Y22380952D01*
X1228571Y22285714D01*
X1276190Y22238095D01*
X1371429Y22190476D01*
X1561905Y22190476D01*
X1657143Y22238095D01*
X1704762Y22285714D01*
X1752381Y22380952D01*
X1752381Y22571429D01*
X1704762Y22666667D01*
X1657143Y22714286D01*
X1561905Y22761905D01*
X1371429Y22761905D01*
X1276190Y22714286D01*
X1228571Y22666667D01*
X1180952Y22571429D01*
X-3142857Y23342857D02*
X-3190476Y23295238D01*
X-3333333Y23247619D01*
X-3428571Y23247619D01*
X-3571429Y23295238D01*
X-3666667Y23390476D01*
X-3714286Y23485714D01*
X-3761905Y23676190D01*
X-3761905Y23819048D01*
X-3714286Y24009524D01*
X-3666667Y24104762D01*
X-3571429Y24200000D01*
X-3428571Y24247619D01*
X-3333333Y24247619D01*
X-3190476Y24200000D01*
X-3142857Y24152381D01*
X-2285714Y24247619D02*
X-2476191Y24247619D01*
X-2571429Y24200000D01*
X-2619048Y24152381D01*
X-2714286Y24009524D01*
X-2761905Y23819048D01*
X-2761905Y23438095D01*
X-2714286Y23342857D01*
X-2666667Y23295238D01*
X-2571429Y23247619D01*
X-2380952Y23247619D01*
X-2285714Y23295238D01*
X-2238095Y23342857D01*
X-2190476Y23438095D01*
X-2190476Y23676190D01*
X-2238095Y23771429D01*
X-2285714Y23819048D01*
X-2380952Y23866667D01*
X-2571429Y23866667D01*
X-2666667Y23819048D01*
X-2714286Y23771429D01*
X-2761905Y23676190D01*
X-1714286Y23247619D02*
X-1523810Y23247619D01*
X-1428571Y23295238D01*
X-1380952Y23342857D01*
X-1285714Y23485714D01*
X-1238095Y23676190D01*
X-1238095Y24057143D01*
X-1285714Y24152381D01*
X-1333333Y24200000D01*
X-1428571Y24247619D01*
X-1619048Y24247619D01*
X-1714286Y24200000D01*
X-1761905Y24152381D01*
X-1809524Y24057143D01*
X-1809524Y23819048D01*
X-1761905Y23723810D01*
X-1714286Y23676190D01*
X-1619048Y23628571D01*
X-1428571Y23628571D01*
X-1333333Y23676190D01*
X-1285714Y23723810D01*
X-1238095Y23819048D01*
X-1142857Y23342857D02*
X-1190476Y23295238D01*
X-1333333Y23247619D01*
X-1428571Y23247619D01*
X-1571429Y23295238D01*
X-1666667Y23390476D01*
X-1714286Y23485714D01*
X-1761905Y23676190D01*
X-1761905Y23819048D01*
X-1714286Y24009524D01*
X-1666667Y24104762D01*
X-1571429Y24200000D01*
X-1428571Y24247619D01*
X-1333333Y24247619D01*
X-1190476Y24200000D01*
X-1142857Y24152381D01*
X-809524Y24247619D02*
X-142857Y24247619D01*
X-571429Y23247619D01*
X428571Y24247619D02*
X523810Y24247619D01*
X619048Y24200000D01*
X666667Y24152381D01*
X714286Y24057143D01*
X761905Y23866667D01*
X761905Y23628571D01*
X714286Y23438095D01*
X666667Y23342857D01*
X619048Y23295238D01*
X523810Y23247619D01*
X428571Y23247619D01*
X333333Y23295238D01*
X285714Y23342857D01*
X238095Y23438095D01*
X190476Y23628571D01*
X190476Y23866667D01*
X238095Y24057143D01*
X285714Y24152381D01*
X333333Y24200000D01*
X428571Y24247619D01*
X857143Y23342857D02*
X809524Y23295238D01*
X666667Y23247619D01*
X571429Y23247619D01*
X428571Y23295238D01*
X333333Y23390476D01*
X285714Y23485714D01*
X238095Y23676190D01*
X238095Y23819048D01*
X285714Y24009524D01*
X333333Y24104762D01*
X428571Y24200000D01*
X571429Y24247619D01*
X666667Y24247619D01*
X809524Y24200000D01*
X857143Y24152381D01*
X1190476Y24247619D02*
X1857143Y24247619D01*
X1428571Y23247619D01*
X2761905Y23247619D02*
X2190476Y23247619D01*
X2476190Y23247619D02*
X2476190Y24247619D01*
X2380952Y24104762D01*
X2285714Y24009524D01*
X2190476Y23961905D01*
X-2142857Y22342857D02*
X-2190476Y22295238D01*
X-2333333Y22247619D01*
X-2428571Y22247619D01*
X-2571429Y22295238D01*
X-2666667Y22390476D01*
X-2714286Y22485714D01*
X-2761905Y22676190D01*
X-2761905Y22819048D01*
X-2714286Y23009524D01*
X-2666667Y23104762D01*
X-2571429Y23200000D01*
X-2428571Y23247619D01*
X-2333333Y23247619D01*
X-2190476Y23200000D01*
X-2142857Y23152381D01*
X-1809524Y23247619D02*
X-1142857Y23247619D01*
X-1571429Y22247619D01*
X-809524Y23152381D02*
X-761905Y23200000D01*
X-666667Y23247619D01*
X-428571Y23247619D01*
X-333333Y23200000D01*
X-285714Y23152381D01*
X-238095Y23057143D01*
X-238095Y22961905D01*
X-285714Y22819048D01*
X-857143Y22247619D01*
X-238095Y22247619D01*
X10057143Y16857143D02*
X10104762Y16809524D01*
X10152381Y16666667D01*
X10152381Y16571429D01*
X10104762Y16428571D01*
X10009524Y16333333D01*
X9914286Y16285714D01*
X9723810Y16238095D01*
X9580952Y16238095D01*
X9390476Y16285714D01*
X9295238Y16333333D01*
X9200000Y16428571D01*
X9152381Y16571429D01*
X9152381Y16666667D01*
X9200000Y16809524D01*
X9247619Y16857143D01*
X9152381Y17190476D02*
X9152381Y17857143D01*
X10152381Y17428571D01*
X9152381Y18142857D02*
X9152381Y18761905D01*
X9533333Y18428571D01*
X9533333Y18571429D01*
X9580952Y18666667D01*
X9628571Y18714286D01*
X9723810Y18761905D01*
X9961905Y18761905D01*
X10057143Y18714286D01*
X10104762Y18666667D01*
X10152381Y18571429D01*
X10152381Y18285714D01*
X10104762Y18190476D01*
X10057143Y18142857D01*
X10057143Y14857143D02*
X10104762Y14809524D01*
X10152381Y14666667D01*
X10152381Y14571429D01*
X10104762Y14428571D01*
X10009524Y14333333D01*
X9914286Y14285714D01*
X9723810Y14238095D01*
X9580952Y14238095D01*
X9390476Y14285714D01*
X9295238Y14333333D01*
X9200000Y14428571D01*
X9152381Y14571429D01*
X9152381Y14666667D01*
X9200000Y14809524D01*
X9247619Y14857143D01*
X9152381Y15190476D02*
X9152381Y15857143D01*
X10152381Y15428571D01*
X9485714Y16666667D02*
X10152381Y16666667D01*
X9104762Y16428571D02*
X9819048Y16190476D01*
X9819048Y16809524D01*
X-3142857Y24342857D02*
X-3190476Y24295238D01*
X-3333333Y24247619D01*
X-3428571Y24247619D01*
X-3571429Y24295238D01*
X-3666667Y24390476D01*
X-3714286Y24485714D01*
X-3761905Y24676190D01*
X-3761905Y24819048D01*
X-3714286Y25009524D01*
X-3666667Y25104762D01*
X-3571429Y25200000D01*
X-3428571Y25247619D01*
X-3333333Y25247619D01*
X-3190476Y25200000D01*
X-3142857Y25152381D01*
X-2809524Y25247619D02*
X-2142857Y25247619D01*
X-2571429Y24247619D01*
X-1285714Y25247619D02*
X-1761905Y25247619D01*
X-1809524Y24771429D01*
X-1761905Y24819048D01*
X-1666667Y24866667D01*
X-1428571Y24866667D01*
X-1333333Y24819048D01*
X-1285714Y24771429D01*
X-1238095Y24676190D01*
X-1238095Y24438095D01*
X-1285714Y24342857D01*
X-1333333Y24295238D01*
X-1428571Y24247619D01*
X-1666667Y24247619D01*
X-1761905Y24295238D01*
X-1809524Y24342857D01*
X-1142857Y24342857D02*
X-1190476Y24295238D01*
X-1333333Y24247619D01*
X-1428571Y24247619D01*
X-1571429Y24295238D01*
X-1666667Y24390476D01*
X-1714286Y24485714D01*
X-1761905Y24676190D01*
X-1761905Y24819048D01*
X-1714286Y25009524D01*
X-1666667Y25104762D01*
X-1571429Y25200000D01*
X-1428571Y25247619D01*
X-1333333Y25247619D01*
X-1190476Y25200000D01*
X-1142857Y25152381D01*
X-809524Y25247619D02*
X-142857Y25247619D01*
X-571429Y24247619D01*
X666667Y25247619D02*
X476190Y25247619D01*
X380952Y25200000D01*
X333333Y25152381D01*
X238095Y25009524D01*
X190476Y24819048D01*
X190476Y24438095D01*
X238095Y24342857D01*
X285714Y24295238D01*
X380952Y24247619D01*
X571429Y24247619D01*
X666667Y24295238D01*
X714286Y24342857D01*
X761905Y24438095D01*
X761905Y24676190D01*
X714286Y24771429D01*
X666667Y24819048D01*
X571429Y24866667D01*
X380952Y24866667D01*
X285714Y24819048D01*
X238095Y24771429D01*
X190476Y24676190D01*
X857143Y24342857D02*
X809524Y24295238D01*
X666667Y24247619D01*
X571429Y24247619D01*
X428571Y24295238D01*
X333333Y24390476D01*
X285714Y24485714D01*
X238095Y24676190D01*
X238095Y24819048D01*
X285714Y25009524D01*
X333333Y25104762D01*
X428571Y25200000D01*
X571429Y25247619D01*
X666667Y25247619D01*
X809524Y25200000D01*
X857143Y25152381D01*
X1190476Y25247619D02*
X1857143Y25247619D01*
X1428571Y24247619D01*
X2142857Y25247619D02*
X2809524Y25247619D01*
X2380952Y24247619D01*
X2857143Y24342857D02*
X2809524Y24295238D01*
X2666667Y24247619D01*
X2571429Y24247619D01*
X2428571Y24295238D01*
X2333333Y24390476D01*
X2285714Y24485714D01*
X2238095Y24676190D01*
X2238095Y24819048D01*
X2285714Y25009524D01*
X2333333Y25104762D01*
X2428571Y25200000D01*
X2571429Y25247619D01*
X2666667Y25247619D01*
X2809524Y25200000D01*
X2857143Y25152381D01*
X3190476Y25247619D02*
X3857143Y25247619D01*
X3428571Y24247619D01*
X4380952Y24819048D02*
X4285714Y24866667D01*
X4238095Y24914286D01*
X4190476Y25009524D01*
X4190476Y25057143D01*
X4238095Y25152381D01*
X4285714Y25200000D01*
X4380952Y25247619D01*
X4571429Y25247619D01*
X4666667Y25200000D01*
X4714286Y25152381D01*
X4761905Y25057143D01*
X4761905Y25009524D01*
X4714286Y24914286D01*
X4666667Y24866667D01*
X4571429Y24819048D01*
X4380952Y24819048D01*
X4285714Y24771429D01*
X4238095Y24723810D01*
X4190476Y24628571D01*
X4190476Y24438095D01*
X4238095Y24342857D01*
X4285714Y24295238D01*
X4380952Y24247619D01*
X4571429Y24247619D01*
X4666667Y24295238D01*
X4714286Y24342857D01*
X4761905Y24438095D01*
X4761905Y24628571D01*
X4714286Y24723810D01*
X4666667Y24771429D01*
X4571429Y24819048D01*
X16857143Y9342857D02*
X16809524Y9295238D01*
X16666667Y9247619D01*
X16571429Y9247619D01*
X16428571Y9295238D01*
X16333333Y9390476D01*
X16285714Y9485714D01*
X16238095Y9676190D01*
X16238095Y9819048D01*
X16285714Y10009524D01*
X16333333Y10104762D01*
X16428571Y10200000D01*
X16571429Y10247619D01*
X16666667Y10247619D01*
X16809524Y10200000D01*
X16857143Y10152381D01*
X17190476Y10247619D02*
X17857143Y10247619D01*
X17428571Y9247619D01*
X18285714Y9247619D02*
X18476190Y9247619D01*
X18571429Y9295238D01*
X18619048Y9342857D01*
X18714286Y9485714D01*
X18761905Y9676190D01*
X18761905Y10057143D01*
X18714286Y10152381D01*
X18666667Y10200000D01*
X18571429Y10247619D01*
X18380952Y10247619D01*
X18285714Y10200000D01*
X18238095Y10152381D01*
X18190476Y10057143D01*
X18190476Y9819048D01*
X18238095Y9723810D01*
X18285714Y9676190D01*
X18380952Y9628571D01*
X18571429Y9628571D01*
X18666667Y9676190D01*
X18714286Y9723810D01*
X18761905Y9819048D01*
X14857143Y9342857D02*
X14809524Y9295238D01*
X14666667Y9247619D01*
X14571429Y9247619D01*
X14428571Y9295238D01*
X14333333Y9390476D01*
X14285714Y9485714D01*
X14238095Y9676190D01*
X14238095Y9819048D01*
X14285714Y10009524D01*
X14333333Y10104762D01*
X14428571Y10200000D01*
X14571429Y10247619D01*
X14666667Y10247619D01*
X14809524Y10200000D01*
X14857143Y10152381D01*
X15428571Y9819048D02*
X15333333Y9866667D01*
X15285714Y9914286D01*
X15238095Y10009524D01*
X15238095Y10057143D01*
X15285714Y10152381D01*
X15333333Y10200000D01*
X15428571Y10247619D01*
X15619048Y10247619D01*
X15714286Y10200000D01*
X15761905Y10152381D01*
X15809524Y10057143D01*
X15809524Y10009524D01*
X15761905Y9914286D01*
X15714286Y9866667D01*
X15619048Y9819048D01*
X15428571Y9819048D01*
X15333333Y9771429D01*
X15285714Y9723810D01*
X15238095Y9628571D01*
X15238095Y9438095D01*
X15285714Y9342857D01*
X15333333Y9295238D01*
X15428571Y9247619D01*
X15619048Y9247619D01*
X15714286Y9295238D01*
X15761905Y9342857D01*
X15809524Y9438095D01*
X15809524Y9628571D01*
X15761905Y9723810D01*
X15714286Y9771429D01*
X15619048Y9819048D01*
X16428571Y10247619D02*
X16523810Y10247619D01*
X16619048Y10200000D01*
X16666667Y10152381D01*
X16714286Y10057143D01*
X16761905Y9866667D01*
X16761905Y9628571D01*
X16714286Y9438095D01*
X16666667Y9342857D01*
X16619048Y9295238D01*
X16523810Y9247619D01*
X16428571Y9247619D01*
X16333333Y9295238D01*
X16285714Y9342857D01*
X16238095Y9438095D01*
X16190476Y9628571D01*
X16190476Y9866667D01*
X16238095Y10057143D01*
X16285714Y10152381D01*
X16333333Y10200000D01*
X16428571Y10247619D01*
X4657143Y1357143D02*
X4704762Y1309524D01*
X4752381Y1166667D01*
X4752381Y1071429D01*
X4704762Y928571D01*
X4609524Y833333D01*
X4514286Y785714D01*
X4323810Y738095D01*
X4180952Y738095D01*
X3990476Y785714D01*
X3895238Y833333D01*
X3800000Y928571D01*
X3752381Y1071429D01*
X3752381Y1166667D01*
X3800000Y1309524D01*
X3847619Y1357143D01*
X4180952Y1928571D02*
X4133333Y1833333D01*
X4085714Y1785714D01*
X3990476Y1738095D01*
X3942857Y1738095D01*
X3847619Y1785714D01*
X3800000Y1833333D01*
X3752381Y1928571D01*
X3752381Y2119048D01*
X3800000Y2214286D01*
X3847619Y2261905D01*
X3942857Y2309524D01*
X3990476Y2309524D01*
X4085714Y2261905D01*
X4133333Y2214286D01*
X4180952Y2119048D01*
X4180952Y1928571D01*
X4228571Y1833333D01*
X4276190Y1785714D01*
X4371429Y1738095D01*
X4561905Y1738095D01*
X4657143Y1785714D01*
X4704762Y1833333D01*
X4752381Y1928571D01*
X4752381Y2119048D01*
X4704762Y2214286D01*
X4657143Y2261905D01*
X4561905Y2309524D01*
X4371429Y2309524D01*
X4276190Y2261905D01*
X4228571Y2214286D01*
X4180952Y2119048D01*
X4752381Y3261905D02*
X4752381Y2690476D01*
X4752381Y2976190D02*
X3752381Y2976190D01*
X3895238Y2880952D01*
X3990476Y2785714D01*
X4038095Y2690476D01*
X4657143Y-642857D02*
X4704762Y-690476D01*
X4752381Y-833333D01*
X4752381Y-928571D01*
X4704762Y-1071429D01*
X4609524Y-1166667D01*
X4514286Y-1214286D01*
X4323810Y-1261905D01*
X4180952Y-1261905D01*
X3990476Y-1214286D01*
X3895238Y-1166667D01*
X3800000Y-1071429D01*
X3752381Y-928571D01*
X3752381Y-833333D01*
X3800000Y-690476D01*
X3847619Y-642857D01*
X4180952Y-71429D02*
X4133333Y-166667D01*
X4085714Y-214286D01*
X3990476Y-261905D01*
X3942857Y-261905D01*
X3847619Y-214286D01*
X3800000Y-166667D01*
X3752381Y-71429D01*
X3752381Y119048D01*
X3800000Y214286D01*
X3847619Y261905D01*
X3942857Y309524D01*
X3990476Y309524D01*
X4085714Y261905D01*
X4133333Y214286D01*
X4180952Y119048D01*
X4180952Y-71429D01*
X4228571Y-166667D01*
X4276190Y-214286D01*
X4371429Y-261905D01*
X4561905Y-261905D01*
X4657143Y-214286D01*
X4704762Y-166667D01*
X4752381Y-71429D01*
X4752381Y119048D01*
X4704762Y214286D01*
X4657143Y261905D01*
X4561905Y309524D01*
X4371429Y309524D01*
X4276190Y261905D01*
X4228571Y214286D01*
X4180952Y119048D01*
X3847619Y690476D02*
X3800000Y738095D01*
X3752381Y833333D01*
X3752381Y1071429D01*
X3800000Y1166667D01*
X3847619Y1214286D01*
X3942857Y1261905D01*
X4038095Y1261905D01*
X4180952Y1214286D01*
X4752381Y642857D01*
X4752381Y1261905D01*
X16857143Y8342857D02*
X16809524Y8295238D01*
X16666667Y8247619D01*
X16571429Y8247619D01*
X16428571Y8295238D01*
X16333333Y8390476D01*
X16285714Y8485714D01*
X16238095Y8676190D01*
X16238095Y8819048D01*
X16285714Y9009524D01*
X16333333Y9104762D01*
X16428571Y9200000D01*
X16571429Y9247619D01*
X16666667Y9247619D01*
X16809524Y9200000D01*
X16857143Y9152381D01*
X17428571Y8819048D02*
X17333333Y8866667D01*
X17285714Y8914286D01*
X17238095Y9009524D01*
X17238095Y9057143D01*
X17285714Y9152381D01*
X17333333Y9200000D01*
X17428571Y9247619D01*
X17619048Y9247619D01*
X17714286Y9200000D01*
X17761905Y9152381D01*
X17809524Y9057143D01*
X17809524Y9009524D01*
X17761905Y8914286D01*
X17714286Y8866667D01*
X17619048Y8819048D01*
X17428571Y8819048D01*
X17333333Y8771429D01*
X17285714Y8723810D01*
X17238095Y8628571D01*
X17238095Y8438095D01*
X17285714Y8342857D01*
X17333333Y8295238D01*
X17428571Y8247619D01*
X17619048Y8247619D01*
X17714286Y8295238D01*
X17761905Y8342857D01*
X17809524Y8438095D01*
X17809524Y8628571D01*
X17761905Y8723810D01*
X17714286Y8771429D01*
X17619048Y8819048D01*
X18142857Y9247619D02*
X18761905Y9247619D01*
X18428571Y8866667D01*
X18571429Y8866667D01*
X18666667Y8819048D01*
X18714286Y8771429D01*
X18761905Y8676190D01*
X18761905Y8438095D01*
X18714286Y8342857D01*
X18666667Y8295238D01*
X18571429Y8247619D01*
X18285714Y8247619D01*
X18190476Y8295238D01*
X18142857Y8342857D01*
X14857143Y8342857D02*
X14809524Y8295238D01*
X14666667Y8247619D01*
X14571429Y8247619D01*
X14428571Y8295238D01*
X14333333Y8390476D01*
X14285714Y8485714D01*
X14238095Y8676190D01*
X14238095Y8819048D01*
X14285714Y9009524D01*
X14333333Y9104762D01*
X14428571Y9200000D01*
X14571429Y9247619D01*
X14666667Y9247619D01*
X14809524Y9200000D01*
X14857143Y9152381D01*
X15428571Y8819048D02*
X15333333Y8866667D01*
X15285714Y8914286D01*
X15238095Y9009524D01*
X15238095Y9057143D01*
X15285714Y9152381D01*
X15333333Y9200000D01*
X15428571Y9247619D01*
X15619048Y9247619D01*
X15714286Y9200000D01*
X15761905Y9152381D01*
X15809524Y9057143D01*
X15809524Y9009524D01*
X15761905Y8914286D01*
X15714286Y8866667D01*
X15619048Y8819048D01*
X15428571Y8819048D01*
X15333333Y8771429D01*
X15285714Y8723810D01*
X15238095Y8628571D01*
X15238095Y8438095D01*
X15285714Y8342857D01*
X15333333Y8295238D01*
X15428571Y8247619D01*
X15619048Y8247619D01*
X15714286Y8295238D01*
X15761905Y8342857D01*
X15809524Y8438095D01*
X15809524Y8628571D01*
X15761905Y8723810D01*
X15714286Y8771429D01*
X15619048Y8819048D01*
X16666667Y8914286D02*
X16666667Y8247619D01*
X16428571Y9295238D02*
X16190476Y8580952D01*
X16809524Y8580952D01*
X5657143Y1357143D02*
X5704762Y1309524D01*
X5752381Y1166667D01*
X5752381Y1071429D01*
X5704762Y928571D01*
X5609524Y833333D01*
X5514286Y785714D01*
X5323810Y738095D01*
X5180952Y738095D01*
X4990476Y785714D01*
X4895238Y833333D01*
X4800000Y928571D01*
X4752381Y1071429D01*
X4752381Y1166667D01*
X4800000Y1309524D01*
X4847619Y1357143D01*
X5180952Y1928571D02*
X5133333Y1833333D01*
X5085714Y1785714D01*
X4990476Y1738095D01*
X4942857Y1738095D01*
X4847619Y1785714D01*
X4800000Y1833333D01*
X4752381Y1928571D01*
X4752381Y2119048D01*
X4800000Y2214286D01*
X4847619Y2261905D01*
X4942857Y2309524D01*
X4990476Y2309524D01*
X5085714Y2261905D01*
X5133333Y2214286D01*
X5180952Y2119048D01*
X5180952Y1928571D01*
X5228571Y1833333D01*
X5276190Y1785714D01*
X5371429Y1738095D01*
X5561905Y1738095D01*
X5657143Y1785714D01*
X5704762Y1833333D01*
X5752381Y1928571D01*
X5752381Y2119048D01*
X5704762Y2214286D01*
X5657143Y2261905D01*
X5561905Y2309524D01*
X5371429Y2309524D01*
X5276190Y2261905D01*
X5228571Y2214286D01*
X5180952Y2119048D01*
X4752381Y3214286D02*
X4752381Y2738095D01*
X5228571Y2690476D01*
X5180952Y2738095D01*
X5133333Y2833333D01*
X5133333Y3071429D01*
X5180952Y3166667D01*
X5228571Y3214286D01*
X5323810Y3261905D01*
X5561905Y3261905D01*
X5657143Y3214286D01*
X5704762Y3166667D01*
X5752381Y3071429D01*
X5752381Y2833333D01*
X5704762Y2738095D01*
X5657143Y2690476D01*
X5657143Y-642857D02*
X5704762Y-690476D01*
X5752381Y-833333D01*
X5752381Y-928571D01*
X5704762Y-1071429D01*
X5609524Y-1166667D01*
X5514286Y-1214286D01*
X5323810Y-1261905D01*
X5180952Y-1261905D01*
X4990476Y-1214286D01*
X4895238Y-1166667D01*
X4800000Y-1071429D01*
X4752381Y-928571D01*
X4752381Y-833333D01*
X4800000Y-690476D01*
X4847619Y-642857D01*
X5180952Y-71429D02*
X5133333Y-166667D01*
X5085714Y-214286D01*
X4990476Y-261905D01*
X4942857Y-261905D01*
X4847619Y-214286D01*
X4800000Y-166667D01*
X4752381Y-71429D01*
X4752381Y119048D01*
X4800000Y214286D01*
X4847619Y261905D01*
X4942857Y309524D01*
X4990476Y309524D01*
X5085714Y261905D01*
X5133333Y214286D01*
X5180952Y119048D01*
X5180952Y-71429D01*
X5228571Y-166667D01*
X5276190Y-214286D01*
X5371429Y-261905D01*
X5561905Y-261905D01*
X5657143Y-214286D01*
X5704762Y-166667D01*
X5752381Y-71429D01*
X5752381Y119048D01*
X5704762Y214286D01*
X5657143Y261905D01*
X5561905Y309524D01*
X5371429Y309524D01*
X5276190Y261905D01*
X5228571Y214286D01*
X5180952Y119048D01*
X4752381Y1166667D02*
X4752381Y976190D01*
X4800000Y880952D01*
X4847619Y833333D01*
X4990476Y738095D01*
X5180952Y690476D01*
X5561905Y690476D01*
X5657143Y738095D01*
X5704762Y785714D01*
X5752381Y880952D01*
X5752381Y1071429D01*
X5704762Y1166667D01*
X5657143Y1214286D01*
X5561905Y1261905D01*
X5323810Y1261905D01*
X5228571Y1214286D01*
X5180952Y1166667D01*
X5133333Y1071429D01*
X5133333Y880952D01*
X5180952Y785714D01*
X5228571Y738095D01*
X5323810Y690476D01*
X16857143Y-9057143D02*
X16809524Y-9104762D01*
X16666667Y-9152381D01*
X16571429Y-9152381D01*
X16428571Y-9104762D01*
X16333333Y-9009524D01*
X16285714Y-8914286D01*
X16238095Y-8723810D01*
X16238095Y-8580952D01*
X16285714Y-8390476D01*
X16333333Y-8295238D01*
X16428571Y-8200000D01*
X16571429Y-8152381D01*
X16666667Y-8152381D01*
X16809524Y-8200000D01*
X16857143Y-8247619D01*
X17428571Y-8580952D02*
X17333333Y-8533333D01*
X17285714Y-8485714D01*
X17238095Y-8390476D01*
X17238095Y-8342857D01*
X17285714Y-8247619D01*
X17333333Y-8200000D01*
X17428571Y-8152381D01*
X17619048Y-8152381D01*
X17714286Y-8200000D01*
X17761905Y-8247619D01*
X17809524Y-8342857D01*
X17809524Y-8390476D01*
X17761905Y-8485714D01*
X17714286Y-8533333D01*
X17619048Y-8580952D01*
X17428571Y-8580952D01*
X17333333Y-8628571D01*
X17285714Y-8676190D01*
X17238095Y-8771429D01*
X17238095Y-8961905D01*
X17285714Y-9057143D01*
X17333333Y-9104762D01*
X17428571Y-9152381D01*
X17619048Y-9152381D01*
X17714286Y-9104762D01*
X17761905Y-9057143D01*
X17809524Y-8961905D01*
X17809524Y-8771429D01*
X17761905Y-8676190D01*
X17714286Y-8628571D01*
X17619048Y-8580952D01*
X18142857Y-8152381D02*
X18809524Y-8152381D01*
X18380952Y-9152381D01*
X14857143Y-9057143D02*
X14809524Y-9104762D01*
X14666667Y-9152381D01*
X14571429Y-9152381D01*
X14428571Y-9104762D01*
X14333333Y-9009524D01*
X14285714Y-8914286D01*
X14238095Y-8723810D01*
X14238095Y-8580952D01*
X14285714Y-8390476D01*
X14333333Y-8295238D01*
X14428571Y-8200000D01*
X14571429Y-8152381D01*
X14666667Y-8152381D01*
X14809524Y-8200000D01*
X14857143Y-8247619D01*
X15428571Y-8580952D02*
X15333333Y-8533333D01*
X15285714Y-8485714D01*
X15238095Y-8390476D01*
X15238095Y-8342857D01*
X15285714Y-8247619D01*
X15333333Y-8200000D01*
X15428571Y-8152381D01*
X15619048Y-8152381D01*
X15714286Y-8200000D01*
X15761905Y-8247619D01*
X15809524Y-8342857D01*
X15809524Y-8390476D01*
X15761905Y-8485714D01*
X15714286Y-8533333D01*
X15619048Y-8580952D01*
X15428571Y-8580952D01*
X15333333Y-8628571D01*
X15285714Y-8676190D01*
X15238095Y-8771429D01*
X15238095Y-8961905D01*
X15285714Y-9057143D01*
X15333333Y-9104762D01*
X15428571Y-9152381D01*
X15619048Y-9152381D01*
X15714286Y-9104762D01*
X15761905Y-9057143D01*
X15809524Y-8961905D01*
X15809524Y-8771429D01*
X15761905Y-8676190D01*
X15714286Y-8628571D01*
X15619048Y-8580952D01*
X16380952Y-8580952D02*
X16285714Y-8533333D01*
X16238095Y-8485714D01*
X16190476Y-8390476D01*
X16190476Y-8342857D01*
X16238095Y-8247619D01*
X16285714Y-8200000D01*
X16380952Y-8152381D01*
X16571429Y-8152381D01*
X16666667Y-8200000D01*
X16714286Y-8247619D01*
X16761905Y-8342857D01*
X16761905Y-8390476D01*
X16714286Y-8485714D01*
X16666667Y-8533333D01*
X16571429Y-8580952D01*
X16380952Y-8580952D01*
X16285714Y-8628571D01*
X16238095Y-8676190D01*
X16190476Y-8771429D01*
X16190476Y-8961905D01*
X16238095Y-9057143D01*
X16285714Y-9104762D01*
X16380952Y-9152381D01*
X16571429Y-9152381D01*
X16666667Y-9104762D01*
X16714286Y-9057143D01*
X16761905Y-8961905D01*
X16761905Y-8771429D01*
X16714286Y-8676190D01*
X16666667Y-8628571D01*
X16571429Y-8580952D01*
X20857143Y-1657143D02*
X20809524Y-1704762D01*
X20666667Y-1752381D01*
X20571429Y-1752381D01*
X20428571Y-1704762D01*
X20333333Y-1609524D01*
X20285714Y-1514286D01*
X20238095Y-1323810D01*
X20238095Y-1180952D01*
X20285714Y-990476D01*
X20333333Y-895238D01*
X20428571Y-800000D01*
X20571429Y-752381D01*
X20666667Y-752381D01*
X20809524Y-800000D01*
X20857143Y-847619D01*
X21428571Y-1180952D02*
X21333333Y-1133333D01*
X21285714Y-1085714D01*
X21238095Y-990476D01*
X21238095Y-942857D01*
X21285714Y-847619D01*
X21333333Y-800000D01*
X21428571Y-752381D01*
X21619048Y-752381D01*
X21714286Y-800000D01*
X21761905Y-847619D01*
X21809524Y-942857D01*
X21809524Y-990476D01*
X21761905Y-1085714D01*
X21714286Y-1133333D01*
X21619048Y-1180952D01*
X21428571Y-1180952D01*
X21333333Y-1228571D01*
X21285714Y-1276190D01*
X21238095Y-1371429D01*
X21238095Y-1561905D01*
X21285714Y-1657143D01*
X21333333Y-1704762D01*
X21428571Y-1752381D01*
X21619048Y-1752381D01*
X21714286Y-1704762D01*
X21761905Y-1657143D01*
X21809524Y-1561905D01*
X21809524Y-1371429D01*
X21761905Y-1276190D01*
X21714286Y-1228571D01*
X21619048Y-1180952D01*
X22285714Y-1752381D02*
X22476190Y-1752381D01*
X22571429Y-1704762D01*
X22619048Y-1657143D01*
X22714286Y-1514286D01*
X22761905Y-1323810D01*
X22761905Y-942857D01*
X22714286Y-847619D01*
X22666667Y-800000D01*
X22571429Y-752381D01*
X22380952Y-752381D01*
X22285714Y-800000D01*
X22238095Y-847619D01*
X22190476Y-942857D01*
X22190476Y-1180952D01*
X22238095Y-1276190D01*
X22285714Y-1323810D01*
X22380952Y-1371429D01*
X22571429Y-1371429D01*
X22666667Y-1323810D01*
X22714286Y-1276190D01*
X22761905Y-1180952D01*
X24057143Y1857143D02*
X24104762Y1809524D01*
X24152381Y1666667D01*
X24152381Y1571429D01*
X24104762Y1428571D01*
X24009524Y1333333D01*
X23914286Y1285714D01*
X23723810Y1238095D01*
X23580952Y1238095D01*
X23390476Y1285714D01*
X23295238Y1333333D01*
X23200000Y1428571D01*
X23152381Y1571429D01*
X23152381Y1666667D01*
X23200000Y1809524D01*
X23247619Y1857143D01*
X24152381Y2333333D02*
X24152381Y2523809D01*
X24104762Y2619048D01*
X24057143Y2666667D01*
X23914286Y2761905D01*
X23723810Y2809524D01*
X23342857Y2809524D01*
X23247619Y2761905D01*
X23200000Y2714286D01*
X23152381Y2619048D01*
X23152381Y2428571D01*
X23200000Y2333333D01*
X23247619Y2285714D01*
X23342857Y2238095D01*
X23580952Y2238095D01*
X23676190Y2285714D01*
X23723810Y2333333D01*
X23771429Y2428571D01*
X23771429Y2619048D01*
X23723810Y2714286D01*
X23676190Y2761905D01*
X23580952Y2809524D01*
X23152381Y3428571D02*
X23152381Y3523810D01*
X23200000Y3619048D01*
X23247619Y3666667D01*
X23342857Y3714286D01*
X23533333Y3761905D01*
X23771429Y3761905D01*
X23961905Y3714286D01*
X24057143Y3666667D01*
X24104762Y3619048D01*
X24152381Y3523810D01*
X24152381Y3428571D01*
X24104762Y3333333D01*
X24057143Y3285714D01*
X23961905Y3238095D01*
X23771429Y3190476D01*
X23533333Y3190476D01*
X23342857Y3238095D01*
X23247619Y3285714D01*
X23200000Y3333333D01*
X23152381Y3428571D01*
X24057143Y-142857D02*
X24104762Y-190476D01*
X24152381Y-333333D01*
X24152381Y-428571D01*
X24104762Y-571429D01*
X24009524Y-666667D01*
X23914286Y-714286D01*
X23723810Y-761905D01*
X23580952Y-761905D01*
X23390476Y-714286D01*
X23295238Y-666667D01*
X23200000Y-571429D01*
X23152381Y-428571D01*
X23152381Y-333333D01*
X23200000Y-190476D01*
X23247619Y-142857D01*
X24152381Y333333D02*
X24152381Y523809D01*
X24104762Y619048D01*
X24057143Y666667D01*
X23914286Y761905D01*
X23723810Y809524D01*
X23342857Y809524D01*
X23247619Y761905D01*
X23200000Y714286D01*
X23152381Y619048D01*
X23152381Y428571D01*
X23200000Y333333D01*
X23247619Y285714D01*
X23342857Y238095D01*
X23580952Y238095D01*
X23676190Y285714D01*
X23723810Y333333D01*
X23771429Y428571D01*
X23771429Y619048D01*
X23723810Y714286D01*
X23676190Y761905D01*
X23580952Y809524D01*
X24152381Y1761905D02*
X24152381Y1190476D01*
X24152381Y1476190D02*
X23152381Y1476190D01*
X23295238Y1380952D01*
X23390476Y1285714D01*
X23438095Y1190476D01*
X24057143Y-2142857D02*
X24104762Y-2190476D01*
X24152381Y-2333333D01*
X24152381Y-2428571D01*
X24104762Y-2571429D01*
X24009524Y-2666667D01*
X23914286Y-2714286D01*
X23723810Y-2761905D01*
X23580952Y-2761905D01*
X23390476Y-2714286D01*
X23295238Y-2666667D01*
X23200000Y-2571429D01*
X23152381Y-2428571D01*
X23152381Y-2333333D01*
X23200000Y-2190476D01*
X23247619Y-2142857D01*
X24152381Y-1666667D02*
X24152381Y-1476191D01*
X24104762Y-1380952D01*
X24057143Y-1333333D01*
X23914286Y-1238095D01*
X23723810Y-1190476D01*
X23342857Y-1190476D01*
X23247619Y-1238095D01*
X23200000Y-1285714D01*
X23152381Y-1380952D01*
X23152381Y-1571429D01*
X23200000Y-1666667D01*
X23247619Y-1714286D01*
X23342857Y-1761905D01*
X23580952Y-1761905D01*
X23676190Y-1714286D01*
X23723810Y-1666667D01*
X23771429Y-1571429D01*
X23771429Y-1380952D01*
X23723810Y-1285714D01*
X23676190Y-1238095D01*
X23580952Y-1190476D01*
X23247619Y-809524D02*
X23200000Y-761905D01*
X23152381Y-666667D01*
X23152381Y-428571D01*
X23200000Y-333333D01*
X23247619Y-285714D01*
X23342857Y-238095D01*
X23438095Y-238095D01*
X23580952Y-285714D01*
X24152381Y-857143D01*
X24152381Y-238095D01*
X23057143Y857143D02*
X23104762Y809524D01*
X23152381Y666667D01*
X23152381Y571429D01*
X23104762Y428571D01*
X23009524Y333333D01*
X22914286Y285714D01*
X22723810Y238095D01*
X22580952Y238095D01*
X22390476Y285714D01*
X22295238Y333333D01*
X22200000Y428571D01*
X22152381Y571429D01*
X22152381Y666667D01*
X22200000Y809524D01*
X22247619Y857143D01*
X23152381Y1333333D02*
X23152381Y1523809D01*
X23104762Y1619048D01*
X23057143Y1666667D01*
X22914286Y1761905D01*
X22723810Y1809524D01*
X22342857Y1809524D01*
X22247619Y1761905D01*
X22200000Y1714286D01*
X22152381Y1619048D01*
X22152381Y1428571D01*
X22200000Y1333333D01*
X22247619Y1285714D01*
X22342857Y1238095D01*
X22580952Y1238095D01*
X22676190Y1285714D01*
X22723810Y1333333D01*
X22771429Y1428571D01*
X22771429Y1619048D01*
X22723810Y1714286D01*
X22676190Y1761905D01*
X22580952Y1809524D01*
X22152381Y2142857D02*
X22152381Y2761905D01*
X22533333Y2428571D01*
X22533333Y2571429D01*
X22580952Y2666667D01*
X22628571Y2714286D01*
X22723810Y2761905D01*
X22961905Y2761905D01*
X23057143Y2714286D01*
X23104762Y2666667D01*
X23152381Y2571429D01*
X23152381Y2285714D01*
X23104762Y2190476D01*
X23057143Y2142857D01*
X16857143Y-10057143D02*
X16809524Y-10104762D01*
X16666667Y-10152381D01*
X16571429Y-10152381D01*
X16428571Y-10104762D01*
X16333333Y-10009524D01*
X16285714Y-9914286D01*
X16238095Y-9723810D01*
X16238095Y-9580952D01*
X16285714Y-9390476D01*
X16333333Y-9295238D01*
X16428571Y-9200000D01*
X16571429Y-9152381D01*
X16666667Y-9152381D01*
X16809524Y-9200000D01*
X16857143Y-9247619D01*
X17333333Y-10152381D02*
X17523809Y-10152381D01*
X17619048Y-10104762D01*
X17666667Y-10057143D01*
X17761905Y-9914286D01*
X17809524Y-9723810D01*
X17809524Y-9342857D01*
X17761905Y-9247619D01*
X17714286Y-9200000D01*
X17619048Y-9152381D01*
X17428571Y-9152381D01*
X17333333Y-9200000D01*
X17285714Y-9247619D01*
X17238095Y-9342857D01*
X17238095Y-9580952D01*
X17285714Y-9676190D01*
X17333333Y-9723810D01*
X17428571Y-9771429D01*
X17619048Y-9771429D01*
X17714286Y-9723810D01*
X17761905Y-9676190D01*
X17809524Y-9580952D01*
X18666667Y-9485714D02*
X18666667Y-10152381D01*
X18428571Y-9104762D02*
X18190476Y-9819048D01*
X18809524Y-9819048D01*
X14857143Y-10057143D02*
X14809524Y-10104762D01*
X14666667Y-10152381D01*
X14571429Y-10152381D01*
X14428571Y-10104762D01*
X14333333Y-10009524D01*
X14285714Y-9914286D01*
X14238095Y-9723810D01*
X14238095Y-9580952D01*
X14285714Y-9390476D01*
X14333333Y-9295238D01*
X14428571Y-9200000D01*
X14571429Y-9152381D01*
X14666667Y-9152381D01*
X14809524Y-9200000D01*
X14857143Y-9247619D01*
X15333333Y-10152381D02*
X15523809Y-10152381D01*
X15619048Y-10104762D01*
X15666667Y-10057143D01*
X15761905Y-9914286D01*
X15809524Y-9723810D01*
X15809524Y-9342857D01*
X15761905Y-9247619D01*
X15714286Y-9200000D01*
X15619048Y-9152381D01*
X15428571Y-9152381D01*
X15333333Y-9200000D01*
X15285714Y-9247619D01*
X15238095Y-9342857D01*
X15238095Y-9580952D01*
X15285714Y-9676190D01*
X15333333Y-9723810D01*
X15428571Y-9771429D01*
X15619048Y-9771429D01*
X15714286Y-9723810D01*
X15761905Y-9676190D01*
X15809524Y-9580952D01*
X16714286Y-9152381D02*
X16238095Y-9152381D01*
X16190476Y-9628571D01*
X16238095Y-9580952D01*
X16333333Y-9533333D01*
X16571429Y-9533333D01*
X16666667Y-9580952D01*
X16714286Y-9628571D01*
X16761905Y-9723810D01*
X16761905Y-9961905D01*
X16714286Y-10057143D01*
X16666667Y-10104762D01*
X16571429Y-10152381D01*
X16333333Y-10152381D01*
X16238095Y-10104762D01*
X16190476Y-10057143D01*
X25057143Y1857143D02*
X25104762Y1809524D01*
X25152381Y1666667D01*
X25152381Y1571429D01*
X25104762Y1428571D01*
X25009524Y1333333D01*
X24914286Y1285714D01*
X24723810Y1238095D01*
X24580952Y1238095D01*
X24390476Y1285714D01*
X24295238Y1333333D01*
X24200000Y1428571D01*
X24152381Y1571429D01*
X24152381Y1666667D01*
X24200000Y1809524D01*
X24247619Y1857143D01*
X25152381Y2333333D02*
X25152381Y2523809D01*
X25104762Y2619048D01*
X25057143Y2666667D01*
X24914286Y2761905D01*
X24723810Y2809524D01*
X24342857Y2809524D01*
X24247619Y2761905D01*
X24200000Y2714286D01*
X24152381Y2619048D01*
X24152381Y2428571D01*
X24200000Y2333333D01*
X24247619Y2285714D01*
X24342857Y2238095D01*
X24580952Y2238095D01*
X24676190Y2285714D01*
X24723810Y2333333D01*
X24771429Y2428571D01*
X24771429Y2619048D01*
X24723810Y2714286D01*
X24676190Y2761905D01*
X24580952Y2809524D01*
X24152381Y3666667D02*
X24152381Y3476190D01*
X24200000Y3380952D01*
X24247619Y3333333D01*
X24390476Y3238095D01*
X24580952Y3190476D01*
X24961905Y3190476D01*
X25057143Y3238095D01*
X25104762Y3285714D01*
X25152381Y3380952D01*
X25152381Y3571429D01*
X25104762Y3666667D01*
X25057143Y3714286D01*
X24961905Y3761905D01*
X24723810Y3761905D01*
X24628571Y3714286D01*
X24580952Y3666667D01*
X24533333Y3571429D01*
X24533333Y3380952D01*
X24580952Y3285714D01*
X24628571Y3238095D01*
X24723810Y3190476D01*
X25057143Y-142857D02*
X25104762Y-190476D01*
X25152381Y-333333D01*
X25152381Y-428571D01*
X25104762Y-571429D01*
X25009524Y-666667D01*
X24914286Y-714286D01*
X24723810Y-761905D01*
X24580952Y-761905D01*
X24390476Y-714286D01*
X24295238Y-666667D01*
X24200000Y-571429D01*
X24152381Y-428571D01*
X24152381Y-333333D01*
X24200000Y-190476D01*
X24247619Y-142857D01*
X25152381Y333333D02*
X25152381Y523809D01*
X25104762Y619048D01*
X25057143Y666667D01*
X24914286Y761905D01*
X24723810Y809524D01*
X24342857Y809524D01*
X24247619Y761905D01*
X24200000Y714286D01*
X24152381Y619048D01*
X24152381Y428571D01*
X24200000Y333333D01*
X24247619Y285714D01*
X24342857Y238095D01*
X24580952Y238095D01*
X24676190Y285714D01*
X24723810Y333333D01*
X24771429Y428571D01*
X24771429Y619048D01*
X24723810Y714286D01*
X24676190Y761905D01*
X24580952Y809524D01*
X24152381Y1142857D02*
X24152381Y1809524D01*
X25152381Y1380952D01*
X25057143Y-2142857D02*
X25104762Y-2190476D01*
X25152381Y-2333333D01*
X25152381Y-2428571D01*
X25104762Y-2571429D01*
X25009524Y-2666667D01*
X24914286Y-2714286D01*
X24723810Y-2761905D01*
X24580952Y-2761905D01*
X24390476Y-2714286D01*
X24295238Y-2666667D01*
X24200000Y-2571429D01*
X24152381Y-2428571D01*
X24152381Y-2333333D01*
X24200000Y-2190476D01*
X24247619Y-2142857D01*
X25152381Y-1666667D02*
X25152381Y-1476191D01*
X25104762Y-1380952D01*
X25057143Y-1333333D01*
X24914286Y-1238095D01*
X24723810Y-1190476D01*
X24342857Y-1190476D01*
X24247619Y-1238095D01*
X24200000Y-1285714D01*
X24152381Y-1380952D01*
X24152381Y-1571429D01*
X24200000Y-1666667D01*
X24247619Y-1714286D01*
X24342857Y-1761905D01*
X24580952Y-1761905D01*
X24676190Y-1714286D01*
X24723810Y-1666667D01*
X24771429Y-1571429D01*
X24771429Y-1380952D01*
X24723810Y-1285714D01*
X24676190Y-1238095D01*
X24580952Y-1190476D01*
X24580952Y-619048D02*
X24533333Y-714286D01*
X24485714Y-761905D01*
X24390476Y-809524D01*
X24342857Y-809524D01*
X24247619Y-761905D01*
X24200000Y-714286D01*
X24152381Y-619048D01*
X24152381Y-428571D01*
X24200000Y-333333D01*
X24247619Y-285714D01*
X24342857Y-238095D01*
X24390476Y-238095D01*
X24485714Y-285714D01*
X24533333Y-333333D01*
X24580952Y-428571D01*
X24580952Y-619048D01*
X24628571Y-714286D01*
X24676190Y-761905D01*
X24771429Y-809524D01*
X24961905Y-809524D01*
X25057143Y-761905D01*
X25104762Y-714286D01*
X25152381Y-619048D01*
X25152381Y-428571D01*
X25104762Y-333333D01*
X25057143Y-285714D01*
X24961905Y-238095D01*
X24771429Y-238095D01*
X24676190Y-285714D01*
X24628571Y-333333D01*
X24580952Y-428571D01*
X25057143Y-4142857D02*
X25104762Y-4190476D01*
X25152381Y-4333333D01*
X25152381Y-4428571D01*
X25104762Y-4571429D01*
X25009524Y-4666667D01*
X24914286Y-4714286D01*
X24723810Y-4761905D01*
X24580952Y-4761905D01*
X24390476Y-4714286D01*
X24295238Y-4666667D01*
X24200000Y-4571429D01*
X24152381Y-4428571D01*
X24152381Y-4333333D01*
X24200000Y-4190476D01*
X24247619Y-4142857D01*
X25152381Y-3666667D02*
X25152381Y-3476191D01*
X25104762Y-3380952D01*
X25057143Y-3333333D01*
X24914286Y-3238095D01*
X24723810Y-3190476D01*
X24342857Y-3190476D01*
X24247619Y-3238095D01*
X24200000Y-3285714D01*
X24152381Y-3380952D01*
X24152381Y-3571429D01*
X24200000Y-3666667D01*
X24247619Y-3714286D01*
X24342857Y-3761905D01*
X24580952Y-3761905D01*
X24676190Y-3714286D01*
X24723810Y-3666667D01*
X24771429Y-3571429D01*
X24771429Y-3380952D01*
X24723810Y-3285714D01*
X24676190Y-3238095D01*
X24580952Y-3190476D01*
X25152381Y-2714286D02*
X25152381Y-2523810D01*
X25104762Y-2428571D01*
X25057143Y-2380952D01*
X24914286Y-2285714D01*
X24723810Y-2238095D01*
X24342857Y-2238095D01*
X24247619Y-2285714D01*
X24200000Y-2333333D01*
X24152381Y-2428571D01*
X24152381Y-2619048D01*
X24200000Y-2714286D01*
X24247619Y-2761905D01*
X24342857Y-2809524D01*
X24580952Y-2809524D01*
X24676190Y-2761905D01*
X24723810Y-2714286D01*
X24771429Y-2619048D01*
X24771429Y-2428571D01*
X24723810Y-2333333D01*
X24676190Y-2285714D01*
X24580952Y-2238095D01*
X12386770Y-8422471D02*
X12386770Y-8489814D01*
X12319426Y-8624501D01*
X12252083Y-8691845D01*
X12117395Y-8759189D01*
X11982708Y-8759189D01*
X11881693Y-8725517D01*
X11713335Y-8624502D01*
X11612319Y-8523486D01*
X11511304Y-8355127D01*
X11477632Y-8254112D01*
X11477632Y-8119425D01*
X11544976Y-7984738D01*
X11612319Y-7917394D01*
X11747006Y-7850051D01*
X11814350Y-7850051D01*
X11982708Y-7547006D02*
X12420441Y-7109272D01*
X12454112Y-7614349D01*
X12555128Y-7513333D01*
X12656143Y-7479661D01*
X12723487Y-7479661D01*
X12824503Y-7513334D01*
X12992861Y-7681692D01*
X13026533Y-7782708D01*
X13026533Y-7850051D01*
X12992861Y-7951066D01*
X12790830Y-8153097D01*
X12689815Y-8186769D01*
X12622472Y-8186769D01*
X5232606Y-10768307D02*
X5232606Y-10835650D01*
X5165262Y-10970337D01*
X5097919Y-11037681D01*
X4963231Y-11105025D01*
X4828544Y-11105025D01*
X4727529Y-11071353D01*
X4559171Y-10970338D01*
X4458155Y-10869322D01*
X4357140Y-10700963D01*
X4323468Y-10599948D01*
X4323468Y-10465261D01*
X4390812Y-10330574D01*
X4458155Y-10263230D01*
X4592842Y-10195887D01*
X4660186Y-10195887D01*
X5434636Y-9758154D02*
X5906041Y-10229559D01*
X4996903Y-9657140D02*
X5333621Y-10330575D01*
X5771354Y-9892842D01*
X-4247619Y-761905D02*
X-3438095Y-761905D01*
X-3342857Y-714286D01*
X-3295238Y-666667D01*
X-3247619Y-571429D01*
X-3247619Y-380952D01*
X-3295238Y-285714D01*
X-3342857Y-238095D01*
X-3438095Y-190476D01*
X-4247619Y-190476D01*
X-4247619Y190476D02*
X-4247619Y809524D01*
X-3866667Y476190D01*
X-3866667Y619048D01*
X-3819048Y714286D01*
X-3771429Y761905D01*
X-3676190Y809524D01*
X-3438095Y809524D01*
X-3342857Y761905D01*
X-3295238Y714286D01*
X-3247619Y619048D01*
X-3247619Y333333D01*
X-3295238Y238095D01*
X-3342857Y190476D01*
X-12768165Y-14899341D02*
X-12061058Y-14192234D01*
X-11892699Y-14360593D01*
X-11825355Y-14495280D01*
X-11825355Y-14629967D01*
X-11859027Y-14730982D01*
X-11960042Y-14899341D01*
X-12061058Y-15000357D01*
X-12229416Y-15101372D01*
X-12330432Y-15135043D01*
X-12465118Y-15135043D01*
X-12599806Y-15067699D01*
X-12768165Y-14899341D01*
X-11690668Y-15976837D02*
X-12094730Y-15572776D01*
X-11892699Y-15774806D02*
X-11185593Y-15067699D01*
X-11353951Y-15101371D01*
X-11488638Y-15101371D01*
X-11589653Y-15067699D01*
X-13680423Y-9461599D02*
X-12973316Y-8754492D01*
X-12804957Y-8922851D01*
X-12737613Y-9057538D01*
X-12737613Y-9192225D01*
X-12771285Y-9293240D01*
X-12872300Y-9461599D01*
X-12973316Y-9562615D01*
X-13141674Y-9663630D01*
X-13242690Y-9697301D01*
X-13377376Y-9697301D01*
X-13512064Y-9629957D01*
X-13680423Y-9461599D01*
X-12367224Y-9495270D02*
X-12299881Y-9495270D01*
X-12198866Y-9528942D01*
X-12030506Y-9697301D01*
X-11996835Y-9798317D01*
X-11996835Y-9865660D01*
X-12030506Y-9966675D01*
X-12097850Y-10034019D01*
X-12232537Y-10101362D01*
X-13040659Y-10101362D01*
X-12602926Y-10539095D01*
X-22064175Y20313245D02*
X-21491756Y19740825D01*
X-21390740Y19707153D01*
X-21323397Y19707153D01*
X-21222382Y19740825D01*
X-21087694Y19875512D01*
X-21054023Y19976528D01*
X-21054023Y20043871D01*
X-21087694Y20144886D01*
X-21660114Y20717306D01*
X-20784649Y21121367D02*
X-20313244Y20649963D01*
X-21222382Y21222382D02*
X-20885664Y20548947D01*
X-20447931Y20986680D01*
X-20515275Y21862145D02*
X-20447931Y21929489D01*
X-20346916Y21963161D01*
X-20279572Y21963161D01*
X-20178557Y21929489D01*
X-20010199Y21828474D01*
X-19841839Y21660115D01*
X-19740824Y21491756D01*
X-19707152Y21390741D01*
X-19707152Y21323398D01*
X-19740824Y21222383D01*
X-19808168Y21155038D01*
X-19909183Y21121367D01*
X-19976527Y21121367D01*
X-20077542Y21155038D01*
X-20245901Y21256054D01*
X-20414260Y21424413D01*
X-20515275Y21592771D01*
X-20548947Y21693787D01*
X-20548947Y21761130D01*
X-20515275Y21862145D01*
X-31094114Y13876065D02*
X-30387007Y14583172D01*
X-30218648Y14414813D01*
X-30151304Y14280126D01*
X-30151304Y14145439D01*
X-30184976Y14044424D01*
X-30285991Y13876065D01*
X-30387007Y13775049D01*
X-30555365Y13674034D01*
X-30656381Y13640363D01*
X-30791067Y13640363D01*
X-30925755Y13707707D01*
X-31094114Y13876065D01*
X-29747244Y13943409D02*
X-29309510Y13505676D01*
X-29814587Y13472005D01*
X-29713571Y13370989D01*
X-29679899Y13269974D01*
X-29679899Y13202630D01*
X-29713572Y13101614D01*
X-29881930Y12933256D01*
X-29982946Y12899584D01*
X-30050289Y12899584D01*
X-30151304Y12933256D01*
X-30353335Y13135287D01*
X-30387007Y13236302D01*
X-30387007Y13303645D01*
X-14006850Y-11154279D02*
X-14074193Y-11154279D01*
X-14208880Y-11086935D01*
X-14276224Y-11019592D01*
X-14343568Y-10884904D01*
X-14343568Y-10750217D01*
X-14309896Y-10649202D01*
X-14208881Y-10480843D01*
X-14107865Y-10379828D01*
X-13939507Y-10278812D01*
X-13838491Y-10245141D01*
X-13703804Y-10245141D01*
X-13569117Y-10312485D01*
X-13501773Y-10379828D01*
X-13434430Y-10514515D01*
X-13434430Y-10581859D01*
X-13400758Y-11895057D02*
X-13804820Y-11490996D01*
X-13602789Y-11693026D02*
X-12895683Y-10985919D01*
X-13064041Y-11019591D01*
X-13198728Y-11019591D01*
X-13299743Y-10985919D01*
X-12727323Y-12568492D02*
X-13131385Y-12164431D01*
X-12929354Y-12366461D02*
X-12222248Y-11659354D01*
X-12390606Y-11693026D01*
X-12525293Y-11693026D01*
X-12626308Y-11659354D01*
X-11380453Y-12501149D02*
X-11717171Y-12164431D01*
X-12087560Y-12467476D01*
X-12020216Y-12467476D01*
X-11919201Y-12501148D01*
X-11750842Y-12669507D01*
X-11717170Y-12770522D01*
X-11717170Y-12837866D01*
X-11750843Y-12938882D01*
X-11919201Y-13107240D01*
X-12020216Y-13140912D01*
X-12087560Y-13140912D01*
X-12188575Y-13107240D01*
X-12356934Y-12938881D01*
X-12390606Y-12837866D01*
X-12390606Y-12770522D01*
X10691438Y-6415126D02*
X10354720Y-6751844D01*
X10826125Y-5809035D02*
X10691438Y-6415126D01*
X11297530Y-6280440D01*
X11432217Y-6549813D02*
X11499560Y-6549813D01*
X11600575Y-6583485D01*
X11768935Y-6751844D01*
X11802606Y-6852860D01*
X11802606Y-6920203D01*
X11768935Y-7021218D01*
X11701591Y-7088562D01*
X11566904Y-7155905D01*
X10758782Y-7155905D01*
X11196515Y-7593638D01*
X-19728087Y12395516D02*
X-19728087Y12328173D01*
X-19795431Y12193486D01*
X-19862774Y12126142D01*
X-19997462Y12058798D01*
X-20132149Y12058798D01*
X-20233164Y12092470D01*
X-20401523Y12193485D01*
X-20502538Y12294501D01*
X-20603554Y12462859D01*
X-20637225Y12563875D01*
X-20637225Y12698562D01*
X-20569881Y12833249D01*
X-20502538Y12900593D01*
X-20367851Y12967936D01*
X-20300507Y12967936D01*
X-18987309Y13001608D02*
X-19391370Y12597546D01*
X-19189340Y12799577D02*
X-19896447Y13506683D01*
X-19862775Y13338325D01*
X-19862775Y13203638D01*
X-19896447Y13102623D01*
X-18313874Y13675043D02*
X-18717935Y13270981D01*
X-18515905Y13473012D02*
X-19223012Y14180118D01*
X-19189340Y14011760D01*
X-19189340Y13877073D01*
X-19223012Y13776058D01*
X-17640439Y14348478D02*
X-18044500Y13944416D01*
X-17842470Y14146447D02*
X-18549577Y14853554D01*
X-18515905Y14685195D01*
X-18515905Y14550508D01*
X-18549577Y14449493D01*
X-19049407Y15066836D02*
X-19049407Y14999493D01*
X-19116751Y14864806D01*
X-19184094Y14797462D01*
X-19318782Y14730118D01*
X-19453469Y14730118D01*
X-19554484Y14763790D01*
X-19722843Y14864805D01*
X-19823858Y14965821D01*
X-19924874Y15134179D01*
X-19958545Y15235195D01*
X-19958545Y15369882D01*
X-19891201Y15504569D01*
X-19823858Y15571913D01*
X-19689171Y15639256D01*
X-19621827Y15639256D01*
X-18308629Y15672928D02*
X-18712690Y15268866D01*
X-18510660Y15470897D02*
X-19217767Y16178003D01*
X-19184095Y16009645D01*
X-19184095Y15874958D01*
X-19217767Y15773943D01*
X-17635194Y16346363D02*
X-18039255Y15942301D01*
X-17837225Y16144332D02*
X-18544332Y16851438D01*
X-18510660Y16683080D01*
X-18510660Y16548393D01*
X-18544332Y16447378D01*
X-18005584Y17255500D02*
X-18005584Y17322843D01*
X-17971912Y17423858D01*
X-17803553Y17592218D01*
X-17702537Y17625889D01*
X-17635194Y17625889D01*
X-17534179Y17592218D01*
X-17466835Y17524874D01*
X-17399492Y17390187D01*
X-17399492Y16582065D01*
X-16961759Y17019798D01*
X-15061407Y12462836D02*
X-15061407Y12395493D01*
X-15128751Y12260806D01*
X-15196094Y12193462D01*
X-15330782Y12126118D01*
X-15465469Y12126118D01*
X-15566484Y12159790D01*
X-15734843Y12260805D01*
X-15835858Y12361821D01*
X-15936874Y12530179D01*
X-15970545Y12631195D01*
X-15970545Y12765882D01*
X-15903201Y12900569D01*
X-15835858Y12967913D01*
X-15701171Y13035256D01*
X-15633827Y13035256D01*
X-14320629Y13068928D02*
X-14724690Y12664866D01*
X-14522660Y12866897D02*
X-15229767Y13574003D01*
X-15196095Y13405645D01*
X-15196095Y13270958D01*
X-15229767Y13169943D01*
X-13647194Y13742363D02*
X-14051255Y13338301D01*
X-13849225Y13540332D02*
X-14556332Y14247438D01*
X-14522660Y14079080D01*
X-14522660Y13944393D01*
X-14556332Y13843378D01*
X-14118599Y14685172D02*
X-13647194Y15156576D01*
X-13243133Y14146423D01*
X12624593Y-15223164D02*
X12624593Y-15290507D01*
X12557249Y-15425194D01*
X12489906Y-15492538D01*
X12355218Y-15559882D01*
X12220531Y-15559882D01*
X12119516Y-15526210D01*
X11951157Y-15425195D01*
X11850142Y-15324179D01*
X11749126Y-15155821D01*
X11715455Y-15054805D01*
X11715455Y-14920118D01*
X11782799Y-14785431D01*
X11850142Y-14718087D01*
X11984829Y-14650744D01*
X12052173Y-14650744D01*
X13365371Y-14617072D02*
X12961310Y-15021134D01*
X13163340Y-14819103D02*
X12456233Y-14111997D01*
X12489905Y-14280355D01*
X12489905Y-14415042D01*
X12456233Y-14516057D01*
X12994981Y-13707935D02*
X12994981Y-13640592D01*
X13028653Y-13539577D01*
X13197012Y-13371217D01*
X13298028Y-13337546D01*
X13365371Y-13337546D01*
X13466386Y-13371217D01*
X13533730Y-13438561D01*
X13601073Y-13573248D01*
X13601073Y-14381370D01*
X14038806Y-13943637D01*
X13769432Y-12798798D02*
X13836776Y-12731454D01*
X13937791Y-12697782D01*
X14005134Y-12697782D01*
X14106150Y-12731454D01*
X14274508Y-12832469D01*
X14442867Y-13000828D01*
X14543883Y-13169187D01*
X14577554Y-13270202D01*
X14577554Y-13337546D01*
X14543883Y-13438561D01*
X14476538Y-13505905D01*
X14375523Y-13539577D01*
X14308180Y-13539577D01*
X14207165Y-13505905D01*
X14038806Y-13404890D01*
X13870447Y-13236530D01*
X13769432Y-13068172D01*
X13735760Y-12967157D01*
X13735760Y-12899813D01*
X13769432Y-12798798D01*
X-9003087Y8436516D02*
X-9003087Y8369173D01*
X-9070431Y8234486D01*
X-9137774Y8167142D01*
X-9272462Y8099798D01*
X-9407149Y8099798D01*
X-9508164Y8133470D01*
X-9676523Y8234485D01*
X-9777538Y8335501D01*
X-9878554Y8503859D01*
X-9912225Y8604875D01*
X-9912225Y8739562D01*
X-9844881Y8874249D01*
X-9777538Y8941593D01*
X-9642851Y9008936D01*
X-9575507Y9008936D01*
X-8262309Y9042608D02*
X-8666370Y8638546D01*
X-8464340Y8840577D02*
X-9171447Y9547683D01*
X-9137775Y9379325D01*
X-9137775Y9244638D01*
X-9171447Y9143623D01*
X-8632699Y9951745D02*
X-8632699Y10019088D01*
X-8599027Y10120103D01*
X-8430668Y10288463D01*
X-8329652Y10322134D01*
X-8262309Y10322134D01*
X-8161294Y10288463D01*
X-8093950Y10221119D01*
X-8026607Y10086432D01*
X-8026607Y9278310D01*
X-7588874Y9716043D01*
X-6915439Y10389478D02*
X-7319500Y9985416D01*
X-7117470Y10187447D02*
X-7824577Y10894554D01*
X-7790905Y10726195D01*
X-7790905Y10591508D01*
X-7824577Y10490493D01*
X9830593Y-12429164D02*
X9830593Y-12496507D01*
X9763249Y-12631194D01*
X9695906Y-12698538D01*
X9561218Y-12765882D01*
X9426531Y-12765882D01*
X9325516Y-12732210D01*
X9157157Y-12631195D01*
X9056142Y-12530179D01*
X8955126Y-12361821D01*
X8921455Y-12260805D01*
X8921455Y-12126118D01*
X8988799Y-11991431D01*
X9056142Y-11924087D01*
X9190829Y-11856744D01*
X9258173Y-11856744D01*
X10571371Y-11823072D02*
X10167310Y-12227134D01*
X10369340Y-12025103D02*
X9662233Y-11317997D01*
X9695905Y-11486355D01*
X9695905Y-11621042D01*
X9662233Y-11722057D01*
X10200981Y-10913935D02*
X10200981Y-10846592D01*
X10234653Y-10745577D01*
X10403012Y-10577217D01*
X10504028Y-10543546D01*
X10571371Y-10543546D01*
X10672386Y-10577217D01*
X10739730Y-10644561D01*
X10807073Y-10779248D01*
X10807073Y-11587370D01*
X11244806Y-11149637D01*
X10773401Y-10206828D02*
X11211134Y-9769095D01*
X11244805Y-10274172D01*
X11345821Y-10173156D01*
X11446836Y-10139484D01*
X11514180Y-10139484D01*
X11615196Y-10173157D01*
X11783554Y-10341515D01*
X11817226Y-10442530D01*
X11817226Y-10509874D01*
X11783554Y-10610889D01*
X11581523Y-10812920D01*
X11480508Y-10846592D01*
X11413165Y-10846592D01*
X-12137484Y-11443913D02*
X-12204827Y-11443913D01*
X-12339514Y-11376569D01*
X-12406858Y-11309226D01*
X-12474202Y-11174538D01*
X-12474202Y-11039851D01*
X-12440530Y-10938836D01*
X-12339515Y-10770477D01*
X-12238499Y-10669462D01*
X-12070141Y-10568446D01*
X-11969125Y-10534775D01*
X-11834438Y-10534775D01*
X-11699751Y-10602119D01*
X-11632407Y-10669462D01*
X-11565064Y-10804149D01*
X-11565064Y-10871493D01*
X-11531392Y-12184691D02*
X-11935454Y-11780630D01*
X-11733423Y-11982660D02*
X-11026317Y-11275553D01*
X-11194675Y-11309225D01*
X-11329362Y-11309225D01*
X-11430377Y-11275553D01*
X-10857957Y-12858126D02*
X-11262019Y-12454065D01*
X-11059988Y-12656095D02*
X-10352882Y-11948988D01*
X-10521240Y-11982660D01*
X-10655927Y-11982660D01*
X-10756942Y-11948988D01*
X-10521240Y-13194843D02*
X-10386553Y-13329530D01*
X-10285537Y-13363203D01*
X-10218194Y-13363203D01*
X-10049835Y-13329531D01*
X-9881477Y-13228516D01*
X-9612102Y-12959141D01*
X-9578431Y-12858126D01*
X-9578431Y-12790783D01*
X-9612102Y-12689767D01*
X-9746790Y-12555080D01*
X-9847805Y-12521408D01*
X-9915148Y-12521408D01*
X-10016164Y-12555080D01*
X-10184522Y-12723438D01*
X-10218194Y-12824454D01*
X-10218195Y-12891798D01*
X-10184523Y-12992813D01*
X-10049835Y-13127501D01*
X-9948820Y-13161172D01*
X-9881476Y-13161172D01*
X-9780461Y-13127500D01*
X-7857164Y-5385593D02*
X-7924507Y-5385593D01*
X-8059194Y-5318249D01*
X-8126538Y-5250906D01*
X-8193882Y-5116218D01*
X-8193882Y-4981531D01*
X-8160210Y-4880516D01*
X-8059195Y-4712157D01*
X-7958179Y-4611142D01*
X-7789821Y-4510126D01*
X-7688805Y-4476455D01*
X-7554118Y-4476455D01*
X-7419431Y-4543799D01*
X-7352087Y-4611142D01*
X-7284744Y-4745829D01*
X-7284744Y-4813173D01*
X-7251072Y-6126371D02*
X-7655134Y-5722310D01*
X-7453103Y-5924340D02*
X-6745997Y-5217233D01*
X-6914355Y-5250905D01*
X-7049042Y-5250905D01*
X-7150057Y-5217233D01*
X-6341935Y-5755981D02*
X-6274592Y-5755981D01*
X-6173577Y-5789653D01*
X-6005217Y-5958012D01*
X-5971546Y-6059028D01*
X-5971546Y-6126371D01*
X-6005217Y-6227386D01*
X-6072561Y-6294730D01*
X-6207248Y-6362073D01*
X-7015370Y-6362073D01*
X-6577637Y-6799806D01*
X-5668500Y-6429416D02*
X-5601157Y-6429416D01*
X-5500142Y-6463088D01*
X-5331782Y-6631447D01*
X-5298111Y-6732463D01*
X-5298111Y-6799806D01*
X-5331782Y-6900821D01*
X-5399126Y-6968165D01*
X-5533813Y-7035508D01*
X-6341935Y-7035508D01*
X-5904202Y-7473241D01*
X-19290721Y12008150D02*
X-19290721Y11940807D01*
X-19358065Y11806120D01*
X-19425408Y11738776D01*
X-19560096Y11671432D01*
X-19694783Y11671432D01*
X-19795798Y11705104D01*
X-19964157Y11806119D01*
X-20065172Y11907135D01*
X-20166188Y12075493D01*
X-20199859Y12176509D01*
X-20199859Y12311196D01*
X-20132515Y12445883D01*
X-20065172Y12513227D01*
X-19930485Y12580570D01*
X-19863141Y12580570D01*
X-18549943Y12614242D02*
X-18954004Y12210180D01*
X-18751974Y12412211D02*
X-19459081Y13119317D01*
X-19425409Y12950959D01*
X-19425409Y12816272D01*
X-19459081Y12715257D01*
X-18819317Y13759081D02*
X-18751973Y13826425D01*
X-18650958Y13860097D01*
X-18583615Y13860097D01*
X-18482600Y13826425D01*
X-18314241Y13725410D01*
X-18145882Y13557050D01*
X-18044867Y13388692D01*
X-18011195Y13287677D01*
X-18011195Y13220333D01*
X-18044867Y13119318D01*
X-18112211Y13051974D01*
X-18213226Y13018302D01*
X-18280569Y13018302D01*
X-18381584Y13051974D01*
X-18549943Y13152989D01*
X-18718302Y13321348D01*
X-18819317Y13489707D01*
X-18852989Y13590722D01*
X-18852989Y13658066D01*
X-18819317Y13759081D01*
X-17539791Y13624394D02*
X-17405104Y13759081D01*
X-17371431Y13860097D01*
X-17371431Y13927440D01*
X-17405103Y14095799D01*
X-17506118Y14264157D01*
X-17775493Y14533532D01*
X-17876508Y14567203D01*
X-17943851Y14567203D01*
X-18044867Y14533532D01*
X-18179554Y14398844D01*
X-18213226Y14297829D01*
X-18213226Y14230486D01*
X-18179554Y14129470D01*
X-18011196Y13961112D01*
X-17910180Y13927440D01*
X-17842836Y13927439D01*
X-17741821Y13961111D01*
X-17607133Y14095799D01*
X-17573462Y14196814D01*
X-17573462Y14264158D01*
X-17607134Y14365173D01*
X-18286773Y14354202D02*
X-18286773Y14286859D01*
X-18354117Y14152172D01*
X-18421460Y14084828D01*
X-18556148Y14017484D01*
X-18690835Y14017484D01*
X-18791850Y14051156D01*
X-18960209Y14152171D01*
X-19061224Y14253187D01*
X-19162240Y14421545D01*
X-19195911Y14522561D01*
X-19195911Y14657248D01*
X-19128567Y14791935D01*
X-19061224Y14859279D01*
X-18926537Y14926622D01*
X-18859193Y14926622D01*
X-17545995Y14960294D02*
X-17950056Y14556232D01*
X-17748026Y14758263D02*
X-18455133Y15465369D01*
X-18421461Y15297011D01*
X-18421461Y15162324D01*
X-18455133Y15061309D01*
X-16872560Y15633729D02*
X-17276621Y15229667D01*
X-17074591Y15431698D02*
X-17781698Y16138804D01*
X-17748026Y15970446D01*
X-17748026Y15835759D01*
X-17781698Y15734744D01*
X-17141934Y16778568D02*
X-17074590Y16845912D01*
X-16973575Y16879584D01*
X-16906232Y16879584D01*
X-16805216Y16845912D01*
X-16636858Y16744897D01*
X-16468499Y16576538D01*
X-16367483Y16408179D01*
X-16333812Y16307164D01*
X-16333812Y16239820D01*
X-16367483Y16138805D01*
X-16434828Y16071461D01*
X-16535843Y16037789D01*
X-16603186Y16037789D01*
X-16704201Y16071461D01*
X-16872560Y16172476D01*
X-17040919Y16340836D01*
X-17141934Y16509194D01*
X-17175606Y16610209D01*
X-17175606Y16677553D01*
X-17141934Y16778568D01*
X-10651164Y-10592593D02*
X-10718507Y-10592593D01*
X-10853194Y-10525249D01*
X-10920538Y-10457906D01*
X-10987882Y-10323218D01*
X-10987882Y-10188531D01*
X-10954210Y-10087516D01*
X-10853195Y-9919157D01*
X-10752179Y-9818142D01*
X-10583821Y-9717126D01*
X-10482805Y-9683455D01*
X-10348118Y-9683455D01*
X-10213431Y-9750799D01*
X-10146087Y-9818142D01*
X-10078744Y-9952829D01*
X-10078744Y-10020173D01*
X-10045072Y-11333371D02*
X-10449134Y-10929310D01*
X-10247103Y-11131340D02*
X-9539997Y-10424233D01*
X-9708355Y-10457905D01*
X-9843042Y-10457905D01*
X-9944057Y-10424233D01*
X-9371637Y-12006806D02*
X-9775699Y-11602745D01*
X-9573668Y-11804775D02*
X-8866562Y-11097668D01*
X-9034920Y-11131340D01*
X-9169607Y-11131340D01*
X-9270622Y-11097668D01*
X-8294141Y-12141493D02*
X-8765546Y-12612898D01*
X-8193126Y-11703760D02*
X-8866562Y-12040478D01*
X-8428828Y-12478211D01*
X-29098275Y24464451D02*
X-29805382Y25171558D01*
X-29536008Y25440933D01*
X-29434992Y25474604D01*
X-29367649Y25474604D01*
X-29266634Y25440933D01*
X-29165619Y25339917D01*
X-29131947Y25238902D01*
X-29131947Y25171559D01*
X-29165619Y25070544D01*
X-29434993Y24801169D01*
X-28795229Y26181711D02*
X-28929917Y26047023D01*
X-28963588Y25946008D01*
X-28963588Y25878665D01*
X-28929917Y25710306D01*
X-28828902Y25541948D01*
X-28559527Y25272573D01*
X-28458512Y25238902D01*
X-28391169Y25238902D01*
X-28290153Y25272573D01*
X-28155466Y25407261D01*
X-28121794Y25508276D01*
X-28121794Y25575619D01*
X-28155466Y25676635D01*
X-28323824Y25844993D01*
X-28424840Y25878666D01*
X-28492184Y25878666D01*
X-28593199Y25844994D01*
X-28727886Y25710306D01*
X-28761558Y25609291D01*
X-28761558Y25541948D01*
X-28727886Y25440932D01*
X28694215Y-26148039D02*
X27987108Y-25440932D01*
X28256482Y-25171557D01*
X28357498Y-25137886D01*
X28424841Y-25137886D01*
X28525856Y-25171557D01*
X28626871Y-25272573D01*
X28660543Y-25373588D01*
X28660543Y-25440931D01*
X28626871Y-25541946D01*
X28357497Y-25811321D01*
X28626871Y-24801169D02*
X29098276Y-24329764D01*
X29502337Y-25339917D01*
M02*
