G04 #@! TF.FileFunction,Soldermask,Bot*
%FSLAX46Y46*%
G04 Gerber Fmt 4.6, Leading zero omitted, Abs format (unit mm)*
G04 Created by KiCad (PCBNEW 4.0.6-e0-6349~53~ubuntu14.04.1) date Wed Mar 22 00:16:22 2017*
%MOMM*%
%LPD*%
G01*
G04 APERTURE LIST*
%ADD10C,0.100000*%
%ADD11C,1.300000*%
%ADD12C,2.127200*%
%ADD13R,1.750000X1.750000*%
%ADD14C,1.750000*%
%ADD15R,1.160000X2.000000*%
%ADD16R,2.432000X2.432000*%
%ADD17O,2.432000X2.432000*%
%ADD18C,1.200000*%
%ADD19R,1.250000X0.700000*%
%ADD20R,0.700000X1.250000*%
%ADD21R,1.700000X1.700000*%
%ADD22R,2.127200X2.127200*%
%ADD23O,2.127200X2.127200*%
%ADD24R,0.900000X1.000000*%
%ADD25R,1.149300X0.798780*%
%ADD26R,0.798780X1.149300*%
%ADD27R,2.000000X1.700000*%
%ADD28C,1.350000*%
%ADD29C,1.950000*%
G04 APERTURE END LIST*
D10*
D11*
X71294005Y54172685D03*
X69172685Y56294005D03*
D10*
G36*
X63888079Y31392237D02*
X65607763Y33111921D01*
X67111921Y31607763D01*
X65392237Y29888079D01*
X63888079Y31392237D01*
X63888079Y31392237D01*
G37*
D12*
X67403814Y29811712D02*
X67188288Y29596186D01*
X69199865Y28015661D02*
X68984339Y27800135D01*
D11*
X-64005995Y-40877315D03*
X-66127315Y-38755995D03*
D13*
X52950000Y65950000D03*
D14*
X52950000Y63950000D03*
X52950000Y61950000D03*
D15*
X-71120000Y29210000D03*
X-80010000Y34290000D03*
X-72390000Y29210000D03*
X-78740000Y34290000D03*
X-73660000Y29210000D03*
X-77470000Y34290000D03*
X-74930000Y29210000D03*
X-76200000Y34290000D03*
X-76200000Y29210000D03*
X-74930000Y34290000D03*
X-77470000Y29210000D03*
X-73660000Y34290000D03*
X-78740000Y29210000D03*
X-72390000Y34290000D03*
X-80010000Y29210000D03*
X-71120000Y34290000D03*
D16*
X0Y-45075001D03*
D17*
X2540000Y-45075001D03*
D18*
X0Y-45075001D03*
D10*
G36*
X17806978Y9958093D02*
X16817029Y8968144D01*
X16039212Y9745961D01*
X17029161Y10735910D01*
X17806978Y9958093D01*
X17806978Y9958093D01*
G37*
G36*
X16392765Y11372307D02*
X15402816Y10382358D01*
X14624999Y11160175D01*
X15614948Y12150124D01*
X16392765Y11372307D01*
X16392765Y11372307D01*
G37*
G36*
X14978551Y12786521D02*
X13988602Y11796572D01*
X13210785Y12574389D01*
X14200734Y13564338D01*
X14978551Y12786521D01*
X14978551Y12786521D01*
G37*
G36*
X13564338Y14200734D02*
X12574389Y13210785D01*
X11796572Y13988602D01*
X12786521Y14978551D01*
X13564338Y14200734D01*
X13564338Y14200734D01*
G37*
G36*
X12150124Y15614948D02*
X11160175Y14624999D01*
X10382358Y15402816D01*
X11372307Y16392765D01*
X12150124Y15614948D01*
X12150124Y15614948D01*
G37*
G36*
X10735910Y17029161D02*
X9745961Y16039212D01*
X8968144Y16817029D01*
X9958093Y17806978D01*
X10735910Y17029161D01*
X10735910Y17029161D01*
G37*
G36*
X10170226Y19362614D02*
X9392408Y18584796D01*
X8119616Y19857588D01*
X8897434Y20635406D01*
X10170226Y19362614D01*
X10170226Y19362614D01*
G37*
G36*
X11584439Y20776828D02*
X10806621Y19999010D01*
X9533829Y21271802D01*
X10311647Y22049620D01*
X11584439Y20776828D01*
X11584439Y20776828D01*
G37*
G36*
X12998653Y22191041D02*
X12220835Y21413223D01*
X10948043Y22686015D01*
X11725861Y23463833D01*
X12998653Y22191041D01*
X12998653Y22191041D01*
G37*
G36*
X14412866Y23605255D02*
X13635048Y22827437D01*
X12362256Y24100229D01*
X13140074Y24878047D01*
X14412866Y23605255D01*
X14412866Y23605255D01*
G37*
G36*
X15827080Y25019468D02*
X15049262Y24241650D01*
X13776470Y25514442D01*
X14554288Y26292260D01*
X15827080Y25019468D01*
X15827080Y25019468D01*
G37*
G36*
X17241293Y26433682D02*
X16463475Y25655864D01*
X15190683Y26928656D01*
X15968501Y27706474D01*
X17241293Y26433682D01*
X17241293Y26433682D01*
G37*
G36*
X18655507Y27847895D02*
X17877689Y27070077D01*
X16604897Y28342869D01*
X17382715Y29120687D01*
X18655507Y27847895D01*
X18655507Y27847895D01*
G37*
G36*
X20069721Y29262109D02*
X19291903Y28484291D01*
X18019111Y29757083D01*
X18796929Y30534901D01*
X20069721Y29262109D01*
X20069721Y29262109D01*
G37*
G36*
X20635406Y8897434D02*
X19857588Y8119616D01*
X18584796Y9392408D01*
X19362614Y10170226D01*
X20635406Y8897434D01*
X20635406Y8897434D01*
G37*
G36*
X22049620Y10311647D02*
X21271802Y9533829D01*
X19999010Y10806621D01*
X20776828Y11584439D01*
X22049620Y10311647D01*
X22049620Y10311647D01*
G37*
G36*
X23463833Y11725861D02*
X22686015Y10948043D01*
X21413223Y12220835D01*
X22191041Y12998653D01*
X23463833Y11725861D01*
X23463833Y11725861D01*
G37*
G36*
X24878047Y13140074D02*
X24100229Y12362256D01*
X22827437Y13635048D01*
X23605255Y14412866D01*
X24878047Y13140074D01*
X24878047Y13140074D01*
G37*
G36*
X26292260Y14554288D02*
X25514442Y13776470D01*
X24241650Y15049262D01*
X25019468Y15827080D01*
X26292260Y14554288D01*
X26292260Y14554288D01*
G37*
G36*
X27706474Y15968501D02*
X26928656Y15190683D01*
X25655864Y16463475D01*
X26433682Y17241293D01*
X27706474Y15968501D01*
X27706474Y15968501D01*
G37*
G36*
X29120687Y17382715D02*
X28342869Y16604897D01*
X27070077Y17877689D01*
X27847895Y18655507D01*
X29120687Y17382715D01*
X29120687Y17382715D01*
G37*
G36*
X30534901Y18796929D02*
X29757083Y18019111D01*
X28484291Y19291903D01*
X29262109Y20069721D01*
X30534901Y18796929D01*
X30534901Y18796929D01*
G37*
D19*
X1950000Y20935000D03*
X1950000Y20435000D03*
X1950000Y19935000D03*
X1950000Y19435000D03*
X1950000Y18935000D03*
X1950000Y18435000D03*
D20*
X1250000Y17735000D03*
X750000Y17735000D03*
X250000Y17735000D03*
X-250000Y17735000D03*
X-750000Y17735000D03*
X-1250000Y17735000D03*
D19*
X-1950000Y18435000D03*
X-1950000Y18935000D03*
X-1950000Y19435000D03*
X-1950000Y19935000D03*
X-1950000Y20435000D03*
X-1950000Y20935000D03*
D20*
X-1250000Y21635000D03*
X-750000Y21635000D03*
X-250000Y21635000D03*
X250000Y21635000D03*
X750000Y21635000D03*
X1250000Y21635000D03*
D21*
X-650000Y19035000D03*
X-650000Y20335000D03*
X650000Y19035000D03*
X650000Y20335000D03*
D10*
G36*
X-23966441Y16973155D02*
X-23259334Y17680262D01*
X-21915831Y16336759D01*
X-22622938Y15629652D01*
X-23966441Y16973155D01*
X-23966441Y16973155D01*
G37*
G36*
X-23068416Y17871181D02*
X-22361309Y18578288D01*
X-21017806Y17234785D01*
X-21724913Y16527678D01*
X-23068416Y17871181D01*
X-23068416Y17871181D01*
G37*
G36*
X-22170390Y18769206D02*
X-21463283Y19476313D01*
X-20119780Y18132810D01*
X-20826887Y17425703D01*
X-22170390Y18769206D01*
X-22170390Y18769206D01*
G37*
G36*
X-21272364Y19667232D02*
X-20565257Y20374339D01*
X-19221754Y19030836D01*
X-19928861Y18323729D01*
X-21272364Y19667232D01*
X-21272364Y19667232D01*
G37*
G36*
X-20374339Y20565257D02*
X-19667232Y21272364D01*
X-18323729Y19928861D01*
X-19030836Y19221754D01*
X-20374339Y20565257D01*
X-20374339Y20565257D01*
G37*
G36*
X-19476313Y21463283D02*
X-18769206Y22170390D01*
X-17425703Y20826887D01*
X-18132810Y20119780D01*
X-19476313Y21463283D01*
X-19476313Y21463283D01*
G37*
G36*
X-18578288Y22361309D02*
X-17871181Y23068416D01*
X-16527678Y21724913D01*
X-17234785Y21017806D01*
X-18578288Y22361309D01*
X-18578288Y22361309D01*
G37*
G36*
X-17680262Y23259334D02*
X-16973155Y23966441D01*
X-15629652Y22622938D01*
X-16336759Y21915831D01*
X-17680262Y23259334D01*
X-17680262Y23259334D01*
G37*
G36*
X-11104169Y16683241D02*
X-10397062Y17390348D01*
X-9053559Y16046845D01*
X-9760666Y15339738D01*
X-11104169Y16683241D01*
X-11104169Y16683241D01*
G37*
G36*
X-12002194Y15785215D02*
X-11295087Y16492322D01*
X-9951584Y15148819D01*
X-10658691Y14441712D01*
X-12002194Y15785215D01*
X-12002194Y15785215D01*
G37*
G36*
X-12900220Y14887190D02*
X-12193113Y15594297D01*
X-10849610Y14250794D01*
X-11556717Y13543687D01*
X-12900220Y14887190D01*
X-12900220Y14887190D01*
G37*
G36*
X-13798246Y13989164D02*
X-13091139Y14696271D01*
X-11747636Y13352768D01*
X-12454743Y12645661D01*
X-13798246Y13989164D01*
X-13798246Y13989164D01*
G37*
G36*
X-14696271Y13091139D02*
X-13989164Y13798246D01*
X-12645661Y12454743D01*
X-13352768Y11747636D01*
X-14696271Y13091139D01*
X-14696271Y13091139D01*
G37*
G36*
X-15594297Y12193113D02*
X-14887190Y12900220D01*
X-13543687Y11556717D01*
X-14250794Y10849610D01*
X-15594297Y12193113D01*
X-15594297Y12193113D01*
G37*
G36*
X-16492322Y11295087D02*
X-15785215Y12002194D01*
X-14441712Y10658691D01*
X-15148819Y9951584D01*
X-16492322Y11295087D01*
X-16492322Y11295087D01*
G37*
G36*
X-17390348Y10397062D02*
X-16683241Y11104169D01*
X-15339738Y9760666D01*
X-16046845Y9053559D01*
X-17390348Y10397062D01*
X-17390348Y10397062D01*
G37*
G36*
X-12019872Y-14848299D02*
X-13434086Y-13434085D01*
X-11949162Y-11949161D01*
X-10534948Y-13363375D01*
X-12019872Y-14848299D01*
X-12019872Y-14848299D01*
G37*
G36*
X-10605658Y-16262513D02*
X-12019872Y-14848299D01*
X-10534948Y-13363375D01*
X-9120734Y-14777589D01*
X-10605658Y-16262513D01*
X-10605658Y-16262513D01*
G37*
G36*
X-13434085Y-13434086D02*
X-14848299Y-12019872D01*
X-13363375Y-10534948D01*
X-11949161Y-11949162D01*
X-13434085Y-13434086D01*
X-13434085Y-13434086D01*
G37*
G36*
X-14848299Y-12019872D02*
X-16262513Y-10605658D01*
X-14777589Y-9120734D01*
X-13363375Y-10534948D01*
X-14848299Y-12019872D01*
X-14848299Y-12019872D01*
G37*
G36*
X-22485052Y-19656625D02*
X-23899266Y-18242411D01*
X-22414342Y-16757487D01*
X-21000128Y-18171701D01*
X-22485052Y-19656625D01*
X-22485052Y-19656625D01*
G37*
G36*
X-21070838Y-21070839D02*
X-22485052Y-19656625D01*
X-21000128Y-18171701D01*
X-19585914Y-19585915D01*
X-21070838Y-21070839D01*
X-21070838Y-21070839D01*
G37*
G36*
X-18242411Y-23899266D02*
X-19656625Y-22485052D01*
X-18171701Y-21000128D01*
X-16757487Y-22414342D01*
X-18242411Y-23899266D01*
X-18242411Y-23899266D01*
G37*
G36*
X-19656625Y-22485052D02*
X-21070839Y-21070838D01*
X-19585915Y-19585914D01*
X-18171701Y-21000128D01*
X-19656625Y-22485052D01*
X-19656625Y-22485052D01*
G37*
G36*
X14690143Y-1820800D02*
X14195169Y-2315774D01*
X12816311Y-936916D01*
X13311285Y-441942D01*
X14690143Y-1820800D01*
X14690143Y-1820800D01*
G37*
G36*
X14336590Y-2174354D02*
X13841616Y-2669328D01*
X12462758Y-1290470D01*
X12957732Y-795496D01*
X14336590Y-2174354D01*
X14336590Y-2174354D01*
G37*
G36*
X13983036Y-2527907D02*
X13488062Y-3022881D01*
X12109204Y-1644023D01*
X12604178Y-1149049D01*
X13983036Y-2527907D01*
X13983036Y-2527907D01*
G37*
G36*
X13629483Y-2881460D02*
X13134509Y-3376434D01*
X11755651Y-1997576D01*
X12250625Y-1502602D01*
X13629483Y-2881460D01*
X13629483Y-2881460D01*
G37*
G36*
X13275929Y-3235014D02*
X12780955Y-3729988D01*
X11402097Y-2351130D01*
X11897071Y-1856156D01*
X13275929Y-3235014D01*
X13275929Y-3235014D01*
G37*
G36*
X12922376Y-3588567D02*
X12427402Y-4083541D01*
X11048544Y-2704683D01*
X11543518Y-2209709D01*
X12922376Y-3588567D01*
X12922376Y-3588567D01*
G37*
G36*
X12568823Y-3942121D02*
X12073849Y-4437095D01*
X10694991Y-3058237D01*
X11189965Y-2563263D01*
X12568823Y-3942121D01*
X12568823Y-3942121D01*
G37*
G36*
X12215269Y-4295674D02*
X11720295Y-4790648D01*
X10341437Y-3411790D01*
X10836411Y-2916816D01*
X12215269Y-4295674D01*
X12215269Y-4295674D01*
G37*
G36*
X11861716Y-4649227D02*
X11366742Y-5144201D01*
X9987884Y-3765343D01*
X10482858Y-3270369D01*
X11861716Y-4649227D01*
X11861716Y-4649227D01*
G37*
G36*
X11508162Y-5002781D02*
X11013188Y-5497755D01*
X9634330Y-4118897D01*
X10129304Y-3623923D01*
X11508162Y-5002781D01*
X11508162Y-5002781D01*
G37*
G36*
X11154609Y-5356334D02*
X10659635Y-5851308D01*
X9280777Y-4472450D01*
X9775751Y-3977476D01*
X11154609Y-5356334D01*
X11154609Y-5356334D01*
G37*
G36*
X10801056Y-5709888D02*
X10306082Y-6204862D01*
X8927224Y-4826004D01*
X9422198Y-4331030D01*
X10801056Y-5709888D01*
X10801056Y-5709888D01*
G37*
G36*
X10447502Y-6063441D02*
X9952528Y-6558415D01*
X8573670Y-5179557D01*
X9068644Y-4684583D01*
X10447502Y-6063441D01*
X10447502Y-6063441D01*
G37*
G36*
X10093949Y-6416994D02*
X9598975Y-6911968D01*
X8220117Y-5533110D01*
X8715091Y-5038136D01*
X10093949Y-6416994D01*
X10093949Y-6416994D01*
G37*
G36*
X9740395Y-6770548D02*
X9245421Y-7265522D01*
X7866563Y-5886664D01*
X8361537Y-5391690D01*
X9740395Y-6770548D01*
X9740395Y-6770548D01*
G37*
G36*
X9386842Y-7124101D02*
X8891868Y-7619075D01*
X7513010Y-6240217D01*
X8007984Y-5745243D01*
X9386842Y-7124101D01*
X9386842Y-7124101D01*
G37*
G36*
X9033289Y-7477654D02*
X8538315Y-7972628D01*
X7159457Y-6593770D01*
X7654431Y-6098796D01*
X9033289Y-7477654D01*
X9033289Y-7477654D01*
G37*
G36*
X8679735Y-7831208D02*
X8184761Y-8326182D01*
X6805903Y-6947324D01*
X7300877Y-6452350D01*
X8679735Y-7831208D01*
X8679735Y-7831208D01*
G37*
G36*
X8326182Y-8184761D02*
X7831208Y-8679735D01*
X6452350Y-7300877D01*
X6947324Y-6805903D01*
X8326182Y-8184761D01*
X8326182Y-8184761D01*
G37*
G36*
X7972628Y-8538315D02*
X7477654Y-9033289D01*
X6098796Y-7654431D01*
X6593770Y-7159457D01*
X7972628Y-8538315D01*
X7972628Y-8538315D01*
G37*
G36*
X7619075Y-8891868D02*
X7124101Y-9386842D01*
X5745243Y-8007984D01*
X6240217Y-7513010D01*
X7619075Y-8891868D01*
X7619075Y-8891868D01*
G37*
G36*
X7265522Y-9245421D02*
X6770548Y-9740395D01*
X5391690Y-8361537D01*
X5886664Y-7866563D01*
X7265522Y-9245421D01*
X7265522Y-9245421D01*
G37*
G36*
X6911968Y-9598975D02*
X6416994Y-10093949D01*
X5038136Y-8715091D01*
X5533110Y-8220117D01*
X6911968Y-9598975D01*
X6911968Y-9598975D01*
G37*
G36*
X6558415Y-9952528D02*
X6063441Y-10447502D01*
X4684583Y-9068644D01*
X5179557Y-8573670D01*
X6558415Y-9952528D01*
X6558415Y-9952528D01*
G37*
G36*
X6204862Y-10306082D02*
X5709888Y-10801056D01*
X4331030Y-9422198D01*
X4826004Y-8927224D01*
X6204862Y-10306082D01*
X6204862Y-10306082D01*
G37*
G36*
X5851308Y-10659635D02*
X5356334Y-11154609D01*
X3977476Y-9775751D01*
X4472450Y-9280777D01*
X5851308Y-10659635D01*
X5851308Y-10659635D01*
G37*
G36*
X5497755Y-11013188D02*
X5002781Y-11508162D01*
X3623923Y-10129304D01*
X4118897Y-9634330D01*
X5497755Y-11013188D01*
X5497755Y-11013188D01*
G37*
G36*
X5144201Y-11366742D02*
X4649227Y-11861716D01*
X3270369Y-10482858D01*
X3765343Y-9987884D01*
X5144201Y-11366742D01*
X5144201Y-11366742D01*
G37*
G36*
X4790648Y-11720295D02*
X4295674Y-12215269D01*
X2916816Y-10836411D01*
X3411790Y-10341437D01*
X4790648Y-11720295D01*
X4790648Y-11720295D01*
G37*
G36*
X4437095Y-12073849D02*
X3942121Y-12568823D01*
X2563263Y-11189965D01*
X3058237Y-10694991D01*
X4437095Y-12073849D01*
X4437095Y-12073849D01*
G37*
G36*
X4083541Y-12427402D02*
X3588567Y-12922376D01*
X2209709Y-11543518D01*
X2704683Y-11048544D01*
X4083541Y-12427402D01*
X4083541Y-12427402D01*
G37*
G36*
X3729988Y-12780955D02*
X3235014Y-13275929D01*
X1856156Y-11897071D01*
X2351130Y-11402097D01*
X3729988Y-12780955D01*
X3729988Y-12780955D01*
G37*
G36*
X3376434Y-13134509D02*
X2881460Y-13629483D01*
X1502602Y-12250625D01*
X1997576Y-11755651D01*
X3376434Y-13134509D01*
X3376434Y-13134509D01*
G37*
G36*
X3022881Y-13488062D02*
X2527907Y-13983036D01*
X1149049Y-12604178D01*
X1644023Y-12109204D01*
X3022881Y-13488062D01*
X3022881Y-13488062D01*
G37*
G36*
X2669328Y-13841616D02*
X2174354Y-14336590D01*
X795496Y-12957732D01*
X1290470Y-12462758D01*
X2669328Y-13841616D01*
X2669328Y-13841616D01*
G37*
G36*
X2315774Y-14195169D02*
X1820800Y-14690143D01*
X441942Y-13311285D01*
X936916Y-12816311D01*
X2315774Y-14195169D01*
X2315774Y-14195169D01*
G37*
G36*
X-1820800Y-14690143D02*
X-2315774Y-14195169D01*
X-936916Y-12816311D01*
X-441942Y-13311285D01*
X-1820800Y-14690143D01*
X-1820800Y-14690143D01*
G37*
G36*
X-2174354Y-14336590D02*
X-2669328Y-13841616D01*
X-1290470Y-12462758D01*
X-795496Y-12957732D01*
X-2174354Y-14336590D01*
X-2174354Y-14336590D01*
G37*
G36*
X-2527907Y-13983036D02*
X-3022881Y-13488062D01*
X-1644023Y-12109204D01*
X-1149049Y-12604178D01*
X-2527907Y-13983036D01*
X-2527907Y-13983036D01*
G37*
G36*
X-2881460Y-13629483D02*
X-3376434Y-13134509D01*
X-1997576Y-11755651D01*
X-1502602Y-12250625D01*
X-2881460Y-13629483D01*
X-2881460Y-13629483D01*
G37*
G36*
X-3235014Y-13275929D02*
X-3729988Y-12780955D01*
X-2351130Y-11402097D01*
X-1856156Y-11897071D01*
X-3235014Y-13275929D01*
X-3235014Y-13275929D01*
G37*
G36*
X-3588567Y-12922376D02*
X-4083541Y-12427402D01*
X-2704683Y-11048544D01*
X-2209709Y-11543518D01*
X-3588567Y-12922376D01*
X-3588567Y-12922376D01*
G37*
G36*
X-3942121Y-12568823D02*
X-4437095Y-12073849D01*
X-3058237Y-10694991D01*
X-2563263Y-11189965D01*
X-3942121Y-12568823D01*
X-3942121Y-12568823D01*
G37*
G36*
X-4295674Y-12215269D02*
X-4790648Y-11720295D01*
X-3411790Y-10341437D01*
X-2916816Y-10836411D01*
X-4295674Y-12215269D01*
X-4295674Y-12215269D01*
G37*
G36*
X-4649227Y-11861716D02*
X-5144201Y-11366742D01*
X-3765343Y-9987884D01*
X-3270369Y-10482858D01*
X-4649227Y-11861716D01*
X-4649227Y-11861716D01*
G37*
G36*
X-5002781Y-11508162D02*
X-5497755Y-11013188D01*
X-4118897Y-9634330D01*
X-3623923Y-10129304D01*
X-5002781Y-11508162D01*
X-5002781Y-11508162D01*
G37*
G36*
X-5356334Y-11154609D02*
X-5851308Y-10659635D01*
X-4472450Y-9280777D01*
X-3977476Y-9775751D01*
X-5356334Y-11154609D01*
X-5356334Y-11154609D01*
G37*
G36*
X-5709888Y-10801056D02*
X-6204862Y-10306082D01*
X-4826004Y-8927224D01*
X-4331030Y-9422198D01*
X-5709888Y-10801056D01*
X-5709888Y-10801056D01*
G37*
G36*
X-6063441Y-10447502D02*
X-6558415Y-9952528D01*
X-5179557Y-8573670D01*
X-4684583Y-9068644D01*
X-6063441Y-10447502D01*
X-6063441Y-10447502D01*
G37*
G36*
X-6416994Y-10093949D02*
X-6911968Y-9598975D01*
X-5533110Y-8220117D01*
X-5038136Y-8715091D01*
X-6416994Y-10093949D01*
X-6416994Y-10093949D01*
G37*
G36*
X-6770548Y-9740395D02*
X-7265522Y-9245421D01*
X-5886664Y-7866563D01*
X-5391690Y-8361537D01*
X-6770548Y-9740395D01*
X-6770548Y-9740395D01*
G37*
G36*
X-7124101Y-9386842D02*
X-7619075Y-8891868D01*
X-6240217Y-7513010D01*
X-5745243Y-8007984D01*
X-7124101Y-9386842D01*
X-7124101Y-9386842D01*
G37*
G36*
X-7477654Y-9033289D02*
X-7972628Y-8538315D01*
X-6593770Y-7159457D01*
X-6098796Y-7654431D01*
X-7477654Y-9033289D01*
X-7477654Y-9033289D01*
G37*
G36*
X-7831208Y-8679735D02*
X-8326182Y-8184761D01*
X-6947324Y-6805903D01*
X-6452350Y-7300877D01*
X-7831208Y-8679735D01*
X-7831208Y-8679735D01*
G37*
G36*
X-8184761Y-8326182D02*
X-8679735Y-7831208D01*
X-7300877Y-6452350D01*
X-6805903Y-6947324D01*
X-8184761Y-8326182D01*
X-8184761Y-8326182D01*
G37*
G36*
X-8538315Y-7972628D02*
X-9033289Y-7477654D01*
X-7654431Y-6098796D01*
X-7159457Y-6593770D01*
X-8538315Y-7972628D01*
X-8538315Y-7972628D01*
G37*
G36*
X-8891868Y-7619075D02*
X-9386842Y-7124101D01*
X-8007984Y-5745243D01*
X-7513010Y-6240217D01*
X-8891868Y-7619075D01*
X-8891868Y-7619075D01*
G37*
G36*
X-9245421Y-7265522D02*
X-9740395Y-6770548D01*
X-8361537Y-5391690D01*
X-7866563Y-5886664D01*
X-9245421Y-7265522D01*
X-9245421Y-7265522D01*
G37*
G36*
X-9598975Y-6911968D02*
X-10093949Y-6416994D01*
X-8715091Y-5038136D01*
X-8220117Y-5533110D01*
X-9598975Y-6911968D01*
X-9598975Y-6911968D01*
G37*
G36*
X-9952528Y-6558415D02*
X-10447502Y-6063441D01*
X-9068644Y-4684583D01*
X-8573670Y-5179557D01*
X-9952528Y-6558415D01*
X-9952528Y-6558415D01*
G37*
G36*
X-10306082Y-6204862D02*
X-10801056Y-5709888D01*
X-9422198Y-4331030D01*
X-8927224Y-4826004D01*
X-10306082Y-6204862D01*
X-10306082Y-6204862D01*
G37*
G36*
X-10659635Y-5851308D02*
X-11154609Y-5356334D01*
X-9775751Y-3977476D01*
X-9280777Y-4472450D01*
X-10659635Y-5851308D01*
X-10659635Y-5851308D01*
G37*
G36*
X-11013188Y-5497755D02*
X-11508162Y-5002781D01*
X-10129304Y-3623923D01*
X-9634330Y-4118897D01*
X-11013188Y-5497755D01*
X-11013188Y-5497755D01*
G37*
G36*
X-11366742Y-5144201D02*
X-11861716Y-4649227D01*
X-10482858Y-3270369D01*
X-9987884Y-3765343D01*
X-11366742Y-5144201D01*
X-11366742Y-5144201D01*
G37*
G36*
X-11720295Y-4790648D02*
X-12215269Y-4295674D01*
X-10836411Y-2916816D01*
X-10341437Y-3411790D01*
X-11720295Y-4790648D01*
X-11720295Y-4790648D01*
G37*
G36*
X-12073849Y-4437095D02*
X-12568823Y-3942121D01*
X-11189965Y-2563263D01*
X-10694991Y-3058237D01*
X-12073849Y-4437095D01*
X-12073849Y-4437095D01*
G37*
G36*
X-12427402Y-4083541D02*
X-12922376Y-3588567D01*
X-11543518Y-2209709D01*
X-11048544Y-2704683D01*
X-12427402Y-4083541D01*
X-12427402Y-4083541D01*
G37*
G36*
X-12780955Y-3729988D02*
X-13275929Y-3235014D01*
X-11897071Y-1856156D01*
X-11402097Y-2351130D01*
X-12780955Y-3729988D01*
X-12780955Y-3729988D01*
G37*
G36*
X-13134509Y-3376434D02*
X-13629483Y-2881460D01*
X-12250625Y-1502602D01*
X-11755651Y-1997576D01*
X-13134509Y-3376434D01*
X-13134509Y-3376434D01*
G37*
G36*
X-13488062Y-3022881D02*
X-13983036Y-2527907D01*
X-12604178Y-1149049D01*
X-12109204Y-1644023D01*
X-13488062Y-3022881D01*
X-13488062Y-3022881D01*
G37*
G36*
X-13841616Y-2669328D02*
X-14336590Y-2174354D01*
X-12957732Y-795496D01*
X-12462758Y-1290470D01*
X-13841616Y-2669328D01*
X-13841616Y-2669328D01*
G37*
G36*
X-14195169Y-2315774D02*
X-14690143Y-1820800D01*
X-13311285Y-441942D01*
X-12816311Y-936916D01*
X-14195169Y-2315774D01*
X-14195169Y-2315774D01*
G37*
G36*
X-12816311Y936916D02*
X-13311285Y441942D01*
X-14690143Y1820800D01*
X-14195169Y2315774D01*
X-12816311Y936916D01*
X-12816311Y936916D01*
G37*
G36*
X-12462758Y1290470D02*
X-12957732Y795496D01*
X-14336590Y2174354D01*
X-13841616Y2669328D01*
X-12462758Y1290470D01*
X-12462758Y1290470D01*
G37*
G36*
X-12109204Y1644023D02*
X-12604178Y1149049D01*
X-13983036Y2527907D01*
X-13488062Y3022881D01*
X-12109204Y1644023D01*
X-12109204Y1644023D01*
G37*
G36*
X-11755651Y1997576D02*
X-12250625Y1502602D01*
X-13629483Y2881460D01*
X-13134509Y3376434D01*
X-11755651Y1997576D01*
X-11755651Y1997576D01*
G37*
G36*
X-11402097Y2351130D02*
X-11897071Y1856156D01*
X-13275929Y3235014D01*
X-12780955Y3729988D01*
X-11402097Y2351130D01*
X-11402097Y2351130D01*
G37*
G36*
X-11048544Y2704683D02*
X-11543518Y2209709D01*
X-12922376Y3588567D01*
X-12427402Y4083541D01*
X-11048544Y2704683D01*
X-11048544Y2704683D01*
G37*
G36*
X-10694991Y3058237D02*
X-11189965Y2563263D01*
X-12568823Y3942121D01*
X-12073849Y4437095D01*
X-10694991Y3058237D01*
X-10694991Y3058237D01*
G37*
G36*
X-10341437Y3411790D02*
X-10836411Y2916816D01*
X-12215269Y4295674D01*
X-11720295Y4790648D01*
X-10341437Y3411790D01*
X-10341437Y3411790D01*
G37*
G36*
X-9987884Y3765343D02*
X-10482858Y3270369D01*
X-11861716Y4649227D01*
X-11366742Y5144201D01*
X-9987884Y3765343D01*
X-9987884Y3765343D01*
G37*
G36*
X-9634330Y4118897D02*
X-10129304Y3623923D01*
X-11508162Y5002781D01*
X-11013188Y5497755D01*
X-9634330Y4118897D01*
X-9634330Y4118897D01*
G37*
G36*
X-9280777Y4472450D02*
X-9775751Y3977476D01*
X-11154609Y5356334D01*
X-10659635Y5851308D01*
X-9280777Y4472450D01*
X-9280777Y4472450D01*
G37*
G36*
X-8927224Y4826004D02*
X-9422198Y4331030D01*
X-10801056Y5709888D01*
X-10306082Y6204862D01*
X-8927224Y4826004D01*
X-8927224Y4826004D01*
G37*
G36*
X-8573670Y5179557D02*
X-9068644Y4684583D01*
X-10447502Y6063441D01*
X-9952528Y6558415D01*
X-8573670Y5179557D01*
X-8573670Y5179557D01*
G37*
G36*
X-8220117Y5533110D02*
X-8715091Y5038136D01*
X-10093949Y6416994D01*
X-9598975Y6911968D01*
X-8220117Y5533110D01*
X-8220117Y5533110D01*
G37*
G36*
X-7866563Y5886664D02*
X-8361537Y5391690D01*
X-9740395Y6770548D01*
X-9245421Y7265522D01*
X-7866563Y5886664D01*
X-7866563Y5886664D01*
G37*
G36*
X-7513010Y6240217D02*
X-8007984Y5745243D01*
X-9386842Y7124101D01*
X-8891868Y7619075D01*
X-7513010Y6240217D01*
X-7513010Y6240217D01*
G37*
G36*
X-7159457Y6593770D02*
X-7654431Y6098796D01*
X-9033289Y7477654D01*
X-8538315Y7972628D01*
X-7159457Y6593770D01*
X-7159457Y6593770D01*
G37*
G36*
X-6805903Y6947324D02*
X-7300877Y6452350D01*
X-8679735Y7831208D01*
X-8184761Y8326182D01*
X-6805903Y6947324D01*
X-6805903Y6947324D01*
G37*
G36*
X-6452350Y7300877D02*
X-6947324Y6805903D01*
X-8326182Y8184761D01*
X-7831208Y8679735D01*
X-6452350Y7300877D01*
X-6452350Y7300877D01*
G37*
G36*
X-6098796Y7654431D02*
X-6593770Y7159457D01*
X-7972628Y8538315D01*
X-7477654Y9033289D01*
X-6098796Y7654431D01*
X-6098796Y7654431D01*
G37*
G36*
X-5745243Y8007984D02*
X-6240217Y7513010D01*
X-7619075Y8891868D01*
X-7124101Y9386842D01*
X-5745243Y8007984D01*
X-5745243Y8007984D01*
G37*
G36*
X-5391690Y8361537D02*
X-5886664Y7866563D01*
X-7265522Y9245421D01*
X-6770548Y9740395D01*
X-5391690Y8361537D01*
X-5391690Y8361537D01*
G37*
G36*
X-5038136Y8715091D02*
X-5533110Y8220117D01*
X-6911968Y9598975D01*
X-6416994Y10093949D01*
X-5038136Y8715091D01*
X-5038136Y8715091D01*
G37*
G36*
X-4684583Y9068644D02*
X-5179557Y8573670D01*
X-6558415Y9952528D01*
X-6063441Y10447502D01*
X-4684583Y9068644D01*
X-4684583Y9068644D01*
G37*
G36*
X-4331030Y9422198D02*
X-4826004Y8927224D01*
X-6204862Y10306082D01*
X-5709888Y10801056D01*
X-4331030Y9422198D01*
X-4331030Y9422198D01*
G37*
G36*
X-3977476Y9775751D02*
X-4472450Y9280777D01*
X-5851308Y10659635D01*
X-5356334Y11154609D01*
X-3977476Y9775751D01*
X-3977476Y9775751D01*
G37*
G36*
X-3623923Y10129304D02*
X-4118897Y9634330D01*
X-5497755Y11013188D01*
X-5002781Y11508162D01*
X-3623923Y10129304D01*
X-3623923Y10129304D01*
G37*
G36*
X-3270369Y10482858D02*
X-3765343Y9987884D01*
X-5144201Y11366742D01*
X-4649227Y11861716D01*
X-3270369Y10482858D01*
X-3270369Y10482858D01*
G37*
G36*
X-2916816Y10836411D02*
X-3411790Y10341437D01*
X-4790648Y11720295D01*
X-4295674Y12215269D01*
X-2916816Y10836411D01*
X-2916816Y10836411D01*
G37*
G36*
X-2563263Y11189965D02*
X-3058237Y10694991D01*
X-4437095Y12073849D01*
X-3942121Y12568823D01*
X-2563263Y11189965D01*
X-2563263Y11189965D01*
G37*
G36*
X-2209709Y11543518D02*
X-2704683Y11048544D01*
X-4083541Y12427402D01*
X-3588567Y12922376D01*
X-2209709Y11543518D01*
X-2209709Y11543518D01*
G37*
G36*
X-1856156Y11897071D02*
X-2351130Y11402097D01*
X-3729988Y12780955D01*
X-3235014Y13275929D01*
X-1856156Y11897071D01*
X-1856156Y11897071D01*
G37*
G36*
X-1502602Y12250625D02*
X-1997576Y11755651D01*
X-3376434Y13134509D01*
X-2881460Y13629483D01*
X-1502602Y12250625D01*
X-1502602Y12250625D01*
G37*
G36*
X-1149049Y12604178D02*
X-1644023Y12109204D01*
X-3022881Y13488062D01*
X-2527907Y13983036D01*
X-1149049Y12604178D01*
X-1149049Y12604178D01*
G37*
G36*
X-795496Y12957732D02*
X-1290470Y12462758D01*
X-2669328Y13841616D01*
X-2174354Y14336590D01*
X-795496Y12957732D01*
X-795496Y12957732D01*
G37*
G36*
X-441942Y13311285D02*
X-936916Y12816311D01*
X-2315774Y14195169D01*
X-1820800Y14690143D01*
X-441942Y13311285D01*
X-441942Y13311285D01*
G37*
G36*
X936916Y12816311D02*
X441942Y13311285D01*
X1820800Y14690143D01*
X2315774Y14195169D01*
X936916Y12816311D01*
X936916Y12816311D01*
G37*
G36*
X1290470Y12462758D02*
X795496Y12957732D01*
X2174354Y14336590D01*
X2669328Y13841616D01*
X1290470Y12462758D01*
X1290470Y12462758D01*
G37*
G36*
X1644023Y12109204D02*
X1149049Y12604178D01*
X2527907Y13983036D01*
X3022881Y13488062D01*
X1644023Y12109204D01*
X1644023Y12109204D01*
G37*
G36*
X1997576Y11755651D02*
X1502602Y12250625D01*
X2881460Y13629483D01*
X3376434Y13134509D01*
X1997576Y11755651D01*
X1997576Y11755651D01*
G37*
G36*
X2351130Y11402097D02*
X1856156Y11897071D01*
X3235014Y13275929D01*
X3729988Y12780955D01*
X2351130Y11402097D01*
X2351130Y11402097D01*
G37*
G36*
X2704683Y11048544D02*
X2209709Y11543518D01*
X3588567Y12922376D01*
X4083541Y12427402D01*
X2704683Y11048544D01*
X2704683Y11048544D01*
G37*
G36*
X3058237Y10694991D02*
X2563263Y11189965D01*
X3942121Y12568823D01*
X4437095Y12073849D01*
X3058237Y10694991D01*
X3058237Y10694991D01*
G37*
G36*
X3411790Y10341437D02*
X2916816Y10836411D01*
X4295674Y12215269D01*
X4790648Y11720295D01*
X3411790Y10341437D01*
X3411790Y10341437D01*
G37*
G36*
X3765343Y9987884D02*
X3270369Y10482858D01*
X4649227Y11861716D01*
X5144201Y11366742D01*
X3765343Y9987884D01*
X3765343Y9987884D01*
G37*
G36*
X4118897Y9634330D02*
X3623923Y10129304D01*
X5002781Y11508162D01*
X5497755Y11013188D01*
X4118897Y9634330D01*
X4118897Y9634330D01*
G37*
G36*
X4472450Y9280777D02*
X3977476Y9775751D01*
X5356334Y11154609D01*
X5851308Y10659635D01*
X4472450Y9280777D01*
X4472450Y9280777D01*
G37*
G36*
X4826004Y8927224D02*
X4331030Y9422198D01*
X5709888Y10801056D01*
X6204862Y10306082D01*
X4826004Y8927224D01*
X4826004Y8927224D01*
G37*
G36*
X5179557Y8573670D02*
X4684583Y9068644D01*
X6063441Y10447502D01*
X6558415Y9952528D01*
X5179557Y8573670D01*
X5179557Y8573670D01*
G37*
G36*
X5533110Y8220117D02*
X5038136Y8715091D01*
X6416994Y10093949D01*
X6911968Y9598975D01*
X5533110Y8220117D01*
X5533110Y8220117D01*
G37*
G36*
X5886664Y7866563D02*
X5391690Y8361537D01*
X6770548Y9740395D01*
X7265522Y9245421D01*
X5886664Y7866563D01*
X5886664Y7866563D01*
G37*
G36*
X6240217Y7513010D02*
X5745243Y8007984D01*
X7124101Y9386842D01*
X7619075Y8891868D01*
X6240217Y7513010D01*
X6240217Y7513010D01*
G37*
G36*
X6593770Y7159457D02*
X6098796Y7654431D01*
X7477654Y9033289D01*
X7972628Y8538315D01*
X6593770Y7159457D01*
X6593770Y7159457D01*
G37*
G36*
X6947324Y6805903D02*
X6452350Y7300877D01*
X7831208Y8679735D01*
X8326182Y8184761D01*
X6947324Y6805903D01*
X6947324Y6805903D01*
G37*
G36*
X7300877Y6452350D02*
X6805903Y6947324D01*
X8184761Y8326182D01*
X8679735Y7831208D01*
X7300877Y6452350D01*
X7300877Y6452350D01*
G37*
G36*
X7654431Y6098796D02*
X7159457Y6593770D01*
X8538315Y7972628D01*
X9033289Y7477654D01*
X7654431Y6098796D01*
X7654431Y6098796D01*
G37*
G36*
X8007984Y5745243D02*
X7513010Y6240217D01*
X8891868Y7619075D01*
X9386842Y7124101D01*
X8007984Y5745243D01*
X8007984Y5745243D01*
G37*
G36*
X8361537Y5391690D02*
X7866563Y5886664D01*
X9245421Y7265522D01*
X9740395Y6770548D01*
X8361537Y5391690D01*
X8361537Y5391690D01*
G37*
G36*
X8715091Y5038136D02*
X8220117Y5533110D01*
X9598975Y6911968D01*
X10093949Y6416994D01*
X8715091Y5038136D01*
X8715091Y5038136D01*
G37*
G36*
X9068644Y4684583D02*
X8573670Y5179557D01*
X9952528Y6558415D01*
X10447502Y6063441D01*
X9068644Y4684583D01*
X9068644Y4684583D01*
G37*
G36*
X9422198Y4331030D02*
X8927224Y4826004D01*
X10306082Y6204862D01*
X10801056Y5709888D01*
X9422198Y4331030D01*
X9422198Y4331030D01*
G37*
G36*
X9775751Y3977476D02*
X9280777Y4472450D01*
X10659635Y5851308D01*
X11154609Y5356334D01*
X9775751Y3977476D01*
X9775751Y3977476D01*
G37*
G36*
X10129304Y3623923D02*
X9634330Y4118897D01*
X11013188Y5497755D01*
X11508162Y5002781D01*
X10129304Y3623923D01*
X10129304Y3623923D01*
G37*
G36*
X10482858Y3270369D02*
X9987884Y3765343D01*
X11366742Y5144201D01*
X11861716Y4649227D01*
X10482858Y3270369D01*
X10482858Y3270369D01*
G37*
G36*
X10836411Y2916816D02*
X10341437Y3411790D01*
X11720295Y4790648D01*
X12215269Y4295674D01*
X10836411Y2916816D01*
X10836411Y2916816D01*
G37*
G36*
X11189965Y2563263D02*
X10694991Y3058237D01*
X12073849Y4437095D01*
X12568823Y3942121D01*
X11189965Y2563263D01*
X11189965Y2563263D01*
G37*
G36*
X11543518Y2209709D02*
X11048544Y2704683D01*
X12427402Y4083541D01*
X12922376Y3588567D01*
X11543518Y2209709D01*
X11543518Y2209709D01*
G37*
G36*
X11897071Y1856156D02*
X11402097Y2351130D01*
X12780955Y3729988D01*
X13275929Y3235014D01*
X11897071Y1856156D01*
X11897071Y1856156D01*
G37*
G36*
X12250625Y1502602D02*
X11755651Y1997576D01*
X13134509Y3376434D01*
X13629483Y2881460D01*
X12250625Y1502602D01*
X12250625Y1502602D01*
G37*
G36*
X12604178Y1149049D02*
X12109204Y1644023D01*
X13488062Y3022881D01*
X13983036Y2527907D01*
X12604178Y1149049D01*
X12604178Y1149049D01*
G37*
G36*
X12957732Y795496D02*
X12462758Y1290470D01*
X13841616Y2669328D01*
X14336590Y2174354D01*
X12957732Y795496D01*
X12957732Y795496D01*
G37*
G36*
X13311285Y441942D02*
X12816311Y936916D01*
X14195169Y2315774D01*
X14690143Y1820800D01*
X13311285Y441942D01*
X13311285Y441942D01*
G37*
G36*
X23966441Y-16973155D02*
X23259334Y-17680262D01*
X21915831Y-16336759D01*
X22622938Y-15629652D01*
X23966441Y-16973155D01*
X23966441Y-16973155D01*
G37*
G36*
X23068416Y-17871181D02*
X22361309Y-18578288D01*
X21017806Y-17234785D01*
X21724913Y-16527678D01*
X23068416Y-17871181D01*
X23068416Y-17871181D01*
G37*
G36*
X22170390Y-18769206D02*
X21463283Y-19476313D01*
X20119780Y-18132810D01*
X20826887Y-17425703D01*
X22170390Y-18769206D01*
X22170390Y-18769206D01*
G37*
G36*
X21272364Y-19667232D02*
X20565257Y-20374339D01*
X19221754Y-19030836D01*
X19928861Y-18323729D01*
X21272364Y-19667232D01*
X21272364Y-19667232D01*
G37*
G36*
X20374339Y-20565257D02*
X19667232Y-21272364D01*
X18323729Y-19928861D01*
X19030836Y-19221754D01*
X20374339Y-20565257D01*
X20374339Y-20565257D01*
G37*
G36*
X19476313Y-21463283D02*
X18769206Y-22170390D01*
X17425703Y-20826887D01*
X18132810Y-20119780D01*
X19476313Y-21463283D01*
X19476313Y-21463283D01*
G37*
G36*
X18578288Y-22361309D02*
X17871181Y-23068416D01*
X16527678Y-21724913D01*
X17234785Y-21017806D01*
X18578288Y-22361309D01*
X18578288Y-22361309D01*
G37*
G36*
X17680262Y-23259334D02*
X16973155Y-23966441D01*
X15629652Y-22622938D01*
X16336759Y-21915831D01*
X17680262Y-23259334D01*
X17680262Y-23259334D01*
G37*
G36*
X11104169Y-16683241D02*
X10397062Y-17390348D01*
X9053559Y-16046845D01*
X9760666Y-15339738D01*
X11104169Y-16683241D01*
X11104169Y-16683241D01*
G37*
G36*
X12002194Y-15785215D02*
X11295087Y-16492322D01*
X9951584Y-15148819D01*
X10658691Y-14441712D01*
X12002194Y-15785215D01*
X12002194Y-15785215D01*
G37*
G36*
X12900220Y-14887190D02*
X12193113Y-15594297D01*
X10849610Y-14250794D01*
X11556717Y-13543687D01*
X12900220Y-14887190D01*
X12900220Y-14887190D01*
G37*
G36*
X13798246Y-13989164D02*
X13091139Y-14696271D01*
X11747636Y-13352768D01*
X12454743Y-12645661D01*
X13798246Y-13989164D01*
X13798246Y-13989164D01*
G37*
G36*
X14696271Y-13091139D02*
X13989164Y-13798246D01*
X12645661Y-12454743D01*
X13352768Y-11747636D01*
X14696271Y-13091139D01*
X14696271Y-13091139D01*
G37*
G36*
X15594297Y-12193113D02*
X14887190Y-12900220D01*
X13543687Y-11556717D01*
X14250794Y-10849610D01*
X15594297Y-12193113D01*
X15594297Y-12193113D01*
G37*
G36*
X16492322Y-11295087D02*
X15785215Y-12002194D01*
X14441712Y-10658691D01*
X15148819Y-9951584D01*
X16492322Y-11295087D01*
X16492322Y-11295087D01*
G37*
G36*
X17390348Y-10397062D02*
X16683241Y-11104169D01*
X15339738Y-9760666D01*
X16046845Y-9053559D01*
X17390348Y-10397062D01*
X17390348Y-10397062D01*
G37*
D22*
X11430000Y-28575000D03*
D23*
X11430000Y-31115000D03*
X8890000Y-28575000D03*
X8890000Y-31115000D03*
X6350000Y-28575000D03*
X6350000Y-31115000D03*
X3810000Y-28575000D03*
X3810000Y-31115000D03*
X1270000Y-28575000D03*
X1270000Y-31115000D03*
X-1270000Y-28575000D03*
X-1270000Y-31115000D03*
X-3810000Y-28575000D03*
X-3810000Y-31115000D03*
X-6350000Y-28575000D03*
X-6350000Y-31115000D03*
X-8890000Y-28575000D03*
X-8890000Y-31115000D03*
X-11430000Y-28575000D03*
X-11430000Y-31115000D03*
D22*
X-28575000Y-11430000D03*
D23*
X-31115000Y-11430000D03*
X-28575000Y-8890000D03*
X-31115000Y-8890000D03*
X-28575000Y-6350000D03*
X-31115000Y-6350000D03*
X-28575000Y-3810000D03*
X-31115000Y-3810000D03*
X-28575000Y-1270000D03*
X-31115000Y-1270000D03*
X-28575000Y1270000D03*
X-31115000Y1270000D03*
X-28575000Y3810000D03*
X-31115000Y3810000D03*
X-28575000Y6350000D03*
X-31115000Y6350000D03*
X-28575000Y8890000D03*
X-31115000Y8890000D03*
X-28575000Y11430000D03*
X-31115000Y11430000D03*
D22*
X-11430000Y28575000D03*
D23*
X-11430000Y31115000D03*
X-8890000Y28575000D03*
X-8890000Y31115000D03*
X-6350000Y28575000D03*
X-6350000Y31115000D03*
X-3810000Y28575000D03*
X-3810000Y31115000D03*
X-1270000Y28575000D03*
X-1270000Y31115000D03*
X1270000Y28575000D03*
X1270000Y31115000D03*
X3810000Y28575000D03*
X3810000Y31115000D03*
X6350000Y28575000D03*
X6350000Y31115000D03*
X8890000Y28575000D03*
X8890000Y31115000D03*
X11430000Y28575000D03*
X11430000Y31115000D03*
D22*
X28575000Y11430000D03*
D23*
X31115000Y11430000D03*
X28575000Y8890000D03*
X31115000Y8890000D03*
X28575000Y6350000D03*
X31115000Y6350000D03*
X28575000Y3810000D03*
X31115000Y3810000D03*
X28575000Y1270000D03*
X31115000Y1270000D03*
X28575000Y-1270000D03*
X31115000Y-1270000D03*
X28575000Y-3810000D03*
X31115000Y-3810000D03*
X28575000Y-6350000D03*
X31115000Y-6350000D03*
X28575000Y-8890000D03*
X31115000Y-8890000D03*
X28575000Y-11430000D03*
X31115000Y-11430000D03*
D24*
X3810000Y-17230000D03*
X3810000Y-18330000D03*
X-3810000Y-17230000D03*
X-3810000Y-18330000D03*
D25*
X6670040Y-26050240D03*
X6670040Y-25400000D03*
X6670040Y-24749760D03*
X8569960Y-24749760D03*
X8569960Y-25400000D03*
X8569960Y-26050240D03*
X1590040Y-26050240D03*
X1590040Y-25400000D03*
X1590040Y-24749760D03*
X3489960Y-24749760D03*
X3489960Y-25400000D03*
X3489960Y-26050240D03*
X-3489960Y-26050240D03*
X-3489960Y-25400000D03*
X-3489960Y-24749760D03*
X-1590040Y-24749760D03*
X-1590040Y-25400000D03*
X-1590040Y-26050240D03*
D26*
X-26050240Y-6670040D03*
X-25400000Y-6670040D03*
X-24749760Y-6670040D03*
X-24749760Y-8569960D03*
X-25400000Y-8569960D03*
X-26050240Y-8569960D03*
X-26050240Y-1590040D03*
X-25400000Y-1590040D03*
X-24749760Y-1590040D03*
X-24749760Y-3489960D03*
X-25400000Y-3489960D03*
X-26050240Y-3489960D03*
X-26050240Y3489960D03*
X-25400000Y3489960D03*
X-24749760Y3489960D03*
X-24749760Y1590040D03*
X-25400000Y1590040D03*
X-26050240Y1590040D03*
X-26050240Y8569960D03*
X-25400000Y8569960D03*
X-24749760Y8569960D03*
X-24749760Y6670040D03*
X-25400000Y6670040D03*
X-26050240Y6670040D03*
D25*
X-6670040Y26050240D03*
X-6670040Y25400000D03*
X-6670040Y24749760D03*
X-8569960Y24749760D03*
X-8569960Y25400000D03*
X-8569960Y26050240D03*
X-1590040Y26050240D03*
X-1590040Y25400000D03*
X-1590040Y24749760D03*
X-3489960Y24749760D03*
X-3489960Y25400000D03*
X-3489960Y26050240D03*
X3489960Y26050240D03*
X3489960Y25400000D03*
X3489960Y24749760D03*
X1590040Y24749760D03*
X1590040Y25400000D03*
X1590040Y26050240D03*
X8569960Y26050240D03*
X8569960Y25400000D03*
X8569960Y24749760D03*
X6670040Y24749760D03*
X6670040Y25400000D03*
X6670040Y26050240D03*
D26*
X26050240Y6670040D03*
X25400000Y6670040D03*
X24749760Y6670040D03*
X24749760Y8569960D03*
X25400000Y8569960D03*
X26050240Y8569960D03*
X26050240Y1590040D03*
X25400000Y1590040D03*
X24749760Y1590040D03*
X24749760Y3489960D03*
X25400000Y3489960D03*
X26050240Y3489960D03*
X26050240Y-3489960D03*
X25400000Y-3489960D03*
X24749760Y-3489960D03*
X24749760Y-1590040D03*
X25400000Y-1590040D03*
X26050240Y-1590040D03*
X26050240Y-8569960D03*
X25400000Y-8569960D03*
X24749760Y-8569960D03*
X24749760Y-6670040D03*
X25400000Y-6670040D03*
X26050240Y-6670040D03*
D10*
G36*
X5543340Y11346264D02*
X6179736Y11982660D01*
X6886842Y11275554D01*
X6250446Y10639158D01*
X5543340Y11346264D01*
X5543340Y11346264D01*
G37*
G36*
X6321158Y10568446D02*
X6957554Y11204842D01*
X7664660Y10497736D01*
X7028264Y9861340D01*
X6321158Y10568446D01*
X6321158Y10568446D01*
G37*
G36*
X-10115340Y-6774264D02*
X-10751736Y-7410660D01*
X-11458842Y-6703554D01*
X-10822446Y-6067158D01*
X-10115340Y-6774264D01*
X-10115340Y-6774264D01*
G37*
G36*
X-10893158Y-5996446D02*
X-11529554Y-6632842D01*
X-12236660Y-5925736D01*
X-11600264Y-5289340D01*
X-10893158Y-5996446D01*
X-10893158Y-5996446D01*
G37*
G36*
X-14180736Y-2622340D02*
X-13544340Y-3258736D01*
X-14251446Y-3965842D01*
X-14887842Y-3329446D01*
X-14180736Y-2622340D01*
X-14180736Y-2622340D01*
G37*
G36*
X-14958554Y-3400158D02*
X-14322158Y-4036554D01*
X-15029264Y-4743660D01*
X-15665660Y-4107264D01*
X-14958554Y-3400158D01*
X-14958554Y-3400158D01*
G37*
G36*
X-15918264Y-3854660D02*
X-16554660Y-3218264D01*
X-15847554Y-2511158D01*
X-15211158Y-3147554D01*
X-15918264Y-3854660D01*
X-15918264Y-3854660D01*
G37*
G36*
X-15140446Y-3076842D02*
X-15776842Y-2440446D01*
X-15069736Y-1733340D01*
X-14433340Y-2369736D01*
X-15140446Y-3076842D01*
X-15140446Y-3076842D01*
G37*
G36*
X-3218264Y13671340D02*
X-3854660Y14307736D01*
X-3147554Y15014842D01*
X-2511158Y14378446D01*
X-3218264Y13671340D01*
X-3218264Y13671340D01*
G37*
G36*
X-2440446Y14449158D02*
X-3076842Y15085554D01*
X-2369736Y15792660D01*
X-1733340Y15156264D01*
X-2440446Y14449158D01*
X-2440446Y14449158D01*
G37*
G36*
X-7790264Y9099340D02*
X-8426660Y9735736D01*
X-7719554Y10442842D01*
X-7083158Y9806446D01*
X-7790264Y9099340D01*
X-7790264Y9099340D01*
G37*
G36*
X-7012446Y9877158D02*
X-7648842Y10513554D01*
X-6941736Y11220660D01*
X-6305340Y10584264D01*
X-7012446Y9877158D01*
X-7012446Y9877158D01*
G37*
G36*
X-4107264Y14560340D02*
X-4743660Y15196736D01*
X-4036554Y15903842D01*
X-3400158Y15267446D01*
X-4107264Y14560340D01*
X-4107264Y14560340D01*
G37*
G36*
X-3329446Y15338158D02*
X-3965842Y15974554D01*
X-3258736Y16681660D01*
X-2622340Y16045264D01*
X-3329446Y15338158D01*
X-3329446Y15338158D01*
G37*
G36*
X10203264Y-6686340D02*
X10839660Y-7322736D01*
X10132554Y-8029842D01*
X9496158Y-7393446D01*
X10203264Y-6686340D01*
X10203264Y-6686340D01*
G37*
G36*
X9425446Y-7464158D02*
X10061842Y-8100554D01*
X9354736Y-8807660D01*
X8718340Y-8171264D01*
X9425446Y-7464158D01*
X9425446Y-7464158D01*
G37*
G36*
X4869264Y-12020340D02*
X5505660Y-12656736D01*
X4798554Y-13363842D01*
X4162158Y-12727446D01*
X4869264Y-12020340D01*
X4869264Y-12020340D01*
G37*
G36*
X4091446Y-12798158D02*
X4727842Y-13434554D01*
X4020736Y-14141660D01*
X3384340Y-13505264D01*
X4091446Y-12798158D01*
X4091446Y-12798158D01*
G37*
G36*
X13417340Y3472264D02*
X14053736Y4108660D01*
X14760842Y3401554D01*
X14124446Y2765158D01*
X13417340Y3472264D01*
X13417340Y3472264D01*
G37*
G36*
X14195158Y2694446D02*
X14831554Y3330842D01*
X15538660Y2623736D01*
X14902264Y1987340D01*
X14195158Y2694446D01*
X14195158Y2694446D01*
G37*
G36*
X-1987340Y-14902264D02*
X-2623736Y-15538660D01*
X-3330842Y-14831554D01*
X-2694446Y-14195158D01*
X-1987340Y-14902264D01*
X-1987340Y-14902264D01*
G37*
G36*
X-2765158Y-14124446D02*
X-3401554Y-14760842D01*
X-4108660Y-14053736D01*
X-3472264Y-13417340D01*
X-2765158Y-14124446D01*
X-2765158Y-14124446D01*
G37*
G36*
X9480340Y7409264D02*
X10116736Y8045660D01*
X10823842Y7338554D01*
X10187446Y6702158D01*
X9480340Y7409264D01*
X9480340Y7409264D01*
G37*
G36*
X10258158Y6631446D02*
X10894554Y7267842D01*
X11601660Y6560736D01*
X10965264Y5924340D01*
X10258158Y6631446D01*
X10258158Y6631446D01*
G37*
G36*
X-6686340Y-10203264D02*
X-7322736Y-10839660D01*
X-8029842Y-10132554D01*
X-7393446Y-9496158D01*
X-6686340Y-10203264D01*
X-6686340Y-10203264D01*
G37*
G36*
X-7464158Y-9425446D02*
X-8100554Y-10061842D01*
X-8807660Y-9354736D01*
X-8171264Y-8718340D01*
X-7464158Y-9425446D01*
X-7464158Y-9425446D01*
G37*
D27*
X-1650000Y-18050000D03*
X1650000Y-18050000D03*
X1650000Y-20050000D03*
X-1650000Y-20050000D03*
D10*
G36*
X-27832237Y17438079D02*
X-29551921Y19157763D01*
X-28047763Y20661921D01*
X-26328079Y18942237D01*
X-27832237Y17438079D01*
X-27832237Y17438079D01*
G37*
D12*
X-26251712Y20953814D02*
X-26036186Y20738288D01*
X-24455661Y22749865D02*
X-24240135Y22534339D01*
X-22659609Y24545917D02*
X-22444083Y24330391D01*
X-20863558Y26341968D02*
X-20648032Y26126442D01*
X-19067507Y28138019D02*
X-18851981Y27922493D01*
D10*
G36*
X27832237Y-17438079D02*
X29551921Y-19157763D01*
X28047763Y-20661921D01*
X26328079Y-18942237D01*
X27832237Y-17438079D01*
X27832237Y-17438079D01*
G37*
D12*
X26251712Y-20953814D02*
X26036186Y-20738288D01*
X24455661Y-22749865D02*
X24240135Y-22534339D01*
X22659609Y-24545917D02*
X22444083Y-24330391D01*
X20863558Y-26341968D02*
X20648032Y-26126442D01*
X19067507Y-28138019D02*
X18851981Y-27922493D01*
D10*
G36*
X-17528977Y-24333012D02*
X-16786515Y-25075474D01*
X-17818891Y-26107850D01*
X-18561353Y-25365388D01*
X-17528977Y-24333012D01*
X-17528977Y-24333012D01*
G37*
G36*
X-16857226Y-25004764D02*
X-16114764Y-25747226D01*
X-17147140Y-26779602D01*
X-17889602Y-26037140D01*
X-16857226Y-25004764D01*
X-16857226Y-25004764D01*
G37*
G36*
X-16185474Y-25676515D02*
X-15443012Y-26418977D01*
X-16475388Y-27451353D01*
X-17217850Y-26708891D01*
X-16185474Y-25676515D01*
X-16185474Y-25676515D01*
G37*
G36*
X-17741109Y-27232150D02*
X-16998647Y-27974612D01*
X-18031023Y-29006988D01*
X-18773485Y-28264526D01*
X-17741109Y-27232150D01*
X-17741109Y-27232150D01*
G37*
G36*
X-19084612Y-25888647D02*
X-18342150Y-26631109D01*
X-19374526Y-27663485D01*
X-20116988Y-26921023D01*
X-19084612Y-25888647D01*
X-19084612Y-25888647D01*
G37*
G36*
X-18412860Y-26560398D02*
X-17670398Y-27302860D01*
X-18702774Y-28335236D01*
X-19445236Y-27592774D01*
X-18412860Y-26560398D01*
X-18412860Y-26560398D01*
G37*
G36*
X-24554264Y16719340D02*
X-25190660Y17355736D01*
X-24483554Y18062842D01*
X-23847158Y17426446D01*
X-24554264Y16719340D01*
X-24554264Y16719340D01*
G37*
G36*
X-23776446Y17497158D02*
X-24412842Y18133554D01*
X-23705736Y18840660D01*
X-23069340Y18204264D01*
X-23776446Y17497158D01*
X-23776446Y17497158D01*
G37*
G36*
X24554264Y-16719340D02*
X25190660Y-17355736D01*
X24483554Y-18062842D01*
X23847158Y-17426446D01*
X24554264Y-16719340D01*
X24554264Y-16719340D01*
G37*
G36*
X23776446Y-17497158D02*
X24412842Y-18133554D01*
X23705736Y-18840660D01*
X23069340Y-18204264D01*
X23776446Y-17497158D01*
X23776446Y-17497158D01*
G37*
G36*
X-15664264Y7829340D02*
X-16300660Y8465736D01*
X-15593554Y9172842D01*
X-14957158Y8536446D01*
X-15664264Y7829340D01*
X-15664264Y7829340D01*
G37*
G36*
X-14886446Y8607158D02*
X-15522842Y9243554D01*
X-14815736Y9950660D01*
X-14179340Y9314264D01*
X-14886446Y8607158D01*
X-14886446Y8607158D01*
G37*
G36*
X15664264Y-7829340D02*
X16300660Y-8465736D01*
X15593554Y-9172842D01*
X14957158Y-8536446D01*
X15664264Y-7829340D01*
X15664264Y-7829340D01*
G37*
G36*
X14886446Y-8607158D02*
X15522842Y-9243554D01*
X14815736Y-9950660D01*
X14179340Y-9314264D01*
X14886446Y-8607158D01*
X14886446Y-8607158D01*
G37*
G36*
X-20110660Y-28150736D02*
X-19474264Y-27514340D01*
X-18767158Y-28221446D01*
X-19403554Y-28857842D01*
X-20110660Y-28150736D01*
X-20110660Y-28150736D01*
G37*
G36*
X-19332842Y-28928554D02*
X-18696446Y-28292158D01*
X-17989340Y-28999264D01*
X-18625736Y-29635660D01*
X-19332842Y-28928554D01*
X-19332842Y-28928554D01*
G37*
D25*
X-8569960Y-26050240D03*
X-8569960Y-25400000D03*
X-8569960Y-24749760D03*
X-6670040Y-24749760D03*
X-6670040Y-25400000D03*
X-6670040Y-26050240D03*
D28*
X-23523521Y-19986714D03*
X-19987987Y-23522248D03*
D29*
X-26139816Y-21188796D03*
X-21190068Y-26138543D03*
M02*
