G04 #@! TF.FileFunction,Copper,L2,Inr,Plane*
%FSLAX46Y46*%
G04 Gerber Fmt 4.6, Leading zero omitted, Abs format (unit mm)*
G04 Created by KiCad (PCBNEW 4.0.6-e0-6349~53~ubuntu14.04.1) date Wed Apr 12 20:46:25 2017*
%MOMM*%
%LPD*%
G01*
G04 APERTURE LIST*
%ADD10C,0.200000*%
%ADD11C,3.500000*%
%ADD12C,1.727200*%
%ADD13R,1.727200X1.727200*%
%ADD14O,1.727200X1.727200*%
%ADD15C,0.950000*%
%ADD16C,1.550000*%
%ADD17C,2.032000*%
%ADD18C,0.600000*%
%ADD19C,0.500000*%
%ADD20C,0.250000*%
%ADD21C,0.254000*%
G04 APERTURE END LIST*
D10*
D11*
X-28575000Y17780000D03*
D10*
G36*
X14077763Y24705922D02*
X12640922Y26142763D01*
X13862237Y27364078D01*
X15299078Y25927237D01*
X14077763Y24705922D01*
X14077763Y24705922D01*
G37*
D12*
X15658288Y27938814D02*
X15873814Y27723288D01*
X17454339Y29734865D02*
X17669865Y29519339D01*
D13*
X11430000Y-28575000D03*
D14*
X11430000Y-31115000D03*
X8890000Y-28575000D03*
X8890000Y-31115000D03*
X6350000Y-28575000D03*
X6350000Y-31115000D03*
X3810000Y-28575000D03*
X3810000Y-31115000D03*
X1270000Y-28575000D03*
X1270000Y-31115000D03*
X-1270000Y-28575000D03*
X-1270000Y-31115000D03*
X-3810000Y-28575000D03*
X-3810000Y-31115000D03*
X-6350000Y-28575000D03*
X-6350000Y-31115000D03*
X-8890000Y-28575000D03*
X-8890000Y-31115000D03*
X-11430000Y-28575000D03*
X-11430000Y-31115000D03*
D13*
X-28575000Y-11430000D03*
D14*
X-31115000Y-11430000D03*
X-28575000Y-8890000D03*
X-31115000Y-8890000D03*
X-28575000Y-6350000D03*
X-31115000Y-6350000D03*
X-28575000Y-3810000D03*
X-31115000Y-3810000D03*
X-28575000Y-1270000D03*
X-31115000Y-1270000D03*
X-28575000Y1270000D03*
X-31115000Y1270000D03*
X-28575000Y3810000D03*
X-31115000Y3810000D03*
X-28575000Y6350000D03*
X-31115000Y6350000D03*
X-28575000Y8890000D03*
X-31115000Y8890000D03*
X-28575000Y11430000D03*
X-31115000Y11430000D03*
D13*
X-11430000Y28575000D03*
D14*
X-11430000Y31115000D03*
X-8890000Y28575000D03*
X-8890000Y31115000D03*
X-6350000Y28575000D03*
X-6350000Y31115000D03*
X-3810000Y28575000D03*
X-3810000Y31115000D03*
X-1270000Y28575000D03*
X-1270000Y31115000D03*
X1270000Y28575000D03*
X1270000Y31115000D03*
X3810000Y28575000D03*
X3810000Y31115000D03*
X6350000Y28575000D03*
X6350000Y31115000D03*
X8890000Y28575000D03*
X8890000Y31115000D03*
X11430000Y28575000D03*
X11430000Y31115000D03*
D13*
X28575000Y11430000D03*
D14*
X31115000Y11430000D03*
X28575000Y8890000D03*
X31115000Y8890000D03*
X28575000Y6350000D03*
X31115000Y6350000D03*
X28575000Y3810000D03*
X31115000Y3810000D03*
X28575000Y1270000D03*
X31115000Y1270000D03*
X28575000Y-1270000D03*
X31115000Y-1270000D03*
X28575000Y-3810000D03*
X31115000Y-3810000D03*
X28575000Y-6350000D03*
X31115000Y-6350000D03*
X28575000Y-8890000D03*
X31115000Y-8890000D03*
X28575000Y-11430000D03*
X31115000Y-11430000D03*
D15*
X-19986714Y-23523521D03*
X-23522248Y-19987987D03*
D16*
X-21188796Y-26139816D03*
X-26138543Y-21190068D03*
D10*
G36*
X-25290000Y20478685D02*
X-26511315Y21700000D01*
X-25290000Y22921315D01*
X-24068685Y21700000D01*
X-25290000Y20478685D01*
X-25290000Y20478685D01*
G37*
D12*
X-23493949Y19903949D02*
X-23493949Y19903949D01*
X-23493949Y23496051D02*
X-23493949Y23496051D01*
X-21697898Y21700000D02*
X-21697898Y21700000D01*
X-21697898Y25292102D02*
X-21697898Y25292102D01*
X-19901846Y23496051D02*
X-19901846Y23496051D01*
D10*
G36*
X25290000Y-20478685D02*
X26511315Y-21700000D01*
X25290000Y-22921315D01*
X24068685Y-21700000D01*
X25290000Y-20478685D01*
X25290000Y-20478685D01*
G37*
D12*
X23493949Y-19903949D02*
X23493949Y-19903949D01*
X23493949Y-23496051D02*
X23493949Y-23496051D01*
X21697898Y-21700000D02*
X21697898Y-21700000D01*
X21697898Y-25292102D02*
X21697898Y-25292102D01*
X19901846Y-23496051D02*
X19901846Y-23496051D01*
D11*
X-17780000Y28575000D03*
X28575000Y-17780000D03*
X17780000Y-28575000D03*
D10*
G36*
X27940000Y17311841D02*
X29376841Y15875000D01*
X27940000Y14438159D01*
X26503159Y15875000D01*
X27940000Y17311841D01*
X27940000Y17311841D01*
G37*
D17*
X26143949Y14078949D02*
X26143949Y14078949D01*
D18*
X23950000Y22550000D03*
X20750000Y17050000D03*
X7030331Y-5969670D03*
X9750000Y10950000D03*
X-4750000Y-7750000D03*
X-600000Y-9550000D03*
X-10200000Y12950000D03*
X-9850000Y7450000D03*
X3900000Y-9450000D03*
X11700000Y5500000D03*
X-11550000Y-5450000D03*
X-16750000Y11750000D03*
X6000000Y-16850000D03*
X17400000Y-8800000D03*
X-8600000Y-16950000D03*
X16350000Y6050000D03*
X8900000Y16950000D03*
X-16950000Y8750000D03*
X-16250000Y-5950000D03*
X20500000Y3800000D03*
X-20500000Y-3800000D03*
X-3800000Y20500000D03*
X3850000Y-20500000D03*
X-2050000Y-21150000D03*
X-21100000Y2050000D03*
X-6100000Y16500000D03*
X2100000Y21050000D03*
X21050000Y-2100000D03*
X-11100000Y-7050000D03*
X4050000Y-2150000D03*
X-5400000Y-7100000D03*
X4700000Y-2750000D03*
X3400000Y-5200000D03*
X3950000Y-6100000D03*
X-9500000Y2450000D03*
X-9150000Y3950000D03*
X-8100000Y4800000D03*
X5700000Y23750000D03*
X6250000Y23150000D03*
X5950000Y3500000D03*
X9500000Y-3200000D03*
X7900000Y3650000D03*
X8450000Y2950000D03*
X9250000Y2450000D03*
X8750000Y-4300000D03*
X7750000Y-5200000D03*
X-3250000Y-9400000D03*
X-3250000Y-7500000D03*
X-3050000Y-2150000D03*
X1050000Y21000000D03*
X21000000Y-1050000D03*
X-21050000Y1100000D03*
X-1100000Y-21050000D03*
X50000Y-5150000D03*
X5250000Y-50000D03*
X50000Y5250000D03*
X-5000000Y-500000D03*
X918750Y-15918750D03*
X-918750Y-15918750D03*
X918750Y-17756250D03*
X-918750Y-17756250D03*
X15918750Y-918750D03*
X15918750Y918750D03*
X17756250Y-918750D03*
X17756250Y918750D03*
X918750Y15918750D03*
X918750Y17756250D03*
X-918750Y15918750D03*
X-918750Y17756250D03*
X-15918750Y-918750D03*
X-17756250Y-918750D03*
X-15918750Y918750D03*
X-17756250Y918750D03*
X16900000Y20850000D03*
X10650000Y-6350000D03*
X16600000Y-8800000D03*
X-9000000Y-16050000D03*
X-9550000Y12400000D03*
X-10750000Y10650000D03*
X13200000Y18200000D03*
X8400000Y9450000D03*
X23800000Y100000D03*
X100000Y-23800000D03*
X-23800000Y-100000D03*
X-16050000Y8750000D03*
X8900000Y16050000D03*
X-50000Y23800000D03*
X1950000Y24600000D03*
X24650000Y-1850000D03*
X11150000Y22150000D03*
X21150000Y-11100000D03*
X8800000Y-16050000D03*
X-8750000Y-18050000D03*
X-1900000Y-24650000D03*
X-12100000Y-18700000D03*
X-21150000Y11100000D03*
X-8750000Y16050000D03*
X16050000Y8900000D03*
X19700000Y4650000D03*
X-16050000Y-8750000D03*
X-11450000Y-9850000D03*
X-24000000Y2550000D03*
X-19850000Y-4500000D03*
X-23150000Y9650000D03*
X-24000000Y-9150000D03*
X-24000000Y-4100000D03*
X9700000Y23200000D03*
X-9150000Y24000000D03*
X-4150000Y24000000D03*
X-4500000Y19850000D03*
X24000000Y9150000D03*
X24000000Y4150000D03*
X23150000Y-9600000D03*
X-9650000Y-23300000D03*
X9200000Y-24000000D03*
X4150000Y-24000000D03*
X4500000Y-19850000D03*
X-10950000Y7800000D03*
X-8250000Y-11000000D03*
X11350000Y6500000D03*
X2400000Y8900000D03*
X-6050000Y-24000000D03*
X24000000Y-6100000D03*
X7000000Y23550000D03*
X-24000000Y6000000D03*
X-11650000Y-6250000D03*
X-9600000Y-8200000D03*
X5850000Y-11150000D03*
X-8800000Y8200000D03*
X5000000Y1500000D03*
X1350000Y4550000D03*
X-1500000Y5000000D03*
X-4950000Y-1450000D03*
X1450000Y-5250000D03*
X-15000000Y-13600000D03*
X-13600000Y-15000000D03*
X-9200000Y-13800000D03*
X-4000000Y-3400000D03*
X-4750000Y-3300000D03*
X-5550000Y-3650000D03*
X-6350000Y-3850000D03*
X1800000Y9550000D03*
X-4150000Y4600000D03*
X-4150000Y5500000D03*
X-4150000Y6350000D03*
X-4400000Y7150000D03*
X3700000Y8600000D03*
X5000000Y8300000D03*
X-22900000Y-8050000D03*
X-22000000Y-8050000D03*
X-21350000Y-6750000D03*
X-21350000Y-7550000D03*
X-14150000Y-7700000D03*
X-13350000Y-7900000D03*
X-13200000Y-6600000D03*
X-12400000Y-6700000D03*
X-1350000Y-4700000D03*
X2650000Y1150000D03*
X0Y0D03*
X-5750000Y2100000D03*
X-11750000Y7400000D03*
X-12550000Y7300000D03*
X-13350000Y7150000D03*
X-14150000Y7000000D03*
X-23150000Y4900000D03*
X-22350000Y4850000D03*
X-21550000Y4700000D03*
X-20700000Y4700000D03*
X-20800000Y-350000D03*
X-23950000Y-1000000D03*
X-8050000Y22900000D03*
X-8050000Y22000000D03*
X-6750000Y21350000D03*
X-7600000Y21300000D03*
X-8150000Y19950000D03*
X-8350000Y20750000D03*
X-9750000Y18650000D03*
X-10400000Y19150000D03*
X7450000Y11750000D03*
X7300000Y12550000D03*
X7150000Y13350000D03*
X7000000Y14150000D03*
X4850000Y23650000D03*
X4850000Y22750000D03*
X4700000Y21950000D03*
X4700000Y21050000D03*
X-1000000Y23950000D03*
X-400000Y20700000D03*
X22900000Y8050000D03*
X22000000Y8050000D03*
X21350000Y6750000D03*
X21350000Y7550000D03*
X14150000Y7800000D03*
X13350000Y8000000D03*
X13200000Y6700000D03*
X12450000Y7150000D03*
X11750000Y-7450000D03*
X12550000Y-7300000D03*
X13350000Y-7150000D03*
X14150000Y-7000000D03*
X23350000Y-4900000D03*
X22450000Y-4900000D03*
X21650000Y-4700000D03*
X20700000Y-4700000D03*
X24000000Y950000D03*
X20750000Y400000D03*
X8100000Y-22850000D03*
X8100000Y-21950000D03*
X6800000Y-21300000D03*
X7600000Y-21300000D03*
X7750000Y-14150000D03*
X7950000Y-13350000D03*
X6650000Y-13200000D03*
X6850000Y-12400000D03*
X-7450000Y-11750000D03*
X-7300000Y-12550000D03*
X-7150000Y-13350000D03*
X-7000000Y-14150000D03*
X-4900000Y-23250000D03*
X-4850000Y-22350000D03*
X-4700000Y-21550000D03*
X-4700000Y-20650000D03*
X1000000Y-23950000D03*
X350000Y-20800000D03*
X-12450000Y9000000D03*
X-20400000Y1600000D03*
X-12450000Y-7700000D03*
X9200000Y13150000D03*
X-7500000Y14100000D03*
X1600000Y20400000D03*
X-14450000Y14450000D03*
X-14300000Y-14300000D03*
X-13100000Y-9200000D03*
X-9100000Y-12450000D03*
X20400000Y-1600000D03*
X12400000Y-9000000D03*
X12500000Y8000000D03*
X-1600000Y-20400000D03*
X7950000Y-12450000D03*
X-8500000Y-11900000D03*
X-21300000Y-24100000D03*
X-27550000Y-20350000D03*
X-23500000Y17850000D03*
X-17050000Y-11350000D03*
X-11300000Y-17000000D03*
X-23250000Y-23250000D03*
X-22300000Y-23200000D03*
X-16600000Y-20500000D03*
X-18750000Y22050000D03*
X-21800000Y-14000000D03*
X-18250000Y23150000D03*
X7050000Y5250000D03*
X16200000Y10350000D03*
X3950000Y4150000D03*
X3350000Y4750000D03*
X4700000Y5250000D03*
X5250000Y5900000D03*
X4750000Y6550000D03*
X15450000Y16000000D03*
X18000000Y13450000D03*
X14750000Y10750000D03*
X4600000Y3550000D03*
X-24250000Y-22450000D03*
X-19950000Y-28500000D03*
X-18450000Y25350000D03*
X-21250000Y16850000D03*
X-22650000Y-16400000D03*
X-23750000Y-17500000D03*
X-15650000Y-19610101D03*
X10000000Y-12500000D03*
X-23100000Y-14650000D03*
X8700000Y-11350000D03*
X24700000Y17100000D03*
X7850000Y5400000D03*
X27850000Y0D03*
X-27850000Y0D03*
X0Y27850000D03*
X7450000Y-3100000D03*
X7000000Y-4000000D03*
D19*
X26143949Y14078949D02*
X23172898Y17050000D01*
X23172898Y17050000D02*
X20750000Y17050000D01*
D20*
X7030331Y-5969670D02*
X7930330Y-5969670D01*
X7930330Y-5969670D02*
X8250000Y-5650000D01*
X6850000Y-7500000D02*
X7030331Y-7319669D01*
X7030331Y-7319669D02*
X7030331Y-5969670D01*
X12100000Y-1800000D02*
X12100000Y5100000D01*
X8250000Y-5650000D02*
X12100000Y-1800000D01*
X12100000Y5100000D02*
X11700000Y5500000D01*
D19*
X9750000Y10950000D02*
X9750000Y6800000D01*
D20*
X11700000Y5500000D02*
X11050000Y5500000D01*
D19*
X9750000Y6800000D02*
X11050000Y5500000D01*
X9750000Y10950000D02*
X3550000Y10950000D01*
X3550000Y10950000D02*
X1150000Y13350000D01*
D20*
X1150000Y13350000D02*
X-1250000Y13350000D01*
X-1250000Y13350000D02*
X-7150000Y7450000D01*
X-7150000Y7450000D02*
X-9850000Y7450000D01*
D19*
X-4750000Y-7750000D02*
X-4750000Y-9400000D01*
X-4750000Y-9400000D02*
X-3400000Y-10750000D01*
D20*
X-10000000Y-5450000D02*
X-4700000Y-10750000D01*
X-11550000Y-5450000D02*
X-10000000Y-5450000D01*
X-4700000Y-10750000D02*
X-3400000Y-10750000D01*
D19*
X-2150000Y-9550000D02*
X-2200000Y-9550000D01*
X-2200000Y-9550000D02*
X-3400000Y-10750000D01*
D20*
X-600000Y-9550000D02*
X-2150000Y-9550000D01*
X4900000Y-9450000D02*
X3900000Y-9450000D01*
X6850000Y-7500000D02*
X4900000Y-9450000D01*
X-9850000Y7450000D02*
X-12250000Y5050000D01*
X-12250000Y-4750000D02*
X-11550000Y-5450000D01*
X-12250000Y5050000D02*
X-12250000Y-4750000D01*
X-3400000Y-10750000D02*
X-2050000Y-12100000D01*
X-2050000Y-12100000D02*
X1250000Y-12100000D01*
X1250000Y-12100000D02*
X3900000Y-9450000D01*
X6000000Y-16850000D02*
X6100000Y-16950000D01*
X6100000Y-16950000D02*
X6450000Y-16950000D01*
X14850000Y-8650000D02*
X6550000Y-16950000D01*
X16050000Y-6900000D02*
X17275000Y-5675000D01*
X17275000Y-5675000D02*
X18100000Y-4850000D01*
X14850000Y-8650000D02*
X16050000Y-7450000D01*
X16050000Y-7450000D02*
X16050000Y-6900000D01*
X6550000Y-16950000D02*
X6450000Y-16950000D01*
D19*
X17400000Y-8800000D02*
X17400000Y-5550000D01*
X8900000Y16950000D02*
X7400000Y16950000D01*
D20*
X17400000Y-5550000D02*
X18100000Y-4850000D01*
D19*
X-14325000Y9825000D02*
X-14325000Y9175000D01*
X-9000000Y13900000D02*
X-10250000Y13900000D01*
X-6400000Y16500000D02*
X-9000000Y13900000D01*
D20*
X-10250000Y13900000D02*
X-13750000Y10400000D01*
D19*
X-6100000Y16500000D02*
X-6400000Y16500000D01*
D20*
X-14325000Y9825000D02*
X-13750000Y10400000D01*
D19*
X-14325000Y9175000D02*
X-15900000Y7600000D01*
X-15900000Y7600000D02*
X-16950000Y7600000D01*
X-16950000Y8750000D02*
X-16950000Y7600000D01*
X-16950000Y7600000D02*
X-17500000Y7050000D01*
X7400000Y16300000D02*
X7500000Y16300000D01*
X16350000Y7450000D02*
X16350000Y6050000D01*
X7500000Y16300000D02*
X16350000Y7450000D01*
D20*
X7400000Y16950000D02*
X7400000Y16300000D01*
X6450000Y-16950000D02*
X5850000Y-17550000D01*
X5250000Y-18150000D02*
X5850000Y-17550000D01*
X5250000Y-18150000D02*
X3850000Y-19550000D01*
X3850000Y-19550000D02*
X3850000Y-20500000D01*
X-6600000Y-17650000D02*
X-6600000Y-16850000D01*
X-8900000Y-14550000D02*
X-10050000Y-14550000D01*
X-6600000Y-16850000D02*
X-8900000Y-14550000D01*
X-7300000Y-16950000D02*
X-6725000Y-17525000D01*
X-8600000Y-16950000D02*
X-7300000Y-16950000D01*
X-17500000Y7050000D02*
X-17500000Y7000000D01*
X-16950000Y7600000D02*
X-17500000Y7050000D01*
X17300000Y6050000D02*
X19000000Y4350000D01*
X16350000Y6050000D02*
X17300000Y6050000D01*
X19550000Y3800000D02*
X20500000Y3800000D01*
X19000000Y4350000D02*
X19550000Y3800000D01*
X7400000Y16950000D02*
X6275000Y18075000D01*
X3300000Y21050000D02*
X2100000Y21050000D01*
X6275000Y18075000D02*
X3850000Y20500000D01*
X3850000Y20500000D02*
X3300000Y21050000D01*
X-18150000Y6350000D02*
X-18150000Y5000000D01*
X-18150000Y5000000D02*
X-21100000Y2050000D01*
X-17500000Y7000000D02*
X-18150000Y6350000D01*
X-17300000Y-5950000D02*
X-13250000Y-10000000D01*
X-13250000Y-10000000D02*
X-12800000Y-10000000D01*
X-17300000Y-5950000D02*
X-19100000Y-4150000D01*
X-19100000Y-4150000D02*
X-19450000Y-3800000D01*
X-19450000Y-3800000D02*
X-20500000Y-3800000D01*
X-16250000Y-5950000D02*
X-17300000Y-5950000D01*
D19*
X-11100000Y-7050000D02*
X-11100000Y-8300000D01*
X-11100000Y-8300000D02*
X-11650000Y-8850000D01*
X-11650000Y-8850000D02*
X-12800000Y-10000000D01*
X-11100000Y-7050000D02*
X-11100000Y-9050000D01*
X-11100000Y-9050000D02*
X-10050000Y-10100000D01*
X-10050000Y-10100000D02*
X-10050000Y-14550000D01*
D20*
X-5375000Y18925000D02*
X-5150000Y19150000D01*
X-3800000Y19550000D02*
X-3800000Y20500000D01*
X-4200000Y19150000D02*
X-3800000Y19550000D01*
X-5150000Y19150000D02*
X-4200000Y19150000D01*
X-5375000Y18925000D02*
X-6100000Y18200000D01*
X-6100000Y18200000D02*
X-6100000Y16500000D01*
X-3100000Y-21150000D02*
X-2050000Y-21150000D01*
X-6725000Y-17525000D02*
X-6600000Y-17650000D01*
X-6600000Y-17650000D02*
X-3700000Y-20550000D01*
X-3700000Y-20550000D02*
X-3100000Y-21150000D01*
X-2050000Y-21150000D02*
X-550000Y-22650000D01*
X-550000Y-22650000D02*
X1700000Y-22650000D01*
X3850000Y-20500000D02*
X1700000Y-22650000D01*
X-21100000Y2050000D02*
X-22750000Y400000D01*
X-22750000Y400000D02*
X-22750000Y-1550000D01*
X-22750000Y-1550000D02*
X-20500000Y-3800000D01*
X2100000Y21050000D02*
X500000Y22650000D01*
X-2550000Y21750000D02*
X-3800000Y20500000D01*
X500000Y22650000D02*
X-1650000Y22650000D01*
X-1650000Y22650000D02*
X-2550000Y21750000D01*
X21050000Y-2100000D02*
X22700000Y-450000D01*
X22700000Y1600000D02*
X20500000Y3800000D01*
X22700000Y-450000D02*
X22700000Y1600000D01*
X20250000Y-2700000D02*
X20850000Y-2100000D01*
X20850000Y-2100000D02*
X21050000Y-2100000D01*
X18100000Y-4850000D02*
X20250000Y-2700000D01*
D19*
X-12450000Y9000000D02*
X-12850000Y9000000D01*
X-12850000Y9000000D02*
X-14050000Y7800000D01*
X-14050000Y7800000D02*
X-14450000Y7800000D01*
D20*
X-20400000Y1600000D02*
X-19350000Y2650000D01*
X-19350000Y2650000D02*
X-19350000Y2700000D01*
X-13050000Y9000000D02*
X-19350000Y2700000D01*
X-12450000Y9000000D02*
X-13050000Y9000000D01*
X-14300000Y-6400000D02*
X-13450000Y-7250000D01*
D19*
X-15950000Y-4750000D02*
X-14300000Y-6400000D01*
D20*
X-19350000Y-1350000D02*
X-14300000Y-6400000D01*
D19*
X-20400000Y1600000D02*
X-19350000Y550000D01*
X-19350000Y550000D02*
X-19350000Y-1350000D01*
X-19350000Y-1350000D02*
X-15950000Y-4750000D01*
X-14950000Y7050000D02*
X-20400000Y1600000D01*
X-14950000Y7300000D02*
X-14950000Y7050000D01*
X-14450000Y7800000D02*
X-14950000Y7300000D01*
D20*
X-19350000Y550000D02*
X-19350000Y-600000D01*
X-19350000Y-600000D02*
X-19350000Y-1350000D01*
X-13450000Y-7250000D02*
X-12900000Y-7250000D01*
X-12900000Y-7250000D02*
X-12450000Y-7700000D01*
D19*
X8200000Y14050000D02*
X9100000Y13150000D01*
X9100000Y13150000D02*
X9200000Y13150000D01*
X8200000Y14050000D02*
X7975000Y14275000D01*
X-6700000Y14100000D02*
X-1400000Y19400000D01*
X-1400000Y19400000D02*
X600000Y19400000D01*
X600000Y19400000D02*
X1600000Y20400000D01*
X-7500000Y14100000D02*
X-6700000Y14100000D01*
D20*
X-50000Y19350000D02*
X-1450000Y19350000D01*
X-6700000Y14100000D02*
X-6500000Y14300000D01*
X-1450000Y19350000D02*
X-6500000Y14300000D01*
X550000Y19350000D02*
X-50000Y19350000D01*
X1600000Y20400000D02*
X550000Y19350000D01*
D19*
X1600000Y20350000D02*
X2550000Y19400000D01*
X1600000Y20400000D02*
X1600000Y20350000D01*
X2850000Y19400000D02*
X7975000Y14275000D01*
X2550000Y19400000D02*
X2850000Y19400000D01*
X24100000Y1800000D02*
X24800000Y1800000D01*
X24800000Y1800000D02*
X25200000Y1400000D01*
X23800000Y2100000D02*
X23800000Y2750000D01*
X24100000Y1800000D02*
X23800000Y2100000D01*
X1850000Y-24100000D02*
X1850000Y-24650000D01*
D20*
X100000Y-26400000D02*
X-250000Y-26400000D01*
X1400000Y-25100000D02*
X100000Y-26400000D01*
X-2900000Y-25400000D02*
X-2050000Y-25400000D01*
X-2050000Y-25400000D02*
X-1250000Y-25400000D01*
X-5850000Y-25400000D02*
X-2900000Y-25400000D01*
X-250000Y-26400000D02*
X-1250000Y-25400000D01*
D19*
X1850000Y-24650000D02*
X1400000Y-25100000D01*
X2000000Y-23950000D02*
X2950000Y-23950000D01*
D20*
X26350000Y-400000D02*
X25400000Y-1350000D01*
X26350000Y250000D02*
X26350000Y-400000D01*
X25200000Y1400000D02*
X26350000Y250000D01*
X25400000Y-6450000D02*
X25400000Y-3900000D01*
X24300000Y-7550000D02*
X25400000Y-6450000D01*
X23650000Y-7550000D02*
X24300000Y-7550000D01*
X21750000Y-9450000D02*
X23650000Y-7550000D01*
X25400000Y-3900000D02*
X25400000Y-1950000D01*
X25400000Y-1350000D02*
X25400000Y-1950000D01*
X2950000Y-23950000D02*
X3400000Y-23500000D01*
X3400000Y-23500000D02*
X17450000Y-9450000D01*
X17450000Y-9450000D02*
X19250000Y-9450000D01*
X19250000Y-9450000D02*
X21750000Y-9450000D01*
D19*
X1850000Y-24100000D02*
X2000000Y-23950000D01*
X-1850000Y24100000D02*
X-2750000Y24100000D01*
X-2750000Y24100000D02*
X-3100000Y23750000D01*
X-1850000Y24800000D02*
X-1200000Y25450000D01*
D20*
X-250000Y26400000D02*
X500000Y26400000D01*
X-1200000Y25450000D02*
X-250000Y26400000D01*
X23800000Y2850000D02*
X23750000Y2900000D01*
X8350000Y18950000D02*
X7700000Y19600000D01*
X3250000Y25400000D02*
X2850000Y25400000D01*
X10550000Y16750000D02*
X8350000Y18950000D01*
X11250000Y16750000D02*
X10550000Y16750000D01*
X17350000Y10650000D02*
X11250000Y16750000D01*
X17350000Y9300000D02*
X17350000Y10650000D01*
X23050000Y3600000D02*
X17350000Y9300000D01*
X1500000Y25400000D02*
X2850000Y25400000D01*
X7700000Y19600000D02*
X7700000Y23800000D01*
X7700000Y23800000D02*
X6100000Y25400000D01*
X6100000Y25400000D02*
X3250000Y25400000D01*
X23750000Y2900000D02*
X23050000Y3600000D01*
X23800000Y2750000D02*
X23800000Y2850000D01*
X500000Y26400000D02*
X1500000Y25400000D01*
D19*
X-1850000Y24100000D02*
X-1850000Y24800000D01*
X-20700000Y-6200000D02*
X-20500000Y-6400000D01*
D20*
X-23525000Y-3375000D02*
X-20700000Y-6200000D01*
X-24100000Y-2800000D02*
X-24100000Y-1850000D01*
X-23525000Y-3375000D02*
X-24100000Y-2800000D01*
D19*
X-20500000Y-6400000D02*
X-20500000Y-9100000D01*
X-20500000Y-9100000D02*
X-16850000Y-12750000D01*
D20*
X-24100000Y-1850000D02*
X-25400000Y-550000D01*
X-25400000Y-550000D02*
X-25400000Y1050000D01*
X-25400000Y3600000D02*
X-25400000Y2800000D01*
X-19450000Y9550000D02*
X-25400000Y3600000D01*
X-25400000Y1050000D02*
X-25400000Y1750000D01*
X-3700000Y23150000D02*
X-17150000Y9700000D01*
X-17150000Y9700000D02*
X-19450000Y9700000D01*
X-25400000Y2800000D02*
X-25400000Y1750000D01*
X-19450000Y9700000D02*
X-19450000Y9550000D01*
X-3100000Y23750000D02*
X-3700000Y23150000D01*
D19*
X-14300000Y-14300000D02*
X-14200000Y-14200000D01*
X-13250000Y-14200000D02*
X-12800000Y-14650000D01*
X-14200000Y-14200000D02*
X-13250000Y-14200000D01*
X-12100000Y-15350000D02*
X-12100000Y-15600000D01*
X-12800000Y-14650000D02*
X-12100000Y-15350000D01*
X-14100000Y-14100000D02*
X-14100000Y-13350000D01*
X-14300000Y-14300000D02*
X-14100000Y-14100000D01*
D20*
X-7750000Y-23500000D02*
X-5850000Y-25400000D01*
X-7750000Y-21800000D02*
X-7750000Y-23500000D01*
X-12100000Y-15600000D02*
X-12100000Y-17450000D01*
X-12100000Y-17450000D02*
X-7750000Y-21800000D01*
D19*
X-16850000Y-12750000D02*
X-14700000Y-12750000D01*
X-14700000Y-12750000D02*
X-14100000Y-13350000D01*
X19400000Y-600000D02*
X19400000Y1400000D01*
X20400000Y-1600000D02*
X19400000Y-600000D01*
D20*
X19400000Y0D02*
X19400000Y1400000D01*
X19400000Y-600000D02*
X19400000Y0D01*
D19*
X12400000Y-9000000D02*
X12850000Y-9000000D01*
D20*
X12400000Y-9000000D02*
X13050000Y-9000000D01*
X13050000Y-9000000D02*
X19200000Y-2850000D01*
X19200000Y-2800000D02*
X19200000Y-2850000D01*
X20400000Y-1600000D02*
X19200000Y-2800000D01*
D19*
X12850000Y-9000000D02*
X14050000Y-7800000D01*
X14050000Y-7800000D02*
X14450000Y-7800000D01*
X14450000Y-7800000D02*
X14950000Y-7300000D01*
X14950000Y-7300000D02*
X14950000Y-7050000D01*
X14950000Y-7050000D02*
X20400000Y-1600000D01*
X19400000Y1400000D02*
X14200000Y6600000D01*
D20*
X14200000Y6600000D02*
X13450000Y7350000D01*
X19400000Y1400000D02*
X14200000Y6600000D01*
X13450000Y7350000D02*
X13150000Y7350000D01*
X13150000Y7350000D02*
X12500000Y8000000D01*
D19*
X-1600000Y-20400000D02*
X-550000Y-19350000D01*
X-550000Y-19350000D02*
X1400000Y-19350000D01*
X1400000Y-19350000D02*
X6700000Y-14050000D01*
X-1650000Y-20400000D02*
X-1600000Y-20400000D01*
X-7100000Y-14950000D02*
X-1650000Y-20400000D01*
X-7300000Y-14950000D02*
X-7100000Y-14950000D01*
D20*
X-1600000Y-20400000D02*
X-2650000Y-19350000D01*
X-2650000Y-19350000D02*
X-2700000Y-19350000D01*
X-550000Y-19350000D02*
X400000Y-19350000D01*
X3350000Y-17400000D02*
X1825000Y-18925000D01*
X6900000Y-13850000D02*
X6700000Y-14050000D01*
X6700000Y-14050000D02*
X3350000Y-17400000D01*
X7300000Y-13450000D02*
X6900000Y-13850000D01*
X7300000Y-13100000D02*
X7300000Y-13450000D01*
X7450000Y-12950000D02*
X7300000Y-13100000D01*
X7950000Y-12450000D02*
X7450000Y-12950000D01*
X1400000Y-19350000D02*
X400000Y-19350000D01*
X1825000Y-18925000D02*
X1400000Y-19350000D01*
D19*
X-8500000Y-11900000D02*
X-8250000Y-12150000D01*
X-8250000Y-12150000D02*
X-8250000Y-14000000D01*
X-8250000Y-14000000D02*
X-7300000Y-14950000D01*
D20*
X-8250000Y-13800000D02*
X-2700000Y-19350000D01*
X-8250000Y-12150000D02*
X-8250000Y-13800000D01*
D19*
X-21300000Y-24100000D02*
X-21300000Y-23050000D01*
X-27100000Y-19900000D02*
X-27550000Y-20350000D01*
X-25500000Y-19900000D02*
X-27100000Y-19900000D01*
X-24400000Y-21000000D02*
X-25500000Y-19900000D01*
X-23350000Y-21000000D02*
X-24400000Y-21000000D01*
X-21300000Y-23050000D02*
X-23350000Y-21000000D01*
D20*
X11850000Y18650000D02*
X11850000Y25200000D01*
X11850000Y25200000D02*
X11450000Y25600000D01*
X18575000Y-11925000D02*
X25225000Y-11925000D01*
X25225000Y-11925000D02*
X25700000Y-11450000D01*
X27700000Y0D02*
X27850000Y0D01*
X0Y-27700000D02*
X0Y-27850000D01*
X-27700000Y0D02*
X-27850000Y0D01*
X0Y27700000D02*
X0Y27850000D01*
X6250000Y27250000D02*
X1600000Y27250000D01*
X1600000Y27250000D02*
X1000000Y27250000D01*
X8950000Y27250000D02*
X6250000Y27250000D01*
X9800000Y27250000D02*
X8950000Y27250000D01*
X11450000Y25600000D02*
X9800000Y27250000D01*
X700000Y27250000D02*
X250000Y27700000D01*
X250000Y27700000D02*
X0Y27700000D01*
X1000000Y27250000D02*
X700000Y27250000D01*
X9250000Y-27250000D02*
X10105000Y-27250000D01*
X10105000Y-27250000D02*
X11430000Y-28575000D01*
X11450000Y-24150000D02*
X11450000Y-28555000D01*
X11450000Y-28555000D02*
X11430000Y-28575000D01*
X27200000Y9050000D02*
X27200000Y10055000D01*
X27200000Y10055000D02*
X28575000Y11430000D01*
X24650000Y11430000D02*
X28575000Y11430000D01*
X-8700000Y27250000D02*
X-10105000Y27250000D01*
X-10105000Y27250000D02*
X-11430000Y28575000D01*
X-11430000Y24100000D02*
X-11430000Y28575000D01*
X700000Y-27250000D02*
X1350000Y-27250000D01*
X250000Y-27700000D02*
X700000Y-27250000D01*
X0Y-27700000D02*
X250000Y-27700000D01*
X27200000Y-1000000D02*
X27200000Y-750000D01*
X1550000Y-27250000D02*
X9250000Y-27250000D01*
X1350000Y-27250000D02*
X1550000Y-27250000D01*
X10105000Y-27250000D02*
X11450000Y-25905000D01*
X11450000Y-25905000D02*
X11450000Y-24150000D01*
X11450000Y-24150000D02*
X11450000Y-23800000D01*
X11450000Y-23800000D02*
X11450000Y-19050000D01*
X25700000Y-11450000D02*
X27200000Y-9950000D01*
X27200000Y-9950000D02*
X27200000Y-1000000D01*
X11450000Y-19050000D02*
X18575000Y-11925000D01*
X-27700000Y-250000D02*
X-27250000Y-700000D01*
X-27700000Y250000D02*
X-27700000Y0D01*
X-27700000Y0D02*
X-27700000Y-250000D01*
X-27250000Y700000D02*
X-27700000Y250000D01*
X-700000Y27250000D02*
X-1300000Y27250000D01*
X-250000Y27700000D02*
X-700000Y27250000D01*
X0Y27700000D02*
X-250000Y27700000D01*
X19070000Y11430000D02*
X11850000Y18650000D01*
X25825000Y11430000D02*
X24650000Y11430000D01*
X27200000Y10055000D02*
X25825000Y11430000D01*
X24650000Y11430000D02*
X19070000Y11430000D01*
X27200000Y8950000D02*
X27200000Y9050000D01*
X27200000Y1350000D02*
X27200000Y8950000D01*
X-25200000Y11800000D02*
X-27250000Y9750000D01*
X-18700000Y11800000D02*
X-25200000Y11800000D01*
X-11430000Y19070000D02*
X-18700000Y11800000D01*
X-11430000Y25500000D02*
X-11430000Y24100000D01*
X-11430000Y24100000D02*
X-11430000Y19070000D01*
X-11430000Y25870000D02*
X-11430000Y25500000D01*
X-10050000Y27250000D02*
X-11430000Y25870000D01*
X-9750000Y27250000D02*
X-8700000Y27250000D01*
X-8700000Y27250000D02*
X-1300000Y27250000D01*
X-10050000Y27250000D02*
X-9750000Y27250000D01*
X-27250000Y9750000D02*
X-27250000Y1400000D01*
X-27250000Y-700000D02*
X-27250000Y-750000D01*
X-27250000Y1400000D02*
X-27250000Y700000D01*
X27200000Y-750000D02*
X27700000Y-250000D01*
X27700000Y-250000D02*
X27700000Y0D01*
X27700000Y0D02*
X27700000Y250000D01*
X27700000Y250000D02*
X27200000Y750000D01*
X27200000Y750000D02*
X27200000Y1350000D01*
X-28555000Y-11450000D02*
X-28575000Y-11430000D01*
X-27250000Y-9100000D02*
X-27250000Y-10105000D01*
X-27250000Y-10105000D02*
X-28575000Y-11430000D01*
X-27250000Y-9100000D02*
X-27250000Y-750000D01*
X-27250000Y-750000D02*
X-27250000Y-1300000D01*
X-27250000Y-8900000D02*
X-27250000Y-9400000D01*
X-27250000Y-1300000D02*
X-27250000Y-8900000D01*
X-27250000Y-9400000D02*
X-27250000Y-9750000D01*
X-27250000Y-9750000D02*
X-27250000Y-10105000D01*
X-28575000Y-11430000D02*
X-28555000Y-11450000D01*
X11430000Y-28575000D02*
X11425000Y-28575000D01*
X11430000Y-28575000D02*
X11430000Y-28570000D01*
D21*
G36*
X162599Y26712599D02*
X409161Y26547852D01*
X700000Y26490000D01*
X830394Y26490000D01*
X1410197Y25910197D01*
X1452211Y25882334D01*
X1500000Y25873000D01*
X10102198Y25873000D01*
X10373000Y25602198D01*
X10373000Y23849270D01*
X10230327Y23992192D01*
X9886799Y24134838D01*
X9514833Y24135162D01*
X9171057Y23993117D01*
X8907808Y23730327D01*
X8765162Y23386799D01*
X8764838Y23014833D01*
X8906883Y22671057D01*
X9169673Y22407808D01*
X9513201Y22265162D01*
X9885167Y22264838D01*
X10228943Y22406883D01*
X10255110Y22433005D01*
X10215162Y22336799D01*
X10214838Y21964833D01*
X10356883Y21621057D01*
X10373000Y21604912D01*
X10373000Y19500000D01*
X10383006Y19450590D01*
X10410197Y19410197D01*
X11090000Y18730394D01*
X11090000Y18650000D01*
X11147852Y18359161D01*
X11312599Y18112599D01*
X18532599Y10892599D01*
X18779161Y10727852D01*
X19070000Y10670000D01*
X19150394Y10670000D01*
X19410197Y10410197D01*
X19452211Y10382334D01*
X19500000Y10373000D01*
X25807198Y10373000D01*
X25873000Y10307198D01*
X25873000Y1500000D01*
X25883006Y1450590D01*
X25910197Y1410197D01*
X26440000Y880394D01*
X26440000Y750000D01*
X26497852Y459161D01*
X26662599Y212599D01*
X26875198Y0D01*
X26662599Y-212599D01*
X26497852Y-459161D01*
X26440000Y-750000D01*
X26440000Y-880394D01*
X25910197Y-1410197D01*
X25882334Y-1452211D01*
X25873000Y-1500000D01*
X25873000Y-10202198D01*
X25702198Y-10373000D01*
X23699095Y-10373000D01*
X23942192Y-10130327D01*
X24084838Y-9786799D01*
X24085162Y-9414833D01*
X23943117Y-9071057D01*
X23680327Y-8807808D01*
X23336799Y-8665162D01*
X22964833Y-8664838D01*
X22621057Y-8806883D01*
X22357808Y-9069673D01*
X22215162Y-9413201D01*
X22214838Y-9785167D01*
X22356883Y-10128943D01*
X22600514Y-10373000D01*
X21745405Y-10373000D01*
X21680327Y-10307808D01*
X21336799Y-10165162D01*
X20964833Y-10164838D01*
X20621057Y-10306883D01*
X20554825Y-10373000D01*
X19500000Y-10373000D01*
X19450590Y-10383006D01*
X19410197Y-10410197D01*
X18655394Y-11165000D01*
X18575000Y-11165000D01*
X18284161Y-11222852D01*
X18037599Y-11387599D01*
X10912599Y-18512599D01*
X10747852Y-18759161D01*
X10690000Y-19050000D01*
X10690000Y-19130394D01*
X10410197Y-19410197D01*
X10382334Y-19452211D01*
X10373000Y-19500000D01*
X10373000Y-25873000D01*
X1500000Y-25873000D01*
X1450590Y-25883006D01*
X1410197Y-25910197D01*
X830394Y-26490000D01*
X700000Y-26490000D01*
X409161Y-26547852D01*
X162599Y-26712599D01*
X-80893Y-26956091D01*
X-290839Y-26997852D01*
X-309844Y-27010550D01*
X-1410197Y-25910197D01*
X-1452211Y-25882334D01*
X-1500000Y-25873000D01*
X-10373000Y-25873000D01*
X-10373000Y-23899182D01*
X-10180327Y-24092192D01*
X-9836799Y-24234838D01*
X-9464833Y-24235162D01*
X-9121057Y-24093117D01*
X-8857808Y-23830327D01*
X-8715162Y-23486799D01*
X-8714838Y-23114833D01*
X-8856883Y-22771057D01*
X-9119673Y-22507808D01*
X-9463201Y-22365162D01*
X-9835167Y-22364838D01*
X-10178943Y-22506883D01*
X-10373000Y-22700602D01*
X-10373000Y-19500000D01*
X-10383006Y-19450590D01*
X-10410197Y-19410197D01*
X-11164960Y-18655434D01*
X-11164838Y-18514833D01*
X-11306883Y-18171057D01*
X-11569673Y-17907808D01*
X-11913201Y-17765162D01*
X-12055356Y-17765038D01*
X-12635227Y-17185167D01*
X-12235162Y-17185167D01*
X-12093117Y-17528943D01*
X-11830327Y-17792192D01*
X-11486799Y-17934838D01*
X-11114833Y-17935162D01*
X-10771057Y-17793117D01*
X-10507808Y-17530327D01*
X-10365162Y-17186799D01*
X-10364838Y-16814833D01*
X-10506883Y-16471057D01*
X-10769673Y-16207808D01*
X-11113201Y-16065162D01*
X-11485167Y-16064838D01*
X-11828943Y-16206883D01*
X-12092192Y-16469673D01*
X-12234838Y-16813201D01*
X-12235162Y-17185167D01*
X-12635227Y-17185167D01*
X-13955683Y-15864711D01*
X-13786799Y-15934838D01*
X-13414833Y-15935162D01*
X-13071057Y-15793117D01*
X-12807808Y-15530327D01*
X-12665162Y-15186799D01*
X-12664838Y-14814833D01*
X-12806883Y-14471057D01*
X-13069673Y-14207808D01*
X-13413201Y-14065162D01*
X-13785167Y-14064838D01*
X-14128943Y-14206883D01*
X-14392192Y-14469673D01*
X-14534838Y-14813201D01*
X-14535162Y-15185167D01*
X-14464703Y-15355691D01*
X-15355683Y-14464711D01*
X-15186799Y-14534838D01*
X-14814833Y-14535162D01*
X-14471057Y-14393117D01*
X-14207808Y-14130327D01*
X-14065162Y-13786799D01*
X-14064838Y-13414833D01*
X-14206883Y-13071057D01*
X-14469673Y-12807808D01*
X-14813201Y-12665162D01*
X-15185167Y-12664838D01*
X-15528943Y-12806883D01*
X-15792192Y-13069673D01*
X-15934838Y-13413201D01*
X-15935162Y-13785167D01*
X-15864703Y-13955691D01*
X-18285227Y-11535167D01*
X-17985162Y-11535167D01*
X-17843117Y-11878943D01*
X-17580327Y-12142192D01*
X-17236799Y-12284838D01*
X-16864833Y-12285162D01*
X-16521057Y-12143117D01*
X-16257808Y-11880327D01*
X-16115162Y-11536799D01*
X-16114838Y-11164833D01*
X-16256883Y-10821057D01*
X-16519673Y-10557808D01*
X-16863201Y-10415162D01*
X-17235167Y-10414838D01*
X-17578943Y-10556883D01*
X-17842192Y-10819673D01*
X-17984838Y-11163201D01*
X-17985162Y-11535167D01*
X-18285227Y-11535167D01*
X-19410197Y-10410197D01*
X-19452211Y-10382334D01*
X-19500000Y-10373000D01*
X-25873000Y-10373000D01*
X-25873000Y-9335167D01*
X-24935162Y-9335167D01*
X-24793117Y-9678943D01*
X-24530327Y-9942192D01*
X-24186799Y-10084838D01*
X-23814833Y-10085162D01*
X-23471057Y-9943117D01*
X-23207808Y-9680327D01*
X-23065162Y-9336799D01*
X-23064855Y-8984857D01*
X-22714833Y-8985162D01*
X-22449772Y-8875641D01*
X-22186799Y-8984838D01*
X-21814833Y-8985162D01*
X-21471057Y-8843117D01*
X-21207808Y-8580327D01*
X-21168291Y-8485159D01*
X-21164833Y-8485162D01*
X-20821057Y-8343117D01*
X-20557808Y-8080327D01*
X-20415162Y-7736799D01*
X-20414838Y-7364833D01*
X-20503648Y-7149896D01*
X-20415162Y-6936799D01*
X-20414838Y-6564833D01*
X-20556883Y-6221057D01*
X-20819673Y-5957808D01*
X-21163201Y-5815162D01*
X-21535167Y-5814838D01*
X-21878943Y-5956883D01*
X-22142192Y-6219673D01*
X-22284838Y-6563201D01*
X-22285162Y-6935167D01*
X-22207168Y-7123928D01*
X-22450228Y-7224359D01*
X-22713201Y-7115162D01*
X-23085167Y-7114838D01*
X-23428943Y-7256883D01*
X-23692192Y-7519673D01*
X-23834838Y-7863201D01*
X-23835145Y-8215143D01*
X-24185167Y-8214838D01*
X-24528943Y-8356883D01*
X-24792192Y-8619673D01*
X-24934838Y-8963201D01*
X-24935162Y-9335167D01*
X-25873000Y-9335167D01*
X-25873000Y-4285167D01*
X-24935162Y-4285167D01*
X-24793117Y-4628943D01*
X-24530327Y-4892192D01*
X-24186799Y-5034838D01*
X-23814833Y-5035162D01*
X-23471057Y-4893117D01*
X-23207808Y-4630327D01*
X-23065162Y-4286799D01*
X-23064838Y-3914833D01*
X-23206883Y-3571057D01*
X-23469673Y-3307808D01*
X-23813201Y-3165162D01*
X-24185167Y-3164838D01*
X-24528943Y-3306883D01*
X-24792192Y-3569673D01*
X-24934838Y-3913201D01*
X-24935162Y-4285167D01*
X-25873000Y-4285167D01*
X-25873000Y-1500000D01*
X-25883006Y-1450590D01*
X-25910197Y-1410197D01*
X-26490000Y-830394D01*
X-26490000Y-700000D01*
X-26547852Y-409161D01*
X-26712599Y-162599D01*
X-26873444Y-1754D01*
X-26126988Y-1754D01*
X-26116300Y-51022D01*
X-26089803Y-89803D01*
X-24808217Y-1371389D01*
X-24743117Y-1528943D01*
X-24480327Y-1792192D01*
X-24321437Y-1858169D01*
X-9928630Y-16250976D01*
X-9793117Y-16578943D01*
X-9534903Y-16837608D01*
X-9535162Y-17135167D01*
X-9424735Y-17402421D01*
X-9542192Y-17519673D01*
X-9684838Y-17863201D01*
X-9685162Y-18235167D01*
X-9543117Y-18578943D01*
X-9280327Y-18842192D01*
X-8936799Y-18984838D01*
X-8564833Y-18985162D01*
X-8221057Y-18843117D01*
X-7957808Y-18580327D01*
X-7852614Y-18326992D01*
X-5634909Y-20544697D01*
X-5635162Y-20835167D01*
X-5525641Y-21100228D01*
X-5634838Y-21363201D01*
X-5635162Y-21735167D01*
X-5612494Y-21790027D01*
X-5642192Y-21819673D01*
X-5784838Y-22163201D01*
X-5785162Y-22535167D01*
X-5700580Y-22739873D01*
X-5834838Y-23063201D01*
X-5834850Y-23076934D01*
X-5863201Y-23065162D01*
X-6235167Y-23064838D01*
X-6578943Y-23206883D01*
X-6842192Y-23469673D01*
X-6984838Y-23813201D01*
X-6985162Y-24185167D01*
X-6843117Y-24528943D01*
X-6580327Y-24792192D01*
X-6236799Y-24934838D01*
X-5864833Y-24935162D01*
X-5521057Y-24793117D01*
X-5257808Y-24530327D01*
X-5115162Y-24186799D01*
X-5115150Y-24173066D01*
X-5086799Y-24184838D01*
X-4714833Y-24185162D01*
X-4371057Y-24043117D01*
X-4107808Y-23780327D01*
X-3965162Y-23436799D01*
X-3964838Y-23064833D01*
X-4049420Y-22860127D01*
X-3915162Y-22536799D01*
X-3914925Y-22264681D01*
X-2353780Y-23825826D01*
X-2428943Y-23856883D01*
X-2692192Y-24119673D01*
X-2834838Y-24463201D01*
X-2835162Y-24835167D01*
X-2693117Y-25178943D01*
X-2430327Y-25442192D01*
X-2086799Y-25584838D01*
X-1714833Y-25585162D01*
X-1371057Y-25443117D01*
X-1107808Y-25180327D01*
X-1075965Y-25103641D01*
X-89803Y-26089803D01*
X-47789Y-26117666D01*
X1754Y-26126988D01*
X51022Y-26116300D01*
X89803Y-26089803D01*
X1371389Y-24808217D01*
X1528943Y-24743117D01*
X1792192Y-24480327D01*
X1858169Y-24321437D01*
X1994439Y-24185167D01*
X3214838Y-24185167D01*
X3356883Y-24528943D01*
X3619673Y-24792192D01*
X3963201Y-24934838D01*
X4335167Y-24935162D01*
X4678943Y-24793117D01*
X4942192Y-24530327D01*
X5084838Y-24186799D01*
X5085162Y-23814833D01*
X4943117Y-23471057D01*
X4680327Y-23207808D01*
X4336799Y-23065162D01*
X3964833Y-23064838D01*
X3621057Y-23206883D01*
X3357808Y-23469673D01*
X3215162Y-23813201D01*
X3214838Y-24185167D01*
X1994439Y-24185167D01*
X4694439Y-21485167D01*
X5864838Y-21485167D01*
X6006883Y-21828943D01*
X6269673Y-22092192D01*
X6613201Y-22234838D01*
X6985167Y-22235162D01*
X7173928Y-22157168D01*
X7274359Y-22400228D01*
X7165162Y-22663201D01*
X7164838Y-23035167D01*
X7306883Y-23378943D01*
X7569673Y-23642192D01*
X7913201Y-23784838D01*
X8276808Y-23785155D01*
X8265162Y-23813201D01*
X8264838Y-24185167D01*
X8406883Y-24528943D01*
X8669673Y-24792192D01*
X9013201Y-24934838D01*
X9385167Y-24935162D01*
X9728943Y-24793117D01*
X9992192Y-24530327D01*
X10134838Y-24186799D01*
X10135162Y-23814833D01*
X9993117Y-23471057D01*
X9730327Y-23207808D01*
X9386799Y-23065162D01*
X9023192Y-23064845D01*
X9034838Y-23036799D01*
X9035162Y-22664833D01*
X8925641Y-22399772D01*
X9034838Y-22136799D01*
X9035162Y-21764833D01*
X8893117Y-21421057D01*
X8630327Y-21157808D01*
X8535159Y-21118291D01*
X8535162Y-21114833D01*
X8393117Y-20771057D01*
X8130327Y-20507808D01*
X7786799Y-20365162D01*
X7414833Y-20364838D01*
X7199896Y-20453648D01*
X6986799Y-20365162D01*
X6614833Y-20364838D01*
X6271057Y-20506883D01*
X6007808Y-20769673D01*
X5865162Y-21113201D01*
X5864838Y-21485167D01*
X4694439Y-21485167D01*
X16444741Y-9734865D01*
X16785167Y-9735162D01*
X17000104Y-9646352D01*
X17213201Y-9734838D01*
X17585167Y-9735162D01*
X17928943Y-9593117D01*
X18192192Y-9330327D01*
X18334838Y-8986799D01*
X18335162Y-8614833D01*
X18285000Y-8493431D01*
X18285000Y-7894606D01*
X20544741Y-5634865D01*
X20885167Y-5635162D01*
X21175290Y-5515286D01*
X21463201Y-5634838D01*
X21835167Y-5635162D01*
X21854690Y-5627095D01*
X21919673Y-5692192D01*
X22263201Y-5834838D01*
X22635167Y-5835162D01*
X22900228Y-5725641D01*
X23107334Y-5811640D01*
X23065162Y-5913201D01*
X23064838Y-6285167D01*
X23206883Y-6628943D01*
X23469673Y-6892192D01*
X23813201Y-7034838D01*
X24185167Y-7035162D01*
X24528943Y-6893117D01*
X24792192Y-6630327D01*
X24934838Y-6286799D01*
X24935162Y-5914833D01*
X24793117Y-5571057D01*
X24530327Y-5307808D01*
X24242666Y-5188360D01*
X24284838Y-5086799D01*
X24285162Y-4714833D01*
X24143117Y-4371057D01*
X23880327Y-4107808D01*
X23536799Y-3965162D01*
X23164833Y-3964838D01*
X22899772Y-4074359D01*
X22636799Y-3965162D01*
X22264833Y-3964838D01*
X22245310Y-3972905D01*
X22226022Y-3953584D01*
X23840445Y-2339161D01*
X23856883Y-2378943D01*
X24119673Y-2642192D01*
X24463201Y-2784838D01*
X24835167Y-2785162D01*
X25178943Y-2643117D01*
X25442192Y-2380327D01*
X25584838Y-2036799D01*
X25585162Y-1664833D01*
X25443117Y-1321057D01*
X25180327Y-1057808D01*
X25138971Y-1040635D01*
X26089803Y-89803D01*
X26117666Y-47789D01*
X26126988Y1754D01*
X26116300Y51022D01*
X26089803Y89803D01*
X24858217Y1321389D01*
X24793117Y1478943D01*
X24530327Y1742192D01*
X24371437Y1808169D01*
X22214773Y3964833D01*
X23064838Y3964833D01*
X23206883Y3621057D01*
X23469673Y3357808D01*
X23813201Y3215162D01*
X24185167Y3214838D01*
X24528943Y3356883D01*
X24792192Y3619673D01*
X24934838Y3963201D01*
X24935162Y4335167D01*
X24793117Y4678943D01*
X24530327Y4942192D01*
X24186799Y5084838D01*
X23814833Y5085162D01*
X23471057Y4943117D01*
X23207808Y4680327D01*
X23065162Y4336799D01*
X23064838Y3964833D01*
X22214773Y3964833D01*
X18814773Y7364833D01*
X20414838Y7364833D01*
X20503648Y7149896D01*
X20415162Y6936799D01*
X20414838Y6564833D01*
X20556883Y6221057D01*
X20819673Y5957808D01*
X21163201Y5815162D01*
X21535167Y5814838D01*
X21878943Y5956883D01*
X22142192Y6219673D01*
X22284838Y6563201D01*
X22285162Y6935167D01*
X22207168Y7123928D01*
X22450228Y7224359D01*
X22713201Y7115162D01*
X23085167Y7114838D01*
X23428943Y7256883D01*
X23692192Y7519673D01*
X23834838Y7863201D01*
X23835145Y8215143D01*
X24185167Y8214838D01*
X24528943Y8356883D01*
X24792192Y8619673D01*
X24934838Y8963201D01*
X24935162Y9335167D01*
X24793117Y9678943D01*
X24530327Y9942192D01*
X24186799Y10084838D01*
X23814833Y10085162D01*
X23471057Y9943117D01*
X23207808Y9680327D01*
X23065162Y9336799D01*
X23064855Y8984857D01*
X22714833Y8985162D01*
X22449772Y8875641D01*
X22186799Y8984838D01*
X21814833Y8985162D01*
X21471057Y8843117D01*
X21207808Y8580327D01*
X21168291Y8485159D01*
X21164833Y8485162D01*
X20821057Y8343117D01*
X20557808Y8080327D01*
X20415162Y7736799D01*
X20414838Y7364833D01*
X18814773Y7364833D01*
X16908217Y9271389D01*
X16843117Y9428943D01*
X16719355Y9552921D01*
X16728943Y9556883D01*
X16992192Y9819673D01*
X17134838Y10163201D01*
X17135162Y10535167D01*
X16993117Y10878943D01*
X16730327Y11142192D01*
X16386799Y11284838D01*
X16014833Y11285162D01*
X15671057Y11143117D01*
X15620211Y11092360D01*
X15543117Y11278943D01*
X15280327Y11542192D01*
X14936799Y11684838D01*
X14564833Y11685162D01*
X14515024Y11664582D01*
X9758216Y16421390D01*
X9725641Y16500228D01*
X9834838Y16763201D01*
X9835162Y17135167D01*
X9693117Y17478943D01*
X9430327Y17742192D01*
X9086799Y17884838D01*
X8714833Y17885162D01*
X8593431Y17835000D01*
X8344606Y17835000D01*
X5541408Y20638198D01*
X5634838Y20863201D01*
X5635162Y21235167D01*
X5525641Y21500228D01*
X5634838Y21763201D01*
X5635162Y22135167D01*
X5612494Y22190027D01*
X5642192Y22219673D01*
X5705462Y22372044D01*
X5719673Y22357808D01*
X6063201Y22215162D01*
X6435167Y22214838D01*
X6778943Y22356883D01*
X7037477Y22614967D01*
X7185167Y22614838D01*
X7528943Y22756883D01*
X7792192Y23019673D01*
X7934838Y23363201D01*
X7935162Y23735167D01*
X7793117Y24078943D01*
X7530327Y24342192D01*
X7186799Y24484838D01*
X6814833Y24485162D01*
X6471057Y24343117D01*
X6450019Y24322116D01*
X6230327Y24542192D01*
X5886799Y24684838D01*
X5514833Y24685162D01*
X5171057Y24543117D01*
X5161133Y24533210D01*
X5036799Y24584838D01*
X4664833Y24585162D01*
X4321057Y24443117D01*
X4057808Y24180327D01*
X3915162Y23836799D01*
X3914838Y23464833D01*
X4024359Y23199772D01*
X3915162Y22936799D01*
X3914838Y22564833D01*
X3937506Y22509973D01*
X3907808Y22480327D01*
X3846624Y22332982D01*
X2403780Y23775826D01*
X2478943Y23806883D01*
X2742192Y24069673D01*
X2884838Y24413201D01*
X2885162Y24785167D01*
X2743117Y25128943D01*
X2480327Y25392192D01*
X2136799Y25534838D01*
X1764833Y25535162D01*
X1421057Y25393117D01*
X1157808Y25130327D01*
X1125965Y25053641D01*
X89803Y26089803D01*
X47789Y26117666D01*
X-1754Y26126988D01*
X-51022Y26116300D01*
X-89803Y26089803D01*
X-1371389Y24808217D01*
X-1528943Y24743117D01*
X-1792192Y24480327D01*
X-1858169Y24321437D01*
X-16573528Y9606078D01*
X-16763201Y9684838D01*
X-17135167Y9685162D01*
X-17478943Y9543117D01*
X-17742192Y9280327D01*
X-17884838Y8936799D01*
X-17885162Y8564833D01*
X-17835000Y8443431D01*
X-17835000Y8344606D01*
X-20544741Y5634865D01*
X-20885167Y5635162D01*
X-21125166Y5535997D01*
X-21363201Y5634838D01*
X-21735167Y5635162D01*
X-21790027Y5612494D01*
X-21819673Y5642192D01*
X-22163201Y5784838D01*
X-22535167Y5785162D01*
X-22689749Y5721290D01*
X-22963201Y5834838D01*
X-23065143Y5834927D01*
X-23064838Y6185167D01*
X-23206883Y6528943D01*
X-23469673Y6792192D01*
X-23813201Y6934838D01*
X-24185167Y6935162D01*
X-24528943Y6793117D01*
X-24792192Y6530327D01*
X-24934838Y6186799D01*
X-24935162Y5814833D01*
X-24793117Y5471057D01*
X-24530327Y5207808D01*
X-24186799Y5065162D01*
X-24084857Y5065073D01*
X-24085162Y4714833D01*
X-23943117Y4371057D01*
X-23680327Y4107808D01*
X-23336799Y3965162D01*
X-22964833Y3964838D01*
X-22810251Y4028710D01*
X-22536799Y3915162D01*
X-22264681Y3914925D01*
X-23175826Y3003780D01*
X-23206883Y3078943D01*
X-23469673Y3342192D01*
X-23813201Y3484838D01*
X-24185167Y3485162D01*
X-24528943Y3343117D01*
X-24792192Y3080327D01*
X-24934838Y2736799D01*
X-24935162Y2364833D01*
X-24793117Y2021057D01*
X-24530327Y1757808D01*
X-24453641Y1725965D01*
X-26089803Y89803D01*
X-26117666Y47789D01*
X-26126988Y-1754D01*
X-26873444Y-1754D01*
X-26875198Y0D01*
X-26712599Y162599D01*
X-26547852Y409161D01*
X-26490000Y700000D01*
X-26490000Y830394D01*
X-25910197Y1410197D01*
X-25882334Y1452211D01*
X-25873000Y1500000D01*
X-25873000Y10052198D01*
X-25552198Y10373000D01*
X-23749182Y10373000D01*
X-23942192Y10180327D01*
X-24084838Y9836799D01*
X-24085162Y9464833D01*
X-23943117Y9121057D01*
X-23680327Y8857808D01*
X-23336799Y8715162D01*
X-22964833Y8714838D01*
X-22621057Y8856883D01*
X-22357808Y9119673D01*
X-22215162Y9463201D01*
X-22214838Y9835167D01*
X-22356883Y10178943D01*
X-22550602Y10373000D01*
X-21745405Y10373000D01*
X-21680327Y10307808D01*
X-21336799Y10165162D01*
X-20964833Y10164838D01*
X-20621057Y10306883D01*
X-20554825Y10373000D01*
X-19500000Y10373000D01*
X-19450590Y10383006D01*
X-19410197Y10410197D01*
X-18780394Y11040000D01*
X-18700000Y11040000D01*
X-18409161Y11097852D01*
X-18162599Y11262599D01*
X-17685009Y11740189D01*
X-17685162Y11564833D01*
X-17543117Y11221057D01*
X-17280327Y10957808D01*
X-16936799Y10815162D01*
X-16564833Y10814838D01*
X-16221057Y10956883D01*
X-15957808Y11219673D01*
X-15815162Y11563201D01*
X-15814838Y11935167D01*
X-15956883Y12278943D01*
X-16219673Y12542192D01*
X-16563201Y12684838D01*
X-16740206Y12684992D01*
X-10998799Y18426399D01*
X-10930327Y18357808D01*
X-10586799Y18215162D01*
X-10581999Y18215158D01*
X-10543117Y18121057D01*
X-10280327Y17857808D01*
X-9936799Y17715162D01*
X-9564833Y17714838D01*
X-9221057Y17856883D01*
X-8957808Y18119673D01*
X-8815162Y18463201D01*
X-8814838Y18835167D01*
X-8956883Y19178943D01*
X-9219673Y19442192D01*
X-9563201Y19584838D01*
X-9568001Y19584842D01*
X-9606883Y19678943D01*
X-9869673Y19942192D01*
X-10213201Y20084838D01*
X-10373000Y20084977D01*
X-10373000Y23814833D01*
X-10085162Y23814833D01*
X-9943117Y23471057D01*
X-9680327Y23207808D01*
X-9336799Y23065162D01*
X-8984857Y23064855D01*
X-8985162Y22714833D01*
X-8875641Y22449772D01*
X-8984838Y22186799D01*
X-8985162Y21814833D01*
X-8873774Y21545253D01*
X-8878943Y21543117D01*
X-9142192Y21280327D01*
X-9284838Y20936799D01*
X-9285162Y20564833D01*
X-9143117Y20221057D01*
X-9077249Y20155074D01*
X-9084838Y20136799D01*
X-9085162Y19764833D01*
X-8943117Y19421057D01*
X-8680327Y19157808D01*
X-8336799Y19015162D01*
X-7964833Y19014838D01*
X-7621057Y19156883D01*
X-7357808Y19419673D01*
X-7215162Y19763201D01*
X-7214838Y20135167D01*
X-7325062Y20401930D01*
X-7114479Y20488941D01*
X-6936799Y20415162D01*
X-6564833Y20414838D01*
X-6221057Y20556883D01*
X-5957808Y20819673D01*
X-5815162Y21163201D01*
X-5814838Y21535167D01*
X-5956883Y21878943D01*
X-6219673Y22142192D01*
X-6563201Y22284838D01*
X-6935167Y22285162D01*
X-7123928Y22207168D01*
X-7224359Y22450228D01*
X-7115162Y22713201D01*
X-7114838Y23085167D01*
X-7256883Y23428943D01*
X-7519673Y23692192D01*
X-7815023Y23814833D01*
X-5085162Y23814833D01*
X-4943117Y23471057D01*
X-4680327Y23207808D01*
X-4336799Y23065162D01*
X-3964833Y23064838D01*
X-3621057Y23206883D01*
X-3357808Y23469673D01*
X-3215162Y23813201D01*
X-3214838Y24185167D01*
X-3356883Y24528943D01*
X-3619673Y24792192D01*
X-3963201Y24934838D01*
X-4335167Y24935162D01*
X-4678943Y24793117D01*
X-4942192Y24530327D01*
X-5084838Y24186799D01*
X-5085162Y23814833D01*
X-7815023Y23814833D01*
X-7863201Y23834838D01*
X-8215143Y23835145D01*
X-8214838Y24185167D01*
X-8356883Y24528943D01*
X-8619673Y24792192D01*
X-8963201Y24934838D01*
X-9335167Y24935162D01*
X-9678943Y24793117D01*
X-9942192Y24530327D01*
X-10084838Y24186799D01*
X-10085162Y23814833D01*
X-10373000Y23814833D01*
X-10373000Y25852198D01*
X-10352198Y25873000D01*
X-1500000Y25873000D01*
X-1450590Y25883006D01*
X-1410197Y25910197D01*
X-830394Y26490000D01*
X-700000Y26490000D01*
X-409161Y26547852D01*
X-162599Y26712599D01*
X0Y26875198D01*
X162599Y26712599D01*
X162599Y26712599D01*
G37*
X162599Y26712599D02*
X409161Y26547852D01*
X700000Y26490000D01*
X830394Y26490000D01*
X1410197Y25910197D01*
X1452211Y25882334D01*
X1500000Y25873000D01*
X10102198Y25873000D01*
X10373000Y25602198D01*
X10373000Y23849270D01*
X10230327Y23992192D01*
X9886799Y24134838D01*
X9514833Y24135162D01*
X9171057Y23993117D01*
X8907808Y23730327D01*
X8765162Y23386799D01*
X8764838Y23014833D01*
X8906883Y22671057D01*
X9169673Y22407808D01*
X9513201Y22265162D01*
X9885167Y22264838D01*
X10228943Y22406883D01*
X10255110Y22433005D01*
X10215162Y22336799D01*
X10214838Y21964833D01*
X10356883Y21621057D01*
X10373000Y21604912D01*
X10373000Y19500000D01*
X10383006Y19450590D01*
X10410197Y19410197D01*
X11090000Y18730394D01*
X11090000Y18650000D01*
X11147852Y18359161D01*
X11312599Y18112599D01*
X18532599Y10892599D01*
X18779161Y10727852D01*
X19070000Y10670000D01*
X19150394Y10670000D01*
X19410197Y10410197D01*
X19452211Y10382334D01*
X19500000Y10373000D01*
X25807198Y10373000D01*
X25873000Y10307198D01*
X25873000Y1500000D01*
X25883006Y1450590D01*
X25910197Y1410197D01*
X26440000Y880394D01*
X26440000Y750000D01*
X26497852Y459161D01*
X26662599Y212599D01*
X26875198Y0D01*
X26662599Y-212599D01*
X26497852Y-459161D01*
X26440000Y-750000D01*
X26440000Y-880394D01*
X25910197Y-1410197D01*
X25882334Y-1452211D01*
X25873000Y-1500000D01*
X25873000Y-10202198D01*
X25702198Y-10373000D01*
X23699095Y-10373000D01*
X23942192Y-10130327D01*
X24084838Y-9786799D01*
X24085162Y-9414833D01*
X23943117Y-9071057D01*
X23680327Y-8807808D01*
X23336799Y-8665162D01*
X22964833Y-8664838D01*
X22621057Y-8806883D01*
X22357808Y-9069673D01*
X22215162Y-9413201D01*
X22214838Y-9785167D01*
X22356883Y-10128943D01*
X22600514Y-10373000D01*
X21745405Y-10373000D01*
X21680327Y-10307808D01*
X21336799Y-10165162D01*
X20964833Y-10164838D01*
X20621057Y-10306883D01*
X20554825Y-10373000D01*
X19500000Y-10373000D01*
X19450590Y-10383006D01*
X19410197Y-10410197D01*
X18655394Y-11165000D01*
X18575000Y-11165000D01*
X18284161Y-11222852D01*
X18037599Y-11387599D01*
X10912599Y-18512599D01*
X10747852Y-18759161D01*
X10690000Y-19050000D01*
X10690000Y-19130394D01*
X10410197Y-19410197D01*
X10382334Y-19452211D01*
X10373000Y-19500000D01*
X10373000Y-25873000D01*
X1500000Y-25873000D01*
X1450590Y-25883006D01*
X1410197Y-25910197D01*
X830394Y-26490000D01*
X700000Y-26490000D01*
X409161Y-26547852D01*
X162599Y-26712599D01*
X-80893Y-26956091D01*
X-290839Y-26997852D01*
X-309844Y-27010550D01*
X-1410197Y-25910197D01*
X-1452211Y-25882334D01*
X-1500000Y-25873000D01*
X-10373000Y-25873000D01*
X-10373000Y-23899182D01*
X-10180327Y-24092192D01*
X-9836799Y-24234838D01*
X-9464833Y-24235162D01*
X-9121057Y-24093117D01*
X-8857808Y-23830327D01*
X-8715162Y-23486799D01*
X-8714838Y-23114833D01*
X-8856883Y-22771057D01*
X-9119673Y-22507808D01*
X-9463201Y-22365162D01*
X-9835167Y-22364838D01*
X-10178943Y-22506883D01*
X-10373000Y-22700602D01*
X-10373000Y-19500000D01*
X-10383006Y-19450590D01*
X-10410197Y-19410197D01*
X-11164960Y-18655434D01*
X-11164838Y-18514833D01*
X-11306883Y-18171057D01*
X-11569673Y-17907808D01*
X-11913201Y-17765162D01*
X-12055356Y-17765038D01*
X-12635227Y-17185167D01*
X-12235162Y-17185167D01*
X-12093117Y-17528943D01*
X-11830327Y-17792192D01*
X-11486799Y-17934838D01*
X-11114833Y-17935162D01*
X-10771057Y-17793117D01*
X-10507808Y-17530327D01*
X-10365162Y-17186799D01*
X-10364838Y-16814833D01*
X-10506883Y-16471057D01*
X-10769673Y-16207808D01*
X-11113201Y-16065162D01*
X-11485167Y-16064838D01*
X-11828943Y-16206883D01*
X-12092192Y-16469673D01*
X-12234838Y-16813201D01*
X-12235162Y-17185167D01*
X-12635227Y-17185167D01*
X-13955683Y-15864711D01*
X-13786799Y-15934838D01*
X-13414833Y-15935162D01*
X-13071057Y-15793117D01*
X-12807808Y-15530327D01*
X-12665162Y-15186799D01*
X-12664838Y-14814833D01*
X-12806883Y-14471057D01*
X-13069673Y-14207808D01*
X-13413201Y-14065162D01*
X-13785167Y-14064838D01*
X-14128943Y-14206883D01*
X-14392192Y-14469673D01*
X-14534838Y-14813201D01*
X-14535162Y-15185167D01*
X-14464703Y-15355691D01*
X-15355683Y-14464711D01*
X-15186799Y-14534838D01*
X-14814833Y-14535162D01*
X-14471057Y-14393117D01*
X-14207808Y-14130327D01*
X-14065162Y-13786799D01*
X-14064838Y-13414833D01*
X-14206883Y-13071057D01*
X-14469673Y-12807808D01*
X-14813201Y-12665162D01*
X-15185167Y-12664838D01*
X-15528943Y-12806883D01*
X-15792192Y-13069673D01*
X-15934838Y-13413201D01*
X-15935162Y-13785167D01*
X-15864703Y-13955691D01*
X-18285227Y-11535167D01*
X-17985162Y-11535167D01*
X-17843117Y-11878943D01*
X-17580327Y-12142192D01*
X-17236799Y-12284838D01*
X-16864833Y-12285162D01*
X-16521057Y-12143117D01*
X-16257808Y-11880327D01*
X-16115162Y-11536799D01*
X-16114838Y-11164833D01*
X-16256883Y-10821057D01*
X-16519673Y-10557808D01*
X-16863201Y-10415162D01*
X-17235167Y-10414838D01*
X-17578943Y-10556883D01*
X-17842192Y-10819673D01*
X-17984838Y-11163201D01*
X-17985162Y-11535167D01*
X-18285227Y-11535167D01*
X-19410197Y-10410197D01*
X-19452211Y-10382334D01*
X-19500000Y-10373000D01*
X-25873000Y-10373000D01*
X-25873000Y-9335167D01*
X-24935162Y-9335167D01*
X-24793117Y-9678943D01*
X-24530327Y-9942192D01*
X-24186799Y-10084838D01*
X-23814833Y-10085162D01*
X-23471057Y-9943117D01*
X-23207808Y-9680327D01*
X-23065162Y-9336799D01*
X-23064855Y-8984857D01*
X-22714833Y-8985162D01*
X-22449772Y-8875641D01*
X-22186799Y-8984838D01*
X-21814833Y-8985162D01*
X-21471057Y-8843117D01*
X-21207808Y-8580327D01*
X-21168291Y-8485159D01*
X-21164833Y-8485162D01*
X-20821057Y-8343117D01*
X-20557808Y-8080327D01*
X-20415162Y-7736799D01*
X-20414838Y-7364833D01*
X-20503648Y-7149896D01*
X-20415162Y-6936799D01*
X-20414838Y-6564833D01*
X-20556883Y-6221057D01*
X-20819673Y-5957808D01*
X-21163201Y-5815162D01*
X-21535167Y-5814838D01*
X-21878943Y-5956883D01*
X-22142192Y-6219673D01*
X-22284838Y-6563201D01*
X-22285162Y-6935167D01*
X-22207168Y-7123928D01*
X-22450228Y-7224359D01*
X-22713201Y-7115162D01*
X-23085167Y-7114838D01*
X-23428943Y-7256883D01*
X-23692192Y-7519673D01*
X-23834838Y-7863201D01*
X-23835145Y-8215143D01*
X-24185167Y-8214838D01*
X-24528943Y-8356883D01*
X-24792192Y-8619673D01*
X-24934838Y-8963201D01*
X-24935162Y-9335167D01*
X-25873000Y-9335167D01*
X-25873000Y-4285167D01*
X-24935162Y-4285167D01*
X-24793117Y-4628943D01*
X-24530327Y-4892192D01*
X-24186799Y-5034838D01*
X-23814833Y-5035162D01*
X-23471057Y-4893117D01*
X-23207808Y-4630327D01*
X-23065162Y-4286799D01*
X-23064838Y-3914833D01*
X-23206883Y-3571057D01*
X-23469673Y-3307808D01*
X-23813201Y-3165162D01*
X-24185167Y-3164838D01*
X-24528943Y-3306883D01*
X-24792192Y-3569673D01*
X-24934838Y-3913201D01*
X-24935162Y-4285167D01*
X-25873000Y-4285167D01*
X-25873000Y-1500000D01*
X-25883006Y-1450590D01*
X-25910197Y-1410197D01*
X-26490000Y-830394D01*
X-26490000Y-700000D01*
X-26547852Y-409161D01*
X-26712599Y-162599D01*
X-26873444Y-1754D01*
X-26126988Y-1754D01*
X-26116300Y-51022D01*
X-26089803Y-89803D01*
X-24808217Y-1371389D01*
X-24743117Y-1528943D01*
X-24480327Y-1792192D01*
X-24321437Y-1858169D01*
X-9928630Y-16250976D01*
X-9793117Y-16578943D01*
X-9534903Y-16837608D01*
X-9535162Y-17135167D01*
X-9424735Y-17402421D01*
X-9542192Y-17519673D01*
X-9684838Y-17863201D01*
X-9685162Y-18235167D01*
X-9543117Y-18578943D01*
X-9280327Y-18842192D01*
X-8936799Y-18984838D01*
X-8564833Y-18985162D01*
X-8221057Y-18843117D01*
X-7957808Y-18580327D01*
X-7852614Y-18326992D01*
X-5634909Y-20544697D01*
X-5635162Y-20835167D01*
X-5525641Y-21100228D01*
X-5634838Y-21363201D01*
X-5635162Y-21735167D01*
X-5612494Y-21790027D01*
X-5642192Y-21819673D01*
X-5784838Y-22163201D01*
X-5785162Y-22535167D01*
X-5700580Y-22739873D01*
X-5834838Y-23063201D01*
X-5834850Y-23076934D01*
X-5863201Y-23065162D01*
X-6235167Y-23064838D01*
X-6578943Y-23206883D01*
X-6842192Y-23469673D01*
X-6984838Y-23813201D01*
X-6985162Y-24185167D01*
X-6843117Y-24528943D01*
X-6580327Y-24792192D01*
X-6236799Y-24934838D01*
X-5864833Y-24935162D01*
X-5521057Y-24793117D01*
X-5257808Y-24530327D01*
X-5115162Y-24186799D01*
X-5115150Y-24173066D01*
X-5086799Y-24184838D01*
X-4714833Y-24185162D01*
X-4371057Y-24043117D01*
X-4107808Y-23780327D01*
X-3965162Y-23436799D01*
X-3964838Y-23064833D01*
X-4049420Y-22860127D01*
X-3915162Y-22536799D01*
X-3914925Y-22264681D01*
X-2353780Y-23825826D01*
X-2428943Y-23856883D01*
X-2692192Y-24119673D01*
X-2834838Y-24463201D01*
X-2835162Y-24835167D01*
X-2693117Y-25178943D01*
X-2430327Y-25442192D01*
X-2086799Y-25584838D01*
X-1714833Y-25585162D01*
X-1371057Y-25443117D01*
X-1107808Y-25180327D01*
X-1075965Y-25103641D01*
X-89803Y-26089803D01*
X-47789Y-26117666D01*
X1754Y-26126988D01*
X51022Y-26116300D01*
X89803Y-26089803D01*
X1371389Y-24808217D01*
X1528943Y-24743117D01*
X1792192Y-24480327D01*
X1858169Y-24321437D01*
X1994439Y-24185167D01*
X3214838Y-24185167D01*
X3356883Y-24528943D01*
X3619673Y-24792192D01*
X3963201Y-24934838D01*
X4335167Y-24935162D01*
X4678943Y-24793117D01*
X4942192Y-24530327D01*
X5084838Y-24186799D01*
X5085162Y-23814833D01*
X4943117Y-23471057D01*
X4680327Y-23207808D01*
X4336799Y-23065162D01*
X3964833Y-23064838D01*
X3621057Y-23206883D01*
X3357808Y-23469673D01*
X3215162Y-23813201D01*
X3214838Y-24185167D01*
X1994439Y-24185167D01*
X4694439Y-21485167D01*
X5864838Y-21485167D01*
X6006883Y-21828943D01*
X6269673Y-22092192D01*
X6613201Y-22234838D01*
X6985167Y-22235162D01*
X7173928Y-22157168D01*
X7274359Y-22400228D01*
X7165162Y-22663201D01*
X7164838Y-23035167D01*
X7306883Y-23378943D01*
X7569673Y-23642192D01*
X7913201Y-23784838D01*
X8276808Y-23785155D01*
X8265162Y-23813201D01*
X8264838Y-24185167D01*
X8406883Y-24528943D01*
X8669673Y-24792192D01*
X9013201Y-24934838D01*
X9385167Y-24935162D01*
X9728943Y-24793117D01*
X9992192Y-24530327D01*
X10134838Y-24186799D01*
X10135162Y-23814833D01*
X9993117Y-23471057D01*
X9730327Y-23207808D01*
X9386799Y-23065162D01*
X9023192Y-23064845D01*
X9034838Y-23036799D01*
X9035162Y-22664833D01*
X8925641Y-22399772D01*
X9034838Y-22136799D01*
X9035162Y-21764833D01*
X8893117Y-21421057D01*
X8630327Y-21157808D01*
X8535159Y-21118291D01*
X8535162Y-21114833D01*
X8393117Y-20771057D01*
X8130327Y-20507808D01*
X7786799Y-20365162D01*
X7414833Y-20364838D01*
X7199896Y-20453648D01*
X6986799Y-20365162D01*
X6614833Y-20364838D01*
X6271057Y-20506883D01*
X6007808Y-20769673D01*
X5865162Y-21113201D01*
X5864838Y-21485167D01*
X4694439Y-21485167D01*
X16444741Y-9734865D01*
X16785167Y-9735162D01*
X17000104Y-9646352D01*
X17213201Y-9734838D01*
X17585167Y-9735162D01*
X17928943Y-9593117D01*
X18192192Y-9330327D01*
X18334838Y-8986799D01*
X18335162Y-8614833D01*
X18285000Y-8493431D01*
X18285000Y-7894606D01*
X20544741Y-5634865D01*
X20885167Y-5635162D01*
X21175290Y-5515286D01*
X21463201Y-5634838D01*
X21835167Y-5635162D01*
X21854690Y-5627095D01*
X21919673Y-5692192D01*
X22263201Y-5834838D01*
X22635167Y-5835162D01*
X22900228Y-5725641D01*
X23107334Y-5811640D01*
X23065162Y-5913201D01*
X23064838Y-6285167D01*
X23206883Y-6628943D01*
X23469673Y-6892192D01*
X23813201Y-7034838D01*
X24185167Y-7035162D01*
X24528943Y-6893117D01*
X24792192Y-6630327D01*
X24934838Y-6286799D01*
X24935162Y-5914833D01*
X24793117Y-5571057D01*
X24530327Y-5307808D01*
X24242666Y-5188360D01*
X24284838Y-5086799D01*
X24285162Y-4714833D01*
X24143117Y-4371057D01*
X23880327Y-4107808D01*
X23536799Y-3965162D01*
X23164833Y-3964838D01*
X22899772Y-4074359D01*
X22636799Y-3965162D01*
X22264833Y-3964838D01*
X22245310Y-3972905D01*
X22226022Y-3953584D01*
X23840445Y-2339161D01*
X23856883Y-2378943D01*
X24119673Y-2642192D01*
X24463201Y-2784838D01*
X24835167Y-2785162D01*
X25178943Y-2643117D01*
X25442192Y-2380327D01*
X25584838Y-2036799D01*
X25585162Y-1664833D01*
X25443117Y-1321057D01*
X25180327Y-1057808D01*
X25138971Y-1040635D01*
X26089803Y-89803D01*
X26117666Y-47789D01*
X26126988Y1754D01*
X26116300Y51022D01*
X26089803Y89803D01*
X24858217Y1321389D01*
X24793117Y1478943D01*
X24530327Y1742192D01*
X24371437Y1808169D01*
X22214773Y3964833D01*
X23064838Y3964833D01*
X23206883Y3621057D01*
X23469673Y3357808D01*
X23813201Y3215162D01*
X24185167Y3214838D01*
X24528943Y3356883D01*
X24792192Y3619673D01*
X24934838Y3963201D01*
X24935162Y4335167D01*
X24793117Y4678943D01*
X24530327Y4942192D01*
X24186799Y5084838D01*
X23814833Y5085162D01*
X23471057Y4943117D01*
X23207808Y4680327D01*
X23065162Y4336799D01*
X23064838Y3964833D01*
X22214773Y3964833D01*
X18814773Y7364833D01*
X20414838Y7364833D01*
X20503648Y7149896D01*
X20415162Y6936799D01*
X20414838Y6564833D01*
X20556883Y6221057D01*
X20819673Y5957808D01*
X21163201Y5815162D01*
X21535167Y5814838D01*
X21878943Y5956883D01*
X22142192Y6219673D01*
X22284838Y6563201D01*
X22285162Y6935167D01*
X22207168Y7123928D01*
X22450228Y7224359D01*
X22713201Y7115162D01*
X23085167Y7114838D01*
X23428943Y7256883D01*
X23692192Y7519673D01*
X23834838Y7863201D01*
X23835145Y8215143D01*
X24185167Y8214838D01*
X24528943Y8356883D01*
X24792192Y8619673D01*
X24934838Y8963201D01*
X24935162Y9335167D01*
X24793117Y9678943D01*
X24530327Y9942192D01*
X24186799Y10084838D01*
X23814833Y10085162D01*
X23471057Y9943117D01*
X23207808Y9680327D01*
X23065162Y9336799D01*
X23064855Y8984857D01*
X22714833Y8985162D01*
X22449772Y8875641D01*
X22186799Y8984838D01*
X21814833Y8985162D01*
X21471057Y8843117D01*
X21207808Y8580327D01*
X21168291Y8485159D01*
X21164833Y8485162D01*
X20821057Y8343117D01*
X20557808Y8080327D01*
X20415162Y7736799D01*
X20414838Y7364833D01*
X18814773Y7364833D01*
X16908217Y9271389D01*
X16843117Y9428943D01*
X16719355Y9552921D01*
X16728943Y9556883D01*
X16992192Y9819673D01*
X17134838Y10163201D01*
X17135162Y10535167D01*
X16993117Y10878943D01*
X16730327Y11142192D01*
X16386799Y11284838D01*
X16014833Y11285162D01*
X15671057Y11143117D01*
X15620211Y11092360D01*
X15543117Y11278943D01*
X15280327Y11542192D01*
X14936799Y11684838D01*
X14564833Y11685162D01*
X14515024Y11664582D01*
X9758216Y16421390D01*
X9725641Y16500228D01*
X9834838Y16763201D01*
X9835162Y17135167D01*
X9693117Y17478943D01*
X9430327Y17742192D01*
X9086799Y17884838D01*
X8714833Y17885162D01*
X8593431Y17835000D01*
X8344606Y17835000D01*
X5541408Y20638198D01*
X5634838Y20863201D01*
X5635162Y21235167D01*
X5525641Y21500228D01*
X5634838Y21763201D01*
X5635162Y22135167D01*
X5612494Y22190027D01*
X5642192Y22219673D01*
X5705462Y22372044D01*
X5719673Y22357808D01*
X6063201Y22215162D01*
X6435167Y22214838D01*
X6778943Y22356883D01*
X7037477Y22614967D01*
X7185167Y22614838D01*
X7528943Y22756883D01*
X7792192Y23019673D01*
X7934838Y23363201D01*
X7935162Y23735167D01*
X7793117Y24078943D01*
X7530327Y24342192D01*
X7186799Y24484838D01*
X6814833Y24485162D01*
X6471057Y24343117D01*
X6450019Y24322116D01*
X6230327Y24542192D01*
X5886799Y24684838D01*
X5514833Y24685162D01*
X5171057Y24543117D01*
X5161133Y24533210D01*
X5036799Y24584838D01*
X4664833Y24585162D01*
X4321057Y24443117D01*
X4057808Y24180327D01*
X3915162Y23836799D01*
X3914838Y23464833D01*
X4024359Y23199772D01*
X3915162Y22936799D01*
X3914838Y22564833D01*
X3937506Y22509973D01*
X3907808Y22480327D01*
X3846624Y22332982D01*
X2403780Y23775826D01*
X2478943Y23806883D01*
X2742192Y24069673D01*
X2884838Y24413201D01*
X2885162Y24785167D01*
X2743117Y25128943D01*
X2480327Y25392192D01*
X2136799Y25534838D01*
X1764833Y25535162D01*
X1421057Y25393117D01*
X1157808Y25130327D01*
X1125965Y25053641D01*
X89803Y26089803D01*
X47789Y26117666D01*
X-1754Y26126988D01*
X-51022Y26116300D01*
X-89803Y26089803D01*
X-1371389Y24808217D01*
X-1528943Y24743117D01*
X-1792192Y24480327D01*
X-1858169Y24321437D01*
X-16573528Y9606078D01*
X-16763201Y9684838D01*
X-17135167Y9685162D01*
X-17478943Y9543117D01*
X-17742192Y9280327D01*
X-17884838Y8936799D01*
X-17885162Y8564833D01*
X-17835000Y8443431D01*
X-17835000Y8344606D01*
X-20544741Y5634865D01*
X-20885167Y5635162D01*
X-21125166Y5535997D01*
X-21363201Y5634838D01*
X-21735167Y5635162D01*
X-21790027Y5612494D01*
X-21819673Y5642192D01*
X-22163201Y5784838D01*
X-22535167Y5785162D01*
X-22689749Y5721290D01*
X-22963201Y5834838D01*
X-23065143Y5834927D01*
X-23064838Y6185167D01*
X-23206883Y6528943D01*
X-23469673Y6792192D01*
X-23813201Y6934838D01*
X-24185167Y6935162D01*
X-24528943Y6793117D01*
X-24792192Y6530327D01*
X-24934838Y6186799D01*
X-24935162Y5814833D01*
X-24793117Y5471057D01*
X-24530327Y5207808D01*
X-24186799Y5065162D01*
X-24084857Y5065073D01*
X-24085162Y4714833D01*
X-23943117Y4371057D01*
X-23680327Y4107808D01*
X-23336799Y3965162D01*
X-22964833Y3964838D01*
X-22810251Y4028710D01*
X-22536799Y3915162D01*
X-22264681Y3914925D01*
X-23175826Y3003780D01*
X-23206883Y3078943D01*
X-23469673Y3342192D01*
X-23813201Y3484838D01*
X-24185167Y3485162D01*
X-24528943Y3343117D01*
X-24792192Y3080327D01*
X-24934838Y2736799D01*
X-24935162Y2364833D01*
X-24793117Y2021057D01*
X-24530327Y1757808D01*
X-24453641Y1725965D01*
X-26089803Y89803D01*
X-26117666Y47789D01*
X-26126988Y-1754D01*
X-26873444Y-1754D01*
X-26875198Y0D01*
X-26712599Y162599D01*
X-26547852Y409161D01*
X-26490000Y700000D01*
X-26490000Y830394D01*
X-25910197Y1410197D01*
X-25882334Y1452211D01*
X-25873000Y1500000D01*
X-25873000Y10052198D01*
X-25552198Y10373000D01*
X-23749182Y10373000D01*
X-23942192Y10180327D01*
X-24084838Y9836799D01*
X-24085162Y9464833D01*
X-23943117Y9121057D01*
X-23680327Y8857808D01*
X-23336799Y8715162D01*
X-22964833Y8714838D01*
X-22621057Y8856883D01*
X-22357808Y9119673D01*
X-22215162Y9463201D01*
X-22214838Y9835167D01*
X-22356883Y10178943D01*
X-22550602Y10373000D01*
X-21745405Y10373000D01*
X-21680327Y10307808D01*
X-21336799Y10165162D01*
X-20964833Y10164838D01*
X-20621057Y10306883D01*
X-20554825Y10373000D01*
X-19500000Y10373000D01*
X-19450590Y10383006D01*
X-19410197Y10410197D01*
X-18780394Y11040000D01*
X-18700000Y11040000D01*
X-18409161Y11097852D01*
X-18162599Y11262599D01*
X-17685009Y11740189D01*
X-17685162Y11564833D01*
X-17543117Y11221057D01*
X-17280327Y10957808D01*
X-16936799Y10815162D01*
X-16564833Y10814838D01*
X-16221057Y10956883D01*
X-15957808Y11219673D01*
X-15815162Y11563201D01*
X-15814838Y11935167D01*
X-15956883Y12278943D01*
X-16219673Y12542192D01*
X-16563201Y12684838D01*
X-16740206Y12684992D01*
X-10998799Y18426399D01*
X-10930327Y18357808D01*
X-10586799Y18215162D01*
X-10581999Y18215158D01*
X-10543117Y18121057D01*
X-10280327Y17857808D01*
X-9936799Y17715162D01*
X-9564833Y17714838D01*
X-9221057Y17856883D01*
X-8957808Y18119673D01*
X-8815162Y18463201D01*
X-8814838Y18835167D01*
X-8956883Y19178943D01*
X-9219673Y19442192D01*
X-9563201Y19584838D01*
X-9568001Y19584842D01*
X-9606883Y19678943D01*
X-9869673Y19942192D01*
X-10213201Y20084838D01*
X-10373000Y20084977D01*
X-10373000Y23814833D01*
X-10085162Y23814833D01*
X-9943117Y23471057D01*
X-9680327Y23207808D01*
X-9336799Y23065162D01*
X-8984857Y23064855D01*
X-8985162Y22714833D01*
X-8875641Y22449772D01*
X-8984838Y22186799D01*
X-8985162Y21814833D01*
X-8873774Y21545253D01*
X-8878943Y21543117D01*
X-9142192Y21280327D01*
X-9284838Y20936799D01*
X-9285162Y20564833D01*
X-9143117Y20221057D01*
X-9077249Y20155074D01*
X-9084838Y20136799D01*
X-9085162Y19764833D01*
X-8943117Y19421057D01*
X-8680327Y19157808D01*
X-8336799Y19015162D01*
X-7964833Y19014838D01*
X-7621057Y19156883D01*
X-7357808Y19419673D01*
X-7215162Y19763201D01*
X-7214838Y20135167D01*
X-7325062Y20401930D01*
X-7114479Y20488941D01*
X-6936799Y20415162D01*
X-6564833Y20414838D01*
X-6221057Y20556883D01*
X-5957808Y20819673D01*
X-5815162Y21163201D01*
X-5814838Y21535167D01*
X-5956883Y21878943D01*
X-6219673Y22142192D01*
X-6563201Y22284838D01*
X-6935167Y22285162D01*
X-7123928Y22207168D01*
X-7224359Y22450228D01*
X-7115162Y22713201D01*
X-7114838Y23085167D01*
X-7256883Y23428943D01*
X-7519673Y23692192D01*
X-7815023Y23814833D01*
X-5085162Y23814833D01*
X-4943117Y23471057D01*
X-4680327Y23207808D01*
X-4336799Y23065162D01*
X-3964833Y23064838D01*
X-3621057Y23206883D01*
X-3357808Y23469673D01*
X-3215162Y23813201D01*
X-3214838Y24185167D01*
X-3356883Y24528943D01*
X-3619673Y24792192D01*
X-3963201Y24934838D01*
X-4335167Y24935162D01*
X-4678943Y24793117D01*
X-4942192Y24530327D01*
X-5084838Y24186799D01*
X-5085162Y23814833D01*
X-7815023Y23814833D01*
X-7863201Y23834838D01*
X-8215143Y23835145D01*
X-8214838Y24185167D01*
X-8356883Y24528943D01*
X-8619673Y24792192D01*
X-8963201Y24934838D01*
X-9335167Y24935162D01*
X-9678943Y24793117D01*
X-9942192Y24530327D01*
X-10084838Y24186799D01*
X-10085162Y23814833D01*
X-10373000Y23814833D01*
X-10373000Y25852198D01*
X-10352198Y25873000D01*
X-1500000Y25873000D01*
X-1450590Y25883006D01*
X-1410197Y25910197D01*
X-830394Y26490000D01*
X-700000Y26490000D01*
X-409161Y26547852D01*
X-162599Y26712599D01*
X0Y26875198D01*
X162599Y26712599D01*
G36*
X3765004Y21055390D02*
X3764838Y20864833D01*
X3906883Y20521057D01*
X4169673Y20257808D01*
X4513201Y20115162D01*
X4705399Y20114995D01*
X8173995Y16646399D01*
X8107808Y16580327D01*
X7965162Y16236799D01*
X7964838Y15864833D01*
X8106883Y15521057D01*
X8369673Y15257808D01*
X8713201Y15115162D01*
X9085167Y15114838D01*
X9428943Y15256883D01*
X9496286Y15324108D01*
X13835241Y10985153D01*
X13815162Y10936799D01*
X13814838Y10564833D01*
X13956883Y10221057D01*
X14219673Y9957808D01*
X14563201Y9815162D01*
X14935167Y9814838D01*
X14984976Y9835418D01*
X15323995Y9496399D01*
X15257808Y9430327D01*
X15115162Y9086799D01*
X15114838Y8714833D01*
X15256883Y8371057D01*
X15519673Y8107808D01*
X15863201Y7965162D01*
X16235167Y7964838D01*
X16578943Y8106883D01*
X16646286Y8174108D01*
X19316982Y5503412D01*
X19171057Y5443117D01*
X18907808Y5180327D01*
X18765162Y4836799D01*
X18764838Y4464833D01*
X18906883Y4121057D01*
X19169673Y3857808D01*
X19513201Y3715162D01*
X19885167Y3714838D01*
X20228943Y3856883D01*
X20492192Y4119673D01*
X20553376Y4267018D01*
X22963321Y1857073D01*
X22963950Y1853912D01*
X22982367Y1761325D01*
X23110424Y1569673D01*
X23174210Y1474210D01*
X23196155Y1452265D01*
X23065162Y1136799D01*
X23064838Y764833D01*
X23087531Y709911D01*
X23007808Y630327D01*
X22865162Y286799D01*
X22864838Y-85167D01*
X23006883Y-428943D01*
X23269673Y-692192D01*
X23613201Y-834838D01*
X23985167Y-835162D01*
X23985278Y-835116D01*
X21005813Y-3814581D01*
X20886799Y-3765162D01*
X20514833Y-3764838D01*
X20171057Y-3906883D01*
X19907808Y-4169673D01*
X19765162Y-4513201D01*
X19764838Y-4885167D01*
X19814657Y-5005737D01*
X16905813Y-7914581D01*
X16786799Y-7865162D01*
X16414833Y-7864838D01*
X16071057Y-8006883D01*
X15807808Y-8269673D01*
X15665162Y-8613201D01*
X15664838Y-8985167D01*
X15714657Y-9105737D01*
X9446355Y-15374039D01*
X9330327Y-15257808D01*
X8986799Y-15115162D01*
X8614833Y-15114838D01*
X8271057Y-15256883D01*
X8007808Y-15519673D01*
X7865162Y-15863201D01*
X7864838Y-16235167D01*
X8006883Y-16578943D01*
X8124065Y-16696329D01*
X5353412Y-19466982D01*
X5293117Y-19321057D01*
X5030327Y-19057808D01*
X4686799Y-18915162D01*
X4314833Y-18914838D01*
X3971057Y-19056883D01*
X3707808Y-19319673D01*
X3565162Y-19663201D01*
X3564838Y-20035167D01*
X3706883Y-20378943D01*
X3969673Y-20642192D01*
X4117018Y-20703376D01*
X1694657Y-23125737D01*
X1661325Y-23132367D01*
X1567508Y-23195053D01*
X1530327Y-23157808D01*
X1186799Y-23015162D01*
X814833Y-23014838D01*
X689175Y-23066759D01*
X630327Y-23007808D01*
X286799Y-22865162D01*
X-85167Y-22864838D01*
X-428943Y-23006883D01*
X-692192Y-23269673D01*
X-834838Y-23613201D01*
X-835162Y-23985167D01*
X-835116Y-23985278D01*
X-3829252Y-20991142D01*
X-3765162Y-20836799D01*
X-3764838Y-20464833D01*
X-3906883Y-20121057D01*
X-4169673Y-19857808D01*
X-4513201Y-19715162D01*
X-4885167Y-19714838D01*
X-5041118Y-19779276D01*
X-8223952Y-16596442D01*
X-8207808Y-16580327D01*
X-8065162Y-16236799D01*
X-8064838Y-15864833D01*
X-8206883Y-15521057D01*
X-8469673Y-15257808D01*
X-8813201Y-15115162D01*
X-9185167Y-15114838D01*
X-9528943Y-15256883D01*
X-9546242Y-15274152D01*
X-15399061Y-9421333D01*
X-15257808Y-9280327D01*
X-15115162Y-8936799D01*
X-15114838Y-8564833D01*
X-15256883Y-8221057D01*
X-15519673Y-7957808D01*
X-15863201Y-7815162D01*
X-16235167Y-7814838D01*
X-16578943Y-7956883D01*
X-16721351Y-8099043D01*
X-19466982Y-5353412D01*
X-19321057Y-5293117D01*
X-19057808Y-5030327D01*
X-18915162Y-4686799D01*
X-18914838Y-4314833D01*
X-19056883Y-3971057D01*
X-19319673Y-3707808D01*
X-19663201Y-3565162D01*
X-20035167Y-3564838D01*
X-20378943Y-3706883D01*
X-20642192Y-3969673D01*
X-20703376Y-4117018D01*
X-23223995Y-1596399D01*
X-23157808Y-1530327D01*
X-23015162Y-1186799D01*
X-23014838Y-814833D01*
X-23066759Y-689175D01*
X-23007808Y-630327D01*
X-22865162Y-286799D01*
X-22864838Y85167D01*
X-23006883Y428943D01*
X-23269673Y692192D01*
X-23613201Y834838D01*
X-23985167Y835162D01*
X-23985278Y835116D01*
X-21005813Y3814581D01*
X-20886799Y3765162D01*
X-20514833Y3764838D01*
X-20171057Y3906883D01*
X-19907808Y4169673D01*
X-19765162Y4513201D01*
X-19764838Y4885167D01*
X-19814657Y5005737D01*
X-16721333Y8099061D01*
X-16580327Y7957808D01*
X-16236799Y7815162D01*
X-15864833Y7814838D01*
X-15561343Y7940237D01*
X-15575790Y7925790D01*
X-15767633Y7638675D01*
X-15772375Y7614833D01*
X-15806054Y7445526D01*
X-20808836Y2442744D01*
X-20928943Y2393117D01*
X-21192192Y2130327D01*
X-21231709Y2035159D01*
X-21235167Y2035162D01*
X-21578943Y1893117D01*
X-21842192Y1630327D01*
X-21984838Y1286799D01*
X-21985162Y914833D01*
X-21843117Y571057D01*
X-21580327Y307808D01*
X-21498518Y273838D01*
X-21592192Y180327D01*
X-21734838Y-163201D01*
X-21735162Y-535167D01*
X-21593117Y-878943D01*
X-21330327Y-1142192D01*
X-20986799Y-1284838D01*
X-20614833Y-1285162D01*
X-20271057Y-1143117D01*
X-20235000Y-1107123D01*
X-20235000Y-1349995D01*
X-20235001Y-1350000D01*
X-20208147Y-1485000D01*
X-20167633Y-1688675D01*
X-20057442Y-1853588D01*
X-19975790Y-1975790D01*
X-16575792Y-5375787D01*
X-16575790Y-5375790D01*
X-16127000Y-5824580D01*
X-16127000Y-6500000D01*
X-16116994Y-6549410D01*
X-16089803Y-6589803D01*
X-15084909Y-7594697D01*
X-15085162Y-7885167D01*
X-14943117Y-8228943D01*
X-14680327Y-8492192D01*
X-14336799Y-8634838D01*
X-14044513Y-8635093D01*
X-13926738Y-8752868D01*
X-14034838Y-9013201D01*
X-14035162Y-9385167D01*
X-13893117Y-9728943D01*
X-13630327Y-9992192D01*
X-13286799Y-10134838D01*
X-12914833Y-10135162D01*
X-12652739Y-10026867D01*
X-10028630Y-12650976D01*
X-9893117Y-12978943D01*
X-9797203Y-13075024D01*
X-9992192Y-13269673D01*
X-10134838Y-13613201D01*
X-10135162Y-13985167D01*
X-9993117Y-14328943D01*
X-9730327Y-14592192D01*
X-9386799Y-14734838D01*
X-9014833Y-14735162D01*
X-8839050Y-14662530D01*
X-7925792Y-15575787D01*
X-7925790Y-15575790D01*
X-7638675Y-15767633D01*
X-7582484Y-15778810D01*
X-7507942Y-15793638D01*
X-2407538Y-20894041D01*
X-2393117Y-20928943D01*
X-2130327Y-21192192D01*
X-2035159Y-21231709D01*
X-2035162Y-21235167D01*
X-1893117Y-21578943D01*
X-1630327Y-21842192D01*
X-1286799Y-21984838D01*
X-914833Y-21985162D01*
X-571057Y-21843117D01*
X-307808Y-21580327D01*
X-273838Y-21498518D01*
X-180327Y-21592192D01*
X163201Y-21734838D01*
X535167Y-21735162D01*
X878943Y-21593117D01*
X1142192Y-21330327D01*
X1284838Y-20986799D01*
X1285162Y-20614833D01*
X1143117Y-20271057D01*
X1107123Y-20235000D01*
X1399995Y-20235000D01*
X1400000Y-20235001D01*
X1682484Y-20178810D01*
X1738675Y-20167633D01*
X2025790Y-19975790D01*
X5874579Y-16127000D01*
X6500000Y-16127000D01*
X6549410Y-16116994D01*
X6589803Y-16089803D01*
X7594741Y-15084865D01*
X7935167Y-15085162D01*
X8278943Y-14943117D01*
X8542192Y-14680327D01*
X8684838Y-14336799D01*
X8685136Y-13994470D01*
X9428579Y-13251027D01*
X9469673Y-13292192D01*
X9813201Y-13434838D01*
X10185167Y-13435162D01*
X10528943Y-13293117D01*
X10792192Y-13030327D01*
X10934838Y-12686799D01*
X10935162Y-12314833D01*
X10793117Y-11971057D01*
X10750870Y-11928736D01*
X12794606Y-9885000D01*
X12849995Y-9885000D01*
X12850000Y-9885001D01*
X13132484Y-9828810D01*
X13188675Y-9817633D01*
X13475790Y-9625790D01*
X13517418Y-9584162D01*
X13587401Y-9537401D01*
X14439802Y-8685000D01*
X14449995Y-8685000D01*
X14450000Y-8685001D01*
X14771461Y-8621057D01*
X14788675Y-8617633D01*
X15075790Y-8425790D01*
X15575787Y-7925792D01*
X15575790Y-7925790D01*
X15767633Y-7638675D01*
X15792267Y-7514833D01*
X15806053Y-7445527D01*
X20808834Y-2442745D01*
X20928943Y-2393117D01*
X21192192Y-2130327D01*
X21266409Y-1951594D01*
X21528943Y-1843117D01*
X21792192Y-1580327D01*
X21934838Y-1236799D01*
X21935162Y-864833D01*
X21793117Y-521057D01*
X21530327Y-257808D01*
X21448518Y-223838D01*
X21542192Y-130327D01*
X21684838Y213201D01*
X21685162Y585167D01*
X21543117Y928943D01*
X21280327Y1192192D01*
X20936799Y1334838D01*
X20564833Y1335162D01*
X20285000Y1219538D01*
X20285000Y1399995D01*
X20285001Y1400000D01*
X20217634Y1738674D01*
X20140851Y1853588D01*
X20025790Y2025790D01*
X20025787Y2025792D01*
X16127000Y5924580D01*
X16127000Y6500000D01*
X16116994Y6549410D01*
X16089803Y6589803D01*
X15079430Y7600176D01*
X15084838Y7613201D01*
X15085162Y7985167D01*
X14943117Y8328943D01*
X14680327Y8592192D01*
X14336799Y8734838D01*
X13964833Y8735162D01*
X13950406Y8729200D01*
X10012068Y12667538D01*
X10134838Y12963201D01*
X10135162Y13335167D01*
X9993117Y13678943D01*
X9730327Y13942192D01*
X9438003Y14063576D01*
X8825790Y14675790D01*
X8825787Y14675792D01*
X8600790Y14900790D01*
X8600787Y14900792D01*
X3475790Y20025790D01*
X3351017Y20109160D01*
X3188675Y20217633D01*
X3132484Y20228810D01*
X2933110Y20268469D01*
X2477951Y20723629D01*
X2393117Y20928943D01*
X2130327Y21192192D01*
X1951594Y21266409D01*
X1843117Y21528943D01*
X1580327Y21792192D01*
X1236799Y21934838D01*
X864833Y21935162D01*
X521057Y21793117D01*
X257808Y21530327D01*
X209175Y21413206D01*
X130327Y21492192D01*
X-213201Y21634838D01*
X-585167Y21635162D01*
X-928943Y21493117D01*
X-1192192Y21230327D01*
X-1334838Y20886799D01*
X-1335162Y20514833D01*
X-1240197Y20285000D01*
X-1399995Y20285000D01*
X-1400000Y20285001D01*
X-1682484Y20228810D01*
X-1738675Y20217633D01*
X-2025790Y20025790D01*
X-2025792Y20025787D01*
X-5924580Y16127000D01*
X-6500000Y16127000D01*
X-6549410Y16116994D01*
X-6589803Y16089803D01*
X-7644479Y15035127D01*
X-7685167Y15035162D01*
X-8028943Y14893117D01*
X-8292192Y14630327D01*
X-8434838Y14286799D01*
X-8434875Y14244731D01*
X-9346588Y13333018D01*
X-9406883Y13478943D01*
X-9669673Y13742192D01*
X-10013201Y13884838D01*
X-10385167Y13885162D01*
X-10728943Y13743117D01*
X-10992192Y13480327D01*
X-11134838Y13136799D01*
X-11135162Y12764833D01*
X-10993117Y12421057D01*
X-10730327Y12157808D01*
X-10582982Y12096624D01*
X-11206596Y11473010D01*
X-11278943Y11443117D01*
X-11542192Y11180327D01*
X-11572664Y11106942D01*
X-12794606Y9885000D01*
X-12849995Y9885000D01*
X-12850000Y9885001D01*
X-13178419Y9819673D01*
X-13188675Y9817633D01*
X-13475790Y9625790D01*
X-13475792Y9625787D01*
X-13517414Y9584165D01*
X-13587401Y9537401D01*
X-14439802Y8685000D01*
X-14449995Y8685000D01*
X-14450000Y8685001D01*
X-14732484Y8628810D01*
X-14788675Y8617633D01*
X-15075790Y8425790D01*
X-15075792Y8425787D01*
X-15240696Y8260884D01*
X-15115162Y8563201D01*
X-15114838Y8935167D01*
X-15256883Y9278943D01*
X-15399043Y9421351D01*
X-9421333Y15399061D01*
X-9280327Y15257808D01*
X-8936799Y15115162D01*
X-8564833Y15114838D01*
X-8221057Y15256883D01*
X-7957808Y15519673D01*
X-7815162Y15863201D01*
X-7814838Y16235167D01*
X-7956883Y16578943D01*
X-8099043Y16721351D01*
X-5353412Y19466982D01*
X-5293117Y19321057D01*
X-5030327Y19057808D01*
X-4686799Y18915162D01*
X-4314833Y18914838D01*
X-3971057Y19056883D01*
X-3707808Y19319673D01*
X-3565162Y19663201D01*
X-3564838Y20035167D01*
X-3706883Y20378943D01*
X-3969673Y20642192D01*
X-4117018Y20703376D01*
X-1596399Y23223995D01*
X-1530327Y23157808D01*
X-1186799Y23015162D01*
X-814833Y23014838D01*
X-653776Y23081385D01*
X-580327Y23007808D01*
X-236799Y22865162D01*
X135167Y22864838D01*
X478943Y23006883D01*
X742192Y23269673D01*
X884838Y23613201D01*
X885119Y23935275D01*
X3765004Y21055390D01*
X3765004Y21055390D01*
G37*
X3765004Y21055390D02*
X3764838Y20864833D01*
X3906883Y20521057D01*
X4169673Y20257808D01*
X4513201Y20115162D01*
X4705399Y20114995D01*
X8173995Y16646399D01*
X8107808Y16580327D01*
X7965162Y16236799D01*
X7964838Y15864833D01*
X8106883Y15521057D01*
X8369673Y15257808D01*
X8713201Y15115162D01*
X9085167Y15114838D01*
X9428943Y15256883D01*
X9496286Y15324108D01*
X13835241Y10985153D01*
X13815162Y10936799D01*
X13814838Y10564833D01*
X13956883Y10221057D01*
X14219673Y9957808D01*
X14563201Y9815162D01*
X14935167Y9814838D01*
X14984976Y9835418D01*
X15323995Y9496399D01*
X15257808Y9430327D01*
X15115162Y9086799D01*
X15114838Y8714833D01*
X15256883Y8371057D01*
X15519673Y8107808D01*
X15863201Y7965162D01*
X16235167Y7964838D01*
X16578943Y8106883D01*
X16646286Y8174108D01*
X19316982Y5503412D01*
X19171057Y5443117D01*
X18907808Y5180327D01*
X18765162Y4836799D01*
X18764838Y4464833D01*
X18906883Y4121057D01*
X19169673Y3857808D01*
X19513201Y3715162D01*
X19885167Y3714838D01*
X20228943Y3856883D01*
X20492192Y4119673D01*
X20553376Y4267018D01*
X22963321Y1857073D01*
X22963950Y1853912D01*
X22982367Y1761325D01*
X23110424Y1569673D01*
X23174210Y1474210D01*
X23196155Y1452265D01*
X23065162Y1136799D01*
X23064838Y764833D01*
X23087531Y709911D01*
X23007808Y630327D01*
X22865162Y286799D01*
X22864838Y-85167D01*
X23006883Y-428943D01*
X23269673Y-692192D01*
X23613201Y-834838D01*
X23985167Y-835162D01*
X23985278Y-835116D01*
X21005813Y-3814581D01*
X20886799Y-3765162D01*
X20514833Y-3764838D01*
X20171057Y-3906883D01*
X19907808Y-4169673D01*
X19765162Y-4513201D01*
X19764838Y-4885167D01*
X19814657Y-5005737D01*
X16905813Y-7914581D01*
X16786799Y-7865162D01*
X16414833Y-7864838D01*
X16071057Y-8006883D01*
X15807808Y-8269673D01*
X15665162Y-8613201D01*
X15664838Y-8985167D01*
X15714657Y-9105737D01*
X9446355Y-15374039D01*
X9330327Y-15257808D01*
X8986799Y-15115162D01*
X8614833Y-15114838D01*
X8271057Y-15256883D01*
X8007808Y-15519673D01*
X7865162Y-15863201D01*
X7864838Y-16235167D01*
X8006883Y-16578943D01*
X8124065Y-16696329D01*
X5353412Y-19466982D01*
X5293117Y-19321057D01*
X5030327Y-19057808D01*
X4686799Y-18915162D01*
X4314833Y-18914838D01*
X3971057Y-19056883D01*
X3707808Y-19319673D01*
X3565162Y-19663201D01*
X3564838Y-20035167D01*
X3706883Y-20378943D01*
X3969673Y-20642192D01*
X4117018Y-20703376D01*
X1694657Y-23125737D01*
X1661325Y-23132367D01*
X1567508Y-23195053D01*
X1530327Y-23157808D01*
X1186799Y-23015162D01*
X814833Y-23014838D01*
X689175Y-23066759D01*
X630327Y-23007808D01*
X286799Y-22865162D01*
X-85167Y-22864838D01*
X-428943Y-23006883D01*
X-692192Y-23269673D01*
X-834838Y-23613201D01*
X-835162Y-23985167D01*
X-835116Y-23985278D01*
X-3829252Y-20991142D01*
X-3765162Y-20836799D01*
X-3764838Y-20464833D01*
X-3906883Y-20121057D01*
X-4169673Y-19857808D01*
X-4513201Y-19715162D01*
X-4885167Y-19714838D01*
X-5041118Y-19779276D01*
X-8223952Y-16596442D01*
X-8207808Y-16580327D01*
X-8065162Y-16236799D01*
X-8064838Y-15864833D01*
X-8206883Y-15521057D01*
X-8469673Y-15257808D01*
X-8813201Y-15115162D01*
X-9185167Y-15114838D01*
X-9528943Y-15256883D01*
X-9546242Y-15274152D01*
X-15399061Y-9421333D01*
X-15257808Y-9280327D01*
X-15115162Y-8936799D01*
X-15114838Y-8564833D01*
X-15256883Y-8221057D01*
X-15519673Y-7957808D01*
X-15863201Y-7815162D01*
X-16235167Y-7814838D01*
X-16578943Y-7956883D01*
X-16721351Y-8099043D01*
X-19466982Y-5353412D01*
X-19321057Y-5293117D01*
X-19057808Y-5030327D01*
X-18915162Y-4686799D01*
X-18914838Y-4314833D01*
X-19056883Y-3971057D01*
X-19319673Y-3707808D01*
X-19663201Y-3565162D01*
X-20035167Y-3564838D01*
X-20378943Y-3706883D01*
X-20642192Y-3969673D01*
X-20703376Y-4117018D01*
X-23223995Y-1596399D01*
X-23157808Y-1530327D01*
X-23015162Y-1186799D01*
X-23014838Y-814833D01*
X-23066759Y-689175D01*
X-23007808Y-630327D01*
X-22865162Y-286799D01*
X-22864838Y85167D01*
X-23006883Y428943D01*
X-23269673Y692192D01*
X-23613201Y834838D01*
X-23985167Y835162D01*
X-23985278Y835116D01*
X-21005813Y3814581D01*
X-20886799Y3765162D01*
X-20514833Y3764838D01*
X-20171057Y3906883D01*
X-19907808Y4169673D01*
X-19765162Y4513201D01*
X-19764838Y4885167D01*
X-19814657Y5005737D01*
X-16721333Y8099061D01*
X-16580327Y7957808D01*
X-16236799Y7815162D01*
X-15864833Y7814838D01*
X-15561343Y7940237D01*
X-15575790Y7925790D01*
X-15767633Y7638675D01*
X-15772375Y7614833D01*
X-15806054Y7445526D01*
X-20808836Y2442744D01*
X-20928943Y2393117D01*
X-21192192Y2130327D01*
X-21231709Y2035159D01*
X-21235167Y2035162D01*
X-21578943Y1893117D01*
X-21842192Y1630327D01*
X-21984838Y1286799D01*
X-21985162Y914833D01*
X-21843117Y571057D01*
X-21580327Y307808D01*
X-21498518Y273838D01*
X-21592192Y180327D01*
X-21734838Y-163201D01*
X-21735162Y-535167D01*
X-21593117Y-878943D01*
X-21330327Y-1142192D01*
X-20986799Y-1284838D01*
X-20614833Y-1285162D01*
X-20271057Y-1143117D01*
X-20235000Y-1107123D01*
X-20235000Y-1349995D01*
X-20235001Y-1350000D01*
X-20208147Y-1485000D01*
X-20167633Y-1688675D01*
X-20057442Y-1853588D01*
X-19975790Y-1975790D01*
X-16575792Y-5375787D01*
X-16575790Y-5375790D01*
X-16127000Y-5824580D01*
X-16127000Y-6500000D01*
X-16116994Y-6549410D01*
X-16089803Y-6589803D01*
X-15084909Y-7594697D01*
X-15085162Y-7885167D01*
X-14943117Y-8228943D01*
X-14680327Y-8492192D01*
X-14336799Y-8634838D01*
X-14044513Y-8635093D01*
X-13926738Y-8752868D01*
X-14034838Y-9013201D01*
X-14035162Y-9385167D01*
X-13893117Y-9728943D01*
X-13630327Y-9992192D01*
X-13286799Y-10134838D01*
X-12914833Y-10135162D01*
X-12652739Y-10026867D01*
X-10028630Y-12650976D01*
X-9893117Y-12978943D01*
X-9797203Y-13075024D01*
X-9992192Y-13269673D01*
X-10134838Y-13613201D01*
X-10135162Y-13985167D01*
X-9993117Y-14328943D01*
X-9730327Y-14592192D01*
X-9386799Y-14734838D01*
X-9014833Y-14735162D01*
X-8839050Y-14662530D01*
X-7925792Y-15575787D01*
X-7925790Y-15575790D01*
X-7638675Y-15767633D01*
X-7582484Y-15778810D01*
X-7507942Y-15793638D01*
X-2407538Y-20894041D01*
X-2393117Y-20928943D01*
X-2130327Y-21192192D01*
X-2035159Y-21231709D01*
X-2035162Y-21235167D01*
X-1893117Y-21578943D01*
X-1630327Y-21842192D01*
X-1286799Y-21984838D01*
X-914833Y-21985162D01*
X-571057Y-21843117D01*
X-307808Y-21580327D01*
X-273838Y-21498518D01*
X-180327Y-21592192D01*
X163201Y-21734838D01*
X535167Y-21735162D01*
X878943Y-21593117D01*
X1142192Y-21330327D01*
X1284838Y-20986799D01*
X1285162Y-20614833D01*
X1143117Y-20271057D01*
X1107123Y-20235000D01*
X1399995Y-20235000D01*
X1400000Y-20235001D01*
X1682484Y-20178810D01*
X1738675Y-20167633D01*
X2025790Y-19975790D01*
X5874579Y-16127000D01*
X6500000Y-16127000D01*
X6549410Y-16116994D01*
X6589803Y-16089803D01*
X7594741Y-15084865D01*
X7935167Y-15085162D01*
X8278943Y-14943117D01*
X8542192Y-14680327D01*
X8684838Y-14336799D01*
X8685136Y-13994470D01*
X9428579Y-13251027D01*
X9469673Y-13292192D01*
X9813201Y-13434838D01*
X10185167Y-13435162D01*
X10528943Y-13293117D01*
X10792192Y-13030327D01*
X10934838Y-12686799D01*
X10935162Y-12314833D01*
X10793117Y-11971057D01*
X10750870Y-11928736D01*
X12794606Y-9885000D01*
X12849995Y-9885000D01*
X12850000Y-9885001D01*
X13132484Y-9828810D01*
X13188675Y-9817633D01*
X13475790Y-9625790D01*
X13517418Y-9584162D01*
X13587401Y-9537401D01*
X14439802Y-8685000D01*
X14449995Y-8685000D01*
X14450000Y-8685001D01*
X14771461Y-8621057D01*
X14788675Y-8617633D01*
X15075790Y-8425790D01*
X15575787Y-7925792D01*
X15575790Y-7925790D01*
X15767633Y-7638675D01*
X15792267Y-7514833D01*
X15806053Y-7445527D01*
X20808834Y-2442745D01*
X20928943Y-2393117D01*
X21192192Y-2130327D01*
X21266409Y-1951594D01*
X21528943Y-1843117D01*
X21792192Y-1580327D01*
X21934838Y-1236799D01*
X21935162Y-864833D01*
X21793117Y-521057D01*
X21530327Y-257808D01*
X21448518Y-223838D01*
X21542192Y-130327D01*
X21684838Y213201D01*
X21685162Y585167D01*
X21543117Y928943D01*
X21280327Y1192192D01*
X20936799Y1334838D01*
X20564833Y1335162D01*
X20285000Y1219538D01*
X20285000Y1399995D01*
X20285001Y1400000D01*
X20217634Y1738674D01*
X20140851Y1853588D01*
X20025790Y2025790D01*
X20025787Y2025792D01*
X16127000Y5924580D01*
X16127000Y6500000D01*
X16116994Y6549410D01*
X16089803Y6589803D01*
X15079430Y7600176D01*
X15084838Y7613201D01*
X15085162Y7985167D01*
X14943117Y8328943D01*
X14680327Y8592192D01*
X14336799Y8734838D01*
X13964833Y8735162D01*
X13950406Y8729200D01*
X10012068Y12667538D01*
X10134838Y12963201D01*
X10135162Y13335167D01*
X9993117Y13678943D01*
X9730327Y13942192D01*
X9438003Y14063576D01*
X8825790Y14675790D01*
X8825787Y14675792D01*
X8600790Y14900790D01*
X8600787Y14900792D01*
X3475790Y20025790D01*
X3351017Y20109160D01*
X3188675Y20217633D01*
X3132484Y20228810D01*
X2933110Y20268469D01*
X2477951Y20723629D01*
X2393117Y20928943D01*
X2130327Y21192192D01*
X1951594Y21266409D01*
X1843117Y21528943D01*
X1580327Y21792192D01*
X1236799Y21934838D01*
X864833Y21935162D01*
X521057Y21793117D01*
X257808Y21530327D01*
X209175Y21413206D01*
X130327Y21492192D01*
X-213201Y21634838D01*
X-585167Y21635162D01*
X-928943Y21493117D01*
X-1192192Y21230327D01*
X-1334838Y20886799D01*
X-1335162Y20514833D01*
X-1240197Y20285000D01*
X-1399995Y20285000D01*
X-1400000Y20285001D01*
X-1682484Y20228810D01*
X-1738675Y20217633D01*
X-2025790Y20025790D01*
X-2025792Y20025787D01*
X-5924580Y16127000D01*
X-6500000Y16127000D01*
X-6549410Y16116994D01*
X-6589803Y16089803D01*
X-7644479Y15035127D01*
X-7685167Y15035162D01*
X-8028943Y14893117D01*
X-8292192Y14630327D01*
X-8434838Y14286799D01*
X-8434875Y14244731D01*
X-9346588Y13333018D01*
X-9406883Y13478943D01*
X-9669673Y13742192D01*
X-10013201Y13884838D01*
X-10385167Y13885162D01*
X-10728943Y13743117D01*
X-10992192Y13480327D01*
X-11134838Y13136799D01*
X-11135162Y12764833D01*
X-10993117Y12421057D01*
X-10730327Y12157808D01*
X-10582982Y12096624D01*
X-11206596Y11473010D01*
X-11278943Y11443117D01*
X-11542192Y11180327D01*
X-11572664Y11106942D01*
X-12794606Y9885000D01*
X-12849995Y9885000D01*
X-12850000Y9885001D01*
X-13178419Y9819673D01*
X-13188675Y9817633D01*
X-13475790Y9625790D01*
X-13475792Y9625787D01*
X-13517414Y9584165D01*
X-13587401Y9537401D01*
X-14439802Y8685000D01*
X-14449995Y8685000D01*
X-14450000Y8685001D01*
X-14732484Y8628810D01*
X-14788675Y8617633D01*
X-15075790Y8425790D01*
X-15075792Y8425787D01*
X-15240696Y8260884D01*
X-15115162Y8563201D01*
X-15114838Y8935167D01*
X-15256883Y9278943D01*
X-15399043Y9421351D01*
X-9421333Y15399061D01*
X-9280327Y15257808D01*
X-8936799Y15115162D01*
X-8564833Y15114838D01*
X-8221057Y15256883D01*
X-7957808Y15519673D01*
X-7815162Y15863201D01*
X-7814838Y16235167D01*
X-7956883Y16578943D01*
X-8099043Y16721351D01*
X-5353412Y19466982D01*
X-5293117Y19321057D01*
X-5030327Y19057808D01*
X-4686799Y18915162D01*
X-4314833Y18914838D01*
X-3971057Y19056883D01*
X-3707808Y19319673D01*
X-3565162Y19663201D01*
X-3564838Y20035167D01*
X-3706883Y20378943D01*
X-3969673Y20642192D01*
X-4117018Y20703376D01*
X-1596399Y23223995D01*
X-1530327Y23157808D01*
X-1186799Y23015162D01*
X-814833Y23014838D01*
X-653776Y23081385D01*
X-580327Y23007808D01*
X-236799Y22865162D01*
X135167Y22864838D01*
X478943Y23006883D01*
X742192Y23269673D01*
X884838Y23613201D01*
X885119Y23935275D01*
X3765004Y21055390D01*
G36*
X-14627000Y22552606D02*
X-20314987Y16864619D01*
X-20314838Y17035167D01*
X-20456883Y17378943D01*
X-20719673Y17642192D01*
X-21063201Y17784838D01*
X-21435167Y17785162D01*
X-21778943Y17643117D01*
X-22042192Y17380327D01*
X-22184838Y17036799D01*
X-22185162Y16664833D01*
X-22043117Y16321057D01*
X-21780327Y16057808D01*
X-21436799Y15915162D01*
X-21264594Y15915012D01*
X-22552606Y14627000D01*
X-32500000Y14627000D01*
X-32549410Y14616994D01*
X-32589803Y14589803D01*
X-33589803Y13589803D01*
X-33617666Y13547789D01*
X-33627000Y13500000D01*
X-33627000Y-14000000D01*
X-33616994Y-14049410D01*
X-33589803Y-14089803D01*
X-33089803Y-14589803D01*
X-33047789Y-14617666D01*
X-33000000Y-14627000D01*
X-24034981Y-14627000D01*
X-24035162Y-14835167D01*
X-23893117Y-15178943D01*
X-23630327Y-15442192D01*
X-23286799Y-15584838D01*
X-23125929Y-15584978D01*
X-23178943Y-15606883D01*
X-23442192Y-15869673D01*
X-23584838Y-16213201D01*
X-23585145Y-16565143D01*
X-23935167Y-16564838D01*
X-24278943Y-16706883D01*
X-24542192Y-16969673D01*
X-24684838Y-17313201D01*
X-24685162Y-17685167D01*
X-24543117Y-18028943D01*
X-24280327Y-18292192D01*
X-23936799Y-18434838D01*
X-23564833Y-18435162D01*
X-23221057Y-18293117D01*
X-22957808Y-18030327D01*
X-22815162Y-17686799D01*
X-22814855Y-17334857D01*
X-22464833Y-17335162D01*
X-22121057Y-17193117D01*
X-21857808Y-16930327D01*
X-21715162Y-16586799D01*
X-21714838Y-16214833D01*
X-21856883Y-15871057D01*
X-22119673Y-15607808D01*
X-22463201Y-15465162D01*
X-22624071Y-15465022D01*
X-22571057Y-15443117D01*
X-22307808Y-15180327D01*
X-22217284Y-14962322D01*
X-17300983Y-19878623D01*
X-17392192Y-19969673D01*
X-17534838Y-20313201D01*
X-17535162Y-20685167D01*
X-17393117Y-21028943D01*
X-17130327Y-21292192D01*
X-16786799Y-21434838D01*
X-16414833Y-21435162D01*
X-16071057Y-21293117D01*
X-15978692Y-21200914D01*
X-14627000Y-22552606D01*
X-14627000Y-31609186D01*
X-14679558Y-31481985D01*
X-14970454Y-31190581D01*
X-15350723Y-31032680D01*
X-15762471Y-31032321D01*
X-16143015Y-31189558D01*
X-16434419Y-31480454D01*
X-16551158Y-31761595D01*
X-19220171Y-29092582D01*
X-19157808Y-29030327D01*
X-19015162Y-28686799D01*
X-19014838Y-28314833D01*
X-19156883Y-27971057D01*
X-19419673Y-27707808D01*
X-19763201Y-27565162D01*
X-20135167Y-27564838D01*
X-20478943Y-27706883D01*
X-20542462Y-27770291D01*
X-20805634Y-27507120D01*
X-20391138Y-27335853D01*
X-19994153Y-26939560D01*
X-19779041Y-26421513D01*
X-19778551Y-25860580D01*
X-19992759Y-25342158D01*
X-20389052Y-24945173D01*
X-20907099Y-24730061D01*
X-21468032Y-24729571D01*
X-21986454Y-24943779D01*
X-22383439Y-25340072D01*
X-22556325Y-25756428D01*
X-25755382Y-22557372D01*
X-25340885Y-22386105D01*
X-25161525Y-22207058D01*
X-25184838Y-22263201D01*
X-25185162Y-22635167D01*
X-25043117Y-22978943D01*
X-24780327Y-23242192D01*
X-24436799Y-23384838D01*
X-24185118Y-23385057D01*
X-24185162Y-23435167D01*
X-24043117Y-23778943D01*
X-23780327Y-24042192D01*
X-23436799Y-24184838D01*
X-23064833Y-24185162D01*
X-22721057Y-24043117D01*
X-22717129Y-24039196D01*
X-22486799Y-24134838D01*
X-22114833Y-24135162D01*
X-21771057Y-23993117D01*
X-21520849Y-23743345D01*
X-21096906Y-23743345D01*
X-20928275Y-24151464D01*
X-20616299Y-24463984D01*
X-20208475Y-24633328D01*
X-19766890Y-24633713D01*
X-19358771Y-24465082D01*
X-19046251Y-24153106D01*
X-18876907Y-23745282D01*
X-18876522Y-23303697D01*
X-19045153Y-22895578D01*
X-19357129Y-22583058D01*
X-19764953Y-22413714D01*
X-20206538Y-22413329D01*
X-20614657Y-22581960D01*
X-20927177Y-22893936D01*
X-21096521Y-23301760D01*
X-21096906Y-23743345D01*
X-21520849Y-23743345D01*
X-21507808Y-23730327D01*
X-21365162Y-23386799D01*
X-21364838Y-23014833D01*
X-21506883Y-22671057D01*
X-21769673Y-22407808D01*
X-22113201Y-22265162D01*
X-22485167Y-22264838D01*
X-22828943Y-22406883D01*
X-22832871Y-22410804D01*
X-23063201Y-22315162D01*
X-23314882Y-22314943D01*
X-23314838Y-22264833D01*
X-23456883Y-21921057D01*
X-23719673Y-21657808D01*
X-24063201Y-21515162D01*
X-24435167Y-21514838D01*
X-24778943Y-21656883D01*
X-24824568Y-21702428D01*
X-24728788Y-21471765D01*
X-24728298Y-20910832D01*
X-24942506Y-20392410D01*
X-25126783Y-20207811D01*
X-24632440Y-20207811D01*
X-24463809Y-20615930D01*
X-24151833Y-20928450D01*
X-23744009Y-21097794D01*
X-23302424Y-21098179D01*
X-22894305Y-20929548D01*
X-22581785Y-20617572D01*
X-22412441Y-20209748D01*
X-22412056Y-19768163D01*
X-22580687Y-19360044D01*
X-22892663Y-19047524D01*
X-23300487Y-18878180D01*
X-23742072Y-18877795D01*
X-24150191Y-19046426D01*
X-24462711Y-19358402D01*
X-24632055Y-19766226D01*
X-24632440Y-20207811D01*
X-25126783Y-20207811D01*
X-25338799Y-19995425D01*
X-25856846Y-19780313D01*
X-26417779Y-19779823D01*
X-26936201Y-19994031D01*
X-27333186Y-20390324D01*
X-27506073Y-20806681D01*
X-34162060Y-14150694D01*
X-34162060Y14150694D01*
X-30960374Y17352380D01*
X-30960413Y17307675D01*
X-30598084Y16430771D01*
X-29927758Y15759274D01*
X-29051487Y15395415D01*
X-28102675Y15394587D01*
X-27225771Y15756916D01*
X-26554274Y16427242D01*
X-26190415Y17303513D01*
X-26189587Y18252325D01*
X-26551916Y19129229D01*
X-27222242Y19800726D01*
X-28098513Y20164585D01*
X-28148125Y20164628D01*
X-27011047Y21301707D01*
X-26871014Y21161673D01*
X-26551726Y20842386D01*
X-26327220Y20842386D01*
X-25469605Y21700000D01*
X-25483748Y21714142D01*
X-25304142Y21893748D01*
X-25290000Y21879605D01*
X-25275858Y21893748D01*
X-25096252Y21714142D01*
X-25110395Y21700000D01*
X-25096253Y21685858D01*
X-25275858Y21506253D01*
X-25290000Y21520395D01*
X-26147614Y20662780D01*
X-26147614Y20438274D01*
X-25828327Y20118986D01*
X-25649698Y19940358D01*
X-25416309Y19843685D01*
X-25163690Y19843686D01*
X-25008370Y19908021D01*
X-25013309Y19883189D01*
X-24899235Y19309699D01*
X-24574379Y18823519D01*
X-24088199Y18498663D01*
X-23514709Y18384589D01*
X-22941219Y18498663D01*
X-22455039Y18823519D01*
X-22413519Y18865039D01*
X-22088663Y19351219D01*
X-21974589Y19924709D01*
X-22038137Y20244188D01*
X-21718658Y20180640D01*
X-21145168Y20294714D01*
X-20658988Y20619570D01*
X-20617468Y20661090D01*
X-20292612Y21147270D01*
X-20178538Y21720760D01*
X-20242086Y22040239D01*
X-19922606Y21976691D01*
X-19685023Y22023949D01*
X-19685162Y21864833D01*
X-19543117Y21521057D01*
X-19280327Y21257808D01*
X-18936799Y21115162D01*
X-18564833Y21114838D01*
X-18221057Y21256883D01*
X-17957808Y21519673D01*
X-17815162Y21863201D01*
X-17814838Y22235167D01*
X-17844120Y22306035D01*
X-17721057Y22356883D01*
X-17457808Y22619673D01*
X-17315162Y22963201D01*
X-17314838Y23335167D01*
X-17456883Y23678943D01*
X-17719673Y23942192D01*
X-18063201Y24084838D01*
X-18435167Y24085162D01*
X-18490953Y24062112D01*
X-18496560Y24090301D01*
X-18743127Y24459313D01*
X-18636799Y24415162D01*
X-18264833Y24414838D01*
X-17921057Y24556883D01*
X-17657808Y24819673D01*
X-17515162Y25163201D01*
X-17514838Y25535167D01*
X-17656883Y25878943D01*
X-17919673Y26142192D01*
X-18035342Y26190222D01*
X-17307675Y26189587D01*
X-16430771Y26551916D01*
X-15759274Y27222242D01*
X-15395415Y28098513D01*
X-15394587Y29047325D01*
X-15756916Y29924229D01*
X-16427242Y30595726D01*
X-17303513Y30959585D01*
X-17353125Y30959628D01*
X-14627000Y33685753D01*
X-14627000Y22552606D01*
X-14627000Y22552606D01*
G37*
X-14627000Y22552606D02*
X-20314987Y16864619D01*
X-20314838Y17035167D01*
X-20456883Y17378943D01*
X-20719673Y17642192D01*
X-21063201Y17784838D01*
X-21435167Y17785162D01*
X-21778943Y17643117D01*
X-22042192Y17380327D01*
X-22184838Y17036799D01*
X-22185162Y16664833D01*
X-22043117Y16321057D01*
X-21780327Y16057808D01*
X-21436799Y15915162D01*
X-21264594Y15915012D01*
X-22552606Y14627000D01*
X-32500000Y14627000D01*
X-32549410Y14616994D01*
X-32589803Y14589803D01*
X-33589803Y13589803D01*
X-33617666Y13547789D01*
X-33627000Y13500000D01*
X-33627000Y-14000000D01*
X-33616994Y-14049410D01*
X-33589803Y-14089803D01*
X-33089803Y-14589803D01*
X-33047789Y-14617666D01*
X-33000000Y-14627000D01*
X-24034981Y-14627000D01*
X-24035162Y-14835167D01*
X-23893117Y-15178943D01*
X-23630327Y-15442192D01*
X-23286799Y-15584838D01*
X-23125929Y-15584978D01*
X-23178943Y-15606883D01*
X-23442192Y-15869673D01*
X-23584838Y-16213201D01*
X-23585145Y-16565143D01*
X-23935167Y-16564838D01*
X-24278943Y-16706883D01*
X-24542192Y-16969673D01*
X-24684838Y-17313201D01*
X-24685162Y-17685167D01*
X-24543117Y-18028943D01*
X-24280327Y-18292192D01*
X-23936799Y-18434838D01*
X-23564833Y-18435162D01*
X-23221057Y-18293117D01*
X-22957808Y-18030327D01*
X-22815162Y-17686799D01*
X-22814855Y-17334857D01*
X-22464833Y-17335162D01*
X-22121057Y-17193117D01*
X-21857808Y-16930327D01*
X-21715162Y-16586799D01*
X-21714838Y-16214833D01*
X-21856883Y-15871057D01*
X-22119673Y-15607808D01*
X-22463201Y-15465162D01*
X-22624071Y-15465022D01*
X-22571057Y-15443117D01*
X-22307808Y-15180327D01*
X-22217284Y-14962322D01*
X-17300983Y-19878623D01*
X-17392192Y-19969673D01*
X-17534838Y-20313201D01*
X-17535162Y-20685167D01*
X-17393117Y-21028943D01*
X-17130327Y-21292192D01*
X-16786799Y-21434838D01*
X-16414833Y-21435162D01*
X-16071057Y-21293117D01*
X-15978692Y-21200914D01*
X-14627000Y-22552606D01*
X-14627000Y-31609186D01*
X-14679558Y-31481985D01*
X-14970454Y-31190581D01*
X-15350723Y-31032680D01*
X-15762471Y-31032321D01*
X-16143015Y-31189558D01*
X-16434419Y-31480454D01*
X-16551158Y-31761595D01*
X-19220171Y-29092582D01*
X-19157808Y-29030327D01*
X-19015162Y-28686799D01*
X-19014838Y-28314833D01*
X-19156883Y-27971057D01*
X-19419673Y-27707808D01*
X-19763201Y-27565162D01*
X-20135167Y-27564838D01*
X-20478943Y-27706883D01*
X-20542462Y-27770291D01*
X-20805634Y-27507120D01*
X-20391138Y-27335853D01*
X-19994153Y-26939560D01*
X-19779041Y-26421513D01*
X-19778551Y-25860580D01*
X-19992759Y-25342158D01*
X-20389052Y-24945173D01*
X-20907099Y-24730061D01*
X-21468032Y-24729571D01*
X-21986454Y-24943779D01*
X-22383439Y-25340072D01*
X-22556325Y-25756428D01*
X-25755382Y-22557372D01*
X-25340885Y-22386105D01*
X-25161525Y-22207058D01*
X-25184838Y-22263201D01*
X-25185162Y-22635167D01*
X-25043117Y-22978943D01*
X-24780327Y-23242192D01*
X-24436799Y-23384838D01*
X-24185118Y-23385057D01*
X-24185162Y-23435167D01*
X-24043117Y-23778943D01*
X-23780327Y-24042192D01*
X-23436799Y-24184838D01*
X-23064833Y-24185162D01*
X-22721057Y-24043117D01*
X-22717129Y-24039196D01*
X-22486799Y-24134838D01*
X-22114833Y-24135162D01*
X-21771057Y-23993117D01*
X-21520849Y-23743345D01*
X-21096906Y-23743345D01*
X-20928275Y-24151464D01*
X-20616299Y-24463984D01*
X-20208475Y-24633328D01*
X-19766890Y-24633713D01*
X-19358771Y-24465082D01*
X-19046251Y-24153106D01*
X-18876907Y-23745282D01*
X-18876522Y-23303697D01*
X-19045153Y-22895578D01*
X-19357129Y-22583058D01*
X-19764953Y-22413714D01*
X-20206538Y-22413329D01*
X-20614657Y-22581960D01*
X-20927177Y-22893936D01*
X-21096521Y-23301760D01*
X-21096906Y-23743345D01*
X-21520849Y-23743345D01*
X-21507808Y-23730327D01*
X-21365162Y-23386799D01*
X-21364838Y-23014833D01*
X-21506883Y-22671057D01*
X-21769673Y-22407808D01*
X-22113201Y-22265162D01*
X-22485167Y-22264838D01*
X-22828943Y-22406883D01*
X-22832871Y-22410804D01*
X-23063201Y-22315162D01*
X-23314882Y-22314943D01*
X-23314838Y-22264833D01*
X-23456883Y-21921057D01*
X-23719673Y-21657808D01*
X-24063201Y-21515162D01*
X-24435167Y-21514838D01*
X-24778943Y-21656883D01*
X-24824568Y-21702428D01*
X-24728788Y-21471765D01*
X-24728298Y-20910832D01*
X-24942506Y-20392410D01*
X-25126783Y-20207811D01*
X-24632440Y-20207811D01*
X-24463809Y-20615930D01*
X-24151833Y-20928450D01*
X-23744009Y-21097794D01*
X-23302424Y-21098179D01*
X-22894305Y-20929548D01*
X-22581785Y-20617572D01*
X-22412441Y-20209748D01*
X-22412056Y-19768163D01*
X-22580687Y-19360044D01*
X-22892663Y-19047524D01*
X-23300487Y-18878180D01*
X-23742072Y-18877795D01*
X-24150191Y-19046426D01*
X-24462711Y-19358402D01*
X-24632055Y-19766226D01*
X-24632440Y-20207811D01*
X-25126783Y-20207811D01*
X-25338799Y-19995425D01*
X-25856846Y-19780313D01*
X-26417779Y-19779823D01*
X-26936201Y-19994031D01*
X-27333186Y-20390324D01*
X-27506073Y-20806681D01*
X-34162060Y-14150694D01*
X-34162060Y14150694D01*
X-30960374Y17352380D01*
X-30960413Y17307675D01*
X-30598084Y16430771D01*
X-29927758Y15759274D01*
X-29051487Y15395415D01*
X-28102675Y15394587D01*
X-27225771Y15756916D01*
X-26554274Y16427242D01*
X-26190415Y17303513D01*
X-26189587Y18252325D01*
X-26551916Y19129229D01*
X-27222242Y19800726D01*
X-28098513Y20164585D01*
X-28148125Y20164628D01*
X-27011047Y21301707D01*
X-26871014Y21161673D01*
X-26551726Y20842386D01*
X-26327220Y20842386D01*
X-25469605Y21700000D01*
X-25483748Y21714142D01*
X-25304142Y21893748D01*
X-25290000Y21879605D01*
X-25275858Y21893748D01*
X-25096252Y21714142D01*
X-25110395Y21700000D01*
X-25096253Y21685858D01*
X-25275858Y21506253D01*
X-25290000Y21520395D01*
X-26147614Y20662780D01*
X-26147614Y20438274D01*
X-25828327Y20118986D01*
X-25649698Y19940358D01*
X-25416309Y19843685D01*
X-25163690Y19843686D01*
X-25008370Y19908021D01*
X-25013309Y19883189D01*
X-24899235Y19309699D01*
X-24574379Y18823519D01*
X-24088199Y18498663D01*
X-23514709Y18384589D01*
X-22941219Y18498663D01*
X-22455039Y18823519D01*
X-22413519Y18865039D01*
X-22088663Y19351219D01*
X-21974589Y19924709D01*
X-22038137Y20244188D01*
X-21718658Y20180640D01*
X-21145168Y20294714D01*
X-20658988Y20619570D01*
X-20617468Y20661090D01*
X-20292612Y21147270D01*
X-20178538Y21720760D01*
X-20242086Y22040239D01*
X-19922606Y21976691D01*
X-19685023Y22023949D01*
X-19685162Y21864833D01*
X-19543117Y21521057D01*
X-19280327Y21257808D01*
X-18936799Y21115162D01*
X-18564833Y21114838D01*
X-18221057Y21256883D01*
X-17957808Y21519673D01*
X-17815162Y21863201D01*
X-17814838Y22235167D01*
X-17844120Y22306035D01*
X-17721057Y22356883D01*
X-17457808Y22619673D01*
X-17315162Y22963201D01*
X-17314838Y23335167D01*
X-17456883Y23678943D01*
X-17719673Y23942192D01*
X-18063201Y24084838D01*
X-18435167Y24085162D01*
X-18490953Y24062112D01*
X-18496560Y24090301D01*
X-18743127Y24459313D01*
X-18636799Y24415162D01*
X-18264833Y24414838D01*
X-17921057Y24556883D01*
X-17657808Y24819673D01*
X-17515162Y25163201D01*
X-17514838Y25535167D01*
X-17656883Y25878943D01*
X-17919673Y26142192D01*
X-18035342Y26190222D01*
X-17307675Y26189587D01*
X-16430771Y26551916D01*
X-15759274Y27222242D01*
X-15395415Y28098513D01*
X-15394587Y29047325D01*
X-15756916Y29924229D01*
X-16427242Y30595726D01*
X-17303513Y30959585D01*
X-17353125Y30959628D01*
X-14627000Y33685753D01*
X-14627000Y22552606D01*
G36*
X6364917Y12455477D02*
X6364838Y12364833D01*
X6506883Y12021057D01*
X6537439Y11990448D01*
X6515162Y11936799D01*
X6514838Y11564833D01*
X6656883Y11221057D01*
X6919673Y10957808D01*
X7263201Y10815162D01*
X7635167Y10814838D01*
X7897261Y10923133D01*
X8435424Y10384970D01*
X8214833Y10385162D01*
X7871057Y10243117D01*
X7607808Y9980327D01*
X7465162Y9636799D01*
X7464838Y9264833D01*
X7606883Y8921057D01*
X7869673Y8657808D01*
X8213201Y8515162D01*
X8585167Y8514838D01*
X8928943Y8656883D01*
X9192192Y8919673D01*
X9334838Y9263201D01*
X9335032Y9485362D01*
X11385424Y7434970D01*
X11164833Y7435162D01*
X10821057Y7293117D01*
X10557808Y7030327D01*
X10415162Y6686799D01*
X10414838Y6314833D01*
X10556883Y5971057D01*
X10819673Y5707808D01*
X11163201Y5565162D01*
X11535167Y5564838D01*
X11878943Y5706883D01*
X12142192Y5969673D01*
X12246933Y6221917D01*
X12263201Y6215162D01*
X12388704Y6215053D01*
X12406883Y6171057D01*
X12669673Y5907808D01*
X13013201Y5765162D01*
X13055269Y5765125D01*
X13373000Y5447394D01*
X13373000Y-5447394D01*
X12455477Y-6364917D01*
X12364833Y-6364838D01*
X12021057Y-6506883D01*
X11990448Y-6537439D01*
X11936799Y-6515162D01*
X11584857Y-6514855D01*
X11585162Y-6164833D01*
X11443117Y-5821057D01*
X11180327Y-5557808D01*
X10836799Y-5415162D01*
X10464833Y-5414838D01*
X10121057Y-5556883D01*
X9857808Y-5819673D01*
X9715162Y-6163201D01*
X9714838Y-6535167D01*
X9856883Y-6878943D01*
X10119673Y-7142192D01*
X10463201Y-7284838D01*
X10815143Y-7285145D01*
X10814838Y-7635167D01*
X10923133Y-7897261D01*
X8328611Y-10491783D01*
X8171057Y-10556883D01*
X7907808Y-10819673D01*
X7841831Y-10978563D01*
X7261802Y-11558592D01*
X7036799Y-11465162D01*
X6731647Y-11464896D01*
X6784838Y-11336799D01*
X6785162Y-10964833D01*
X6643117Y-10621057D01*
X6380327Y-10357808D01*
X6036799Y-10215162D01*
X5664833Y-10214838D01*
X5321057Y-10356883D01*
X5057808Y-10619673D01*
X4915162Y-10963201D01*
X4914838Y-11335167D01*
X5056883Y-11678943D01*
X5319673Y-11942192D01*
X5663201Y-12084838D01*
X5968353Y-12085104D01*
X5915162Y-12213201D01*
X5914838Y-12585167D01*
X5922905Y-12604690D01*
X5857808Y-12669673D01*
X5715162Y-13013201D01*
X5715082Y-13105312D01*
X5447394Y-13373000D01*
X-5447394Y-13373000D01*
X-6364917Y-12455477D01*
X-6364838Y-12364833D01*
X-6506883Y-12021057D01*
X-6537439Y-11990448D01*
X-6515162Y-11936799D01*
X-6514838Y-11564833D01*
X-6656883Y-11221057D01*
X-6919673Y-10957808D01*
X-7263201Y-10815162D01*
X-7314838Y-10815117D01*
X-7314838Y-10814833D01*
X-7456883Y-10471057D01*
X-7719673Y-10207808D01*
X-8063201Y-10065162D01*
X-8435167Y-10064838D01*
X-8661880Y-10158514D01*
X-9235227Y-9585167D01*
X-4185162Y-9585167D01*
X-4043117Y-9928943D01*
X-3780327Y-10192192D01*
X-3436799Y-10334838D01*
X-3064833Y-10335162D01*
X-2721057Y-10193117D01*
X-2457808Y-9930327D01*
X-2315162Y-9586799D01*
X-2314838Y-9214833D01*
X-2456883Y-8871057D01*
X-2719673Y-8607808D01*
X-3063201Y-8465162D01*
X-3435167Y-8464838D01*
X-3778943Y-8606883D01*
X-4042192Y-8869673D01*
X-4184838Y-9213201D01*
X-4185162Y-9585167D01*
X-9235227Y-9585167D01*
X-9685468Y-9134926D01*
X-9414833Y-9135162D01*
X-9071057Y-8993117D01*
X-8807808Y-8730327D01*
X-8665162Y-8386799D01*
X-8664838Y-8014833D01*
X-8806883Y-7671057D01*
X-9069673Y-7407808D01*
X-9413201Y-7265162D01*
X-9785167Y-7264838D01*
X-10128943Y-7406883D01*
X-10215000Y-7492790D01*
X-10215000Y-7356822D01*
X-10165162Y-7236799D01*
X-10164838Y-6864833D01*
X-10306883Y-6521057D01*
X-10569673Y-6257808D01*
X-10714954Y-6197482D01*
X-10714838Y-6064833D01*
X-10856883Y-5721057D01*
X-11119673Y-5457808D01*
X-11463201Y-5315162D01*
X-11835167Y-5314838D01*
X-12178943Y-5456883D01*
X-12442192Y-5719673D01*
X-12460991Y-5764946D01*
X-12585167Y-5764838D01*
X-12679394Y-5803772D01*
X-13013201Y-5665162D01*
X-13155356Y-5665038D01*
X-13373000Y-5447394D01*
X-13373000Y2264833D01*
X-10435162Y2264833D01*
X-10293117Y1921057D01*
X-10030327Y1657808D01*
X-9686799Y1515162D01*
X-9314833Y1514838D01*
X-8971057Y1656883D01*
X-8707808Y1919673D01*
X-8565162Y2263201D01*
X-8564838Y2635167D01*
X-8706883Y2978943D01*
X-8807578Y3079814D01*
X-8621057Y3156883D01*
X-8357808Y3419673D01*
X-8215162Y3763201D01*
X-8215073Y3865100D01*
X-7914833Y3864838D01*
X-7744309Y3935297D01*
X-8089803Y3589803D01*
X-8117666Y3547789D01*
X-8127000Y3500000D01*
X-8127000Y-3500000D01*
X-8116994Y-3549410D01*
X-8089803Y-3589803D01*
X-5514707Y-6164899D01*
X-5585167Y-6164838D01*
X-5928943Y-6306883D01*
X-6192192Y-6569673D01*
X-6334838Y-6913201D01*
X-6335162Y-7285167D01*
X-6193117Y-7628943D01*
X-5930327Y-7892192D01*
X-5586799Y-8034838D01*
X-5214833Y-8035162D01*
X-4871057Y-7893117D01*
X-4607808Y-7630327D01*
X-4465162Y-7286799D01*
X-4465099Y-7214507D01*
X-4184996Y-7494610D01*
X-4185162Y-7685167D01*
X-4043117Y-8028943D01*
X-3780327Y-8292192D01*
X-3436799Y-8434838D01*
X-3064833Y-8435162D01*
X-2721057Y-8293117D01*
X-2554650Y-8127000D01*
X3500000Y-8127000D01*
X3549410Y-8116994D01*
X3589803Y-8089803D01*
X6764847Y-4914759D01*
X6813201Y-4934838D01*
X6847689Y-4934868D01*
X6815162Y-5013201D01*
X6814838Y-5385167D01*
X6956883Y-5728943D01*
X7219673Y-5992192D01*
X7563201Y-6134838D01*
X7935167Y-6135162D01*
X8278943Y-5993117D01*
X8542192Y-5730327D01*
X8684838Y-5386799D01*
X8684970Y-5234944D01*
X8935167Y-5235162D01*
X9278943Y-5093117D01*
X9542192Y-4830327D01*
X9684838Y-4486799D01*
X9685144Y-4135162D01*
X9685167Y-4135162D01*
X10028943Y-3993117D01*
X10292192Y-3730327D01*
X10434838Y-3386799D01*
X10435162Y-3014833D01*
X10293117Y-2671057D01*
X10030327Y-2407808D01*
X9686799Y-2265162D01*
X9314833Y-2264838D01*
X8971057Y-2406883D01*
X8707808Y-2669673D01*
X8565162Y-3013201D01*
X8564856Y-3364838D01*
X8308444Y-3470776D01*
X8384838Y-3286799D01*
X8385162Y-2914833D01*
X8243117Y-2571057D01*
X8127000Y-2454737D01*
X8127000Y2071718D01*
X8263201Y2015162D01*
X8418055Y2015027D01*
X8456883Y1921057D01*
X8719673Y1657808D01*
X9063201Y1515162D01*
X9435167Y1514838D01*
X9778943Y1656883D01*
X10042192Y1919673D01*
X10184838Y2263201D01*
X10185162Y2635167D01*
X10043117Y2978943D01*
X9780327Y3242192D01*
X9436799Y3384838D01*
X9281945Y3384973D01*
X9243117Y3478943D01*
X8980327Y3742192D01*
X8835134Y3802482D01*
X8835162Y3835167D01*
X8693117Y4178943D01*
X8430327Y4442192D01*
X8205899Y4535383D01*
X8378943Y4606883D01*
X8642192Y4869673D01*
X8784838Y5213201D01*
X8785162Y5585167D01*
X8643117Y5928943D01*
X8380327Y6192192D01*
X8036799Y6334838D01*
X7664833Y6335162D01*
X7321057Y6193117D01*
X7290448Y6162561D01*
X7236799Y6184838D01*
X6864833Y6185162D01*
X6521057Y6043117D01*
X6257808Y5780327D01*
X6152614Y5526992D01*
X6120749Y5558857D01*
X6184838Y5713201D01*
X6185162Y6085167D01*
X6043117Y6428943D01*
X5780327Y6692192D01*
X5685159Y6731709D01*
X5685162Y6735167D01*
X5543117Y7078943D01*
X5280327Y7342192D01*
X5205529Y7373251D01*
X5528943Y7506883D01*
X5792192Y7769673D01*
X5934838Y8113201D01*
X5935162Y8485167D01*
X5793117Y8828943D01*
X5530327Y9092192D01*
X5186799Y9234838D01*
X4814833Y9235162D01*
X4502544Y9106127D01*
X4493117Y9128943D01*
X4230327Y9392192D01*
X3886799Y9534838D01*
X3514833Y9535162D01*
X3202544Y9406127D01*
X3193117Y9428943D01*
X2930327Y9692192D01*
X2716177Y9781115D01*
X2593117Y10078943D01*
X2330327Y10342192D01*
X1986799Y10484838D01*
X1614833Y10485162D01*
X1271057Y10343117D01*
X1007808Y10080327D01*
X865162Y9736799D01*
X864838Y9364833D01*
X1006883Y9021057D01*
X1269673Y8757808D01*
X1483823Y8668885D01*
X1606883Y8371057D01*
X1850514Y8127000D01*
X-3500000Y8127000D01*
X-3549410Y8116994D01*
X-3589803Y8089803D01*
X-3803601Y7876005D01*
X-3869673Y7942192D01*
X-4213201Y8084838D01*
X-4585167Y8085162D01*
X-4928943Y7943117D01*
X-5192192Y7680327D01*
X-5334838Y7336799D01*
X-5335162Y6964833D01*
X-5193117Y6621057D01*
X-5125892Y6553714D01*
X-7235289Y4444317D01*
X-7165162Y4613201D01*
X-7164838Y4985167D01*
X-7306883Y5328943D01*
X-7569673Y5592192D01*
X-7913201Y5734838D01*
X-8285167Y5735162D01*
X-8628943Y5593117D01*
X-8892192Y5330327D01*
X-9034838Y4986799D01*
X-9034927Y4884900D01*
X-9335167Y4885162D01*
X-9678943Y4743117D01*
X-9942192Y4480327D01*
X-10084838Y4136799D01*
X-10085162Y3764833D01*
X-9943117Y3421057D01*
X-9842422Y3320186D01*
X-10028943Y3243117D01*
X-10292192Y2980327D01*
X-10434838Y2636799D01*
X-10435162Y2264833D01*
X-13373000Y2264833D01*
X-13373000Y5447394D01*
X-12455477Y6364917D01*
X-12364833Y6364838D01*
X-12029185Y6503524D01*
X-11936799Y6465162D01*
X-11564833Y6464838D01*
X-11221057Y6606883D01*
X-10962479Y6865010D01*
X-10764833Y6864838D01*
X-10421057Y7006883D01*
X-10157808Y7269673D01*
X-10015162Y7613201D01*
X-10014838Y7985167D01*
X-10027095Y8014833D01*
X-9735162Y8014833D01*
X-9593117Y7671057D01*
X-9330327Y7407808D01*
X-8986799Y7265162D01*
X-8614833Y7264838D01*
X-8271057Y7406883D01*
X-8007808Y7669673D01*
X-7865162Y8013201D01*
X-7864838Y8385167D01*
X-8006883Y8728943D01*
X-8269673Y8992192D01*
X-8613201Y9134838D01*
X-8985167Y9135162D01*
X-9328943Y8993117D01*
X-9592192Y8730327D01*
X-9734838Y8386799D01*
X-9735162Y8014833D01*
X-10027095Y8014833D01*
X-10156883Y8328943D01*
X-10324021Y8496373D01*
X-5447394Y13373000D01*
X5447394Y13373000D01*
X6364917Y12455477D01*
X6364917Y12455477D01*
G37*
X6364917Y12455477D02*
X6364838Y12364833D01*
X6506883Y12021057D01*
X6537439Y11990448D01*
X6515162Y11936799D01*
X6514838Y11564833D01*
X6656883Y11221057D01*
X6919673Y10957808D01*
X7263201Y10815162D01*
X7635167Y10814838D01*
X7897261Y10923133D01*
X8435424Y10384970D01*
X8214833Y10385162D01*
X7871057Y10243117D01*
X7607808Y9980327D01*
X7465162Y9636799D01*
X7464838Y9264833D01*
X7606883Y8921057D01*
X7869673Y8657808D01*
X8213201Y8515162D01*
X8585167Y8514838D01*
X8928943Y8656883D01*
X9192192Y8919673D01*
X9334838Y9263201D01*
X9335032Y9485362D01*
X11385424Y7434970D01*
X11164833Y7435162D01*
X10821057Y7293117D01*
X10557808Y7030327D01*
X10415162Y6686799D01*
X10414838Y6314833D01*
X10556883Y5971057D01*
X10819673Y5707808D01*
X11163201Y5565162D01*
X11535167Y5564838D01*
X11878943Y5706883D01*
X12142192Y5969673D01*
X12246933Y6221917D01*
X12263201Y6215162D01*
X12388704Y6215053D01*
X12406883Y6171057D01*
X12669673Y5907808D01*
X13013201Y5765162D01*
X13055269Y5765125D01*
X13373000Y5447394D01*
X13373000Y-5447394D01*
X12455477Y-6364917D01*
X12364833Y-6364838D01*
X12021057Y-6506883D01*
X11990448Y-6537439D01*
X11936799Y-6515162D01*
X11584857Y-6514855D01*
X11585162Y-6164833D01*
X11443117Y-5821057D01*
X11180327Y-5557808D01*
X10836799Y-5415162D01*
X10464833Y-5414838D01*
X10121057Y-5556883D01*
X9857808Y-5819673D01*
X9715162Y-6163201D01*
X9714838Y-6535167D01*
X9856883Y-6878943D01*
X10119673Y-7142192D01*
X10463201Y-7284838D01*
X10815143Y-7285145D01*
X10814838Y-7635167D01*
X10923133Y-7897261D01*
X8328611Y-10491783D01*
X8171057Y-10556883D01*
X7907808Y-10819673D01*
X7841831Y-10978563D01*
X7261802Y-11558592D01*
X7036799Y-11465162D01*
X6731647Y-11464896D01*
X6784838Y-11336799D01*
X6785162Y-10964833D01*
X6643117Y-10621057D01*
X6380327Y-10357808D01*
X6036799Y-10215162D01*
X5664833Y-10214838D01*
X5321057Y-10356883D01*
X5057808Y-10619673D01*
X4915162Y-10963201D01*
X4914838Y-11335167D01*
X5056883Y-11678943D01*
X5319673Y-11942192D01*
X5663201Y-12084838D01*
X5968353Y-12085104D01*
X5915162Y-12213201D01*
X5914838Y-12585167D01*
X5922905Y-12604690D01*
X5857808Y-12669673D01*
X5715162Y-13013201D01*
X5715082Y-13105312D01*
X5447394Y-13373000D01*
X-5447394Y-13373000D01*
X-6364917Y-12455477D01*
X-6364838Y-12364833D01*
X-6506883Y-12021057D01*
X-6537439Y-11990448D01*
X-6515162Y-11936799D01*
X-6514838Y-11564833D01*
X-6656883Y-11221057D01*
X-6919673Y-10957808D01*
X-7263201Y-10815162D01*
X-7314838Y-10815117D01*
X-7314838Y-10814833D01*
X-7456883Y-10471057D01*
X-7719673Y-10207808D01*
X-8063201Y-10065162D01*
X-8435167Y-10064838D01*
X-8661880Y-10158514D01*
X-9235227Y-9585167D01*
X-4185162Y-9585167D01*
X-4043117Y-9928943D01*
X-3780327Y-10192192D01*
X-3436799Y-10334838D01*
X-3064833Y-10335162D01*
X-2721057Y-10193117D01*
X-2457808Y-9930327D01*
X-2315162Y-9586799D01*
X-2314838Y-9214833D01*
X-2456883Y-8871057D01*
X-2719673Y-8607808D01*
X-3063201Y-8465162D01*
X-3435167Y-8464838D01*
X-3778943Y-8606883D01*
X-4042192Y-8869673D01*
X-4184838Y-9213201D01*
X-4185162Y-9585167D01*
X-9235227Y-9585167D01*
X-9685468Y-9134926D01*
X-9414833Y-9135162D01*
X-9071057Y-8993117D01*
X-8807808Y-8730327D01*
X-8665162Y-8386799D01*
X-8664838Y-8014833D01*
X-8806883Y-7671057D01*
X-9069673Y-7407808D01*
X-9413201Y-7265162D01*
X-9785167Y-7264838D01*
X-10128943Y-7406883D01*
X-10215000Y-7492790D01*
X-10215000Y-7356822D01*
X-10165162Y-7236799D01*
X-10164838Y-6864833D01*
X-10306883Y-6521057D01*
X-10569673Y-6257808D01*
X-10714954Y-6197482D01*
X-10714838Y-6064833D01*
X-10856883Y-5721057D01*
X-11119673Y-5457808D01*
X-11463201Y-5315162D01*
X-11835167Y-5314838D01*
X-12178943Y-5456883D01*
X-12442192Y-5719673D01*
X-12460991Y-5764946D01*
X-12585167Y-5764838D01*
X-12679394Y-5803772D01*
X-13013201Y-5665162D01*
X-13155356Y-5665038D01*
X-13373000Y-5447394D01*
X-13373000Y2264833D01*
X-10435162Y2264833D01*
X-10293117Y1921057D01*
X-10030327Y1657808D01*
X-9686799Y1515162D01*
X-9314833Y1514838D01*
X-8971057Y1656883D01*
X-8707808Y1919673D01*
X-8565162Y2263201D01*
X-8564838Y2635167D01*
X-8706883Y2978943D01*
X-8807578Y3079814D01*
X-8621057Y3156883D01*
X-8357808Y3419673D01*
X-8215162Y3763201D01*
X-8215073Y3865100D01*
X-7914833Y3864838D01*
X-7744309Y3935297D01*
X-8089803Y3589803D01*
X-8117666Y3547789D01*
X-8127000Y3500000D01*
X-8127000Y-3500000D01*
X-8116994Y-3549410D01*
X-8089803Y-3589803D01*
X-5514707Y-6164899D01*
X-5585167Y-6164838D01*
X-5928943Y-6306883D01*
X-6192192Y-6569673D01*
X-6334838Y-6913201D01*
X-6335162Y-7285167D01*
X-6193117Y-7628943D01*
X-5930327Y-7892192D01*
X-5586799Y-8034838D01*
X-5214833Y-8035162D01*
X-4871057Y-7893117D01*
X-4607808Y-7630327D01*
X-4465162Y-7286799D01*
X-4465099Y-7214507D01*
X-4184996Y-7494610D01*
X-4185162Y-7685167D01*
X-4043117Y-8028943D01*
X-3780327Y-8292192D01*
X-3436799Y-8434838D01*
X-3064833Y-8435162D01*
X-2721057Y-8293117D01*
X-2554650Y-8127000D01*
X3500000Y-8127000D01*
X3549410Y-8116994D01*
X3589803Y-8089803D01*
X6764847Y-4914759D01*
X6813201Y-4934838D01*
X6847689Y-4934868D01*
X6815162Y-5013201D01*
X6814838Y-5385167D01*
X6956883Y-5728943D01*
X7219673Y-5992192D01*
X7563201Y-6134838D01*
X7935167Y-6135162D01*
X8278943Y-5993117D01*
X8542192Y-5730327D01*
X8684838Y-5386799D01*
X8684970Y-5234944D01*
X8935167Y-5235162D01*
X9278943Y-5093117D01*
X9542192Y-4830327D01*
X9684838Y-4486799D01*
X9685144Y-4135162D01*
X9685167Y-4135162D01*
X10028943Y-3993117D01*
X10292192Y-3730327D01*
X10434838Y-3386799D01*
X10435162Y-3014833D01*
X10293117Y-2671057D01*
X10030327Y-2407808D01*
X9686799Y-2265162D01*
X9314833Y-2264838D01*
X8971057Y-2406883D01*
X8707808Y-2669673D01*
X8565162Y-3013201D01*
X8564856Y-3364838D01*
X8308444Y-3470776D01*
X8384838Y-3286799D01*
X8385162Y-2914833D01*
X8243117Y-2571057D01*
X8127000Y-2454737D01*
X8127000Y2071718D01*
X8263201Y2015162D01*
X8418055Y2015027D01*
X8456883Y1921057D01*
X8719673Y1657808D01*
X9063201Y1515162D01*
X9435167Y1514838D01*
X9778943Y1656883D01*
X10042192Y1919673D01*
X10184838Y2263201D01*
X10185162Y2635167D01*
X10043117Y2978943D01*
X9780327Y3242192D01*
X9436799Y3384838D01*
X9281945Y3384973D01*
X9243117Y3478943D01*
X8980327Y3742192D01*
X8835134Y3802482D01*
X8835162Y3835167D01*
X8693117Y4178943D01*
X8430327Y4442192D01*
X8205899Y4535383D01*
X8378943Y4606883D01*
X8642192Y4869673D01*
X8784838Y5213201D01*
X8785162Y5585167D01*
X8643117Y5928943D01*
X8380327Y6192192D01*
X8036799Y6334838D01*
X7664833Y6335162D01*
X7321057Y6193117D01*
X7290448Y6162561D01*
X7236799Y6184838D01*
X6864833Y6185162D01*
X6521057Y6043117D01*
X6257808Y5780327D01*
X6152614Y5526992D01*
X6120749Y5558857D01*
X6184838Y5713201D01*
X6185162Y6085167D01*
X6043117Y6428943D01*
X5780327Y6692192D01*
X5685159Y6731709D01*
X5685162Y6735167D01*
X5543117Y7078943D01*
X5280327Y7342192D01*
X5205529Y7373251D01*
X5528943Y7506883D01*
X5792192Y7769673D01*
X5934838Y8113201D01*
X5935162Y8485167D01*
X5793117Y8828943D01*
X5530327Y9092192D01*
X5186799Y9234838D01*
X4814833Y9235162D01*
X4502544Y9106127D01*
X4493117Y9128943D01*
X4230327Y9392192D01*
X3886799Y9534838D01*
X3514833Y9535162D01*
X3202544Y9406127D01*
X3193117Y9428943D01*
X2930327Y9692192D01*
X2716177Y9781115D01*
X2593117Y10078943D01*
X2330327Y10342192D01*
X1986799Y10484838D01*
X1614833Y10485162D01*
X1271057Y10343117D01*
X1007808Y10080327D01*
X865162Y9736799D01*
X864838Y9364833D01*
X1006883Y9021057D01*
X1269673Y8757808D01*
X1483823Y8668885D01*
X1606883Y8371057D01*
X1850514Y8127000D01*
X-3500000Y8127000D01*
X-3549410Y8116994D01*
X-3589803Y8089803D01*
X-3803601Y7876005D01*
X-3869673Y7942192D01*
X-4213201Y8084838D01*
X-4585167Y8085162D01*
X-4928943Y7943117D01*
X-5192192Y7680327D01*
X-5334838Y7336799D01*
X-5335162Y6964833D01*
X-5193117Y6621057D01*
X-5125892Y6553714D01*
X-7235289Y4444317D01*
X-7165162Y4613201D01*
X-7164838Y4985167D01*
X-7306883Y5328943D01*
X-7569673Y5592192D01*
X-7913201Y5734838D01*
X-8285167Y5735162D01*
X-8628943Y5593117D01*
X-8892192Y5330327D01*
X-9034838Y4986799D01*
X-9034927Y4884900D01*
X-9335167Y4885162D01*
X-9678943Y4743117D01*
X-9942192Y4480327D01*
X-10084838Y4136799D01*
X-10085162Y3764833D01*
X-9943117Y3421057D01*
X-9842422Y3320186D01*
X-10028943Y3243117D01*
X-10292192Y2980327D01*
X-10434838Y2636799D01*
X-10435162Y2264833D01*
X-13373000Y2264833D01*
X-13373000Y5447394D01*
X-12455477Y6364917D01*
X-12364833Y6364838D01*
X-12029185Y6503524D01*
X-11936799Y6465162D01*
X-11564833Y6464838D01*
X-11221057Y6606883D01*
X-10962479Y6865010D01*
X-10764833Y6864838D01*
X-10421057Y7006883D01*
X-10157808Y7269673D01*
X-10015162Y7613201D01*
X-10014838Y7985167D01*
X-10027095Y8014833D01*
X-9735162Y8014833D01*
X-9593117Y7671057D01*
X-9330327Y7407808D01*
X-8986799Y7265162D01*
X-8614833Y7264838D01*
X-8271057Y7406883D01*
X-8007808Y7669673D01*
X-7865162Y8013201D01*
X-7864838Y8385167D01*
X-8006883Y8728943D01*
X-8269673Y8992192D01*
X-8613201Y9134838D01*
X-8985167Y9135162D01*
X-9328943Y8993117D01*
X-9592192Y8730327D01*
X-9734838Y8386799D01*
X-9735162Y8014833D01*
X-10027095Y8014833D01*
X-10156883Y8328943D01*
X-10324021Y8496373D01*
X-5447394Y13373000D01*
X5447394Y13373000D01*
X6364917Y12455477D01*
G36*
X3814960Y6505434D02*
X3814838Y6364833D01*
X3956883Y6021057D01*
X4052753Y5925019D01*
X3907808Y5780327D01*
X3819426Y5567480D01*
X3536799Y5684838D01*
X3164833Y5685162D01*
X2821057Y5543117D01*
X2557808Y5280327D01*
X2415162Y4936799D01*
X2414838Y4564833D01*
X2556883Y4221057D01*
X2819673Y3957808D01*
X3058762Y3858529D01*
X3156883Y3621057D01*
X3419673Y3357808D01*
X3719117Y3233467D01*
X3806883Y3021057D01*
X4069673Y2757808D01*
X4413201Y2615162D01*
X4785167Y2614838D01*
X5128943Y2756883D01*
X5250024Y2877753D01*
X5419673Y2707808D01*
X5763201Y2565162D01*
X6135167Y2564838D01*
X6478943Y2706883D01*
X6742192Y2969673D01*
X6873000Y3284692D01*
X6873000Y-2354856D01*
X6657808Y-2569673D01*
X6515162Y-2913201D01*
X6514922Y-3188758D01*
X6471057Y-3206883D01*
X6207808Y-3469673D01*
X6065162Y-3813201D01*
X6064838Y-4185167D01*
X6085418Y-4234976D01*
X4744936Y-5575458D01*
X4743117Y-5571057D01*
X4480327Y-5307808D01*
X4334959Y-5247446D01*
X4335162Y-5014833D01*
X4193117Y-4671057D01*
X3930327Y-4407808D01*
X3586799Y-4265162D01*
X3214833Y-4264838D01*
X2871057Y-4406883D01*
X2607808Y-4669673D01*
X2465162Y-5013201D01*
X2464838Y-5385167D01*
X2606883Y-5728943D01*
X2869673Y-5992192D01*
X3015041Y-6052554D01*
X3014838Y-6285167D01*
X3156883Y-6628943D01*
X3400514Y-6873000D01*
X-2554769Y-6873000D01*
X-2719673Y-6707808D01*
X-3063201Y-6565162D01*
X-3435167Y-6564838D01*
X-3661880Y-6658514D01*
X-5435227Y-4885167D01*
X-2285162Y-4885167D01*
X-2143117Y-5228943D01*
X-1880327Y-5492192D01*
X-1536799Y-5634838D01*
X-1164833Y-5635162D01*
X-821057Y-5493117D01*
X-763006Y-5435167D01*
X514838Y-5435167D01*
X656883Y-5778943D01*
X919673Y-6042192D01*
X1263201Y-6184838D01*
X1635167Y-6185162D01*
X1978943Y-6043117D01*
X2242192Y-5780327D01*
X2384838Y-5436799D01*
X2385162Y-5064833D01*
X2243117Y-4721057D01*
X1980327Y-4457808D01*
X1636799Y-4315162D01*
X1264833Y-4314838D01*
X921057Y-4456883D01*
X657808Y-4719673D01*
X515162Y-5063201D01*
X514838Y-5435167D01*
X-763006Y-5435167D01*
X-557808Y-5230327D01*
X-415162Y-4886799D01*
X-414838Y-4514833D01*
X-556883Y-4171057D01*
X-819673Y-3907808D01*
X-1163201Y-3765162D01*
X-1535167Y-3764838D01*
X-1878943Y-3906883D01*
X-2142192Y-4169673D01*
X-2284838Y-4513201D01*
X-2285162Y-4885167D01*
X-5435227Y-4885167D01*
X-5735555Y-4584839D01*
X-5364833Y-4585162D01*
X-5021057Y-4443117D01*
X-4812523Y-4234946D01*
X-4564833Y-4235162D01*
X-4495668Y-4206584D01*
X-4186799Y-4334838D01*
X-3814833Y-4335162D01*
X-3471057Y-4193117D01*
X-3207808Y-3930327D01*
X-3065162Y-3586799D01*
X-3064838Y-3214833D01*
X-3206883Y-2871057D01*
X-3469673Y-2607808D01*
X-3813201Y-2465162D01*
X-4185167Y-2464838D01*
X-4254332Y-2493416D01*
X-4563201Y-2365162D01*
X-4716107Y-2365029D01*
X-4643836Y-2335167D01*
X3114838Y-2335167D01*
X3256883Y-2678943D01*
X3519673Y-2942192D01*
X3819117Y-3066533D01*
X3906883Y-3278943D01*
X4169673Y-3542192D01*
X4513201Y-3684838D01*
X4885167Y-3685162D01*
X5228943Y-3543117D01*
X5492192Y-3280327D01*
X5634838Y-2936799D01*
X5635162Y-2564833D01*
X5493117Y-2221057D01*
X5230327Y-1957808D01*
X4930883Y-1833467D01*
X4843117Y-1621057D01*
X4580327Y-1357808D01*
X4236799Y-1215162D01*
X3864833Y-1214838D01*
X3521057Y-1356883D01*
X3257808Y-1619673D01*
X3115162Y-1963201D01*
X3114838Y-2335167D01*
X-4643836Y-2335167D01*
X-4421057Y-2243117D01*
X-4157808Y-1980327D01*
X-4015162Y-1636799D01*
X-4014838Y-1264833D01*
X-4156883Y-921057D01*
X-4419673Y-657808D01*
X-4763201Y-515162D01*
X-5135167Y-514838D01*
X-5478943Y-656883D01*
X-5742192Y-919673D01*
X-5884838Y-1263201D01*
X-5885162Y-1635167D01*
X-5743117Y-1978943D01*
X-5480327Y-2242192D01*
X-5136799Y-2384838D01*
X-4983893Y-2384971D01*
X-5278943Y-2506883D01*
X-5487477Y-2715054D01*
X-5735167Y-2714838D01*
X-6078943Y-2856883D01*
X-6144926Y-2922751D01*
X-6163201Y-2915162D01*
X-6535167Y-2914838D01*
X-6873000Y-3054427D01*
X-6873000Y-185167D01*
X-935162Y-185167D01*
X-793117Y-528943D01*
X-530327Y-792192D01*
X-186799Y-934838D01*
X185167Y-935162D01*
X528943Y-793117D01*
X792192Y-530327D01*
X934838Y-186799D01*
X935162Y185167D01*
X793117Y528943D01*
X530327Y792192D01*
X186799Y934838D01*
X-185167Y935162D01*
X-528943Y793117D01*
X-792192Y530327D01*
X-934838Y186799D01*
X-935162Y-185167D01*
X-6873000Y-185167D01*
X-6873000Y964833D01*
X1714838Y964833D01*
X1856883Y621057D01*
X2119673Y357808D01*
X2463201Y215162D01*
X2835167Y214838D01*
X3178943Y356883D01*
X3442192Y619673D01*
X3584838Y963201D01*
X3585144Y1314833D01*
X4064838Y1314833D01*
X4206883Y971057D01*
X4469673Y707808D01*
X4813201Y565162D01*
X5185167Y564838D01*
X5528943Y706883D01*
X5792192Y969673D01*
X5934838Y1313201D01*
X5935162Y1685167D01*
X5793117Y2028943D01*
X5530327Y2292192D01*
X5186799Y2434838D01*
X4814833Y2435162D01*
X4471057Y2293117D01*
X4207808Y2030327D01*
X4065162Y1686799D01*
X4064838Y1314833D01*
X3585144Y1314833D01*
X3585162Y1335167D01*
X3443117Y1678943D01*
X3180327Y1942192D01*
X2836799Y2084838D01*
X2464833Y2085162D01*
X2121057Y1943117D01*
X1857808Y1680327D01*
X1715162Y1336799D01*
X1714838Y964833D01*
X-6873000Y964833D01*
X-6873000Y1914833D01*
X-6685162Y1914833D01*
X-6543117Y1571057D01*
X-6280327Y1307808D01*
X-5936799Y1165162D01*
X-5564833Y1164838D01*
X-5221057Y1306883D01*
X-4957808Y1569673D01*
X-4815162Y1913201D01*
X-4814838Y2285167D01*
X-4956883Y2628943D01*
X-5219673Y2892192D01*
X-5563201Y3034838D01*
X-5935167Y3035162D01*
X-6278943Y2893117D01*
X-6542192Y2630327D01*
X-6684838Y2286799D01*
X-6685162Y1914833D01*
X-6873000Y1914833D01*
X-6873000Y3447394D01*
X-5061888Y5258506D01*
X-4975641Y5049772D01*
X-5084838Y4786799D01*
X-5085162Y4414833D01*
X-4943117Y4071057D01*
X-4680327Y3807808D01*
X-4336799Y3665162D01*
X-3964833Y3664838D01*
X-3621057Y3806883D01*
X-3357808Y4069673D01*
X-3215162Y4413201D01*
X-3214838Y4785167D01*
X-3227095Y4814833D01*
X-2435162Y4814833D01*
X-2293117Y4471057D01*
X-2030327Y4207808D01*
X-1686799Y4065162D01*
X-1314833Y4064838D01*
X-971057Y4206883D01*
X-812832Y4364833D01*
X414838Y4364833D01*
X556883Y4021057D01*
X819673Y3757808D01*
X1163201Y3615162D01*
X1535167Y3614838D01*
X1878943Y3756883D01*
X2142192Y4019673D01*
X2284838Y4363201D01*
X2285162Y4735167D01*
X2143117Y5078943D01*
X1880327Y5342192D01*
X1536799Y5484838D01*
X1164833Y5485162D01*
X821057Y5343117D01*
X557808Y5080327D01*
X415162Y4736799D01*
X414838Y4364833D01*
X-812832Y4364833D01*
X-707808Y4469673D01*
X-565162Y4813201D01*
X-564838Y5185167D01*
X-706883Y5528943D01*
X-969673Y5792192D01*
X-1313201Y5934838D01*
X-1685167Y5935162D01*
X-2028943Y5793117D01*
X-2292192Y5530327D01*
X-2434838Y5186799D01*
X-2435162Y4814833D01*
X-3227095Y4814833D01*
X-3324359Y5050228D01*
X-3215162Y5313201D01*
X-3214838Y5685167D01*
X-3314003Y5925166D01*
X-3215162Y6163201D01*
X-3214838Y6535167D01*
X-3354427Y6873000D01*
X3447394Y6873000D01*
X3814960Y6505434D01*
X3814960Y6505434D01*
G37*
X3814960Y6505434D02*
X3814838Y6364833D01*
X3956883Y6021057D01*
X4052753Y5925019D01*
X3907808Y5780327D01*
X3819426Y5567480D01*
X3536799Y5684838D01*
X3164833Y5685162D01*
X2821057Y5543117D01*
X2557808Y5280327D01*
X2415162Y4936799D01*
X2414838Y4564833D01*
X2556883Y4221057D01*
X2819673Y3957808D01*
X3058762Y3858529D01*
X3156883Y3621057D01*
X3419673Y3357808D01*
X3719117Y3233467D01*
X3806883Y3021057D01*
X4069673Y2757808D01*
X4413201Y2615162D01*
X4785167Y2614838D01*
X5128943Y2756883D01*
X5250024Y2877753D01*
X5419673Y2707808D01*
X5763201Y2565162D01*
X6135167Y2564838D01*
X6478943Y2706883D01*
X6742192Y2969673D01*
X6873000Y3284692D01*
X6873000Y-2354856D01*
X6657808Y-2569673D01*
X6515162Y-2913201D01*
X6514922Y-3188758D01*
X6471057Y-3206883D01*
X6207808Y-3469673D01*
X6065162Y-3813201D01*
X6064838Y-4185167D01*
X6085418Y-4234976D01*
X4744936Y-5575458D01*
X4743117Y-5571057D01*
X4480327Y-5307808D01*
X4334959Y-5247446D01*
X4335162Y-5014833D01*
X4193117Y-4671057D01*
X3930327Y-4407808D01*
X3586799Y-4265162D01*
X3214833Y-4264838D01*
X2871057Y-4406883D01*
X2607808Y-4669673D01*
X2465162Y-5013201D01*
X2464838Y-5385167D01*
X2606883Y-5728943D01*
X2869673Y-5992192D01*
X3015041Y-6052554D01*
X3014838Y-6285167D01*
X3156883Y-6628943D01*
X3400514Y-6873000D01*
X-2554769Y-6873000D01*
X-2719673Y-6707808D01*
X-3063201Y-6565162D01*
X-3435167Y-6564838D01*
X-3661880Y-6658514D01*
X-5435227Y-4885167D01*
X-2285162Y-4885167D01*
X-2143117Y-5228943D01*
X-1880327Y-5492192D01*
X-1536799Y-5634838D01*
X-1164833Y-5635162D01*
X-821057Y-5493117D01*
X-763006Y-5435167D01*
X514838Y-5435167D01*
X656883Y-5778943D01*
X919673Y-6042192D01*
X1263201Y-6184838D01*
X1635167Y-6185162D01*
X1978943Y-6043117D01*
X2242192Y-5780327D01*
X2384838Y-5436799D01*
X2385162Y-5064833D01*
X2243117Y-4721057D01*
X1980327Y-4457808D01*
X1636799Y-4315162D01*
X1264833Y-4314838D01*
X921057Y-4456883D01*
X657808Y-4719673D01*
X515162Y-5063201D01*
X514838Y-5435167D01*
X-763006Y-5435167D01*
X-557808Y-5230327D01*
X-415162Y-4886799D01*
X-414838Y-4514833D01*
X-556883Y-4171057D01*
X-819673Y-3907808D01*
X-1163201Y-3765162D01*
X-1535167Y-3764838D01*
X-1878943Y-3906883D01*
X-2142192Y-4169673D01*
X-2284838Y-4513201D01*
X-2285162Y-4885167D01*
X-5435227Y-4885167D01*
X-5735555Y-4584839D01*
X-5364833Y-4585162D01*
X-5021057Y-4443117D01*
X-4812523Y-4234946D01*
X-4564833Y-4235162D01*
X-4495668Y-4206584D01*
X-4186799Y-4334838D01*
X-3814833Y-4335162D01*
X-3471057Y-4193117D01*
X-3207808Y-3930327D01*
X-3065162Y-3586799D01*
X-3064838Y-3214833D01*
X-3206883Y-2871057D01*
X-3469673Y-2607808D01*
X-3813201Y-2465162D01*
X-4185167Y-2464838D01*
X-4254332Y-2493416D01*
X-4563201Y-2365162D01*
X-4716107Y-2365029D01*
X-4643836Y-2335167D01*
X3114838Y-2335167D01*
X3256883Y-2678943D01*
X3519673Y-2942192D01*
X3819117Y-3066533D01*
X3906883Y-3278943D01*
X4169673Y-3542192D01*
X4513201Y-3684838D01*
X4885167Y-3685162D01*
X5228943Y-3543117D01*
X5492192Y-3280327D01*
X5634838Y-2936799D01*
X5635162Y-2564833D01*
X5493117Y-2221057D01*
X5230327Y-1957808D01*
X4930883Y-1833467D01*
X4843117Y-1621057D01*
X4580327Y-1357808D01*
X4236799Y-1215162D01*
X3864833Y-1214838D01*
X3521057Y-1356883D01*
X3257808Y-1619673D01*
X3115162Y-1963201D01*
X3114838Y-2335167D01*
X-4643836Y-2335167D01*
X-4421057Y-2243117D01*
X-4157808Y-1980327D01*
X-4015162Y-1636799D01*
X-4014838Y-1264833D01*
X-4156883Y-921057D01*
X-4419673Y-657808D01*
X-4763201Y-515162D01*
X-5135167Y-514838D01*
X-5478943Y-656883D01*
X-5742192Y-919673D01*
X-5884838Y-1263201D01*
X-5885162Y-1635167D01*
X-5743117Y-1978943D01*
X-5480327Y-2242192D01*
X-5136799Y-2384838D01*
X-4983893Y-2384971D01*
X-5278943Y-2506883D01*
X-5487477Y-2715054D01*
X-5735167Y-2714838D01*
X-6078943Y-2856883D01*
X-6144926Y-2922751D01*
X-6163201Y-2915162D01*
X-6535167Y-2914838D01*
X-6873000Y-3054427D01*
X-6873000Y-185167D01*
X-935162Y-185167D01*
X-793117Y-528943D01*
X-530327Y-792192D01*
X-186799Y-934838D01*
X185167Y-935162D01*
X528943Y-793117D01*
X792192Y-530327D01*
X934838Y-186799D01*
X935162Y185167D01*
X793117Y528943D01*
X530327Y792192D01*
X186799Y934838D01*
X-185167Y935162D01*
X-528943Y793117D01*
X-792192Y530327D01*
X-934838Y186799D01*
X-935162Y-185167D01*
X-6873000Y-185167D01*
X-6873000Y964833D01*
X1714838Y964833D01*
X1856883Y621057D01*
X2119673Y357808D01*
X2463201Y215162D01*
X2835167Y214838D01*
X3178943Y356883D01*
X3442192Y619673D01*
X3584838Y963201D01*
X3585144Y1314833D01*
X4064838Y1314833D01*
X4206883Y971057D01*
X4469673Y707808D01*
X4813201Y565162D01*
X5185167Y564838D01*
X5528943Y706883D01*
X5792192Y969673D01*
X5934838Y1313201D01*
X5935162Y1685167D01*
X5793117Y2028943D01*
X5530327Y2292192D01*
X5186799Y2434838D01*
X4814833Y2435162D01*
X4471057Y2293117D01*
X4207808Y2030327D01*
X4065162Y1686799D01*
X4064838Y1314833D01*
X3585144Y1314833D01*
X3585162Y1335167D01*
X3443117Y1678943D01*
X3180327Y1942192D01*
X2836799Y2084838D01*
X2464833Y2085162D01*
X2121057Y1943117D01*
X1857808Y1680327D01*
X1715162Y1336799D01*
X1714838Y964833D01*
X-6873000Y964833D01*
X-6873000Y1914833D01*
X-6685162Y1914833D01*
X-6543117Y1571057D01*
X-6280327Y1307808D01*
X-5936799Y1165162D01*
X-5564833Y1164838D01*
X-5221057Y1306883D01*
X-4957808Y1569673D01*
X-4815162Y1913201D01*
X-4814838Y2285167D01*
X-4956883Y2628943D01*
X-5219673Y2892192D01*
X-5563201Y3034838D01*
X-5935167Y3035162D01*
X-6278943Y2893117D01*
X-6542192Y2630327D01*
X-6684838Y2286799D01*
X-6685162Y1914833D01*
X-6873000Y1914833D01*
X-6873000Y3447394D01*
X-5061888Y5258506D01*
X-4975641Y5049772D01*
X-5084838Y4786799D01*
X-5085162Y4414833D01*
X-4943117Y4071057D01*
X-4680327Y3807808D01*
X-4336799Y3665162D01*
X-3964833Y3664838D01*
X-3621057Y3806883D01*
X-3357808Y4069673D01*
X-3215162Y4413201D01*
X-3214838Y4785167D01*
X-3227095Y4814833D01*
X-2435162Y4814833D01*
X-2293117Y4471057D01*
X-2030327Y4207808D01*
X-1686799Y4065162D01*
X-1314833Y4064838D01*
X-971057Y4206883D01*
X-812832Y4364833D01*
X414838Y4364833D01*
X556883Y4021057D01*
X819673Y3757808D01*
X1163201Y3615162D01*
X1535167Y3614838D01*
X1878943Y3756883D01*
X2142192Y4019673D01*
X2284838Y4363201D01*
X2285162Y4735167D01*
X2143117Y5078943D01*
X1880327Y5342192D01*
X1536799Y5484838D01*
X1164833Y5485162D01*
X821057Y5343117D01*
X557808Y5080327D01*
X415162Y4736799D01*
X414838Y4364833D01*
X-812832Y4364833D01*
X-707808Y4469673D01*
X-565162Y4813201D01*
X-564838Y5185167D01*
X-706883Y5528943D01*
X-969673Y5792192D01*
X-1313201Y5934838D01*
X-1685167Y5935162D01*
X-2028943Y5793117D01*
X-2292192Y5530327D01*
X-2434838Y5186799D01*
X-2435162Y4814833D01*
X-3227095Y4814833D01*
X-3324359Y5050228D01*
X-3215162Y5313201D01*
X-3214838Y5685167D01*
X-3314003Y5925166D01*
X-3215162Y6163201D01*
X-3214838Y6535167D01*
X-3354427Y6873000D01*
X3447394Y6873000D01*
X3814960Y6505434D01*
G36*
X31761725Y16551028D02*
X31481985Y16435442D01*
X31190581Y16144546D01*
X31032680Y15764277D01*
X31032321Y15352529D01*
X31189558Y14971985D01*
X31480454Y14680581D01*
X31609492Y14627000D01*
X29044459Y14627000D01*
X29834650Y15417191D01*
X29969735Y15614894D01*
X30024219Y15866056D01*
X29976695Y16118627D01*
X29834650Y16332809D01*
X28397809Y17769650D01*
X28200106Y17904735D01*
X27948944Y17959219D01*
X27696373Y17911695D01*
X27482191Y17769650D01*
X26045350Y16332809D01*
X25910265Y16135106D01*
X25855781Y15883944D01*
X25888694Y15709022D01*
X25883162Y15709231D01*
X25279131Y15485334D01*
X25182024Y15220479D01*
X25775503Y14627000D01*
X25416293Y14627000D01*
X25002419Y15040874D01*
X24737564Y14943767D01*
X24620148Y14627000D01*
X22552606Y14627000D01*
X20264773Y16914833D01*
X23764838Y16914833D01*
X23906883Y16571057D01*
X24169673Y16307808D01*
X24513201Y16165162D01*
X24885167Y16164838D01*
X25228943Y16306883D01*
X25492192Y16569673D01*
X25634838Y16913201D01*
X25635162Y17285167D01*
X25493117Y17628943D01*
X25230327Y17892192D01*
X24886799Y18034838D01*
X24514833Y18035162D01*
X24171057Y17893117D01*
X23907808Y17630327D01*
X23765162Y17286799D01*
X23764838Y16914833D01*
X20264773Y16914833D01*
X17212256Y19967350D01*
X17428943Y20056883D01*
X17692192Y20319673D01*
X17834838Y20663201D01*
X17835162Y21035167D01*
X17693117Y21378943D01*
X17430327Y21642192D01*
X17086799Y21784838D01*
X16714833Y21785162D01*
X16371057Y21643117D01*
X16107808Y21380327D01*
X16017284Y21162322D01*
X14814773Y22364833D01*
X23014838Y22364833D01*
X23156883Y22021057D01*
X23419673Y21757808D01*
X23763201Y21615162D01*
X24135167Y21614838D01*
X24478943Y21756883D01*
X24742192Y22019673D01*
X24884838Y22363201D01*
X24885162Y22735167D01*
X24743117Y23078943D01*
X24480327Y23342192D01*
X24136799Y23484838D01*
X23764833Y23485162D01*
X23421057Y23343117D01*
X23157808Y23080327D01*
X23015162Y22736799D01*
X23014838Y22364833D01*
X14814773Y22364833D01*
X14627000Y22552606D01*
X14627000Y24339541D01*
X15756887Y25469428D01*
X15891972Y25667131D01*
X15946456Y25918293D01*
X15898932Y26170864D01*
X15875626Y26206006D01*
X15896685Y26201817D01*
X16470175Y26315891D01*
X16956355Y26640747D01*
X17281211Y27126927D01*
X17395285Y27700417D01*
X17321427Y28071726D01*
X17692736Y27997868D01*
X18266226Y28111942D01*
X18752406Y28436798D01*
X19077262Y28922978D01*
X19129111Y29183642D01*
X31761725Y16551028D01*
X31761725Y16551028D01*
G37*
X31761725Y16551028D02*
X31481985Y16435442D01*
X31190581Y16144546D01*
X31032680Y15764277D01*
X31032321Y15352529D01*
X31189558Y14971985D01*
X31480454Y14680581D01*
X31609492Y14627000D01*
X29044459Y14627000D01*
X29834650Y15417191D01*
X29969735Y15614894D01*
X30024219Y15866056D01*
X29976695Y16118627D01*
X29834650Y16332809D01*
X28397809Y17769650D01*
X28200106Y17904735D01*
X27948944Y17959219D01*
X27696373Y17911695D01*
X27482191Y17769650D01*
X26045350Y16332809D01*
X25910265Y16135106D01*
X25855781Y15883944D01*
X25888694Y15709022D01*
X25883162Y15709231D01*
X25279131Y15485334D01*
X25182024Y15220479D01*
X25775503Y14627000D01*
X25416293Y14627000D01*
X25002419Y15040874D01*
X24737564Y14943767D01*
X24620148Y14627000D01*
X22552606Y14627000D01*
X20264773Y16914833D01*
X23764838Y16914833D01*
X23906883Y16571057D01*
X24169673Y16307808D01*
X24513201Y16165162D01*
X24885167Y16164838D01*
X25228943Y16306883D01*
X25492192Y16569673D01*
X25634838Y16913201D01*
X25635162Y17285167D01*
X25493117Y17628943D01*
X25230327Y17892192D01*
X24886799Y18034838D01*
X24514833Y18035162D01*
X24171057Y17893117D01*
X23907808Y17630327D01*
X23765162Y17286799D01*
X23764838Y16914833D01*
X20264773Y16914833D01*
X17212256Y19967350D01*
X17428943Y20056883D01*
X17692192Y20319673D01*
X17834838Y20663201D01*
X17835162Y21035167D01*
X17693117Y21378943D01*
X17430327Y21642192D01*
X17086799Y21784838D01*
X16714833Y21785162D01*
X16371057Y21643117D01*
X16107808Y21380327D01*
X16017284Y21162322D01*
X14814773Y22364833D01*
X23014838Y22364833D01*
X23156883Y22021057D01*
X23419673Y21757808D01*
X23763201Y21615162D01*
X24135167Y21614838D01*
X24478943Y21756883D01*
X24742192Y22019673D01*
X24884838Y22363201D01*
X24885162Y22735167D01*
X24743117Y23078943D01*
X24480327Y23342192D01*
X24136799Y23484838D01*
X23764833Y23485162D01*
X23421057Y23343117D01*
X23157808Y23080327D01*
X23015162Y22736799D01*
X23014838Y22364833D01*
X14814773Y22364833D01*
X14627000Y22552606D01*
X14627000Y24339541D01*
X15756887Y25469428D01*
X15891972Y25667131D01*
X15946456Y25918293D01*
X15898932Y26170864D01*
X15875626Y26206006D01*
X15896685Y26201817D01*
X16470175Y26315891D01*
X16956355Y26640747D01*
X17281211Y27126927D01*
X17395285Y27700417D01*
X17321427Y28071726D01*
X17692736Y27997868D01*
X18266226Y28111942D01*
X18752406Y28436798D01*
X19077262Y28922978D01*
X19129111Y29183642D01*
X31761725Y16551028D01*
G36*
X30960374Y-17352379D02*
X30960413Y-17307675D01*
X30598084Y-16430771D01*
X29927758Y-15759274D01*
X29051487Y-15395415D01*
X28102675Y-15394587D01*
X27225771Y-15756916D01*
X26554274Y-16427242D01*
X26190415Y-17303513D01*
X26189587Y-18252325D01*
X26551916Y-19129229D01*
X27222242Y-19800726D01*
X28098513Y-20164585D01*
X28148125Y-20164628D01*
X27011047Y-21301707D01*
X26871014Y-21161673D01*
X26551726Y-20842386D01*
X26327220Y-20842386D01*
X25469605Y-21700000D01*
X25483748Y-21714142D01*
X25304142Y-21893748D01*
X25290000Y-21879605D01*
X25275858Y-21893748D01*
X25096252Y-21714142D01*
X25110395Y-21700000D01*
X25096253Y-21685858D01*
X25275858Y-21506253D01*
X25290000Y-21520395D01*
X26147614Y-20662780D01*
X26147614Y-20438274D01*
X25828327Y-20118986D01*
X25649698Y-19940358D01*
X25416309Y-19843685D01*
X25163690Y-19843686D01*
X25008370Y-19908021D01*
X25013309Y-19883189D01*
X24899235Y-19309699D01*
X24574379Y-18823519D01*
X24088199Y-18498663D01*
X23514709Y-18384589D01*
X22941219Y-18498663D01*
X22455039Y-18823519D01*
X22413519Y-18865039D01*
X22088663Y-19351219D01*
X21974589Y-19924709D01*
X22038137Y-20244188D01*
X21718658Y-20180640D01*
X21145168Y-20294714D01*
X20658988Y-20619570D01*
X20617468Y-20661090D01*
X20292612Y-21147270D01*
X20178538Y-21720760D01*
X20242086Y-22040239D01*
X19922606Y-21976691D01*
X19349116Y-22090765D01*
X18862936Y-22415621D01*
X18821416Y-22457141D01*
X18496560Y-22943321D01*
X18382486Y-23516811D01*
X18496560Y-24090301D01*
X18821416Y-24576481D01*
X19307596Y-24901337D01*
X19881086Y-25015411D01*
X20252396Y-24941553D01*
X20178538Y-25312862D01*
X20292612Y-25886352D01*
X20617468Y-26372532D01*
X21103648Y-26697388D01*
X21530466Y-26782287D01*
X20165374Y-28147380D01*
X20165413Y-28102675D01*
X19803084Y-27225771D01*
X19132758Y-26554274D01*
X18256487Y-26190415D01*
X17307675Y-26189587D01*
X16430771Y-26551916D01*
X15759274Y-27222242D01*
X15395415Y-28098513D01*
X15394587Y-29047325D01*
X15756916Y-29924229D01*
X16427242Y-30595726D01*
X17303513Y-30959585D01*
X17353126Y-30959628D01*
X14627000Y-33685754D01*
X14627000Y-22552606D01*
X22552606Y-14627000D01*
X33685753Y-14627000D01*
X30960374Y-17352379D01*
X30960374Y-17352379D01*
G37*
X30960374Y-17352379D02*
X30960413Y-17307675D01*
X30598084Y-16430771D01*
X29927758Y-15759274D01*
X29051487Y-15395415D01*
X28102675Y-15394587D01*
X27225771Y-15756916D01*
X26554274Y-16427242D01*
X26190415Y-17303513D01*
X26189587Y-18252325D01*
X26551916Y-19129229D01*
X27222242Y-19800726D01*
X28098513Y-20164585D01*
X28148125Y-20164628D01*
X27011047Y-21301707D01*
X26871014Y-21161673D01*
X26551726Y-20842386D01*
X26327220Y-20842386D01*
X25469605Y-21700000D01*
X25483748Y-21714142D01*
X25304142Y-21893748D01*
X25290000Y-21879605D01*
X25275858Y-21893748D01*
X25096252Y-21714142D01*
X25110395Y-21700000D01*
X25096253Y-21685858D01*
X25275858Y-21506253D01*
X25290000Y-21520395D01*
X26147614Y-20662780D01*
X26147614Y-20438274D01*
X25828327Y-20118986D01*
X25649698Y-19940358D01*
X25416309Y-19843685D01*
X25163690Y-19843686D01*
X25008370Y-19908021D01*
X25013309Y-19883189D01*
X24899235Y-19309699D01*
X24574379Y-18823519D01*
X24088199Y-18498663D01*
X23514709Y-18384589D01*
X22941219Y-18498663D01*
X22455039Y-18823519D01*
X22413519Y-18865039D01*
X22088663Y-19351219D01*
X21974589Y-19924709D01*
X22038137Y-20244188D01*
X21718658Y-20180640D01*
X21145168Y-20294714D01*
X20658988Y-20619570D01*
X20617468Y-20661090D01*
X20292612Y-21147270D01*
X20178538Y-21720760D01*
X20242086Y-22040239D01*
X19922606Y-21976691D01*
X19349116Y-22090765D01*
X18862936Y-22415621D01*
X18821416Y-22457141D01*
X18496560Y-22943321D01*
X18382486Y-23516811D01*
X18496560Y-24090301D01*
X18821416Y-24576481D01*
X19307596Y-24901337D01*
X19881086Y-25015411D01*
X20252396Y-24941553D01*
X20178538Y-25312862D01*
X20292612Y-25886352D01*
X20617468Y-26372532D01*
X21103648Y-26697388D01*
X21530466Y-26782287D01*
X20165374Y-28147380D01*
X20165413Y-28102675D01*
X19803084Y-27225771D01*
X19132758Y-26554274D01*
X18256487Y-26190415D01*
X17307675Y-26189587D01*
X16430771Y-26551916D01*
X15759274Y-27222242D01*
X15395415Y-28098513D01*
X15394587Y-29047325D01*
X15756916Y-29924229D01*
X16427242Y-30595726D01*
X17303513Y-30959585D01*
X17353126Y-30959628D01*
X14627000Y-33685754D01*
X14627000Y-22552606D01*
X22552606Y-14627000D01*
X33685753Y-14627000D01*
X30960374Y-17352379D01*
M02*
