G04 #@! TF.FileFunction,Copper,L4,Bot,Signal*
%FSLAX46Y46*%
G04 Gerber Fmt 4.6, Leading zero omitted, Abs format (unit mm)*
G04 Created by KiCad (PCBNEW 4.0.6-e0-6349~53~ubuntu14.04.1) date Wed Apr 12 14:04:21 2017*
%MOMM*%
%LPD*%
G01*
G04 APERTURE LIST*
%ADD10C,0.200000*%
%ADD11C,3.500000*%
%ADD12C,1.727200*%
%ADD13R,1.727200X1.727200*%
%ADD14O,1.727200X1.727200*%
%ADD15R,1.550000X0.600000*%
%ADD16R,0.749300X0.398780*%
%ADD17R,0.600000X1.550000*%
%ADD18R,0.398780X0.749300*%
%ADD19R,0.600000X0.500000*%
%ADD20C,0.950000*%
%ADD21C,1.550000*%
%ADD22R,0.800000X0.750000*%
%ADD23R,0.750000X0.800000*%
%ADD24R,0.500000X0.600000*%
%ADD25R,1.250000X1.000000*%
%ADD26R,1.000000X1.250000*%
%ADD27C,2.032000*%
%ADD28C,0.600000*%
%ADD29C,0.250000*%
%ADD30C,0.500000*%
G04 APERTURE END LIST*
D10*
D11*
X-28575000Y17780000D03*
D10*
G36*
X14077763Y24705922D02*
X12640922Y26142763D01*
X13862237Y27364078D01*
X15299078Y25927237D01*
X14077763Y24705922D01*
X14077763Y24705922D01*
G37*
D12*
X15658288Y27938814D02*
X15873814Y27723288D01*
X17454339Y29734865D02*
X17669865Y29519339D01*
D10*
G36*
X-10919023Y-12722145D02*
X-11378642Y-12262526D01*
X-10629109Y-11512993D01*
X-10169490Y-11972612D01*
X-10919023Y-12722145D01*
X-10919023Y-12722145D01*
G37*
G36*
X-11590774Y-12050393D02*
X-12050393Y-11590774D01*
X-11300860Y-10841241D01*
X-10841241Y-11300860D01*
X-11590774Y-12050393D01*
X-11590774Y-12050393D01*
G37*
G36*
X-12262526Y-11378642D02*
X-12722145Y-10919023D01*
X-11972612Y-10169490D01*
X-11512993Y-10629109D01*
X-12262526Y-11378642D01*
X-12262526Y-11378642D01*
G37*
G36*
X-10706891Y-9823007D02*
X-11166510Y-9363388D01*
X-10416977Y-8613855D01*
X-9957358Y-9073474D01*
X-10706891Y-9823007D01*
X-10706891Y-9823007D01*
G37*
G36*
X-9363388Y-11166510D02*
X-9823007Y-10706891D01*
X-9073474Y-9957358D01*
X-8613855Y-10416977D01*
X-9363388Y-11166510D01*
X-9363388Y-11166510D01*
G37*
G36*
X-23683598Y16973155D02*
X-23259334Y17397419D01*
X-22198674Y16336759D01*
X-22622938Y15912495D01*
X-23683598Y16973155D01*
X-23683598Y16973155D01*
G37*
G36*
X-22785573Y17871181D02*
X-22361309Y18295445D01*
X-21300649Y17234785D01*
X-21724913Y16810521D01*
X-22785573Y17871181D01*
X-22785573Y17871181D01*
G37*
G36*
X-21887547Y18769206D02*
X-21463283Y19193470D01*
X-20402623Y18132810D01*
X-20826887Y17708546D01*
X-21887547Y18769206D01*
X-21887547Y18769206D01*
G37*
G36*
X-20989521Y19667232D02*
X-20565257Y20091496D01*
X-19504597Y19030836D01*
X-19928861Y18606572D01*
X-20989521Y19667232D01*
X-20989521Y19667232D01*
G37*
G36*
X-20091496Y20565257D02*
X-19667232Y20989521D01*
X-18606572Y19928861D01*
X-19030836Y19504597D01*
X-20091496Y20565257D01*
X-20091496Y20565257D01*
G37*
G36*
X-19193470Y21463283D02*
X-18769206Y21887547D01*
X-17708546Y20826887D01*
X-18132810Y20402623D01*
X-19193470Y21463283D01*
X-19193470Y21463283D01*
G37*
G36*
X-18295445Y22361309D02*
X-17871181Y22785573D01*
X-16810521Y21724913D01*
X-17234785Y21300649D01*
X-18295445Y22361309D01*
X-18295445Y22361309D01*
G37*
G36*
X-17397419Y23259334D02*
X-16973155Y23683598D01*
X-15912495Y22622938D01*
X-16336759Y22198674D01*
X-17397419Y23259334D01*
X-17397419Y23259334D01*
G37*
G36*
X-10821326Y16683241D02*
X-10397062Y17107505D01*
X-9336402Y16046845D01*
X-9760666Y15622581D01*
X-10821326Y16683241D01*
X-10821326Y16683241D01*
G37*
G36*
X-11719351Y15785215D02*
X-11295087Y16209479D01*
X-10234427Y15148819D01*
X-10658691Y14724555D01*
X-11719351Y15785215D01*
X-11719351Y15785215D01*
G37*
G36*
X-12617377Y14887190D02*
X-12193113Y15311454D01*
X-11132453Y14250794D01*
X-11556717Y13826530D01*
X-12617377Y14887190D01*
X-12617377Y14887190D01*
G37*
G36*
X-13515403Y13989164D02*
X-13091139Y14413428D01*
X-12030479Y13352768D01*
X-12454743Y12928504D01*
X-13515403Y13989164D01*
X-13515403Y13989164D01*
G37*
G36*
X-14413428Y13091139D02*
X-13989164Y13515403D01*
X-12928504Y12454743D01*
X-13352768Y12030479D01*
X-14413428Y13091139D01*
X-14413428Y13091139D01*
G37*
G36*
X-15311454Y12193113D02*
X-14887190Y12617377D01*
X-13826530Y11556717D01*
X-14250794Y11132453D01*
X-15311454Y12193113D01*
X-15311454Y12193113D01*
G37*
G36*
X-16209479Y11295087D02*
X-15785215Y11719351D01*
X-14724555Y10658691D01*
X-15148819Y10234427D01*
X-16209479Y11295087D01*
X-16209479Y11295087D01*
G37*
G36*
X-17107505Y10397062D02*
X-16683241Y10821326D01*
X-15622581Y9760666D01*
X-16046845Y9336402D01*
X-17107505Y10397062D01*
X-17107505Y10397062D01*
G37*
G36*
X14407301Y-1820800D02*
X14195169Y-2032932D01*
X13099153Y-936916D01*
X13311285Y-724784D01*
X14407301Y-1820800D01*
X14407301Y-1820800D01*
G37*
G36*
X14053748Y-2174354D02*
X13841616Y-2386486D01*
X12745600Y-1290470D01*
X12957732Y-1078338D01*
X14053748Y-2174354D01*
X14053748Y-2174354D01*
G37*
G36*
X13700194Y-2527907D02*
X13488062Y-2740039D01*
X12392046Y-1644023D01*
X12604178Y-1431891D01*
X13700194Y-2527907D01*
X13700194Y-2527907D01*
G37*
G36*
X13346641Y-2881460D02*
X13134509Y-3093592D01*
X12038493Y-1997576D01*
X12250625Y-1785444D01*
X13346641Y-2881460D01*
X13346641Y-2881460D01*
G37*
G36*
X12993087Y-3235014D02*
X12780955Y-3447146D01*
X11684939Y-2351130D01*
X11897071Y-2138998D01*
X12993087Y-3235014D01*
X12993087Y-3235014D01*
G37*
G36*
X12639534Y-3588567D02*
X12427402Y-3800699D01*
X11331386Y-2704683D01*
X11543518Y-2492551D01*
X12639534Y-3588567D01*
X12639534Y-3588567D01*
G37*
G36*
X12285981Y-3942121D02*
X12073849Y-4154253D01*
X10977833Y-3058237D01*
X11189965Y-2846105D01*
X12285981Y-3942121D01*
X12285981Y-3942121D01*
G37*
G36*
X11932427Y-4295674D02*
X11720295Y-4507806D01*
X10624279Y-3411790D01*
X10836411Y-3199658D01*
X11932427Y-4295674D01*
X11932427Y-4295674D01*
G37*
G36*
X11578874Y-4649227D02*
X11366742Y-4861359D01*
X10270726Y-3765343D01*
X10482858Y-3553211D01*
X11578874Y-4649227D01*
X11578874Y-4649227D01*
G37*
G36*
X11225320Y-5002781D02*
X11013188Y-5214913D01*
X9917172Y-4118897D01*
X10129304Y-3906765D01*
X11225320Y-5002781D01*
X11225320Y-5002781D01*
G37*
G36*
X10871767Y-5356334D02*
X10659635Y-5568466D01*
X9563619Y-4472450D01*
X9775751Y-4260318D01*
X10871767Y-5356334D01*
X10871767Y-5356334D01*
G37*
G36*
X10518214Y-5709888D02*
X10306082Y-5922020D01*
X9210066Y-4826004D01*
X9422198Y-4613872D01*
X10518214Y-5709888D01*
X10518214Y-5709888D01*
G37*
G36*
X10164660Y-6063441D02*
X9952528Y-6275573D01*
X8856512Y-5179557D01*
X9068644Y-4967425D01*
X10164660Y-6063441D01*
X10164660Y-6063441D01*
G37*
G36*
X9811107Y-6416994D02*
X9598975Y-6629126D01*
X8502959Y-5533110D01*
X8715091Y-5320978D01*
X9811107Y-6416994D01*
X9811107Y-6416994D01*
G37*
G36*
X9457553Y-6770548D02*
X9245421Y-6982680D01*
X8149405Y-5886664D01*
X8361537Y-5674532D01*
X9457553Y-6770548D01*
X9457553Y-6770548D01*
G37*
G36*
X9104000Y-7124101D02*
X8891868Y-7336233D01*
X7795852Y-6240217D01*
X8007984Y-6028085D01*
X9104000Y-7124101D01*
X9104000Y-7124101D01*
G37*
G36*
X8750447Y-7477654D02*
X8538315Y-7689786D01*
X7442299Y-6593770D01*
X7654431Y-6381638D01*
X8750447Y-7477654D01*
X8750447Y-7477654D01*
G37*
G36*
X8396893Y-7831208D02*
X8184761Y-8043340D01*
X7088745Y-6947324D01*
X7300877Y-6735192D01*
X8396893Y-7831208D01*
X8396893Y-7831208D01*
G37*
G36*
X8043340Y-8184761D02*
X7831208Y-8396893D01*
X6735192Y-7300877D01*
X6947324Y-7088745D01*
X8043340Y-8184761D01*
X8043340Y-8184761D01*
G37*
G36*
X7689786Y-8538315D02*
X7477654Y-8750447D01*
X6381638Y-7654431D01*
X6593770Y-7442299D01*
X7689786Y-8538315D01*
X7689786Y-8538315D01*
G37*
G36*
X7336233Y-8891868D02*
X7124101Y-9104000D01*
X6028085Y-8007984D01*
X6240217Y-7795852D01*
X7336233Y-8891868D01*
X7336233Y-8891868D01*
G37*
G36*
X6982680Y-9245421D02*
X6770548Y-9457553D01*
X5674532Y-8361537D01*
X5886664Y-8149405D01*
X6982680Y-9245421D01*
X6982680Y-9245421D01*
G37*
G36*
X6629126Y-9598975D02*
X6416994Y-9811107D01*
X5320978Y-8715091D01*
X5533110Y-8502959D01*
X6629126Y-9598975D01*
X6629126Y-9598975D01*
G37*
G36*
X6275573Y-9952528D02*
X6063441Y-10164660D01*
X4967425Y-9068644D01*
X5179557Y-8856512D01*
X6275573Y-9952528D01*
X6275573Y-9952528D01*
G37*
G36*
X5922020Y-10306082D02*
X5709888Y-10518214D01*
X4613872Y-9422198D01*
X4826004Y-9210066D01*
X5922020Y-10306082D01*
X5922020Y-10306082D01*
G37*
G36*
X5568466Y-10659635D02*
X5356334Y-10871767D01*
X4260318Y-9775751D01*
X4472450Y-9563619D01*
X5568466Y-10659635D01*
X5568466Y-10659635D01*
G37*
G36*
X5214913Y-11013188D02*
X5002781Y-11225320D01*
X3906765Y-10129304D01*
X4118897Y-9917172D01*
X5214913Y-11013188D01*
X5214913Y-11013188D01*
G37*
G36*
X4861359Y-11366742D02*
X4649227Y-11578874D01*
X3553211Y-10482858D01*
X3765343Y-10270726D01*
X4861359Y-11366742D01*
X4861359Y-11366742D01*
G37*
G36*
X4507806Y-11720295D02*
X4295674Y-11932427D01*
X3199658Y-10836411D01*
X3411790Y-10624279D01*
X4507806Y-11720295D01*
X4507806Y-11720295D01*
G37*
G36*
X4154253Y-12073849D02*
X3942121Y-12285981D01*
X2846105Y-11189965D01*
X3058237Y-10977833D01*
X4154253Y-12073849D01*
X4154253Y-12073849D01*
G37*
G36*
X3800699Y-12427402D02*
X3588567Y-12639534D01*
X2492551Y-11543518D01*
X2704683Y-11331386D01*
X3800699Y-12427402D01*
X3800699Y-12427402D01*
G37*
G36*
X3447146Y-12780955D02*
X3235014Y-12993087D01*
X2138998Y-11897071D01*
X2351130Y-11684939D01*
X3447146Y-12780955D01*
X3447146Y-12780955D01*
G37*
G36*
X3093592Y-13134509D02*
X2881460Y-13346641D01*
X1785444Y-12250625D01*
X1997576Y-12038493D01*
X3093592Y-13134509D01*
X3093592Y-13134509D01*
G37*
G36*
X2740039Y-13488062D02*
X2527907Y-13700194D01*
X1431891Y-12604178D01*
X1644023Y-12392046D01*
X2740039Y-13488062D01*
X2740039Y-13488062D01*
G37*
G36*
X2386486Y-13841616D02*
X2174354Y-14053748D01*
X1078338Y-12957732D01*
X1290470Y-12745600D01*
X2386486Y-13841616D01*
X2386486Y-13841616D01*
G37*
G36*
X2032932Y-14195169D02*
X1820800Y-14407301D01*
X724784Y-13311285D01*
X936916Y-13099153D01*
X2032932Y-14195169D01*
X2032932Y-14195169D01*
G37*
G36*
X-1820800Y-14407301D02*
X-2032932Y-14195169D01*
X-936916Y-13099153D01*
X-724784Y-13311285D01*
X-1820800Y-14407301D01*
X-1820800Y-14407301D01*
G37*
G36*
X-2174354Y-14053748D02*
X-2386486Y-13841616D01*
X-1290470Y-12745600D01*
X-1078338Y-12957732D01*
X-2174354Y-14053748D01*
X-2174354Y-14053748D01*
G37*
G36*
X-2527907Y-13700194D02*
X-2740039Y-13488062D01*
X-1644023Y-12392046D01*
X-1431891Y-12604178D01*
X-2527907Y-13700194D01*
X-2527907Y-13700194D01*
G37*
G36*
X-2881460Y-13346641D02*
X-3093592Y-13134509D01*
X-1997576Y-12038493D01*
X-1785444Y-12250625D01*
X-2881460Y-13346641D01*
X-2881460Y-13346641D01*
G37*
G36*
X-3235014Y-12993087D02*
X-3447146Y-12780955D01*
X-2351130Y-11684939D01*
X-2138998Y-11897071D01*
X-3235014Y-12993087D01*
X-3235014Y-12993087D01*
G37*
G36*
X-3588567Y-12639534D02*
X-3800699Y-12427402D01*
X-2704683Y-11331386D01*
X-2492551Y-11543518D01*
X-3588567Y-12639534D01*
X-3588567Y-12639534D01*
G37*
G36*
X-3942121Y-12285981D02*
X-4154253Y-12073849D01*
X-3058237Y-10977833D01*
X-2846105Y-11189965D01*
X-3942121Y-12285981D01*
X-3942121Y-12285981D01*
G37*
G36*
X-4295674Y-11932427D02*
X-4507806Y-11720295D01*
X-3411790Y-10624279D01*
X-3199658Y-10836411D01*
X-4295674Y-11932427D01*
X-4295674Y-11932427D01*
G37*
G36*
X-4649227Y-11578874D02*
X-4861359Y-11366742D01*
X-3765343Y-10270726D01*
X-3553211Y-10482858D01*
X-4649227Y-11578874D01*
X-4649227Y-11578874D01*
G37*
G36*
X-5002781Y-11225320D02*
X-5214913Y-11013188D01*
X-4118897Y-9917172D01*
X-3906765Y-10129304D01*
X-5002781Y-11225320D01*
X-5002781Y-11225320D01*
G37*
G36*
X-5356334Y-10871767D02*
X-5568466Y-10659635D01*
X-4472450Y-9563619D01*
X-4260318Y-9775751D01*
X-5356334Y-10871767D01*
X-5356334Y-10871767D01*
G37*
G36*
X-5709888Y-10518214D02*
X-5922020Y-10306082D01*
X-4826004Y-9210066D01*
X-4613872Y-9422198D01*
X-5709888Y-10518214D01*
X-5709888Y-10518214D01*
G37*
G36*
X-6063441Y-10164660D02*
X-6275573Y-9952528D01*
X-5179557Y-8856512D01*
X-4967425Y-9068644D01*
X-6063441Y-10164660D01*
X-6063441Y-10164660D01*
G37*
G36*
X-6416994Y-9811107D02*
X-6629126Y-9598975D01*
X-5533110Y-8502959D01*
X-5320978Y-8715091D01*
X-6416994Y-9811107D01*
X-6416994Y-9811107D01*
G37*
G36*
X-6770548Y-9457553D02*
X-6982680Y-9245421D01*
X-5886664Y-8149405D01*
X-5674532Y-8361537D01*
X-6770548Y-9457553D01*
X-6770548Y-9457553D01*
G37*
G36*
X-7124101Y-9104000D02*
X-7336233Y-8891868D01*
X-6240217Y-7795852D01*
X-6028085Y-8007984D01*
X-7124101Y-9104000D01*
X-7124101Y-9104000D01*
G37*
G36*
X-7477654Y-8750447D02*
X-7689786Y-8538315D01*
X-6593770Y-7442299D01*
X-6381638Y-7654431D01*
X-7477654Y-8750447D01*
X-7477654Y-8750447D01*
G37*
G36*
X-7831208Y-8396893D02*
X-8043340Y-8184761D01*
X-6947324Y-7088745D01*
X-6735192Y-7300877D01*
X-7831208Y-8396893D01*
X-7831208Y-8396893D01*
G37*
G36*
X-8184761Y-8043340D02*
X-8396893Y-7831208D01*
X-7300877Y-6735192D01*
X-7088745Y-6947324D01*
X-8184761Y-8043340D01*
X-8184761Y-8043340D01*
G37*
G36*
X-8538315Y-7689786D02*
X-8750447Y-7477654D01*
X-7654431Y-6381638D01*
X-7442299Y-6593770D01*
X-8538315Y-7689786D01*
X-8538315Y-7689786D01*
G37*
G36*
X-8891868Y-7336233D02*
X-9104000Y-7124101D01*
X-8007984Y-6028085D01*
X-7795852Y-6240217D01*
X-8891868Y-7336233D01*
X-8891868Y-7336233D01*
G37*
G36*
X-9245421Y-6982680D02*
X-9457553Y-6770548D01*
X-8361537Y-5674532D01*
X-8149405Y-5886664D01*
X-9245421Y-6982680D01*
X-9245421Y-6982680D01*
G37*
G36*
X-9598975Y-6629126D02*
X-9811107Y-6416994D01*
X-8715091Y-5320978D01*
X-8502959Y-5533110D01*
X-9598975Y-6629126D01*
X-9598975Y-6629126D01*
G37*
G36*
X-9952528Y-6275573D02*
X-10164660Y-6063441D01*
X-9068644Y-4967425D01*
X-8856512Y-5179557D01*
X-9952528Y-6275573D01*
X-9952528Y-6275573D01*
G37*
G36*
X-10306082Y-5922020D02*
X-10518214Y-5709888D01*
X-9422198Y-4613872D01*
X-9210066Y-4826004D01*
X-10306082Y-5922020D01*
X-10306082Y-5922020D01*
G37*
G36*
X-10659635Y-5568466D02*
X-10871767Y-5356334D01*
X-9775751Y-4260318D01*
X-9563619Y-4472450D01*
X-10659635Y-5568466D01*
X-10659635Y-5568466D01*
G37*
G36*
X-11013188Y-5214913D02*
X-11225320Y-5002781D01*
X-10129304Y-3906765D01*
X-9917172Y-4118897D01*
X-11013188Y-5214913D01*
X-11013188Y-5214913D01*
G37*
G36*
X-11366742Y-4861359D02*
X-11578874Y-4649227D01*
X-10482858Y-3553211D01*
X-10270726Y-3765343D01*
X-11366742Y-4861359D01*
X-11366742Y-4861359D01*
G37*
G36*
X-11720295Y-4507806D02*
X-11932427Y-4295674D01*
X-10836411Y-3199658D01*
X-10624279Y-3411790D01*
X-11720295Y-4507806D01*
X-11720295Y-4507806D01*
G37*
G36*
X-12073849Y-4154253D02*
X-12285981Y-3942121D01*
X-11189965Y-2846105D01*
X-10977833Y-3058237D01*
X-12073849Y-4154253D01*
X-12073849Y-4154253D01*
G37*
G36*
X-12427402Y-3800699D02*
X-12639534Y-3588567D01*
X-11543518Y-2492551D01*
X-11331386Y-2704683D01*
X-12427402Y-3800699D01*
X-12427402Y-3800699D01*
G37*
G36*
X-12780955Y-3447146D02*
X-12993087Y-3235014D01*
X-11897071Y-2138998D01*
X-11684939Y-2351130D01*
X-12780955Y-3447146D01*
X-12780955Y-3447146D01*
G37*
G36*
X-13134509Y-3093592D02*
X-13346641Y-2881460D01*
X-12250625Y-1785444D01*
X-12038493Y-1997576D01*
X-13134509Y-3093592D01*
X-13134509Y-3093592D01*
G37*
G36*
X-13488062Y-2740039D02*
X-13700194Y-2527907D01*
X-12604178Y-1431891D01*
X-12392046Y-1644023D01*
X-13488062Y-2740039D01*
X-13488062Y-2740039D01*
G37*
G36*
X-13841616Y-2386486D02*
X-14053748Y-2174354D01*
X-12957732Y-1078338D01*
X-12745600Y-1290470D01*
X-13841616Y-2386486D01*
X-13841616Y-2386486D01*
G37*
G36*
X-14195169Y-2032932D02*
X-14407301Y-1820800D01*
X-13311285Y-724784D01*
X-13099153Y-936916D01*
X-14195169Y-2032932D01*
X-14195169Y-2032932D01*
G37*
G36*
X-13099153Y936916D02*
X-13311285Y724784D01*
X-14407301Y1820800D01*
X-14195169Y2032932D01*
X-13099153Y936916D01*
X-13099153Y936916D01*
G37*
G36*
X-12745600Y1290470D02*
X-12957732Y1078338D01*
X-14053748Y2174354D01*
X-13841616Y2386486D01*
X-12745600Y1290470D01*
X-12745600Y1290470D01*
G37*
G36*
X-12392046Y1644023D02*
X-12604178Y1431891D01*
X-13700194Y2527907D01*
X-13488062Y2740039D01*
X-12392046Y1644023D01*
X-12392046Y1644023D01*
G37*
G36*
X-12038493Y1997576D02*
X-12250625Y1785444D01*
X-13346641Y2881460D01*
X-13134509Y3093592D01*
X-12038493Y1997576D01*
X-12038493Y1997576D01*
G37*
G36*
X-11684939Y2351130D02*
X-11897071Y2138998D01*
X-12993087Y3235014D01*
X-12780955Y3447146D01*
X-11684939Y2351130D01*
X-11684939Y2351130D01*
G37*
G36*
X-11331386Y2704683D02*
X-11543518Y2492551D01*
X-12639534Y3588567D01*
X-12427402Y3800699D01*
X-11331386Y2704683D01*
X-11331386Y2704683D01*
G37*
G36*
X-10977833Y3058237D02*
X-11189965Y2846105D01*
X-12285981Y3942121D01*
X-12073849Y4154253D01*
X-10977833Y3058237D01*
X-10977833Y3058237D01*
G37*
G36*
X-10624279Y3411790D02*
X-10836411Y3199658D01*
X-11932427Y4295674D01*
X-11720295Y4507806D01*
X-10624279Y3411790D01*
X-10624279Y3411790D01*
G37*
G36*
X-10270726Y3765343D02*
X-10482858Y3553211D01*
X-11578874Y4649227D01*
X-11366742Y4861359D01*
X-10270726Y3765343D01*
X-10270726Y3765343D01*
G37*
G36*
X-9917172Y4118897D02*
X-10129304Y3906765D01*
X-11225320Y5002781D01*
X-11013188Y5214913D01*
X-9917172Y4118897D01*
X-9917172Y4118897D01*
G37*
G36*
X-9563619Y4472450D02*
X-9775751Y4260318D01*
X-10871767Y5356334D01*
X-10659635Y5568466D01*
X-9563619Y4472450D01*
X-9563619Y4472450D01*
G37*
G36*
X-9210066Y4826004D02*
X-9422198Y4613872D01*
X-10518214Y5709888D01*
X-10306082Y5922020D01*
X-9210066Y4826004D01*
X-9210066Y4826004D01*
G37*
G36*
X-8856512Y5179557D02*
X-9068644Y4967425D01*
X-10164660Y6063441D01*
X-9952528Y6275573D01*
X-8856512Y5179557D01*
X-8856512Y5179557D01*
G37*
G36*
X-8502959Y5533110D02*
X-8715091Y5320978D01*
X-9811107Y6416994D01*
X-9598975Y6629126D01*
X-8502959Y5533110D01*
X-8502959Y5533110D01*
G37*
G36*
X-8149405Y5886664D02*
X-8361537Y5674532D01*
X-9457553Y6770548D01*
X-9245421Y6982680D01*
X-8149405Y5886664D01*
X-8149405Y5886664D01*
G37*
G36*
X-7795852Y6240217D02*
X-8007984Y6028085D01*
X-9104000Y7124101D01*
X-8891868Y7336233D01*
X-7795852Y6240217D01*
X-7795852Y6240217D01*
G37*
G36*
X-7442299Y6593770D02*
X-7654431Y6381638D01*
X-8750447Y7477654D01*
X-8538315Y7689786D01*
X-7442299Y6593770D01*
X-7442299Y6593770D01*
G37*
G36*
X-7088745Y6947324D02*
X-7300877Y6735192D01*
X-8396893Y7831208D01*
X-8184761Y8043340D01*
X-7088745Y6947324D01*
X-7088745Y6947324D01*
G37*
G36*
X-6735192Y7300877D02*
X-6947324Y7088745D01*
X-8043340Y8184761D01*
X-7831208Y8396893D01*
X-6735192Y7300877D01*
X-6735192Y7300877D01*
G37*
G36*
X-6381638Y7654431D02*
X-6593770Y7442299D01*
X-7689786Y8538315D01*
X-7477654Y8750447D01*
X-6381638Y7654431D01*
X-6381638Y7654431D01*
G37*
G36*
X-6028085Y8007984D02*
X-6240217Y7795852D01*
X-7336233Y8891868D01*
X-7124101Y9104000D01*
X-6028085Y8007984D01*
X-6028085Y8007984D01*
G37*
G36*
X-5674532Y8361537D02*
X-5886664Y8149405D01*
X-6982680Y9245421D01*
X-6770548Y9457553D01*
X-5674532Y8361537D01*
X-5674532Y8361537D01*
G37*
G36*
X-5320978Y8715091D02*
X-5533110Y8502959D01*
X-6629126Y9598975D01*
X-6416994Y9811107D01*
X-5320978Y8715091D01*
X-5320978Y8715091D01*
G37*
G36*
X-4967425Y9068644D02*
X-5179557Y8856512D01*
X-6275573Y9952528D01*
X-6063441Y10164660D01*
X-4967425Y9068644D01*
X-4967425Y9068644D01*
G37*
G36*
X-4613872Y9422198D02*
X-4826004Y9210066D01*
X-5922020Y10306082D01*
X-5709888Y10518214D01*
X-4613872Y9422198D01*
X-4613872Y9422198D01*
G37*
G36*
X-4260318Y9775751D02*
X-4472450Y9563619D01*
X-5568466Y10659635D01*
X-5356334Y10871767D01*
X-4260318Y9775751D01*
X-4260318Y9775751D01*
G37*
G36*
X-3906765Y10129304D02*
X-4118897Y9917172D01*
X-5214913Y11013188D01*
X-5002781Y11225320D01*
X-3906765Y10129304D01*
X-3906765Y10129304D01*
G37*
G36*
X-3553211Y10482858D02*
X-3765343Y10270726D01*
X-4861359Y11366742D01*
X-4649227Y11578874D01*
X-3553211Y10482858D01*
X-3553211Y10482858D01*
G37*
G36*
X-3199658Y10836411D02*
X-3411790Y10624279D01*
X-4507806Y11720295D01*
X-4295674Y11932427D01*
X-3199658Y10836411D01*
X-3199658Y10836411D01*
G37*
G36*
X-2846105Y11189965D02*
X-3058237Y10977833D01*
X-4154253Y12073849D01*
X-3942121Y12285981D01*
X-2846105Y11189965D01*
X-2846105Y11189965D01*
G37*
G36*
X-2492551Y11543518D02*
X-2704683Y11331386D01*
X-3800699Y12427402D01*
X-3588567Y12639534D01*
X-2492551Y11543518D01*
X-2492551Y11543518D01*
G37*
G36*
X-2138998Y11897071D02*
X-2351130Y11684939D01*
X-3447146Y12780955D01*
X-3235014Y12993087D01*
X-2138998Y11897071D01*
X-2138998Y11897071D01*
G37*
G36*
X-1785444Y12250625D02*
X-1997576Y12038493D01*
X-3093592Y13134509D01*
X-2881460Y13346641D01*
X-1785444Y12250625D01*
X-1785444Y12250625D01*
G37*
G36*
X-1431891Y12604178D02*
X-1644023Y12392046D01*
X-2740039Y13488062D01*
X-2527907Y13700194D01*
X-1431891Y12604178D01*
X-1431891Y12604178D01*
G37*
G36*
X-1078338Y12957732D02*
X-1290470Y12745600D01*
X-2386486Y13841616D01*
X-2174354Y14053748D01*
X-1078338Y12957732D01*
X-1078338Y12957732D01*
G37*
G36*
X-724784Y13311285D02*
X-936916Y13099153D01*
X-2032932Y14195169D01*
X-1820800Y14407301D01*
X-724784Y13311285D01*
X-724784Y13311285D01*
G37*
G36*
X936916Y13099153D02*
X724784Y13311285D01*
X1820800Y14407301D01*
X2032932Y14195169D01*
X936916Y13099153D01*
X936916Y13099153D01*
G37*
G36*
X1290470Y12745600D02*
X1078338Y12957732D01*
X2174354Y14053748D01*
X2386486Y13841616D01*
X1290470Y12745600D01*
X1290470Y12745600D01*
G37*
G36*
X1644023Y12392046D02*
X1431891Y12604178D01*
X2527907Y13700194D01*
X2740039Y13488062D01*
X1644023Y12392046D01*
X1644023Y12392046D01*
G37*
G36*
X1997576Y12038493D02*
X1785444Y12250625D01*
X2881460Y13346641D01*
X3093592Y13134509D01*
X1997576Y12038493D01*
X1997576Y12038493D01*
G37*
G36*
X2351130Y11684939D02*
X2138998Y11897071D01*
X3235014Y12993087D01*
X3447146Y12780955D01*
X2351130Y11684939D01*
X2351130Y11684939D01*
G37*
G36*
X2704683Y11331386D02*
X2492551Y11543518D01*
X3588567Y12639534D01*
X3800699Y12427402D01*
X2704683Y11331386D01*
X2704683Y11331386D01*
G37*
G36*
X3058237Y10977833D02*
X2846105Y11189965D01*
X3942121Y12285981D01*
X4154253Y12073849D01*
X3058237Y10977833D01*
X3058237Y10977833D01*
G37*
G36*
X3411790Y10624279D02*
X3199658Y10836411D01*
X4295674Y11932427D01*
X4507806Y11720295D01*
X3411790Y10624279D01*
X3411790Y10624279D01*
G37*
G36*
X3765343Y10270726D02*
X3553211Y10482858D01*
X4649227Y11578874D01*
X4861359Y11366742D01*
X3765343Y10270726D01*
X3765343Y10270726D01*
G37*
G36*
X4118897Y9917172D02*
X3906765Y10129304D01*
X5002781Y11225320D01*
X5214913Y11013188D01*
X4118897Y9917172D01*
X4118897Y9917172D01*
G37*
G36*
X4472450Y9563619D02*
X4260318Y9775751D01*
X5356334Y10871767D01*
X5568466Y10659635D01*
X4472450Y9563619D01*
X4472450Y9563619D01*
G37*
G36*
X4826004Y9210066D02*
X4613872Y9422198D01*
X5709888Y10518214D01*
X5922020Y10306082D01*
X4826004Y9210066D01*
X4826004Y9210066D01*
G37*
G36*
X5179557Y8856512D02*
X4967425Y9068644D01*
X6063441Y10164660D01*
X6275573Y9952528D01*
X5179557Y8856512D01*
X5179557Y8856512D01*
G37*
G36*
X5533110Y8502959D02*
X5320978Y8715091D01*
X6416994Y9811107D01*
X6629126Y9598975D01*
X5533110Y8502959D01*
X5533110Y8502959D01*
G37*
G36*
X5886664Y8149405D02*
X5674532Y8361537D01*
X6770548Y9457553D01*
X6982680Y9245421D01*
X5886664Y8149405D01*
X5886664Y8149405D01*
G37*
G36*
X6240217Y7795852D02*
X6028085Y8007984D01*
X7124101Y9104000D01*
X7336233Y8891868D01*
X6240217Y7795852D01*
X6240217Y7795852D01*
G37*
G36*
X6593770Y7442299D02*
X6381638Y7654431D01*
X7477654Y8750447D01*
X7689786Y8538315D01*
X6593770Y7442299D01*
X6593770Y7442299D01*
G37*
G36*
X6947324Y7088745D02*
X6735192Y7300877D01*
X7831208Y8396893D01*
X8043340Y8184761D01*
X6947324Y7088745D01*
X6947324Y7088745D01*
G37*
G36*
X7300877Y6735192D02*
X7088745Y6947324D01*
X8184761Y8043340D01*
X8396893Y7831208D01*
X7300877Y6735192D01*
X7300877Y6735192D01*
G37*
G36*
X7654431Y6381638D02*
X7442299Y6593770D01*
X8538315Y7689786D01*
X8750447Y7477654D01*
X7654431Y6381638D01*
X7654431Y6381638D01*
G37*
G36*
X8007984Y6028085D02*
X7795852Y6240217D01*
X8891868Y7336233D01*
X9104000Y7124101D01*
X8007984Y6028085D01*
X8007984Y6028085D01*
G37*
G36*
X8361537Y5674532D02*
X8149405Y5886664D01*
X9245421Y6982680D01*
X9457553Y6770548D01*
X8361537Y5674532D01*
X8361537Y5674532D01*
G37*
G36*
X8715091Y5320978D02*
X8502959Y5533110D01*
X9598975Y6629126D01*
X9811107Y6416994D01*
X8715091Y5320978D01*
X8715091Y5320978D01*
G37*
G36*
X9068644Y4967425D02*
X8856512Y5179557D01*
X9952528Y6275573D01*
X10164660Y6063441D01*
X9068644Y4967425D01*
X9068644Y4967425D01*
G37*
G36*
X9422198Y4613872D02*
X9210066Y4826004D01*
X10306082Y5922020D01*
X10518214Y5709888D01*
X9422198Y4613872D01*
X9422198Y4613872D01*
G37*
G36*
X9775751Y4260318D02*
X9563619Y4472450D01*
X10659635Y5568466D01*
X10871767Y5356334D01*
X9775751Y4260318D01*
X9775751Y4260318D01*
G37*
G36*
X10129304Y3906765D02*
X9917172Y4118897D01*
X11013188Y5214913D01*
X11225320Y5002781D01*
X10129304Y3906765D01*
X10129304Y3906765D01*
G37*
G36*
X10482858Y3553211D02*
X10270726Y3765343D01*
X11366742Y4861359D01*
X11578874Y4649227D01*
X10482858Y3553211D01*
X10482858Y3553211D01*
G37*
G36*
X10836411Y3199658D02*
X10624279Y3411790D01*
X11720295Y4507806D01*
X11932427Y4295674D01*
X10836411Y3199658D01*
X10836411Y3199658D01*
G37*
G36*
X11189965Y2846105D02*
X10977833Y3058237D01*
X12073849Y4154253D01*
X12285981Y3942121D01*
X11189965Y2846105D01*
X11189965Y2846105D01*
G37*
G36*
X11543518Y2492551D02*
X11331386Y2704683D01*
X12427402Y3800699D01*
X12639534Y3588567D01*
X11543518Y2492551D01*
X11543518Y2492551D01*
G37*
G36*
X11897071Y2138998D02*
X11684939Y2351130D01*
X12780955Y3447146D01*
X12993087Y3235014D01*
X11897071Y2138998D01*
X11897071Y2138998D01*
G37*
G36*
X12250625Y1785444D02*
X12038493Y1997576D01*
X13134509Y3093592D01*
X13346641Y2881460D01*
X12250625Y1785444D01*
X12250625Y1785444D01*
G37*
G36*
X12604178Y1431891D02*
X12392046Y1644023D01*
X13488062Y2740039D01*
X13700194Y2527907D01*
X12604178Y1431891D01*
X12604178Y1431891D01*
G37*
G36*
X12957732Y1078338D02*
X12745600Y1290470D01*
X13841616Y2386486D01*
X14053748Y2174354D01*
X12957732Y1078338D01*
X12957732Y1078338D01*
G37*
G36*
X13311285Y724784D02*
X13099153Y936916D01*
X14195169Y2032932D01*
X14407301Y1820800D01*
X13311285Y724784D01*
X13311285Y724784D01*
G37*
G36*
X23683598Y-16973155D02*
X23259334Y-17397419D01*
X22198674Y-16336759D01*
X22622938Y-15912495D01*
X23683598Y-16973155D01*
X23683598Y-16973155D01*
G37*
G36*
X22785573Y-17871181D02*
X22361309Y-18295445D01*
X21300649Y-17234785D01*
X21724913Y-16810521D01*
X22785573Y-17871181D01*
X22785573Y-17871181D01*
G37*
G36*
X21887547Y-18769206D02*
X21463283Y-19193470D01*
X20402623Y-18132810D01*
X20826887Y-17708546D01*
X21887547Y-18769206D01*
X21887547Y-18769206D01*
G37*
G36*
X20989521Y-19667232D02*
X20565257Y-20091496D01*
X19504597Y-19030836D01*
X19928861Y-18606572D01*
X20989521Y-19667232D01*
X20989521Y-19667232D01*
G37*
G36*
X20091496Y-20565257D02*
X19667232Y-20989521D01*
X18606572Y-19928861D01*
X19030836Y-19504597D01*
X20091496Y-20565257D01*
X20091496Y-20565257D01*
G37*
G36*
X19193470Y-21463283D02*
X18769206Y-21887547D01*
X17708546Y-20826887D01*
X18132810Y-20402623D01*
X19193470Y-21463283D01*
X19193470Y-21463283D01*
G37*
G36*
X18295445Y-22361309D02*
X17871181Y-22785573D01*
X16810521Y-21724913D01*
X17234785Y-21300649D01*
X18295445Y-22361309D01*
X18295445Y-22361309D01*
G37*
G36*
X17397419Y-23259334D02*
X16973155Y-23683598D01*
X15912495Y-22622938D01*
X16336759Y-22198674D01*
X17397419Y-23259334D01*
X17397419Y-23259334D01*
G37*
G36*
X10821326Y-16683241D02*
X10397062Y-17107505D01*
X9336402Y-16046845D01*
X9760666Y-15622581D01*
X10821326Y-16683241D01*
X10821326Y-16683241D01*
G37*
G36*
X11719351Y-15785215D02*
X11295087Y-16209479D01*
X10234427Y-15148819D01*
X10658691Y-14724555D01*
X11719351Y-15785215D01*
X11719351Y-15785215D01*
G37*
G36*
X12617377Y-14887190D02*
X12193113Y-15311454D01*
X11132453Y-14250794D01*
X11556717Y-13826530D01*
X12617377Y-14887190D01*
X12617377Y-14887190D01*
G37*
G36*
X13515403Y-13989164D02*
X13091139Y-14413428D01*
X12030479Y-13352768D01*
X12454743Y-12928504D01*
X13515403Y-13989164D01*
X13515403Y-13989164D01*
G37*
G36*
X14413428Y-13091139D02*
X13989164Y-13515403D01*
X12928504Y-12454743D01*
X13352768Y-12030479D01*
X14413428Y-13091139D01*
X14413428Y-13091139D01*
G37*
G36*
X15311454Y-12193113D02*
X14887190Y-12617377D01*
X13826530Y-11556717D01*
X14250794Y-11132453D01*
X15311454Y-12193113D01*
X15311454Y-12193113D01*
G37*
G36*
X16209479Y-11295087D02*
X15785215Y-11719351D01*
X14724555Y-10658691D01*
X15148819Y-10234427D01*
X16209479Y-11295087D01*
X16209479Y-11295087D01*
G37*
G36*
X17107505Y-10397062D02*
X16683241Y-10821326D01*
X15622581Y-9760666D01*
X16046845Y-9336402D01*
X17107505Y-10397062D01*
X17107505Y-10397062D01*
G37*
D13*
X11430000Y-28575000D03*
D14*
X11430000Y-31115000D03*
X8890000Y-28575000D03*
X8890000Y-31115000D03*
X6350000Y-28575000D03*
X6350000Y-31115000D03*
X3810000Y-28575000D03*
X3810000Y-31115000D03*
X1270000Y-28575000D03*
X1270000Y-31115000D03*
X-1270000Y-28575000D03*
X-1270000Y-31115000D03*
X-3810000Y-28575000D03*
X-3810000Y-31115000D03*
X-6350000Y-28575000D03*
X-6350000Y-31115000D03*
X-8890000Y-28575000D03*
X-8890000Y-31115000D03*
X-11430000Y-28575000D03*
X-11430000Y-31115000D03*
D13*
X-28575000Y-11430000D03*
D14*
X-31115000Y-11430000D03*
X-28575000Y-8890000D03*
X-31115000Y-8890000D03*
X-28575000Y-6350000D03*
X-31115000Y-6350000D03*
X-28575000Y-3810000D03*
X-31115000Y-3810000D03*
X-28575000Y-1270000D03*
X-31115000Y-1270000D03*
X-28575000Y1270000D03*
X-31115000Y1270000D03*
X-28575000Y3810000D03*
X-31115000Y3810000D03*
X-28575000Y6350000D03*
X-31115000Y6350000D03*
X-28575000Y8890000D03*
X-31115000Y8890000D03*
X-28575000Y11430000D03*
X-31115000Y11430000D03*
D13*
X-11430000Y28575000D03*
D14*
X-11430000Y31115000D03*
X-8890000Y28575000D03*
X-8890000Y31115000D03*
X-6350000Y28575000D03*
X-6350000Y31115000D03*
X-3810000Y28575000D03*
X-3810000Y31115000D03*
X-1270000Y28575000D03*
X-1270000Y31115000D03*
X1270000Y28575000D03*
X1270000Y31115000D03*
X3810000Y28575000D03*
X3810000Y31115000D03*
X6350000Y28575000D03*
X6350000Y31115000D03*
X8890000Y28575000D03*
X8890000Y31115000D03*
X11430000Y28575000D03*
X11430000Y31115000D03*
D13*
X28575000Y11430000D03*
D14*
X31115000Y11430000D03*
X28575000Y8890000D03*
X31115000Y8890000D03*
X28575000Y6350000D03*
X31115000Y6350000D03*
X28575000Y3810000D03*
X31115000Y3810000D03*
X28575000Y1270000D03*
X31115000Y1270000D03*
X28575000Y-1270000D03*
X31115000Y-1270000D03*
X28575000Y-3810000D03*
X31115000Y-3810000D03*
X28575000Y-6350000D03*
X31115000Y-6350000D03*
X28575000Y-8890000D03*
X31115000Y-8890000D03*
X28575000Y-11430000D03*
X31115000Y-11430000D03*
D15*
X2700000Y-15875000D03*
X2700000Y-17145000D03*
X2700000Y-18415000D03*
X2700000Y-19685000D03*
X-2700000Y-19685000D03*
X-2700000Y-18415000D03*
X-2700000Y-17145000D03*
X-2700000Y-15875000D03*
D16*
X9210040Y-26050240D03*
X9210040Y-25400000D03*
X9210040Y-24749760D03*
X11109960Y-24749760D03*
X11109960Y-25400000D03*
X11109960Y-26050240D03*
X4130040Y-26050240D03*
X4130040Y-25400000D03*
X4130040Y-24749760D03*
X6029960Y-24749760D03*
X6029960Y-25400000D03*
X6029960Y-26050240D03*
X-949960Y-26050240D03*
X-949960Y-25400000D03*
X-949960Y-24749760D03*
X949960Y-24749760D03*
X949960Y-25400000D03*
X949960Y-26050240D03*
D17*
X-15875000Y-2700000D03*
X-17145000Y-2700000D03*
X-18415000Y-2700000D03*
X-19685000Y-2700000D03*
X-19685000Y2700000D03*
X-18415000Y2700000D03*
X-17145000Y2700000D03*
X-15875000Y2700000D03*
D18*
X-26050240Y-9210040D03*
X-25400000Y-9210040D03*
X-24749760Y-9210040D03*
X-24749760Y-11109960D03*
X-25400000Y-11109960D03*
X-26050240Y-11109960D03*
X-26050240Y-4130040D03*
X-25400000Y-4130040D03*
X-24749760Y-4130040D03*
X-24749760Y-6029960D03*
X-25400000Y-6029960D03*
X-26050240Y-6029960D03*
X-26050240Y949960D03*
X-25400000Y949960D03*
X-24749760Y949960D03*
X-24749760Y-949960D03*
X-25400000Y-949960D03*
X-26050240Y-949960D03*
X-26050240Y6029960D03*
X-25400000Y6029960D03*
X-24749760Y6029960D03*
X-24749760Y4130040D03*
X-25400000Y4130040D03*
X-26050240Y4130040D03*
D15*
X-2700000Y15875000D03*
X-2700000Y17145000D03*
X-2700000Y18415000D03*
X-2700000Y19685000D03*
X2700000Y19685000D03*
X2700000Y18415000D03*
X2700000Y17145000D03*
X2700000Y15875000D03*
D16*
X-9210040Y26050240D03*
X-9210040Y25400000D03*
X-9210040Y24749760D03*
X-11109960Y24749760D03*
X-11109960Y25400000D03*
X-11109960Y26050240D03*
X-4130040Y26050240D03*
X-4130040Y25400000D03*
X-4130040Y24749760D03*
X-6029960Y24749760D03*
X-6029960Y25400000D03*
X-6029960Y26050240D03*
X949960Y26050240D03*
X949960Y25400000D03*
X949960Y24749760D03*
X-949960Y24749760D03*
X-949960Y25400000D03*
X-949960Y26050240D03*
X6029960Y26050240D03*
X6029960Y25400000D03*
X6029960Y24749760D03*
X4130040Y24749760D03*
X4130040Y25400000D03*
X4130040Y26050240D03*
D17*
X15875000Y2700000D03*
X17145000Y2700000D03*
X18415000Y2700000D03*
X19685000Y2700000D03*
X19685000Y-2700000D03*
X18415000Y-2700000D03*
X17145000Y-2700000D03*
X15875000Y-2700000D03*
D18*
X26050240Y9210040D03*
X25400000Y9210040D03*
X24749760Y9210040D03*
X24749760Y11109960D03*
X25400000Y11109960D03*
X26050240Y11109960D03*
X26050240Y4130040D03*
X25400000Y4130040D03*
X24749760Y4130040D03*
X24749760Y6029960D03*
X25400000Y6029960D03*
X26050240Y6029960D03*
X26050240Y-949960D03*
X25400000Y-949960D03*
X24749760Y-949960D03*
X24749760Y949960D03*
X25400000Y949960D03*
X26050240Y949960D03*
X26050240Y-6029960D03*
X25400000Y-6029960D03*
X24749760Y-6029960D03*
X24749760Y-4130040D03*
X25400000Y-4130040D03*
X26050240Y-4130040D03*
D10*
G36*
X5822182Y11274264D02*
X6175736Y11627818D01*
X6600000Y11203554D01*
X6246446Y10850000D01*
X5822182Y11274264D01*
X5822182Y11274264D01*
G37*
G36*
X6600000Y10496446D02*
X6953554Y10850000D01*
X7377818Y10425736D01*
X7024264Y10072182D01*
X6600000Y10496446D01*
X6600000Y10496446D01*
G37*
G36*
X-13924264Y-6027818D02*
X-14277818Y-5674264D01*
X-13853554Y-5250000D01*
X-13500000Y-5603554D01*
X-13924264Y-6027818D01*
X-13924264Y-6027818D01*
G37*
G36*
X-13146446Y-5250000D02*
X-13500000Y-4896446D01*
X-13075736Y-4472182D01*
X-12722182Y-4825736D01*
X-13146446Y-5250000D01*
X-13146446Y-5250000D01*
G37*
G36*
X-15424264Y-4527818D02*
X-15777818Y-4174264D01*
X-15353554Y-3750000D01*
X-15000000Y-4103554D01*
X-15424264Y-4527818D01*
X-15424264Y-4527818D01*
G37*
G36*
X-14646446Y-3750000D02*
X-15000000Y-3396446D01*
X-14575736Y-2972182D01*
X-14222182Y-3325736D01*
X-14646446Y-3750000D01*
X-14646446Y-3750000D01*
G37*
D19*
X-4911000Y15113000D03*
X-6011000Y15113000D03*
D10*
G36*
X-9474264Y8422182D02*
X-9827818Y8775736D01*
X-9403554Y9200000D01*
X-9050000Y8846446D01*
X-9474264Y8422182D01*
X-9474264Y8422182D01*
G37*
G36*
X-8696446Y9200000D02*
X-9050000Y9553554D01*
X-8625736Y9977818D01*
X-8272182Y9624264D01*
X-8696446Y9200000D01*
X-8696446Y9200000D01*
G37*
G36*
X10203264Y-6969182D02*
X10556818Y-7322736D01*
X10132554Y-7747000D01*
X9779000Y-7393446D01*
X10203264Y-6969182D01*
X10203264Y-6969182D01*
G37*
G36*
X9425446Y-7747000D02*
X9779000Y-8100554D01*
X9354736Y-8524818D01*
X9001182Y-8171264D01*
X9425446Y-7747000D01*
X9425446Y-7747000D01*
G37*
G36*
X5224264Y-11872182D02*
X5577818Y-12225736D01*
X5153554Y-12650000D01*
X4800000Y-12296446D01*
X5224264Y-11872182D01*
X5224264Y-11872182D01*
G37*
G36*
X4446446Y-12650000D02*
X4800000Y-13003554D01*
X4375736Y-13427818D01*
X4022182Y-13074264D01*
X4446446Y-12650000D01*
X4446446Y-12650000D01*
G37*
G36*
X14140264Y5095818D02*
X14493818Y4742264D01*
X14069554Y4318000D01*
X13716000Y4671554D01*
X14140264Y5095818D01*
X14140264Y5095818D01*
G37*
G36*
X13362446Y4318000D02*
X13716000Y3964446D01*
X13291736Y3540182D01*
X12938182Y3893736D01*
X13362446Y4318000D01*
X13362446Y4318000D01*
G37*
G36*
X-2270182Y-14902264D02*
X-2623736Y-15255818D01*
X-3048000Y-14831554D01*
X-2694446Y-14478000D01*
X-2270182Y-14902264D01*
X-2270182Y-14902264D01*
G37*
G36*
X-3048000Y-14124446D02*
X-3401554Y-14478000D01*
X-3825818Y-14053736D01*
X-3472264Y-13700182D01*
X-3048000Y-14124446D01*
X-3048000Y-14124446D01*
G37*
G36*
X11092264Y8143818D02*
X11445818Y7790264D01*
X11021554Y7366000D01*
X10668000Y7719554D01*
X11092264Y8143818D01*
X11092264Y8143818D01*
G37*
G36*
X10314446Y7366000D02*
X10668000Y7012446D01*
X10243736Y6588182D01*
X9890182Y6941736D01*
X10314446Y7366000D01*
X10314446Y7366000D01*
G37*
G36*
X-7350182Y-10457264D02*
X-7703736Y-10810818D01*
X-8128000Y-10386554D01*
X-7774446Y-10033000D01*
X-7350182Y-10457264D01*
X-7350182Y-10457264D01*
G37*
G36*
X-8128000Y-9679446D02*
X-8481554Y-10033000D01*
X-8905818Y-9608736D01*
X-8552264Y-9255182D01*
X-8128000Y-9679446D01*
X-8128000Y-9679446D01*
G37*
G36*
X-16893977Y-23980855D02*
X-16434358Y-24440474D01*
X-17183891Y-25190007D01*
X-17643510Y-24730388D01*
X-16893977Y-23980855D01*
X-16893977Y-23980855D01*
G37*
G36*
X-16222226Y-24652607D02*
X-15762607Y-25112226D01*
X-16512140Y-25861759D01*
X-16971759Y-25402140D01*
X-16222226Y-24652607D01*
X-16222226Y-24652607D01*
G37*
G36*
X-15550474Y-25324358D02*
X-15090855Y-25783977D01*
X-15840388Y-26533510D01*
X-16300007Y-26073891D01*
X-15550474Y-25324358D01*
X-15550474Y-25324358D01*
G37*
G36*
X-17106109Y-26879993D02*
X-16646490Y-27339612D01*
X-17396023Y-28089145D01*
X-17855642Y-27629526D01*
X-17106109Y-26879993D01*
X-17106109Y-26879993D01*
G37*
G36*
X-18449612Y-25536490D02*
X-17989993Y-25996109D01*
X-18739526Y-26745642D01*
X-19199145Y-26286023D01*
X-18449612Y-25536490D01*
X-18449612Y-25536490D01*
G37*
G36*
X-17777860Y-26208241D02*
X-17318241Y-26667860D01*
X-18067774Y-27417393D01*
X-18527393Y-26957774D01*
X-17777860Y-26208241D01*
X-17777860Y-26208241D01*
G37*
G36*
X-25189264Y17002182D02*
X-25542818Y17355736D01*
X-25118554Y17780000D01*
X-24765000Y17426446D01*
X-25189264Y17002182D01*
X-25189264Y17002182D01*
G37*
G36*
X-24411446Y17780000D02*
X-24765000Y18133554D01*
X-24340736Y18557818D01*
X-23987182Y18204264D01*
X-24411446Y17780000D01*
X-24411446Y17780000D01*
G37*
G36*
X24554264Y-17002182D02*
X24907818Y-17355736D01*
X24483554Y-17780000D01*
X24130000Y-17426446D01*
X24554264Y-17002182D01*
X24554264Y-17002182D01*
G37*
G36*
X23776446Y-17780000D02*
X24130000Y-18133554D01*
X23705736Y-18557818D01*
X23352182Y-18204264D01*
X23776446Y-17780000D01*
X23776446Y-17780000D01*
G37*
G36*
X-15283264Y8747182D02*
X-15636818Y9100736D01*
X-15212554Y9525000D01*
X-14859000Y9171446D01*
X-15283264Y8747182D01*
X-15283264Y8747182D01*
G37*
G36*
X-14505446Y9525000D02*
X-14859000Y9878554D01*
X-14434736Y10302818D01*
X-14081182Y9949264D01*
X-14505446Y9525000D01*
X-14505446Y9525000D01*
G37*
G36*
X15283264Y-8747182D02*
X15636818Y-9100736D01*
X15212554Y-9525000D01*
X14859000Y-9171446D01*
X15283264Y-8747182D01*
X15283264Y-8747182D01*
G37*
G36*
X14505446Y-9525000D02*
X14859000Y-9878554D01*
X14434736Y-10302818D01*
X14081182Y-9949264D01*
X14505446Y-9525000D01*
X14505446Y-9525000D01*
G37*
D16*
X-6029960Y-26050240D03*
X-6029960Y-25400000D03*
X-6029960Y-24749760D03*
X-4130040Y-24749760D03*
X-4130040Y-25400000D03*
X-4130040Y-26050240D03*
D10*
G36*
X-21171118Y-23293711D02*
X-21453960Y-23010869D01*
X-20499366Y-22056275D01*
X-20216524Y-22339117D01*
X-21171118Y-23293711D01*
X-21171118Y-23293711D01*
G37*
G36*
X-21630738Y-22834091D02*
X-21913580Y-22551249D01*
X-20958986Y-21596655D01*
X-20676144Y-21879497D01*
X-21630738Y-22834091D01*
X-21630738Y-22834091D01*
G37*
G36*
X-22090357Y-22374472D02*
X-22373199Y-22091630D01*
X-21418605Y-21137036D01*
X-21135763Y-21419878D01*
X-22090357Y-22374472D01*
X-22090357Y-22374472D01*
G37*
G36*
X-22549976Y-21914852D02*
X-22832818Y-21632010D01*
X-21878224Y-20677416D01*
X-21595382Y-20960258D01*
X-22549976Y-21914852D01*
X-22549976Y-21914852D01*
G37*
G36*
X-23009596Y-21455233D02*
X-23292438Y-21172391D01*
X-22337844Y-20217797D01*
X-22055002Y-20500639D01*
X-23009596Y-21455233D01*
X-23009596Y-21455233D01*
G37*
D20*
X-19986714Y-23523521D03*
X-23522248Y-19987987D03*
D21*
X-21188796Y-26139816D03*
X-26138543Y-21190068D03*
D10*
G36*
X-11424264Y5622182D02*
X-11777818Y5975736D01*
X-11353554Y6400000D01*
X-11000000Y6046446D01*
X-11424264Y5622182D01*
X-11424264Y5622182D01*
G37*
G36*
X-10646446Y6400000D02*
X-11000000Y6753554D01*
X-10575736Y7177818D01*
X-10222182Y6824264D01*
X-10646446Y6400000D01*
X-10646446Y6400000D01*
G37*
D19*
X5884000Y-15367000D03*
X4784000Y-15367000D03*
X5884000Y-16002000D03*
X4784000Y-16002000D03*
X5884000Y-13970000D03*
X4784000Y-13970000D03*
X5884000Y-14605000D03*
X4784000Y-14605000D03*
D22*
X-3822000Y14097000D03*
X-5322000Y14097000D03*
D10*
G36*
X-13675992Y-3366662D02*
X-13145662Y-3896992D01*
X-13711348Y-4462678D01*
X-14241678Y-3932348D01*
X-13675992Y-3366662D01*
X-13675992Y-3366662D01*
G37*
G36*
X-14736652Y-4427322D02*
X-14206322Y-4957652D01*
X-14772008Y-5523338D01*
X-15302338Y-4993008D01*
X-14736652Y-4427322D01*
X-14736652Y-4427322D01*
G37*
G36*
X-6287662Y-10327008D02*
X-6817992Y-10857338D01*
X-7383678Y-10291652D01*
X-6853348Y-9761322D01*
X-6287662Y-10327008D01*
X-6287662Y-10327008D01*
G37*
G36*
X-7348322Y-9266348D02*
X-7878652Y-9796678D01*
X-8444338Y-9230992D01*
X-7914008Y-8700662D01*
X-7348322Y-9266348D01*
X-7348322Y-9266348D01*
G37*
G36*
X-12994008Y-10730338D02*
X-13524338Y-10200008D01*
X-12958652Y-9634322D01*
X-12428322Y-10164652D01*
X-12994008Y-10730338D01*
X-12994008Y-10730338D01*
G37*
G36*
X-11933348Y-9669678D02*
X-12463678Y-9139348D01*
X-11897992Y-8573662D01*
X-11367662Y-9103992D01*
X-11933348Y-9669678D01*
X-11933348Y-9669678D01*
G37*
G36*
X-11216008Y-8952338D02*
X-11746338Y-8422008D01*
X-11180652Y-7856322D01*
X-10650322Y-8386652D01*
X-11216008Y-8952338D01*
X-11216008Y-8952338D01*
G37*
G36*
X-10155348Y-7891678D02*
X-10685678Y-7361348D01*
X-10119992Y-6795662D01*
X-9589662Y-7325992D01*
X-10155348Y-7891678D01*
X-10155348Y-7891678D01*
G37*
G36*
X-28785736Y-15732182D02*
X-28432182Y-16085736D01*
X-28856446Y-16510000D01*
X-29210000Y-16156446D01*
X-28785736Y-15732182D01*
X-28785736Y-15732182D01*
G37*
G36*
X-29563554Y-16510000D02*
X-29210000Y-16863554D01*
X-29634264Y-17287818D01*
X-29987818Y-16934264D01*
X-29563554Y-16510000D01*
X-29563554Y-16510000D01*
G37*
G36*
X-19874338Y-27391992D02*
X-19344008Y-26861662D01*
X-18778322Y-27427348D01*
X-19308652Y-27957678D01*
X-19874338Y-27391992D01*
X-19874338Y-27391992D01*
G37*
G36*
X-18813678Y-28452652D02*
X-18283348Y-27922322D01*
X-17717662Y-28488008D01*
X-18247992Y-29018338D01*
X-18813678Y-28452652D01*
X-18813678Y-28452652D01*
G37*
G36*
X-25542818Y-16085736D02*
X-25189264Y-15732182D01*
X-24765000Y-16156446D01*
X-25118554Y-16510000D01*
X-25542818Y-16085736D01*
X-25542818Y-16085736D01*
G37*
G36*
X-24765000Y-16863554D02*
X-24411446Y-16510000D01*
X-23987182Y-16934264D01*
X-24340736Y-17287818D01*
X-24765000Y-16863554D01*
X-24765000Y-16863554D01*
G37*
G36*
X-26921023Y-19834145D02*
X-27380642Y-19374526D01*
X-26631109Y-18624993D01*
X-26171490Y-19084612D01*
X-26921023Y-19834145D01*
X-26921023Y-19834145D01*
G37*
G36*
X-27592774Y-19162393D02*
X-28052393Y-18702774D01*
X-27302860Y-17953241D01*
X-26843241Y-18412860D01*
X-27592774Y-19162393D01*
X-27592774Y-19162393D01*
G37*
G36*
X-28264526Y-18490642D02*
X-28724145Y-18031023D01*
X-27974612Y-17281490D01*
X-27514993Y-17741109D01*
X-28264526Y-18490642D01*
X-28264526Y-18490642D01*
G37*
G36*
X-26708891Y-16935007D02*
X-27168510Y-16475388D01*
X-26418977Y-15725855D01*
X-25959358Y-16185474D01*
X-26708891Y-16935007D01*
X-26708891Y-16935007D01*
G37*
G36*
X-25365388Y-18278510D02*
X-25825007Y-17818891D01*
X-25075474Y-17069358D01*
X-24615855Y-17528977D01*
X-25365388Y-18278510D01*
X-25365388Y-18278510D01*
G37*
G36*
X-25290000Y20478685D02*
X-26511315Y21700000D01*
X-25290000Y22921315D01*
X-24068685Y21700000D01*
X-25290000Y20478685D01*
X-25290000Y20478685D01*
G37*
D12*
X-23493949Y19903949D02*
X-23493949Y19903949D01*
X-23493949Y23496051D02*
X-23493949Y23496051D01*
X-21697898Y21700000D02*
X-21697898Y21700000D01*
X-21697898Y25292102D02*
X-21697898Y25292102D01*
X-19901846Y23496051D02*
X-19901846Y23496051D01*
D10*
G36*
X25290000Y-20478685D02*
X26511315Y-21700000D01*
X25290000Y-22921315D01*
X24068685Y-21700000D01*
X25290000Y-20478685D01*
X25290000Y-20478685D01*
G37*
D12*
X23493949Y-19903949D02*
X23493949Y-19903949D01*
X23493949Y-23496051D02*
X23493949Y-23496051D01*
X21697898Y-21700000D02*
X21697898Y-21700000D01*
X21697898Y-25292102D02*
X21697898Y-25292102D01*
X19901846Y-23496051D02*
X19901846Y-23496051D01*
D11*
X-17780000Y28575000D03*
X28575000Y-17780000D03*
X17780000Y-28575000D03*
D10*
G36*
X-14462182Y-29634264D02*
X-14815736Y-29987818D01*
X-15240000Y-29563554D01*
X-14886446Y-29210000D01*
X-14462182Y-29634264D01*
X-14462182Y-29634264D01*
G37*
G36*
X-15240000Y-28856446D02*
X-15593554Y-29210000D01*
X-16017818Y-28785736D01*
X-15664264Y-28432182D01*
X-15240000Y-28856446D01*
X-15240000Y-28856446D01*
G37*
G36*
X31151751Y13976513D02*
X30727487Y13552249D01*
X30444645Y13835091D01*
X30868909Y14259355D01*
X31151751Y13976513D01*
X31151751Y13976513D01*
G37*
G36*
X30515355Y14612909D02*
X30091091Y14188645D01*
X29808249Y14471487D01*
X30232513Y14895751D01*
X30515355Y14612909D01*
X30515355Y14612909D01*
G37*
G36*
X-5975513Y-10631249D02*
X-5551249Y-11055513D01*
X-5834091Y-11338355D01*
X-6258355Y-10914091D01*
X-5975513Y-10631249D01*
X-5975513Y-10631249D01*
G37*
G36*
X-6611909Y-11267645D02*
X-6187645Y-11691909D01*
X-6470487Y-11974751D01*
X-6894751Y-11550487D01*
X-6611909Y-11267645D01*
X-6611909Y-11267645D01*
G37*
G36*
X-13976513Y-27522249D02*
X-13552249Y-27946513D01*
X-13835091Y-28229355D01*
X-14259355Y-27805091D01*
X-13976513Y-27522249D01*
X-13976513Y-27522249D01*
G37*
G36*
X-14612909Y-28158645D02*
X-14188645Y-28582909D01*
X-14471487Y-28865751D01*
X-14895751Y-28441487D01*
X-14612909Y-28158645D01*
X-14612909Y-28158645D01*
G37*
G36*
X29946179Y16476739D02*
X31148261Y17678821D01*
X31784657Y17042425D01*
X30582575Y15840343D01*
X29946179Y16476739D01*
X29946179Y16476739D01*
G37*
G36*
X32350343Y14072575D02*
X33552425Y15274657D01*
X34188821Y14638261D01*
X32986739Y13436179D01*
X32350343Y14072575D01*
X32350343Y14072575D01*
G37*
G36*
X-13436179Y-32986739D02*
X-14638261Y-34188821D01*
X-15274657Y-33552425D01*
X-14072575Y-32350343D01*
X-13436179Y-32986739D01*
X-13436179Y-32986739D01*
G37*
G36*
X-15840343Y-30582575D02*
X-17042425Y-31784657D01*
X-17678821Y-31148261D01*
X-16476739Y-29946179D01*
X-15840343Y-30582575D01*
X-15840343Y-30582575D01*
G37*
D23*
X-4318000Y18911000D03*
X-4318000Y17411000D03*
D24*
X-5334000Y18838000D03*
X-5334000Y17738000D03*
X4064000Y19981000D03*
X4064000Y18881000D03*
D25*
X4572000Y15764000D03*
X4572000Y17764000D03*
D22*
X-18911000Y-4318000D03*
X-17411000Y-4318000D03*
D19*
X-18711000Y-5334000D03*
X-17611000Y-5334000D03*
X-19981000Y4064000D03*
X-18881000Y4064000D03*
D26*
X-15764000Y4572000D03*
X-17764000Y4572000D03*
D23*
X4318000Y-18911000D03*
X4318000Y-17411000D03*
D24*
X5334000Y-18584000D03*
X5334000Y-17484000D03*
X-4064000Y-19854000D03*
X-4064000Y-18754000D03*
D25*
X-4572000Y-15764000D03*
X-4572000Y-17764000D03*
D22*
X18784000Y4191000D03*
X17284000Y4191000D03*
D19*
X18584000Y5207000D03*
X17484000Y5207000D03*
X19981000Y-4064000D03*
X18881000Y-4064000D03*
D26*
X15764000Y-4445000D03*
X17764000Y-4445000D03*
D18*
X-26050240Y11109960D03*
X-25400000Y11109960D03*
X-24749760Y11109960D03*
X-24749760Y9210040D03*
X-25400000Y9210040D03*
X-26050240Y9210040D03*
X26050240Y-11109960D03*
X25400000Y-11109960D03*
X24749760Y-11109960D03*
X24749760Y-9210040D03*
X25400000Y-9210040D03*
X26050240Y-9210040D03*
D16*
X11109960Y26050240D03*
X11109960Y25400000D03*
X11109960Y24749760D03*
X9210040Y24749760D03*
X9210040Y25400000D03*
X9210040Y26050240D03*
X-11109960Y-26050240D03*
X-11109960Y-25400000D03*
X-11109960Y-24749760D03*
X-9210040Y-24749760D03*
X-9210040Y-25400000D03*
X-9210040Y-26050240D03*
D10*
G36*
X20530736Y21066182D02*
X20177182Y21419736D01*
X20601446Y21844000D01*
X20955000Y21490446D01*
X20530736Y21066182D01*
X20530736Y21066182D01*
G37*
G36*
X21308554Y21844000D02*
X20955000Y22197554D01*
X21379264Y22621818D01*
X21732818Y22268264D01*
X21308554Y21844000D01*
X21308554Y21844000D01*
G37*
G36*
X21419736Y20177182D02*
X21066182Y20530736D01*
X21490446Y20955000D01*
X21844000Y20601446D01*
X21419736Y20177182D01*
X21419736Y20177182D01*
G37*
G36*
X22197554Y20955000D02*
X21844000Y21308554D01*
X22268264Y21732818D01*
X22621818Y21379264D01*
X22197554Y20955000D01*
X22197554Y20955000D01*
G37*
G36*
X18058655Y20038553D02*
X18270787Y20250685D01*
X18659695Y19861777D01*
X18447563Y19649645D01*
X18058655Y20038553D01*
X18058655Y20038553D01*
G37*
G36*
X19649645Y18447563D02*
X19861777Y18659695D01*
X20250685Y18270787D01*
X20038553Y18058655D01*
X19649645Y18447563D01*
X19649645Y18447563D01*
G37*
G36*
X18412208Y20392106D02*
X18624340Y20604238D01*
X19013248Y20215330D01*
X18801116Y20003198D01*
X18412208Y20392106D01*
X18412208Y20392106D01*
G37*
G36*
X20003198Y18801116D02*
X20215330Y19013248D01*
X20604238Y18624340D01*
X20392106Y18412208D01*
X20003198Y18801116D01*
X20003198Y18801116D01*
G37*
G36*
X18765762Y20745660D02*
X18977894Y20957792D01*
X19366802Y20568884D01*
X19154670Y20356752D01*
X18765762Y20745660D01*
X18765762Y20745660D01*
G37*
G36*
X20356752Y19154670D02*
X20568884Y19366802D01*
X20957792Y18977894D01*
X20745660Y18765762D01*
X20356752Y19154670D01*
X20356752Y19154670D01*
G37*
G36*
X19119315Y21099213D02*
X19331447Y21311345D01*
X19720355Y20922437D01*
X19508223Y20710305D01*
X19119315Y21099213D01*
X19119315Y21099213D01*
G37*
G36*
X20710305Y19508223D02*
X20922437Y19720355D01*
X21311345Y19331447D01*
X21099213Y19119315D01*
X20710305Y19508223D01*
X20710305Y19508223D01*
G37*
G36*
X18412208Y19331447D02*
X18801116Y19720355D01*
X19013248Y19508223D01*
X18624340Y19119315D01*
X18412208Y19331447D01*
X18412208Y19331447D01*
G37*
G36*
X18765762Y18977894D02*
X19154670Y19366802D01*
X19366802Y19154670D01*
X18977894Y18765762D01*
X18765762Y18977894D01*
X18765762Y18977894D01*
G37*
G36*
X19119315Y18624340D02*
X19508223Y19013248D01*
X19720355Y18801116D01*
X19331447Y18412208D01*
X19119315Y18624340D01*
X19119315Y18624340D01*
G37*
G36*
X19649645Y20568884D02*
X20038553Y20957792D01*
X20250685Y20745660D01*
X19861777Y20356752D01*
X19649645Y20568884D01*
X19649645Y20568884D01*
G37*
G36*
X20003198Y20215330D02*
X20392106Y20604238D01*
X20604238Y20392106D01*
X20215330Y20003198D01*
X20003198Y20215330D01*
X20003198Y20215330D01*
G37*
G36*
X20356752Y19861777D02*
X20745660Y20250685D01*
X20957792Y20038553D01*
X20568884Y19649645D01*
X20356752Y19861777D01*
X20356752Y19861777D01*
G37*
G36*
X-12019872Y-14565456D02*
X-13151243Y-13434085D01*
X-11949162Y-12232004D01*
X-10817791Y-13363375D01*
X-12019872Y-14565456D01*
X-12019872Y-14565456D01*
G37*
G36*
X-10605658Y-15979670D02*
X-11737029Y-14848299D01*
X-10534948Y-13646218D01*
X-9403577Y-14777589D01*
X-10605658Y-15979670D01*
X-10605658Y-15979670D01*
G37*
G36*
X-13434085Y-13151243D02*
X-14565456Y-12019872D01*
X-13363375Y-10817791D01*
X-12232004Y-11949162D01*
X-13434085Y-13151243D01*
X-13434085Y-13151243D01*
G37*
G36*
X-14848299Y-11737029D02*
X-15979670Y-10605658D01*
X-14777589Y-9403577D01*
X-13646218Y-10534948D01*
X-14848299Y-11737029D01*
X-14848299Y-11737029D01*
G37*
G36*
X-22485052Y-19373782D02*
X-23616423Y-18242411D01*
X-22414342Y-17040330D01*
X-21282971Y-18171701D01*
X-22485052Y-19373782D01*
X-22485052Y-19373782D01*
G37*
G36*
X-21070838Y-20787996D02*
X-22202209Y-19656625D01*
X-21000128Y-18454544D01*
X-19868757Y-19585915D01*
X-21070838Y-20787996D01*
X-21070838Y-20787996D01*
G37*
G36*
X-18242411Y-23616423D02*
X-19373782Y-22485052D01*
X-18171701Y-21282971D01*
X-17040330Y-22414342D01*
X-18242411Y-23616423D01*
X-18242411Y-23616423D01*
G37*
G36*
X-19656625Y-22202209D02*
X-20787996Y-21070838D01*
X-19585915Y-19868757D01*
X-18454544Y-21000128D01*
X-19656625Y-22202209D01*
X-19656625Y-22202209D01*
G37*
G36*
X27940000Y17311841D02*
X29376841Y15875000D01*
X27940000Y14438159D01*
X26503159Y15875000D01*
X27940000Y17311841D01*
X27940000Y17311841D01*
G37*
D27*
X26143949Y14078949D02*
X26143949Y14078949D01*
D28*
X23950000Y22550000D03*
X20750000Y17050000D03*
X7030331Y-5969670D03*
X9750000Y10950000D03*
X-4750000Y-7750000D03*
X-600000Y-9550000D03*
X-10200000Y12950000D03*
X-9850000Y7450000D03*
X3900000Y-9450000D03*
X11700000Y5500000D03*
X-11550000Y-5450000D03*
X-16750000Y11750000D03*
X8750000Y-16950000D03*
X17400000Y-8800000D03*
X-8600000Y-16950000D03*
X16350000Y6050000D03*
X8900000Y16950000D03*
X-16950000Y8750000D03*
X-16250000Y-5950000D03*
X20500000Y3800000D03*
X-20500000Y-3800000D03*
X-3800000Y20500000D03*
X3850000Y-20500000D03*
X-2050000Y-21150000D03*
X-21100000Y2050000D03*
X-6100000Y16500000D03*
X2100000Y21050000D03*
X21050000Y-2100000D03*
X-11100000Y-7050000D03*
X4050000Y-2150000D03*
X-5400000Y-7100000D03*
X4700000Y-2750000D03*
X3400000Y-5200000D03*
X3950000Y-6100000D03*
X-9500000Y2450000D03*
X-9150000Y3950000D03*
X-8100000Y4800000D03*
X5700000Y23750000D03*
X6250000Y23150000D03*
X5950000Y3500000D03*
X9500000Y-3200000D03*
X7900000Y3650000D03*
X8450000Y2950000D03*
X9250000Y2450000D03*
X8750000Y-4300000D03*
X7750000Y-5200000D03*
X-3250000Y-9400000D03*
X-3250000Y-7500000D03*
X-3050000Y-2150000D03*
X1050000Y21000000D03*
X21000000Y-1050000D03*
X-21050000Y1100000D03*
X-1100000Y-21050000D03*
X50000Y-5150000D03*
X5250000Y-50000D03*
X50000Y5250000D03*
X-5000000Y-500000D03*
X16900000Y20850000D03*
X10650000Y-6350000D03*
X16600000Y-8800000D03*
X-9000000Y-16050000D03*
X-9550000Y12400000D03*
X-10750000Y10650000D03*
X13200000Y18200000D03*
X8400000Y9450000D03*
X23800000Y100000D03*
X100000Y-23800000D03*
X-23800000Y-100000D03*
X-16050000Y8750000D03*
X8900000Y16050000D03*
X-50000Y23800000D03*
X1950000Y24600000D03*
X24650000Y-1850000D03*
X11150000Y22150000D03*
X21150000Y-11100000D03*
X8800000Y-16050000D03*
X-8750000Y-18050000D03*
X-1900000Y-24650000D03*
X-12100000Y-18700000D03*
X-21150000Y11100000D03*
X-8750000Y16050000D03*
X16050000Y8900000D03*
X19700000Y4650000D03*
X-16050000Y-8750000D03*
X-11450000Y-9850000D03*
X-24000000Y2550000D03*
X-19850000Y-4500000D03*
X-23150000Y9650000D03*
X-24000000Y-9150000D03*
X-24000000Y-4100000D03*
X9700000Y23200000D03*
X-9150000Y24000000D03*
X-4150000Y24000000D03*
X-4500000Y19850000D03*
X24000000Y9150000D03*
X24000000Y4150000D03*
X23150000Y-9600000D03*
X-9650000Y-23300000D03*
X9200000Y-24000000D03*
X4150000Y-24000000D03*
X4500000Y-19850000D03*
X-10950000Y7800000D03*
X-8250000Y-11000000D03*
X11350000Y6500000D03*
X2400000Y8900000D03*
X-6050000Y-24000000D03*
X24000000Y-6100000D03*
X7000000Y23550000D03*
X-24000000Y6000000D03*
X-11650000Y-6250000D03*
X-9600000Y-8200000D03*
X5850000Y-11150000D03*
X-8800000Y8200000D03*
X5000000Y1500000D03*
X1350000Y4550000D03*
X-1500000Y5000000D03*
X-4950000Y-1450000D03*
X1450000Y-5250000D03*
X-15000000Y-13600000D03*
X-13600000Y-15000000D03*
X-9200000Y-13800000D03*
X-4000000Y-3400000D03*
X-4750000Y-3300000D03*
X-5550000Y-3650000D03*
X-6350000Y-3850000D03*
X1800000Y9550000D03*
X-4150000Y4600000D03*
X-4150000Y5500000D03*
X-4150000Y6350000D03*
X-4400000Y7150000D03*
X3700000Y8600000D03*
X5000000Y8300000D03*
X-22900000Y-8050000D03*
X-22000000Y-8050000D03*
X-21350000Y-6750000D03*
X-21350000Y-7550000D03*
X-14150000Y-7700000D03*
X-13350000Y-7900000D03*
X-13200000Y-6600000D03*
X-12400000Y-6700000D03*
X-1350000Y-4700000D03*
X2650000Y1150000D03*
X0Y0D03*
X-5750000Y2100000D03*
X-11750000Y7400000D03*
X-12550000Y7300000D03*
X-13350000Y7150000D03*
X-14150000Y7000000D03*
X-23150000Y4900000D03*
X-22350000Y4850000D03*
X-21550000Y4700000D03*
X-20700000Y4700000D03*
X-20800000Y-350000D03*
X-23950000Y-1000000D03*
X-8050000Y22900000D03*
X-8050000Y22000000D03*
X-6750000Y21350000D03*
X-7600000Y21300000D03*
X-8150000Y19950000D03*
X-8350000Y20750000D03*
X-9750000Y18650000D03*
X-10400000Y19150000D03*
X7450000Y11750000D03*
X7300000Y12550000D03*
X7150000Y13350000D03*
X7000000Y14150000D03*
X4850000Y23650000D03*
X4850000Y22750000D03*
X4700000Y21950000D03*
X4700000Y21050000D03*
X-1000000Y23950000D03*
X-400000Y20700000D03*
X22900000Y8050000D03*
X22000000Y8050000D03*
X21350000Y6750000D03*
X21350000Y7550000D03*
X14150000Y7800000D03*
X13350000Y8000000D03*
X13200000Y6700000D03*
X12450000Y7150000D03*
X11750000Y-7450000D03*
X12550000Y-7300000D03*
X13350000Y-7150000D03*
X14150000Y-7000000D03*
X23350000Y-4900000D03*
X22450000Y-4900000D03*
X21650000Y-4700000D03*
X20700000Y-4700000D03*
X24000000Y950000D03*
X20750000Y400000D03*
X8100000Y-22850000D03*
X8100000Y-21950000D03*
X6800000Y-21300000D03*
X7600000Y-21300000D03*
X7750000Y-14150000D03*
X7950000Y-13350000D03*
X6650000Y-13200000D03*
X6850000Y-12400000D03*
X-7450000Y-11750000D03*
X-7300000Y-12550000D03*
X-7150000Y-13350000D03*
X-7000000Y-14150000D03*
X-4900000Y-23250000D03*
X-4850000Y-22350000D03*
X-4700000Y-21550000D03*
X-4700000Y-20650000D03*
X1000000Y-23950000D03*
X350000Y-20800000D03*
X-12450000Y9000000D03*
X-20400000Y1600000D03*
X-12450000Y-7700000D03*
X9200000Y13150000D03*
X-7500000Y14100000D03*
X1600000Y20400000D03*
X-14450000Y14450000D03*
X-14300000Y-14300000D03*
X-13100000Y-9200000D03*
X-9100000Y-12450000D03*
X20400000Y-1600000D03*
X12400000Y-9000000D03*
X12500000Y8000000D03*
X-1600000Y-20400000D03*
X7950000Y-12450000D03*
X-8500000Y-11900000D03*
X-21300000Y-24100000D03*
X-27550000Y-20350000D03*
X-23500000Y17850000D03*
X-17050000Y-11350000D03*
X-11300000Y-17000000D03*
X-23250000Y-23250000D03*
X-22300000Y-23200000D03*
X-16600000Y-20500000D03*
X-18750000Y22050000D03*
X-21800000Y-14000000D03*
X-18250000Y23150000D03*
X7050000Y5250000D03*
X16200000Y10350000D03*
X3950000Y4150000D03*
X3350000Y4750000D03*
X4700000Y5250000D03*
X5250000Y5900000D03*
X4750000Y6550000D03*
X15450000Y16000000D03*
X18000000Y13450000D03*
X14750000Y10750000D03*
X4600000Y3550000D03*
X-24250000Y-22450000D03*
X-19950000Y-28500000D03*
X-18450000Y25350000D03*
X-21250000Y16850000D03*
X-22650000Y-16400000D03*
X-23750000Y-17500000D03*
X-15650000Y-19610101D03*
X10000000Y-12500000D03*
X-23100000Y-14650000D03*
X8700000Y-11350000D03*
X24700000Y17100000D03*
X7850000Y5400000D03*
X27850000Y0D03*
X-27850000Y0D03*
X0Y27850000D03*
X7450000Y-3100000D03*
X7000000Y-4000000D03*
D29*
X16300000Y9700000D02*
X16500000Y9700000D01*
X23950000Y17150000D02*
X23950000Y22550000D01*
X16500000Y9700000D02*
X23950000Y17150000D01*
X23950000Y22550000D02*
X17562102Y28937898D01*
X17562102Y28937898D02*
X17562102Y29627102D01*
X3151903Y-7748097D02*
X2800000Y-7396194D01*
X2800000Y-900000D02*
X2900000Y-800000D01*
X2800000Y-7396194D02*
X2800000Y-900000D01*
X13900000Y5500000D02*
X13250000Y5500000D01*
X11850000Y6900000D02*
X11850000Y7250000D01*
X13250000Y5500000D02*
X11850000Y6900000D01*
X14850000Y3150000D02*
X14850000Y5000000D01*
X14350000Y5500000D02*
X13900000Y5500000D01*
X14850000Y5000000D02*
X14350000Y5500000D01*
X13450000Y350581D02*
X12699419Y350581D01*
X5600000Y1200000D02*
X5250000Y850000D01*
X11850000Y1200000D02*
X5600000Y1200000D01*
X12699419Y350581D02*
X11850000Y1200000D01*
X13599405Y350581D02*
X13450000Y350581D01*
X5250000Y850000D02*
X5100000Y850000D01*
X2900000Y-800000D02*
X4348621Y648693D01*
X5100000Y850000D02*
X4549928Y850000D01*
X4549928Y850000D02*
X4348621Y648693D01*
X14391164Y1158836D02*
X14850000Y1617672D01*
X14850000Y1617672D02*
X14850000Y3150000D01*
X12550000Y8950000D02*
X14600000Y8950000D01*
X11850000Y8250000D02*
X12400000Y8800000D01*
X12400000Y8800000D02*
X12550000Y8950000D01*
X11850000Y7250000D02*
X11850000Y8250000D01*
X14292236Y1059908D02*
X14391164Y1158836D01*
X13599405Y350581D02*
X14292236Y1059908D01*
X5267946Y-9864140D02*
X3151903Y-7748097D01*
X14600000Y8950000D02*
X15350000Y9700000D01*
X15350000Y9700000D02*
X16300000Y9700000D01*
X33269582Y14355418D02*
X31814164Y12900000D01*
X26822898Y13400000D02*
X26143949Y14078949D01*
X30100000Y13400000D02*
X26822898Y13400000D01*
X30600000Y12900000D02*
X30100000Y13400000D01*
X31814164Y12900000D02*
X30600000Y12900000D01*
X9935909Y-8135909D02*
X9390091Y-8135909D01*
D30*
X20750000Y17050000D02*
X21455091Y17755091D01*
X21455091Y17755091D02*
X21455091Y20566091D01*
D29*
X7380331Y-6319670D02*
X7030331Y-5969670D01*
X8096373Y-7035712D02*
X7380331Y-6319670D01*
X7030331Y-5969670D02*
X5850000Y-4789339D01*
X8000000Y-1650000D02*
X10488835Y-1650000D01*
X10488835Y-1650000D02*
X11985460Y-3146625D01*
X5850000Y-4789339D02*
X5850000Y-3800000D01*
X5850000Y-3800000D02*
X8000000Y-1650000D01*
X8111091Y10461091D02*
X8600000Y10950000D01*
X8600000Y10950000D02*
X9750000Y10950000D01*
X7900000Y10461091D02*
X8111091Y10461091D01*
D30*
X21455091Y20566091D02*
X20921182Y21100000D01*
X20921182Y21100000D02*
X20392893Y21100000D01*
X21450000Y20561000D02*
X21455091Y20566091D01*
D29*
X21010825Y19419835D02*
X21455091Y19864101D01*
X21455091Y19864101D02*
X21455091Y20566091D01*
X20566091Y21455091D02*
X21455091Y20566091D01*
X19950165Y20657272D02*
X20392893Y21100000D01*
X20392893Y21100000D02*
X20566091Y21273198D01*
X20566091Y21273198D02*
X20566091Y21455091D01*
X-5982233Y-7750000D02*
X-4750000Y-7750000D01*
X-6682159Y-8449926D02*
X-5982233Y-7750000D01*
X-2085965Y-13046120D02*
X-600000Y-11560155D01*
X-600000Y-11560155D02*
X-600000Y-9550000D01*
X7800000Y10461091D02*
X7900000Y10461091D01*
X-10025000Y13125000D02*
X-10200000Y12950000D01*
X-9150000Y13125000D02*
X-10025000Y13125000D01*
X-9150000Y13125000D02*
X-9775000Y13125000D01*
X-9775000Y13125000D02*
X-9800000Y13100000D01*
X-6975000Y13125000D02*
X-9150000Y13125000D01*
X-6050000Y14050000D02*
X-6975000Y13125000D01*
X-6050000Y14600000D02*
X-6050000Y14050000D01*
X-6011000Y14639000D02*
X-6050000Y14600000D01*
X-6682159Y-8449926D02*
X-7480903Y-9248670D01*
X-7480903Y-9248670D02*
X-7896330Y-9248670D01*
X-8516909Y-9644091D02*
X-8121488Y-9248670D01*
X-8121488Y-9248670D02*
X-7896330Y-9248670D01*
X-8121488Y-9248670D02*
X-7896330Y-9248670D01*
X3500179Y-11631907D02*
X2800000Y-10931728D01*
X2800000Y-10550000D02*
X3900000Y-9450000D01*
X2800000Y-10931728D02*
X2800000Y-10550000D01*
X3500179Y-11631907D02*
X2818272Y-10950000D01*
X2818272Y-10950000D02*
X2550000Y-10950000D01*
X-6011000Y15113000D02*
X-6011000Y14639000D01*
X-10217693Y-4914392D02*
X-9500000Y-4196699D01*
X-13074369Y-700000D02*
X-13753227Y-1378858D01*
X-12550000Y-700000D02*
X-13074369Y-700000D01*
X-9500000Y-3750000D02*
X-12550000Y-700000D01*
X-9500000Y-4196699D02*
X-9500000Y-3750000D01*
X-5374000Y15750000D02*
X-6011000Y15113000D01*
X-4500000Y15750000D02*
X-5374000Y15750000D01*
X-4000000Y15250000D02*
X-4500000Y15750000D01*
X-2875631Y15250000D02*
X-4000000Y15250000D01*
X-1378858Y13753227D02*
X-2875631Y15250000D01*
X13327091Y3929091D02*
X13270909Y3929091D01*
X13270909Y3929091D02*
X11700000Y5500000D01*
X11450000Y5500000D02*
X11700000Y5500000D01*
X10279091Y6670909D02*
X11450000Y5500000D01*
X10279091Y6977091D02*
X10279091Y6670909D01*
X10279091Y6977091D02*
X10279091Y6920909D01*
X13327091Y3929091D02*
X13170909Y3929091D01*
X14400000Y2500000D02*
X14400000Y2856182D01*
X14400000Y2856182D02*
X13327091Y3929091D01*
X-8661091Y9588909D02*
X-9561091Y9588909D01*
X-9561091Y9588909D02*
X-10200000Y8950000D01*
X-10200000Y8950000D02*
X-10200000Y7800000D01*
X-10200000Y7800000D02*
X-9850000Y7450000D01*
X9157033Y5975052D02*
X10159072Y6977091D01*
X10159072Y6977091D02*
X10279091Y6977091D01*
X13753227Y1378858D02*
X14400000Y2025631D01*
X14400000Y2025631D02*
X14400000Y2500000D01*
X-1378858Y13753227D02*
X-1550000Y13924369D01*
X2439518Y-12692567D02*
X4150000Y-14403049D01*
X4150000Y-14403049D02*
X4150000Y-15000000D01*
X2793072Y-12339013D02*
X4424059Y-13970000D01*
X-10050000Y7450000D02*
X-10611091Y6788909D01*
X-10050000Y7450000D02*
X-9850000Y7450000D01*
X6988909Y10461091D02*
X7800000Y10461091D01*
X1750000Y-12003049D02*
X2439518Y-12692567D01*
X1750000Y-11750000D02*
X1750000Y-12003049D01*
X2550000Y-10950000D02*
X1750000Y-11750000D01*
X3500179Y-11631907D02*
X4129363Y-12261091D01*
X5621499Y9510586D02*
X6572004Y10461091D01*
X6572004Y10461091D02*
X6988909Y10461091D01*
X-8661091Y9588909D02*
X-8350000Y9900000D01*
X-6718019Y9900000D02*
X-5975052Y9157033D01*
X-8350000Y9900000D02*
X-6718019Y9900000D01*
X-10611091Y6788909D02*
X-10500000Y6677818D01*
X-10500000Y6677818D02*
X-10500000Y5903806D01*
X-10500000Y5903806D02*
X-9864140Y5267946D01*
X-2085965Y-13046120D02*
X-3128936Y-14089091D01*
X-3128936Y-14089091D02*
X-3436909Y-14089091D01*
X2150000Y-11350000D02*
X2550000Y-10950000D01*
X2150000Y-11695941D02*
X2150000Y-11350000D01*
X-13753227Y-1378858D02*
X-14611091Y-2236722D01*
X-14611091Y-2236722D02*
X-14611091Y-3361091D01*
X2793072Y-12339013D02*
X2150000Y-11695941D01*
X-13111091Y-4861091D02*
X-12522182Y-5450000D01*
X-12522182Y-5450000D02*
X-11550000Y-5450000D01*
X-10903301Y-5600000D02*
X-11400000Y-5600000D01*
X-10903301Y-5600000D02*
X-10217693Y-4914392D01*
X-11400000Y-5600000D02*
X-11550000Y-5450000D01*
X4784000Y-13970000D02*
X4784000Y-14605000D01*
X4424059Y-13970000D02*
X4784000Y-13970000D01*
X4129363Y-12261091D02*
X5188909Y-12261091D01*
X4784000Y-15367000D02*
X4784000Y-16002000D01*
X4150000Y-15000000D02*
X4517000Y-15367000D01*
X4517000Y-15367000D02*
X4784000Y-15367000D01*
X8096373Y-7035712D02*
X9196570Y-8135909D01*
X9196570Y-8135909D02*
X9390091Y-8135909D01*
X13250000Y-10750000D02*
X12550000Y-10750000D01*
X14350000Y-10750000D02*
X13250000Y-10750000D01*
X12550000Y-10750000D02*
X9935909Y-8135909D01*
X14700000Y-11100000D02*
X14350000Y-10750000D01*
X15700000Y-12100000D02*
X14700000Y-11100000D01*
X15950000Y-12100000D02*
X15700000Y-12100000D01*
X16600000Y-11450000D02*
X15950000Y-12100000D01*
D30*
X-16365043Y10078864D02*
X-16750000Y10463821D01*
X-16750000Y10463821D02*
X-16750000Y11750000D01*
D29*
X16600000Y-10313821D02*
X16600000Y-11450000D01*
X16365043Y-10078864D02*
X15422270Y-9136091D01*
X15422270Y-9136091D02*
X15247909Y-9136091D01*
X-16365043Y10078864D02*
X-15422270Y9136091D01*
X-15422270Y9136091D02*
X-15247909Y9136091D01*
X16365043Y-10078864D02*
X16600000Y-10313821D01*
D30*
X-1850000Y20650000D02*
X-2000000Y20500000D01*
X-2000000Y20500000D02*
X-3800000Y20500000D01*
X20550000Y1800000D02*
X20500000Y1850000D01*
X20500000Y1850000D02*
X20500000Y3800000D01*
X1850000Y-20600000D02*
X1950000Y-20500000D01*
X1950000Y-20500000D02*
X3850000Y-20500000D01*
X-20650000Y-1850000D02*
X-20500000Y-2000000D01*
X-20500000Y-2000000D02*
X-20500000Y-3800000D01*
D29*
X18100000Y-8100000D02*
X20650000Y-8100000D01*
X17400000Y-8800000D02*
X18100000Y-8100000D01*
X-8600000Y-16950000D02*
X-7800000Y-17750000D01*
X-7800000Y-17750000D02*
X-7800000Y-18750000D01*
X8900000Y16950000D02*
X8700000Y17150000D01*
X8700000Y17150000D02*
X8700000Y17850000D01*
X-16950000Y8750000D02*
X-21300000Y8750000D01*
X-21300000Y8750000D02*
X-21350000Y8800000D01*
X-21350000Y8800000D02*
X-22400000Y9850000D01*
X8700000Y20450000D02*
X8700000Y20950000D01*
X8700000Y20450000D02*
X8700000Y17850000D01*
X11850000Y25750000D02*
X11549760Y26050240D01*
X8700000Y20950000D02*
X11850000Y24100000D01*
X11850000Y24100000D02*
X11850000Y25750000D01*
X11109960Y26050240D02*
X11549760Y26050240D01*
X11549760Y26050240D02*
X12650000Y27150480D01*
X12650000Y27150480D02*
X12650000Y28450000D01*
X26050240Y-11109960D02*
X26259960Y-11109960D01*
X27800000Y-12650000D02*
X29500000Y-12650000D01*
X26259960Y-11109960D02*
X27800000Y-12650000D01*
X12650000Y28450000D02*
X12650000Y29550000D01*
X-26050240Y11109960D02*
X-26259960Y11109960D01*
X-27800000Y12650000D02*
X-28000000Y12650000D01*
X-26259960Y11109960D02*
X-27800000Y12650000D01*
X-26050240Y11549760D02*
X-26050240Y11109960D01*
X-25800000Y11800000D02*
X-26050240Y11549760D01*
X-11109960Y-26050240D02*
X-11109960Y-26259960D01*
X-12650000Y-29895000D02*
X-11430000Y-31115000D01*
X-12650000Y-27800000D02*
X-12650000Y-29895000D01*
X-11109960Y-26259960D02*
X-12650000Y-27800000D01*
X-7800000Y-20200000D02*
X-7800000Y-20350000D01*
X-11549760Y-26050240D02*
X-11109960Y-26050240D01*
X-11850000Y-25750000D02*
X-11549760Y-26050240D01*
X-11850000Y-24400000D02*
X-11850000Y-25750000D01*
X-7800000Y-20350000D02*
X-11850000Y-24400000D01*
X-7800000Y-20200000D02*
X-7800000Y-18750000D01*
X29500000Y-12650000D02*
X29895000Y-12650000D01*
X29895000Y-12650000D02*
X31115000Y-11430000D01*
X12650000Y29550000D02*
X12650000Y29895000D01*
X12650000Y29895000D02*
X11430000Y31115000D01*
X-29895000Y12650000D02*
X-31115000Y11430000D01*
X-28000000Y12650000D02*
X-29895000Y12650000D01*
X20650000Y-8100000D02*
X24400000Y-11850000D01*
X26050240Y-11599760D02*
X26050240Y-11109960D01*
X25800000Y-11850000D02*
X26050240Y-11599760D01*
X24400000Y-11850000D02*
X25800000Y-11850000D01*
X-23825000Y11275000D02*
X-24350000Y11800000D01*
X-24350000Y11800000D02*
X-25800000Y11800000D01*
X-22400000Y9850000D02*
X-23825000Y11275000D01*
D30*
X-11198330Y-8404330D02*
X-11150000Y-8356000D01*
X-11150000Y-8356000D02*
X-11150000Y-7100000D01*
X-11150000Y-7100000D02*
X-11100000Y-7050000D01*
X-10561934Y-9040726D02*
X-11198330Y-8404330D01*
D29*
X-11198330Y-8404330D02*
X-10561934Y-9040726D01*
X-11100000Y-8306000D02*
X-11198330Y-8404330D01*
X-11198330Y-8404330D02*
X-11044000Y-8250000D01*
X-11198330Y-8404330D02*
X-11050000Y-8256000D01*
X-11100000Y-7050000D02*
X-11100000Y-8306000D01*
D30*
X-10561934Y-9218431D02*
X-10561934Y-9040726D01*
X-9218431Y-10561934D02*
X-10561934Y-9218431D01*
D29*
X-9218431Y-10561934D02*
X-9250000Y-10530365D01*
X-10561934Y-9218431D02*
X-10343503Y-9000000D01*
X-10561934Y-9218431D02*
X-10264670Y-8921167D01*
D30*
X19300000Y1450000D02*
X20200000Y1450000D01*
X20200000Y1450000D02*
X20550000Y1800000D01*
X1400000Y-19550000D02*
X1400000Y-20150000D01*
X1400000Y-20150000D02*
X1850000Y-20600000D01*
X-19500000Y-1450000D02*
X-20250000Y-1450000D01*
X-20250000Y-1450000D02*
X-20650000Y-1850000D01*
X-1450000Y19400000D02*
X-1450000Y20250000D01*
X-1450000Y20250000D02*
X-1850000Y20650000D01*
X17145000Y2700000D02*
X17145000Y2205000D01*
X17145000Y2205000D02*
X17900000Y1450000D01*
X17900000Y1450000D02*
X19300000Y1450000D01*
X2700000Y-17145000D02*
X2205000Y-17145000D01*
X2205000Y-17145000D02*
X1400000Y-17950000D01*
X1400000Y-17950000D02*
X1400000Y-19550000D01*
X-17145000Y-2700000D02*
X-17145000Y-2205000D01*
X-17145000Y-2205000D02*
X-17900000Y-1450000D01*
X-17900000Y-1450000D02*
X-19500000Y-1450000D01*
X-2700000Y17145000D02*
X-2205000Y17145000D01*
X-2205000Y17145000D02*
X-1450000Y17900000D01*
X-1450000Y17900000D02*
X-1450000Y19400000D01*
D29*
X17145000Y2700000D02*
X17145000Y2405000D01*
X4052000Y-17145000D02*
X2700000Y-17145000D01*
X2700000Y-17145000D02*
X2966000Y-17411000D01*
X-17145000Y-4052000D02*
X-17145000Y-2700000D01*
X-2700000Y17145000D02*
X-2405000Y17145000D01*
X-17145000Y-2700000D02*
X-17145000Y-2355000D01*
X2405000Y-17145000D02*
X2700000Y-17145000D01*
X-17411000Y-4318000D02*
X-17411000Y-5134000D01*
X-17411000Y-5134000D02*
X-17611000Y-5334000D01*
X-17411000Y-4318000D02*
X-17145000Y-4052000D01*
X-4318000Y17411000D02*
X-4645000Y17738000D01*
X-4645000Y17738000D02*
X-5334000Y17738000D01*
X-2700000Y17145000D02*
X-4052000Y17145000D01*
X-4052000Y17145000D02*
X-4318000Y17411000D01*
X17284000Y4191000D02*
X17484000Y4391000D01*
X17484000Y4391000D02*
X17484000Y5207000D01*
X17284000Y4191000D02*
X17145000Y4052000D01*
X17145000Y4052000D02*
X17145000Y2700000D01*
X4318000Y-17411000D02*
X4391000Y-17484000D01*
X4391000Y-17484000D02*
X5334000Y-17484000D01*
X4318000Y-17411000D02*
X4052000Y-17145000D01*
X7900000Y200000D02*
X6400000Y200000D01*
X6400000Y200000D02*
X4050000Y-2150000D01*
X12100000Y-450000D02*
X12300000Y-650000D01*
X13024369Y-650000D02*
X13753227Y-1378858D01*
X12300000Y-650000D02*
X13024369Y-650000D01*
X7900000Y200000D02*
X11450000Y200000D01*
X11450000Y200000D02*
X12100000Y-450000D01*
X12100000Y-450000D02*
X11450000Y200000D01*
X-6746447Y-7100000D02*
X-7389266Y-7742819D01*
X-5400000Y-7100000D02*
X-6746447Y-7100000D01*
X8600000Y-300000D02*
X7150000Y-300000D01*
X7150000Y-300000D02*
X4700000Y-2750000D01*
X8600000Y-300000D02*
X11260155Y-300000D01*
X11260155Y-300000D02*
X13046120Y-2085965D01*
X9000000Y-750000D02*
X7600000Y-750000D01*
X3400000Y-4950000D02*
X3400000Y-5200000D01*
X7600000Y-750000D02*
X3400000Y-4950000D01*
X11003049Y-750000D02*
X12692567Y-2439518D01*
X9000000Y-750000D02*
X11003049Y-750000D01*
X12339013Y-2793072D02*
X11572971Y-2027030D01*
X9200000Y-1200000D02*
X7800000Y-1200000D01*
X4050000Y-6000000D02*
X3950000Y-6100000D01*
X4050000Y-4950000D02*
X4050000Y-6000000D01*
X7800000Y-1200000D02*
X4050000Y-4950000D01*
X11572971Y-2027030D02*
X10745941Y-1200000D01*
X10745941Y-1200000D02*
X9200000Y-1200000D01*
X-11631907Y3500179D02*
X-10581728Y2450000D01*
X-10581728Y2450000D02*
X-9500000Y2450000D01*
X-8844544Y4255456D02*
X-8844544Y4955457D01*
X-9150000Y3950000D02*
X-8844544Y4255456D01*
X-8844544Y4955457D02*
X-9510586Y5621499D01*
X-8844544Y4955457D02*
X-9510586Y5621499D01*
X-7050000Y6696447D02*
X-7742819Y7389266D01*
X-7050000Y5850000D02*
X-7050000Y6696447D01*
X-8100000Y4800000D02*
X-7050000Y5850000D01*
X-8750000Y10400000D02*
X-9400000Y10400000D01*
X-8750000Y10400000D02*
X-6450000Y10400000D01*
X-4525379Y11950000D02*
X-3853732Y11278353D01*
X-4900000Y11950000D02*
X-4525379Y11950000D01*
X-6450000Y10400000D02*
X-6425000Y10425000D01*
X-6425000Y10425000D02*
X-4900000Y11950000D01*
X-12650000Y10800000D02*
X-13450000Y10800000D01*
X-11400000Y9550000D02*
X-12650000Y10800000D01*
X-10250000Y9550000D02*
X-11400000Y9550000D01*
X-9400000Y10400000D02*
X-10250000Y9550000D01*
X-14400000Y10800000D02*
X-15650000Y12050000D01*
X-15000000Y13000000D02*
X-13800000Y14200000D01*
X-13301975Y14200000D02*
X-13800000Y14200000D01*
X-15000000Y13000000D02*
X-15650000Y12350000D01*
X-15650000Y12350000D02*
X-15650000Y12050000D01*
X-13450000Y10800000D02*
X-14400000Y10800000D01*
X-13301975Y14200000D02*
X-12772941Y13670966D01*
X-8550000Y10850000D02*
X-9600000Y10850000D01*
X-10450000Y10000000D02*
X-11200000Y10000000D01*
X-9600000Y10850000D02*
X-10450000Y10000000D01*
X-6650000Y10850000D02*
X-8550000Y10850000D01*
X-5100000Y12400000D02*
X-6650000Y10850000D01*
X-3500179Y11631907D02*
X-4268272Y12400000D01*
X-4268272Y12400000D02*
X-5100000Y12400000D01*
X-12450000Y11250000D02*
X-13650000Y11250000D01*
X-11200000Y10000000D02*
X-12450000Y11250000D01*
X-13944077Y11250000D02*
X-14568992Y11874915D01*
X-13650000Y11250000D02*
X-13944077Y11250000D01*
X-14394077Y11700000D02*
X-14568992Y11874915D01*
X6000000Y22450000D02*
X5600000Y22850000D01*
X5600000Y23650000D02*
X5700000Y23750000D01*
X5600000Y22850000D02*
X5600000Y23650000D01*
X6000000Y21650000D02*
X6000000Y22450000D01*
X150000Y13100000D02*
X150000Y12850000D01*
X-750000Y6950000D02*
X700000Y5500000D01*
X-750000Y11950000D02*
X-750000Y6950000D01*
X150000Y12850000D02*
X-750000Y11950000D01*
X-2439518Y12692567D02*
X-1700000Y11953049D01*
X700000Y5000000D02*
X700000Y5500000D01*
X300000Y4600000D02*
X700000Y5000000D01*
X-200000Y4600000D02*
X300000Y4600000D01*
X-800000Y5200000D02*
X-200000Y4600000D01*
X5350000Y14900000D02*
X6000000Y15550000D01*
X150000Y13100000D02*
X150000Y13500000D01*
X150000Y13500000D02*
X1125000Y14475000D01*
X1550000Y14900000D02*
X5350000Y14900000D01*
X6000000Y16550000D02*
X6000000Y21650000D01*
X1125000Y14475000D02*
X1550000Y14900000D01*
X6000000Y15550000D02*
X6000000Y16550000D01*
X-1700000Y6100000D02*
X-800000Y5200000D01*
X-1700000Y10350000D02*
X-1700000Y6100000D01*
X-1700000Y11953049D02*
X-1700000Y10350000D01*
X6450000Y22500000D02*
X6450000Y22950000D01*
X6450000Y22950000D02*
X6250000Y23150000D01*
X1378858Y13753227D02*
X2075631Y14450000D01*
X6450000Y15300000D02*
X6450000Y22500000D01*
X5600000Y14450000D02*
X6450000Y15300000D01*
X2075631Y14450000D02*
X5600000Y14450000D01*
X4850000Y4600000D02*
X4450000Y4600000D01*
X5950000Y3500000D02*
X4850000Y4600000D01*
X-250000Y9050000D02*
X-250000Y8150000D01*
X2500000Y5400000D02*
X3650000Y5400000D01*
X-250000Y8150000D02*
X2500000Y5400000D01*
X-250000Y9100000D02*
X-250000Y9050000D01*
X-250000Y9700000D02*
X-250000Y9100000D01*
X866369Y12533631D02*
X-250000Y11417262D01*
X-250000Y11417262D02*
X-250000Y9700000D01*
X941369Y12608631D02*
X866369Y12533631D01*
X3650000Y5400000D02*
X4450000Y4600000D01*
X1732412Y13399674D02*
X941369Y12608631D01*
X10571246Y-4560839D02*
X9500000Y-3489593D01*
X9500000Y-3489593D02*
X9500000Y-3200000D01*
X8246194Y3650000D02*
X9864140Y5267946D01*
X7900000Y3650000D02*
X8246194Y3650000D01*
X8450000Y3146699D02*
X10217693Y4914392D01*
X8450000Y2950000D02*
X8450000Y3146699D01*
X9250000Y3239593D02*
X10571246Y4560839D01*
X9250000Y2450000D02*
X9250000Y3239593D01*
X9553301Y-4250000D02*
X10217693Y-4914392D01*
X8800000Y-4250000D02*
X9553301Y-4250000D01*
X8750000Y-4300000D02*
X8800000Y-4250000D01*
X7750000Y-5275127D02*
X8803479Y-6328606D01*
X7750000Y-5200000D02*
X7750000Y-5275127D01*
X-3389593Y-9400000D02*
X-4560839Y-10571246D01*
X-3250000Y-9400000D02*
X-3389593Y-9400000D01*
X-3900000Y-9203301D02*
X-4914392Y-10217693D01*
X-3900000Y-9100000D02*
X-3900000Y-9203301D01*
X-3250000Y-8450000D02*
X-3900000Y-9100000D01*
X-3250000Y-7500000D02*
X-3250000Y-8450000D01*
X21000000Y-1050000D02*
X20750000Y-800000D01*
X17700000Y-800000D02*
X17400000Y-500000D01*
X20750000Y-800000D02*
X17700000Y-800000D01*
X-21050000Y1100000D02*
X-20750000Y800000D01*
X-20750000Y800000D02*
X-18150000Y800000D01*
X-1100000Y-21050000D02*
X-850000Y-20800000D01*
X-850000Y-20800000D02*
X-850000Y-18050000D01*
X0Y14100000D02*
X750000Y14850000D01*
X0Y14100000D02*
X-350000Y13750000D01*
X-350000Y13750000D02*
X-350000Y13050000D01*
X1050000Y21000000D02*
X750000Y20700000D01*
X-1200000Y12200000D02*
X-1200000Y6500000D01*
X-1200000Y6500000D02*
X50000Y5250000D01*
X-350000Y13050000D02*
X-1200000Y12200000D01*
X750000Y14850000D02*
X750000Y20700000D01*
X-300000Y-17500000D02*
X50000Y-17150000D01*
X50000Y-17150000D02*
X50000Y-5150000D01*
X-600000Y-17800000D02*
X-300000Y-17500000D01*
X13450000Y-100000D02*
X12450000Y-100000D01*
X6000000Y700000D02*
X5250000Y-50000D01*
X11650000Y700000D02*
X6000000Y700000D01*
X12450000Y-100000D02*
X11650000Y700000D01*
X17275000Y-375000D02*
X17000000Y-100000D01*
X17000000Y-100000D02*
X13450000Y-100000D01*
X17400000Y-500000D02*
X17275000Y-375000D01*
X-18150000Y800000D02*
X-17350000Y0D01*
X-850000Y-18050000D02*
X-600000Y-17800000D01*
X-17350000Y0D02*
X-5500000Y0D01*
X-5500000Y0D02*
X-5000000Y-500000D01*
X30798198Y13905802D02*
X29909198Y13905802D01*
X29909198Y13905802D02*
X27940000Y15875000D01*
X-23800000Y245000D02*
X-21750000Y2295000D01*
X-23800000Y-100000D02*
X-23800000Y245000D01*
X10167909Y-6832091D02*
X10650000Y-6350000D01*
X-10950000Y8450000D02*
X-10950000Y7800000D01*
X100000Y-23800000D02*
X-300000Y-23800000D01*
X-300000Y-23800000D02*
X-2300000Y-21800000D01*
X23800000Y100000D02*
X23800000Y-245000D01*
X23800000Y-245000D02*
X21650000Y-2395000D01*
X-50000Y23800000D02*
X245000Y23800000D01*
X245000Y23800000D02*
X2395000Y21650000D01*
D30*
X18166446Y20850000D02*
X16900000Y20850000D01*
D29*
X13650000Y-10300000D02*
X12750000Y-10300000D01*
X10167909Y-7717909D02*
X10167909Y-7358091D01*
X12750000Y-10300000D02*
X10167909Y-7717909D01*
X10167909Y-7358091D02*
X10167909Y-6832091D01*
D30*
X13200000Y18200000D02*
X10550000Y15550000D01*
X10550000Y15550000D02*
X10550000Y14800000D01*
X10550000Y14800000D02*
X10550000Y10650000D01*
X10550000Y10650000D02*
X9950000Y10050000D01*
X9950000Y10050000D02*
X9000000Y10050000D01*
X9000000Y10050000D02*
X8400000Y9450000D01*
X-4500000Y19850000D02*
X-4335000Y19685000D01*
X-4335000Y19685000D02*
X-2700000Y19685000D01*
X19700000Y4650000D02*
X19685000Y4635000D01*
X19685000Y4635000D02*
X19685000Y2700000D01*
X4500000Y-19850000D02*
X4335000Y-19685000D01*
X4335000Y-19685000D02*
X2700000Y-19685000D01*
X-19685000Y-2700000D02*
X-19685000Y-4335000D01*
X-19685000Y-4335000D02*
X-19850000Y-4500000D01*
D29*
X949960Y24749760D02*
X1800240Y24749760D01*
X1800240Y24749760D02*
X1950000Y24600000D01*
D30*
X22232909Y21343909D02*
X21226818Y22350000D01*
D29*
X21343909Y22232909D02*
X22232909Y21343909D01*
X18316446Y21000000D02*
X19549355Y22232909D01*
X19549355Y22232909D02*
X21343909Y22232909D01*
X19723554Y20000000D02*
X20073554Y19650000D01*
X20357107Y19650000D02*
X20657272Y19950165D01*
X20073554Y19650000D02*
X20357107Y19650000D01*
X19066282Y20657272D02*
X19723554Y20000000D01*
X20000000Y20000000D02*
X20303718Y20303718D01*
X19723554Y20000000D02*
X20000000Y20000000D01*
X18166446Y20850000D02*
X18316446Y21000000D01*
X18723554Y21000000D02*
X19066282Y20657272D01*
X18316446Y21000000D02*
X18723554Y21000000D01*
X18166446Y20850000D02*
X18712728Y20303718D01*
X24749760Y-949960D02*
X24749760Y-1750240D01*
X24749760Y-1750240D02*
X24650000Y-1850000D01*
X15467017Y-10976889D02*
X14470091Y-9979963D01*
X14470091Y-9979963D02*
X14470091Y-9913909D01*
X15467017Y-10976889D02*
X14790128Y-10300000D01*
X14790128Y-10300000D02*
X13650000Y-10300000D01*
X-949960Y-24749760D02*
X-1800240Y-24749760D01*
X-1800240Y-24749760D02*
X-1900000Y-24650000D01*
X-15467017Y10976889D02*
X-14470091Y9979963D01*
X-14470091Y9979963D02*
X-14470091Y9913909D01*
X19241000Y4191000D02*
X19700000Y4650000D01*
X18784000Y4191000D02*
X19241000Y4191000D01*
D30*
X-11445817Y-11445817D02*
X-10850000Y-10850000D01*
X-10850000Y-10450000D02*
X-11450000Y-9850000D01*
X-10850000Y-10850000D02*
X-10850000Y-10450000D01*
X-11984517Y-11984517D02*
X-11445817Y-11445817D01*
X-11984517Y-11984517D02*
X-11445817Y-11445817D01*
D29*
X-24749760Y949960D02*
X-24749760Y1800240D01*
X-24749760Y1800240D02*
X-24000000Y2550000D01*
X-19668000Y-4318000D02*
X-19850000Y-4500000D01*
X-18911000Y-4318000D02*
X-19668000Y-4318000D01*
X-24609960Y11109960D02*
X-23150000Y9650000D01*
X-24060040Y-9210040D02*
X-24000000Y-9150000D01*
X-24749760Y-9210040D02*
X-24060040Y-9210040D01*
X-24030040Y-4130040D02*
X-24000000Y-4100000D01*
X-24030040Y-4130040D02*
X-24749760Y-4130040D01*
X9700000Y23339800D02*
X9700000Y23200000D01*
X9700000Y23339800D02*
X11109960Y24749760D01*
X-9210040Y24060040D02*
X-9210040Y24749760D01*
X-9210040Y24060040D02*
X-9150000Y24000000D01*
X-4318000Y18911000D02*
X-4318000Y19668000D01*
X-4130040Y24019960D02*
X-4150000Y24000000D01*
X-4130040Y24019960D02*
X-4130040Y24749760D01*
X-4318000Y19668000D02*
X-4500000Y19850000D01*
X24060040Y9210040D02*
X24749760Y9210040D01*
X24060040Y9210040D02*
X24000000Y9150000D01*
X24019960Y4130040D02*
X24000000Y4150000D01*
X24019960Y4130040D02*
X24749760Y4130040D01*
X23150000Y-9600000D02*
X24659960Y-11109960D01*
X-9650000Y-23300000D02*
X-11099760Y-24749760D01*
X9210040Y-24010040D02*
X9210040Y-24749760D01*
X9210040Y-24010040D02*
X9200000Y-24000000D01*
X4130040Y-24019960D02*
X4150000Y-24000000D01*
X4130040Y-24749760D02*
X4130040Y-24019960D01*
X4318000Y-19668000D02*
X4500000Y-19850000D01*
X4318000Y-19668000D02*
X4318000Y-18911000D01*
X11109960Y25400000D02*
X10700000Y25400000D01*
X11430000Y27430000D02*
X11430000Y28575000D01*
X10400000Y26400000D02*
X11430000Y27430000D01*
X10400000Y25700000D02*
X10400000Y26400000D01*
X10700000Y25400000D02*
X10400000Y25700000D01*
X-10950000Y7800000D02*
X-10950000Y7300000D01*
X-10950000Y7300000D02*
X-11388909Y6861091D01*
X-11388909Y6861091D02*
X-11388909Y6011091D01*
X-14840128Y10350000D02*
X-12850000Y10350000D01*
X-15467017Y10976889D02*
X-14840128Y10350000D01*
X-12850000Y10350000D02*
X-10950000Y8450000D01*
X3700000Y7950000D02*
X3450000Y7950000D01*
X2500000Y8900000D02*
X2400000Y8900000D01*
X3450000Y7950000D02*
X2500000Y8900000D01*
X-6029960Y-24020040D02*
X-6050000Y-24000000D01*
X-6029960Y-24020040D02*
X-6029960Y-24749760D01*
X24070040Y-6029960D02*
X24000000Y-6100000D01*
X24070040Y-6029960D02*
X24749760Y-6029960D01*
X6029960Y24520040D02*
X7000000Y23550000D01*
X6029960Y24520040D02*
X6029960Y24749760D01*
X-24000000Y6000000D02*
X-24719800Y6000000D01*
X24749760Y-11109960D02*
X24659960Y-11109960D01*
X-24749760Y11109960D02*
X-24609960Y11109960D01*
X-24749760Y6029960D02*
X-24719800Y6000000D01*
X-11109960Y-24749760D02*
X-11099760Y-24749760D01*
X-9210040Y24749760D02*
X-9199760Y24749760D01*
X4350000Y8400000D02*
X4350000Y8946194D01*
X4350000Y8946194D02*
X5267946Y9864140D01*
X4050000Y7950000D02*
X3700000Y7950000D01*
X4350000Y8250000D02*
X4050000Y7950000D01*
X4350000Y8400000D02*
X4350000Y8250000D01*
X5267946Y9864140D02*
X6211091Y10807285D01*
X6211091Y10807285D02*
X6211091Y11238909D01*
X15467017Y-10976889D02*
X14978091Y-10487963D01*
X-15467017Y10976889D02*
X-14978091Y10487963D01*
X-11388909Y6011091D02*
X-11388909Y5985608D01*
X-11388909Y5985608D02*
X-10217693Y4914392D01*
X8449926Y-6682159D02*
X9125858Y-7358091D01*
X9125858Y-7358091D02*
X10167909Y-7358091D01*
X15467017Y-10976889D02*
X15875000Y-11384872D01*
X-10137670Y-7662330D02*
X-9600000Y-8200000D01*
X-11650000Y-6250000D02*
X-11950000Y-5950000D01*
X-11950000Y-5950000D02*
X-12350000Y-5950000D01*
X-13577818Y-5950000D02*
X-12350000Y-5950000D01*
X-13888909Y-5638909D02*
X-13577818Y-5950000D01*
X-10596194Y-6000000D02*
X-10846194Y-6250000D01*
X-9864140Y-5267946D02*
X-10596194Y-6000000D01*
X-10846194Y-6250000D02*
X-11650000Y-6250000D01*
X-11650000Y-6300000D02*
X-11650000Y-6250000D01*
X-11650000Y-6300000D02*
X-11750000Y-6400000D01*
X-10137670Y-7662330D02*
X-10137670Y-7343670D01*
X-21750000Y2295000D02*
X-19981000Y4064000D01*
X-2300000Y-21800000D02*
X-4064000Y-20036000D01*
X-19685000Y-2700000D02*
X-19685000Y-3544000D01*
X-19685000Y-3544000D02*
X-18911000Y-4318000D01*
X-2700000Y19685000D02*
X-3544000Y19685000D01*
X-3544000Y19685000D02*
X-4318000Y18911000D01*
X2700000Y-19685000D02*
X3544000Y-19685000D01*
X3544000Y-19685000D02*
X4318000Y-18911000D01*
X4318000Y-18911000D02*
X4645000Y-18584000D01*
X4645000Y-18584000D02*
X5334000Y-18584000D01*
X-18911000Y-4318000D02*
X-18911000Y-5134000D01*
X-18911000Y-5134000D02*
X-18711000Y-5334000D01*
X19685000Y2700000D02*
X19685000Y3015000D01*
X28575000Y-11430000D02*
X27530000Y-11430000D01*
X25400000Y-10650000D02*
X25400000Y-11109960D01*
X25650000Y-10400000D02*
X25400000Y-10650000D01*
X26500000Y-10400000D02*
X25650000Y-10400000D01*
X27530000Y-11430000D02*
X26500000Y-10400000D01*
X11430000Y28575000D02*
X11430000Y28080000D01*
X-28575000Y11430000D02*
X-27430000Y11430000D01*
X-27430000Y11430000D02*
X-26400000Y10400000D01*
X-26400000Y10400000D02*
X-25650000Y10400000D01*
X-25650000Y10400000D02*
X-25400000Y10650000D01*
X-25400000Y10650000D02*
X-25400000Y11109960D01*
X-11430000Y-28575000D02*
X-11430000Y-27430000D01*
X-11430000Y-27430000D02*
X-10400000Y-26400000D01*
X-10400000Y-26400000D02*
X-10400000Y-25700000D01*
X-10400000Y-25700000D02*
X-10700000Y-25400000D01*
X-10700000Y-25400000D02*
X-11109960Y-25400000D01*
X-11430000Y-28575000D02*
X-11850000Y-28155000D01*
X-4064000Y-20036000D02*
X-4064000Y-19854000D01*
X-6200000Y-12200000D02*
X-6541198Y-11858802D01*
X-6541198Y-11858802D02*
X-6541198Y-11621198D01*
X-6835670Y-10309330D02*
X-6835670Y-11326726D01*
X-6835670Y-11326726D02*
X-6541198Y-11621198D01*
X-6835670Y-10309330D02*
X-6948249Y-10421909D01*
X-6328606Y-8803479D02*
X-7000000Y-9474873D01*
X-7000000Y-9474873D02*
X-7000000Y-10145000D01*
X-7000000Y-10145000D02*
X-6835670Y-10309330D01*
X-1732412Y13399674D02*
X-3132738Y14800000D01*
X2395000Y21650000D02*
X4064000Y19981000D01*
X10078864Y-16365043D02*
X9800000Y-16086179D01*
X9800000Y-16086179D02*
X9800000Y-13350000D01*
X9800000Y-13350000D02*
X8150000Y-11700000D01*
X8150000Y-11700000D02*
X6400000Y-11700000D01*
X6400000Y-11700000D02*
X5850000Y-11150000D01*
X5261091Y-13038909D02*
X5950000Y-12350000D01*
X5261091Y-13038909D02*
X4411091Y-13038909D01*
X5950000Y-11250000D02*
X5850000Y-11150000D01*
X5950000Y-12350000D02*
X5950000Y-11250000D01*
X21650000Y-2395000D02*
X19981000Y-4064000D01*
X-4064000Y-19936000D02*
X-4064000Y-19854000D01*
X-11984517Y-11984517D02*
X-11445817Y-11445817D01*
X-6200000Y-12200000D02*
X-3533091Y-14866909D01*
X-3533091Y-14866909D02*
X-2659091Y-14866909D01*
X-2659091Y-14866909D02*
X-2676000Y-14850000D01*
X10078864Y-16365043D02*
X9850000Y-16136179D01*
X19981000Y-4064000D02*
X19981000Y-4069000D01*
X19981000Y-4069000D02*
X18650000Y-5400000D01*
X16719000Y-5400000D02*
X15764000Y-4445000D01*
X18650000Y-5400000D02*
X16719000Y-5400000D01*
X-4064000Y-19854000D02*
X-5550000Y-18368000D01*
X-5550000Y-16742000D02*
X-4572000Y-15764000D01*
X-5550000Y-18368000D02*
X-5550000Y-16742000D01*
X-4064000Y-19936000D02*
X-4064000Y-19854000D01*
X-19981000Y4064000D02*
X-18495000Y5550000D01*
X-16742000Y5550000D02*
X-15764000Y4572000D01*
X-18495000Y5550000D02*
X-16742000Y5550000D01*
X4064000Y19981000D02*
X5550000Y18495000D01*
X5550000Y18495000D02*
X5550000Y16742000D01*
X5550000Y16742000D02*
X4572000Y15764000D01*
X5884000Y-15367000D02*
X5884000Y-16002000D01*
X5884000Y-14605000D02*
X5884000Y-15367000D01*
X5884000Y-13970000D02*
X5884000Y-14605000D01*
X4411091Y-13038909D02*
X4952909Y-13038909D01*
X4952909Y-13038909D02*
X5884000Y-13970000D01*
X3146625Y-11985460D02*
X4200074Y-13038909D01*
X4200074Y-13038909D02*
X4411091Y-13038909D01*
X-1732412Y-13399674D02*
X-2659091Y-14326353D01*
X-2659091Y-14326353D02*
X-2659091Y-14866909D01*
X-4318000Y18911000D02*
X-4391000Y18838000D01*
X-4391000Y18838000D02*
X-5334000Y18838000D01*
X-10078864Y16365043D02*
X-9850000Y16136179D01*
X-9850000Y16136179D02*
X-9850000Y14250000D01*
X-9750000Y12200000D02*
X-9550000Y12400000D01*
X-10400000Y12200000D02*
X-9750000Y12200000D01*
X-10850000Y12650000D02*
X-10400000Y12200000D01*
X-10850000Y13250000D02*
X-10850000Y12650000D01*
X-9850000Y14250000D02*
X-10850000Y13250000D01*
X-8750000Y12400000D02*
X-9550000Y12400000D01*
X-7050000Y12400000D02*
X-8750000Y12400000D01*
X-6700000Y12750000D02*
X-7050000Y12400000D01*
X-5353000Y14097000D02*
X-6700000Y12750000D01*
X-5322000Y14097000D02*
X-5353000Y14097000D01*
X-8800000Y8200000D02*
X-9411091Y8811091D01*
X-10078864Y16365043D02*
X-9650000Y15936179D01*
X-5303000Y14097000D02*
X-5322000Y14097000D01*
X-4599000Y14801000D02*
X-5303000Y14097000D01*
X-4599000Y14801000D02*
X-4911000Y15113000D01*
X-4598000Y14800000D02*
X-4599000Y14801000D01*
X-3132738Y14800000D02*
X-4598000Y14800000D01*
X-9438909Y8811091D02*
X-9411091Y8811091D01*
X-9438909Y8811091D02*
X-9438909Y8738909D01*
X-9438909Y8811091D02*
X-8588909Y8811091D01*
X-8588909Y8811091D02*
X-7950000Y9450000D01*
X-7950000Y9450000D02*
X-6975127Y9450000D01*
X-6975127Y9450000D02*
X-6328606Y8803479D01*
X19685000Y3290000D02*
X18784000Y4191000D01*
X18784000Y4191000D02*
X18584000Y4391000D01*
X18584000Y4391000D02*
X18584000Y5207000D01*
X11350000Y6500000D02*
X11700000Y6150000D01*
X11700000Y6150000D02*
X11950000Y6150000D01*
X11950000Y6150000D02*
X13393091Y4706909D01*
X13393091Y4706909D02*
X14104909Y4706909D01*
X11350000Y7461818D02*
X11350000Y6500000D01*
X11056909Y7754909D02*
X11350000Y7461818D01*
X8803479Y6328606D02*
X8803479Y6353479D01*
X8803479Y6353479D02*
X10204909Y7754909D01*
X10204909Y7754909D02*
X11056909Y7754909D01*
X8803479Y6328606D02*
X8803479Y6403479D01*
X19685000Y2700000D02*
X19685000Y3290000D01*
X-13888909Y-5638909D02*
X-14638909Y-4888909D01*
X-15388909Y-4138909D02*
X-14638909Y-4888909D01*
X-9150000Y-11550000D02*
X-8600000Y-11000000D01*
X-10000000Y-11150000D02*
X-9600000Y-11550000D01*
X-9600000Y-11550000D02*
X-9150000Y-11550000D01*
X-11150000Y-11150000D02*
X-10000000Y-11150000D01*
X-8600000Y-11000000D02*
X-8250000Y-11000000D01*
X-8250000Y-11000000D02*
X-7739091Y-10489091D01*
X-7739091Y-10421909D02*
X-7739091Y-10489091D01*
X-6948249Y-10421909D02*
X-7739091Y-10421909D01*
X-11150000Y-11150000D02*
X-11150000Y-9887340D01*
X-11150000Y-9887340D02*
X-11915670Y-9121670D01*
X-7456249Y-10421909D02*
X-7739091Y-10421909D01*
X-12250000Y-8400000D02*
X-12250000Y-8787340D01*
X-11750000Y-7900000D02*
X-12250000Y-8400000D01*
X-11750000Y-6400000D02*
X-11750000Y-7900000D01*
X-12250000Y-8787340D02*
X-11915670Y-9121670D01*
D30*
X-13398730Y-11984517D02*
X-15000000Y-13585787D01*
X-15000000Y-13585787D02*
X-15000000Y-13600000D01*
X-11984517Y-13398730D02*
X-13585787Y-15000000D01*
X-13585787Y-15000000D02*
X-13600000Y-15000000D01*
X-11984517Y-13398730D02*
X-11735787Y-13150000D01*
X-11735787Y-13150000D02*
X-9850000Y-13150000D01*
X-9850000Y-13150000D02*
X-9200000Y-13800000D01*
X-11984517Y-13398730D02*
X-11984517Y-11984517D01*
X-13398730Y-11984517D02*
X-11984517Y-11984517D01*
X-11984517Y-13398730D02*
X-13398730Y-11984517D01*
D29*
X-4000000Y-3600000D02*
X-3400000Y-4200000D01*
X-4000000Y-3400000D02*
X-4000000Y-3600000D01*
X-3400000Y-4200000D02*
X-1250000Y-6350000D01*
X-1448476Y-11701525D02*
X-1250000Y-11503049D01*
X-1250000Y-11503049D02*
X-1250000Y-6350000D01*
X-2439518Y-12692567D02*
X-1448476Y-11701525D01*
X-4750000Y-3500000D02*
X-3950000Y-4300000D01*
X-4750000Y-3300000D02*
X-4750000Y-3500000D01*
X-3950000Y-4300000D02*
X-1700000Y-6550000D01*
X-2793072Y-12339013D02*
X-1977030Y-11522971D01*
X-1700000Y-11245941D02*
X-1700000Y-6550000D01*
X-1977030Y-11522971D02*
X-1700000Y-11245941D01*
X-2505583Y-11344418D02*
X-2150000Y-10988835D01*
X-2150000Y-6750000D02*
X-3000000Y-5900000D01*
X-2150000Y-10988835D02*
X-2150000Y-6750000D01*
X-3150000Y-5750000D02*
X-5250000Y-3650000D01*
X-5250000Y-3650000D02*
X-5550000Y-3650000D01*
X-3000000Y-5900000D02*
X-3150000Y-5750000D01*
X-3146625Y-11985460D02*
X-2505583Y-11344418D01*
X-5900000Y-4300000D02*
X-5250000Y-4300000D01*
X-6350000Y-3850000D02*
X-5900000Y-4300000D01*
X-3700000Y-5850000D02*
X-5250000Y-4300000D01*
X-2600000Y-10731728D02*
X-2600000Y-6950000D01*
X-2600000Y-6950000D02*
X-3700000Y-5850000D01*
X-3500179Y-11631907D02*
X-2600000Y-10731728D01*
X4560839Y10571246D02*
X3889593Y9900000D01*
X2150000Y9900000D02*
X1800000Y9550000D01*
X3889593Y9900000D02*
X2150000Y9900000D01*
X-9100000Y450000D02*
X-8400000Y450000D01*
X-8400000Y450000D02*
X-4750000Y4100000D01*
X-4250000Y4600000D02*
X-4750000Y4100000D01*
X-4150000Y4600000D02*
X-4250000Y4600000D01*
X-12824369Y450000D02*
X-9100000Y450000D01*
X-13753227Y1378858D02*
X-12824369Y450000D01*
X-9750000Y900000D02*
X-8750000Y900000D01*
X-8750000Y900000D02*
X-5400000Y4250000D01*
X-4150000Y5500000D02*
X-5400000Y4250000D01*
X-13399674Y1732412D02*
X-12567262Y900000D01*
X-12567262Y900000D02*
X-9750000Y900000D01*
X-9600000Y1350000D02*
X-9000000Y1350000D01*
X-5850000Y4500000D02*
X-5850000Y4800000D01*
X-9000000Y1350000D02*
X-5850000Y4500000D01*
X-4300000Y6350000D02*
X-5850000Y4800000D01*
X-4150000Y6350000D02*
X-4300000Y6350000D01*
X-13046120Y2085965D02*
X-12310155Y1350000D01*
X-12310155Y1350000D02*
X-9600000Y1350000D01*
X-12692567Y2439518D02*
X-12053049Y1800000D01*
X-12053049Y1800000D02*
X-10150000Y1800000D01*
X-9950000Y1800000D02*
X-9200000Y1800000D01*
X-6350000Y4650000D02*
X-6350000Y5200000D01*
X-9200000Y1800000D02*
X-6350000Y4650000D01*
X-4400000Y7150000D02*
X-6350000Y5200000D01*
X-10150000Y1800000D02*
X-9950000Y1800000D01*
X3700000Y9003301D02*
X4914392Y10217693D01*
X3700000Y8600000D02*
X3700000Y9003301D01*
X5118019Y8300000D02*
X5975052Y9157033D01*
X5000000Y8300000D02*
X5118019Y8300000D01*
X5957033Y9157033D02*
X5975052Y9157033D01*
X-25400000Y-9210040D02*
X-25400000Y-8800000D01*
X-25700000Y-8500000D02*
X-28185000Y-8500000D01*
X-25400000Y-8800000D02*
X-25700000Y-8500000D01*
X-28185000Y-8500000D02*
X-28575000Y-8890000D01*
X-22900000Y-8050000D02*
X-23350000Y-8500000D01*
X-25400000Y-8750000D02*
X-25400000Y-9210040D01*
X-25150000Y-8500000D02*
X-25400000Y-8750000D01*
X-23350000Y-8500000D02*
X-25150000Y-8500000D01*
X-22925000Y-8975000D02*
X-23900000Y-9950000D01*
X-26050240Y-9649760D02*
X-26050240Y-9210040D01*
X-25750000Y-9950000D02*
X-26050240Y-9649760D01*
X-23900000Y-9950000D02*
X-25750000Y-9950000D01*
X-22000000Y-8050000D02*
X-22925000Y-8975000D01*
X-26050240Y-9210040D02*
X-26860040Y-9210040D01*
X-29855000Y-10150000D02*
X-31115000Y-8890000D01*
X-27800000Y-10150000D02*
X-29855000Y-10150000D01*
X-26860040Y-9210040D02*
X-27800000Y-10150000D01*
X-24749760Y-6029960D02*
X-24749760Y-5600240D01*
X-27450000Y-6350000D02*
X-28575000Y-6350000D01*
X-26400000Y-5300000D02*
X-27450000Y-6350000D01*
X-25050000Y-5300000D02*
X-26400000Y-5300000D01*
X-24749760Y-5600240D02*
X-25050000Y-5300000D01*
X-21925000Y-6175000D02*
X-22070040Y-6029960D01*
X-22070040Y-6029960D02*
X-24749760Y-6029960D01*
X-21350000Y-6750000D02*
X-21925000Y-6175000D01*
X-25400000Y-6029960D02*
X-25400000Y-6450000D01*
X-25400000Y-6450000D02*
X-26550000Y-7600000D01*
X-29865000Y-7600000D02*
X-31115000Y-6350000D01*
X-26550000Y-7600000D02*
X-29865000Y-7600000D01*
X-22350000Y-7400000D02*
X-24450000Y-7400000D01*
X-24450000Y-7400000D02*
X-25400000Y-6450000D01*
X-21500000Y-7400000D02*
X-22350000Y-7400000D01*
X-21350000Y-7550000D02*
X-21500000Y-7400000D01*
X-25400000Y-4130040D02*
X-25400000Y-3650000D01*
X-25650000Y-3400000D02*
X-28165000Y-3400000D01*
X-25400000Y-3650000D02*
X-25650000Y-3400000D01*
X-28165000Y-3400000D02*
X-28575000Y-3810000D01*
X-22225000Y-4325000D02*
X-22875000Y-3675000D01*
X-22875000Y-3675000D02*
X-23150000Y-3400000D01*
X-25400000Y-3700000D02*
X-25400000Y-4130040D01*
X-25100000Y-3400000D02*
X-25400000Y-3700000D01*
X-23150000Y-3400000D02*
X-25100000Y-3400000D01*
X-19050000Y-7500000D02*
X-22225000Y-4325000D01*
X-14350000Y-7500000D02*
X-19050000Y-7500000D01*
X-14150000Y-7700000D02*
X-14350000Y-7500000D01*
X-26050240Y-4549760D02*
X-26050240Y-4130040D01*
X-25750000Y-4850000D02*
X-26050240Y-4549760D01*
X-26050240Y-4130040D02*
X-26880040Y-4130040D01*
X-29825000Y-5100000D02*
X-31115000Y-3810000D01*
X-27850000Y-5100000D02*
X-29825000Y-5100000D01*
X-26880040Y-4130040D02*
X-27850000Y-5100000D01*
X-21975000Y-5225000D02*
X-22350000Y-4850000D01*
X-22350000Y-4850000D02*
X-25750000Y-4850000D01*
X-19250000Y-7950000D02*
X-21975000Y-5225000D01*
X-14800000Y-7950000D02*
X-19250000Y-7950000D01*
X-14400000Y-8350000D02*
X-14800000Y-7950000D01*
X-13350000Y-7900000D02*
X-13800000Y-8350000D01*
X-13800000Y-8350000D02*
X-14400000Y-8350000D01*
X-23000000Y-2500000D02*
X-24350000Y-2500000D01*
X-24750000Y-1600000D02*
X-24749760Y-1600000D01*
X-24750000Y-2100000D02*
X-24750000Y-1600000D01*
X-24350000Y-2500000D02*
X-24750000Y-2100000D01*
X-18650000Y-6600000D02*
X-22175000Y-3075000D01*
X-13200000Y-6600000D02*
X-18650000Y-6600000D01*
X-22750000Y-2500000D02*
X-23000000Y-2500000D01*
X-24749760Y-1400240D02*
X-24749760Y-949960D01*
X-22175000Y-3075000D02*
X-22750000Y-2500000D01*
X-24749760Y-1600000D02*
X-24749760Y-1400240D01*
X-24749760Y-949960D02*
X-24749760Y-500240D01*
X-24749760Y-500240D02*
X-25000000Y-250000D01*
X-25000000Y-250000D02*
X-26400000Y-250000D01*
X-26400000Y-250000D02*
X-27420000Y-1270000D01*
X-27420000Y-1270000D02*
X-28575000Y-1270000D01*
X-23350000Y-2950000D02*
X-24550000Y-2950000D01*
X-25400000Y-2100000D02*
X-25400000Y-949960D01*
X-24550000Y-2950000D02*
X-25400000Y-2100000D01*
X-23300000Y-2950000D02*
X-23350000Y-2950000D01*
X-22525000Y-3375000D02*
X-22950000Y-2950000D01*
X-22950000Y-2950000D02*
X-23300000Y-2950000D01*
X-25400000Y-949960D02*
X-25400000Y-1400000D01*
X-25400000Y-1400000D02*
X-26550000Y-2550000D01*
X-29835000Y-2550000D02*
X-31115000Y-1270000D01*
X-26550000Y-2550000D02*
X-29835000Y-2550000D01*
X-18850000Y-7050000D02*
X-22525000Y-3375000D01*
X-13650000Y-7050000D02*
X-18850000Y-7050000D01*
X-13450000Y-7250000D02*
X-13650000Y-7050000D01*
X-12950000Y-7250000D02*
X-13450000Y-7250000D01*
X-12400000Y-6700000D02*
X-12950000Y-7250000D01*
X0Y-3350000D02*
X0Y-2800000D01*
X-1350000Y-4700000D02*
X0Y-3350000D01*
X1500000Y0D02*
X0Y0D01*
X2650000Y1150000D02*
X1500000Y0D01*
X-2450000Y2100000D02*
X-350000Y0D01*
X0Y-2800000D02*
X0Y-2000000D01*
X0Y-2000000D02*
X0Y0D01*
X-350000Y0D02*
X0Y0D01*
X-5750000Y2100000D02*
X-2450000Y2100000D01*
X-25400000Y9210040D02*
X-25400000Y9650000D01*
X-25400000Y9650000D02*
X-25700000Y9950000D01*
X-29855000Y10150000D02*
X-31115000Y8890000D01*
X-27800000Y10150000D02*
X-29855000Y10150000D01*
X-27600000Y9950000D02*
X-27800000Y10150000D01*
X-25700000Y9950000D02*
X-27600000Y9950000D01*
X-20750000Y7350000D02*
X-21800000Y7350000D01*
X-25100000Y9950000D02*
X-25400000Y9650000D01*
X-24400000Y9950000D02*
X-25100000Y9950000D01*
X-21800000Y7350000D02*
X-24400000Y9950000D01*
X-16000000Y7350000D02*
X-14800000Y8550000D01*
X-12900000Y8550000D02*
X-14800000Y8550000D01*
X-11750000Y7400000D02*
X-12900000Y8550000D01*
X-20750000Y7350000D02*
X-16000000Y7350000D01*
X-21250000Y6900000D02*
X-22439720Y6900000D01*
X-22439720Y6900000D02*
X-24749760Y9210040D01*
X-12550000Y7300000D02*
X-13350000Y8100000D01*
X-15475000Y7225000D02*
X-15800000Y6900000D01*
X-15800000Y6900000D02*
X-21250000Y6900000D01*
X-14600000Y8100000D02*
X-15475000Y7225000D01*
X-13350000Y8100000D02*
X-14600000Y8100000D01*
X-24749760Y9210040D02*
X-24749760Y8750240D01*
X-25050000Y8450000D02*
X-28135000Y8450000D01*
X-24749760Y8750240D02*
X-25050000Y8450000D01*
X-28135000Y8450000D02*
X-28575000Y8890000D01*
X-26050240Y6029960D02*
X-26229960Y6029960D01*
X-26229960Y6029960D02*
X-27850000Y7650000D01*
X-29815000Y7650000D02*
X-31115000Y6350000D01*
X-27850000Y7650000D02*
X-29815000Y7650000D01*
X-23000000Y6450000D02*
X-23500000Y6450000D01*
X-26050240Y6499760D02*
X-26050240Y6029960D01*
X-25800000Y6750000D02*
X-26050240Y6499760D01*
X-23800000Y6750000D02*
X-25800000Y6750000D01*
X-23500000Y6450000D02*
X-23800000Y6750000D01*
X-31689040Y6350000D02*
X-31750000Y6350000D01*
X-13350000Y7150000D02*
X-13850000Y7650000D01*
X-15600000Y6450000D02*
X-14400000Y7650000D01*
X-13850000Y7650000D02*
X-14400000Y7650000D01*
X-23000000Y6450000D02*
X-15600000Y6450000D01*
X-26000000Y5300000D02*
X-26400000Y5300000D01*
X-27450000Y6350000D02*
X-28575000Y6350000D01*
X-26400000Y5300000D02*
X-27450000Y6350000D01*
X-22450000Y6000000D02*
X-23050000Y6000000D01*
X-25400000Y5600000D02*
X-25400000Y6029960D01*
X-25100000Y5300000D02*
X-25400000Y5600000D01*
X-23750000Y5300000D02*
X-25100000Y5300000D01*
X-23050000Y6000000D02*
X-23750000Y5300000D01*
X-14900000Y6250000D02*
X-15150000Y6000000D01*
X-15150000Y6000000D02*
X-21700000Y6000000D01*
X-21700000Y6000000D02*
X-22450000Y6000000D01*
X-25400000Y6029960D02*
X-25400000Y5600000D01*
X-25400000Y5600000D02*
X-25700000Y5300000D01*
X-25700000Y5300000D02*
X-26000000Y5300000D01*
X-14150000Y7000000D02*
X-14900000Y6250000D01*
X-25400000Y4130040D02*
X-25400000Y4550000D01*
X-25400000Y4550000D02*
X-25700000Y4850000D01*
X-29875000Y5050000D02*
X-31115000Y3810000D01*
X-27800000Y5050000D02*
X-29875000Y5050000D01*
X-27600000Y4850000D02*
X-27800000Y5050000D01*
X-25700000Y4850000D02*
X-27600000Y4850000D01*
X-23150000Y4900000D02*
X-23200000Y4850000D01*
X-25100000Y4850000D02*
X-25400000Y4550000D01*
X-23200000Y4850000D02*
X-25100000Y4850000D01*
X-24749760Y4130040D02*
X-24749760Y3700240D01*
X-24749760Y3700240D02*
X-25050000Y3400000D01*
X-22350000Y4850000D02*
X-23069960Y4130040D01*
X-23069960Y4130040D02*
X-24749760Y4130040D01*
X-25050000Y3400000D02*
X-28165000Y3400000D01*
X-28165000Y3400000D02*
X-28575000Y3810000D01*
X-22275000Y3975000D02*
X-22600000Y3650000D01*
X-23800000Y3650000D02*
X-25150000Y2300000D01*
X-22600000Y3650000D02*
X-23800000Y3650000D01*
X-25150000Y2300000D02*
X-26050240Y1399760D01*
X-25150000Y2300000D02*
X-26050240Y1399760D01*
X-26050240Y949960D02*
X-26249960Y949960D01*
X-26249960Y949960D02*
X-27850000Y2550000D01*
X-27850000Y2550000D02*
X-29835000Y2550000D01*
X-29835000Y2550000D02*
X-31115000Y1270000D01*
X-26050240Y1399760D02*
X-26050240Y949960D01*
X-21550000Y4700000D02*
X-22275000Y3975000D01*
X-20700000Y4700000D02*
X-20700000Y4550000D01*
X-22100000Y3150000D02*
X-22500000Y3150000D01*
X-20700000Y4550000D02*
X-22100000Y3150000D01*
X-24200000Y400000D02*
X-24400000Y200000D01*
X-24200000Y1450000D02*
X-24200000Y400000D01*
X-22500000Y3150000D02*
X-24200000Y1450000D01*
X-24400000Y200000D02*
X-25100000Y200000D01*
X-25400000Y949960D02*
X-25400000Y500000D01*
X-25400000Y500000D02*
X-25700000Y200000D01*
X-25100000Y200000D02*
X-25400000Y500000D01*
X-25700000Y200000D02*
X-26350000Y200000D01*
X-26350000Y200000D02*
X-27420000Y1270000D01*
X-27420000Y1270000D02*
X-28575000Y1270000D01*
X-29000000Y-12650000D02*
X-29895000Y-12650000D01*
X-29895000Y-12650000D02*
X-31115000Y-11430000D01*
X-20800000Y-350000D02*
X-21450000Y-1000000D01*
X-21450000Y-1000000D02*
X-23950000Y-1000000D01*
X-25400000Y-11550000D02*
X-25400000Y-11109960D01*
X-26500000Y-12650000D02*
X-25400000Y-11550000D01*
X-29000000Y-12650000D02*
X-26500000Y-12650000D01*
X-31115000Y-11430000D02*
X-30820000Y-11430000D01*
X-8050000Y22900000D02*
X-8050000Y24650000D01*
X-8800000Y25400000D02*
X-9210040Y25400000D01*
X-8050000Y24650000D02*
X-8800000Y25400000D01*
X-9210040Y25400000D02*
X-8750000Y25400000D01*
X-8450000Y25700000D02*
X-8450000Y28135000D01*
X-8750000Y25400000D02*
X-8450000Y25700000D01*
X-8450000Y28135000D02*
X-8890000Y28575000D01*
X-9210040Y26050240D02*
X-9210040Y26960040D01*
X-10150000Y29855000D02*
X-8890000Y31115000D01*
X-10150000Y27900000D02*
X-10150000Y29855000D01*
X-9210040Y26960040D02*
X-10150000Y27900000D01*
X-8050000Y22000000D02*
X-9950000Y23900000D01*
X-9649760Y26050240D02*
X-9210040Y26050240D01*
X-9950000Y25750000D02*
X-9649760Y26050240D01*
X-9950000Y23900000D02*
X-9950000Y25750000D01*
X-6750000Y22750000D02*
X-6750000Y24029720D01*
X-6750000Y24029720D02*
X-6029960Y24749760D01*
X-6750000Y21350000D02*
X-6750000Y22750000D01*
X-6029960Y24749760D02*
X-5600240Y24749760D01*
X-6350000Y27450000D02*
X-6350000Y28575000D01*
X-5300000Y26400000D02*
X-6350000Y27450000D01*
X-5300000Y25050000D02*
X-5300000Y26400000D01*
X-5600240Y24749760D02*
X-5300000Y25050000D01*
X-7400000Y22350000D02*
X-7400000Y24500000D01*
X-6500000Y25400000D02*
X-6029960Y25400000D01*
X-7400000Y24500000D02*
X-6500000Y25400000D01*
X-7400000Y22300000D02*
X-7400000Y22350000D01*
X-7600000Y21300000D02*
X-7400000Y21500000D01*
X-7400000Y21500000D02*
X-7400000Y22300000D01*
X-6029960Y25400000D02*
X-6450000Y25400000D01*
X-7650000Y29815000D02*
X-6350000Y31115000D01*
X-7650000Y26600000D02*
X-7650000Y29815000D01*
X-6450000Y25400000D02*
X-7650000Y26600000D01*
X-4130040Y25400000D02*
X-3650000Y25400000D01*
X-3650000Y25400000D02*
X-3400000Y25650000D01*
X-3400000Y25650000D02*
X-3400000Y28165000D01*
X-3400000Y28165000D02*
X-3810000Y28575000D01*
X-4350000Y22200000D02*
X-3400000Y23150000D01*
X-3400000Y25150000D02*
X-3650000Y25400000D01*
X-3400000Y23150000D02*
X-3400000Y25150000D01*
X-8125000Y19925000D02*
X-6625000Y19925000D01*
X-8150000Y19950000D02*
X-8125000Y19925000D01*
X-6625000Y19925000D02*
X-4350000Y22200000D01*
X-4130040Y26050240D02*
X-4130040Y26880040D01*
X-5100000Y29825000D02*
X-3810000Y31115000D01*
X-5100000Y27850000D02*
X-5100000Y29825000D01*
X-4130040Y26880040D02*
X-5100000Y27850000D01*
X-6275000Y20925000D02*
X-4850000Y22350000D01*
X-4549760Y26050240D02*
X-4130040Y26050240D01*
X-4850000Y25750000D02*
X-4549760Y26050240D01*
X-4850000Y22350000D02*
X-4850000Y25750000D01*
X-6325000Y20875000D02*
X-6275000Y20925000D01*
X-8250000Y20650000D02*
X-6550000Y20650000D01*
X-8350000Y20750000D02*
X-8250000Y20650000D01*
X-6550000Y20650000D02*
X-6325000Y20875000D01*
X-2500000Y23600000D02*
X-2500000Y24350000D01*
X-2100240Y24749760D02*
X-949960Y24749760D01*
X-2500000Y24350000D02*
X-2100240Y24749760D01*
X-2500000Y23600000D02*
X-2500000Y23300000D01*
X-3025000Y22225000D02*
X-2500000Y22750000D01*
X-2500000Y22750000D02*
X-2500000Y23300000D01*
X-6600000Y18650000D02*
X-5950000Y19300000D01*
X-9750000Y18650000D02*
X-6600000Y18650000D01*
X-3025000Y22225000D02*
X-5950000Y19300000D01*
X-949960Y24749760D02*
X-500240Y24749760D01*
X-500240Y24749760D02*
X-200000Y25050000D01*
X-200000Y25050000D02*
X-200000Y26350000D01*
X-200000Y26350000D02*
X-1270000Y27420000D01*
X-1270000Y27420000D02*
X-1270000Y28575000D01*
X-2950000Y23900000D02*
X-2950000Y24550000D01*
X-2100000Y25400000D02*
X-949960Y25400000D01*
X-2950000Y24550000D02*
X-2100000Y25400000D01*
X-2950000Y23900000D02*
X-2950000Y23450000D01*
X-3475000Y22425000D02*
X-2950000Y22950000D01*
X-2950000Y22950000D02*
X-2950000Y23450000D01*
X-10250000Y19300000D02*
X-6600000Y19300000D01*
X-10400000Y19150000D02*
X-10250000Y19300000D01*
X-6600000Y19300000D02*
X-3475000Y22425000D01*
X-949960Y25400000D02*
X-1400000Y25400000D01*
X-1400000Y25400000D02*
X-2550000Y26550000D01*
X-2550000Y29835000D02*
X-1270000Y31115000D01*
X-2550000Y26550000D02*
X-2550000Y29835000D01*
X8675000Y22375000D02*
X9050000Y22750000D01*
X9050000Y23500000D02*
X9950000Y24400000D01*
X9050000Y22750000D02*
X9050000Y23500000D01*
X9210040Y25400000D02*
X9650000Y25400000D01*
X9650000Y25400000D02*
X9950000Y25700000D01*
X9950000Y27650000D02*
X10150000Y27850000D01*
X9950000Y25700000D02*
X9950000Y27650000D01*
X9950000Y25100000D02*
X9650000Y25400000D01*
X9950000Y24400000D02*
X9950000Y25100000D01*
X10150000Y29855000D02*
X8890000Y31115000D01*
X10150000Y27850000D02*
X10150000Y29855000D01*
X8250000Y21500000D02*
X8250000Y21950000D01*
X8250000Y21950000D02*
X8675000Y22375000D01*
X8250000Y15100000D02*
X8550000Y14800000D01*
X8250000Y21500000D02*
X8250000Y15100000D01*
X8550000Y14350000D02*
X8550000Y14800000D01*
X7450000Y11750000D02*
X8550000Y12850000D01*
X8550000Y12850000D02*
X8550000Y14200000D01*
X8550000Y14350000D02*
X8550000Y14200000D01*
X9210040Y24749760D02*
X8750240Y24749760D01*
X8450000Y27000000D02*
X8890000Y27440000D01*
X8450000Y25050000D02*
X8450000Y27000000D01*
X8750240Y24749760D02*
X8450000Y25050000D01*
X8575040Y23900000D02*
X8575040Y24525040D01*
X8799760Y24749760D02*
X9210040Y24749760D01*
X8575040Y24525040D02*
X8799760Y24749760D01*
X8890000Y27440000D02*
X8890000Y28575000D01*
X7800000Y21850000D02*
X7800000Y22150000D01*
X8575040Y22925040D02*
X8575040Y23900000D01*
X7800000Y22150000D02*
X8575040Y22925040D01*
X7975000Y14725000D02*
X7800000Y14900000D01*
X7800000Y14900000D02*
X7800000Y21850000D01*
X8100000Y14050000D02*
X8100000Y14600000D01*
X8100000Y14600000D02*
X7975000Y14725000D01*
X7300000Y12550000D02*
X7300000Y12600000D01*
X8100000Y13400000D02*
X8100000Y14050000D01*
X7300000Y12600000D02*
X8100000Y13400000D01*
X7350000Y19950000D02*
X7350000Y22350000D01*
X8100000Y24100000D02*
X7350000Y24850000D01*
X8100000Y23100000D02*
X8100000Y24100000D01*
X7350000Y22350000D02*
X8100000Y23100000D01*
X7350000Y25200000D02*
X7350000Y24850000D01*
X7100000Y25450000D02*
X6499760Y26050240D01*
X7350000Y25200000D02*
X7100000Y25450000D01*
X6499760Y26050240D02*
X6029960Y26050240D01*
X6029960Y26050240D02*
X6029960Y26229960D01*
X6029960Y26229960D02*
X7600000Y27800000D01*
X7600000Y29865000D02*
X6350000Y31115000D01*
X7600000Y27800000D02*
X7600000Y29865000D01*
X7550000Y14500000D02*
X7350000Y14700000D01*
X7350000Y14700000D02*
X7350000Y19950000D01*
X7650000Y13950000D02*
X7650000Y14400000D01*
X7150000Y13450000D02*
X7650000Y13950000D01*
X7150000Y13350000D02*
X7150000Y13450000D01*
X7650000Y14400000D02*
X7550000Y14500000D01*
X6900000Y20250000D02*
X6900000Y22550000D01*
X6900000Y24550000D02*
X6900000Y25000000D01*
X7650000Y23800000D02*
X6900000Y24550000D01*
X7650000Y23300000D02*
X7650000Y23800000D01*
X6900000Y22550000D02*
X7650000Y23300000D01*
X6500000Y25400000D02*
X6029960Y25400000D01*
X6900000Y25000000D02*
X6500000Y25400000D01*
X6900000Y14250000D02*
X7000000Y14150000D01*
X6900000Y20250000D02*
X6900000Y14250000D01*
X6029960Y25400000D02*
X5600000Y25400000D01*
X6350000Y27450000D02*
X6350000Y28575000D01*
X5300000Y26400000D02*
X6350000Y27450000D01*
X5300000Y25700000D02*
X5300000Y26400000D01*
X5600000Y25400000D02*
X5300000Y25700000D01*
X4130040Y25400000D02*
X4550000Y25400000D01*
X4550000Y25400000D02*
X4850000Y25700000D01*
X5100000Y29825000D02*
X3810000Y31115000D01*
X5100000Y27850000D02*
X5100000Y29825000D01*
X4850000Y27600000D02*
X5100000Y27850000D01*
X4850000Y25700000D02*
X4850000Y27600000D01*
X4850000Y23650000D02*
X4850000Y24900000D01*
X4850000Y25100000D02*
X4550000Y25400000D01*
X4850000Y24900000D02*
X4850000Y25100000D01*
X4130040Y24749760D02*
X3700240Y24749760D01*
X3700240Y24749760D02*
X3400000Y25050000D01*
X4250000Y22800000D02*
X4130040Y22919960D01*
X4130040Y22919960D02*
X4130040Y24749760D01*
X4250000Y22800000D02*
X4300000Y22750000D01*
X4850000Y22750000D02*
X4300000Y22750000D01*
X3810000Y26860000D02*
X3810000Y28575000D01*
X3400000Y26450000D02*
X3810000Y26860000D01*
X3400000Y25050000D02*
X3400000Y26450000D01*
X4125000Y22275000D02*
X3650000Y22750000D01*
X3650000Y23800000D02*
X1700000Y25750000D01*
X3650000Y22750000D02*
X3650000Y23800000D01*
X4450000Y21950000D02*
X4700000Y21950000D01*
X4125000Y22275000D02*
X4450000Y21950000D01*
X949960Y26050240D02*
X949960Y26249960D01*
X2550000Y29835000D02*
X1270000Y31115000D01*
X2550000Y27850000D02*
X2550000Y29835000D01*
X949960Y26249960D02*
X2550000Y27850000D01*
X1399760Y26050240D02*
X949960Y26050240D01*
X1700000Y25750000D02*
X1399760Y26050240D01*
X4700000Y21050000D02*
X4600000Y21050000D01*
X250000Y24400000D02*
X250000Y24750000D01*
X450000Y24200000D02*
X250000Y24400000D01*
X1450000Y24200000D02*
X450000Y24200000D01*
X4600000Y21050000D02*
X1450000Y24200000D01*
X250000Y25150000D02*
X500000Y25400000D01*
X250000Y24750000D02*
X250000Y25150000D01*
X949960Y25400000D02*
X500000Y25400000D01*
X500000Y25400000D02*
X400000Y25500000D01*
X250000Y25650000D02*
X250000Y26400000D01*
X250000Y26400000D02*
X1270000Y27420000D01*
X1270000Y27420000D02*
X1270000Y28575000D01*
X400000Y25500000D02*
X250000Y25650000D01*
X-11109960Y25400000D02*
X-11550000Y25400000D01*
X-11550000Y25400000D02*
X-12650000Y26500000D01*
X-11109960Y25400000D02*
X-11550000Y25400000D01*
X-12650000Y26500000D02*
X-12650000Y29895000D01*
X-1000000Y21300000D02*
X-1000000Y23950000D01*
X-400000Y20700000D02*
X-1000000Y21300000D01*
X-12650000Y29895000D02*
X-11430000Y31115000D01*
X22900000Y8050000D02*
X23225000Y8375000D01*
X25400000Y9210040D02*
X25400000Y8750000D01*
X25700000Y8450000D02*
X28135000Y8450000D01*
X25400000Y8750000D02*
X25700000Y8450000D01*
X28135000Y8450000D02*
X28575000Y8890000D01*
X23225000Y8375000D02*
X23350000Y8500000D01*
X25400000Y8800000D02*
X25400000Y9210040D01*
X25100000Y8500000D02*
X25400000Y8800000D01*
X23350000Y8500000D02*
X25100000Y8500000D01*
X23000000Y9050000D02*
X23900000Y9950000D01*
X26050240Y9649760D02*
X26050240Y9210040D01*
X25750000Y9950000D02*
X26050240Y9649760D01*
X23900000Y9950000D02*
X25750000Y9950000D01*
X22000000Y8050000D02*
X23000000Y9050000D01*
X26050240Y9210040D02*
X26910040Y9210040D01*
X27850000Y10150000D02*
X28250000Y10150000D01*
X26910040Y9210040D02*
X27850000Y10150000D01*
X29855000Y10150000D02*
X31115000Y8890000D01*
X28250000Y10150000D02*
X29855000Y10150000D01*
X24749760Y6029960D02*
X24749760Y5600240D01*
X27450000Y6350000D02*
X28575000Y6350000D01*
X26400000Y5300000D02*
X27450000Y6350000D01*
X25050000Y5300000D02*
X26400000Y5300000D01*
X24749760Y5600240D02*
X25050000Y5300000D01*
X22000000Y6100000D02*
X22070040Y6029960D01*
X22070040Y6029960D02*
X24749760Y6029960D01*
X21350000Y6750000D02*
X22000000Y6100000D01*
X25400000Y6029960D02*
X25400000Y6450000D01*
X25400000Y6450000D02*
X26550000Y7600000D01*
X29865000Y7600000D02*
X31115000Y6350000D01*
X26550000Y7600000D02*
X29865000Y7600000D01*
X23550000Y7400000D02*
X24450000Y7400000D01*
X24450000Y7400000D02*
X25400000Y6450000D01*
X21500000Y7400000D02*
X23550000Y7400000D01*
X21350000Y7550000D02*
X21500000Y7400000D01*
X22600000Y3950000D02*
X23200000Y3350000D01*
X23200000Y3350000D02*
X25050000Y3350000D01*
X18950000Y7600000D02*
X22600000Y3950000D01*
X14350000Y7600000D02*
X18950000Y7600000D01*
X14150000Y7800000D02*
X14350000Y7600000D01*
X25400000Y4130040D02*
X25400000Y3700000D01*
X25400000Y3700000D02*
X25750000Y3350000D01*
X25750000Y3350000D02*
X28115000Y3350000D01*
X28115000Y3350000D02*
X28575000Y3810000D01*
X25050000Y3350000D02*
X25400000Y3700000D01*
X26050240Y4549760D02*
X26050240Y4130040D01*
X25750000Y4850000D02*
X26050240Y4549760D01*
X26050240Y4130040D02*
X26880040Y4130040D01*
X29875000Y5050000D02*
X31115000Y3810000D01*
X27800000Y5050000D02*
X29875000Y5050000D01*
X26880040Y4130040D02*
X27800000Y5050000D01*
X21725000Y5475000D02*
X22350000Y4850000D01*
X22350000Y4850000D02*
X25750000Y4850000D01*
X19150000Y8050000D02*
X21725000Y5475000D01*
X14850000Y8050000D02*
X19150000Y8050000D01*
X14450000Y8450000D02*
X14850000Y8050000D01*
X13800000Y8450000D02*
X14450000Y8450000D01*
X13350000Y8000000D02*
X13800000Y8450000D01*
X23500000Y2450000D02*
X24350000Y2450000D01*
X24749760Y2050240D02*
X24749760Y949960D01*
X24350000Y2450000D02*
X24749760Y2050240D01*
X22475000Y2775000D02*
X22800000Y2450000D01*
X22800000Y2450000D02*
X23500000Y2450000D01*
X22475000Y2775000D02*
X18550000Y6700000D01*
X13200000Y6700000D02*
X18550000Y6700000D01*
X24749760Y949960D02*
X24749760Y500240D01*
X27420000Y1270000D02*
X28575000Y1270000D01*
X26400000Y250000D02*
X27420000Y1270000D01*
X25000000Y250000D02*
X26400000Y250000D01*
X24749760Y500240D02*
X25000000Y250000D01*
X23500000Y2900000D02*
X24550000Y2900000D01*
X25400000Y2050000D02*
X25400000Y949960D01*
X24550000Y2900000D02*
X25400000Y2050000D01*
X22325000Y3575000D02*
X23000000Y2900000D01*
X12450000Y7150000D02*
X12750000Y7150000D01*
X12750000Y7150000D02*
X12950000Y7350000D01*
X12950000Y7350000D02*
X13450000Y7350000D01*
X18750000Y7150000D02*
X22325000Y3575000D01*
X13650000Y7150000D02*
X18750000Y7150000D01*
X13450000Y7350000D02*
X13650000Y7150000D01*
X23000000Y2900000D02*
X23500000Y2900000D01*
X25400000Y949960D02*
X25400000Y1400000D01*
X25400000Y1400000D02*
X26550000Y2550000D01*
X29835000Y2550000D02*
X31115000Y1270000D01*
X26550000Y2550000D02*
X29835000Y2550000D01*
X25400000Y-9210040D02*
X25400000Y-9650000D01*
X25400000Y-9650000D02*
X25700000Y-9950000D01*
X29855000Y-10150000D02*
X31115000Y-8890000D01*
X27850000Y-10150000D02*
X29855000Y-10150000D01*
X27650000Y-9950000D02*
X27850000Y-10150000D01*
X25700000Y-9950000D02*
X27650000Y-9950000D01*
X21450000Y-7650000D02*
X22100000Y-7650000D01*
X25100000Y-9950000D02*
X25400000Y-9650000D01*
X24400000Y-9950000D02*
X25100000Y-9950000D01*
X22100000Y-7650000D02*
X24400000Y-9950000D01*
X15700000Y-7650000D02*
X14800000Y-8550000D01*
X12850000Y-8550000D02*
X14800000Y-8550000D01*
X11750000Y-7450000D02*
X12850000Y-8550000D01*
X21450000Y-7650000D02*
X15700000Y-7650000D01*
X24749760Y-9210040D02*
X24749760Y-8800240D01*
X26790000Y-8890000D02*
X28575000Y-8890000D01*
X26350000Y-8450000D02*
X26790000Y-8890000D01*
X25100000Y-8450000D02*
X26350000Y-8450000D01*
X24749760Y-8800240D02*
X25100000Y-8450000D01*
X21900000Y-7200000D02*
X22739720Y-7200000D01*
X22739720Y-7200000D02*
X24749760Y-9210040D01*
X12550000Y-7300000D02*
X13350000Y-8100000D01*
X15500000Y-7200000D02*
X19000000Y-7200000D01*
X19000000Y-7200000D02*
X21900000Y-7200000D01*
X14600000Y-8100000D02*
X15500000Y-7200000D01*
X13350000Y-8100000D02*
X14600000Y-8100000D01*
X26050240Y-6029960D02*
X26279960Y-6029960D01*
X29865000Y-7600000D02*
X31115000Y-6350000D01*
X27850000Y-7600000D02*
X29865000Y-7600000D01*
X26279960Y-6029960D02*
X27850000Y-7600000D01*
X23350000Y-6750000D02*
X25800000Y-6750000D01*
X26050240Y-6499760D02*
X26050240Y-6029960D01*
X25800000Y-6750000D02*
X26050240Y-6499760D01*
X13350000Y-7150000D02*
X13850000Y-7650000D01*
X15150000Y-6900000D02*
X15300000Y-6750000D01*
X15300000Y-6750000D02*
X23350000Y-6750000D01*
X14400000Y-7650000D02*
X15150000Y-6900000D01*
X13850000Y-7650000D02*
X14400000Y-7650000D01*
X23900000Y-5300000D02*
X25100000Y-5300000D01*
X25100000Y-5300000D02*
X25400000Y-5600000D01*
X23625000Y-5575000D02*
X23850000Y-5350000D01*
X22000000Y-6300000D02*
X22900000Y-6300000D01*
X22900000Y-6300000D02*
X23100000Y-6100000D01*
X23100000Y-6100000D02*
X23900000Y-5300000D01*
X25400000Y-5600000D02*
X25400000Y-6029960D01*
X18000000Y-6300000D02*
X22000000Y-6300000D01*
X14850000Y-6300000D02*
X18000000Y-6300000D01*
X14150000Y-7000000D02*
X14850000Y-6300000D01*
X25400000Y-6029960D02*
X25400000Y-5600000D01*
X25400000Y-5600000D02*
X25700000Y-5300000D01*
X25700000Y-5300000D02*
X26400000Y-5300000D01*
X26400000Y-5300000D02*
X27450000Y-6350000D01*
X27450000Y-6350000D02*
X28575000Y-6350000D01*
X23350000Y-4900000D02*
X23400000Y-4850000D01*
X25100000Y-4850000D02*
X25400000Y-4550000D01*
X23400000Y-4850000D02*
X25100000Y-4850000D01*
X25400000Y-4130040D02*
X25400000Y-4550000D01*
X25400000Y-4550000D02*
X25700000Y-4850000D01*
X25700000Y-4850000D02*
X27600000Y-4850000D01*
X27600000Y-4850000D02*
X27850000Y-5100000D01*
X27850000Y-5100000D02*
X29825000Y-5100000D01*
X29825000Y-5100000D02*
X31115000Y-3810000D01*
X24749760Y-4130040D02*
X24749760Y-3700240D01*
X24749760Y-3700240D02*
X25050000Y-3400000D01*
X22900000Y-4450000D02*
X23219960Y-4130040D01*
X23219960Y-4130040D02*
X24749760Y-4130040D01*
X22450000Y-4900000D02*
X22900000Y-4450000D01*
X26810000Y-3810000D02*
X28575000Y-3810000D01*
X26400000Y-3400000D02*
X26810000Y-3810000D01*
X25050000Y-3400000D02*
X26400000Y-3400000D01*
X22250000Y-4100000D02*
X22750000Y-3600000D01*
X23850000Y-3600000D02*
X25750000Y-1700000D01*
X22750000Y-3600000D02*
X23850000Y-3600000D01*
X26050240Y-949960D02*
X26249960Y-949960D01*
X29835000Y-2550000D02*
X31115000Y-1270000D01*
X27850000Y-2550000D02*
X29835000Y-2550000D01*
X26249960Y-949960D02*
X27850000Y-2550000D01*
X26050240Y-1399760D02*
X26050240Y-949960D01*
X25750000Y-1700000D02*
X26050240Y-1399760D01*
X22250000Y-4100000D02*
X21650000Y-4700000D01*
X23075000Y-2325000D02*
X24200000Y-1200000D01*
X24400000Y-200000D02*
X24850000Y-200000D01*
X24200000Y-400000D02*
X24400000Y-200000D01*
X24200000Y-1200000D02*
X24200000Y-400000D01*
X22200000Y-3200000D02*
X23075000Y-2325000D01*
X20700000Y-4700000D02*
X22100000Y-3300000D01*
X22100000Y-3300000D02*
X22200000Y-3200000D01*
X25400000Y-949960D02*
X25400000Y-450000D01*
X25400000Y-450000D02*
X25650000Y-200000D01*
X27420000Y-1270000D02*
X28575000Y-1270000D01*
X26350000Y-200000D02*
X27420000Y-1270000D01*
X25650000Y-200000D02*
X26350000Y-200000D01*
X25150000Y-200000D02*
X25400000Y-450000D01*
X24850000Y-200000D02*
X25150000Y-200000D01*
X25400000Y11109960D02*
X25400000Y11550000D01*
X27500000Y12650000D02*
X29895000Y12650000D01*
X26700000Y11850000D02*
X27500000Y12650000D01*
X25700000Y11850000D02*
X26700000Y11850000D01*
X25400000Y11550000D02*
X25700000Y11850000D01*
X21300000Y950000D02*
X24000000Y950000D01*
X20750000Y400000D02*
X21300000Y950000D01*
X29895000Y12650000D02*
X31115000Y11430000D01*
X9210040Y-25400000D02*
X8800000Y-25400000D01*
X8800000Y-25400000D02*
X8500000Y-25700000D01*
X8500000Y-25700000D02*
X8500000Y-28185000D01*
X8500000Y-28185000D02*
X8890000Y-28575000D01*
X8100000Y-22850000D02*
X8500000Y-23250000D01*
X8500000Y-25100000D02*
X8800000Y-25400000D01*
X8500000Y-23250000D02*
X8500000Y-25100000D01*
X8100000Y-21950000D02*
X9950000Y-23800000D01*
X9210040Y-26050240D02*
X9210040Y-26910040D01*
X10150000Y-29855000D02*
X8890000Y-31115000D01*
X10150000Y-27850000D02*
X10150000Y-29855000D01*
X9210040Y-26910040D02*
X10150000Y-27850000D01*
X9649760Y-26050240D02*
X9210040Y-26050240D01*
X9950000Y-25750000D02*
X9649760Y-26050240D01*
X9950000Y-23800000D02*
X9950000Y-25750000D01*
X6029960Y-24749760D02*
X5600240Y-24749760D01*
X6350000Y-27500000D02*
X6350000Y-28575000D01*
X5300000Y-26450000D02*
X6350000Y-27500000D01*
X5300000Y-25050000D02*
X5300000Y-26450000D01*
X5600240Y-24749760D02*
X5300000Y-25050000D01*
X6100000Y-22000000D02*
X6029960Y-22070040D01*
X6029960Y-22070040D02*
X6029960Y-24749760D01*
X6800000Y-21300000D02*
X6100000Y-22000000D01*
X6029960Y-25400000D02*
X6450000Y-25400000D01*
X6450000Y-25400000D02*
X7600000Y-26550000D01*
X7600000Y-29865000D02*
X6350000Y-31115000D01*
X7600000Y-26550000D02*
X7600000Y-29865000D01*
X7400000Y-22450000D02*
X7400000Y-24450000D01*
X7400000Y-24450000D02*
X6450000Y-25400000D01*
X7600000Y-21300000D02*
X7400000Y-21500000D01*
X7400000Y-21500000D02*
X7400000Y-22450000D01*
X7550000Y-14350000D02*
X7550000Y-19000000D01*
X7750000Y-14150000D02*
X7550000Y-14350000D01*
X7550000Y-19000000D02*
X3925000Y-22625000D01*
X3925000Y-22625000D02*
X3400000Y-23150000D01*
X4130040Y-25400000D02*
X3700000Y-25400000D01*
X3700000Y-25400000D02*
X3400000Y-25700000D01*
X3400000Y-25700000D02*
X3400000Y-28165000D01*
X3400000Y-28165000D02*
X3810000Y-28575000D01*
X4130040Y-28254960D02*
X3810000Y-28575000D01*
X3400000Y-24250000D02*
X3400000Y-25100000D01*
X3700000Y-25400000D02*
X4130040Y-25400000D01*
X3400000Y-25100000D02*
X3700000Y-25400000D01*
X3400000Y-23150000D02*
X3400000Y-24250000D01*
X4130040Y-26050240D02*
X4130040Y-26930040D01*
X5050000Y-29875000D02*
X3810000Y-31115000D01*
X5050000Y-27850000D02*
X5050000Y-29875000D01*
X4130040Y-26930040D02*
X5050000Y-27850000D01*
X4850000Y-24850000D02*
X4850000Y-25750000D01*
X4549760Y-26050240D02*
X4130040Y-26050240D01*
X4850000Y-25750000D02*
X4549760Y-26050240D01*
X5425000Y-21775000D02*
X4850000Y-22350000D01*
X7950000Y-13350000D02*
X8400000Y-13800000D01*
X8400000Y-13800000D02*
X8400000Y-14400000D01*
X8400000Y-14400000D02*
X8000000Y-14800000D01*
X8000000Y-14800000D02*
X8000000Y-19200000D01*
X8000000Y-19200000D02*
X5425000Y-21775000D01*
X4850000Y-22350000D02*
X4850000Y-24850000D01*
X2500000Y-23650000D02*
X2500000Y-24350000D01*
X2100240Y-24749760D02*
X949960Y-24749760D01*
X2500000Y-24350000D02*
X2100240Y-24749760D01*
X2500000Y-23650000D02*
X2500000Y-23350000D01*
X2900000Y-22350000D02*
X2500000Y-22750000D01*
X6650000Y-13200000D02*
X6650000Y-18600000D01*
X2900000Y-22350000D02*
X6650000Y-18600000D01*
X2500000Y-22750000D02*
X2500000Y-23350000D01*
X949960Y-24749760D02*
X550240Y-24749760D01*
X1270000Y-27420000D02*
X1270000Y-28575000D01*
X250000Y-26400000D02*
X1270000Y-27420000D01*
X250000Y-25050000D02*
X250000Y-26400000D01*
X550240Y-24749760D02*
X250000Y-25050000D01*
X2950000Y-23850000D02*
X2950000Y-24550000D01*
X2100000Y-25400000D02*
X949960Y-25400000D01*
X2950000Y-24550000D02*
X2100000Y-25400000D01*
X2950000Y-23850000D02*
X2950000Y-23550000D01*
X3575000Y-22325000D02*
X2950000Y-22950000D01*
X2950000Y-22950000D02*
X2950000Y-23550000D01*
X6850000Y-12400000D02*
X7300000Y-12850000D01*
X7300000Y-13450000D02*
X7100000Y-13650000D01*
X7300000Y-12850000D02*
X7300000Y-13450000D01*
X7100000Y-18800000D02*
X3575000Y-22325000D01*
X7100000Y-13650000D02*
X7100000Y-18800000D01*
X949960Y-25400000D02*
X1400000Y-25400000D01*
X1400000Y-25400000D02*
X2550000Y-26550000D01*
X2550000Y-29835000D02*
X1270000Y-31115000D01*
X2550000Y-26550000D02*
X2550000Y-29835000D01*
X-9210040Y-25400000D02*
X-9650000Y-25400000D01*
X-9650000Y-25400000D02*
X-9950000Y-25700000D01*
X-10150000Y-29855000D02*
X-8890000Y-31115000D01*
X-10150000Y-27850000D02*
X-10150000Y-29855000D01*
X-9950000Y-27650000D02*
X-10150000Y-27850000D01*
X-9950000Y-25700000D02*
X-9950000Y-27650000D01*
X-8950000Y-23500000D02*
X-9950000Y-24500000D01*
X-9650000Y-25400000D02*
X-9210040Y-25400000D01*
X-9950000Y-25100000D02*
X-9650000Y-25400000D01*
X-9950000Y-24500000D02*
X-9950000Y-25100000D01*
X-7450000Y-11750000D02*
X-8550000Y-12850000D01*
X-8550000Y-12850000D02*
X-8550000Y-14800000D01*
X-8550000Y-14800000D02*
X-7975000Y-15375000D01*
X-7975000Y-15375000D02*
X-7350000Y-16000000D01*
X-7350000Y-21900000D02*
X-8950000Y-23500000D01*
X-7350000Y-16000000D02*
X-7350000Y-21900000D01*
X-9210040Y-24749760D02*
X-8750240Y-24749760D01*
X-8450000Y-25050000D02*
X-8450000Y-28135000D01*
X-8750240Y-24749760D02*
X-8450000Y-25050000D01*
X-8450000Y-28135000D02*
X-8890000Y-28575000D01*
X-8075000Y-24425000D02*
X-8399760Y-24749760D01*
X-8399760Y-24749760D02*
X-9210040Y-24749760D01*
X-7250000Y-23600000D02*
X-8075000Y-24425000D01*
X-7250000Y-23600000D02*
X-6900000Y-23250000D01*
X-6900000Y-23250000D02*
X-6900000Y-15800000D01*
X-7300000Y-12550000D02*
X-8100000Y-13350000D01*
X-8100000Y-13350000D02*
X-8100000Y-14600000D01*
X-6900000Y-15800000D02*
X-8100000Y-14600000D01*
X-6029960Y-26050240D02*
X-6029960Y-26229960D01*
X-6029960Y-26229960D02*
X-7600000Y-27800000D01*
X-7600000Y-27800000D02*
X-7600000Y-29865000D01*
X-7600000Y-29865000D02*
X-6350000Y-31115000D01*
X-6499760Y-26050240D02*
X-6029960Y-26050240D01*
X-6750000Y-24700000D02*
X-6750000Y-25800000D01*
X-6750000Y-25800000D02*
X-6499760Y-26050240D01*
X-6750000Y-23750000D02*
X-6750000Y-24700000D01*
X-7150000Y-13350000D02*
X-7650000Y-13850000D01*
X-7025000Y-15025000D02*
X-6450000Y-15600000D01*
X-7650000Y-14400000D02*
X-7025000Y-15025000D01*
X-7650000Y-13850000D02*
X-7650000Y-14400000D01*
X-6450000Y-23150000D02*
X-6450000Y-23450000D01*
X-6450000Y-15600000D02*
X-6450000Y-23150000D01*
X-6450000Y-23450000D02*
X-6750000Y-23750000D01*
X-5300000Y-24300000D02*
X-5300000Y-25100000D01*
X-5600000Y-25400000D02*
X-6029960Y-25400000D01*
X-5300000Y-25100000D02*
X-5600000Y-25400000D01*
X-6000000Y-22950000D02*
X-6000000Y-23050000D01*
X-5300000Y-23750000D02*
X-5300000Y-24300000D01*
X-6000000Y-23050000D02*
X-5300000Y-23750000D01*
X-6000000Y-15150000D02*
X-7000000Y-14150000D01*
X-6000000Y-22950000D02*
X-6000000Y-15150000D01*
X-6029960Y-25400000D02*
X-5600000Y-25400000D01*
X-5600000Y-25400000D02*
X-5300000Y-25700000D01*
X-5300000Y-25700000D02*
X-5300000Y-26400000D01*
X-5300000Y-26400000D02*
X-6350000Y-27450000D01*
X-6350000Y-27450000D02*
X-6350000Y-28575000D01*
X-4130040Y-25400000D02*
X-4550000Y-25400000D01*
X-5100000Y-29825000D02*
X-3810000Y-31115000D01*
X-5100000Y-27900000D02*
X-5100000Y-29825000D01*
X-4850000Y-27650000D02*
X-5100000Y-27900000D01*
X-4850000Y-25700000D02*
X-4850000Y-27650000D01*
X-4550000Y-25400000D02*
X-4850000Y-25700000D01*
X-4900000Y-23250000D02*
X-4850000Y-23300000D01*
X-4600000Y-25400000D02*
X-4130040Y-25400000D01*
X-4850000Y-25150000D02*
X-4600000Y-25400000D01*
X-4850000Y-23300000D02*
X-4850000Y-25150000D01*
X-4450000Y-22750000D02*
X-4130040Y-23069960D01*
X-4130040Y-23069960D02*
X-4130040Y-24749760D01*
X-4450000Y-22750000D02*
X-4850000Y-22350000D01*
X-4130040Y-24749760D02*
X-3700240Y-24749760D01*
X-3700240Y-24749760D02*
X-3400000Y-25050000D01*
X-3400000Y-25050000D02*
X-3400000Y-28165000D01*
X-3400000Y-28165000D02*
X-3810000Y-28575000D01*
X-3950000Y-22300000D02*
X-3650000Y-22600000D01*
X-3650000Y-23800000D02*
X-1700000Y-25750000D01*
X-3650000Y-22600000D02*
X-3650000Y-23800000D01*
X-949960Y-26050240D02*
X-949960Y-26249960D01*
X-2550000Y-29835000D02*
X-1270000Y-31115000D01*
X-2550000Y-27850000D02*
X-2550000Y-29835000D01*
X-949960Y-26249960D02*
X-2550000Y-27850000D01*
X-1700000Y-25750000D02*
X-1399760Y-26050240D01*
X-1399760Y-26050240D02*
X-949960Y-26050240D01*
X-3950000Y-22300000D02*
X-4700000Y-21550000D01*
X-2400000Y-22950000D02*
X-1150000Y-24200000D01*
X-200000Y-24400000D02*
X-200000Y-24900000D01*
X-400000Y-24200000D02*
X-200000Y-24400000D01*
X-1150000Y-24200000D02*
X-400000Y-24200000D01*
X-525000Y-26675000D02*
X-1270000Y-27420000D01*
X-1270000Y-27420000D02*
X-1270000Y-28575000D01*
X-250000Y-25650000D02*
X-250000Y-26400000D01*
X-250000Y-26400000D02*
X-525000Y-26675000D01*
X-500000Y-25400000D02*
X-250000Y-25650000D01*
X-200000Y-24900000D02*
X-200000Y-25100000D01*
X-200000Y-25100000D02*
X-500000Y-25400000D01*
X-500000Y-25400000D02*
X-949960Y-25400000D01*
X-4700000Y-20650000D02*
X-2400000Y-22950000D01*
X-949960Y-25400000D02*
X-500000Y-25400000D01*
X-1700000Y-28145000D02*
X-1270000Y-28575000D01*
X350000Y-20800000D02*
X1000000Y-21450000D01*
X1000000Y-21450000D02*
X1000000Y-23950000D01*
X11109960Y-25400000D02*
X11550000Y-25400000D01*
X11550000Y-25400000D02*
X12650000Y-26500000D01*
X12650000Y-26500000D02*
X12650000Y-29895000D01*
X12650000Y-29895000D02*
X11430000Y-31115000D01*
D30*
X-20400000Y1600000D02*
X-20250000Y1450000D01*
X-19200000Y1450000D02*
X-18415000Y2235000D01*
X-20250000Y1450000D02*
X-19200000Y1450000D01*
X-18415000Y2235000D02*
X-18415000Y2700000D01*
D29*
X-18415000Y2700000D02*
X-18415000Y3921000D01*
X-18415000Y2700000D02*
X-18415000Y3598000D01*
X-18415000Y2700000D02*
X-18415000Y3035000D01*
X-18415000Y2700000D02*
X-18415000Y3191000D01*
X-18415000Y2700000D02*
X-18415000Y2435000D01*
X-18415000Y2435000D02*
X-19250000Y1600000D01*
X-19250000Y1600000D02*
X-20400000Y1600000D01*
X-18415000Y3921000D02*
X-17764000Y4572000D01*
X-18415000Y3598000D02*
X-18881000Y4064000D01*
D30*
X2185000Y18415000D02*
X1450000Y19150000D01*
X1450000Y19150000D02*
X1450000Y20250000D01*
X1450000Y20250000D02*
X1600000Y20400000D01*
D29*
X2700000Y18415000D02*
X3598000Y18415000D01*
X2700000Y18415000D02*
X3921000Y18415000D01*
D30*
X2700000Y18415000D02*
X2185000Y18415000D01*
D29*
X3598000Y18415000D02*
X4064000Y18881000D01*
X2700000Y18415000D02*
X2385000Y18415000D01*
X3921000Y18415000D02*
X4572000Y17764000D01*
D30*
X-10441635Y-12450000D02*
X-10774066Y-12117569D01*
D29*
X-10774066Y-12117569D02*
X-10441635Y-12450000D01*
D30*
X-12976330Y-10182330D02*
X-12709305Y-10182330D01*
X-12709305Y-10182330D02*
X-12117569Y-10774066D01*
X-13100000Y-10058660D02*
X-12976330Y-10182330D01*
D29*
X-12976330Y-10182330D02*
X-13100000Y-10058660D01*
X-12117569Y-10774066D02*
X-12709305Y-10182330D01*
X-12384594Y-10774066D02*
X-12117569Y-10774066D01*
D30*
X-13100000Y-9200000D02*
X-13100000Y-10058660D01*
X-9100000Y-12450000D02*
X-10441635Y-12450000D01*
X20400000Y-1600000D02*
X20250000Y-1450000D01*
X19150000Y-1450000D02*
X18415000Y-2185000D01*
X20250000Y-1450000D02*
X19150000Y-1450000D01*
X18415000Y-2185000D02*
X18415000Y-2700000D01*
D29*
X18415000Y-2385000D02*
X19200000Y-1600000D01*
X19200000Y-1600000D02*
X20400000Y-1600000D01*
X18415000Y-2700000D02*
X18415000Y-3794000D01*
X18415000Y-2700000D02*
X18415000Y-3598000D01*
X18415000Y-3598000D02*
X18881000Y-4064000D01*
X18415000Y-2700000D02*
X18415000Y-2385000D01*
X18415000Y-3794000D02*
X17764000Y-4445000D01*
D30*
X-1600000Y-20400000D02*
X-1450000Y-20250000D01*
X-1450000Y-19200000D02*
X-2235000Y-18415000D01*
X-1450000Y-20250000D02*
X-1450000Y-19200000D01*
X-2235000Y-18415000D02*
X-2700000Y-18415000D01*
D29*
X-2700000Y-18415000D02*
X-3921000Y-18415000D01*
X-2700000Y-18415000D02*
X-3725000Y-18415000D01*
X-2700000Y-18415000D02*
X-3035000Y-18415000D01*
X-2700000Y-18415000D02*
X-2385000Y-18415000D01*
X-2385000Y-18415000D02*
X-1600000Y-19200000D01*
X-1600000Y-19200000D02*
X-1600000Y-20400000D01*
X-3921000Y-18415000D02*
X-4572000Y-17764000D01*
X-3725000Y-18415000D02*
X-4064000Y-18754000D01*
X-4011165Y12850000D02*
X-3146625Y11985460D01*
X-8300000Y11300000D02*
X-11850000Y11300000D01*
X-12598025Y11700000D02*
X-13670966Y12772941D01*
X-12250000Y11700000D02*
X-12598025Y11700000D01*
X-11850000Y11300000D02*
X-12250000Y11700000D01*
X-6850000Y11300000D02*
X-8300000Y11300000D01*
X-13498025Y12600000D02*
X-13670966Y12772941D01*
X-6850000Y11300000D02*
X-5300000Y12850000D01*
X-5300000Y12850000D02*
X-4011165Y12850000D01*
X-10650000Y11750000D02*
X-11000000Y11750000D01*
X-11000000Y11750000D02*
X-11650000Y12400000D01*
X-7950000Y11750000D02*
X-10650000Y11750000D01*
X-11874915Y13824915D02*
X-11874915Y14568992D01*
X-11650000Y13600000D02*
X-11874915Y13824915D01*
X-11650000Y12400000D02*
X-11650000Y13600000D01*
X-7050000Y11750000D02*
X-7950000Y11750000D01*
X-5500000Y13300000D02*
X-3754059Y13300000D01*
X-7050000Y11750000D02*
X-5500000Y13300000D01*
X-3754059Y13300000D02*
X-2793072Y12339013D01*
X12772941Y-13670966D02*
X9351975Y-10250000D01*
X9351975Y-10250000D02*
X8482233Y-10250000D01*
X12772941Y-13670966D02*
X12351975Y-13250000D01*
X8482233Y-10250000D02*
X6682159Y-8449926D01*
X12800000Y-12800000D02*
X12550000Y-12550000D01*
X12550000Y-12550000D02*
X12400000Y-12550000D01*
X8200000Y-9250000D02*
X8200000Y-9260661D01*
X8750000Y-9800000D02*
X8200000Y-9250000D01*
X9650000Y-9800000D02*
X8750000Y-9800000D01*
X12400000Y-12550000D02*
X9650000Y-9800000D01*
X12975000Y-12975000D02*
X12800000Y-12800000D01*
X13970000Y-13970000D02*
X12975000Y-12975000D01*
X13970000Y-14605000D02*
X13970000Y-13970000D01*
X13335000Y-15240000D02*
X13970000Y-14605000D01*
X12545923Y-15240000D02*
X13335000Y-15240000D01*
X11874915Y-14568992D02*
X12545923Y-15240000D01*
X8200000Y-9260661D02*
X7035712Y-8096373D01*
X12750000Y-12100000D02*
X12600000Y-12100000D01*
X9850000Y-9350000D02*
X8996447Y-9350000D01*
X12600000Y-12100000D02*
X9850000Y-9350000D01*
X13670966Y-12772941D02*
X12998025Y-12100000D01*
X12998025Y-12100000D02*
X12750000Y-12100000D01*
X8996447Y-9350000D02*
X7389266Y-7742819D01*
X13200000Y-11400000D02*
X12550000Y-11400000D01*
X10050000Y-8900000D02*
X9253553Y-8900000D01*
X12550000Y-11400000D02*
X10050000Y-8900000D01*
X14568992Y-11874915D02*
X14094077Y-11400000D01*
X14094077Y-11400000D02*
X13200000Y-11400000D01*
X9253553Y-8900000D02*
X7742819Y-7389266D01*
X14568992Y-11874915D02*
X14124077Y-11430000D01*
D30*
X-18650000Y-25050000D02*
X-17100000Y-23500000D01*
X-17100000Y-23500000D02*
X-16700000Y-23500000D01*
X-16700000Y-23500000D02*
X-15950000Y-24250000D01*
X-15950000Y-24250000D02*
X-15950000Y-24840000D01*
X-19800000Y-25050000D02*
X-18650000Y-25050000D01*
X-19800000Y-25050000D02*
X-19800000Y-26936000D01*
X-21300000Y-23550000D02*
X-19800000Y-25050000D01*
X-21300000Y-23550000D02*
X-21300000Y-24100000D01*
X-21300000Y-23500000D02*
X-21300000Y-23550000D01*
X-19800000Y-26936000D02*
X-19326330Y-27409670D01*
X-15950000Y-24840000D02*
X-16367183Y-25257183D01*
X-17922817Y-26812817D02*
X-18519670Y-27409670D01*
X-18519670Y-27409670D02*
X-19326330Y-27409670D01*
X-27550000Y-20003503D02*
X-27550000Y-20350000D01*
X-27550000Y-20003503D02*
X-26776066Y-19229569D01*
X-20835242Y-22674993D02*
X-21300000Y-23139751D01*
X-21300000Y-23139751D02*
X-21300000Y-23500000D01*
X-19621270Y-21035483D02*
X-21035483Y-19621270D01*
X-20835242Y-22674993D02*
X-19621270Y-21461021D01*
X-19621270Y-21461021D02*
X-19621270Y-21035483D01*
D29*
X-22941136Y16654957D02*
X-22941136Y17291136D01*
X-22941136Y17291136D02*
X-23500000Y17850000D01*
X-25153909Y17391091D02*
X-25290000Y17527182D01*
X-25290000Y17527182D02*
X-25290000Y21700000D01*
X-22941136Y16654957D02*
X-24417775Y16654957D01*
X-24417775Y16654957D02*
X-25153909Y17391091D01*
X-29106726Y-16898909D02*
X-29598909Y-16898909D01*
X-26696497Y-19150000D02*
X-26776066Y-19229569D01*
X-26776066Y-19229569D02*
X-27046497Y-19500000D01*
X-27046497Y-19500000D02*
X-27750000Y-19500000D01*
X-28400000Y-18850000D02*
X-28400000Y-18166497D01*
X-27750000Y-19500000D02*
X-28400000Y-18850000D01*
X-28400000Y-18166497D02*
X-28119569Y-17886066D01*
X-28119569Y-17886066D02*
X-29106726Y-16898909D01*
X-26776066Y-19229569D02*
X-26776066Y-19298884D01*
X-21300000Y-23139751D02*
X-21300000Y-23500000D01*
X-19621270Y-21461021D02*
X-19621270Y-21035483D01*
D30*
X19901846Y-23496051D02*
X17209872Y-23496051D01*
X17209872Y-23496051D02*
X16300000Y-22586179D01*
X16300000Y-22586179D02*
X16300000Y-21550000D01*
X16300000Y-21550000D02*
X20650000Y-17200000D01*
X20650000Y-17200000D02*
X21690128Y-17200000D01*
X21690128Y-17200000D02*
X22659037Y-18168909D01*
X22659037Y-18168909D02*
X23741091Y-18168909D01*
D29*
X16654957Y-22941136D02*
X17208821Y-23495000D01*
X17208821Y-23495000D02*
X19902898Y-23495000D01*
X22043111Y-17552983D02*
X21840128Y-17350000D01*
X16450000Y-22736179D02*
X16654957Y-22941136D01*
X22043111Y-17552983D02*
X22659037Y-18168909D01*
X22659037Y-18168909D02*
X23741091Y-18168909D01*
D30*
X25290000Y-21700000D02*
X25290000Y-18162182D01*
X25290000Y-18162182D02*
X23782775Y-16654957D01*
X23782775Y-16654957D02*
X22941136Y-16654957D01*
D29*
X24518909Y-17391091D02*
X25291051Y-18163233D01*
X25291051Y-18163233D02*
X25291051Y-21698949D01*
X22941136Y-16654957D02*
X23782775Y-16654957D01*
X23782775Y-16654957D02*
X24518909Y-17391091D01*
D30*
X-16750303Y-22449697D02*
X-18207056Y-22449697D01*
X-18000303Y-22449697D02*
X-18207056Y-22449697D01*
X-15250000Y-23950000D02*
X-16750303Y-22449697D01*
X-15250000Y-25483503D02*
X-15250000Y-23950000D01*
X-15695431Y-25928934D02*
X-15250000Y-25483503D01*
X-14900000Y-26250000D02*
X-14550000Y-25900000D01*
X-14550000Y-25900000D02*
X-14550000Y-23650000D01*
X-14550000Y-23650000D02*
X-20250000Y-17950000D01*
X-20250000Y-17950000D02*
X-22192641Y-17950000D01*
X-15650000Y-27000000D02*
X-14900000Y-26250000D01*
X-22192641Y-17950000D02*
X-22449697Y-18207056D01*
D29*
X-22242641Y-18000000D02*
X-22449697Y-18207056D01*
X-22342641Y-18100000D02*
X-22449697Y-18207056D01*
X-22022641Y-17780000D02*
X-22449697Y-18207056D01*
D30*
X-17038934Y-24585431D02*
X-17500000Y-25046497D01*
X-16050000Y-27000000D02*
X-15650000Y-27000000D01*
X-17500000Y-25550000D02*
X-16050000Y-27000000D01*
X-17500000Y-25046497D02*
X-17500000Y-25550000D01*
X-14812944Y-10570303D02*
X-16270303Y-10570303D01*
X-16270303Y-10570303D02*
X-17050000Y-11350000D01*
D29*
X-16270303Y-10570303D02*
X-17050000Y-11350000D01*
D30*
X-10570303Y-14812944D02*
X-10570303Y-16270303D01*
X-10570303Y-16270303D02*
X-11300000Y-17000000D01*
D29*
X-11300000Y-17000000D02*
X-10570303Y-16270303D01*
X-21754481Y-21755754D02*
X-23248727Y-23250000D01*
X-23248727Y-23250000D02*
X-23250000Y-23250000D01*
X-21294862Y-22215373D02*
X-22279489Y-23200000D01*
X-22279489Y-23200000D02*
X-22300000Y-23200000D01*
X-22150000Y22150000D02*
X-21698949Y21698949D01*
X-19349034Y20247059D02*
X-20247059Y20247059D01*
X-20247059Y20247059D02*
X-21698949Y21698949D01*
X-22750000Y-15300000D02*
X-21800000Y-15300000D01*
X-21800000Y-15300000D02*
X-16600000Y-20500000D01*
X-32300000Y-15300000D02*
X-33700000Y-13900000D01*
X-22750000Y-15300000D02*
X-32300000Y-15300000D01*
X-16075000Y23275000D02*
X-17050000Y24250000D01*
X-33700000Y-13900000D02*
X-33700000Y13700000D01*
X-32600000Y14800000D02*
X-28500000Y14800000D01*
X-33700000Y13700000D02*
X-32600000Y14800000D01*
X-21750000Y14800000D02*
X-15150000Y21400000D01*
X-15150000Y21400000D02*
X-15150000Y22350000D01*
X-15150000Y22350000D02*
X-16075000Y23275000D01*
X-28500000Y14800000D02*
X-21750000Y14800000D01*
X-17050000Y24250000D02*
X-18900000Y24250000D01*
X-18900000Y24250000D02*
X-19400000Y24750000D01*
X-19400000Y24750000D02*
X-21155796Y24750000D01*
X-21155796Y24750000D02*
X-21697898Y25292102D01*
X-18750000Y22050000D02*
X-18750000Y21444077D01*
X-21698949Y23498949D02*
X-21698949Y25291051D01*
X-19345085Y21145085D02*
X-21698949Y23498949D01*
X-18750000Y21444077D02*
X-18451008Y21145085D01*
X-18451008Y21145085D02*
X-19345085Y21145085D01*
X-18750000Y21444077D02*
X-18451008Y21145085D01*
X-21145085Y18451008D02*
X-22043110Y18451008D01*
X-22043110Y18451008D02*
X-23495000Y19902898D01*
X-20048025Y19150000D02*
X-18900000Y19150000D01*
X-20050000Y19151975D02*
X-20247059Y19349034D01*
X-20247059Y19349034D02*
X-21149034Y19349034D01*
X-21149034Y19349034D02*
X-23495000Y21695000D01*
X-20247059Y19349034D02*
X-20048025Y19150000D01*
X-32100000Y-14850000D02*
X-33250000Y-13700000D01*
X-24200000Y-14850000D02*
X-32100000Y-14850000D01*
X-23350000Y-14000000D02*
X-24200000Y-14850000D01*
X-21800000Y-14000000D02*
X-23350000Y-14000000D01*
X-15750000Y23600000D02*
X-16850000Y24700000D01*
X-33250000Y-13700000D02*
X-33250000Y13500000D01*
X-33250000Y13500000D02*
X-32850000Y13900000D01*
X-32400000Y14350000D02*
X-29100000Y14350000D01*
X-32850000Y13900000D02*
X-32400000Y14350000D01*
X-21550000Y14350000D02*
X-14700000Y21200000D01*
X-14700000Y21200000D02*
X-14700000Y22550000D01*
X-14700000Y22550000D02*
X-15750000Y23600000D01*
X-22200000Y26500000D02*
X-23493949Y25206051D01*
X-23493949Y25206051D02*
X-23493949Y23496051D01*
X-29100000Y14350000D02*
X-21550000Y14350000D01*
X-16850000Y24700000D02*
X-18700000Y24700000D01*
X-18700000Y24700000D02*
X-19200000Y25200000D01*
X-19200000Y25200000D02*
X-19850000Y25200000D01*
X-19850000Y25200000D02*
X-21150000Y26500000D01*
X-21150000Y26500000D02*
X-22200000Y26500000D01*
X-23495000Y21695000D02*
X-23495000Y23495000D01*
X-18900000Y19150000D02*
X-16450000Y21600000D01*
X-16450000Y21600000D02*
X-16450000Y21850000D01*
X-16450000Y21850000D02*
X-17750000Y23150000D01*
X-17750000Y23150000D02*
X-18250000Y23150000D01*
X21145085Y-18451008D02*
X22043110Y-18451008D01*
X22043110Y-18451008D02*
X23495000Y-19902898D01*
X20247059Y-19349034D02*
X21149034Y-19349034D01*
X23495000Y-21695000D02*
X23495000Y-23495000D01*
X21149034Y-19349034D02*
X23495000Y-21695000D01*
X19349034Y-20247059D02*
X20247059Y-20247059D01*
X20247059Y-20247059D02*
X21698949Y-21698949D01*
X18451008Y-21145085D02*
X19345085Y-21145085D01*
X21698949Y-23498949D02*
X21698949Y-25291051D01*
X19345085Y-21145085D02*
X21698949Y-23498949D01*
X17725000Y11875000D02*
X18650000Y12800000D01*
X-1200000Y1800000D02*
X-3500000Y4100000D01*
X4150000Y1800000D02*
X-1200000Y1800000D01*
X-3500000Y6100000D02*
X-3500000Y6650000D01*
X-3500000Y4100000D02*
X-3500000Y6100000D01*
X6650000Y3500000D02*
X6650000Y3300000D01*
X6650000Y3300000D02*
X5550000Y2200000D01*
X5550000Y2200000D02*
X4550000Y2200000D01*
X4550000Y2200000D02*
X4150000Y1800000D01*
X-6032233Y7800000D02*
X-3850000Y7800000D01*
X-3850000Y7800000D02*
X-3500000Y7450000D01*
X-3500000Y7450000D02*
X-3500000Y6650000D01*
X-6682159Y8449926D02*
X-6032233Y7800000D01*
X6650000Y3500000D02*
X6650000Y3650000D01*
X6650000Y3650000D02*
X6650000Y4150000D01*
X6650000Y4850000D02*
X7050000Y5250000D01*
X6650000Y4150000D02*
X6650000Y4850000D01*
X16600000Y10750000D02*
X16200000Y10350000D01*
X16600000Y10750000D02*
X17725000Y11875000D01*
X18650000Y12800000D02*
X18650000Y17942893D01*
X18650000Y17942893D02*
X19419835Y18712728D01*
X3950000Y4150000D02*
X3400000Y4150000D01*
X-2600000Y7903301D02*
X-4914392Y10217693D01*
X-2600000Y4550000D02*
X-2600000Y7903301D01*
X-1500000Y3450000D02*
X-2600000Y4550000D01*
X2700000Y3450000D02*
X-1500000Y3450000D01*
X3400000Y4150000D02*
X2700000Y3450000D01*
X3350000Y4750000D02*
X2500000Y3900000D01*
X-2150000Y8160407D02*
X-4560839Y10571246D01*
X-2150000Y4750000D02*
X-2150000Y8160407D01*
X-1300000Y3900000D02*
X-2150000Y4750000D01*
X2500000Y3900000D02*
X-1300000Y3900000D01*
X250000Y9150000D02*
X250000Y8300000D01*
X2700000Y5850000D02*
X3900000Y5850000D01*
X250000Y8300000D02*
X2700000Y5850000D01*
X250000Y9600000D02*
X250000Y9150000D01*
X250000Y10000000D02*
X250000Y9600000D01*
X1169923Y12130078D02*
X250000Y11210155D01*
X250000Y11210155D02*
X250000Y10000000D01*
X1394923Y12355078D02*
X1169923Y12130078D01*
X1394923Y12355078D02*
X2085965Y13046120D01*
X4700000Y5250000D02*
X4500000Y5250000D01*
X4500000Y5250000D02*
X3900000Y5850000D01*
X1700000Y11950000D02*
X1700000Y11953049D01*
X1700000Y11953049D02*
X2439518Y12692567D01*
X700000Y8900000D02*
X700000Y8500000D01*
X2900000Y6300000D02*
X4100000Y6300000D01*
X700000Y8500000D02*
X2900000Y6300000D01*
X700000Y9300000D02*
X700000Y8900000D01*
X700000Y10000000D02*
X700000Y9300000D01*
X1700000Y11950000D02*
X700000Y10950000D01*
X700000Y10950000D02*
X700000Y10000000D01*
X4500000Y5900000D02*
X4100000Y6300000D01*
X5250000Y5900000D02*
X4500000Y5900000D01*
X2150000Y11695941D02*
X2793072Y12339013D01*
X1150000Y10150000D02*
X1150000Y9700000D01*
X2150000Y11695941D02*
X1150000Y10695941D01*
X1150000Y10695941D02*
X1150000Y10150000D01*
X4750000Y6550000D02*
X4500000Y6550000D01*
X4500000Y6550000D02*
X4300000Y6750000D01*
X1150000Y8700000D02*
X3100000Y6750000D01*
X3100000Y6750000D02*
X4300000Y6750000D01*
X1150000Y9700000D02*
X1150000Y8700000D01*
X15450000Y16000000D02*
X15300000Y16000000D01*
X13900000Y18600000D02*
X13350000Y19150000D01*
X13900000Y17400000D02*
X13900000Y18600000D01*
X15300000Y16000000D02*
X13900000Y17400000D01*
X9850000Y16250000D02*
X9850000Y15000000D01*
X4575379Y12000000D02*
X3853732Y11278353D01*
X6300000Y12000000D02*
X4575379Y12000000D01*
X7200000Y11100000D02*
X6300000Y12000000D01*
X9850000Y14350000D02*
X9850000Y13700000D01*
X9850000Y14350000D02*
X9850000Y15000000D01*
X9850000Y12850000D02*
X8100000Y11100000D01*
X8100000Y11100000D02*
X7200000Y11100000D01*
X9850000Y13700000D02*
X9850000Y12850000D01*
X13350000Y19150000D02*
X12750000Y19150000D01*
X12750000Y19150000D02*
X9850000Y16250000D01*
X16350000Y14150000D02*
X16350000Y17940990D01*
X16350000Y17940990D02*
X18359175Y19950165D01*
X16350000Y12100000D02*
X15650000Y11400000D01*
X16350000Y14150000D02*
X16350000Y12100000D01*
X14500000Y11400000D02*
X15650000Y11400000D01*
X14400000Y11300000D02*
X14500000Y11400000D01*
X9476777Y9123224D02*
X9753553Y9400000D01*
X13450000Y10350000D02*
X14400000Y11300000D01*
X12000000Y10350000D02*
X13450000Y10350000D01*
X11050000Y9400000D02*
X12000000Y10350000D01*
X9753553Y9400000D02*
X11050000Y9400000D01*
X9476777Y9123224D02*
X8603553Y8250000D01*
X8603553Y8250000D02*
X7742819Y7389266D01*
X18000000Y18000000D02*
X19066282Y19066282D01*
X18000000Y13450000D02*
X18000000Y18000000D01*
X9330331Y8269670D02*
X10010661Y8950000D01*
X13900000Y9900000D02*
X14750000Y10750000D01*
X12200000Y9900000D02*
X13900000Y9900000D01*
X11250000Y8950000D02*
X12200000Y9900000D01*
X10010661Y8950000D02*
X11250000Y8950000D01*
X9330331Y8269670D02*
X8096373Y7035712D01*
X16700000Y11800000D02*
X16800000Y11900000D01*
X16800000Y17507107D02*
X18712728Y19419835D01*
X16800000Y11900000D02*
X16800000Y17507107D01*
X14300000Y9400000D02*
X16700000Y11800000D01*
X10208884Y8441117D02*
X10267767Y8500000D01*
X12350000Y9400000D02*
X14300000Y9400000D01*
X11450000Y8500000D02*
X12350000Y9400000D01*
X11400000Y8500000D02*
X11450000Y8500000D01*
X10267767Y8500000D02*
X11400000Y8500000D01*
X10208884Y8441117D02*
X8449926Y6682159D01*
X4600000Y3550000D02*
X4200000Y3550000D01*
X2900000Y3000000D02*
X-1700000Y3000000D01*
X3400000Y3500000D02*
X2900000Y3000000D01*
X4150000Y3500000D02*
X3400000Y3500000D01*
X4200000Y3550000D02*
X4150000Y3500000D01*
X-3050000Y7646194D02*
X-5267946Y9864140D01*
X-1700000Y3000000D02*
X-3050000Y4350000D01*
X-3050000Y4350000D02*
X-3050000Y7646194D01*
X-13399674Y-1732412D02*
X-14050000Y-2382738D01*
X-14050000Y-2382738D02*
X-14050000Y-3000000D01*
X-14050000Y-3000000D02*
X-13861091Y-3188909D01*
X-13861091Y-3188909D02*
X-13861091Y-4111091D01*
X-3136845Y14097000D02*
X-3822000Y14097000D01*
X-2085965Y13046120D02*
X-3136845Y14097000D01*
X-15628909Y-28821091D02*
X-16759582Y-29951764D01*
X-16759582Y-29951764D02*
X-16759582Y-30865418D01*
D30*
X-23367966Y-22450000D02*
X-24250000Y-22450000D01*
X-22214100Y-21296134D02*
X-23367966Y-22450000D01*
X-19950000Y-28500000D02*
X-18295340Y-28500000D01*
X-17251066Y-27484569D02*
X-18236827Y-28470330D01*
X-16965431Y-27484569D02*
X-15628909Y-28821091D01*
X-17251066Y-27484569D02*
X-16965431Y-27484569D01*
X-18265670Y-28470330D02*
X-18295340Y-28500000D01*
X-18236827Y-28470330D02*
X-18265670Y-28470330D01*
X-23050000Y-16000000D02*
X-25032818Y-16000000D01*
X-25153909Y-16121091D02*
X-25032818Y-16000000D01*
X-27447817Y-18557817D02*
X-25153909Y-16263909D01*
X-25153909Y-16263909D02*
X-25153909Y-16121091D01*
D29*
X-22043111Y17552983D02*
X-21840128Y17350000D01*
X-21840128Y17350000D02*
X-20050000Y17350000D01*
X-16000000Y22286179D02*
X-16654957Y22941136D01*
X-16000000Y21400000D02*
X-16000000Y22286179D01*
X-20050000Y17350000D02*
X-16000000Y21400000D01*
X-22043111Y17552983D02*
X-22990128Y18500000D01*
X-24045000Y18500000D02*
X-24376091Y18168909D01*
X-22990128Y18500000D02*
X-24045000Y18500000D01*
X-28821091Y-16121091D02*
X-28628909Y-16121091D01*
X-28628909Y-16121091D02*
X-27150000Y-17600000D01*
X-27150000Y-17600000D02*
X-27150000Y-18260000D01*
X-27150000Y-18260000D02*
X-27447817Y-18557817D01*
X-27140000Y-18250000D02*
X-27447817Y-18557817D01*
X-27447817Y-18557817D02*
X-27590635Y-18557817D01*
X-27447817Y-18557817D02*
X-27447817Y-18414999D01*
X-27447817Y-18414999D02*
X-25153909Y-16121091D01*
X-16654957Y22941136D02*
X-17513821Y23800000D01*
X-17513821Y23800000D02*
X-19597898Y23800000D01*
X-19597898Y23800000D02*
X-19902898Y23495000D01*
X-21340128Y16850000D02*
X-22043111Y17552983D01*
X-21250000Y16850000D02*
X-21340128Y16850000D01*
D30*
X-23050000Y-16000000D02*
X-22650000Y-16400000D01*
X-23775000Y-17500000D02*
X-23750000Y-17500000D01*
D29*
X-15650000Y-19610101D02*
X-13500000Y-21760101D01*
X-13500000Y-21760101D02*
X-13500000Y-25550000D01*
X-13500000Y-26350000D02*
X-13500000Y-25550000D01*
X-13905802Y-26755802D02*
X-13500000Y-26350000D01*
X-13905802Y-27875802D02*
X-13905802Y-26755802D01*
D30*
X-24376091Y-16898909D02*
X-23775000Y-17500000D01*
X-25220431Y-17673934D02*
X-24445406Y-16898909D01*
X-24445406Y-16898909D02*
X-24376091Y-16898909D01*
D29*
X-13900000Y-27870000D02*
X-13905802Y-27875802D01*
X-24376091Y-16898909D02*
X-24351091Y-16898909D01*
X-24351091Y-16898909D02*
X-23750000Y-17500000D01*
X-25220431Y-17673934D02*
X-25151116Y-17673934D01*
X-25151116Y-17673934D02*
X-24376091Y-16898909D01*
X10000000Y-12500000D02*
X10000000Y-11550000D01*
X10000000Y-11550000D02*
X9150000Y-10700000D01*
X9150000Y-10700000D02*
X8300000Y-10700000D01*
X8300000Y-10700000D02*
X7450000Y-9850000D01*
X7450000Y-9850000D02*
X6668019Y-9850000D01*
X6668019Y-9850000D02*
X5975052Y-9157033D01*
X-14542198Y-28512198D02*
X-14355418Y-28698978D01*
X-14355418Y-28698978D02*
X-14355418Y-33269582D01*
X-13950000Y-22850000D02*
X-13950000Y-22200000D01*
X-21500000Y-14650000D02*
X-21750000Y-14650000D01*
X-13950000Y-22200000D02*
X-21500000Y-14650000D01*
X-14542198Y-28512198D02*
X-14650000Y-28404396D01*
X-14650000Y-28404396D02*
X-14650000Y-26850000D01*
X-21750000Y-14650000D02*
X-23100000Y-14650000D01*
X-13950000Y-26150000D02*
X-13950000Y-22850000D01*
X-14650000Y-26850000D02*
X-13950000Y-26150000D01*
X-14851091Y-29598909D02*
X-14851091Y-28821091D01*
X-14851091Y-28821091D02*
X-14542198Y-28512198D01*
X6410913Y-10300000D02*
X5621499Y-9510586D01*
X7250000Y-10300000D02*
X6410913Y-10300000D01*
X8100000Y-11150000D02*
X7250000Y-10300000D01*
X8500000Y-11150000D02*
X8100000Y-11150000D01*
X8700000Y-11350000D02*
X8500000Y-11150000D01*
X30865418Y16759582D02*
X30161802Y16055966D01*
X30161802Y16055966D02*
X30161802Y14542198D01*
X29412500Y18212500D02*
X30865418Y16759582D01*
X24700000Y17100000D02*
X26300000Y18700000D01*
X28925000Y18700000D02*
X29412500Y18212500D01*
X29412500Y18212500D02*
X30547918Y17077082D01*
X26300000Y18700000D02*
X28925000Y18700000D01*
X30525000Y17100000D02*
X30547918Y17077082D01*
X7100000Y3350000D02*
X7100000Y4400000D01*
X8650000Y1800000D02*
X7100000Y3350000D01*
X7850000Y5150000D02*
X7850000Y5400000D01*
X7100000Y4400000D02*
X7850000Y5150000D01*
X9931728Y1800000D02*
X8650000Y1800000D01*
X10690864Y2559136D02*
X9931728Y1800000D01*
X11631907Y3500179D02*
X10690864Y2559136D01*
X-5267946Y-9864140D02*
X-5904802Y-10500996D01*
X-5904802Y-10500996D02*
X-5904802Y-10984802D01*
X-5267946Y-9864140D02*
X-5292140Y-9864140D01*
X-28575000Y-11430000D02*
X-27480000Y-11430000D01*
X-27480000Y-11430000D02*
X-26450000Y-10400000D01*
X-11430000Y27430000D02*
X-11430000Y28575000D01*
X-10400000Y26400000D02*
X-11430000Y27430000D01*
X-10400000Y25000000D02*
X-10400000Y26400000D01*
X-11109960Y24749760D02*
X-10650240Y24749760D01*
X-10650240Y24749760D02*
X-10400000Y25000000D01*
X28575000Y11430000D02*
X27480000Y11430000D01*
X25050000Y10400000D02*
X24749760Y10700240D01*
X24749760Y10700240D02*
X24749760Y11109960D01*
X26000000Y10400000D02*
X25050000Y10400000D01*
X27480000Y11430000D02*
X26450000Y10400000D01*
X26450000Y10400000D02*
X26000000Y10400000D01*
X11430000Y-27480000D02*
X11430000Y-28575000D01*
X10400000Y-26450000D02*
X11430000Y-27480000D01*
X10400000Y-25000000D02*
X10400000Y-26450000D01*
X11430000Y-28430000D02*
X11430000Y-28575000D01*
X-24749760Y-10650240D02*
X-24749760Y-11109960D01*
X-25000000Y-10400000D02*
X-24749760Y-10650240D01*
X-26450000Y-10400000D02*
X-25000000Y-10400000D01*
X11109960Y-24749760D02*
X10650240Y-24749760D01*
X10650240Y-24749760D02*
X10400000Y-25000000D01*
X7450000Y-2850000D02*
X8200000Y-2100000D01*
X7450000Y-3100000D02*
X7450000Y-2850000D01*
X10600000Y-2950000D02*
X10600000Y-2750000D01*
X9000000Y-2100000D02*
X8200000Y-2100000D01*
X9950000Y-2100000D02*
X9000000Y-2100000D01*
X10600000Y-3175379D02*
X10600000Y-2950000D01*
X11278353Y-3853732D02*
X10600000Y-3175379D01*
X10600000Y-2750000D02*
X9950000Y-2100000D01*
X8200000Y-2100000D02*
X7800000Y-2500000D01*
X7000000Y-4000000D02*
X7450000Y-4000000D01*
X7450000Y-4000000D02*
X8900000Y-2550000D01*
X10150000Y-3200000D02*
X10150000Y-2950000D01*
X10150000Y-2950000D02*
X9750000Y-2550000D01*
X10924800Y-4207285D02*
X10150000Y-3432485D01*
X9750000Y-2550000D02*
X8900000Y-2550000D01*
X10150000Y-3432485D02*
X10150000Y-3200000D01*
M02*
