G04 #@! TF.FileFunction,Copper,L2,Inr,Plane*
%FSLAX46Y46*%
G04 Gerber Fmt 4.6, Leading zero omitted, Abs format (unit mm)*
G04 Created by KiCad (PCBNEW 4.0.6-e0-6349~53~ubuntu14.04.1) date Sat Apr  1 16:27:06 2017*
%MOMM*%
%LPD*%
G01*
G04 APERTURE LIST*
%ADD10C,0.200000*%
%ADD11C,3.500000*%
%ADD12C,1.727200*%
%ADD13R,1.727200X1.727200*%
%ADD14O,1.727200X1.727200*%
%ADD15C,0.950000*%
%ADD16C,1.550000*%
%ADD17C,0.600000*%
%ADD18C,0.250000*%
%ADD19C,0.254000*%
G04 APERTURE END LIST*
D10*
D11*
X-28575000Y17780000D03*
D10*
G36*
X14077763Y24705922D02*
X12640922Y26142763D01*
X13862237Y27364078D01*
X15299078Y25927237D01*
X14077763Y24705922D01*
X14077763Y24705922D01*
G37*
D12*
X15658288Y27938814D02*
X15873814Y27723288D01*
X17454339Y29734865D02*
X17669865Y29519339D01*
D13*
X11430000Y-28575000D03*
D14*
X11430000Y-31115000D03*
X8890000Y-28575000D03*
X8890000Y-31115000D03*
X6350000Y-28575000D03*
X6350000Y-31115000D03*
X3810000Y-28575000D03*
X3810000Y-31115000D03*
X1270000Y-28575000D03*
X1270000Y-31115000D03*
X-1270000Y-28575000D03*
X-1270000Y-31115000D03*
X-3810000Y-28575000D03*
X-3810000Y-31115000D03*
X-6350000Y-28575000D03*
X-6350000Y-31115000D03*
X-8890000Y-28575000D03*
X-8890000Y-31115000D03*
X-11430000Y-28575000D03*
X-11430000Y-31115000D03*
D13*
X-28575000Y-11430000D03*
D14*
X-31115000Y-11430000D03*
X-28575000Y-8890000D03*
X-31115000Y-8890000D03*
X-28575000Y-6350000D03*
X-31115000Y-6350000D03*
X-28575000Y-3810000D03*
X-31115000Y-3810000D03*
X-28575000Y-1270000D03*
X-31115000Y-1270000D03*
X-28575000Y1270000D03*
X-31115000Y1270000D03*
X-28575000Y3810000D03*
X-31115000Y3810000D03*
X-28575000Y6350000D03*
X-31115000Y6350000D03*
X-28575000Y8890000D03*
X-31115000Y8890000D03*
X-28575000Y11430000D03*
X-31115000Y11430000D03*
D13*
X-11430000Y28575000D03*
D14*
X-11430000Y31115000D03*
X-8890000Y28575000D03*
X-8890000Y31115000D03*
X-6350000Y28575000D03*
X-6350000Y31115000D03*
X-3810000Y28575000D03*
X-3810000Y31115000D03*
X-1270000Y28575000D03*
X-1270000Y31115000D03*
X1270000Y28575000D03*
X1270000Y31115000D03*
X3810000Y28575000D03*
X3810000Y31115000D03*
X6350000Y28575000D03*
X6350000Y31115000D03*
X8890000Y28575000D03*
X8890000Y31115000D03*
X11430000Y28575000D03*
X11430000Y31115000D03*
D13*
X28575000Y11430000D03*
D14*
X31115000Y11430000D03*
X28575000Y8890000D03*
X31115000Y8890000D03*
X28575000Y6350000D03*
X31115000Y6350000D03*
X28575000Y3810000D03*
X31115000Y3810000D03*
X28575000Y1270000D03*
X31115000Y1270000D03*
X28575000Y-1270000D03*
X31115000Y-1270000D03*
X28575000Y-3810000D03*
X31115000Y-3810000D03*
X28575000Y-6350000D03*
X31115000Y-6350000D03*
X28575000Y-8890000D03*
X31115000Y-8890000D03*
X28575000Y-11430000D03*
X31115000Y-11430000D03*
D15*
X-19986714Y-23523521D03*
X-23522248Y-19987987D03*
D16*
X-21188796Y-26139816D03*
X-26138543Y-21190068D03*
D10*
G36*
X-25290000Y20478685D02*
X-26511315Y21700000D01*
X-25290000Y22921315D01*
X-24068685Y21700000D01*
X-25290000Y20478685D01*
X-25290000Y20478685D01*
G37*
D12*
X-23493949Y19903949D02*
X-23493949Y19903949D01*
X-23493949Y23496051D02*
X-23493949Y23496051D01*
X-21697898Y21700000D02*
X-21697898Y21700000D01*
X-21697898Y25292102D02*
X-21697898Y25292102D01*
X-19901846Y23496051D02*
X-19901846Y23496051D01*
D10*
G36*
X25290000Y-20478685D02*
X26511315Y-21700000D01*
X25290000Y-22921315D01*
X24068685Y-21700000D01*
X25290000Y-20478685D01*
X25290000Y-20478685D01*
G37*
D12*
X23493949Y-19903949D02*
X23493949Y-19903949D01*
X23493949Y-23496051D02*
X23493949Y-23496051D01*
X21697898Y-21700000D02*
X21697898Y-21700000D01*
X21697898Y-25292102D02*
X21697898Y-25292102D01*
X19901846Y-23496051D02*
X19901846Y-23496051D01*
D11*
X-17780000Y28575000D03*
X28575000Y-17780000D03*
X17780000Y-28575000D03*
D17*
X23950000Y22550000D03*
X19750000Y4600000D03*
X-9850000Y7450000D03*
X21000000Y14800000D03*
X-16750000Y11400000D03*
X8700000Y9900000D03*
X16500000Y18400000D03*
X19200000Y-7950000D03*
X-8850000Y-15750000D03*
X-19200000Y7950000D03*
X9200000Y13750000D03*
X-13150000Y-9800000D03*
X-15750000Y-8850000D03*
X-9750000Y13850000D03*
X1050000Y23750000D03*
X-23750000Y1000000D03*
X-1000000Y-23750000D03*
X23750000Y-1050000D03*
X-3050000Y21250000D03*
X-21250000Y-3050000D03*
X21250000Y3050000D03*
X3050000Y-21250000D03*
X13650000Y9300000D03*
X9050000Y-15050000D03*
X13750000Y-9200000D03*
X-13750000Y9200000D03*
X5100000Y-2800000D03*
X-5200000Y-6050000D03*
X5750000Y-3350000D03*
X3550000Y-4150000D03*
X4200000Y-4650000D03*
X-9600000Y2900000D03*
X-8500000Y4650000D03*
X-6850000Y6400000D03*
X4650000Y26300000D03*
X5300000Y25800000D03*
X5400000Y3950000D03*
X9500000Y-2600000D03*
X7000000Y4300000D03*
X7100000Y3500000D03*
X8000000Y3500000D03*
X8900000Y-3800000D03*
X8100000Y-4800000D03*
X-3100000Y-9300000D03*
X-4400000Y-8900000D03*
X21250000Y-700000D03*
X5250000Y-50000D03*
X4450000Y-1750000D03*
X-3150000Y-2950000D03*
X50000Y5250000D03*
X700000Y21250000D03*
X-5000000Y-500000D03*
X-21250000Y700000D03*
X500000Y-5000000D03*
X-700000Y-21200000D03*
X10600000Y-14200000D03*
X-9144000Y-8509000D03*
X15918750Y-918750D03*
X15918750Y918750D03*
X918750Y15918750D03*
X-918750Y15918750D03*
X-15918750Y-918750D03*
X-15918750Y918750D03*
X-918750Y-15918750D03*
X918750Y-15918750D03*
X26770000Y17780000D03*
X11500000Y5800000D03*
X-11300000Y8450000D03*
X-8850000Y8150000D03*
X-10550000Y-6650000D03*
X-10850000Y10850000D03*
X5800000Y-11150000D03*
X-9950000Y-25200000D03*
X25200000Y-9950000D03*
X9950000Y25150000D03*
X-25200000Y9950000D03*
X1350000Y4550000D03*
X15050000Y20000000D03*
X10950000Y14600000D03*
X-250000Y25250000D03*
X-25250000Y-250000D03*
X250000Y-25250000D03*
X25250000Y250000D03*
X5000000Y1500000D03*
X1500000Y-5000000D03*
X-5000000Y-1500000D03*
X-1500000Y5000000D03*
X-8550000Y-24050000D03*
X-3500000Y-24050000D03*
X1600000Y-24200000D03*
X6650000Y-24000000D03*
X-24000000Y-6650000D03*
X-24050000Y-1600000D03*
X-24050000Y3500000D03*
X-24050000Y8550000D03*
X-6700000Y24050000D03*
X-1600000Y24050000D03*
X3500000Y24050000D03*
X8550000Y24050000D03*
X24050000Y6700000D03*
X24050000Y1600000D03*
X24050000Y-3500000D03*
X24050000Y-8550000D03*
X10600000Y-6350000D03*
X-2750000Y-4600000D03*
X-3700000Y-4550000D03*
X-5550000Y-3650000D03*
X-6050000Y-4300000D03*
X2750000Y9550000D03*
X-4750000Y4100000D03*
X-4700000Y5050000D03*
X-4200000Y6450000D03*
X-5050000Y6500000D03*
X3700000Y8600000D03*
X5000000Y8300000D03*
X-22900000Y-8050000D03*
X-22000000Y-8050000D03*
X-21350000Y-6750000D03*
X-21350000Y-7550000D03*
X-14150000Y-7700000D03*
X-13350000Y-7900000D03*
X-13200000Y-6600000D03*
X-12400000Y-6700000D03*
X-1550000Y-4900000D03*
X2650000Y1150000D03*
X0Y0D03*
X-4000000Y3650000D03*
X-11750000Y7400000D03*
X-12550000Y7300000D03*
X-13350000Y7150000D03*
X-14150000Y7000000D03*
X-23150000Y4900000D03*
X-22350000Y4850000D03*
X-21550000Y4700000D03*
X-20700000Y4700000D03*
X-8050000Y22900000D03*
X-8050000Y22000000D03*
X-6750000Y21350000D03*
X-7600000Y21300000D03*
X-7800000Y14100000D03*
X-8450000Y13300000D03*
X-6700000Y13200000D03*
X-7350000Y12400000D03*
X7450000Y11750000D03*
X7300000Y12550000D03*
X7150000Y13350000D03*
X7000000Y14150000D03*
X4850000Y23650000D03*
X4850000Y22750000D03*
X4700000Y21950000D03*
X4700000Y21050000D03*
X22900000Y8050000D03*
X22000000Y8050000D03*
X21350000Y6750000D03*
X21350000Y7550000D03*
X14150000Y7800000D03*
X13350000Y8000000D03*
X13200000Y6700000D03*
X12550000Y7150000D03*
X11750000Y-7450000D03*
X12550000Y-7300000D03*
X13350000Y-7150000D03*
X14150000Y-7000000D03*
X23350000Y-4900000D03*
X22450000Y-4900000D03*
X21650000Y-4700000D03*
X20700000Y-4700000D03*
X8100000Y-22850000D03*
X8100000Y-21950000D03*
X6800000Y-21300000D03*
X7600000Y-21300000D03*
X7750000Y-14150000D03*
X7950000Y-13350000D03*
X6650000Y-13200000D03*
X6850000Y-12400000D03*
X-7450000Y-11750000D03*
X-7300000Y-12550000D03*
X-7150000Y-13350000D03*
X-7000000Y-14150000D03*
X-4900000Y-23250000D03*
X-4850000Y-22350000D03*
X-4700000Y-21550000D03*
X-4700000Y-20650000D03*
X-20600000Y1400000D03*
X-12450000Y9000000D03*
X-12450000Y-7700000D03*
X-8350000Y12450000D03*
X1400000Y20600000D03*
X9050000Y12400000D03*
X15650000Y-12850000D03*
X-13850000Y-13850000D03*
X-14450000Y14450000D03*
X0Y26300000D03*
X-26300000Y0D03*
X0Y-26300000D03*
X26300000Y0D03*
X20600000Y-1400000D03*
X12400000Y-9000000D03*
X12500000Y8000000D03*
X-8250000Y-11650000D03*
X-1400000Y-20600000D03*
X7950000Y-12450000D03*
X-23500000Y17850000D03*
X-12650000Y-9000000D03*
X-8900000Y-12200000D03*
X-23250000Y-23250000D03*
X-22300000Y-23200000D03*
X-18750000Y22050000D03*
X-17100000Y-20250000D03*
X-21800000Y-14000000D03*
X-18250000Y23150000D03*
X26500000Y-5300000D03*
X7450000Y5550000D03*
X11350000Y8400000D03*
X3950000Y4150000D03*
X3350000Y4750000D03*
X4700000Y5250000D03*
X5250000Y5900000D03*
X4750000Y6550000D03*
X12250000Y13250000D03*
X18400000Y13500000D03*
X14250000Y11250000D03*
X4600000Y3550000D03*
X-24550000Y-23650000D03*
X-23100000Y-16850000D03*
X-18450000Y25350000D03*
X-21250000Y16850000D03*
X-15250000Y-20250000D03*
X-23750000Y-17500000D03*
X7850000Y-10550000D03*
X-23100000Y-14650000D03*
X5900000Y-5400000D03*
X27200000Y14650000D03*
D18*
X15950000Y-900000D02*
X15937500Y-900000D01*
X15937500Y-900000D02*
X15918750Y-918750D01*
X15950000Y900000D02*
X15937500Y900000D01*
X15937500Y900000D02*
X15918750Y918750D01*
X918750Y15918750D02*
X900000Y15900000D01*
X-918750Y15918750D02*
X-900000Y15900000D01*
X-15918750Y-918750D02*
X-15900000Y-900000D01*
X-15918750Y918750D02*
X-15900000Y900000D01*
X-918750Y-15918750D02*
X-900000Y-15900000D01*
X889000Y-15875000D02*
X918750Y-15904750D01*
X918750Y-15904750D02*
X918750Y-15918750D01*
X-19901846Y23496051D02*
X-19901846Y23898154D01*
X-19901846Y23898154D02*
X-18450000Y25350000D01*
D19*
G36*
X-793117Y25771057D02*
X-530327Y25507808D01*
X-186799Y25365162D01*
X185167Y25364838D01*
X528943Y25506883D01*
X792192Y25769673D01*
X868046Y25952348D01*
X1510197Y25310197D01*
X1552211Y25282334D01*
X1600000Y25273000D01*
X4506080Y25273000D01*
X4506883Y25271057D01*
X4769673Y25007808D01*
X5113201Y24865162D01*
X5485167Y24864838D01*
X5828943Y25006883D01*
X6092192Y25269673D01*
X6093573Y25273000D01*
X10033000Y25273000D01*
X10033000Y16840000D01*
X10043006Y16790590D01*
X10070197Y16750197D01*
X12776693Y14043701D01*
X12436799Y14184838D01*
X12064833Y14185162D01*
X11721057Y14043117D01*
X11457808Y13780327D01*
X11315162Y13436799D01*
X11314838Y13064833D01*
X11456883Y12721057D01*
X11719673Y12457808D01*
X12063201Y12315162D01*
X12435167Y12314838D01*
X12778943Y12456883D01*
X13042192Y12719673D01*
X13184838Y13063201D01*
X13185162Y13435167D01*
X13044290Y13776104D01*
X14776693Y12043701D01*
X14436799Y12184838D01*
X14064833Y12185162D01*
X13721057Y12043117D01*
X13457808Y11780327D01*
X13315162Y11436799D01*
X13314838Y11064833D01*
X13456883Y10721057D01*
X13719673Y10457808D01*
X14063201Y10315162D01*
X14435167Y10314838D01*
X14778943Y10456883D01*
X15042192Y10719673D01*
X15184838Y11063201D01*
X15185162Y11435167D01*
X15044290Y11776104D01*
X16750197Y10070197D01*
X16792211Y10042334D01*
X16840000Y10033000D01*
X25273000Y10033000D01*
X25273000Y1600000D01*
X25283006Y1550590D01*
X25310197Y1510197D01*
X25952363Y868031D01*
X25771057Y793117D01*
X25507808Y530327D01*
X25365162Y186799D01*
X25364838Y-185167D01*
X25506883Y-528943D01*
X25769673Y-792192D01*
X25952348Y-868046D01*
X25310197Y-1510197D01*
X25282334Y-1552211D01*
X25273000Y-1600000D01*
X25273000Y-10033000D01*
X16840000Y-10033000D01*
X16790590Y-10043006D01*
X16750197Y-10070197D01*
X10070197Y-16750197D01*
X10042334Y-16792211D01*
X10033000Y-16840000D01*
X10033000Y-25273000D01*
X1600000Y-25273000D01*
X1550590Y-25283006D01*
X1510197Y-25310197D01*
X868031Y-25952363D01*
X793117Y-25771057D01*
X530327Y-25507808D01*
X186799Y-25365162D01*
X-185167Y-25364838D01*
X-528943Y-25506883D01*
X-792192Y-25769673D01*
X-868046Y-25952348D01*
X-1510197Y-25310197D01*
X-1552211Y-25282334D01*
X-1600000Y-25273000D01*
X-10033000Y-25273000D01*
X-10033000Y-23435167D01*
X-5835162Y-23435167D01*
X-5693117Y-23778943D01*
X-5430327Y-24042192D01*
X-5086799Y-24184838D01*
X-4714833Y-24185162D01*
X-4371057Y-24043117D01*
X-4262919Y-23935167D01*
X-1935162Y-23935167D01*
X-1793117Y-24278943D01*
X-1530327Y-24542192D01*
X-1186799Y-24684838D01*
X-814833Y-24685162D01*
X-471057Y-24543117D01*
X-207808Y-24280327D01*
X-65162Y-23936799D01*
X-64838Y-23564833D01*
X-206883Y-23221057D01*
X-469673Y-22957808D01*
X-813201Y-22815162D01*
X-1185167Y-22814838D01*
X-1528943Y-22956883D01*
X-1792192Y-23219673D01*
X-1934838Y-23563201D01*
X-1935162Y-23935167D01*
X-4262919Y-23935167D01*
X-4107808Y-23780327D01*
X-3965162Y-23436799D01*
X-3964838Y-23064833D01*
X-4049420Y-22860127D01*
X-3915162Y-22536799D01*
X-3914838Y-22164833D01*
X-3937506Y-22109973D01*
X-3907808Y-22080327D01*
X-3765162Y-21736799D01*
X-3764838Y-21364833D01*
X-3874359Y-21099772D01*
X-3765162Y-20836799D01*
X-3765118Y-20785167D01*
X-2335162Y-20785167D01*
X-2193117Y-21128943D01*
X-1930327Y-21392192D01*
X-1586799Y-21534838D01*
X-1573315Y-21534850D01*
X-1493117Y-21728943D01*
X-1230327Y-21992192D01*
X-886799Y-22134838D01*
X-514833Y-22135162D01*
X-171057Y-21993117D01*
X92192Y-21730327D01*
X214753Y-21435167D01*
X2114838Y-21435167D01*
X2256883Y-21778943D01*
X2519673Y-22042192D01*
X2863201Y-22184838D01*
X3235167Y-22185162D01*
X3578943Y-22043117D01*
X3842192Y-21780327D01*
X3964753Y-21485167D01*
X5864838Y-21485167D01*
X6006883Y-21828943D01*
X6269673Y-22092192D01*
X6613201Y-22234838D01*
X6985167Y-22235162D01*
X7173928Y-22157168D01*
X7274359Y-22400228D01*
X7165162Y-22663201D01*
X7164838Y-23035167D01*
X7306883Y-23378943D01*
X7569673Y-23642192D01*
X7913201Y-23784838D01*
X8285167Y-23785162D01*
X8628943Y-23643117D01*
X8892192Y-23380327D01*
X9034838Y-23036799D01*
X9035162Y-22664833D01*
X8925641Y-22399772D01*
X9034838Y-22136799D01*
X9035162Y-21764833D01*
X8893117Y-21421057D01*
X8630327Y-21157808D01*
X8535159Y-21118291D01*
X8535162Y-21114833D01*
X8393117Y-20771057D01*
X8130327Y-20507808D01*
X7786799Y-20365162D01*
X7414833Y-20364838D01*
X7199896Y-20453648D01*
X6986799Y-20365162D01*
X6614833Y-20364838D01*
X6271057Y-20506883D01*
X6007808Y-20769673D01*
X5865162Y-21113201D01*
X5864838Y-21485167D01*
X3964753Y-21485167D01*
X3984838Y-21436799D01*
X3985162Y-21064833D01*
X3843117Y-20721057D01*
X3580327Y-20457808D01*
X3236799Y-20315162D01*
X2864833Y-20314838D01*
X2521057Y-20456883D01*
X2257808Y-20719673D01*
X2115162Y-21063201D01*
X2114838Y-21435167D01*
X214753Y-21435167D01*
X234838Y-21386799D01*
X235162Y-21014833D01*
X93117Y-20671057D01*
X-169673Y-20407808D01*
X-513201Y-20265162D01*
X-526685Y-20265150D01*
X-606883Y-20071057D01*
X-869673Y-19807808D01*
X-1213201Y-19665162D01*
X-1585167Y-19664838D01*
X-1928943Y-19806883D01*
X-2192192Y-20069673D01*
X-2334838Y-20413201D01*
X-2335162Y-20785167D01*
X-3765118Y-20785167D01*
X-3764838Y-20464833D01*
X-3906883Y-20121057D01*
X-4169673Y-19857808D01*
X-4513201Y-19715162D01*
X-4885167Y-19714838D01*
X-5228943Y-19856883D01*
X-5492192Y-20119673D01*
X-5634838Y-20463201D01*
X-5635162Y-20835167D01*
X-5525641Y-21100228D01*
X-5634838Y-21363201D01*
X-5635162Y-21735167D01*
X-5612494Y-21790027D01*
X-5642192Y-21819673D01*
X-5784838Y-22163201D01*
X-5785162Y-22535167D01*
X-5700580Y-22739873D01*
X-5834838Y-23063201D01*
X-5835162Y-23435167D01*
X-10033000Y-23435167D01*
X-10033000Y-16840000D01*
X-10043006Y-16790590D01*
X-10070197Y-16750197D01*
X-10885227Y-15935167D01*
X-9785162Y-15935167D01*
X-9643117Y-16278943D01*
X-9380327Y-16542192D01*
X-9036799Y-16684838D01*
X-8664833Y-16685162D01*
X-8321057Y-16543117D01*
X-8057808Y-16280327D01*
X-7915162Y-15936799D01*
X-7914838Y-15564833D01*
X-8056883Y-15221057D01*
X-8319673Y-14957808D01*
X-8663201Y-14815162D01*
X-9035167Y-14814838D01*
X-9378943Y-14956883D01*
X-9642192Y-15219673D01*
X-9784838Y-15563201D01*
X-9785162Y-15935167D01*
X-10885227Y-15935167D01*
X-12915047Y-13905347D01*
X-12914838Y-13664833D01*
X-13056883Y-13321057D01*
X-13319673Y-13057808D01*
X-13663201Y-12915162D01*
X-13905443Y-12914951D01*
X-14435227Y-12385167D01*
X-9835162Y-12385167D01*
X-9693117Y-12728943D01*
X-9430327Y-12992192D01*
X-9086799Y-13134838D01*
X-8714833Y-13135162D01*
X-8371057Y-12993117D01*
X-8199388Y-12821747D01*
X-8093117Y-13078943D01*
X-8062561Y-13109552D01*
X-8084838Y-13163201D01*
X-8085162Y-13535167D01*
X-7943117Y-13878943D01*
X-7912561Y-13909552D01*
X-7934838Y-13963201D01*
X-7935162Y-14335167D01*
X-7793117Y-14678943D01*
X-7530327Y-14942192D01*
X-7186799Y-15084838D01*
X-6814833Y-15085162D01*
X-6471057Y-14943117D01*
X-6207808Y-14680327D01*
X-6065162Y-14336799D01*
X-6064838Y-13964833D01*
X-6206883Y-13621057D01*
X-6237439Y-13590448D01*
X-6215162Y-13536799D01*
X-6215030Y-13385167D01*
X5714838Y-13385167D01*
X5856883Y-13728943D01*
X6119673Y-13992192D01*
X6463201Y-14134838D01*
X6815012Y-14135144D01*
X6814838Y-14335167D01*
X6956883Y-14678943D01*
X7219673Y-14942192D01*
X7563201Y-15084838D01*
X7935167Y-15085162D01*
X8115033Y-15010843D01*
X8114838Y-15235167D01*
X8256883Y-15578943D01*
X8519673Y-15842192D01*
X8863201Y-15984838D01*
X9235167Y-15985162D01*
X9578943Y-15843117D01*
X9842192Y-15580327D01*
X9984838Y-15236799D01*
X9985162Y-14864833D01*
X9843117Y-14521057D01*
X9580327Y-14257808D01*
X9236799Y-14115162D01*
X8864833Y-14114838D01*
X8684967Y-14189157D01*
X8685162Y-13964833D01*
X8677095Y-13945310D01*
X8742192Y-13880327D01*
X8884838Y-13536799D01*
X8885162Y-13164833D01*
X8775641Y-12899772D01*
X8884838Y-12636799D01*
X8885162Y-12264833D01*
X8743117Y-11921057D01*
X8480327Y-11657808D01*
X8136799Y-11515162D01*
X7764833Y-11514838D01*
X7426905Y-11654467D01*
X7380327Y-11607808D01*
X7036799Y-11465162D01*
X6664833Y-11464838D01*
X6321057Y-11606883D01*
X6057808Y-11869673D01*
X5915162Y-12213201D01*
X5914838Y-12585167D01*
X5922905Y-12604690D01*
X5857808Y-12669673D01*
X5715162Y-13013201D01*
X5714838Y-13385167D01*
X-6215030Y-13385167D01*
X-6214838Y-13164833D01*
X-6356883Y-12821057D01*
X-6387439Y-12790448D01*
X-6365162Y-12736799D01*
X-6364838Y-12364833D01*
X-6506883Y-12021057D01*
X-6537439Y-11990448D01*
X-6515162Y-11936799D01*
X-6514838Y-11564833D01*
X-6656883Y-11221057D01*
X-6919673Y-10957808D01*
X-7263201Y-10815162D01*
X-7635167Y-10814838D01*
X-7729394Y-10853772D01*
X-8015024Y-10735167D01*
X6914838Y-10735167D01*
X7056883Y-11078943D01*
X7319673Y-11342192D01*
X7663201Y-11484838D01*
X8035167Y-11485162D01*
X8378943Y-11343117D01*
X8642192Y-11080327D01*
X8784838Y-10736799D01*
X8785162Y-10364833D01*
X8643117Y-10021057D01*
X8380327Y-9757808D01*
X8036799Y-9615162D01*
X7664833Y-9614838D01*
X7321057Y-9756883D01*
X7057808Y-10019673D01*
X6915162Y-10363201D01*
X6914838Y-10735167D01*
X-8015024Y-10735167D01*
X-8063201Y-10715162D01*
X-8435167Y-10714838D01*
X-8778943Y-10856883D01*
X-9042192Y-11119673D01*
X-9106054Y-11273468D01*
X-9428943Y-11406883D01*
X-9692192Y-11669673D01*
X-9834838Y-12013201D01*
X-9835162Y-12385167D01*
X-14435227Y-12385167D01*
X-16750197Y-10070197D01*
X-16792211Y-10042334D01*
X-16840000Y-10033000D01*
X-25273000Y-10033000D01*
X-25273000Y-9035167D01*
X-16685162Y-9035167D01*
X-16543117Y-9378943D01*
X-16280327Y-9642192D01*
X-15936799Y-9784838D01*
X-15564833Y-9785162D01*
X-15221057Y-9643117D01*
X-14957808Y-9380327D01*
X-14815162Y-9036799D01*
X-14814838Y-8664833D01*
X-14956883Y-8321057D01*
X-15219673Y-8057808D01*
X-15563201Y-7915162D01*
X-15935167Y-7914838D01*
X-16278943Y-8056883D01*
X-16542192Y-8319673D01*
X-16684838Y-8663201D01*
X-16685162Y-9035167D01*
X-25273000Y-9035167D01*
X-25273000Y-8235167D01*
X-23835162Y-8235167D01*
X-23693117Y-8578943D01*
X-23430327Y-8842192D01*
X-23086799Y-8984838D01*
X-22714833Y-8985162D01*
X-22449772Y-8875641D01*
X-22186799Y-8984838D01*
X-21814833Y-8985162D01*
X-21471057Y-8843117D01*
X-21207808Y-8580327D01*
X-21168291Y-8485159D01*
X-21164833Y-8485162D01*
X-20821057Y-8343117D01*
X-20557808Y-8080327D01*
X-20476771Y-7885167D01*
X-15085162Y-7885167D01*
X-14943117Y-8228943D01*
X-14680327Y-8492192D01*
X-14336799Y-8634838D01*
X-13964833Y-8635162D01*
X-13945310Y-8627095D01*
X-13880327Y-8692192D01*
X-13584839Y-8814890D01*
X-13584973Y-8968055D01*
X-13678943Y-9006883D01*
X-13942192Y-9269673D01*
X-14084838Y-9613201D01*
X-14085162Y-9985167D01*
X-13943117Y-10328943D01*
X-13680327Y-10592192D01*
X-13336799Y-10734838D01*
X-12964833Y-10735162D01*
X-12621057Y-10593117D01*
X-12357808Y-10330327D01*
X-12215162Y-9986799D01*
X-12215027Y-9831945D01*
X-12121057Y-9793117D01*
X-11857808Y-9530327D01*
X-11715162Y-9186799D01*
X-11715074Y-9085167D01*
X-5335162Y-9085167D01*
X-5193117Y-9428943D01*
X-4930327Y-9692192D01*
X-4586799Y-9834838D01*
X-4214833Y-9835162D01*
X-3937838Y-9720710D01*
X-3893117Y-9828943D01*
X-3630327Y-10092192D01*
X-3286799Y-10234838D01*
X-2914833Y-10235162D01*
X-2571057Y-10093117D01*
X-2307808Y-9830327D01*
X-2165162Y-9486799D01*
X-2164838Y-9114833D01*
X-2306883Y-8771057D01*
X-2569673Y-8507808D01*
X-2913201Y-8365162D01*
X-3285167Y-8364838D01*
X-3562162Y-8479290D01*
X-3606883Y-8371057D01*
X-3869673Y-8107808D01*
X-4213201Y-7965162D01*
X-4585167Y-7964838D01*
X-4928943Y-8106883D01*
X-5192192Y-8369673D01*
X-5334838Y-8713201D01*
X-5335162Y-9085167D01*
X-11715074Y-9085167D01*
X-11714838Y-8814833D01*
X-11856883Y-8471057D01*
X-11877884Y-8450019D01*
X-11657808Y-8230327D01*
X-11515162Y-7886799D01*
X-11514943Y-7635167D01*
X10814838Y-7635167D01*
X10956883Y-7978943D01*
X11219673Y-8242192D01*
X11563201Y-8384838D01*
X11692678Y-8384951D01*
X11607808Y-8469673D01*
X11465162Y-8813201D01*
X11464838Y-9185167D01*
X11606883Y-9528943D01*
X11869673Y-9792192D01*
X12213201Y-9934838D01*
X12585167Y-9935162D01*
X12928943Y-9793117D01*
X12975024Y-9747116D01*
X13219673Y-9992192D01*
X13563201Y-10134838D01*
X13935167Y-10135162D01*
X14278943Y-9993117D01*
X14542192Y-9730327D01*
X14684838Y-9386799D01*
X14685162Y-9014833D01*
X14543117Y-8671057D01*
X14280327Y-8407808D01*
X13936799Y-8265162D01*
X13564833Y-8264838D01*
X13221057Y-8406883D01*
X13174976Y-8452884D01*
X12930327Y-8207808D01*
X12866007Y-8181100D01*
X12977173Y-8135167D01*
X18264838Y-8135167D01*
X18406883Y-8478943D01*
X18669673Y-8742192D01*
X19013201Y-8884838D01*
X19385167Y-8885162D01*
X19728943Y-8743117D01*
X19992192Y-8480327D01*
X20134838Y-8136799D01*
X20135162Y-7764833D01*
X19993117Y-7421057D01*
X19730327Y-7157808D01*
X19386799Y-7015162D01*
X19014833Y-7014838D01*
X18671057Y-7156883D01*
X18407808Y-7419673D01*
X18265162Y-7763201D01*
X18264838Y-8135167D01*
X12977173Y-8135167D01*
X13078943Y-8093117D01*
X13109552Y-8062561D01*
X13163201Y-8084838D01*
X13535167Y-8085162D01*
X13878943Y-7943117D01*
X13909552Y-7912561D01*
X13963201Y-7934838D01*
X14335167Y-7935162D01*
X14678943Y-7793117D01*
X14942192Y-7530327D01*
X15084838Y-7186799D01*
X15085162Y-6814833D01*
X14943117Y-6471057D01*
X14680327Y-6207808D01*
X14336799Y-6065162D01*
X13964833Y-6064838D01*
X13621057Y-6206883D01*
X13590448Y-6237439D01*
X13536799Y-6215162D01*
X13164833Y-6214838D01*
X12821057Y-6356883D01*
X12790448Y-6387439D01*
X12736799Y-6365162D01*
X12364833Y-6364838D01*
X12021057Y-6506883D01*
X11990448Y-6537439D01*
X11936799Y-6515162D01*
X11564833Y-6514838D01*
X11221057Y-6656883D01*
X10957808Y-6919673D01*
X10815162Y-7263201D01*
X10814838Y-7635167D01*
X-11514943Y-7635167D01*
X-11514838Y-7514833D01*
X-11625214Y-7247702D01*
X-11607808Y-7230327D01*
X-11465162Y-6886799D01*
X-11465118Y-6835167D01*
X-6685162Y-6835167D01*
X-6543117Y-7178943D01*
X-6280327Y-7442192D01*
X-5936799Y-7584838D01*
X-5564833Y-7585162D01*
X-5221057Y-7443117D01*
X-4957808Y-7180327D01*
X-4815162Y-6836799D01*
X-4814838Y-6464833D01*
X-4956883Y-6121057D01*
X-5219673Y-5857808D01*
X-5563201Y-5715162D01*
X-5935167Y-5714838D01*
X-6278943Y-5856883D01*
X-6542192Y-6119673D01*
X-6684838Y-6463201D01*
X-6685162Y-6835167D01*
X-11465118Y-6835167D01*
X-11464838Y-6514833D01*
X-11606883Y-6171057D01*
X-11869673Y-5907808D01*
X-12213201Y-5765162D01*
X-12585167Y-5764838D01*
X-12679394Y-5803772D01*
X-13013201Y-5665162D01*
X-13385167Y-5664838D01*
X-13728943Y-5806883D01*
X-13992192Y-6069673D01*
X-14134838Y-6413201D01*
X-14135144Y-6765012D01*
X-14335167Y-6764838D01*
X-14678943Y-6906883D01*
X-14942192Y-7169673D01*
X-15084838Y-7513201D01*
X-15085162Y-7885167D01*
X-20476771Y-7885167D01*
X-20415162Y-7736799D01*
X-20414838Y-7364833D01*
X-20503648Y-7149896D01*
X-20415162Y-6936799D01*
X-20414838Y-6564833D01*
X-20556883Y-6221057D01*
X-20819673Y-5957808D01*
X-21163201Y-5815162D01*
X-21535167Y-5814838D01*
X-21878943Y-5956883D01*
X-22142192Y-6219673D01*
X-22284838Y-6563201D01*
X-22285162Y-6935167D01*
X-22207168Y-7123928D01*
X-22450228Y-7224359D01*
X-22713201Y-7115162D01*
X-23085167Y-7114838D01*
X-23428943Y-7256883D01*
X-23692192Y-7519673D01*
X-23834838Y-7863201D01*
X-23835162Y-8235167D01*
X-25273000Y-8235167D01*
X-25273000Y-3235167D01*
X-22185162Y-3235167D01*
X-22043117Y-3578943D01*
X-21780327Y-3842192D01*
X-21436799Y-3984838D01*
X-21064833Y-3985162D01*
X-20943836Y-3935167D01*
X-7785162Y-3935167D01*
X-7675641Y-4200228D01*
X-7784838Y-4463201D01*
X-7785162Y-4835167D01*
X-7643117Y-5178943D01*
X-7380327Y-5442192D01*
X-7036799Y-5584838D01*
X-6664833Y-5585162D01*
X-6422827Y-5485167D01*
X-5335162Y-5485167D01*
X-5193117Y-5828943D01*
X-4930327Y-6092192D01*
X-4586799Y-6234838D01*
X-4214833Y-6235162D01*
X-3949772Y-6125641D01*
X-3686799Y-6234838D01*
X-3314833Y-6235162D01*
X-3045253Y-6123774D01*
X-3043117Y-6128943D01*
X-2780327Y-6392192D01*
X-2436799Y-6534838D01*
X-2064833Y-6535162D01*
X-1721057Y-6393117D01*
X-1457808Y-6130327D01*
X-1315162Y-5786799D01*
X-1314838Y-5414833D01*
X-1409733Y-5185167D01*
X-435162Y-5185167D01*
X-293117Y-5528943D01*
X-30327Y-5792192D01*
X313201Y-5934838D01*
X685167Y-5935162D01*
X1028943Y-5793117D01*
X1292192Y-5530327D01*
X1434838Y-5186799D01*
X1435162Y-4814833D01*
X1293117Y-4471057D01*
X1157464Y-4335167D01*
X2614838Y-4335167D01*
X2756883Y-4678943D01*
X3019673Y-4942192D01*
X3363201Y-5084838D01*
X3368001Y-5084842D01*
X3406883Y-5178943D01*
X3669673Y-5442192D01*
X4013201Y-5584838D01*
X4385167Y-5585162D01*
X4728943Y-5443117D01*
X4969340Y-5203139D01*
X4965162Y-5213201D01*
X4964838Y-5585167D01*
X5106883Y-5928943D01*
X5369673Y-6192192D01*
X5713201Y-6334838D01*
X6085167Y-6335162D01*
X6428943Y-6193117D01*
X6692192Y-5930327D01*
X6834838Y-5586799D01*
X6835162Y-5214833D01*
X6740267Y-4985167D01*
X7164838Y-4985167D01*
X7306883Y-5328943D01*
X7569673Y-5592192D01*
X7913201Y-5734838D01*
X8285167Y-5735162D01*
X8628943Y-5593117D01*
X8892192Y-5330327D01*
X9034838Y-4986799D01*
X9034926Y-4885167D01*
X19764838Y-4885167D01*
X19906883Y-5228943D01*
X20169673Y-5492192D01*
X20513201Y-5634838D01*
X20885167Y-5635162D01*
X21175290Y-5515286D01*
X21463201Y-5634838D01*
X21835167Y-5635162D01*
X21854690Y-5627095D01*
X21919673Y-5692192D01*
X22263201Y-5834838D01*
X22635167Y-5835162D01*
X22900228Y-5725641D01*
X23163201Y-5834838D01*
X23535167Y-5835162D01*
X23878943Y-5693117D01*
X24142192Y-5430327D01*
X24284838Y-5086799D01*
X24285162Y-4714833D01*
X24143117Y-4371057D01*
X23880327Y-4107808D01*
X23536799Y-3965162D01*
X23164833Y-3964838D01*
X22899772Y-4074359D01*
X22636799Y-3965162D01*
X22264833Y-3964838D01*
X22245310Y-3972905D01*
X22180327Y-3907808D01*
X21836799Y-3765162D01*
X21464833Y-3764838D01*
X21174710Y-3884714D01*
X20886799Y-3765162D01*
X20514833Y-3764838D01*
X20171057Y-3906883D01*
X19907808Y-4169673D01*
X19765162Y-4513201D01*
X19764838Y-4885167D01*
X9034926Y-4885167D01*
X9035057Y-4735118D01*
X9085167Y-4735162D01*
X9428943Y-4593117D01*
X9692192Y-4330327D01*
X9834838Y-3986799D01*
X9835162Y-3614833D01*
X9785170Y-3493842D01*
X10028943Y-3393117D01*
X10292192Y-3130327D01*
X10434838Y-2786799D01*
X10435162Y-2414833D01*
X10293117Y-2071057D01*
X10030327Y-1807808D01*
X9686799Y-1665162D01*
X9314833Y-1664838D01*
X8971057Y-1806883D01*
X8707808Y-2069673D01*
X8565162Y-2413201D01*
X8564838Y-2785167D01*
X8614830Y-2906158D01*
X8371057Y-3006883D01*
X8107808Y-3269673D01*
X7965162Y-3613201D01*
X7964943Y-3864882D01*
X7914833Y-3864838D01*
X7571057Y-4006883D01*
X7307808Y-4269673D01*
X7165162Y-4613201D01*
X7164838Y-4985167D01*
X6740267Y-4985167D01*
X6693117Y-4871057D01*
X6430327Y-4607808D01*
X6086799Y-4465162D01*
X5714833Y-4464838D01*
X5371057Y-4606883D01*
X5130660Y-4846861D01*
X5134838Y-4836799D01*
X5135162Y-4464833D01*
X4993117Y-4121057D01*
X4730327Y-3857808D01*
X4386799Y-3715162D01*
X4381999Y-3715158D01*
X4343117Y-3621057D01*
X4080327Y-3357808D01*
X3736799Y-3215162D01*
X3364833Y-3214838D01*
X3021057Y-3356883D01*
X2757808Y-3619673D01*
X2615162Y-3963201D01*
X2614838Y-4335167D01*
X1157464Y-4335167D01*
X1030327Y-4207808D01*
X686799Y-4065162D01*
X314833Y-4064838D01*
X-28943Y-4206883D01*
X-292192Y-4469673D01*
X-434838Y-4813201D01*
X-435162Y-5185167D01*
X-1409733Y-5185167D01*
X-1456883Y-5071057D01*
X-1719673Y-4807808D01*
X-2063201Y-4665162D01*
X-2435167Y-4664838D01*
X-2704747Y-4776226D01*
X-2706883Y-4771057D01*
X-2969673Y-4507808D01*
X-3313201Y-4365162D01*
X-3685167Y-4364838D01*
X-3950228Y-4474359D01*
X-4213201Y-4365162D01*
X-4585167Y-4364838D01*
X-4928943Y-4506883D01*
X-5192192Y-4769673D01*
X-5334838Y-5113201D01*
X-5335162Y-5485167D01*
X-6422827Y-5485167D01*
X-6321057Y-5443117D01*
X-6057808Y-5180327D01*
X-5915162Y-4836799D01*
X-5914838Y-4464833D01*
X-6024359Y-4199772D01*
X-5915162Y-3936799D01*
X-5914838Y-3564833D01*
X-6056883Y-3221057D01*
X-6142623Y-3135167D01*
X-4085162Y-3135167D01*
X-3943117Y-3478943D01*
X-3680327Y-3742192D01*
X-3336799Y-3884838D01*
X-2964833Y-3885162D01*
X-2621057Y-3743117D01*
X-2357808Y-3480327D01*
X-2215162Y-3136799D01*
X-2214838Y-2764833D01*
X-2356883Y-2421057D01*
X-2619673Y-2157808D01*
X-2963201Y-2015162D01*
X-3335167Y-2014838D01*
X-3678943Y-2156883D01*
X-3942192Y-2419673D01*
X-4084838Y-2763201D01*
X-4085162Y-3135167D01*
X-6142623Y-3135167D01*
X-6319673Y-2957808D01*
X-6663201Y-2815162D01*
X-7035167Y-2814838D01*
X-7378943Y-2956883D01*
X-7642192Y-3219673D01*
X-7784838Y-3563201D01*
X-7785162Y-3935167D01*
X-20943836Y-3935167D01*
X-20721057Y-3843117D01*
X-20457808Y-3580327D01*
X-20315162Y-3236799D01*
X-20314838Y-2864833D01*
X-20456883Y-2521057D01*
X-20719673Y-2257808D01*
X-21063201Y-2115162D01*
X-21435167Y-2114838D01*
X-21778943Y-2256883D01*
X-22042192Y-2519673D01*
X-22184838Y-2863201D01*
X-22185162Y-3235167D01*
X-25273000Y-3235167D01*
X-25273000Y-1935167D01*
X3514838Y-1935167D01*
X3656883Y-2278943D01*
X3919673Y-2542192D01*
X4165135Y-2644117D01*
X4164838Y-2985167D01*
X4306883Y-3328943D01*
X4569673Y-3592192D01*
X4894055Y-3726888D01*
X4956883Y-3878943D01*
X5219673Y-4142192D01*
X5563201Y-4284838D01*
X5935167Y-4285162D01*
X6278943Y-4143117D01*
X6542192Y-3880327D01*
X6684838Y-3536799D01*
X6685162Y-3164833D01*
X6543117Y-2821057D01*
X6280327Y-2557808D01*
X5955945Y-2423112D01*
X5893117Y-2271057D01*
X5630327Y-2007808D01*
X5384865Y-1905883D01*
X5385144Y-1585167D01*
X19664838Y-1585167D01*
X19806883Y-1928943D01*
X20069673Y-2192192D01*
X20413201Y-2334838D01*
X20785167Y-2335162D01*
X21128943Y-2193117D01*
X21392192Y-1930327D01*
X21531239Y-1595466D01*
X21778943Y-1493117D01*
X22037343Y-1235167D01*
X22814838Y-1235167D01*
X22956883Y-1578943D01*
X23219673Y-1842192D01*
X23563201Y-1984838D01*
X23935167Y-1985162D01*
X24278943Y-1843117D01*
X24542192Y-1580327D01*
X24684838Y-1236799D01*
X24685162Y-864833D01*
X24543117Y-521057D01*
X24280327Y-257808D01*
X23936799Y-115162D01*
X23564833Y-114838D01*
X23221057Y-256883D01*
X22957808Y-519673D01*
X22815162Y-863201D01*
X22814838Y-1235167D01*
X22037343Y-1235167D01*
X22042192Y-1230327D01*
X22184838Y-886799D01*
X22185162Y-514833D01*
X22043117Y-171057D01*
X21780327Y92192D01*
X21436799Y234838D01*
X21064833Y235162D01*
X20721057Y93117D01*
X20457808Y-169673D01*
X20318761Y-504534D01*
X20071057Y-606883D01*
X19807808Y-869673D01*
X19665162Y-1213201D01*
X19664838Y-1585167D01*
X5385144Y-1585167D01*
X5385162Y-1564833D01*
X5243117Y-1221057D01*
X4980327Y-957808D01*
X4636799Y-815162D01*
X4264833Y-814838D01*
X3921057Y-956883D01*
X3657808Y-1219673D01*
X3515162Y-1563201D01*
X3514838Y-1935167D01*
X-25273000Y-1935167D01*
X-25273000Y-1600000D01*
X-25283006Y-1550590D01*
X-25310197Y-1510197D01*
X-25952363Y-868031D01*
X-25771057Y-793117D01*
X-25662919Y-685167D01*
X-5935162Y-685167D01*
X-5793117Y-1028943D01*
X-5530327Y-1292192D01*
X-5186799Y-1434838D01*
X-4814833Y-1435162D01*
X-4471057Y-1293117D01*
X-4207808Y-1030327D01*
X-4065162Y-686799D01*
X-4064838Y-314833D01*
X-4118414Y-185167D01*
X-935162Y-185167D01*
X-793117Y-528943D01*
X-530327Y-792192D01*
X-186799Y-934838D01*
X185167Y-935162D01*
X528943Y-793117D01*
X792192Y-530327D01*
X914753Y-235167D01*
X4314838Y-235167D01*
X4456883Y-578943D01*
X4719673Y-842192D01*
X5063201Y-984838D01*
X5435167Y-985162D01*
X5778943Y-843117D01*
X6042192Y-580327D01*
X6184838Y-236799D01*
X6185162Y135167D01*
X6043117Y478943D01*
X5780327Y742192D01*
X5436799Y884838D01*
X5064833Y885162D01*
X4721057Y743117D01*
X4457808Y480327D01*
X4315162Y136799D01*
X4314838Y-235167D01*
X914753Y-235167D01*
X934838Y-186799D01*
X935162Y185167D01*
X793117Y528943D01*
X530327Y792192D01*
X186799Y934838D01*
X-185167Y935162D01*
X-528943Y793117D01*
X-792192Y530327D01*
X-934838Y186799D01*
X-935162Y-185167D01*
X-4118414Y-185167D01*
X-4206883Y28943D01*
X-4469673Y292192D01*
X-4813201Y434838D01*
X-5185167Y435162D01*
X-5528943Y293117D01*
X-5792192Y30327D01*
X-5934838Y-313201D01*
X-5935162Y-685167D01*
X-25662919Y-685167D01*
X-25507808Y-530327D01*
X-25365162Y-186799D01*
X-25364838Y185167D01*
X-25506883Y528943D01*
X-25769673Y792192D01*
X-25824198Y814833D01*
X-24685162Y814833D01*
X-24543117Y471057D01*
X-24280327Y207808D01*
X-23936799Y65162D01*
X-23564833Y64838D01*
X-23221057Y206883D01*
X-22957808Y469673D01*
X-22939056Y514833D01*
X-22185162Y514833D01*
X-22043117Y171057D01*
X-21780327Y-92192D01*
X-21436799Y-234838D01*
X-21064833Y-235162D01*
X-20721057Y-93117D01*
X-20457808Y169673D01*
X-20318761Y504534D01*
X-20071057Y606883D01*
X-19807808Y869673D01*
X-19768294Y964833D01*
X1714838Y964833D01*
X1856883Y621057D01*
X2119673Y357808D01*
X2463201Y215162D01*
X2835167Y214838D01*
X3178943Y356883D01*
X3442192Y619673D01*
X3584838Y963201D01*
X3585162Y1335167D01*
X3443117Y1678943D01*
X3180327Y1942192D01*
X2836799Y2084838D01*
X2464833Y2085162D01*
X2121057Y1943117D01*
X1857808Y1680327D01*
X1715162Y1336799D01*
X1714838Y964833D01*
X-19768294Y964833D01*
X-19665162Y1213201D01*
X-19664838Y1585167D01*
X-19806883Y1928943D01*
X-20069673Y2192192D01*
X-20413201Y2334838D01*
X-20785167Y2335162D01*
X-21128943Y2193117D01*
X-21392192Y1930327D01*
X-21531239Y1595466D01*
X-21778943Y1493117D01*
X-22042192Y1230327D01*
X-22184838Y886799D01*
X-22185162Y514833D01*
X-22939056Y514833D01*
X-22815162Y813201D01*
X-22814838Y1185167D01*
X-22956883Y1528943D01*
X-23219673Y1792192D01*
X-23563201Y1934838D01*
X-23935167Y1935162D01*
X-24278943Y1793117D01*
X-24542192Y1530327D01*
X-24684838Y1186799D01*
X-24685162Y814833D01*
X-25824198Y814833D01*
X-25952348Y868046D01*
X-25310197Y1510197D01*
X-25282334Y1552211D01*
X-25273000Y1600000D01*
X-25273000Y2714833D01*
X-10535162Y2714833D01*
X-10393117Y2371057D01*
X-10130327Y2107808D01*
X-9786799Y1965162D01*
X-9414833Y1964838D01*
X-9071057Y2106883D01*
X-8807808Y2369673D01*
X-8665162Y2713201D01*
X-8664838Y3085167D01*
X-8806883Y3428943D01*
X-9069673Y3692192D01*
X-9413201Y3834838D01*
X-9785167Y3835162D01*
X-10128943Y3693117D01*
X-10392192Y3430327D01*
X-10534838Y3086799D01*
X-10535162Y2714833D01*
X-25273000Y2714833D01*
X-25273000Y4714833D01*
X-24085162Y4714833D01*
X-23943117Y4371057D01*
X-23680327Y4107808D01*
X-23336799Y3965162D01*
X-22964833Y3964838D01*
X-22810251Y4028710D01*
X-22536799Y3915162D01*
X-22164833Y3914838D01*
X-22109973Y3937506D01*
X-22080327Y3907808D01*
X-21736799Y3765162D01*
X-21364833Y3764838D01*
X-21124834Y3864003D01*
X-20886799Y3765162D01*
X-20514833Y3764838D01*
X-20171057Y3906883D01*
X-19907808Y4169673D01*
X-19785247Y4464833D01*
X-9435162Y4464833D01*
X-9293117Y4121057D01*
X-9030327Y3857808D01*
X-8686799Y3715162D01*
X-8314833Y3714838D01*
X-7971057Y3856883D01*
X-7707808Y4119673D01*
X-7565162Y4463201D01*
X-7564838Y4835167D01*
X-7706883Y5178943D01*
X-7969673Y5442192D01*
X-8313201Y5584838D01*
X-8685167Y5585162D01*
X-9028943Y5443117D01*
X-9292192Y5180327D01*
X-9434838Y4836799D01*
X-9435162Y4464833D01*
X-19785247Y4464833D01*
X-19765162Y4513201D01*
X-19764838Y4885167D01*
X-19906883Y5228943D01*
X-20169673Y5492192D01*
X-20513201Y5634838D01*
X-20885167Y5635162D01*
X-21125166Y5535997D01*
X-21363201Y5634838D01*
X-21735167Y5635162D01*
X-21790027Y5612494D01*
X-21819673Y5642192D01*
X-22163201Y5784838D01*
X-22535167Y5785162D01*
X-22689749Y5721290D01*
X-22963201Y5834838D01*
X-23335167Y5835162D01*
X-23678943Y5693117D01*
X-23942192Y5430327D01*
X-24084838Y5086799D01*
X-24085162Y4714833D01*
X-25273000Y4714833D01*
X-25273000Y6814833D01*
X-15085162Y6814833D01*
X-14943117Y6471057D01*
X-14680327Y6207808D01*
X-14336799Y6065162D01*
X-13964833Y6064838D01*
X-13621057Y6206883D01*
X-13613094Y6214833D01*
X-7785162Y6214833D01*
X-7643117Y5871057D01*
X-7380327Y5607808D01*
X-7036799Y5465162D01*
X-6664833Y5464838D01*
X-6321057Y5606883D01*
X-6057808Y5869673D01*
X-5929200Y6179394D01*
X-5843117Y5971057D01*
X-5580327Y5707808D01*
X-5427895Y5644512D01*
X-5492192Y5580327D01*
X-5634838Y5236799D01*
X-5635162Y4864833D01*
X-5539413Y4633101D01*
X-5542192Y4630327D01*
X-5684838Y4286799D01*
X-5685162Y3914833D01*
X-5543117Y3571057D01*
X-5280327Y3307808D01*
X-4936799Y3165162D01*
X-4811296Y3165053D01*
X-4793117Y3121057D01*
X-4530327Y2857808D01*
X-4186799Y2715162D01*
X-3814833Y2714838D01*
X-3471057Y2856883D01*
X-3207808Y3119673D01*
X-3065162Y3463201D01*
X-3064838Y3835167D01*
X-3206883Y4178943D01*
X-3469673Y4442192D01*
X-3813201Y4584838D01*
X-3880725Y4584897D01*
X-3765162Y4863201D01*
X-3764987Y5064833D01*
X-885162Y5064833D01*
X-743117Y4721057D01*
X-480327Y4457808D01*
X-136799Y4315162D01*
X235167Y4314838D01*
X578943Y4456883D01*
X842192Y4719673D01*
X984838Y5063201D01*
X985162Y5435167D01*
X843117Y5778943D01*
X580327Y6042192D01*
X236799Y6184838D01*
X-135167Y6185162D01*
X-478943Y6043117D01*
X-742192Y5780327D01*
X-884838Y5436799D01*
X-885162Y5064833D01*
X-3764987Y5064833D01*
X-3764838Y5235167D01*
X-3900000Y5562286D01*
X-3671057Y5656883D01*
X-3407808Y5919673D01*
X-3265162Y6263201D01*
X-3264838Y6635167D01*
X-3406883Y6978943D01*
X-3669673Y7242192D01*
X-4013201Y7384838D01*
X-4385167Y7385162D01*
X-4564811Y7310935D01*
X-4863201Y7434838D01*
X-5235167Y7435162D01*
X-5578943Y7293117D01*
X-5842192Y7030327D01*
X-5970800Y6720606D01*
X-6056883Y6928943D01*
X-6319673Y7192192D01*
X-6663201Y7334838D01*
X-7035167Y7335162D01*
X-7378943Y7193117D01*
X-7642192Y6930327D01*
X-7784838Y6586799D01*
X-7785162Y6214833D01*
X-13613094Y6214833D01*
X-13590448Y6237439D01*
X-13536799Y6215162D01*
X-13164833Y6214838D01*
X-12821057Y6356883D01*
X-12790448Y6387439D01*
X-12736799Y6365162D01*
X-12364833Y6364838D01*
X-12029185Y6503524D01*
X-11936799Y6465162D01*
X-11564833Y6464838D01*
X-11221057Y6606883D01*
X-10957808Y6869673D01*
X-10815162Y7213201D01*
X-10815118Y7264833D01*
X-10785162Y7264833D01*
X-10643117Y6921057D01*
X-10380327Y6657808D01*
X-10036799Y6515162D01*
X-9664833Y6514838D01*
X-9321057Y6656883D01*
X-9057808Y6919673D01*
X-8915162Y7263201D01*
X-8914838Y7635167D01*
X-9056883Y7978943D01*
X-9319673Y8242192D01*
X-9663201Y8384838D01*
X-10035167Y8385162D01*
X-10378943Y8243117D01*
X-10642192Y7980327D01*
X-10784838Y7636799D01*
X-10785162Y7264833D01*
X-10815118Y7264833D01*
X-10814838Y7585167D01*
X-10956883Y7928943D01*
X-11219673Y8192192D01*
X-11563201Y8334838D01*
X-11792678Y8335038D01*
X-11657808Y8469673D01*
X-11515162Y8813201D01*
X-11514838Y9185167D01*
X-11589074Y9364833D01*
X1814838Y9364833D01*
X1956883Y9021057D01*
X2219673Y8757808D01*
X2563201Y8615162D01*
X2765012Y8614986D01*
X2764838Y8414833D01*
X2906883Y8071057D01*
X3169673Y7807808D01*
X3513201Y7665162D01*
X3885167Y7664838D01*
X4197456Y7793873D01*
X4206883Y7771057D01*
X4469673Y7507808D01*
X4544471Y7476749D01*
X4221057Y7343117D01*
X3957808Y7080327D01*
X3815162Y6736799D01*
X3814838Y6364833D01*
X3956883Y6021057D01*
X4052753Y5925019D01*
X3907808Y5780327D01*
X3819426Y5567480D01*
X3536799Y5684838D01*
X3164833Y5685162D01*
X2821057Y5543117D01*
X2557808Y5280327D01*
X2415162Y4936799D01*
X2414838Y4564833D01*
X2556883Y4221057D01*
X2819673Y3957808D01*
X3058762Y3858529D01*
X3156883Y3621057D01*
X3419673Y3357808D01*
X3719117Y3233467D01*
X3806883Y3021057D01*
X4069673Y2757808D01*
X4413201Y2615162D01*
X4785167Y2614838D01*
X5128943Y2756883D01*
X5387521Y3015010D01*
X5585167Y3014838D01*
X5928943Y3156883D01*
X6164906Y3392434D01*
X6164838Y3314833D01*
X6306883Y2971057D01*
X6569673Y2707808D01*
X6913201Y2565162D01*
X7285167Y2564838D01*
X7550228Y2674359D01*
X7813201Y2565162D01*
X8185167Y2564838D01*
X8528943Y2706883D01*
X8687168Y2864833D01*
X20314838Y2864833D01*
X20456883Y2521057D01*
X20719673Y2257808D01*
X21063201Y2115162D01*
X21435167Y2114838D01*
X21778943Y2256883D01*
X22042192Y2519673D01*
X22184838Y2863201D01*
X22185162Y3235167D01*
X22043117Y3578943D01*
X21780327Y3842192D01*
X21436799Y3984838D01*
X21064833Y3985162D01*
X20721057Y3843117D01*
X20457808Y3580327D01*
X20315162Y3236799D01*
X20314838Y2864833D01*
X8687168Y2864833D01*
X8792192Y2969673D01*
X8934838Y3313201D01*
X8935162Y3685167D01*
X8793117Y4028943D01*
X8530327Y4292192D01*
X8234977Y4414833D01*
X18814838Y4414833D01*
X18956883Y4071057D01*
X19219673Y3807808D01*
X19563201Y3665162D01*
X19935167Y3664838D01*
X20278943Y3806883D01*
X20542192Y4069673D01*
X20684838Y4413201D01*
X20685162Y4785167D01*
X20543117Y5128943D01*
X20280327Y5392192D01*
X19936799Y5534838D01*
X19564833Y5535162D01*
X19221057Y5393117D01*
X18957808Y5130327D01*
X18815162Y4786799D01*
X18814838Y4414833D01*
X8234977Y4414833D01*
X8186799Y4434838D01*
X7935118Y4435057D01*
X7935162Y4485167D01*
X7845648Y4701807D01*
X7978943Y4756883D01*
X8242192Y5019673D01*
X8384838Y5363201D01*
X8385162Y5735167D01*
X8243117Y6078943D01*
X7980327Y6342192D01*
X7636799Y6484838D01*
X7264833Y6485162D01*
X6921057Y6343117D01*
X6657808Y6080327D01*
X6515162Y5736799D01*
X6514838Y5364833D01*
X6604352Y5148193D01*
X6471057Y5093117D01*
X6207808Y4830327D01*
X6100447Y4571775D01*
X5930327Y4742192D01*
X5586799Y4884838D01*
X5560784Y4884861D01*
X5626888Y5044055D01*
X5778943Y5106883D01*
X6042192Y5369673D01*
X6184838Y5713201D01*
X6185162Y6085167D01*
X6043117Y6428943D01*
X5780327Y6692192D01*
X5685159Y6731709D01*
X5685162Y6735167D01*
X5543117Y7078943D01*
X5280327Y7342192D01*
X5205529Y7373251D01*
X5528943Y7506883D01*
X5792192Y7769673D01*
X5934838Y8113201D01*
X5934926Y8214833D01*
X10414838Y8214833D01*
X10556883Y7871057D01*
X10819673Y7607808D01*
X11163201Y7465162D01*
X11535167Y7464838D01*
X11684037Y7526350D01*
X11688941Y7514479D01*
X11615162Y7336799D01*
X11614838Y6964833D01*
X11756883Y6621057D01*
X12019673Y6357808D01*
X12363201Y6215162D01*
X12388668Y6215140D01*
X12406883Y6171057D01*
X12669673Y5907808D01*
X13013201Y5765162D01*
X13385167Y5764838D01*
X13728943Y5906883D01*
X13992192Y6169673D01*
X14134838Y6513201D01*
X14135144Y6865012D01*
X14335167Y6864838D01*
X14678943Y7006883D01*
X14942192Y7269673D01*
X14981706Y7364833D01*
X20414838Y7364833D01*
X20503648Y7149896D01*
X20415162Y6936799D01*
X20414838Y6564833D01*
X20556883Y6221057D01*
X20819673Y5957808D01*
X21163201Y5815162D01*
X21535167Y5814838D01*
X21878943Y5956883D01*
X22142192Y6219673D01*
X22284838Y6563201D01*
X22285162Y6935167D01*
X22207168Y7123928D01*
X22450228Y7224359D01*
X22713201Y7115162D01*
X23085167Y7114838D01*
X23428943Y7256883D01*
X23692192Y7519673D01*
X23834838Y7863201D01*
X23835162Y8235167D01*
X23693117Y8578943D01*
X23430327Y8842192D01*
X23086799Y8984838D01*
X22714833Y8985162D01*
X22449772Y8875641D01*
X22186799Y8984838D01*
X21814833Y8985162D01*
X21471057Y8843117D01*
X21207808Y8580327D01*
X21168291Y8485159D01*
X21164833Y8485162D01*
X20821057Y8343117D01*
X20557808Y8080327D01*
X20415162Y7736799D01*
X20414838Y7364833D01*
X14981706Y7364833D01*
X15084838Y7613201D01*
X15085162Y7985167D01*
X14943117Y8328943D01*
X14680327Y8592192D01*
X14386586Y8714164D01*
X14442192Y8769673D01*
X14584838Y9113201D01*
X14585162Y9485167D01*
X14443117Y9828943D01*
X14180327Y10092192D01*
X13836799Y10234838D01*
X13464833Y10235162D01*
X13121057Y10093117D01*
X12857808Y9830327D01*
X12715162Y9486799D01*
X12714838Y9114833D01*
X12810420Y8883506D01*
X12686799Y8934838D01*
X12314833Y8935162D01*
X12165963Y8873650D01*
X12143117Y8928943D01*
X11880327Y9192192D01*
X11536799Y9334838D01*
X11164833Y9335162D01*
X10821057Y9193117D01*
X10557808Y8930327D01*
X10415162Y8586799D01*
X10414838Y8214833D01*
X5934926Y8214833D01*
X5935162Y8485167D01*
X5793117Y8828943D01*
X5530327Y9092192D01*
X5186799Y9234838D01*
X4814833Y9235162D01*
X4502544Y9106127D01*
X4493117Y9128943D01*
X4230327Y9392192D01*
X3886799Y9534838D01*
X3684988Y9535014D01*
X3685144Y9714833D01*
X7764838Y9714833D01*
X7906883Y9371057D01*
X8169673Y9107808D01*
X8513201Y8965162D01*
X8885167Y8964838D01*
X9228943Y9106883D01*
X9492192Y9369673D01*
X9634838Y9713201D01*
X9635162Y10085167D01*
X9493117Y10428943D01*
X9230327Y10692192D01*
X8886799Y10834838D01*
X8514833Y10835162D01*
X8171057Y10693117D01*
X7907808Y10430327D01*
X7765162Y10086799D01*
X7764838Y9714833D01*
X3685144Y9714833D01*
X3685162Y9735167D01*
X3543117Y10078943D01*
X3280327Y10342192D01*
X2936799Y10484838D01*
X2564833Y10485162D01*
X2221057Y10343117D01*
X1957808Y10080327D01*
X1815162Y9736799D01*
X1814838Y9364833D01*
X-11589074Y9364833D01*
X-11656883Y9528943D01*
X-11919673Y9792192D01*
X-12263201Y9934838D01*
X-12635167Y9935162D01*
X-12978943Y9793117D01*
X-12999981Y9772116D01*
X-13219673Y9992192D01*
X-13563201Y10134838D01*
X-13935167Y10135162D01*
X-14278943Y9993117D01*
X-14542192Y9730327D01*
X-14684838Y9386799D01*
X-14685162Y9014833D01*
X-14543117Y8671057D01*
X-14280327Y8407808D01*
X-13936799Y8265162D01*
X-13564833Y8264838D01*
X-13221057Y8406883D01*
X-13200019Y8427884D01*
X-12980327Y8207808D01*
X-12891069Y8170745D01*
X-13078943Y8093117D01*
X-13109552Y8062561D01*
X-13163201Y8084838D01*
X-13535167Y8085162D01*
X-13878943Y7943117D01*
X-13909552Y7912561D01*
X-13963201Y7934838D01*
X-14335167Y7935162D01*
X-14678943Y7793117D01*
X-14942192Y7530327D01*
X-15084838Y7186799D01*
X-15085162Y6814833D01*
X-25273000Y6814833D01*
X-25273000Y7764833D01*
X-20135162Y7764833D01*
X-19993117Y7421057D01*
X-19730327Y7157808D01*
X-19386799Y7015162D01*
X-19014833Y7014838D01*
X-18671057Y7156883D01*
X-18407808Y7419673D01*
X-18265162Y7763201D01*
X-18264838Y8135167D01*
X-18406883Y8478943D01*
X-18669673Y8742192D01*
X-19013201Y8884838D01*
X-19385167Y8885162D01*
X-19728943Y8743117D01*
X-19992192Y8480327D01*
X-20134838Y8136799D01*
X-20135162Y7764833D01*
X-25273000Y7764833D01*
X-25273000Y10033000D01*
X-16840000Y10033000D01*
X-16790590Y10043006D01*
X-16750197Y10070197D01*
X-13155561Y13664833D01*
X-10685162Y13664833D01*
X-10543117Y13321057D01*
X-10280327Y13057808D01*
X-9936799Y12915162D01*
X-9564833Y12914838D01*
X-9340778Y13007415D01*
X-9243117Y12771057D01*
X-9233210Y12761133D01*
X-9284838Y12636799D01*
X-9285162Y12264833D01*
X-9143117Y11921057D01*
X-8880327Y11657808D01*
X-8536799Y11515162D01*
X-8164833Y11514838D01*
X-7897702Y11625214D01*
X-7880327Y11607808D01*
X-7536799Y11465162D01*
X-7164833Y11464838D01*
X-6821057Y11606883D01*
X-6557808Y11869673D01*
X-6415162Y12213201D01*
X-6415081Y12306055D01*
X-6171057Y12406883D01*
X-5907808Y12669673D01*
X-5765162Y13013201D01*
X-5764838Y13385167D01*
X-5906883Y13728943D01*
X-6142361Y13964833D01*
X6064838Y13964833D01*
X6206883Y13621057D01*
X6237439Y13590448D01*
X6215162Y13536799D01*
X6214838Y13164833D01*
X6356883Y12821057D01*
X6387439Y12790448D01*
X6365162Y12736799D01*
X6364838Y12364833D01*
X6506883Y12021057D01*
X6537439Y11990448D01*
X6515162Y11936799D01*
X6514838Y11564833D01*
X6656883Y11221057D01*
X6919673Y10957808D01*
X7263201Y10815162D01*
X7635167Y10814838D01*
X7978943Y10956883D01*
X8242192Y11219673D01*
X8384838Y11563201D01*
X8384994Y11742722D01*
X8519673Y11607808D01*
X8863201Y11465162D01*
X9235167Y11464838D01*
X9578943Y11606883D01*
X9842192Y11869673D01*
X9984838Y12213201D01*
X9985162Y12585167D01*
X9843117Y12928943D01*
X9772160Y13000024D01*
X9992192Y13219673D01*
X10134838Y13563201D01*
X10135162Y13935167D01*
X9993117Y14278943D01*
X9730327Y14542192D01*
X9386799Y14684838D01*
X9014833Y14685162D01*
X8671057Y14543117D01*
X8407808Y14280327D01*
X8265162Y13936799D01*
X8264838Y13564833D01*
X8406883Y13221057D01*
X8477840Y13149976D01*
X8257808Y12930327D01*
X8206038Y12805652D01*
X8093117Y13078943D01*
X8062561Y13109552D01*
X8084838Y13163201D01*
X8085162Y13535167D01*
X7943117Y13878943D01*
X7912561Y13909552D01*
X7934838Y13963201D01*
X7935162Y14335167D01*
X7793117Y14678943D01*
X7530327Y14942192D01*
X7186799Y15084838D01*
X6814833Y15085162D01*
X6471057Y14943117D01*
X6207808Y14680327D01*
X6065162Y14336799D01*
X6064838Y13964833D01*
X-6142361Y13964833D01*
X-6169673Y13992192D01*
X-6513201Y14134838D01*
X-6864969Y14135144D01*
X-6864838Y14285167D01*
X-7006883Y14628943D01*
X-7269673Y14892192D01*
X-7613201Y15034838D01*
X-7985167Y15035162D01*
X-8328943Y14893117D01*
X-8592192Y14630327D01*
X-8734838Y14286799D01*
X-8734919Y14193945D01*
X-8859222Y14142585D01*
X-8956883Y14378943D01*
X-9219673Y14642192D01*
X-9563201Y14784838D01*
X-9935167Y14785162D01*
X-10278943Y14643117D01*
X-10542192Y14380327D01*
X-10684838Y14036799D01*
X-10685162Y13664833D01*
X-13155561Y13664833D01*
X-10070197Y16750197D01*
X-10042334Y16792211D01*
X-10033000Y16840000D01*
X-10033000Y22714833D01*
X-8985162Y22714833D01*
X-8875641Y22449772D01*
X-8984838Y22186799D01*
X-8985162Y21814833D01*
X-8843117Y21471057D01*
X-8580327Y21207808D01*
X-8535097Y21189027D01*
X-8535162Y21114833D01*
X-8393117Y20771057D01*
X-8130327Y20507808D01*
X-7786799Y20365162D01*
X-7414833Y20364838D01*
X-7114479Y20488941D01*
X-6936799Y20415162D01*
X-6564833Y20414838D01*
X-6221057Y20556883D01*
X-5957808Y20819673D01*
X-5856009Y21064833D01*
X-3985162Y21064833D01*
X-3843117Y20721057D01*
X-3580327Y20457808D01*
X-3236799Y20315162D01*
X-2864833Y20314838D01*
X-2521057Y20456883D01*
X-2257808Y20719673D01*
X-2115162Y21063201D01*
X-2115161Y21064833D01*
X-235162Y21064833D01*
X-93117Y20721057D01*
X169673Y20457808D01*
X504534Y20318761D01*
X606883Y20071057D01*
X869673Y19807808D01*
X1213201Y19665162D01*
X1585167Y19664838D01*
X1928943Y19806883D01*
X2192192Y20069673D01*
X2334838Y20413201D01*
X2335162Y20785167D01*
X2193117Y21128943D01*
X1930327Y21392192D01*
X1595466Y21531239D01*
X1498948Y21764833D01*
X3764838Y21764833D01*
X3874359Y21499772D01*
X3765162Y21236799D01*
X3764838Y20864833D01*
X3906883Y20521057D01*
X4169673Y20257808D01*
X4513201Y20115162D01*
X4885167Y20114838D01*
X5228943Y20256883D01*
X5492192Y20519673D01*
X5634838Y20863201D01*
X5635162Y21235167D01*
X5525641Y21500228D01*
X5634838Y21763201D01*
X5635162Y22135167D01*
X5612494Y22190027D01*
X5642192Y22219673D01*
X5784838Y22563201D01*
X5785162Y22935167D01*
X5675641Y23200228D01*
X5784838Y23463201D01*
X5785162Y23835167D01*
X5643117Y24178943D01*
X5380327Y24442192D01*
X5036799Y24584838D01*
X4664833Y24585162D01*
X4321057Y24443117D01*
X4057808Y24180327D01*
X3915162Y23836799D01*
X3914838Y23464833D01*
X4024359Y23199772D01*
X3915162Y22936799D01*
X3914838Y22564833D01*
X3937506Y22509973D01*
X3907808Y22480327D01*
X3765162Y22136799D01*
X3764838Y21764833D01*
X1498948Y21764833D01*
X1493117Y21778943D01*
X1230327Y22042192D01*
X886799Y22184838D01*
X514833Y22185162D01*
X171057Y22043117D01*
X-92192Y21780327D01*
X-234838Y21436799D01*
X-235162Y21064833D01*
X-2115161Y21064833D01*
X-2114838Y21435167D01*
X-2256883Y21778943D01*
X-2519673Y22042192D01*
X-2863201Y22184838D01*
X-3235167Y22185162D01*
X-3578943Y22043117D01*
X-3842192Y21780327D01*
X-3984838Y21436799D01*
X-3985162Y21064833D01*
X-5856009Y21064833D01*
X-5815162Y21163201D01*
X-5814838Y21535167D01*
X-5956883Y21878943D01*
X-6219673Y22142192D01*
X-6563201Y22284838D01*
X-6935167Y22285162D01*
X-7123928Y22207168D01*
X-7224359Y22450228D01*
X-7115162Y22713201D01*
X-7114838Y23085167D01*
X-7256883Y23428943D01*
X-7392536Y23564833D01*
X114838Y23564833D01*
X256883Y23221057D01*
X519673Y22957808D01*
X863201Y22815162D01*
X1235167Y22814838D01*
X1578943Y22956883D01*
X1842192Y23219673D01*
X1984838Y23563201D01*
X1985162Y23935167D01*
X1843117Y24278943D01*
X1580327Y24542192D01*
X1236799Y24684838D01*
X864833Y24685162D01*
X521057Y24543117D01*
X257808Y24280327D01*
X115162Y23936799D01*
X114838Y23564833D01*
X-7392536Y23564833D01*
X-7519673Y23692192D01*
X-7863201Y23834838D01*
X-8235167Y23835162D01*
X-8578943Y23693117D01*
X-8842192Y23430327D01*
X-8984838Y23086799D01*
X-8985162Y22714833D01*
X-10033000Y22714833D01*
X-10033000Y25273000D01*
X-1600000Y25273000D01*
X-1550590Y25283006D01*
X-1510197Y25310197D01*
X-868031Y25952363D01*
X-793117Y25771057D01*
X-793117Y25771057D01*
G37*
X-793117Y25771057D02*
X-530327Y25507808D01*
X-186799Y25365162D01*
X185167Y25364838D01*
X528943Y25506883D01*
X792192Y25769673D01*
X868046Y25952348D01*
X1510197Y25310197D01*
X1552211Y25282334D01*
X1600000Y25273000D01*
X4506080Y25273000D01*
X4506883Y25271057D01*
X4769673Y25007808D01*
X5113201Y24865162D01*
X5485167Y24864838D01*
X5828943Y25006883D01*
X6092192Y25269673D01*
X6093573Y25273000D01*
X10033000Y25273000D01*
X10033000Y16840000D01*
X10043006Y16790590D01*
X10070197Y16750197D01*
X12776693Y14043701D01*
X12436799Y14184838D01*
X12064833Y14185162D01*
X11721057Y14043117D01*
X11457808Y13780327D01*
X11315162Y13436799D01*
X11314838Y13064833D01*
X11456883Y12721057D01*
X11719673Y12457808D01*
X12063201Y12315162D01*
X12435167Y12314838D01*
X12778943Y12456883D01*
X13042192Y12719673D01*
X13184838Y13063201D01*
X13185162Y13435167D01*
X13044290Y13776104D01*
X14776693Y12043701D01*
X14436799Y12184838D01*
X14064833Y12185162D01*
X13721057Y12043117D01*
X13457808Y11780327D01*
X13315162Y11436799D01*
X13314838Y11064833D01*
X13456883Y10721057D01*
X13719673Y10457808D01*
X14063201Y10315162D01*
X14435167Y10314838D01*
X14778943Y10456883D01*
X15042192Y10719673D01*
X15184838Y11063201D01*
X15185162Y11435167D01*
X15044290Y11776104D01*
X16750197Y10070197D01*
X16792211Y10042334D01*
X16840000Y10033000D01*
X25273000Y10033000D01*
X25273000Y1600000D01*
X25283006Y1550590D01*
X25310197Y1510197D01*
X25952363Y868031D01*
X25771057Y793117D01*
X25507808Y530327D01*
X25365162Y186799D01*
X25364838Y-185167D01*
X25506883Y-528943D01*
X25769673Y-792192D01*
X25952348Y-868046D01*
X25310197Y-1510197D01*
X25282334Y-1552211D01*
X25273000Y-1600000D01*
X25273000Y-10033000D01*
X16840000Y-10033000D01*
X16790590Y-10043006D01*
X16750197Y-10070197D01*
X10070197Y-16750197D01*
X10042334Y-16792211D01*
X10033000Y-16840000D01*
X10033000Y-25273000D01*
X1600000Y-25273000D01*
X1550590Y-25283006D01*
X1510197Y-25310197D01*
X868031Y-25952363D01*
X793117Y-25771057D01*
X530327Y-25507808D01*
X186799Y-25365162D01*
X-185167Y-25364838D01*
X-528943Y-25506883D01*
X-792192Y-25769673D01*
X-868046Y-25952348D01*
X-1510197Y-25310197D01*
X-1552211Y-25282334D01*
X-1600000Y-25273000D01*
X-10033000Y-25273000D01*
X-10033000Y-23435167D01*
X-5835162Y-23435167D01*
X-5693117Y-23778943D01*
X-5430327Y-24042192D01*
X-5086799Y-24184838D01*
X-4714833Y-24185162D01*
X-4371057Y-24043117D01*
X-4262919Y-23935167D01*
X-1935162Y-23935167D01*
X-1793117Y-24278943D01*
X-1530327Y-24542192D01*
X-1186799Y-24684838D01*
X-814833Y-24685162D01*
X-471057Y-24543117D01*
X-207808Y-24280327D01*
X-65162Y-23936799D01*
X-64838Y-23564833D01*
X-206883Y-23221057D01*
X-469673Y-22957808D01*
X-813201Y-22815162D01*
X-1185167Y-22814838D01*
X-1528943Y-22956883D01*
X-1792192Y-23219673D01*
X-1934838Y-23563201D01*
X-1935162Y-23935167D01*
X-4262919Y-23935167D01*
X-4107808Y-23780327D01*
X-3965162Y-23436799D01*
X-3964838Y-23064833D01*
X-4049420Y-22860127D01*
X-3915162Y-22536799D01*
X-3914838Y-22164833D01*
X-3937506Y-22109973D01*
X-3907808Y-22080327D01*
X-3765162Y-21736799D01*
X-3764838Y-21364833D01*
X-3874359Y-21099772D01*
X-3765162Y-20836799D01*
X-3765118Y-20785167D01*
X-2335162Y-20785167D01*
X-2193117Y-21128943D01*
X-1930327Y-21392192D01*
X-1586799Y-21534838D01*
X-1573315Y-21534850D01*
X-1493117Y-21728943D01*
X-1230327Y-21992192D01*
X-886799Y-22134838D01*
X-514833Y-22135162D01*
X-171057Y-21993117D01*
X92192Y-21730327D01*
X214753Y-21435167D01*
X2114838Y-21435167D01*
X2256883Y-21778943D01*
X2519673Y-22042192D01*
X2863201Y-22184838D01*
X3235167Y-22185162D01*
X3578943Y-22043117D01*
X3842192Y-21780327D01*
X3964753Y-21485167D01*
X5864838Y-21485167D01*
X6006883Y-21828943D01*
X6269673Y-22092192D01*
X6613201Y-22234838D01*
X6985167Y-22235162D01*
X7173928Y-22157168D01*
X7274359Y-22400228D01*
X7165162Y-22663201D01*
X7164838Y-23035167D01*
X7306883Y-23378943D01*
X7569673Y-23642192D01*
X7913201Y-23784838D01*
X8285167Y-23785162D01*
X8628943Y-23643117D01*
X8892192Y-23380327D01*
X9034838Y-23036799D01*
X9035162Y-22664833D01*
X8925641Y-22399772D01*
X9034838Y-22136799D01*
X9035162Y-21764833D01*
X8893117Y-21421057D01*
X8630327Y-21157808D01*
X8535159Y-21118291D01*
X8535162Y-21114833D01*
X8393117Y-20771057D01*
X8130327Y-20507808D01*
X7786799Y-20365162D01*
X7414833Y-20364838D01*
X7199896Y-20453648D01*
X6986799Y-20365162D01*
X6614833Y-20364838D01*
X6271057Y-20506883D01*
X6007808Y-20769673D01*
X5865162Y-21113201D01*
X5864838Y-21485167D01*
X3964753Y-21485167D01*
X3984838Y-21436799D01*
X3985162Y-21064833D01*
X3843117Y-20721057D01*
X3580327Y-20457808D01*
X3236799Y-20315162D01*
X2864833Y-20314838D01*
X2521057Y-20456883D01*
X2257808Y-20719673D01*
X2115162Y-21063201D01*
X2114838Y-21435167D01*
X214753Y-21435167D01*
X234838Y-21386799D01*
X235162Y-21014833D01*
X93117Y-20671057D01*
X-169673Y-20407808D01*
X-513201Y-20265162D01*
X-526685Y-20265150D01*
X-606883Y-20071057D01*
X-869673Y-19807808D01*
X-1213201Y-19665162D01*
X-1585167Y-19664838D01*
X-1928943Y-19806883D01*
X-2192192Y-20069673D01*
X-2334838Y-20413201D01*
X-2335162Y-20785167D01*
X-3765118Y-20785167D01*
X-3764838Y-20464833D01*
X-3906883Y-20121057D01*
X-4169673Y-19857808D01*
X-4513201Y-19715162D01*
X-4885167Y-19714838D01*
X-5228943Y-19856883D01*
X-5492192Y-20119673D01*
X-5634838Y-20463201D01*
X-5635162Y-20835167D01*
X-5525641Y-21100228D01*
X-5634838Y-21363201D01*
X-5635162Y-21735167D01*
X-5612494Y-21790027D01*
X-5642192Y-21819673D01*
X-5784838Y-22163201D01*
X-5785162Y-22535167D01*
X-5700580Y-22739873D01*
X-5834838Y-23063201D01*
X-5835162Y-23435167D01*
X-10033000Y-23435167D01*
X-10033000Y-16840000D01*
X-10043006Y-16790590D01*
X-10070197Y-16750197D01*
X-10885227Y-15935167D01*
X-9785162Y-15935167D01*
X-9643117Y-16278943D01*
X-9380327Y-16542192D01*
X-9036799Y-16684838D01*
X-8664833Y-16685162D01*
X-8321057Y-16543117D01*
X-8057808Y-16280327D01*
X-7915162Y-15936799D01*
X-7914838Y-15564833D01*
X-8056883Y-15221057D01*
X-8319673Y-14957808D01*
X-8663201Y-14815162D01*
X-9035167Y-14814838D01*
X-9378943Y-14956883D01*
X-9642192Y-15219673D01*
X-9784838Y-15563201D01*
X-9785162Y-15935167D01*
X-10885227Y-15935167D01*
X-12915047Y-13905347D01*
X-12914838Y-13664833D01*
X-13056883Y-13321057D01*
X-13319673Y-13057808D01*
X-13663201Y-12915162D01*
X-13905443Y-12914951D01*
X-14435227Y-12385167D01*
X-9835162Y-12385167D01*
X-9693117Y-12728943D01*
X-9430327Y-12992192D01*
X-9086799Y-13134838D01*
X-8714833Y-13135162D01*
X-8371057Y-12993117D01*
X-8199388Y-12821747D01*
X-8093117Y-13078943D01*
X-8062561Y-13109552D01*
X-8084838Y-13163201D01*
X-8085162Y-13535167D01*
X-7943117Y-13878943D01*
X-7912561Y-13909552D01*
X-7934838Y-13963201D01*
X-7935162Y-14335167D01*
X-7793117Y-14678943D01*
X-7530327Y-14942192D01*
X-7186799Y-15084838D01*
X-6814833Y-15085162D01*
X-6471057Y-14943117D01*
X-6207808Y-14680327D01*
X-6065162Y-14336799D01*
X-6064838Y-13964833D01*
X-6206883Y-13621057D01*
X-6237439Y-13590448D01*
X-6215162Y-13536799D01*
X-6215030Y-13385167D01*
X5714838Y-13385167D01*
X5856883Y-13728943D01*
X6119673Y-13992192D01*
X6463201Y-14134838D01*
X6815012Y-14135144D01*
X6814838Y-14335167D01*
X6956883Y-14678943D01*
X7219673Y-14942192D01*
X7563201Y-15084838D01*
X7935167Y-15085162D01*
X8115033Y-15010843D01*
X8114838Y-15235167D01*
X8256883Y-15578943D01*
X8519673Y-15842192D01*
X8863201Y-15984838D01*
X9235167Y-15985162D01*
X9578943Y-15843117D01*
X9842192Y-15580327D01*
X9984838Y-15236799D01*
X9985162Y-14864833D01*
X9843117Y-14521057D01*
X9580327Y-14257808D01*
X9236799Y-14115162D01*
X8864833Y-14114838D01*
X8684967Y-14189157D01*
X8685162Y-13964833D01*
X8677095Y-13945310D01*
X8742192Y-13880327D01*
X8884838Y-13536799D01*
X8885162Y-13164833D01*
X8775641Y-12899772D01*
X8884838Y-12636799D01*
X8885162Y-12264833D01*
X8743117Y-11921057D01*
X8480327Y-11657808D01*
X8136799Y-11515162D01*
X7764833Y-11514838D01*
X7426905Y-11654467D01*
X7380327Y-11607808D01*
X7036799Y-11465162D01*
X6664833Y-11464838D01*
X6321057Y-11606883D01*
X6057808Y-11869673D01*
X5915162Y-12213201D01*
X5914838Y-12585167D01*
X5922905Y-12604690D01*
X5857808Y-12669673D01*
X5715162Y-13013201D01*
X5714838Y-13385167D01*
X-6215030Y-13385167D01*
X-6214838Y-13164833D01*
X-6356883Y-12821057D01*
X-6387439Y-12790448D01*
X-6365162Y-12736799D01*
X-6364838Y-12364833D01*
X-6506883Y-12021057D01*
X-6537439Y-11990448D01*
X-6515162Y-11936799D01*
X-6514838Y-11564833D01*
X-6656883Y-11221057D01*
X-6919673Y-10957808D01*
X-7263201Y-10815162D01*
X-7635167Y-10814838D01*
X-7729394Y-10853772D01*
X-8015024Y-10735167D01*
X6914838Y-10735167D01*
X7056883Y-11078943D01*
X7319673Y-11342192D01*
X7663201Y-11484838D01*
X8035167Y-11485162D01*
X8378943Y-11343117D01*
X8642192Y-11080327D01*
X8784838Y-10736799D01*
X8785162Y-10364833D01*
X8643117Y-10021057D01*
X8380327Y-9757808D01*
X8036799Y-9615162D01*
X7664833Y-9614838D01*
X7321057Y-9756883D01*
X7057808Y-10019673D01*
X6915162Y-10363201D01*
X6914838Y-10735167D01*
X-8015024Y-10735167D01*
X-8063201Y-10715162D01*
X-8435167Y-10714838D01*
X-8778943Y-10856883D01*
X-9042192Y-11119673D01*
X-9106054Y-11273468D01*
X-9428943Y-11406883D01*
X-9692192Y-11669673D01*
X-9834838Y-12013201D01*
X-9835162Y-12385167D01*
X-14435227Y-12385167D01*
X-16750197Y-10070197D01*
X-16792211Y-10042334D01*
X-16840000Y-10033000D01*
X-25273000Y-10033000D01*
X-25273000Y-9035167D01*
X-16685162Y-9035167D01*
X-16543117Y-9378943D01*
X-16280327Y-9642192D01*
X-15936799Y-9784838D01*
X-15564833Y-9785162D01*
X-15221057Y-9643117D01*
X-14957808Y-9380327D01*
X-14815162Y-9036799D01*
X-14814838Y-8664833D01*
X-14956883Y-8321057D01*
X-15219673Y-8057808D01*
X-15563201Y-7915162D01*
X-15935167Y-7914838D01*
X-16278943Y-8056883D01*
X-16542192Y-8319673D01*
X-16684838Y-8663201D01*
X-16685162Y-9035167D01*
X-25273000Y-9035167D01*
X-25273000Y-8235167D01*
X-23835162Y-8235167D01*
X-23693117Y-8578943D01*
X-23430327Y-8842192D01*
X-23086799Y-8984838D01*
X-22714833Y-8985162D01*
X-22449772Y-8875641D01*
X-22186799Y-8984838D01*
X-21814833Y-8985162D01*
X-21471057Y-8843117D01*
X-21207808Y-8580327D01*
X-21168291Y-8485159D01*
X-21164833Y-8485162D01*
X-20821057Y-8343117D01*
X-20557808Y-8080327D01*
X-20476771Y-7885167D01*
X-15085162Y-7885167D01*
X-14943117Y-8228943D01*
X-14680327Y-8492192D01*
X-14336799Y-8634838D01*
X-13964833Y-8635162D01*
X-13945310Y-8627095D01*
X-13880327Y-8692192D01*
X-13584839Y-8814890D01*
X-13584973Y-8968055D01*
X-13678943Y-9006883D01*
X-13942192Y-9269673D01*
X-14084838Y-9613201D01*
X-14085162Y-9985167D01*
X-13943117Y-10328943D01*
X-13680327Y-10592192D01*
X-13336799Y-10734838D01*
X-12964833Y-10735162D01*
X-12621057Y-10593117D01*
X-12357808Y-10330327D01*
X-12215162Y-9986799D01*
X-12215027Y-9831945D01*
X-12121057Y-9793117D01*
X-11857808Y-9530327D01*
X-11715162Y-9186799D01*
X-11715074Y-9085167D01*
X-5335162Y-9085167D01*
X-5193117Y-9428943D01*
X-4930327Y-9692192D01*
X-4586799Y-9834838D01*
X-4214833Y-9835162D01*
X-3937838Y-9720710D01*
X-3893117Y-9828943D01*
X-3630327Y-10092192D01*
X-3286799Y-10234838D01*
X-2914833Y-10235162D01*
X-2571057Y-10093117D01*
X-2307808Y-9830327D01*
X-2165162Y-9486799D01*
X-2164838Y-9114833D01*
X-2306883Y-8771057D01*
X-2569673Y-8507808D01*
X-2913201Y-8365162D01*
X-3285167Y-8364838D01*
X-3562162Y-8479290D01*
X-3606883Y-8371057D01*
X-3869673Y-8107808D01*
X-4213201Y-7965162D01*
X-4585167Y-7964838D01*
X-4928943Y-8106883D01*
X-5192192Y-8369673D01*
X-5334838Y-8713201D01*
X-5335162Y-9085167D01*
X-11715074Y-9085167D01*
X-11714838Y-8814833D01*
X-11856883Y-8471057D01*
X-11877884Y-8450019D01*
X-11657808Y-8230327D01*
X-11515162Y-7886799D01*
X-11514943Y-7635167D01*
X10814838Y-7635167D01*
X10956883Y-7978943D01*
X11219673Y-8242192D01*
X11563201Y-8384838D01*
X11692678Y-8384951D01*
X11607808Y-8469673D01*
X11465162Y-8813201D01*
X11464838Y-9185167D01*
X11606883Y-9528943D01*
X11869673Y-9792192D01*
X12213201Y-9934838D01*
X12585167Y-9935162D01*
X12928943Y-9793117D01*
X12975024Y-9747116D01*
X13219673Y-9992192D01*
X13563201Y-10134838D01*
X13935167Y-10135162D01*
X14278943Y-9993117D01*
X14542192Y-9730327D01*
X14684838Y-9386799D01*
X14685162Y-9014833D01*
X14543117Y-8671057D01*
X14280327Y-8407808D01*
X13936799Y-8265162D01*
X13564833Y-8264838D01*
X13221057Y-8406883D01*
X13174976Y-8452884D01*
X12930327Y-8207808D01*
X12866007Y-8181100D01*
X12977173Y-8135167D01*
X18264838Y-8135167D01*
X18406883Y-8478943D01*
X18669673Y-8742192D01*
X19013201Y-8884838D01*
X19385167Y-8885162D01*
X19728943Y-8743117D01*
X19992192Y-8480327D01*
X20134838Y-8136799D01*
X20135162Y-7764833D01*
X19993117Y-7421057D01*
X19730327Y-7157808D01*
X19386799Y-7015162D01*
X19014833Y-7014838D01*
X18671057Y-7156883D01*
X18407808Y-7419673D01*
X18265162Y-7763201D01*
X18264838Y-8135167D01*
X12977173Y-8135167D01*
X13078943Y-8093117D01*
X13109552Y-8062561D01*
X13163201Y-8084838D01*
X13535167Y-8085162D01*
X13878943Y-7943117D01*
X13909552Y-7912561D01*
X13963201Y-7934838D01*
X14335167Y-7935162D01*
X14678943Y-7793117D01*
X14942192Y-7530327D01*
X15084838Y-7186799D01*
X15085162Y-6814833D01*
X14943117Y-6471057D01*
X14680327Y-6207808D01*
X14336799Y-6065162D01*
X13964833Y-6064838D01*
X13621057Y-6206883D01*
X13590448Y-6237439D01*
X13536799Y-6215162D01*
X13164833Y-6214838D01*
X12821057Y-6356883D01*
X12790448Y-6387439D01*
X12736799Y-6365162D01*
X12364833Y-6364838D01*
X12021057Y-6506883D01*
X11990448Y-6537439D01*
X11936799Y-6515162D01*
X11564833Y-6514838D01*
X11221057Y-6656883D01*
X10957808Y-6919673D01*
X10815162Y-7263201D01*
X10814838Y-7635167D01*
X-11514943Y-7635167D01*
X-11514838Y-7514833D01*
X-11625214Y-7247702D01*
X-11607808Y-7230327D01*
X-11465162Y-6886799D01*
X-11465118Y-6835167D01*
X-6685162Y-6835167D01*
X-6543117Y-7178943D01*
X-6280327Y-7442192D01*
X-5936799Y-7584838D01*
X-5564833Y-7585162D01*
X-5221057Y-7443117D01*
X-4957808Y-7180327D01*
X-4815162Y-6836799D01*
X-4814838Y-6464833D01*
X-4956883Y-6121057D01*
X-5219673Y-5857808D01*
X-5563201Y-5715162D01*
X-5935167Y-5714838D01*
X-6278943Y-5856883D01*
X-6542192Y-6119673D01*
X-6684838Y-6463201D01*
X-6685162Y-6835167D01*
X-11465118Y-6835167D01*
X-11464838Y-6514833D01*
X-11606883Y-6171057D01*
X-11869673Y-5907808D01*
X-12213201Y-5765162D01*
X-12585167Y-5764838D01*
X-12679394Y-5803772D01*
X-13013201Y-5665162D01*
X-13385167Y-5664838D01*
X-13728943Y-5806883D01*
X-13992192Y-6069673D01*
X-14134838Y-6413201D01*
X-14135144Y-6765012D01*
X-14335167Y-6764838D01*
X-14678943Y-6906883D01*
X-14942192Y-7169673D01*
X-15084838Y-7513201D01*
X-15085162Y-7885167D01*
X-20476771Y-7885167D01*
X-20415162Y-7736799D01*
X-20414838Y-7364833D01*
X-20503648Y-7149896D01*
X-20415162Y-6936799D01*
X-20414838Y-6564833D01*
X-20556883Y-6221057D01*
X-20819673Y-5957808D01*
X-21163201Y-5815162D01*
X-21535167Y-5814838D01*
X-21878943Y-5956883D01*
X-22142192Y-6219673D01*
X-22284838Y-6563201D01*
X-22285162Y-6935167D01*
X-22207168Y-7123928D01*
X-22450228Y-7224359D01*
X-22713201Y-7115162D01*
X-23085167Y-7114838D01*
X-23428943Y-7256883D01*
X-23692192Y-7519673D01*
X-23834838Y-7863201D01*
X-23835162Y-8235167D01*
X-25273000Y-8235167D01*
X-25273000Y-3235167D01*
X-22185162Y-3235167D01*
X-22043117Y-3578943D01*
X-21780327Y-3842192D01*
X-21436799Y-3984838D01*
X-21064833Y-3985162D01*
X-20943836Y-3935167D01*
X-7785162Y-3935167D01*
X-7675641Y-4200228D01*
X-7784838Y-4463201D01*
X-7785162Y-4835167D01*
X-7643117Y-5178943D01*
X-7380327Y-5442192D01*
X-7036799Y-5584838D01*
X-6664833Y-5585162D01*
X-6422827Y-5485167D01*
X-5335162Y-5485167D01*
X-5193117Y-5828943D01*
X-4930327Y-6092192D01*
X-4586799Y-6234838D01*
X-4214833Y-6235162D01*
X-3949772Y-6125641D01*
X-3686799Y-6234838D01*
X-3314833Y-6235162D01*
X-3045253Y-6123774D01*
X-3043117Y-6128943D01*
X-2780327Y-6392192D01*
X-2436799Y-6534838D01*
X-2064833Y-6535162D01*
X-1721057Y-6393117D01*
X-1457808Y-6130327D01*
X-1315162Y-5786799D01*
X-1314838Y-5414833D01*
X-1409733Y-5185167D01*
X-435162Y-5185167D01*
X-293117Y-5528943D01*
X-30327Y-5792192D01*
X313201Y-5934838D01*
X685167Y-5935162D01*
X1028943Y-5793117D01*
X1292192Y-5530327D01*
X1434838Y-5186799D01*
X1435162Y-4814833D01*
X1293117Y-4471057D01*
X1157464Y-4335167D01*
X2614838Y-4335167D01*
X2756883Y-4678943D01*
X3019673Y-4942192D01*
X3363201Y-5084838D01*
X3368001Y-5084842D01*
X3406883Y-5178943D01*
X3669673Y-5442192D01*
X4013201Y-5584838D01*
X4385167Y-5585162D01*
X4728943Y-5443117D01*
X4969340Y-5203139D01*
X4965162Y-5213201D01*
X4964838Y-5585167D01*
X5106883Y-5928943D01*
X5369673Y-6192192D01*
X5713201Y-6334838D01*
X6085167Y-6335162D01*
X6428943Y-6193117D01*
X6692192Y-5930327D01*
X6834838Y-5586799D01*
X6835162Y-5214833D01*
X6740267Y-4985167D01*
X7164838Y-4985167D01*
X7306883Y-5328943D01*
X7569673Y-5592192D01*
X7913201Y-5734838D01*
X8285167Y-5735162D01*
X8628943Y-5593117D01*
X8892192Y-5330327D01*
X9034838Y-4986799D01*
X9034926Y-4885167D01*
X19764838Y-4885167D01*
X19906883Y-5228943D01*
X20169673Y-5492192D01*
X20513201Y-5634838D01*
X20885167Y-5635162D01*
X21175290Y-5515286D01*
X21463201Y-5634838D01*
X21835167Y-5635162D01*
X21854690Y-5627095D01*
X21919673Y-5692192D01*
X22263201Y-5834838D01*
X22635167Y-5835162D01*
X22900228Y-5725641D01*
X23163201Y-5834838D01*
X23535167Y-5835162D01*
X23878943Y-5693117D01*
X24142192Y-5430327D01*
X24284838Y-5086799D01*
X24285162Y-4714833D01*
X24143117Y-4371057D01*
X23880327Y-4107808D01*
X23536799Y-3965162D01*
X23164833Y-3964838D01*
X22899772Y-4074359D01*
X22636799Y-3965162D01*
X22264833Y-3964838D01*
X22245310Y-3972905D01*
X22180327Y-3907808D01*
X21836799Y-3765162D01*
X21464833Y-3764838D01*
X21174710Y-3884714D01*
X20886799Y-3765162D01*
X20514833Y-3764838D01*
X20171057Y-3906883D01*
X19907808Y-4169673D01*
X19765162Y-4513201D01*
X19764838Y-4885167D01*
X9034926Y-4885167D01*
X9035057Y-4735118D01*
X9085167Y-4735162D01*
X9428943Y-4593117D01*
X9692192Y-4330327D01*
X9834838Y-3986799D01*
X9835162Y-3614833D01*
X9785170Y-3493842D01*
X10028943Y-3393117D01*
X10292192Y-3130327D01*
X10434838Y-2786799D01*
X10435162Y-2414833D01*
X10293117Y-2071057D01*
X10030327Y-1807808D01*
X9686799Y-1665162D01*
X9314833Y-1664838D01*
X8971057Y-1806883D01*
X8707808Y-2069673D01*
X8565162Y-2413201D01*
X8564838Y-2785167D01*
X8614830Y-2906158D01*
X8371057Y-3006883D01*
X8107808Y-3269673D01*
X7965162Y-3613201D01*
X7964943Y-3864882D01*
X7914833Y-3864838D01*
X7571057Y-4006883D01*
X7307808Y-4269673D01*
X7165162Y-4613201D01*
X7164838Y-4985167D01*
X6740267Y-4985167D01*
X6693117Y-4871057D01*
X6430327Y-4607808D01*
X6086799Y-4465162D01*
X5714833Y-4464838D01*
X5371057Y-4606883D01*
X5130660Y-4846861D01*
X5134838Y-4836799D01*
X5135162Y-4464833D01*
X4993117Y-4121057D01*
X4730327Y-3857808D01*
X4386799Y-3715162D01*
X4381999Y-3715158D01*
X4343117Y-3621057D01*
X4080327Y-3357808D01*
X3736799Y-3215162D01*
X3364833Y-3214838D01*
X3021057Y-3356883D01*
X2757808Y-3619673D01*
X2615162Y-3963201D01*
X2614838Y-4335167D01*
X1157464Y-4335167D01*
X1030327Y-4207808D01*
X686799Y-4065162D01*
X314833Y-4064838D01*
X-28943Y-4206883D01*
X-292192Y-4469673D01*
X-434838Y-4813201D01*
X-435162Y-5185167D01*
X-1409733Y-5185167D01*
X-1456883Y-5071057D01*
X-1719673Y-4807808D01*
X-2063201Y-4665162D01*
X-2435167Y-4664838D01*
X-2704747Y-4776226D01*
X-2706883Y-4771057D01*
X-2969673Y-4507808D01*
X-3313201Y-4365162D01*
X-3685167Y-4364838D01*
X-3950228Y-4474359D01*
X-4213201Y-4365162D01*
X-4585167Y-4364838D01*
X-4928943Y-4506883D01*
X-5192192Y-4769673D01*
X-5334838Y-5113201D01*
X-5335162Y-5485167D01*
X-6422827Y-5485167D01*
X-6321057Y-5443117D01*
X-6057808Y-5180327D01*
X-5915162Y-4836799D01*
X-5914838Y-4464833D01*
X-6024359Y-4199772D01*
X-5915162Y-3936799D01*
X-5914838Y-3564833D01*
X-6056883Y-3221057D01*
X-6142623Y-3135167D01*
X-4085162Y-3135167D01*
X-3943117Y-3478943D01*
X-3680327Y-3742192D01*
X-3336799Y-3884838D01*
X-2964833Y-3885162D01*
X-2621057Y-3743117D01*
X-2357808Y-3480327D01*
X-2215162Y-3136799D01*
X-2214838Y-2764833D01*
X-2356883Y-2421057D01*
X-2619673Y-2157808D01*
X-2963201Y-2015162D01*
X-3335167Y-2014838D01*
X-3678943Y-2156883D01*
X-3942192Y-2419673D01*
X-4084838Y-2763201D01*
X-4085162Y-3135167D01*
X-6142623Y-3135167D01*
X-6319673Y-2957808D01*
X-6663201Y-2815162D01*
X-7035167Y-2814838D01*
X-7378943Y-2956883D01*
X-7642192Y-3219673D01*
X-7784838Y-3563201D01*
X-7785162Y-3935167D01*
X-20943836Y-3935167D01*
X-20721057Y-3843117D01*
X-20457808Y-3580327D01*
X-20315162Y-3236799D01*
X-20314838Y-2864833D01*
X-20456883Y-2521057D01*
X-20719673Y-2257808D01*
X-21063201Y-2115162D01*
X-21435167Y-2114838D01*
X-21778943Y-2256883D01*
X-22042192Y-2519673D01*
X-22184838Y-2863201D01*
X-22185162Y-3235167D01*
X-25273000Y-3235167D01*
X-25273000Y-1935167D01*
X3514838Y-1935167D01*
X3656883Y-2278943D01*
X3919673Y-2542192D01*
X4165135Y-2644117D01*
X4164838Y-2985167D01*
X4306883Y-3328943D01*
X4569673Y-3592192D01*
X4894055Y-3726888D01*
X4956883Y-3878943D01*
X5219673Y-4142192D01*
X5563201Y-4284838D01*
X5935167Y-4285162D01*
X6278943Y-4143117D01*
X6542192Y-3880327D01*
X6684838Y-3536799D01*
X6685162Y-3164833D01*
X6543117Y-2821057D01*
X6280327Y-2557808D01*
X5955945Y-2423112D01*
X5893117Y-2271057D01*
X5630327Y-2007808D01*
X5384865Y-1905883D01*
X5385144Y-1585167D01*
X19664838Y-1585167D01*
X19806883Y-1928943D01*
X20069673Y-2192192D01*
X20413201Y-2334838D01*
X20785167Y-2335162D01*
X21128943Y-2193117D01*
X21392192Y-1930327D01*
X21531239Y-1595466D01*
X21778943Y-1493117D01*
X22037343Y-1235167D01*
X22814838Y-1235167D01*
X22956883Y-1578943D01*
X23219673Y-1842192D01*
X23563201Y-1984838D01*
X23935167Y-1985162D01*
X24278943Y-1843117D01*
X24542192Y-1580327D01*
X24684838Y-1236799D01*
X24685162Y-864833D01*
X24543117Y-521057D01*
X24280327Y-257808D01*
X23936799Y-115162D01*
X23564833Y-114838D01*
X23221057Y-256883D01*
X22957808Y-519673D01*
X22815162Y-863201D01*
X22814838Y-1235167D01*
X22037343Y-1235167D01*
X22042192Y-1230327D01*
X22184838Y-886799D01*
X22185162Y-514833D01*
X22043117Y-171057D01*
X21780327Y92192D01*
X21436799Y234838D01*
X21064833Y235162D01*
X20721057Y93117D01*
X20457808Y-169673D01*
X20318761Y-504534D01*
X20071057Y-606883D01*
X19807808Y-869673D01*
X19665162Y-1213201D01*
X19664838Y-1585167D01*
X5385144Y-1585167D01*
X5385162Y-1564833D01*
X5243117Y-1221057D01*
X4980327Y-957808D01*
X4636799Y-815162D01*
X4264833Y-814838D01*
X3921057Y-956883D01*
X3657808Y-1219673D01*
X3515162Y-1563201D01*
X3514838Y-1935167D01*
X-25273000Y-1935167D01*
X-25273000Y-1600000D01*
X-25283006Y-1550590D01*
X-25310197Y-1510197D01*
X-25952363Y-868031D01*
X-25771057Y-793117D01*
X-25662919Y-685167D01*
X-5935162Y-685167D01*
X-5793117Y-1028943D01*
X-5530327Y-1292192D01*
X-5186799Y-1434838D01*
X-4814833Y-1435162D01*
X-4471057Y-1293117D01*
X-4207808Y-1030327D01*
X-4065162Y-686799D01*
X-4064838Y-314833D01*
X-4118414Y-185167D01*
X-935162Y-185167D01*
X-793117Y-528943D01*
X-530327Y-792192D01*
X-186799Y-934838D01*
X185167Y-935162D01*
X528943Y-793117D01*
X792192Y-530327D01*
X914753Y-235167D01*
X4314838Y-235167D01*
X4456883Y-578943D01*
X4719673Y-842192D01*
X5063201Y-984838D01*
X5435167Y-985162D01*
X5778943Y-843117D01*
X6042192Y-580327D01*
X6184838Y-236799D01*
X6185162Y135167D01*
X6043117Y478943D01*
X5780327Y742192D01*
X5436799Y884838D01*
X5064833Y885162D01*
X4721057Y743117D01*
X4457808Y480327D01*
X4315162Y136799D01*
X4314838Y-235167D01*
X914753Y-235167D01*
X934838Y-186799D01*
X935162Y185167D01*
X793117Y528943D01*
X530327Y792192D01*
X186799Y934838D01*
X-185167Y935162D01*
X-528943Y793117D01*
X-792192Y530327D01*
X-934838Y186799D01*
X-935162Y-185167D01*
X-4118414Y-185167D01*
X-4206883Y28943D01*
X-4469673Y292192D01*
X-4813201Y434838D01*
X-5185167Y435162D01*
X-5528943Y293117D01*
X-5792192Y30327D01*
X-5934838Y-313201D01*
X-5935162Y-685167D01*
X-25662919Y-685167D01*
X-25507808Y-530327D01*
X-25365162Y-186799D01*
X-25364838Y185167D01*
X-25506883Y528943D01*
X-25769673Y792192D01*
X-25824198Y814833D01*
X-24685162Y814833D01*
X-24543117Y471057D01*
X-24280327Y207808D01*
X-23936799Y65162D01*
X-23564833Y64838D01*
X-23221057Y206883D01*
X-22957808Y469673D01*
X-22939056Y514833D01*
X-22185162Y514833D01*
X-22043117Y171057D01*
X-21780327Y-92192D01*
X-21436799Y-234838D01*
X-21064833Y-235162D01*
X-20721057Y-93117D01*
X-20457808Y169673D01*
X-20318761Y504534D01*
X-20071057Y606883D01*
X-19807808Y869673D01*
X-19768294Y964833D01*
X1714838Y964833D01*
X1856883Y621057D01*
X2119673Y357808D01*
X2463201Y215162D01*
X2835167Y214838D01*
X3178943Y356883D01*
X3442192Y619673D01*
X3584838Y963201D01*
X3585162Y1335167D01*
X3443117Y1678943D01*
X3180327Y1942192D01*
X2836799Y2084838D01*
X2464833Y2085162D01*
X2121057Y1943117D01*
X1857808Y1680327D01*
X1715162Y1336799D01*
X1714838Y964833D01*
X-19768294Y964833D01*
X-19665162Y1213201D01*
X-19664838Y1585167D01*
X-19806883Y1928943D01*
X-20069673Y2192192D01*
X-20413201Y2334838D01*
X-20785167Y2335162D01*
X-21128943Y2193117D01*
X-21392192Y1930327D01*
X-21531239Y1595466D01*
X-21778943Y1493117D01*
X-22042192Y1230327D01*
X-22184838Y886799D01*
X-22185162Y514833D01*
X-22939056Y514833D01*
X-22815162Y813201D01*
X-22814838Y1185167D01*
X-22956883Y1528943D01*
X-23219673Y1792192D01*
X-23563201Y1934838D01*
X-23935167Y1935162D01*
X-24278943Y1793117D01*
X-24542192Y1530327D01*
X-24684838Y1186799D01*
X-24685162Y814833D01*
X-25824198Y814833D01*
X-25952348Y868046D01*
X-25310197Y1510197D01*
X-25282334Y1552211D01*
X-25273000Y1600000D01*
X-25273000Y2714833D01*
X-10535162Y2714833D01*
X-10393117Y2371057D01*
X-10130327Y2107808D01*
X-9786799Y1965162D01*
X-9414833Y1964838D01*
X-9071057Y2106883D01*
X-8807808Y2369673D01*
X-8665162Y2713201D01*
X-8664838Y3085167D01*
X-8806883Y3428943D01*
X-9069673Y3692192D01*
X-9413201Y3834838D01*
X-9785167Y3835162D01*
X-10128943Y3693117D01*
X-10392192Y3430327D01*
X-10534838Y3086799D01*
X-10535162Y2714833D01*
X-25273000Y2714833D01*
X-25273000Y4714833D01*
X-24085162Y4714833D01*
X-23943117Y4371057D01*
X-23680327Y4107808D01*
X-23336799Y3965162D01*
X-22964833Y3964838D01*
X-22810251Y4028710D01*
X-22536799Y3915162D01*
X-22164833Y3914838D01*
X-22109973Y3937506D01*
X-22080327Y3907808D01*
X-21736799Y3765162D01*
X-21364833Y3764838D01*
X-21124834Y3864003D01*
X-20886799Y3765162D01*
X-20514833Y3764838D01*
X-20171057Y3906883D01*
X-19907808Y4169673D01*
X-19785247Y4464833D01*
X-9435162Y4464833D01*
X-9293117Y4121057D01*
X-9030327Y3857808D01*
X-8686799Y3715162D01*
X-8314833Y3714838D01*
X-7971057Y3856883D01*
X-7707808Y4119673D01*
X-7565162Y4463201D01*
X-7564838Y4835167D01*
X-7706883Y5178943D01*
X-7969673Y5442192D01*
X-8313201Y5584838D01*
X-8685167Y5585162D01*
X-9028943Y5443117D01*
X-9292192Y5180327D01*
X-9434838Y4836799D01*
X-9435162Y4464833D01*
X-19785247Y4464833D01*
X-19765162Y4513201D01*
X-19764838Y4885167D01*
X-19906883Y5228943D01*
X-20169673Y5492192D01*
X-20513201Y5634838D01*
X-20885167Y5635162D01*
X-21125166Y5535997D01*
X-21363201Y5634838D01*
X-21735167Y5635162D01*
X-21790027Y5612494D01*
X-21819673Y5642192D01*
X-22163201Y5784838D01*
X-22535167Y5785162D01*
X-22689749Y5721290D01*
X-22963201Y5834838D01*
X-23335167Y5835162D01*
X-23678943Y5693117D01*
X-23942192Y5430327D01*
X-24084838Y5086799D01*
X-24085162Y4714833D01*
X-25273000Y4714833D01*
X-25273000Y6814833D01*
X-15085162Y6814833D01*
X-14943117Y6471057D01*
X-14680327Y6207808D01*
X-14336799Y6065162D01*
X-13964833Y6064838D01*
X-13621057Y6206883D01*
X-13613094Y6214833D01*
X-7785162Y6214833D01*
X-7643117Y5871057D01*
X-7380327Y5607808D01*
X-7036799Y5465162D01*
X-6664833Y5464838D01*
X-6321057Y5606883D01*
X-6057808Y5869673D01*
X-5929200Y6179394D01*
X-5843117Y5971057D01*
X-5580327Y5707808D01*
X-5427895Y5644512D01*
X-5492192Y5580327D01*
X-5634838Y5236799D01*
X-5635162Y4864833D01*
X-5539413Y4633101D01*
X-5542192Y4630327D01*
X-5684838Y4286799D01*
X-5685162Y3914833D01*
X-5543117Y3571057D01*
X-5280327Y3307808D01*
X-4936799Y3165162D01*
X-4811296Y3165053D01*
X-4793117Y3121057D01*
X-4530327Y2857808D01*
X-4186799Y2715162D01*
X-3814833Y2714838D01*
X-3471057Y2856883D01*
X-3207808Y3119673D01*
X-3065162Y3463201D01*
X-3064838Y3835167D01*
X-3206883Y4178943D01*
X-3469673Y4442192D01*
X-3813201Y4584838D01*
X-3880725Y4584897D01*
X-3765162Y4863201D01*
X-3764987Y5064833D01*
X-885162Y5064833D01*
X-743117Y4721057D01*
X-480327Y4457808D01*
X-136799Y4315162D01*
X235167Y4314838D01*
X578943Y4456883D01*
X842192Y4719673D01*
X984838Y5063201D01*
X985162Y5435167D01*
X843117Y5778943D01*
X580327Y6042192D01*
X236799Y6184838D01*
X-135167Y6185162D01*
X-478943Y6043117D01*
X-742192Y5780327D01*
X-884838Y5436799D01*
X-885162Y5064833D01*
X-3764987Y5064833D01*
X-3764838Y5235167D01*
X-3900000Y5562286D01*
X-3671057Y5656883D01*
X-3407808Y5919673D01*
X-3265162Y6263201D01*
X-3264838Y6635167D01*
X-3406883Y6978943D01*
X-3669673Y7242192D01*
X-4013201Y7384838D01*
X-4385167Y7385162D01*
X-4564811Y7310935D01*
X-4863201Y7434838D01*
X-5235167Y7435162D01*
X-5578943Y7293117D01*
X-5842192Y7030327D01*
X-5970800Y6720606D01*
X-6056883Y6928943D01*
X-6319673Y7192192D01*
X-6663201Y7334838D01*
X-7035167Y7335162D01*
X-7378943Y7193117D01*
X-7642192Y6930327D01*
X-7784838Y6586799D01*
X-7785162Y6214833D01*
X-13613094Y6214833D01*
X-13590448Y6237439D01*
X-13536799Y6215162D01*
X-13164833Y6214838D01*
X-12821057Y6356883D01*
X-12790448Y6387439D01*
X-12736799Y6365162D01*
X-12364833Y6364838D01*
X-12029185Y6503524D01*
X-11936799Y6465162D01*
X-11564833Y6464838D01*
X-11221057Y6606883D01*
X-10957808Y6869673D01*
X-10815162Y7213201D01*
X-10815118Y7264833D01*
X-10785162Y7264833D01*
X-10643117Y6921057D01*
X-10380327Y6657808D01*
X-10036799Y6515162D01*
X-9664833Y6514838D01*
X-9321057Y6656883D01*
X-9057808Y6919673D01*
X-8915162Y7263201D01*
X-8914838Y7635167D01*
X-9056883Y7978943D01*
X-9319673Y8242192D01*
X-9663201Y8384838D01*
X-10035167Y8385162D01*
X-10378943Y8243117D01*
X-10642192Y7980327D01*
X-10784838Y7636799D01*
X-10785162Y7264833D01*
X-10815118Y7264833D01*
X-10814838Y7585167D01*
X-10956883Y7928943D01*
X-11219673Y8192192D01*
X-11563201Y8334838D01*
X-11792678Y8335038D01*
X-11657808Y8469673D01*
X-11515162Y8813201D01*
X-11514838Y9185167D01*
X-11589074Y9364833D01*
X1814838Y9364833D01*
X1956883Y9021057D01*
X2219673Y8757808D01*
X2563201Y8615162D01*
X2765012Y8614986D01*
X2764838Y8414833D01*
X2906883Y8071057D01*
X3169673Y7807808D01*
X3513201Y7665162D01*
X3885167Y7664838D01*
X4197456Y7793873D01*
X4206883Y7771057D01*
X4469673Y7507808D01*
X4544471Y7476749D01*
X4221057Y7343117D01*
X3957808Y7080327D01*
X3815162Y6736799D01*
X3814838Y6364833D01*
X3956883Y6021057D01*
X4052753Y5925019D01*
X3907808Y5780327D01*
X3819426Y5567480D01*
X3536799Y5684838D01*
X3164833Y5685162D01*
X2821057Y5543117D01*
X2557808Y5280327D01*
X2415162Y4936799D01*
X2414838Y4564833D01*
X2556883Y4221057D01*
X2819673Y3957808D01*
X3058762Y3858529D01*
X3156883Y3621057D01*
X3419673Y3357808D01*
X3719117Y3233467D01*
X3806883Y3021057D01*
X4069673Y2757808D01*
X4413201Y2615162D01*
X4785167Y2614838D01*
X5128943Y2756883D01*
X5387521Y3015010D01*
X5585167Y3014838D01*
X5928943Y3156883D01*
X6164906Y3392434D01*
X6164838Y3314833D01*
X6306883Y2971057D01*
X6569673Y2707808D01*
X6913201Y2565162D01*
X7285167Y2564838D01*
X7550228Y2674359D01*
X7813201Y2565162D01*
X8185167Y2564838D01*
X8528943Y2706883D01*
X8687168Y2864833D01*
X20314838Y2864833D01*
X20456883Y2521057D01*
X20719673Y2257808D01*
X21063201Y2115162D01*
X21435167Y2114838D01*
X21778943Y2256883D01*
X22042192Y2519673D01*
X22184838Y2863201D01*
X22185162Y3235167D01*
X22043117Y3578943D01*
X21780327Y3842192D01*
X21436799Y3984838D01*
X21064833Y3985162D01*
X20721057Y3843117D01*
X20457808Y3580327D01*
X20315162Y3236799D01*
X20314838Y2864833D01*
X8687168Y2864833D01*
X8792192Y2969673D01*
X8934838Y3313201D01*
X8935162Y3685167D01*
X8793117Y4028943D01*
X8530327Y4292192D01*
X8234977Y4414833D01*
X18814838Y4414833D01*
X18956883Y4071057D01*
X19219673Y3807808D01*
X19563201Y3665162D01*
X19935167Y3664838D01*
X20278943Y3806883D01*
X20542192Y4069673D01*
X20684838Y4413201D01*
X20685162Y4785167D01*
X20543117Y5128943D01*
X20280327Y5392192D01*
X19936799Y5534838D01*
X19564833Y5535162D01*
X19221057Y5393117D01*
X18957808Y5130327D01*
X18815162Y4786799D01*
X18814838Y4414833D01*
X8234977Y4414833D01*
X8186799Y4434838D01*
X7935118Y4435057D01*
X7935162Y4485167D01*
X7845648Y4701807D01*
X7978943Y4756883D01*
X8242192Y5019673D01*
X8384838Y5363201D01*
X8385162Y5735167D01*
X8243117Y6078943D01*
X7980327Y6342192D01*
X7636799Y6484838D01*
X7264833Y6485162D01*
X6921057Y6343117D01*
X6657808Y6080327D01*
X6515162Y5736799D01*
X6514838Y5364833D01*
X6604352Y5148193D01*
X6471057Y5093117D01*
X6207808Y4830327D01*
X6100447Y4571775D01*
X5930327Y4742192D01*
X5586799Y4884838D01*
X5560784Y4884861D01*
X5626888Y5044055D01*
X5778943Y5106883D01*
X6042192Y5369673D01*
X6184838Y5713201D01*
X6185162Y6085167D01*
X6043117Y6428943D01*
X5780327Y6692192D01*
X5685159Y6731709D01*
X5685162Y6735167D01*
X5543117Y7078943D01*
X5280327Y7342192D01*
X5205529Y7373251D01*
X5528943Y7506883D01*
X5792192Y7769673D01*
X5934838Y8113201D01*
X5934926Y8214833D01*
X10414838Y8214833D01*
X10556883Y7871057D01*
X10819673Y7607808D01*
X11163201Y7465162D01*
X11535167Y7464838D01*
X11684037Y7526350D01*
X11688941Y7514479D01*
X11615162Y7336799D01*
X11614838Y6964833D01*
X11756883Y6621057D01*
X12019673Y6357808D01*
X12363201Y6215162D01*
X12388668Y6215140D01*
X12406883Y6171057D01*
X12669673Y5907808D01*
X13013201Y5765162D01*
X13385167Y5764838D01*
X13728943Y5906883D01*
X13992192Y6169673D01*
X14134838Y6513201D01*
X14135144Y6865012D01*
X14335167Y6864838D01*
X14678943Y7006883D01*
X14942192Y7269673D01*
X14981706Y7364833D01*
X20414838Y7364833D01*
X20503648Y7149896D01*
X20415162Y6936799D01*
X20414838Y6564833D01*
X20556883Y6221057D01*
X20819673Y5957808D01*
X21163201Y5815162D01*
X21535167Y5814838D01*
X21878943Y5956883D01*
X22142192Y6219673D01*
X22284838Y6563201D01*
X22285162Y6935167D01*
X22207168Y7123928D01*
X22450228Y7224359D01*
X22713201Y7115162D01*
X23085167Y7114838D01*
X23428943Y7256883D01*
X23692192Y7519673D01*
X23834838Y7863201D01*
X23835162Y8235167D01*
X23693117Y8578943D01*
X23430327Y8842192D01*
X23086799Y8984838D01*
X22714833Y8985162D01*
X22449772Y8875641D01*
X22186799Y8984838D01*
X21814833Y8985162D01*
X21471057Y8843117D01*
X21207808Y8580327D01*
X21168291Y8485159D01*
X21164833Y8485162D01*
X20821057Y8343117D01*
X20557808Y8080327D01*
X20415162Y7736799D01*
X20414838Y7364833D01*
X14981706Y7364833D01*
X15084838Y7613201D01*
X15085162Y7985167D01*
X14943117Y8328943D01*
X14680327Y8592192D01*
X14386586Y8714164D01*
X14442192Y8769673D01*
X14584838Y9113201D01*
X14585162Y9485167D01*
X14443117Y9828943D01*
X14180327Y10092192D01*
X13836799Y10234838D01*
X13464833Y10235162D01*
X13121057Y10093117D01*
X12857808Y9830327D01*
X12715162Y9486799D01*
X12714838Y9114833D01*
X12810420Y8883506D01*
X12686799Y8934838D01*
X12314833Y8935162D01*
X12165963Y8873650D01*
X12143117Y8928943D01*
X11880327Y9192192D01*
X11536799Y9334838D01*
X11164833Y9335162D01*
X10821057Y9193117D01*
X10557808Y8930327D01*
X10415162Y8586799D01*
X10414838Y8214833D01*
X5934926Y8214833D01*
X5935162Y8485167D01*
X5793117Y8828943D01*
X5530327Y9092192D01*
X5186799Y9234838D01*
X4814833Y9235162D01*
X4502544Y9106127D01*
X4493117Y9128943D01*
X4230327Y9392192D01*
X3886799Y9534838D01*
X3684988Y9535014D01*
X3685144Y9714833D01*
X7764838Y9714833D01*
X7906883Y9371057D01*
X8169673Y9107808D01*
X8513201Y8965162D01*
X8885167Y8964838D01*
X9228943Y9106883D01*
X9492192Y9369673D01*
X9634838Y9713201D01*
X9635162Y10085167D01*
X9493117Y10428943D01*
X9230327Y10692192D01*
X8886799Y10834838D01*
X8514833Y10835162D01*
X8171057Y10693117D01*
X7907808Y10430327D01*
X7765162Y10086799D01*
X7764838Y9714833D01*
X3685144Y9714833D01*
X3685162Y9735167D01*
X3543117Y10078943D01*
X3280327Y10342192D01*
X2936799Y10484838D01*
X2564833Y10485162D01*
X2221057Y10343117D01*
X1957808Y10080327D01*
X1815162Y9736799D01*
X1814838Y9364833D01*
X-11589074Y9364833D01*
X-11656883Y9528943D01*
X-11919673Y9792192D01*
X-12263201Y9934838D01*
X-12635167Y9935162D01*
X-12978943Y9793117D01*
X-12999981Y9772116D01*
X-13219673Y9992192D01*
X-13563201Y10134838D01*
X-13935167Y10135162D01*
X-14278943Y9993117D01*
X-14542192Y9730327D01*
X-14684838Y9386799D01*
X-14685162Y9014833D01*
X-14543117Y8671057D01*
X-14280327Y8407808D01*
X-13936799Y8265162D01*
X-13564833Y8264838D01*
X-13221057Y8406883D01*
X-13200019Y8427884D01*
X-12980327Y8207808D01*
X-12891069Y8170745D01*
X-13078943Y8093117D01*
X-13109552Y8062561D01*
X-13163201Y8084838D01*
X-13535167Y8085162D01*
X-13878943Y7943117D01*
X-13909552Y7912561D01*
X-13963201Y7934838D01*
X-14335167Y7935162D01*
X-14678943Y7793117D01*
X-14942192Y7530327D01*
X-15084838Y7186799D01*
X-15085162Y6814833D01*
X-25273000Y6814833D01*
X-25273000Y7764833D01*
X-20135162Y7764833D01*
X-19993117Y7421057D01*
X-19730327Y7157808D01*
X-19386799Y7015162D01*
X-19014833Y7014838D01*
X-18671057Y7156883D01*
X-18407808Y7419673D01*
X-18265162Y7763201D01*
X-18264838Y8135167D01*
X-18406883Y8478943D01*
X-18669673Y8742192D01*
X-19013201Y8884838D01*
X-19385167Y8885162D01*
X-19728943Y8743117D01*
X-19992192Y8480327D01*
X-20134838Y8136799D01*
X-20135162Y7764833D01*
X-25273000Y7764833D01*
X-25273000Y10033000D01*
X-16840000Y10033000D01*
X-16790590Y10043006D01*
X-16750197Y10070197D01*
X-13155561Y13664833D01*
X-10685162Y13664833D01*
X-10543117Y13321057D01*
X-10280327Y13057808D01*
X-9936799Y12915162D01*
X-9564833Y12914838D01*
X-9340778Y13007415D01*
X-9243117Y12771057D01*
X-9233210Y12761133D01*
X-9284838Y12636799D01*
X-9285162Y12264833D01*
X-9143117Y11921057D01*
X-8880327Y11657808D01*
X-8536799Y11515162D01*
X-8164833Y11514838D01*
X-7897702Y11625214D01*
X-7880327Y11607808D01*
X-7536799Y11465162D01*
X-7164833Y11464838D01*
X-6821057Y11606883D01*
X-6557808Y11869673D01*
X-6415162Y12213201D01*
X-6415081Y12306055D01*
X-6171057Y12406883D01*
X-5907808Y12669673D01*
X-5765162Y13013201D01*
X-5764838Y13385167D01*
X-5906883Y13728943D01*
X-6142361Y13964833D01*
X6064838Y13964833D01*
X6206883Y13621057D01*
X6237439Y13590448D01*
X6215162Y13536799D01*
X6214838Y13164833D01*
X6356883Y12821057D01*
X6387439Y12790448D01*
X6365162Y12736799D01*
X6364838Y12364833D01*
X6506883Y12021057D01*
X6537439Y11990448D01*
X6515162Y11936799D01*
X6514838Y11564833D01*
X6656883Y11221057D01*
X6919673Y10957808D01*
X7263201Y10815162D01*
X7635167Y10814838D01*
X7978943Y10956883D01*
X8242192Y11219673D01*
X8384838Y11563201D01*
X8384994Y11742722D01*
X8519673Y11607808D01*
X8863201Y11465162D01*
X9235167Y11464838D01*
X9578943Y11606883D01*
X9842192Y11869673D01*
X9984838Y12213201D01*
X9985162Y12585167D01*
X9843117Y12928943D01*
X9772160Y13000024D01*
X9992192Y13219673D01*
X10134838Y13563201D01*
X10135162Y13935167D01*
X9993117Y14278943D01*
X9730327Y14542192D01*
X9386799Y14684838D01*
X9014833Y14685162D01*
X8671057Y14543117D01*
X8407808Y14280327D01*
X8265162Y13936799D01*
X8264838Y13564833D01*
X8406883Y13221057D01*
X8477840Y13149976D01*
X8257808Y12930327D01*
X8206038Y12805652D01*
X8093117Y13078943D01*
X8062561Y13109552D01*
X8084838Y13163201D01*
X8085162Y13535167D01*
X7943117Y13878943D01*
X7912561Y13909552D01*
X7934838Y13963201D01*
X7935162Y14335167D01*
X7793117Y14678943D01*
X7530327Y14942192D01*
X7186799Y15084838D01*
X6814833Y15085162D01*
X6471057Y14943117D01*
X6207808Y14680327D01*
X6065162Y14336799D01*
X6064838Y13964833D01*
X-6142361Y13964833D01*
X-6169673Y13992192D01*
X-6513201Y14134838D01*
X-6864969Y14135144D01*
X-6864838Y14285167D01*
X-7006883Y14628943D01*
X-7269673Y14892192D01*
X-7613201Y15034838D01*
X-7985167Y15035162D01*
X-8328943Y14893117D01*
X-8592192Y14630327D01*
X-8734838Y14286799D01*
X-8734919Y14193945D01*
X-8859222Y14142585D01*
X-8956883Y14378943D01*
X-9219673Y14642192D01*
X-9563201Y14784838D01*
X-9935167Y14785162D01*
X-10278943Y14643117D01*
X-10542192Y14380327D01*
X-10684838Y14036799D01*
X-10685162Y13664833D01*
X-13155561Y13664833D01*
X-10070197Y16750197D01*
X-10042334Y16792211D01*
X-10033000Y16840000D01*
X-10033000Y22714833D01*
X-8985162Y22714833D01*
X-8875641Y22449772D01*
X-8984838Y22186799D01*
X-8985162Y21814833D01*
X-8843117Y21471057D01*
X-8580327Y21207808D01*
X-8535097Y21189027D01*
X-8535162Y21114833D01*
X-8393117Y20771057D01*
X-8130327Y20507808D01*
X-7786799Y20365162D01*
X-7414833Y20364838D01*
X-7114479Y20488941D01*
X-6936799Y20415162D01*
X-6564833Y20414838D01*
X-6221057Y20556883D01*
X-5957808Y20819673D01*
X-5856009Y21064833D01*
X-3985162Y21064833D01*
X-3843117Y20721057D01*
X-3580327Y20457808D01*
X-3236799Y20315162D01*
X-2864833Y20314838D01*
X-2521057Y20456883D01*
X-2257808Y20719673D01*
X-2115162Y21063201D01*
X-2115161Y21064833D01*
X-235162Y21064833D01*
X-93117Y20721057D01*
X169673Y20457808D01*
X504534Y20318761D01*
X606883Y20071057D01*
X869673Y19807808D01*
X1213201Y19665162D01*
X1585167Y19664838D01*
X1928943Y19806883D01*
X2192192Y20069673D01*
X2334838Y20413201D01*
X2335162Y20785167D01*
X2193117Y21128943D01*
X1930327Y21392192D01*
X1595466Y21531239D01*
X1498948Y21764833D01*
X3764838Y21764833D01*
X3874359Y21499772D01*
X3765162Y21236799D01*
X3764838Y20864833D01*
X3906883Y20521057D01*
X4169673Y20257808D01*
X4513201Y20115162D01*
X4885167Y20114838D01*
X5228943Y20256883D01*
X5492192Y20519673D01*
X5634838Y20863201D01*
X5635162Y21235167D01*
X5525641Y21500228D01*
X5634838Y21763201D01*
X5635162Y22135167D01*
X5612494Y22190027D01*
X5642192Y22219673D01*
X5784838Y22563201D01*
X5785162Y22935167D01*
X5675641Y23200228D01*
X5784838Y23463201D01*
X5785162Y23835167D01*
X5643117Y24178943D01*
X5380327Y24442192D01*
X5036799Y24584838D01*
X4664833Y24585162D01*
X4321057Y24443117D01*
X4057808Y24180327D01*
X3915162Y23836799D01*
X3914838Y23464833D01*
X4024359Y23199772D01*
X3915162Y22936799D01*
X3914838Y22564833D01*
X3937506Y22509973D01*
X3907808Y22480327D01*
X3765162Y22136799D01*
X3764838Y21764833D01*
X1498948Y21764833D01*
X1493117Y21778943D01*
X1230327Y22042192D01*
X886799Y22184838D01*
X514833Y22185162D01*
X171057Y22043117D01*
X-92192Y21780327D01*
X-234838Y21436799D01*
X-235162Y21064833D01*
X-2115161Y21064833D01*
X-2114838Y21435167D01*
X-2256883Y21778943D01*
X-2519673Y22042192D01*
X-2863201Y22184838D01*
X-3235167Y22185162D01*
X-3578943Y22043117D01*
X-3842192Y21780327D01*
X-3984838Y21436799D01*
X-3985162Y21064833D01*
X-5856009Y21064833D01*
X-5815162Y21163201D01*
X-5814838Y21535167D01*
X-5956883Y21878943D01*
X-6219673Y22142192D01*
X-6563201Y22284838D01*
X-6935167Y22285162D01*
X-7123928Y22207168D01*
X-7224359Y22450228D01*
X-7115162Y22713201D01*
X-7114838Y23085167D01*
X-7256883Y23428943D01*
X-7392536Y23564833D01*
X114838Y23564833D01*
X256883Y23221057D01*
X519673Y22957808D01*
X863201Y22815162D01*
X1235167Y22814838D01*
X1578943Y22956883D01*
X1842192Y23219673D01*
X1984838Y23563201D01*
X1985162Y23935167D01*
X1843117Y24278943D01*
X1580327Y24542192D01*
X1236799Y24684838D01*
X864833Y24685162D01*
X521057Y24543117D01*
X257808Y24280327D01*
X115162Y23936799D01*
X114838Y23564833D01*
X-7392536Y23564833D01*
X-7519673Y23692192D01*
X-7863201Y23834838D01*
X-8235167Y23835162D01*
X-8578943Y23693117D01*
X-8842192Y23430327D01*
X-8984838Y23086799D01*
X-8985162Y22714833D01*
X-10033000Y22714833D01*
X-10033000Y25273000D01*
X-1600000Y25273000D01*
X-1550590Y25283006D01*
X-1510197Y25310197D01*
X-868031Y25952363D01*
X-793117Y25771057D01*
M02*
