G04 #@! TF.FileFunction,Soldermask,Top*
%FSLAX46Y46*%
G04 Gerber Fmt 4.6, Leading zero omitted, Abs format (unit mm)*
G04 Created by KiCad (PCBNEW 4.0.6-e0-6349~53~ubuntu14.04.1) date Fri Mar 31 13:46:59 2017*
%MOMM*%
%LPD*%
G01*
G04 APERTURE LIST*
%ADD10C,0.100000*%
%ADD11C,2.600000*%
%ADD12C,2.127200*%
%ADD13R,2.127200X2.127200*%
%ADD14O,2.127200X2.127200*%
%ADD15R,1.250000X0.700000*%
%ADD16R,0.700000X1.250000*%
%ADD17R,2.237500X2.237500*%
%ADD18R,0.900000X1.000000*%
%ADD19R,1.000000X0.900000*%
%ADD20R,2.100000X2.500000*%
%ADD21C,1.350000*%
%ADD22C,1.950000*%
%ADD23C,1.200000*%
G04 APERTURE END LIST*
D10*
D11*
X28575000Y-17780000D03*
X-28575000Y17780000D03*
X17780000Y-28575000D03*
D10*
G36*
X-8968144Y-16817029D02*
X-9958093Y-17806978D01*
X-10735910Y-17029161D01*
X-9745961Y-16039212D01*
X-8968144Y-16817029D01*
X-8968144Y-16817029D01*
G37*
G36*
X-10382358Y-15402816D02*
X-11372307Y-16392765D01*
X-12150124Y-15614948D01*
X-11160175Y-14624999D01*
X-10382358Y-15402816D01*
X-10382358Y-15402816D01*
G37*
G36*
X-11796572Y-13988602D02*
X-12786521Y-14978551D01*
X-13564338Y-14200734D01*
X-12574389Y-13210785D01*
X-11796572Y-13988602D01*
X-11796572Y-13988602D01*
G37*
G36*
X-13210785Y-12574389D02*
X-14200734Y-13564338D01*
X-14978551Y-12786521D01*
X-13988602Y-11796572D01*
X-13210785Y-12574389D01*
X-13210785Y-12574389D01*
G37*
G36*
X-14624999Y-11160175D02*
X-15614948Y-12150124D01*
X-16392765Y-11372307D01*
X-15402816Y-10382358D01*
X-14624999Y-11160175D01*
X-14624999Y-11160175D01*
G37*
G36*
X-16039212Y-9745961D02*
X-17029161Y-10735910D01*
X-17806978Y-9958093D01*
X-16817029Y-8968144D01*
X-16039212Y-9745961D01*
X-16039212Y-9745961D01*
G37*
G36*
X-18584796Y-9392408D02*
X-19362614Y-10170226D01*
X-20635406Y-8897434D01*
X-19857588Y-8119616D01*
X-18584796Y-9392408D01*
X-18584796Y-9392408D01*
G37*
G36*
X-19999010Y-10806621D02*
X-20776828Y-11584439D01*
X-22049620Y-10311647D01*
X-21271802Y-9533829D01*
X-19999010Y-10806621D01*
X-19999010Y-10806621D01*
G37*
G36*
X-21413223Y-12220835D02*
X-22191041Y-12998653D01*
X-23463833Y-11725861D01*
X-22686015Y-10948043D01*
X-21413223Y-12220835D01*
X-21413223Y-12220835D01*
G37*
G36*
X-22827437Y-13635048D02*
X-23605255Y-14412866D01*
X-24878047Y-13140074D01*
X-24100229Y-12362256D01*
X-22827437Y-13635048D01*
X-22827437Y-13635048D01*
G37*
G36*
X-24241650Y-15049262D02*
X-25019468Y-15827080D01*
X-26292260Y-14554288D01*
X-25514442Y-13776470D01*
X-24241650Y-15049262D01*
X-24241650Y-15049262D01*
G37*
G36*
X-25655864Y-16463475D02*
X-26433682Y-17241293D01*
X-27706474Y-15968501D01*
X-26928656Y-15190683D01*
X-25655864Y-16463475D01*
X-25655864Y-16463475D01*
G37*
G36*
X-27070077Y-17877689D02*
X-27847895Y-18655507D01*
X-29120687Y-17382715D01*
X-28342869Y-16604897D01*
X-27070077Y-17877689D01*
X-27070077Y-17877689D01*
G37*
G36*
X-28484291Y-19291903D02*
X-29262109Y-20069721D01*
X-30534901Y-18796929D01*
X-29757083Y-18019111D01*
X-28484291Y-19291903D01*
X-28484291Y-19291903D01*
G37*
G36*
X-8119616Y-19857588D02*
X-8897434Y-20635406D01*
X-10170226Y-19362614D01*
X-9392408Y-18584796D01*
X-8119616Y-19857588D01*
X-8119616Y-19857588D01*
G37*
G36*
X-9533829Y-21271802D02*
X-10311647Y-22049620D01*
X-11584439Y-20776828D01*
X-10806621Y-19999010D01*
X-9533829Y-21271802D01*
X-9533829Y-21271802D01*
G37*
G36*
X-10948043Y-22686015D02*
X-11725861Y-23463833D01*
X-12998653Y-22191041D01*
X-12220835Y-21413223D01*
X-10948043Y-22686015D01*
X-10948043Y-22686015D01*
G37*
G36*
X-12362256Y-24100229D02*
X-13140074Y-24878047D01*
X-14412866Y-23605255D01*
X-13635048Y-22827437D01*
X-12362256Y-24100229D01*
X-12362256Y-24100229D01*
G37*
G36*
X-13776470Y-25514442D02*
X-14554288Y-26292260D01*
X-15827080Y-25019468D01*
X-15049262Y-24241650D01*
X-13776470Y-25514442D01*
X-13776470Y-25514442D01*
G37*
G36*
X-15190683Y-26928656D02*
X-15968501Y-27706474D01*
X-17241293Y-26433682D01*
X-16463475Y-25655864D01*
X-15190683Y-26928656D01*
X-15190683Y-26928656D01*
G37*
G36*
X-16604897Y-28342869D02*
X-17382715Y-29120687D01*
X-18655507Y-27847895D01*
X-17877689Y-27070077D01*
X-16604897Y-28342869D01*
X-16604897Y-28342869D01*
G37*
G36*
X-18019111Y-29757083D02*
X-18796929Y-30534901D01*
X-20069721Y-29262109D01*
X-19291903Y-28484291D01*
X-18019111Y-29757083D01*
X-18019111Y-29757083D01*
G37*
G36*
X14077763Y24423079D02*
X12358079Y26142763D01*
X13862237Y27646921D01*
X15581921Y25927237D01*
X14077763Y24423079D01*
X14077763Y24423079D01*
G37*
D12*
X15658288Y27938814D02*
X15873814Y27723288D01*
X17454339Y29734865D02*
X17669865Y29519339D01*
D10*
G36*
X-12423485Y13024526D02*
X-11681023Y13766988D01*
X-10648647Y12734612D01*
X-11391109Y11992150D01*
X-12423485Y13024526D01*
X-12423485Y13024526D01*
G37*
G36*
X-13095236Y12352774D02*
X-12352774Y13095236D01*
X-11320398Y12062860D01*
X-12062860Y11320398D01*
X-13095236Y12352774D01*
X-13095236Y12352774D01*
G37*
G36*
X-13766988Y11681023D02*
X-13024526Y12423485D01*
X-11992150Y11391109D01*
X-12734612Y10648647D01*
X-13766988Y11681023D01*
X-13766988Y11681023D01*
G37*
G36*
X-12211353Y10125388D02*
X-11468891Y10867850D01*
X-10436515Y9835474D01*
X-11178977Y9093012D01*
X-12211353Y10125388D01*
X-12211353Y10125388D01*
G37*
G36*
X-10867850Y11468891D02*
X-10125388Y12211353D01*
X-9093012Y11178977D01*
X-9835474Y10436515D01*
X-10867850Y11468891D01*
X-10867850Y11468891D01*
G37*
G36*
X-10484526Y-9883485D02*
X-11226988Y-9141023D01*
X-10194612Y-8108647D01*
X-9452150Y-8851109D01*
X-10484526Y-9883485D01*
X-10484526Y-9883485D01*
G37*
G36*
X-9812774Y-10555236D02*
X-10555236Y-9812774D01*
X-9522860Y-8780398D01*
X-8780398Y-9522860D01*
X-9812774Y-10555236D01*
X-9812774Y-10555236D01*
G37*
G36*
X-9141023Y-11226988D02*
X-9883485Y-10484526D01*
X-8851109Y-9452150D01*
X-8108647Y-10194612D01*
X-9141023Y-11226988D01*
X-9141023Y-11226988D01*
G37*
G36*
X-7585388Y-9671353D02*
X-8327850Y-8928891D01*
X-7295474Y-7896515D01*
X-6553012Y-8638977D01*
X-7585388Y-9671353D01*
X-7585388Y-9671353D01*
G37*
G36*
X-8928891Y-8327850D02*
X-9671353Y-7585388D01*
X-8638977Y-6553012D01*
X-7896515Y-7295474D01*
X-8928891Y-8327850D01*
X-8928891Y-8327850D01*
G37*
G36*
X14328485Y-14929526D02*
X13586023Y-15671988D01*
X12553647Y-14639612D01*
X13296109Y-13897150D01*
X14328485Y-14929526D01*
X14328485Y-14929526D01*
G37*
G36*
X15000236Y-14257774D02*
X14257774Y-15000236D01*
X13225398Y-13967860D01*
X13967860Y-13225398D01*
X15000236Y-14257774D01*
X15000236Y-14257774D01*
G37*
G36*
X15671988Y-13586023D02*
X14929526Y-14328485D01*
X13897150Y-13296109D01*
X14639612Y-12553647D01*
X15671988Y-13586023D01*
X15671988Y-13586023D01*
G37*
G36*
X14116353Y-12030388D02*
X13373891Y-12772850D01*
X12341515Y-11740474D01*
X13083977Y-10998012D01*
X14116353Y-12030388D01*
X14116353Y-12030388D01*
G37*
G36*
X12772850Y-13373891D02*
X12030388Y-14116353D01*
X10998012Y-13083977D01*
X11740474Y-12341515D01*
X12772850Y-13373891D01*
X12772850Y-13373891D01*
G37*
G36*
X17492969Y9431951D02*
X19119315Y11058297D01*
X20392107Y9785505D01*
X18765761Y8159159D01*
X17492969Y9431951D01*
X17492969Y9431951D01*
G37*
G36*
X8901621Y19437512D02*
X10527967Y21063858D01*
X11800759Y19791066D01*
X10174413Y18164720D01*
X8901621Y19437512D01*
X8901621Y19437512D01*
G37*
G36*
X23574087Y23715509D02*
X24846879Y24988301D01*
X26048961Y23786219D01*
X24776169Y22513427D01*
X23574087Y23715509D01*
X23574087Y23715509D01*
G37*
G36*
X19543579Y27746018D02*
X20816371Y29018810D01*
X22018453Y27816728D01*
X20745661Y26543936D01*
X19543579Y27746018D01*
X19543579Y27746018D01*
G37*
G36*
X16948496Y15053451D02*
X18291999Y16396954D01*
X19140528Y15548425D01*
X17797025Y14204922D01*
X16948496Y15053451D01*
X16948496Y15053451D01*
G37*
G36*
X16453522Y16114111D02*
X17797025Y17457614D01*
X18645554Y16609085D01*
X17302051Y15265582D01*
X16453522Y16114111D01*
X16453522Y16114111D01*
G37*
G36*
X15392861Y16609086D02*
X16736364Y17952589D01*
X17584893Y17104060D01*
X16241390Y15760557D01*
X15392861Y16609086D01*
X15392861Y16609086D01*
G37*
G36*
X14473623Y17245482D02*
X15817126Y18588985D01*
X16665655Y17740456D01*
X15322152Y16396953D01*
X14473623Y17245482D01*
X14473623Y17245482D01*
G37*
G36*
X13837226Y18164721D02*
X15180729Y19508224D01*
X16029258Y18659695D01*
X14685755Y17316192D01*
X13837226Y18164721D01*
X13837226Y18164721D01*
G37*
G36*
X12917988Y18801117D02*
X14261491Y20144620D01*
X15110020Y19296091D01*
X13766517Y17952588D01*
X12917988Y18801117D01*
X12917988Y18801117D01*
G37*
G36*
X12281592Y19720356D02*
X13625095Y21063859D01*
X14473624Y20215330D01*
X13130121Y18871827D01*
X12281592Y19720356D01*
X12281592Y19720356D01*
G37*
G36*
X11503774Y20498173D02*
X12847277Y21841676D01*
X13695806Y20993147D01*
X12352303Y19649644D01*
X11503774Y20498173D01*
X11503774Y20498173D01*
G37*
G36*
X20947185Y26971736D02*
X21901779Y27926330D01*
X22891729Y26936380D01*
X21937135Y25981786D01*
X20947185Y26971736D01*
X20947185Y26971736D01*
G37*
D13*
X11430000Y-28575000D03*
D14*
X11430000Y-31115000D03*
X8890000Y-28575000D03*
X8890000Y-31115000D03*
X6350000Y-28575000D03*
X6350000Y-31115000D03*
X3810000Y-28575000D03*
X3810000Y-31115000D03*
X1270000Y-28575000D03*
X1270000Y-31115000D03*
X-1270000Y-28575000D03*
X-1270000Y-31115000D03*
X-3810000Y-28575000D03*
X-3810000Y-31115000D03*
X-6350000Y-28575000D03*
X-6350000Y-31115000D03*
X-8890000Y-28575000D03*
X-8890000Y-31115000D03*
X-11430000Y-28575000D03*
X-11430000Y-31115000D03*
D13*
X-28575000Y-11430000D03*
D14*
X-31115000Y-11430000D03*
X-28575000Y-8890000D03*
X-31115000Y-8890000D03*
X-28575000Y-6350000D03*
X-31115000Y-6350000D03*
X-28575000Y-3810000D03*
X-31115000Y-3810000D03*
X-28575000Y-1270000D03*
X-31115000Y-1270000D03*
X-28575000Y1270000D03*
X-31115000Y1270000D03*
X-28575000Y3810000D03*
X-31115000Y3810000D03*
X-28575000Y6350000D03*
X-31115000Y6350000D03*
X-28575000Y8890000D03*
X-31115000Y8890000D03*
X-28575000Y11430000D03*
X-31115000Y11430000D03*
D13*
X-11430000Y28575000D03*
D14*
X-11430000Y31115000D03*
X-8890000Y28575000D03*
X-8890000Y31115000D03*
X-6350000Y28575000D03*
X-6350000Y31115000D03*
X-3810000Y28575000D03*
X-3810000Y31115000D03*
X-1270000Y28575000D03*
X-1270000Y31115000D03*
X1270000Y28575000D03*
X1270000Y31115000D03*
X3810000Y28575000D03*
X3810000Y31115000D03*
X6350000Y28575000D03*
X6350000Y31115000D03*
X8890000Y28575000D03*
X8890000Y31115000D03*
X11430000Y28575000D03*
X11430000Y31115000D03*
D13*
X28575000Y11430000D03*
D14*
X31115000Y11430000D03*
X28575000Y8890000D03*
X31115000Y8890000D03*
X28575000Y6350000D03*
X31115000Y6350000D03*
X28575000Y3810000D03*
X31115000Y3810000D03*
X28575000Y1270000D03*
X31115000Y1270000D03*
X28575000Y-1270000D03*
X31115000Y-1270000D03*
X28575000Y-3810000D03*
X31115000Y-3810000D03*
X28575000Y-6350000D03*
X31115000Y-6350000D03*
X28575000Y-8890000D03*
X31115000Y-8890000D03*
X28575000Y-11430000D03*
X31115000Y-11430000D03*
D15*
X4450000Y-18750000D03*
X4450000Y-18250000D03*
X4450000Y-17750000D03*
X4450000Y-17250000D03*
X4450000Y-16750000D03*
X4450000Y-16250000D03*
X4450000Y-15750000D03*
X4450000Y-15250000D03*
X4450000Y-14750000D03*
X4450000Y-14250000D03*
X4450000Y-13750000D03*
X4450000Y-13250000D03*
X4450000Y-12750000D03*
X4450000Y-12250000D03*
X4450000Y-11750000D03*
X4450000Y-11250000D03*
D16*
X3750000Y-10550000D03*
X3250000Y-10550000D03*
X2750000Y-10550000D03*
X2250000Y-10550000D03*
X1750000Y-10550000D03*
X1250000Y-10550000D03*
X750000Y-10550000D03*
X250000Y-10550000D03*
X-250000Y-10550000D03*
X-750000Y-10550000D03*
X-1250000Y-10550000D03*
X-1750000Y-10550000D03*
X-2250000Y-10550000D03*
X-2750000Y-10550000D03*
X-3250000Y-10550000D03*
X-3750000Y-10550000D03*
D15*
X-4450000Y-11250000D03*
X-4450000Y-11750000D03*
X-4450000Y-12250000D03*
X-4450000Y-12750000D03*
X-4450000Y-13250000D03*
X-4450000Y-13750000D03*
X-4450000Y-14250000D03*
X-4450000Y-14750000D03*
X-4450000Y-15250000D03*
X-4450000Y-15750000D03*
X-4450000Y-16250000D03*
X-4450000Y-16750000D03*
X-4450000Y-17250000D03*
X-4450000Y-17750000D03*
X-4450000Y-18250000D03*
X-4450000Y-18750000D03*
D16*
X-3750000Y-19450000D03*
X-3250000Y-19450000D03*
X-2750000Y-19450000D03*
X-2250000Y-19450000D03*
X-1750000Y-19450000D03*
X-1250000Y-19450000D03*
X-750000Y-19450000D03*
X-250000Y-19450000D03*
X250000Y-19450000D03*
X750000Y-19450000D03*
X1250000Y-19450000D03*
X1750000Y-19450000D03*
X2250000Y-19450000D03*
X2750000Y-19450000D03*
X3250000Y-19450000D03*
X3750000Y-19450000D03*
D17*
X-2756250Y-12243750D03*
X-2756250Y-14081250D03*
X-2756250Y-15918750D03*
X-2756250Y-17756250D03*
X-918750Y-12243750D03*
X-918750Y-14081250D03*
X-918750Y-15918750D03*
X-918750Y-17756250D03*
X918750Y-12243750D03*
X918750Y-14081250D03*
X918750Y-15918750D03*
X918750Y-17756250D03*
X2756250Y-12243750D03*
X2756250Y-14081250D03*
X2756250Y-15918750D03*
X2756250Y-17756250D03*
D16*
X-18750000Y-4450000D03*
X-18250000Y-4450000D03*
X-17750000Y-4450000D03*
X-17250000Y-4450000D03*
X-16750000Y-4450000D03*
X-16250000Y-4450000D03*
X-15750000Y-4450000D03*
X-15250000Y-4450000D03*
X-14750000Y-4450000D03*
X-14250000Y-4450000D03*
X-13750000Y-4450000D03*
X-13250000Y-4450000D03*
X-12750000Y-4450000D03*
X-12250000Y-4450000D03*
X-11750000Y-4450000D03*
X-11250000Y-4450000D03*
D15*
X-10550000Y-3750000D03*
X-10550000Y-3250000D03*
X-10550000Y-2750000D03*
X-10550000Y-2250000D03*
X-10550000Y-1750000D03*
X-10550000Y-1250000D03*
X-10550000Y-750000D03*
X-10550000Y-250000D03*
X-10550000Y250000D03*
X-10550000Y750000D03*
X-10550000Y1250000D03*
X-10550000Y1750000D03*
X-10550000Y2250000D03*
X-10550000Y2750000D03*
X-10550000Y3250000D03*
X-10550000Y3750000D03*
D16*
X-11250000Y4450000D03*
X-11750000Y4450000D03*
X-12250000Y4450000D03*
X-12750000Y4450000D03*
X-13250000Y4450000D03*
X-13750000Y4450000D03*
X-14250000Y4450000D03*
X-14750000Y4450000D03*
X-15250000Y4450000D03*
X-15750000Y4450000D03*
X-16250000Y4450000D03*
X-16750000Y4450000D03*
X-17250000Y4450000D03*
X-17750000Y4450000D03*
X-18250000Y4450000D03*
X-18750000Y4450000D03*
D15*
X-19450000Y3750000D03*
X-19450000Y3250000D03*
X-19450000Y2750000D03*
X-19450000Y2250000D03*
X-19450000Y1750000D03*
X-19450000Y1250000D03*
X-19450000Y750000D03*
X-19450000Y250000D03*
X-19450000Y-250000D03*
X-19450000Y-750000D03*
X-19450000Y-1250000D03*
X-19450000Y-1750000D03*
X-19450000Y-2250000D03*
X-19450000Y-2750000D03*
X-19450000Y-3250000D03*
X-19450000Y-3750000D03*
D17*
X-12243750Y2756250D03*
X-14081250Y2756250D03*
X-15918750Y2756250D03*
X-17756250Y2756250D03*
X-12243750Y918750D03*
X-14081250Y918750D03*
X-15918750Y918750D03*
X-17756250Y918750D03*
X-12243750Y-918750D03*
X-14081250Y-918750D03*
X-15918750Y-918750D03*
X-17756250Y-918750D03*
X-12243750Y-2756250D03*
X-14081250Y-2756250D03*
X-15918750Y-2756250D03*
X-17756250Y-2756250D03*
D15*
X-4450000Y18750000D03*
X-4450000Y18250000D03*
X-4450000Y17750000D03*
X-4450000Y17250000D03*
X-4450000Y16750000D03*
X-4450000Y16250000D03*
X-4450000Y15750000D03*
X-4450000Y15250000D03*
X-4450000Y14750000D03*
X-4450000Y14250000D03*
X-4450000Y13750000D03*
X-4450000Y13250000D03*
X-4450000Y12750000D03*
X-4450000Y12250000D03*
X-4450000Y11750000D03*
X-4450000Y11250000D03*
D16*
X-3750000Y10550000D03*
X-3250000Y10550000D03*
X-2750000Y10550000D03*
X-2250000Y10550000D03*
X-1750000Y10550000D03*
X-1250000Y10550000D03*
X-750000Y10550000D03*
X-250000Y10550000D03*
X250000Y10550000D03*
X750000Y10550000D03*
X1250000Y10550000D03*
X1750000Y10550000D03*
X2250000Y10550000D03*
X2750000Y10550000D03*
X3250000Y10550000D03*
X3750000Y10550000D03*
D15*
X4450000Y11250000D03*
X4450000Y11750000D03*
X4450000Y12250000D03*
X4450000Y12750000D03*
X4450000Y13250000D03*
X4450000Y13750000D03*
X4450000Y14250000D03*
X4450000Y14750000D03*
X4450000Y15250000D03*
X4450000Y15750000D03*
X4450000Y16250000D03*
X4450000Y16750000D03*
X4450000Y17250000D03*
X4450000Y17750000D03*
X4450000Y18250000D03*
X4450000Y18750000D03*
D16*
X3750000Y19450000D03*
X3250000Y19450000D03*
X2750000Y19450000D03*
X2250000Y19450000D03*
X1750000Y19450000D03*
X1250000Y19450000D03*
X750000Y19450000D03*
X250000Y19450000D03*
X-250000Y19450000D03*
X-750000Y19450000D03*
X-1250000Y19450000D03*
X-1750000Y19450000D03*
X-2250000Y19450000D03*
X-2750000Y19450000D03*
X-3250000Y19450000D03*
X-3750000Y19450000D03*
D17*
X2756250Y12243750D03*
X2756250Y14081250D03*
X2756250Y15918750D03*
X2756250Y17756250D03*
X918750Y12243750D03*
X918750Y14081250D03*
X918750Y15918750D03*
X918750Y17756250D03*
X-918750Y12243750D03*
X-918750Y14081250D03*
X-918750Y15918750D03*
X-918750Y17756250D03*
X-2756250Y12243750D03*
X-2756250Y14081250D03*
X-2756250Y15918750D03*
X-2756250Y17756250D03*
D16*
X18750000Y4450000D03*
X18250000Y4450000D03*
X17750000Y4450000D03*
X17250000Y4450000D03*
X16750000Y4450000D03*
X16250000Y4450000D03*
X15750000Y4450000D03*
X15250000Y4450000D03*
X14750000Y4450000D03*
X14250000Y4450000D03*
X13750000Y4450000D03*
X13250000Y4450000D03*
X12750000Y4450000D03*
X12250000Y4450000D03*
X11750000Y4450000D03*
X11250000Y4450000D03*
D15*
X10550000Y3750000D03*
X10550000Y3250000D03*
X10550000Y2750000D03*
X10550000Y2250000D03*
X10550000Y1750000D03*
X10550000Y1250000D03*
X10550000Y750000D03*
X10550000Y250000D03*
X10550000Y-250000D03*
X10550000Y-750000D03*
X10550000Y-1250000D03*
X10550000Y-1750000D03*
X10550000Y-2250000D03*
X10550000Y-2750000D03*
X10550000Y-3250000D03*
X10550000Y-3750000D03*
D16*
X11250000Y-4450000D03*
X11750000Y-4450000D03*
X12250000Y-4450000D03*
X12750000Y-4450000D03*
X13250000Y-4450000D03*
X13750000Y-4450000D03*
X14250000Y-4450000D03*
X14750000Y-4450000D03*
X15250000Y-4450000D03*
X15750000Y-4450000D03*
X16250000Y-4450000D03*
X16750000Y-4450000D03*
X17250000Y-4450000D03*
X17750000Y-4450000D03*
X18250000Y-4450000D03*
X18750000Y-4450000D03*
D15*
X19450000Y-3750000D03*
X19450000Y-3250000D03*
X19450000Y-2750000D03*
X19450000Y-2250000D03*
X19450000Y-1750000D03*
X19450000Y-1250000D03*
X19450000Y-750000D03*
X19450000Y-250000D03*
X19450000Y250000D03*
X19450000Y750000D03*
X19450000Y1250000D03*
X19450000Y1750000D03*
X19450000Y2250000D03*
X19450000Y2750000D03*
X19450000Y3250000D03*
X19450000Y3750000D03*
D17*
X12243750Y-2756250D03*
X14081250Y-2756250D03*
X15918750Y-2756250D03*
X17756250Y-2756250D03*
X12243750Y-918750D03*
X14081250Y-918750D03*
X15918750Y-918750D03*
X17756250Y-918750D03*
X12243750Y918750D03*
X14081250Y918750D03*
X15918750Y918750D03*
X17756250Y918750D03*
X12243750Y2756250D03*
X14081250Y2756250D03*
X15918750Y2756250D03*
X17756250Y2756250D03*
D18*
X8000000Y-16950000D03*
X8000000Y-18050000D03*
X8000000Y-14950000D03*
X8000000Y-16050000D03*
D19*
X1450000Y-6000000D03*
X2550000Y-6000000D03*
X-550000Y-6000000D03*
X550000Y-6000000D03*
D18*
X7000000Y-16950000D03*
X7000000Y-18050000D03*
X7000000Y-14950000D03*
X7000000Y-16050000D03*
D19*
X1450000Y-7000000D03*
X2550000Y-7000000D03*
X-550000Y-7000000D03*
X550000Y-7000000D03*
D18*
X-7000000Y-18050000D03*
X-7000000Y-16950000D03*
X-7000000Y-16050000D03*
X-7000000Y-14950000D03*
X-3000000Y-20950000D03*
X-3000000Y-22050000D03*
D19*
X3050000Y-22000000D03*
X1950000Y-22000000D03*
X1050000Y-22000000D03*
X-50000Y-22000000D03*
X-950000Y-22000000D03*
X-2050000Y-22000000D03*
X2050000Y-21000000D03*
X950000Y-21000000D03*
D18*
X-8000000Y-18050000D03*
X-8000000Y-16950000D03*
X-8000000Y-16050000D03*
X-8000000Y-14950000D03*
D19*
X3050000Y-23000000D03*
X1950000Y-23000000D03*
X1050000Y-23000000D03*
X-50000Y-23000000D03*
X-950000Y-23000000D03*
X-2050000Y-23000000D03*
X-2950000Y-23000000D03*
X-4050000Y-23000000D03*
X-16950000Y-8000000D03*
X-18050000Y-8000000D03*
X-14950000Y-8000000D03*
X-16050000Y-8000000D03*
D18*
X-6000000Y-1450000D03*
X-6000000Y-2550000D03*
X-6000000Y550000D03*
X-6000000Y-550000D03*
D19*
X-16950000Y-7000000D03*
X-18050000Y-7000000D03*
X-14950000Y-7000000D03*
X-16050000Y-7000000D03*
D18*
X-7000000Y-1450000D03*
X-7000000Y-2550000D03*
X-7000000Y550000D03*
X-7000000Y-550000D03*
D19*
X-18050000Y7000000D03*
X-16950000Y7000000D03*
X-16050000Y7000000D03*
X-14950000Y7000000D03*
X-20950000Y3000000D03*
X-22050000Y3000000D03*
D18*
X-22000000Y-3050000D03*
X-22000000Y-1950000D03*
X-22000000Y-1050000D03*
X-22000000Y50000D03*
X-22000000Y950000D03*
X-22000000Y2050000D03*
X-21000000Y-2050000D03*
X-21000000Y-950000D03*
D19*
X-18050000Y8000000D03*
X-16950000Y8000000D03*
X-16050000Y8000000D03*
X-14950000Y8000000D03*
D18*
X-23000000Y-3050000D03*
X-23000000Y-1950000D03*
X-23000000Y-1050000D03*
X-23000000Y50000D03*
X-23000000Y950000D03*
X-23000000Y2050000D03*
X-23000000Y2950000D03*
X-23000000Y4050000D03*
X-8000000Y16950000D03*
X-8000000Y18050000D03*
X-8000000Y14950000D03*
X-8000000Y16050000D03*
D19*
X-1450000Y6000000D03*
X-2550000Y6000000D03*
X550000Y6000000D03*
X-550000Y6000000D03*
D18*
X-7000000Y16950000D03*
X-7000000Y18050000D03*
X-7000000Y14950000D03*
X-7000000Y16050000D03*
D19*
X-1450000Y7000000D03*
X-2550000Y7000000D03*
X550000Y7000000D03*
X-550000Y7000000D03*
D18*
X7000000Y18050000D03*
X7000000Y16950000D03*
X7000000Y16050000D03*
X7000000Y14950000D03*
X3000000Y20950000D03*
X3000000Y22050000D03*
D19*
X-3050000Y22000000D03*
X-1950000Y22000000D03*
X-1050000Y22000000D03*
X50000Y22000000D03*
X950000Y22000000D03*
X2050000Y22000000D03*
X-2050000Y21000000D03*
X-950000Y21000000D03*
D18*
X8000000Y18050000D03*
X8000000Y16950000D03*
X8000000Y16050000D03*
X8000000Y14950000D03*
D19*
X-3050000Y23000000D03*
X-1950000Y23000000D03*
X-1050000Y23000000D03*
X50000Y23000000D03*
X950000Y23000000D03*
X2050000Y23000000D03*
X2950000Y23000000D03*
X4050000Y23000000D03*
X16950000Y8000000D03*
X18050000Y8000000D03*
X14950000Y8000000D03*
X16050000Y8000000D03*
D18*
X6000000Y1450000D03*
X6000000Y2550000D03*
X6000000Y-550000D03*
X6000000Y550000D03*
D19*
X16950000Y7000000D03*
X18050000Y7000000D03*
X14950000Y7000000D03*
X16050000Y7000000D03*
D18*
X7000000Y1450000D03*
X7000000Y2550000D03*
X7000000Y-550000D03*
X7000000Y550000D03*
D19*
X18050000Y-7000000D03*
X16950000Y-7000000D03*
X16050000Y-7000000D03*
X14950000Y-7000000D03*
X20950000Y-3000000D03*
X22050000Y-3000000D03*
D18*
X22000000Y3050000D03*
X22000000Y1950000D03*
X22000000Y1050000D03*
X22000000Y-50000D03*
X22000000Y-950000D03*
X22000000Y-2050000D03*
X21000000Y2050000D03*
X21000000Y950000D03*
D19*
X18050000Y-8000000D03*
X16950000Y-8000000D03*
X16050000Y-8000000D03*
X14950000Y-8000000D03*
D18*
X23000000Y3050000D03*
X23000000Y1950000D03*
X23000000Y1050000D03*
X23000000Y-50000D03*
X23000000Y-950000D03*
X23000000Y-2050000D03*
X23000000Y-2950000D03*
X23000000Y-4050000D03*
D10*
G36*
X11474264Y-5789340D02*
X12110660Y-6425736D01*
X11403554Y-7132842D01*
X10767158Y-6496446D01*
X11474264Y-5789340D01*
X11474264Y-5789340D01*
G37*
G36*
X10696446Y-6567158D02*
X11332842Y-7203554D01*
X10625736Y-7910660D01*
X9989340Y-7274264D01*
X10696446Y-6567158D01*
X10696446Y-6567158D01*
G37*
G36*
X5875736Y-12660660D02*
X5239340Y-12024264D01*
X5946446Y-11317158D01*
X6582842Y-11953554D01*
X5875736Y-12660660D01*
X5875736Y-12660660D01*
G37*
G36*
X6653554Y-11882842D02*
X6017158Y-11246446D01*
X6724264Y-10539340D01*
X7360660Y-11175736D01*
X6653554Y-11882842D01*
X6653554Y-11882842D01*
G37*
D20*
X1350000Y-2950000D03*
X1350000Y2950000D03*
X-1350000Y2950000D03*
X-1350000Y-2950000D03*
D10*
G36*
X-10745502Y-15165011D02*
X-9599989Y-14019498D01*
X-8673680Y-14945807D01*
X-9819193Y-16091320D01*
X-10745502Y-15165011D01*
X-10745502Y-15165011D01*
G37*
G36*
X-12916320Y-12994193D02*
X-11770807Y-11848680D01*
X-10844498Y-12774989D01*
X-11990011Y-13920502D01*
X-12916320Y-12994193D01*
X-12916320Y-12994193D01*
G37*
G36*
X-14019498Y-9599989D02*
X-15165011Y-10745502D01*
X-16091320Y-9819193D01*
X-14945807Y-8673680D01*
X-14019498Y-9599989D01*
X-14019498Y-9599989D01*
G37*
G36*
X-11848680Y-11770807D02*
X-12994193Y-12916320D01*
X-13920502Y-11990011D01*
X-12774989Y-10844498D01*
X-11848680Y-11770807D01*
X-11848680Y-11770807D01*
G37*
G36*
X-20872196Y17230596D02*
X-21367171Y17725571D01*
X-20483288Y18609454D01*
X-19988313Y18114479D01*
X-20872196Y17230596D01*
X-20872196Y17230596D01*
G37*
G36*
X-20518642Y16877043D02*
X-21013617Y17372018D01*
X-20129734Y18255901D01*
X-19634759Y17760926D01*
X-20518642Y16877043D01*
X-20518642Y16877043D01*
G37*
G36*
X-20165089Y16523489D02*
X-20660064Y17018464D01*
X-19776181Y17902347D01*
X-19281206Y17407372D01*
X-20165089Y16523489D01*
X-20165089Y16523489D01*
G37*
G36*
X-19811536Y16169936D02*
X-20306511Y16664911D01*
X-19422628Y17548794D01*
X-18927653Y17053819D01*
X-19811536Y16169936D01*
X-19811536Y16169936D01*
G37*
G36*
X-19457982Y15816383D02*
X-19952957Y16311358D01*
X-19069074Y17195241D01*
X-18574099Y16700266D01*
X-19457982Y15816383D01*
X-19457982Y15816383D01*
G37*
G36*
X-19104429Y15462829D02*
X-19599404Y15957804D01*
X-18715521Y16841687D01*
X-18220546Y16346712D01*
X-19104429Y15462829D01*
X-19104429Y15462829D01*
G37*
G36*
X-17230596Y15957804D02*
X-17725571Y15462829D01*
X-18609454Y16346712D01*
X-18114479Y16841687D01*
X-17230596Y15957804D01*
X-17230596Y15957804D01*
G37*
G36*
X-16877043Y16311358D02*
X-17372018Y15816383D01*
X-18255901Y16700266D01*
X-17760926Y17195241D01*
X-16877043Y16311358D01*
X-16877043Y16311358D01*
G37*
G36*
X-16523489Y16664911D02*
X-17018464Y16169936D01*
X-17902347Y17053819D01*
X-17407372Y17548794D01*
X-16523489Y16664911D01*
X-16523489Y16664911D01*
G37*
G36*
X-16169936Y17018464D02*
X-16664911Y16523489D01*
X-17548794Y17407372D01*
X-17053819Y17902347D01*
X-16169936Y17018464D01*
X-16169936Y17018464D01*
G37*
G36*
X-15816383Y17372018D02*
X-16311358Y16877043D01*
X-17195241Y17760926D01*
X-16700266Y18255901D01*
X-15816383Y17372018D01*
X-15816383Y17372018D01*
G37*
G36*
X-15462829Y17725571D02*
X-15957804Y17230596D01*
X-16841687Y18114479D01*
X-16346712Y18609454D01*
X-15462829Y17725571D01*
X-15462829Y17725571D01*
G37*
G36*
X-16346712Y18220546D02*
X-16841687Y18715521D01*
X-15957804Y19599404D01*
X-15462829Y19104429D01*
X-16346712Y18220546D01*
X-16346712Y18220546D01*
G37*
G36*
X-16700266Y18574099D02*
X-17195241Y19069074D01*
X-16311358Y19952957D01*
X-15816383Y19457982D01*
X-16700266Y18574099D01*
X-16700266Y18574099D01*
G37*
G36*
X-17053819Y18927653D02*
X-17548794Y19422628D01*
X-16664911Y20306511D01*
X-16169936Y19811536D01*
X-17053819Y18927653D01*
X-17053819Y18927653D01*
G37*
G36*
X-17407372Y19281206D02*
X-17902347Y19776181D01*
X-17018464Y20660064D01*
X-16523489Y20165089D01*
X-17407372Y19281206D01*
X-17407372Y19281206D01*
G37*
G36*
X-17760926Y19634759D02*
X-18255901Y20129734D01*
X-17372018Y21013617D01*
X-16877043Y20518642D01*
X-17760926Y19634759D01*
X-17760926Y19634759D01*
G37*
G36*
X-18114479Y19988313D02*
X-18609454Y20483288D01*
X-17725571Y21367171D01*
X-17230596Y20872196D01*
X-18114479Y19988313D01*
X-18114479Y19988313D01*
G37*
G36*
X-18220546Y20483288D02*
X-18715521Y19988313D01*
X-19599404Y20872196D01*
X-19104429Y21367171D01*
X-18220546Y20483288D01*
X-18220546Y20483288D01*
G37*
G36*
X-18574099Y20129734D02*
X-19069074Y19634759D01*
X-19952957Y20518642D01*
X-19457982Y21013617D01*
X-18574099Y20129734D01*
X-18574099Y20129734D01*
G37*
G36*
X-18927653Y19776181D02*
X-19422628Y19281206D01*
X-20306511Y20165089D01*
X-19811536Y20660064D01*
X-18927653Y19776181D01*
X-18927653Y19776181D01*
G37*
G36*
X-19281206Y19422628D02*
X-19776181Y18927653D01*
X-20660064Y19811536D01*
X-20165089Y20306511D01*
X-19281206Y19422628D01*
X-19281206Y19422628D01*
G37*
G36*
X-19634759Y19069074D02*
X-20129734Y18574099D01*
X-21013617Y19457982D01*
X-20518642Y19952957D01*
X-19634759Y19069074D01*
X-19634759Y19069074D01*
G37*
G36*
X-19988313Y18715521D02*
X-20483288Y18220546D01*
X-21367171Y19104429D01*
X-20872196Y19599404D01*
X-19988313Y18715521D01*
X-19988313Y18715521D01*
G37*
G36*
X-17495761Y17212918D02*
X-18697843Y18415000D01*
X-17495761Y19617082D01*
X-16293679Y18415000D01*
X-17495761Y17212918D01*
X-17495761Y17212918D01*
G37*
G36*
X-18415000Y18132157D02*
X-19617082Y19334239D01*
X-18415000Y20536321D01*
X-17212918Y19334239D01*
X-18415000Y18132157D01*
X-18415000Y18132157D01*
G37*
G36*
X-18415000Y16293679D02*
X-19617082Y17495761D01*
X-18415000Y18697843D01*
X-17212918Y17495761D01*
X-18415000Y16293679D01*
X-18415000Y16293679D01*
G37*
G36*
X-19334239Y17212918D02*
X-20536321Y18415000D01*
X-19334239Y19617082D01*
X-18132157Y18415000D01*
X-19334239Y17212918D01*
X-19334239Y17212918D01*
G37*
G36*
X-22241583Y16179431D02*
X-23514050Y14906964D01*
X-24644629Y16037543D01*
X-23372162Y17310010D01*
X-22241583Y16179431D01*
X-22241583Y16179431D01*
G37*
G36*
X-23527556Y17465403D02*
X-24800023Y16192936D01*
X-25790510Y17183423D01*
X-24518043Y18455890D01*
X-23527556Y17465403D01*
X-23527556Y17465403D01*
G37*
G36*
X-25082936Y15910023D02*
X-26355403Y14637556D01*
X-27345890Y15628043D01*
X-26073423Y16900510D01*
X-25082936Y15910023D01*
X-25082936Y15910023D01*
G37*
G36*
X-23739490Y14566577D02*
X-25011957Y13294110D01*
X-26002444Y14284597D01*
X-24729977Y15557064D01*
X-23739490Y14566577D01*
X-23739490Y14566577D01*
G37*
G36*
X-11004340Y-11219264D02*
X-11640736Y-11855660D01*
X-12347842Y-11148554D01*
X-11711446Y-10512158D01*
X-11004340Y-11219264D01*
X-11004340Y-11219264D01*
G37*
G36*
X-11782158Y-10441446D02*
X-12418554Y-11077842D01*
X-13125660Y-10370736D01*
X-12489264Y-9734340D01*
X-11782158Y-10441446D01*
X-11782158Y-10441446D01*
G37*
D21*
X-19986714Y-23523521D03*
X-23522248Y-19987987D03*
D22*
X-21188796Y-26139816D03*
X-26138543Y-21190068D03*
D10*
G36*
X5177689Y-8076828D02*
X6379771Y-6874746D01*
X8076827Y-8571802D01*
X6874745Y-9773884D01*
X5177689Y-8076828D01*
X5177689Y-8076828D01*
G37*
G36*
X8006116Y-10905255D02*
X9208198Y-9703173D01*
X10905254Y-11400229D01*
X9703172Y-12602311D01*
X8006116Y-10905255D01*
X8006116Y-10905255D01*
G37*
G36*
X9703173Y-9208198D02*
X10905255Y-8006116D01*
X12602311Y-9703172D01*
X11400229Y-10905254D01*
X9703173Y-9208198D01*
X9703173Y-9208198D01*
G37*
G36*
X6874746Y-6379771D02*
X8076828Y-5177689D01*
X9773884Y-6874745D01*
X8571802Y-8076827D01*
X6874746Y-6379771D01*
X6874746Y-6379771D01*
G37*
G36*
X-19701992Y15861180D02*
X-18888820Y15048008D01*
X-19737348Y14199480D01*
X-20550520Y15012652D01*
X-19701992Y15861180D01*
X-19701992Y15861180D01*
G37*
G36*
X-20762652Y14800520D02*
X-19949480Y13987348D01*
X-20798008Y13138820D01*
X-21611180Y13951992D01*
X-20762652Y14800520D01*
X-20762652Y14800520D01*
G37*
G36*
X-17998008Y13688820D02*
X-18811180Y14501992D01*
X-17962652Y15350520D01*
X-17149480Y14537348D01*
X-17998008Y13688820D01*
X-17998008Y13688820D01*
G37*
G36*
X-16937348Y14749480D02*
X-17750520Y15562652D01*
X-16901992Y16411180D01*
X-16088820Y15598008D01*
X-16937348Y14749480D01*
X-16937348Y14749480D01*
G37*
G36*
X-14010008Y11084820D02*
X-14823180Y11897992D01*
X-13974652Y12746520D01*
X-13161480Y11933348D01*
X-14010008Y11084820D01*
X-14010008Y11084820D01*
G37*
G36*
X-12949348Y12145480D02*
X-13762520Y12958652D01*
X-12913992Y13807180D01*
X-12100820Y12994008D01*
X-12949348Y12145480D01*
X-12949348Y12145480D01*
G37*
G36*
X13675992Y-16601180D02*
X12862820Y-15788008D01*
X13711348Y-14939480D01*
X14524520Y-15752652D01*
X13675992Y-16601180D01*
X13675992Y-16601180D01*
G37*
G36*
X14736652Y-15540520D02*
X13923480Y-14727348D01*
X14772008Y-13878820D01*
X15585180Y-14691992D01*
X14736652Y-15540520D01*
X14736652Y-15540520D01*
G37*
G36*
X-8976992Y11902180D02*
X-8163820Y11089008D01*
X-9012348Y10240480D01*
X-9825520Y11053652D01*
X-8976992Y11902180D01*
X-8976992Y11902180D01*
G37*
G36*
X-10037652Y10841520D02*
X-9224480Y10028348D01*
X-10073008Y9179820D01*
X-10886180Y9992992D01*
X-10037652Y10841520D01*
X-10037652Y10841520D01*
G37*
G36*
X10881992Y-13807180D02*
X10068820Y-12994008D01*
X10917348Y-12145480D01*
X11730520Y-12958652D01*
X10881992Y-13807180D01*
X10881992Y-13807180D01*
G37*
G36*
X11942652Y-12746520D02*
X11129480Y-11933348D01*
X11978008Y-11084820D01*
X12791180Y-11897992D01*
X11942652Y-12746520D01*
X11942652Y-12746520D01*
G37*
G36*
X-8671820Y-11470008D02*
X-9484992Y-12283180D01*
X-10333520Y-11434652D01*
X-9520348Y-10621480D01*
X-8671820Y-11470008D01*
X-8671820Y-11470008D01*
G37*
G36*
X-9732480Y-10409348D02*
X-10545652Y-11222520D01*
X-11394180Y-10373992D01*
X-10581008Y-9560820D01*
X-9732480Y-10409348D01*
X-9732480Y-10409348D01*
G37*
G36*
X-9235180Y-6436992D02*
X-8422008Y-5623820D01*
X-7573480Y-6472348D01*
X-8386652Y-7285520D01*
X-9235180Y-6436992D01*
X-9235180Y-6436992D01*
G37*
G36*
X-8174520Y-7497652D02*
X-7361348Y-6684480D01*
X-6512820Y-7533008D01*
X-7325992Y-8346180D01*
X-8174520Y-7497652D01*
X-8174520Y-7497652D01*
G37*
G36*
X-19225736Y15010660D02*
X-18589340Y14374264D01*
X-19296446Y13667158D01*
X-19932842Y14303554D01*
X-19225736Y15010660D01*
X-19225736Y15010660D01*
G37*
G36*
X-20003554Y14232842D02*
X-19367158Y13596446D01*
X-20074264Y12889340D01*
X-20710660Y13525736D01*
X-20003554Y14232842D01*
X-20003554Y14232842D01*
G37*
G36*
X-17274264Y13439340D02*
X-17910660Y14075736D01*
X-17203554Y14782842D01*
X-16567158Y14146446D01*
X-17274264Y13439340D01*
X-17274264Y13439340D01*
G37*
G36*
X-16496446Y14217158D02*
X-17132842Y14853554D01*
X-16425736Y15560660D01*
X-15789340Y14924264D01*
X-16496446Y14217158D01*
X-16496446Y14217158D01*
G37*
G36*
X-12029180Y-11643992D02*
X-11216008Y-10830820D01*
X-10367480Y-11679348D01*
X-11180652Y-12492520D01*
X-12029180Y-11643992D01*
X-12029180Y-11643992D01*
G37*
G36*
X-10968520Y-12704652D02*
X-10155348Y-11891480D01*
X-9306820Y-12740008D01*
X-10119992Y-13553180D01*
X-10968520Y-12704652D01*
X-10968520Y-12704652D01*
G37*
G36*
X-25290000Y20195842D02*
X-26794158Y21700000D01*
X-25290000Y23204158D01*
X-23785842Y21700000D01*
X-25290000Y20195842D01*
X-25290000Y20195842D01*
G37*
D12*
X-23493949Y19903949D02*
X-23493949Y19903949D01*
X-23493949Y23496051D02*
X-23493949Y23496051D01*
X-21697898Y21700000D02*
X-21697898Y21700000D01*
X-21697898Y25292102D02*
X-21697898Y25292102D01*
X-19901846Y23496051D02*
X-19901846Y23496051D01*
D10*
G36*
X25290000Y-20195842D02*
X26794158Y-21700000D01*
X25290000Y-23204158D01*
X23785842Y-21700000D01*
X25290000Y-20195842D01*
X25290000Y-20195842D01*
G37*
D12*
X23493949Y-19903949D02*
X23493949Y-19903949D01*
X23493949Y-23496051D02*
X23493949Y-23496051D01*
X21697898Y-21700000D02*
X21697898Y-21700000D01*
X21697898Y-25292102D02*
X21697898Y-25292102D01*
X19901846Y-23496051D02*
X19901846Y-23496051D01*
D23*
X31059828Y15819828D03*
X-15819828Y-31059828D03*
X27305000Y19685000D03*
D11*
X-17780000Y28575000D03*
M02*
