%FSLAX45Y45*%
G04 Gerber Fmt 4.5, Leading zero omitted, Abs format (unit mm)*
G04 Created by KiCad (PCBNEW 4.0.6-e0-6349~53~ubuntu14.04.1) date Wed Mar 22 00:16:27 2017*
%MOMM*%
%LPD*%
G01*
G04 APERTURE LIST*
%ADD10C,0.127000*%
%ADD11C,0.150000*%
%ADD12C,0.200000*%
%ADD13C,0.300000*%
G04 APERTURE END LIST*
D10*
D11*
X1450000Y-3500000D02*
X3500000Y-1450000D01*
X-1450000Y-3500000D02*
X1450000Y-3500000D01*
X-3500000Y-1450000D02*
X-1450000Y-3500000D01*
X-3500000Y1450000D02*
X-3500000Y-1450000D01*
X-1450000Y3500000D02*
X-3500000Y1450000D01*
X1450000Y3500000D02*
X-1450000Y3500000D01*
X3500000Y1450000D02*
X1450000Y3500000D01*
X3500000Y-1450000D02*
X3500000Y1450000D01*
D12*
X-2433000Y-2139000D02*
X-2393000Y-2179000D01*
X-2393000Y-2139000D02*
X-2433000Y-2179000D01*
X-2420000Y120000D02*
X-2380000Y80000D01*
X-2380000Y120000D02*
X-2420000Y80000D01*
X-2335000Y510000D02*
X-2295000Y470000D01*
X-2295000Y510000D02*
X-2335000Y470000D01*
X-2310000Y-785000D02*
X-2270000Y-825000D01*
X-2270000Y-785000D02*
X-2310000Y-825000D01*
X-2255000Y505000D02*
X-2215000Y465000D01*
X-2215000Y505000D02*
X-2255000Y465000D01*
X-2242500Y-2329500D02*
X-2202500Y-2369500D01*
X-2202500Y-2329500D02*
X-2242500Y-2369500D01*
X-2220000Y-785000D02*
X-2180000Y-825000D01*
X-2180000Y-785000D02*
X-2220000Y-825000D01*
X-2175000Y490000D02*
X-2135000Y450000D01*
X-2135000Y490000D02*
X-2175000Y450000D01*
X-2155000Y-655000D02*
X-2115000Y-695000D01*
X-2115000Y-655000D02*
X-2155000Y-695000D01*
X-2155000Y-735000D02*
X-2115000Y-775000D01*
X-2115000Y-735000D02*
X-2155000Y-775000D01*
X-2090000Y490000D02*
X-2050000Y450000D01*
X-2050000Y490000D02*
X-2090000Y450000D01*
X-1570000Y1420000D02*
X-1530000Y1380000D01*
X-1530000Y1420000D02*
X-1570000Y1380000D01*
X-1435000Y720000D02*
X-1395000Y680000D01*
X-1395000Y720000D02*
X-1435000Y680000D01*
X-1435000Y-750000D02*
X-1395000Y-790000D01*
X-1395000Y-750000D02*
X-1435000Y-790000D01*
X-1395000Y940000D02*
X-1355000Y900000D01*
X-1355000Y940000D02*
X-1395000Y900000D01*
X-1355000Y735000D02*
X-1315000Y695000D01*
X-1315000Y735000D02*
X-1355000Y695000D01*
X-1355000Y-770000D02*
X-1315000Y-810000D01*
X-1315000Y-770000D02*
X-1355000Y-810000D01*
X-1340000Y-640000D02*
X-1300000Y-680000D01*
X-1300000Y-640000D02*
X-1340000Y-680000D01*
X-1275000Y750000D02*
X-1235000Y710000D01*
X-1235000Y750000D02*
X-1275000Y710000D01*
X-1265000Y920000D02*
X-1225000Y880000D01*
X-1225000Y920000D02*
X-1265000Y880000D01*
X-1265000Y-750000D02*
X-1225000Y-790000D01*
X-1225000Y-750000D02*
X-1265000Y-790000D01*
X-1260000Y-650000D02*
X-1220000Y-690000D01*
X-1220000Y-650000D02*
X-1260000Y-690000D01*
X-1220000Y1120000D02*
X-1180000Y1080000D01*
X-1180000Y1120000D02*
X-1220000Y1080000D01*
X-1195000Y760000D02*
X-1155000Y720000D01*
X-1155000Y760000D02*
X-1195000Y720000D01*
X-940000Y-1355000D02*
X-900000Y-1395000D01*
X-900000Y-1355000D02*
X-940000Y-1395000D01*
X-900000Y-1195000D02*
X-860000Y-1235000D01*
X-860000Y-1195000D02*
X-900000Y-1235000D01*
X-825000Y2310000D02*
X-785000Y2270000D01*
X-785000Y2310000D02*
X-825000Y2270000D01*
X-825000Y2220000D02*
X-785000Y2180000D01*
X-785000Y2220000D02*
X-825000Y2180000D01*
X-820000Y1350000D02*
X-780000Y1310000D01*
X-780000Y1350000D02*
X-820000Y1310000D01*
X-810000Y1265000D02*
X-770000Y1225000D01*
X-770000Y1265000D02*
X-810000Y1225000D01*
X-800000Y1430000D02*
X-760000Y1390000D01*
X-760000Y1430000D02*
X-800000Y1390000D01*
X-780000Y2150000D02*
X-740000Y2110000D01*
X-740000Y2150000D02*
X-780000Y2110000D01*
X-765000Y-1155000D02*
X-725000Y-1195000D01*
X-725000Y-1155000D02*
X-765000Y-1195000D01*
X-750000Y-1235000D02*
X-710000Y-1275000D01*
X-710000Y-1235000D02*
X-750000Y-1275000D01*
X-735000Y-1315000D02*
X-695000Y-1355000D01*
X-695000Y-1315000D02*
X-735000Y-1355000D01*
X-720000Y-1395000D02*
X-680000Y-1435000D01*
X-680000Y-1395000D02*
X-720000Y-1435000D01*
X-710000Y1260000D02*
X-670000Y1220000D01*
X-670000Y1260000D02*
X-710000Y1220000D01*
X-705000Y-355000D02*
X-665000Y-395000D01*
X-665000Y-355000D02*
X-705000Y-395000D01*
X-705000Y-445000D02*
X-665000Y-485000D01*
X-665000Y-445000D02*
X-705000Y-485000D01*
X-695000Y2155000D02*
X-655000Y2115000D01*
X-655000Y2155000D02*
X-695000Y2115000D01*
X-690000Y1340000D02*
X-650000Y1300000D01*
X-650000Y1340000D02*
X-690000Y1300000D01*
X-520000Y-30000D02*
X-480000Y-70000D01*
X-480000Y-30000D02*
X-520000Y-70000D01*
X-520000Y-130000D02*
X-480000Y-170000D01*
X-480000Y-130000D02*
X-520000Y-170000D01*
X-510000Y-2305000D02*
X-470000Y-2345000D01*
X-470000Y-2305000D02*
X-510000Y-2345000D01*
X-505000Y-2215000D02*
X-465000Y-2255000D01*
X-465000Y-2215000D02*
X-505000Y-2255000D01*
X-490000Y-2045000D02*
X-450000Y-2085000D01*
X-450000Y-2045000D02*
X-490000Y-2085000D01*
X-490000Y-2135000D02*
X-450000Y-2175000D01*
X-450000Y-2135000D02*
X-490000Y-2175000D01*
X-475000Y720000D02*
X-435000Y680000D01*
X-435000Y720000D02*
X-475000Y680000D01*
X-460000Y-510000D02*
X-420000Y-550000D01*
X-420000Y-510000D02*
X-460000Y-550000D01*
X-440000Y575000D02*
X-400000Y535000D01*
X-400000Y575000D02*
X-440000Y535000D01*
X-440000Y485000D02*
X-400000Y445000D01*
X-400000Y485000D02*
X-440000Y445000D01*
X-390000Y715000D02*
X-350000Y675000D01*
X-350000Y715000D02*
X-390000Y675000D01*
X-337500Y274000D02*
X-297500Y234000D01*
X-297500Y274000D02*
X-337500Y234000D01*
X-295000Y-585000D02*
X-255000Y-625000D01*
X-255000Y-585000D02*
X-295000Y-625000D01*
X-170000Y520000D02*
X-130000Y480000D01*
X-130000Y520000D02*
X-170000Y480000D01*
X-120000Y-2380000D02*
X-80000Y-2420000D01*
X-80000Y-2380000D02*
X-120000Y-2420000D01*
X-70000Y520000D02*
X-30000Y480000D01*
X-30000Y520000D02*
X-70000Y480000D01*
X30000Y-480000D02*
X70000Y-520000D01*
X70000Y-480000D02*
X30000Y-520000D01*
X80000Y2420000D02*
X120000Y2380000D01*
X120000Y2420000D02*
X80000Y2380000D01*
X130000Y-480000D02*
X170000Y-520000D01*
X170000Y-480000D02*
X130000Y-520000D01*
X280000Y-230000D02*
X320000Y-270000D01*
X320000Y-230000D02*
X280000Y-270000D01*
X335000Y-680000D02*
X375000Y-720000D01*
X375000Y-680000D02*
X335000Y-720000D01*
X425000Y-680000D02*
X465000Y-720000D01*
X465000Y-680000D02*
X425000Y-720000D01*
X430000Y870000D02*
X470000Y830000D01*
X470000Y870000D02*
X430000Y830000D01*
X450000Y2215000D02*
X490000Y2175000D01*
X490000Y2215000D02*
X450000Y2175000D01*
X450000Y2125000D02*
X490000Y2085000D01*
X490000Y2125000D02*
X450000Y2085000D01*
X465000Y2385000D02*
X505000Y2345000D01*
X505000Y2385000D02*
X465000Y2345000D01*
X465000Y2295000D02*
X505000Y2255000D01*
X505000Y2295000D02*
X465000Y2255000D01*
X480000Y170000D02*
X520000Y130000D01*
X520000Y170000D02*
X480000Y130000D01*
X480000Y70000D02*
X520000Y30000D01*
X520000Y70000D02*
X480000Y30000D01*
X490000Y-330000D02*
X530000Y-370000D01*
X530000Y-330000D02*
X490000Y-370000D01*
X575000Y-335000D02*
X615000Y-375000D01*
X615000Y-335000D02*
X575000Y-375000D01*
X625000Y515000D02*
X665000Y475000D01*
X665000Y515000D02*
X625000Y475000D01*
X645000Y-1300000D02*
X685000Y-1340000D01*
X685000Y-1300000D02*
X645000Y-1340000D01*
X660000Y-2110000D02*
X700000Y-2150000D01*
X700000Y-2110000D02*
X660000Y-2150000D01*
X665000Y-1220000D02*
X705000Y-1260000D01*
X705000Y-1220000D02*
X665000Y-1260000D01*
X680000Y1435000D02*
X720000Y1395000D01*
X720000Y1435000D02*
X680000Y1395000D01*
X680000Y450000D02*
X720000Y410000D01*
X720000Y450000D02*
X680000Y410000D01*
X690000Y370000D02*
X730000Y330000D01*
X730000Y370000D02*
X690000Y330000D01*
X695000Y1355000D02*
X735000Y1315000D01*
X735000Y1355000D02*
X695000Y1315000D01*
X710000Y1275000D02*
X750000Y1235000D01*
X750000Y1275000D02*
X710000Y1235000D01*
X725000Y1195000D02*
X765000Y1155000D01*
X765000Y1195000D02*
X725000Y1155000D01*
X730000Y570000D02*
X770000Y530000D01*
X770000Y570000D02*
X730000Y530000D01*
X740000Y-2110000D02*
X780000Y-2150000D01*
X780000Y-2110000D02*
X740000Y-2150000D01*
X755000Y-1395000D02*
X795000Y-1435000D01*
X795000Y-1395000D02*
X755000Y-1435000D01*
X775000Y-1225000D02*
X815000Y-1265000D01*
X815000Y-1225000D02*
X775000Y-1265000D01*
X775000Y-1315000D02*
X815000Y-1355000D01*
X815000Y-1315000D02*
X775000Y-1355000D01*
X780000Y370000D02*
X820000Y330000D01*
X820000Y370000D02*
X780000Y330000D01*
X790000Y-2175000D02*
X830000Y-2215000D01*
X830000Y-2175000D02*
X790000Y-2215000D01*
X790000Y-2265000D02*
X830000Y-2305000D01*
X830000Y-2265000D02*
X790000Y-2305000D01*
X885000Y1260000D02*
X925000Y1220000D01*
X925000Y1260000D02*
X885000Y1220000D01*
X885000Y-1445000D02*
X925000Y-1485000D01*
X925000Y-1445000D02*
X885000Y-1485000D01*
X900000Y1395000D02*
X940000Y1355000D01*
X940000Y1395000D02*
X900000Y1355000D01*
X980000Y1120000D02*
X1020000Y1080000D01*
X1020000Y1120000D02*
X980000Y1080000D01*
X1130000Y-980000D02*
X1170000Y-1020000D01*
X1170000Y-980000D02*
X1130000Y-1020000D01*
X1155000Y-725000D02*
X1195000Y-765000D01*
X1195000Y-725000D02*
X1155000Y-765000D01*
X1220000Y-880000D02*
X1260000Y-920000D01*
X1260000Y-880000D02*
X1220000Y-920000D01*
X1230000Y820000D02*
X1270000Y780000D01*
X1270000Y820000D02*
X1230000Y780000D01*
X1235000Y735000D02*
X1275000Y695000D01*
X1275000Y735000D02*
X1235000Y695000D01*
X1235000Y-710000D02*
X1275000Y-750000D01*
X1275000Y-710000D02*
X1235000Y-750000D01*
X1300000Y690000D02*
X1340000Y650000D01*
X1340000Y690000D02*
X1300000Y650000D01*
X1315000Y820000D02*
X1355000Y780000D01*
X1355000Y820000D02*
X1315000Y780000D01*
X1315000Y-695000D02*
X1355000Y-735000D01*
X1355000Y-695000D02*
X1315000Y-735000D01*
X1355000Y-900000D02*
X1395000Y-940000D01*
X1395000Y-900000D02*
X1355000Y-940000D01*
X1395000Y800000D02*
X1435000Y760000D01*
X1435000Y800000D02*
X1395000Y760000D01*
X1395000Y-680000D02*
X1435000Y-720000D01*
X1435000Y-680000D02*
X1395000Y-720000D01*
X1480000Y-1330000D02*
X1520000Y-1370000D01*
X1520000Y-1330000D02*
X1480000Y-1370000D01*
X1630000Y1320000D02*
X1670000Y1280000D01*
X1670000Y1320000D02*
X1630000Y1280000D01*
X2050000Y-450000D02*
X2090000Y-490000D01*
X2090000Y-450000D02*
X2050000Y-490000D01*
X2115000Y775000D02*
X2155000Y735000D01*
X2155000Y775000D02*
X2115000Y735000D01*
X2115000Y695000D02*
X2155000Y655000D01*
X2155000Y695000D02*
X2115000Y655000D01*
X2145000Y-450000D02*
X2185000Y-490000D01*
X2185000Y-450000D02*
X2145000Y-490000D01*
X2180000Y825000D02*
X2220000Y785000D01*
X2220000Y825000D02*
X2180000Y785000D01*
X2225000Y-470000D02*
X2265000Y-510000D01*
X2265000Y-470000D02*
X2225000Y-510000D01*
X2270000Y825000D02*
X2310000Y785000D01*
X2310000Y825000D02*
X2270000Y785000D01*
X2315000Y-470000D02*
X2355000Y-510000D01*
X2355000Y-470000D02*
X2315000Y-510000D01*
X2380000Y-80000D02*
X2420000Y-120000D01*
X2420000Y-80000D02*
X2380000Y-120000D01*
X-2588982Y-2118880D02*
G75*
G03X-2588982Y-2118880I-25000J0D01*
G01*
X-2626356Y-2152467D02*
X-2580394Y-2106505D01*
X-2647569Y-2131254D02*
X-2601607Y-2085292D01*
X-2580394Y-2106505D02*
G75*
G03X-2601607Y-2085292I-10607J10607D01*
G01*
X-2647569Y-2131254D02*
G75*
G03X-2626356Y-2152467I10607J-10607D01*
G01*
X-2094007Y-2613854D02*
G75*
G03X-2094007Y-2613854I-25000J0D01*
G01*
X-2131381Y-2647442D02*
X-2085419Y-2601480D01*
X-2152594Y-2626229D02*
X-2106632Y-2580267D01*
X-2085419Y-2601480D02*
G75*
G03X-2106632Y-2580267I-10607J10607D01*
G01*
X-2152594Y-2626229D02*
G75*
G03X-2131381Y-2647442I10607J-10607D01*
G01*
X-2352352Y-1971171D02*
X-2352352Y-2026171D01*
X-2379852Y-1998671D02*
X-2324852Y-1998671D01*
X-2375333Y-2000439D02*
X-2354120Y-2021652D01*
X-2350584Y-1975690D02*
X-2329371Y-1996904D01*
X-2354120Y-2021652D02*
G75*
G03X-2329371Y-1996904I12374J12374D01*
G01*
X-2350584Y-1975690D02*
G75*
G03X-2375333Y-2000439I-12374J-12374D01*
G01*
X-1998799Y-2324725D02*
X-1998799Y-2379725D01*
X-2026299Y-2352225D02*
X-1971299Y-2352225D01*
X-2021780Y-2353993D02*
X-2000566Y-2375206D01*
X-1997031Y-2329244D02*
X-1975818Y-2350457D01*
X-2000566Y-2375206D02*
G75*
G03X-1975818Y-2350457I12374J12374D01*
G01*
X-1997031Y-2329244D02*
G75*
G03X-2021780Y-2353993I-12374J-12374D01*
G01*
X5323285Y6566715D02*
X5323285Y6623284D01*
X5266716Y6623284D01*
X5266716Y6566715D01*
X5323285Y6566715D01*
X5323285Y6366715D02*
X5323285Y6423284D01*
X5266716Y6423284D01*
X5266716Y6366715D01*
X5323285Y6366715D01*
X5323285Y6166715D02*
X5323285Y6223284D01*
X5266716Y6223284D01*
X5266716Y6166715D01*
X5323285Y6166715D01*
X-3111500Y1092200D02*
X-3060700Y1143000D01*
X-3111500Y1193800D01*
X-3162300Y1143000D01*
X-3111500Y1092200D01*
X-3111500Y838200D02*
X-3060700Y889000D01*
X-3111500Y939800D01*
X-3162300Y889000D01*
X-3111500Y838200D01*
X-3111500Y584200D02*
X-3060700Y635000D01*
X-3111500Y685800D01*
X-3162300Y635000D01*
X-3111500Y584200D01*
X-3111500Y330200D02*
X-3060700Y381000D01*
X-3111500Y431800D01*
X-3162300Y381000D01*
X-3111500Y330200D01*
X-3111500Y76200D02*
X-3060700Y127000D01*
X-3111500Y177800D01*
X-3162300Y127000D01*
X-3111500Y76200D01*
X-3111500Y-177800D02*
X-3060700Y-127000D01*
X-3111500Y-76200D01*
X-3162300Y-127000D01*
X-3111500Y-177800D01*
X-3111500Y-431800D02*
X-3060700Y-381000D01*
X-3111500Y-330200D01*
X-3162300Y-381000D01*
X-3111500Y-431800D01*
X-3111500Y-685800D02*
X-3060700Y-635000D01*
X-3111500Y-584200D01*
X-3162300Y-635000D01*
X-3111500Y-685800D01*
X-3111500Y-939800D02*
X-3060700Y-889000D01*
X-3111500Y-838200D01*
X-3162300Y-889000D01*
X-3111500Y-939800D01*
X-3111500Y-1193800D02*
X-3060700Y-1143000D01*
X-3111500Y-1092200D01*
X-3162300Y-1143000D01*
X-3111500Y-1193800D01*
X-2857500Y1092200D02*
X-2806700Y1143000D01*
X-2857500Y1193800D01*
X-2908300Y1143000D01*
X-2857500Y1092200D01*
X-2857500Y838200D02*
X-2806700Y889000D01*
X-2857500Y939800D01*
X-2908300Y889000D01*
X-2857500Y838200D01*
X-2857500Y584200D02*
X-2806700Y635000D01*
X-2857500Y685800D01*
X-2908300Y635000D01*
X-2857500Y584200D01*
X-2857500Y330200D02*
X-2806700Y381000D01*
X-2857500Y431800D01*
X-2908300Y381000D01*
X-2857500Y330200D01*
X-2857500Y76200D02*
X-2806700Y127000D01*
X-2857500Y177800D01*
X-2908300Y127000D01*
X-2857500Y76200D01*
X-2857500Y-177800D02*
X-2806700Y-127000D01*
X-2857500Y-76200D01*
X-2908300Y-127000D01*
X-2857500Y-177800D01*
X-2857500Y-431800D02*
X-2806700Y-381000D01*
X-2857500Y-330200D01*
X-2908300Y-381000D01*
X-2857500Y-431800D01*
X-2857500Y-685800D02*
X-2806700Y-635000D01*
X-2857500Y-584200D01*
X-2908300Y-635000D01*
X-2857500Y-685800D01*
X-2857500Y-939800D02*
X-2806700Y-889000D01*
X-2857500Y-838200D01*
X-2908300Y-889000D01*
X-2857500Y-939800D01*
X-2857500Y-1193800D02*
X-2806700Y-1143000D01*
X-2857500Y-1092200D01*
X-2908300Y-1143000D01*
X-2857500Y-1193800D01*
X-2794000Y1854200D02*
X-2743200Y1905000D01*
X-2794000Y1955800D01*
X-2844800Y1905000D01*
X-2794000Y1854200D01*
X-2614395Y2033805D02*
X-2563595Y2084605D01*
X-2614395Y2135405D01*
X-2665195Y2084605D01*
X-2614395Y2033805D01*
X-2434790Y2213410D02*
X-2383990Y2264210D01*
X-2434790Y2315010D01*
X-2485590Y2264210D01*
X-2434790Y2213410D01*
X-2255185Y2393015D02*
X-2204385Y2443815D01*
X-2255185Y2494615D01*
X-2305985Y2443815D01*
X-2255185Y2393015D01*
X-2075579Y2572621D02*
X-2024779Y2623421D01*
X-2075579Y2674221D01*
X-2126380Y2623421D01*
X-2075579Y2572621D01*
X-1895974Y2752226D02*
X-1845174Y2803026D01*
X-1895974Y2853826D01*
X-1946774Y2803026D01*
X-1895974Y2752226D01*
X-1143000Y3060700D02*
X-1092200Y3111500D01*
X-1143000Y3162300D01*
X-1193800Y3111500D01*
X-1143000Y3060700D01*
X-1143000Y2806700D02*
X-1092200Y2857500D01*
X-1143000Y2908300D01*
X-1193800Y2857500D01*
X-1143000Y2806700D01*
X-1143000Y-2908300D02*
X-1092200Y-2857500D01*
X-1143000Y-2806700D01*
X-1193800Y-2857500D01*
X-1143000Y-2908300D01*
X-1143000Y-3162300D02*
X-1092200Y-3111500D01*
X-1143000Y-3060700D01*
X-1193800Y-3111500D01*
X-1143000Y-3162300D01*
X-889000Y3060700D02*
X-838200Y3111500D01*
X-889000Y3162300D01*
X-939800Y3111500D01*
X-889000Y3060700D01*
X-889000Y2806700D02*
X-838200Y2857500D01*
X-889000Y2908300D01*
X-939800Y2857500D01*
X-889000Y2806700D01*
X-889000Y-2908300D02*
X-838200Y-2857500D01*
X-889000Y-2806700D01*
X-939800Y-2857500D01*
X-889000Y-2908300D01*
X-889000Y-3162300D02*
X-838200Y-3111500D01*
X-889000Y-3060700D01*
X-939800Y-3111500D01*
X-889000Y-3162300D01*
X-635000Y3060700D02*
X-584200Y3111500D01*
X-635000Y3162300D01*
X-685800Y3111500D01*
X-635000Y3060700D01*
X-635000Y2806700D02*
X-584200Y2857500D01*
X-635000Y2908300D01*
X-685800Y2857500D01*
X-635000Y2806700D01*
X-635000Y-2908300D02*
X-584200Y-2857500D01*
X-635000Y-2806700D01*
X-685800Y-2857500D01*
X-635000Y-2908300D01*
X-635000Y-3162300D02*
X-584200Y-3111500D01*
X-635000Y-3060700D01*
X-685800Y-3111500D01*
X-635000Y-3162300D01*
X-381000Y3060700D02*
X-330200Y3111500D01*
X-381000Y3162300D01*
X-431800Y3111500D01*
X-381000Y3060700D01*
X-381000Y2806700D02*
X-330200Y2857500D01*
X-381000Y2908300D01*
X-431800Y2857500D01*
X-381000Y2806700D01*
X-381000Y-2908300D02*
X-330200Y-2857500D01*
X-381000Y-2806700D01*
X-431800Y-2857500D01*
X-381000Y-2908300D01*
X-381000Y-3162300D02*
X-330200Y-3111500D01*
X-381000Y-3060700D01*
X-431800Y-3111500D01*
X-381000Y-3162300D01*
X-127000Y3060700D02*
X-76200Y3111500D01*
X-127000Y3162300D01*
X-177800Y3111500D01*
X-127000Y3060700D01*
X-127000Y2806700D02*
X-76200Y2857500D01*
X-127000Y2908300D01*
X-177800Y2857500D01*
X-127000Y2806700D01*
X-127000Y-2908300D02*
X-76200Y-2857500D01*
X-127000Y-2806700D01*
X-177800Y-2857500D01*
X-127000Y-2908300D01*
X-127000Y-3162300D02*
X-76200Y-3111500D01*
X-127000Y-3060700D01*
X-177800Y-3111500D01*
X-127000Y-3162300D01*
X0Y-4558300D02*
X50800Y-4507500D01*
X0Y-4456700D01*
X-50800Y-4507500D01*
X0Y-4558300D01*
X127000Y3060700D02*
X177800Y3111500D01*
X127000Y3162300D01*
X76200Y3111500D01*
X127000Y3060700D01*
X127000Y2806700D02*
X177800Y2857500D01*
X127000Y2908300D01*
X76200Y2857500D01*
X127000Y2806700D01*
X127000Y-2908300D02*
X177800Y-2857500D01*
X127000Y-2806700D01*
X76200Y-2857500D01*
X127000Y-2908300D01*
X127000Y-3162300D02*
X177800Y-3111500D01*
X127000Y-3060700D01*
X76200Y-3111500D01*
X127000Y-3162300D01*
X254000Y-4558300D02*
X304800Y-4507500D01*
X254000Y-4456700D01*
X203200Y-4507500D01*
X254000Y-4558300D01*
X381000Y3060700D02*
X431800Y3111500D01*
X381000Y3162300D01*
X330200Y3111500D01*
X381000Y3060700D01*
X381000Y2806700D02*
X431800Y2857500D01*
X381000Y2908300D01*
X330200Y2857500D01*
X381000Y2806700D01*
X381000Y-2908300D02*
X431800Y-2857500D01*
X381000Y-2806700D01*
X330200Y-2857500D01*
X381000Y-2908300D01*
X381000Y-3162300D02*
X431800Y-3111500D01*
X381000Y-3060700D01*
X330200Y-3111500D01*
X381000Y-3162300D01*
X635000Y3060700D02*
X685800Y3111500D01*
X635000Y3162300D01*
X584200Y3111500D01*
X635000Y3060700D01*
X635000Y2806700D02*
X685800Y2857500D01*
X635000Y2908300D01*
X584200Y2857500D01*
X635000Y2806700D01*
X635000Y-2908300D02*
X685800Y-2857500D01*
X635000Y-2806700D01*
X584200Y-2857500D01*
X635000Y-2908300D01*
X635000Y-3162300D02*
X685800Y-3111500D01*
X635000Y-3060700D01*
X584200Y-3111500D01*
X635000Y-3162300D01*
X889000Y3060700D02*
X939800Y3111500D01*
X889000Y3162300D01*
X838200Y3111500D01*
X889000Y3060700D01*
X889000Y2806700D02*
X939800Y2857500D01*
X889000Y2908300D01*
X838200Y2857500D01*
X889000Y2806700D01*
X889000Y-2908300D02*
X939800Y-2857500D01*
X889000Y-2806700D01*
X838200Y-2857500D01*
X889000Y-2908300D01*
X889000Y-3162300D02*
X939800Y-3111500D01*
X889000Y-3060700D01*
X838200Y-3111500D01*
X889000Y-3162300D01*
X1143000Y3060700D02*
X1193800Y3111500D01*
X1143000Y3162300D01*
X1092200Y3111500D01*
X1143000Y3060700D01*
X1143000Y2806700D02*
X1193800Y2857500D01*
X1143000Y2908300D01*
X1092200Y2857500D01*
X1143000Y2806700D01*
X1143000Y-2908300D02*
X1193800Y-2857500D01*
X1143000Y-2806700D01*
X1092200Y-2857500D01*
X1143000Y-2908300D01*
X1143000Y-3162300D02*
X1193800Y-3111500D01*
X1143000Y-3060700D01*
X1092200Y-3111500D01*
X1143000Y-3162300D01*
X1895974Y-2853826D02*
X1946774Y-2803026D01*
X1895974Y-2752226D01*
X1845174Y-2803026D01*
X1895974Y-2853826D01*
X2075579Y-2674221D02*
X2126380Y-2623421D01*
X2075579Y-2572621D01*
X2024779Y-2623421D01*
X2075579Y-2674221D01*
X2255185Y-2494615D02*
X2305985Y-2443815D01*
X2255185Y-2393015D01*
X2204385Y-2443815D01*
X2255185Y-2494615D01*
X2434790Y-2315010D02*
X2485590Y-2264210D01*
X2434790Y-2213410D01*
X2383990Y-2264210D01*
X2434790Y-2315010D01*
X2614395Y-2135405D02*
X2665195Y-2084605D01*
X2614395Y-2033805D01*
X2563595Y-2084605D01*
X2614395Y-2135405D01*
X2794000Y-1955800D02*
X2844800Y-1905000D01*
X2794000Y-1854200D01*
X2743200Y-1905000D01*
X2794000Y-1955800D01*
X2857500Y1092200D02*
X2908300Y1143000D01*
X2857500Y1193800D01*
X2806700Y1143000D01*
X2857500Y1092200D01*
X2857500Y838200D02*
X2908300Y889000D01*
X2857500Y939800D01*
X2806700Y889000D01*
X2857500Y838200D01*
X2857500Y584200D02*
X2908300Y635000D01*
X2857500Y685800D01*
X2806700Y635000D01*
X2857500Y584200D01*
X2857500Y330200D02*
X2908300Y381000D01*
X2857500Y431800D01*
X2806700Y381000D01*
X2857500Y330200D01*
X2857500Y76200D02*
X2908300Y127000D01*
X2857500Y177800D01*
X2806700Y127000D01*
X2857500Y76200D01*
X2857500Y-177800D02*
X2908300Y-127000D01*
X2857500Y-76200D01*
X2806700Y-127000D01*
X2857500Y-177800D01*
X2857500Y-431800D02*
X2908300Y-381000D01*
X2857500Y-330200D01*
X2806700Y-381000D01*
X2857500Y-431800D01*
X2857500Y-685800D02*
X2908300Y-635000D01*
X2857500Y-584200D01*
X2806700Y-635000D01*
X2857500Y-685800D01*
X2857500Y-939800D02*
X2908300Y-889000D01*
X2857500Y-838200D01*
X2806700Y-889000D01*
X2857500Y-939800D01*
X2857500Y-1193800D02*
X2908300Y-1143000D01*
X2857500Y-1092200D01*
X2806700Y-1143000D01*
X2857500Y-1193800D01*
X3111500Y1092200D02*
X3162300Y1143000D01*
X3111500Y1193800D01*
X3060700Y1143000D01*
X3111500Y1092200D01*
X3111500Y838200D02*
X3162300Y889000D01*
X3111500Y939800D01*
X3060700Y889000D01*
X3111500Y838200D01*
X3111500Y584200D02*
X3162300Y635000D01*
X3111500Y685800D01*
X3060700Y635000D01*
X3111500Y584200D01*
X3111500Y330200D02*
X3162300Y381000D01*
X3111500Y431800D01*
X3060700Y381000D01*
X3111500Y330200D01*
X3111500Y76200D02*
X3162300Y127000D01*
X3111500Y177800D01*
X3060700Y127000D01*
X3111500Y76200D01*
X3111500Y-177800D02*
X3162300Y-127000D01*
X3111500Y-76200D01*
X3060700Y-127000D01*
X3111500Y-177800D01*
X3111500Y-431800D02*
X3162300Y-381000D01*
X3111500Y-330200D01*
X3060700Y-381000D01*
X3111500Y-431800D01*
X3111500Y-685800D02*
X3162300Y-635000D01*
X3111500Y-584200D01*
X3060700Y-635000D01*
X3111500Y-685800D01*
X3111500Y-939800D02*
X3162300Y-889000D01*
X3111500Y-838200D01*
X3060700Y-889000D01*
X3111500Y-939800D01*
X3111500Y-1193800D02*
X3162300Y-1143000D01*
X3111500Y-1092200D01*
X3060700Y-1143000D01*
X3111500Y-1193800D01*
X6550000Y3099200D02*
X6600800Y3150000D01*
X6550000Y3200800D01*
X6499200Y3150000D01*
X6550000Y3099200D01*
X6729605Y2919595D02*
X6780405Y2970395D01*
X6729605Y3021195D01*
X6678805Y2970395D01*
X6729605Y2919595D01*
X6909210Y2739990D02*
X6960010Y2790790D01*
X6909210Y2841590D01*
X6858410Y2790790D01*
X6909210Y2739990D01*
D13*
X-3236071Y-3973214D02*
X-3236071Y-3673214D01*
X-3164643Y-3673214D01*
X-3121786Y-3687500D01*
X-3093214Y-3716071D01*
X-3078929Y-3744643D01*
X-3064643Y-3801786D01*
X-3064643Y-3844643D01*
X-3078929Y-3901786D01*
X-3093214Y-3930357D01*
X-3121786Y-3958929D01*
X-3164643Y-3973214D01*
X-3236071Y-3973214D01*
X-2936071Y-3973214D02*
X-2936071Y-3773214D01*
X-2936071Y-3830357D02*
X-2921786Y-3801786D01*
X-2907500Y-3787500D01*
X-2878929Y-3773214D01*
X-2850357Y-3773214D01*
X-2750357Y-3973214D02*
X-2750357Y-3773214D01*
X-2750357Y-3673214D02*
X-2764643Y-3687500D01*
X-2750357Y-3701786D01*
X-2736072Y-3687500D01*
X-2750357Y-3673214D01*
X-2750357Y-3701786D01*
X-2564643Y-3973214D02*
X-2593214Y-3958929D01*
X-2607500Y-3930357D01*
X-2607500Y-3673214D01*
X-2407500Y-3973214D02*
X-2436072Y-3958929D01*
X-2450357Y-3930357D01*
X-2450357Y-3673214D01*
X-2064643Y-3973214D02*
X-2064643Y-3673214D01*
X-1964643Y-3887500D01*
X-1864643Y-3673214D01*
X-1864643Y-3973214D01*
X-1593214Y-3973214D02*
X-1593214Y-3816071D01*
X-1607500Y-3787500D01*
X-1636071Y-3773214D01*
X-1693214Y-3773214D01*
X-1721786Y-3787500D01*
X-1593214Y-3958929D02*
X-1621786Y-3973214D01*
X-1693214Y-3973214D01*
X-1721786Y-3958929D01*
X-1736071Y-3930357D01*
X-1736071Y-3901786D01*
X-1721786Y-3873214D01*
X-1693214Y-3858929D01*
X-1621786Y-3858929D01*
X-1593214Y-3844643D01*
X-1450357Y-3773214D02*
X-1450357Y-4073214D01*
X-1450357Y-3787500D02*
X-1421786Y-3773214D01*
X-1364643Y-3773214D01*
X-1336072Y-3787500D01*
X-1321786Y-3801786D01*
X-1307500Y-3830357D01*
X-1307500Y-3916071D01*
X-1321786Y-3944643D01*
X-1336072Y-3958929D01*
X-1364643Y-3973214D01*
X-1421786Y-3973214D01*
X-1450357Y-3958929D01*
X-1178929Y-3944643D02*
X-1164643Y-3958929D01*
X-1178929Y-3973214D01*
X-1193214Y-3958929D01*
X-1178929Y-3944643D01*
X-1178929Y-3973214D01*
X-1178929Y-3787500D02*
X-1164643Y-3801786D01*
X-1178929Y-3816071D01*
X-1193214Y-3801786D01*
X-1178929Y-3787500D01*
X-1178929Y-3816071D01*
X-3547500Y-4447500D02*
X-3507500Y-4487500D01*
X-3507500Y-4447500D02*
X-3547500Y-4487500D01*
X-3178929Y-4303214D02*
X-3150357Y-4303214D01*
X-3121786Y-4317500D01*
X-3107500Y-4331786D01*
X-3093214Y-4360357D01*
X-3078929Y-4417500D01*
X-3078929Y-4488929D01*
X-3093214Y-4546072D01*
X-3107500Y-4574643D01*
X-3121786Y-4588929D01*
X-3150357Y-4603214D01*
X-3178929Y-4603214D01*
X-3207500Y-4588929D01*
X-3221786Y-4574643D01*
X-3236071Y-4546072D01*
X-3250357Y-4488929D01*
X-3250357Y-4417500D01*
X-3236071Y-4360357D01*
X-3221786Y-4331786D01*
X-3207500Y-4317500D01*
X-3178929Y-4303214D01*
X-2950357Y-4574643D02*
X-2936071Y-4588929D01*
X-2950357Y-4603214D01*
X-2964643Y-4588929D01*
X-2950357Y-4574643D01*
X-2950357Y-4603214D01*
X-2678929Y-4403214D02*
X-2678929Y-4603214D01*
X-2750357Y-4288929D02*
X-2821786Y-4503214D01*
X-2636072Y-4503214D01*
X-2464643Y-4303214D02*
X-2436072Y-4303214D01*
X-2407500Y-4317500D01*
X-2393214Y-4331786D01*
X-2378929Y-4360357D01*
X-2364643Y-4417500D01*
X-2364643Y-4488929D01*
X-2378929Y-4546072D01*
X-2393214Y-4574643D01*
X-2407500Y-4588929D01*
X-2436072Y-4603214D01*
X-2464643Y-4603214D01*
X-2493214Y-4588929D01*
X-2507500Y-4574643D01*
X-2521786Y-4546072D01*
X-2536072Y-4488929D01*
X-2536072Y-4417500D01*
X-2521786Y-4360357D01*
X-2507500Y-4331786D01*
X-2493214Y-4317500D01*
X-2464643Y-4303214D01*
X-2236072Y-4603214D02*
X-2236072Y-4403214D01*
X-2236072Y-4431786D02*
X-2221786Y-4417500D01*
X-2193214Y-4403214D01*
X-2150357Y-4403214D01*
X-2121786Y-4417500D01*
X-2107500Y-4446072D01*
X-2107500Y-4603214D01*
X-2107500Y-4446072D02*
X-2093214Y-4417500D01*
X-2064643Y-4403214D01*
X-2021786Y-4403214D01*
X-1993214Y-4417500D01*
X-1978929Y-4446072D01*
X-1978929Y-4603214D01*
X-1836071Y-4603214D02*
X-1836071Y-4403214D01*
X-1836071Y-4431786D02*
X-1821786Y-4417500D01*
X-1793214Y-4403214D01*
X-1750357Y-4403214D01*
X-1721786Y-4417500D01*
X-1707500Y-4446072D01*
X-1707500Y-4603214D01*
X-1707500Y-4446072D02*
X-1693214Y-4417500D01*
X-1664643Y-4403214D01*
X-1621786Y-4403214D01*
X-1593214Y-4417500D01*
X-1578929Y-4446072D01*
X-1578929Y-4603214D01*
X-993214Y-4288929D02*
X-1250357Y-4674643D01*
X-607500Y-4303214D02*
X-578929Y-4303214D01*
X-550357Y-4317500D01*
X-536072Y-4331786D01*
X-521786Y-4360357D01*
X-507500Y-4417500D01*
X-507500Y-4488929D01*
X-521786Y-4546072D01*
X-536072Y-4574643D01*
X-550357Y-4588929D01*
X-578929Y-4603214D01*
X-607500Y-4603214D01*
X-636072Y-4588929D01*
X-650357Y-4574643D01*
X-664643Y-4546072D01*
X-678929Y-4488929D01*
X-678929Y-4417500D01*
X-664643Y-4360357D01*
X-650357Y-4331786D01*
X-636072Y-4317500D01*
X-607500Y-4303214D01*
X-378929Y-4574643D02*
X-364643Y-4588929D01*
X-378929Y-4603214D01*
X-393214Y-4588929D01*
X-378929Y-4574643D01*
X-378929Y-4603214D01*
X-178929Y-4303214D02*
X-150357Y-4303214D01*
X-121786Y-4317500D01*
X-107500Y-4331786D01*
X-93214Y-4360357D01*
X-78929Y-4417500D01*
X-78929Y-4488929D01*
X-93214Y-4546072D01*
X-107500Y-4574643D01*
X-121786Y-4588929D01*
X-150357Y-4603214D01*
X-178929Y-4603214D01*
X-207500Y-4588929D01*
X-221786Y-4574643D01*
X-236072Y-4546072D01*
X-250357Y-4488929D01*
X-250357Y-4417500D01*
X-236072Y-4360357D01*
X-221786Y-4331786D01*
X-207500Y-4317500D01*
X-178929Y-4303214D01*
X206785Y-4603214D02*
X35357Y-4603214D01*
X121071Y-4603214D02*
X121071Y-4303214D01*
X92500Y-4346072D01*
X63928Y-4374643D01*
X35357Y-4388929D01*
X463928Y-4303214D02*
X406785Y-4303214D01*
X378214Y-4317500D01*
X363928Y-4331786D01*
X335357Y-4374643D01*
X321071Y-4431786D01*
X321071Y-4546072D01*
X335357Y-4574643D01*
X349643Y-4588929D01*
X378214Y-4603214D01*
X435357Y-4603214D01*
X463928Y-4588929D01*
X478214Y-4574643D01*
X492500Y-4546072D01*
X492500Y-4474643D01*
X478214Y-4446072D01*
X463928Y-4431786D01*
X435357Y-4417500D01*
X378214Y-4417500D01*
X349643Y-4431786D01*
X335357Y-4446072D01*
X321071Y-4474643D01*
X606786Y-4303214D02*
X606786Y-4360357D01*
X721071Y-4303214D02*
X721071Y-4360357D01*
X1163928Y-4717500D02*
X1149643Y-4703214D01*
X1121071Y-4660357D01*
X1106786Y-4631786D01*
X1092500Y-4588929D01*
X1078214Y-4517500D01*
X1078214Y-4460357D01*
X1092500Y-4388929D01*
X1106786Y-4346072D01*
X1121071Y-4317500D01*
X1149643Y-4274643D01*
X1163928Y-4260357D01*
X1435357Y-4603214D02*
X1263928Y-4603214D01*
X1349643Y-4603214D02*
X1349643Y-4303214D01*
X1321071Y-4346072D01*
X1292500Y-4374643D01*
X1263928Y-4388929D01*
X1721071Y-4603214D02*
X1549643Y-4603214D01*
X1635357Y-4603214D02*
X1635357Y-4303214D01*
X1606785Y-4346072D01*
X1578214Y-4374643D01*
X1549643Y-4388929D01*
X1821071Y-4303214D02*
X2021071Y-4303214D01*
X1892500Y-4603214D01*
X2363928Y-4603214D02*
X2363928Y-4303214D01*
X2492500Y-4603214D02*
X2492500Y-4446072D01*
X2478214Y-4417500D01*
X2449643Y-4403214D01*
X2406786Y-4403214D01*
X2378214Y-4417500D01*
X2363928Y-4431786D01*
X2678214Y-4603214D02*
X2649643Y-4588929D01*
X2635357Y-4574643D01*
X2621071Y-4546072D01*
X2621071Y-4460357D01*
X2635357Y-4431786D01*
X2649643Y-4417500D01*
X2678214Y-4403214D01*
X2721071Y-4403214D01*
X2749643Y-4417500D01*
X2763928Y-4431786D01*
X2778214Y-4460357D01*
X2778214Y-4546072D01*
X2763928Y-4574643D01*
X2749643Y-4588929D01*
X2721071Y-4603214D01*
X2678214Y-4603214D01*
X2949643Y-4603214D02*
X2921071Y-4588929D01*
X2906786Y-4560357D01*
X2906786Y-4303214D01*
X3178214Y-4588929D02*
X3149643Y-4603214D01*
X3092500Y-4603214D01*
X3063928Y-4588929D01*
X3049643Y-4560357D01*
X3049643Y-4446072D01*
X3063928Y-4417500D01*
X3092500Y-4403214D01*
X3149643Y-4403214D01*
X3178214Y-4417500D01*
X3192500Y-4446072D01*
X3192500Y-4474643D01*
X3049643Y-4503214D01*
X3306786Y-4588929D02*
X3335357Y-4603214D01*
X3392500Y-4603214D01*
X3421071Y-4588929D01*
X3435357Y-4560357D01*
X3435357Y-4546072D01*
X3421071Y-4517500D01*
X3392500Y-4503214D01*
X3349643Y-4503214D01*
X3321071Y-4488929D01*
X3306786Y-4460357D01*
X3306786Y-4446072D01*
X3321071Y-4417500D01*
X3349643Y-4403214D01*
X3392500Y-4403214D01*
X3421071Y-4417500D01*
X3535357Y-4717500D02*
X3549643Y-4703214D01*
X3578214Y-4660357D01*
X3592500Y-4631786D01*
X3606786Y-4588929D01*
X3621071Y-4517500D01*
X3621071Y-4460357D01*
X3606786Y-4388929D01*
X3592500Y-4346072D01*
X3578214Y-4317500D01*
X3549643Y-4274643D01*
X3535357Y-4260357D01*
X-3507500Y-4863500D02*
G75*
G03X-3507500Y-4863500I-25000J0D01*
G01*
X-3178929Y-4699214D02*
X-3150357Y-4699214D01*
X-3121786Y-4713500D01*
X-3107500Y-4727786D01*
X-3093214Y-4756357D01*
X-3078929Y-4813500D01*
X-3078929Y-4884929D01*
X-3093214Y-4942072D01*
X-3107500Y-4970643D01*
X-3121786Y-4984929D01*
X-3150357Y-4999214D01*
X-3178929Y-4999214D01*
X-3207500Y-4984929D01*
X-3221786Y-4970643D01*
X-3236071Y-4942072D01*
X-3250357Y-4884929D01*
X-3250357Y-4813500D01*
X-3236071Y-4756357D01*
X-3221786Y-4727786D01*
X-3207500Y-4713500D01*
X-3178929Y-4699214D01*
X-2950357Y-4970643D02*
X-2936071Y-4984929D01*
X-2950357Y-4999214D01*
X-2964643Y-4984929D01*
X-2950357Y-4970643D01*
X-2950357Y-4999214D01*
X-2664643Y-4699214D02*
X-2807500Y-4699214D01*
X-2821786Y-4842072D01*
X-2807500Y-4827786D01*
X-2778929Y-4813500D01*
X-2707500Y-4813500D01*
X-2678929Y-4827786D01*
X-2664643Y-4842072D01*
X-2650357Y-4870643D01*
X-2650357Y-4942072D01*
X-2664643Y-4970643D01*
X-2678929Y-4984929D01*
X-2707500Y-4999214D01*
X-2778929Y-4999214D01*
X-2807500Y-4984929D01*
X-2821786Y-4970643D01*
X-2464643Y-4699214D02*
X-2436072Y-4699214D01*
X-2407500Y-4713500D01*
X-2393214Y-4727786D01*
X-2378929Y-4756357D01*
X-2364643Y-4813500D01*
X-2364643Y-4884929D01*
X-2378929Y-4942072D01*
X-2393214Y-4970643D01*
X-2407500Y-4984929D01*
X-2436072Y-4999214D01*
X-2464643Y-4999214D01*
X-2493214Y-4984929D01*
X-2507500Y-4970643D01*
X-2521786Y-4942072D01*
X-2536072Y-4884929D01*
X-2536072Y-4813500D01*
X-2521786Y-4756357D01*
X-2507500Y-4727786D01*
X-2493214Y-4713500D01*
X-2464643Y-4699214D01*
X-2236072Y-4999214D02*
X-2236072Y-4799214D01*
X-2236072Y-4827786D02*
X-2221786Y-4813500D01*
X-2193214Y-4799214D01*
X-2150357Y-4799214D01*
X-2121786Y-4813500D01*
X-2107500Y-4842072D01*
X-2107500Y-4999214D01*
X-2107500Y-4842072D02*
X-2093214Y-4813500D01*
X-2064643Y-4799214D01*
X-2021786Y-4799214D01*
X-1993214Y-4813500D01*
X-1978929Y-4842072D01*
X-1978929Y-4999214D01*
X-1836071Y-4999214D02*
X-1836071Y-4799214D01*
X-1836071Y-4827786D02*
X-1821786Y-4813500D01*
X-1793214Y-4799214D01*
X-1750357Y-4799214D01*
X-1721786Y-4813500D01*
X-1707500Y-4842072D01*
X-1707500Y-4999214D01*
X-1707500Y-4842072D02*
X-1693214Y-4813500D01*
X-1664643Y-4799214D01*
X-1621786Y-4799214D01*
X-1593214Y-4813500D01*
X-1578929Y-4842072D01*
X-1578929Y-4999214D01*
X-993214Y-4684929D02*
X-1250357Y-5070643D01*
X-607500Y-4699214D02*
X-578929Y-4699214D01*
X-550357Y-4713500D01*
X-536072Y-4727786D01*
X-521786Y-4756357D01*
X-507500Y-4813500D01*
X-507500Y-4884929D01*
X-521786Y-4942072D01*
X-536072Y-4970643D01*
X-550357Y-4984929D01*
X-578929Y-4999214D01*
X-607500Y-4999214D01*
X-636072Y-4984929D01*
X-650357Y-4970643D01*
X-664643Y-4942072D01*
X-678929Y-4884929D01*
X-678929Y-4813500D01*
X-664643Y-4756357D01*
X-650357Y-4727786D01*
X-636072Y-4713500D01*
X-607500Y-4699214D01*
X-378929Y-4970643D02*
X-364643Y-4984929D01*
X-378929Y-4999214D01*
X-393214Y-4984929D01*
X-378929Y-4970643D01*
X-378929Y-4999214D01*
X-178929Y-4699214D02*
X-150357Y-4699214D01*
X-121786Y-4713500D01*
X-107500Y-4727786D01*
X-93214Y-4756357D01*
X-78929Y-4813500D01*
X-78929Y-4884929D01*
X-93214Y-4942072D01*
X-107500Y-4970643D01*
X-121786Y-4984929D01*
X-150357Y-4999214D01*
X-178929Y-4999214D01*
X-207500Y-4984929D01*
X-221786Y-4970643D01*
X-236072Y-4942072D01*
X-250357Y-4884929D01*
X-250357Y-4813500D01*
X-236072Y-4756357D01*
X-221786Y-4727786D01*
X-207500Y-4713500D01*
X-178929Y-4699214D01*
X35357Y-4727786D02*
X49643Y-4713500D01*
X78214Y-4699214D01*
X149643Y-4699214D01*
X178214Y-4713500D01*
X192500Y-4727786D01*
X206785Y-4756357D01*
X206785Y-4784929D01*
X192500Y-4827786D01*
X21071Y-4999214D01*
X206785Y-4999214D01*
X392500Y-4699214D02*
X421071Y-4699214D01*
X449643Y-4713500D01*
X463928Y-4727786D01*
X478214Y-4756357D01*
X492500Y-4813500D01*
X492500Y-4884929D01*
X478214Y-4942072D01*
X463928Y-4970643D01*
X449643Y-4984929D01*
X421071Y-4999214D01*
X392500Y-4999214D01*
X363928Y-4984929D01*
X349643Y-4970643D01*
X335357Y-4942072D01*
X321071Y-4884929D01*
X321071Y-4813500D01*
X335357Y-4756357D01*
X349643Y-4727786D01*
X363928Y-4713500D01*
X392500Y-4699214D01*
X606786Y-4699214D02*
X606786Y-4756357D01*
X721071Y-4699214D02*
X721071Y-4756357D01*
X1163928Y-5113500D02*
X1149643Y-5099214D01*
X1121071Y-5056357D01*
X1106786Y-5027786D01*
X1092500Y-4984929D01*
X1078214Y-4913500D01*
X1078214Y-4856357D01*
X1092500Y-4784929D01*
X1106786Y-4742072D01*
X1121071Y-4713500D01*
X1149643Y-4670643D01*
X1163928Y-4656357D01*
X1335357Y-4699214D02*
X1363928Y-4699214D01*
X1392500Y-4713500D01*
X1406785Y-4727786D01*
X1421071Y-4756357D01*
X1435357Y-4813500D01*
X1435357Y-4884929D01*
X1421071Y-4942072D01*
X1406785Y-4970643D01*
X1392500Y-4984929D01*
X1363928Y-4999214D01*
X1335357Y-4999214D01*
X1306786Y-4984929D01*
X1292500Y-4970643D01*
X1278214Y-4942072D01*
X1263928Y-4884929D01*
X1263928Y-4813500D01*
X1278214Y-4756357D01*
X1292500Y-4727786D01*
X1306786Y-4713500D01*
X1335357Y-4699214D01*
X1792500Y-4999214D02*
X1792500Y-4699214D01*
X1921071Y-4999214D02*
X1921071Y-4842072D01*
X1906785Y-4813500D01*
X1878214Y-4799214D01*
X1835357Y-4799214D01*
X1806785Y-4813500D01*
X1792500Y-4827786D01*
X2106786Y-4999214D02*
X2078214Y-4984929D01*
X2063928Y-4970643D01*
X2049643Y-4942072D01*
X2049643Y-4856357D01*
X2063928Y-4827786D01*
X2078214Y-4813500D01*
X2106786Y-4799214D01*
X2149643Y-4799214D01*
X2178214Y-4813500D01*
X2192500Y-4827786D01*
X2206786Y-4856357D01*
X2206786Y-4942072D01*
X2192500Y-4970643D01*
X2178214Y-4984929D01*
X2149643Y-4999214D01*
X2106786Y-4999214D01*
X2378214Y-4999214D02*
X2349643Y-4984929D01*
X2335357Y-4956357D01*
X2335357Y-4699214D01*
X2606786Y-4984929D02*
X2578214Y-4999214D01*
X2521071Y-4999214D01*
X2492500Y-4984929D01*
X2478214Y-4956357D01*
X2478214Y-4842072D01*
X2492500Y-4813500D01*
X2521071Y-4799214D01*
X2578214Y-4799214D01*
X2606786Y-4813500D01*
X2621071Y-4842072D01*
X2621071Y-4870643D01*
X2478214Y-4899214D01*
X2735357Y-4984929D02*
X2763929Y-4999214D01*
X2821071Y-4999214D01*
X2849643Y-4984929D01*
X2863928Y-4956357D01*
X2863928Y-4942072D01*
X2849643Y-4913500D01*
X2821071Y-4899214D01*
X2778214Y-4899214D01*
X2749643Y-4884929D01*
X2735357Y-4856357D01*
X2735357Y-4842072D01*
X2749643Y-4813500D01*
X2778214Y-4799214D01*
X2821071Y-4799214D01*
X2849643Y-4813500D01*
X3221071Y-4884929D02*
X3449643Y-4884929D01*
X3335357Y-4999214D02*
X3335357Y-4770643D01*
X3806786Y-4727786D02*
X3821071Y-4713500D01*
X3849643Y-4699214D01*
X3921071Y-4699214D01*
X3949643Y-4713500D01*
X3963928Y-4727786D01*
X3978214Y-4756357D01*
X3978214Y-4784929D01*
X3963928Y-4827786D01*
X3792500Y-4999214D01*
X3978214Y-4999214D01*
X4321071Y-4984929D02*
X4349643Y-4999214D01*
X4406786Y-4999214D01*
X4435357Y-4984929D01*
X4449643Y-4956357D01*
X4449643Y-4942072D01*
X4435357Y-4913500D01*
X4406786Y-4899214D01*
X4363928Y-4899214D01*
X4335357Y-4884929D01*
X4321071Y-4856357D01*
X4321071Y-4842072D01*
X4335357Y-4813500D01*
X4363928Y-4799214D01*
X4406786Y-4799214D01*
X4435357Y-4813500D01*
X4621071Y-4999214D02*
X4592500Y-4984929D01*
X4578214Y-4956357D01*
X4578214Y-4699214D01*
X4778214Y-4999214D02*
X4749643Y-4984929D01*
X4735357Y-4970643D01*
X4721071Y-4942072D01*
X4721071Y-4856357D01*
X4735357Y-4827786D01*
X4749643Y-4813500D01*
X4778214Y-4799214D01*
X4821071Y-4799214D01*
X4849643Y-4813500D01*
X4863928Y-4827786D01*
X4878214Y-4856357D01*
X4878214Y-4942072D01*
X4863928Y-4970643D01*
X4849643Y-4984929D01*
X4821071Y-4999214D01*
X4778214Y-4999214D01*
X4963928Y-4799214D02*
X5078214Y-4799214D01*
X5006786Y-4699214D02*
X5006786Y-4956357D01*
X5021071Y-4984929D01*
X5049643Y-4999214D01*
X5078214Y-4999214D01*
X5163929Y-4984929D02*
X5192500Y-4999214D01*
X5249643Y-4999214D01*
X5278214Y-4984929D01*
X5292500Y-4956357D01*
X5292500Y-4942072D01*
X5278214Y-4913500D01*
X5249643Y-4899214D01*
X5206786Y-4899214D01*
X5178214Y-4884929D01*
X5163929Y-4856357D01*
X5163929Y-4842072D01*
X5178214Y-4813500D01*
X5206786Y-4799214D01*
X5249643Y-4799214D01*
X5278214Y-4813500D01*
X5392500Y-5113500D02*
X5406786Y-5099214D01*
X5435357Y-5056357D01*
X5449643Y-5027786D01*
X5463928Y-4984929D01*
X5478214Y-4913500D01*
X5478214Y-4856357D01*
X5463928Y-4784929D01*
X5449643Y-4742072D01*
X5435357Y-4713500D01*
X5406786Y-4670643D01*
X5392500Y-4656357D01*
X-3535000Y-5232000D02*
X-3535000Y-5287000D01*
X-3562500Y-5259500D02*
X-3507500Y-5259500D01*
X-3178929Y-5095214D02*
X-3150357Y-5095214D01*
X-3121786Y-5109500D01*
X-3107500Y-5123786D01*
X-3093214Y-5152357D01*
X-3078929Y-5209500D01*
X-3078929Y-5280929D01*
X-3093214Y-5338072D01*
X-3107500Y-5366643D01*
X-3121786Y-5380929D01*
X-3150357Y-5395214D01*
X-3178929Y-5395214D01*
X-3207500Y-5380929D01*
X-3221786Y-5366643D01*
X-3236071Y-5338072D01*
X-3250357Y-5280929D01*
X-3250357Y-5209500D01*
X-3236071Y-5152357D01*
X-3221786Y-5123786D01*
X-3207500Y-5109500D01*
X-3178929Y-5095214D01*
X-2950357Y-5366643D02*
X-2936071Y-5380929D01*
X-2950357Y-5395214D01*
X-2964643Y-5380929D01*
X-2950357Y-5366643D01*
X-2950357Y-5395214D01*
X-2664643Y-5095214D02*
X-2807500Y-5095214D01*
X-2821786Y-5238072D01*
X-2807500Y-5223786D01*
X-2778929Y-5209500D01*
X-2707500Y-5209500D01*
X-2678929Y-5223786D01*
X-2664643Y-5238072D01*
X-2650357Y-5266643D01*
X-2650357Y-5338072D01*
X-2664643Y-5366643D01*
X-2678929Y-5380929D01*
X-2707500Y-5395214D01*
X-2778929Y-5395214D01*
X-2807500Y-5380929D01*
X-2821786Y-5366643D01*
X-2378929Y-5095214D02*
X-2521786Y-5095214D01*
X-2536072Y-5238072D01*
X-2521786Y-5223786D01*
X-2493214Y-5209500D01*
X-2421786Y-5209500D01*
X-2393214Y-5223786D01*
X-2378929Y-5238072D01*
X-2364643Y-5266643D01*
X-2364643Y-5338072D01*
X-2378929Y-5366643D01*
X-2393214Y-5380929D01*
X-2421786Y-5395214D01*
X-2493214Y-5395214D01*
X-2521786Y-5380929D01*
X-2536072Y-5366643D01*
X-2236072Y-5395214D02*
X-2236072Y-5195214D01*
X-2236072Y-5223786D02*
X-2221786Y-5209500D01*
X-2193214Y-5195214D01*
X-2150357Y-5195214D01*
X-2121786Y-5209500D01*
X-2107500Y-5238072D01*
X-2107500Y-5395214D01*
X-2107500Y-5238072D02*
X-2093214Y-5209500D01*
X-2064643Y-5195214D01*
X-2021786Y-5195214D01*
X-1993214Y-5209500D01*
X-1978929Y-5238072D01*
X-1978929Y-5395214D01*
X-1836071Y-5395214D02*
X-1836071Y-5195214D01*
X-1836071Y-5223786D02*
X-1821786Y-5209500D01*
X-1793214Y-5195214D01*
X-1750357Y-5195214D01*
X-1721786Y-5209500D01*
X-1707500Y-5238072D01*
X-1707500Y-5395214D01*
X-1707500Y-5238072D02*
X-1693214Y-5209500D01*
X-1664643Y-5195214D01*
X-1621786Y-5195214D01*
X-1593214Y-5209500D01*
X-1578929Y-5238072D01*
X-1578929Y-5395214D01*
X-993214Y-5080929D02*
X-1250357Y-5466643D01*
X-607500Y-5095214D02*
X-578929Y-5095214D01*
X-550357Y-5109500D01*
X-536072Y-5123786D01*
X-521786Y-5152357D01*
X-507500Y-5209500D01*
X-507500Y-5280929D01*
X-521786Y-5338072D01*
X-536072Y-5366643D01*
X-550357Y-5380929D01*
X-578929Y-5395214D01*
X-607500Y-5395214D01*
X-636072Y-5380929D01*
X-650357Y-5366643D01*
X-664643Y-5338072D01*
X-678929Y-5280929D01*
X-678929Y-5209500D01*
X-664643Y-5152357D01*
X-650357Y-5123786D01*
X-636072Y-5109500D01*
X-607500Y-5095214D01*
X-378929Y-5366643D02*
X-364643Y-5380929D01*
X-378929Y-5395214D01*
X-393214Y-5380929D01*
X-378929Y-5366643D01*
X-378929Y-5395214D01*
X-178929Y-5095214D02*
X-150357Y-5095214D01*
X-121786Y-5109500D01*
X-107500Y-5123786D01*
X-93214Y-5152357D01*
X-78929Y-5209500D01*
X-78929Y-5280929D01*
X-93214Y-5338072D01*
X-107500Y-5366643D01*
X-121786Y-5380929D01*
X-150357Y-5395214D01*
X-178929Y-5395214D01*
X-207500Y-5380929D01*
X-221786Y-5366643D01*
X-236072Y-5338072D01*
X-250357Y-5280929D01*
X-250357Y-5209500D01*
X-236072Y-5152357D01*
X-221786Y-5123786D01*
X-207500Y-5109500D01*
X-178929Y-5095214D01*
X35357Y-5123786D02*
X49643Y-5109500D01*
X78214Y-5095214D01*
X149643Y-5095214D01*
X178214Y-5109500D01*
X192500Y-5123786D01*
X206785Y-5152357D01*
X206785Y-5180929D01*
X192500Y-5223786D01*
X21071Y-5395214D01*
X206785Y-5395214D01*
X321071Y-5123786D02*
X335357Y-5109500D01*
X363928Y-5095214D01*
X435357Y-5095214D01*
X463928Y-5109500D01*
X478214Y-5123786D01*
X492500Y-5152357D01*
X492500Y-5180929D01*
X478214Y-5223786D01*
X306786Y-5395214D01*
X492500Y-5395214D01*
X606786Y-5095214D02*
X606786Y-5152357D01*
X721071Y-5095214D02*
X721071Y-5152357D01*
X1163928Y-5509500D02*
X1149643Y-5495214D01*
X1121071Y-5452357D01*
X1106786Y-5423786D01*
X1092500Y-5380929D01*
X1078214Y-5309500D01*
X1078214Y-5252357D01*
X1092500Y-5180929D01*
X1106786Y-5138072D01*
X1121071Y-5109500D01*
X1149643Y-5066643D01*
X1163928Y-5052357D01*
X1335357Y-5095214D02*
X1363928Y-5095214D01*
X1392500Y-5109500D01*
X1406785Y-5123786D01*
X1421071Y-5152357D01*
X1435357Y-5209500D01*
X1435357Y-5280929D01*
X1421071Y-5338072D01*
X1406785Y-5366643D01*
X1392500Y-5380929D01*
X1363928Y-5395214D01*
X1335357Y-5395214D01*
X1306786Y-5380929D01*
X1292500Y-5366643D01*
X1278214Y-5338072D01*
X1263928Y-5280929D01*
X1263928Y-5209500D01*
X1278214Y-5152357D01*
X1292500Y-5123786D01*
X1306786Y-5109500D01*
X1335357Y-5095214D01*
X1792500Y-5395214D02*
X1792500Y-5095214D01*
X1921071Y-5395214D02*
X1921071Y-5238072D01*
X1906785Y-5209500D01*
X1878214Y-5195214D01*
X1835357Y-5195214D01*
X1806785Y-5209500D01*
X1792500Y-5223786D01*
X2106786Y-5395214D02*
X2078214Y-5380929D01*
X2063928Y-5366643D01*
X2049643Y-5338072D01*
X2049643Y-5252357D01*
X2063928Y-5223786D01*
X2078214Y-5209500D01*
X2106786Y-5195214D01*
X2149643Y-5195214D01*
X2178214Y-5209500D01*
X2192500Y-5223786D01*
X2206786Y-5252357D01*
X2206786Y-5338072D01*
X2192500Y-5366643D01*
X2178214Y-5380929D01*
X2149643Y-5395214D01*
X2106786Y-5395214D01*
X2378214Y-5395214D02*
X2349643Y-5380929D01*
X2335357Y-5352357D01*
X2335357Y-5095214D01*
X2606786Y-5380929D02*
X2578214Y-5395214D01*
X2521071Y-5395214D01*
X2492500Y-5380929D01*
X2478214Y-5352357D01*
X2478214Y-5238072D01*
X2492500Y-5209500D01*
X2521071Y-5195214D01*
X2578214Y-5195214D01*
X2606786Y-5209500D01*
X2621071Y-5238072D01*
X2621071Y-5266643D01*
X2478214Y-5295214D01*
X2735357Y-5380929D02*
X2763929Y-5395214D01*
X2821071Y-5395214D01*
X2849643Y-5380929D01*
X2863928Y-5352357D01*
X2863928Y-5338072D01*
X2849643Y-5309500D01*
X2821071Y-5295214D01*
X2778214Y-5295214D01*
X2749643Y-5280929D01*
X2735357Y-5252357D01*
X2735357Y-5238072D01*
X2749643Y-5209500D01*
X2778214Y-5195214D01*
X2821071Y-5195214D01*
X2849643Y-5209500D01*
X3221071Y-5280929D02*
X3449643Y-5280929D01*
X3335357Y-5395214D02*
X3335357Y-5166643D01*
X3806786Y-5123786D02*
X3821071Y-5109500D01*
X3849643Y-5095214D01*
X3921071Y-5095214D01*
X3949643Y-5109500D01*
X3963928Y-5123786D01*
X3978214Y-5152357D01*
X3978214Y-5180929D01*
X3963928Y-5223786D01*
X3792500Y-5395214D01*
X3978214Y-5395214D01*
X4321071Y-5380929D02*
X4349643Y-5395214D01*
X4406786Y-5395214D01*
X4435357Y-5380929D01*
X4449643Y-5352357D01*
X4449643Y-5338072D01*
X4435357Y-5309500D01*
X4406786Y-5295214D01*
X4363928Y-5295214D01*
X4335357Y-5280929D01*
X4321071Y-5252357D01*
X4321071Y-5238072D01*
X4335357Y-5209500D01*
X4363928Y-5195214D01*
X4406786Y-5195214D01*
X4435357Y-5209500D01*
X4621071Y-5395214D02*
X4592500Y-5380929D01*
X4578214Y-5352357D01*
X4578214Y-5095214D01*
X4778214Y-5395214D02*
X4749643Y-5380929D01*
X4735357Y-5366643D01*
X4721071Y-5338072D01*
X4721071Y-5252357D01*
X4735357Y-5223786D01*
X4749643Y-5209500D01*
X4778214Y-5195214D01*
X4821071Y-5195214D01*
X4849643Y-5209500D01*
X4863928Y-5223786D01*
X4878214Y-5252357D01*
X4878214Y-5338072D01*
X4863928Y-5366643D01*
X4849643Y-5380929D01*
X4821071Y-5395214D01*
X4778214Y-5395214D01*
X4963928Y-5195214D02*
X5078214Y-5195214D01*
X5006786Y-5095214D02*
X5006786Y-5352357D01*
X5021071Y-5380929D01*
X5049643Y-5395214D01*
X5078214Y-5395214D01*
X5163929Y-5380929D02*
X5192500Y-5395214D01*
X5249643Y-5395214D01*
X5278214Y-5380929D01*
X5292500Y-5352357D01*
X5292500Y-5338072D01*
X5278214Y-5309500D01*
X5249643Y-5295214D01*
X5206786Y-5295214D01*
X5178214Y-5280929D01*
X5163929Y-5252357D01*
X5163929Y-5238072D01*
X5178214Y-5209500D01*
X5206786Y-5195214D01*
X5249643Y-5195214D01*
X5278214Y-5209500D01*
X5392500Y-5509500D02*
X5406786Y-5495214D01*
X5435357Y-5452357D01*
X5449643Y-5423786D01*
X5463928Y-5380929D01*
X5478214Y-5309500D01*
X5478214Y-5252357D01*
X5463928Y-5180929D01*
X5449643Y-5138072D01*
X5435357Y-5109500D01*
X5406786Y-5066643D01*
X5392500Y-5052357D01*
X-3519216Y-5683785D02*
X-3519216Y-5627216D01*
X-3575785Y-5627216D01*
X-3575785Y-5683785D01*
X-3519216Y-5683785D01*
X-3178929Y-5491214D02*
X-3150357Y-5491214D01*
X-3121786Y-5505500D01*
X-3107500Y-5519786D01*
X-3093214Y-5548357D01*
X-3078929Y-5605500D01*
X-3078929Y-5676929D01*
X-3093214Y-5734071D01*
X-3107500Y-5762643D01*
X-3121786Y-5776929D01*
X-3150357Y-5791214D01*
X-3178929Y-5791214D01*
X-3207500Y-5776929D01*
X-3221786Y-5762643D01*
X-3236071Y-5734071D01*
X-3250357Y-5676929D01*
X-3250357Y-5605500D01*
X-3236071Y-5548357D01*
X-3221786Y-5519786D01*
X-3207500Y-5505500D01*
X-3178929Y-5491214D01*
X-2950357Y-5762643D02*
X-2936071Y-5776929D01*
X-2950357Y-5791214D01*
X-2964643Y-5776929D01*
X-2950357Y-5762643D01*
X-2950357Y-5791214D01*
X-2764643Y-5619786D02*
X-2793214Y-5605500D01*
X-2807500Y-5591214D01*
X-2821786Y-5562643D01*
X-2821786Y-5548357D01*
X-2807500Y-5519786D01*
X-2793214Y-5505500D01*
X-2764643Y-5491214D01*
X-2707500Y-5491214D01*
X-2678929Y-5505500D01*
X-2664643Y-5519786D01*
X-2650357Y-5548357D01*
X-2650357Y-5562643D01*
X-2664643Y-5591214D01*
X-2678929Y-5605500D01*
X-2707500Y-5619786D01*
X-2764643Y-5619786D01*
X-2793214Y-5634071D01*
X-2807500Y-5648357D01*
X-2821786Y-5676929D01*
X-2821786Y-5734071D01*
X-2807500Y-5762643D01*
X-2793214Y-5776929D01*
X-2764643Y-5791214D01*
X-2707500Y-5791214D01*
X-2678929Y-5776929D01*
X-2664643Y-5762643D01*
X-2650357Y-5734071D01*
X-2650357Y-5676929D01*
X-2664643Y-5648357D01*
X-2678929Y-5634071D01*
X-2707500Y-5619786D01*
X-2464643Y-5491214D02*
X-2436072Y-5491214D01*
X-2407500Y-5505500D01*
X-2393214Y-5519786D01*
X-2378929Y-5548357D01*
X-2364643Y-5605500D01*
X-2364643Y-5676929D01*
X-2378929Y-5734071D01*
X-2393214Y-5762643D01*
X-2407500Y-5776929D01*
X-2436072Y-5791214D01*
X-2464643Y-5791214D01*
X-2493214Y-5776929D01*
X-2507500Y-5762643D01*
X-2521786Y-5734071D01*
X-2536072Y-5676929D01*
X-2536072Y-5605500D01*
X-2521786Y-5548357D01*
X-2507500Y-5519786D01*
X-2493214Y-5505500D01*
X-2464643Y-5491214D01*
X-2236072Y-5791214D02*
X-2236072Y-5591214D01*
X-2236072Y-5619786D02*
X-2221786Y-5605500D01*
X-2193214Y-5591214D01*
X-2150357Y-5591214D01*
X-2121786Y-5605500D01*
X-2107500Y-5634071D01*
X-2107500Y-5791214D01*
X-2107500Y-5634071D02*
X-2093214Y-5605500D01*
X-2064643Y-5591214D01*
X-2021786Y-5591214D01*
X-1993214Y-5605500D01*
X-1978929Y-5634071D01*
X-1978929Y-5791214D01*
X-1836071Y-5791214D02*
X-1836071Y-5591214D01*
X-1836071Y-5619786D02*
X-1821786Y-5605500D01*
X-1793214Y-5591214D01*
X-1750357Y-5591214D01*
X-1721786Y-5605500D01*
X-1707500Y-5634071D01*
X-1707500Y-5791214D01*
X-1707500Y-5634071D02*
X-1693214Y-5605500D01*
X-1664643Y-5591214D01*
X-1621786Y-5591214D01*
X-1593214Y-5605500D01*
X-1578929Y-5634071D01*
X-1578929Y-5791214D01*
X-993214Y-5476929D02*
X-1250357Y-5862643D01*
X-607500Y-5491214D02*
X-578929Y-5491214D01*
X-550357Y-5505500D01*
X-536072Y-5519786D01*
X-521786Y-5548357D01*
X-507500Y-5605500D01*
X-507500Y-5676929D01*
X-521786Y-5734071D01*
X-536072Y-5762643D01*
X-550357Y-5776929D01*
X-578929Y-5791214D01*
X-607500Y-5791214D01*
X-636072Y-5776929D01*
X-650357Y-5762643D01*
X-664643Y-5734071D01*
X-678929Y-5676929D01*
X-678929Y-5605500D01*
X-664643Y-5548357D01*
X-650357Y-5519786D01*
X-636072Y-5505500D01*
X-607500Y-5491214D01*
X-378929Y-5762643D02*
X-364643Y-5776929D01*
X-378929Y-5791214D01*
X-393214Y-5776929D01*
X-378929Y-5762643D01*
X-378929Y-5791214D01*
X-178929Y-5491214D02*
X-150357Y-5491214D01*
X-121786Y-5505500D01*
X-107500Y-5519786D01*
X-93214Y-5548357D01*
X-78929Y-5605500D01*
X-78929Y-5676929D01*
X-93214Y-5734071D01*
X-107500Y-5762643D01*
X-121786Y-5776929D01*
X-150357Y-5791214D01*
X-178929Y-5791214D01*
X-207500Y-5776929D01*
X-221786Y-5762643D01*
X-236072Y-5734071D01*
X-250357Y-5676929D01*
X-250357Y-5605500D01*
X-236072Y-5548357D01*
X-221786Y-5519786D01*
X-207500Y-5505500D01*
X-178929Y-5491214D01*
X21071Y-5491214D02*
X206785Y-5491214D01*
X106785Y-5605500D01*
X149643Y-5605500D01*
X178214Y-5619786D01*
X192500Y-5634071D01*
X206785Y-5662643D01*
X206785Y-5734071D01*
X192500Y-5762643D01*
X178214Y-5776929D01*
X149643Y-5791214D01*
X63928Y-5791214D01*
X35357Y-5776929D01*
X21071Y-5762643D01*
X492500Y-5791214D02*
X321071Y-5791214D01*
X406785Y-5791214D02*
X406785Y-5491214D01*
X378214Y-5534072D01*
X349643Y-5562643D01*
X321071Y-5576929D01*
X606786Y-5491214D02*
X606786Y-5548357D01*
X721071Y-5491214D02*
X721071Y-5548357D01*
X1163928Y-5905500D02*
X1149643Y-5891214D01*
X1121071Y-5848357D01*
X1106786Y-5819786D01*
X1092500Y-5776929D01*
X1078214Y-5705500D01*
X1078214Y-5648357D01*
X1092500Y-5576929D01*
X1106786Y-5534072D01*
X1121071Y-5505500D01*
X1149643Y-5462643D01*
X1163928Y-5448357D01*
X1249643Y-5491214D02*
X1435357Y-5491214D01*
X1335357Y-5605500D01*
X1378214Y-5605500D01*
X1406785Y-5619786D01*
X1421071Y-5634071D01*
X1435357Y-5662643D01*
X1435357Y-5734071D01*
X1421071Y-5762643D01*
X1406785Y-5776929D01*
X1378214Y-5791214D01*
X1292500Y-5791214D01*
X1263928Y-5776929D01*
X1249643Y-5762643D01*
X1792500Y-5791214D02*
X1792500Y-5491214D01*
X1921071Y-5791214D02*
X1921071Y-5634071D01*
X1906785Y-5605500D01*
X1878214Y-5591214D01*
X1835357Y-5591214D01*
X1806785Y-5605500D01*
X1792500Y-5619786D01*
X2106786Y-5791214D02*
X2078214Y-5776929D01*
X2063928Y-5762643D01*
X2049643Y-5734071D01*
X2049643Y-5648357D01*
X2063928Y-5619786D01*
X2078214Y-5605500D01*
X2106786Y-5591214D01*
X2149643Y-5591214D01*
X2178214Y-5605500D01*
X2192500Y-5619786D01*
X2206786Y-5648357D01*
X2206786Y-5734071D01*
X2192500Y-5762643D01*
X2178214Y-5776929D01*
X2149643Y-5791214D01*
X2106786Y-5791214D01*
X2378214Y-5791214D02*
X2349643Y-5776929D01*
X2335357Y-5748357D01*
X2335357Y-5491214D01*
X2606786Y-5776929D02*
X2578214Y-5791214D01*
X2521071Y-5791214D01*
X2492500Y-5776929D01*
X2478214Y-5748357D01*
X2478214Y-5634071D01*
X2492500Y-5605500D01*
X2521071Y-5591214D01*
X2578214Y-5591214D01*
X2606786Y-5605500D01*
X2621071Y-5634071D01*
X2621071Y-5662643D01*
X2478214Y-5691214D01*
X2735357Y-5776929D02*
X2763929Y-5791214D01*
X2821071Y-5791214D01*
X2849643Y-5776929D01*
X2863928Y-5748357D01*
X2863928Y-5734071D01*
X2849643Y-5705500D01*
X2821071Y-5691214D01*
X2778214Y-5691214D01*
X2749643Y-5676929D01*
X2735357Y-5648357D01*
X2735357Y-5634071D01*
X2749643Y-5605500D01*
X2778214Y-5591214D01*
X2821071Y-5591214D01*
X2849643Y-5605500D01*
X2963928Y-5905500D02*
X2978214Y-5891214D01*
X3006786Y-5848357D01*
X3021071Y-5819786D01*
X3035357Y-5776929D01*
X3049643Y-5705500D01*
X3049643Y-5648357D01*
X3035357Y-5576929D01*
X3021071Y-5534072D01*
X3006786Y-5505500D01*
X2978214Y-5462643D01*
X2963928Y-5448357D01*
X-3558300Y-6102300D02*
X-3507500Y-6051500D01*
X-3558300Y-6000700D01*
X-3609100Y-6051500D01*
X-3558300Y-6102300D01*
X-3078929Y-6187214D02*
X-3250357Y-6187214D01*
X-3164643Y-6187214D02*
X-3164643Y-5887214D01*
X-3193214Y-5930071D01*
X-3221786Y-5958643D01*
X-3250357Y-5972929D01*
X-2950357Y-6158643D02*
X-2936071Y-6172929D01*
X-2950357Y-6187214D01*
X-2964643Y-6172929D01*
X-2950357Y-6158643D01*
X-2950357Y-6187214D01*
X-2750357Y-5887214D02*
X-2721786Y-5887214D01*
X-2693214Y-5901500D01*
X-2678929Y-5915786D01*
X-2664643Y-5944357D01*
X-2650357Y-6001500D01*
X-2650357Y-6072929D01*
X-2664643Y-6130071D01*
X-2678929Y-6158643D01*
X-2693214Y-6172929D01*
X-2721786Y-6187214D01*
X-2750357Y-6187214D01*
X-2778929Y-6172929D01*
X-2793214Y-6158643D01*
X-2807500Y-6130071D01*
X-2821786Y-6072929D01*
X-2821786Y-6001500D01*
X-2807500Y-5944357D01*
X-2793214Y-5915786D01*
X-2778929Y-5901500D01*
X-2750357Y-5887214D01*
X-2536072Y-5915786D02*
X-2521786Y-5901500D01*
X-2493214Y-5887214D01*
X-2421786Y-5887214D01*
X-2393214Y-5901500D01*
X-2378929Y-5915786D01*
X-2364643Y-5944357D01*
X-2364643Y-5972929D01*
X-2378929Y-6015786D01*
X-2550357Y-6187214D01*
X-2364643Y-6187214D01*
X-2236072Y-6187214D02*
X-2236072Y-5987214D01*
X-2236072Y-6015786D02*
X-2221786Y-6001500D01*
X-2193214Y-5987214D01*
X-2150357Y-5987214D01*
X-2121786Y-6001500D01*
X-2107500Y-6030071D01*
X-2107500Y-6187214D01*
X-2107500Y-6030071D02*
X-2093214Y-6001500D01*
X-2064643Y-5987214D01*
X-2021786Y-5987214D01*
X-1993214Y-6001500D01*
X-1978929Y-6030071D01*
X-1978929Y-6187214D01*
X-1836071Y-6187214D02*
X-1836071Y-5987214D01*
X-1836071Y-6015786D02*
X-1821786Y-6001500D01*
X-1793214Y-5987214D01*
X-1750357Y-5987214D01*
X-1721786Y-6001500D01*
X-1707500Y-6030071D01*
X-1707500Y-6187214D01*
X-1707500Y-6030071D02*
X-1693214Y-6001500D01*
X-1664643Y-5987214D01*
X-1621786Y-5987214D01*
X-1593214Y-6001500D01*
X-1578929Y-6030071D01*
X-1578929Y-6187214D01*
X-993214Y-5872929D02*
X-1250357Y-6258643D01*
X-607500Y-5887214D02*
X-578929Y-5887214D01*
X-550357Y-5901500D01*
X-536072Y-5915786D01*
X-521786Y-5944357D01*
X-507500Y-6001500D01*
X-507500Y-6072929D01*
X-521786Y-6130071D01*
X-536072Y-6158643D01*
X-550357Y-6172929D01*
X-578929Y-6187214D01*
X-607500Y-6187214D01*
X-636072Y-6172929D01*
X-650357Y-6158643D01*
X-664643Y-6130071D01*
X-678929Y-6072929D01*
X-678929Y-6001500D01*
X-664643Y-5944357D01*
X-650357Y-5915786D01*
X-636072Y-5901500D01*
X-607500Y-5887214D01*
X-378929Y-6158643D02*
X-364643Y-6172929D01*
X-378929Y-6187214D01*
X-393214Y-6172929D01*
X-378929Y-6158643D01*
X-378929Y-6187214D01*
X-178929Y-5887214D02*
X-150357Y-5887214D01*
X-121786Y-5901500D01*
X-107500Y-5915786D01*
X-93214Y-5944357D01*
X-78929Y-6001500D01*
X-78929Y-6072929D01*
X-93214Y-6130071D01*
X-107500Y-6158643D01*
X-121786Y-6172929D01*
X-150357Y-6187214D01*
X-178929Y-6187214D01*
X-207500Y-6172929D01*
X-221786Y-6158643D01*
X-236072Y-6130071D01*
X-250357Y-6072929D01*
X-250357Y-6001500D01*
X-236072Y-5944357D01*
X-221786Y-5915786D01*
X-207500Y-5901500D01*
X-178929Y-5887214D01*
X178214Y-5987214D02*
X178214Y-6187214D01*
X106785Y-5872929D02*
X35357Y-6087214D01*
X221071Y-6087214D01*
X392500Y-5887214D02*
X421071Y-5887214D01*
X449643Y-5901500D01*
X463928Y-5915786D01*
X478214Y-5944357D01*
X492500Y-6001500D01*
X492500Y-6072929D01*
X478214Y-6130071D01*
X463928Y-6158643D01*
X449643Y-6172929D01*
X421071Y-6187214D01*
X392500Y-6187214D01*
X363928Y-6172929D01*
X349643Y-6158643D01*
X335357Y-6130071D01*
X321071Y-6072929D01*
X321071Y-6001500D01*
X335357Y-5944357D01*
X349643Y-5915786D01*
X363928Y-5901500D01*
X392500Y-5887214D01*
X606786Y-5887214D02*
X606786Y-5944357D01*
X721071Y-5887214D02*
X721071Y-5944357D01*
X1163928Y-6301500D02*
X1149643Y-6287214D01*
X1121071Y-6244357D01*
X1106786Y-6215786D01*
X1092500Y-6172929D01*
X1078214Y-6101500D01*
X1078214Y-6044357D01*
X1092500Y-5972929D01*
X1106786Y-5930071D01*
X1121071Y-5901500D01*
X1149643Y-5858643D01*
X1163928Y-5844357D01*
X1292500Y-6187214D02*
X1349643Y-6187214D01*
X1378214Y-6172929D01*
X1392500Y-6158643D01*
X1421071Y-6115786D01*
X1435357Y-6058643D01*
X1435357Y-5944357D01*
X1421071Y-5915786D01*
X1406785Y-5901500D01*
X1378214Y-5887214D01*
X1321071Y-5887214D01*
X1292500Y-5901500D01*
X1278214Y-5915786D01*
X1263928Y-5944357D01*
X1263928Y-6015786D01*
X1278214Y-6044357D01*
X1292500Y-6058643D01*
X1321071Y-6072929D01*
X1378214Y-6072929D01*
X1406785Y-6058643D01*
X1421071Y-6044357D01*
X1435357Y-6015786D01*
X1535357Y-5887214D02*
X1735357Y-5887214D01*
X1606785Y-6187214D01*
X2078214Y-6187214D02*
X2078214Y-5887214D01*
X2206786Y-6187214D02*
X2206786Y-6030071D01*
X2192500Y-6001500D01*
X2163928Y-5987214D01*
X2121071Y-5987214D01*
X2092500Y-6001500D01*
X2078214Y-6015786D01*
X2392500Y-6187214D02*
X2363928Y-6172929D01*
X2349643Y-6158643D01*
X2335357Y-6130071D01*
X2335357Y-6044357D01*
X2349643Y-6015786D01*
X2363928Y-6001500D01*
X2392500Y-5987214D01*
X2435357Y-5987214D01*
X2463928Y-6001500D01*
X2478214Y-6015786D01*
X2492500Y-6044357D01*
X2492500Y-6130071D01*
X2478214Y-6158643D01*
X2463928Y-6172929D01*
X2435357Y-6187214D01*
X2392500Y-6187214D01*
X2663928Y-6187214D02*
X2635357Y-6172929D01*
X2621071Y-6144357D01*
X2621071Y-5887214D01*
X2892500Y-6172929D02*
X2863928Y-6187214D01*
X2806786Y-6187214D01*
X2778214Y-6172929D01*
X2763929Y-6144357D01*
X2763929Y-6030071D01*
X2778214Y-6001500D01*
X2806786Y-5987214D01*
X2863928Y-5987214D01*
X2892500Y-6001500D01*
X2906786Y-6030071D01*
X2906786Y-6058643D01*
X2763929Y-6087214D01*
X3021071Y-6172929D02*
X3049643Y-6187214D01*
X3106786Y-6187214D01*
X3135357Y-6172929D01*
X3149643Y-6144357D01*
X3149643Y-6130071D01*
X3135357Y-6101500D01*
X3106786Y-6087214D01*
X3063928Y-6087214D01*
X3035357Y-6072929D01*
X3021071Y-6044357D01*
X3021071Y-6030071D01*
X3035357Y-6001500D01*
X3063928Y-5987214D01*
X3106786Y-5987214D01*
X3135357Y-6001500D01*
X3249643Y-6301500D02*
X3263928Y-6287214D01*
X3292500Y-6244357D01*
X3306786Y-6215786D01*
X3321071Y-6172929D01*
X3335357Y-6101500D01*
X3335357Y-6044357D01*
X3321071Y-5972929D01*
X3306786Y-5930071D01*
X3292500Y-5901500D01*
X3263928Y-5858643D01*
X3249643Y-5844357D01*
M02*
