G04 #@! TF.FileFunction,Paste,Bot*
%FSLAX46Y46*%
G04 Gerber Fmt 4.6, Leading zero omitted, Abs format (unit mm)*
G04 Created by KiCad (PCBNEW 4.0.6-e0-6349~53~ubuntu14.04.1) date Fri Mar 31 03:17:45 2017*
%MOMM*%
%LPD*%
G01*
G04 APERTURE LIST*
%ADD10C,0.100000*%
%ADD11R,1.550000X0.600000*%
%ADD12R,0.749300X0.398780*%
%ADD13R,0.600000X1.550000*%
%ADD14R,0.398780X0.749300*%
%ADD15R,0.800000X0.750000*%
G04 APERTURE END LIST*
D10*
G36*
X22354328Y18995571D02*
X22142196Y18783439D01*
X21541156Y19384479D01*
X21753288Y19596611D01*
X22354328Y18995571D01*
X22354328Y18995571D01*
G37*
G36*
X22000774Y18642018D02*
X21788642Y18429886D01*
X21187602Y19030926D01*
X21399734Y19243058D01*
X22000774Y18642018D01*
X22000774Y18642018D01*
G37*
G36*
X21647221Y18288464D02*
X21435089Y18076332D01*
X20834049Y18677372D01*
X21046181Y18889504D01*
X21647221Y18288464D01*
X21647221Y18288464D01*
G37*
G36*
X21293668Y17934911D02*
X21081536Y17722779D01*
X20480496Y18323819D01*
X20692628Y18535951D01*
X21293668Y17934911D01*
X21293668Y17934911D01*
G37*
G36*
X20940114Y17581358D02*
X20727982Y17369226D01*
X20126942Y17970266D01*
X20339074Y18182398D01*
X20940114Y17581358D01*
X20940114Y17581358D01*
G37*
G36*
X20586561Y17227804D02*
X20374429Y17015672D01*
X19773389Y17616712D01*
X19985521Y17828844D01*
X20586561Y17227804D01*
X20586561Y17227804D01*
G37*
G36*
X18995571Y17015672D02*
X18783439Y17227804D01*
X19384479Y17828844D01*
X19596611Y17616712D01*
X18995571Y17015672D01*
X18995571Y17015672D01*
G37*
G36*
X18642018Y17369226D02*
X18429886Y17581358D01*
X19030926Y18182398D01*
X19243058Y17970266D01*
X18642018Y17369226D01*
X18642018Y17369226D01*
G37*
G36*
X18288464Y17722779D02*
X18076332Y17934911D01*
X18677372Y18535951D01*
X18889504Y18323819D01*
X18288464Y17722779D01*
X18288464Y17722779D01*
G37*
G36*
X17934911Y18076332D02*
X17722779Y18288464D01*
X18323819Y18889504D01*
X18535951Y18677372D01*
X17934911Y18076332D01*
X17934911Y18076332D01*
G37*
G36*
X17581358Y18429886D02*
X17369226Y18642018D01*
X17970266Y19243058D01*
X18182398Y19030926D01*
X17581358Y18429886D01*
X17581358Y18429886D01*
G37*
G36*
X17227804Y18783439D02*
X17015672Y18995571D01*
X17616712Y19596611D01*
X17828844Y19384479D01*
X17227804Y18783439D01*
X17227804Y18783439D01*
G37*
G36*
X17828844Y19985521D02*
X17616712Y19773389D01*
X17015672Y20374429D01*
X17227804Y20586561D01*
X17828844Y19985521D01*
X17828844Y19985521D01*
G37*
G36*
X18182398Y20339074D02*
X17970266Y20126942D01*
X17369226Y20727982D01*
X17581358Y20940114D01*
X18182398Y20339074D01*
X18182398Y20339074D01*
G37*
G36*
X18535951Y20692628D02*
X18323819Y20480496D01*
X17722779Y21081536D01*
X17934911Y21293668D01*
X18535951Y20692628D01*
X18535951Y20692628D01*
G37*
G36*
X18889504Y21046181D02*
X18677372Y20834049D01*
X18076332Y21435089D01*
X18288464Y21647221D01*
X18889504Y21046181D01*
X18889504Y21046181D01*
G37*
G36*
X19243058Y21399734D02*
X19030926Y21187602D01*
X18429886Y21788642D01*
X18642018Y22000774D01*
X19243058Y21399734D01*
X19243058Y21399734D01*
G37*
G36*
X19596611Y21753288D02*
X19384479Y21541156D01*
X18783439Y22142196D01*
X18995571Y22354328D01*
X19596611Y21753288D01*
X19596611Y21753288D01*
G37*
G36*
X19985521Y21541156D02*
X19773389Y21753288D01*
X20374429Y22354328D01*
X20586561Y22142196D01*
X19985521Y21541156D01*
X19985521Y21541156D01*
G37*
G36*
X20339074Y21187602D02*
X20126942Y21399734D01*
X20727982Y22000774D01*
X20940114Y21788642D01*
X20339074Y21187602D01*
X20339074Y21187602D01*
G37*
G36*
X20692628Y20834049D02*
X20480496Y21046181D01*
X21081536Y21647221D01*
X21293668Y21435089D01*
X20692628Y20834049D01*
X20692628Y20834049D01*
G37*
G36*
X21046181Y20480496D02*
X20834049Y20692628D01*
X21435089Y21293668D01*
X21647221Y21081536D01*
X21046181Y20480496D01*
X21046181Y20480496D01*
G37*
G36*
X21399734Y20126942D02*
X21187602Y20339074D01*
X21788642Y20940114D01*
X22000774Y20727982D01*
X21399734Y20126942D01*
X21399734Y20126942D01*
G37*
G36*
X21753288Y19773389D02*
X21541156Y19985521D01*
X22142196Y20586561D01*
X22354328Y20374429D01*
X21753288Y19773389D01*
X21753288Y19773389D01*
G37*
G36*
X19317304Y19685000D02*
X18765761Y19133457D01*
X18214218Y19685000D01*
X18765761Y20236543D01*
X19317304Y19685000D01*
X19317304Y19685000D01*
G37*
G36*
X20236543Y20604239D02*
X19685000Y20052696D01*
X19133457Y20604239D01*
X19685000Y21155782D01*
X20236543Y20604239D01*
X20236543Y20604239D01*
G37*
G36*
X20236543Y18765761D02*
X19685000Y18214218D01*
X19133457Y18765761D01*
X19685000Y19317304D01*
X20236543Y18765761D01*
X20236543Y18765761D01*
G37*
G36*
X21155782Y19685000D02*
X20604239Y19133457D01*
X20052696Y19685000D01*
X20604239Y20236543D01*
X21155782Y19685000D01*
X21155782Y19685000D01*
G37*
G36*
X-23683598Y16973155D02*
X-23259334Y17397419D01*
X-22198674Y16336759D01*
X-22622938Y15912495D01*
X-23683598Y16973155D01*
X-23683598Y16973155D01*
G37*
G36*
X-22785573Y17871181D02*
X-22361309Y18295445D01*
X-21300649Y17234785D01*
X-21724913Y16810521D01*
X-22785573Y17871181D01*
X-22785573Y17871181D01*
G37*
G36*
X-21887547Y18769206D02*
X-21463283Y19193470D01*
X-20402623Y18132810D01*
X-20826887Y17708546D01*
X-21887547Y18769206D01*
X-21887547Y18769206D01*
G37*
G36*
X-20989521Y19667232D02*
X-20565257Y20091496D01*
X-19504597Y19030836D01*
X-19928861Y18606572D01*
X-20989521Y19667232D01*
X-20989521Y19667232D01*
G37*
G36*
X-20091496Y20565257D02*
X-19667232Y20989521D01*
X-18606572Y19928861D01*
X-19030836Y19504597D01*
X-20091496Y20565257D01*
X-20091496Y20565257D01*
G37*
G36*
X-19193470Y21463283D02*
X-18769206Y21887547D01*
X-17708546Y20826887D01*
X-18132810Y20402623D01*
X-19193470Y21463283D01*
X-19193470Y21463283D01*
G37*
G36*
X-18295445Y22361309D02*
X-17871181Y22785573D01*
X-16810521Y21724913D01*
X-17234785Y21300649D01*
X-18295445Y22361309D01*
X-18295445Y22361309D01*
G37*
G36*
X-17397419Y23259334D02*
X-16973155Y23683598D01*
X-15912495Y22622938D01*
X-16336759Y22198674D01*
X-17397419Y23259334D01*
X-17397419Y23259334D01*
G37*
G36*
X-10821326Y16683241D02*
X-10397062Y17107505D01*
X-9336402Y16046845D01*
X-9760666Y15622581D01*
X-10821326Y16683241D01*
X-10821326Y16683241D01*
G37*
G36*
X-11719351Y15785215D02*
X-11295087Y16209479D01*
X-10234427Y15148819D01*
X-10658691Y14724555D01*
X-11719351Y15785215D01*
X-11719351Y15785215D01*
G37*
G36*
X-12617377Y14887190D02*
X-12193113Y15311454D01*
X-11132453Y14250794D01*
X-11556717Y13826530D01*
X-12617377Y14887190D01*
X-12617377Y14887190D01*
G37*
G36*
X-13515403Y13989164D02*
X-13091139Y14413428D01*
X-12030479Y13352768D01*
X-12454743Y12928504D01*
X-13515403Y13989164D01*
X-13515403Y13989164D01*
G37*
G36*
X-14413428Y13091139D02*
X-13989164Y13515403D01*
X-12928504Y12454743D01*
X-13352768Y12030479D01*
X-14413428Y13091139D01*
X-14413428Y13091139D01*
G37*
G36*
X-15311454Y12193113D02*
X-14887190Y12617377D01*
X-13826530Y11556717D01*
X-14250794Y11132453D01*
X-15311454Y12193113D01*
X-15311454Y12193113D01*
G37*
G36*
X-16209479Y11295087D02*
X-15785215Y11719351D01*
X-14724555Y10658691D01*
X-15148819Y10234427D01*
X-16209479Y11295087D01*
X-16209479Y11295087D01*
G37*
G36*
X-17107505Y10397062D02*
X-16683241Y10821326D01*
X-15622581Y9760666D01*
X-16046845Y9336402D01*
X-17107505Y10397062D01*
X-17107505Y10397062D01*
G37*
G36*
X-12019872Y-14565456D02*
X-13151243Y-13434085D01*
X-11949162Y-12232004D01*
X-10817791Y-13363375D01*
X-12019872Y-14565456D01*
X-12019872Y-14565456D01*
G37*
G36*
X-10605658Y-15979670D02*
X-11737029Y-14848299D01*
X-10534948Y-13646218D01*
X-9403577Y-14777589D01*
X-10605658Y-15979670D01*
X-10605658Y-15979670D01*
G37*
G36*
X-13434085Y-13151243D02*
X-14565456Y-12019872D01*
X-13363375Y-10817791D01*
X-12232004Y-11949162D01*
X-13434085Y-13151243D01*
X-13434085Y-13151243D01*
G37*
G36*
X-14848299Y-11737029D02*
X-15979670Y-10605658D01*
X-14777589Y-9403577D01*
X-13646218Y-10534948D01*
X-14848299Y-11737029D01*
X-14848299Y-11737029D01*
G37*
G36*
X-22485052Y-19373782D02*
X-23616423Y-18242411D01*
X-22414342Y-17040330D01*
X-21282971Y-18171701D01*
X-22485052Y-19373782D01*
X-22485052Y-19373782D01*
G37*
G36*
X-21070838Y-20787996D02*
X-22202209Y-19656625D01*
X-21000128Y-18454544D01*
X-19868757Y-19585915D01*
X-21070838Y-20787996D01*
X-21070838Y-20787996D01*
G37*
G36*
X-18242411Y-23616423D02*
X-19373782Y-22485052D01*
X-18171701Y-21282971D01*
X-17040330Y-22414342D01*
X-18242411Y-23616423D01*
X-18242411Y-23616423D01*
G37*
G36*
X-19656625Y-22202209D02*
X-20787996Y-21070838D01*
X-19585915Y-19868757D01*
X-18454544Y-21000128D01*
X-19656625Y-22202209D01*
X-19656625Y-22202209D01*
G37*
G36*
X14407301Y-1820800D02*
X14195169Y-2032932D01*
X13099153Y-936916D01*
X13311285Y-724784D01*
X14407301Y-1820800D01*
X14407301Y-1820800D01*
G37*
G36*
X14053748Y-2174354D02*
X13841616Y-2386486D01*
X12745600Y-1290470D01*
X12957732Y-1078338D01*
X14053748Y-2174354D01*
X14053748Y-2174354D01*
G37*
G36*
X13700194Y-2527907D02*
X13488062Y-2740039D01*
X12392046Y-1644023D01*
X12604178Y-1431891D01*
X13700194Y-2527907D01*
X13700194Y-2527907D01*
G37*
G36*
X13346641Y-2881460D02*
X13134509Y-3093592D01*
X12038493Y-1997576D01*
X12250625Y-1785444D01*
X13346641Y-2881460D01*
X13346641Y-2881460D01*
G37*
G36*
X12993087Y-3235014D02*
X12780955Y-3447146D01*
X11684939Y-2351130D01*
X11897071Y-2138998D01*
X12993087Y-3235014D01*
X12993087Y-3235014D01*
G37*
G36*
X12639534Y-3588567D02*
X12427402Y-3800699D01*
X11331386Y-2704683D01*
X11543518Y-2492551D01*
X12639534Y-3588567D01*
X12639534Y-3588567D01*
G37*
G36*
X12285981Y-3942121D02*
X12073849Y-4154253D01*
X10977833Y-3058237D01*
X11189965Y-2846105D01*
X12285981Y-3942121D01*
X12285981Y-3942121D01*
G37*
G36*
X11932427Y-4295674D02*
X11720295Y-4507806D01*
X10624279Y-3411790D01*
X10836411Y-3199658D01*
X11932427Y-4295674D01*
X11932427Y-4295674D01*
G37*
G36*
X11578874Y-4649227D02*
X11366742Y-4861359D01*
X10270726Y-3765343D01*
X10482858Y-3553211D01*
X11578874Y-4649227D01*
X11578874Y-4649227D01*
G37*
G36*
X11225320Y-5002781D02*
X11013188Y-5214913D01*
X9917172Y-4118897D01*
X10129304Y-3906765D01*
X11225320Y-5002781D01*
X11225320Y-5002781D01*
G37*
G36*
X10871767Y-5356334D02*
X10659635Y-5568466D01*
X9563619Y-4472450D01*
X9775751Y-4260318D01*
X10871767Y-5356334D01*
X10871767Y-5356334D01*
G37*
G36*
X10518214Y-5709888D02*
X10306082Y-5922020D01*
X9210066Y-4826004D01*
X9422198Y-4613872D01*
X10518214Y-5709888D01*
X10518214Y-5709888D01*
G37*
G36*
X10164660Y-6063441D02*
X9952528Y-6275573D01*
X8856512Y-5179557D01*
X9068644Y-4967425D01*
X10164660Y-6063441D01*
X10164660Y-6063441D01*
G37*
G36*
X9811107Y-6416994D02*
X9598975Y-6629126D01*
X8502959Y-5533110D01*
X8715091Y-5320978D01*
X9811107Y-6416994D01*
X9811107Y-6416994D01*
G37*
G36*
X9457553Y-6770548D02*
X9245421Y-6982680D01*
X8149405Y-5886664D01*
X8361537Y-5674532D01*
X9457553Y-6770548D01*
X9457553Y-6770548D01*
G37*
G36*
X9104000Y-7124101D02*
X8891868Y-7336233D01*
X7795852Y-6240217D01*
X8007984Y-6028085D01*
X9104000Y-7124101D01*
X9104000Y-7124101D01*
G37*
G36*
X8750447Y-7477654D02*
X8538315Y-7689786D01*
X7442299Y-6593770D01*
X7654431Y-6381638D01*
X8750447Y-7477654D01*
X8750447Y-7477654D01*
G37*
G36*
X8396893Y-7831208D02*
X8184761Y-8043340D01*
X7088745Y-6947324D01*
X7300877Y-6735192D01*
X8396893Y-7831208D01*
X8396893Y-7831208D01*
G37*
G36*
X8043340Y-8184761D02*
X7831208Y-8396893D01*
X6735192Y-7300877D01*
X6947324Y-7088745D01*
X8043340Y-8184761D01*
X8043340Y-8184761D01*
G37*
G36*
X7689786Y-8538315D02*
X7477654Y-8750447D01*
X6381638Y-7654431D01*
X6593770Y-7442299D01*
X7689786Y-8538315D01*
X7689786Y-8538315D01*
G37*
G36*
X7336233Y-8891868D02*
X7124101Y-9104000D01*
X6028085Y-8007984D01*
X6240217Y-7795852D01*
X7336233Y-8891868D01*
X7336233Y-8891868D01*
G37*
G36*
X6982680Y-9245421D02*
X6770548Y-9457553D01*
X5674532Y-8361537D01*
X5886664Y-8149405D01*
X6982680Y-9245421D01*
X6982680Y-9245421D01*
G37*
G36*
X6629126Y-9598975D02*
X6416994Y-9811107D01*
X5320978Y-8715091D01*
X5533110Y-8502959D01*
X6629126Y-9598975D01*
X6629126Y-9598975D01*
G37*
G36*
X6275573Y-9952528D02*
X6063441Y-10164660D01*
X4967425Y-9068644D01*
X5179557Y-8856512D01*
X6275573Y-9952528D01*
X6275573Y-9952528D01*
G37*
G36*
X5922020Y-10306082D02*
X5709888Y-10518214D01*
X4613872Y-9422198D01*
X4826004Y-9210066D01*
X5922020Y-10306082D01*
X5922020Y-10306082D01*
G37*
G36*
X5568466Y-10659635D02*
X5356334Y-10871767D01*
X4260318Y-9775751D01*
X4472450Y-9563619D01*
X5568466Y-10659635D01*
X5568466Y-10659635D01*
G37*
G36*
X5214913Y-11013188D02*
X5002781Y-11225320D01*
X3906765Y-10129304D01*
X4118897Y-9917172D01*
X5214913Y-11013188D01*
X5214913Y-11013188D01*
G37*
G36*
X4861359Y-11366742D02*
X4649227Y-11578874D01*
X3553211Y-10482858D01*
X3765343Y-10270726D01*
X4861359Y-11366742D01*
X4861359Y-11366742D01*
G37*
G36*
X4507806Y-11720295D02*
X4295674Y-11932427D01*
X3199658Y-10836411D01*
X3411790Y-10624279D01*
X4507806Y-11720295D01*
X4507806Y-11720295D01*
G37*
G36*
X4154253Y-12073849D02*
X3942121Y-12285981D01*
X2846105Y-11189965D01*
X3058237Y-10977833D01*
X4154253Y-12073849D01*
X4154253Y-12073849D01*
G37*
G36*
X3800699Y-12427402D02*
X3588567Y-12639534D01*
X2492551Y-11543518D01*
X2704683Y-11331386D01*
X3800699Y-12427402D01*
X3800699Y-12427402D01*
G37*
G36*
X3447146Y-12780955D02*
X3235014Y-12993087D01*
X2138998Y-11897071D01*
X2351130Y-11684939D01*
X3447146Y-12780955D01*
X3447146Y-12780955D01*
G37*
G36*
X3093592Y-13134509D02*
X2881460Y-13346641D01*
X1785444Y-12250625D01*
X1997576Y-12038493D01*
X3093592Y-13134509D01*
X3093592Y-13134509D01*
G37*
G36*
X2740039Y-13488062D02*
X2527907Y-13700194D01*
X1431891Y-12604178D01*
X1644023Y-12392046D01*
X2740039Y-13488062D01*
X2740039Y-13488062D01*
G37*
G36*
X2386486Y-13841616D02*
X2174354Y-14053748D01*
X1078338Y-12957732D01*
X1290470Y-12745600D01*
X2386486Y-13841616D01*
X2386486Y-13841616D01*
G37*
G36*
X2032932Y-14195169D02*
X1820800Y-14407301D01*
X724784Y-13311285D01*
X936916Y-13099153D01*
X2032932Y-14195169D01*
X2032932Y-14195169D01*
G37*
G36*
X-1820800Y-14407301D02*
X-2032932Y-14195169D01*
X-936916Y-13099153D01*
X-724784Y-13311285D01*
X-1820800Y-14407301D01*
X-1820800Y-14407301D01*
G37*
G36*
X-2174354Y-14053748D02*
X-2386486Y-13841616D01*
X-1290470Y-12745600D01*
X-1078338Y-12957732D01*
X-2174354Y-14053748D01*
X-2174354Y-14053748D01*
G37*
G36*
X-2527907Y-13700194D02*
X-2740039Y-13488062D01*
X-1644023Y-12392046D01*
X-1431891Y-12604178D01*
X-2527907Y-13700194D01*
X-2527907Y-13700194D01*
G37*
G36*
X-2881460Y-13346641D02*
X-3093592Y-13134509D01*
X-1997576Y-12038493D01*
X-1785444Y-12250625D01*
X-2881460Y-13346641D01*
X-2881460Y-13346641D01*
G37*
G36*
X-3235014Y-12993087D02*
X-3447146Y-12780955D01*
X-2351130Y-11684939D01*
X-2138998Y-11897071D01*
X-3235014Y-12993087D01*
X-3235014Y-12993087D01*
G37*
G36*
X-3588567Y-12639534D02*
X-3800699Y-12427402D01*
X-2704683Y-11331386D01*
X-2492551Y-11543518D01*
X-3588567Y-12639534D01*
X-3588567Y-12639534D01*
G37*
G36*
X-3942121Y-12285981D02*
X-4154253Y-12073849D01*
X-3058237Y-10977833D01*
X-2846105Y-11189965D01*
X-3942121Y-12285981D01*
X-3942121Y-12285981D01*
G37*
G36*
X-4295674Y-11932427D02*
X-4507806Y-11720295D01*
X-3411790Y-10624279D01*
X-3199658Y-10836411D01*
X-4295674Y-11932427D01*
X-4295674Y-11932427D01*
G37*
G36*
X-4649227Y-11578874D02*
X-4861359Y-11366742D01*
X-3765343Y-10270726D01*
X-3553211Y-10482858D01*
X-4649227Y-11578874D01*
X-4649227Y-11578874D01*
G37*
G36*
X-5002781Y-11225320D02*
X-5214913Y-11013188D01*
X-4118897Y-9917172D01*
X-3906765Y-10129304D01*
X-5002781Y-11225320D01*
X-5002781Y-11225320D01*
G37*
G36*
X-5356334Y-10871767D02*
X-5568466Y-10659635D01*
X-4472450Y-9563619D01*
X-4260318Y-9775751D01*
X-5356334Y-10871767D01*
X-5356334Y-10871767D01*
G37*
G36*
X-5709888Y-10518214D02*
X-5922020Y-10306082D01*
X-4826004Y-9210066D01*
X-4613872Y-9422198D01*
X-5709888Y-10518214D01*
X-5709888Y-10518214D01*
G37*
G36*
X-6063441Y-10164660D02*
X-6275573Y-9952528D01*
X-5179557Y-8856512D01*
X-4967425Y-9068644D01*
X-6063441Y-10164660D01*
X-6063441Y-10164660D01*
G37*
G36*
X-6416994Y-9811107D02*
X-6629126Y-9598975D01*
X-5533110Y-8502959D01*
X-5320978Y-8715091D01*
X-6416994Y-9811107D01*
X-6416994Y-9811107D01*
G37*
G36*
X-6770548Y-9457553D02*
X-6982680Y-9245421D01*
X-5886664Y-8149405D01*
X-5674532Y-8361537D01*
X-6770548Y-9457553D01*
X-6770548Y-9457553D01*
G37*
G36*
X-7124101Y-9104000D02*
X-7336233Y-8891868D01*
X-6240217Y-7795852D01*
X-6028085Y-8007984D01*
X-7124101Y-9104000D01*
X-7124101Y-9104000D01*
G37*
G36*
X-7477654Y-8750447D02*
X-7689786Y-8538315D01*
X-6593770Y-7442299D01*
X-6381638Y-7654431D01*
X-7477654Y-8750447D01*
X-7477654Y-8750447D01*
G37*
G36*
X-7831208Y-8396893D02*
X-8043340Y-8184761D01*
X-6947324Y-7088745D01*
X-6735192Y-7300877D01*
X-7831208Y-8396893D01*
X-7831208Y-8396893D01*
G37*
G36*
X-8184761Y-8043340D02*
X-8396893Y-7831208D01*
X-7300877Y-6735192D01*
X-7088745Y-6947324D01*
X-8184761Y-8043340D01*
X-8184761Y-8043340D01*
G37*
G36*
X-8538315Y-7689786D02*
X-8750447Y-7477654D01*
X-7654431Y-6381638D01*
X-7442299Y-6593770D01*
X-8538315Y-7689786D01*
X-8538315Y-7689786D01*
G37*
G36*
X-8891868Y-7336233D02*
X-9104000Y-7124101D01*
X-8007984Y-6028085D01*
X-7795852Y-6240217D01*
X-8891868Y-7336233D01*
X-8891868Y-7336233D01*
G37*
G36*
X-9245421Y-6982680D02*
X-9457553Y-6770548D01*
X-8361537Y-5674532D01*
X-8149405Y-5886664D01*
X-9245421Y-6982680D01*
X-9245421Y-6982680D01*
G37*
G36*
X-9598975Y-6629126D02*
X-9811107Y-6416994D01*
X-8715091Y-5320978D01*
X-8502959Y-5533110D01*
X-9598975Y-6629126D01*
X-9598975Y-6629126D01*
G37*
G36*
X-9952528Y-6275573D02*
X-10164660Y-6063441D01*
X-9068644Y-4967425D01*
X-8856512Y-5179557D01*
X-9952528Y-6275573D01*
X-9952528Y-6275573D01*
G37*
G36*
X-10306082Y-5922020D02*
X-10518214Y-5709888D01*
X-9422198Y-4613872D01*
X-9210066Y-4826004D01*
X-10306082Y-5922020D01*
X-10306082Y-5922020D01*
G37*
G36*
X-10659635Y-5568466D02*
X-10871767Y-5356334D01*
X-9775751Y-4260318D01*
X-9563619Y-4472450D01*
X-10659635Y-5568466D01*
X-10659635Y-5568466D01*
G37*
G36*
X-11013188Y-5214913D02*
X-11225320Y-5002781D01*
X-10129304Y-3906765D01*
X-9917172Y-4118897D01*
X-11013188Y-5214913D01*
X-11013188Y-5214913D01*
G37*
G36*
X-11366742Y-4861359D02*
X-11578874Y-4649227D01*
X-10482858Y-3553211D01*
X-10270726Y-3765343D01*
X-11366742Y-4861359D01*
X-11366742Y-4861359D01*
G37*
G36*
X-11720295Y-4507806D02*
X-11932427Y-4295674D01*
X-10836411Y-3199658D01*
X-10624279Y-3411790D01*
X-11720295Y-4507806D01*
X-11720295Y-4507806D01*
G37*
G36*
X-12073849Y-4154253D02*
X-12285981Y-3942121D01*
X-11189965Y-2846105D01*
X-10977833Y-3058237D01*
X-12073849Y-4154253D01*
X-12073849Y-4154253D01*
G37*
G36*
X-12427402Y-3800699D02*
X-12639534Y-3588567D01*
X-11543518Y-2492551D01*
X-11331386Y-2704683D01*
X-12427402Y-3800699D01*
X-12427402Y-3800699D01*
G37*
G36*
X-12780955Y-3447146D02*
X-12993087Y-3235014D01*
X-11897071Y-2138998D01*
X-11684939Y-2351130D01*
X-12780955Y-3447146D01*
X-12780955Y-3447146D01*
G37*
G36*
X-13134509Y-3093592D02*
X-13346641Y-2881460D01*
X-12250625Y-1785444D01*
X-12038493Y-1997576D01*
X-13134509Y-3093592D01*
X-13134509Y-3093592D01*
G37*
G36*
X-13488062Y-2740039D02*
X-13700194Y-2527907D01*
X-12604178Y-1431891D01*
X-12392046Y-1644023D01*
X-13488062Y-2740039D01*
X-13488062Y-2740039D01*
G37*
G36*
X-13841616Y-2386486D02*
X-14053748Y-2174354D01*
X-12957732Y-1078338D01*
X-12745600Y-1290470D01*
X-13841616Y-2386486D01*
X-13841616Y-2386486D01*
G37*
G36*
X-14195169Y-2032932D02*
X-14407301Y-1820800D01*
X-13311285Y-724784D01*
X-13099153Y-936916D01*
X-14195169Y-2032932D01*
X-14195169Y-2032932D01*
G37*
G36*
X-13099153Y936916D02*
X-13311285Y724784D01*
X-14407301Y1820800D01*
X-14195169Y2032932D01*
X-13099153Y936916D01*
X-13099153Y936916D01*
G37*
G36*
X-12745600Y1290470D02*
X-12957732Y1078338D01*
X-14053748Y2174354D01*
X-13841616Y2386486D01*
X-12745600Y1290470D01*
X-12745600Y1290470D01*
G37*
G36*
X-12392046Y1644023D02*
X-12604178Y1431891D01*
X-13700194Y2527907D01*
X-13488062Y2740039D01*
X-12392046Y1644023D01*
X-12392046Y1644023D01*
G37*
G36*
X-12038493Y1997576D02*
X-12250625Y1785444D01*
X-13346641Y2881460D01*
X-13134509Y3093592D01*
X-12038493Y1997576D01*
X-12038493Y1997576D01*
G37*
G36*
X-11684939Y2351130D02*
X-11897071Y2138998D01*
X-12993087Y3235014D01*
X-12780955Y3447146D01*
X-11684939Y2351130D01*
X-11684939Y2351130D01*
G37*
G36*
X-11331386Y2704683D02*
X-11543518Y2492551D01*
X-12639534Y3588567D01*
X-12427402Y3800699D01*
X-11331386Y2704683D01*
X-11331386Y2704683D01*
G37*
G36*
X-10977833Y3058237D02*
X-11189965Y2846105D01*
X-12285981Y3942121D01*
X-12073849Y4154253D01*
X-10977833Y3058237D01*
X-10977833Y3058237D01*
G37*
G36*
X-10624279Y3411790D02*
X-10836411Y3199658D01*
X-11932427Y4295674D01*
X-11720295Y4507806D01*
X-10624279Y3411790D01*
X-10624279Y3411790D01*
G37*
G36*
X-10270726Y3765343D02*
X-10482858Y3553211D01*
X-11578874Y4649227D01*
X-11366742Y4861359D01*
X-10270726Y3765343D01*
X-10270726Y3765343D01*
G37*
G36*
X-9917172Y4118897D02*
X-10129304Y3906765D01*
X-11225320Y5002781D01*
X-11013188Y5214913D01*
X-9917172Y4118897D01*
X-9917172Y4118897D01*
G37*
G36*
X-9563619Y4472450D02*
X-9775751Y4260318D01*
X-10871767Y5356334D01*
X-10659635Y5568466D01*
X-9563619Y4472450D01*
X-9563619Y4472450D01*
G37*
G36*
X-9210066Y4826004D02*
X-9422198Y4613872D01*
X-10518214Y5709888D01*
X-10306082Y5922020D01*
X-9210066Y4826004D01*
X-9210066Y4826004D01*
G37*
G36*
X-8856512Y5179557D02*
X-9068644Y4967425D01*
X-10164660Y6063441D01*
X-9952528Y6275573D01*
X-8856512Y5179557D01*
X-8856512Y5179557D01*
G37*
G36*
X-8502959Y5533110D02*
X-8715091Y5320978D01*
X-9811107Y6416994D01*
X-9598975Y6629126D01*
X-8502959Y5533110D01*
X-8502959Y5533110D01*
G37*
G36*
X-8149405Y5886664D02*
X-8361537Y5674532D01*
X-9457553Y6770548D01*
X-9245421Y6982680D01*
X-8149405Y5886664D01*
X-8149405Y5886664D01*
G37*
G36*
X-7795852Y6240217D02*
X-8007984Y6028085D01*
X-9104000Y7124101D01*
X-8891868Y7336233D01*
X-7795852Y6240217D01*
X-7795852Y6240217D01*
G37*
G36*
X-7442299Y6593770D02*
X-7654431Y6381638D01*
X-8750447Y7477654D01*
X-8538315Y7689786D01*
X-7442299Y6593770D01*
X-7442299Y6593770D01*
G37*
G36*
X-7088745Y6947324D02*
X-7300877Y6735192D01*
X-8396893Y7831208D01*
X-8184761Y8043340D01*
X-7088745Y6947324D01*
X-7088745Y6947324D01*
G37*
G36*
X-6735192Y7300877D02*
X-6947324Y7088745D01*
X-8043340Y8184761D01*
X-7831208Y8396893D01*
X-6735192Y7300877D01*
X-6735192Y7300877D01*
G37*
G36*
X-6381638Y7654431D02*
X-6593770Y7442299D01*
X-7689786Y8538315D01*
X-7477654Y8750447D01*
X-6381638Y7654431D01*
X-6381638Y7654431D01*
G37*
G36*
X-6028085Y8007984D02*
X-6240217Y7795852D01*
X-7336233Y8891868D01*
X-7124101Y9104000D01*
X-6028085Y8007984D01*
X-6028085Y8007984D01*
G37*
G36*
X-5674532Y8361537D02*
X-5886664Y8149405D01*
X-6982680Y9245421D01*
X-6770548Y9457553D01*
X-5674532Y8361537D01*
X-5674532Y8361537D01*
G37*
G36*
X-5320978Y8715091D02*
X-5533110Y8502959D01*
X-6629126Y9598975D01*
X-6416994Y9811107D01*
X-5320978Y8715091D01*
X-5320978Y8715091D01*
G37*
G36*
X-4967425Y9068644D02*
X-5179557Y8856512D01*
X-6275573Y9952528D01*
X-6063441Y10164660D01*
X-4967425Y9068644D01*
X-4967425Y9068644D01*
G37*
G36*
X-4613872Y9422198D02*
X-4826004Y9210066D01*
X-5922020Y10306082D01*
X-5709888Y10518214D01*
X-4613872Y9422198D01*
X-4613872Y9422198D01*
G37*
G36*
X-4260318Y9775751D02*
X-4472450Y9563619D01*
X-5568466Y10659635D01*
X-5356334Y10871767D01*
X-4260318Y9775751D01*
X-4260318Y9775751D01*
G37*
G36*
X-3906765Y10129304D02*
X-4118897Y9917172D01*
X-5214913Y11013188D01*
X-5002781Y11225320D01*
X-3906765Y10129304D01*
X-3906765Y10129304D01*
G37*
G36*
X-3553211Y10482858D02*
X-3765343Y10270726D01*
X-4861359Y11366742D01*
X-4649227Y11578874D01*
X-3553211Y10482858D01*
X-3553211Y10482858D01*
G37*
G36*
X-3199658Y10836411D02*
X-3411790Y10624279D01*
X-4507806Y11720295D01*
X-4295674Y11932427D01*
X-3199658Y10836411D01*
X-3199658Y10836411D01*
G37*
G36*
X-2846105Y11189965D02*
X-3058237Y10977833D01*
X-4154253Y12073849D01*
X-3942121Y12285981D01*
X-2846105Y11189965D01*
X-2846105Y11189965D01*
G37*
G36*
X-2492551Y11543518D02*
X-2704683Y11331386D01*
X-3800699Y12427402D01*
X-3588567Y12639534D01*
X-2492551Y11543518D01*
X-2492551Y11543518D01*
G37*
G36*
X-2138998Y11897071D02*
X-2351130Y11684939D01*
X-3447146Y12780955D01*
X-3235014Y12993087D01*
X-2138998Y11897071D01*
X-2138998Y11897071D01*
G37*
G36*
X-1785444Y12250625D02*
X-1997576Y12038493D01*
X-3093592Y13134509D01*
X-2881460Y13346641D01*
X-1785444Y12250625D01*
X-1785444Y12250625D01*
G37*
G36*
X-1431891Y12604178D02*
X-1644023Y12392046D01*
X-2740039Y13488062D01*
X-2527907Y13700194D01*
X-1431891Y12604178D01*
X-1431891Y12604178D01*
G37*
G36*
X-1078338Y12957732D02*
X-1290470Y12745600D01*
X-2386486Y13841616D01*
X-2174354Y14053748D01*
X-1078338Y12957732D01*
X-1078338Y12957732D01*
G37*
G36*
X-724784Y13311285D02*
X-936916Y13099153D01*
X-2032932Y14195169D01*
X-1820800Y14407301D01*
X-724784Y13311285D01*
X-724784Y13311285D01*
G37*
G36*
X936916Y13099153D02*
X724784Y13311285D01*
X1820800Y14407301D01*
X2032932Y14195169D01*
X936916Y13099153D01*
X936916Y13099153D01*
G37*
G36*
X1290470Y12745600D02*
X1078338Y12957732D01*
X2174354Y14053748D01*
X2386486Y13841616D01*
X1290470Y12745600D01*
X1290470Y12745600D01*
G37*
G36*
X1644023Y12392046D02*
X1431891Y12604178D01*
X2527907Y13700194D01*
X2740039Y13488062D01*
X1644023Y12392046D01*
X1644023Y12392046D01*
G37*
G36*
X1997576Y12038493D02*
X1785444Y12250625D01*
X2881460Y13346641D01*
X3093592Y13134509D01*
X1997576Y12038493D01*
X1997576Y12038493D01*
G37*
G36*
X2351130Y11684939D02*
X2138998Y11897071D01*
X3235014Y12993087D01*
X3447146Y12780955D01*
X2351130Y11684939D01*
X2351130Y11684939D01*
G37*
G36*
X2704683Y11331386D02*
X2492551Y11543518D01*
X3588567Y12639534D01*
X3800699Y12427402D01*
X2704683Y11331386D01*
X2704683Y11331386D01*
G37*
G36*
X3058237Y10977833D02*
X2846105Y11189965D01*
X3942121Y12285981D01*
X4154253Y12073849D01*
X3058237Y10977833D01*
X3058237Y10977833D01*
G37*
G36*
X3411790Y10624279D02*
X3199658Y10836411D01*
X4295674Y11932427D01*
X4507806Y11720295D01*
X3411790Y10624279D01*
X3411790Y10624279D01*
G37*
G36*
X3765343Y10270726D02*
X3553211Y10482858D01*
X4649227Y11578874D01*
X4861359Y11366742D01*
X3765343Y10270726D01*
X3765343Y10270726D01*
G37*
G36*
X4118897Y9917172D02*
X3906765Y10129304D01*
X5002781Y11225320D01*
X5214913Y11013188D01*
X4118897Y9917172D01*
X4118897Y9917172D01*
G37*
G36*
X4472450Y9563619D02*
X4260318Y9775751D01*
X5356334Y10871767D01*
X5568466Y10659635D01*
X4472450Y9563619D01*
X4472450Y9563619D01*
G37*
G36*
X4826004Y9210066D02*
X4613872Y9422198D01*
X5709888Y10518214D01*
X5922020Y10306082D01*
X4826004Y9210066D01*
X4826004Y9210066D01*
G37*
G36*
X5179557Y8856512D02*
X4967425Y9068644D01*
X6063441Y10164660D01*
X6275573Y9952528D01*
X5179557Y8856512D01*
X5179557Y8856512D01*
G37*
G36*
X5533110Y8502959D02*
X5320978Y8715091D01*
X6416994Y9811107D01*
X6629126Y9598975D01*
X5533110Y8502959D01*
X5533110Y8502959D01*
G37*
G36*
X5886664Y8149405D02*
X5674532Y8361537D01*
X6770548Y9457553D01*
X6982680Y9245421D01*
X5886664Y8149405D01*
X5886664Y8149405D01*
G37*
G36*
X6240217Y7795852D02*
X6028085Y8007984D01*
X7124101Y9104000D01*
X7336233Y8891868D01*
X6240217Y7795852D01*
X6240217Y7795852D01*
G37*
G36*
X6593770Y7442299D02*
X6381638Y7654431D01*
X7477654Y8750447D01*
X7689786Y8538315D01*
X6593770Y7442299D01*
X6593770Y7442299D01*
G37*
G36*
X6947324Y7088745D02*
X6735192Y7300877D01*
X7831208Y8396893D01*
X8043340Y8184761D01*
X6947324Y7088745D01*
X6947324Y7088745D01*
G37*
G36*
X7300877Y6735192D02*
X7088745Y6947324D01*
X8184761Y8043340D01*
X8396893Y7831208D01*
X7300877Y6735192D01*
X7300877Y6735192D01*
G37*
G36*
X7654431Y6381638D02*
X7442299Y6593770D01*
X8538315Y7689786D01*
X8750447Y7477654D01*
X7654431Y6381638D01*
X7654431Y6381638D01*
G37*
G36*
X8007984Y6028085D02*
X7795852Y6240217D01*
X8891868Y7336233D01*
X9104000Y7124101D01*
X8007984Y6028085D01*
X8007984Y6028085D01*
G37*
G36*
X8361537Y5674532D02*
X8149405Y5886664D01*
X9245421Y6982680D01*
X9457553Y6770548D01*
X8361537Y5674532D01*
X8361537Y5674532D01*
G37*
G36*
X8715091Y5320978D02*
X8502959Y5533110D01*
X9598975Y6629126D01*
X9811107Y6416994D01*
X8715091Y5320978D01*
X8715091Y5320978D01*
G37*
G36*
X9068644Y4967425D02*
X8856512Y5179557D01*
X9952528Y6275573D01*
X10164660Y6063441D01*
X9068644Y4967425D01*
X9068644Y4967425D01*
G37*
G36*
X9422198Y4613872D02*
X9210066Y4826004D01*
X10306082Y5922020D01*
X10518214Y5709888D01*
X9422198Y4613872D01*
X9422198Y4613872D01*
G37*
G36*
X9775751Y4260318D02*
X9563619Y4472450D01*
X10659635Y5568466D01*
X10871767Y5356334D01*
X9775751Y4260318D01*
X9775751Y4260318D01*
G37*
G36*
X10129304Y3906765D02*
X9917172Y4118897D01*
X11013188Y5214913D01*
X11225320Y5002781D01*
X10129304Y3906765D01*
X10129304Y3906765D01*
G37*
G36*
X10482858Y3553211D02*
X10270726Y3765343D01*
X11366742Y4861359D01*
X11578874Y4649227D01*
X10482858Y3553211D01*
X10482858Y3553211D01*
G37*
G36*
X10836411Y3199658D02*
X10624279Y3411790D01*
X11720295Y4507806D01*
X11932427Y4295674D01*
X10836411Y3199658D01*
X10836411Y3199658D01*
G37*
G36*
X11189965Y2846105D02*
X10977833Y3058237D01*
X12073849Y4154253D01*
X12285981Y3942121D01*
X11189965Y2846105D01*
X11189965Y2846105D01*
G37*
G36*
X11543518Y2492551D02*
X11331386Y2704683D01*
X12427402Y3800699D01*
X12639534Y3588567D01*
X11543518Y2492551D01*
X11543518Y2492551D01*
G37*
G36*
X11897071Y2138998D02*
X11684939Y2351130D01*
X12780955Y3447146D01*
X12993087Y3235014D01*
X11897071Y2138998D01*
X11897071Y2138998D01*
G37*
G36*
X12250625Y1785444D02*
X12038493Y1997576D01*
X13134509Y3093592D01*
X13346641Y2881460D01*
X12250625Y1785444D01*
X12250625Y1785444D01*
G37*
G36*
X12604178Y1431891D02*
X12392046Y1644023D01*
X13488062Y2740039D01*
X13700194Y2527907D01*
X12604178Y1431891D01*
X12604178Y1431891D01*
G37*
G36*
X12957732Y1078338D02*
X12745600Y1290470D01*
X13841616Y2386486D01*
X14053748Y2174354D01*
X12957732Y1078338D01*
X12957732Y1078338D01*
G37*
G36*
X13311285Y724784D02*
X13099153Y936916D01*
X14195169Y2032932D01*
X14407301Y1820800D01*
X13311285Y724784D01*
X13311285Y724784D01*
G37*
G36*
X23683598Y-16973155D02*
X23259334Y-17397419D01*
X22198674Y-16336759D01*
X22622938Y-15912495D01*
X23683598Y-16973155D01*
X23683598Y-16973155D01*
G37*
G36*
X22785573Y-17871181D02*
X22361309Y-18295445D01*
X21300649Y-17234785D01*
X21724913Y-16810521D01*
X22785573Y-17871181D01*
X22785573Y-17871181D01*
G37*
G36*
X21887547Y-18769206D02*
X21463283Y-19193470D01*
X20402623Y-18132810D01*
X20826887Y-17708546D01*
X21887547Y-18769206D01*
X21887547Y-18769206D01*
G37*
G36*
X20989521Y-19667232D02*
X20565257Y-20091496D01*
X19504597Y-19030836D01*
X19928861Y-18606572D01*
X20989521Y-19667232D01*
X20989521Y-19667232D01*
G37*
G36*
X20091496Y-20565257D02*
X19667232Y-20989521D01*
X18606572Y-19928861D01*
X19030836Y-19504597D01*
X20091496Y-20565257D01*
X20091496Y-20565257D01*
G37*
G36*
X19193470Y-21463283D02*
X18769206Y-21887547D01*
X17708546Y-20826887D01*
X18132810Y-20402623D01*
X19193470Y-21463283D01*
X19193470Y-21463283D01*
G37*
G36*
X18295445Y-22361309D02*
X17871181Y-22785573D01*
X16810521Y-21724913D01*
X17234785Y-21300649D01*
X18295445Y-22361309D01*
X18295445Y-22361309D01*
G37*
G36*
X17397419Y-23259334D02*
X16973155Y-23683598D01*
X15912495Y-22622938D01*
X16336759Y-22198674D01*
X17397419Y-23259334D01*
X17397419Y-23259334D01*
G37*
G36*
X10821326Y-16683241D02*
X10397062Y-17107505D01*
X9336402Y-16046845D01*
X9760666Y-15622581D01*
X10821326Y-16683241D01*
X10821326Y-16683241D01*
G37*
G36*
X11719351Y-15785215D02*
X11295087Y-16209479D01*
X10234427Y-15148819D01*
X10658691Y-14724555D01*
X11719351Y-15785215D01*
X11719351Y-15785215D01*
G37*
G36*
X12617377Y-14887190D02*
X12193113Y-15311454D01*
X11132453Y-14250794D01*
X11556717Y-13826530D01*
X12617377Y-14887190D01*
X12617377Y-14887190D01*
G37*
G36*
X13515403Y-13989164D02*
X13091139Y-14413428D01*
X12030479Y-13352768D01*
X12454743Y-12928504D01*
X13515403Y-13989164D01*
X13515403Y-13989164D01*
G37*
G36*
X14413428Y-13091139D02*
X13989164Y-13515403D01*
X12928504Y-12454743D01*
X13352768Y-12030479D01*
X14413428Y-13091139D01*
X14413428Y-13091139D01*
G37*
G36*
X15311454Y-12193113D02*
X14887190Y-12617377D01*
X13826530Y-11556717D01*
X14250794Y-11132453D01*
X15311454Y-12193113D01*
X15311454Y-12193113D01*
G37*
G36*
X16209479Y-11295087D02*
X15785215Y-11719351D01*
X14724555Y-10658691D01*
X15148819Y-10234427D01*
X16209479Y-11295087D01*
X16209479Y-11295087D01*
G37*
G36*
X17107505Y-10397062D02*
X16683241Y-10821326D01*
X15622581Y-9760666D01*
X16046845Y-9336402D01*
X17107505Y-10397062D01*
X17107505Y-10397062D01*
G37*
D11*
X2700000Y-16510000D03*
X2700000Y-17780000D03*
X2700000Y-19050000D03*
X2700000Y-20320000D03*
X-2700000Y-20320000D03*
X-2700000Y-19050000D03*
X-2700000Y-17780000D03*
X-2700000Y-16510000D03*
D12*
X6670040Y-26050240D03*
X6670040Y-25400000D03*
X6670040Y-24749760D03*
X8569960Y-24749760D03*
X8569960Y-25400000D03*
X8569960Y-26050240D03*
X1590040Y-26050240D03*
X1590040Y-25400000D03*
X1590040Y-24749760D03*
X3489960Y-24749760D03*
X3489960Y-25400000D03*
X3489960Y-26050240D03*
X-3489960Y-26050240D03*
X-3489960Y-25400000D03*
X-3489960Y-24749760D03*
X-1590040Y-24749760D03*
X-1590040Y-25400000D03*
X-1590040Y-26050240D03*
D13*
X-16510000Y-2700000D03*
X-17780000Y-2700000D03*
X-19050000Y-2700000D03*
X-20320000Y-2700000D03*
X-20320000Y2700000D03*
X-19050000Y2700000D03*
X-17780000Y2700000D03*
X-16510000Y2700000D03*
D14*
X-26050240Y-6670040D03*
X-25400000Y-6670040D03*
X-24749760Y-6670040D03*
X-24749760Y-8569960D03*
X-25400000Y-8569960D03*
X-26050240Y-8569960D03*
X-26050240Y-1590040D03*
X-25400000Y-1590040D03*
X-24749760Y-1590040D03*
X-24749760Y-3489960D03*
X-25400000Y-3489960D03*
X-26050240Y-3489960D03*
X-26050240Y3489960D03*
X-25400000Y3489960D03*
X-24749760Y3489960D03*
X-24749760Y1590040D03*
X-25400000Y1590040D03*
X-26050240Y1590040D03*
X-26050240Y8569960D03*
X-25400000Y8569960D03*
X-24749760Y8569960D03*
X-24749760Y6670040D03*
X-25400000Y6670040D03*
X-26050240Y6670040D03*
D11*
X-2700000Y16510000D03*
X-2700000Y17780000D03*
X-2700000Y19050000D03*
X-2700000Y20320000D03*
X2700000Y20320000D03*
X2700000Y19050000D03*
X2700000Y17780000D03*
X2700000Y16510000D03*
D12*
X-6670040Y26050240D03*
X-6670040Y25400000D03*
X-6670040Y24749760D03*
X-8569960Y24749760D03*
X-8569960Y25400000D03*
X-8569960Y26050240D03*
X-1590040Y26050240D03*
X-1590040Y25400000D03*
X-1590040Y24749760D03*
X-3489960Y24749760D03*
X-3489960Y25400000D03*
X-3489960Y26050240D03*
X3489960Y26050240D03*
X3489960Y25400000D03*
X3489960Y24749760D03*
X1590040Y24749760D03*
X1590040Y25400000D03*
X1590040Y26050240D03*
X8569960Y26050240D03*
X8569960Y25400000D03*
X8569960Y24749760D03*
X6670040Y24749760D03*
X6670040Y25400000D03*
X6670040Y26050240D03*
D13*
X16510000Y2700000D03*
X17780000Y2700000D03*
X19050000Y2700000D03*
X20320000Y2700000D03*
X20320000Y-2700000D03*
X19050000Y-2700000D03*
X17780000Y-2700000D03*
X16510000Y-2700000D03*
D14*
X26050240Y6670040D03*
X25400000Y6670040D03*
X24749760Y6670040D03*
X24749760Y8569960D03*
X25400000Y8569960D03*
X26050240Y8569960D03*
X26050240Y1590040D03*
X25400000Y1590040D03*
X24749760Y1590040D03*
X24749760Y3489960D03*
X25400000Y3489960D03*
X26050240Y3489960D03*
X26050240Y-3489960D03*
X25400000Y-3489960D03*
X24749760Y-3489960D03*
X24749760Y-1590040D03*
X25400000Y-1590040D03*
X26050240Y-1590040D03*
X26050240Y-8569960D03*
X25400000Y-8569960D03*
X24749760Y-8569960D03*
X24749760Y-6670040D03*
X25400000Y-6670040D03*
X26050240Y-6670040D03*
D10*
G36*
X5822182Y11274264D02*
X6175736Y11627818D01*
X6600000Y11203554D01*
X6246446Y10850000D01*
X5822182Y11274264D01*
X5822182Y11274264D01*
G37*
G36*
X6600000Y10496446D02*
X6953554Y10850000D01*
X7377818Y10425736D01*
X7024264Y10072182D01*
X6600000Y10496446D01*
X6600000Y10496446D01*
G37*
G36*
X-13924264Y-6027818D02*
X-14277818Y-5674264D01*
X-13853554Y-5250000D01*
X-13500000Y-5603554D01*
X-13924264Y-6027818D01*
X-13924264Y-6027818D01*
G37*
G36*
X-13146446Y-5250000D02*
X-13500000Y-4896446D01*
X-13075736Y-4472182D01*
X-12722182Y-4825736D01*
X-13146446Y-5250000D01*
X-13146446Y-5250000D01*
G37*
G36*
X-15424264Y-4527818D02*
X-15777818Y-4174264D01*
X-15353554Y-3750000D01*
X-15000000Y-4103554D01*
X-15424264Y-4527818D01*
X-15424264Y-4527818D01*
G37*
G36*
X-14646446Y-3750000D02*
X-15000000Y-3396446D01*
X-14575736Y-2972182D01*
X-14222182Y-3325736D01*
X-14646446Y-3750000D01*
X-14646446Y-3750000D01*
G37*
G36*
X-5250264Y15097182D02*
X-5603818Y15450736D01*
X-5179554Y15875000D01*
X-4826000Y15521446D01*
X-5250264Y15097182D01*
X-5250264Y15097182D01*
G37*
G36*
X-4472446Y15875000D02*
X-4826000Y16228554D01*
X-4401736Y16652818D01*
X-4048182Y16299264D01*
X-4472446Y15875000D01*
X-4472446Y15875000D01*
G37*
G36*
X-9474264Y8422182D02*
X-9827818Y8775736D01*
X-9403554Y9200000D01*
X-9050000Y8846446D01*
X-9474264Y8422182D01*
X-9474264Y8422182D01*
G37*
G36*
X-8696446Y9200000D02*
X-9050000Y9553554D01*
X-8625736Y9977818D01*
X-8272182Y9624264D01*
X-8696446Y9200000D01*
X-8696446Y9200000D01*
G37*
G36*
X10203264Y-6969182D02*
X10556818Y-7322736D01*
X10132554Y-7747000D01*
X9779000Y-7393446D01*
X10203264Y-6969182D01*
X10203264Y-6969182D01*
G37*
G36*
X9425446Y-7747000D02*
X9779000Y-8100554D01*
X9354736Y-8524818D01*
X9001182Y-8171264D01*
X9425446Y-7747000D01*
X9425446Y-7747000D01*
G37*
G36*
X5224264Y-11872182D02*
X5577818Y-12225736D01*
X5153554Y-12650000D01*
X4800000Y-12296446D01*
X5224264Y-11872182D01*
X5224264Y-11872182D01*
G37*
G36*
X4446446Y-12650000D02*
X4800000Y-13003554D01*
X4375736Y-13427818D01*
X4022182Y-13074264D01*
X4446446Y-12650000D01*
X4446446Y-12650000D01*
G37*
G36*
X13700182Y3472264D02*
X14053736Y3825818D01*
X14478000Y3401554D01*
X14124446Y3048000D01*
X13700182Y3472264D01*
X13700182Y3472264D01*
G37*
G36*
X14478000Y2694446D02*
X14831554Y3048000D01*
X15255818Y2623736D01*
X14902264Y2270182D01*
X14478000Y2694446D01*
X14478000Y2694446D01*
G37*
G36*
X-2270182Y-14902264D02*
X-2623736Y-15255818D01*
X-3048000Y-14831554D01*
X-2694446Y-14478000D01*
X-2270182Y-14902264D01*
X-2270182Y-14902264D01*
G37*
G36*
X-3048000Y-14124446D02*
X-3401554Y-14478000D01*
X-3825818Y-14053736D01*
X-3472264Y-13700182D01*
X-3048000Y-14124446D01*
X-3048000Y-14124446D01*
G37*
G36*
X9763182Y7409264D02*
X10116736Y7762818D01*
X10541000Y7338554D01*
X10187446Y6985000D01*
X9763182Y7409264D01*
X9763182Y7409264D01*
G37*
G36*
X10541000Y6631446D02*
X10894554Y6985000D01*
X11318818Y6560736D01*
X10965264Y6207182D01*
X10541000Y6631446D01*
X10541000Y6631446D01*
G37*
G36*
X-6969182Y-10203264D02*
X-7322736Y-10556818D01*
X-7747000Y-10132554D01*
X-7393446Y-9779000D01*
X-6969182Y-10203264D01*
X-6969182Y-10203264D01*
G37*
G36*
X-7747000Y-9425446D02*
X-8100554Y-9779000D01*
X-8524818Y-9354736D01*
X-8171264Y-9001182D01*
X-7747000Y-9425446D01*
X-7747000Y-9425446D01*
G37*
G36*
X-17528977Y-24615855D02*
X-17069358Y-25075474D01*
X-17818891Y-25825007D01*
X-18278510Y-25365388D01*
X-17528977Y-24615855D01*
X-17528977Y-24615855D01*
G37*
G36*
X-16857226Y-25287607D02*
X-16397607Y-25747226D01*
X-17147140Y-26496759D01*
X-17606759Y-26037140D01*
X-16857226Y-25287607D01*
X-16857226Y-25287607D01*
G37*
G36*
X-16185474Y-25959358D02*
X-15725855Y-26418977D01*
X-16475388Y-27168510D01*
X-16935007Y-26708891D01*
X-16185474Y-25959358D01*
X-16185474Y-25959358D01*
G37*
G36*
X-17741109Y-27514993D02*
X-17281490Y-27974612D01*
X-18031023Y-28724145D01*
X-18490642Y-28264526D01*
X-17741109Y-27514993D01*
X-17741109Y-27514993D01*
G37*
G36*
X-19084612Y-26171490D02*
X-18624993Y-26631109D01*
X-19374526Y-27380642D01*
X-19834145Y-26921023D01*
X-19084612Y-26171490D01*
X-19084612Y-26171490D01*
G37*
G36*
X-18412860Y-26843241D02*
X-17953241Y-27302860D01*
X-18702774Y-28052393D01*
X-19162393Y-27592774D01*
X-18412860Y-26843241D01*
X-18412860Y-26843241D01*
G37*
G36*
X-24554264Y17002182D02*
X-24907818Y17355736D01*
X-24483554Y17780000D01*
X-24130000Y17426446D01*
X-24554264Y17002182D01*
X-24554264Y17002182D01*
G37*
G36*
X-23776446Y17780000D02*
X-24130000Y18133554D01*
X-23705736Y18557818D01*
X-23352182Y18204264D01*
X-23776446Y17780000D01*
X-23776446Y17780000D01*
G37*
G36*
X24554264Y-17002182D02*
X24907818Y-17355736D01*
X24483554Y-17780000D01*
X24130000Y-17426446D01*
X24554264Y-17002182D01*
X24554264Y-17002182D01*
G37*
G36*
X23776446Y-17780000D02*
X24130000Y-18133554D01*
X23705736Y-18557818D01*
X23352182Y-18204264D01*
X23776446Y-17780000D01*
X23776446Y-17780000D01*
G37*
G36*
X-15664264Y8112182D02*
X-16017818Y8465736D01*
X-15593554Y8890000D01*
X-15240000Y8536446D01*
X-15664264Y8112182D01*
X-15664264Y8112182D01*
G37*
G36*
X-14886446Y8890000D02*
X-15240000Y9243554D01*
X-14815736Y9667818D01*
X-14462182Y9314264D01*
X-14886446Y8890000D01*
X-14886446Y8890000D01*
G37*
G36*
X15664264Y-8112182D02*
X16017818Y-8465736D01*
X15593554Y-8890000D01*
X15240000Y-8536446D01*
X15664264Y-8112182D01*
X15664264Y-8112182D01*
G37*
G36*
X14886446Y-8890000D02*
X15240000Y-9243554D01*
X14815736Y-9667818D01*
X14462182Y-9314264D01*
X14886446Y-8890000D01*
X14886446Y-8890000D01*
G37*
D12*
X-8569960Y-26050240D03*
X-8569960Y-25400000D03*
X-8569960Y-24749760D03*
X-6670040Y-24749760D03*
X-6670040Y-25400000D03*
X-6670040Y-26050240D03*
D10*
G36*
X-21171118Y-23293711D02*
X-21453960Y-23010869D01*
X-20499366Y-22056275D01*
X-20216524Y-22339117D01*
X-21171118Y-23293711D01*
X-21171118Y-23293711D01*
G37*
G36*
X-21630738Y-22834091D02*
X-21913580Y-22551249D01*
X-20958986Y-21596655D01*
X-20676144Y-21879497D01*
X-21630738Y-22834091D01*
X-21630738Y-22834091D01*
G37*
G36*
X-22090357Y-22374472D02*
X-22373199Y-22091630D01*
X-21418605Y-21137036D01*
X-21135763Y-21419878D01*
X-22090357Y-22374472D01*
X-22090357Y-22374472D01*
G37*
G36*
X-22549976Y-21914852D02*
X-22832818Y-21632010D01*
X-21878224Y-20677416D01*
X-21595382Y-20960258D01*
X-22549976Y-21914852D01*
X-22549976Y-21914852D01*
G37*
G36*
X-23009596Y-21455233D02*
X-23292438Y-21172391D01*
X-22337844Y-20217797D01*
X-22055002Y-20500639D01*
X-23009596Y-21455233D01*
X-23009596Y-21455233D01*
G37*
G36*
X-11424264Y5622182D02*
X-11777818Y5975736D01*
X-11353554Y6400000D01*
X-11000000Y6046446D01*
X-11424264Y5622182D01*
X-11424264Y5622182D01*
G37*
G36*
X-10646446Y6400000D02*
X-11000000Y6753554D01*
X-10575736Y7177818D01*
X-10222182Y6824264D01*
X-10646446Y6400000D01*
X-10646446Y6400000D01*
G37*
G36*
X5424264Y-15172182D02*
X5777818Y-15525736D01*
X5353554Y-15950000D01*
X5000000Y-15596446D01*
X5424264Y-15172182D01*
X5424264Y-15172182D01*
G37*
G36*
X4646446Y-15950000D02*
X5000000Y-16303554D01*
X4575736Y-16727818D01*
X4222182Y-16374264D01*
X4646446Y-15950000D01*
X4646446Y-15950000D01*
G37*
G36*
X5924264Y-15672182D02*
X6277818Y-16025736D01*
X5853554Y-16450000D01*
X5500000Y-16096446D01*
X5924264Y-15672182D01*
X5924264Y-15672182D01*
G37*
G36*
X5146446Y-16450000D02*
X5500000Y-16803554D01*
X5075736Y-17227818D01*
X4722182Y-16874264D01*
X5146446Y-16450000D01*
X5146446Y-16450000D01*
G37*
G36*
X5174264Y-13322182D02*
X5527818Y-13675736D01*
X5103554Y-14100000D01*
X4750000Y-13746446D01*
X5174264Y-13322182D01*
X5174264Y-13322182D01*
G37*
G36*
X4396446Y-14100000D02*
X4750000Y-14453554D01*
X4325736Y-14877818D01*
X3972182Y-14524264D01*
X4396446Y-14100000D01*
X4396446Y-14100000D01*
G37*
G36*
X5674264Y-13822182D02*
X6027818Y-14175736D01*
X5603554Y-14600000D01*
X5250000Y-14246446D01*
X5674264Y-13822182D01*
X5674264Y-13822182D01*
G37*
G36*
X4896446Y-14600000D02*
X5250000Y-14953554D01*
X4825736Y-15377818D01*
X4472182Y-15024264D01*
X4896446Y-14600000D01*
X4896446Y-14600000D01*
G37*
D15*
X-3822000Y14097000D03*
X-5322000Y14097000D03*
D10*
G36*
X-13675992Y-3366662D02*
X-13145662Y-3896992D01*
X-13711348Y-4462678D01*
X-14241678Y-3932348D01*
X-13675992Y-3366662D01*
X-13675992Y-3366662D01*
G37*
G36*
X-14736652Y-4427322D02*
X-14206322Y-4957652D01*
X-14772008Y-5523338D01*
X-15302338Y-4993008D01*
X-14736652Y-4427322D01*
X-14736652Y-4427322D01*
G37*
G36*
X-5628008Y16193662D02*
X-6158338Y16723992D01*
X-5592652Y17289678D01*
X-5062322Y16759348D01*
X-5628008Y16193662D01*
X-5628008Y16193662D01*
G37*
G36*
X-4567348Y17254322D02*
X-5097678Y17784652D01*
X-4531992Y18350338D01*
X-4001662Y17820008D01*
X-4567348Y17254322D01*
X-4567348Y17254322D01*
G37*
G36*
X-28785736Y-15732182D02*
X-28432182Y-16085736D01*
X-28856446Y-16510000D01*
X-29210000Y-16156446D01*
X-28785736Y-15732182D01*
X-28785736Y-15732182D01*
G37*
G36*
X-29563554Y-16510000D02*
X-29210000Y-16863554D01*
X-29634264Y-17287818D01*
X-29987818Y-16934264D01*
X-29563554Y-16510000D01*
X-29563554Y-16510000D01*
G37*
G36*
X-20382338Y-28026992D02*
X-19852008Y-27496662D01*
X-19286322Y-28062348D01*
X-19816652Y-28592678D01*
X-20382338Y-28026992D01*
X-20382338Y-28026992D01*
G37*
G36*
X-19321678Y-29087652D02*
X-18791348Y-28557322D01*
X-18225662Y-29123008D01*
X-18755992Y-29653338D01*
X-19321678Y-29087652D01*
X-19321678Y-29087652D01*
G37*
G36*
X-25542818Y-16085736D02*
X-25189264Y-15732182D01*
X-24765000Y-16156446D01*
X-25118554Y-16510000D01*
X-25542818Y-16085736D01*
X-25542818Y-16085736D01*
G37*
G36*
X-24765000Y-16863554D02*
X-24411446Y-16510000D01*
X-23987182Y-16934264D01*
X-24340736Y-17287818D01*
X-24765000Y-16863554D01*
X-24765000Y-16863554D01*
G37*
G36*
X-26921023Y-19834145D02*
X-27380642Y-19374526D01*
X-26631109Y-18624993D01*
X-26171490Y-19084612D01*
X-26921023Y-19834145D01*
X-26921023Y-19834145D01*
G37*
G36*
X-27592774Y-19162393D02*
X-28052393Y-18702774D01*
X-27302860Y-17953241D01*
X-26843241Y-18412860D01*
X-27592774Y-19162393D01*
X-27592774Y-19162393D01*
G37*
G36*
X-28264526Y-18490642D02*
X-28724145Y-18031023D01*
X-27974612Y-17281490D01*
X-27514993Y-17741109D01*
X-28264526Y-18490642D01*
X-28264526Y-18490642D01*
G37*
G36*
X-26708891Y-16935007D02*
X-27168510Y-16475388D01*
X-26418977Y-15725855D01*
X-25959358Y-16185474D01*
X-26708891Y-16935007D01*
X-26708891Y-16935007D01*
G37*
G36*
X-25365388Y-18278510D02*
X-25825007Y-17818891D01*
X-25075474Y-17069358D01*
X-24615855Y-17528977D01*
X-25365388Y-18278510D01*
X-25365388Y-18278510D01*
G37*
G36*
X33181148Y14900589D02*
X31979066Y13698507D01*
X31342670Y14334903D01*
X32544752Y15536985D01*
X33181148Y14900589D01*
X33181148Y14900589D01*
G37*
G36*
X30776985Y17304752D02*
X29574903Y16102670D01*
X28938507Y16739066D01*
X30140589Y17941148D01*
X30776985Y17304752D01*
X30776985Y17304752D01*
G37*
G36*
X30571923Y14766238D02*
X29794106Y13988421D01*
X29228421Y14554106D01*
X30006238Y15331923D01*
X30571923Y14766238D01*
X30571923Y14766238D01*
G37*
G36*
X-17941148Y-30140589D02*
X-16739066Y-28938507D01*
X-16102670Y-29574903D01*
X-17304752Y-30776985D01*
X-17941148Y-30140589D01*
X-17941148Y-30140589D01*
G37*
G36*
X-15536985Y-32544752D02*
X-14334903Y-31342670D01*
X-13698507Y-31979066D01*
X-14900589Y-33181148D01*
X-15536985Y-32544752D01*
X-15536985Y-32544752D01*
G37*
G36*
X-15331923Y-30006238D02*
X-14554106Y-29228421D01*
X-13988421Y-29794106D01*
X-14766238Y-30571923D01*
X-15331923Y-30006238D01*
X-15331923Y-30006238D01*
G37*
G36*
X25183679Y20604239D02*
X26385761Y21806321D01*
X27022157Y21169925D01*
X25820075Y19967843D01*
X25183679Y20604239D01*
X25183679Y20604239D01*
G37*
G36*
X27587843Y18200075D02*
X28789925Y19402157D01*
X29426321Y18765761D01*
X28224239Y17563679D01*
X27587843Y18200075D01*
X27587843Y18200075D01*
G37*
M02*
