G04 #@! TF.FileFunction,Other,Comment*
%FSLAX46Y46*%
G04 Gerber Fmt 4.6, Leading zero omitted, Abs format (unit mm)*
G04 Created by KiCad (PCBNEW 4.0.6-e0-6349~53~ubuntu14.04.1) date Fri Mar 31 13:28:52 2017*
%MOMM*%
%LPD*%
G01*
G04 APERTURE LIST*
%ADD10C,0.100000*%
%ADD11C,0.200000*%
%ADD12C,0.150000*%
G04 APERTURE END LIST*
D10*
D11*
X0Y0D02*
X35000000Y0D01*
X0Y0D02*
X-34925000Y0D01*
X0Y0D02*
X-24765000Y-24765000D01*
X0Y0D02*
X0Y-34925000D01*
X0Y0D02*
X24765000Y-24765000D01*
X0Y0D02*
X24765000Y24765000D01*
X14500000Y35000000D02*
X-14500000Y35000000D01*
X35000000Y14500000D02*
X14500000Y35000000D01*
X35000000Y-14500000D02*
X35000000Y14500000D01*
X14500000Y-35000000D02*
X35000000Y-14500000D01*
X-14500000Y-35000000D02*
X14500000Y-35000000D01*
X-35000000Y-14500000D02*
X-14500000Y-35000000D01*
X-35000000Y14500000D02*
X-35000000Y-14500000D01*
X-14500000Y35000000D02*
X-35000000Y14500000D01*
X0Y0D02*
X-24750000Y24750000D01*
X0Y0D02*
X0Y35000000D01*
D12*
X30325000Y-17780000D02*
G75*
G03X30325000Y-17780000I-1750000J0D01*
G01*
X-26825000Y17780000D02*
G75*
G03X-26825000Y17780000I-1750000J0D01*
G01*
X19530000Y-28575000D02*
G75*
G03X19530000Y-28575000I-1750000J0D01*
G01*
X-16030000Y28575000D02*
G75*
G03X-16030000Y28575000I-1750000J0D01*
G01*
M02*
