G04 #@! TF.FileFunction,Legend,Bot*
%FSLAX46Y46*%
G04 Gerber Fmt 4.6, Leading zero omitted, Abs format (unit mm)*
G04 Created by KiCad (PCBNEW 4.0.6-e0-6349~53~ubuntu14.04.1) date Mon Apr  3 22:35:51 2017*
%MOMM*%
%LPD*%
G01*
G04 APERTURE LIST*
%ADD10C,0.200000*%
%ADD11C,0.150000*%
%ADD12C,0.120000*%
G04 APERTURE END LIST*
D10*
D11*
X-9578051Y-12082214D02*
G75*
G03X-9578051Y-12082214I-100000J0D01*
G01*
X-9465918Y-11516528D02*
X-9819472Y-11870082D01*
X-11516528Y-9465918D02*
X-9465918Y-11516528D01*
X-11870082Y-9819472D02*
X-11516528Y-9465918D01*
X-9819472Y-11870082D02*
X-11870082Y-9819472D01*
X19685000Y22725559D02*
X19313769Y22354328D01*
X19685000Y16644441D02*
X20056231Y17015672D01*
X16644441Y19685000D02*
X17015672Y20056231D01*
X22725559Y19685000D02*
X22354328Y20056231D01*
X19685000Y16644441D02*
X19313769Y17015672D01*
X16644441Y19685000D02*
X17015672Y19313769D01*
X19685000Y22725559D02*
X20056231Y22354328D01*
X-23015382Y15484695D02*
X-22764359Y15735718D01*
X-17535305Y10004618D02*
X-17284282Y10255641D01*
X-10004618Y17535305D02*
X-10255641Y17284282D01*
X-15484695Y23015382D02*
X-15735718Y22764359D01*
X-23015382Y15484695D02*
X-17535305Y10004618D01*
X-15484695Y23015382D02*
X-10004618Y17535305D01*
X-22764359Y15735718D02*
X-23842697Y16814056D01*
X-15802893Y-22873961D02*
X-22873961Y-15802893D01*
X-22873961Y-15802893D02*
X-17217107Y-10146039D01*
X-17217107Y-10146039D02*
X-10146039Y-17217107D01*
X-10146039Y-17217107D02*
X-15802893Y-22873961D01*
X14389623Y0D02*
X13647161Y-742462D01*
X0Y14389623D02*
X-742462Y13647161D01*
X-14389623Y0D02*
X-13647161Y742462D01*
X0Y-14389623D02*
X742462Y-13647161D01*
X14389623Y0D02*
X13647161Y742462D01*
X0Y-14389623D02*
X-742462Y-13647161D01*
X-14389623Y0D02*
X-13647161Y-742462D01*
X0Y14389623D02*
X742462Y13647161D01*
X13647161Y-742462D02*
X14566400Y-1661701D01*
X23015382Y-15484695D02*
X22764359Y-15735718D01*
X17535305Y-10004618D02*
X17284282Y-10255641D01*
X10004618Y-17535305D02*
X10255641Y-17284282D01*
X15484695Y-23015382D02*
X15735718Y-22764359D01*
X23015382Y-15484695D02*
X17535305Y-10004618D01*
X15484695Y-23015382D02*
X10004618Y-17535305D01*
X22764359Y-15735718D02*
X23842697Y-16814056D01*
X2075000Y-15205000D02*
X2075000Y-15350000D01*
X-2075000Y-15205000D02*
X-2075000Y-15350000D01*
X-2075000Y-20355000D02*
X-2075000Y-20210000D01*
X2075000Y-20355000D02*
X2075000Y-20210000D01*
X2075000Y-15205000D02*
X-2075000Y-15205000D01*
X2075000Y-20355000D02*
X-2075000Y-20355000D01*
X2075000Y-15350000D02*
X3475000Y-15350000D01*
X8999220Y-26730960D02*
X8389620Y-26730960D01*
X8389620Y-26730960D02*
X8379460Y-26299160D01*
X3919220Y-26730960D02*
X3309620Y-26730960D01*
X3309620Y-26730960D02*
X3299460Y-26299160D01*
X-1160780Y-26730960D02*
X-1770380Y-26730960D01*
X-1770380Y-26730960D02*
X-1780540Y-26299160D01*
X-15205000Y-2075000D02*
X-15350000Y-2075000D01*
X-15205000Y2075000D02*
X-15350000Y2075000D01*
X-20355000Y2075000D02*
X-20210000Y2075000D01*
X-20355000Y-2075000D02*
X-20210000Y-2075000D01*
X-15205000Y-2075000D02*
X-15205000Y2075000D01*
X-20355000Y-2075000D02*
X-20355000Y2075000D01*
X-15350000Y-2075000D02*
X-15350000Y-3475000D01*
X-26730960Y-8999220D02*
X-26730960Y-8389620D01*
X-26730960Y-8389620D02*
X-26299160Y-8379460D01*
X-26730960Y-3919220D02*
X-26730960Y-3309620D01*
X-26730960Y-3309620D02*
X-26299160Y-3299460D01*
X-26730960Y1160780D02*
X-26730960Y1770380D01*
X-26730960Y1770380D02*
X-26299160Y1780540D01*
X-26730960Y6240780D02*
X-26730960Y6850380D01*
X-26730960Y6850380D02*
X-26299160Y6860540D01*
X-2075000Y15205000D02*
X-2075000Y15350000D01*
X2075000Y15205000D02*
X2075000Y15350000D01*
X2075000Y20355000D02*
X2075000Y20210000D01*
X-2075000Y20355000D02*
X-2075000Y20210000D01*
X-2075000Y15205000D02*
X2075000Y15205000D01*
X-2075000Y20355000D02*
X2075000Y20355000D01*
X-2075000Y15350000D02*
X-3475000Y15350000D01*
X-8999220Y26730960D02*
X-8389620Y26730960D01*
X-8389620Y26730960D02*
X-8379460Y26299160D01*
X-3919220Y26730960D02*
X-3309620Y26730960D01*
X-3309620Y26730960D02*
X-3299460Y26299160D01*
X1160780Y26730960D02*
X1770380Y26730960D01*
X1770380Y26730960D02*
X1780540Y26299160D01*
X6240780Y26730960D02*
X6850380Y26730960D01*
X6850380Y26730960D02*
X6860540Y26299160D01*
X15205000Y2075000D02*
X15350000Y2075000D01*
X15205000Y-2075000D02*
X15350000Y-2075000D01*
X20355000Y-2075000D02*
X20210000Y-2075000D01*
X20355000Y2075000D02*
X20210000Y2075000D01*
X15205000Y2075000D02*
X15205000Y-2075000D01*
X20355000Y2075000D02*
X20355000Y-2075000D01*
X15350000Y2075000D02*
X15350000Y3475000D01*
X26730960Y8999220D02*
X26730960Y8389620D01*
X26730960Y8389620D02*
X26299160Y8379460D01*
X26730960Y3919220D02*
X26730960Y3309620D01*
X26730960Y3309620D02*
X26299160Y3299460D01*
X26730960Y-1160780D02*
X26730960Y-1770380D01*
X26730960Y-1770380D02*
X26299160Y-1780540D01*
X26730960Y-6240780D02*
X26730960Y-6850380D01*
X26730960Y-6850380D02*
X26299160Y-6860540D01*
X6440901Y10337348D02*
X6087348Y10690901D01*
X6759099Y11362652D02*
X7112652Y11009099D01*
X-12987348Y-5409099D02*
X-13340901Y-5762652D01*
X-14012652Y-5090901D02*
X-13659099Y-4737348D01*
X-14487348Y-3909099D02*
X-14840901Y-4262652D01*
X-15512652Y-3590901D02*
X-15159099Y-3237348D01*
X-5711000Y15588000D02*
X-5211000Y15588000D01*
X-5211000Y14638000D02*
X-5711000Y14638000D01*
X-8537348Y9040901D02*
X-8890901Y8687348D01*
X-9562652Y9359099D02*
X-9209099Y9712652D01*
X9266348Y-7587901D02*
X9619901Y-7234348D01*
X10291652Y-7906099D02*
X9938099Y-8259652D01*
X4287348Y-12490901D02*
X4640901Y-12137348D01*
X5312652Y-12809099D02*
X4959099Y-13162652D01*
X13203348Y4477099D02*
X13556901Y4830652D01*
X14228652Y4158901D02*
X13875099Y3805348D01*
X-2888901Y-13965348D02*
X-2535348Y-14318901D01*
X-3207099Y-14990652D02*
X-3560652Y-14637099D01*
X10155348Y7525099D02*
X10508901Y7878652D01*
X11180652Y7206901D02*
X10827099Y6853348D01*
X-7968901Y-9520348D02*
X-7615348Y-9873901D01*
X-8287099Y-10545652D02*
X-8640652Y-10192099D01*
X-18599240Y-25185076D02*
G75*
G03X-18599240Y-25185076I-99999J0D01*
G01*
X-18982082Y-25821472D02*
X-18628528Y-25467918D01*
X-16931472Y-27872082D02*
X-18982082Y-25821472D01*
X-16577918Y-27518528D02*
X-16931472Y-27872082D01*
X-18628528Y-25467918D02*
X-16577918Y-27518528D01*
D12*
X-24255883Y17624437D02*
X-24609437Y17270883D01*
X-25274117Y17935563D02*
X-24920563Y18289117D01*
X23620883Y-17624437D02*
X23974437Y-17270883D01*
X24639117Y-17935563D02*
X24285563Y-18289117D01*
X-14857883Y8861437D02*
X-15211437Y8507883D01*
X-15876117Y9172563D02*
X-15522563Y9526117D01*
X14857883Y-8861437D02*
X15211437Y-8507883D01*
X15876117Y-9172563D02*
X15522563Y-9526117D01*
D11*
X-6240780Y-26730960D02*
X-6850380Y-26730960D01*
X-6850380Y-26730960D02*
X-6860540Y-26299160D01*
X-22482801Y-28635903D02*
X-28634630Y-22484074D01*
X-17953782Y-24106884D02*
X-24105611Y-17955055D01*
X-24105611Y-17955055D02*
X-28634630Y-22484074D01*
X-27764889Y-21614332D02*
X-21613060Y-27766161D01*
X-22482801Y-28635903D02*
X-17953782Y-24106884D01*
D12*
X-10490883Y6244437D02*
X-10844437Y5890883D01*
X-11509117Y6555563D02*
X-11155563Y6909117D01*
X5084000Y-14897000D02*
X5584000Y-14897000D01*
X5584000Y-15837000D02*
X5084000Y-15837000D01*
X5084000Y-15532000D02*
X5584000Y-15532000D01*
X5584000Y-16472000D02*
X5084000Y-16472000D01*
X5084000Y-13500000D02*
X5584000Y-13500000D01*
X5584000Y-14440000D02*
X5084000Y-14440000D01*
X5084000Y-14135000D02*
X5584000Y-14135000D01*
X5584000Y-15075000D02*
X5084000Y-15075000D01*
X-4222000Y14697000D02*
X-4922000Y14697000D01*
X-4922000Y13497000D02*
X-4222000Y13497000D01*
X-14400777Y-3773249D02*
X-14895751Y-4268223D01*
X-14047223Y-5116751D02*
X-13552249Y-4621777D01*
X-6694249Y-9602223D02*
X-7189223Y-9107249D01*
X-8037751Y-9955777D02*
X-7542777Y-10450751D01*
X-12269223Y-10323751D02*
X-11774249Y-9828777D01*
X-12622777Y-8980249D02*
X-13117751Y-9475223D01*
X-10491223Y-8545751D02*
X-9996249Y-8050777D01*
X-10844777Y-7202249D02*
X-11339751Y-7697223D01*
X-29719117Y-16354437D02*
X-29365563Y-16000883D01*
X-28700883Y-16665563D02*
X-29054437Y-17019117D01*
X-19975751Y-28751777D02*
X-19480777Y-29246751D01*
X-18632249Y-28398223D02*
X-19127223Y-27903249D01*
X-24920563Y-17019117D02*
X-25274117Y-16665563D01*
X-24609437Y-16000883D02*
X-24255883Y-16354437D01*
D11*
X-25580051Y-19194214D02*
G75*
G03X-25580051Y-19194214I-100000J0D01*
G01*
X-25467918Y-18628528D02*
X-25821472Y-18982082D01*
X-27518528Y-16577918D02*
X-25467918Y-18628528D01*
X-27872082Y-16931472D02*
X-27518528Y-16577918D01*
X-25821472Y-18982082D02*
X-27872082Y-16931472D01*
D12*
X-15084437Y-28700883D02*
X-14730883Y-29054437D01*
X-15395563Y-29719117D02*
X-15749117Y-29365563D01*
D11*
X29404454Y15788008D02*
X29758008Y15434454D01*
X29015546Y14691992D02*
X28661992Y15045546D01*
X-6771008Y-11108546D02*
X-6417454Y-10754992D01*
X-5674992Y-11497454D02*
X-6028546Y-11851008D01*
X-14772008Y-27999546D02*
X-14418454Y-27645992D01*
X-13675992Y-28388454D02*
X-14029546Y-28742008D01*
D12*
X31361091Y17819544D02*
X31573223Y18031676D01*
X31573223Y18031676D02*
X33906676Y15698223D01*
X33906676Y15698223D02*
X33694544Y15486091D01*
X29805456Y16263909D02*
X29593324Y16051777D01*
X29593324Y16051777D02*
X31926777Y13718324D01*
X31926777Y13718324D02*
X32138909Y13930456D01*
X-15486091Y-33694544D02*
X-15698223Y-33906676D01*
X-15698223Y-33906676D02*
X-18031676Y-31573223D01*
X-18031676Y-31573223D02*
X-17819544Y-31361091D01*
X-13930456Y-32138909D02*
X-13718324Y-31926777D01*
X-13718324Y-31926777D02*
X-16051777Y-29593324D01*
X-16051777Y-29593324D02*
X-16263909Y-29805456D01*
X-4918000Y18511000D02*
X-4918000Y17811000D01*
X-3718000Y17811000D02*
X-3718000Y18511000D01*
X-5804000Y18038000D02*
X-5804000Y18538000D01*
X-4864000Y18538000D02*
X-4864000Y18038000D01*
X3594000Y19181000D02*
X3594000Y19681000D01*
X4534000Y19681000D02*
X4534000Y19181000D01*
X5422000Y17264000D02*
X5422000Y16264000D01*
X3722000Y16264000D02*
X3722000Y17264000D01*
X-18511000Y-4918000D02*
X-17811000Y-4918000D01*
X-17811000Y-3718000D02*
X-18511000Y-3718000D01*
X-17911000Y-5804000D02*
X-18411000Y-5804000D01*
X-18411000Y-4864000D02*
X-17911000Y-4864000D01*
X-19181000Y3594000D02*
X-19681000Y3594000D01*
X-19681000Y4534000D02*
X-19181000Y4534000D01*
X-17264000Y5422000D02*
X-16264000Y5422000D01*
X-16264000Y3722000D02*
X-17264000Y3722000D01*
X4918000Y-18511000D02*
X4918000Y-17811000D01*
X3718000Y-17811000D02*
X3718000Y-18511000D01*
X5804000Y-17784000D02*
X5804000Y-18284000D01*
X4864000Y-18284000D02*
X4864000Y-17784000D01*
X-3594000Y-19054000D02*
X-3594000Y-19554000D01*
X-4534000Y-19554000D02*
X-4534000Y-19054000D01*
X-5422000Y-17264000D02*
X-5422000Y-16264000D01*
X-3722000Y-16264000D02*
X-3722000Y-17264000D01*
X18384000Y4791000D02*
X17684000Y4791000D01*
X17684000Y3591000D02*
X18384000Y3591000D01*
X17784000Y5677000D02*
X18284000Y5677000D01*
X18284000Y4737000D02*
X17784000Y4737000D01*
X19181000Y-3594000D02*
X19681000Y-3594000D01*
X19681000Y-4534000D02*
X19181000Y-4534000D01*
X17264000Y-5295000D02*
X16264000Y-5295000D01*
X16264000Y-3595000D02*
X17264000Y-3595000D01*
D11*
X-26730960Y11320780D02*
X-26730960Y11930380D01*
X-26730960Y11930380D02*
X-26299160Y11940540D01*
X26730960Y-11320780D02*
X26730960Y-11930380D01*
X26730960Y-11930380D02*
X26299160Y-11940540D01*
X10685780Y26730960D02*
X11295380Y26730960D01*
X11295380Y26730960D02*
X11305540Y26299160D01*
X-11320780Y-26730960D02*
X-11930380Y-26730960D01*
X-11930380Y-26730960D02*
X-11940540Y-26299160D01*
D12*
X17143883Y16538563D02*
X17497437Y16892117D01*
X18162117Y16227437D02*
X17808563Y15873883D01*
X17273117Y17116437D02*
X16919563Y16762883D01*
X16254883Y17427563D02*
X16608437Y17781117D01*
X16284563Y21972117D02*
X16638117Y21618563D01*
X15973437Y20953883D02*
X15619883Y21307437D01*
D11*
X-8748710Y-11580505D02*
X-8176290Y-12152925D01*
X-8142618Y-12253940D01*
X-8142618Y-12321283D01*
X-8176290Y-12422298D01*
X-8310978Y-12556986D01*
X-8411993Y-12590658D01*
X-8479336Y-12590658D01*
X-8580351Y-12556986D01*
X-9152771Y-11984566D01*
X-9388473Y-12354955D02*
X-9455817Y-12354955D01*
X-9556832Y-12388627D01*
X-9725191Y-12556986D01*
X-9758863Y-12658001D01*
X-9758863Y-12725345D01*
X-9725191Y-12826360D01*
X-9657848Y-12893703D01*
X-9523161Y-12961047D01*
X-8715038Y-12961047D01*
X-9152771Y-13398780D01*
X23334175Y21583245D02*
X22761756Y21010825D01*
X22660740Y20977153D01*
X22593397Y20977153D01*
X22492382Y21010825D01*
X22357694Y21145512D01*
X22324023Y21246528D01*
X22324023Y21313871D01*
X22357694Y21414886D01*
X22930114Y21987306D01*
X21515901Y21987306D02*
X21919962Y21583245D01*
X21717932Y21785275D02*
X22425038Y22492382D01*
X22391367Y22324023D01*
X22391367Y22189336D01*
X22425038Y22088321D01*
X21886290Y22896443D02*
X21886290Y22963787D01*
X21852618Y23064802D01*
X21684259Y23233161D01*
X21583244Y23266833D01*
X21515901Y23266833D01*
X21414885Y23233161D01*
X21347542Y23165818D01*
X21280199Y23031131D01*
X21280199Y22223008D01*
X20842466Y22660741D01*
X-19666727Y11602343D02*
X-20239146Y11029923D01*
X-20340162Y10996251D01*
X-20407505Y10996251D01*
X-20508520Y11029923D01*
X-20643208Y11164610D01*
X-20676879Y11265626D01*
X-20676879Y11332969D01*
X-20643208Y11433984D01*
X-20070788Y12006404D01*
X-20340162Y12275778D02*
X-20777895Y12713511D01*
X-20811566Y12208434D01*
X-20912581Y12309450D01*
X-21013597Y12343122D01*
X-21080940Y12343122D01*
X-21181956Y12309450D01*
X-21350315Y12141091D01*
X-21383986Y12040076D01*
X-21383986Y11972732D01*
X-21350315Y11871717D01*
X-21148284Y11669686D01*
X-21047268Y11636014D01*
X-20979925Y11636014D01*
X-21417658Y13353274D02*
X-21080940Y13016556D01*
X-21383986Y12646167D01*
X-21383986Y12713511D01*
X-21417657Y12814526D01*
X-21586017Y12982885D01*
X-21687032Y13016557D01*
X-21754375Y13016557D01*
X-21855391Y12982885D01*
X-22023750Y12814526D01*
X-22057421Y12713511D01*
X-22057421Y12646167D01*
X-22023750Y12545152D01*
X-21855390Y12376793D01*
X-21754375Y12343121D01*
X-21687032Y12343121D01*
X-16712030Y-15230474D02*
X-17116091Y-15634535D01*
X-16206953Y-16139611D02*
X-16914060Y-15432504D01*
X-17015076Y-16947733D02*
X-16611015Y-16543672D01*
X-16813045Y-16745702D02*
X-17520152Y-16038596D01*
X-17351793Y-16072267D01*
X-17217106Y-16072267D01*
X-17116091Y-16038596D01*
X10083847Y8332917D02*
X9511428Y7760497D01*
X9410412Y7726825D01*
X9343069Y7726825D01*
X9242054Y7760497D01*
X9107366Y7895184D01*
X9073695Y7996200D01*
X9073695Y8063543D01*
X9107366Y8164558D01*
X9679786Y8736978D01*
X9410412Y9006352D02*
X8972679Y9444085D01*
X8939008Y8939008D01*
X8837993Y9040024D01*
X8736977Y9073696D01*
X8669634Y9073696D01*
X8568618Y9040024D01*
X8400259Y8871665D01*
X8366588Y8770650D01*
X8366588Y8703306D01*
X8400259Y8602291D01*
X8602290Y8400260D01*
X8703306Y8366588D01*
X8770649Y8366588D01*
X8736977Y9679787D02*
X8265573Y10151192D01*
X7861512Y9141039D01*
X22192107Y-12578823D02*
X21619688Y-13151243D01*
X21518672Y-13184915D01*
X21451329Y-13184915D01*
X21350314Y-13151243D01*
X21215626Y-13016556D01*
X21181955Y-12915540D01*
X21181955Y-12848197D01*
X21215626Y-12747182D01*
X21788046Y-12174762D01*
X21518672Y-11905388D02*
X21080939Y-11467655D01*
X21047268Y-11972732D01*
X20946253Y-11871716D01*
X20845237Y-11838044D01*
X20777894Y-11838044D01*
X20676878Y-11871716D01*
X20508519Y-12040075D01*
X20474848Y-12141090D01*
X20474848Y-12208434D01*
X20508519Y-12309449D01*
X20710550Y-12511480D01*
X20811566Y-12545152D01*
X20878909Y-12545152D01*
X20474848Y-10861564D02*
X20609535Y-10996251D01*
X20643207Y-11097266D01*
X20643207Y-11164610D01*
X20609535Y-11332968D01*
X20508520Y-11501327D01*
X20239146Y-11770701D01*
X20138131Y-11804373D01*
X20070787Y-11804373D01*
X19969772Y-11770701D01*
X19835084Y-11636014D01*
X19801413Y-11534999D01*
X19801413Y-11467655D01*
X19835084Y-11366640D01*
X20003443Y-11198281D01*
X20104459Y-11164609D01*
X20171802Y-11164609D01*
X20272817Y-11198281D01*
X20407505Y-11332968D01*
X20441177Y-11433983D01*
X20441177Y-11501327D01*
X20407504Y-11602343D01*
X761905Y-13732381D02*
X761905Y-14541905D01*
X714286Y-14637143D01*
X666667Y-14684762D01*
X571429Y-14732381D01*
X380952Y-14732381D01*
X285714Y-14684762D01*
X238095Y-14637143D01*
X190476Y-14541905D01*
X190476Y-13732381D01*
X-190476Y-13732381D02*
X-857143Y-13732381D01*
X-428571Y-14732381D01*
X12662921Y-24627935D02*
X13472445Y-24627935D01*
X13567683Y-24675554D01*
X13615302Y-24723173D01*
X13662921Y-24818411D01*
X13662921Y-25008888D01*
X13615302Y-25104126D01*
X13567683Y-25151745D01*
X13472445Y-25199364D01*
X12662921Y-25199364D01*
X13091492Y-25818411D02*
X13043873Y-25723173D01*
X12996254Y-25675554D01*
X12901016Y-25627935D01*
X12853397Y-25627935D01*
X12758159Y-25675554D01*
X12710540Y-25723173D01*
X12662921Y-25818411D01*
X12662921Y-26008888D01*
X12710540Y-26104126D01*
X12758159Y-26151745D01*
X12853397Y-26199364D01*
X12901016Y-26199364D01*
X12996254Y-26151745D01*
X13043873Y-26104126D01*
X13091492Y-26008888D01*
X13091492Y-25818411D01*
X13139111Y-25723173D01*
X13186730Y-25675554D01*
X13281969Y-25627935D01*
X13472445Y-25627935D01*
X13567683Y-25675554D01*
X13615302Y-25723173D01*
X13662921Y-25818411D01*
X13662921Y-26008888D01*
X13615302Y-26104126D01*
X13567683Y-26151745D01*
X13472445Y-26199364D01*
X13281969Y-26199364D01*
X13186730Y-26151745D01*
X13139111Y-26104126D01*
X13091492Y-26008888D01*
X7582921Y-24627935D02*
X8392445Y-24627935D01*
X8487683Y-24675554D01*
X8535302Y-24723173D01*
X8582921Y-24818411D01*
X8582921Y-25008888D01*
X8535302Y-25104126D01*
X8487683Y-25151745D01*
X8392445Y-25199364D01*
X7582921Y-25199364D01*
X8582921Y-25723173D02*
X8582921Y-25913649D01*
X8535302Y-26008888D01*
X8487683Y-26056507D01*
X8344826Y-26151745D01*
X8154350Y-26199364D01*
X7773397Y-26199364D01*
X7678159Y-26151745D01*
X7630540Y-26104126D01*
X7582921Y-26008888D01*
X7582921Y-25818411D01*
X7630540Y-25723173D01*
X7678159Y-25675554D01*
X7773397Y-25627935D01*
X8011492Y-25627935D01*
X8106730Y-25675554D01*
X8154350Y-25723173D01*
X8201969Y-25818411D01*
X8201969Y-26008888D01*
X8154350Y-26104126D01*
X8106730Y-26151745D01*
X8011492Y-26199364D01*
X2502921Y-24151745D02*
X3312445Y-24151745D01*
X3407683Y-24199364D01*
X3455302Y-24246983D01*
X3502921Y-24342221D01*
X3502921Y-24532698D01*
X3455302Y-24627936D01*
X3407683Y-24675555D01*
X3312445Y-24723174D01*
X2502921Y-24723174D01*
X3502921Y-25723174D02*
X3502921Y-25151745D01*
X3502921Y-25437459D02*
X2502921Y-25437459D01*
X2645778Y-25342221D01*
X2741016Y-25246983D01*
X2788635Y-25151745D01*
X2502921Y-26342221D02*
X2502921Y-26437460D01*
X2550540Y-26532698D01*
X2598159Y-26580317D01*
X2693397Y-26627936D01*
X2883873Y-26675555D01*
X3121969Y-26675555D01*
X3312445Y-26627936D01*
X3407683Y-26580317D01*
X3455302Y-26532698D01*
X3502921Y-26437460D01*
X3502921Y-26342221D01*
X3455302Y-26246983D01*
X3407683Y-26199364D01*
X3312445Y-26151745D01*
X3121969Y-26104126D01*
X2883873Y-26104126D01*
X2693397Y-26151745D01*
X2598159Y-26199364D01*
X2550540Y-26246983D01*
X2502921Y-26342221D01*
X-14827619Y1238095D02*
X-14018095Y1238095D01*
X-13922857Y1190476D01*
X-13875238Y1142857D01*
X-13827619Y1047619D01*
X-13827619Y857142D01*
X-13875238Y761904D01*
X-13922857Y714285D01*
X-14018095Y666666D01*
X-14827619Y666666D01*
X-13827619Y-333334D02*
X-13827619Y238095D01*
X-13827619Y-47619D02*
X-14827619Y-47619D01*
X-14684762Y47619D01*
X-14589524Y142857D01*
X-14541905Y238095D01*
X-14494286Y-1190477D02*
X-13827619Y-1190477D01*
X-14875238Y-952381D02*
X-14160952Y-714286D01*
X-14160952Y-1333334D01*
X-24151745Y-12662921D02*
X-24151745Y-13472445D01*
X-24199364Y-13567683D01*
X-24246983Y-13615302D01*
X-24342221Y-13662921D01*
X-24532698Y-13662921D01*
X-24627936Y-13615302D01*
X-24675555Y-13567683D01*
X-24723174Y-13472445D01*
X-24723174Y-12662921D01*
X-25723174Y-13662921D02*
X-25151745Y-13662921D01*
X-25437459Y-13662921D02*
X-25437459Y-12662921D01*
X-25342221Y-12805778D01*
X-25246983Y-12901016D01*
X-25151745Y-12948635D01*
X-26627936Y-12662921D02*
X-26151745Y-12662921D01*
X-26104126Y-13139111D01*
X-26151745Y-13091492D01*
X-26246983Y-13043873D01*
X-26485079Y-13043873D01*
X-26580317Y-13091492D01*
X-26627936Y-13139111D01*
X-26675555Y-13234350D01*
X-26675555Y-13472445D01*
X-26627936Y-13567683D01*
X-26580317Y-13615302D01*
X-26485079Y-13662921D01*
X-26246983Y-13662921D01*
X-26151745Y-13615302D01*
X-26104126Y-13567683D01*
X-24151745Y-7582921D02*
X-24151745Y-8392445D01*
X-24199364Y-8487683D01*
X-24246983Y-8535302D01*
X-24342221Y-8582921D01*
X-24532698Y-8582921D01*
X-24627936Y-8535302D01*
X-24675555Y-8487683D01*
X-24723174Y-8392445D01*
X-24723174Y-7582921D01*
X-25723174Y-8582921D02*
X-25151745Y-8582921D01*
X-25437459Y-8582921D02*
X-25437459Y-7582921D01*
X-25342221Y-7725778D01*
X-25246983Y-7821016D01*
X-25151745Y-7868635D01*
X-26580317Y-7582921D02*
X-26389840Y-7582921D01*
X-26294602Y-7630540D01*
X-26246983Y-7678159D01*
X-26151745Y-7821016D01*
X-26104126Y-8011492D01*
X-26104126Y-8392445D01*
X-26151745Y-8487683D01*
X-26199364Y-8535302D01*
X-26294602Y-8582921D01*
X-26485079Y-8582921D01*
X-26580317Y-8535302D01*
X-26627936Y-8487683D01*
X-26675555Y-8392445D01*
X-26675555Y-8154350D01*
X-26627936Y-8059111D01*
X-26580317Y-8011492D01*
X-26485079Y-7963873D01*
X-26294602Y-7963873D01*
X-26199364Y-8011492D01*
X-26151745Y-8059111D01*
X-26104126Y-8154350D01*
X-24151745Y-2502921D02*
X-24151745Y-3312445D01*
X-24199364Y-3407683D01*
X-24246983Y-3455302D01*
X-24342221Y-3502921D01*
X-24532698Y-3502921D01*
X-24627936Y-3455302D01*
X-24675555Y-3407683D01*
X-24723174Y-3312445D01*
X-24723174Y-2502921D01*
X-25723174Y-3502921D02*
X-25151745Y-3502921D01*
X-25437459Y-3502921D02*
X-25437459Y-2502921D01*
X-25342221Y-2645778D01*
X-25246983Y-2741016D01*
X-25151745Y-2788635D01*
X-26056507Y-2502921D02*
X-26723174Y-2502921D01*
X-26294602Y-3502921D01*
X-24151745Y2577079D02*
X-24151745Y1767555D01*
X-24199364Y1672317D01*
X-24246983Y1624698D01*
X-24342221Y1577079D01*
X-24532698Y1577079D01*
X-24627936Y1624698D01*
X-24675555Y1672317D01*
X-24723174Y1767555D01*
X-24723174Y2577079D01*
X-25723174Y1577079D02*
X-25151745Y1577079D01*
X-25437459Y1577079D02*
X-25437459Y2577079D01*
X-25342221Y2434222D01*
X-25246983Y2338984D01*
X-25151745Y2291365D01*
X-26294602Y2148508D02*
X-26199364Y2196127D01*
X-26151745Y2243746D01*
X-26104126Y2338984D01*
X-26104126Y2386603D01*
X-26151745Y2481841D01*
X-26199364Y2529460D01*
X-26294602Y2577079D01*
X-26485079Y2577079D01*
X-26580317Y2529460D01*
X-26627936Y2481841D01*
X-26675555Y2386603D01*
X-26675555Y2338984D01*
X-26627936Y2243746D01*
X-26580317Y2196127D01*
X-26485079Y2148508D01*
X-26294602Y2148508D01*
X-26199364Y2100889D01*
X-26151745Y2053270D01*
X-26104126Y1958031D01*
X-26104126Y1767555D01*
X-26151745Y1672317D01*
X-26199364Y1624698D01*
X-26294602Y1577079D01*
X-26485079Y1577079D01*
X-26580317Y1624698D01*
X-26627936Y1672317D01*
X-26675555Y1767555D01*
X-26675555Y1958031D01*
X-26627936Y2053270D01*
X-26580317Y2100889D01*
X-26485079Y2148508D01*
X1238095Y14827619D02*
X1238095Y14018095D01*
X1190476Y13922857D01*
X1142857Y13875238D01*
X1047619Y13827619D01*
X857142Y13827619D01*
X761904Y13875238D01*
X714285Y13922857D01*
X666666Y14018095D01*
X666666Y14827619D01*
X238095Y14732381D02*
X190476Y14780000D01*
X95238Y14827619D01*
X-142858Y14827619D01*
X-238096Y14780000D01*
X-285715Y14732381D01*
X-333334Y14637143D01*
X-333334Y14541905D01*
X-285715Y14399048D01*
X285714Y13827619D01*
X-333334Y13827619D01*
X-1285715Y13827619D02*
X-714286Y13827619D01*
X-1000000Y13827619D02*
X-1000000Y14827619D01*
X-904762Y14684762D01*
X-809524Y14589524D01*
X-714286Y14541905D01*
X-13758159Y26627935D02*
X-12948635Y26627935D01*
X-12853397Y26580316D01*
X-12805778Y26532697D01*
X-12758159Y26437459D01*
X-12758159Y26246982D01*
X-12805778Y26151744D01*
X-12853397Y26104125D01*
X-12948635Y26056506D01*
X-13758159Y26056506D01*
X-13662921Y25627935D02*
X-13710540Y25580316D01*
X-13758159Y25485078D01*
X-13758159Y25246982D01*
X-13710540Y25151744D01*
X-13662921Y25104125D01*
X-13567683Y25056506D01*
X-13472445Y25056506D01*
X-13329588Y25104125D01*
X-12758159Y25675554D01*
X-12758159Y25056506D01*
X-13662921Y24675554D02*
X-13710540Y24627935D01*
X-13758159Y24532697D01*
X-13758159Y24294601D01*
X-13710540Y24199363D01*
X-13662921Y24151744D01*
X-13567683Y24104125D01*
X-13472445Y24104125D01*
X-13329588Y24151744D01*
X-12758159Y24723173D01*
X-12758159Y24104125D01*
X-8678159Y26627935D02*
X-7868635Y26627935D01*
X-7773397Y26580316D01*
X-7725778Y26532697D01*
X-7678159Y26437459D01*
X-7678159Y26246982D01*
X-7725778Y26151744D01*
X-7773397Y26104125D01*
X-7868635Y26056506D01*
X-8678159Y26056506D01*
X-8582921Y25627935D02*
X-8630540Y25580316D01*
X-8678159Y25485078D01*
X-8678159Y25246982D01*
X-8630540Y25151744D01*
X-8582921Y25104125D01*
X-8487683Y25056506D01*
X-8392445Y25056506D01*
X-8249588Y25104125D01*
X-7678159Y25675554D01*
X-7678159Y25056506D01*
X-8678159Y24723173D02*
X-8678159Y24104125D01*
X-8297207Y24437459D01*
X-8297207Y24294601D01*
X-8249588Y24199363D01*
X-8201969Y24151744D01*
X-8106730Y24104125D01*
X-7868635Y24104125D01*
X-7773397Y24151744D01*
X-7725778Y24199363D01*
X-7678159Y24294601D01*
X-7678159Y24580316D01*
X-7725778Y24675554D01*
X-7773397Y24723173D01*
X-3598159Y26627935D02*
X-2788635Y26627935D01*
X-2693397Y26580316D01*
X-2645778Y26532697D01*
X-2598159Y26437459D01*
X-2598159Y26246982D01*
X-2645778Y26151744D01*
X-2693397Y26104125D01*
X-2788635Y26056506D01*
X-3598159Y26056506D01*
X-3502921Y25627935D02*
X-3550540Y25580316D01*
X-3598159Y25485078D01*
X-3598159Y25246982D01*
X-3550540Y25151744D01*
X-3502921Y25104125D01*
X-3407683Y25056506D01*
X-3312445Y25056506D01*
X-3169588Y25104125D01*
X-2598159Y25675554D01*
X-2598159Y25056506D01*
X-3264826Y24199363D02*
X-2598159Y24199363D01*
X-3645778Y24437459D02*
X-2931492Y24675554D01*
X-2931492Y24056506D01*
X1481841Y26627935D02*
X2291365Y26627935D01*
X2386603Y26580316D01*
X2434222Y26532697D01*
X2481841Y26437459D01*
X2481841Y26246982D01*
X2434222Y26151744D01*
X2386603Y26104125D01*
X2291365Y26056506D01*
X1481841Y26056506D01*
X1577079Y25627935D02*
X1529460Y25580316D01*
X1481841Y25485078D01*
X1481841Y25246982D01*
X1529460Y25151744D01*
X1577079Y25104125D01*
X1672317Y25056506D01*
X1767555Y25056506D01*
X1910412Y25104125D01*
X2481841Y25675554D01*
X2481841Y25056506D01*
X1481841Y24151744D02*
X1481841Y24627935D01*
X1958031Y24675554D01*
X1910412Y24627935D01*
X1862793Y24532697D01*
X1862793Y24294601D01*
X1910412Y24199363D01*
X1958031Y24151744D01*
X2053270Y24104125D01*
X2291365Y24104125D01*
X2386603Y24151744D01*
X2434222Y24199363D01*
X2481841Y24294601D01*
X2481841Y24532697D01*
X2434222Y24627935D01*
X2386603Y24675554D01*
X13732381Y1238095D02*
X14541905Y1238095D01*
X14637143Y1190476D01*
X14684762Y1142857D01*
X14732381Y1047619D01*
X14732381Y857142D01*
X14684762Y761904D01*
X14637143Y714285D01*
X14541905Y666666D01*
X13732381Y666666D01*
X13827619Y238095D02*
X13780000Y190476D01*
X13732381Y95238D01*
X13732381Y-142858D01*
X13780000Y-238096D01*
X13827619Y-285715D01*
X13922857Y-333334D01*
X14018095Y-333334D01*
X14160952Y-285715D01*
X14732381Y285714D01*
X14732381Y-333334D01*
X14160952Y-904762D02*
X14113333Y-809524D01*
X14065714Y-761905D01*
X13970476Y-714286D01*
X13922857Y-714286D01*
X13827619Y-761905D01*
X13780000Y-809524D01*
X13732381Y-904762D01*
X13732381Y-1095239D01*
X13780000Y-1190477D01*
X13827619Y-1238096D01*
X13922857Y-1285715D01*
X13970476Y-1285715D01*
X14065714Y-1238096D01*
X14113333Y-1190477D01*
X14160952Y-1095239D01*
X14160952Y-904762D01*
X14208571Y-809524D01*
X14256190Y-761905D01*
X14351429Y-714286D01*
X14541905Y-714286D01*
X14637143Y-761905D01*
X14684762Y-809524D01*
X14732381Y-904762D01*
X14732381Y-1095239D01*
X14684762Y-1190477D01*
X14637143Y-1238096D01*
X14541905Y-1285715D01*
X14351429Y-1285715D01*
X14256190Y-1238096D01*
X14208571Y-1190477D01*
X14160952Y-1095239D01*
X26627935Y13758159D02*
X26627935Y12948635D01*
X26580316Y12853397D01*
X26532697Y12805778D01*
X26437459Y12758159D01*
X26246982Y12758159D01*
X26151744Y12805778D01*
X26104125Y12853397D01*
X26056506Y12948635D01*
X26056506Y13758159D01*
X25627935Y13662921D02*
X25580316Y13710540D01*
X25485078Y13758159D01*
X25246982Y13758159D01*
X25151744Y13710540D01*
X25104125Y13662921D01*
X25056506Y13567683D01*
X25056506Y13472445D01*
X25104125Y13329588D01*
X25675554Y12758159D01*
X25056506Y12758159D01*
X24580316Y12758159D02*
X24389840Y12758159D01*
X24294601Y12805778D01*
X24246982Y12853397D01*
X24151744Y12996254D01*
X24104125Y13186730D01*
X24104125Y13567683D01*
X24151744Y13662921D01*
X24199363Y13710540D01*
X24294601Y13758159D01*
X24485078Y13758159D01*
X24580316Y13710540D01*
X24627935Y13662921D01*
X24675554Y13567683D01*
X24675554Y13329588D01*
X24627935Y13234350D01*
X24580316Y13186730D01*
X24485078Y13139111D01*
X24294601Y13139111D01*
X24199363Y13186730D01*
X24151744Y13234350D01*
X24104125Y13329588D01*
X26627935Y8678159D02*
X26627935Y7868635D01*
X26580316Y7773397D01*
X26532697Y7725778D01*
X26437459Y7678159D01*
X26246982Y7678159D01*
X26151744Y7725778D01*
X26104125Y7773397D01*
X26056506Y7868635D01*
X26056506Y8678159D01*
X25675554Y8678159D02*
X25056506Y8678159D01*
X25389840Y8297207D01*
X25246982Y8297207D01*
X25151744Y8249588D01*
X25104125Y8201969D01*
X25056506Y8106730D01*
X25056506Y7868635D01*
X25104125Y7773397D01*
X25151744Y7725778D01*
X25246982Y7678159D01*
X25532697Y7678159D01*
X25627935Y7725778D01*
X25675554Y7773397D01*
X24437459Y8678159D02*
X24342220Y8678159D01*
X24246982Y8630540D01*
X24199363Y8582921D01*
X24151744Y8487683D01*
X24104125Y8297207D01*
X24104125Y8059111D01*
X24151744Y7868635D01*
X24199363Y7773397D01*
X24246982Y7725778D01*
X24342220Y7678159D01*
X24437459Y7678159D01*
X24532697Y7725778D01*
X24580316Y7773397D01*
X24627935Y7868635D01*
X24675554Y8059111D01*
X24675554Y8297207D01*
X24627935Y8487683D01*
X24580316Y8582921D01*
X24532697Y8630540D01*
X24437459Y8678159D01*
X26627935Y3598159D02*
X26627935Y2788635D01*
X26580316Y2693397D01*
X26532697Y2645778D01*
X26437459Y2598159D01*
X26246982Y2598159D01*
X26151744Y2645778D01*
X26104125Y2693397D01*
X26056506Y2788635D01*
X26056506Y3598159D01*
X25675554Y3598159D02*
X25056506Y3598159D01*
X25389840Y3217207D01*
X25246982Y3217207D01*
X25151744Y3169588D01*
X25104125Y3121969D01*
X25056506Y3026730D01*
X25056506Y2788635D01*
X25104125Y2693397D01*
X25151744Y2645778D01*
X25246982Y2598159D01*
X25532697Y2598159D01*
X25627935Y2645778D01*
X25675554Y2693397D01*
X24104125Y2598159D02*
X24675554Y2598159D01*
X24389840Y2598159D02*
X24389840Y3598159D01*
X24485078Y3455302D01*
X24580316Y3360064D01*
X24675554Y3312445D01*
X26627935Y-1481841D02*
X26627935Y-2291365D01*
X26580316Y-2386603D01*
X26532697Y-2434222D01*
X26437459Y-2481841D01*
X26246982Y-2481841D01*
X26151744Y-2434222D01*
X26104125Y-2386603D01*
X26056506Y-2291365D01*
X26056506Y-1481841D01*
X25675554Y-1481841D02*
X25056506Y-1481841D01*
X25389840Y-1862793D01*
X25246982Y-1862793D01*
X25151744Y-1910412D01*
X25104125Y-1958031D01*
X25056506Y-2053270D01*
X25056506Y-2291365D01*
X25104125Y-2386603D01*
X25151744Y-2434222D01*
X25246982Y-2481841D01*
X25532697Y-2481841D01*
X25627935Y-2434222D01*
X25675554Y-2386603D01*
X24675554Y-1577079D02*
X24627935Y-1529460D01*
X24532697Y-1481841D01*
X24294601Y-1481841D01*
X24199363Y-1529460D01*
X24151744Y-1577079D01*
X24104125Y-1672317D01*
X24104125Y-1767555D01*
X24151744Y-1910412D01*
X24723173Y-2481841D01*
X24104125Y-2481841D01*
X5936665Y8604094D02*
X5936665Y8536751D01*
X6004009Y8402064D01*
X6071352Y8334720D01*
X6206040Y8267376D01*
X6340727Y8267376D01*
X6441742Y8301048D01*
X6610101Y8402063D01*
X6711116Y8503079D01*
X6812132Y8671437D01*
X6845803Y8772453D01*
X6845803Y8907140D01*
X6778459Y9041827D01*
X6711116Y9109171D01*
X6576429Y9176514D01*
X6509085Y9176514D01*
X5195887Y9210186D02*
X5599948Y8806124D01*
X5397918Y9008155D02*
X6105025Y9715261D01*
X6071353Y9546903D01*
X6071353Y9412216D01*
X6105025Y9311201D01*
X5465261Y10355025D02*
X5397917Y10422369D01*
X5296902Y10456041D01*
X5229559Y10456041D01*
X5128544Y10422369D01*
X4960185Y10321354D01*
X4791826Y10152994D01*
X4690811Y9984636D01*
X4657139Y9883621D01*
X4657139Y9816277D01*
X4690811Y9715262D01*
X4758155Y9647918D01*
X4859170Y9614246D01*
X4926513Y9614246D01*
X5027528Y9647918D01*
X5195887Y9748933D01*
X5364246Y9917292D01*
X5465261Y10085651D01*
X5498933Y10186666D01*
X5498933Y10254010D01*
X5465261Y10355025D01*
X4791826Y11028460D02*
X4724482Y11095804D01*
X4623467Y11129476D01*
X4556124Y11129476D01*
X4455108Y11095804D01*
X4286750Y10994789D01*
X4118391Y10826430D01*
X4017375Y10658071D01*
X3983704Y10557056D01*
X3983704Y10489712D01*
X4017375Y10388697D01*
X4084720Y10321353D01*
X4185735Y10287681D01*
X4253078Y10287681D01*
X4354093Y10321353D01*
X4522452Y10422368D01*
X4690811Y10590728D01*
X4791826Y10759086D01*
X4825498Y10860101D01*
X4825498Y10927445D01*
X4791826Y11028460D01*
X-11254094Y-5913335D02*
X-11186751Y-5913335D01*
X-11052064Y-5845991D01*
X-10984720Y-5778648D01*
X-10917376Y-5643960D01*
X-10917376Y-5509273D01*
X-10951048Y-5408258D01*
X-11052063Y-5239899D01*
X-11153079Y-5138884D01*
X-11321437Y-5037868D01*
X-11422453Y-5004197D01*
X-11557140Y-5004197D01*
X-11691827Y-5071541D01*
X-11759171Y-5138884D01*
X-11826514Y-5273571D01*
X-11826514Y-5340915D01*
X-11860186Y-6654113D02*
X-11456124Y-6250052D01*
X-11658155Y-6452082D02*
X-12365261Y-5744975D01*
X-12196903Y-5778647D01*
X-12062216Y-5778647D01*
X-11961201Y-5744975D01*
X-13005025Y-6384739D02*
X-13072369Y-6452083D01*
X-13106041Y-6553098D01*
X-13106041Y-6620441D01*
X-13072369Y-6721456D01*
X-12971354Y-6889815D01*
X-12802994Y-7058174D01*
X-12634636Y-7159189D01*
X-12533621Y-7192861D01*
X-12466277Y-7192861D01*
X-12365262Y-7159189D01*
X-12297918Y-7091845D01*
X-12264246Y-6990830D01*
X-12264246Y-6923487D01*
X-12297918Y-6822472D01*
X-12398933Y-6654113D01*
X-12567292Y-6485754D01*
X-12735651Y-6384739D01*
X-12836666Y-6351067D01*
X-12904010Y-6351067D01*
X-13005025Y-6384739D01*
X-13207056Y-8000983D02*
X-12802994Y-7596922D01*
X-13005025Y-7798952D02*
X-13712132Y-7091845D01*
X-13543773Y-7125517D01*
X-13409086Y-7125517D01*
X-13308071Y-7091845D01*
X-12754094Y-4413335D02*
X-12686751Y-4413335D01*
X-12552064Y-4345991D01*
X-12484720Y-4278648D01*
X-12417376Y-4143960D01*
X-12417376Y-4009273D01*
X-12451048Y-3908258D01*
X-12552063Y-3739899D01*
X-12653079Y-3638884D01*
X-12821437Y-3537868D01*
X-12922453Y-3504197D01*
X-13057140Y-3504197D01*
X-13191827Y-3571541D01*
X-13259171Y-3638884D01*
X-13326514Y-3773571D01*
X-13326514Y-3840915D01*
X-13360186Y-5154113D02*
X-12956124Y-4750052D01*
X-13158155Y-4952082D02*
X-13865261Y-4244975D01*
X-13696903Y-4278647D01*
X-13562216Y-4278647D01*
X-13461201Y-4244975D01*
X-14505025Y-4884739D02*
X-14572369Y-4952083D01*
X-14606041Y-5053098D01*
X-14606041Y-5120441D01*
X-14572369Y-5221456D01*
X-14471354Y-5389815D01*
X-14302994Y-5558174D01*
X-14134636Y-5659189D01*
X-14033621Y-5692861D01*
X-13966277Y-5692861D01*
X-13865262Y-5659189D01*
X-13797918Y-5591845D01*
X-13764246Y-5490830D01*
X-13764246Y-5423487D01*
X-13797918Y-5322472D01*
X-13898933Y-5154113D01*
X-14067292Y-4985754D01*
X-14235651Y-4884739D01*
X-14336666Y-4851067D01*
X-14404010Y-4851067D01*
X-14505025Y-4884739D01*
X-14976430Y-5356143D02*
X-15414163Y-5793876D01*
X-14909086Y-5827547D01*
X-15010102Y-5928563D01*
X-15043774Y-6029578D01*
X-15043774Y-6096922D01*
X-15010101Y-6197938D01*
X-14841743Y-6366296D01*
X-14740728Y-6399968D01*
X-14673384Y-6399968D01*
X-14572369Y-6366296D01*
X-14370338Y-6164265D01*
X-14336666Y-6063250D01*
X-14336666Y-5995907D01*
X-4341953Y16455857D02*
X-4294334Y16408238D01*
X-4151477Y16360619D01*
X-4056239Y16360619D01*
X-3913381Y16408238D01*
X-3818143Y16503476D01*
X-3770524Y16598714D01*
X-3722905Y16789190D01*
X-3722905Y16932048D01*
X-3770524Y17122524D01*
X-3818143Y17217762D01*
X-3913381Y17313000D01*
X-4056239Y17360619D01*
X-4151477Y17360619D01*
X-4294334Y17313000D01*
X-4341953Y17265381D01*
X-5294334Y16360619D02*
X-4722905Y16360619D01*
X-5008619Y16360619D02*
X-5008619Y17360619D01*
X-4913381Y17217762D01*
X-4818143Y17122524D01*
X-4722905Y17074905D01*
X-5913381Y17360619D02*
X-6008620Y17360619D01*
X-6103858Y17313000D01*
X-6151477Y17265381D01*
X-6199096Y17170143D01*
X-6246715Y16979667D01*
X-6246715Y16741571D01*
X-6199096Y16551095D01*
X-6151477Y16455857D01*
X-6103858Y16408238D01*
X-6008620Y16360619D01*
X-5913381Y16360619D01*
X-5818143Y16408238D01*
X-5770524Y16455857D01*
X-5722905Y16551095D01*
X-5675286Y16741571D01*
X-5675286Y16979667D01*
X-5722905Y17170143D01*
X-5770524Y17265381D01*
X-5818143Y17313000D01*
X-5913381Y17360619D01*
X-7103858Y17027286D02*
X-7103858Y16360619D01*
X-6865762Y17408238D02*
X-6627667Y16693952D01*
X-7246715Y16693952D01*
X-6804094Y8536665D02*
X-6736751Y8536665D01*
X-6602064Y8604009D01*
X-6534720Y8671352D01*
X-6467376Y8806040D01*
X-6467376Y8940727D01*
X-6501048Y9041742D01*
X-6602063Y9210101D01*
X-6703079Y9311116D01*
X-6871437Y9412132D01*
X-6972453Y9445803D01*
X-7107140Y9445803D01*
X-7241827Y9378459D01*
X-7309171Y9311116D01*
X-7376514Y9176429D01*
X-7376514Y9109085D01*
X-7410186Y7795887D02*
X-7006124Y8199948D01*
X-7208155Y7997918D02*
X-7915261Y8705025D01*
X-7746903Y8671353D01*
X-7612216Y8671353D01*
X-7511201Y8705025D01*
X-8555025Y8065261D02*
X-8622369Y7997917D01*
X-8656041Y7896902D01*
X-8656041Y7829559D01*
X-8622369Y7728544D01*
X-8521354Y7560185D01*
X-8352994Y7391826D01*
X-8184636Y7290811D01*
X-8083621Y7257139D01*
X-8016277Y7257139D01*
X-7915262Y7290811D01*
X-7847918Y7358155D01*
X-7814246Y7459170D01*
X-7814246Y7526513D01*
X-7847918Y7627528D01*
X-7948933Y7795887D01*
X-8117292Y7964246D01*
X-8285651Y8065261D01*
X-8386666Y8098933D01*
X-8454010Y8098933D01*
X-8555025Y8065261D01*
X-9430491Y7189795D02*
X-9093773Y7526513D01*
X-8723384Y7223468D01*
X-8790728Y7223468D01*
X-8891743Y7189796D01*
X-9060102Y7021437D01*
X-9093774Y6920422D01*
X-9093774Y6853078D01*
X-9060101Y6752062D01*
X-8891743Y6583704D01*
X-8790728Y6550032D01*
X-8723384Y6550032D01*
X-8622369Y6583704D01*
X-8454010Y6752063D01*
X-8420338Y6853078D01*
X-8420338Y6920422D01*
X8947307Y-6679606D02*
X9014650Y-6679606D01*
X9149337Y-6612262D01*
X9216681Y-6544919D01*
X9284025Y-6410231D01*
X9284025Y-6275544D01*
X9250353Y-6174529D01*
X9149338Y-6006171D01*
X9048322Y-5905155D01*
X8879963Y-5804140D01*
X8778948Y-5770468D01*
X8644261Y-5770468D01*
X8509574Y-5837812D01*
X8442230Y-5905155D01*
X8374887Y-6039842D01*
X8374887Y-6107186D01*
X7701452Y-6645934D02*
X7836140Y-6511246D01*
X7937155Y-6477575D01*
X8004498Y-6477575D01*
X8172857Y-6511246D01*
X8341215Y-6612261D01*
X8610590Y-6881636D01*
X8644261Y-6982651D01*
X8644261Y-7049994D01*
X8610590Y-7151010D01*
X8475902Y-7285697D01*
X8374887Y-7319369D01*
X8307544Y-7319369D01*
X8206528Y-7285697D01*
X8038170Y-7117339D01*
X8004497Y-7016323D01*
X8004497Y-6948979D01*
X8038169Y-6847964D01*
X8172857Y-6713277D01*
X8273872Y-6679605D01*
X8341215Y-6679605D01*
X8442231Y-6713277D01*
X3968307Y-11582606D02*
X4035650Y-11582606D01*
X4170337Y-11515262D01*
X4237681Y-11447919D01*
X4305025Y-11313231D01*
X4305025Y-11178544D01*
X4271353Y-11077529D01*
X4170338Y-10909171D01*
X4069322Y-10808155D01*
X3900963Y-10707140D01*
X3799948Y-10673468D01*
X3665261Y-10673468D01*
X3530574Y-10740812D01*
X3463230Y-10808155D01*
X3395887Y-10942842D01*
X3395887Y-11010186D01*
X3092842Y-11178544D02*
X2621437Y-11649949D01*
X3631590Y-12054010D01*
X12884307Y5385394D02*
X12951650Y5385394D01*
X13086337Y5452738D01*
X13153681Y5520081D01*
X13221025Y5654769D01*
X13221025Y5789456D01*
X13187353Y5890471D01*
X13086338Y6058829D01*
X12985322Y6159845D01*
X12816963Y6260860D01*
X12715948Y6294532D01*
X12581261Y6294532D01*
X12446574Y6227188D01*
X12379230Y6159845D01*
X12311887Y6025158D01*
X12311887Y5957814D01*
X12143528Y5318052D02*
X12177200Y5419067D01*
X12177200Y5486410D01*
X12143528Y5587425D01*
X12109857Y5621097D01*
X12008842Y5654769D01*
X11941498Y5654769D01*
X11840483Y5621097D01*
X11705795Y5486410D01*
X11672124Y5385394D01*
X11672124Y5318051D01*
X11705795Y5217036D01*
X11739467Y5183364D01*
X11840482Y5149692D01*
X11907826Y5149692D01*
X12008841Y5183364D01*
X12143528Y5318052D01*
X12244544Y5351723D01*
X12311887Y5351723D01*
X12412903Y5318051D01*
X12547590Y5183364D01*
X12581261Y5082349D01*
X12581261Y5015006D01*
X12547590Y4913990D01*
X12412902Y4779303D01*
X12311887Y4745631D01*
X12244544Y4745631D01*
X12143528Y4779303D01*
X12008842Y4913990D01*
X11975169Y5015006D01*
X11975169Y5082349D01*
X12008841Y5183364D01*
X-1980606Y-13646307D02*
X-1980606Y-13713650D01*
X-1913262Y-13848337D01*
X-1845919Y-13915681D01*
X-1711231Y-13983025D01*
X-1576544Y-13983025D01*
X-1475529Y-13949353D01*
X-1307171Y-13848338D01*
X-1206155Y-13747322D01*
X-1105140Y-13578963D01*
X-1071468Y-13477948D01*
X-1071468Y-13343261D01*
X-1138812Y-13208574D01*
X-1206155Y-13141230D01*
X-1340842Y-13073887D01*
X-1408186Y-13073887D01*
X-2384666Y-13376933D02*
X-2519353Y-13242246D01*
X-2553025Y-13141230D01*
X-2553025Y-13073887D01*
X-2519354Y-12905528D01*
X-2418339Y-12737170D01*
X-2148964Y-12467795D01*
X-2047949Y-12434124D01*
X-1980606Y-12434124D01*
X-1879590Y-12467795D01*
X-1744903Y-12602483D01*
X-1711231Y-12703498D01*
X-1711231Y-12770842D01*
X-1744903Y-12871857D01*
X-1913261Y-13040215D01*
X-2014277Y-13073887D01*
X-2081621Y-13073888D01*
X-2182636Y-13040216D01*
X-2317323Y-12905528D01*
X-2350995Y-12804513D01*
X-2350994Y-12737169D01*
X-2317323Y-12636154D01*
X10173025Y8770112D02*
X10240368Y8770112D01*
X10375055Y8837456D01*
X10442399Y8904799D01*
X10509743Y9039487D01*
X10509743Y9174174D01*
X10476071Y9275189D01*
X10375056Y9443547D01*
X10274040Y9544563D01*
X10105681Y9645578D01*
X10004666Y9679250D01*
X9869979Y9679250D01*
X9735292Y9611906D01*
X9667948Y9544563D01*
X9600605Y9409876D01*
X9600605Y9342532D01*
X9566933Y8029334D02*
X9970994Y8433395D01*
X9768964Y8231365D02*
X9061857Y8938472D01*
X9230216Y8904800D01*
X9364903Y8904800D01*
X9465918Y8938472D01*
X8422094Y8298708D02*
X8354750Y8231364D01*
X8321078Y8130349D01*
X8321078Y8063006D01*
X8354750Y7961990D01*
X8455765Y7793632D01*
X8624124Y7625272D01*
X8792483Y7524257D01*
X8893498Y7490586D01*
X8960842Y7490586D01*
X9061857Y7524257D01*
X9129201Y7591601D01*
X9162873Y7692617D01*
X9162873Y7759960D01*
X9129201Y7860975D01*
X9028186Y8029334D01*
X8859826Y8197693D01*
X8691468Y8298708D01*
X8590453Y8332380D01*
X8523109Y8332380D01*
X8422094Y8298708D01*
X-6723888Y-9538025D02*
X-6723888Y-9605368D01*
X-6656544Y-9740055D01*
X-6589201Y-9807399D01*
X-6454513Y-9874743D01*
X-6319826Y-9874743D01*
X-6218811Y-9841071D01*
X-6050453Y-9740056D01*
X-5949437Y-9639040D01*
X-5848422Y-9470681D01*
X-5814750Y-9369666D01*
X-5814750Y-9234979D01*
X-5882094Y-9100292D01*
X-5949437Y-9032948D01*
X-6084124Y-8965605D01*
X-6151468Y-8965605D01*
X-7464666Y-8931933D02*
X-7060605Y-9335994D01*
X-7262635Y-9133964D02*
X-6555528Y-8426857D01*
X-6589200Y-8595216D01*
X-6589200Y-8729903D01*
X-6555528Y-8830918D01*
X-8138101Y-8258498D02*
X-7734040Y-8662559D01*
X-7936070Y-8460529D02*
X-7228963Y-7753422D01*
X-7262635Y-7921781D01*
X-7262635Y-8056468D01*
X-7228963Y-8157483D01*
X-19679087Y-23693417D02*
X-19106667Y-24265837D01*
X-19072995Y-24366852D01*
X-19072995Y-24434195D01*
X-19106667Y-24535210D01*
X-19241355Y-24669898D01*
X-19342370Y-24703570D01*
X-19409713Y-24703570D01*
X-19510728Y-24669898D01*
X-20083148Y-24097478D01*
X-20722912Y-24737241D02*
X-20588224Y-24602554D01*
X-20487209Y-24568882D01*
X-20419865Y-24568882D01*
X-20251507Y-24602554D01*
X-20083148Y-24703569D01*
X-19813774Y-24972943D01*
X-19780102Y-25073959D01*
X-19780102Y-25141302D01*
X-19813774Y-25242317D01*
X-19948461Y-25377005D01*
X-20049477Y-25410676D01*
X-20116820Y-25410676D01*
X-20217835Y-25377005D01*
X-20386194Y-25208646D01*
X-20419866Y-25107630D01*
X-20419866Y-25040287D01*
X-20386194Y-24939272D01*
X-20251507Y-24804584D01*
X-20150492Y-24770912D01*
X-20083148Y-24770912D01*
X-19982132Y-24804585D01*
X-23159867Y17084004D02*
X-23092524Y17084004D01*
X-22957837Y17151348D01*
X-22890493Y17218691D01*
X-22823149Y17353379D01*
X-22823149Y17488066D01*
X-22856821Y17589081D01*
X-22957836Y17757439D01*
X-23058852Y17858455D01*
X-23227211Y17959470D01*
X-23328226Y17993142D01*
X-23462913Y17993142D01*
X-23597600Y17925798D01*
X-23664944Y17858455D01*
X-23732287Y17723768D01*
X-23732287Y17656424D01*
X-24170020Y16881974D02*
X-23698615Y16410569D01*
X-24271035Y17319707D02*
X-23597600Y16982989D01*
X-24035333Y16545256D01*
X-24675096Y16713615D02*
X-24742439Y16713615D01*
X-24843455Y16679944D01*
X-25011814Y16511584D01*
X-25045486Y16410569D01*
X-25045486Y16343226D01*
X-25011814Y16242211D01*
X-24944470Y16174867D01*
X-24809784Y16107524D01*
X-24001661Y16107524D01*
X-24439394Y15669791D01*
X23939081Y-16679944D02*
X24006424Y-16679944D01*
X24141111Y-16612600D01*
X24208455Y-16545257D01*
X24275799Y-16410569D01*
X24275799Y-16275882D01*
X24242127Y-16174867D01*
X24141112Y-16006509D01*
X24040096Y-15905493D01*
X23871737Y-15804478D01*
X23770722Y-15770806D01*
X23636035Y-15770806D01*
X23501348Y-15838150D01*
X23434004Y-15905493D01*
X23366661Y-16040180D01*
X23366661Y-16107524D01*
X22659554Y-16679944D02*
X22996272Y-16343226D01*
X23366661Y-16646271D01*
X23299317Y-16646271D01*
X23198302Y-16679943D01*
X23029943Y-16848302D01*
X22996271Y-16949317D01*
X22996271Y-17016661D01*
X23029944Y-17117677D01*
X23198302Y-17286035D01*
X23299317Y-17319707D01*
X23366661Y-17319707D01*
X23467676Y-17286035D01*
X23636035Y-17117676D01*
X23669707Y-17016661D01*
X23669707Y-16949317D01*
X22423852Y-17050333D02*
X22356509Y-17050333D01*
X22255493Y-17084004D01*
X22087134Y-17252364D01*
X22053462Y-17353379D01*
X22053462Y-17420722D01*
X22087134Y-17521737D01*
X22154478Y-17589081D01*
X22289164Y-17656424D01*
X23097287Y-17656424D01*
X22659554Y-18094157D01*
X-13425150Y8657721D02*
X-13357807Y8657721D01*
X-13223120Y8725065D01*
X-13155776Y8792408D01*
X-13088432Y8927096D01*
X-13088432Y9061783D01*
X-13122104Y9162798D01*
X-13223119Y9331157D01*
X-13324135Y9432172D01*
X-13492493Y9533188D01*
X-13593509Y9566859D01*
X-13728196Y9566859D01*
X-13862883Y9499515D01*
X-13930227Y9432172D01*
X-13997570Y9297485D01*
X-13997570Y9230141D01*
X-14031242Y7916943D02*
X-13627180Y8321004D01*
X-13829211Y8118974D02*
X-14536317Y8826081D01*
X-14367959Y8792409D01*
X-14233272Y8792409D01*
X-14132257Y8826081D01*
X-15176081Y8186317D02*
X-15243425Y8118973D01*
X-15277097Y8017958D01*
X-15277097Y7950615D01*
X-15243425Y7849600D01*
X-15142410Y7681241D01*
X-14974050Y7512882D01*
X-14805692Y7411867D01*
X-14704677Y7378195D01*
X-14637333Y7378195D01*
X-14536318Y7411867D01*
X-14468974Y7479211D01*
X-14435302Y7580226D01*
X-14435302Y7647569D01*
X-14468974Y7748584D01*
X-14569989Y7916943D01*
X-14738348Y8085302D01*
X-14906707Y8186317D01*
X-15007722Y8219989D01*
X-15075066Y8219989D01*
X-15176081Y8186317D01*
X-15647486Y7714913D02*
X-16118890Y7243508D01*
X-15108737Y6839447D01*
X15512798Y-7580227D02*
X15580141Y-7580227D01*
X15714828Y-7512883D01*
X15782172Y-7445540D01*
X15849516Y-7310852D01*
X15849516Y-7176165D01*
X15815844Y-7075150D01*
X15714829Y-6906791D01*
X15613813Y-6805776D01*
X15445455Y-6704760D01*
X15344439Y-6671089D01*
X15209752Y-6671089D01*
X15075065Y-6738433D01*
X15007721Y-6805776D01*
X14940378Y-6940463D01*
X14940378Y-7007807D01*
X14906706Y-8321005D02*
X15310768Y-7916944D01*
X15108737Y-8118974D02*
X14401631Y-7411867D01*
X14569989Y-7445539D01*
X14704676Y-7445539D01*
X14805691Y-7411867D01*
X13761867Y-8051631D02*
X13694523Y-8118975D01*
X13660851Y-8219990D01*
X13660851Y-8287333D01*
X13694523Y-8388348D01*
X13795538Y-8556707D01*
X13963898Y-8725066D01*
X14132256Y-8826081D01*
X14233271Y-8859753D01*
X14300615Y-8859753D01*
X14401630Y-8826081D01*
X14468974Y-8758737D01*
X14502646Y-8657722D01*
X14502646Y-8590379D01*
X14468974Y-8489364D01*
X14367959Y-8321005D01*
X14199600Y-8152646D01*
X14031241Y-8051631D01*
X13930226Y-8017959D01*
X13862882Y-8017959D01*
X13761867Y-8051631D01*
X13425149Y-8994439D02*
X13458821Y-8893424D01*
X13458821Y-8826081D01*
X13425149Y-8725066D01*
X13391478Y-8691394D01*
X13290462Y-8657722D01*
X13223119Y-8657722D01*
X13122104Y-8691394D01*
X12987416Y-8826081D01*
X12953745Y-8927097D01*
X12953745Y-8994440D01*
X12987416Y-9095455D01*
X13021088Y-9129127D01*
X13122103Y-9162799D01*
X13189447Y-9162799D01*
X13290462Y-9129127D01*
X13425149Y-8994439D01*
X13526164Y-8960768D01*
X13593508Y-8960768D01*
X13694524Y-8994440D01*
X13829211Y-9129127D01*
X13862882Y-9230142D01*
X13862882Y-9297486D01*
X13829211Y-9398501D01*
X13694523Y-9533188D01*
X13593508Y-9566860D01*
X13526164Y-9566860D01*
X13425149Y-9533188D01*
X13290462Y-9398501D01*
X13256790Y-9297486D01*
X13256790Y-9230142D01*
X13290462Y-9129127D01*
X-2577079Y-24151745D02*
X-1767555Y-24151745D01*
X-1672317Y-24199364D01*
X-1624698Y-24246983D01*
X-1577079Y-24342221D01*
X-1577079Y-24532698D01*
X-1624698Y-24627936D01*
X-1672317Y-24675555D01*
X-1767555Y-24723174D01*
X-2577079Y-24723174D01*
X-1577079Y-25723174D02*
X-1577079Y-25151745D01*
X-1577079Y-25437459D02*
X-2577079Y-25437459D01*
X-2434222Y-25342221D01*
X-2338984Y-25246983D01*
X-2291365Y-25151745D01*
X-1577079Y-26675555D02*
X-1577079Y-26104126D01*
X-1577079Y-26389840D02*
X-2577079Y-26389840D01*
X-2434222Y-26294602D01*
X-2338984Y-26199364D01*
X-2291365Y-26104126D01*
X-20218452Y-21262276D02*
X-19511345Y-20555169D01*
X-19780719Y-20285794D01*
X-19881735Y-20252123D01*
X-19949078Y-20252123D01*
X-20050093Y-20285794D01*
X-20151108Y-20386810D01*
X-20184780Y-20487825D01*
X-20184780Y-20555168D01*
X-20151108Y-20656183D01*
X-19881734Y-20925558D01*
X-20622512Y-20050092D02*
X-20521497Y-20083764D01*
X-20454154Y-20083764D01*
X-20353139Y-20050092D01*
X-20319467Y-20016421D01*
X-20285795Y-19915406D01*
X-20285795Y-19848062D01*
X-20319467Y-19747047D01*
X-20454154Y-19612359D01*
X-20555170Y-19578688D01*
X-20622513Y-19578688D01*
X-20723528Y-19612359D01*
X-20757200Y-19646031D01*
X-20790872Y-19747046D01*
X-20790872Y-19814390D01*
X-20757200Y-19915405D01*
X-20622512Y-20050092D01*
X-20588841Y-20151108D01*
X-20588841Y-20218451D01*
X-20622513Y-20319467D01*
X-20757200Y-20454154D01*
X-20858215Y-20487825D01*
X-20925558Y-20487825D01*
X-21026574Y-20454154D01*
X-21161261Y-20319466D01*
X-21194933Y-20218451D01*
X-21194933Y-20151108D01*
X-21161261Y-20050092D01*
X-21026574Y-19915406D01*
X-20925558Y-19881733D01*
X-20858215Y-19881733D01*
X-20757200Y-19915405D01*
X-9058150Y6040721D02*
X-8990807Y6040721D01*
X-8856120Y6108065D01*
X-8788776Y6175408D01*
X-8721432Y6310096D01*
X-8721432Y6444783D01*
X-8755104Y6545798D01*
X-8856119Y6714157D01*
X-8957135Y6815172D01*
X-9125493Y6916188D01*
X-9226509Y6949859D01*
X-9361196Y6949859D01*
X-9495883Y6882515D01*
X-9563227Y6815172D01*
X-9630570Y6680485D01*
X-9630570Y6613141D01*
X-9664242Y5299943D02*
X-9260180Y5704004D01*
X-9462211Y5501974D02*
X-10169317Y6209081D01*
X-10000959Y6175409D01*
X-9866272Y6175409D01*
X-9765257Y6209081D01*
X-10337677Y4626508D02*
X-9933615Y5030569D01*
X-10135646Y4828539D02*
X-10842752Y5535646D01*
X-10674394Y5501974D01*
X-10539707Y5501974D01*
X-10438692Y5535646D01*
X-11145799Y4626509D02*
X-11112127Y4727524D01*
X-11112127Y4794867D01*
X-11145799Y4895882D01*
X-11179470Y4929554D01*
X-11280486Y4963226D01*
X-11347829Y4963226D01*
X-11448844Y4929554D01*
X-11583532Y4794867D01*
X-11617203Y4693851D01*
X-11617203Y4626508D01*
X-11583532Y4525493D01*
X-11549860Y4491821D01*
X-11448845Y4458149D01*
X-11381501Y4458149D01*
X-11280486Y4491821D01*
X-11145799Y4626509D01*
X-11044784Y4660180D01*
X-10977440Y4660180D01*
X-10876424Y4626508D01*
X-10741737Y4491821D01*
X-10708066Y4390806D01*
X-10708066Y4323462D01*
X-10741737Y4222447D01*
X-10876425Y4087760D01*
X-10977440Y4054088D01*
X-11044784Y4054088D01*
X-11145799Y4087760D01*
X-11280486Y4222447D01*
X-11314158Y4323462D01*
X-11314158Y4390806D01*
X-11280486Y4491821D01*
X5500666Y-14454142D02*
X5548285Y-14501761D01*
X5691142Y-14549380D01*
X5786380Y-14549380D01*
X5929238Y-14501761D01*
X6024476Y-14406523D01*
X6072095Y-14311285D01*
X6119714Y-14120809D01*
X6119714Y-13977951D01*
X6072095Y-13787475D01*
X6024476Y-13692237D01*
X5929238Y-13596999D01*
X5786380Y-13549380D01*
X5691142Y-13549380D01*
X5548285Y-13596999D01*
X5500666Y-13644618D01*
X4548285Y-14549380D02*
X5119714Y-14549380D01*
X4834000Y-14549380D02*
X4834000Y-13549380D01*
X4929238Y-13692237D01*
X5024476Y-13787475D01*
X5119714Y-13835094D01*
X5500666Y-15089142D02*
X5548285Y-15136761D01*
X5691142Y-15184380D01*
X5786380Y-15184380D01*
X5929238Y-15136761D01*
X6024476Y-15041523D01*
X6072095Y-14946285D01*
X6119714Y-14755809D01*
X6119714Y-14612951D01*
X6072095Y-14422475D01*
X6024476Y-14327237D01*
X5929238Y-14231999D01*
X5786380Y-14184380D01*
X5691142Y-14184380D01*
X5548285Y-14231999D01*
X5500666Y-14279618D01*
X5119714Y-14279618D02*
X5072095Y-14231999D01*
X4976857Y-14184380D01*
X4738761Y-14184380D01*
X4643523Y-14231999D01*
X4595904Y-14279618D01*
X4548285Y-14374856D01*
X4548285Y-14470094D01*
X4595904Y-14612951D01*
X5167333Y-15184380D01*
X4548285Y-15184380D01*
X5500666Y-13057142D02*
X5548285Y-13104761D01*
X5691142Y-13152380D01*
X5786380Y-13152380D01*
X5929238Y-13104761D01*
X6024476Y-13009523D01*
X6072095Y-12914285D01*
X6119714Y-12723809D01*
X6119714Y-12580951D01*
X6072095Y-12390475D01*
X6024476Y-12295237D01*
X5929238Y-12199999D01*
X5786380Y-12152380D01*
X5691142Y-12152380D01*
X5548285Y-12199999D01*
X5500666Y-12247618D01*
X4595904Y-12152380D02*
X5072095Y-12152380D01*
X5119714Y-12628570D01*
X5072095Y-12580951D01*
X4976857Y-12533332D01*
X4738761Y-12533332D01*
X4643523Y-12580951D01*
X4595904Y-12628570D01*
X4548285Y-12723809D01*
X4548285Y-12961904D01*
X4595904Y-13057142D01*
X4643523Y-13104761D01*
X4738761Y-13152380D01*
X4976857Y-13152380D01*
X5072095Y-13104761D01*
X5119714Y-13057142D01*
X6453047Y-13692142D02*
X6500666Y-13739761D01*
X6643523Y-13787380D01*
X6738761Y-13787380D01*
X6881619Y-13739761D01*
X6976857Y-13644523D01*
X7024476Y-13549285D01*
X7072095Y-13358809D01*
X7072095Y-13215951D01*
X7024476Y-13025475D01*
X6976857Y-12930237D01*
X6881619Y-12834999D01*
X6738761Y-12787380D01*
X6643523Y-12787380D01*
X6500666Y-12834999D01*
X6453047Y-12882618D01*
X5500666Y-13787380D02*
X6072095Y-13787380D01*
X5786381Y-13787380D02*
X5786381Y-12787380D01*
X5881619Y-12930237D01*
X5976857Y-13025475D01*
X6072095Y-13073094D01*
X4548285Y-13787380D02*
X5119714Y-13787380D01*
X4834000Y-13787380D02*
X4834000Y-12787380D01*
X4929238Y-12930237D01*
X5024476Y-13025475D01*
X5119714Y-13073094D01*
X3691142Y-12787380D02*
X3881619Y-12787380D01*
X3976857Y-12834999D01*
X4024476Y-12882618D01*
X4119714Y-13025475D01*
X4167333Y-13215951D01*
X4167333Y-13596904D01*
X4119714Y-13692142D01*
X4072095Y-13739761D01*
X3976857Y-13787380D01*
X3786380Y-13787380D01*
X3691142Y-13739761D01*
X3643523Y-13692142D01*
X3595904Y-13596904D01*
X3595904Y-13358809D01*
X3643523Y-13263570D01*
X3691142Y-13215951D01*
X3786380Y-13168332D01*
X3976857Y-13168332D01*
X4072095Y-13215951D01*
X4119714Y-13263570D01*
X4167333Y-13358809D01*
X-3452953Y15239857D02*
X-3405334Y15192238D01*
X-3262477Y15144619D01*
X-3167239Y15144619D01*
X-3024381Y15192238D01*
X-2929143Y15287476D01*
X-2881524Y15382714D01*
X-2833905Y15573190D01*
X-2833905Y15716048D01*
X-2881524Y15906524D01*
X-2929143Y16001762D01*
X-3024381Y16097000D01*
X-3167239Y16144619D01*
X-3262477Y16144619D01*
X-3405334Y16097000D01*
X-3452953Y16049381D01*
X-4405334Y15144619D02*
X-3833905Y15144619D01*
X-4119619Y15144619D02*
X-4119619Y16144619D01*
X-4024381Y16001762D01*
X-3929143Y15906524D01*
X-3833905Y15858905D01*
X-4786286Y16049381D02*
X-4833905Y16097000D01*
X-4929143Y16144619D01*
X-5167239Y16144619D01*
X-5262477Y16097000D01*
X-5310096Y16049381D01*
X-5357715Y15954143D01*
X-5357715Y15858905D01*
X-5310096Y15716048D01*
X-4738667Y15144619D01*
X-5357715Y15144619D01*
X-6214858Y15811286D02*
X-6214858Y15144619D01*
X-5976762Y16192238D02*
X-5738667Y15477952D01*
X-6357715Y15477952D01*
X-14240836Y-2845593D02*
X-14173493Y-2845593D01*
X-14038806Y-2778249D01*
X-13971462Y-2710906D01*
X-13904118Y-2576218D01*
X-13904118Y-2441531D01*
X-13937790Y-2340516D01*
X-14038805Y-2172157D01*
X-14139821Y-2071142D01*
X-14308179Y-1970126D01*
X-14409195Y-1936455D01*
X-14543882Y-1936455D01*
X-14678569Y-2003799D01*
X-14745913Y-2071142D01*
X-14813256Y-2205829D01*
X-14813256Y-2273173D01*
X-14846928Y-3586371D02*
X-14442866Y-3182310D01*
X-14644897Y-3384340D02*
X-15352003Y-2677233D01*
X-15183645Y-2710905D01*
X-15048958Y-2710905D01*
X-14947943Y-2677233D01*
X-15991767Y-3316997D02*
X-16059111Y-3384341D01*
X-16092783Y-3485356D01*
X-16092783Y-3552699D01*
X-16059111Y-3653714D01*
X-15958096Y-3822073D01*
X-15789736Y-3990432D01*
X-15621378Y-4091447D01*
X-15520363Y-4125119D01*
X-15453019Y-4125119D01*
X-15352004Y-4091447D01*
X-15284660Y-4024103D01*
X-15250988Y-3923088D01*
X-15250988Y-3855745D01*
X-15284660Y-3754730D01*
X-15385675Y-3586371D01*
X-15554034Y-3418012D01*
X-15722393Y-3316997D01*
X-15823408Y-3283325D01*
X-15890752Y-3283325D01*
X-15991767Y-3316997D01*
X-16429500Y-3889416D02*
X-16496843Y-3889416D01*
X-16597858Y-3923088D01*
X-16766218Y-4091447D01*
X-16799889Y-4192463D01*
X-16799889Y-4259806D01*
X-16766218Y-4360821D01*
X-16698874Y-4428165D01*
X-16564187Y-4495508D01*
X-15756065Y-4495508D01*
X-16193798Y-4933241D01*
X-5766593Y-9762164D02*
X-5766593Y-9829507D01*
X-5699249Y-9964194D01*
X-5631906Y-10031538D01*
X-5497218Y-10098882D01*
X-5362531Y-10098882D01*
X-5261516Y-10065210D01*
X-5093157Y-9964195D01*
X-4992142Y-9863179D01*
X-4891126Y-9694821D01*
X-4857455Y-9593805D01*
X-4857455Y-9459118D01*
X-4924799Y-9324431D01*
X-4992142Y-9257087D01*
X-5126829Y-9189744D01*
X-5194173Y-9189744D01*
X-6507371Y-9156072D02*
X-6103310Y-9560134D01*
X-6305340Y-9358103D02*
X-5598233Y-8650997D01*
X-5631905Y-8819355D01*
X-5631905Y-8954042D01*
X-5598233Y-9055057D01*
X-6237997Y-8011233D02*
X-6305341Y-7943889D01*
X-6406356Y-7910217D01*
X-6473699Y-7910217D01*
X-6574714Y-7943889D01*
X-6743073Y-8044904D01*
X-6911432Y-8213264D01*
X-7012447Y-8381622D01*
X-7046119Y-8482637D01*
X-7046119Y-8549981D01*
X-7012447Y-8650996D01*
X-6945103Y-8718340D01*
X-6844088Y-8752012D01*
X-6776745Y-8752012D01*
X-6675730Y-8718340D01*
X-6507371Y-8617325D01*
X-6339012Y-8448966D01*
X-6237997Y-8280607D01*
X-6204325Y-8179592D01*
X-6204325Y-8112248D01*
X-6237997Y-8011233D01*
X-7079791Y-7169439D02*
X-6945103Y-7304126D01*
X-6911432Y-7405142D01*
X-6911432Y-7472485D01*
X-6945103Y-7640844D01*
X-7046118Y-7809202D01*
X-7315493Y-8078577D01*
X-7416508Y-8112248D01*
X-7483852Y-8112248D01*
X-7584867Y-8078577D01*
X-7719554Y-7943889D01*
X-7753226Y-7842874D01*
X-7753226Y-7775530D01*
X-7719554Y-7674515D01*
X-7551196Y-7506157D01*
X-7450180Y-7472484D01*
X-7382836Y-7472484D01*
X-7281821Y-7506156D01*
X-7147134Y-7640844D01*
X-7113462Y-7741859D01*
X-7113462Y-7809202D01*
X-7147134Y-7910218D01*
X-10341516Y-10173913D02*
X-10274173Y-10173913D01*
X-10139486Y-10106569D01*
X-10072142Y-10039226D01*
X-10004798Y-9904538D01*
X-10004798Y-9769851D01*
X-10038470Y-9668836D01*
X-10139485Y-9500477D01*
X-10240501Y-9399462D01*
X-10408859Y-9298446D01*
X-10509875Y-9264775D01*
X-10644562Y-9264775D01*
X-10779249Y-9332119D01*
X-10846593Y-9399462D01*
X-10913936Y-9534149D01*
X-10913936Y-9601493D01*
X-10947608Y-10914691D02*
X-10543546Y-10510630D01*
X-10745577Y-10712660D02*
X-11452683Y-10005553D01*
X-11284325Y-10039225D01*
X-11149638Y-10039225D01*
X-11048623Y-10005553D01*
X-11856745Y-10544301D02*
X-11924088Y-10544301D01*
X-12025103Y-10577973D01*
X-12193463Y-10746332D01*
X-12227134Y-10847348D01*
X-12227134Y-10914691D01*
X-12193463Y-11015706D01*
X-12126119Y-11083050D01*
X-11991432Y-11150393D01*
X-11183310Y-11150393D01*
X-11621043Y-11588126D01*
X-12765882Y-11318752D02*
X-12833226Y-11386096D01*
X-12866898Y-11487111D01*
X-12866898Y-11554454D01*
X-12833226Y-11655470D01*
X-12732211Y-11823828D01*
X-12563852Y-11992187D01*
X-12395493Y-12093203D01*
X-12294478Y-12126874D01*
X-12227134Y-12126874D01*
X-12126119Y-12093203D01*
X-12058775Y-12025858D01*
X-12025103Y-11924843D01*
X-12025103Y-11857500D01*
X-12058775Y-11756485D01*
X-12159790Y-11588126D01*
X-12328150Y-11419767D01*
X-12496508Y-11318752D01*
X-12597523Y-11285080D01*
X-12664867Y-11285080D01*
X-12765882Y-11318752D01*
X-8563516Y-8395913D02*
X-8496173Y-8395913D01*
X-8361486Y-8328569D01*
X-8294142Y-8261226D01*
X-8226798Y-8126538D01*
X-8226798Y-7991851D01*
X-8260470Y-7890836D01*
X-8361485Y-7722477D01*
X-8462501Y-7621462D01*
X-8630859Y-7520446D01*
X-8731875Y-7486775D01*
X-8866562Y-7486775D01*
X-9001249Y-7554119D01*
X-9068593Y-7621462D01*
X-9135936Y-7756149D01*
X-9135936Y-7823493D01*
X-9169608Y-9136691D02*
X-8765546Y-8732630D01*
X-8967577Y-8934660D02*
X-9674683Y-8227553D01*
X-9506325Y-8261225D01*
X-9371638Y-8261225D01*
X-9270623Y-8227553D01*
X-10078745Y-8766301D02*
X-10146088Y-8766301D01*
X-10247103Y-8799973D01*
X-10415463Y-8968332D01*
X-10449134Y-9069348D01*
X-10449134Y-9136691D01*
X-10415463Y-9237706D01*
X-10348119Y-9305050D01*
X-10213432Y-9372393D01*
X-9405310Y-9372393D01*
X-9843043Y-9810126D01*
X-10785852Y-9338721D02*
X-11223585Y-9776454D01*
X-10718508Y-9810125D01*
X-10819524Y-9911141D01*
X-10853196Y-10012156D01*
X-10853196Y-10079500D01*
X-10819523Y-10180516D01*
X-10651165Y-10348874D01*
X-10550150Y-10382546D01*
X-10482806Y-10382546D01*
X-10381791Y-10348874D01*
X-10179760Y-10146843D01*
X-10146088Y-10045828D01*
X-10146088Y-9978485D01*
X-29400919Y-15409944D02*
X-29333576Y-15409944D01*
X-29198889Y-15342600D01*
X-29131545Y-15275257D01*
X-29064201Y-15140569D01*
X-29064201Y-15005882D01*
X-29097873Y-14904867D01*
X-29198888Y-14736509D01*
X-29299904Y-14635493D01*
X-29468263Y-14534478D01*
X-29569278Y-14500806D01*
X-29703965Y-14500806D01*
X-29838652Y-14568150D01*
X-29905996Y-14635493D01*
X-29973339Y-14770180D01*
X-29973339Y-14837524D01*
X-30242713Y-15106898D02*
X-30310056Y-15106898D01*
X-30411071Y-15140569D01*
X-30579431Y-15308929D01*
X-30613102Y-15409944D01*
X-30613102Y-15477287D01*
X-30579431Y-15578302D01*
X-30512087Y-15645646D01*
X-30377400Y-15712989D01*
X-29569278Y-15712989D01*
X-30007011Y-16150722D01*
X-31084507Y-16285409D02*
X-30613102Y-16756814D01*
X-31185522Y-15847676D02*
X-30512087Y-16184394D01*
X-30949820Y-16622127D01*
X-19825913Y-30679484D02*
X-19825913Y-30746827D01*
X-19758569Y-30881514D01*
X-19691226Y-30948858D01*
X-19556538Y-31016202D01*
X-19421851Y-31016202D01*
X-19320836Y-30982530D01*
X-19152477Y-30881515D01*
X-19051462Y-30780499D01*
X-18950446Y-30612141D01*
X-18916775Y-30511125D01*
X-18916775Y-30376438D01*
X-18984119Y-30241751D01*
X-19051462Y-30174407D01*
X-19186149Y-30107064D01*
X-19253493Y-30107064D01*
X-20566691Y-30073392D02*
X-20162630Y-30477454D01*
X-20364660Y-30275423D02*
X-19657553Y-29568317D01*
X-19691225Y-29736675D01*
X-19691225Y-29871362D01*
X-19657553Y-29972377D01*
X-21240126Y-29399957D02*
X-20836065Y-29804019D01*
X-21038095Y-29601988D02*
X-20330988Y-28894882D01*
X-20364660Y-29063240D01*
X-20364660Y-29197927D01*
X-20330988Y-29298942D01*
X-20768721Y-28457148D02*
X-21206454Y-28019415D01*
X-21240125Y-28524492D01*
X-21341141Y-28423476D01*
X-21442156Y-28389804D01*
X-21509500Y-28389804D01*
X-21610516Y-28423477D01*
X-21778874Y-28591835D01*
X-21812546Y-28692850D01*
X-21812546Y-28760194D01*
X-21778874Y-28861209D01*
X-21576843Y-29063240D01*
X-21475828Y-29096912D01*
X-21408485Y-29096912D01*
X-25460996Y-18115133D02*
X-25460996Y-18182476D01*
X-25393652Y-18317163D01*
X-25326309Y-18384507D01*
X-25191621Y-18451851D01*
X-25056934Y-18451851D01*
X-24955919Y-18418179D01*
X-24787561Y-18317164D01*
X-24686545Y-18216148D01*
X-24585530Y-18047789D01*
X-24551858Y-17946774D01*
X-24551858Y-17812087D01*
X-24619202Y-17677400D01*
X-24686545Y-17610056D01*
X-24821232Y-17542713D01*
X-24888576Y-17542713D01*
X-25157950Y-17273339D02*
X-25157950Y-17205996D01*
X-25191621Y-17104981D01*
X-25359981Y-16936621D01*
X-25460996Y-16902950D01*
X-25528339Y-16902950D01*
X-25629354Y-16936621D01*
X-25696698Y-17003965D01*
X-25764041Y-17138652D01*
X-25764041Y-17946774D01*
X-26201774Y-17509041D01*
X-26134431Y-16162171D02*
X-25797713Y-16498889D01*
X-26100758Y-16869278D01*
X-26100758Y-16801934D01*
X-26134430Y-16700919D01*
X-26302789Y-16532560D01*
X-26403804Y-16498888D01*
X-26471148Y-16498888D01*
X-26572164Y-16532561D01*
X-26740522Y-16700919D01*
X-26774194Y-16801934D01*
X-26774194Y-16869278D01*
X-26740522Y-16970293D01*
X-26572163Y-17138652D01*
X-26471148Y-17172324D01*
X-26403804Y-17172324D01*
X-24413993Y-18355788D02*
X-23841573Y-18928207D01*
X-23807901Y-19029223D01*
X-23807901Y-19096566D01*
X-23841573Y-19197581D01*
X-23976260Y-19332269D01*
X-24077276Y-19365940D01*
X-24144619Y-19365940D01*
X-24245634Y-19332269D01*
X-24818054Y-18759849D01*
X-24818054Y-20174062D02*
X-24413993Y-19770001D01*
X-24616023Y-19972031D02*
X-25323130Y-19264925D01*
X-25154771Y-19298596D01*
X-25020084Y-19298596D01*
X-24919069Y-19264925D01*
X-25154771Y-20510780D02*
X-25289458Y-20645466D01*
X-25390474Y-20679139D01*
X-25457817Y-20679139D01*
X-25626176Y-20645467D01*
X-25794535Y-20544452D01*
X-26063909Y-20275078D01*
X-26097581Y-20174062D01*
X-26097581Y-20106719D01*
X-26063909Y-20005704D01*
X-25929221Y-19871016D01*
X-25828206Y-19837345D01*
X-25760863Y-19837345D01*
X-25659848Y-19871016D01*
X-25491489Y-20039375D01*
X-25457817Y-20140390D01*
X-25457817Y-20207734D01*
X-25491488Y-20308749D01*
X-25626176Y-20443437D01*
X-25727191Y-20477109D01*
X-25794535Y-20477108D01*
X-25895550Y-20443436D01*
X-13803227Y-29355798D02*
X-13803227Y-29423141D01*
X-13735883Y-29557828D01*
X-13668540Y-29625172D01*
X-13533852Y-29692516D01*
X-13399165Y-29692516D01*
X-13298150Y-29658844D01*
X-13129791Y-29557829D01*
X-13028776Y-29456813D01*
X-12927760Y-29288455D01*
X-12894089Y-29187439D01*
X-12894089Y-29052752D01*
X-12961433Y-28918065D01*
X-13028776Y-28850721D01*
X-13163463Y-28783378D01*
X-13230807Y-28783378D01*
X-14544005Y-28749706D02*
X-14139944Y-29153768D01*
X-14341974Y-28951737D02*
X-13634867Y-28244631D01*
X-13668539Y-28412989D01*
X-13668539Y-28547676D01*
X-13634867Y-28648691D01*
X-14173615Y-27840569D02*
X-14173615Y-27773226D01*
X-14207287Y-27672211D01*
X-14375646Y-27503851D01*
X-14476662Y-27470180D01*
X-14544005Y-27470180D01*
X-14645020Y-27503851D01*
X-14712364Y-27571195D01*
X-14779707Y-27705882D01*
X-14779707Y-28514004D01*
X-15217440Y-28076271D01*
X-14746035Y-27133462D02*
X-15217440Y-26662058D01*
X-15621501Y-27672211D01*
X30280761Y16075060D02*
X30853182Y16176075D01*
X30684822Y15670998D02*
X31391929Y16378105D01*
X31122555Y16647480D01*
X31021539Y16681151D01*
X30954196Y16681151D01*
X30853181Y16647480D01*
X30752166Y16546464D01*
X30718494Y16445449D01*
X30718494Y16378106D01*
X30752166Y16277091D01*
X31021540Y16007716D01*
X30651151Y16984197D02*
X30651151Y17051540D01*
X30617479Y17152555D01*
X30449120Y17320915D01*
X30348104Y17354586D01*
X30280761Y17354586D01*
X30179746Y17320915D01*
X30112402Y17253571D01*
X30045059Y17118884D01*
X30045059Y16310762D01*
X29607326Y16748495D01*
X-7058060Y-10232239D02*
X-7159075Y-9659818D01*
X-6653998Y-9828178D02*
X-7361105Y-9121071D01*
X-7630480Y-9390445D01*
X-7664151Y-9491461D01*
X-7664151Y-9558804D01*
X-7630480Y-9659819D01*
X-7529464Y-9760834D01*
X-7428449Y-9794506D01*
X-7361106Y-9794506D01*
X-7260091Y-9760834D01*
X-6990716Y-9491460D01*
X-8000868Y-9760834D02*
X-8438602Y-10198567D01*
X-7933525Y-10232238D01*
X-8034541Y-10333254D01*
X-8068213Y-10434269D01*
X-8068213Y-10501613D01*
X-8034540Y-10602629D01*
X-7866182Y-10770987D01*
X-7765166Y-10804659D01*
X-7697823Y-10804659D01*
X-7596808Y-10770987D01*
X-7394777Y-10568956D01*
X-7361105Y-10467941D01*
X-7361105Y-10400598D01*
X-15059060Y-27123239D02*
X-15160075Y-26550818D01*
X-14654998Y-26719178D02*
X-15362105Y-26012071D01*
X-15631480Y-26281445D01*
X-15665151Y-26382461D01*
X-15665151Y-26449804D01*
X-15631480Y-26550819D01*
X-15530464Y-26651834D01*
X-15429449Y-26685506D01*
X-15362106Y-26685506D01*
X-15261091Y-26651834D01*
X-14991716Y-26382460D01*
X-16405930Y-27055896D02*
X-16069212Y-26719178D01*
X-15698823Y-27022223D01*
X-15766166Y-27022223D01*
X-15867182Y-27055895D01*
X-16035541Y-27224254D01*
X-16069213Y-27325269D01*
X-16069213Y-27392613D01*
X-16035540Y-27493629D01*
X-15867182Y-27661987D01*
X-15766166Y-27695659D01*
X-15698823Y-27695659D01*
X-15597808Y-27661987D01*
X-15429449Y-27493628D01*
X-15395777Y-27392613D01*
X-15395777Y-27325269D01*
X30638832Y12878214D02*
X30504145Y12945558D01*
X30335786Y13113917D01*
X30302114Y13214932D01*
X30302114Y13282276D01*
X30335786Y13383291D01*
X30403129Y13450634D01*
X30504144Y13484306D01*
X30571488Y13484306D01*
X30672504Y13450635D01*
X30840863Y13349619D01*
X30941878Y13315947D01*
X31009221Y13315947D01*
X31110237Y13349619D01*
X31177580Y13416962D01*
X31211252Y13517978D01*
X31211252Y13585321D01*
X31177580Y13686336D01*
X31009221Y13854695D01*
X30874534Y13922039D01*
X30672504Y14191413D02*
X29797038Y13652664D01*
X30167427Y14292429D01*
X29527664Y13922039D01*
X30066412Y14797504D01*
X29763366Y14965863D02*
X29763366Y15033206D01*
X29729695Y15134221D01*
X29561335Y15302581D01*
X29460320Y15336252D01*
X29392977Y15336252D01*
X29291962Y15302581D01*
X29224618Y15235237D01*
X29157275Y15100550D01*
X29157275Y14292428D01*
X28719542Y14730161D01*
X-13450634Y-31211252D02*
X-13585321Y-31143908D01*
X-13753680Y-30975549D01*
X-13787352Y-30874534D01*
X-13787352Y-30807190D01*
X-13753680Y-30706175D01*
X-13686337Y-30638832D01*
X-13585322Y-30605160D01*
X-13517978Y-30605160D01*
X-13416962Y-30638831D01*
X-13248603Y-30739847D01*
X-13147588Y-30773519D01*
X-13080245Y-30773519D01*
X-12979229Y-30739847D01*
X-12911886Y-30672504D01*
X-12878214Y-30571488D01*
X-12878214Y-30504145D01*
X-12911886Y-30403130D01*
X-13080245Y-30234771D01*
X-13214932Y-30167427D01*
X-13416962Y-29898053D02*
X-14292428Y-30436802D01*
X-13922039Y-29797037D01*
X-14561802Y-30167427D01*
X-14023054Y-29291962D01*
X-14831176Y-28955244D02*
X-15302581Y-29426649D01*
X-14393443Y-28854229D02*
X-14730161Y-29527664D01*
X-15167894Y-29089931D01*
X-5460857Y19280047D02*
X-5413238Y19327666D01*
X-5365619Y19470523D01*
X-5365619Y19565761D01*
X-5413238Y19708619D01*
X-5508476Y19803857D01*
X-5603714Y19851476D01*
X-5794190Y19899095D01*
X-5937048Y19899095D01*
X-6127524Y19851476D01*
X-6222762Y19803857D01*
X-6318000Y19708619D01*
X-6365619Y19565761D01*
X-6365619Y19470523D01*
X-6318000Y19327666D01*
X-6270381Y19280047D01*
X-5365619Y18327666D02*
X-5365619Y18899095D01*
X-5365619Y18613381D02*
X-6365619Y18613381D01*
X-6222762Y18708619D01*
X-6127524Y18803857D01*
X-6079905Y18899095D01*
X-6365619Y17994333D02*
X-6365619Y17375285D01*
X-5984667Y17708619D01*
X-5984667Y17565761D01*
X-5937048Y17470523D01*
X-5889429Y17422904D01*
X-5794190Y17375285D01*
X-5556095Y17375285D01*
X-5460857Y17422904D01*
X-5413238Y17470523D01*
X-5365619Y17565761D01*
X-5365619Y17851476D01*
X-5413238Y17946714D01*
X-5460857Y17994333D01*
X-6270381Y16994333D02*
X-6318000Y16946714D01*
X-6365619Y16851476D01*
X-6365619Y16613380D01*
X-6318000Y16518142D01*
X-6270381Y16470523D01*
X-6175143Y16422904D01*
X-6079905Y16422904D01*
X-5937048Y16470523D01*
X-5365619Y17041952D01*
X-5365619Y16422904D01*
X-6246857Y19407047D02*
X-6199238Y19454666D01*
X-6151619Y19597523D01*
X-6151619Y19692761D01*
X-6199238Y19835619D01*
X-6294476Y19930857D01*
X-6389714Y19978476D01*
X-6580190Y20026095D01*
X-6723048Y20026095D01*
X-6913524Y19978476D01*
X-7008762Y19930857D01*
X-7104000Y19835619D01*
X-7151619Y19692761D01*
X-7151619Y19597523D01*
X-7104000Y19454666D01*
X-7056381Y19407047D01*
X-6151619Y18454666D02*
X-6151619Y19026095D01*
X-6151619Y18740381D02*
X-7151619Y18740381D01*
X-7008762Y18835619D01*
X-6913524Y18930857D01*
X-6865905Y19026095D01*
X-7151619Y18121333D02*
X-7151619Y17502285D01*
X-6770667Y17835619D01*
X-6770667Y17692761D01*
X-6723048Y17597523D01*
X-6675429Y17549904D01*
X-6580190Y17502285D01*
X-6342095Y17502285D01*
X-6246857Y17549904D01*
X-6199238Y17597523D01*
X-6151619Y17692761D01*
X-6151619Y17978476D01*
X-6199238Y18073714D01*
X-6246857Y18121333D01*
X-7151619Y17168952D02*
X-7151619Y16549904D01*
X-6770667Y16883238D01*
X-6770667Y16740380D01*
X-6723048Y16645142D01*
X-6675429Y16597523D01*
X-6580190Y16549904D01*
X-6342095Y16549904D01*
X-6246857Y16597523D01*
X-6199238Y16645142D01*
X-6151619Y16740380D01*
X-6151619Y17026095D01*
X-6199238Y17121333D01*
X-6246857Y17168952D01*
X3151143Y20550047D02*
X3198762Y20597666D01*
X3246381Y20740523D01*
X3246381Y20835761D01*
X3198762Y20978619D01*
X3103524Y21073857D01*
X3008286Y21121476D01*
X2817810Y21169095D01*
X2674952Y21169095D01*
X2484476Y21121476D01*
X2389238Y21073857D01*
X2294000Y20978619D01*
X2246381Y20835761D01*
X2246381Y20740523D01*
X2294000Y20597666D01*
X2341619Y20550047D01*
X3246381Y19597666D02*
X3246381Y20169095D01*
X3246381Y19883381D02*
X2246381Y19883381D01*
X2389238Y19978619D01*
X2484476Y20073857D01*
X2532095Y20169095D01*
X2246381Y19264333D02*
X2246381Y18645285D01*
X2627333Y18978619D01*
X2627333Y18835761D01*
X2674952Y18740523D01*
X2722571Y18692904D01*
X2817810Y18645285D01*
X3055905Y18645285D01*
X3151143Y18692904D01*
X3198762Y18740523D01*
X3246381Y18835761D01*
X3246381Y19121476D01*
X3198762Y19216714D01*
X3151143Y19264333D01*
X2579714Y17788142D02*
X3246381Y17788142D01*
X2198762Y18026238D02*
X2913048Y18264333D01*
X2913048Y17645285D01*
X6429143Y17883047D02*
X6476762Y17930666D01*
X6524381Y18073523D01*
X6524381Y18168761D01*
X6476762Y18311619D01*
X6381524Y18406857D01*
X6286286Y18454476D01*
X6095810Y18502095D01*
X5952952Y18502095D01*
X5762476Y18454476D01*
X5667238Y18406857D01*
X5572000Y18311619D01*
X5524381Y18168761D01*
X5524381Y18073523D01*
X5572000Y17930666D01*
X5619619Y17883047D01*
X6524381Y16930666D02*
X6524381Y17502095D01*
X6524381Y17216381D02*
X5524381Y17216381D01*
X5667238Y17311619D01*
X5762476Y17406857D01*
X5810095Y17502095D01*
X5524381Y16597333D02*
X5524381Y15978285D01*
X5905333Y16311619D01*
X5905333Y16168761D01*
X5952952Y16073523D01*
X6000571Y16025904D01*
X6095810Y15978285D01*
X6333905Y15978285D01*
X6429143Y16025904D01*
X6476762Y16073523D01*
X6524381Y16168761D01*
X6524381Y16454476D01*
X6476762Y16549714D01*
X6429143Y16597333D01*
X5524381Y15073523D02*
X5524381Y15549714D01*
X6000571Y15597333D01*
X5952952Y15549714D01*
X5905333Y15454476D01*
X5905333Y15216380D01*
X5952952Y15121142D01*
X6000571Y15073523D01*
X6095810Y15025904D01*
X6333905Y15025904D01*
X6429143Y15073523D01*
X6476762Y15121142D01*
X6524381Y15216380D01*
X6524381Y15454476D01*
X6476762Y15549714D01*
X6429143Y15597333D01*
X-17041953Y-6175143D02*
X-16994334Y-6222762D01*
X-16851477Y-6270381D01*
X-16756239Y-6270381D01*
X-16613381Y-6222762D01*
X-16518143Y-6127524D01*
X-16470524Y-6032286D01*
X-16422905Y-5841810D01*
X-16422905Y-5698952D01*
X-16470524Y-5508476D01*
X-16518143Y-5413238D01*
X-16613381Y-5318000D01*
X-16756239Y-5270381D01*
X-16851477Y-5270381D01*
X-16994334Y-5318000D01*
X-17041953Y-5365619D01*
X-17994334Y-6270381D02*
X-17422905Y-6270381D01*
X-17708619Y-6270381D02*
X-17708619Y-5270381D01*
X-17613381Y-5413238D01*
X-17518143Y-5508476D01*
X-17422905Y-5556095D01*
X-18327667Y-5270381D02*
X-18946715Y-5270381D01*
X-18613381Y-5651333D01*
X-18756239Y-5651333D01*
X-18851477Y-5698952D01*
X-18899096Y-5746571D01*
X-18946715Y-5841810D01*
X-18946715Y-6079905D01*
X-18899096Y-6175143D01*
X-18851477Y-6222762D01*
X-18756239Y-6270381D01*
X-18470524Y-6270381D01*
X-18375286Y-6222762D01*
X-18327667Y-6175143D01*
X-19803858Y-5270381D02*
X-19613381Y-5270381D01*
X-19518143Y-5318000D01*
X-19470524Y-5365619D01*
X-19375286Y-5508476D01*
X-19327667Y-5698952D01*
X-19327667Y-6079905D01*
X-19375286Y-6175143D01*
X-19422905Y-6222762D01*
X-19518143Y-6270381D01*
X-19708620Y-6270381D01*
X-19803858Y-6222762D01*
X-19851477Y-6175143D01*
X-19899096Y-6079905D01*
X-19899096Y-5841810D01*
X-19851477Y-5746571D01*
X-19803858Y-5698952D01*
X-19708620Y-5651333D01*
X-19518143Y-5651333D01*
X-19422905Y-5698952D01*
X-19375286Y-5746571D01*
X-19327667Y-5841810D01*
X-17041953Y-6961143D02*
X-16994334Y-7008762D01*
X-16851477Y-7056381D01*
X-16756239Y-7056381D01*
X-16613381Y-7008762D01*
X-16518143Y-6913524D01*
X-16470524Y-6818286D01*
X-16422905Y-6627810D01*
X-16422905Y-6484952D01*
X-16470524Y-6294476D01*
X-16518143Y-6199238D01*
X-16613381Y-6104000D01*
X-16756239Y-6056381D01*
X-16851477Y-6056381D01*
X-16994334Y-6104000D01*
X-17041953Y-6151619D01*
X-17994334Y-7056381D02*
X-17422905Y-7056381D01*
X-17708619Y-7056381D02*
X-17708619Y-6056381D01*
X-17613381Y-6199238D01*
X-17518143Y-6294476D01*
X-17422905Y-6342095D01*
X-18327667Y-6056381D02*
X-18946715Y-6056381D01*
X-18613381Y-6437333D01*
X-18756239Y-6437333D01*
X-18851477Y-6484952D01*
X-18899096Y-6532571D01*
X-18946715Y-6627810D01*
X-18946715Y-6865905D01*
X-18899096Y-6961143D01*
X-18851477Y-7008762D01*
X-18756239Y-7056381D01*
X-18470524Y-7056381D01*
X-18375286Y-7008762D01*
X-18327667Y-6961143D01*
X-19280048Y-6056381D02*
X-19946715Y-6056381D01*
X-19518143Y-7056381D01*
X-18311953Y2436857D02*
X-18264334Y2389238D01*
X-18121477Y2341619D01*
X-18026239Y2341619D01*
X-17883381Y2389238D01*
X-17788143Y2484476D01*
X-17740524Y2579714D01*
X-17692905Y2770190D01*
X-17692905Y2913048D01*
X-17740524Y3103524D01*
X-17788143Y3198762D01*
X-17883381Y3294000D01*
X-18026239Y3341619D01*
X-18121477Y3341619D01*
X-18264334Y3294000D01*
X-18311953Y3246381D01*
X-19264334Y2341619D02*
X-18692905Y2341619D01*
X-18978619Y2341619D02*
X-18978619Y3341619D01*
X-18883381Y3198762D01*
X-18788143Y3103524D01*
X-18692905Y3055905D01*
X-19597667Y3341619D02*
X-20216715Y3341619D01*
X-19883381Y2960667D01*
X-20026239Y2960667D01*
X-20121477Y2913048D01*
X-20169096Y2865429D01*
X-20216715Y2770190D01*
X-20216715Y2532095D01*
X-20169096Y2436857D01*
X-20121477Y2389238D01*
X-20026239Y2341619D01*
X-19740524Y2341619D01*
X-19645286Y2389238D01*
X-19597667Y2436857D01*
X-20788143Y2913048D02*
X-20692905Y2960667D01*
X-20645286Y3008286D01*
X-20597667Y3103524D01*
X-20597667Y3151143D01*
X-20645286Y3246381D01*
X-20692905Y3294000D01*
X-20788143Y3341619D01*
X-20978620Y3341619D01*
X-21073858Y3294000D01*
X-21121477Y3246381D01*
X-21169096Y3151143D01*
X-21169096Y3103524D01*
X-21121477Y3008286D01*
X-21073858Y2960667D01*
X-20978620Y2913048D01*
X-20788143Y2913048D01*
X-20692905Y2865429D01*
X-20645286Y2817810D01*
X-20597667Y2722571D01*
X-20597667Y2532095D01*
X-20645286Y2436857D01*
X-20692905Y2389238D01*
X-20788143Y2341619D01*
X-20978620Y2341619D01*
X-21073858Y2389238D01*
X-21121477Y2436857D01*
X-21169096Y2532095D01*
X-21169096Y2722571D01*
X-21121477Y2817810D01*
X-21073858Y2865429D01*
X-20978620Y2913048D01*
X-15644953Y5714857D02*
X-15597334Y5667238D01*
X-15454477Y5619619D01*
X-15359239Y5619619D01*
X-15216381Y5667238D01*
X-15121143Y5762476D01*
X-15073524Y5857714D01*
X-15025905Y6048190D01*
X-15025905Y6191048D01*
X-15073524Y6381524D01*
X-15121143Y6476762D01*
X-15216381Y6572000D01*
X-15359239Y6619619D01*
X-15454477Y6619619D01*
X-15597334Y6572000D01*
X-15644953Y6524381D01*
X-16597334Y5619619D02*
X-16025905Y5619619D01*
X-16311619Y5619619D02*
X-16311619Y6619619D01*
X-16216381Y6476762D01*
X-16121143Y6381524D01*
X-16025905Y6333905D01*
X-16930667Y6619619D02*
X-17549715Y6619619D01*
X-17216381Y6238667D01*
X-17359239Y6238667D01*
X-17454477Y6191048D01*
X-17502096Y6143429D01*
X-17549715Y6048190D01*
X-17549715Y5810095D01*
X-17502096Y5714857D01*
X-17454477Y5667238D01*
X-17359239Y5619619D01*
X-17073524Y5619619D01*
X-16978286Y5667238D01*
X-16930667Y5714857D01*
X-18025905Y5619619D02*
X-18216381Y5619619D01*
X-18311620Y5667238D01*
X-18359239Y5714857D01*
X-18454477Y5857714D01*
X-18502096Y6048190D01*
X-18502096Y6429143D01*
X-18454477Y6524381D01*
X-18406858Y6572000D01*
X-18311620Y6619619D01*
X-18121143Y6619619D01*
X-18025905Y6572000D01*
X-17978286Y6524381D01*
X-17930667Y6429143D01*
X-17930667Y6191048D01*
X-17978286Y6095810D01*
X-18025905Y6048190D01*
X-18121143Y6000571D01*
X-18311620Y6000571D01*
X-18406858Y6048190D01*
X-18454477Y6095810D01*
X-18502096Y6191048D01*
X6175143Y-17041953D02*
X6222762Y-16994334D01*
X6270381Y-16851477D01*
X6270381Y-16756239D01*
X6222762Y-16613381D01*
X6127524Y-16518143D01*
X6032286Y-16470524D01*
X5841810Y-16422905D01*
X5698952Y-16422905D01*
X5508476Y-16470524D01*
X5413238Y-16518143D01*
X5318000Y-16613381D01*
X5270381Y-16756239D01*
X5270381Y-16851477D01*
X5318000Y-16994334D01*
X5365619Y-17041953D01*
X6270381Y-17994334D02*
X6270381Y-17422905D01*
X6270381Y-17708619D02*
X5270381Y-17708619D01*
X5413238Y-17613381D01*
X5508476Y-17518143D01*
X5556095Y-17422905D01*
X5603714Y-18851477D02*
X6270381Y-18851477D01*
X5222762Y-18613381D02*
X5937048Y-18375286D01*
X5937048Y-18994334D01*
X5270381Y-19565762D02*
X5270381Y-19661001D01*
X5318000Y-19756239D01*
X5365619Y-19803858D01*
X5460857Y-19851477D01*
X5651333Y-19899096D01*
X5889429Y-19899096D01*
X6079905Y-19851477D01*
X6175143Y-19803858D01*
X6222762Y-19756239D01*
X6270381Y-19661001D01*
X6270381Y-19565762D01*
X6222762Y-19470524D01*
X6175143Y-19422905D01*
X6079905Y-19375286D01*
X5889429Y-19327667D01*
X5651333Y-19327667D01*
X5460857Y-19375286D01*
X5365619Y-19422905D01*
X5318000Y-19470524D01*
X5270381Y-19565762D01*
X6961143Y-16914953D02*
X7008762Y-16867334D01*
X7056381Y-16724477D01*
X7056381Y-16629239D01*
X7008762Y-16486381D01*
X6913524Y-16391143D01*
X6818286Y-16343524D01*
X6627810Y-16295905D01*
X6484952Y-16295905D01*
X6294476Y-16343524D01*
X6199238Y-16391143D01*
X6104000Y-16486381D01*
X6056381Y-16629239D01*
X6056381Y-16724477D01*
X6104000Y-16867334D01*
X6151619Y-16914953D01*
X7056381Y-17867334D02*
X7056381Y-17295905D01*
X7056381Y-17581619D02*
X6056381Y-17581619D01*
X6199238Y-17486381D01*
X6294476Y-17391143D01*
X6342095Y-17295905D01*
X6389714Y-18724477D02*
X7056381Y-18724477D01*
X6008762Y-18486381D02*
X6723048Y-18248286D01*
X6723048Y-18867334D01*
X7056381Y-19772096D02*
X7056381Y-19200667D01*
X7056381Y-19486381D02*
X6056381Y-19486381D01*
X6199238Y-19391143D01*
X6294476Y-19295905D01*
X6342095Y-19200667D01*
X-2436857Y-18184953D02*
X-2389238Y-18137334D01*
X-2341619Y-17994477D01*
X-2341619Y-17899239D01*
X-2389238Y-17756381D01*
X-2484476Y-17661143D01*
X-2579714Y-17613524D01*
X-2770190Y-17565905D01*
X-2913048Y-17565905D01*
X-3103524Y-17613524D01*
X-3198762Y-17661143D01*
X-3294000Y-17756381D01*
X-3341619Y-17899239D01*
X-3341619Y-17994477D01*
X-3294000Y-18137334D01*
X-3246381Y-18184953D01*
X-2341619Y-19137334D02*
X-2341619Y-18565905D01*
X-2341619Y-18851619D02*
X-3341619Y-18851619D01*
X-3198762Y-18756381D01*
X-3103524Y-18661143D01*
X-3055905Y-18565905D01*
X-3008286Y-19994477D02*
X-2341619Y-19994477D01*
X-3389238Y-19756381D02*
X-2674952Y-19518286D01*
X-2674952Y-20137334D01*
X-3246381Y-20470667D02*
X-3294000Y-20518286D01*
X-3341619Y-20613524D01*
X-3341619Y-20851620D01*
X-3294000Y-20946858D01*
X-3246381Y-20994477D01*
X-3151143Y-21042096D01*
X-3055905Y-21042096D01*
X-2913048Y-20994477D01*
X-2341619Y-20423048D01*
X-2341619Y-21042096D01*
X-5714857Y-15644953D02*
X-5667238Y-15597334D01*
X-5619619Y-15454477D01*
X-5619619Y-15359239D01*
X-5667238Y-15216381D01*
X-5762476Y-15121143D01*
X-5857714Y-15073524D01*
X-6048190Y-15025905D01*
X-6191048Y-15025905D01*
X-6381524Y-15073524D01*
X-6476762Y-15121143D01*
X-6572000Y-15216381D01*
X-6619619Y-15359239D01*
X-6619619Y-15454477D01*
X-6572000Y-15597334D01*
X-6524381Y-15644953D01*
X-5619619Y-16597334D02*
X-5619619Y-16025905D01*
X-5619619Y-16311619D02*
X-6619619Y-16311619D01*
X-6476762Y-16216381D01*
X-6381524Y-16121143D01*
X-6333905Y-16025905D01*
X-6286286Y-17454477D02*
X-5619619Y-17454477D01*
X-6667238Y-17216381D02*
X-5952952Y-16978286D01*
X-5952952Y-17597334D01*
X-6619619Y-17883048D02*
X-6619619Y-18502096D01*
X-6238667Y-18168762D01*
X-6238667Y-18311620D01*
X-6191048Y-18406858D01*
X-6143429Y-18454477D01*
X-6048190Y-18502096D01*
X-5810095Y-18502096D01*
X-5714857Y-18454477D01*
X-5667238Y-18406858D01*
X-5619619Y-18311620D01*
X-5619619Y-18025905D01*
X-5667238Y-17930667D01*
X-5714857Y-17883048D01*
X19153047Y5333857D02*
X19200666Y5286238D01*
X19343523Y5238619D01*
X19438761Y5238619D01*
X19581619Y5286238D01*
X19676857Y5381476D01*
X19724476Y5476714D01*
X19772095Y5667190D01*
X19772095Y5810048D01*
X19724476Y6000524D01*
X19676857Y6095762D01*
X19581619Y6191000D01*
X19438761Y6238619D01*
X19343523Y6238619D01*
X19200666Y6191000D01*
X19153047Y6143381D01*
X18200666Y5238619D02*
X18772095Y5238619D01*
X18486381Y5238619D02*
X18486381Y6238619D01*
X18581619Y6095762D01*
X18676857Y6000524D01*
X18772095Y5952905D01*
X17343523Y5905286D02*
X17343523Y5238619D01*
X17581619Y6286238D02*
X17819714Y5571952D01*
X17200666Y5571952D01*
X16391142Y5905286D02*
X16391142Y5238619D01*
X16629238Y6286238D02*
X16867333Y5571952D01*
X16248285Y5571952D01*
X19153047Y6119857D02*
X19200666Y6072238D01*
X19343523Y6024619D01*
X19438761Y6024619D01*
X19581619Y6072238D01*
X19676857Y6167476D01*
X19724476Y6262714D01*
X19772095Y6453190D01*
X19772095Y6596048D01*
X19724476Y6786524D01*
X19676857Y6881762D01*
X19581619Y6977000D01*
X19438761Y7024619D01*
X19343523Y7024619D01*
X19200666Y6977000D01*
X19153047Y6929381D01*
X18200666Y6024619D02*
X18772095Y6024619D01*
X18486381Y6024619D02*
X18486381Y7024619D01*
X18581619Y6881762D01*
X18676857Y6786524D01*
X18772095Y6738905D01*
X17343523Y6691286D02*
X17343523Y6024619D01*
X17581619Y7072238D02*
X17819714Y6357952D01*
X17200666Y6357952D01*
X16343523Y7024619D02*
X16819714Y7024619D01*
X16867333Y6548429D01*
X16819714Y6596048D01*
X16724476Y6643667D01*
X16486380Y6643667D01*
X16391142Y6596048D01*
X16343523Y6548429D01*
X16295904Y6453190D01*
X16295904Y6215095D01*
X16343523Y6119857D01*
X16391142Y6072238D01*
X16486380Y6024619D01*
X16724476Y6024619D01*
X16819714Y6072238D01*
X16867333Y6119857D01*
X20550047Y-3151143D02*
X20597666Y-3198762D01*
X20740523Y-3246381D01*
X20835761Y-3246381D01*
X20978619Y-3198762D01*
X21073857Y-3103524D01*
X21121476Y-3008286D01*
X21169095Y-2817810D01*
X21169095Y-2674952D01*
X21121476Y-2484476D01*
X21073857Y-2389238D01*
X20978619Y-2294000D01*
X20835761Y-2246381D01*
X20740523Y-2246381D01*
X20597666Y-2294000D01*
X20550047Y-2341619D01*
X19597666Y-3246381D02*
X20169095Y-3246381D01*
X19883381Y-3246381D02*
X19883381Y-2246381D01*
X19978619Y-2389238D01*
X20073857Y-2484476D01*
X20169095Y-2532095D01*
X18740523Y-2579714D02*
X18740523Y-3246381D01*
X18978619Y-2198762D02*
X19216714Y-2913048D01*
X18597666Y-2913048D01*
X17788142Y-2246381D02*
X17978619Y-2246381D01*
X18073857Y-2294000D01*
X18121476Y-2341619D01*
X18216714Y-2484476D01*
X18264333Y-2674952D01*
X18264333Y-3055905D01*
X18216714Y-3151143D01*
X18169095Y-3198762D01*
X18073857Y-3246381D01*
X17883380Y-3246381D01*
X17788142Y-3198762D01*
X17740523Y-3151143D01*
X17692904Y-3055905D01*
X17692904Y-2817810D01*
X17740523Y-2722571D01*
X17788142Y-2674952D01*
X17883380Y-2627333D01*
X18073857Y-2627333D01*
X18169095Y-2674952D01*
X18216714Y-2722571D01*
X18264333Y-2817810D01*
X17883047Y-6302143D02*
X17930666Y-6349762D01*
X18073523Y-6397381D01*
X18168761Y-6397381D01*
X18311619Y-6349762D01*
X18406857Y-6254524D01*
X18454476Y-6159286D01*
X18502095Y-5968810D01*
X18502095Y-5825952D01*
X18454476Y-5635476D01*
X18406857Y-5540238D01*
X18311619Y-5445000D01*
X18168761Y-5397381D01*
X18073523Y-5397381D01*
X17930666Y-5445000D01*
X17883047Y-5492619D01*
X16930666Y-6397381D02*
X17502095Y-6397381D01*
X17216381Y-6397381D02*
X17216381Y-5397381D01*
X17311619Y-5540238D01*
X17406857Y-5635476D01*
X17502095Y-5683095D01*
X16073523Y-5730714D02*
X16073523Y-6397381D01*
X16311619Y-5349762D02*
X16549714Y-6064048D01*
X15930666Y-6064048D01*
X15644952Y-5397381D02*
X14978285Y-5397381D01*
X15406857Y-6397381D01*
X-24627935Y7657079D02*
X-24627935Y6847555D01*
X-24675554Y6752317D01*
X-24723173Y6704698D01*
X-24818411Y6657079D01*
X-25008888Y6657079D01*
X-25104126Y6704698D01*
X-25151745Y6752317D01*
X-25199364Y6847555D01*
X-25199364Y7657079D01*
X-26104126Y7323746D02*
X-26104126Y6657079D01*
X-25866030Y7704698D02*
X-25627935Y6990412D01*
X-26246983Y6990412D01*
X26627935Y-6561841D02*
X26627935Y-7371365D01*
X26580316Y-7466603D01*
X26532697Y-7514222D01*
X26437459Y-7561841D01*
X26246982Y-7561841D01*
X26151744Y-7514222D01*
X26104125Y-7466603D01*
X26056506Y-7371365D01*
X26056506Y-6561841D01*
X25627935Y-6657079D02*
X25580316Y-6609460D01*
X25485078Y-6561841D01*
X25246982Y-6561841D01*
X25151744Y-6609460D01*
X25104125Y-6657079D01*
X25056506Y-6752317D01*
X25056506Y-6847555D01*
X25104125Y-6990412D01*
X25675554Y-7561841D01*
X25056506Y-7561841D01*
X24199363Y-6561841D02*
X24389840Y-6561841D01*
X24485078Y-6609460D01*
X24532697Y-6657079D01*
X24627935Y-6799936D01*
X24675554Y-6990412D01*
X24675554Y-7371365D01*
X24627935Y-7466603D01*
X24580316Y-7514222D01*
X24485078Y-7561841D01*
X24294601Y-7561841D01*
X24199363Y-7514222D01*
X24151744Y-7466603D01*
X24104125Y-7371365D01*
X24104125Y-7133270D01*
X24151744Y-7038031D01*
X24199363Y-6990412D01*
X24294601Y-6942793D01*
X24485078Y-6942793D01*
X24580316Y-6990412D01*
X24627935Y-7038031D01*
X24675554Y-7133270D01*
X5926841Y26627935D02*
X6736365Y26627935D01*
X6831603Y26580316D01*
X6879222Y26532697D01*
X6926841Y26437459D01*
X6926841Y26246982D01*
X6879222Y26151744D01*
X6831603Y26104125D01*
X6736365Y26056506D01*
X5926841Y26056506D01*
X5926841Y25675554D02*
X5926841Y25056506D01*
X6307793Y25389840D01*
X6307793Y25246982D01*
X6355412Y25151744D01*
X6403031Y25104125D01*
X6498270Y25056506D01*
X6736365Y25056506D01*
X6831603Y25104125D01*
X6879222Y25151744D01*
X6926841Y25246982D01*
X6926841Y25532697D01*
X6879222Y25627935D01*
X6831603Y25675554D01*
X5926841Y24723173D02*
X5926841Y24104125D01*
X6307793Y24437459D01*
X6307793Y24294601D01*
X6355412Y24199363D01*
X6403031Y24151744D01*
X6498270Y24104125D01*
X6736365Y24104125D01*
X6831603Y24151744D01*
X6879222Y24199363D01*
X6926841Y24294601D01*
X6926841Y24580316D01*
X6879222Y24675554D01*
X6831603Y24723173D01*
X-7657079Y-24151745D02*
X-6847555Y-24151745D01*
X-6752317Y-24199364D01*
X-6704698Y-24246983D01*
X-6657079Y-24342221D01*
X-6657079Y-24532698D01*
X-6704698Y-24627936D01*
X-6752317Y-24675555D01*
X-6847555Y-24723174D01*
X-7657079Y-24723174D01*
X-7657079Y-25104126D02*
X-7657079Y-25723174D01*
X-7276127Y-25389840D01*
X-7276127Y-25532698D01*
X-7228508Y-25627936D01*
X-7180889Y-25675555D01*
X-7085650Y-25723174D01*
X-6847555Y-25723174D01*
X-6752317Y-25675555D01*
X-6704698Y-25627936D01*
X-6657079Y-25532698D01*
X-6657079Y-25246983D01*
X-6704698Y-25151745D01*
X-6752317Y-25104126D01*
X-7228508Y-26294602D02*
X-7276127Y-26199364D01*
X-7323746Y-26151745D01*
X-7418984Y-26104126D01*
X-7466603Y-26104126D01*
X-7561841Y-26151745D01*
X-7609460Y-26199364D01*
X-7657079Y-26294602D01*
X-7657079Y-26485079D01*
X-7609460Y-26580317D01*
X-7561841Y-26627936D01*
X-7466603Y-26675555D01*
X-7418984Y-26675555D01*
X-7323746Y-26627936D01*
X-7276127Y-26580317D01*
X-7228508Y-26485079D01*
X-7228508Y-26294602D01*
X-7180889Y-26199364D01*
X-7133270Y-26151745D01*
X-7038031Y-26104126D01*
X-6847555Y-26104126D01*
X-6752317Y-26151745D01*
X-6704698Y-26199364D01*
X-6657079Y-26294602D01*
X-6657079Y-26485079D01*
X-6704698Y-26580317D01*
X-6752317Y-26627936D01*
X-6847555Y-26675555D01*
X-7038031Y-26675555D01*
X-7133270Y-26627936D01*
X-7180889Y-26580317D01*
X-7228508Y-26485079D01*
X17798798Y17819773D02*
X17866141Y17819773D01*
X18000828Y17887117D01*
X18068172Y17954460D01*
X18135516Y18089148D01*
X18135516Y18223835D01*
X18101844Y18324850D01*
X18000829Y18493209D01*
X17899813Y18594224D01*
X17731455Y18695240D01*
X17630439Y18728911D01*
X17495752Y18728911D01*
X17361065Y18661567D01*
X17293721Y18594224D01*
X17226378Y18459537D01*
X17226378Y18392193D01*
X17192706Y17078995D02*
X17596768Y17483056D01*
X17394737Y17281026D02*
X16687631Y17988133D01*
X16855989Y17954461D01*
X16990676Y17954461D01*
X17091691Y17988133D01*
X16283569Y17449385D02*
X16216226Y17449385D01*
X16115211Y17415713D01*
X15946851Y17247354D01*
X15913180Y17146338D01*
X15913180Y17078995D01*
X15946851Y16977980D01*
X16014195Y16910636D01*
X16148882Y16843293D01*
X16957004Y16843293D01*
X16519271Y16405560D01*
X15711149Y16405561D02*
X15744821Y16506576D01*
X15744821Y16573919D01*
X15711149Y16674934D01*
X15677478Y16708606D01*
X15576462Y16742278D01*
X15509119Y16742278D01*
X15408104Y16708606D01*
X15273416Y16573919D01*
X15239745Y16472903D01*
X15239745Y16405560D01*
X15273416Y16304545D01*
X15307088Y16270873D01*
X15408103Y16237201D01*
X15475447Y16237201D01*
X15576462Y16270873D01*
X15711149Y16405561D01*
X15812164Y16439232D01*
X15879508Y16439232D01*
X15980524Y16405560D01*
X16115211Y16270873D01*
X16148882Y16169858D01*
X16148882Y16102514D01*
X16115211Y16001499D01*
X15980523Y15866812D01*
X15879508Y15833140D01*
X15812164Y15833140D01*
X15711149Y15866812D01*
X15576462Y16001499D01*
X15542790Y16102514D01*
X15542790Y16169858D01*
X15576462Y16270873D01*
X18705850Y16912721D02*
X18773193Y16912721D01*
X18907880Y16980065D01*
X18975224Y17047408D01*
X19042568Y17182096D01*
X19042568Y17316783D01*
X19008896Y17417798D01*
X18907881Y17586157D01*
X18806865Y17687172D01*
X18638507Y17788188D01*
X18537491Y17821859D01*
X18402804Y17821859D01*
X18268117Y17754515D01*
X18200773Y17687172D01*
X18133430Y17552485D01*
X18133430Y17485141D01*
X18099758Y16171943D02*
X18503820Y16576004D01*
X18301789Y16373974D02*
X17594683Y17081081D01*
X17763041Y17047409D01*
X17897728Y17047409D01*
X17998743Y17081081D01*
X17190621Y16542333D02*
X17123278Y16542333D01*
X17022263Y16508661D01*
X16853903Y16340302D01*
X16820232Y16239286D01*
X16820232Y16171943D01*
X16853903Y16070928D01*
X16921247Y16003584D01*
X17055934Y15936241D01*
X17864056Y15936241D01*
X17426323Y15498508D01*
X17089606Y15161791D02*
X16954919Y15027104D01*
X16853903Y14993431D01*
X16786560Y14993431D01*
X16618201Y15027103D01*
X16449843Y15128118D01*
X16180468Y15397493D01*
X16146797Y15498508D01*
X16146797Y15565851D01*
X16180468Y15666867D01*
X16315156Y15801554D01*
X16416171Y15835226D01*
X16483514Y15835226D01*
X16584530Y15801554D01*
X16752888Y15633196D01*
X16786560Y15532180D01*
X16786561Y15464836D01*
X16752889Y15363821D01*
X16618201Y15229133D01*
X16517186Y15195462D01*
X16449842Y15195462D01*
X16348827Y15229134D01*
X17565773Y21317202D02*
X17565773Y21249859D01*
X17633117Y21115172D01*
X17700460Y21047828D01*
X17835148Y20980484D01*
X17969835Y20980484D01*
X18070850Y21014156D01*
X18239209Y21115171D01*
X18340224Y21216187D01*
X18441240Y21384545D01*
X18474911Y21485561D01*
X18474911Y21620248D01*
X18407567Y21754935D01*
X18340224Y21822279D01*
X18205537Y21889622D01*
X18138193Y21889622D01*
X16824995Y21923294D02*
X17229056Y21519232D01*
X17027026Y21721263D02*
X17734133Y22428369D01*
X17700461Y22260011D01*
X17700461Y22125324D01*
X17734133Y22024309D01*
X17296400Y22866102D02*
X16858667Y23303836D01*
X16824996Y22798759D01*
X16723980Y22899775D01*
X16622965Y22933447D01*
X16555621Y22933447D01*
X16454605Y22899774D01*
X16286247Y22731416D01*
X16252575Y22630400D01*
X16252575Y22563057D01*
X16286247Y22462042D01*
X16488278Y22260011D01*
X16589293Y22226339D01*
X16656636Y22226339D01*
X16420934Y23741568D02*
X16353590Y23808912D01*
X16252575Y23842584D01*
X16185232Y23842584D01*
X16084216Y23808912D01*
X15915858Y23707897D01*
X15747499Y23539538D01*
X15646483Y23371179D01*
X15612812Y23270164D01*
X15612812Y23202820D01*
X15646483Y23101805D01*
X15713828Y23034461D01*
X15814843Y23000789D01*
X15882186Y23000789D01*
X15983201Y23034461D01*
X16151560Y23135476D01*
X16319919Y23303836D01*
X16420934Y23472194D01*
X16454606Y23573209D01*
X16454606Y23640553D01*
X16420934Y23741568D01*
M02*
