G04 #@! TF.FileFunction,Copper,L1,Top,Signal*
%FSLAX46Y46*%
G04 Gerber Fmt 4.6, Leading zero omitted, Abs format (unit mm)*
G04 Created by KiCad (PCBNEW 4.0.6-e0-6349~53~ubuntu14.04.1) date Wed Mar 22 00:16:22 2017*
%MOMM*%
%LPD*%
G01*
G04 APERTURE LIST*
%ADD10C,0.100000*%
%ADD11C,1.727200*%
%ADD12R,1.350000X1.350000*%
%ADD13C,1.350000*%
%ADD14R,0.600000X0.500000*%
%ADD15R,0.700000X0.300000*%
%ADD16R,1.000000X0.800000*%
%ADD17R,0.760000X1.250000*%
%ADD18R,0.760000X1.600000*%
%ADD19R,2.032000X2.032000*%
%ADD20O,2.032000X2.032000*%
%ADD21R,0.400000X0.600000*%
%ADD22R,0.900000X1.700000*%
%ADD23R,0.398780X0.749300*%
%ADD24R,1.600200X2.400300*%
%ADD25R,1.727200X1.727200*%
%ADD26O,1.727200X1.727200*%
%ADD27R,0.850000X0.300000*%
%ADD28R,0.300000X0.850000*%
%ADD29R,1.837500X1.837500*%
%ADD30R,0.500000X0.600000*%
%ADD31R,2.100000X1.700000*%
%ADD32C,0.950000*%
%ADD33C,1.550000*%
%ADD34C,0.600000*%
%ADD35C,0.250000*%
G04 APERTURE END LIST*
D10*
G36*
X71357645Y52680690D02*
X70296985Y51620030D01*
X69802011Y52115004D01*
X70862671Y53175664D01*
X71357645Y52680690D01*
X71357645Y52680690D01*
G37*
G36*
X69236324Y54802010D02*
X68175664Y53741350D01*
X67680690Y54236324D01*
X68741350Y55296984D01*
X69236324Y54802010D01*
X69236324Y54802010D01*
G37*
G36*
X68175664Y55862671D02*
X67115004Y54802011D01*
X66620030Y55296985D01*
X67680690Y56357645D01*
X68175664Y55862671D01*
X68175664Y55862671D01*
G37*
G36*
X74228498Y53359512D02*
X73662813Y52793827D01*
X72955706Y53500934D01*
X73521391Y54066619D01*
X74228498Y53359512D01*
X74228498Y53359512D01*
G37*
G36*
X69066619Y58521391D02*
X68500934Y57955706D01*
X67793827Y58662813D01*
X68359512Y59228498D01*
X69066619Y58521391D01*
X69066619Y58521391D01*
G37*
G36*
X67503913Y56958685D02*
X66938228Y56393000D01*
X66231121Y57100107D01*
X66796806Y57665792D01*
X67503913Y56958685D01*
X67503913Y56958685D01*
G37*
G36*
X72665792Y51796806D02*
X72100107Y51231121D01*
X71393000Y51938228D01*
X71958685Y52503913D01*
X72665792Y51796806D01*
X72665792Y51796806D01*
G37*
G36*
X64170922Y31392237D02*
X65607763Y32829078D01*
X66829078Y31607763D01*
X65392237Y30170922D01*
X64170922Y31392237D01*
X64170922Y31392237D01*
G37*
D11*
X67403814Y29811712D02*
X67188288Y29596186D01*
X69199865Y28015661D02*
X68984339Y27800135D01*
D10*
G36*
X-48325736Y61777818D02*
X-47972182Y61424264D01*
X-48396446Y61000000D01*
X-48750000Y61353554D01*
X-48325736Y61777818D01*
X-48325736Y61777818D01*
G37*
G36*
X-49103554Y61000000D02*
X-48750000Y60646446D01*
X-49174264Y60222182D01*
X-49527818Y60575736D01*
X-49103554Y61000000D01*
X-49103554Y61000000D01*
G37*
G36*
X-45524264Y63122182D02*
X-45877818Y63475736D01*
X-45453554Y63900000D01*
X-45100000Y63546446D01*
X-45524264Y63122182D01*
X-45524264Y63122182D01*
G37*
G36*
X-44746446Y63900000D02*
X-45100000Y64253554D01*
X-44675736Y64677818D01*
X-44322182Y64324264D01*
X-44746446Y63900000D01*
X-44746446Y63900000D01*
G37*
G36*
X-42894526Y59589358D02*
X-43354145Y60048977D01*
X-42604612Y60798510D01*
X-42144993Y60338891D01*
X-42894526Y59589358D01*
X-42894526Y59589358D01*
G37*
G36*
X-42222774Y58917607D02*
X-42682393Y59377226D01*
X-41932860Y60126759D01*
X-41473241Y59667140D01*
X-42222774Y58917607D01*
X-42222774Y58917607D01*
G37*
G36*
X-41551023Y58245855D02*
X-42010642Y58705474D01*
X-41261109Y59455007D01*
X-40801490Y58995388D01*
X-41551023Y58245855D01*
X-41551023Y58245855D01*
G37*
G36*
X-39995388Y59801490D02*
X-40455007Y60261109D01*
X-39705474Y61010642D01*
X-39245855Y60551023D01*
X-39995388Y59801490D01*
X-39995388Y59801490D01*
G37*
G36*
X-41338891Y61144993D02*
X-41798510Y61604612D01*
X-41048977Y62354145D01*
X-40589358Y61894526D01*
X-41338891Y61144993D01*
X-41338891Y61144993D01*
G37*
G36*
X-55747487Y-47071751D02*
X-56171751Y-46647487D01*
X-55888909Y-46364645D01*
X-55464645Y-46788909D01*
X-55747487Y-47071751D01*
X-55747487Y-47071751D01*
G37*
G36*
X-55111091Y-46435355D02*
X-55535355Y-46011091D01*
X-55252513Y-45728249D01*
X-54828249Y-46152513D01*
X-55111091Y-46435355D01*
X-55111091Y-46435355D01*
G37*
G36*
X-63942355Y-42369310D02*
X-65003015Y-43429970D01*
X-65497989Y-42934996D01*
X-64437329Y-41874336D01*
X-63942355Y-42369310D01*
X-63942355Y-42369310D01*
G37*
G36*
X-66063676Y-40247990D02*
X-67124336Y-41308650D01*
X-67619310Y-40813676D01*
X-66558650Y-39753016D01*
X-66063676Y-40247990D01*
X-66063676Y-40247990D01*
G37*
G36*
X-67124336Y-39187329D02*
X-68184996Y-40247989D01*
X-68679970Y-39753015D01*
X-67619310Y-38692355D01*
X-67124336Y-39187329D01*
X-67124336Y-39187329D01*
G37*
G36*
X-61071502Y-41690488D02*
X-61637187Y-42256173D01*
X-62344294Y-41549066D01*
X-61778609Y-40983381D01*
X-61071502Y-41690488D01*
X-61071502Y-41690488D01*
G37*
G36*
X-66233381Y-36528609D02*
X-66799066Y-37094294D01*
X-67506173Y-36387187D01*
X-66940488Y-35821502D01*
X-66233381Y-36528609D01*
X-66233381Y-36528609D01*
G37*
G36*
X-67796087Y-38091315D02*
X-68361772Y-38657000D01*
X-69068879Y-37949893D01*
X-68503194Y-37384208D01*
X-67796087Y-38091315D01*
X-67796087Y-38091315D01*
G37*
G36*
X-62634208Y-43253194D02*
X-63199893Y-43818879D01*
X-63907000Y-43111772D01*
X-63341315Y-42546087D01*
X-62634208Y-43253194D01*
X-62634208Y-43253194D01*
G37*
G36*
X-58474264Y-43727818D02*
X-58827818Y-43374264D01*
X-58403554Y-42950000D01*
X-58050000Y-43303554D01*
X-58474264Y-43727818D01*
X-58474264Y-43727818D01*
G37*
G36*
X-57696446Y-42950000D02*
X-58050000Y-42596446D01*
X-57625736Y-42172182D01*
X-57272182Y-42525736D01*
X-57696446Y-42950000D01*
X-57696446Y-42950000D01*
G37*
G36*
X-52774264Y-45127818D02*
X-53127818Y-44774264D01*
X-52703554Y-44350000D01*
X-52350000Y-44703554D01*
X-52774264Y-45127818D01*
X-52774264Y-45127818D01*
G37*
G36*
X-51996446Y-44350000D02*
X-52350000Y-43996446D01*
X-51925736Y-43572182D01*
X-51572182Y-43925736D01*
X-51996446Y-44350000D01*
X-51996446Y-44350000D01*
G37*
G36*
X-62524264Y-47427818D02*
X-62877818Y-47074264D01*
X-62453554Y-46650000D01*
X-62100000Y-47003554D01*
X-62524264Y-47427818D01*
X-62524264Y-47427818D01*
G37*
G36*
X-61746446Y-46650000D02*
X-62100000Y-46296446D01*
X-61675736Y-45872182D01*
X-61322182Y-46225736D01*
X-61746446Y-46650000D01*
X-61746446Y-46650000D01*
G37*
G36*
X-58974264Y-37877818D02*
X-59327818Y-37524264D01*
X-58903554Y-37100000D01*
X-58550000Y-37453554D01*
X-58974264Y-37877818D01*
X-58974264Y-37877818D01*
G37*
G36*
X-58196446Y-37100000D02*
X-58550000Y-36746446D01*
X-58125736Y-36322182D01*
X-57772182Y-36675736D01*
X-58196446Y-37100000D01*
X-58196446Y-37100000D01*
G37*
D12*
X52950000Y65950000D03*
D13*
X52950000Y63950000D03*
X52950000Y61950000D03*
D14*
X-55700000Y51900000D03*
X-54600000Y51900000D03*
X-55800000Y54300000D03*
X-54700000Y54300000D03*
D15*
X-53200000Y55700000D03*
X-53200000Y55050000D03*
X-53200000Y54400000D03*
X-51100000Y55700000D03*
X-51100000Y54400000D03*
X-51100000Y55050000D03*
D16*
X-52150000Y54650000D03*
X-52150000Y55450000D03*
D17*
X-80010000Y19785000D03*
X-71120000Y25935000D03*
X-78740000Y19785000D03*
X-72390000Y25935000D03*
X-77470000Y19785000D03*
X-73660000Y25935000D03*
X-76200000Y19785000D03*
X-74930000Y25935000D03*
X-74930000Y19785000D03*
X-76200000Y25935000D03*
X-73660000Y19785000D03*
X-77470000Y25935000D03*
X-72390000Y19785000D03*
X-78740000Y25935000D03*
X-71120000Y19785000D03*
X-80010000Y25935000D03*
D18*
X-80010000Y8890000D03*
X-71120000Y16510000D03*
X-78740000Y8890000D03*
X-72390000Y16510000D03*
X-77470000Y8890000D03*
X-73660000Y16510000D03*
X-76200000Y8890000D03*
X-74930000Y16510000D03*
X-74930000Y8890000D03*
X-76200000Y16510000D03*
X-73660000Y8890000D03*
X-77470000Y16510000D03*
X-72390000Y8890000D03*
X-78740000Y16510000D03*
X-71120000Y8890000D03*
X-80010000Y16510000D03*
D14*
X-550000Y-45075001D03*
X550000Y-45075001D03*
X-550000Y-45075001D03*
X550000Y-45075001D03*
X-550000Y-45075001D03*
X550000Y-45075001D03*
D19*
X0Y-45075001D03*
D20*
X2540000Y-45075001D03*
D21*
X-450000Y-45075001D03*
X450000Y-45075001D03*
D22*
X-1700000Y-45075001D03*
X1700000Y-45075001D03*
D23*
X-650240Y-46024961D03*
X0Y-46024961D03*
X650240Y-46024961D03*
X650240Y-44125041D03*
X0Y-44125041D03*
X-650240Y-44125041D03*
X-650240Y-46024961D03*
X0Y-46024961D03*
X650240Y-46024961D03*
X650240Y-44125041D03*
X0Y-44125041D03*
X-650240Y-44125041D03*
X-650240Y-46024961D03*
X0Y-46024961D03*
X650240Y-46024961D03*
X650240Y-44125041D03*
X0Y-44125041D03*
X-650240Y-44125041D03*
X-650240Y-46024961D03*
X0Y-46024961D03*
X650240Y-46024961D03*
X650240Y-44125041D03*
X0Y-44125041D03*
X-650240Y-44125041D03*
D24*
X-2250440Y-45075001D03*
X2250440Y-45075001D03*
D10*
G36*
X23710642Y-34094526D02*
X23251023Y-34554145D01*
X22501490Y-33804612D01*
X22961109Y-33344993D01*
X23710642Y-34094526D01*
X23710642Y-34094526D01*
G37*
G36*
X24382393Y-33422774D02*
X23922774Y-33882393D01*
X23173241Y-33132860D01*
X23632860Y-32673241D01*
X24382393Y-33422774D01*
X24382393Y-33422774D01*
G37*
G36*
X25054145Y-32751023D02*
X24594526Y-33210642D01*
X23844993Y-32461109D01*
X24304612Y-32001490D01*
X25054145Y-32751023D01*
X25054145Y-32751023D01*
G37*
G36*
X23498510Y-31195388D02*
X23038891Y-31655007D01*
X22289358Y-30905474D01*
X22748977Y-30445855D01*
X23498510Y-31195388D01*
X23498510Y-31195388D01*
G37*
G36*
X22155007Y-32538891D02*
X21695388Y-32998510D01*
X20945855Y-32248977D01*
X21405474Y-31789358D01*
X22155007Y-32538891D01*
X22155007Y-32538891D01*
G37*
G36*
X17775812Y9431951D02*
X19119315Y10775454D01*
X20109264Y9785505D01*
X18765761Y8442002D01*
X17775812Y9431951D01*
X17775812Y9431951D01*
G37*
G36*
X9184464Y19437512D02*
X10527967Y20781015D01*
X11517916Y19791066D01*
X10174413Y18447563D01*
X9184464Y19437512D01*
X9184464Y19437512D01*
G37*
G36*
X23856930Y23715509D02*
X24846879Y24705458D01*
X25766118Y23786219D01*
X24776169Y22796270D01*
X23856930Y23715509D01*
X23856930Y23715509D01*
G37*
G36*
X19826422Y27746018D02*
X20816371Y28735967D01*
X21735610Y27816728D01*
X20745661Y26826779D01*
X19826422Y27746018D01*
X19826422Y27746018D01*
G37*
G36*
X17231339Y15053451D02*
X18291999Y16114111D01*
X18857685Y15548425D01*
X17797025Y14487765D01*
X17231339Y15053451D01*
X17231339Y15053451D01*
G37*
G36*
X16736365Y16114111D02*
X17797025Y17174771D01*
X18362711Y16609085D01*
X17302051Y15548425D01*
X16736365Y16114111D01*
X16736365Y16114111D01*
G37*
G36*
X15675704Y16609086D02*
X16736364Y17669746D01*
X17302050Y17104060D01*
X16241390Y16043400D01*
X15675704Y16609086D01*
X15675704Y16609086D01*
G37*
G36*
X14756466Y17245482D02*
X15817126Y18306142D01*
X16382812Y17740456D01*
X15322152Y16679796D01*
X14756466Y17245482D01*
X14756466Y17245482D01*
G37*
G36*
X14120069Y18164721D02*
X15180729Y19225381D01*
X15746415Y18659695D01*
X14685755Y17599035D01*
X14120069Y18164721D01*
X14120069Y18164721D01*
G37*
G36*
X13200831Y18801117D02*
X14261491Y19861777D01*
X14827177Y19296091D01*
X13766517Y18235431D01*
X13200831Y18801117D01*
X13200831Y18801117D01*
G37*
G36*
X12564435Y19720356D02*
X13625095Y20781016D01*
X14190781Y20215330D01*
X13130121Y19154670D01*
X12564435Y19720356D01*
X12564435Y19720356D01*
G37*
G36*
X11786617Y20498173D02*
X12847277Y21558833D01*
X13412963Y20993147D01*
X12352303Y19932487D01*
X11786617Y20498173D01*
X11786617Y20498173D01*
G37*
G36*
X21230028Y26971736D02*
X21901779Y27643487D01*
X22608886Y26936380D01*
X21937135Y26264629D01*
X21230028Y26971736D01*
X21230028Y26971736D01*
G37*
D25*
X11430000Y-28575000D03*
D26*
X11430000Y-31115000D03*
X8890000Y-28575000D03*
X8890000Y-31115000D03*
X6350000Y-28575000D03*
X6350000Y-31115000D03*
X3810000Y-28575000D03*
X3810000Y-31115000D03*
X1270000Y-28575000D03*
X1270000Y-31115000D03*
X-1270000Y-28575000D03*
X-1270000Y-31115000D03*
X-3810000Y-28575000D03*
X-3810000Y-31115000D03*
X-6350000Y-28575000D03*
X-6350000Y-31115000D03*
X-8890000Y-28575000D03*
X-8890000Y-31115000D03*
X-11430000Y-28575000D03*
X-11430000Y-31115000D03*
D25*
X-28575000Y-11430000D03*
D26*
X-31115000Y-11430000D03*
X-28575000Y-8890000D03*
X-31115000Y-8890000D03*
X-28575000Y-6350000D03*
X-31115000Y-6350000D03*
X-28575000Y-3810000D03*
X-31115000Y-3810000D03*
X-28575000Y-1270000D03*
X-31115000Y-1270000D03*
X-28575000Y1270000D03*
X-31115000Y1270000D03*
X-28575000Y3810000D03*
X-31115000Y3810000D03*
X-28575000Y6350000D03*
X-31115000Y6350000D03*
X-28575000Y8890000D03*
X-31115000Y8890000D03*
X-28575000Y11430000D03*
X-31115000Y11430000D03*
D25*
X-11430000Y28575000D03*
D26*
X-11430000Y31115000D03*
X-8890000Y28575000D03*
X-8890000Y31115000D03*
X-6350000Y28575000D03*
X-6350000Y31115000D03*
X-3810000Y28575000D03*
X-3810000Y31115000D03*
X-1270000Y28575000D03*
X-1270000Y31115000D03*
X1270000Y28575000D03*
X1270000Y31115000D03*
X3810000Y28575000D03*
X3810000Y31115000D03*
X6350000Y28575000D03*
X6350000Y31115000D03*
X8890000Y28575000D03*
X8890000Y31115000D03*
X11430000Y28575000D03*
X11430000Y31115000D03*
D25*
X28575000Y11430000D03*
D26*
X31115000Y11430000D03*
X28575000Y8890000D03*
X31115000Y8890000D03*
X28575000Y6350000D03*
X31115000Y6350000D03*
X28575000Y3810000D03*
X31115000Y3810000D03*
X28575000Y1270000D03*
X31115000Y1270000D03*
X28575000Y-1270000D03*
X31115000Y-1270000D03*
X28575000Y-3810000D03*
X31115000Y-3810000D03*
X28575000Y-6350000D03*
X31115000Y-6350000D03*
X28575000Y-8890000D03*
X31115000Y-8890000D03*
X28575000Y-11430000D03*
X31115000Y-11430000D03*
D27*
X4450000Y-18750000D03*
X4450000Y-18250000D03*
X4450000Y-17750000D03*
X4450000Y-17250000D03*
X4450000Y-16750000D03*
X4450000Y-16250000D03*
X4450000Y-15750000D03*
X4450000Y-15250000D03*
X4450000Y-14750000D03*
X4450000Y-14250000D03*
X4450000Y-13750000D03*
X4450000Y-13250000D03*
X4450000Y-12750000D03*
X4450000Y-12250000D03*
X4450000Y-11750000D03*
X4450000Y-11250000D03*
D28*
X3750000Y-10550000D03*
X3250000Y-10550000D03*
X2750000Y-10550000D03*
X2250000Y-10550000D03*
X1750000Y-10550000D03*
X1250000Y-10550000D03*
X750000Y-10550000D03*
X250000Y-10550000D03*
X-250000Y-10550000D03*
X-750000Y-10550000D03*
X-1250000Y-10550000D03*
X-1750000Y-10550000D03*
X-2250000Y-10550000D03*
X-2750000Y-10550000D03*
X-3250000Y-10550000D03*
X-3750000Y-10550000D03*
D27*
X-4450000Y-11250000D03*
X-4450000Y-11750000D03*
X-4450000Y-12250000D03*
X-4450000Y-12750000D03*
X-4450000Y-13250000D03*
X-4450000Y-13750000D03*
X-4450000Y-14250000D03*
X-4450000Y-14750000D03*
X-4450000Y-15250000D03*
X-4450000Y-15750000D03*
X-4450000Y-16250000D03*
X-4450000Y-16750000D03*
X-4450000Y-17250000D03*
X-4450000Y-17750000D03*
X-4450000Y-18250000D03*
X-4450000Y-18750000D03*
D28*
X-3750000Y-19450000D03*
X-3250000Y-19450000D03*
X-2750000Y-19450000D03*
X-2250000Y-19450000D03*
X-1750000Y-19450000D03*
X-1250000Y-19450000D03*
X-750000Y-19450000D03*
X-250000Y-19450000D03*
X250000Y-19450000D03*
X750000Y-19450000D03*
X1250000Y-19450000D03*
X1750000Y-19450000D03*
X2250000Y-19450000D03*
X2750000Y-19450000D03*
X3250000Y-19450000D03*
X3750000Y-19450000D03*
D29*
X-2756250Y-12243750D03*
X-2756250Y-14081250D03*
X-2756250Y-15918750D03*
X-2756250Y-17756250D03*
X-918750Y-12243750D03*
X-918750Y-14081250D03*
X-918750Y-15918750D03*
X-918750Y-17756250D03*
X918750Y-12243750D03*
X918750Y-14081250D03*
X918750Y-15918750D03*
X918750Y-17756250D03*
X2756250Y-12243750D03*
X2756250Y-14081250D03*
X2756250Y-15918750D03*
X2756250Y-17756250D03*
D28*
X-18750000Y-4450000D03*
X-18250000Y-4450000D03*
X-17750000Y-4450000D03*
X-17250000Y-4450000D03*
X-16750000Y-4450000D03*
X-16250000Y-4450000D03*
X-15750000Y-4450000D03*
X-15250000Y-4450000D03*
X-14750000Y-4450000D03*
X-14250000Y-4450000D03*
X-13750000Y-4450000D03*
X-13250000Y-4450000D03*
X-12750000Y-4450000D03*
X-12250000Y-4450000D03*
X-11750000Y-4450000D03*
X-11250000Y-4450000D03*
D27*
X-10550000Y-3750000D03*
X-10550000Y-3250000D03*
X-10550000Y-2750000D03*
X-10550000Y-2250000D03*
X-10550000Y-1750000D03*
X-10550000Y-1250000D03*
X-10550000Y-750000D03*
X-10550000Y-250000D03*
X-10550000Y250000D03*
X-10550000Y750000D03*
X-10550000Y1250000D03*
X-10550000Y1750000D03*
X-10550000Y2250000D03*
X-10550000Y2750000D03*
X-10550000Y3250000D03*
X-10550000Y3750000D03*
D28*
X-11250000Y4450000D03*
X-11750000Y4450000D03*
X-12250000Y4450000D03*
X-12750000Y4450000D03*
X-13250000Y4450000D03*
X-13750000Y4450000D03*
X-14250000Y4450000D03*
X-14750000Y4450000D03*
X-15250000Y4450000D03*
X-15750000Y4450000D03*
X-16250000Y4450000D03*
X-16750000Y4450000D03*
X-17250000Y4450000D03*
X-17750000Y4450000D03*
X-18250000Y4450000D03*
X-18750000Y4450000D03*
D27*
X-19450000Y3750000D03*
X-19450000Y3250000D03*
X-19450000Y2750000D03*
X-19450000Y2250000D03*
X-19450000Y1750000D03*
X-19450000Y1250000D03*
X-19450000Y750000D03*
X-19450000Y250000D03*
X-19450000Y-250000D03*
X-19450000Y-750000D03*
X-19450000Y-1250000D03*
X-19450000Y-1750000D03*
X-19450000Y-2250000D03*
X-19450000Y-2750000D03*
X-19450000Y-3250000D03*
X-19450000Y-3750000D03*
D29*
X-12243750Y2756250D03*
X-14081250Y2756250D03*
X-15918750Y2756250D03*
X-17756250Y2756250D03*
X-12243750Y918750D03*
X-14081250Y918750D03*
X-15918750Y918750D03*
X-17756250Y918750D03*
X-12243750Y-918750D03*
X-14081250Y-918750D03*
X-15918750Y-918750D03*
X-17756250Y-918750D03*
X-12243750Y-2756250D03*
X-14081250Y-2756250D03*
X-15918750Y-2756250D03*
X-17756250Y-2756250D03*
D27*
X-4450000Y18750000D03*
X-4450000Y18250000D03*
X-4450000Y17750000D03*
X-4450000Y17250000D03*
X-4450000Y16750000D03*
X-4450000Y16250000D03*
X-4450000Y15750000D03*
X-4450000Y15250000D03*
X-4450000Y14750000D03*
X-4450000Y14250000D03*
X-4450000Y13750000D03*
X-4450000Y13250000D03*
X-4450000Y12750000D03*
X-4450000Y12250000D03*
X-4450000Y11750000D03*
X-4450000Y11250000D03*
D28*
X-3750000Y10550000D03*
X-3250000Y10550000D03*
X-2750000Y10550000D03*
X-2250000Y10550000D03*
X-1750000Y10550000D03*
X-1250000Y10550000D03*
X-750000Y10550000D03*
X-250000Y10550000D03*
X250000Y10550000D03*
X750000Y10550000D03*
X1250000Y10550000D03*
X1750000Y10550000D03*
X2250000Y10550000D03*
X2750000Y10550000D03*
X3250000Y10550000D03*
X3750000Y10550000D03*
D27*
X4450000Y11250000D03*
X4450000Y11750000D03*
X4450000Y12250000D03*
X4450000Y12750000D03*
X4450000Y13250000D03*
X4450000Y13750000D03*
X4450000Y14250000D03*
X4450000Y14750000D03*
X4450000Y15250000D03*
X4450000Y15750000D03*
X4450000Y16250000D03*
X4450000Y16750000D03*
X4450000Y17250000D03*
X4450000Y17750000D03*
X4450000Y18250000D03*
X4450000Y18750000D03*
D28*
X3750000Y19450000D03*
X3250000Y19450000D03*
X2750000Y19450000D03*
X2250000Y19450000D03*
X1750000Y19450000D03*
X1250000Y19450000D03*
X750000Y19450000D03*
X250000Y19450000D03*
X-250000Y19450000D03*
X-750000Y19450000D03*
X-1250000Y19450000D03*
X-1750000Y19450000D03*
X-2250000Y19450000D03*
X-2750000Y19450000D03*
X-3250000Y19450000D03*
X-3750000Y19450000D03*
D29*
X2756250Y12243750D03*
X2756250Y14081250D03*
X2756250Y15918750D03*
X2756250Y17756250D03*
X918750Y12243750D03*
X918750Y14081250D03*
X918750Y15918750D03*
X918750Y17756250D03*
X-918750Y12243750D03*
X-918750Y14081250D03*
X-918750Y15918750D03*
X-918750Y17756250D03*
X-2756250Y12243750D03*
X-2756250Y14081250D03*
X-2756250Y15918750D03*
X-2756250Y17756250D03*
D28*
X18750000Y4450000D03*
X18250000Y4450000D03*
X17750000Y4450000D03*
X17250000Y4450000D03*
X16750000Y4450000D03*
X16250000Y4450000D03*
X15750000Y4450000D03*
X15250000Y4450000D03*
X14750000Y4450000D03*
X14250000Y4450000D03*
X13750000Y4450000D03*
X13250000Y4450000D03*
X12750000Y4450000D03*
X12250000Y4450000D03*
X11750000Y4450000D03*
X11250000Y4450000D03*
D27*
X10550000Y3750000D03*
X10550000Y3250000D03*
X10550000Y2750000D03*
X10550000Y2250000D03*
X10550000Y1750000D03*
X10550000Y1250000D03*
X10550000Y750000D03*
X10550000Y250000D03*
X10550000Y-250000D03*
X10550000Y-750000D03*
X10550000Y-1250000D03*
X10550000Y-1750000D03*
X10550000Y-2250000D03*
X10550000Y-2750000D03*
X10550000Y-3250000D03*
X10550000Y-3750000D03*
D28*
X11250000Y-4450000D03*
X11750000Y-4450000D03*
X12250000Y-4450000D03*
X12750000Y-4450000D03*
X13250000Y-4450000D03*
X13750000Y-4450000D03*
X14250000Y-4450000D03*
X14750000Y-4450000D03*
X15250000Y-4450000D03*
X15750000Y-4450000D03*
X16250000Y-4450000D03*
X16750000Y-4450000D03*
X17250000Y-4450000D03*
X17750000Y-4450000D03*
X18250000Y-4450000D03*
X18750000Y-4450000D03*
D27*
X19450000Y-3750000D03*
X19450000Y-3250000D03*
X19450000Y-2750000D03*
X19450000Y-2250000D03*
X19450000Y-1750000D03*
X19450000Y-1250000D03*
X19450000Y-750000D03*
X19450000Y-250000D03*
X19450000Y250000D03*
X19450000Y750000D03*
X19450000Y1250000D03*
X19450000Y1750000D03*
X19450000Y2250000D03*
X19450000Y2750000D03*
X19450000Y3250000D03*
X19450000Y3750000D03*
D29*
X12243750Y-2756250D03*
X14081250Y-2756250D03*
X15918750Y-2756250D03*
X17756250Y-2756250D03*
X12243750Y-918750D03*
X14081250Y-918750D03*
X15918750Y-918750D03*
X17756250Y-918750D03*
X12243750Y918750D03*
X14081250Y918750D03*
X15918750Y918750D03*
X17756250Y918750D03*
X12243750Y2756250D03*
X14081250Y2756250D03*
X15918750Y2756250D03*
X17756250Y2756250D03*
D30*
X8000000Y-16950000D03*
X8000000Y-18050000D03*
X8000000Y-14950000D03*
X8000000Y-16050000D03*
D14*
X1450000Y-6000000D03*
X2550000Y-6000000D03*
X-550000Y-6000000D03*
X550000Y-6000000D03*
D30*
X7000000Y-16950000D03*
X7000000Y-18050000D03*
X7000000Y-14950000D03*
X7000000Y-16050000D03*
D14*
X1450000Y-7000000D03*
X2550000Y-7000000D03*
X-550000Y-7000000D03*
X550000Y-7000000D03*
D30*
X-7000000Y-18050000D03*
X-7000000Y-16950000D03*
X-7000000Y-16050000D03*
X-7000000Y-14950000D03*
X-3000000Y-20950000D03*
X-3000000Y-22050000D03*
D14*
X3050000Y-22000000D03*
X1950000Y-22000000D03*
X1050000Y-22000000D03*
X-50000Y-22000000D03*
X-950000Y-22000000D03*
X-2050000Y-22000000D03*
X2050000Y-21000000D03*
X950000Y-21000000D03*
D30*
X-8000000Y-18050000D03*
X-8000000Y-16950000D03*
X-8000000Y-16050000D03*
X-8000000Y-14950000D03*
D14*
X3050000Y-23000000D03*
X1950000Y-23000000D03*
X1050000Y-23000000D03*
X-50000Y-23000000D03*
X-950000Y-23000000D03*
X-2050000Y-23000000D03*
X-2950000Y-23000000D03*
X-4050000Y-23000000D03*
X-16950000Y-8000000D03*
X-18050000Y-8000000D03*
X-14950000Y-8000000D03*
X-16050000Y-8000000D03*
D30*
X-6000000Y-1450000D03*
X-6000000Y-2550000D03*
X-6000000Y550000D03*
X-6000000Y-550000D03*
D14*
X-16950000Y-7000000D03*
X-18050000Y-7000000D03*
X-14950000Y-7000000D03*
X-16050000Y-7000000D03*
D30*
X-7000000Y-1450000D03*
X-7000000Y-2550000D03*
X-7000000Y550000D03*
X-7000000Y-550000D03*
D14*
X-18050000Y7000000D03*
X-16950000Y7000000D03*
X-16050000Y7000000D03*
X-14950000Y7000000D03*
X-20950000Y3000000D03*
X-22050000Y3000000D03*
D30*
X-22000000Y-3050000D03*
X-22000000Y-1950000D03*
X-22000000Y-1050000D03*
X-22000000Y50000D03*
X-22000000Y950000D03*
X-22000000Y2050000D03*
X-21000000Y-2050000D03*
X-21000000Y-950000D03*
D14*
X-18050000Y8000000D03*
X-16950000Y8000000D03*
X-16050000Y8000000D03*
X-14950000Y8000000D03*
D30*
X-23000000Y-3050000D03*
X-23000000Y-1950000D03*
X-23000000Y-1050000D03*
X-23000000Y50000D03*
X-23000000Y950000D03*
X-23000000Y2050000D03*
X-23000000Y2950000D03*
X-23000000Y4050000D03*
X-8000000Y16950000D03*
X-8000000Y18050000D03*
X-8000000Y14950000D03*
X-8000000Y16050000D03*
D14*
X-1450000Y6000000D03*
X-2550000Y6000000D03*
X550000Y6000000D03*
X-550000Y6000000D03*
D30*
X-7000000Y16950000D03*
X-7000000Y18050000D03*
X-7000000Y14950000D03*
X-7000000Y16050000D03*
D14*
X-1450000Y7000000D03*
X-2550000Y7000000D03*
X550000Y7000000D03*
X-550000Y7000000D03*
D30*
X7000000Y18050000D03*
X7000000Y16950000D03*
X7000000Y16050000D03*
X7000000Y14950000D03*
X3000000Y20950000D03*
X3000000Y22050000D03*
D14*
X-3050000Y22000000D03*
X-1950000Y22000000D03*
X-1050000Y22000000D03*
X50000Y22000000D03*
X950000Y22000000D03*
X2050000Y22000000D03*
X-2050000Y21000000D03*
X-950000Y21000000D03*
D30*
X8000000Y18050000D03*
X8000000Y16950000D03*
X8000000Y16050000D03*
X8000000Y14950000D03*
D14*
X-3050000Y23000000D03*
X-1950000Y23000000D03*
X-1050000Y23000000D03*
X50000Y23000000D03*
X950000Y23000000D03*
X2050000Y23000000D03*
X2950000Y23000000D03*
X4050000Y23000000D03*
X16950000Y8000000D03*
X18050000Y8000000D03*
X14950000Y8000000D03*
X16050000Y8000000D03*
D30*
X6000000Y1450000D03*
X6000000Y2550000D03*
X6000000Y-550000D03*
X6000000Y550000D03*
D14*
X16950000Y7000000D03*
X18050000Y7000000D03*
X14950000Y7000000D03*
X16050000Y7000000D03*
D30*
X7000000Y1450000D03*
X7000000Y2550000D03*
X7000000Y-550000D03*
X7000000Y550000D03*
D14*
X18050000Y-7000000D03*
X16950000Y-7000000D03*
X16050000Y-7000000D03*
X14950000Y-7000000D03*
X20950000Y-3000000D03*
X22050000Y-3000000D03*
D30*
X22000000Y3050000D03*
X22000000Y1950000D03*
X22000000Y1050000D03*
X22000000Y-50000D03*
X22000000Y-950000D03*
X22000000Y-2050000D03*
X21000000Y2050000D03*
X21000000Y950000D03*
D14*
X18050000Y-8000000D03*
X16950000Y-8000000D03*
X16050000Y-8000000D03*
X14950000Y-8000000D03*
D30*
X23000000Y3050000D03*
X23000000Y1950000D03*
X23000000Y1050000D03*
X23000000Y-50000D03*
X23000000Y-950000D03*
X23000000Y-2050000D03*
X23000000Y-2950000D03*
X23000000Y-4050000D03*
D10*
G36*
X27380642Y-30169526D02*
X26921023Y-30629145D01*
X26171490Y-29879612D01*
X26631109Y-29419993D01*
X27380642Y-30169526D01*
X27380642Y-30169526D01*
G37*
G36*
X28052393Y-29497774D02*
X27592774Y-29957393D01*
X26843241Y-29207860D01*
X27302860Y-28748241D01*
X28052393Y-29497774D01*
X28052393Y-29497774D01*
G37*
G36*
X28724145Y-28826023D02*
X28264526Y-29285642D01*
X27514993Y-28536109D01*
X27974612Y-28076490D01*
X28724145Y-28826023D01*
X28724145Y-28826023D01*
G37*
G36*
X27168510Y-27270388D02*
X26708891Y-27730007D01*
X25959358Y-26980474D01*
X26418977Y-26520855D01*
X27168510Y-27270388D01*
X27168510Y-27270388D01*
G37*
G36*
X25825007Y-28613891D02*
X25365388Y-29073510D01*
X24615855Y-28323977D01*
X25075474Y-27864358D01*
X25825007Y-28613891D01*
X25825007Y-28613891D01*
G37*
G36*
X31190642Y-26359526D02*
X30731023Y-26819145D01*
X29981490Y-26069612D01*
X30441109Y-25609993D01*
X31190642Y-26359526D01*
X31190642Y-26359526D01*
G37*
G36*
X31862393Y-25687774D02*
X31402774Y-26147393D01*
X30653241Y-25397860D01*
X31112860Y-24938241D01*
X31862393Y-25687774D01*
X31862393Y-25687774D01*
G37*
G36*
X32534145Y-25016023D02*
X32074526Y-25475642D01*
X31324993Y-24726109D01*
X31784612Y-24266490D01*
X32534145Y-25016023D01*
X32534145Y-25016023D01*
G37*
G36*
X30978510Y-23460388D02*
X30518891Y-23920007D01*
X29769358Y-23170474D01*
X30228977Y-22710855D01*
X30978510Y-23460388D01*
X30978510Y-23460388D01*
G37*
G36*
X29635007Y-24803891D02*
X29175388Y-25263510D01*
X28425855Y-24513977D01*
X28885474Y-24054358D01*
X29635007Y-24803891D01*
X29635007Y-24803891D01*
G37*
G36*
X12117290Y-14387103D02*
X11693026Y-14811367D01*
X10597010Y-13715351D01*
X11021274Y-13291087D01*
X12117290Y-14387103D01*
X12117290Y-14387103D01*
G37*
G36*
X13015316Y-13489077D02*
X12591052Y-13913341D01*
X11495036Y-12817325D01*
X11919300Y-12393061D01*
X13015316Y-13489077D01*
X13015316Y-13489077D01*
G37*
G36*
X13913341Y-12591052D02*
X13489077Y-13015316D01*
X12393061Y-11919300D01*
X12817325Y-11495036D01*
X13913341Y-12591052D01*
X13913341Y-12591052D01*
G37*
G36*
X14811367Y-11693026D02*
X14387103Y-12117290D01*
X13291087Y-11021274D01*
X13715351Y-10597010D01*
X14811367Y-11693026D01*
X14811367Y-11693026D01*
G37*
G36*
X10992990Y-7874649D02*
X10568726Y-8298913D01*
X9472710Y-7202897D01*
X9896974Y-6778633D01*
X10992990Y-7874649D01*
X10992990Y-7874649D01*
G37*
G36*
X10094964Y-8772675D02*
X9670700Y-9196939D01*
X8574684Y-8100923D01*
X8998948Y-7676659D01*
X10094964Y-8772675D01*
X10094964Y-8772675D01*
G37*
G36*
X9196939Y-9670700D02*
X8772675Y-10094964D01*
X7676659Y-8998948D01*
X8100923Y-8574684D01*
X9196939Y-9670700D01*
X9196939Y-9670700D01*
G37*
G36*
X8298913Y-10568726D02*
X7874649Y-10992990D01*
X6778633Y-9896974D01*
X7202897Y-9472710D01*
X8298913Y-10568726D01*
X8298913Y-10568726D01*
G37*
G36*
X-14387103Y-12117290D02*
X-14811367Y-11693026D01*
X-13715351Y-10597010D01*
X-13291087Y-11021274D01*
X-14387103Y-12117290D01*
X-14387103Y-12117290D01*
G37*
G36*
X-13489077Y-13015316D02*
X-13913341Y-12591052D01*
X-12817325Y-11495036D01*
X-12393061Y-11919300D01*
X-13489077Y-13015316D01*
X-13489077Y-13015316D01*
G37*
G36*
X-12591052Y-13913341D02*
X-13015316Y-13489077D01*
X-11919300Y-12393061D01*
X-11495036Y-12817325D01*
X-12591052Y-13913341D01*
X-12591052Y-13913341D01*
G37*
G36*
X-11693026Y-14811367D02*
X-12117290Y-14387103D01*
X-11021274Y-13291087D01*
X-10597010Y-13715351D01*
X-11693026Y-14811367D01*
X-11693026Y-14811367D01*
G37*
G36*
X-7874649Y-10992990D02*
X-8298913Y-10568726D01*
X-7202897Y-9472710D01*
X-6778633Y-9896974D01*
X-7874649Y-10992990D01*
X-7874649Y-10992990D01*
G37*
G36*
X-8772675Y-10094964D02*
X-9196939Y-9670700D01*
X-8100923Y-8574684D01*
X-7676659Y-8998948D01*
X-8772675Y-10094964D01*
X-8772675Y-10094964D01*
G37*
G36*
X-9670700Y-9196939D02*
X-10094964Y-8772675D01*
X-8998948Y-7676659D01*
X-8574684Y-8100923D01*
X-9670700Y-9196939D01*
X-9670700Y-9196939D01*
G37*
G36*
X-10568726Y-8298913D02*
X-10992990Y-7874649D01*
X-9896974Y-6778633D01*
X-9472710Y-7202897D01*
X-10568726Y-8298913D01*
X-10568726Y-8298913D01*
G37*
G36*
X-12117290Y14387103D02*
X-11693026Y14811367D01*
X-10597010Y13715351D01*
X-11021274Y13291087D01*
X-12117290Y14387103D01*
X-12117290Y14387103D01*
G37*
G36*
X-13015316Y13489077D02*
X-12591052Y13913341D01*
X-11495036Y12817325D01*
X-11919300Y12393061D01*
X-13015316Y13489077D01*
X-13015316Y13489077D01*
G37*
G36*
X-13913341Y12591052D02*
X-13489077Y13015316D01*
X-12393061Y11919300D01*
X-12817325Y11495036D01*
X-13913341Y12591052D01*
X-13913341Y12591052D01*
G37*
G36*
X-14811367Y11693026D02*
X-14387103Y12117290D01*
X-13291087Y11021274D01*
X-13715351Y10597010D01*
X-14811367Y11693026D01*
X-14811367Y11693026D01*
G37*
G36*
X-10992990Y7874649D02*
X-10568726Y8298913D01*
X-9472710Y7202897D01*
X-9896974Y6778633D01*
X-10992990Y7874649D01*
X-10992990Y7874649D01*
G37*
G36*
X-10094964Y8772675D02*
X-9670700Y9196939D01*
X-8574684Y8100923D01*
X-8998948Y7676659D01*
X-10094964Y8772675D01*
X-10094964Y8772675D01*
G37*
G36*
X-9196939Y9670700D02*
X-8772675Y10094964D01*
X-7676659Y8998948D01*
X-8100923Y8574684D01*
X-9196939Y9670700D01*
X-9196939Y9670700D01*
G37*
G36*
X-8298913Y10568726D02*
X-7874649Y10992990D01*
X-6778633Y9896974D01*
X-7202897Y9472710D01*
X-8298913Y10568726D01*
X-8298913Y10568726D01*
G37*
G36*
X14387103Y12117290D02*
X14811367Y11693026D01*
X13715351Y10597010D01*
X13291087Y11021274D01*
X14387103Y12117290D01*
X14387103Y12117290D01*
G37*
G36*
X13489077Y13015316D02*
X13913341Y12591052D01*
X12817325Y11495036D01*
X12393061Y11919300D01*
X13489077Y13015316D01*
X13489077Y13015316D01*
G37*
G36*
X12591052Y13913341D02*
X13015316Y13489077D01*
X11919300Y12393061D01*
X11495036Y12817325D01*
X12591052Y13913341D01*
X12591052Y13913341D01*
G37*
G36*
X11693026Y14811367D02*
X12117290Y14387103D01*
X11021274Y13291087D01*
X10597010Y13715351D01*
X11693026Y14811367D01*
X11693026Y14811367D01*
G37*
G36*
X7874649Y10992990D02*
X8298913Y10568726D01*
X7202897Y9472710D01*
X6778633Y9896974D01*
X7874649Y10992990D01*
X7874649Y10992990D01*
G37*
G36*
X8772675Y10094964D02*
X9196939Y9670700D01*
X8100923Y8574684D01*
X7676659Y8998948D01*
X8772675Y10094964D01*
X8772675Y10094964D01*
G37*
G36*
X9670700Y9196939D02*
X10094964Y8772675D01*
X8998948Y7676659D01*
X8574684Y8100923D01*
X9670700Y9196939D01*
X9670700Y9196939D01*
G37*
G36*
X10568726Y8298913D02*
X10992990Y7874649D01*
X9896974Y6778633D01*
X9472710Y7202897D01*
X10568726Y8298913D01*
X10568726Y8298913D01*
G37*
D31*
X-2950000Y-1350000D03*
X2950000Y-1350000D03*
X2950000Y1350000D03*
X-2950000Y1350000D03*
D10*
G36*
X-27832237Y17720922D02*
X-29269078Y19157763D01*
X-28047763Y20379078D01*
X-26610922Y18942237D01*
X-27832237Y17720922D01*
X-27832237Y17720922D01*
G37*
D11*
X-26251712Y20953814D02*
X-26036186Y20738288D01*
X-24455661Y22749865D02*
X-24240135Y22534339D01*
X-22659609Y24545917D02*
X-22444083Y24330391D01*
X-20863558Y26341968D02*
X-20648032Y26126442D01*
X-19067507Y28138019D02*
X-18851981Y27922493D01*
D10*
G36*
X27832237Y-17720922D02*
X29269078Y-19157763D01*
X28047763Y-20379078D01*
X26610922Y-18942237D01*
X27832237Y-17720922D01*
X27832237Y-17720922D01*
G37*
D11*
X26251712Y-20953814D02*
X26036186Y-20738288D01*
X24455661Y-22749865D02*
X24240135Y-22534339D01*
X22659609Y-24545917D02*
X22444083Y-24330391D01*
X20863558Y-26341968D02*
X20648032Y-26126442D01*
X19067507Y-28138019D02*
X18851981Y-27922493D01*
D10*
G36*
X-11097660Y-18340011D02*
X-10234989Y-17477340D01*
X-9591522Y-18120807D01*
X-10454193Y-18983478D01*
X-11097660Y-18340011D01*
X-11097660Y-18340011D01*
G37*
G36*
X-13268478Y-16169193D02*
X-12405807Y-15306522D01*
X-11762340Y-15949989D01*
X-12625011Y-16812660D01*
X-13268478Y-16169193D01*
X-13268478Y-16169193D01*
G37*
G36*
X-17477340Y-10234989D02*
X-18340011Y-11097660D01*
X-18983478Y-10454193D01*
X-18120807Y-9591522D01*
X-17477340Y-10234989D01*
X-17477340Y-10234989D01*
G37*
G36*
X-15306522Y-12405807D02*
X-16169193Y-13268478D01*
X-16812660Y-12625011D01*
X-15949989Y-11762340D01*
X-15306522Y-12405807D01*
X-15306522Y-12405807D01*
G37*
G36*
X-20872196Y-19316561D02*
X-21084328Y-19104429D01*
X-20483288Y-18503389D01*
X-20271156Y-18715521D01*
X-20872196Y-19316561D01*
X-20872196Y-19316561D01*
G37*
G36*
X-20518642Y-19670114D02*
X-20730774Y-19457982D01*
X-20129734Y-18856942D01*
X-19917602Y-19069074D01*
X-20518642Y-19670114D01*
X-20518642Y-19670114D01*
G37*
G36*
X-20165089Y-20023668D02*
X-20377221Y-19811536D01*
X-19776181Y-19210496D01*
X-19564049Y-19422628D01*
X-20165089Y-20023668D01*
X-20165089Y-20023668D01*
G37*
G36*
X-19811536Y-20377221D02*
X-20023668Y-20165089D01*
X-19422628Y-19564049D01*
X-19210496Y-19776181D01*
X-19811536Y-20377221D01*
X-19811536Y-20377221D01*
G37*
G36*
X-19457982Y-20730774D02*
X-19670114Y-20518642D01*
X-19069074Y-19917602D01*
X-18856942Y-20129734D01*
X-19457982Y-20730774D01*
X-19457982Y-20730774D01*
G37*
G36*
X-19104429Y-21084328D02*
X-19316561Y-20872196D01*
X-18715521Y-20271156D01*
X-18503389Y-20483288D01*
X-19104429Y-21084328D01*
X-19104429Y-21084328D01*
G37*
G36*
X-17513439Y-20872196D02*
X-17725571Y-21084328D01*
X-18326611Y-20483288D01*
X-18114479Y-20271156D01*
X-17513439Y-20872196D01*
X-17513439Y-20872196D01*
G37*
G36*
X-17159886Y-20518642D02*
X-17372018Y-20730774D01*
X-17973058Y-20129734D01*
X-17760926Y-19917602D01*
X-17159886Y-20518642D01*
X-17159886Y-20518642D01*
G37*
G36*
X-16806332Y-20165089D02*
X-17018464Y-20377221D01*
X-17619504Y-19776181D01*
X-17407372Y-19564049D01*
X-16806332Y-20165089D01*
X-16806332Y-20165089D01*
G37*
G36*
X-16452779Y-19811536D02*
X-16664911Y-20023668D01*
X-17265951Y-19422628D01*
X-17053819Y-19210496D01*
X-16452779Y-19811536D01*
X-16452779Y-19811536D01*
G37*
G36*
X-16099226Y-19457982D02*
X-16311358Y-19670114D01*
X-16912398Y-19069074D01*
X-16700266Y-18856942D01*
X-16099226Y-19457982D01*
X-16099226Y-19457982D01*
G37*
G36*
X-15745672Y-19104429D02*
X-15957804Y-19316561D01*
X-16558844Y-18715521D01*
X-16346712Y-18503389D01*
X-15745672Y-19104429D01*
X-15745672Y-19104429D01*
G37*
G36*
X-16346712Y-18326611D02*
X-16558844Y-18114479D01*
X-15957804Y-17513439D01*
X-15745672Y-17725571D01*
X-16346712Y-18326611D01*
X-16346712Y-18326611D01*
G37*
G36*
X-16700266Y-17973058D02*
X-16912398Y-17760926D01*
X-16311358Y-17159886D01*
X-16099226Y-17372018D01*
X-16700266Y-17973058D01*
X-16700266Y-17973058D01*
G37*
G36*
X-17053819Y-17619504D02*
X-17265951Y-17407372D01*
X-16664911Y-16806332D01*
X-16452779Y-17018464D01*
X-17053819Y-17619504D01*
X-17053819Y-17619504D01*
G37*
G36*
X-17407372Y-17265951D02*
X-17619504Y-17053819D01*
X-17018464Y-16452779D01*
X-16806332Y-16664911D01*
X-17407372Y-17265951D01*
X-17407372Y-17265951D01*
G37*
G36*
X-17760926Y-16912398D02*
X-17973058Y-16700266D01*
X-17372018Y-16099226D01*
X-17159886Y-16311358D01*
X-17760926Y-16912398D01*
X-17760926Y-16912398D01*
G37*
G36*
X-18114479Y-16558844D02*
X-18326611Y-16346712D01*
X-17725571Y-15745672D01*
X-17513439Y-15957804D01*
X-18114479Y-16558844D01*
X-18114479Y-16558844D01*
G37*
G36*
X-18503389Y-16346712D02*
X-18715521Y-16558844D01*
X-19316561Y-15957804D01*
X-19104429Y-15745672D01*
X-18503389Y-16346712D01*
X-18503389Y-16346712D01*
G37*
G36*
X-18856942Y-16700266D02*
X-19069074Y-16912398D01*
X-19670114Y-16311358D01*
X-19457982Y-16099226D01*
X-18856942Y-16700266D01*
X-18856942Y-16700266D01*
G37*
G36*
X-19210496Y-17053819D02*
X-19422628Y-17265951D01*
X-20023668Y-16664911D01*
X-19811536Y-16452779D01*
X-19210496Y-17053819D01*
X-19210496Y-17053819D01*
G37*
G36*
X-19564049Y-17407372D02*
X-19776181Y-17619504D01*
X-20377221Y-17018464D01*
X-20165089Y-16806332D01*
X-19564049Y-17407372D01*
X-19564049Y-17407372D01*
G37*
G36*
X-19917602Y-17760926D02*
X-20129734Y-17973058D01*
X-20730774Y-17372018D01*
X-20518642Y-17159886D01*
X-19917602Y-17760926D01*
X-19917602Y-17760926D01*
G37*
G36*
X-20271156Y-18114479D02*
X-20483288Y-18326611D01*
X-21084328Y-17725571D01*
X-20872196Y-17513439D01*
X-20271156Y-18114479D01*
X-20271156Y-18114479D01*
G37*
G36*
X-17495761Y-19334239D02*
X-18415000Y-18415000D01*
X-17495761Y-17495761D01*
X-16576522Y-18415000D01*
X-17495761Y-19334239D01*
X-17495761Y-19334239D01*
G37*
G36*
X-18415000Y-18415000D02*
X-19334239Y-17495761D01*
X-18415000Y-16576522D01*
X-17495761Y-17495761D01*
X-18415000Y-18415000D01*
X-18415000Y-18415000D01*
G37*
G36*
X-18415000Y-20253478D02*
X-19334239Y-19334239D01*
X-18415000Y-18415000D01*
X-17495761Y-19334239D01*
X-18415000Y-20253478D01*
X-18415000Y-20253478D01*
G37*
G36*
X-19334239Y-19334239D02*
X-20253478Y-18415000D01*
X-19334239Y-17495761D01*
X-18415000Y-18415000D01*
X-19334239Y-19334239D01*
X-19334239Y-19334239D01*
G37*
G36*
X-25064426Y-17475569D02*
X-26054050Y-18465193D01*
X-26901786Y-17617457D01*
X-25912162Y-16627833D01*
X-25064426Y-17475569D01*
X-25064426Y-17475569D01*
G37*
G36*
X-26350399Y-16189597D02*
X-27340023Y-17179221D01*
X-28047667Y-16471577D01*
X-27058043Y-15481953D01*
X-26350399Y-16189597D01*
X-26350399Y-16189597D01*
G37*
G36*
X-27905779Y-17744977D02*
X-28895403Y-18734601D01*
X-29603047Y-18026957D01*
X-28613423Y-17037333D01*
X-27905779Y-17744977D01*
X-27905779Y-17744977D01*
G37*
G36*
X-26562333Y-19088423D02*
X-27551957Y-20078047D01*
X-28259601Y-19370403D01*
X-27269977Y-18380779D01*
X-26562333Y-19088423D01*
X-26562333Y-19088423D01*
G37*
G36*
X-12910736Y-14462182D02*
X-12557182Y-14815736D01*
X-12981446Y-15240000D01*
X-13335000Y-14886446D01*
X-12910736Y-14462182D01*
X-12910736Y-14462182D01*
G37*
G36*
X-13688554Y-15240000D02*
X-13335000Y-15593554D01*
X-13759264Y-16017818D01*
X-14112818Y-15664264D01*
X-13688554Y-15240000D01*
X-13688554Y-15240000D01*
G37*
G36*
X-14815736Y-12557182D02*
X-14462182Y-12910736D01*
X-14886446Y-13335000D01*
X-15240000Y-12981446D01*
X-14815736Y-12557182D01*
X-14815736Y-12557182D01*
G37*
G36*
X-15593554Y-13335000D02*
X-15240000Y-13688554D01*
X-15664264Y-14112818D01*
X-16017818Y-13759264D01*
X-15593554Y-13335000D01*
X-15593554Y-13335000D01*
G37*
G36*
X-23010869Y-21453960D02*
X-23293711Y-21171118D01*
X-22339117Y-20216524D01*
X-22056275Y-20499366D01*
X-23010869Y-21453960D01*
X-23010869Y-21453960D01*
G37*
G36*
X-22551249Y-21913580D02*
X-22834091Y-21630738D01*
X-21879497Y-20676144D01*
X-21596655Y-20958986D01*
X-22551249Y-21913580D01*
X-22551249Y-21913580D01*
G37*
G36*
X-22091630Y-22373199D02*
X-22374472Y-22090357D01*
X-21419878Y-21135763D01*
X-21137036Y-21418605D01*
X-22091630Y-22373199D01*
X-22091630Y-22373199D01*
G37*
G36*
X-21632010Y-22832818D02*
X-21914852Y-22549976D01*
X-20960258Y-21595382D01*
X-20677416Y-21878224D01*
X-21632010Y-22832818D01*
X-21632010Y-22832818D01*
G37*
G36*
X-21172391Y-23292438D02*
X-21455233Y-23009596D01*
X-20500639Y-22055002D01*
X-20217797Y-22337844D01*
X-21172391Y-23292438D01*
X-21172391Y-23292438D01*
G37*
D32*
X-23523521Y-19986714D03*
X-19987987Y-23522248D03*
D33*
X-26139816Y-21188796D03*
X-21190068Y-26138543D03*
D34*
X4500000Y8500000D03*
X9050000Y-14650000D03*
X13750000Y-9200000D03*
X9200000Y13750000D03*
X-13750000Y9200000D03*
X-9200000Y-13750000D03*
X24000000Y-1000000D03*
X-1000000Y-24000000D03*
X-24000000Y1000000D03*
X1000000Y24000000D03*
X5100000Y-3500000D03*
X5950000Y-3550000D03*
X3550000Y-7000000D03*
X4450000Y-7000000D03*
X6450000Y4950000D03*
X7000000Y4300000D03*
X7100000Y3500000D03*
X8000000Y3500000D03*
X500000Y-5000000D03*
X-5000000Y-500000D03*
X-500000Y5000000D03*
X5000000Y500000D03*
X-3175000Y2540000D03*
X10000000Y11000000D03*
X-12000000Y11000000D03*
X11500000Y-10000000D03*
X7500000Y5500000D03*
X3000000Y-2500000D03*
X5000000Y1500000D03*
X1500000Y-5000000D03*
X-5000000Y-1500000D03*
X-1500000Y5000000D03*
X-2750000Y-6050000D03*
X-4400000Y-5300000D03*
X-6850000Y-3750000D03*
X-6850000Y-4650000D03*
X-4200000Y4650000D03*
X-4200000Y5550000D03*
X-3700000Y6950000D03*
X-4550000Y7000000D03*
X8100000Y-22850000D03*
X8100000Y-21950000D03*
X6800000Y-21300000D03*
X7600000Y-21300000D03*
X7750000Y-14150000D03*
X7950000Y-13350000D03*
X6650000Y-13200000D03*
X6850000Y-12400000D03*
X-7450000Y-11750000D03*
X-7300000Y-12550000D03*
X-7150000Y-13350000D03*
X-7000000Y-14150000D03*
X-4900000Y-23250000D03*
X-4850000Y-22350000D03*
X-4700000Y-21550000D03*
X-4700000Y-20650000D03*
X-22900000Y-8050000D03*
X-22000000Y-8050000D03*
X-21350000Y-6750000D03*
X-21350000Y-7550000D03*
X-14150000Y-7700000D03*
X-13350000Y-7900000D03*
X-13200000Y-6600000D03*
X-12400000Y-6700000D03*
X-11750000Y7400000D03*
X-12550000Y7300000D03*
X-13350000Y7150000D03*
X-14150000Y7000000D03*
X-23150000Y4900000D03*
X-22350000Y4850000D03*
X-21550000Y4700000D03*
X-20700000Y4700000D03*
X-8050000Y22900000D03*
X-8050000Y22000000D03*
X-6750000Y21350000D03*
X-7600000Y21300000D03*
X-7800000Y14100000D03*
X-8000000Y13300000D03*
X-6700000Y13200000D03*
X-6900000Y12400000D03*
X7450000Y11750000D03*
X7300000Y12550000D03*
X7150000Y13350000D03*
X7000000Y14150000D03*
X4850000Y23650000D03*
X4850000Y22750000D03*
X4700000Y21950000D03*
X4700000Y21050000D03*
X22900000Y8050000D03*
X22000000Y8050000D03*
X21350000Y6750000D03*
X21350000Y7550000D03*
X14150000Y7800000D03*
X13350000Y8000000D03*
X13200000Y6700000D03*
X12550000Y7150000D03*
X11750000Y-7450000D03*
X12550000Y-7300000D03*
X13350000Y-7150000D03*
X14150000Y-7000000D03*
X23350000Y-4900000D03*
X22450000Y-4900000D03*
X21650000Y-4700000D03*
X20700000Y-4700000D03*
X-8800000Y-12150000D03*
X7950000Y-12450000D03*
X-12450000Y9000000D03*
X-12450000Y-7700000D03*
X16500000Y13000000D03*
X-15500000Y14000000D03*
X15000000Y-13500000D03*
X9050000Y12400000D03*
X-7900000Y12450000D03*
X12400000Y-9000000D03*
X12500000Y8000000D03*
X-22225000Y-23495000D03*
X-24130000Y-21590000D03*
D35*
X-21755754Y-21754481D02*
X-21754481Y-21754481D01*
X8600000Y-15350000D02*
X8600000Y-15100000D01*
X8600000Y-16500000D02*
X8600000Y-15350000D01*
X8150000Y-16950000D02*
X8600000Y-16500000D01*
X8600000Y-15100000D02*
X9050000Y-14650000D01*
X8000000Y-16950000D02*
X8150000Y-16950000D01*
X16950000Y-8000000D02*
X16950000Y-8150000D01*
X16950000Y-8150000D02*
X16500000Y-8600000D01*
X14350000Y-8600000D02*
X13750000Y-9200000D01*
X16500000Y-8600000D02*
X14350000Y-8600000D01*
X8000000Y16950000D02*
X8150000Y16950000D01*
X8150000Y16950000D02*
X8600000Y16500000D01*
X8600000Y14350000D02*
X9200000Y13750000D01*
X8600000Y16500000D02*
X8600000Y14350000D01*
X-16950000Y8000000D02*
X-16950000Y8150000D01*
X-16950000Y8150000D02*
X-16500000Y8600000D01*
X-14350000Y8600000D02*
X-13750000Y9200000D01*
X-16500000Y8600000D02*
X-14350000Y8600000D01*
X-8000000Y-16950000D02*
X-8150000Y-16950000D01*
X-8150000Y-16950000D02*
X-8600000Y-16500000D01*
X-8600000Y-14350000D02*
X-9200000Y-13750000D01*
X-8600000Y-16500000D02*
X-8600000Y-14350000D01*
X-16950000Y7000000D02*
X-16950000Y8000000D01*
X-16250000Y4450000D02*
X-16250000Y5650000D01*
X-16950000Y6350000D02*
X-16950000Y7000000D01*
X-16250000Y5650000D02*
X-16950000Y6350000D01*
X-16950000Y-7000000D02*
X-16950000Y-8000000D01*
X-16250000Y-4450000D02*
X-16250000Y-5600000D01*
X-16950000Y-6300000D02*
X-16950000Y-7000000D01*
X-16250000Y-5600000D02*
X-16950000Y-6300000D01*
X-7000000Y-16950000D02*
X-8000000Y-16950000D01*
X-4450000Y-16250000D02*
X-5650000Y-16250000D01*
X-6350000Y-16950000D02*
X-7000000Y-16950000D01*
X-5650000Y-16250000D02*
X-6350000Y-16950000D01*
X7000000Y-16950000D02*
X8000000Y-16950000D01*
X4450000Y-16250000D02*
X5600000Y-16250000D01*
X6350000Y-17000000D02*
X6750000Y-17000000D01*
X5600000Y-16250000D02*
X6350000Y-17000000D01*
X6750000Y-17000000D02*
X7000000Y-16950000D01*
X16950000Y-7000000D02*
X16950000Y-8000000D01*
X16250000Y-4450000D02*
X16250000Y-5650000D01*
X16950000Y-6350000D02*
X16950000Y-7000000D01*
X16250000Y-5650000D02*
X16950000Y-6350000D01*
X16950000Y7000000D02*
X16950000Y8000000D01*
X-7000000Y16950000D02*
X-8000000Y16950000D01*
X-4450000Y16250000D02*
X-5600000Y16250000D01*
X-6300000Y16950000D02*
X-7000000Y16950000D01*
X-5600000Y16250000D02*
X-6300000Y16950000D01*
X7000000Y16950000D02*
X8000000Y16950000D01*
X4450000Y16250000D02*
X5600000Y16250000D01*
X6300000Y16950000D02*
X7000000Y16950000D01*
X5600000Y16250000D02*
X6300000Y16950000D01*
X16250000Y4450000D02*
X16250000Y5600000D01*
X16950000Y6300000D02*
X16950000Y7000000D01*
X16250000Y5600000D02*
X16950000Y6300000D01*
X23000000Y3050000D02*
X23000000Y3000000D01*
X23000000Y3000000D02*
X24000000Y2000000D01*
X23950000Y-950000D02*
X24000000Y-1000000D01*
X23000000Y-950000D02*
X23950000Y-950000D01*
X24000000Y2000000D02*
X24000000Y-1000000D01*
X23000000Y-50000D02*
X23000000Y-950000D01*
X-23000000Y50000D02*
X-23000000Y950000D01*
X-50000Y-23000000D02*
X-950000Y-23000000D01*
X3050000Y-23000000D02*
X3000000Y-23000000D01*
X3000000Y-23000000D02*
X2000000Y-24000000D01*
X2000000Y-24000000D02*
X-1000000Y-24000000D01*
X-950000Y-23000000D02*
X-950000Y-23950000D01*
X-950000Y-23950000D02*
X-1000000Y-24000000D01*
X-23000000Y-3050000D02*
X-23000000Y-3000000D01*
X-23000000Y-3000000D02*
X-24000000Y-2000000D01*
X-24000000Y-2000000D02*
X-24000000Y1000000D01*
X-23000000Y950000D02*
X-23950000Y950000D01*
X-23950000Y950000D02*
X-24000000Y1000000D01*
X-3050000Y23000000D02*
X-3000000Y23000000D01*
X-3000000Y23000000D02*
X-2000000Y24000000D01*
X950000Y23950000D02*
X1000000Y24000000D01*
X950000Y23000000D02*
X950000Y23950000D01*
X-2000000Y24000000D02*
X1000000Y24000000D01*
X-23000000Y-3050000D02*
X-23000000Y-3035000D01*
X-22000000Y950000D02*
X-23000000Y950000D01*
X-19450000Y2250000D02*
X-20700000Y2250000D01*
X-20700000Y2250000D02*
X-22000000Y950000D01*
X-22000000Y50000D02*
X-23000000Y50000D01*
X-19450000Y-750000D02*
X-20150000Y-750000D01*
X-20950000Y50000D02*
X-22000000Y50000D01*
X-20150000Y-750000D02*
X-20950000Y50000D01*
X-22000000Y-3050000D02*
X-23000000Y-3050000D01*
X-19450000Y-2750000D02*
X-21700000Y-2750000D01*
X-21700000Y-2750000D02*
X-22000000Y-3050000D01*
X-950000Y-22000000D02*
X-950000Y-23000000D01*
X-2250000Y-19450000D02*
X-2250000Y-20700000D01*
X-2250000Y-20700000D02*
X-950000Y-22000000D01*
X-50000Y-22000000D02*
X-50000Y-23000000D01*
X750000Y-19450000D02*
X750000Y-20150000D01*
X-50000Y-20950000D02*
X-50000Y-22000000D01*
X750000Y-20150000D02*
X-50000Y-20950000D01*
X3050000Y-22000000D02*
X3050000Y-23000000D01*
X2750000Y-19450000D02*
X2750000Y-21700000D01*
X2750000Y-21700000D02*
X3050000Y-22000000D01*
X22000000Y-950000D02*
X23000000Y-950000D01*
X19450000Y-2250000D02*
X20700000Y-2250000D01*
X20700000Y-2250000D02*
X22000000Y-950000D01*
X22000000Y-50000D02*
X23000000Y-50000D01*
X19450000Y750000D02*
X20150000Y750000D01*
X20950000Y-50000D02*
X22000000Y-50000D01*
X20150000Y750000D02*
X20950000Y-50000D01*
X22000000Y3050000D02*
X23000000Y3050000D01*
X19450000Y2750000D02*
X21700000Y2750000D01*
X21700000Y2750000D02*
X22000000Y3050000D01*
X950000Y23000000D02*
X50000Y23000000D01*
X23050000Y-1000000D02*
X23000000Y-950000D01*
X0Y-23050000D02*
X-50000Y-23000000D01*
X-750000Y19450000D02*
X-750000Y20150000D01*
X50000Y20950000D02*
X50000Y22000000D01*
X-750000Y20150000D02*
X50000Y20950000D01*
X950000Y22000000D02*
X950000Y23000000D01*
X2250000Y19450000D02*
X2250000Y20700000D01*
X2250000Y20700000D02*
X950000Y22000000D01*
X50000Y22000000D02*
X50000Y23000000D01*
X-3050000Y22000000D02*
X-3050000Y23000000D01*
X0Y21950000D02*
X50000Y22000000D01*
X-2750000Y19450000D02*
X-2750000Y21700000D01*
X-2750000Y21700000D02*
X-3050000Y22000000D01*
X2750000Y-10550000D02*
X2750000Y-9650000D01*
X5100000Y-7300000D02*
X5100000Y-3500000D01*
X2750000Y-9650000D02*
X5100000Y-7300000D01*
X5800000Y-3750000D02*
X5800000Y-3700000D01*
X3250000Y-10550000D02*
X3250000Y-9850000D01*
X5800000Y-7300000D02*
X5800000Y-4450000D01*
X3250000Y-9850000D02*
X5800000Y-7300000D01*
X5800000Y-3800000D02*
X5800000Y-4450000D01*
X5800000Y-3750000D02*
X5800000Y-3800000D01*
X5800000Y-3700000D02*
X5950000Y-3550000D01*
X1750000Y-10550000D02*
X1750000Y-8800000D01*
X1750000Y-8800000D02*
X3550000Y-7000000D01*
X2250000Y-10550000D02*
X2250000Y-9200000D01*
X2250000Y-9200000D02*
X4450000Y-7000000D01*
X10550000Y3250000D02*
X9800000Y3250000D01*
X7150000Y4950000D02*
X6450000Y4950000D01*
X7250000Y4850000D02*
X7150000Y4950000D01*
X8200000Y4850000D02*
X7250000Y4850000D01*
X9800000Y3250000D02*
X8200000Y4850000D01*
X10550000Y2750000D02*
X9650000Y2750000D01*
X8100000Y4300000D02*
X7000000Y4300000D01*
X9650000Y2750000D02*
X8100000Y4300000D01*
X10550000Y1750000D02*
X8850000Y1750000D01*
X8850000Y1750000D02*
X7100000Y3500000D01*
X10550000Y2250000D02*
X9250000Y2250000D01*
X9250000Y2250000D02*
X8000000Y3500000D01*
X10550000Y-3750000D02*
X8050000Y-3750000D01*
X8050000Y-3750000D02*
X2950000Y1350000D01*
X-3750000Y-10550000D02*
X-3750000Y-7950000D01*
X-3750000Y-7950000D02*
X-1425667Y-5624318D01*
X-1425667Y-5624318D02*
X-1425000Y-3025000D01*
X-1425000Y-3025000D02*
X2950000Y1350000D01*
X-10550000Y3750000D02*
X550000Y3750000D01*
X550000Y3750000D02*
X2950000Y1350000D01*
X3750000Y10550000D02*
X3750000Y2150000D01*
X3750000Y2150000D02*
X2950000Y1350000D01*
X750000Y-10550000D02*
X750000Y-8000000D01*
X1450000Y-7300000D02*
X1450000Y-7000000D01*
X750000Y-8000000D02*
X1450000Y-7300000D01*
X1450000Y-7000000D02*
X1450000Y-6000000D01*
X-550000Y-6000000D02*
X-500000Y-6000000D01*
X-500000Y-6000000D02*
X500000Y-5000000D01*
X-6000000Y550000D02*
X-6000000Y500000D01*
X-6000000Y500000D02*
X-5000000Y-500000D01*
X550000Y6000000D02*
X500000Y6000000D01*
X500000Y6000000D02*
X-500000Y5000000D01*
X6000000Y-550000D02*
X6000000Y-500000D01*
X6000000Y-500000D02*
X5000000Y500000D01*
X-250000Y10550000D02*
X-250000Y7800000D01*
X-250000Y7800000D02*
X550000Y7000000D01*
X-10550000Y-250000D02*
X-7800000Y-250000D01*
X-7800000Y-250000D02*
X-7000000Y550000D01*
X250000Y-10550000D02*
X250000Y-7800000D01*
X250000Y-7800000D02*
X-550000Y-7000000D01*
X10550000Y250000D02*
X7800000Y250000D01*
X7800000Y250000D02*
X7000000Y-550000D01*
X-2950000Y1350000D02*
X-3175000Y1575000D01*
X-3175000Y1575000D02*
X-3175000Y2540000D01*
X7000000Y-550000D02*
X6000000Y-550000D01*
X-550000Y-7000000D02*
X-550000Y-6000000D01*
X-7000000Y550000D02*
X-6000000Y550000D01*
X550000Y7000000D02*
X550000Y6000000D01*
X-2750000Y-19450000D02*
X-2750000Y-20700000D01*
X-2750000Y-20700000D02*
X-3000000Y-20950000D01*
X-16050000Y7000000D02*
X-16050000Y8000000D01*
X-15750000Y4450000D02*
X-15750000Y6700000D01*
X-15750000Y6700000D02*
X-16050000Y7000000D01*
X-18050000Y7000000D02*
X-18050000Y8000000D01*
X-16750000Y4450000D02*
X-16750000Y5500000D01*
X-16750000Y5500000D02*
X-18050000Y6800000D01*
X-18050000Y6800000D02*
X-18050000Y7000000D01*
X-16050000Y-7000000D02*
X-16050000Y-8000000D01*
X-15750000Y-4450000D02*
X-15750000Y-6700000D01*
X-15750000Y-6700000D02*
X-16050000Y-7000000D01*
X-18050000Y-7000000D02*
X-18050000Y-8000000D01*
X-16750000Y-4450000D02*
X-16750000Y-5450000D01*
X-16750000Y-5450000D02*
X-18050000Y-6750000D01*
X-18050000Y-6750000D02*
X-18050000Y-7000000D01*
X-7000000Y-16050000D02*
X-8000000Y-16050000D01*
X-4450000Y-15750000D02*
X-6700000Y-15750000D01*
X-6700000Y-15750000D02*
X-7000000Y-16050000D01*
X-7000000Y-18050000D02*
X-8000000Y-18050000D01*
X-4450000Y-16750000D02*
X-5500000Y-16750000D01*
X-5500000Y-16750000D02*
X-6800000Y-18050000D01*
X-6800000Y-18050000D02*
X-7000000Y-18050000D01*
X7000000Y-16050000D02*
X8000000Y-16050000D01*
X4450000Y-15750000D02*
X6700000Y-15750000D01*
X6700000Y-15750000D02*
X7000000Y-16050000D01*
X7000000Y-18050000D02*
X8000000Y-18050000D01*
X4450000Y-16750000D02*
X5450000Y-16750000D01*
X5450000Y-16750000D02*
X6750000Y-18050000D01*
X6750000Y-18050000D02*
X7000000Y-18050000D01*
X16050000Y-7000000D02*
X16050000Y-8000000D01*
X15750000Y-4450000D02*
X15750000Y-6700000D01*
X15750000Y-6700000D02*
X16050000Y-7000000D01*
X18050000Y-7000000D02*
X18050000Y-8000000D01*
X16750000Y-4450000D02*
X16750000Y-5500000D01*
X16750000Y-5500000D02*
X18050000Y-6800000D01*
X18050000Y-6800000D02*
X18050000Y-7000000D01*
X18050000Y7000000D02*
X18050000Y8000000D01*
X16050000Y7000000D02*
X16050000Y8000000D01*
X15750000Y4450000D02*
X15750000Y6700000D01*
X15750000Y6700000D02*
X16050000Y7000000D01*
X4450000Y15750000D02*
X6700000Y15750000D01*
X6700000Y15750000D02*
X7000000Y16050000D01*
X-7000000Y16050000D02*
X-8000000Y16050000D01*
X-7000000Y18050000D02*
X-8000000Y18050000D01*
X-4450000Y15750000D02*
X-6700000Y15750000D01*
X-6700000Y15750000D02*
X-7000000Y16050000D01*
X-4450000Y16750000D02*
X-5450000Y16750000D01*
X-5450000Y16750000D02*
X-6750000Y18050000D01*
X-6750000Y18050000D02*
X-7000000Y18050000D01*
X7000000Y18050000D02*
X8000000Y18050000D01*
X7000000Y16050000D02*
X8000000Y16050000D01*
X4450000Y16750000D02*
X5450000Y16750000D01*
X5450000Y16750000D02*
X6750000Y18050000D01*
X6750000Y18050000D02*
X7000000Y18050000D01*
X16750000Y4450000D02*
X16750000Y5450000D01*
X16750000Y5450000D02*
X18050000Y6750000D01*
X18050000Y6750000D02*
X18050000Y7000000D01*
X11357150Y14051227D02*
X10000000Y12694077D01*
X10000000Y12694077D02*
X10000000Y11000000D01*
X-14051227Y11357150D02*
X-13694077Y11000000D01*
X-13694077Y11000000D02*
X-12000000Y11000000D01*
X14051227Y-11357150D02*
X12694077Y-10000000D01*
X12694077Y-10000000D02*
X11500000Y-10000000D01*
X-10550000Y-1250000D02*
X-11912500Y-1250000D01*
X-11912500Y-1250000D02*
X-12243750Y-918750D01*
X-15750000Y4450000D02*
X-15750000Y2925000D01*
X-15750000Y2925000D02*
X-15918750Y2756250D01*
X-16750000Y4450000D02*
X-16750000Y3587500D01*
X-16750000Y3587500D02*
X-15918750Y2756250D01*
X-19450000Y3250000D02*
X-18250000Y3250000D01*
X-18250000Y3250000D02*
X-17756250Y2756250D01*
X-19450000Y1750000D02*
X-18587500Y1750000D01*
X-18587500Y1750000D02*
X-17756250Y918750D01*
X-19450000Y-1750000D02*
X-18587500Y-1750000D01*
X-18587500Y-1750000D02*
X-17756250Y-918750D01*
X-19450000Y-2250000D02*
X-18262500Y-2250000D01*
X-18262500Y-2250000D02*
X-17756250Y-2756250D01*
X-15750000Y-4450000D02*
X-15750000Y-2925000D01*
X-15750000Y-2925000D02*
X-15918750Y-2756250D01*
X-16750000Y-4450000D02*
X-16750000Y-3587500D01*
X-16750000Y-3587500D02*
X-15918750Y-2756250D01*
X-4450000Y-16750000D02*
X-3587500Y-16750000D01*
X-3587500Y-16750000D02*
X-2756250Y-15918750D01*
X-4450000Y-15750000D02*
X-2925000Y-15750000D01*
X-2925000Y-15750000D02*
X-2756250Y-15918750D01*
X-3250000Y-19450000D02*
X-3250000Y-18250000D01*
X-3250000Y-18250000D02*
X-2756250Y-17756250D01*
X-1750000Y-19450000D02*
X-1750000Y-18587500D01*
X-1750000Y-18587500D02*
X-918750Y-17756250D01*
X2250000Y-19450000D02*
X2250000Y-18262500D01*
X2250000Y-18262500D02*
X2756250Y-17756250D01*
X1750000Y-19450000D02*
X1750000Y-18587500D01*
X1750000Y-18587500D02*
X918750Y-17756250D01*
X4450000Y-15750000D02*
X2925000Y-15750000D01*
X2925000Y-15750000D02*
X2756250Y-15918750D01*
X4450000Y-16750000D02*
X3587500Y-16750000D01*
X3587500Y-16750000D02*
X2756250Y-15918750D01*
X1250000Y-10550000D02*
X1250000Y-11912500D01*
X1250000Y-11912500D02*
X918750Y-12243750D01*
X4450000Y15750000D02*
X2925000Y15750000D01*
X2925000Y15750000D02*
X2756250Y15918750D01*
X4450000Y16750000D02*
X3587500Y16750000D01*
X3587500Y16750000D02*
X2756250Y15918750D01*
X-1250000Y10550000D02*
X-1250000Y11912500D01*
X-1250000Y11912500D02*
X-918750Y12243750D01*
X-4450000Y15750000D02*
X-2925000Y15750000D01*
X-2925000Y15750000D02*
X-2756250Y15918750D01*
X-4450000Y16750000D02*
X-3587500Y16750000D01*
X-3587500Y16750000D02*
X-2756250Y15918750D01*
X-2250000Y19450000D02*
X-2250000Y18262500D01*
X-2250000Y18262500D02*
X-2756250Y17756250D01*
X-1750000Y19450000D02*
X-1750000Y18587500D01*
X-1750000Y18587500D02*
X-918750Y17756250D01*
X1750000Y19450000D02*
X1750000Y18587500D01*
X1750000Y18587500D02*
X918750Y17756250D01*
X3250000Y19450000D02*
X3250000Y18250000D01*
X3250000Y18250000D02*
X2756250Y17756250D01*
X16750000Y4450000D02*
X16750000Y3587500D01*
X16750000Y3587500D02*
X15918750Y2756250D01*
X15750000Y4450000D02*
X15750000Y2925000D01*
X15750000Y2925000D02*
X15918750Y2756250D01*
X10550000Y1250000D02*
X11912500Y1250000D01*
X11912500Y1250000D02*
X12243750Y918750D01*
X15750000Y-4450000D02*
X15750000Y-2925000D01*
X15750000Y-2925000D02*
X15918750Y-2756250D01*
X16750000Y-4450000D02*
X16750000Y-3587500D01*
X16750000Y-3587500D02*
X15918750Y-2756250D01*
X19450000Y-3250000D02*
X18250000Y-3250000D01*
X18250000Y-3250000D02*
X17756250Y-2756250D01*
X19450000Y-1750000D02*
X18587500Y-1750000D01*
X18587500Y-1750000D02*
X17756250Y-918750D01*
X19450000Y1750000D02*
X18587500Y1750000D01*
X18587500Y1750000D02*
X17756250Y918750D01*
X19450000Y2250000D02*
X18262500Y2250000D01*
X18262500Y2250000D02*
X17756250Y2756250D01*
X-22050000Y3000000D02*
X-22050000Y2100000D01*
X-22050000Y2100000D02*
X-22000000Y2050000D01*
X-22050000Y3000000D02*
X-23000000Y2050000D01*
X-22050000Y3000000D02*
X-22950000Y3000000D01*
X-22950000Y3000000D02*
X-23000000Y2950000D01*
X-19450000Y3250000D02*
X-20150000Y3250000D01*
X-21450000Y3600000D02*
X-22050000Y3000000D01*
X-20500000Y3600000D02*
X-21450000Y3600000D01*
X-20150000Y3250000D02*
X-20500000Y3600000D01*
X-22000000Y-1950000D02*
X-22000000Y-1050000D01*
X-22000000Y-1950000D02*
X-22100000Y-1950000D01*
X-22100000Y-1950000D02*
X-23000000Y-1050000D01*
X-22000000Y-1950000D02*
X-23000000Y-1950000D01*
X-21000000Y-2050000D02*
X-21900000Y-2050000D01*
X-21900000Y-2050000D02*
X-22000000Y-1950000D01*
X-19450000Y-2250000D02*
X-20800000Y-2250000D01*
X-20800000Y-2250000D02*
X-21000000Y-2050000D01*
X-19450000Y-1750000D02*
X-20700000Y-1750000D01*
X-20700000Y-1750000D02*
X-21000000Y-2050000D01*
X-3000000Y-22050000D02*
X-3000000Y-22950000D01*
X-3000000Y-22950000D02*
X-2950000Y-23000000D01*
X-3000000Y-22050000D02*
X-2050000Y-23000000D01*
X-3000000Y-22050000D02*
X-2100000Y-22050000D01*
X-2100000Y-22050000D02*
X-2050000Y-22000000D01*
X-3250000Y-19450000D02*
X-3250000Y-20150000D01*
X-3600000Y-21450000D02*
X-3000000Y-22050000D01*
X-3600000Y-20500000D02*
X-3600000Y-21450000D01*
X-3250000Y-20150000D02*
X-3600000Y-20500000D01*
X1950000Y-22000000D02*
X1950000Y-23000000D01*
X1950000Y-22000000D02*
X1950000Y-22100000D01*
X1950000Y-22100000D02*
X1050000Y-23000000D01*
X1950000Y-22000000D02*
X1050000Y-22000000D01*
X2050000Y-21000000D02*
X2050000Y-21900000D01*
X2050000Y-21900000D02*
X1950000Y-22000000D01*
X2250000Y-19450000D02*
X2250000Y-20800000D01*
X2250000Y-20800000D02*
X2050000Y-21000000D01*
X1750000Y-19450000D02*
X1750000Y-20700000D01*
X1750000Y-20700000D02*
X2050000Y-21000000D01*
X22050000Y-3000000D02*
X22950000Y-3000000D01*
X22950000Y-3000000D02*
X23000000Y-2950000D01*
X22050000Y-3000000D02*
X23000000Y-2050000D01*
X22050000Y-3000000D02*
X22050000Y-2100000D01*
X22050000Y-2100000D02*
X22000000Y-2050000D01*
X19450000Y-3250000D02*
X20150000Y-3250000D01*
X21450000Y-3600000D02*
X22050000Y-3000000D01*
X20500000Y-3600000D02*
X21450000Y-3600000D01*
X20150000Y-3250000D02*
X20500000Y-3600000D01*
X22000000Y1950000D02*
X22000000Y1050000D01*
X22000000Y1950000D02*
X22100000Y1950000D01*
X22100000Y1950000D02*
X23000000Y1050000D01*
X22000000Y1950000D02*
X23000000Y1950000D01*
X21000000Y2050000D02*
X21900000Y2050000D01*
X21900000Y2050000D02*
X22000000Y1950000D01*
X19450000Y2250000D02*
X20800000Y2250000D01*
X20800000Y2250000D02*
X21000000Y2050000D01*
X19450000Y1750000D02*
X20700000Y1750000D01*
X20700000Y1750000D02*
X21000000Y2050000D01*
X2950000Y-1350000D02*
X2950000Y-2450000D01*
X2950000Y-2450000D02*
X3000000Y-2500000D01*
X6000000Y2550000D02*
X6000000Y2500000D01*
X6000000Y2500000D02*
X5000000Y1500000D01*
X2550000Y-6000000D02*
X2500000Y-6000000D01*
X2500000Y-6000000D02*
X1500000Y-5000000D01*
X-6000000Y-2550000D02*
X-6000000Y-2500000D01*
X-6000000Y-2500000D02*
X-5000000Y-1500000D01*
X-2550000Y6000000D02*
X-2500000Y6000000D01*
X-2500000Y6000000D02*
X-1500000Y5000000D01*
X-1250000Y10550000D02*
X-1250000Y8300000D01*
X-1250000Y8300000D02*
X-2550000Y7000000D01*
X-10550000Y-1250000D02*
X-8300000Y-1250000D01*
X-8300000Y-1250000D02*
X-7000000Y-2550000D01*
X1250000Y-10550000D02*
X1250000Y-8300000D01*
X1250000Y-8300000D02*
X2550000Y-7000000D01*
X10550000Y1250000D02*
X8300000Y1250000D01*
X8300000Y1250000D02*
X7000000Y2550000D01*
X6000000Y550000D02*
X7000000Y550000D01*
X6000000Y2550000D02*
X5400000Y1950000D01*
X5400000Y1000000D02*
X5850000Y550000D01*
X5400000Y1950000D02*
X5400000Y1000000D01*
X5850000Y550000D02*
X6000000Y550000D01*
X2550000Y-6000000D02*
X1950000Y-5400000D01*
X1000000Y-5400000D02*
X550000Y-5850000D01*
X1950000Y-5400000D02*
X1000000Y-5400000D01*
X550000Y-5850000D02*
X550000Y-6000000D01*
X-5400000Y-1450000D02*
X-5400000Y-1000000D01*
X-5400000Y-1950000D02*
X-5400000Y-1450000D01*
X-6000000Y-2550000D02*
X-5400000Y-1950000D01*
X-5400000Y-1000000D02*
X-5850000Y-550000D01*
X-5850000Y-550000D02*
X-6000000Y-550000D01*
X7000000Y2550000D02*
X6000000Y2550000D01*
X550000Y-6000000D02*
X550000Y-7000000D01*
X2550000Y-7000000D02*
X2550000Y-6000000D01*
X-7000000Y-550000D02*
X-6000000Y-550000D01*
X-7000000Y-2550000D02*
X-6000000Y-2550000D01*
X-550000Y6000000D02*
X-550000Y7000000D01*
X-2550000Y6000000D02*
X-1950000Y5400000D01*
X-950000Y5400000D02*
X-550000Y5800000D01*
X-1950000Y5400000D02*
X-950000Y5400000D01*
X-550000Y5800000D02*
X-550000Y6000000D01*
X-2550000Y7000000D02*
X-2550000Y6000000D01*
X3250000Y19450000D02*
X3250000Y20150000D01*
X3600000Y21450000D02*
X3000000Y22050000D01*
X3600000Y20500000D02*
X3600000Y21450000D01*
X3250000Y20150000D02*
X3600000Y20500000D01*
X3000000Y22050000D02*
X3000000Y22950000D01*
X3000000Y22950000D02*
X2950000Y23000000D01*
X3000000Y22050000D02*
X2050000Y23000000D01*
X3000000Y22050000D02*
X2100000Y22050000D01*
X2100000Y22050000D02*
X2050000Y22000000D01*
X-1950000Y22000000D02*
X-1050000Y22000000D01*
X-1950000Y22000000D02*
X-1950000Y22100000D01*
X-1950000Y22100000D02*
X-1050000Y23000000D01*
X-1950000Y22000000D02*
X-1950000Y23000000D01*
X-2050000Y21000000D02*
X-2050000Y21900000D01*
X-2050000Y21900000D02*
X-1950000Y22000000D01*
X-2250000Y19450000D02*
X-2250000Y20800000D01*
X-2250000Y20800000D02*
X-2050000Y21000000D01*
X-1750000Y19450000D02*
X-1750000Y20700000D01*
X-1750000Y20700000D02*
X-2050000Y21000000D01*
X-3250000Y-10550000D02*
X-3250000Y-11750000D01*
X-3250000Y-11750000D02*
X-2756250Y-12243750D01*
X-250000Y-19450000D02*
X-250000Y-18425000D01*
X-250000Y-18425000D02*
X-918750Y-17756250D01*
X-10550000Y3250000D02*
X-11750000Y3250000D01*
X-11750000Y3250000D02*
X-12243750Y2756250D01*
X-19450000Y250000D02*
X-18425000Y250000D01*
X-18425000Y250000D02*
X-17756250Y918750D01*
X3250000Y10550000D02*
X3250000Y11750000D01*
X3250000Y11750000D02*
X2756250Y12243750D01*
X250000Y19450000D02*
X250000Y18425000D01*
X250000Y18425000D02*
X918750Y17756250D01*
X10550000Y-3250000D02*
X11750000Y-3250000D01*
X11750000Y-3250000D02*
X12243750Y-2756250D01*
X19450000Y-250000D02*
X18425000Y-250000D01*
X18425000Y-250000D02*
X17756250Y-918750D01*
X1250000Y-19450000D02*
X1250000Y-20700000D01*
X1250000Y-20700000D02*
X950000Y-21000000D01*
X-3750000Y-19450000D02*
X-3750000Y-20000000D01*
X-4050000Y-20300000D02*
X-4050000Y-23000000D01*
X-3750000Y-20000000D02*
X-4050000Y-20300000D01*
X-10550000Y-750000D02*
X-7950000Y-750000D01*
X-7950000Y-750000D02*
X-7250000Y-1450000D01*
X-7250000Y-1450000D02*
X-7000000Y-1450000D01*
X-7000000Y-1450000D02*
X-6000000Y-1450000D01*
X-19450000Y2750000D02*
X-20700000Y2750000D01*
X-20700000Y2750000D02*
X-20950000Y3000000D01*
X-19450000Y-1250000D02*
X-20700000Y-1250000D01*
X-20700000Y-1250000D02*
X-21000000Y-950000D01*
X-19450000Y3750000D02*
X-20000000Y3750000D01*
X-20300000Y4050000D02*
X-23000000Y4050000D01*
X-20000000Y3750000D02*
X-20300000Y4050000D01*
X-750000Y10550000D02*
X-750000Y8000000D01*
X-1450000Y7300000D02*
X-1450000Y7000000D01*
X-750000Y8000000D02*
X-1450000Y7300000D01*
X-1450000Y7000000D02*
X-1450000Y6000000D01*
X-1250000Y7200000D02*
X-1450000Y7000000D01*
X2750000Y19450000D02*
X2750000Y20700000D01*
X2750000Y20700000D02*
X3000000Y20950000D01*
X-1250000Y19450000D02*
X-1250000Y20700000D01*
X-1250000Y20700000D02*
X-950000Y21000000D01*
X3750000Y19450000D02*
X3750000Y20000000D01*
X4050000Y20300000D02*
X4050000Y23000000D01*
X3750000Y20000000D02*
X4050000Y20300000D01*
X10550000Y750000D02*
X8000000Y750000D01*
X7300000Y1450000D02*
X7000000Y1450000D01*
X8000000Y750000D02*
X7300000Y1450000D01*
X7000000Y1450000D02*
X6000000Y1450000D01*
X19450000Y-2750000D02*
X20700000Y-2750000D01*
X20700000Y-2750000D02*
X20950000Y-3000000D01*
X19450000Y1250000D02*
X20700000Y1250000D01*
X20700000Y1250000D02*
X21000000Y950000D01*
X19450000Y-3750000D02*
X20000000Y-3750000D01*
X20300000Y-4050000D02*
X23000000Y-4050000D01*
X20000000Y-3750000D02*
X20300000Y-4050000D01*
X-3900000Y-6050000D02*
X-2750000Y-6050000D01*
X-9800000Y-3250000D02*
X-7000000Y-6050000D01*
X-7000000Y-6050000D02*
X-3900000Y-6050000D01*
X-10550000Y-3250000D02*
X-9800000Y-3250000D01*
X-4750000Y-5300000D02*
X-4400000Y-5300000D01*
X-9650000Y-2750000D02*
X-7100000Y-5300000D01*
X-7100000Y-5300000D02*
X-4750000Y-5300000D01*
X-10550000Y-2750000D02*
X-9650000Y-2750000D01*
X-10550000Y-1750000D02*
X-8850000Y-1750000D01*
X-8850000Y-1750000D02*
X-6850000Y-3750000D01*
X-10550000Y-2250000D02*
X-9250000Y-2250000D01*
X-9250000Y-2250000D02*
X-6850000Y-4650000D01*
X-3250000Y10550000D02*
X-3250000Y9850000D01*
X-5650000Y6100000D02*
X-4200000Y4650000D01*
X-5650000Y7450000D02*
X-5650000Y6100000D01*
X-3250000Y9850000D02*
X-5650000Y7450000D01*
X-2750000Y10550000D02*
X-2750000Y9700000D01*
X-4200000Y5700000D02*
X-4200000Y5550000D01*
X-5200000Y6700000D02*
X-4200000Y5700000D01*
X-5200000Y7250000D02*
X-5200000Y6700000D01*
X-2750000Y9700000D02*
X-5200000Y7250000D01*
X-1750000Y10550000D02*
X-1750000Y8900000D01*
X-1750000Y8900000D02*
X-3700000Y6950000D01*
X-2250000Y10550000D02*
X-2250000Y9300000D01*
X-2250000Y9300000D02*
X-4550000Y7000000D01*
X4450000Y-18750000D02*
X5700000Y-20000000D01*
X6800000Y-22850000D02*
X8100000Y-22850000D01*
X5700000Y-21750000D02*
X6800000Y-22850000D01*
X5700000Y-20000000D02*
X5700000Y-21750000D01*
X4450000Y-18250000D02*
X5000000Y-18250000D01*
X6550000Y-21950000D02*
X8100000Y-21950000D01*
X6150000Y-21550000D02*
X6550000Y-21950000D01*
X6150000Y-19550000D02*
X6150000Y-21550000D01*
X5500000Y-18900000D02*
X6150000Y-19550000D01*
X5500000Y-18750000D02*
X5500000Y-18900000D01*
X5000000Y-18250000D02*
X5500000Y-18750000D01*
X4450000Y-17750000D02*
X5150000Y-17750000D01*
X6800000Y-19550000D02*
X6800000Y-21300000D01*
X5950000Y-18700000D02*
X6800000Y-19550000D01*
X5950000Y-18550000D02*
X5950000Y-18700000D01*
X5150000Y-17750000D02*
X5950000Y-18550000D01*
X6400000Y-18500000D02*
X7600000Y-19700000D01*
X7600000Y-19700000D02*
X7600000Y-21300000D01*
X4450000Y-17250000D02*
X5300000Y-17250000D01*
X6400000Y-18350000D02*
X6400000Y-18500000D01*
X5300000Y-17250000D02*
X6400000Y-18350000D01*
X4450000Y-14750000D02*
X6150000Y-14750000D01*
X6150000Y-14750000D02*
X6600000Y-14300000D01*
X6600000Y-14300000D02*
X7600000Y-14300000D01*
X7600000Y-14300000D02*
X7750000Y-14150000D01*
X6600000Y-14300000D02*
X7650000Y-14300000D01*
X6400000Y-13850000D02*
X6900000Y-13850000D01*
X7400000Y-13350000D02*
X7950000Y-13350000D01*
X6900000Y-13850000D02*
X7400000Y-13350000D01*
X6000000Y-14250000D02*
X6400000Y-13850000D01*
X4450000Y-14250000D02*
X6000000Y-14250000D01*
X4450000Y-13750000D02*
X5850000Y-13750000D01*
X6400000Y-13200000D02*
X6650000Y-13200000D01*
X5850000Y-13750000D02*
X6400000Y-13200000D01*
X6550000Y-12400000D02*
X6850000Y-12400000D01*
X5700000Y-13250000D02*
X6550000Y-12400000D01*
X4450000Y-13250000D02*
X5700000Y-13250000D01*
X-4450000Y-13250000D02*
X-5700000Y-13250000D01*
X-7200000Y-11750000D02*
X-7450000Y-11750000D01*
X-5700000Y-13250000D02*
X-7200000Y-11750000D01*
X-4450000Y-13750000D02*
X-5850000Y-13750000D01*
X-7050000Y-12550000D02*
X-7300000Y-12550000D01*
X-5850000Y-13750000D02*
X-7050000Y-12550000D01*
X-4450000Y-14250000D02*
X-6000000Y-14250000D01*
X-6900000Y-13350000D02*
X-7150000Y-13350000D01*
X-6000000Y-14250000D02*
X-6900000Y-13350000D01*
X-6150000Y-14750000D02*
X-6750000Y-14150000D01*
X-6750000Y-14150000D02*
X-7000000Y-14150000D01*
X-4450000Y-14750000D02*
X-6150000Y-14750000D01*
X-4450000Y-17250000D02*
X-5350000Y-17250000D01*
X-6250000Y-21900000D02*
X-4900000Y-23250000D01*
X-6250000Y-18150000D02*
X-6250000Y-21900000D01*
X-5350000Y-17250000D02*
X-6250000Y-18150000D01*
X-4450000Y-17750000D02*
X-5200000Y-17750000D01*
X-5800000Y-21400000D02*
X-4850000Y-22350000D01*
X-5800000Y-18350000D02*
X-5800000Y-21400000D01*
X-5200000Y-17750000D02*
X-5800000Y-18350000D01*
X-4450000Y-18250000D02*
X-5050000Y-18250000D01*
X-5350000Y-20900000D02*
X-4700000Y-21550000D01*
X-5350000Y-18550000D02*
X-5350000Y-20900000D01*
X-5050000Y-18250000D02*
X-5350000Y-18550000D01*
X-4450000Y-18750000D02*
X-4450000Y-20050000D01*
X-4700000Y-20300000D02*
X-4700000Y-20650000D01*
X-4450000Y-20050000D02*
X-4700000Y-20300000D01*
X-18750000Y-4450000D02*
X-18750000Y-4700000D01*
X-18750000Y-4700000D02*
X-19700000Y-5650000D01*
X-19700000Y-5650000D02*
X-21850000Y-5650000D01*
X-22900000Y-6700000D02*
X-22900000Y-8050000D01*
X-21850000Y-5650000D02*
X-22900000Y-6700000D01*
X-18250000Y-4450000D02*
X-18250000Y-5000000D01*
X-22000000Y-6450000D02*
X-22000000Y-8050000D01*
X-21650000Y-6100000D02*
X-22000000Y-6450000D01*
X-19500000Y-6100000D02*
X-21650000Y-6100000D01*
X-18600000Y-5200000D02*
X-19500000Y-6100000D01*
X-18450000Y-5200000D02*
X-18600000Y-5200000D01*
X-18250000Y-5000000D02*
X-18450000Y-5200000D01*
X-17750000Y-4450000D02*
X-17750000Y-5150000D01*
X-19500000Y-6750000D02*
X-21350000Y-6750000D01*
X-18400000Y-5650000D02*
X-19500000Y-6750000D01*
X-18250000Y-5650000D02*
X-18400000Y-5650000D01*
X-17750000Y-5150000D02*
X-18250000Y-5650000D01*
X-18200000Y-6100000D02*
X-19650000Y-7550000D01*
X-19650000Y-7550000D02*
X-21350000Y-7550000D01*
X-17250000Y-4450000D02*
X-17250000Y-5300000D01*
X-17250000Y-5300000D02*
X-18050000Y-6100000D01*
X-18050000Y-6100000D02*
X-18200000Y-6100000D01*
X-14750000Y-4450000D02*
X-14750000Y-6150000D01*
X-14750000Y-6150000D02*
X-14300000Y-6600000D01*
X-14300000Y-6600000D02*
X-14300000Y-7550000D01*
X-14300000Y-7550000D02*
X-14150000Y-7700000D01*
X-13350000Y-7350000D02*
X-13350000Y-7900000D01*
X-13850000Y-6350000D02*
X-13850000Y-6850000D01*
X-13850000Y-6850000D02*
X-13350000Y-7350000D01*
X-14250000Y-4450000D02*
X-14250000Y-5950000D01*
X-14250000Y-5950000D02*
X-13850000Y-6350000D01*
X-13750000Y-4450000D02*
X-13750000Y-5750000D01*
X-13400000Y-6400000D02*
X-13200000Y-6600000D01*
X-13400000Y-6100000D02*
X-13400000Y-6400000D01*
X-13750000Y-5750000D02*
X-13400000Y-6100000D01*
X-12400000Y-6450000D02*
X-12400000Y-6700000D01*
X-13250000Y-5600000D02*
X-12400000Y-6450000D01*
X-13250000Y-4450000D02*
X-13250000Y-5600000D01*
X-11900000Y7050000D02*
X-11750000Y7200000D01*
X-11750000Y7200000D02*
X-11750000Y7400000D01*
X-13250000Y4450000D02*
X-13250000Y5700000D01*
X-13250000Y5700000D02*
X-11900000Y7050000D01*
X-13750000Y4450000D02*
X-13750000Y5850000D01*
X-12550000Y7050000D02*
X-12550000Y7300000D01*
X-13750000Y5850000D02*
X-12550000Y7050000D01*
X-14250000Y4450000D02*
X-14250000Y6000000D01*
X-13350000Y6900000D02*
X-13350000Y7150000D01*
X-14250000Y6000000D02*
X-13350000Y6900000D01*
X-14750000Y6150000D02*
X-14150000Y6750000D01*
X-14150000Y6750000D02*
X-14150000Y7000000D01*
X-14750000Y4450000D02*
X-14750000Y6150000D01*
X-17250000Y4450000D02*
X-17250000Y5350000D01*
X-21800000Y6250000D02*
X-23150000Y4900000D01*
X-18150000Y6250000D02*
X-21800000Y6250000D01*
X-17250000Y5350000D02*
X-18150000Y6250000D01*
X-17750000Y4450000D02*
X-17750000Y5150000D01*
X-21400000Y5800000D02*
X-22350000Y4850000D01*
X-18400000Y5800000D02*
X-21400000Y5800000D01*
X-17750000Y5150000D02*
X-18400000Y5800000D01*
X-18250000Y4450000D02*
X-18250000Y5000000D01*
X-20900000Y5350000D02*
X-21550000Y4700000D01*
X-18600000Y5350000D02*
X-20900000Y5350000D01*
X-18250000Y5000000D02*
X-18600000Y5350000D01*
X-18750000Y4450000D02*
X-20050000Y4450000D01*
X-20300000Y4700000D02*
X-20700000Y4700000D01*
X-20050000Y4450000D02*
X-20300000Y4700000D01*
X-4450000Y18750000D02*
X-4700000Y18750000D01*
X-4700000Y18750000D02*
X-5650000Y19700000D01*
X-5650000Y19700000D02*
X-5650000Y21800000D01*
X-6750000Y22900000D02*
X-8050000Y22900000D01*
X-5650000Y21800000D02*
X-6750000Y22900000D01*
X-5500000Y18750000D02*
X-5500000Y18900000D01*
X-6100000Y19500000D02*
X-6100000Y21600000D01*
X-5500000Y18900000D02*
X-6100000Y19500000D01*
X-4450000Y18250000D02*
X-5000000Y18250000D01*
X-6500000Y22000000D02*
X-8050000Y22000000D01*
X-6100000Y21600000D02*
X-6500000Y22000000D01*
X-5000000Y18250000D02*
X-5500000Y18750000D01*
X-5950000Y18550000D02*
X-5950000Y18700000D01*
X-6750000Y19500000D02*
X-6750000Y21350000D01*
X-5950000Y18700000D02*
X-6750000Y19500000D01*
X-4450000Y17750000D02*
X-5150000Y17750000D01*
X-5150000Y17750000D02*
X-5950000Y18550000D01*
X-6400000Y18350000D02*
X-6400000Y18500000D01*
X-7600000Y19700000D02*
X-7600000Y21300000D01*
X-6400000Y18500000D02*
X-7600000Y19700000D01*
X-4450000Y17250000D02*
X-5300000Y17250000D01*
X-5300000Y17250000D02*
X-6400000Y18350000D01*
X-7600000Y14300000D02*
X-7450000Y14300000D01*
X-6150000Y14750000D02*
X-6600000Y14300000D01*
X-6600000Y14300000D02*
X-7450000Y14300000D01*
X-6150000Y14750000D02*
X-4450000Y14750000D01*
X-7600000Y14300000D02*
X-7800000Y14100000D01*
X-6950000Y13850000D02*
X-7500000Y13300000D01*
X-7500000Y13300000D02*
X-8000000Y13300000D01*
X-6400000Y13850000D02*
X-6950000Y13850000D01*
X-6000000Y14250000D02*
X-6400000Y13850000D01*
X-4450000Y14250000D02*
X-6000000Y14250000D01*
X-4450000Y13750000D02*
X-5850000Y13750000D01*
X-6500000Y13400000D02*
X-6700000Y13200000D01*
X-6200000Y13400000D02*
X-6500000Y13400000D01*
X-5850000Y13750000D02*
X-6200000Y13400000D01*
X-6750000Y12550000D02*
X-6900000Y12400000D01*
X-6400000Y12550000D02*
X-6750000Y12550000D01*
X-5700000Y13250000D02*
X-6400000Y12550000D01*
X-4450000Y13250000D02*
X-5700000Y13250000D01*
X4450000Y13250000D02*
X5700000Y13250000D01*
X7200000Y11750000D02*
X7450000Y11750000D01*
X5700000Y13250000D02*
X7200000Y11750000D01*
X5850000Y13750000D02*
X7050000Y12550000D01*
X7050000Y12550000D02*
X7300000Y12550000D01*
X4450000Y13750000D02*
X5850000Y13750000D01*
X6000000Y14250000D02*
X6900000Y13350000D01*
X6900000Y13350000D02*
X7150000Y13350000D01*
X4450000Y14250000D02*
X6000000Y14250000D01*
X4450000Y14750000D02*
X6150000Y14750000D01*
X6750000Y14150000D02*
X7000000Y14150000D01*
X6150000Y14750000D02*
X6750000Y14150000D01*
X4450000Y17250000D02*
X5300000Y17250000D01*
X6250000Y22250000D02*
X4850000Y23650000D01*
X6250000Y18200000D02*
X6250000Y22250000D01*
X5300000Y17250000D02*
X6250000Y18200000D01*
X4450000Y17750000D02*
X5150000Y17750000D01*
X4850000Y22700000D02*
X4850000Y22750000D01*
X5800000Y21750000D02*
X4850000Y22700000D01*
X5800000Y18400000D02*
X5800000Y21750000D01*
X5150000Y17750000D02*
X5800000Y18400000D01*
X5000000Y18250000D02*
X5350000Y18600000D01*
X5350000Y18600000D02*
X5350000Y21300000D01*
X5350000Y21300000D02*
X4700000Y21950000D01*
X4450000Y18250000D02*
X5000000Y18250000D01*
X4450000Y18750000D02*
X4450000Y20050000D01*
X4700000Y20300000D02*
X4700000Y21050000D01*
X4450000Y20050000D02*
X4700000Y20300000D01*
X18750000Y4450000D02*
X18750000Y4700000D01*
X18750000Y4700000D02*
X19700000Y5650000D01*
X19700000Y5650000D02*
X21800000Y5650000D01*
X22900000Y6750000D02*
X22900000Y8050000D01*
X21800000Y5650000D02*
X22900000Y6750000D01*
X18750000Y5500000D02*
X18900000Y5500000D01*
X19500000Y6100000D02*
X21600000Y6100000D01*
X18900000Y5500000D02*
X19500000Y6100000D01*
X18250000Y4450000D02*
X18250000Y5000000D01*
X22000000Y6500000D02*
X22000000Y8050000D01*
X21600000Y6100000D02*
X22000000Y6500000D01*
X18250000Y5000000D02*
X18750000Y5500000D01*
X17750000Y4450000D02*
X17750000Y5150000D01*
X19500000Y6750000D02*
X21350000Y6750000D01*
X18700000Y5950000D02*
X19500000Y6750000D01*
X18550000Y5950000D02*
X18700000Y5950000D01*
X17750000Y5150000D02*
X18550000Y5950000D01*
X18500000Y6400000D02*
X19650000Y7550000D01*
X19650000Y7550000D02*
X21350000Y7550000D01*
X17250000Y4450000D02*
X17250000Y5300000D01*
X18350000Y6400000D02*
X18500000Y6400000D01*
X17250000Y5300000D02*
X18350000Y6400000D01*
X14750000Y4450000D02*
X14750000Y6150000D01*
X14750000Y6150000D02*
X14300000Y6600000D01*
X14300000Y6600000D02*
X14300000Y7650000D01*
X14300000Y7650000D02*
X14150000Y7800000D01*
X13850000Y6950000D02*
X13350000Y7450000D01*
X13350000Y7450000D02*
X13350000Y8000000D01*
X13850000Y6400000D02*
X13850000Y6950000D01*
X14250000Y6000000D02*
X13850000Y6400000D01*
X14250000Y4450000D02*
X14250000Y6000000D01*
X13750000Y4450000D02*
X13750000Y5850000D01*
X13400000Y6500000D02*
X13200000Y6700000D01*
X13400000Y6200000D02*
X13400000Y6500000D01*
X13750000Y5850000D02*
X13400000Y6200000D01*
X12550000Y6400000D02*
X12550000Y7150000D01*
X13250000Y5700000D02*
X12550000Y6400000D01*
X13250000Y4450000D02*
X13250000Y5700000D01*
X13250000Y-4450000D02*
X13250000Y-5700000D01*
X11750000Y-7200000D02*
X11750000Y-7450000D01*
X13250000Y-5700000D02*
X11750000Y-7200000D01*
X13750000Y-4450000D02*
X13750000Y-5850000D01*
X12550000Y-7050000D02*
X12550000Y-7300000D01*
X13750000Y-5850000D02*
X12550000Y-7050000D01*
X14250000Y-4450000D02*
X14250000Y-6000000D01*
X13350000Y-6900000D02*
X13350000Y-7150000D01*
X14250000Y-6000000D02*
X13350000Y-6900000D01*
X14750000Y-4450000D02*
X14750000Y-6150000D01*
X14150000Y-6750000D02*
X14150000Y-7000000D01*
X14750000Y-6150000D02*
X14150000Y-6750000D01*
X17250000Y-4450000D02*
X17250000Y-5350000D01*
X22000000Y-6250000D02*
X23350000Y-4900000D01*
X18150000Y-6250000D02*
X22000000Y-6250000D01*
X17250000Y-5350000D02*
X18150000Y-6250000D01*
X17750000Y-4450000D02*
X17750000Y-5200000D01*
X21550000Y-5800000D02*
X22450000Y-4900000D01*
X18350000Y-5800000D02*
X21550000Y-5800000D01*
X17750000Y-5200000D02*
X18350000Y-5800000D01*
X18250000Y-4450000D02*
X18250000Y-5050000D01*
X21000000Y-5350000D02*
X21650000Y-4700000D01*
X18550000Y-5350000D02*
X21000000Y-5350000D01*
X18250000Y-5050000D02*
X18550000Y-5350000D01*
X18750000Y-4450000D02*
X20050000Y-4450000D01*
X20300000Y-4700000D02*
X20700000Y-4700000D01*
X20050000Y-4450000D02*
X20300000Y-4700000D01*
X-8800000Y-12150000D02*
X-8100000Y-12850000D01*
X-8100000Y-12850000D02*
X-8100000Y-14850000D01*
X-8100000Y-14850000D02*
X-8000000Y-14950000D01*
X9898025Y-12901975D02*
X8401975Y-12901975D01*
X8401975Y-12901975D02*
X7950000Y-12450000D01*
X8000000Y-14800000D02*
X9898025Y-12901975D01*
X9898025Y-12901975D02*
X9898025Y-9000000D01*
X8000000Y-14950000D02*
X8000000Y-14800000D01*
X9898025Y-9000000D02*
X9334824Y-8436799D01*
X-8000000Y-14950000D02*
X-8100000Y-14850000D01*
X-7000000Y-14950000D02*
X-8000000Y-14950000D01*
X-4450000Y-15250000D02*
X-6700000Y-15250000D01*
X-6700000Y-15250000D02*
X-7000000Y-14950000D01*
X7000000Y-14950000D02*
X8000000Y-14950000D01*
X4450000Y-15250000D02*
X6700000Y-15250000D01*
X6700000Y-15250000D02*
X7000000Y-14950000D01*
X9334824Y-8436799D02*
X9788025Y-8890000D01*
X9898025Y-9000000D02*
X9334824Y-8436799D01*
X-12450000Y-10000000D02*
X-12450000Y-7700000D01*
X-13350000Y8100000D02*
X-12450000Y9000000D01*
X-13350000Y8100000D02*
X-14850000Y8100000D01*
X-14950000Y-8000000D02*
X-14750000Y-8000000D01*
X-14750000Y-8000000D02*
X-12750000Y-10000000D01*
X-9101975Y-10000000D02*
X-8436799Y-9334824D01*
X-12750000Y-10000000D02*
X-12450000Y-10000000D01*
X-12450000Y-10000000D02*
X-9101975Y-10000000D01*
X-14950000Y8000000D02*
X-14850000Y8100000D01*
X-14950000Y7000000D02*
X-14950000Y8000000D01*
X-15250000Y4450000D02*
X-15250000Y6700000D01*
X-15250000Y6700000D02*
X-14950000Y7000000D01*
X-14950000Y-7000000D02*
X-14950000Y-8000000D01*
X-15250000Y-4450000D02*
X-15250000Y-6700000D01*
X-15250000Y-6700000D02*
X-14950000Y-7000000D01*
X13153201Y12255176D02*
X13898025Y13000000D01*
X13898025Y13000000D02*
X16500000Y13000000D01*
X-12255176Y13153201D02*
X-13101975Y14000000D01*
X-13101975Y14000000D02*
X-15500000Y14000000D01*
X13358201Y12460176D02*
X13898025Y13000000D01*
X12255176Y-13153201D02*
X12601975Y-13500000D01*
X12601975Y-13500000D02*
X15000000Y-13500000D01*
X-9950000Y12450000D02*
X-7900000Y12450000D01*
X8100000Y13350000D02*
X9050000Y12400000D01*
X8100000Y13350000D02*
X8100000Y14850000D01*
X-8000000Y14950000D02*
X-8000000Y14800000D01*
X-8000000Y14800000D02*
X-9950000Y12850000D01*
X-9950000Y9051975D02*
X-9334824Y8436799D01*
X-9950000Y12850000D02*
X-9950000Y12450000D01*
X-9950000Y12450000D02*
X-9950000Y9051975D01*
X8000000Y14950000D02*
X8100000Y14850000D01*
X-7000000Y14950000D02*
X-8000000Y14950000D01*
X-4450000Y15250000D02*
X-6700000Y15250000D01*
X-6700000Y15250000D02*
X-7000000Y14950000D01*
X7000000Y14950000D02*
X8000000Y14950000D01*
X4450000Y15250000D02*
X6700000Y15250000D01*
X6700000Y15250000D02*
X7000000Y14950000D01*
X-9334824Y8436799D02*
X-9788025Y8890000D01*
X12500000Y9900000D02*
X12500000Y8000000D01*
X13300000Y-8100000D02*
X12400000Y-9000000D01*
X13300000Y-8100000D02*
X14850000Y-8100000D01*
X14950000Y8000000D02*
X14900000Y8000000D01*
X14900000Y8000000D02*
X13000000Y9900000D01*
X9001975Y9900000D02*
X8436799Y9334824D01*
X13000000Y9900000D02*
X12500000Y9900000D01*
X12500000Y9900000D02*
X9001975Y9900000D01*
X14950000Y-8000000D02*
X14850000Y-8100000D01*
X14950000Y-7000000D02*
X14950000Y-8000000D01*
X15250000Y-4450000D02*
X15250000Y-6700000D01*
X15250000Y-6700000D02*
X14950000Y-7000000D01*
X14950000Y7000000D02*
X14950000Y8000000D01*
X15250000Y4450000D02*
X15250000Y6700000D01*
X15250000Y6700000D02*
X14950000Y7000000D01*
X-22225000Y-23142966D02*
X-22225000Y-23495000D01*
X-21296134Y-22214100D02*
X-22225000Y-23142966D01*
X-27305000Y-16436554D02*
X-27199033Y-16330587D01*
X-22674993Y-20835242D02*
X-22674993Y-20769993D01*
X-22674993Y-20835242D02*
X-23429751Y-21590000D01*
X-23429751Y-21590000D02*
X-24130000Y-21590000D01*
X-29210000Y-18341554D02*
X-28754413Y-17885967D01*
X-28648446Y-17780000D02*
X-28754413Y-17885967D01*
X-27305000Y-19685000D02*
X-27410967Y-19229413D01*
M02*
