%FSLAX45Y45*%
G04 Gerber Fmt 4.5, Leading zero omitted, Abs format (unit mm)*
G04 Created by KiCad (PCBNEW 4.0.6-e0-6349~53~ubuntu14.04.1) date Fri Mar 31 03:17:48 2017*
%MOMM*%
%LPD*%
G01*
G04 APERTURE LIST*
%ADD10C,0.127000*%
%ADD11C,0.001000*%
%ADD12C,0.200000*%
%ADD13C,0.300000*%
G04 APERTURE END LIST*
D10*
D11*
X-1449746Y3499746D02*
X-3499746Y1449746D01*
X1450000Y3499746D02*
X-1450000Y3499746D01*
X1449746Y-3499746D02*
X3499746Y-1449746D01*
X-1450000Y-3499746D02*
X1450000Y-3499746D01*
X-3499746Y-1449746D02*
X-1449746Y-3499746D01*
X-3499746Y1450000D02*
X-3499746Y-1450000D01*
X3499746Y1449746D02*
X1449746Y3499746D01*
X3499746Y-1450000D02*
X3499746Y1450000D01*
D12*
X-1621983Y-3065983D02*
X-1541983Y-3145983D01*
X-1541983Y-3065983D02*
X-1621983Y-3145983D01*
X2690500Y2008500D02*
X2770500Y1928500D01*
X2770500Y2008500D02*
X2690500Y1928500D01*
X3065983Y1621983D02*
X3145983Y1541983D01*
X3145983Y1621983D02*
X3065983Y1541983D01*
D13*
X-3228367Y-3965510D02*
X-3228367Y-3665510D01*
X-3156939Y-3665510D01*
X-3114082Y-3679796D01*
X-3085510Y-3708367D01*
X-3071225Y-3736939D01*
X-3056939Y-3794082D01*
X-3056939Y-3836939D01*
X-3071225Y-3894082D01*
X-3085510Y-3922653D01*
X-3114082Y-3951225D01*
X-3156939Y-3965510D01*
X-3228367Y-3965510D01*
X-2928367Y-3965510D02*
X-2928367Y-3765510D01*
X-2928367Y-3822653D02*
X-2914082Y-3794082D01*
X-2899796Y-3779796D01*
X-2871225Y-3765510D01*
X-2842653Y-3765510D01*
X-2742653Y-3965510D02*
X-2742653Y-3765510D01*
X-2742653Y-3665510D02*
X-2756939Y-3679796D01*
X-2742653Y-3694082D01*
X-2728368Y-3679796D01*
X-2742653Y-3665510D01*
X-2742653Y-3694082D01*
X-2556939Y-3965510D02*
X-2585510Y-3951225D01*
X-2599796Y-3922653D01*
X-2599796Y-3665510D01*
X-2399796Y-3965510D02*
X-2428368Y-3951225D01*
X-2442653Y-3922653D01*
X-2442653Y-3665510D01*
X-2056939Y-3965510D02*
X-2056939Y-3665510D01*
X-1956939Y-3879796D01*
X-1856939Y-3665510D01*
X-1856939Y-3965510D01*
X-1585510Y-3965510D02*
X-1585510Y-3808367D01*
X-1599796Y-3779796D01*
X-1628367Y-3765510D01*
X-1685510Y-3765510D01*
X-1714082Y-3779796D01*
X-1585510Y-3951225D02*
X-1614082Y-3965510D01*
X-1685510Y-3965510D01*
X-1714082Y-3951225D01*
X-1728367Y-3922653D01*
X-1728367Y-3894082D01*
X-1714082Y-3865510D01*
X-1685510Y-3851225D01*
X-1614082Y-3851225D01*
X-1585510Y-3836939D01*
X-1442653Y-3765510D02*
X-1442653Y-4065510D01*
X-1442653Y-3779796D02*
X-1414082Y-3765510D01*
X-1356939Y-3765510D01*
X-1328368Y-3779796D01*
X-1314082Y-3794082D01*
X-1299796Y-3822653D01*
X-1299796Y-3908367D01*
X-1314082Y-3936939D01*
X-1328368Y-3951225D01*
X-1356939Y-3965510D01*
X-1414082Y-3965510D01*
X-1442653Y-3951225D01*
X-1171225Y-3936939D02*
X-1156939Y-3951225D01*
X-1171225Y-3965510D01*
X-1185510Y-3951225D01*
X-1171225Y-3936939D01*
X-1171225Y-3965510D01*
X-1171225Y-3779796D02*
X-1156939Y-3794082D01*
X-1171225Y-3808367D01*
X-1185510Y-3794082D01*
X-1171225Y-3779796D01*
X-1171225Y-3808367D01*
X-3579796Y-4419796D02*
X-3499796Y-4499796D01*
X-3499796Y-4419796D02*
X-3579796Y-4499796D01*
X-3171225Y-4295510D02*
X-3142653Y-4295510D01*
X-3114082Y-4309796D01*
X-3099796Y-4324082D01*
X-3085510Y-4352653D01*
X-3071225Y-4409796D01*
X-3071225Y-4481225D01*
X-3085510Y-4538368D01*
X-3099796Y-4566939D01*
X-3114082Y-4581225D01*
X-3142653Y-4595510D01*
X-3171225Y-4595510D01*
X-3199796Y-4581225D01*
X-3214082Y-4566939D01*
X-3228367Y-4538368D01*
X-3242653Y-4481225D01*
X-3242653Y-4409796D01*
X-3228367Y-4352653D01*
X-3214082Y-4324082D01*
X-3199796Y-4309796D01*
X-3171225Y-4295510D01*
X-2942653Y-4566939D02*
X-2928367Y-4581225D01*
X-2942653Y-4595510D01*
X-2956939Y-4581225D01*
X-2942653Y-4566939D01*
X-2942653Y-4595510D01*
X-2756939Y-4424082D02*
X-2785510Y-4409796D01*
X-2799796Y-4395510D01*
X-2814082Y-4366939D01*
X-2814082Y-4352653D01*
X-2799796Y-4324082D01*
X-2785510Y-4309796D01*
X-2756939Y-4295510D01*
X-2699796Y-4295510D01*
X-2671225Y-4309796D01*
X-2656939Y-4324082D01*
X-2642653Y-4352653D01*
X-2642653Y-4366939D01*
X-2656939Y-4395510D01*
X-2671225Y-4409796D01*
X-2699796Y-4424082D01*
X-2756939Y-4424082D01*
X-2785510Y-4438368D01*
X-2799796Y-4452653D01*
X-2814082Y-4481225D01*
X-2814082Y-4538368D01*
X-2799796Y-4566939D01*
X-2785510Y-4581225D01*
X-2756939Y-4595510D01*
X-2699796Y-4595510D01*
X-2671225Y-4581225D01*
X-2656939Y-4566939D01*
X-2642653Y-4538368D01*
X-2642653Y-4481225D01*
X-2656939Y-4452653D01*
X-2671225Y-4438368D01*
X-2699796Y-4424082D01*
X-2456939Y-4295510D02*
X-2428368Y-4295510D01*
X-2399796Y-4309796D01*
X-2385510Y-4324082D01*
X-2371225Y-4352653D01*
X-2356939Y-4409796D01*
X-2356939Y-4481225D01*
X-2371225Y-4538368D01*
X-2385510Y-4566939D01*
X-2399796Y-4581225D01*
X-2428368Y-4595510D01*
X-2456939Y-4595510D01*
X-2485510Y-4581225D01*
X-2499796Y-4566939D01*
X-2514082Y-4538368D01*
X-2528368Y-4481225D01*
X-2528368Y-4409796D01*
X-2514082Y-4352653D01*
X-2499796Y-4324082D01*
X-2485510Y-4309796D01*
X-2456939Y-4295510D01*
X-2228368Y-4595510D02*
X-2228368Y-4395510D01*
X-2228368Y-4424082D02*
X-2214082Y-4409796D01*
X-2185510Y-4395510D01*
X-2142653Y-4395510D01*
X-2114082Y-4409796D01*
X-2099796Y-4438368D01*
X-2099796Y-4595510D01*
X-2099796Y-4438368D02*
X-2085510Y-4409796D01*
X-2056939Y-4395510D01*
X-2014082Y-4395510D01*
X-1985510Y-4409796D01*
X-1971225Y-4438368D01*
X-1971225Y-4595510D01*
X-1828367Y-4595510D02*
X-1828367Y-4395510D01*
X-1828367Y-4424082D02*
X-1814082Y-4409796D01*
X-1785510Y-4395510D01*
X-1742653Y-4395510D01*
X-1714082Y-4409796D01*
X-1699796Y-4438368D01*
X-1699796Y-4595510D01*
X-1699796Y-4438368D02*
X-1685510Y-4409796D01*
X-1656939Y-4395510D01*
X-1614082Y-4395510D01*
X-1585510Y-4409796D01*
X-1571225Y-4438368D01*
X-1571225Y-4595510D01*
X-985510Y-4281225D02*
X-1242653Y-4666939D01*
X-599796Y-4295510D02*
X-571225Y-4295510D01*
X-542653Y-4309796D01*
X-528368Y-4324082D01*
X-514082Y-4352653D01*
X-499796Y-4409796D01*
X-499796Y-4481225D01*
X-514082Y-4538368D01*
X-528368Y-4566939D01*
X-542653Y-4581225D01*
X-571225Y-4595510D01*
X-599796Y-4595510D01*
X-628368Y-4581225D01*
X-642653Y-4566939D01*
X-656939Y-4538368D01*
X-671225Y-4481225D01*
X-671225Y-4409796D01*
X-656939Y-4352653D01*
X-642653Y-4324082D01*
X-628368Y-4309796D01*
X-599796Y-4295510D01*
X-371225Y-4566939D02*
X-356939Y-4581225D01*
X-371225Y-4595510D01*
X-385510Y-4581225D01*
X-371225Y-4566939D01*
X-371225Y-4595510D01*
X-171225Y-4295510D02*
X-142653Y-4295510D01*
X-114082Y-4309796D01*
X-99796Y-4324082D01*
X-85511Y-4352653D01*
X-71225Y-4409796D01*
X-71225Y-4481225D01*
X-85511Y-4538368D01*
X-99796Y-4566939D01*
X-114082Y-4581225D01*
X-142653Y-4595510D01*
X-171225Y-4595510D01*
X-199796Y-4581225D01*
X-214082Y-4566939D01*
X-228368Y-4538368D01*
X-242653Y-4481225D01*
X-242653Y-4409796D01*
X-228368Y-4352653D01*
X-214082Y-4324082D01*
X-199796Y-4309796D01*
X-171225Y-4295510D01*
X28775Y-4295510D02*
X214489Y-4295510D01*
X114489Y-4409796D01*
X157347Y-4409796D01*
X185918Y-4424082D01*
X200204Y-4438368D01*
X214489Y-4466939D01*
X214489Y-4538368D01*
X200204Y-4566939D01*
X185918Y-4581225D01*
X157347Y-4595510D01*
X71632Y-4595510D01*
X43061Y-4581225D01*
X28775Y-4566939D01*
X500204Y-4595510D02*
X328775Y-4595510D01*
X414489Y-4595510D02*
X414489Y-4295510D01*
X385918Y-4338368D01*
X357347Y-4366939D01*
X328775Y-4381225D01*
X614490Y-4295510D02*
X614490Y-4352653D01*
X728775Y-4295510D02*
X728775Y-4352653D01*
X1171632Y-4709796D02*
X1157347Y-4695510D01*
X1128775Y-4652653D01*
X1114490Y-4624082D01*
X1100204Y-4581225D01*
X1085918Y-4509796D01*
X1085918Y-4452653D01*
X1100204Y-4381225D01*
X1114490Y-4338368D01*
X1128775Y-4309796D01*
X1157347Y-4266939D01*
X1171632Y-4252653D01*
X1257347Y-4295510D02*
X1443061Y-4295510D01*
X1343061Y-4409796D01*
X1385918Y-4409796D01*
X1414489Y-4424082D01*
X1428775Y-4438368D01*
X1443061Y-4466939D01*
X1443061Y-4538368D01*
X1428775Y-4566939D01*
X1414489Y-4581225D01*
X1385918Y-4595510D01*
X1300204Y-4595510D01*
X1271632Y-4581225D01*
X1257347Y-4566939D01*
X1800204Y-4595510D02*
X1800204Y-4295510D01*
X1928775Y-4595510D02*
X1928775Y-4438368D01*
X1914489Y-4409796D01*
X1885918Y-4395510D01*
X1843061Y-4395510D01*
X1814489Y-4409796D01*
X1800204Y-4424082D01*
X2114490Y-4595510D02*
X2085918Y-4581225D01*
X2071632Y-4566939D01*
X2057347Y-4538368D01*
X2057347Y-4452653D01*
X2071632Y-4424082D01*
X2085918Y-4409796D01*
X2114490Y-4395510D01*
X2157347Y-4395510D01*
X2185918Y-4409796D01*
X2200204Y-4424082D01*
X2214490Y-4452653D01*
X2214490Y-4538368D01*
X2200204Y-4566939D01*
X2185918Y-4581225D01*
X2157347Y-4595510D01*
X2114490Y-4595510D01*
X2385918Y-4595510D02*
X2357347Y-4581225D01*
X2343061Y-4552653D01*
X2343061Y-4295510D01*
X2614490Y-4581225D02*
X2585918Y-4595510D01*
X2528775Y-4595510D01*
X2500204Y-4581225D01*
X2485918Y-4552653D01*
X2485918Y-4438368D01*
X2500204Y-4409796D01*
X2528775Y-4395510D01*
X2585918Y-4395510D01*
X2614490Y-4409796D01*
X2628775Y-4438368D01*
X2628775Y-4466939D01*
X2485918Y-4495510D01*
X2743061Y-4581225D02*
X2771633Y-4595510D01*
X2828775Y-4595510D01*
X2857347Y-4581225D01*
X2871632Y-4552653D01*
X2871632Y-4538368D01*
X2857347Y-4509796D01*
X2828775Y-4495510D01*
X2785918Y-4495510D01*
X2757347Y-4481225D01*
X2743061Y-4452653D01*
X2743061Y-4438368D01*
X2757347Y-4409796D01*
X2785918Y-4395510D01*
X2828775Y-4395510D01*
X2857347Y-4409796D01*
X2971632Y-4709796D02*
X2985918Y-4695510D01*
X3014490Y-4652653D01*
X3028775Y-4624082D01*
X3043061Y-4581225D01*
X3057347Y-4509796D01*
X3057347Y-4452653D01*
X3043061Y-4381225D01*
X3028775Y-4338368D01*
X3014490Y-4309796D01*
X2985918Y-4266939D01*
X2971632Y-4252653D01*
X3514490Y-4709796D02*
X3500204Y-4695510D01*
X3471632Y-4652653D01*
X3457347Y-4624082D01*
X3443061Y-4581225D01*
X3428775Y-4509796D01*
X3428775Y-4452653D01*
X3443061Y-4381225D01*
X3457347Y-4338368D01*
X3471632Y-4309796D01*
X3500204Y-4266939D01*
X3514490Y-4252653D01*
X3628775Y-4395510D02*
X3628775Y-4595510D01*
X3628775Y-4424082D02*
X3643061Y-4409796D01*
X3671632Y-4395510D01*
X3714490Y-4395510D01*
X3743061Y-4409796D01*
X3757347Y-4438368D01*
X3757347Y-4595510D01*
X3943061Y-4595510D02*
X3914490Y-4581225D01*
X3900204Y-4566939D01*
X3885918Y-4538368D01*
X3885918Y-4452653D01*
X3900204Y-4424082D01*
X3914490Y-4409796D01*
X3943061Y-4395510D01*
X3985918Y-4395510D01*
X4014490Y-4409796D01*
X4028775Y-4424082D01*
X4043061Y-4452653D01*
X4043061Y-4538368D01*
X4028775Y-4566939D01*
X4014490Y-4581225D01*
X3985918Y-4595510D01*
X3943061Y-4595510D01*
X4128775Y-4395510D02*
X4243061Y-4395510D01*
X4171632Y-4295510D02*
X4171632Y-4552653D01*
X4185918Y-4581225D01*
X4214490Y-4595510D01*
X4243061Y-4595510D01*
X4571633Y-4395510D02*
X4571633Y-4695510D01*
X4571633Y-4409796D02*
X4600204Y-4395510D01*
X4657347Y-4395510D01*
X4685918Y-4409796D01*
X4700204Y-4424082D01*
X4714490Y-4452653D01*
X4714490Y-4538368D01*
X4700204Y-4566939D01*
X4685918Y-4581225D01*
X4657347Y-4595510D01*
X4600204Y-4595510D01*
X4571633Y-4581225D01*
X4885918Y-4595510D02*
X4857347Y-4581225D01*
X4843061Y-4552653D01*
X4843061Y-4295510D01*
X5128775Y-4595510D02*
X5128775Y-4438368D01*
X5114490Y-4409796D01*
X5085918Y-4395510D01*
X5028775Y-4395510D01*
X5000204Y-4409796D01*
X5128775Y-4581225D02*
X5100204Y-4595510D01*
X5028775Y-4595510D01*
X5000204Y-4581225D01*
X4985918Y-4552653D01*
X4985918Y-4524082D01*
X5000204Y-4495510D01*
X5028775Y-4481225D01*
X5100204Y-4481225D01*
X5128775Y-4466939D01*
X5228775Y-4395510D02*
X5343061Y-4395510D01*
X5271633Y-4295510D02*
X5271633Y-4552653D01*
X5285918Y-4581225D01*
X5314490Y-4595510D01*
X5343061Y-4595510D01*
X5557347Y-4581225D02*
X5528776Y-4595510D01*
X5471633Y-4595510D01*
X5443061Y-4581225D01*
X5428776Y-4552653D01*
X5428776Y-4438368D01*
X5443061Y-4409796D01*
X5471633Y-4395510D01*
X5528776Y-4395510D01*
X5557347Y-4409796D01*
X5571633Y-4438368D01*
X5571633Y-4466939D01*
X5428776Y-4495510D01*
X5828775Y-4595510D02*
X5828775Y-4295510D01*
X5828775Y-4581225D02*
X5800204Y-4595510D01*
X5743061Y-4595510D01*
X5714490Y-4581225D01*
X5700204Y-4566939D01*
X5685918Y-4538368D01*
X5685918Y-4452653D01*
X5700204Y-4424082D01*
X5714490Y-4409796D01*
X5743061Y-4395510D01*
X5800204Y-4395510D01*
X5828775Y-4409796D01*
X5943061Y-4709796D02*
X5957347Y-4695510D01*
X5985918Y-4652653D01*
X6000204Y-4624082D01*
X6014490Y-4581225D01*
X6028775Y-4509796D01*
X6028775Y-4452653D01*
X6014490Y-4381225D01*
X6000204Y-4338368D01*
X5985918Y-4309796D01*
X5957347Y-4266939D01*
X5943061Y-4252653D01*
M02*
