%FSLAX45Y45*%
G04 Gerber Fmt 4.5, Leading zero omitted, Abs format (unit mm)*
G04 Created by KiCad (PCBNEW 4.0.6-e0-6349~53~ubuntu14.04.1) date Fri Mar 31 01:21:17 2017*
%MOMM*%
%LPD*%
G01*
G04 APERTURE LIST*
%ADD10C,0.127000*%
%ADD11C,0.150000*%
%ADD12C,0.200000*%
%ADD13C,0.300000*%
G04 APERTURE END LIST*
D10*
D11*
X1450000Y-3500000D02*
X3500000Y-1450000D01*
X-1450000Y-3500000D02*
X1450000Y-3500000D01*
X-3500000Y-1450000D02*
X-1450000Y-3500000D01*
X-3500000Y1450000D02*
X-3500000Y-1450000D01*
X-1450000Y3500000D02*
X-3500000Y1450000D01*
X1450000Y3500000D02*
X-1450000Y3500000D01*
X3500000Y1450000D02*
X1450000Y3500000D01*
X3500000Y-1450000D02*
X3500000Y1450000D01*
D12*
X-2660000Y-1320000D02*
X-2620000Y-1360000D01*
X-2620000Y-1320000D02*
X-2660000Y-1360000D01*
X-2650000Y20000D02*
X-2610000Y-20000D01*
X-2610000Y20000D02*
X-2650000Y-20000D01*
X-2545000Y-5000D02*
X-2505000Y-45000D01*
X-2505000Y-5000D02*
X-2545000Y-45000D01*
X-2540000Y1015000D02*
X-2500000Y975000D01*
X-2500000Y1015000D02*
X-2540000Y975000D01*
X-2425000Y875000D02*
X-2385000Y835000D01*
X-2385000Y875000D02*
X-2425000Y835000D01*
X-2425000Y370000D02*
X-2385000Y330000D01*
X-2385000Y370000D02*
X-2425000Y330000D01*
X-2425000Y-140000D02*
X-2385000Y-180000D01*
X-2385000Y-140000D02*
X-2425000Y-180000D01*
X-2420000Y-645000D02*
X-2380000Y-685000D01*
X-2380000Y-645000D02*
X-2420000Y-685000D01*
X-2395000Y120000D02*
X-2355000Y80000D01*
X-2355000Y120000D02*
X-2395000Y80000D01*
X-2390000Y-1600000D02*
X-2350000Y-1640000D01*
X-2350000Y-1600000D02*
X-2390000Y-1640000D01*
X-2345000Y-2305000D02*
X-2305000Y-2345000D01*
X-2305000Y-2305000D02*
X-2345000Y-2345000D01*
X-2335000Y510000D02*
X-2295000Y470000D01*
X-2295000Y510000D02*
X-2335000Y470000D01*
X-2330000Y-1255000D02*
X-2290000Y-1295000D01*
X-2290000Y-1255000D02*
X-2330000Y-1295000D01*
X-2310000Y-785000D02*
X-2270000Y-825000D01*
X-2270000Y-785000D02*
X-2310000Y-825000D01*
X-2290000Y-1545000D02*
X-2250000Y-1585000D01*
X-2250000Y-1545000D02*
X-2290000Y-1585000D01*
X-2255000Y505000D02*
X-2215000Y465000D01*
X-2215000Y505000D02*
X-2255000Y465000D01*
X-2250000Y-2300000D02*
X-2210000Y-2340000D01*
X-2210000Y-2300000D02*
X-2250000Y-2340000D01*
X-2240000Y1610000D02*
X-2200000Y1570000D01*
X-2200000Y1610000D02*
X-2240000Y1570000D01*
X-2220000Y-785000D02*
X-2180000Y-825000D01*
X-2180000Y-785000D02*
X-2220000Y-825000D01*
X-2175000Y490000D02*
X-2135000Y450000D01*
X-2135000Y490000D02*
X-2175000Y450000D01*
X-2155000Y-655000D02*
X-2115000Y-695000D01*
X-2115000Y-655000D02*
X-2155000Y-695000D01*
X-2155000Y-735000D02*
X-2115000Y-775000D01*
X-2115000Y-735000D02*
X-2155000Y-775000D01*
X-2145000Y1705000D02*
X-2105000Y1665000D01*
X-2105000Y1705000D02*
X-2145000Y1665000D01*
X-2145000Y1350000D02*
X-2105000Y1310000D01*
X-2105000Y1350000D02*
X-2145000Y1310000D01*
X-2145000Y90000D02*
X-2105000Y50000D01*
X-2105000Y90000D02*
X-2145000Y50000D01*
X-2145000Y-285000D02*
X-2105000Y-325000D01*
X-2105000Y-285000D02*
X-2145000Y-325000D01*
X-2090000Y490000D02*
X-2050000Y450000D01*
X-2050000Y490000D02*
X-2090000Y450000D01*
X-2080000Y160000D02*
X-2040000Y120000D01*
X-2040000Y160000D02*
X-2080000Y120000D01*
X-1895000Y2225000D02*
X-1855000Y2185000D01*
X-1855000Y2225000D02*
X-1895000Y2185000D01*
X-1845000Y2335000D02*
X-1805000Y2295000D01*
X-1805000Y2335000D02*
X-1845000Y2295000D01*
X-1730000Y-2005000D02*
X-1690000Y-2045000D01*
X-1690000Y-2005000D02*
X-1730000Y-2045000D01*
X-1695000Y1160000D02*
X-1655000Y1120000D01*
X-1655000Y1160000D02*
X-1695000Y1120000D01*
X-1650000Y1645000D02*
X-1610000Y1605000D01*
X-1610000Y1645000D02*
X-1650000Y1605000D01*
X-1600000Y2220000D02*
X-1560000Y2180000D01*
X-1560000Y2220000D02*
X-1600000Y2180000D01*
X-1595000Y-865000D02*
X-1555000Y-905000D01*
X-1555000Y-865000D02*
X-1595000Y-905000D01*
X-1560000Y-2800000D02*
X-1520000Y-2840000D01*
X-1520000Y-2800000D02*
X-1560000Y-2840000D01*
X-1465000Y1465000D02*
X-1425000Y1425000D01*
X-1425000Y1465000D02*
X-1465000Y1425000D01*
X-1435000Y720000D02*
X-1395000Y680000D01*
X-1395000Y720000D02*
X-1435000Y680000D01*
X-1435000Y-750000D02*
X-1395000Y-790000D01*
X-1395000Y-750000D02*
X-1435000Y-790000D01*
X-1405000Y-1365000D02*
X-1365000Y-1405000D01*
X-1365000Y-1365000D02*
X-1405000Y-1405000D01*
X-1395000Y940000D02*
X-1355000Y900000D01*
X-1355000Y940000D02*
X-1395000Y900000D01*
X-1355000Y735000D02*
X-1315000Y695000D01*
X-1315000Y735000D02*
X-1355000Y695000D01*
X-1355000Y-770000D02*
X-1315000Y-810000D01*
X-1315000Y-770000D02*
X-1355000Y-810000D01*
X-1340000Y-640000D02*
X-1300000Y-680000D01*
X-1300000Y-640000D02*
X-1340000Y-680000D01*
X-1335000Y-960000D02*
X-1295000Y-1000000D01*
X-1295000Y-960000D02*
X-1335000Y-1000000D01*
X-1285000Y-880000D02*
X-1245000Y-920000D01*
X-1245000Y-880000D02*
X-1285000Y-920000D01*
X-1275000Y750000D02*
X-1235000Y710000D01*
X-1235000Y750000D02*
X-1275000Y710000D01*
X-1265000Y920000D02*
X-1225000Y880000D01*
X-1225000Y920000D02*
X-1265000Y880000D01*
X-1265000Y-750000D02*
X-1225000Y-790000D01*
X-1225000Y-750000D02*
X-1265000Y-790000D01*
X-1260000Y-650000D02*
X-1220000Y-690000D01*
X-1220000Y-650000D02*
X-1260000Y-690000D01*
X-1195000Y760000D02*
X-1155000Y720000D01*
X-1155000Y760000D02*
X-1195000Y720000D01*
X-1150000Y865000D02*
X-1110000Y825000D01*
X-1110000Y865000D02*
X-1150000Y825000D01*
X-1115000Y-1075000D02*
X-1075000Y-1115000D01*
X-1075000Y-1075000D02*
X-1115000Y-1115000D01*
X-1105000Y1105000D02*
X-1065000Y1065000D01*
X-1065000Y1105000D02*
X-1105000Y1065000D01*
X-1075000Y-645000D02*
X-1035000Y-685000D01*
X-1035000Y-645000D02*
X-1075000Y-685000D01*
X-1015000Y-2500000D02*
X-975000Y-2540000D01*
X-975000Y-2500000D02*
X-1015000Y-2540000D01*
X-1005000Y765000D02*
X-965000Y725000D01*
X-965000Y765000D02*
X-1005000Y725000D01*
X-995000Y1405000D02*
X-955000Y1365000D01*
X-955000Y1405000D02*
X-995000Y1365000D01*
X-980000Y310000D02*
X-940000Y270000D01*
X-940000Y310000D02*
X-980000Y270000D01*
X-910000Y-1200000D02*
X-870000Y-1240000D01*
X-870000Y-1200000D02*
X-910000Y-1240000D01*
X-905000Y835000D02*
X-865000Y795000D01*
X-865000Y835000D02*
X-905000Y795000D01*
X-905000Y-1555000D02*
X-865000Y-1595000D01*
X-865000Y-1555000D02*
X-905000Y-1595000D01*
X-875000Y-2385000D02*
X-835000Y-2425000D01*
X-835000Y-2385000D02*
X-875000Y-2425000D01*
X-870000Y485000D02*
X-830000Y445000D01*
X-830000Y485000D02*
X-870000Y445000D01*
X-865000Y1350000D02*
X-825000Y1310000D01*
X-825000Y1350000D02*
X-865000Y1310000D01*
X-855000Y1265000D02*
X-815000Y1225000D01*
X-815000Y1265000D02*
X-855000Y1225000D01*
X-845000Y-1145000D02*
X-805000Y-1185000D01*
X-805000Y-1145000D02*
X-845000Y-1185000D01*
X-825000Y2310000D02*
X-785000Y2270000D01*
X-785000Y2310000D02*
X-825000Y2270000D01*
X-825000Y2220000D02*
X-785000Y2180000D01*
X-785000Y2220000D02*
X-825000Y2180000D01*
X-800000Y1430000D02*
X-760000Y1390000D01*
X-760000Y1430000D02*
X-800000Y1390000D01*
X-780000Y2150000D02*
X-740000Y2110000D01*
X-740000Y2150000D02*
X-780000Y2110000D01*
X-765000Y-1155000D02*
X-725000Y-1195000D01*
X-725000Y-1155000D02*
X-765000Y-1195000D01*
X-755000Y1260000D02*
X-715000Y1220000D01*
X-715000Y1260000D02*
X-755000Y1220000D01*
X-750000Y-1235000D02*
X-710000Y-1275000D01*
X-710000Y-1235000D02*
X-750000Y-1275000D01*
X-735000Y-1315000D02*
X-695000Y-1355000D01*
X-695000Y-1315000D02*
X-735000Y-1355000D01*
X-720000Y-1395000D02*
X-680000Y-1435000D01*
X-680000Y-1395000D02*
X-720000Y-1435000D01*
X-705000Y660000D02*
X-665000Y620000D01*
X-665000Y660000D02*
X-705000Y620000D01*
X-705000Y-355000D02*
X-665000Y-395000D01*
X-665000Y-355000D02*
X-705000Y-395000D01*
X-705000Y-445000D02*
X-665000Y-485000D01*
X-665000Y-445000D02*
X-705000Y-485000D01*
X-695000Y2155000D02*
X-655000Y2115000D01*
X-655000Y2155000D02*
X-695000Y2115000D01*
X-690000Y2425000D02*
X-650000Y2385000D01*
X-650000Y2425000D02*
X-690000Y2385000D01*
X-690000Y1340000D02*
X-650000Y1300000D01*
X-650000Y1340000D02*
X-690000Y1300000D01*
X-595000Y-645000D02*
X-555000Y-685000D01*
X-555000Y-645000D02*
X-595000Y-685000D01*
X-525000Y670000D02*
X-485000Y630000D01*
X-485000Y670000D02*
X-525000Y630000D01*
X-520000Y-30000D02*
X-480000Y-70000D01*
X-480000Y-30000D02*
X-520000Y-70000D01*
X-520000Y-130000D02*
X-480000Y-170000D01*
X-480000Y-130000D02*
X-520000Y-170000D01*
X-510000Y-2305000D02*
X-470000Y-2345000D01*
X-470000Y-2305000D02*
X-510000Y-2345000D01*
X-505000Y-2215000D02*
X-465000Y-2255000D01*
X-465000Y-2215000D02*
X-505000Y-2255000D01*
X-495000Y430000D02*
X-455000Y390000D01*
X-455000Y430000D02*
X-495000Y390000D01*
X-490000Y525000D02*
X-450000Y485000D01*
X-450000Y525000D02*
X-490000Y485000D01*
X-490000Y-2045000D02*
X-450000Y-2085000D01*
X-450000Y-2045000D02*
X-490000Y-2085000D01*
X-490000Y-2135000D02*
X-450000Y-2175000D01*
X-450000Y-2135000D02*
X-490000Y-2175000D01*
X-460000Y-510000D02*
X-420000Y-550000D01*
X-420000Y-510000D02*
X-460000Y-550000D01*
X-460000Y-870000D02*
X-420000Y-910000D01*
X-420000Y-870000D02*
X-460000Y-910000D01*
X-440000Y665000D02*
X-400000Y625000D01*
X-400000Y665000D02*
X-440000Y625000D01*
X-420000Y385000D02*
X-380000Y345000D01*
X-380000Y385000D02*
X-420000Y345000D01*
X-370000Y-510000D02*
X-330000Y-550000D01*
X-330000Y-510000D02*
X-370000Y-550000D01*
X-370000Y-2385000D02*
X-330000Y-2425000D01*
X-330000Y-2385000D02*
X-370000Y-2425000D01*
X-335000Y-275000D02*
X-295000Y-315000D01*
X-295000Y-275000D02*
X-335000Y-315000D01*
X-330000Y-910000D02*
X-290000Y-950000D01*
X-290000Y-910000D02*
X-330000Y-950000D01*
X-325000Y2145000D02*
X-285000Y2105000D01*
X-285000Y2145000D02*
X-325000Y2105000D01*
X-245000Y-540000D02*
X-205000Y-580000D01*
X-205000Y-540000D02*
X-245000Y-580000D01*
X-180000Y2425000D02*
X-140000Y2385000D01*
X-140000Y2425000D02*
X-180000Y2385000D01*
X-170000Y520000D02*
X-130000Y480000D01*
X-130000Y520000D02*
X-170000Y480000D01*
X-160000Y-2040000D02*
X-120000Y-2080000D01*
X-120000Y-2040000D02*
X-160000Y-2080000D01*
X-120000Y-2355000D02*
X-80000Y-2395000D01*
X-80000Y-2355000D02*
X-120000Y-2395000D01*
X-90000Y-2100000D02*
X-50000Y-2140000D01*
X-50000Y-2100000D02*
X-90000Y-2140000D01*
X-45000Y2545000D02*
X-5000Y2505000D01*
X-5000Y2545000D02*
X-45000Y2505000D01*
X-20000Y2650000D02*
X20000Y2610000D01*
X20000Y2650000D02*
X-20000Y2610000D01*
X-20000Y20000D02*
X20000Y-20000D01*
X20000Y20000D02*
X-20000Y-20000D01*
X-20000Y-2610000D02*
X20000Y-2650000D01*
X20000Y-2610000D02*
X-20000Y-2650000D01*
X-15000Y545000D02*
X25000Y505000D01*
X25000Y545000D02*
X-15000Y505000D01*
X5000Y-2505000D02*
X45000Y-2545000D01*
X45000Y-2505000D02*
X5000Y-2545000D01*
X30000Y-480000D02*
X70000Y-520000D01*
X70000Y-480000D02*
X30000Y-520000D01*
X50000Y2145000D02*
X90000Y2105000D01*
X90000Y2145000D02*
X50000Y2105000D01*
X85000Y2395000D02*
X125000Y2355000D01*
X125000Y2395000D02*
X85000Y2355000D01*
X115000Y475000D02*
X155000Y435000D01*
X155000Y475000D02*
X115000Y435000D01*
X120000Y2080000D02*
X160000Y2040000D01*
X160000Y2080000D02*
X120000Y2040000D01*
X130000Y-480000D02*
X170000Y-520000D01*
X170000Y-480000D02*
X130000Y-520000D01*
X140000Y-2400000D02*
X180000Y-2440000D01*
X180000Y-2400000D02*
X140000Y-2440000D01*
X245000Y135000D02*
X285000Y95000D01*
X285000Y135000D02*
X245000Y95000D01*
X255000Y975000D02*
X295000Y935000D01*
X295000Y975000D02*
X255000Y935000D01*
X285000Y-2105000D02*
X325000Y-2145000D01*
X325000Y-2105000D02*
X285000Y-2145000D01*
X315000Y495000D02*
X355000Y455000D01*
X355000Y495000D02*
X315000Y455000D01*
X330000Y2425000D02*
X370000Y2385000D01*
X370000Y2425000D02*
X330000Y2385000D01*
X335000Y-535000D02*
X375000Y-575000D01*
X375000Y-535000D02*
X335000Y-575000D01*
X350000Y880000D02*
X390000Y840000D01*
X390000Y880000D02*
X350000Y840000D01*
X375000Y435000D02*
X415000Y395000D01*
X415000Y435000D02*
X375000Y395000D01*
X420000Y-545000D02*
X460000Y-585000D01*
X460000Y-545000D02*
X420000Y-585000D01*
X425000Y-155000D02*
X465000Y-195000D01*
X465000Y-155000D02*
X425000Y-195000D01*
X440000Y375000D02*
X480000Y335000D01*
X480000Y375000D02*
X440000Y335000D01*
X445000Y2650000D02*
X485000Y2610000D01*
X485000Y2650000D02*
X445000Y2610000D01*
X450000Y2215000D02*
X490000Y2175000D01*
X490000Y2215000D02*
X450000Y2175000D01*
X450000Y2125000D02*
X490000Y2085000D01*
X490000Y2125000D02*
X450000Y2085000D01*
X450000Y545000D02*
X490000Y505000D01*
X490000Y545000D02*
X450000Y505000D01*
X455000Y675000D02*
X495000Y635000D01*
X495000Y675000D02*
X455000Y635000D01*
X465000Y2385000D02*
X505000Y2345000D01*
X505000Y2385000D02*
X465000Y2345000D01*
X465000Y2295000D02*
X505000Y2255000D01*
X505000Y2295000D02*
X465000Y2255000D01*
X480000Y850000D02*
X520000Y810000D01*
X520000Y850000D02*
X480000Y810000D01*
X480000Y170000D02*
X520000Y130000D01*
X520000Y170000D02*
X480000Y130000D01*
X490000Y-260000D02*
X530000Y-300000D01*
X530000Y-260000D02*
X490000Y-300000D01*
X505000Y610000D02*
X545000Y570000D01*
X545000Y610000D02*
X505000Y570000D01*
X505000Y15000D02*
X545000Y-25000D01*
X545000Y15000D02*
X505000Y-25000D01*
X510000Y2600000D02*
X550000Y2560000D01*
X550000Y2600000D02*
X510000Y2560000D01*
X520000Y415000D02*
X560000Y375000D01*
X560000Y415000D02*
X520000Y375000D01*
X535000Y-705000D02*
X575000Y-745000D01*
X575000Y-705000D02*
X535000Y-745000D01*
X555000Y-315000D02*
X595000Y-355000D01*
X595000Y-315000D02*
X555000Y-355000D01*
X560000Y-1095000D02*
X600000Y-1135000D01*
X600000Y-1095000D02*
X560000Y-1135000D01*
X645000Y-1300000D02*
X685000Y-1340000D01*
X685000Y-1300000D02*
X645000Y-1340000D01*
X645000Y-2380000D02*
X685000Y-2420000D01*
X685000Y-2380000D02*
X645000Y-2420000D01*
X660000Y-2110000D02*
X700000Y-2150000D01*
X700000Y-2110000D02*
X660000Y-2150000D01*
X665000Y-1220000D02*
X705000Y-1260000D01*
X705000Y-1220000D02*
X665000Y-1260000D01*
X680000Y1435000D02*
X720000Y1395000D01*
X720000Y1435000D02*
X680000Y1395000D01*
X680000Y450000D02*
X720000Y410000D01*
X720000Y450000D02*
X680000Y410000D01*
X690000Y370000D02*
X730000Y330000D01*
X730000Y370000D02*
X690000Y330000D01*
X695000Y1355000D02*
X735000Y1315000D01*
X735000Y1355000D02*
X695000Y1315000D01*
X710000Y1275000D02*
X750000Y1235000D01*
X750000Y1275000D02*
X710000Y1235000D01*
X725000Y1195000D02*
X765000Y1155000D01*
X765000Y1195000D02*
X725000Y1155000D01*
X725000Y575000D02*
X765000Y535000D01*
X765000Y575000D02*
X725000Y535000D01*
X740000Y-2110000D02*
X780000Y-2150000D01*
X780000Y-2110000D02*
X740000Y-2150000D01*
X755000Y-1395000D02*
X795000Y-1435000D01*
X795000Y-1395000D02*
X755000Y-1435000D01*
X765000Y-1035000D02*
X805000Y-1075000D01*
X805000Y-1035000D02*
X765000Y-1075000D01*
X775000Y-1225000D02*
X815000Y-1265000D01*
X815000Y-1225000D02*
X775000Y-1265000D01*
X775000Y-1315000D02*
X815000Y-1355000D01*
X815000Y-1315000D02*
X775000Y-1355000D01*
X780000Y370000D02*
X820000Y330000D01*
X820000Y370000D02*
X780000Y330000D01*
X790000Y-460000D02*
X830000Y-500000D01*
X830000Y-460000D02*
X790000Y-500000D01*
X790000Y-2175000D02*
X830000Y-2215000D01*
X830000Y-2175000D02*
X790000Y-2215000D01*
X790000Y-2265000D02*
X830000Y-2305000D01*
X830000Y-2265000D02*
X790000Y-2305000D01*
X835000Y2425000D02*
X875000Y2385000D01*
X875000Y2425000D02*
X835000Y2385000D01*
X850000Y1010000D02*
X890000Y970000D01*
X890000Y1010000D02*
X850000Y970000D01*
X870000Y-360000D02*
X910000Y-400000D01*
X910000Y-360000D02*
X870000Y-400000D01*
X885000Y1260000D02*
X925000Y1220000D01*
X925000Y1260000D02*
X885000Y1220000D01*
X885000Y-1485000D02*
X925000Y-1525000D01*
X925000Y-1485000D02*
X885000Y-1525000D01*
X900000Y1395000D02*
X940000Y1355000D01*
X940000Y1395000D02*
X900000Y1355000D01*
X930000Y-240000D02*
X970000Y-280000D01*
X970000Y-240000D02*
X930000Y-280000D01*
X975000Y2535000D02*
X1015000Y2495000D01*
X1015000Y2535000D02*
X975000Y2495000D01*
X1040000Y-615000D02*
X1080000Y-655000D01*
X1080000Y-615000D02*
X1040000Y-655000D01*
X1040000Y-1400000D02*
X1080000Y-1440000D01*
X1080000Y-1400000D02*
X1040000Y-1440000D01*
X1075000Y1480000D02*
X1115000Y1440000D01*
X1115000Y1480000D02*
X1075000Y1440000D01*
X1115000Y860000D02*
X1155000Y820000D01*
X1155000Y860000D02*
X1115000Y820000D01*
X1130000Y600000D02*
X1170000Y560000D01*
X1170000Y600000D02*
X1130000Y560000D01*
X1155000Y-725000D02*
X1195000Y-765000D01*
X1195000Y-725000D02*
X1155000Y-765000D01*
X1205000Y1345000D02*
X1245000Y1305000D01*
X1245000Y1345000D02*
X1205000Y1305000D01*
X1220000Y-880000D02*
X1260000Y-920000D01*
X1260000Y-880000D02*
X1220000Y-920000D01*
X1230000Y820000D02*
X1270000Y780000D01*
X1270000Y820000D02*
X1230000Y780000D01*
X1235000Y735000D02*
X1275000Y695000D01*
X1275000Y735000D02*
X1235000Y695000D01*
X1235000Y-710000D02*
X1275000Y-750000D01*
X1275000Y-710000D02*
X1235000Y-750000D01*
X1300000Y690000D02*
X1340000Y650000D01*
X1340000Y690000D02*
X1300000Y650000D01*
X1315000Y820000D02*
X1355000Y780000D01*
X1355000Y820000D02*
X1315000Y780000D01*
X1315000Y-695000D02*
X1355000Y-735000D01*
X1355000Y-695000D02*
X1315000Y-735000D01*
X1345000Y950000D02*
X1385000Y910000D01*
X1385000Y950000D02*
X1345000Y910000D01*
X1355000Y-900000D02*
X1395000Y-940000D01*
X1395000Y-900000D02*
X1355000Y-940000D01*
X1395000Y800000D02*
X1435000Y760000D01*
X1435000Y800000D02*
X1395000Y760000D01*
X1395000Y-680000D02*
X1435000Y-720000D01*
X1435000Y-680000D02*
X1395000Y-720000D01*
X1405000Y1145000D02*
X1445000Y1105000D01*
X1445000Y1145000D02*
X1405000Y1105000D01*
X1485000Y2020000D02*
X1525000Y1980000D01*
X1525000Y2020000D02*
X1485000Y1980000D01*
X1565000Y-1325000D02*
X1605000Y-1365000D01*
X1605000Y-1325000D02*
X1565000Y-1365000D01*
X1630000Y1860000D02*
X1670000Y1820000D01*
X1670000Y1860000D02*
X1630000Y1820000D01*
X1820000Y1370000D02*
X1860000Y1330000D01*
X1860000Y1370000D02*
X1820000Y1330000D01*
X1955000Y480000D02*
X1995000Y440000D01*
X1995000Y480000D02*
X1955000Y440000D01*
X2040000Y-120000D02*
X2080000Y-160000D01*
X2080000Y-120000D02*
X2040000Y-160000D01*
X2050000Y-450000D02*
X2090000Y-490000D01*
X2090000Y-450000D02*
X2050000Y-490000D01*
X2095000Y2525000D02*
X2135000Y2485000D01*
X2135000Y2525000D02*
X2095000Y2485000D01*
X2105000Y325000D02*
X2145000Y285000D01*
X2145000Y325000D02*
X2105000Y285000D01*
X2105000Y-50000D02*
X2145000Y-90000D01*
X2145000Y-50000D02*
X2105000Y-90000D01*
X2115000Y775000D02*
X2155000Y735000D01*
X2155000Y775000D02*
X2115000Y735000D01*
X2115000Y695000D02*
X2155000Y655000D01*
X2155000Y695000D02*
X2115000Y655000D01*
X2145000Y-450000D02*
X2185000Y-490000D01*
X2185000Y-450000D02*
X2145000Y-490000D01*
X2180000Y825000D02*
X2220000Y785000D01*
X2220000Y825000D02*
X2180000Y785000D01*
X2225000Y-470000D02*
X2265000Y-510000D01*
X2265000Y-470000D02*
X2225000Y-510000D01*
X2270000Y825000D02*
X2310000Y785000D01*
X2310000Y825000D02*
X2270000Y785000D01*
X2315000Y-470000D02*
X2355000Y-510000D01*
X2355000Y-470000D02*
X2315000Y-510000D01*
X2355000Y-85000D02*
X2395000Y-125000D01*
X2395000Y-85000D02*
X2355000Y-125000D01*
X2385000Y690000D02*
X2425000Y650000D01*
X2425000Y690000D02*
X2385000Y650000D01*
X2385000Y180000D02*
X2425000Y140000D01*
X2425000Y180000D02*
X2385000Y140000D01*
X2385000Y-330000D02*
X2425000Y-370000D01*
X2425000Y-330000D02*
X2385000Y-370000D01*
X2385000Y-835000D02*
X2425000Y-875000D01*
X2425000Y-835000D02*
X2385000Y-875000D01*
X2460000Y2150000D02*
X2500000Y2110000D01*
X2500000Y2150000D02*
X2460000Y2110000D01*
X2500000Y-975000D02*
X2540000Y-1015000D01*
X2540000Y-975000D02*
X2500000Y-1015000D01*
X2505000Y45000D02*
X2545000Y5000D01*
X2545000Y45000D02*
X2505000Y5000D01*
X2610000Y20000D02*
X2650000Y-20000D01*
X2650000Y20000D02*
X2610000Y-20000D01*
X2630000Y-510000D02*
X2670000Y-550000D01*
X2670000Y-510000D02*
X2630000Y-550000D01*
X2895000Y1410000D02*
X2935000Y1370000D01*
X2935000Y1410000D02*
X2895000Y1370000D01*
X-2588854Y-2119007D02*
G75*
G03X-2588854Y-2119007I-25000J0D01*
G01*
X-2626229Y-2152594D02*
X-2580267Y-2106632D01*
X-2647442Y-2131381D02*
X-2601480Y-2085419D01*
X-2580267Y-2106632D02*
G75*
G03X-2601480Y-2085419I-10607J10607D01*
G01*
X-2647442Y-2131381D02*
G75*
G03X-2626229Y-2152594I10607J-10607D01*
G01*
X-2093880Y-2613982D02*
G75*
G03X-2093880Y-2613982I-25000J0D01*
G01*
X-2131254Y-2647569D02*
X-2085292Y-2601607D01*
X-2152467Y-2626356D02*
X-2106505Y-2580394D01*
X-2085292Y-2601607D02*
G75*
G03X-2106505Y-2580394I-10607J10607D01*
G01*
X-2152467Y-2626356D02*
G75*
G03X-2131254Y-2647569I10607J-10607D01*
G01*
X-2352225Y-1971299D02*
X-2352225Y-2026299D01*
X-2379725Y-1998799D02*
X-2324725Y-1998799D01*
X-2375206Y-2000566D02*
X-2353993Y-2021780D01*
X-2350457Y-1975818D02*
X-2329244Y-1997031D01*
X-2353993Y-2021780D02*
G75*
G03X-2329244Y-1997031I12374J12374D01*
G01*
X-2350457Y-1975818D02*
G75*
G03X-2375206Y-2000566I-12374J-12374D01*
G01*
X-1998671Y-2324852D02*
X-1998671Y-2379852D01*
X-2026171Y-2352352D02*
X-1971171Y-2352352D01*
X-2021652Y-2354120D02*
X-2000439Y-2375333D01*
X-1996904Y-2329371D02*
X-1975690Y-2350584D01*
X-2000439Y-2375333D02*
G75*
G03X-1975690Y-2350584I12374J12374D01*
G01*
X-1996904Y-2329371D02*
G75*
G03X-2021652Y-2354120I-12374J-12374D01*
G01*
X-3075579Y1107079D02*
X-3075579Y1178921D01*
X-3147421Y1178921D01*
X-3147421Y1107079D01*
X-3075579Y1107079D01*
X-3075579Y853079D02*
X-3075579Y924921D01*
X-3147421Y924921D01*
X-3147421Y853079D01*
X-3075579Y853079D01*
X-3075579Y599079D02*
X-3075579Y670921D01*
X-3147421Y670921D01*
X-3147421Y599079D01*
X-3075579Y599079D01*
X-3075579Y345079D02*
X-3075579Y416921D01*
X-3147421Y416921D01*
X-3147421Y345079D01*
X-3075579Y345079D01*
X-3075579Y91079D02*
X-3075579Y162921D01*
X-3147421Y162921D01*
X-3147421Y91079D01*
X-3075579Y91079D01*
X-3075579Y-162921D02*
X-3075579Y-91079D01*
X-3147421Y-91079D01*
X-3147421Y-162921D01*
X-3075579Y-162921D01*
X-3075579Y-416921D02*
X-3075579Y-345079D01*
X-3147421Y-345079D01*
X-3147421Y-416921D01*
X-3075579Y-416921D01*
X-3075579Y-670921D02*
X-3075579Y-599079D01*
X-3147421Y-599079D01*
X-3147421Y-670921D01*
X-3075579Y-670921D01*
X-3075579Y-924921D02*
X-3075579Y-853079D01*
X-3147421Y-853079D01*
X-3147421Y-924921D01*
X-3075579Y-924921D01*
X-3075579Y-1178921D02*
X-3075579Y-1107079D01*
X-3147421Y-1107079D01*
X-3147421Y-1178921D01*
X-3075579Y-1178921D01*
X-2821579Y1107079D02*
X-2821579Y1178921D01*
X-2893421Y1178921D01*
X-2893421Y1107079D01*
X-2821579Y1107079D01*
X-2821579Y853079D02*
X-2821579Y924921D01*
X-2893421Y924921D01*
X-2893421Y853079D01*
X-2821579Y853079D01*
X-2821579Y599079D02*
X-2821579Y670921D01*
X-2893421Y670921D01*
X-2893421Y599079D01*
X-2821579Y599079D01*
X-2821579Y345079D02*
X-2821579Y416921D01*
X-2893421Y416921D01*
X-2893421Y345079D01*
X-2821579Y345079D01*
X-2821579Y91079D02*
X-2821579Y162921D01*
X-2893421Y162921D01*
X-2893421Y91079D01*
X-2821579Y91079D01*
X-2821579Y-162921D02*
X-2821579Y-91079D01*
X-2893421Y-91079D01*
X-2893421Y-162921D01*
X-2821579Y-162921D01*
X-2821579Y-416921D02*
X-2821579Y-345079D01*
X-2893421Y-345079D01*
X-2893421Y-416921D01*
X-2821579Y-416921D01*
X-2821579Y-670921D02*
X-2821579Y-599079D01*
X-2893421Y-599079D01*
X-2893421Y-670921D01*
X-2821579Y-670921D01*
X-2821579Y-924921D02*
X-2821579Y-853079D01*
X-2893421Y-853079D01*
X-2893421Y-924921D01*
X-2821579Y-924921D01*
X-2821579Y-1178921D02*
X-2821579Y-1107079D01*
X-2893421Y-1107079D01*
X-2893421Y-1178921D01*
X-2821579Y-1178921D01*
X-2493079Y2134079D02*
X-2493079Y2205921D01*
X-2564921Y2205921D01*
X-2564921Y2134079D01*
X-2493079Y2134079D01*
X-2313474Y2313684D02*
X-2313474Y2385527D01*
X-2385316Y2385527D01*
X-2385316Y2313684D01*
X-2313474Y2313684D01*
X-2313474Y1954473D02*
X-2313474Y2026316D01*
X-2385316Y2026316D01*
X-2385316Y1954473D01*
X-2313474Y1954473D01*
X-2133868Y2493289D02*
X-2133868Y2565132D01*
X-2205711Y2565132D01*
X-2205711Y2493289D01*
X-2133868Y2493289D01*
X-2133868Y2134079D02*
X-2133868Y2205921D01*
X-2205711Y2205921D01*
X-2205711Y2134079D01*
X-2133868Y2134079D01*
X-1954263Y2313684D02*
X-1954263Y2385527D01*
X-2026106Y2385527D01*
X-2026106Y2313684D01*
X-1954263Y2313684D01*
X-1107079Y3075579D02*
X-1107079Y3147421D01*
X-1178921Y3147421D01*
X-1178921Y3075579D01*
X-1107079Y3075579D01*
X-1107079Y2821579D02*
X-1107079Y2893421D01*
X-1178921Y2893421D01*
X-1178921Y2821579D01*
X-1107079Y2821579D01*
X-1107079Y-2893421D02*
X-1107079Y-2821579D01*
X-1178921Y-2821579D01*
X-1178921Y-2893421D01*
X-1107079Y-2893421D01*
X-1107079Y-3147421D02*
X-1107079Y-3075579D01*
X-1178921Y-3075579D01*
X-1178921Y-3147421D01*
X-1107079Y-3147421D01*
X-853079Y3075579D02*
X-853079Y3147421D01*
X-924921Y3147421D01*
X-924921Y3075579D01*
X-853079Y3075579D01*
X-853079Y2821579D02*
X-853079Y2893421D01*
X-924921Y2893421D01*
X-924921Y2821579D01*
X-853079Y2821579D01*
X-853079Y-2893421D02*
X-853079Y-2821579D01*
X-924921Y-2821579D01*
X-924921Y-2893421D01*
X-853079Y-2893421D01*
X-853079Y-3147421D02*
X-853079Y-3075579D01*
X-924921Y-3075579D01*
X-924921Y-3147421D01*
X-853079Y-3147421D01*
X-599079Y3075579D02*
X-599079Y3147421D01*
X-670921Y3147421D01*
X-670921Y3075579D01*
X-599079Y3075579D01*
X-599079Y2821579D02*
X-599079Y2893421D01*
X-670921Y2893421D01*
X-670921Y2821579D01*
X-599079Y2821579D01*
X-599079Y-2893421D02*
X-599079Y-2821579D01*
X-670921Y-2821579D01*
X-670921Y-2893421D01*
X-599079Y-2893421D01*
X-599079Y-3147421D02*
X-599079Y-3075579D01*
X-670921Y-3075579D01*
X-670921Y-3147421D01*
X-599079Y-3147421D01*
X-345079Y3075579D02*
X-345079Y3147421D01*
X-416921Y3147421D01*
X-416921Y3075579D01*
X-345079Y3075579D01*
X-345079Y2821579D02*
X-345079Y2893421D01*
X-416921Y2893421D01*
X-416921Y2821579D01*
X-345079Y2821579D01*
X-345079Y-2893421D02*
X-345079Y-2821579D01*
X-416921Y-2821579D01*
X-416921Y-2893421D01*
X-345079Y-2893421D01*
X-345079Y-3147421D02*
X-345079Y-3075579D01*
X-416921Y-3075579D01*
X-416921Y-3147421D01*
X-345079Y-3147421D01*
X-91079Y3075579D02*
X-91079Y3147421D01*
X-162921Y3147421D01*
X-162921Y3075579D01*
X-91079Y3075579D01*
X-91079Y2821579D02*
X-91079Y2893421D01*
X-162921Y2893421D01*
X-162921Y2821579D01*
X-91079Y2821579D01*
X-91079Y-2893421D02*
X-91079Y-2821579D01*
X-162921Y-2821579D01*
X-162921Y-2893421D01*
X-91079Y-2893421D01*
X-91079Y-3147421D02*
X-91079Y-3075579D01*
X-162921Y-3075579D01*
X-162921Y-3147421D01*
X-91079Y-3147421D01*
X162921Y3075579D02*
X162921Y3147421D01*
X91079Y3147421D01*
X91079Y3075579D01*
X162921Y3075579D01*
X162921Y2821579D02*
X162921Y2893421D01*
X91079Y2893421D01*
X91079Y2821579D01*
X162921Y2821579D01*
X162921Y-2893421D02*
X162921Y-2821579D01*
X91079Y-2821579D01*
X91079Y-2893421D01*
X162921Y-2893421D01*
X162921Y-3147421D02*
X162921Y-3075579D01*
X91079Y-3075579D01*
X91079Y-3147421D01*
X162921Y-3147421D01*
X416921Y3075579D02*
X416921Y3147421D01*
X345079Y3147421D01*
X345079Y3075579D01*
X416921Y3075579D01*
X416921Y2821579D02*
X416921Y2893421D01*
X345079Y2893421D01*
X345079Y2821579D01*
X416921Y2821579D01*
X416921Y-2893421D02*
X416921Y-2821579D01*
X345079Y-2821579D01*
X345079Y-2893421D01*
X416921Y-2893421D01*
X416921Y-3147421D02*
X416921Y-3075579D01*
X345079Y-3075579D01*
X345079Y-3147421D01*
X416921Y-3147421D01*
X670921Y3075579D02*
X670921Y3147421D01*
X599079Y3147421D01*
X599079Y3075579D01*
X670921Y3075579D01*
X670921Y2821579D02*
X670921Y2893421D01*
X599079Y2893421D01*
X599079Y2821579D01*
X670921Y2821579D01*
X670921Y-2893421D02*
X670921Y-2821579D01*
X599079Y-2821579D01*
X599079Y-2893421D01*
X670921Y-2893421D01*
X670921Y-3147421D02*
X670921Y-3075579D01*
X599079Y-3075579D01*
X599079Y-3147421D01*
X670921Y-3147421D01*
X924921Y3075579D02*
X924921Y3147421D01*
X853079Y3147421D01*
X853079Y3075579D01*
X924921Y3075579D01*
X924921Y2821579D02*
X924921Y2893421D01*
X853079Y2893421D01*
X853079Y2821579D01*
X924921Y2821579D01*
X924921Y-2893421D02*
X924921Y-2821579D01*
X853079Y-2821579D01*
X853079Y-2893421D01*
X924921Y-2893421D01*
X924921Y-3147421D02*
X924921Y-3075579D01*
X853079Y-3075579D01*
X853079Y-3147421D01*
X924921Y-3147421D01*
X1178921Y3075579D02*
X1178921Y3147421D01*
X1107079Y3147421D01*
X1107079Y3075579D01*
X1178921Y3075579D01*
X1178921Y2821579D02*
X1178921Y2893421D01*
X1107079Y2893421D01*
X1107079Y2821579D01*
X1178921Y2821579D01*
X1178921Y-2893421D02*
X1178921Y-2821579D01*
X1107079Y-2821579D01*
X1107079Y-2893421D01*
X1178921Y-2893421D01*
X1178921Y-3147421D02*
X1178921Y-3075579D01*
X1107079Y-3075579D01*
X1107079Y-3147421D01*
X1178921Y-3147421D01*
X1432921Y2567579D02*
X1432921Y2639421D01*
X1361079Y2639421D01*
X1361079Y2567579D01*
X1432921Y2567579D01*
X1612526Y2747184D02*
X1612526Y2819026D01*
X1540684Y2819026D01*
X1540684Y2747184D01*
X1612526Y2747184D01*
X1792132Y2926789D02*
X1792132Y2998632D01*
X1720289Y2998632D01*
X1720289Y2926789D01*
X1792132Y2926789D01*
X2026106Y-2385527D02*
X2026106Y-2313684D01*
X1954263Y-2313684D01*
X1954263Y-2385527D01*
X2026106Y-2385527D01*
X2205711Y-2205921D02*
X2205711Y-2134079D01*
X2133868Y-2134079D01*
X2133868Y-2205921D01*
X2205711Y-2205921D01*
X2205711Y-2565132D02*
X2205711Y-2493289D01*
X2133868Y-2493289D01*
X2133868Y-2565132D01*
X2205711Y-2565132D01*
X2385316Y-2026316D02*
X2385316Y-1954473D01*
X2313474Y-1954473D01*
X2313474Y-2026316D01*
X2385316Y-2026316D01*
X2385316Y-2385527D02*
X2385316Y-2313684D01*
X2313474Y-2313684D01*
X2313474Y-2385527D01*
X2385316Y-2385527D01*
X2564921Y-2205921D02*
X2564921Y-2134079D01*
X2493079Y-2134079D01*
X2493079Y-2205921D01*
X2564921Y-2205921D01*
X2893421Y1107079D02*
X2893421Y1178921D01*
X2821579Y1178921D01*
X2821579Y1107079D01*
X2893421Y1107079D01*
X2893421Y853079D02*
X2893421Y924921D01*
X2821579Y924921D01*
X2821579Y853079D01*
X2893421Y853079D01*
X2893421Y599079D02*
X2893421Y670921D01*
X2821579Y670921D01*
X2821579Y599079D01*
X2893421Y599079D01*
X2893421Y345079D02*
X2893421Y416921D01*
X2821579Y416921D01*
X2821579Y345079D01*
X2893421Y345079D01*
X2893421Y91079D02*
X2893421Y162921D01*
X2821579Y162921D01*
X2821579Y91079D01*
X2893421Y91079D01*
X2893421Y-162921D02*
X2893421Y-91079D01*
X2821579Y-91079D01*
X2821579Y-162921D01*
X2893421Y-162921D01*
X2893421Y-416921D02*
X2893421Y-345079D01*
X2821579Y-345079D01*
X2821579Y-416921D01*
X2893421Y-416921D01*
X2893421Y-670921D02*
X2893421Y-599079D01*
X2821579Y-599079D01*
X2821579Y-670921D01*
X2893421Y-670921D01*
X2893421Y-924921D02*
X2893421Y-853079D01*
X2821579Y-853079D01*
X2821579Y-924921D01*
X2893421Y-924921D01*
X2893421Y-1178921D02*
X2893421Y-1107079D01*
X2821579Y-1107079D01*
X2821579Y-1178921D01*
X2893421Y-1178921D01*
X3147421Y1107079D02*
X3147421Y1178921D01*
X3075579Y1178921D01*
X3075579Y1107079D01*
X3147421Y1107079D01*
X3147421Y853079D02*
X3147421Y924921D01*
X3075579Y924921D01*
X3075579Y853079D01*
X3147421Y853079D01*
X3147421Y599079D02*
X3147421Y670921D01*
X3075579Y670921D01*
X3075579Y599079D01*
X3147421Y599079D01*
X3147421Y345079D02*
X3147421Y416921D01*
X3075579Y416921D01*
X3075579Y345079D01*
X3147421Y345079D01*
X3147421Y91079D02*
X3147421Y162921D01*
X3075579Y162921D01*
X3075579Y91079D01*
X3147421Y91079D01*
X3147421Y-162921D02*
X3147421Y-91079D01*
X3075579Y-91079D01*
X3075579Y-162921D01*
X3147421Y-162921D01*
X3147421Y-416921D02*
X3147421Y-345079D01*
X3075579Y-345079D01*
X3075579Y-416921D01*
X3147421Y-416921D01*
X3147421Y-670921D02*
X3147421Y-599079D01*
X3075579Y-599079D01*
X3075579Y-670921D01*
X3147421Y-670921D01*
X3147421Y-924921D02*
X3147421Y-853079D01*
X3075579Y-853079D01*
X3075579Y-924921D01*
X3147421Y-924921D01*
X3147421Y-1178921D02*
X3147421Y-1107079D01*
X3075579Y-1107079D01*
X3075579Y-1178921D01*
X3147421Y-1178921D01*
D13*
X-3236071Y-3973214D02*
X-3236071Y-3673214D01*
X-3164643Y-3673214D01*
X-3121786Y-3687500D01*
X-3093214Y-3716071D01*
X-3078929Y-3744643D01*
X-3064643Y-3801786D01*
X-3064643Y-3844643D01*
X-3078929Y-3901786D01*
X-3093214Y-3930357D01*
X-3121786Y-3958929D01*
X-3164643Y-3973214D01*
X-3236071Y-3973214D01*
X-2936071Y-3973214D02*
X-2936071Y-3773214D01*
X-2936071Y-3830357D02*
X-2921786Y-3801786D01*
X-2907500Y-3787500D01*
X-2878929Y-3773214D01*
X-2850357Y-3773214D01*
X-2750357Y-3973214D02*
X-2750357Y-3773214D01*
X-2750357Y-3673214D02*
X-2764643Y-3687500D01*
X-2750357Y-3701786D01*
X-2736072Y-3687500D01*
X-2750357Y-3673214D01*
X-2750357Y-3701786D01*
X-2564643Y-3973214D02*
X-2593214Y-3958929D01*
X-2607500Y-3930357D01*
X-2607500Y-3673214D01*
X-2407500Y-3973214D02*
X-2436072Y-3958929D01*
X-2450357Y-3930357D01*
X-2450357Y-3673214D01*
X-2064643Y-3973214D02*
X-2064643Y-3673214D01*
X-1964643Y-3887500D01*
X-1864643Y-3673214D01*
X-1864643Y-3973214D01*
X-1593214Y-3973214D02*
X-1593214Y-3816071D01*
X-1607500Y-3787500D01*
X-1636071Y-3773214D01*
X-1693214Y-3773214D01*
X-1721786Y-3787500D01*
X-1593214Y-3958929D02*
X-1621786Y-3973214D01*
X-1693214Y-3973214D01*
X-1721786Y-3958929D01*
X-1736071Y-3930357D01*
X-1736071Y-3901786D01*
X-1721786Y-3873214D01*
X-1693214Y-3858929D01*
X-1621786Y-3858929D01*
X-1593214Y-3844643D01*
X-1450357Y-3773214D02*
X-1450357Y-4073214D01*
X-1450357Y-3787500D02*
X-1421786Y-3773214D01*
X-1364643Y-3773214D01*
X-1336072Y-3787500D01*
X-1321786Y-3801786D01*
X-1307500Y-3830357D01*
X-1307500Y-3916071D01*
X-1321786Y-3944643D01*
X-1336072Y-3958929D01*
X-1364643Y-3973214D01*
X-1421786Y-3973214D01*
X-1450357Y-3958929D01*
X-1178929Y-3944643D02*
X-1164643Y-3958929D01*
X-1178929Y-3973214D01*
X-1193214Y-3958929D01*
X-1178929Y-3944643D01*
X-1178929Y-3973214D01*
X-1178929Y-3787500D02*
X-1164643Y-3801786D01*
X-1178929Y-3816071D01*
X-1193214Y-3801786D01*
X-1178929Y-3787500D01*
X-1178929Y-3816071D01*
X-3547500Y-4447500D02*
X-3507500Y-4487500D01*
X-3507500Y-4447500D02*
X-3547500Y-4487500D01*
X-3178929Y-4303214D02*
X-3150357Y-4303214D01*
X-3121786Y-4317500D01*
X-3107500Y-4331786D01*
X-3093214Y-4360357D01*
X-3078929Y-4417500D01*
X-3078929Y-4488929D01*
X-3093214Y-4546072D01*
X-3107500Y-4574643D01*
X-3121786Y-4588929D01*
X-3150357Y-4603214D01*
X-3178929Y-4603214D01*
X-3207500Y-4588929D01*
X-3221786Y-4574643D01*
X-3236071Y-4546072D01*
X-3250357Y-4488929D01*
X-3250357Y-4417500D01*
X-3236071Y-4360357D01*
X-3221786Y-4331786D01*
X-3207500Y-4317500D01*
X-3178929Y-4303214D01*
X-2950357Y-4574643D02*
X-2936071Y-4588929D01*
X-2950357Y-4603214D01*
X-2964643Y-4588929D01*
X-2950357Y-4574643D01*
X-2950357Y-4603214D01*
X-2678929Y-4403214D02*
X-2678929Y-4603214D01*
X-2750357Y-4288929D02*
X-2821786Y-4503214D01*
X-2636072Y-4503214D01*
X-2464643Y-4303214D02*
X-2436072Y-4303214D01*
X-2407500Y-4317500D01*
X-2393214Y-4331786D01*
X-2378929Y-4360357D01*
X-2364643Y-4417500D01*
X-2364643Y-4488929D01*
X-2378929Y-4546072D01*
X-2393214Y-4574643D01*
X-2407500Y-4588929D01*
X-2436072Y-4603214D01*
X-2464643Y-4603214D01*
X-2493214Y-4588929D01*
X-2507500Y-4574643D01*
X-2521786Y-4546072D01*
X-2536072Y-4488929D01*
X-2536072Y-4417500D01*
X-2521786Y-4360357D01*
X-2507500Y-4331786D01*
X-2493214Y-4317500D01*
X-2464643Y-4303214D01*
X-2236072Y-4603214D02*
X-2236072Y-4403214D01*
X-2236072Y-4431786D02*
X-2221786Y-4417500D01*
X-2193214Y-4403214D01*
X-2150357Y-4403214D01*
X-2121786Y-4417500D01*
X-2107500Y-4446072D01*
X-2107500Y-4603214D01*
X-2107500Y-4446072D02*
X-2093214Y-4417500D01*
X-2064643Y-4403214D01*
X-2021786Y-4403214D01*
X-1993214Y-4417500D01*
X-1978929Y-4446072D01*
X-1978929Y-4603214D01*
X-1836071Y-4603214D02*
X-1836071Y-4403214D01*
X-1836071Y-4431786D02*
X-1821786Y-4417500D01*
X-1793214Y-4403214D01*
X-1750357Y-4403214D01*
X-1721786Y-4417500D01*
X-1707500Y-4446072D01*
X-1707500Y-4603214D01*
X-1707500Y-4446072D02*
X-1693214Y-4417500D01*
X-1664643Y-4403214D01*
X-1621786Y-4403214D01*
X-1593214Y-4417500D01*
X-1578929Y-4446072D01*
X-1578929Y-4603214D01*
X-993214Y-4288929D02*
X-1250357Y-4674643D01*
X-607500Y-4303214D02*
X-578929Y-4303214D01*
X-550357Y-4317500D01*
X-536072Y-4331786D01*
X-521786Y-4360357D01*
X-507500Y-4417500D01*
X-507500Y-4488929D01*
X-521786Y-4546072D01*
X-536072Y-4574643D01*
X-550357Y-4588929D01*
X-578929Y-4603214D01*
X-607500Y-4603214D01*
X-636072Y-4588929D01*
X-650357Y-4574643D01*
X-664643Y-4546072D01*
X-678929Y-4488929D01*
X-678929Y-4417500D01*
X-664643Y-4360357D01*
X-650357Y-4331786D01*
X-636072Y-4317500D01*
X-607500Y-4303214D01*
X-378929Y-4574643D02*
X-364643Y-4588929D01*
X-378929Y-4603214D01*
X-393214Y-4588929D01*
X-378929Y-4574643D01*
X-378929Y-4603214D01*
X-178929Y-4303214D02*
X-150357Y-4303214D01*
X-121786Y-4317500D01*
X-107500Y-4331786D01*
X-93214Y-4360357D01*
X-78929Y-4417500D01*
X-78929Y-4488929D01*
X-93214Y-4546072D01*
X-107500Y-4574643D01*
X-121786Y-4588929D01*
X-150357Y-4603214D01*
X-178929Y-4603214D01*
X-207500Y-4588929D01*
X-221786Y-4574643D01*
X-236072Y-4546072D01*
X-250357Y-4488929D01*
X-250357Y-4417500D01*
X-236072Y-4360357D01*
X-221786Y-4331786D01*
X-207500Y-4317500D01*
X-178929Y-4303214D01*
X206785Y-4603214D02*
X35357Y-4603214D01*
X121071Y-4603214D02*
X121071Y-4303214D01*
X92500Y-4346072D01*
X63928Y-4374643D01*
X35357Y-4388929D01*
X463928Y-4303214D02*
X406785Y-4303214D01*
X378214Y-4317500D01*
X363928Y-4331786D01*
X335357Y-4374643D01*
X321071Y-4431786D01*
X321071Y-4546072D01*
X335357Y-4574643D01*
X349643Y-4588929D01*
X378214Y-4603214D01*
X435357Y-4603214D01*
X463928Y-4588929D01*
X478214Y-4574643D01*
X492500Y-4546072D01*
X492500Y-4474643D01*
X478214Y-4446072D01*
X463928Y-4431786D01*
X435357Y-4417500D01*
X378214Y-4417500D01*
X349643Y-4431786D01*
X335357Y-4446072D01*
X321071Y-4474643D01*
X606786Y-4303214D02*
X606786Y-4360357D01*
X721071Y-4303214D02*
X721071Y-4360357D01*
X1163928Y-4717500D02*
X1149643Y-4703214D01*
X1121071Y-4660357D01*
X1106786Y-4631786D01*
X1092500Y-4588929D01*
X1078214Y-4517500D01*
X1078214Y-4460357D01*
X1092500Y-4388929D01*
X1106786Y-4346072D01*
X1121071Y-4317500D01*
X1149643Y-4274643D01*
X1163928Y-4260357D01*
X1263928Y-4331786D02*
X1278214Y-4317500D01*
X1306786Y-4303214D01*
X1378214Y-4303214D01*
X1406785Y-4317500D01*
X1421071Y-4331786D01*
X1435357Y-4360357D01*
X1435357Y-4388929D01*
X1421071Y-4431786D01*
X1249643Y-4603214D01*
X1435357Y-4603214D01*
X1549643Y-4331786D02*
X1563928Y-4317500D01*
X1592500Y-4303214D01*
X1663928Y-4303214D01*
X1692500Y-4317500D01*
X1706785Y-4331786D01*
X1721071Y-4360357D01*
X1721071Y-4388929D01*
X1706785Y-4431786D01*
X1535357Y-4603214D01*
X1721071Y-4603214D01*
X1821071Y-4303214D02*
X2006785Y-4303214D01*
X1906785Y-4417500D01*
X1949643Y-4417500D01*
X1978214Y-4431786D01*
X1992500Y-4446072D01*
X2006785Y-4474643D01*
X2006785Y-4546072D01*
X1992500Y-4574643D01*
X1978214Y-4588929D01*
X1949643Y-4603214D01*
X1863928Y-4603214D01*
X1835357Y-4588929D01*
X1821071Y-4574643D01*
X2363928Y-4603214D02*
X2363928Y-4303214D01*
X2492500Y-4603214D02*
X2492500Y-4446072D01*
X2478214Y-4417500D01*
X2449643Y-4403214D01*
X2406786Y-4403214D01*
X2378214Y-4417500D01*
X2363928Y-4431786D01*
X2678214Y-4603214D02*
X2649643Y-4588929D01*
X2635357Y-4574643D01*
X2621071Y-4546072D01*
X2621071Y-4460357D01*
X2635357Y-4431786D01*
X2649643Y-4417500D01*
X2678214Y-4403214D01*
X2721071Y-4403214D01*
X2749643Y-4417500D01*
X2763928Y-4431786D01*
X2778214Y-4460357D01*
X2778214Y-4546072D01*
X2763928Y-4574643D01*
X2749643Y-4588929D01*
X2721071Y-4603214D01*
X2678214Y-4603214D01*
X2949643Y-4603214D02*
X2921071Y-4588929D01*
X2906786Y-4560357D01*
X2906786Y-4303214D01*
X3178214Y-4588929D02*
X3149643Y-4603214D01*
X3092500Y-4603214D01*
X3063928Y-4588929D01*
X3049643Y-4560357D01*
X3049643Y-4446072D01*
X3063928Y-4417500D01*
X3092500Y-4403214D01*
X3149643Y-4403214D01*
X3178214Y-4417500D01*
X3192500Y-4446072D01*
X3192500Y-4474643D01*
X3049643Y-4503214D01*
X3306786Y-4588929D02*
X3335357Y-4603214D01*
X3392500Y-4603214D01*
X3421071Y-4588929D01*
X3435357Y-4560357D01*
X3435357Y-4546072D01*
X3421071Y-4517500D01*
X3392500Y-4503214D01*
X3349643Y-4503214D01*
X3321071Y-4488929D01*
X3306786Y-4460357D01*
X3306786Y-4446072D01*
X3321071Y-4417500D01*
X3349643Y-4403214D01*
X3392500Y-4403214D01*
X3421071Y-4417500D01*
X3535357Y-4717500D02*
X3549643Y-4703214D01*
X3578214Y-4660357D01*
X3592500Y-4631786D01*
X3606786Y-4588929D01*
X3621071Y-4517500D01*
X3621071Y-4460357D01*
X3606786Y-4388929D01*
X3592500Y-4346072D01*
X3578214Y-4317500D01*
X3549643Y-4274643D01*
X3535357Y-4260357D01*
X-3507500Y-4863500D02*
G75*
G03X-3507500Y-4863500I-25000J0D01*
G01*
X-3178929Y-4699214D02*
X-3150357Y-4699214D01*
X-3121786Y-4713500D01*
X-3107500Y-4727786D01*
X-3093214Y-4756357D01*
X-3078929Y-4813500D01*
X-3078929Y-4884929D01*
X-3093214Y-4942072D01*
X-3107500Y-4970643D01*
X-3121786Y-4984929D01*
X-3150357Y-4999214D01*
X-3178929Y-4999214D01*
X-3207500Y-4984929D01*
X-3221786Y-4970643D01*
X-3236071Y-4942072D01*
X-3250357Y-4884929D01*
X-3250357Y-4813500D01*
X-3236071Y-4756357D01*
X-3221786Y-4727786D01*
X-3207500Y-4713500D01*
X-3178929Y-4699214D01*
X-2950357Y-4970643D02*
X-2936071Y-4984929D01*
X-2950357Y-4999214D01*
X-2964643Y-4984929D01*
X-2950357Y-4970643D01*
X-2950357Y-4999214D01*
X-2664643Y-4699214D02*
X-2807500Y-4699214D01*
X-2821786Y-4842072D01*
X-2807500Y-4827786D01*
X-2778929Y-4813500D01*
X-2707500Y-4813500D01*
X-2678929Y-4827786D01*
X-2664643Y-4842072D01*
X-2650357Y-4870643D01*
X-2650357Y-4942072D01*
X-2664643Y-4970643D01*
X-2678929Y-4984929D01*
X-2707500Y-4999214D01*
X-2778929Y-4999214D01*
X-2807500Y-4984929D01*
X-2821786Y-4970643D01*
X-2464643Y-4699214D02*
X-2436072Y-4699214D01*
X-2407500Y-4713500D01*
X-2393214Y-4727786D01*
X-2378929Y-4756357D01*
X-2364643Y-4813500D01*
X-2364643Y-4884929D01*
X-2378929Y-4942072D01*
X-2393214Y-4970643D01*
X-2407500Y-4984929D01*
X-2436072Y-4999214D01*
X-2464643Y-4999214D01*
X-2493214Y-4984929D01*
X-2507500Y-4970643D01*
X-2521786Y-4942072D01*
X-2536072Y-4884929D01*
X-2536072Y-4813500D01*
X-2521786Y-4756357D01*
X-2507500Y-4727786D01*
X-2493214Y-4713500D01*
X-2464643Y-4699214D01*
X-2236072Y-4999214D02*
X-2236072Y-4799214D01*
X-2236072Y-4827786D02*
X-2221786Y-4813500D01*
X-2193214Y-4799214D01*
X-2150357Y-4799214D01*
X-2121786Y-4813500D01*
X-2107500Y-4842072D01*
X-2107500Y-4999214D01*
X-2107500Y-4842072D02*
X-2093214Y-4813500D01*
X-2064643Y-4799214D01*
X-2021786Y-4799214D01*
X-1993214Y-4813500D01*
X-1978929Y-4842072D01*
X-1978929Y-4999214D01*
X-1836071Y-4999214D02*
X-1836071Y-4799214D01*
X-1836071Y-4827786D02*
X-1821786Y-4813500D01*
X-1793214Y-4799214D01*
X-1750357Y-4799214D01*
X-1721786Y-4813500D01*
X-1707500Y-4842072D01*
X-1707500Y-4999214D01*
X-1707500Y-4842072D02*
X-1693214Y-4813500D01*
X-1664643Y-4799214D01*
X-1621786Y-4799214D01*
X-1593214Y-4813500D01*
X-1578929Y-4842072D01*
X-1578929Y-4999214D01*
X-993214Y-4684929D02*
X-1250357Y-5070643D01*
X-607500Y-4699214D02*
X-578929Y-4699214D01*
X-550357Y-4713500D01*
X-536072Y-4727786D01*
X-521786Y-4756357D01*
X-507500Y-4813500D01*
X-507500Y-4884929D01*
X-521786Y-4942072D01*
X-536072Y-4970643D01*
X-550357Y-4984929D01*
X-578929Y-4999214D01*
X-607500Y-4999214D01*
X-636072Y-4984929D01*
X-650357Y-4970643D01*
X-664643Y-4942072D01*
X-678929Y-4884929D01*
X-678929Y-4813500D01*
X-664643Y-4756357D01*
X-650357Y-4727786D01*
X-636072Y-4713500D01*
X-607500Y-4699214D01*
X-378929Y-4970643D02*
X-364643Y-4984929D01*
X-378929Y-4999214D01*
X-393214Y-4984929D01*
X-378929Y-4970643D01*
X-378929Y-4999214D01*
X-178929Y-4699214D02*
X-150357Y-4699214D01*
X-121786Y-4713500D01*
X-107500Y-4727786D01*
X-93214Y-4756357D01*
X-78929Y-4813500D01*
X-78929Y-4884929D01*
X-93214Y-4942072D01*
X-107500Y-4970643D01*
X-121786Y-4984929D01*
X-150357Y-4999214D01*
X-178929Y-4999214D01*
X-207500Y-4984929D01*
X-221786Y-4970643D01*
X-236072Y-4942072D01*
X-250357Y-4884929D01*
X-250357Y-4813500D01*
X-236072Y-4756357D01*
X-221786Y-4727786D01*
X-207500Y-4713500D01*
X-178929Y-4699214D01*
X35357Y-4727786D02*
X49643Y-4713500D01*
X78214Y-4699214D01*
X149643Y-4699214D01*
X178214Y-4713500D01*
X192500Y-4727786D01*
X206785Y-4756357D01*
X206785Y-4784929D01*
X192500Y-4827786D01*
X21071Y-4999214D01*
X206785Y-4999214D01*
X392500Y-4699214D02*
X421071Y-4699214D01*
X449643Y-4713500D01*
X463928Y-4727786D01*
X478214Y-4756357D01*
X492500Y-4813500D01*
X492500Y-4884929D01*
X478214Y-4942072D01*
X463928Y-4970643D01*
X449643Y-4984929D01*
X421071Y-4999214D01*
X392500Y-4999214D01*
X363928Y-4984929D01*
X349643Y-4970643D01*
X335357Y-4942072D01*
X321071Y-4884929D01*
X321071Y-4813500D01*
X335357Y-4756357D01*
X349643Y-4727786D01*
X363928Y-4713500D01*
X392500Y-4699214D01*
X606786Y-4699214D02*
X606786Y-4756357D01*
X721071Y-4699214D02*
X721071Y-4756357D01*
X1163928Y-5113500D02*
X1149643Y-5099214D01*
X1121071Y-5056357D01*
X1106786Y-5027786D01*
X1092500Y-4984929D01*
X1078214Y-4913500D01*
X1078214Y-4856357D01*
X1092500Y-4784929D01*
X1106786Y-4742072D01*
X1121071Y-4713500D01*
X1149643Y-4670643D01*
X1163928Y-4656357D01*
X1335357Y-4699214D02*
X1363928Y-4699214D01*
X1392500Y-4713500D01*
X1406785Y-4727786D01*
X1421071Y-4756357D01*
X1435357Y-4813500D01*
X1435357Y-4884929D01*
X1421071Y-4942072D01*
X1406785Y-4970643D01*
X1392500Y-4984929D01*
X1363928Y-4999214D01*
X1335357Y-4999214D01*
X1306786Y-4984929D01*
X1292500Y-4970643D01*
X1278214Y-4942072D01*
X1263928Y-4884929D01*
X1263928Y-4813500D01*
X1278214Y-4756357D01*
X1292500Y-4727786D01*
X1306786Y-4713500D01*
X1335357Y-4699214D01*
X1792500Y-4999214D02*
X1792500Y-4699214D01*
X1921071Y-4999214D02*
X1921071Y-4842072D01*
X1906785Y-4813500D01*
X1878214Y-4799214D01*
X1835357Y-4799214D01*
X1806785Y-4813500D01*
X1792500Y-4827786D01*
X2106786Y-4999214D02*
X2078214Y-4984929D01*
X2063928Y-4970643D01*
X2049643Y-4942072D01*
X2049643Y-4856357D01*
X2063928Y-4827786D01*
X2078214Y-4813500D01*
X2106786Y-4799214D01*
X2149643Y-4799214D01*
X2178214Y-4813500D01*
X2192500Y-4827786D01*
X2206786Y-4856357D01*
X2206786Y-4942072D01*
X2192500Y-4970643D01*
X2178214Y-4984929D01*
X2149643Y-4999214D01*
X2106786Y-4999214D01*
X2378214Y-4999214D02*
X2349643Y-4984929D01*
X2335357Y-4956357D01*
X2335357Y-4699214D01*
X2606786Y-4984929D02*
X2578214Y-4999214D01*
X2521071Y-4999214D01*
X2492500Y-4984929D01*
X2478214Y-4956357D01*
X2478214Y-4842072D01*
X2492500Y-4813500D01*
X2521071Y-4799214D01*
X2578214Y-4799214D01*
X2606786Y-4813500D01*
X2621071Y-4842072D01*
X2621071Y-4870643D01*
X2478214Y-4899214D01*
X2735357Y-4984929D02*
X2763929Y-4999214D01*
X2821071Y-4999214D01*
X2849643Y-4984929D01*
X2863928Y-4956357D01*
X2863928Y-4942072D01*
X2849643Y-4913500D01*
X2821071Y-4899214D01*
X2778214Y-4899214D01*
X2749643Y-4884929D01*
X2735357Y-4856357D01*
X2735357Y-4842072D01*
X2749643Y-4813500D01*
X2778214Y-4799214D01*
X2821071Y-4799214D01*
X2849643Y-4813500D01*
X3221071Y-4884929D02*
X3449643Y-4884929D01*
X3335357Y-4999214D02*
X3335357Y-4770643D01*
X3806786Y-4727786D02*
X3821071Y-4713500D01*
X3849643Y-4699214D01*
X3921071Y-4699214D01*
X3949643Y-4713500D01*
X3963928Y-4727786D01*
X3978214Y-4756357D01*
X3978214Y-4784929D01*
X3963928Y-4827786D01*
X3792500Y-4999214D01*
X3978214Y-4999214D01*
X4321071Y-4984929D02*
X4349643Y-4999214D01*
X4406786Y-4999214D01*
X4435357Y-4984929D01*
X4449643Y-4956357D01*
X4449643Y-4942072D01*
X4435357Y-4913500D01*
X4406786Y-4899214D01*
X4363928Y-4899214D01*
X4335357Y-4884929D01*
X4321071Y-4856357D01*
X4321071Y-4842072D01*
X4335357Y-4813500D01*
X4363928Y-4799214D01*
X4406786Y-4799214D01*
X4435357Y-4813500D01*
X4621071Y-4999214D02*
X4592500Y-4984929D01*
X4578214Y-4956357D01*
X4578214Y-4699214D01*
X4778214Y-4999214D02*
X4749643Y-4984929D01*
X4735357Y-4970643D01*
X4721071Y-4942072D01*
X4721071Y-4856357D01*
X4735357Y-4827786D01*
X4749643Y-4813500D01*
X4778214Y-4799214D01*
X4821071Y-4799214D01*
X4849643Y-4813500D01*
X4863928Y-4827786D01*
X4878214Y-4856357D01*
X4878214Y-4942072D01*
X4863928Y-4970643D01*
X4849643Y-4984929D01*
X4821071Y-4999214D01*
X4778214Y-4999214D01*
X4963928Y-4799214D02*
X5078214Y-4799214D01*
X5006786Y-4699214D02*
X5006786Y-4956357D01*
X5021071Y-4984929D01*
X5049643Y-4999214D01*
X5078214Y-4999214D01*
X5163929Y-4984929D02*
X5192500Y-4999214D01*
X5249643Y-4999214D01*
X5278214Y-4984929D01*
X5292500Y-4956357D01*
X5292500Y-4942072D01*
X5278214Y-4913500D01*
X5249643Y-4899214D01*
X5206786Y-4899214D01*
X5178214Y-4884929D01*
X5163929Y-4856357D01*
X5163929Y-4842072D01*
X5178214Y-4813500D01*
X5206786Y-4799214D01*
X5249643Y-4799214D01*
X5278214Y-4813500D01*
X5392500Y-5113500D02*
X5406786Y-5099214D01*
X5435357Y-5056357D01*
X5449643Y-5027786D01*
X5463928Y-4984929D01*
X5478214Y-4913500D01*
X5478214Y-4856357D01*
X5463928Y-4784929D01*
X5449643Y-4742072D01*
X5435357Y-4713500D01*
X5406786Y-4670643D01*
X5392500Y-4656357D01*
X-3535000Y-5232000D02*
X-3535000Y-5287000D01*
X-3562500Y-5259500D02*
X-3507500Y-5259500D01*
X-3178929Y-5095214D02*
X-3150357Y-5095214D01*
X-3121786Y-5109500D01*
X-3107500Y-5123786D01*
X-3093214Y-5152357D01*
X-3078929Y-5209500D01*
X-3078929Y-5280929D01*
X-3093214Y-5338072D01*
X-3107500Y-5366643D01*
X-3121786Y-5380929D01*
X-3150357Y-5395214D01*
X-3178929Y-5395214D01*
X-3207500Y-5380929D01*
X-3221786Y-5366643D01*
X-3236071Y-5338072D01*
X-3250357Y-5280929D01*
X-3250357Y-5209500D01*
X-3236071Y-5152357D01*
X-3221786Y-5123786D01*
X-3207500Y-5109500D01*
X-3178929Y-5095214D01*
X-2950357Y-5366643D02*
X-2936071Y-5380929D01*
X-2950357Y-5395214D01*
X-2964643Y-5380929D01*
X-2950357Y-5366643D01*
X-2950357Y-5395214D01*
X-2664643Y-5095214D02*
X-2807500Y-5095214D01*
X-2821786Y-5238072D01*
X-2807500Y-5223786D01*
X-2778929Y-5209500D01*
X-2707500Y-5209500D01*
X-2678929Y-5223786D01*
X-2664643Y-5238072D01*
X-2650357Y-5266643D01*
X-2650357Y-5338072D01*
X-2664643Y-5366643D01*
X-2678929Y-5380929D01*
X-2707500Y-5395214D01*
X-2778929Y-5395214D01*
X-2807500Y-5380929D01*
X-2821786Y-5366643D01*
X-2378929Y-5095214D02*
X-2521786Y-5095214D01*
X-2536072Y-5238072D01*
X-2521786Y-5223786D01*
X-2493214Y-5209500D01*
X-2421786Y-5209500D01*
X-2393214Y-5223786D01*
X-2378929Y-5238072D01*
X-2364643Y-5266643D01*
X-2364643Y-5338072D01*
X-2378929Y-5366643D01*
X-2393214Y-5380929D01*
X-2421786Y-5395214D01*
X-2493214Y-5395214D01*
X-2521786Y-5380929D01*
X-2536072Y-5366643D01*
X-2236072Y-5395214D02*
X-2236072Y-5195214D01*
X-2236072Y-5223786D02*
X-2221786Y-5209500D01*
X-2193214Y-5195214D01*
X-2150357Y-5195214D01*
X-2121786Y-5209500D01*
X-2107500Y-5238072D01*
X-2107500Y-5395214D01*
X-2107500Y-5238072D02*
X-2093214Y-5209500D01*
X-2064643Y-5195214D01*
X-2021786Y-5195214D01*
X-1993214Y-5209500D01*
X-1978929Y-5238072D01*
X-1978929Y-5395214D01*
X-1836071Y-5395214D02*
X-1836071Y-5195214D01*
X-1836071Y-5223786D02*
X-1821786Y-5209500D01*
X-1793214Y-5195214D01*
X-1750357Y-5195214D01*
X-1721786Y-5209500D01*
X-1707500Y-5238072D01*
X-1707500Y-5395214D01*
X-1707500Y-5238072D02*
X-1693214Y-5209500D01*
X-1664643Y-5195214D01*
X-1621786Y-5195214D01*
X-1593214Y-5209500D01*
X-1578929Y-5238072D01*
X-1578929Y-5395214D01*
X-993214Y-5080929D02*
X-1250357Y-5466643D01*
X-607500Y-5095214D02*
X-578929Y-5095214D01*
X-550357Y-5109500D01*
X-536072Y-5123786D01*
X-521786Y-5152357D01*
X-507500Y-5209500D01*
X-507500Y-5280929D01*
X-521786Y-5338072D01*
X-536072Y-5366643D01*
X-550357Y-5380929D01*
X-578929Y-5395214D01*
X-607500Y-5395214D01*
X-636072Y-5380929D01*
X-650357Y-5366643D01*
X-664643Y-5338072D01*
X-678929Y-5280929D01*
X-678929Y-5209500D01*
X-664643Y-5152357D01*
X-650357Y-5123786D01*
X-636072Y-5109500D01*
X-607500Y-5095214D01*
X-378929Y-5366643D02*
X-364643Y-5380929D01*
X-378929Y-5395214D01*
X-393214Y-5380929D01*
X-378929Y-5366643D01*
X-378929Y-5395214D01*
X-178929Y-5095214D02*
X-150357Y-5095214D01*
X-121786Y-5109500D01*
X-107500Y-5123786D01*
X-93214Y-5152357D01*
X-78929Y-5209500D01*
X-78929Y-5280929D01*
X-93214Y-5338072D01*
X-107500Y-5366643D01*
X-121786Y-5380929D01*
X-150357Y-5395214D01*
X-178929Y-5395214D01*
X-207500Y-5380929D01*
X-221786Y-5366643D01*
X-236072Y-5338072D01*
X-250357Y-5280929D01*
X-250357Y-5209500D01*
X-236072Y-5152357D01*
X-221786Y-5123786D01*
X-207500Y-5109500D01*
X-178929Y-5095214D01*
X35357Y-5123786D02*
X49643Y-5109500D01*
X78214Y-5095214D01*
X149643Y-5095214D01*
X178214Y-5109500D01*
X192500Y-5123786D01*
X206785Y-5152357D01*
X206785Y-5180929D01*
X192500Y-5223786D01*
X21071Y-5395214D01*
X206785Y-5395214D01*
X321071Y-5123786D02*
X335357Y-5109500D01*
X363928Y-5095214D01*
X435357Y-5095214D01*
X463928Y-5109500D01*
X478214Y-5123786D01*
X492500Y-5152357D01*
X492500Y-5180929D01*
X478214Y-5223786D01*
X306786Y-5395214D01*
X492500Y-5395214D01*
X606786Y-5095214D02*
X606786Y-5152357D01*
X721071Y-5095214D02*
X721071Y-5152357D01*
X1163928Y-5509500D02*
X1149643Y-5495214D01*
X1121071Y-5452357D01*
X1106786Y-5423786D01*
X1092500Y-5380929D01*
X1078214Y-5309500D01*
X1078214Y-5252357D01*
X1092500Y-5180929D01*
X1106786Y-5138072D01*
X1121071Y-5109500D01*
X1149643Y-5066643D01*
X1163928Y-5052357D01*
X1335357Y-5095214D02*
X1363928Y-5095214D01*
X1392500Y-5109500D01*
X1406785Y-5123786D01*
X1421071Y-5152357D01*
X1435357Y-5209500D01*
X1435357Y-5280929D01*
X1421071Y-5338072D01*
X1406785Y-5366643D01*
X1392500Y-5380929D01*
X1363928Y-5395214D01*
X1335357Y-5395214D01*
X1306786Y-5380929D01*
X1292500Y-5366643D01*
X1278214Y-5338072D01*
X1263928Y-5280929D01*
X1263928Y-5209500D01*
X1278214Y-5152357D01*
X1292500Y-5123786D01*
X1306786Y-5109500D01*
X1335357Y-5095214D01*
X1792500Y-5395214D02*
X1792500Y-5095214D01*
X1921071Y-5395214D02*
X1921071Y-5238072D01*
X1906785Y-5209500D01*
X1878214Y-5195214D01*
X1835357Y-5195214D01*
X1806785Y-5209500D01*
X1792500Y-5223786D01*
X2106786Y-5395214D02*
X2078214Y-5380929D01*
X2063928Y-5366643D01*
X2049643Y-5338072D01*
X2049643Y-5252357D01*
X2063928Y-5223786D01*
X2078214Y-5209500D01*
X2106786Y-5195214D01*
X2149643Y-5195214D01*
X2178214Y-5209500D01*
X2192500Y-5223786D01*
X2206786Y-5252357D01*
X2206786Y-5338072D01*
X2192500Y-5366643D01*
X2178214Y-5380929D01*
X2149643Y-5395214D01*
X2106786Y-5395214D01*
X2378214Y-5395214D02*
X2349643Y-5380929D01*
X2335357Y-5352357D01*
X2335357Y-5095214D01*
X2606786Y-5380929D02*
X2578214Y-5395214D01*
X2521071Y-5395214D01*
X2492500Y-5380929D01*
X2478214Y-5352357D01*
X2478214Y-5238072D01*
X2492500Y-5209500D01*
X2521071Y-5195214D01*
X2578214Y-5195214D01*
X2606786Y-5209500D01*
X2621071Y-5238072D01*
X2621071Y-5266643D01*
X2478214Y-5295214D01*
X2735357Y-5380929D02*
X2763929Y-5395214D01*
X2821071Y-5395214D01*
X2849643Y-5380929D01*
X2863928Y-5352357D01*
X2863928Y-5338072D01*
X2849643Y-5309500D01*
X2821071Y-5295214D01*
X2778214Y-5295214D01*
X2749643Y-5280929D01*
X2735357Y-5252357D01*
X2735357Y-5238072D01*
X2749643Y-5209500D01*
X2778214Y-5195214D01*
X2821071Y-5195214D01*
X2849643Y-5209500D01*
X3221071Y-5280929D02*
X3449643Y-5280929D01*
X3335357Y-5395214D02*
X3335357Y-5166643D01*
X3806786Y-5123786D02*
X3821071Y-5109500D01*
X3849643Y-5095214D01*
X3921071Y-5095214D01*
X3949643Y-5109500D01*
X3963928Y-5123786D01*
X3978214Y-5152357D01*
X3978214Y-5180929D01*
X3963928Y-5223786D01*
X3792500Y-5395214D01*
X3978214Y-5395214D01*
X4321071Y-5380929D02*
X4349643Y-5395214D01*
X4406786Y-5395214D01*
X4435357Y-5380929D01*
X4449643Y-5352357D01*
X4449643Y-5338072D01*
X4435357Y-5309500D01*
X4406786Y-5295214D01*
X4363928Y-5295214D01*
X4335357Y-5280929D01*
X4321071Y-5252357D01*
X4321071Y-5238072D01*
X4335357Y-5209500D01*
X4363928Y-5195214D01*
X4406786Y-5195214D01*
X4435357Y-5209500D01*
X4621071Y-5395214D02*
X4592500Y-5380929D01*
X4578214Y-5352357D01*
X4578214Y-5095214D01*
X4778214Y-5395214D02*
X4749643Y-5380929D01*
X4735357Y-5366643D01*
X4721071Y-5338072D01*
X4721071Y-5252357D01*
X4735357Y-5223786D01*
X4749643Y-5209500D01*
X4778214Y-5195214D01*
X4821071Y-5195214D01*
X4849643Y-5209500D01*
X4863928Y-5223786D01*
X4878214Y-5252357D01*
X4878214Y-5338072D01*
X4863928Y-5366643D01*
X4849643Y-5380929D01*
X4821071Y-5395214D01*
X4778214Y-5395214D01*
X4963928Y-5195214D02*
X5078214Y-5195214D01*
X5006786Y-5095214D02*
X5006786Y-5352357D01*
X5021071Y-5380929D01*
X5049643Y-5395214D01*
X5078214Y-5395214D01*
X5163929Y-5380929D02*
X5192500Y-5395214D01*
X5249643Y-5395214D01*
X5278214Y-5380929D01*
X5292500Y-5352357D01*
X5292500Y-5338072D01*
X5278214Y-5309500D01*
X5249643Y-5295214D01*
X5206786Y-5295214D01*
X5178214Y-5280929D01*
X5163929Y-5252357D01*
X5163929Y-5238072D01*
X5178214Y-5209500D01*
X5206786Y-5195214D01*
X5249643Y-5195214D01*
X5278214Y-5209500D01*
X5392500Y-5509500D02*
X5406786Y-5495214D01*
X5435357Y-5452357D01*
X5449643Y-5423786D01*
X5463928Y-5380929D01*
X5478214Y-5309500D01*
X5478214Y-5252357D01*
X5463928Y-5180929D01*
X5449643Y-5138072D01*
X5435357Y-5109500D01*
X5406786Y-5066643D01*
X5392500Y-5052357D01*
X-3522379Y-5691421D02*
X-3522379Y-5619579D01*
X-3594221Y-5619579D01*
X-3594221Y-5691421D01*
X-3522379Y-5691421D01*
X-3078929Y-5791214D02*
X-3250357Y-5791214D01*
X-3164643Y-5791214D02*
X-3164643Y-5491214D01*
X-3193214Y-5534072D01*
X-3221786Y-5562643D01*
X-3250357Y-5576929D01*
X-2950357Y-5762643D02*
X-2936071Y-5776929D01*
X-2950357Y-5791214D01*
X-2964643Y-5776929D01*
X-2950357Y-5762643D01*
X-2950357Y-5791214D01*
X-2750357Y-5491214D02*
X-2721786Y-5491214D01*
X-2693214Y-5505500D01*
X-2678929Y-5519786D01*
X-2664643Y-5548357D01*
X-2650357Y-5605500D01*
X-2650357Y-5676929D01*
X-2664643Y-5734071D01*
X-2678929Y-5762643D01*
X-2693214Y-5776929D01*
X-2721786Y-5791214D01*
X-2750357Y-5791214D01*
X-2778929Y-5776929D01*
X-2793214Y-5762643D01*
X-2807500Y-5734071D01*
X-2821786Y-5676929D01*
X-2821786Y-5605500D01*
X-2807500Y-5548357D01*
X-2793214Y-5519786D01*
X-2778929Y-5505500D01*
X-2750357Y-5491214D01*
X-2536072Y-5519786D02*
X-2521786Y-5505500D01*
X-2493214Y-5491214D01*
X-2421786Y-5491214D01*
X-2393214Y-5505500D01*
X-2378929Y-5519786D01*
X-2364643Y-5548357D01*
X-2364643Y-5576929D01*
X-2378929Y-5619786D01*
X-2550357Y-5791214D01*
X-2364643Y-5791214D01*
X-2236072Y-5791214D02*
X-2236072Y-5591214D01*
X-2236072Y-5619786D02*
X-2221786Y-5605500D01*
X-2193214Y-5591214D01*
X-2150357Y-5591214D01*
X-2121786Y-5605500D01*
X-2107500Y-5634071D01*
X-2107500Y-5791214D01*
X-2107500Y-5634071D02*
X-2093214Y-5605500D01*
X-2064643Y-5591214D01*
X-2021786Y-5591214D01*
X-1993214Y-5605500D01*
X-1978929Y-5634071D01*
X-1978929Y-5791214D01*
X-1836071Y-5791214D02*
X-1836071Y-5591214D01*
X-1836071Y-5619786D02*
X-1821786Y-5605500D01*
X-1793214Y-5591214D01*
X-1750357Y-5591214D01*
X-1721786Y-5605500D01*
X-1707500Y-5634071D01*
X-1707500Y-5791214D01*
X-1707500Y-5634071D02*
X-1693214Y-5605500D01*
X-1664643Y-5591214D01*
X-1621786Y-5591214D01*
X-1593214Y-5605500D01*
X-1578929Y-5634071D01*
X-1578929Y-5791214D01*
X-993214Y-5476929D02*
X-1250357Y-5862643D01*
X-607500Y-5491214D02*
X-578929Y-5491214D01*
X-550357Y-5505500D01*
X-536072Y-5519786D01*
X-521786Y-5548357D01*
X-507500Y-5605500D01*
X-507500Y-5676929D01*
X-521786Y-5734071D01*
X-536072Y-5762643D01*
X-550357Y-5776929D01*
X-578929Y-5791214D01*
X-607500Y-5791214D01*
X-636072Y-5776929D01*
X-650357Y-5762643D01*
X-664643Y-5734071D01*
X-678929Y-5676929D01*
X-678929Y-5605500D01*
X-664643Y-5548357D01*
X-650357Y-5519786D01*
X-636072Y-5505500D01*
X-607500Y-5491214D01*
X-378929Y-5762643D02*
X-364643Y-5776929D01*
X-378929Y-5791214D01*
X-393214Y-5776929D01*
X-378929Y-5762643D01*
X-378929Y-5791214D01*
X-178929Y-5491214D02*
X-150357Y-5491214D01*
X-121786Y-5505500D01*
X-107500Y-5519786D01*
X-93214Y-5548357D01*
X-78929Y-5605500D01*
X-78929Y-5676929D01*
X-93214Y-5734071D01*
X-107500Y-5762643D01*
X-121786Y-5776929D01*
X-150357Y-5791214D01*
X-178929Y-5791214D01*
X-207500Y-5776929D01*
X-221786Y-5762643D01*
X-236072Y-5734071D01*
X-250357Y-5676929D01*
X-250357Y-5605500D01*
X-236072Y-5548357D01*
X-221786Y-5519786D01*
X-207500Y-5505500D01*
X-178929Y-5491214D01*
X178214Y-5591214D02*
X178214Y-5791214D01*
X106785Y-5476929D02*
X35357Y-5691214D01*
X221071Y-5691214D01*
X392500Y-5491214D02*
X421071Y-5491214D01*
X449643Y-5505500D01*
X463928Y-5519786D01*
X478214Y-5548357D01*
X492500Y-5605500D01*
X492500Y-5676929D01*
X478214Y-5734071D01*
X463928Y-5762643D01*
X449643Y-5776929D01*
X421071Y-5791214D01*
X392500Y-5791214D01*
X363928Y-5776929D01*
X349643Y-5762643D01*
X335357Y-5734071D01*
X321071Y-5676929D01*
X321071Y-5605500D01*
X335357Y-5548357D01*
X349643Y-5519786D01*
X363928Y-5505500D01*
X392500Y-5491214D01*
X606786Y-5491214D02*
X606786Y-5548357D01*
X721071Y-5491214D02*
X721071Y-5548357D01*
X1163928Y-5905500D02*
X1149643Y-5891214D01*
X1121071Y-5848357D01*
X1106786Y-5819786D01*
X1092500Y-5776929D01*
X1078214Y-5705500D01*
X1078214Y-5648357D01*
X1092500Y-5576929D01*
X1106786Y-5534072D01*
X1121071Y-5505500D01*
X1149643Y-5462643D01*
X1163928Y-5448357D01*
X1292500Y-5791214D02*
X1349643Y-5791214D01*
X1378214Y-5776929D01*
X1392500Y-5762643D01*
X1421071Y-5719786D01*
X1435357Y-5662643D01*
X1435357Y-5548357D01*
X1421071Y-5519786D01*
X1406785Y-5505500D01*
X1378214Y-5491214D01*
X1321071Y-5491214D01*
X1292500Y-5505500D01*
X1278214Y-5519786D01*
X1263928Y-5548357D01*
X1263928Y-5619786D01*
X1278214Y-5648357D01*
X1292500Y-5662643D01*
X1321071Y-5676929D01*
X1378214Y-5676929D01*
X1406785Y-5662643D01*
X1421071Y-5648357D01*
X1435357Y-5619786D01*
X1706785Y-5491214D02*
X1563928Y-5491214D01*
X1549643Y-5634071D01*
X1563928Y-5619786D01*
X1592500Y-5605500D01*
X1663928Y-5605500D01*
X1692500Y-5619786D01*
X1706785Y-5634071D01*
X1721071Y-5662643D01*
X1721071Y-5734071D01*
X1706785Y-5762643D01*
X1692500Y-5776929D01*
X1663928Y-5791214D01*
X1592500Y-5791214D01*
X1563928Y-5776929D01*
X1549643Y-5762643D01*
X2078214Y-5791214D02*
X2078214Y-5491214D01*
X2206786Y-5791214D02*
X2206786Y-5634071D01*
X2192500Y-5605500D01*
X2163928Y-5591214D01*
X2121071Y-5591214D01*
X2092500Y-5605500D01*
X2078214Y-5619786D01*
X2392500Y-5791214D02*
X2363928Y-5776929D01*
X2349643Y-5762643D01*
X2335357Y-5734071D01*
X2335357Y-5648357D01*
X2349643Y-5619786D01*
X2363928Y-5605500D01*
X2392500Y-5591214D01*
X2435357Y-5591214D01*
X2463928Y-5605500D01*
X2478214Y-5619786D01*
X2492500Y-5648357D01*
X2492500Y-5734071D01*
X2478214Y-5762643D01*
X2463928Y-5776929D01*
X2435357Y-5791214D01*
X2392500Y-5791214D01*
X2663928Y-5791214D02*
X2635357Y-5776929D01*
X2621071Y-5748357D01*
X2621071Y-5491214D01*
X2892500Y-5776929D02*
X2863928Y-5791214D01*
X2806786Y-5791214D01*
X2778214Y-5776929D01*
X2763929Y-5748357D01*
X2763929Y-5634071D01*
X2778214Y-5605500D01*
X2806786Y-5591214D01*
X2863928Y-5591214D01*
X2892500Y-5605500D01*
X2906786Y-5634071D01*
X2906786Y-5662643D01*
X2763929Y-5691214D01*
X3021071Y-5776929D02*
X3049643Y-5791214D01*
X3106786Y-5791214D01*
X3135357Y-5776929D01*
X3149643Y-5748357D01*
X3149643Y-5734071D01*
X3135357Y-5705500D01*
X3106786Y-5691214D01*
X3063928Y-5691214D01*
X3035357Y-5676929D01*
X3021071Y-5648357D01*
X3021071Y-5634071D01*
X3035357Y-5605500D01*
X3063928Y-5591214D01*
X3106786Y-5591214D01*
X3135357Y-5605500D01*
X3249643Y-5905500D02*
X3263928Y-5891214D01*
X3292500Y-5848357D01*
X3306786Y-5819786D01*
X3321071Y-5776929D01*
X3335357Y-5705500D01*
X3335357Y-5648357D01*
X3321071Y-5576929D01*
X3306786Y-5534072D01*
X3292500Y-5505500D01*
X3263928Y-5462643D01*
X3249643Y-5448357D01*
M02*
