G04 #@! TF.FileFunction,Copper,L3,Inr,Plane*
%FSLAX46Y46*%
G04 Gerber Fmt 4.6, Leading zero omitted, Abs format (unit mm)*
G04 Created by KiCad (PCBNEW 4.0.6-e0-6349~53~ubuntu14.04.1) date Tue Apr  4 23:52:44 2017*
%MOMM*%
%LPD*%
G01*
G04 APERTURE LIST*
%ADD10C,0.200000*%
%ADD11C,3.500000*%
%ADD12C,1.727200*%
%ADD13R,1.727200X1.727200*%
%ADD14O,1.727200X1.727200*%
%ADD15C,0.950000*%
%ADD16C,1.550000*%
%ADD17C,0.600000*%
%ADD18C,0.250000*%
%ADD19C,0.254000*%
G04 APERTURE END LIST*
D10*
D11*
X-28575000Y17780000D03*
D10*
G36*
X14077763Y24705922D02*
X12640922Y26142763D01*
X13862237Y27364078D01*
X15299078Y25927237D01*
X14077763Y24705922D01*
X14077763Y24705922D01*
G37*
D12*
X15658288Y27938814D02*
X15873814Y27723288D01*
X17454339Y29734865D02*
X17669865Y29519339D01*
D13*
X11430000Y-28575000D03*
D14*
X11430000Y-31115000D03*
X8890000Y-28575000D03*
X8890000Y-31115000D03*
X6350000Y-28575000D03*
X6350000Y-31115000D03*
X3810000Y-28575000D03*
X3810000Y-31115000D03*
X1270000Y-28575000D03*
X1270000Y-31115000D03*
X-1270000Y-28575000D03*
X-1270000Y-31115000D03*
X-3810000Y-28575000D03*
X-3810000Y-31115000D03*
X-6350000Y-28575000D03*
X-6350000Y-31115000D03*
X-8890000Y-28575000D03*
X-8890000Y-31115000D03*
X-11430000Y-28575000D03*
X-11430000Y-31115000D03*
D13*
X-28575000Y-11430000D03*
D14*
X-31115000Y-11430000D03*
X-28575000Y-8890000D03*
X-31115000Y-8890000D03*
X-28575000Y-6350000D03*
X-31115000Y-6350000D03*
X-28575000Y-3810000D03*
X-31115000Y-3810000D03*
X-28575000Y-1270000D03*
X-31115000Y-1270000D03*
X-28575000Y1270000D03*
X-31115000Y1270000D03*
X-28575000Y3810000D03*
X-31115000Y3810000D03*
X-28575000Y6350000D03*
X-31115000Y6350000D03*
X-28575000Y8890000D03*
X-31115000Y8890000D03*
X-28575000Y11430000D03*
X-31115000Y11430000D03*
D13*
X-11430000Y28575000D03*
D14*
X-11430000Y31115000D03*
X-8890000Y28575000D03*
X-8890000Y31115000D03*
X-6350000Y28575000D03*
X-6350000Y31115000D03*
X-3810000Y28575000D03*
X-3810000Y31115000D03*
X-1270000Y28575000D03*
X-1270000Y31115000D03*
X1270000Y28575000D03*
X1270000Y31115000D03*
X3810000Y28575000D03*
X3810000Y31115000D03*
X6350000Y28575000D03*
X6350000Y31115000D03*
X8890000Y28575000D03*
X8890000Y31115000D03*
X11430000Y28575000D03*
X11430000Y31115000D03*
D13*
X28575000Y11430000D03*
D14*
X31115000Y11430000D03*
X28575000Y8890000D03*
X31115000Y8890000D03*
X28575000Y6350000D03*
X31115000Y6350000D03*
X28575000Y3810000D03*
X31115000Y3810000D03*
X28575000Y1270000D03*
X31115000Y1270000D03*
X28575000Y-1270000D03*
X31115000Y-1270000D03*
X28575000Y-3810000D03*
X31115000Y-3810000D03*
X28575000Y-6350000D03*
X31115000Y-6350000D03*
X28575000Y-8890000D03*
X31115000Y-8890000D03*
X28575000Y-11430000D03*
X31115000Y-11430000D03*
D15*
X-19986714Y-23523521D03*
X-23522248Y-19987987D03*
D16*
X-21188796Y-26139816D03*
X-26138543Y-21190068D03*
D10*
G36*
X-25290000Y20478685D02*
X-26511315Y21700000D01*
X-25290000Y22921315D01*
X-24068685Y21700000D01*
X-25290000Y20478685D01*
X-25290000Y20478685D01*
G37*
D12*
X-23493949Y19903949D02*
X-23493949Y19903949D01*
X-23493949Y23496051D02*
X-23493949Y23496051D01*
X-21697898Y21700000D02*
X-21697898Y21700000D01*
X-21697898Y25292102D02*
X-21697898Y25292102D01*
X-19901846Y23496051D02*
X-19901846Y23496051D01*
D10*
G36*
X25290000Y-20478685D02*
X26511315Y-21700000D01*
X25290000Y-22921315D01*
X24068685Y-21700000D01*
X25290000Y-20478685D01*
X25290000Y-20478685D01*
G37*
D12*
X23493949Y-19903949D02*
X23493949Y-19903949D01*
X23493949Y-23496051D02*
X23493949Y-23496051D01*
X21697898Y-21700000D02*
X21697898Y-21700000D01*
X21697898Y-25292102D02*
X21697898Y-25292102D01*
X19901846Y-23496051D02*
X19901846Y-23496051D01*
D11*
X-17780000Y28575000D03*
X28575000Y-17780000D03*
X17780000Y-28575000D03*
D17*
X23700000Y14600000D03*
X23950000Y22550000D03*
X8900000Y10100000D03*
X16450000Y19300000D03*
X25450000Y13100000D03*
X19375000Y16425000D03*
X-10200000Y12950000D03*
X-9850000Y7450000D03*
X-16750000Y11400000D03*
X-4600000Y-7550000D03*
X-600000Y-9550000D03*
X3900000Y-9450000D03*
X11700000Y5500000D03*
X-11550000Y-5450000D03*
X7150000Y-5350000D03*
X-8850000Y-15750000D03*
X20500000Y3800000D03*
X-20500000Y-3800000D03*
X-3800000Y20500000D03*
X3850000Y-20500000D03*
X-17300000Y8800000D03*
X17300000Y-8800000D03*
X-2050000Y-21150000D03*
X-21100000Y2050000D03*
X-6100000Y16500000D03*
X-15750000Y-8850000D03*
X-13750000Y9200000D03*
X2100000Y21050000D03*
X9200000Y13750000D03*
X21050000Y-2100000D03*
X15500000Y8750000D03*
X9050000Y-15050000D03*
X13750000Y-9200000D03*
X-8700000Y-8700000D03*
X4050000Y-2150000D03*
X-4700000Y-6700000D03*
X4700000Y-2750000D03*
X3400000Y-5200000D03*
X3950000Y-6100000D03*
X-9500000Y2450000D03*
X-9150000Y3950000D03*
X-8100000Y4800000D03*
X5700000Y23750000D03*
X6250000Y23150000D03*
X5950000Y3500000D03*
X9500000Y-2300000D03*
X7900000Y3650000D03*
X8450000Y2950000D03*
X9250000Y2450000D03*
X7900000Y-3550000D03*
X7900000Y-4850000D03*
X-3250000Y-9400000D03*
X-3250000Y-7500000D03*
X1050000Y21000000D03*
X21000000Y-1050000D03*
X-21050000Y1100000D03*
X-1100000Y-21050000D03*
X50000Y-5150000D03*
X5250000Y-50000D03*
X50000Y5250000D03*
X-5000000Y-500000D03*
X-11100000Y-7050000D03*
X-2950000Y-2550000D03*
X-10750000Y-19200000D03*
X20850000Y-10800000D03*
X10800000Y21800000D03*
X-20800000Y10750000D03*
X9350000Y20650000D03*
X-19850000Y-4500000D03*
X-23150000Y9650000D03*
X-24000000Y-9150000D03*
X-24000000Y-4100000D03*
X-10750000Y10650000D03*
X9700000Y23200000D03*
X-9150000Y24000000D03*
X-4150000Y24000000D03*
X-4500000Y19850000D03*
X24000000Y9150000D03*
X24000000Y4150000D03*
X19700000Y4650000D03*
X23150000Y-9600000D03*
X-9650000Y-23300000D03*
X9200000Y-24000000D03*
X4150000Y-24000000D03*
X4500000Y-19850000D03*
X8400000Y9450000D03*
X12350000Y16600000D03*
X-10950000Y7800000D03*
X-8250000Y-11000000D03*
X11350000Y6500000D03*
X2400000Y8900000D03*
X25450000Y13950000D03*
X19450000Y15450000D03*
X-1350000Y-24000000D03*
X-6050000Y-24000000D03*
X24000000Y-1450000D03*
X24000000Y-6100000D03*
X1150000Y24000000D03*
X7000000Y23550000D03*
X-24000000Y1500000D03*
X-24000000Y6000000D03*
X10650000Y-6350000D03*
X-11650000Y-6250000D03*
X-9600000Y-8200000D03*
X5850000Y-11150000D03*
X15050000Y20000000D03*
X-9550000Y12400000D03*
X-8800000Y8200000D03*
X5000000Y1500000D03*
X1350000Y4550000D03*
X-1500000Y5000000D03*
X-4950000Y-1450000D03*
X1450000Y-5250000D03*
X-3700000Y-3650000D03*
X-4500000Y-3500000D03*
X-5550000Y-3650000D03*
X-6350000Y-3850000D03*
X1800000Y9550000D03*
X-4150000Y4600000D03*
X-4150000Y5500000D03*
X-4150000Y6350000D03*
X-4400000Y7150000D03*
X3700000Y8600000D03*
X5000000Y8300000D03*
X-22900000Y-8050000D03*
X-22000000Y-8050000D03*
X-21350000Y-6750000D03*
X-21350000Y-7550000D03*
X-14150000Y-7700000D03*
X-13350000Y-7900000D03*
X-13200000Y-6600000D03*
X-12400000Y-6700000D03*
X2650000Y1150000D03*
X0Y0D03*
X-1900000Y-4700000D03*
X-5750000Y2100000D03*
X-11750000Y7400000D03*
X-12550000Y7300000D03*
X-13350000Y7150000D03*
X-14150000Y7000000D03*
X-23150000Y4900000D03*
X-22350000Y4850000D03*
X-21550000Y4700000D03*
X-20700000Y4700000D03*
X-27050000Y0D03*
X-20800000Y-400000D03*
X-8050000Y22900000D03*
X-8050000Y22000000D03*
X-6750000Y21350000D03*
X-7600000Y21300000D03*
X-8150000Y19950000D03*
X-8350000Y20750000D03*
X-9700000Y18250000D03*
X-9700000Y19150000D03*
X7450000Y11750000D03*
X7300000Y12550000D03*
X7150000Y13350000D03*
X7000000Y14150000D03*
X4850000Y23650000D03*
X4850000Y22750000D03*
X4700000Y21950000D03*
X4700000Y21050000D03*
X0Y27050000D03*
X-400000Y20700000D03*
X22900000Y8050000D03*
X22000000Y8050000D03*
X21350000Y6750000D03*
X21350000Y7550000D03*
X14150000Y7800000D03*
X13350000Y8000000D03*
X13200000Y6700000D03*
X12450000Y7150000D03*
X11750000Y-7450000D03*
X12550000Y-7300000D03*
X13350000Y-7150000D03*
X14150000Y-7000000D03*
X23350000Y-4900000D03*
X22450000Y-4900000D03*
X21650000Y-4700000D03*
X20700000Y-4700000D03*
X27050000Y0D03*
X20750000Y400000D03*
X8100000Y-22850000D03*
X8100000Y-21950000D03*
X6800000Y-21300000D03*
X7600000Y-21300000D03*
X7750000Y-14150000D03*
X7950000Y-13350000D03*
X6650000Y-13200000D03*
X6850000Y-12400000D03*
X-7450000Y-11750000D03*
X-7300000Y-12550000D03*
X-7150000Y-13350000D03*
X-7000000Y-14150000D03*
X-4900000Y-23250000D03*
X-4850000Y-22350000D03*
X-4700000Y-21550000D03*
X-4700000Y-20650000D03*
X0Y-27050000D03*
X400000Y-20800000D03*
X-20400000Y1600000D03*
X-12450000Y-7700000D03*
X-12450000Y9000000D03*
X-7500000Y14100000D03*
X1600000Y20400000D03*
X9050000Y12400000D03*
X-9100000Y-12450000D03*
X-14450000Y14450000D03*
X23750000Y500000D03*
X-500000Y23750000D03*
X-23850000Y-500000D03*
X450000Y-23950000D03*
X-13850000Y-13850000D03*
X-13100000Y-9200000D03*
X20400000Y-1600000D03*
X12500000Y8000000D03*
X12400000Y-9000000D03*
X-8500000Y-11900000D03*
X-1600000Y-20400000D03*
X7950000Y-12450000D03*
X-23500000Y17850000D03*
X-17050000Y-11350000D03*
X-11300000Y-17000000D03*
X-9200000Y-13950000D03*
X-23250000Y-23250000D03*
X-22300000Y-23200000D03*
X-18750000Y22050000D03*
X-17100000Y-20250000D03*
X-21800000Y-14000000D03*
X-18250000Y23150000D03*
X7050000Y5250000D03*
X16200000Y10350000D03*
X3950000Y4150000D03*
X3350000Y4750000D03*
X4700000Y5250000D03*
X5250000Y5900000D03*
X4750000Y6550000D03*
X15450000Y16000000D03*
X19100000Y12900000D03*
X14750000Y10750000D03*
X4600000Y3550000D03*
X-23100000Y-16850000D03*
X-24550000Y-23650000D03*
X-18450000Y25350000D03*
X-21250000Y16850000D03*
X-15250000Y-20250000D03*
X-23750000Y-17500000D03*
X7550000Y-10950000D03*
X-23100000Y-14650000D03*
X6650000Y-6450000D03*
X25950000Y15850000D03*
X7850000Y5400000D03*
X27850000Y0D03*
X0Y-27850000D03*
X-27850000Y0D03*
X0Y27850000D03*
D18*
X-11200000Y-19600000D02*
X-11200000Y-20000000D01*
X-10750000Y-19150000D02*
X-11200000Y-19600000D01*
X-10750000Y-19200000D02*
X-10750000Y-19150000D01*
X21300000Y-11250000D02*
X21600000Y-11250000D01*
X20850000Y-10800000D02*
X21300000Y-11250000D01*
X11250000Y22250000D02*
X11250000Y22500000D01*
X10800000Y21800000D02*
X11250000Y22250000D01*
X-21300000Y11250000D02*
X-21400000Y11250000D01*
X-20800000Y10750000D02*
X-21300000Y11250000D01*
X2400000Y8900000D02*
X2950000Y9450000D01*
X2950000Y9450000D02*
X8400000Y9450000D01*
X-21400000Y11250000D02*
X-23250000Y11250000D01*
X-23250000Y11250000D02*
X-28395000Y11250000D01*
X11250000Y25200000D02*
X11250000Y25500000D01*
X11250000Y25500000D02*
X11250000Y22500000D01*
X-19850000Y-4500000D02*
X-18800000Y-4500000D01*
X-9950000Y-8550000D02*
X-9600000Y-8200000D01*
X-14750000Y-8550000D02*
X-9950000Y-8550000D01*
X-18800000Y-4500000D02*
X-14750000Y-8550000D01*
X-23600000Y-4500000D02*
X-24000000Y-4100000D01*
X-19850000Y-4500000D02*
X-23600000Y-4500000D01*
X-23150000Y9650000D02*
X-23150000Y6850000D01*
X-23150000Y6850000D02*
X-24000000Y6000000D01*
X-24000000Y-9150000D02*
X-24000000Y-4100000D01*
X-10750000Y10650000D02*
X-10750000Y8000000D01*
X-10750000Y8000000D02*
X-10950000Y7800000D01*
X-9550000Y12400000D02*
X-9550000Y11850000D01*
X-9550000Y11850000D02*
X-10750000Y10650000D01*
X-4500000Y19850000D02*
X-4500000Y12500000D01*
X-4500000Y12500000D02*
X-5500000Y11500000D01*
X9350000Y20650000D02*
X550000Y11850000D01*
X550000Y11850000D02*
X500000Y11850000D01*
X9700000Y23200000D02*
X9700000Y21000000D01*
X9700000Y21000000D02*
X9350000Y20650000D01*
X7000000Y23550000D02*
X9350000Y23550000D01*
X9350000Y23550000D02*
X9700000Y23200000D01*
X-4150000Y24000000D02*
X-9150000Y24000000D01*
X-4150000Y23350000D02*
X-4150000Y24000000D01*
X-4500000Y23000000D02*
X-4150000Y23350000D01*
X-4500000Y19850000D02*
X-4500000Y23000000D01*
X19700000Y4650000D02*
X12450000Y-2600000D01*
X12450000Y-2600000D02*
X12450000Y-3100000D01*
X24000000Y4150000D02*
X24000000Y9150000D01*
X23500000Y4650000D02*
X24000000Y4150000D01*
X19700000Y4650000D02*
X23500000Y4650000D01*
X23150000Y-9600000D02*
X15850000Y-9600000D01*
X15350000Y-10100000D02*
X6900000Y-10100000D01*
X15850000Y-9600000D02*
X15350000Y-10100000D01*
X24000000Y-6100000D02*
X24000000Y-8750000D01*
X24000000Y-8750000D02*
X23150000Y-9600000D01*
X4500000Y-19850000D02*
X2850000Y-19850000D01*
X2850000Y-19850000D02*
X-4050000Y-12950000D01*
X-9650000Y-23300000D02*
X-9650000Y-15250000D01*
X-9100000Y-11000000D02*
X-8250000Y-11000000D01*
X-10100000Y-12000000D02*
X-9100000Y-11000000D01*
X-10100000Y-14800000D02*
X-10100000Y-12000000D01*
X-9650000Y-15250000D02*
X-10100000Y-14800000D01*
X-6050000Y-24000000D02*
X-8950000Y-24000000D01*
X-8950000Y-24000000D02*
X-9650000Y-23300000D01*
X4150000Y-24000000D02*
X9200000Y-24000000D01*
X4500000Y-19850000D02*
X4500000Y-23650000D01*
X4500000Y-23650000D02*
X4150000Y-24000000D01*
X-10950000Y7800000D02*
X-10950000Y6990000D01*
X-10950000Y6990000D02*
X-14890000Y3050000D01*
X-14890000Y3050000D02*
X-14890000Y-3010000D01*
X-14890000Y-3010000D02*
X-11650000Y-6250000D01*
X8400000Y9450000D02*
X9050000Y8800000D01*
X-8800000Y8200000D02*
X-10550000Y8200000D01*
X-10550000Y8200000D02*
X-10950000Y7800000D01*
X2400000Y8900000D02*
X2400000Y9100000D01*
X700000Y11650000D02*
X500000Y11850000D01*
X2550000Y9800000D02*
X700000Y11650000D01*
X2550000Y9250000D02*
X2550000Y9800000D01*
X2400000Y9100000D02*
X2550000Y9250000D01*
X-4950000Y12050000D02*
X-5500000Y11500000D01*
X500000Y11850000D02*
X300000Y12050000D01*
X300000Y12050000D02*
X-4950000Y12050000D01*
X-5500000Y11500000D02*
X-8800000Y8200000D01*
X11350000Y6500000D02*
X11750000Y6500000D01*
X11750000Y6500000D02*
X12450000Y5800000D01*
X12450000Y5800000D02*
X12450000Y-3100000D01*
X12450000Y-4550000D02*
X6900000Y-10100000D01*
X12450000Y-3100000D02*
X12450000Y-4550000D01*
X6900000Y-10100000D02*
X5850000Y-11150000D01*
X5850000Y-11150000D02*
X2350000Y-11150000D01*
X2350000Y-11150000D02*
X550000Y-12950000D01*
X550000Y-12950000D02*
X-4050000Y-12950000D01*
X-6000000Y-11000000D02*
X-8250000Y-11000000D01*
X-4050000Y-12950000D02*
X-6000000Y-11000000D01*
X9050000Y8800000D02*
X11350000Y6500000D01*
X15050000Y20000000D02*
X15800000Y19250000D01*
X15800000Y19250000D02*
X15800000Y18150000D01*
X20950000Y13950000D02*
X25450000Y13950000D01*
X19450000Y15450000D02*
X20950000Y13950000D01*
X20950000Y13950000D02*
X25300000Y13950000D01*
X18500000Y15450000D02*
X19450000Y15450000D01*
X15800000Y18150000D02*
X18500000Y15450000D01*
X-6050000Y-24000000D02*
X-1350000Y-24000000D01*
X24000000Y-1450000D02*
X24000000Y-6100000D01*
X1150000Y24000000D02*
X1700000Y24550000D01*
X6000000Y24550000D02*
X7000000Y23550000D01*
X1700000Y24550000D02*
X6000000Y24550000D01*
X-24000000Y1500000D02*
X-24000000Y6000000D01*
X-9600000Y-8200000D02*
X-9600000Y-7550000D01*
X-9600000Y-7550000D02*
X-10900000Y-6250000D01*
X-10900000Y-6250000D02*
X-11650000Y-6250000D01*
X11250000Y25200000D02*
X11250000Y28395000D01*
X28575000Y-11430000D02*
X28395000Y-11250000D01*
X28395000Y-11250000D02*
X25600000Y-11250000D01*
X28575000Y-11430000D02*
X28575000Y-11425000D01*
X-28395000Y11250000D02*
X-28575000Y11430000D01*
X11250000Y28395000D02*
X11430000Y28575000D01*
X-11200000Y-20000000D02*
X-11200000Y-25550000D01*
X-11200000Y-28345000D02*
X-11200000Y-25550000D01*
X21600000Y-11250000D02*
X25600000Y-11250000D01*
X-11430000Y-28575000D02*
X-11200000Y-28345000D01*
X-28395000Y11250000D02*
X-28575000Y11430000D01*
X5000000Y1500000D02*
X1450000Y-2050000D01*
X1450000Y-2050000D02*
X1450000Y-5250000D01*
X1350000Y4550000D02*
X4400000Y1500000D01*
X4400000Y1500000D02*
X5000000Y1500000D01*
X-1500000Y5000000D02*
X-1050000Y4550000D01*
X-1050000Y4550000D02*
X1350000Y4550000D01*
X-4950000Y-1450000D02*
X-4650000Y-1450000D01*
X-1500000Y1700000D02*
X-1500000Y5000000D01*
X-4650000Y-1450000D02*
X-1500000Y1700000D01*
X1450000Y-5250000D02*
X1450000Y-5100000D01*
X1450000Y-5100000D02*
X-2200000Y-1450000D01*
X-2200000Y-1450000D02*
X-4950000Y-1450000D01*
X-26850000Y200000D02*
X-27050000Y0D01*
X-23650000Y200000D02*
X-26850000Y200000D01*
X-23100000Y-350000D02*
X-23650000Y200000D01*
X-20850000Y-350000D02*
X-23100000Y-350000D01*
X-20800000Y-400000D02*
X-20850000Y-350000D01*
X200000Y26850000D02*
X0Y27050000D01*
X200000Y23550000D02*
X200000Y26850000D01*
X-400000Y22950000D02*
X200000Y23550000D01*
X-400000Y20700000D02*
X-400000Y22950000D01*
X26850000Y-200000D02*
X27050000Y0D01*
X23550000Y-200000D02*
X26850000Y-200000D01*
X23000000Y350000D02*
X23550000Y-200000D01*
X20800000Y350000D02*
X23000000Y350000D01*
X20750000Y400000D02*
X20800000Y350000D01*
X-400000Y-26650000D02*
X0Y-27050000D01*
X-400000Y-23850000D02*
X-400000Y-26650000D01*
X350000Y-23100000D02*
X-400000Y-23850000D01*
X350000Y-20850000D02*
X350000Y-23100000D01*
X400000Y-20800000D02*
X350000Y-20850000D01*
X-19901846Y23496051D02*
X-19901846Y23898154D01*
X-19901846Y23898154D02*
X-18450000Y25350000D01*
D19*
G36*
X-560000Y24685053D02*
X-685167Y24685162D01*
X-1028943Y24543117D01*
X-1292192Y24280327D01*
X-1434838Y23936799D01*
X-1435162Y23564833D01*
X-1293117Y23221057D01*
X-1137159Y23064827D01*
X-1160000Y22950000D01*
X-1160000Y21262463D01*
X-1192192Y21230327D01*
X-1334838Y20886799D01*
X-1335162Y20514833D01*
X-1193117Y20171057D01*
X-930327Y19907808D01*
X-586799Y19765162D01*
X-214833Y19764838D01*
X128943Y19906883D01*
X392192Y20169673D01*
X440825Y20286794D01*
X519673Y20207808D01*
X698406Y20133591D01*
X806883Y19871057D01*
X1069673Y19607808D01*
X1413201Y19465162D01*
X1785167Y19464838D01*
X2128943Y19606883D01*
X2392192Y19869673D01*
X2534838Y20213201D01*
X2534842Y20218001D01*
X2628943Y20256883D01*
X2892192Y20519673D01*
X3034838Y20863201D01*
X3035162Y21235167D01*
X2893117Y21578943D01*
X2707552Y21764833D01*
X3764838Y21764833D01*
X3874359Y21499772D01*
X3765162Y21236799D01*
X3764838Y20864833D01*
X3906883Y20521057D01*
X4169673Y20257808D01*
X4513201Y20115162D01*
X4885167Y20114838D01*
X5228943Y20256883D01*
X5492192Y20519673D01*
X5634838Y20863201D01*
X5635162Y21235167D01*
X5525641Y21500228D01*
X5634838Y21763201D01*
X5635162Y22135167D01*
X5612494Y22190027D01*
X5642192Y22219673D01*
X5705462Y22372044D01*
X5719673Y22357808D01*
X6063201Y22215162D01*
X6435167Y22214838D01*
X6778943Y22356883D01*
X7042192Y22619673D01*
X7184838Y22963201D01*
X7185162Y23335167D01*
X7043117Y23678943D01*
X6780327Y23942192D01*
X6601594Y24016409D01*
X6493117Y24278943D01*
X6230327Y24542192D01*
X5886799Y24684838D01*
X5514833Y24685162D01*
X5171057Y24543117D01*
X5161133Y24533210D01*
X5036799Y24584838D01*
X4664833Y24585162D01*
X4321057Y24443117D01*
X4057808Y24180327D01*
X3915162Y23836799D01*
X3914838Y23464833D01*
X4024359Y23199772D01*
X3915162Y22936799D01*
X3914838Y22564833D01*
X3937506Y22509973D01*
X3907808Y22480327D01*
X3765162Y22136799D01*
X3764838Y21764833D01*
X2707552Y21764833D01*
X2630327Y21842192D01*
X2286799Y21984838D01*
X1914833Y21985162D01*
X1571057Y21843117D01*
X1537752Y21809871D01*
X1236799Y21934838D01*
X864833Y21935162D01*
X521057Y21793117D01*
X360000Y21632341D01*
X360000Y22635198D01*
X737401Y23012599D01*
X902148Y23259161D01*
X960000Y23550000D01*
X960000Y25860394D01*
X1510197Y25310197D01*
X1552211Y25282334D01*
X1600000Y25273000D01*
X10033000Y25273000D01*
X10033000Y19050000D01*
X10043006Y19000590D01*
X10070197Y18960197D01*
X18960197Y10070197D01*
X19002211Y10042334D01*
X19050000Y10033000D01*
X25273000Y10033000D01*
X25273000Y1600000D01*
X25283006Y1550590D01*
X25310197Y1510197D01*
X26260394Y560000D01*
X24685053Y560000D01*
X24685162Y685167D01*
X24543117Y1028943D01*
X24280327Y1292192D01*
X23936799Y1434838D01*
X23564833Y1435162D01*
X23221057Y1293117D01*
X23031369Y1103760D01*
X23000000Y1110000D01*
X21362376Y1110000D01*
X21280327Y1192192D01*
X20936799Y1334838D01*
X20564833Y1335162D01*
X20221057Y1193117D01*
X19957808Y930327D01*
X19815162Y586799D01*
X19814838Y214833D01*
X19956883Y-128943D01*
X20219673Y-392192D01*
X20301482Y-426162D01*
X20207808Y-519673D01*
X20133591Y-698406D01*
X19871057Y-806883D01*
X19607808Y-1069673D01*
X19465162Y-1413201D01*
X19464838Y-1785167D01*
X19606883Y-2128943D01*
X19869673Y-2392192D01*
X20213201Y-2534838D01*
X20218001Y-2534842D01*
X20256883Y-2628943D01*
X20519673Y-2892192D01*
X20863201Y-3034838D01*
X21235167Y-3035162D01*
X21578943Y-2893117D01*
X21842192Y-2630327D01*
X21984838Y-2286799D01*
X21985162Y-1914833D01*
X21843117Y-1571057D01*
X21809871Y-1537752D01*
X21934838Y-1236799D01*
X21935162Y-864833D01*
X21793117Y-521057D01*
X21682254Y-410000D01*
X22685198Y-410000D01*
X23012599Y-737401D01*
X23259160Y-902148D01*
X23307414Y-911746D01*
X23550000Y-960000D01*
X25860394Y-960000D01*
X25310197Y-1510197D01*
X25282334Y-1552211D01*
X25273000Y-1600000D01*
X25273000Y-10033000D01*
X19050000Y-10033000D01*
X19000590Y-10043006D01*
X18960197Y-10070197D01*
X10070197Y-18960197D01*
X10042334Y-19002211D01*
X10033000Y-19050000D01*
X10033000Y-25273000D01*
X1600000Y-25273000D01*
X1550590Y-25283006D01*
X1510197Y-25310197D01*
X546442Y-26273952D01*
X530327Y-26257808D01*
X360000Y-26187082D01*
X360000Y-24884922D01*
X635167Y-24885162D01*
X978943Y-24743117D01*
X1242192Y-24480327D01*
X1384838Y-24136799D01*
X1385162Y-23764833D01*
X1243117Y-23421057D01*
X1078866Y-23256519D01*
X1110000Y-23100000D01*
X1110000Y-21485167D01*
X5864838Y-21485167D01*
X6006883Y-21828943D01*
X6269673Y-22092192D01*
X6613201Y-22234838D01*
X6985167Y-22235162D01*
X7173928Y-22157168D01*
X7274359Y-22400228D01*
X7165162Y-22663201D01*
X7164838Y-23035167D01*
X7306883Y-23378943D01*
X7569673Y-23642192D01*
X7913201Y-23784838D01*
X8285167Y-23785162D01*
X8628943Y-23643117D01*
X8892192Y-23380327D01*
X9034838Y-23036799D01*
X9035162Y-22664833D01*
X8925641Y-22399772D01*
X9034838Y-22136799D01*
X9035162Y-21764833D01*
X8893117Y-21421057D01*
X8630327Y-21157808D01*
X8535159Y-21118291D01*
X8535162Y-21114833D01*
X8393117Y-20771057D01*
X8130327Y-20507808D01*
X7786799Y-20365162D01*
X7414833Y-20364838D01*
X7199896Y-20453648D01*
X6986799Y-20365162D01*
X6614833Y-20364838D01*
X6271057Y-20506883D01*
X6007808Y-20769673D01*
X5865162Y-21113201D01*
X5864838Y-21485167D01*
X1110000Y-21485167D01*
X1110000Y-21412376D01*
X1192192Y-21330327D01*
X1334838Y-20986799D01*
X1335100Y-20685167D01*
X2914838Y-20685167D01*
X3056883Y-21028943D01*
X3319673Y-21292192D01*
X3663201Y-21434838D01*
X4035167Y-21435162D01*
X4378943Y-21293117D01*
X4642192Y-21030327D01*
X4784838Y-20686799D01*
X4785162Y-20314833D01*
X4643117Y-19971057D01*
X4380327Y-19707808D01*
X4036799Y-19565162D01*
X3664833Y-19564838D01*
X3321057Y-19706883D01*
X3057808Y-19969673D01*
X2915162Y-20313201D01*
X2914838Y-20685167D01*
X1335100Y-20685167D01*
X1335162Y-20614833D01*
X1193117Y-20271057D01*
X930327Y-20007808D01*
X586799Y-19865162D01*
X214833Y-19864838D01*
X-128943Y-20006883D01*
X-392192Y-20269673D01*
X-440851Y-20386855D01*
X-569673Y-20257808D01*
X-664841Y-20218291D01*
X-664838Y-20214833D01*
X-806883Y-19871057D01*
X-1069673Y-19607808D01*
X-1413201Y-19465162D01*
X-1785167Y-19464838D01*
X-2128943Y-19606883D01*
X-2392192Y-19869673D01*
X-2534838Y-20213201D01*
X-2534947Y-20338704D01*
X-2578943Y-20356883D01*
X-2842192Y-20619673D01*
X-2984838Y-20963201D01*
X-2985162Y-21335167D01*
X-2843117Y-21678943D01*
X-2580327Y-21942192D01*
X-2236799Y-22084838D01*
X-1864833Y-22085162D01*
X-1521057Y-21943117D01*
X-1481756Y-21903884D01*
X-1286799Y-21984838D01*
X-914833Y-21985162D01*
X-571057Y-21843117D01*
X-410000Y-21682341D01*
X-410000Y-22785198D01*
X-937401Y-23312599D01*
X-1102148Y-23559161D01*
X-1160000Y-23850000D01*
X-1160000Y-25660394D01*
X-1510197Y-25310197D01*
X-1552211Y-25282334D01*
X-1600000Y-25273000D01*
X-10033000Y-25273000D01*
X-10033000Y-23435167D01*
X-5835162Y-23435167D01*
X-5693117Y-23778943D01*
X-5430327Y-24042192D01*
X-5086799Y-24184838D01*
X-4714833Y-24185162D01*
X-4371057Y-24043117D01*
X-4107808Y-23780327D01*
X-3965162Y-23436799D01*
X-3964838Y-23064833D01*
X-4049420Y-22860127D01*
X-3915162Y-22536799D01*
X-3914838Y-22164833D01*
X-3937506Y-22109973D01*
X-3907808Y-22080327D01*
X-3765162Y-21736799D01*
X-3764838Y-21364833D01*
X-3874359Y-21099772D01*
X-3765162Y-20836799D01*
X-3764838Y-20464833D01*
X-3906883Y-20121057D01*
X-4169673Y-19857808D01*
X-4513201Y-19715162D01*
X-4885167Y-19714838D01*
X-5228943Y-19856883D01*
X-5492192Y-20119673D01*
X-5634838Y-20463201D01*
X-5635162Y-20835167D01*
X-5525641Y-21100228D01*
X-5634838Y-21363201D01*
X-5635162Y-21735167D01*
X-5612494Y-21790027D01*
X-5642192Y-21819673D01*
X-5784838Y-22163201D01*
X-5785162Y-22535167D01*
X-5700580Y-22739873D01*
X-5834838Y-23063201D01*
X-5835162Y-23435167D01*
X-10033000Y-23435167D01*
X-10033000Y-19050000D01*
X-10043006Y-19000590D01*
X-10070197Y-18960197D01*
X-11100963Y-17929431D01*
X-10771057Y-17793117D01*
X-10507808Y-17530327D01*
X-10365162Y-17186799D01*
X-10364838Y-16814833D01*
X-10506883Y-16471057D01*
X-10769673Y-16207808D01*
X-11113201Y-16065162D01*
X-11485167Y-16064838D01*
X-11828943Y-16206883D01*
X-12092192Y-16469673D01*
X-12229661Y-16800733D01*
X-14995227Y-14035167D01*
X-14785162Y-14035167D01*
X-14643117Y-14378943D01*
X-14380327Y-14642192D01*
X-14036799Y-14784838D01*
X-13664833Y-14785162D01*
X-13321057Y-14643117D01*
X-13057808Y-14380327D01*
X-12956009Y-14135167D01*
X-10135162Y-14135167D01*
X-9993117Y-14478943D01*
X-9730327Y-14742192D01*
X-9386799Y-14884838D01*
X-9204964Y-14884996D01*
X-9378943Y-14956883D01*
X-9642192Y-15219673D01*
X-9784838Y-15563201D01*
X-9785162Y-15935167D01*
X-9643117Y-16278943D01*
X-9380327Y-16542192D01*
X-9036799Y-16684838D01*
X-8664833Y-16685162D01*
X-8321057Y-16543117D01*
X-8057808Y-16280327D01*
X-7915162Y-15936799D01*
X-7914838Y-15564833D01*
X-8056883Y-15221057D01*
X-8319673Y-14957808D01*
X-8663201Y-14815162D01*
X-8845036Y-14815004D01*
X-8671057Y-14743117D01*
X-8407808Y-14480327D01*
X-8265162Y-14136799D01*
X-8264838Y-13764833D01*
X-8406883Y-13421057D01*
X-8580583Y-13247053D01*
X-8571057Y-13243117D01*
X-8307808Y-12980327D01*
X-8233591Y-12801594D01*
X-8211489Y-12792461D01*
X-8093117Y-13078943D01*
X-8062561Y-13109552D01*
X-8084838Y-13163201D01*
X-8085162Y-13535167D01*
X-7943117Y-13878943D01*
X-7912561Y-13909552D01*
X-7934838Y-13963201D01*
X-7935162Y-14335167D01*
X-7793117Y-14678943D01*
X-7530327Y-14942192D01*
X-7186799Y-15084838D01*
X-6814833Y-15085162D01*
X-6471057Y-14943117D01*
X-6207808Y-14680327D01*
X-6065162Y-14336799D01*
X-6064838Y-13964833D01*
X-6206883Y-13621057D01*
X-6237439Y-13590448D01*
X-6215162Y-13536799D01*
X-6215030Y-13385167D01*
X5714838Y-13385167D01*
X5856883Y-13728943D01*
X6119673Y-13992192D01*
X6463201Y-14134838D01*
X6815012Y-14135144D01*
X6814838Y-14335167D01*
X6956883Y-14678943D01*
X7219673Y-14942192D01*
X7563201Y-15084838D01*
X7935167Y-15085162D01*
X8115033Y-15010843D01*
X8114838Y-15235167D01*
X8256883Y-15578943D01*
X8519673Y-15842192D01*
X8863201Y-15984838D01*
X9235167Y-15985162D01*
X9578943Y-15843117D01*
X9842192Y-15580327D01*
X9984838Y-15236799D01*
X9985162Y-14864833D01*
X9843117Y-14521057D01*
X9580327Y-14257808D01*
X9236799Y-14115162D01*
X8864833Y-14114838D01*
X8684967Y-14189157D01*
X8685162Y-13964833D01*
X8677095Y-13945310D01*
X8742192Y-13880327D01*
X8884838Y-13536799D01*
X8885162Y-13164833D01*
X8775641Y-12899772D01*
X8884838Y-12636799D01*
X8885162Y-12264833D01*
X8743117Y-11921057D01*
X8480327Y-11657808D01*
X8257210Y-11565161D01*
X8342192Y-11480327D01*
X8484838Y-11136799D01*
X8485162Y-10764833D01*
X8343117Y-10421057D01*
X8080327Y-10157808D01*
X7736799Y-10015162D01*
X7364833Y-10014838D01*
X7021057Y-10156883D01*
X6757808Y-10419673D01*
X6615162Y-10763201D01*
X6614838Y-11135167D01*
X6751086Y-11464913D01*
X6664833Y-11464838D01*
X6321057Y-11606883D01*
X6057808Y-11869673D01*
X5915162Y-12213201D01*
X5914838Y-12585167D01*
X5922905Y-12604690D01*
X5857808Y-12669673D01*
X5715162Y-13013201D01*
X5714838Y-13385167D01*
X-6215030Y-13385167D01*
X-6214838Y-13164833D01*
X-6356883Y-12821057D01*
X-6387439Y-12790448D01*
X-6365162Y-12736799D01*
X-6364838Y-12364833D01*
X-6506883Y-12021057D01*
X-6537439Y-11990448D01*
X-6515162Y-11936799D01*
X-6514838Y-11564833D01*
X-6656883Y-11221057D01*
X-6919673Y-10957808D01*
X-7263201Y-10815162D01*
X-7635167Y-10814838D01*
X-7978943Y-10956883D01*
X-8082994Y-11060753D01*
X-8313201Y-10965162D01*
X-8685167Y-10964838D01*
X-9028943Y-11106883D01*
X-9292192Y-11369673D01*
X-9366409Y-11548406D01*
X-9628943Y-11656883D01*
X-9892192Y-11919673D01*
X-10034838Y-12263201D01*
X-10035162Y-12635167D01*
X-9893117Y-12978943D01*
X-9719417Y-13152947D01*
X-9728943Y-13156883D01*
X-9992192Y-13419673D01*
X-10134838Y-13763201D01*
X-10135162Y-14135167D01*
X-12956009Y-14135167D01*
X-12915162Y-14036799D01*
X-12914838Y-13664833D01*
X-13056883Y-13321057D01*
X-13319673Y-13057808D01*
X-13663201Y-12915162D01*
X-14035167Y-12914838D01*
X-14378943Y-13056883D01*
X-14642192Y-13319673D01*
X-14784838Y-13663201D01*
X-14785162Y-14035167D01*
X-14995227Y-14035167D01*
X-16780201Y-12250193D01*
X-16521057Y-12143117D01*
X-16257808Y-11880327D01*
X-16115162Y-11536799D01*
X-16114838Y-11164833D01*
X-16256883Y-10821057D01*
X-16519673Y-10557808D01*
X-16863201Y-10415162D01*
X-17235167Y-10414838D01*
X-17578943Y-10556883D01*
X-17842192Y-10819673D01*
X-17950320Y-11080074D01*
X-18960197Y-10070197D01*
X-19002211Y-10042334D01*
X-19050000Y-10033000D01*
X-25273000Y-10033000D01*
X-25273000Y-9035167D01*
X-16685162Y-9035167D01*
X-16543117Y-9378943D01*
X-16280327Y-9642192D01*
X-15936799Y-9784838D01*
X-15564833Y-9785162D01*
X-15221057Y-9643117D01*
X-14957808Y-9380327D01*
X-14815162Y-9036799D01*
X-14814838Y-8664833D01*
X-14956883Y-8321057D01*
X-15219673Y-8057808D01*
X-15563201Y-7915162D01*
X-15935167Y-7914838D01*
X-16278943Y-8056883D01*
X-16542192Y-8319673D01*
X-16684838Y-8663201D01*
X-16685162Y-9035167D01*
X-25273000Y-9035167D01*
X-25273000Y-8235167D01*
X-23835162Y-8235167D01*
X-23693117Y-8578943D01*
X-23430327Y-8842192D01*
X-23086799Y-8984838D01*
X-22714833Y-8985162D01*
X-22449772Y-8875641D01*
X-22186799Y-8984838D01*
X-21814833Y-8985162D01*
X-21471057Y-8843117D01*
X-21207808Y-8580327D01*
X-21168291Y-8485159D01*
X-21164833Y-8485162D01*
X-20821057Y-8343117D01*
X-20557808Y-8080327D01*
X-20476771Y-7885167D01*
X-15085162Y-7885167D01*
X-14943117Y-8228943D01*
X-14680327Y-8492192D01*
X-14336799Y-8634838D01*
X-13964833Y-8635162D01*
X-13945310Y-8627095D01*
X-13895310Y-8677183D01*
X-14034838Y-9013201D01*
X-14035162Y-9385167D01*
X-13893117Y-9728943D01*
X-13630327Y-9992192D01*
X-13286799Y-10134838D01*
X-12914833Y-10135162D01*
X-12571057Y-9993117D01*
X-12307808Y-9730327D01*
X-12165162Y-9386799D01*
X-12164838Y-9014833D01*
X-12218414Y-8885167D01*
X-9635162Y-8885167D01*
X-9493117Y-9228943D01*
X-9230327Y-9492192D01*
X-8886799Y-9634838D01*
X-8514833Y-9635162D01*
X-8393836Y-9585167D01*
X-4185162Y-9585167D01*
X-4043117Y-9928943D01*
X-3780327Y-10192192D01*
X-3436799Y-10334838D01*
X-3064833Y-10335162D01*
X-2721057Y-10193117D01*
X-2457808Y-9930327D01*
X-2315162Y-9586799D01*
X-2314838Y-9214833D01*
X-2456883Y-8871057D01*
X-2719673Y-8607808D01*
X-3063201Y-8465162D01*
X-3435167Y-8464838D01*
X-3778943Y-8606883D01*
X-4042192Y-8869673D01*
X-4184838Y-9213201D01*
X-4185162Y-9585167D01*
X-8393836Y-9585167D01*
X-8171057Y-9493117D01*
X-7907808Y-9230327D01*
X-7765162Y-8886799D01*
X-7764838Y-8514833D01*
X-7906883Y-8171057D01*
X-8169673Y-7907808D01*
X-8513201Y-7765162D01*
X-8885167Y-7764838D01*
X-9228943Y-7906883D01*
X-9492192Y-8169673D01*
X-9634838Y-8513201D01*
X-9635162Y-8885167D01*
X-12218414Y-8885167D01*
X-12306883Y-8671057D01*
X-12342783Y-8635094D01*
X-12264833Y-8635162D01*
X-11921057Y-8493117D01*
X-11657808Y-8230327D01*
X-11516300Y-7889540D01*
X-11286799Y-7984838D01*
X-10914833Y-7985162D01*
X-10571057Y-7843117D01*
X-10307808Y-7580327D01*
X-10165162Y-7236799D01*
X-10164856Y-6885167D01*
X-5635162Y-6885167D01*
X-5493117Y-7228943D01*
X-5483210Y-7238867D01*
X-5534838Y-7363201D01*
X-5535162Y-7735167D01*
X-5393117Y-8078943D01*
X-5130327Y-8342192D01*
X-4786799Y-8484838D01*
X-4414833Y-8485162D01*
X-4071057Y-8343117D01*
X-3899976Y-8172334D01*
X-3780327Y-8292192D01*
X-3436799Y-8434838D01*
X-3064833Y-8435162D01*
X-2721057Y-8293117D01*
X-2457808Y-8030327D01*
X-2315162Y-7686799D01*
X-2314838Y-7314833D01*
X-2456883Y-6971057D01*
X-2719673Y-6707808D01*
X-3063201Y-6565162D01*
X-3435167Y-6564838D01*
X-3765000Y-6701122D01*
X-3764838Y-6514833D01*
X-3906883Y-6171057D01*
X-4169673Y-5907808D01*
X-4513201Y-5765162D01*
X-4885167Y-5764838D01*
X-5228943Y-5906883D01*
X-5492192Y-6169673D01*
X-5634838Y-6513201D01*
X-5635162Y-6885167D01*
X-10164856Y-6885167D01*
X-10164838Y-6864833D01*
X-10306883Y-6521057D01*
X-10569673Y-6257808D01*
X-10898849Y-6121122D01*
X-10757808Y-5980327D01*
X-10615162Y-5636799D01*
X-10614838Y-5264833D01*
X-10756883Y-4921057D01*
X-10792710Y-4885167D01*
X-2835162Y-4885167D01*
X-2693117Y-5228943D01*
X-2430327Y-5492192D01*
X-2086799Y-5634838D01*
X-1714833Y-5635162D01*
X-1371057Y-5493117D01*
X-1212832Y-5335167D01*
X-885162Y-5335167D01*
X-743117Y-5678943D01*
X-480327Y-5942192D01*
X-136799Y-6084838D01*
X235167Y-6085162D01*
X578943Y-5943117D01*
X842192Y-5680327D01*
X984838Y-5336799D01*
X985162Y-4964833D01*
X843117Y-4621057D01*
X580327Y-4357808D01*
X236799Y-4215162D01*
X-135167Y-4214838D01*
X-478943Y-4356883D01*
X-742192Y-4619673D01*
X-884838Y-4963201D01*
X-885162Y-5335167D01*
X-1212832Y-5335167D01*
X-1107808Y-5230327D01*
X-965162Y-4886799D01*
X-964838Y-4514833D01*
X-1106883Y-4171057D01*
X-1369673Y-3907808D01*
X-1713201Y-3765162D01*
X-2085167Y-3764838D01*
X-2428943Y-3906883D01*
X-2692192Y-4169673D01*
X-2834838Y-4513201D01*
X-2835162Y-4885167D01*
X-10792710Y-4885167D01*
X-11019673Y-4657808D01*
X-11363201Y-4515162D01*
X-11735167Y-4514838D01*
X-12078943Y-4656883D01*
X-12342192Y-4919673D01*
X-12484838Y-5263201D01*
X-12485162Y-5635167D01*
X-12431528Y-5764972D01*
X-12585167Y-5764838D01*
X-12679394Y-5803772D01*
X-13013201Y-5665162D01*
X-13385167Y-5664838D01*
X-13728943Y-5806883D01*
X-13992192Y-6069673D01*
X-14134838Y-6413201D01*
X-14135144Y-6765012D01*
X-14335167Y-6764838D01*
X-14678943Y-6906883D01*
X-14942192Y-7169673D01*
X-15084838Y-7513201D01*
X-15085162Y-7885167D01*
X-20476771Y-7885167D01*
X-20415162Y-7736799D01*
X-20414838Y-7364833D01*
X-20503648Y-7149896D01*
X-20415162Y-6936799D01*
X-20414838Y-6564833D01*
X-20556883Y-6221057D01*
X-20819673Y-5957808D01*
X-21163201Y-5815162D01*
X-21535167Y-5814838D01*
X-21878943Y-5956883D01*
X-22142192Y-6219673D01*
X-22284838Y-6563201D01*
X-22285162Y-6935167D01*
X-22207168Y-7123928D01*
X-22450228Y-7224359D01*
X-22713201Y-7115162D01*
X-23085167Y-7114838D01*
X-23428943Y-7256883D01*
X-23692192Y-7519673D01*
X-23834838Y-7863201D01*
X-23835162Y-8235167D01*
X-25273000Y-8235167D01*
X-25273000Y-3985167D01*
X-21435162Y-3985167D01*
X-21293117Y-4328943D01*
X-21030327Y-4592192D01*
X-20686799Y-4734838D01*
X-20314833Y-4735162D01*
X-19971057Y-4593117D01*
X-19707808Y-4330327D01*
X-19585247Y-4035167D01*
X-7285162Y-4035167D01*
X-7143117Y-4378943D01*
X-6880327Y-4642192D01*
X-6536799Y-4784838D01*
X-6164833Y-4785162D01*
X-5821057Y-4643117D01*
X-5755074Y-4577249D01*
X-5736799Y-4584838D01*
X-5364833Y-4585162D01*
X-5021057Y-4443117D01*
X-4917006Y-4339247D01*
X-4686799Y-4434838D01*
X-4314833Y-4435162D01*
X-4259973Y-4412494D01*
X-4230327Y-4442192D01*
X-3886799Y-4584838D01*
X-3514833Y-4585162D01*
X-3171057Y-4443117D01*
X-2907808Y-4180327D01*
X-2765162Y-3836799D01*
X-2764856Y-3485162D01*
X-2764833Y-3485162D01*
X-2421057Y-3343117D01*
X-2157808Y-3080327D01*
X-2015162Y-2736799D01*
X-2014838Y-2364833D01*
X-2156883Y-2021057D01*
X-2419673Y-1757808D01*
X-2763201Y-1615162D01*
X-3135167Y-1614838D01*
X-3478943Y-1756883D01*
X-3742192Y-2019673D01*
X-3884838Y-2363201D01*
X-3885144Y-2714838D01*
X-3940027Y-2737506D01*
X-3969673Y-2707808D01*
X-4313201Y-2565162D01*
X-4685167Y-2564838D01*
X-5028943Y-2706883D01*
X-5132994Y-2810753D01*
X-5363201Y-2715162D01*
X-5735167Y-2714838D01*
X-6078943Y-2856883D01*
X-6144926Y-2922751D01*
X-6163201Y-2915162D01*
X-6535167Y-2914838D01*
X-6878943Y-3056883D01*
X-7142192Y-3319673D01*
X-7284838Y-3663201D01*
X-7285162Y-4035167D01*
X-19585247Y-4035167D01*
X-19565162Y-3986799D01*
X-19564838Y-3614833D01*
X-19706883Y-3271057D01*
X-19969673Y-3007808D01*
X-20313201Y-2865162D01*
X-20685167Y-2864838D01*
X-21028943Y-3006883D01*
X-21292192Y-3269673D01*
X-21434838Y-3613201D01*
X-21435162Y-3985167D01*
X-25273000Y-3985167D01*
X-25273000Y-1600000D01*
X-25283006Y-1550590D01*
X-25310197Y-1510197D01*
X-26260394Y-560000D01*
X-24785053Y-560000D01*
X-24785162Y-685167D01*
X-24643117Y-1028943D01*
X-24380327Y-1292192D01*
X-24036799Y-1434838D01*
X-23664833Y-1435162D01*
X-23321057Y-1293117D01*
X-23131369Y-1103760D01*
X-23100000Y-1110000D01*
X-21412376Y-1110000D01*
X-21330327Y-1192192D01*
X-20986799Y-1334838D01*
X-20614833Y-1335162D01*
X-20271057Y-1193117D01*
X-20007808Y-930327D01*
X-19906009Y-685167D01*
X-5935162Y-685167D01*
X-5793117Y-1028943D01*
X-5530327Y-1292192D01*
X-5186799Y-1434838D01*
X-4814833Y-1435162D01*
X-4471057Y-1293117D01*
X-4207808Y-1030327D01*
X-4065162Y-686799D01*
X-4064838Y-314833D01*
X-4118414Y-185167D01*
X-935162Y-185167D01*
X-793117Y-528943D01*
X-530327Y-792192D01*
X-186799Y-934838D01*
X185167Y-935162D01*
X528943Y-793117D01*
X792192Y-530327D01*
X914753Y-235167D01*
X4314838Y-235167D01*
X4456883Y-578943D01*
X4719673Y-842192D01*
X5063201Y-984838D01*
X5435167Y-985162D01*
X5778943Y-843117D01*
X6042192Y-580327D01*
X6184838Y-236799D01*
X6185162Y135167D01*
X6043117Y478943D01*
X5780327Y742192D01*
X5436799Y884838D01*
X5064833Y885162D01*
X4721057Y743117D01*
X4457808Y480327D01*
X4315162Y136799D01*
X4314838Y-235167D01*
X914753Y-235167D01*
X934838Y-186799D01*
X935162Y185167D01*
X793117Y528943D01*
X530327Y792192D01*
X186799Y934838D01*
X-185167Y935162D01*
X-528943Y793117D01*
X-792192Y530327D01*
X-934838Y186799D01*
X-935162Y-185167D01*
X-4118414Y-185167D01*
X-4206883Y28943D01*
X-4469673Y292192D01*
X-4813201Y434838D01*
X-5185167Y435162D01*
X-5528943Y293117D01*
X-5792192Y30327D01*
X-5934838Y-313201D01*
X-5935162Y-685167D01*
X-19906009Y-685167D01*
X-19865162Y-586799D01*
X-19864838Y-214833D01*
X-19955054Y3509D01*
X-11626952Y3509D01*
X-11618315Y-46159D01*
X-11591035Y-88553D01*
X-11549410Y-116994D01*
X-11500000Y-127000D01*
X-8430000Y-127000D01*
X-8382211Y-117666D01*
X-8340197Y-89803D01*
X-7285561Y964833D01*
X1714838Y964833D01*
X1856883Y621057D01*
X2119673Y357808D01*
X2463201Y215162D01*
X2835167Y214838D01*
X3178943Y356883D01*
X3442192Y619673D01*
X3584838Y963201D01*
X3585162Y1335167D01*
X3443117Y1678943D01*
X3180327Y1942192D01*
X2836799Y2084838D01*
X2464833Y2085162D01*
X2121057Y1943117D01*
X1857808Y1680327D01*
X1715162Y1336799D01*
X1714838Y964833D01*
X-7285561Y964833D01*
X-6582945Y1667449D01*
X-6543117Y1571057D01*
X-6280327Y1307808D01*
X-5936799Y1165162D01*
X-5564833Y1164838D01*
X-5221057Y1306883D01*
X-4957808Y1569673D01*
X-4815162Y1913201D01*
X-4814838Y2285167D01*
X-4956883Y2628943D01*
X-5219673Y2892192D01*
X-5317557Y2932837D01*
X-4512340Y3738054D01*
X-4336799Y3665162D01*
X-3964833Y3664838D01*
X-3621057Y3806883D01*
X-3357808Y4069673D01*
X-3215162Y4413201D01*
X-3214838Y4785167D01*
X-3288047Y4962347D01*
X-3185561Y5064833D01*
X-885162Y5064833D01*
X-743117Y4721057D01*
X-480327Y4457808D01*
X-136799Y4315162D01*
X235167Y4314838D01*
X578943Y4456883D01*
X842192Y4719673D01*
X984838Y5063201D01*
X985162Y5435167D01*
X843117Y5778943D01*
X580327Y6042192D01*
X236799Y6184838D01*
X-135167Y6185162D01*
X-478943Y6043117D01*
X-742192Y5780327D01*
X-884838Y5436799D01*
X-885162Y5064833D01*
X-3185561Y5064833D01*
X0Y8250394D01*
X2764117Y5486277D01*
X2557808Y5280327D01*
X2415162Y4936799D01*
X2414838Y4564833D01*
X2556883Y4221057D01*
X2819673Y3957808D01*
X3058762Y3858529D01*
X3156883Y3621057D01*
X3419673Y3357808D01*
X3719117Y3233467D01*
X3806883Y3021057D01*
X4069673Y2757808D01*
X4413201Y2615162D01*
X4785167Y2614838D01*
X5128943Y2756883D01*
X5250024Y2877753D01*
X5419673Y2707808D01*
X5629866Y2620528D01*
X8250394Y0D01*
X5635118Y-2615276D01*
X5635162Y-2564833D01*
X5493117Y-2221057D01*
X5230327Y-1957808D01*
X4930883Y-1833467D01*
X4843117Y-1621057D01*
X4580327Y-1357808D01*
X4236799Y-1215162D01*
X3864833Y-1214838D01*
X3521057Y-1356883D01*
X3257808Y-1619673D01*
X3115162Y-1963201D01*
X3114838Y-2335167D01*
X3256883Y-2678943D01*
X3519673Y-2942192D01*
X3819117Y-3066533D01*
X3906883Y-3278943D01*
X4169673Y-3542192D01*
X4513201Y-3684838D01*
X4565510Y-3684884D01*
X3868330Y-4382064D01*
X3586799Y-4265162D01*
X3214833Y-4264838D01*
X2871057Y-4406883D01*
X2607808Y-4669673D01*
X2465162Y-5013201D01*
X2464838Y-5385167D01*
X2581904Y-5668490D01*
X-89803Y-8340197D01*
X-116994Y-8380590D01*
X-127000Y-8430000D01*
X-127000Y-8734004D01*
X-413201Y-8615162D01*
X-785167Y-8614838D01*
X-1128943Y-8756883D01*
X-1392192Y-9019673D01*
X-1534838Y-9363201D01*
X-1535162Y-9735167D01*
X-1393117Y-10078943D01*
X-1130327Y-10342192D01*
X-786799Y-10484838D01*
X-414833Y-10485162D01*
X-127000Y-10366232D01*
X-127000Y-11500000D01*
X-118941Y-11544520D01*
X-92249Y-11587287D01*
X-51022Y-11616300D01*
X-1754Y-11626988D01*
X47789Y-11617666D01*
X89803Y-11589803D01*
X2044439Y-9635167D01*
X2964838Y-9635167D01*
X3106883Y-9978943D01*
X3369673Y-10242192D01*
X3713201Y-10384838D01*
X4085167Y-10385162D01*
X4428943Y-10243117D01*
X4692192Y-9980327D01*
X4834838Y-9636799D01*
X4835162Y-9264833D01*
X4693117Y-8921057D01*
X4430327Y-8657808D01*
X4086799Y-8515162D01*
X3714833Y-8514838D01*
X3371057Y-8656883D01*
X3107808Y-8919673D01*
X2965162Y-9263201D01*
X2964838Y-9635167D01*
X2044439Y-9635167D01*
X4044439Y-7635167D01*
X10814838Y-7635167D01*
X10956883Y-7978943D01*
X11219673Y-8242192D01*
X11563201Y-8384838D01*
X11692678Y-8384951D01*
X11607808Y-8469673D01*
X11465162Y-8813201D01*
X11464838Y-9185167D01*
X11606883Y-9528943D01*
X11869673Y-9792192D01*
X12213201Y-9934838D01*
X12585167Y-9935162D01*
X12928943Y-9793117D01*
X12975024Y-9747116D01*
X13219673Y-9992192D01*
X13563201Y-10134838D01*
X13935167Y-10135162D01*
X14278943Y-9993117D01*
X14542192Y-9730327D01*
X14684838Y-9386799D01*
X14685162Y-9014833D01*
X14672905Y-8985167D01*
X16364838Y-8985167D01*
X16506883Y-9328943D01*
X16769673Y-9592192D01*
X17113201Y-9734838D01*
X17485167Y-9735162D01*
X17828943Y-9593117D01*
X18092192Y-9330327D01*
X18234838Y-8986799D01*
X18235162Y-8614833D01*
X18093117Y-8271057D01*
X17830327Y-8007808D01*
X17486799Y-7865162D01*
X17114833Y-7864838D01*
X16771057Y-8006883D01*
X16507808Y-8269673D01*
X16365162Y-8613201D01*
X16364838Y-8985167D01*
X14672905Y-8985167D01*
X14543117Y-8671057D01*
X14280327Y-8407808D01*
X13936799Y-8265162D01*
X13564833Y-8264838D01*
X13221057Y-8406883D01*
X13174976Y-8452884D01*
X12930327Y-8207808D01*
X12866007Y-8181100D01*
X13078943Y-8093117D01*
X13109552Y-8062561D01*
X13163201Y-8084838D01*
X13535167Y-8085162D01*
X13878943Y-7943117D01*
X13909552Y-7912561D01*
X13963201Y-7934838D01*
X14335167Y-7935162D01*
X14678943Y-7793117D01*
X14942192Y-7530327D01*
X15084838Y-7186799D01*
X15085162Y-6814833D01*
X14943117Y-6471057D01*
X14680327Y-6207808D01*
X14336799Y-6065162D01*
X13964833Y-6064838D01*
X13621057Y-6206883D01*
X13590448Y-6237439D01*
X13536799Y-6215162D01*
X13164833Y-6214838D01*
X12821057Y-6356883D01*
X12790448Y-6387439D01*
X12736799Y-6365162D01*
X12364833Y-6364838D01*
X12021057Y-6506883D01*
X11990448Y-6537439D01*
X11936799Y-6515162D01*
X11564833Y-6514838D01*
X11221057Y-6656883D01*
X10957808Y-6919673D01*
X10815162Y-7263201D01*
X10814838Y-7635167D01*
X4044439Y-7635167D01*
X6214899Y-5464707D01*
X6214838Y-5535167D01*
X6244120Y-5606035D01*
X6121057Y-5656883D01*
X5857808Y-5919673D01*
X5715162Y-6263201D01*
X5714838Y-6635167D01*
X5856883Y-6978943D01*
X6119673Y-7242192D01*
X6463201Y-7384838D01*
X6835167Y-7385162D01*
X7178943Y-7243117D01*
X7442192Y-6980327D01*
X7584838Y-6636799D01*
X7585162Y-6264833D01*
X7555880Y-6193965D01*
X7678943Y-6143117D01*
X7942192Y-5880327D01*
X7981746Y-5785072D01*
X8085167Y-5785162D01*
X8428943Y-5643117D01*
X8692192Y-5380327D01*
X8834838Y-5036799D01*
X8834970Y-4885167D01*
X19764838Y-4885167D01*
X19906883Y-5228943D01*
X20169673Y-5492192D01*
X20513201Y-5634838D01*
X20885167Y-5635162D01*
X21175290Y-5515286D01*
X21463201Y-5634838D01*
X21835167Y-5635162D01*
X21854690Y-5627095D01*
X21919673Y-5692192D01*
X22263201Y-5834838D01*
X22635167Y-5835162D01*
X22900228Y-5725641D01*
X23163201Y-5834838D01*
X23535167Y-5835162D01*
X23878943Y-5693117D01*
X24142192Y-5430327D01*
X24284838Y-5086799D01*
X24285162Y-4714833D01*
X24143117Y-4371057D01*
X23880327Y-4107808D01*
X23536799Y-3965162D01*
X23164833Y-3964838D01*
X22899772Y-4074359D01*
X22636799Y-3965162D01*
X22264833Y-3964838D01*
X22245310Y-3972905D01*
X22180327Y-3907808D01*
X21836799Y-3765162D01*
X21464833Y-3764838D01*
X21174710Y-3884714D01*
X20886799Y-3765162D01*
X20514833Y-3764838D01*
X20171057Y-3906883D01*
X19907808Y-4169673D01*
X19765162Y-4513201D01*
X19764838Y-4885167D01*
X8834970Y-4885167D01*
X8835162Y-4664833D01*
X8693117Y-4321057D01*
X8572290Y-4200019D01*
X8692192Y-4080327D01*
X8834838Y-3736799D01*
X8835162Y-3364833D01*
X8693117Y-3021057D01*
X8675848Y-3003758D01*
X8778710Y-2900896D01*
X8969673Y-3092192D01*
X9313201Y-3234838D01*
X9685167Y-3235162D01*
X10028943Y-3093117D01*
X10292192Y-2830327D01*
X10434838Y-2486799D01*
X10435162Y-2114833D01*
X10293117Y-1771057D01*
X10101001Y-1578605D01*
X11589803Y-89803D01*
X11616300Y-51022D01*
X11626988Y-1754D01*
X11617666Y47789D01*
X11589803Y89803D01*
X9900939Y1778667D01*
X10042192Y1919673D01*
X10184838Y2263201D01*
X10185162Y2635167D01*
X10043117Y2978943D01*
X9780327Y3242192D01*
X9436799Y3384838D01*
X9281945Y3384973D01*
X9243117Y3478943D01*
X9107464Y3614833D01*
X19564838Y3614833D01*
X19706883Y3271057D01*
X19969673Y3007808D01*
X20313201Y2865162D01*
X20685167Y2864838D01*
X21028943Y3006883D01*
X21292192Y3269673D01*
X21434838Y3613201D01*
X21435162Y3985167D01*
X21293117Y4328943D01*
X21030327Y4592192D01*
X20686799Y4734838D01*
X20314833Y4735162D01*
X19971057Y4593117D01*
X19707808Y4330327D01*
X19565162Y3986799D01*
X19564838Y3614833D01*
X9107464Y3614833D01*
X8980327Y3742192D01*
X8835134Y3802482D01*
X8835162Y3835167D01*
X8693117Y4178943D01*
X8430327Y4442192D01*
X8205899Y4535383D01*
X8378943Y4606883D01*
X8642192Y4869673D01*
X8784838Y5213201D01*
X8784926Y5314833D01*
X10764838Y5314833D01*
X10906883Y4971057D01*
X11169673Y4707808D01*
X11513201Y4565162D01*
X11885167Y4564838D01*
X12228943Y4706883D01*
X12492192Y4969673D01*
X12634838Y5313201D01*
X12635162Y5685167D01*
X12493117Y6028943D01*
X12307261Y6215124D01*
X12388704Y6215053D01*
X12406883Y6171057D01*
X12669673Y5907808D01*
X13013201Y5765162D01*
X13385167Y5764838D01*
X13728943Y5906883D01*
X13992192Y6169673D01*
X14134838Y6513201D01*
X14135144Y6865012D01*
X14335167Y6864838D01*
X14678943Y7006883D01*
X14942192Y7269673D01*
X14981706Y7364833D01*
X20414838Y7364833D01*
X20503648Y7149896D01*
X20415162Y6936799D01*
X20414838Y6564833D01*
X20556883Y6221057D01*
X20819673Y5957808D01*
X21163201Y5815162D01*
X21535167Y5814838D01*
X21878943Y5956883D01*
X22142192Y6219673D01*
X22284838Y6563201D01*
X22285162Y6935167D01*
X22207168Y7123928D01*
X22450228Y7224359D01*
X22713201Y7115162D01*
X23085167Y7114838D01*
X23428943Y7256883D01*
X23692192Y7519673D01*
X23834838Y7863201D01*
X23835162Y8235167D01*
X23693117Y8578943D01*
X23430327Y8842192D01*
X23086799Y8984838D01*
X22714833Y8985162D01*
X22449772Y8875641D01*
X22186799Y8984838D01*
X21814833Y8985162D01*
X21471057Y8843117D01*
X21207808Y8580327D01*
X21168291Y8485159D01*
X21164833Y8485162D01*
X20821057Y8343117D01*
X20557808Y8080327D01*
X20415162Y7736799D01*
X20414838Y7364833D01*
X14981706Y7364833D01*
X15084838Y7613201D01*
X15085096Y7909880D01*
X15313201Y7815162D01*
X15685167Y7814838D01*
X16028943Y7956883D01*
X16292192Y8219673D01*
X16434838Y8563201D01*
X16435162Y8935167D01*
X16293117Y9278943D01*
X16157261Y9415037D01*
X16385167Y9414838D01*
X16728943Y9556883D01*
X16992192Y9819673D01*
X17134838Y10163201D01*
X17135162Y10535167D01*
X16993117Y10878943D01*
X16730327Y11142192D01*
X16386799Y11284838D01*
X16014833Y11285162D01*
X15671057Y11143117D01*
X15620211Y11092360D01*
X15543117Y11278943D01*
X15280327Y11542192D01*
X14936799Y11684838D01*
X14564833Y11685162D01*
X14221057Y11543117D01*
X13957808Y11280327D01*
X13815162Y10936799D01*
X13814838Y10564833D01*
X13956883Y10221057D01*
X14219673Y9957808D01*
X14563201Y9815162D01*
X14935167Y9814838D01*
X15278943Y9956883D01*
X15329789Y10007640D01*
X15406883Y9821057D01*
X15542739Y9684963D01*
X15314833Y9685162D01*
X14971057Y9543117D01*
X14707808Y9280327D01*
X14565162Y8936799D01*
X14564904Y8640120D01*
X14336799Y8734838D01*
X13964833Y8735162D01*
X13945310Y8727095D01*
X13880327Y8792192D01*
X13536799Y8934838D01*
X13164833Y8935162D01*
X12924834Y8835997D01*
X12686799Y8934838D01*
X12314833Y8935162D01*
X11971057Y8793117D01*
X11707808Y8530327D01*
X11565162Y8186799D01*
X11564838Y7814833D01*
X11639065Y7635189D01*
X11515162Y7336799D01*
X11514838Y6964833D01*
X11656883Y6621057D01*
X11842739Y6434876D01*
X11514833Y6435162D01*
X11171057Y6293117D01*
X10907808Y6030327D01*
X10765162Y5686799D01*
X10764838Y5314833D01*
X8784926Y5314833D01*
X8785162Y5585167D01*
X8643117Y5928943D01*
X8380327Y6192192D01*
X8036799Y6334838D01*
X7664833Y6335162D01*
X7321057Y6193117D01*
X7290448Y6162561D01*
X7236799Y6184838D01*
X6864833Y6185162D01*
X6521057Y6043117D01*
X6257808Y5780327D01*
X6152614Y5526992D01*
X6120749Y5558857D01*
X6184838Y5713201D01*
X6185162Y6085167D01*
X6043117Y6428943D01*
X5780327Y6692192D01*
X5685159Y6731709D01*
X5685162Y6735167D01*
X5543117Y7078943D01*
X5280327Y7342192D01*
X5205529Y7373251D01*
X5528943Y7506883D01*
X5792192Y7769673D01*
X5934838Y8113201D01*
X5935162Y8485167D01*
X5793117Y8828943D01*
X5530327Y9092192D01*
X5186799Y9234838D01*
X4814833Y9235162D01*
X4502544Y9106127D01*
X4493117Y9128943D01*
X4230327Y9392192D01*
X3886799Y9534838D01*
X3514833Y9535162D01*
X3171057Y9393117D01*
X2907808Y9130327D01*
X2802614Y8876992D01*
X2612068Y9067538D01*
X2734838Y9363201D01*
X2735162Y9735167D01*
X2660926Y9914833D01*
X7964838Y9914833D01*
X8106883Y9571057D01*
X8369673Y9307808D01*
X8713201Y9165162D01*
X9085167Y9164838D01*
X9428943Y9306883D01*
X9692192Y9569673D01*
X9834838Y9913201D01*
X9835162Y10285167D01*
X9693117Y10628943D01*
X9430327Y10892192D01*
X9086799Y11034838D01*
X8714833Y11035162D01*
X8371057Y10893117D01*
X8107808Y10630327D01*
X7965162Y10286799D01*
X7964838Y9914833D01*
X2660926Y9914833D01*
X2593117Y10078943D01*
X2330327Y10342192D01*
X1986799Y10484838D01*
X1614833Y10485162D01*
X1317358Y10362248D01*
X89803Y11589803D01*
X51022Y11616300D01*
X1754Y11626988D01*
X-47789Y11617666D01*
X-89803Y11589803D01*
X-3803601Y7876005D01*
X-3869673Y7942192D01*
X-4213201Y8084838D01*
X-4585167Y8085162D01*
X-4928943Y7943117D01*
X-5192192Y7680327D01*
X-5334838Y7336799D01*
X-5335162Y6964833D01*
X-5193117Y6621057D01*
X-5125892Y6553714D01*
X-7235289Y4444317D01*
X-7165162Y4613201D01*
X-7164838Y4985167D01*
X-7306883Y5328943D01*
X-7569673Y5592192D01*
X-7913201Y5734838D01*
X-8285167Y5735162D01*
X-8628943Y5593117D01*
X-8892192Y5330327D01*
X-9034838Y4986799D01*
X-9034927Y4884900D01*
X-9335167Y4885162D01*
X-9678943Y4743117D01*
X-9942192Y4480327D01*
X-10084838Y4136799D01*
X-10085162Y3764833D01*
X-9943117Y3421057D01*
X-9842422Y3320186D01*
X-10028943Y3243117D01*
X-10292192Y2980327D01*
X-10434838Y2636799D01*
X-10435162Y2264833D01*
X-10293117Y1921057D01*
X-10030327Y1657808D01*
X-10024300Y1655306D01*
X-11589803Y89803D01*
X-11615584Y52623D01*
X-11626952Y3509D01*
X-19955054Y3509D01*
X-20006883Y128943D01*
X-20269673Y392192D01*
X-20386855Y440851D01*
X-20257808Y569673D01*
X-20218291Y664841D01*
X-20214833Y664838D01*
X-19871057Y806883D01*
X-19607808Y1069673D01*
X-19465162Y1413201D01*
X-19464838Y1785167D01*
X-19606883Y2128943D01*
X-19869673Y2392192D01*
X-20213201Y2534838D01*
X-20288686Y2534904D01*
X-20306883Y2578943D01*
X-20569673Y2842192D01*
X-20913201Y2984838D01*
X-21285167Y2985162D01*
X-21628943Y2843117D01*
X-21892192Y2580327D01*
X-22034838Y2236799D01*
X-22035162Y1864833D01*
X-21893117Y1521057D01*
X-21889196Y1517129D01*
X-21984838Y1286799D01*
X-21985162Y914833D01*
X-21843117Y571057D01*
X-21682341Y410000D01*
X-22785198Y410000D01*
X-23112599Y737401D01*
X-23359161Y902148D01*
X-23650000Y960000D01*
X-25860394Y960000D01*
X-25310197Y1510197D01*
X-25282334Y1552211D01*
X-25273000Y1600000D01*
X-25273000Y4714833D01*
X-24085162Y4714833D01*
X-23943117Y4371057D01*
X-23680327Y4107808D01*
X-23336799Y3965162D01*
X-22964833Y3964838D01*
X-22810251Y4028710D01*
X-22536799Y3915162D01*
X-22164833Y3914838D01*
X-22109973Y3937506D01*
X-22080327Y3907808D01*
X-21736799Y3765162D01*
X-21364833Y3764838D01*
X-21124834Y3864003D01*
X-20886799Y3765162D01*
X-20514833Y3764838D01*
X-20171057Y3906883D01*
X-19907808Y4169673D01*
X-19765162Y4513201D01*
X-19764838Y4885167D01*
X-19906883Y5228943D01*
X-20169673Y5492192D01*
X-20513201Y5634838D01*
X-20885167Y5635162D01*
X-21125166Y5535997D01*
X-21363201Y5634838D01*
X-21735167Y5635162D01*
X-21790027Y5612494D01*
X-21819673Y5642192D01*
X-22163201Y5784838D01*
X-22535167Y5785162D01*
X-22689749Y5721290D01*
X-22963201Y5834838D01*
X-23335167Y5835162D01*
X-23678943Y5693117D01*
X-23942192Y5430327D01*
X-24084838Y5086799D01*
X-24085162Y4714833D01*
X-25273000Y4714833D01*
X-25273000Y6814833D01*
X-15085162Y6814833D01*
X-14943117Y6471057D01*
X-14680327Y6207808D01*
X-14336799Y6065162D01*
X-13964833Y6064838D01*
X-13621057Y6206883D01*
X-13590448Y6237439D01*
X-13536799Y6215162D01*
X-13164833Y6214838D01*
X-12821057Y6356883D01*
X-12790448Y6387439D01*
X-12736799Y6365162D01*
X-12364833Y6364838D01*
X-12029185Y6503524D01*
X-11936799Y6465162D01*
X-11564833Y6464838D01*
X-11221057Y6606883D01*
X-10957808Y6869673D01*
X-10815162Y7213201D01*
X-10815118Y7264833D01*
X-10785162Y7264833D01*
X-10643117Y6921057D01*
X-10380327Y6657808D01*
X-10036799Y6515162D01*
X-9664833Y6514838D01*
X-9321057Y6656883D01*
X-9057808Y6919673D01*
X-8915162Y7263201D01*
X-8914838Y7635167D01*
X-9056883Y7978943D01*
X-9319673Y8242192D01*
X-9663201Y8384838D01*
X-10035167Y8385162D01*
X-10378943Y8243117D01*
X-10642192Y7980327D01*
X-10784838Y7636799D01*
X-10785162Y7264833D01*
X-10815118Y7264833D01*
X-10814838Y7585167D01*
X-10956883Y7928943D01*
X-11219673Y8192192D01*
X-11563201Y8334838D01*
X-11792678Y8335038D01*
X-11657808Y8469673D01*
X-11515162Y8813201D01*
X-11514838Y9185167D01*
X-11656883Y9528943D01*
X-11919673Y9792192D01*
X-12263201Y9934838D01*
X-12635167Y9935162D01*
X-12978943Y9793117D01*
X-12999981Y9772116D01*
X-13219673Y9992192D01*
X-13563201Y10134838D01*
X-13935167Y10135162D01*
X-14278943Y9993117D01*
X-14542192Y9730327D01*
X-14684838Y9386799D01*
X-14685162Y9014833D01*
X-14543117Y8671057D01*
X-14280327Y8407808D01*
X-13936799Y8265162D01*
X-13564833Y8264838D01*
X-13221057Y8406883D01*
X-13200019Y8427884D01*
X-12980327Y8207808D01*
X-12891069Y8170745D01*
X-13078943Y8093117D01*
X-13109552Y8062561D01*
X-13163201Y8084838D01*
X-13535167Y8085162D01*
X-13878943Y7943117D01*
X-13909552Y7912561D01*
X-13963201Y7934838D01*
X-14335167Y7935162D01*
X-14678943Y7793117D01*
X-14942192Y7530327D01*
X-15084838Y7186799D01*
X-15085162Y6814833D01*
X-25273000Y6814833D01*
X-25273000Y8614833D01*
X-18235162Y8614833D01*
X-18093117Y8271057D01*
X-17830327Y8007808D01*
X-17486799Y7865162D01*
X-17114833Y7864838D01*
X-16771057Y8006883D01*
X-16507808Y8269673D01*
X-16365162Y8613201D01*
X-16364838Y8985167D01*
X-16506883Y9328943D01*
X-16769673Y9592192D01*
X-17113201Y9734838D01*
X-17485167Y9735162D01*
X-17828943Y9593117D01*
X-18092192Y9330327D01*
X-18234838Y8986799D01*
X-18235162Y8614833D01*
X-25273000Y8614833D01*
X-25273000Y10033000D01*
X-19050000Y10033000D01*
X-19000590Y10043006D01*
X-18960197Y10070197D01*
X-17685048Y11345346D01*
X-17685162Y11214833D01*
X-17543117Y10871057D01*
X-17280327Y10607808D01*
X-16936799Y10465162D01*
X-16564833Y10464838D01*
X-16221057Y10606883D01*
X-15957808Y10869673D01*
X-15815162Y11213201D01*
X-15814838Y11585167D01*
X-15956883Y11928943D01*
X-16219673Y12192192D01*
X-16563201Y12334838D01*
X-16695441Y12334953D01*
X-16265561Y12764833D01*
X-11135162Y12764833D01*
X-10993117Y12421057D01*
X-10730327Y12157808D01*
X-10386799Y12015162D01*
X-10014833Y12014838D01*
X-9671057Y12156883D01*
X-9407808Y12419673D01*
X-9265162Y12763201D01*
X-9264838Y13135167D01*
X-9406883Y13478943D01*
X-9669673Y13742192D01*
X-10013201Y13884838D01*
X-10385167Y13885162D01*
X-10728943Y13743117D01*
X-10992192Y13480327D01*
X-11134838Y13136799D01*
X-11135162Y12764833D01*
X-16265561Y12764833D01*
X-15176285Y13854109D01*
X-14980327Y13657808D01*
X-14636799Y13515162D01*
X-14264833Y13514838D01*
X-13921057Y13656883D01*
X-13662657Y13914833D01*
X-8435162Y13914833D01*
X-8293117Y13571057D01*
X-8030327Y13307808D01*
X-7686799Y13165162D01*
X-7314833Y13164838D01*
X-6971057Y13306883D01*
X-6707808Y13569673D01*
X-6565162Y13913201D01*
X-6565118Y13964833D01*
X6064838Y13964833D01*
X6206883Y13621057D01*
X6237439Y13590448D01*
X6215162Y13536799D01*
X6214838Y13164833D01*
X6356883Y12821057D01*
X6387439Y12790448D01*
X6365162Y12736799D01*
X6364838Y12364833D01*
X6506883Y12021057D01*
X6537439Y11990448D01*
X6515162Y11936799D01*
X6514838Y11564833D01*
X6656883Y11221057D01*
X6919673Y10957808D01*
X7263201Y10815162D01*
X7635167Y10814838D01*
X7978943Y10956883D01*
X8242192Y11219673D01*
X8384838Y11563201D01*
X8384994Y11742722D01*
X8519673Y11607808D01*
X8863201Y11465162D01*
X9235167Y11464838D01*
X9578943Y11606883D01*
X9842192Y11869673D01*
X9984838Y12213201D01*
X9985162Y12585167D01*
X9843117Y12928943D01*
X9772160Y13000024D01*
X9992192Y13219673D01*
X10134838Y13563201D01*
X10135162Y13935167D01*
X9993117Y14278943D01*
X9730327Y14542192D01*
X9386799Y14684838D01*
X9014833Y14685162D01*
X8671057Y14543117D01*
X8407808Y14280327D01*
X8265162Y13936799D01*
X8264838Y13564833D01*
X8406883Y13221057D01*
X8477840Y13149976D01*
X8257808Y12930327D01*
X8206038Y12805652D01*
X8093117Y13078943D01*
X8062561Y13109552D01*
X8084838Y13163201D01*
X8085162Y13535167D01*
X7943117Y13878943D01*
X7912561Y13909552D01*
X7934838Y13963201D01*
X7935162Y14335167D01*
X7793117Y14678943D01*
X7530327Y14942192D01*
X7186799Y15084838D01*
X6814833Y15085162D01*
X6471057Y14943117D01*
X6207808Y14680327D01*
X6065162Y14336799D01*
X6064838Y13964833D01*
X-6565118Y13964833D01*
X-6564838Y14285167D01*
X-6706883Y14628943D01*
X-6969673Y14892192D01*
X-7313201Y15034838D01*
X-7685167Y15035162D01*
X-8028943Y14893117D01*
X-8292192Y14630327D01*
X-8434838Y14286799D01*
X-8435162Y13914833D01*
X-13662657Y13914833D01*
X-13657808Y13919673D01*
X-13515162Y14263201D01*
X-13514838Y14635167D01*
X-13656883Y14978943D01*
X-13853995Y15176399D01*
X-12715561Y16314833D01*
X-7035162Y16314833D01*
X-6893117Y15971057D01*
X-6630327Y15707808D01*
X-6286799Y15565162D01*
X-5914833Y15564838D01*
X-5571057Y15706883D01*
X-5307808Y15969673D01*
X-5165162Y16313201D01*
X-5164838Y16685167D01*
X-5306883Y17028943D01*
X-5569673Y17292192D01*
X-5913201Y17434838D01*
X-6285167Y17435162D01*
X-6628943Y17293117D01*
X-6892192Y17030327D01*
X-7034838Y16686799D01*
X-7035162Y16314833D01*
X-12715561Y16314833D01*
X-10634874Y18395520D01*
X-10635162Y18064833D01*
X-10493117Y17721057D01*
X-10230327Y17457808D01*
X-9886799Y17315162D01*
X-9514833Y17314838D01*
X-9171057Y17456883D01*
X-8907808Y17719673D01*
X-8765162Y18063201D01*
X-8764838Y18435167D01*
X-8874359Y18700228D01*
X-8765162Y18963201D01*
X-8764919Y19242547D01*
X-8680327Y19157808D01*
X-8336799Y19015162D01*
X-7964833Y19014838D01*
X-7621057Y19156883D01*
X-7357808Y19419673D01*
X-7215162Y19763201D01*
X-7214838Y20135167D01*
X-7289074Y20314833D01*
X-4735162Y20314833D01*
X-4593117Y19971057D01*
X-4330327Y19707808D01*
X-3986799Y19565162D01*
X-3614833Y19564838D01*
X-3271057Y19706883D01*
X-3007808Y19969673D01*
X-2865162Y20313201D01*
X-2864838Y20685167D01*
X-3006883Y21028943D01*
X-3269673Y21292192D01*
X-3613201Y21434838D01*
X-3985167Y21435162D01*
X-4328943Y21293117D01*
X-4592192Y21030327D01*
X-4734838Y20686799D01*
X-4735162Y20314833D01*
X-7289074Y20314833D01*
X-7325062Y20401930D01*
X-7114479Y20488941D01*
X-6936799Y20415162D01*
X-6564833Y20414838D01*
X-6221057Y20556883D01*
X-5957808Y20819673D01*
X-5815162Y21163201D01*
X-5814838Y21535167D01*
X-5956883Y21878943D01*
X-6219673Y22142192D01*
X-6563201Y22284838D01*
X-6935167Y22285162D01*
X-7123928Y22207168D01*
X-7224359Y22450228D01*
X-7115162Y22713201D01*
X-7114838Y23085167D01*
X-7256883Y23428943D01*
X-7519673Y23692192D01*
X-7863201Y23834838D01*
X-8235167Y23835162D01*
X-8578943Y23693117D01*
X-8842192Y23430327D01*
X-8984838Y23086799D01*
X-8985162Y22714833D01*
X-8875641Y22449772D01*
X-8984838Y22186799D01*
X-8985162Y21814833D01*
X-8873774Y21545253D01*
X-8878943Y21543117D01*
X-9142192Y21280327D01*
X-9284838Y20936799D01*
X-9285162Y20564833D01*
X-9143117Y20221057D01*
X-9077249Y20155074D01*
X-9084838Y20136799D01*
X-9085081Y19857453D01*
X-9169673Y19942192D01*
X-9513201Y20084838D01*
X-9885167Y20085162D01*
X-10033000Y20024079D01*
X-10033000Y25273000D01*
X-1600000Y25273000D01*
X-1550590Y25283006D01*
X-1510197Y25310197D01*
X-560000Y26260394D01*
X-560000Y24685053D01*
X-560000Y24685053D01*
G37*
X-560000Y24685053D02*
X-685167Y24685162D01*
X-1028943Y24543117D01*
X-1292192Y24280327D01*
X-1434838Y23936799D01*
X-1435162Y23564833D01*
X-1293117Y23221057D01*
X-1137159Y23064827D01*
X-1160000Y22950000D01*
X-1160000Y21262463D01*
X-1192192Y21230327D01*
X-1334838Y20886799D01*
X-1335162Y20514833D01*
X-1193117Y20171057D01*
X-930327Y19907808D01*
X-586799Y19765162D01*
X-214833Y19764838D01*
X128943Y19906883D01*
X392192Y20169673D01*
X440825Y20286794D01*
X519673Y20207808D01*
X698406Y20133591D01*
X806883Y19871057D01*
X1069673Y19607808D01*
X1413201Y19465162D01*
X1785167Y19464838D01*
X2128943Y19606883D01*
X2392192Y19869673D01*
X2534838Y20213201D01*
X2534842Y20218001D01*
X2628943Y20256883D01*
X2892192Y20519673D01*
X3034838Y20863201D01*
X3035162Y21235167D01*
X2893117Y21578943D01*
X2707552Y21764833D01*
X3764838Y21764833D01*
X3874359Y21499772D01*
X3765162Y21236799D01*
X3764838Y20864833D01*
X3906883Y20521057D01*
X4169673Y20257808D01*
X4513201Y20115162D01*
X4885167Y20114838D01*
X5228943Y20256883D01*
X5492192Y20519673D01*
X5634838Y20863201D01*
X5635162Y21235167D01*
X5525641Y21500228D01*
X5634838Y21763201D01*
X5635162Y22135167D01*
X5612494Y22190027D01*
X5642192Y22219673D01*
X5705462Y22372044D01*
X5719673Y22357808D01*
X6063201Y22215162D01*
X6435167Y22214838D01*
X6778943Y22356883D01*
X7042192Y22619673D01*
X7184838Y22963201D01*
X7185162Y23335167D01*
X7043117Y23678943D01*
X6780327Y23942192D01*
X6601594Y24016409D01*
X6493117Y24278943D01*
X6230327Y24542192D01*
X5886799Y24684838D01*
X5514833Y24685162D01*
X5171057Y24543117D01*
X5161133Y24533210D01*
X5036799Y24584838D01*
X4664833Y24585162D01*
X4321057Y24443117D01*
X4057808Y24180327D01*
X3915162Y23836799D01*
X3914838Y23464833D01*
X4024359Y23199772D01*
X3915162Y22936799D01*
X3914838Y22564833D01*
X3937506Y22509973D01*
X3907808Y22480327D01*
X3765162Y22136799D01*
X3764838Y21764833D01*
X2707552Y21764833D01*
X2630327Y21842192D01*
X2286799Y21984838D01*
X1914833Y21985162D01*
X1571057Y21843117D01*
X1537752Y21809871D01*
X1236799Y21934838D01*
X864833Y21935162D01*
X521057Y21793117D01*
X360000Y21632341D01*
X360000Y22635198D01*
X737401Y23012599D01*
X902148Y23259161D01*
X960000Y23550000D01*
X960000Y25860394D01*
X1510197Y25310197D01*
X1552211Y25282334D01*
X1600000Y25273000D01*
X10033000Y25273000D01*
X10033000Y19050000D01*
X10043006Y19000590D01*
X10070197Y18960197D01*
X18960197Y10070197D01*
X19002211Y10042334D01*
X19050000Y10033000D01*
X25273000Y10033000D01*
X25273000Y1600000D01*
X25283006Y1550590D01*
X25310197Y1510197D01*
X26260394Y560000D01*
X24685053Y560000D01*
X24685162Y685167D01*
X24543117Y1028943D01*
X24280327Y1292192D01*
X23936799Y1434838D01*
X23564833Y1435162D01*
X23221057Y1293117D01*
X23031369Y1103760D01*
X23000000Y1110000D01*
X21362376Y1110000D01*
X21280327Y1192192D01*
X20936799Y1334838D01*
X20564833Y1335162D01*
X20221057Y1193117D01*
X19957808Y930327D01*
X19815162Y586799D01*
X19814838Y214833D01*
X19956883Y-128943D01*
X20219673Y-392192D01*
X20301482Y-426162D01*
X20207808Y-519673D01*
X20133591Y-698406D01*
X19871057Y-806883D01*
X19607808Y-1069673D01*
X19465162Y-1413201D01*
X19464838Y-1785167D01*
X19606883Y-2128943D01*
X19869673Y-2392192D01*
X20213201Y-2534838D01*
X20218001Y-2534842D01*
X20256883Y-2628943D01*
X20519673Y-2892192D01*
X20863201Y-3034838D01*
X21235167Y-3035162D01*
X21578943Y-2893117D01*
X21842192Y-2630327D01*
X21984838Y-2286799D01*
X21985162Y-1914833D01*
X21843117Y-1571057D01*
X21809871Y-1537752D01*
X21934838Y-1236799D01*
X21935162Y-864833D01*
X21793117Y-521057D01*
X21682254Y-410000D01*
X22685198Y-410000D01*
X23012599Y-737401D01*
X23259160Y-902148D01*
X23307414Y-911746D01*
X23550000Y-960000D01*
X25860394Y-960000D01*
X25310197Y-1510197D01*
X25282334Y-1552211D01*
X25273000Y-1600000D01*
X25273000Y-10033000D01*
X19050000Y-10033000D01*
X19000590Y-10043006D01*
X18960197Y-10070197D01*
X10070197Y-18960197D01*
X10042334Y-19002211D01*
X10033000Y-19050000D01*
X10033000Y-25273000D01*
X1600000Y-25273000D01*
X1550590Y-25283006D01*
X1510197Y-25310197D01*
X546442Y-26273952D01*
X530327Y-26257808D01*
X360000Y-26187082D01*
X360000Y-24884922D01*
X635167Y-24885162D01*
X978943Y-24743117D01*
X1242192Y-24480327D01*
X1384838Y-24136799D01*
X1385162Y-23764833D01*
X1243117Y-23421057D01*
X1078866Y-23256519D01*
X1110000Y-23100000D01*
X1110000Y-21485167D01*
X5864838Y-21485167D01*
X6006883Y-21828943D01*
X6269673Y-22092192D01*
X6613201Y-22234838D01*
X6985167Y-22235162D01*
X7173928Y-22157168D01*
X7274359Y-22400228D01*
X7165162Y-22663201D01*
X7164838Y-23035167D01*
X7306883Y-23378943D01*
X7569673Y-23642192D01*
X7913201Y-23784838D01*
X8285167Y-23785162D01*
X8628943Y-23643117D01*
X8892192Y-23380327D01*
X9034838Y-23036799D01*
X9035162Y-22664833D01*
X8925641Y-22399772D01*
X9034838Y-22136799D01*
X9035162Y-21764833D01*
X8893117Y-21421057D01*
X8630327Y-21157808D01*
X8535159Y-21118291D01*
X8535162Y-21114833D01*
X8393117Y-20771057D01*
X8130327Y-20507808D01*
X7786799Y-20365162D01*
X7414833Y-20364838D01*
X7199896Y-20453648D01*
X6986799Y-20365162D01*
X6614833Y-20364838D01*
X6271057Y-20506883D01*
X6007808Y-20769673D01*
X5865162Y-21113201D01*
X5864838Y-21485167D01*
X1110000Y-21485167D01*
X1110000Y-21412376D01*
X1192192Y-21330327D01*
X1334838Y-20986799D01*
X1335100Y-20685167D01*
X2914838Y-20685167D01*
X3056883Y-21028943D01*
X3319673Y-21292192D01*
X3663201Y-21434838D01*
X4035167Y-21435162D01*
X4378943Y-21293117D01*
X4642192Y-21030327D01*
X4784838Y-20686799D01*
X4785162Y-20314833D01*
X4643117Y-19971057D01*
X4380327Y-19707808D01*
X4036799Y-19565162D01*
X3664833Y-19564838D01*
X3321057Y-19706883D01*
X3057808Y-19969673D01*
X2915162Y-20313201D01*
X2914838Y-20685167D01*
X1335100Y-20685167D01*
X1335162Y-20614833D01*
X1193117Y-20271057D01*
X930327Y-20007808D01*
X586799Y-19865162D01*
X214833Y-19864838D01*
X-128943Y-20006883D01*
X-392192Y-20269673D01*
X-440851Y-20386855D01*
X-569673Y-20257808D01*
X-664841Y-20218291D01*
X-664838Y-20214833D01*
X-806883Y-19871057D01*
X-1069673Y-19607808D01*
X-1413201Y-19465162D01*
X-1785167Y-19464838D01*
X-2128943Y-19606883D01*
X-2392192Y-19869673D01*
X-2534838Y-20213201D01*
X-2534947Y-20338704D01*
X-2578943Y-20356883D01*
X-2842192Y-20619673D01*
X-2984838Y-20963201D01*
X-2985162Y-21335167D01*
X-2843117Y-21678943D01*
X-2580327Y-21942192D01*
X-2236799Y-22084838D01*
X-1864833Y-22085162D01*
X-1521057Y-21943117D01*
X-1481756Y-21903884D01*
X-1286799Y-21984838D01*
X-914833Y-21985162D01*
X-571057Y-21843117D01*
X-410000Y-21682341D01*
X-410000Y-22785198D01*
X-937401Y-23312599D01*
X-1102148Y-23559161D01*
X-1160000Y-23850000D01*
X-1160000Y-25660394D01*
X-1510197Y-25310197D01*
X-1552211Y-25282334D01*
X-1600000Y-25273000D01*
X-10033000Y-25273000D01*
X-10033000Y-23435167D01*
X-5835162Y-23435167D01*
X-5693117Y-23778943D01*
X-5430327Y-24042192D01*
X-5086799Y-24184838D01*
X-4714833Y-24185162D01*
X-4371057Y-24043117D01*
X-4107808Y-23780327D01*
X-3965162Y-23436799D01*
X-3964838Y-23064833D01*
X-4049420Y-22860127D01*
X-3915162Y-22536799D01*
X-3914838Y-22164833D01*
X-3937506Y-22109973D01*
X-3907808Y-22080327D01*
X-3765162Y-21736799D01*
X-3764838Y-21364833D01*
X-3874359Y-21099772D01*
X-3765162Y-20836799D01*
X-3764838Y-20464833D01*
X-3906883Y-20121057D01*
X-4169673Y-19857808D01*
X-4513201Y-19715162D01*
X-4885167Y-19714838D01*
X-5228943Y-19856883D01*
X-5492192Y-20119673D01*
X-5634838Y-20463201D01*
X-5635162Y-20835167D01*
X-5525641Y-21100228D01*
X-5634838Y-21363201D01*
X-5635162Y-21735167D01*
X-5612494Y-21790027D01*
X-5642192Y-21819673D01*
X-5784838Y-22163201D01*
X-5785162Y-22535167D01*
X-5700580Y-22739873D01*
X-5834838Y-23063201D01*
X-5835162Y-23435167D01*
X-10033000Y-23435167D01*
X-10033000Y-19050000D01*
X-10043006Y-19000590D01*
X-10070197Y-18960197D01*
X-11100963Y-17929431D01*
X-10771057Y-17793117D01*
X-10507808Y-17530327D01*
X-10365162Y-17186799D01*
X-10364838Y-16814833D01*
X-10506883Y-16471057D01*
X-10769673Y-16207808D01*
X-11113201Y-16065162D01*
X-11485167Y-16064838D01*
X-11828943Y-16206883D01*
X-12092192Y-16469673D01*
X-12229661Y-16800733D01*
X-14995227Y-14035167D01*
X-14785162Y-14035167D01*
X-14643117Y-14378943D01*
X-14380327Y-14642192D01*
X-14036799Y-14784838D01*
X-13664833Y-14785162D01*
X-13321057Y-14643117D01*
X-13057808Y-14380327D01*
X-12956009Y-14135167D01*
X-10135162Y-14135167D01*
X-9993117Y-14478943D01*
X-9730327Y-14742192D01*
X-9386799Y-14884838D01*
X-9204964Y-14884996D01*
X-9378943Y-14956883D01*
X-9642192Y-15219673D01*
X-9784838Y-15563201D01*
X-9785162Y-15935167D01*
X-9643117Y-16278943D01*
X-9380327Y-16542192D01*
X-9036799Y-16684838D01*
X-8664833Y-16685162D01*
X-8321057Y-16543117D01*
X-8057808Y-16280327D01*
X-7915162Y-15936799D01*
X-7914838Y-15564833D01*
X-8056883Y-15221057D01*
X-8319673Y-14957808D01*
X-8663201Y-14815162D01*
X-8845036Y-14815004D01*
X-8671057Y-14743117D01*
X-8407808Y-14480327D01*
X-8265162Y-14136799D01*
X-8264838Y-13764833D01*
X-8406883Y-13421057D01*
X-8580583Y-13247053D01*
X-8571057Y-13243117D01*
X-8307808Y-12980327D01*
X-8233591Y-12801594D01*
X-8211489Y-12792461D01*
X-8093117Y-13078943D01*
X-8062561Y-13109552D01*
X-8084838Y-13163201D01*
X-8085162Y-13535167D01*
X-7943117Y-13878943D01*
X-7912561Y-13909552D01*
X-7934838Y-13963201D01*
X-7935162Y-14335167D01*
X-7793117Y-14678943D01*
X-7530327Y-14942192D01*
X-7186799Y-15084838D01*
X-6814833Y-15085162D01*
X-6471057Y-14943117D01*
X-6207808Y-14680327D01*
X-6065162Y-14336799D01*
X-6064838Y-13964833D01*
X-6206883Y-13621057D01*
X-6237439Y-13590448D01*
X-6215162Y-13536799D01*
X-6215030Y-13385167D01*
X5714838Y-13385167D01*
X5856883Y-13728943D01*
X6119673Y-13992192D01*
X6463201Y-14134838D01*
X6815012Y-14135144D01*
X6814838Y-14335167D01*
X6956883Y-14678943D01*
X7219673Y-14942192D01*
X7563201Y-15084838D01*
X7935167Y-15085162D01*
X8115033Y-15010843D01*
X8114838Y-15235167D01*
X8256883Y-15578943D01*
X8519673Y-15842192D01*
X8863201Y-15984838D01*
X9235167Y-15985162D01*
X9578943Y-15843117D01*
X9842192Y-15580327D01*
X9984838Y-15236799D01*
X9985162Y-14864833D01*
X9843117Y-14521057D01*
X9580327Y-14257808D01*
X9236799Y-14115162D01*
X8864833Y-14114838D01*
X8684967Y-14189157D01*
X8685162Y-13964833D01*
X8677095Y-13945310D01*
X8742192Y-13880327D01*
X8884838Y-13536799D01*
X8885162Y-13164833D01*
X8775641Y-12899772D01*
X8884838Y-12636799D01*
X8885162Y-12264833D01*
X8743117Y-11921057D01*
X8480327Y-11657808D01*
X8257210Y-11565161D01*
X8342192Y-11480327D01*
X8484838Y-11136799D01*
X8485162Y-10764833D01*
X8343117Y-10421057D01*
X8080327Y-10157808D01*
X7736799Y-10015162D01*
X7364833Y-10014838D01*
X7021057Y-10156883D01*
X6757808Y-10419673D01*
X6615162Y-10763201D01*
X6614838Y-11135167D01*
X6751086Y-11464913D01*
X6664833Y-11464838D01*
X6321057Y-11606883D01*
X6057808Y-11869673D01*
X5915162Y-12213201D01*
X5914838Y-12585167D01*
X5922905Y-12604690D01*
X5857808Y-12669673D01*
X5715162Y-13013201D01*
X5714838Y-13385167D01*
X-6215030Y-13385167D01*
X-6214838Y-13164833D01*
X-6356883Y-12821057D01*
X-6387439Y-12790448D01*
X-6365162Y-12736799D01*
X-6364838Y-12364833D01*
X-6506883Y-12021057D01*
X-6537439Y-11990448D01*
X-6515162Y-11936799D01*
X-6514838Y-11564833D01*
X-6656883Y-11221057D01*
X-6919673Y-10957808D01*
X-7263201Y-10815162D01*
X-7635167Y-10814838D01*
X-7978943Y-10956883D01*
X-8082994Y-11060753D01*
X-8313201Y-10965162D01*
X-8685167Y-10964838D01*
X-9028943Y-11106883D01*
X-9292192Y-11369673D01*
X-9366409Y-11548406D01*
X-9628943Y-11656883D01*
X-9892192Y-11919673D01*
X-10034838Y-12263201D01*
X-10035162Y-12635167D01*
X-9893117Y-12978943D01*
X-9719417Y-13152947D01*
X-9728943Y-13156883D01*
X-9992192Y-13419673D01*
X-10134838Y-13763201D01*
X-10135162Y-14135167D01*
X-12956009Y-14135167D01*
X-12915162Y-14036799D01*
X-12914838Y-13664833D01*
X-13056883Y-13321057D01*
X-13319673Y-13057808D01*
X-13663201Y-12915162D01*
X-14035167Y-12914838D01*
X-14378943Y-13056883D01*
X-14642192Y-13319673D01*
X-14784838Y-13663201D01*
X-14785162Y-14035167D01*
X-14995227Y-14035167D01*
X-16780201Y-12250193D01*
X-16521057Y-12143117D01*
X-16257808Y-11880327D01*
X-16115162Y-11536799D01*
X-16114838Y-11164833D01*
X-16256883Y-10821057D01*
X-16519673Y-10557808D01*
X-16863201Y-10415162D01*
X-17235167Y-10414838D01*
X-17578943Y-10556883D01*
X-17842192Y-10819673D01*
X-17950320Y-11080074D01*
X-18960197Y-10070197D01*
X-19002211Y-10042334D01*
X-19050000Y-10033000D01*
X-25273000Y-10033000D01*
X-25273000Y-9035167D01*
X-16685162Y-9035167D01*
X-16543117Y-9378943D01*
X-16280327Y-9642192D01*
X-15936799Y-9784838D01*
X-15564833Y-9785162D01*
X-15221057Y-9643117D01*
X-14957808Y-9380327D01*
X-14815162Y-9036799D01*
X-14814838Y-8664833D01*
X-14956883Y-8321057D01*
X-15219673Y-8057808D01*
X-15563201Y-7915162D01*
X-15935167Y-7914838D01*
X-16278943Y-8056883D01*
X-16542192Y-8319673D01*
X-16684838Y-8663201D01*
X-16685162Y-9035167D01*
X-25273000Y-9035167D01*
X-25273000Y-8235167D01*
X-23835162Y-8235167D01*
X-23693117Y-8578943D01*
X-23430327Y-8842192D01*
X-23086799Y-8984838D01*
X-22714833Y-8985162D01*
X-22449772Y-8875641D01*
X-22186799Y-8984838D01*
X-21814833Y-8985162D01*
X-21471057Y-8843117D01*
X-21207808Y-8580327D01*
X-21168291Y-8485159D01*
X-21164833Y-8485162D01*
X-20821057Y-8343117D01*
X-20557808Y-8080327D01*
X-20476771Y-7885167D01*
X-15085162Y-7885167D01*
X-14943117Y-8228943D01*
X-14680327Y-8492192D01*
X-14336799Y-8634838D01*
X-13964833Y-8635162D01*
X-13945310Y-8627095D01*
X-13895310Y-8677183D01*
X-14034838Y-9013201D01*
X-14035162Y-9385167D01*
X-13893117Y-9728943D01*
X-13630327Y-9992192D01*
X-13286799Y-10134838D01*
X-12914833Y-10135162D01*
X-12571057Y-9993117D01*
X-12307808Y-9730327D01*
X-12165162Y-9386799D01*
X-12164838Y-9014833D01*
X-12218414Y-8885167D01*
X-9635162Y-8885167D01*
X-9493117Y-9228943D01*
X-9230327Y-9492192D01*
X-8886799Y-9634838D01*
X-8514833Y-9635162D01*
X-8393836Y-9585167D01*
X-4185162Y-9585167D01*
X-4043117Y-9928943D01*
X-3780327Y-10192192D01*
X-3436799Y-10334838D01*
X-3064833Y-10335162D01*
X-2721057Y-10193117D01*
X-2457808Y-9930327D01*
X-2315162Y-9586799D01*
X-2314838Y-9214833D01*
X-2456883Y-8871057D01*
X-2719673Y-8607808D01*
X-3063201Y-8465162D01*
X-3435167Y-8464838D01*
X-3778943Y-8606883D01*
X-4042192Y-8869673D01*
X-4184838Y-9213201D01*
X-4185162Y-9585167D01*
X-8393836Y-9585167D01*
X-8171057Y-9493117D01*
X-7907808Y-9230327D01*
X-7765162Y-8886799D01*
X-7764838Y-8514833D01*
X-7906883Y-8171057D01*
X-8169673Y-7907808D01*
X-8513201Y-7765162D01*
X-8885167Y-7764838D01*
X-9228943Y-7906883D01*
X-9492192Y-8169673D01*
X-9634838Y-8513201D01*
X-9635162Y-8885167D01*
X-12218414Y-8885167D01*
X-12306883Y-8671057D01*
X-12342783Y-8635094D01*
X-12264833Y-8635162D01*
X-11921057Y-8493117D01*
X-11657808Y-8230327D01*
X-11516300Y-7889540D01*
X-11286799Y-7984838D01*
X-10914833Y-7985162D01*
X-10571057Y-7843117D01*
X-10307808Y-7580327D01*
X-10165162Y-7236799D01*
X-10164856Y-6885167D01*
X-5635162Y-6885167D01*
X-5493117Y-7228943D01*
X-5483210Y-7238867D01*
X-5534838Y-7363201D01*
X-5535162Y-7735167D01*
X-5393117Y-8078943D01*
X-5130327Y-8342192D01*
X-4786799Y-8484838D01*
X-4414833Y-8485162D01*
X-4071057Y-8343117D01*
X-3899976Y-8172334D01*
X-3780327Y-8292192D01*
X-3436799Y-8434838D01*
X-3064833Y-8435162D01*
X-2721057Y-8293117D01*
X-2457808Y-8030327D01*
X-2315162Y-7686799D01*
X-2314838Y-7314833D01*
X-2456883Y-6971057D01*
X-2719673Y-6707808D01*
X-3063201Y-6565162D01*
X-3435167Y-6564838D01*
X-3765000Y-6701122D01*
X-3764838Y-6514833D01*
X-3906883Y-6171057D01*
X-4169673Y-5907808D01*
X-4513201Y-5765162D01*
X-4885167Y-5764838D01*
X-5228943Y-5906883D01*
X-5492192Y-6169673D01*
X-5634838Y-6513201D01*
X-5635162Y-6885167D01*
X-10164856Y-6885167D01*
X-10164838Y-6864833D01*
X-10306883Y-6521057D01*
X-10569673Y-6257808D01*
X-10898849Y-6121122D01*
X-10757808Y-5980327D01*
X-10615162Y-5636799D01*
X-10614838Y-5264833D01*
X-10756883Y-4921057D01*
X-10792710Y-4885167D01*
X-2835162Y-4885167D01*
X-2693117Y-5228943D01*
X-2430327Y-5492192D01*
X-2086799Y-5634838D01*
X-1714833Y-5635162D01*
X-1371057Y-5493117D01*
X-1212832Y-5335167D01*
X-885162Y-5335167D01*
X-743117Y-5678943D01*
X-480327Y-5942192D01*
X-136799Y-6084838D01*
X235167Y-6085162D01*
X578943Y-5943117D01*
X842192Y-5680327D01*
X984838Y-5336799D01*
X985162Y-4964833D01*
X843117Y-4621057D01*
X580327Y-4357808D01*
X236799Y-4215162D01*
X-135167Y-4214838D01*
X-478943Y-4356883D01*
X-742192Y-4619673D01*
X-884838Y-4963201D01*
X-885162Y-5335167D01*
X-1212832Y-5335167D01*
X-1107808Y-5230327D01*
X-965162Y-4886799D01*
X-964838Y-4514833D01*
X-1106883Y-4171057D01*
X-1369673Y-3907808D01*
X-1713201Y-3765162D01*
X-2085167Y-3764838D01*
X-2428943Y-3906883D01*
X-2692192Y-4169673D01*
X-2834838Y-4513201D01*
X-2835162Y-4885167D01*
X-10792710Y-4885167D01*
X-11019673Y-4657808D01*
X-11363201Y-4515162D01*
X-11735167Y-4514838D01*
X-12078943Y-4656883D01*
X-12342192Y-4919673D01*
X-12484838Y-5263201D01*
X-12485162Y-5635167D01*
X-12431528Y-5764972D01*
X-12585167Y-5764838D01*
X-12679394Y-5803772D01*
X-13013201Y-5665162D01*
X-13385167Y-5664838D01*
X-13728943Y-5806883D01*
X-13992192Y-6069673D01*
X-14134838Y-6413201D01*
X-14135144Y-6765012D01*
X-14335167Y-6764838D01*
X-14678943Y-6906883D01*
X-14942192Y-7169673D01*
X-15084838Y-7513201D01*
X-15085162Y-7885167D01*
X-20476771Y-7885167D01*
X-20415162Y-7736799D01*
X-20414838Y-7364833D01*
X-20503648Y-7149896D01*
X-20415162Y-6936799D01*
X-20414838Y-6564833D01*
X-20556883Y-6221057D01*
X-20819673Y-5957808D01*
X-21163201Y-5815162D01*
X-21535167Y-5814838D01*
X-21878943Y-5956883D01*
X-22142192Y-6219673D01*
X-22284838Y-6563201D01*
X-22285162Y-6935167D01*
X-22207168Y-7123928D01*
X-22450228Y-7224359D01*
X-22713201Y-7115162D01*
X-23085167Y-7114838D01*
X-23428943Y-7256883D01*
X-23692192Y-7519673D01*
X-23834838Y-7863201D01*
X-23835162Y-8235167D01*
X-25273000Y-8235167D01*
X-25273000Y-3985167D01*
X-21435162Y-3985167D01*
X-21293117Y-4328943D01*
X-21030327Y-4592192D01*
X-20686799Y-4734838D01*
X-20314833Y-4735162D01*
X-19971057Y-4593117D01*
X-19707808Y-4330327D01*
X-19585247Y-4035167D01*
X-7285162Y-4035167D01*
X-7143117Y-4378943D01*
X-6880327Y-4642192D01*
X-6536799Y-4784838D01*
X-6164833Y-4785162D01*
X-5821057Y-4643117D01*
X-5755074Y-4577249D01*
X-5736799Y-4584838D01*
X-5364833Y-4585162D01*
X-5021057Y-4443117D01*
X-4917006Y-4339247D01*
X-4686799Y-4434838D01*
X-4314833Y-4435162D01*
X-4259973Y-4412494D01*
X-4230327Y-4442192D01*
X-3886799Y-4584838D01*
X-3514833Y-4585162D01*
X-3171057Y-4443117D01*
X-2907808Y-4180327D01*
X-2765162Y-3836799D01*
X-2764856Y-3485162D01*
X-2764833Y-3485162D01*
X-2421057Y-3343117D01*
X-2157808Y-3080327D01*
X-2015162Y-2736799D01*
X-2014838Y-2364833D01*
X-2156883Y-2021057D01*
X-2419673Y-1757808D01*
X-2763201Y-1615162D01*
X-3135167Y-1614838D01*
X-3478943Y-1756883D01*
X-3742192Y-2019673D01*
X-3884838Y-2363201D01*
X-3885144Y-2714838D01*
X-3940027Y-2737506D01*
X-3969673Y-2707808D01*
X-4313201Y-2565162D01*
X-4685167Y-2564838D01*
X-5028943Y-2706883D01*
X-5132994Y-2810753D01*
X-5363201Y-2715162D01*
X-5735167Y-2714838D01*
X-6078943Y-2856883D01*
X-6144926Y-2922751D01*
X-6163201Y-2915162D01*
X-6535167Y-2914838D01*
X-6878943Y-3056883D01*
X-7142192Y-3319673D01*
X-7284838Y-3663201D01*
X-7285162Y-4035167D01*
X-19585247Y-4035167D01*
X-19565162Y-3986799D01*
X-19564838Y-3614833D01*
X-19706883Y-3271057D01*
X-19969673Y-3007808D01*
X-20313201Y-2865162D01*
X-20685167Y-2864838D01*
X-21028943Y-3006883D01*
X-21292192Y-3269673D01*
X-21434838Y-3613201D01*
X-21435162Y-3985167D01*
X-25273000Y-3985167D01*
X-25273000Y-1600000D01*
X-25283006Y-1550590D01*
X-25310197Y-1510197D01*
X-26260394Y-560000D01*
X-24785053Y-560000D01*
X-24785162Y-685167D01*
X-24643117Y-1028943D01*
X-24380327Y-1292192D01*
X-24036799Y-1434838D01*
X-23664833Y-1435162D01*
X-23321057Y-1293117D01*
X-23131369Y-1103760D01*
X-23100000Y-1110000D01*
X-21412376Y-1110000D01*
X-21330327Y-1192192D01*
X-20986799Y-1334838D01*
X-20614833Y-1335162D01*
X-20271057Y-1193117D01*
X-20007808Y-930327D01*
X-19906009Y-685167D01*
X-5935162Y-685167D01*
X-5793117Y-1028943D01*
X-5530327Y-1292192D01*
X-5186799Y-1434838D01*
X-4814833Y-1435162D01*
X-4471057Y-1293117D01*
X-4207808Y-1030327D01*
X-4065162Y-686799D01*
X-4064838Y-314833D01*
X-4118414Y-185167D01*
X-935162Y-185167D01*
X-793117Y-528943D01*
X-530327Y-792192D01*
X-186799Y-934838D01*
X185167Y-935162D01*
X528943Y-793117D01*
X792192Y-530327D01*
X914753Y-235167D01*
X4314838Y-235167D01*
X4456883Y-578943D01*
X4719673Y-842192D01*
X5063201Y-984838D01*
X5435167Y-985162D01*
X5778943Y-843117D01*
X6042192Y-580327D01*
X6184838Y-236799D01*
X6185162Y135167D01*
X6043117Y478943D01*
X5780327Y742192D01*
X5436799Y884838D01*
X5064833Y885162D01*
X4721057Y743117D01*
X4457808Y480327D01*
X4315162Y136799D01*
X4314838Y-235167D01*
X914753Y-235167D01*
X934838Y-186799D01*
X935162Y185167D01*
X793117Y528943D01*
X530327Y792192D01*
X186799Y934838D01*
X-185167Y935162D01*
X-528943Y793117D01*
X-792192Y530327D01*
X-934838Y186799D01*
X-935162Y-185167D01*
X-4118414Y-185167D01*
X-4206883Y28943D01*
X-4469673Y292192D01*
X-4813201Y434838D01*
X-5185167Y435162D01*
X-5528943Y293117D01*
X-5792192Y30327D01*
X-5934838Y-313201D01*
X-5935162Y-685167D01*
X-19906009Y-685167D01*
X-19865162Y-586799D01*
X-19864838Y-214833D01*
X-19955054Y3509D01*
X-11626952Y3509D01*
X-11618315Y-46159D01*
X-11591035Y-88553D01*
X-11549410Y-116994D01*
X-11500000Y-127000D01*
X-8430000Y-127000D01*
X-8382211Y-117666D01*
X-8340197Y-89803D01*
X-7285561Y964833D01*
X1714838Y964833D01*
X1856883Y621057D01*
X2119673Y357808D01*
X2463201Y215162D01*
X2835167Y214838D01*
X3178943Y356883D01*
X3442192Y619673D01*
X3584838Y963201D01*
X3585162Y1335167D01*
X3443117Y1678943D01*
X3180327Y1942192D01*
X2836799Y2084838D01*
X2464833Y2085162D01*
X2121057Y1943117D01*
X1857808Y1680327D01*
X1715162Y1336799D01*
X1714838Y964833D01*
X-7285561Y964833D01*
X-6582945Y1667449D01*
X-6543117Y1571057D01*
X-6280327Y1307808D01*
X-5936799Y1165162D01*
X-5564833Y1164838D01*
X-5221057Y1306883D01*
X-4957808Y1569673D01*
X-4815162Y1913201D01*
X-4814838Y2285167D01*
X-4956883Y2628943D01*
X-5219673Y2892192D01*
X-5317557Y2932837D01*
X-4512340Y3738054D01*
X-4336799Y3665162D01*
X-3964833Y3664838D01*
X-3621057Y3806883D01*
X-3357808Y4069673D01*
X-3215162Y4413201D01*
X-3214838Y4785167D01*
X-3288047Y4962347D01*
X-3185561Y5064833D01*
X-885162Y5064833D01*
X-743117Y4721057D01*
X-480327Y4457808D01*
X-136799Y4315162D01*
X235167Y4314838D01*
X578943Y4456883D01*
X842192Y4719673D01*
X984838Y5063201D01*
X985162Y5435167D01*
X843117Y5778943D01*
X580327Y6042192D01*
X236799Y6184838D01*
X-135167Y6185162D01*
X-478943Y6043117D01*
X-742192Y5780327D01*
X-884838Y5436799D01*
X-885162Y5064833D01*
X-3185561Y5064833D01*
X0Y8250394D01*
X2764117Y5486277D01*
X2557808Y5280327D01*
X2415162Y4936799D01*
X2414838Y4564833D01*
X2556883Y4221057D01*
X2819673Y3957808D01*
X3058762Y3858529D01*
X3156883Y3621057D01*
X3419673Y3357808D01*
X3719117Y3233467D01*
X3806883Y3021057D01*
X4069673Y2757808D01*
X4413201Y2615162D01*
X4785167Y2614838D01*
X5128943Y2756883D01*
X5250024Y2877753D01*
X5419673Y2707808D01*
X5629866Y2620528D01*
X8250394Y0D01*
X5635118Y-2615276D01*
X5635162Y-2564833D01*
X5493117Y-2221057D01*
X5230327Y-1957808D01*
X4930883Y-1833467D01*
X4843117Y-1621057D01*
X4580327Y-1357808D01*
X4236799Y-1215162D01*
X3864833Y-1214838D01*
X3521057Y-1356883D01*
X3257808Y-1619673D01*
X3115162Y-1963201D01*
X3114838Y-2335167D01*
X3256883Y-2678943D01*
X3519673Y-2942192D01*
X3819117Y-3066533D01*
X3906883Y-3278943D01*
X4169673Y-3542192D01*
X4513201Y-3684838D01*
X4565510Y-3684884D01*
X3868330Y-4382064D01*
X3586799Y-4265162D01*
X3214833Y-4264838D01*
X2871057Y-4406883D01*
X2607808Y-4669673D01*
X2465162Y-5013201D01*
X2464838Y-5385167D01*
X2581904Y-5668490D01*
X-89803Y-8340197D01*
X-116994Y-8380590D01*
X-127000Y-8430000D01*
X-127000Y-8734004D01*
X-413201Y-8615162D01*
X-785167Y-8614838D01*
X-1128943Y-8756883D01*
X-1392192Y-9019673D01*
X-1534838Y-9363201D01*
X-1535162Y-9735167D01*
X-1393117Y-10078943D01*
X-1130327Y-10342192D01*
X-786799Y-10484838D01*
X-414833Y-10485162D01*
X-127000Y-10366232D01*
X-127000Y-11500000D01*
X-118941Y-11544520D01*
X-92249Y-11587287D01*
X-51022Y-11616300D01*
X-1754Y-11626988D01*
X47789Y-11617666D01*
X89803Y-11589803D01*
X2044439Y-9635167D01*
X2964838Y-9635167D01*
X3106883Y-9978943D01*
X3369673Y-10242192D01*
X3713201Y-10384838D01*
X4085167Y-10385162D01*
X4428943Y-10243117D01*
X4692192Y-9980327D01*
X4834838Y-9636799D01*
X4835162Y-9264833D01*
X4693117Y-8921057D01*
X4430327Y-8657808D01*
X4086799Y-8515162D01*
X3714833Y-8514838D01*
X3371057Y-8656883D01*
X3107808Y-8919673D01*
X2965162Y-9263201D01*
X2964838Y-9635167D01*
X2044439Y-9635167D01*
X4044439Y-7635167D01*
X10814838Y-7635167D01*
X10956883Y-7978943D01*
X11219673Y-8242192D01*
X11563201Y-8384838D01*
X11692678Y-8384951D01*
X11607808Y-8469673D01*
X11465162Y-8813201D01*
X11464838Y-9185167D01*
X11606883Y-9528943D01*
X11869673Y-9792192D01*
X12213201Y-9934838D01*
X12585167Y-9935162D01*
X12928943Y-9793117D01*
X12975024Y-9747116D01*
X13219673Y-9992192D01*
X13563201Y-10134838D01*
X13935167Y-10135162D01*
X14278943Y-9993117D01*
X14542192Y-9730327D01*
X14684838Y-9386799D01*
X14685162Y-9014833D01*
X14672905Y-8985167D01*
X16364838Y-8985167D01*
X16506883Y-9328943D01*
X16769673Y-9592192D01*
X17113201Y-9734838D01*
X17485167Y-9735162D01*
X17828943Y-9593117D01*
X18092192Y-9330327D01*
X18234838Y-8986799D01*
X18235162Y-8614833D01*
X18093117Y-8271057D01*
X17830327Y-8007808D01*
X17486799Y-7865162D01*
X17114833Y-7864838D01*
X16771057Y-8006883D01*
X16507808Y-8269673D01*
X16365162Y-8613201D01*
X16364838Y-8985167D01*
X14672905Y-8985167D01*
X14543117Y-8671057D01*
X14280327Y-8407808D01*
X13936799Y-8265162D01*
X13564833Y-8264838D01*
X13221057Y-8406883D01*
X13174976Y-8452884D01*
X12930327Y-8207808D01*
X12866007Y-8181100D01*
X13078943Y-8093117D01*
X13109552Y-8062561D01*
X13163201Y-8084838D01*
X13535167Y-8085162D01*
X13878943Y-7943117D01*
X13909552Y-7912561D01*
X13963201Y-7934838D01*
X14335167Y-7935162D01*
X14678943Y-7793117D01*
X14942192Y-7530327D01*
X15084838Y-7186799D01*
X15085162Y-6814833D01*
X14943117Y-6471057D01*
X14680327Y-6207808D01*
X14336799Y-6065162D01*
X13964833Y-6064838D01*
X13621057Y-6206883D01*
X13590448Y-6237439D01*
X13536799Y-6215162D01*
X13164833Y-6214838D01*
X12821057Y-6356883D01*
X12790448Y-6387439D01*
X12736799Y-6365162D01*
X12364833Y-6364838D01*
X12021057Y-6506883D01*
X11990448Y-6537439D01*
X11936799Y-6515162D01*
X11564833Y-6514838D01*
X11221057Y-6656883D01*
X10957808Y-6919673D01*
X10815162Y-7263201D01*
X10814838Y-7635167D01*
X4044439Y-7635167D01*
X6214899Y-5464707D01*
X6214838Y-5535167D01*
X6244120Y-5606035D01*
X6121057Y-5656883D01*
X5857808Y-5919673D01*
X5715162Y-6263201D01*
X5714838Y-6635167D01*
X5856883Y-6978943D01*
X6119673Y-7242192D01*
X6463201Y-7384838D01*
X6835167Y-7385162D01*
X7178943Y-7243117D01*
X7442192Y-6980327D01*
X7584838Y-6636799D01*
X7585162Y-6264833D01*
X7555880Y-6193965D01*
X7678943Y-6143117D01*
X7942192Y-5880327D01*
X7981746Y-5785072D01*
X8085167Y-5785162D01*
X8428943Y-5643117D01*
X8692192Y-5380327D01*
X8834838Y-5036799D01*
X8834970Y-4885167D01*
X19764838Y-4885167D01*
X19906883Y-5228943D01*
X20169673Y-5492192D01*
X20513201Y-5634838D01*
X20885167Y-5635162D01*
X21175290Y-5515286D01*
X21463201Y-5634838D01*
X21835167Y-5635162D01*
X21854690Y-5627095D01*
X21919673Y-5692192D01*
X22263201Y-5834838D01*
X22635167Y-5835162D01*
X22900228Y-5725641D01*
X23163201Y-5834838D01*
X23535167Y-5835162D01*
X23878943Y-5693117D01*
X24142192Y-5430327D01*
X24284838Y-5086799D01*
X24285162Y-4714833D01*
X24143117Y-4371057D01*
X23880327Y-4107808D01*
X23536799Y-3965162D01*
X23164833Y-3964838D01*
X22899772Y-4074359D01*
X22636799Y-3965162D01*
X22264833Y-3964838D01*
X22245310Y-3972905D01*
X22180327Y-3907808D01*
X21836799Y-3765162D01*
X21464833Y-3764838D01*
X21174710Y-3884714D01*
X20886799Y-3765162D01*
X20514833Y-3764838D01*
X20171057Y-3906883D01*
X19907808Y-4169673D01*
X19765162Y-4513201D01*
X19764838Y-4885167D01*
X8834970Y-4885167D01*
X8835162Y-4664833D01*
X8693117Y-4321057D01*
X8572290Y-4200019D01*
X8692192Y-4080327D01*
X8834838Y-3736799D01*
X8835162Y-3364833D01*
X8693117Y-3021057D01*
X8675848Y-3003758D01*
X8778710Y-2900896D01*
X8969673Y-3092192D01*
X9313201Y-3234838D01*
X9685167Y-3235162D01*
X10028943Y-3093117D01*
X10292192Y-2830327D01*
X10434838Y-2486799D01*
X10435162Y-2114833D01*
X10293117Y-1771057D01*
X10101001Y-1578605D01*
X11589803Y-89803D01*
X11616300Y-51022D01*
X11626988Y-1754D01*
X11617666Y47789D01*
X11589803Y89803D01*
X9900939Y1778667D01*
X10042192Y1919673D01*
X10184838Y2263201D01*
X10185162Y2635167D01*
X10043117Y2978943D01*
X9780327Y3242192D01*
X9436799Y3384838D01*
X9281945Y3384973D01*
X9243117Y3478943D01*
X9107464Y3614833D01*
X19564838Y3614833D01*
X19706883Y3271057D01*
X19969673Y3007808D01*
X20313201Y2865162D01*
X20685167Y2864838D01*
X21028943Y3006883D01*
X21292192Y3269673D01*
X21434838Y3613201D01*
X21435162Y3985167D01*
X21293117Y4328943D01*
X21030327Y4592192D01*
X20686799Y4734838D01*
X20314833Y4735162D01*
X19971057Y4593117D01*
X19707808Y4330327D01*
X19565162Y3986799D01*
X19564838Y3614833D01*
X9107464Y3614833D01*
X8980327Y3742192D01*
X8835134Y3802482D01*
X8835162Y3835167D01*
X8693117Y4178943D01*
X8430327Y4442192D01*
X8205899Y4535383D01*
X8378943Y4606883D01*
X8642192Y4869673D01*
X8784838Y5213201D01*
X8784926Y5314833D01*
X10764838Y5314833D01*
X10906883Y4971057D01*
X11169673Y4707808D01*
X11513201Y4565162D01*
X11885167Y4564838D01*
X12228943Y4706883D01*
X12492192Y4969673D01*
X12634838Y5313201D01*
X12635162Y5685167D01*
X12493117Y6028943D01*
X12307261Y6215124D01*
X12388704Y6215053D01*
X12406883Y6171057D01*
X12669673Y5907808D01*
X13013201Y5765162D01*
X13385167Y5764838D01*
X13728943Y5906883D01*
X13992192Y6169673D01*
X14134838Y6513201D01*
X14135144Y6865012D01*
X14335167Y6864838D01*
X14678943Y7006883D01*
X14942192Y7269673D01*
X14981706Y7364833D01*
X20414838Y7364833D01*
X20503648Y7149896D01*
X20415162Y6936799D01*
X20414838Y6564833D01*
X20556883Y6221057D01*
X20819673Y5957808D01*
X21163201Y5815162D01*
X21535167Y5814838D01*
X21878943Y5956883D01*
X22142192Y6219673D01*
X22284838Y6563201D01*
X22285162Y6935167D01*
X22207168Y7123928D01*
X22450228Y7224359D01*
X22713201Y7115162D01*
X23085167Y7114838D01*
X23428943Y7256883D01*
X23692192Y7519673D01*
X23834838Y7863201D01*
X23835162Y8235167D01*
X23693117Y8578943D01*
X23430327Y8842192D01*
X23086799Y8984838D01*
X22714833Y8985162D01*
X22449772Y8875641D01*
X22186799Y8984838D01*
X21814833Y8985162D01*
X21471057Y8843117D01*
X21207808Y8580327D01*
X21168291Y8485159D01*
X21164833Y8485162D01*
X20821057Y8343117D01*
X20557808Y8080327D01*
X20415162Y7736799D01*
X20414838Y7364833D01*
X14981706Y7364833D01*
X15084838Y7613201D01*
X15085096Y7909880D01*
X15313201Y7815162D01*
X15685167Y7814838D01*
X16028943Y7956883D01*
X16292192Y8219673D01*
X16434838Y8563201D01*
X16435162Y8935167D01*
X16293117Y9278943D01*
X16157261Y9415037D01*
X16385167Y9414838D01*
X16728943Y9556883D01*
X16992192Y9819673D01*
X17134838Y10163201D01*
X17135162Y10535167D01*
X16993117Y10878943D01*
X16730327Y11142192D01*
X16386799Y11284838D01*
X16014833Y11285162D01*
X15671057Y11143117D01*
X15620211Y11092360D01*
X15543117Y11278943D01*
X15280327Y11542192D01*
X14936799Y11684838D01*
X14564833Y11685162D01*
X14221057Y11543117D01*
X13957808Y11280327D01*
X13815162Y10936799D01*
X13814838Y10564833D01*
X13956883Y10221057D01*
X14219673Y9957808D01*
X14563201Y9815162D01*
X14935167Y9814838D01*
X15278943Y9956883D01*
X15329789Y10007640D01*
X15406883Y9821057D01*
X15542739Y9684963D01*
X15314833Y9685162D01*
X14971057Y9543117D01*
X14707808Y9280327D01*
X14565162Y8936799D01*
X14564904Y8640120D01*
X14336799Y8734838D01*
X13964833Y8735162D01*
X13945310Y8727095D01*
X13880327Y8792192D01*
X13536799Y8934838D01*
X13164833Y8935162D01*
X12924834Y8835997D01*
X12686799Y8934838D01*
X12314833Y8935162D01*
X11971057Y8793117D01*
X11707808Y8530327D01*
X11565162Y8186799D01*
X11564838Y7814833D01*
X11639065Y7635189D01*
X11515162Y7336799D01*
X11514838Y6964833D01*
X11656883Y6621057D01*
X11842739Y6434876D01*
X11514833Y6435162D01*
X11171057Y6293117D01*
X10907808Y6030327D01*
X10765162Y5686799D01*
X10764838Y5314833D01*
X8784926Y5314833D01*
X8785162Y5585167D01*
X8643117Y5928943D01*
X8380327Y6192192D01*
X8036799Y6334838D01*
X7664833Y6335162D01*
X7321057Y6193117D01*
X7290448Y6162561D01*
X7236799Y6184838D01*
X6864833Y6185162D01*
X6521057Y6043117D01*
X6257808Y5780327D01*
X6152614Y5526992D01*
X6120749Y5558857D01*
X6184838Y5713201D01*
X6185162Y6085167D01*
X6043117Y6428943D01*
X5780327Y6692192D01*
X5685159Y6731709D01*
X5685162Y6735167D01*
X5543117Y7078943D01*
X5280327Y7342192D01*
X5205529Y7373251D01*
X5528943Y7506883D01*
X5792192Y7769673D01*
X5934838Y8113201D01*
X5935162Y8485167D01*
X5793117Y8828943D01*
X5530327Y9092192D01*
X5186799Y9234838D01*
X4814833Y9235162D01*
X4502544Y9106127D01*
X4493117Y9128943D01*
X4230327Y9392192D01*
X3886799Y9534838D01*
X3514833Y9535162D01*
X3171057Y9393117D01*
X2907808Y9130327D01*
X2802614Y8876992D01*
X2612068Y9067538D01*
X2734838Y9363201D01*
X2735162Y9735167D01*
X2660926Y9914833D01*
X7964838Y9914833D01*
X8106883Y9571057D01*
X8369673Y9307808D01*
X8713201Y9165162D01*
X9085167Y9164838D01*
X9428943Y9306883D01*
X9692192Y9569673D01*
X9834838Y9913201D01*
X9835162Y10285167D01*
X9693117Y10628943D01*
X9430327Y10892192D01*
X9086799Y11034838D01*
X8714833Y11035162D01*
X8371057Y10893117D01*
X8107808Y10630327D01*
X7965162Y10286799D01*
X7964838Y9914833D01*
X2660926Y9914833D01*
X2593117Y10078943D01*
X2330327Y10342192D01*
X1986799Y10484838D01*
X1614833Y10485162D01*
X1317358Y10362248D01*
X89803Y11589803D01*
X51022Y11616300D01*
X1754Y11626988D01*
X-47789Y11617666D01*
X-89803Y11589803D01*
X-3803601Y7876005D01*
X-3869673Y7942192D01*
X-4213201Y8084838D01*
X-4585167Y8085162D01*
X-4928943Y7943117D01*
X-5192192Y7680327D01*
X-5334838Y7336799D01*
X-5335162Y6964833D01*
X-5193117Y6621057D01*
X-5125892Y6553714D01*
X-7235289Y4444317D01*
X-7165162Y4613201D01*
X-7164838Y4985167D01*
X-7306883Y5328943D01*
X-7569673Y5592192D01*
X-7913201Y5734838D01*
X-8285167Y5735162D01*
X-8628943Y5593117D01*
X-8892192Y5330327D01*
X-9034838Y4986799D01*
X-9034927Y4884900D01*
X-9335167Y4885162D01*
X-9678943Y4743117D01*
X-9942192Y4480327D01*
X-10084838Y4136799D01*
X-10085162Y3764833D01*
X-9943117Y3421057D01*
X-9842422Y3320186D01*
X-10028943Y3243117D01*
X-10292192Y2980327D01*
X-10434838Y2636799D01*
X-10435162Y2264833D01*
X-10293117Y1921057D01*
X-10030327Y1657808D01*
X-10024300Y1655306D01*
X-11589803Y89803D01*
X-11615584Y52623D01*
X-11626952Y3509D01*
X-19955054Y3509D01*
X-20006883Y128943D01*
X-20269673Y392192D01*
X-20386855Y440851D01*
X-20257808Y569673D01*
X-20218291Y664841D01*
X-20214833Y664838D01*
X-19871057Y806883D01*
X-19607808Y1069673D01*
X-19465162Y1413201D01*
X-19464838Y1785167D01*
X-19606883Y2128943D01*
X-19869673Y2392192D01*
X-20213201Y2534838D01*
X-20288686Y2534904D01*
X-20306883Y2578943D01*
X-20569673Y2842192D01*
X-20913201Y2984838D01*
X-21285167Y2985162D01*
X-21628943Y2843117D01*
X-21892192Y2580327D01*
X-22034838Y2236799D01*
X-22035162Y1864833D01*
X-21893117Y1521057D01*
X-21889196Y1517129D01*
X-21984838Y1286799D01*
X-21985162Y914833D01*
X-21843117Y571057D01*
X-21682341Y410000D01*
X-22785198Y410000D01*
X-23112599Y737401D01*
X-23359161Y902148D01*
X-23650000Y960000D01*
X-25860394Y960000D01*
X-25310197Y1510197D01*
X-25282334Y1552211D01*
X-25273000Y1600000D01*
X-25273000Y4714833D01*
X-24085162Y4714833D01*
X-23943117Y4371057D01*
X-23680327Y4107808D01*
X-23336799Y3965162D01*
X-22964833Y3964838D01*
X-22810251Y4028710D01*
X-22536799Y3915162D01*
X-22164833Y3914838D01*
X-22109973Y3937506D01*
X-22080327Y3907808D01*
X-21736799Y3765162D01*
X-21364833Y3764838D01*
X-21124834Y3864003D01*
X-20886799Y3765162D01*
X-20514833Y3764838D01*
X-20171057Y3906883D01*
X-19907808Y4169673D01*
X-19765162Y4513201D01*
X-19764838Y4885167D01*
X-19906883Y5228943D01*
X-20169673Y5492192D01*
X-20513201Y5634838D01*
X-20885167Y5635162D01*
X-21125166Y5535997D01*
X-21363201Y5634838D01*
X-21735167Y5635162D01*
X-21790027Y5612494D01*
X-21819673Y5642192D01*
X-22163201Y5784838D01*
X-22535167Y5785162D01*
X-22689749Y5721290D01*
X-22963201Y5834838D01*
X-23335167Y5835162D01*
X-23678943Y5693117D01*
X-23942192Y5430327D01*
X-24084838Y5086799D01*
X-24085162Y4714833D01*
X-25273000Y4714833D01*
X-25273000Y6814833D01*
X-15085162Y6814833D01*
X-14943117Y6471057D01*
X-14680327Y6207808D01*
X-14336799Y6065162D01*
X-13964833Y6064838D01*
X-13621057Y6206883D01*
X-13590448Y6237439D01*
X-13536799Y6215162D01*
X-13164833Y6214838D01*
X-12821057Y6356883D01*
X-12790448Y6387439D01*
X-12736799Y6365162D01*
X-12364833Y6364838D01*
X-12029185Y6503524D01*
X-11936799Y6465162D01*
X-11564833Y6464838D01*
X-11221057Y6606883D01*
X-10957808Y6869673D01*
X-10815162Y7213201D01*
X-10815118Y7264833D01*
X-10785162Y7264833D01*
X-10643117Y6921057D01*
X-10380327Y6657808D01*
X-10036799Y6515162D01*
X-9664833Y6514838D01*
X-9321057Y6656883D01*
X-9057808Y6919673D01*
X-8915162Y7263201D01*
X-8914838Y7635167D01*
X-9056883Y7978943D01*
X-9319673Y8242192D01*
X-9663201Y8384838D01*
X-10035167Y8385162D01*
X-10378943Y8243117D01*
X-10642192Y7980327D01*
X-10784838Y7636799D01*
X-10785162Y7264833D01*
X-10815118Y7264833D01*
X-10814838Y7585167D01*
X-10956883Y7928943D01*
X-11219673Y8192192D01*
X-11563201Y8334838D01*
X-11792678Y8335038D01*
X-11657808Y8469673D01*
X-11515162Y8813201D01*
X-11514838Y9185167D01*
X-11656883Y9528943D01*
X-11919673Y9792192D01*
X-12263201Y9934838D01*
X-12635167Y9935162D01*
X-12978943Y9793117D01*
X-12999981Y9772116D01*
X-13219673Y9992192D01*
X-13563201Y10134838D01*
X-13935167Y10135162D01*
X-14278943Y9993117D01*
X-14542192Y9730327D01*
X-14684838Y9386799D01*
X-14685162Y9014833D01*
X-14543117Y8671057D01*
X-14280327Y8407808D01*
X-13936799Y8265162D01*
X-13564833Y8264838D01*
X-13221057Y8406883D01*
X-13200019Y8427884D01*
X-12980327Y8207808D01*
X-12891069Y8170745D01*
X-13078943Y8093117D01*
X-13109552Y8062561D01*
X-13163201Y8084838D01*
X-13535167Y8085162D01*
X-13878943Y7943117D01*
X-13909552Y7912561D01*
X-13963201Y7934838D01*
X-14335167Y7935162D01*
X-14678943Y7793117D01*
X-14942192Y7530327D01*
X-15084838Y7186799D01*
X-15085162Y6814833D01*
X-25273000Y6814833D01*
X-25273000Y8614833D01*
X-18235162Y8614833D01*
X-18093117Y8271057D01*
X-17830327Y8007808D01*
X-17486799Y7865162D01*
X-17114833Y7864838D01*
X-16771057Y8006883D01*
X-16507808Y8269673D01*
X-16365162Y8613201D01*
X-16364838Y8985167D01*
X-16506883Y9328943D01*
X-16769673Y9592192D01*
X-17113201Y9734838D01*
X-17485167Y9735162D01*
X-17828943Y9593117D01*
X-18092192Y9330327D01*
X-18234838Y8986799D01*
X-18235162Y8614833D01*
X-25273000Y8614833D01*
X-25273000Y10033000D01*
X-19050000Y10033000D01*
X-19000590Y10043006D01*
X-18960197Y10070197D01*
X-17685048Y11345346D01*
X-17685162Y11214833D01*
X-17543117Y10871057D01*
X-17280327Y10607808D01*
X-16936799Y10465162D01*
X-16564833Y10464838D01*
X-16221057Y10606883D01*
X-15957808Y10869673D01*
X-15815162Y11213201D01*
X-15814838Y11585167D01*
X-15956883Y11928943D01*
X-16219673Y12192192D01*
X-16563201Y12334838D01*
X-16695441Y12334953D01*
X-16265561Y12764833D01*
X-11135162Y12764833D01*
X-10993117Y12421057D01*
X-10730327Y12157808D01*
X-10386799Y12015162D01*
X-10014833Y12014838D01*
X-9671057Y12156883D01*
X-9407808Y12419673D01*
X-9265162Y12763201D01*
X-9264838Y13135167D01*
X-9406883Y13478943D01*
X-9669673Y13742192D01*
X-10013201Y13884838D01*
X-10385167Y13885162D01*
X-10728943Y13743117D01*
X-10992192Y13480327D01*
X-11134838Y13136799D01*
X-11135162Y12764833D01*
X-16265561Y12764833D01*
X-15176285Y13854109D01*
X-14980327Y13657808D01*
X-14636799Y13515162D01*
X-14264833Y13514838D01*
X-13921057Y13656883D01*
X-13662657Y13914833D01*
X-8435162Y13914833D01*
X-8293117Y13571057D01*
X-8030327Y13307808D01*
X-7686799Y13165162D01*
X-7314833Y13164838D01*
X-6971057Y13306883D01*
X-6707808Y13569673D01*
X-6565162Y13913201D01*
X-6565118Y13964833D01*
X6064838Y13964833D01*
X6206883Y13621057D01*
X6237439Y13590448D01*
X6215162Y13536799D01*
X6214838Y13164833D01*
X6356883Y12821057D01*
X6387439Y12790448D01*
X6365162Y12736799D01*
X6364838Y12364833D01*
X6506883Y12021057D01*
X6537439Y11990448D01*
X6515162Y11936799D01*
X6514838Y11564833D01*
X6656883Y11221057D01*
X6919673Y10957808D01*
X7263201Y10815162D01*
X7635167Y10814838D01*
X7978943Y10956883D01*
X8242192Y11219673D01*
X8384838Y11563201D01*
X8384994Y11742722D01*
X8519673Y11607808D01*
X8863201Y11465162D01*
X9235167Y11464838D01*
X9578943Y11606883D01*
X9842192Y11869673D01*
X9984838Y12213201D01*
X9985162Y12585167D01*
X9843117Y12928943D01*
X9772160Y13000024D01*
X9992192Y13219673D01*
X10134838Y13563201D01*
X10135162Y13935167D01*
X9993117Y14278943D01*
X9730327Y14542192D01*
X9386799Y14684838D01*
X9014833Y14685162D01*
X8671057Y14543117D01*
X8407808Y14280327D01*
X8265162Y13936799D01*
X8264838Y13564833D01*
X8406883Y13221057D01*
X8477840Y13149976D01*
X8257808Y12930327D01*
X8206038Y12805652D01*
X8093117Y13078943D01*
X8062561Y13109552D01*
X8084838Y13163201D01*
X8085162Y13535167D01*
X7943117Y13878943D01*
X7912561Y13909552D01*
X7934838Y13963201D01*
X7935162Y14335167D01*
X7793117Y14678943D01*
X7530327Y14942192D01*
X7186799Y15084838D01*
X6814833Y15085162D01*
X6471057Y14943117D01*
X6207808Y14680327D01*
X6065162Y14336799D01*
X6064838Y13964833D01*
X-6565118Y13964833D01*
X-6564838Y14285167D01*
X-6706883Y14628943D01*
X-6969673Y14892192D01*
X-7313201Y15034838D01*
X-7685167Y15035162D01*
X-8028943Y14893117D01*
X-8292192Y14630327D01*
X-8434838Y14286799D01*
X-8435162Y13914833D01*
X-13662657Y13914833D01*
X-13657808Y13919673D01*
X-13515162Y14263201D01*
X-13514838Y14635167D01*
X-13656883Y14978943D01*
X-13853995Y15176399D01*
X-12715561Y16314833D01*
X-7035162Y16314833D01*
X-6893117Y15971057D01*
X-6630327Y15707808D01*
X-6286799Y15565162D01*
X-5914833Y15564838D01*
X-5571057Y15706883D01*
X-5307808Y15969673D01*
X-5165162Y16313201D01*
X-5164838Y16685167D01*
X-5306883Y17028943D01*
X-5569673Y17292192D01*
X-5913201Y17434838D01*
X-6285167Y17435162D01*
X-6628943Y17293117D01*
X-6892192Y17030327D01*
X-7034838Y16686799D01*
X-7035162Y16314833D01*
X-12715561Y16314833D01*
X-10634874Y18395520D01*
X-10635162Y18064833D01*
X-10493117Y17721057D01*
X-10230327Y17457808D01*
X-9886799Y17315162D01*
X-9514833Y17314838D01*
X-9171057Y17456883D01*
X-8907808Y17719673D01*
X-8765162Y18063201D01*
X-8764838Y18435167D01*
X-8874359Y18700228D01*
X-8765162Y18963201D01*
X-8764919Y19242547D01*
X-8680327Y19157808D01*
X-8336799Y19015162D01*
X-7964833Y19014838D01*
X-7621057Y19156883D01*
X-7357808Y19419673D01*
X-7215162Y19763201D01*
X-7214838Y20135167D01*
X-7289074Y20314833D01*
X-4735162Y20314833D01*
X-4593117Y19971057D01*
X-4330327Y19707808D01*
X-3986799Y19565162D01*
X-3614833Y19564838D01*
X-3271057Y19706883D01*
X-3007808Y19969673D01*
X-2865162Y20313201D01*
X-2864838Y20685167D01*
X-3006883Y21028943D01*
X-3269673Y21292192D01*
X-3613201Y21434838D01*
X-3985167Y21435162D01*
X-4328943Y21293117D01*
X-4592192Y21030327D01*
X-4734838Y20686799D01*
X-4735162Y20314833D01*
X-7289074Y20314833D01*
X-7325062Y20401930D01*
X-7114479Y20488941D01*
X-6936799Y20415162D01*
X-6564833Y20414838D01*
X-6221057Y20556883D01*
X-5957808Y20819673D01*
X-5815162Y21163201D01*
X-5814838Y21535167D01*
X-5956883Y21878943D01*
X-6219673Y22142192D01*
X-6563201Y22284838D01*
X-6935167Y22285162D01*
X-7123928Y22207168D01*
X-7224359Y22450228D01*
X-7115162Y22713201D01*
X-7114838Y23085167D01*
X-7256883Y23428943D01*
X-7519673Y23692192D01*
X-7863201Y23834838D01*
X-8235167Y23835162D01*
X-8578943Y23693117D01*
X-8842192Y23430327D01*
X-8984838Y23086799D01*
X-8985162Y22714833D01*
X-8875641Y22449772D01*
X-8984838Y22186799D01*
X-8985162Y21814833D01*
X-8873774Y21545253D01*
X-8878943Y21543117D01*
X-9142192Y21280327D01*
X-9284838Y20936799D01*
X-9285162Y20564833D01*
X-9143117Y20221057D01*
X-9077249Y20155074D01*
X-9084838Y20136799D01*
X-9085081Y19857453D01*
X-9169673Y19942192D01*
X-9513201Y20084838D01*
X-9885167Y20085162D01*
X-10033000Y20024079D01*
X-10033000Y25273000D01*
X-1600000Y25273000D01*
X-1550590Y25283006D01*
X-1510197Y25310197D01*
X-560000Y26260394D01*
X-560000Y24685053D01*
M02*
