G04 #@! TF.FileFunction,Legend,Bot*
%FSLAX46Y46*%
G04 Gerber Fmt 4.6, Leading zero omitted, Abs format (unit mm)*
G04 Created by KiCad (PCBNEW 4.0.6-e0-6349~53~ubuntu14.04.1) date Wed Mar 22 00:16:22 2017*
%MOMM*%
%LPD*%
G01*
G04 APERTURE LIST*
%ADD10C,0.100000*%
%ADD11C,0.120000*%
%ADD12C,0.150000*%
G04 APERTURE END LIST*
D10*
D11*
X-69730000Y28410000D02*
X-69730000Y34450000D01*
X-81400000Y29050000D02*
X-81400000Y34450000D01*
D12*
X35732136Y24418427D02*
X24418427Y35732136D01*
X24418427Y35732136D02*
X7447864Y18761573D01*
X7447864Y18761573D02*
X18761573Y7447864D01*
X18761573Y7447864D02*
X35732136Y24418427D01*
X-2150000Y21835000D02*
X-2150000Y21310000D01*
X2150000Y17535000D02*
X2150000Y18060000D01*
X-2150000Y17535000D02*
X-2150000Y18060000D01*
X2150000Y21835000D02*
X1625000Y21835000D01*
X2150000Y17535000D02*
X1625000Y17535000D01*
X-2150000Y17535000D02*
X-1625000Y17535000D01*
X-2150000Y21835000D02*
X-1625000Y21835000D01*
X-23015382Y15484695D02*
X-22764359Y15735718D01*
X-17535305Y10004618D02*
X-17284282Y10255641D01*
X-10004618Y17535305D02*
X-10255641Y17284282D01*
X-15484695Y23015382D02*
X-15735718Y22764359D01*
X-23015382Y15484695D02*
X-17535305Y10004618D01*
X-15484695Y23015382D02*
X-10004618Y17535305D01*
X-22764359Y15735718D02*
X-23842697Y16814056D01*
X-15802893Y-22873961D02*
X-22873961Y-15802893D01*
X-22873961Y-15802893D02*
X-17217107Y-10146039D01*
X-17217107Y-10146039D02*
X-10146039Y-17217107D01*
X-10146039Y-17217107D02*
X-15802893Y-22873961D01*
X14389623Y0D02*
X13647161Y-742462D01*
X0Y14389623D02*
X-742462Y13647161D01*
X-14389623Y0D02*
X-13647161Y742462D01*
X0Y-14389623D02*
X742462Y-13647161D01*
X14389623Y0D02*
X13647161Y742462D01*
X0Y-14389623D02*
X-742462Y-13647161D01*
X-14389623Y0D02*
X-13647161Y-742462D01*
X0Y14389623D02*
X742462Y13647161D01*
X13647161Y-742462D02*
X14566400Y-1661701D01*
X23015382Y-15484695D02*
X22764359Y-15735718D01*
X17535305Y-10004618D02*
X17284282Y-10255641D01*
X10004618Y-17535305D02*
X10255641Y-17284282D01*
X15484695Y-23015382D02*
X15735718Y-22764359D01*
X23015382Y-15484695D02*
X17535305Y-10004618D01*
X15484695Y-23015382D02*
X10004618Y-17535305D01*
X22764359Y-15735718D02*
X23842697Y-16814056D01*
X3335000Y-18030000D02*
X3335000Y-17530000D01*
X4285000Y-17530000D02*
X4285000Y-18030000D01*
X-4285000Y-18030000D02*
X-4285000Y-17530000D01*
X-3335000Y-17530000D02*
X-3335000Y-18030000D01*
X6459220Y-26730960D02*
X5849620Y-26730960D01*
X5849620Y-26730960D02*
X5839460Y-26299160D01*
X1379220Y-26730960D02*
X769620Y-26730960D01*
X769620Y-26730960D02*
X759460Y-26299160D01*
X-3700780Y-26730960D02*
X-4310380Y-26730960D01*
X-4310380Y-26730960D02*
X-4320540Y-26299160D01*
X-26730960Y-6459220D02*
X-26730960Y-5849620D01*
X-26730960Y-5849620D02*
X-26299160Y-5839460D01*
X-26730960Y-1379220D02*
X-26730960Y-769620D01*
X-26730960Y-769620D02*
X-26299160Y-759460D01*
X-26730960Y3700780D02*
X-26730960Y4310380D01*
X-26730960Y4310380D02*
X-26299160Y4320540D01*
X-26730960Y8780780D02*
X-26730960Y9390380D01*
X-26730960Y9390380D02*
X-26299160Y9400540D01*
X-6459220Y26730960D02*
X-5849620Y26730960D01*
X-5849620Y26730960D02*
X-5839460Y26299160D01*
X-1379220Y26730960D02*
X-769620Y26730960D01*
X-769620Y26730960D02*
X-759460Y26299160D01*
X3700780Y26730960D02*
X4310380Y26730960D01*
X4310380Y26730960D02*
X4320540Y26299160D01*
X8780780Y26730960D02*
X9390380Y26730960D01*
X9390380Y26730960D02*
X9400540Y26299160D01*
X26730960Y6459220D02*
X26730960Y5849620D01*
X26730960Y5849620D02*
X26299160Y5839460D01*
X26730960Y1379220D02*
X26730960Y769620D01*
X26730960Y769620D02*
X26299160Y759460D01*
X26730960Y-3700780D02*
X26730960Y-4310380D01*
X26730960Y-4310380D02*
X26299160Y-4320540D01*
X26730960Y-8780780D02*
X26730960Y-9390380D01*
X26730960Y-9390380D02*
X26299160Y-9400540D01*
X6444901Y10409348D02*
X6091348Y10762901D01*
X6763099Y11434652D02*
X7116652Y11081099D01*
X-11016901Y-5837348D02*
X-10663348Y-6190901D01*
X-11335099Y-6862652D02*
X-11688652Y-6509099D01*
X-15117652Y-3523901D02*
X-14764099Y-3170348D01*
X-14092348Y-3842099D02*
X-14445901Y-4195652D01*
X-14981348Y-2953099D02*
X-15334901Y-3306652D01*
X-16006652Y-2634901D02*
X-15653099Y-2281348D01*
X-2281348Y14572901D02*
X-2634901Y14219348D01*
X-3306652Y14891099D02*
X-2953099Y15244652D01*
X-6853348Y10000901D02*
X-7206901Y9647348D01*
X-7878652Y10319099D02*
X-7525099Y10672652D01*
X-3170348Y15461901D02*
X-3523901Y15108348D01*
X-4195652Y15780099D02*
X-3842099Y16133652D01*
X9266348Y-7587901D02*
X9619901Y-7234348D01*
X10291652Y-7906099D02*
X9938099Y-8259652D01*
X3932348Y-12921901D02*
X4285901Y-12568348D01*
X4957652Y-13240099D02*
X4604099Y-13593652D01*
X14318901Y2535348D02*
X13965348Y2888901D01*
X14637099Y3560652D02*
X14990652Y3207099D01*
X-2888901Y-13965348D02*
X-2535348Y-14318901D01*
X-3207099Y-14990652D02*
X-3560652Y-14637099D01*
X10381901Y6472348D02*
X10028348Y6825901D01*
X10700099Y7497652D02*
X11053652Y7144099D01*
X-7587901Y-9266348D02*
X-7234348Y-9619901D01*
X-7906099Y-10291652D02*
X-8259652Y-9938099D01*
D11*
X-2650000Y-20900000D02*
X-2650000Y-17200000D01*
X-2650000Y-17200000D02*
X2650000Y-17200000D01*
D12*
X-18599240Y-25185076D02*
G75*
G03X-18599240Y-25185076I-99999J0D01*
G01*
X-18982082Y-25821472D02*
X-18628528Y-25467918D01*
X-16931472Y-27872082D02*
X-18982082Y-25821472D01*
X-16577918Y-27518528D02*
X-16931472Y-27872082D01*
X-18628528Y-25467918D02*
X-16577918Y-27518528D01*
D11*
X-23620883Y17624437D02*
X-23974437Y17270883D01*
X-24639117Y17935563D02*
X-24285563Y18289117D01*
X23620883Y-17624437D02*
X23974437Y-17270883D01*
X24639117Y-17935563D02*
X24285563Y-18289117D01*
X-14730883Y8734437D02*
X-15084437Y8380883D01*
X-15749117Y9045563D02*
X-15395563Y9399117D01*
X14730883Y-8734437D02*
X15084437Y-8380883D01*
X15749117Y-9045563D02*
X15395563Y-9399117D01*
X-19205563Y-29084117D02*
X-19559117Y-28730563D01*
X-18894437Y-28065883D02*
X-18540883Y-28419437D01*
D12*
X-8780780Y-26730960D02*
X-9390380Y-26730960D01*
X-9390380Y-26730960D02*
X-9400540Y-26299160D01*
X-68277619Y33083333D02*
X-68753810Y33416667D01*
X-68277619Y33654762D02*
X-69277619Y33654762D01*
X-69277619Y33273809D01*
X-69230000Y33178571D01*
X-69182381Y33130952D01*
X-69087143Y33083333D01*
X-68944286Y33083333D01*
X-68849048Y33130952D01*
X-68801429Y33178571D01*
X-68753810Y33273809D01*
X-68753810Y33654762D01*
X-68801429Y32654762D02*
X-68801429Y32321428D01*
X-68277619Y32178571D02*
X-68277619Y32654762D01*
X-69277619Y32654762D01*
X-69277619Y32178571D01*
X-68801429Y31416666D02*
X-68801429Y31750000D01*
X-68277619Y31750000D02*
X-69277619Y31750000D01*
X-69277619Y31273809D01*
X-69277619Y30750000D02*
X-69039524Y30750000D01*
X-69134762Y30988095D02*
X-69039524Y30750000D01*
X-69134762Y30511904D01*
X-68849048Y30892857D02*
X-69039524Y30750000D01*
X-68849048Y30607142D01*
X-69277619Y29988095D02*
X-69039524Y29988095D01*
X-69134762Y30226190D02*
X-69039524Y29988095D01*
X-69134762Y29749999D01*
X-68849048Y30130952D02*
X-69039524Y29988095D01*
X-68849048Y29845237D01*
X21808866Y20731370D02*
X21236446Y20158950D01*
X21135431Y20125278D01*
X21068088Y20125278D01*
X20967073Y20158950D01*
X20832385Y20293638D01*
X20798713Y20394653D01*
X20798713Y20461996D01*
X20832385Y20563011D01*
X21404805Y21135431D01*
X20731370Y21808866D02*
X21068088Y21472148D01*
X20765042Y21101760D01*
X20765042Y21169103D01*
X20731371Y21270118D01*
X20563011Y21438477D01*
X20461996Y21472149D01*
X20394653Y21472149D01*
X20293637Y21438477D01*
X20125278Y21270118D01*
X20091607Y21169103D01*
X20091607Y21101760D01*
X20125278Y21000744D01*
X20293638Y20832385D01*
X20394653Y20798713D01*
X20461996Y20798713D01*
X1238095Y23607618D02*
X1238095Y22798094D01*
X1190476Y22702856D01*
X1142857Y22655237D01*
X1047619Y22607618D01*
X857142Y22607618D01*
X761904Y22655237D01*
X714285Y22702856D01*
X666666Y22798094D01*
X666666Y23607618D01*
X-238096Y23274285D02*
X-238096Y22607618D01*
X0Y23655237D02*
X238095Y22940951D01*
X-380953Y22940951D01*
X-1285715Y22607618D02*
X-714286Y22607618D01*
X-1000000Y22607618D02*
X-1000000Y23607618D01*
X-904762Y23464761D01*
X-809524Y23369523D01*
X-714286Y23321904D01*
X-19666727Y11602343D02*
X-20239146Y11029923D01*
X-20340162Y10996251D01*
X-20407505Y10996251D01*
X-20508520Y11029923D01*
X-20643208Y11164610D01*
X-20676879Y11265626D01*
X-20676879Y11332969D01*
X-20643208Y11433984D01*
X-20070788Y12006404D01*
X-20340162Y12275778D02*
X-20777895Y12713511D01*
X-20811566Y12208434D01*
X-20912581Y12309450D01*
X-21013597Y12343122D01*
X-21080940Y12343122D01*
X-21181956Y12309450D01*
X-21350315Y12141091D01*
X-21383986Y12040076D01*
X-21383986Y11972732D01*
X-21350315Y11871717D01*
X-21148284Y11669686D01*
X-21047268Y11636014D01*
X-20979925Y11636014D01*
X-21417658Y13353274D02*
X-21080940Y13016556D01*
X-21383986Y12646167D01*
X-21383986Y12713511D01*
X-21417657Y12814526D01*
X-21586017Y12982885D01*
X-21687032Y13016557D01*
X-21754375Y13016557D01*
X-21855391Y12982885D01*
X-22023750Y12814526D01*
X-22057421Y12713511D01*
X-22057421Y12646167D01*
X-22023750Y12545152D01*
X-21855390Y12376793D01*
X-21754375Y12343121D01*
X-21687032Y12343121D01*
X-16712030Y-15230474D02*
X-17116091Y-15634535D01*
X-16206953Y-16139611D02*
X-16914060Y-15432504D01*
X-17015076Y-16947733D02*
X-16611015Y-16543672D01*
X-16813045Y-16745702D02*
X-17520152Y-16038596D01*
X-17351793Y-16072267D01*
X-17217106Y-16072267D01*
X-17116091Y-16038596D01*
X10083847Y8332917D02*
X9511428Y7760497D01*
X9410412Y7726825D01*
X9343069Y7726825D01*
X9242054Y7760497D01*
X9107366Y7895184D01*
X9073695Y7996200D01*
X9073695Y8063543D01*
X9107366Y8164558D01*
X9679786Y8736978D01*
X9410412Y9006352D02*
X8972679Y9444085D01*
X8939008Y8939008D01*
X8837993Y9040024D01*
X8736977Y9073696D01*
X8669634Y9073696D01*
X8568618Y9040024D01*
X8400259Y8871665D01*
X8366588Y8770650D01*
X8366588Y8703306D01*
X8400259Y8602291D01*
X8602290Y8400260D01*
X8703306Y8366588D01*
X8770649Y8366588D01*
X8736977Y9679787D02*
X8265573Y10151192D01*
X7861512Y9141039D01*
X22192107Y-12578823D02*
X21619688Y-13151243D01*
X21518672Y-13184915D01*
X21451329Y-13184915D01*
X21350314Y-13151243D01*
X21215626Y-13016556D01*
X21181955Y-12915540D01*
X21181955Y-12848197D01*
X21215626Y-12747182D01*
X21788046Y-12174762D01*
X21518672Y-11905388D02*
X21080939Y-11467655D01*
X21047268Y-11972732D01*
X20946253Y-11871716D01*
X20845237Y-11838044D01*
X20777894Y-11838044D01*
X20676878Y-11871716D01*
X20508519Y-12040075D01*
X20474848Y-12141090D01*
X20474848Y-12208434D01*
X20508519Y-12309449D01*
X20710550Y-12511480D01*
X20811566Y-12545152D01*
X20878909Y-12545152D01*
X20474848Y-10861564D02*
X20609535Y-10996251D01*
X20643207Y-11097266D01*
X20643207Y-11164610D01*
X20609535Y-11332968D01*
X20508520Y-11501327D01*
X20239146Y-11770701D01*
X20138131Y-11804373D01*
X20070787Y-11804373D01*
X19969772Y-11770701D01*
X19835084Y-11636014D01*
X19801413Y-11534999D01*
X19801413Y-11467655D01*
X19835084Y-11366640D01*
X20003443Y-11198281D01*
X20104459Y-11164609D01*
X20171802Y-11164609D01*
X20272817Y-11198281D01*
X20407505Y-11332968D01*
X20441177Y-11433983D01*
X20441177Y-11501327D01*
X20407504Y-11602343D01*
X2467143Y-17613334D02*
X2514762Y-17565715D01*
X2562381Y-17422858D01*
X2562381Y-17327620D01*
X2514762Y-17184762D01*
X2419524Y-17089524D01*
X2324286Y-17041905D01*
X2133810Y-16994286D01*
X1990952Y-16994286D01*
X1800476Y-17041905D01*
X1705238Y-17089524D01*
X1610000Y-17184762D01*
X1562381Y-17327620D01*
X1562381Y-17422858D01*
X1610000Y-17565715D01*
X1657619Y-17613334D01*
X1562381Y-17946667D02*
X1562381Y-18565715D01*
X1943333Y-18232381D01*
X1943333Y-18375239D01*
X1990952Y-18470477D01*
X2038571Y-18518096D01*
X2133810Y-18565715D01*
X2371905Y-18565715D01*
X2467143Y-18518096D01*
X2514762Y-18470477D01*
X2562381Y-18375239D01*
X2562381Y-18089524D01*
X2514762Y-17994286D01*
X2467143Y-17946667D01*
X-5152857Y-17613334D02*
X-5105238Y-17565715D01*
X-5057619Y-17422858D01*
X-5057619Y-17327620D01*
X-5105238Y-17184762D01*
X-5200476Y-17089524D01*
X-5295714Y-17041905D01*
X-5486190Y-16994286D01*
X-5629048Y-16994286D01*
X-5819524Y-17041905D01*
X-5914762Y-17089524D01*
X-6010000Y-17184762D01*
X-6057619Y-17327620D01*
X-6057619Y-17422858D01*
X-6010000Y-17565715D01*
X-5962381Y-17613334D01*
X-5724286Y-18470477D02*
X-5057619Y-18470477D01*
X-6105238Y-18232381D02*
X-5390952Y-17994286D01*
X-5390952Y-18613334D01*
X10122921Y-24627935D02*
X10932445Y-24627935D01*
X11027683Y-24675554D01*
X11075302Y-24723173D01*
X11122921Y-24818411D01*
X11122921Y-25008888D01*
X11075302Y-25104126D01*
X11027683Y-25151745D01*
X10932445Y-25199364D01*
X10122921Y-25199364D01*
X10551492Y-25818411D02*
X10503873Y-25723173D01*
X10456254Y-25675554D01*
X10361016Y-25627935D01*
X10313397Y-25627935D01*
X10218159Y-25675554D01*
X10170540Y-25723173D01*
X10122921Y-25818411D01*
X10122921Y-26008888D01*
X10170540Y-26104126D01*
X10218159Y-26151745D01*
X10313397Y-26199364D01*
X10361016Y-26199364D01*
X10456254Y-26151745D01*
X10503873Y-26104126D01*
X10551492Y-26008888D01*
X10551492Y-25818411D01*
X10599111Y-25723173D01*
X10646730Y-25675554D01*
X10741969Y-25627935D01*
X10932445Y-25627935D01*
X11027683Y-25675554D01*
X11075302Y-25723173D01*
X11122921Y-25818411D01*
X11122921Y-26008888D01*
X11075302Y-26104126D01*
X11027683Y-26151745D01*
X10932445Y-26199364D01*
X10741969Y-26199364D01*
X10646730Y-26151745D01*
X10599111Y-26104126D01*
X10551492Y-26008888D01*
X5042921Y-24627935D02*
X5852445Y-24627935D01*
X5947683Y-24675554D01*
X5995302Y-24723173D01*
X6042921Y-24818411D01*
X6042921Y-25008888D01*
X5995302Y-25104126D01*
X5947683Y-25151745D01*
X5852445Y-25199364D01*
X5042921Y-25199364D01*
X6042921Y-25723173D02*
X6042921Y-25913649D01*
X5995302Y-26008888D01*
X5947683Y-26056507D01*
X5804826Y-26151745D01*
X5614350Y-26199364D01*
X5233397Y-26199364D01*
X5138159Y-26151745D01*
X5090540Y-26104126D01*
X5042921Y-26008888D01*
X5042921Y-25818411D01*
X5090540Y-25723173D01*
X5138159Y-25675554D01*
X5233397Y-25627935D01*
X5471492Y-25627935D01*
X5566730Y-25675554D01*
X5614350Y-25723173D01*
X5661969Y-25818411D01*
X5661969Y-26008888D01*
X5614350Y-26104126D01*
X5566730Y-26151745D01*
X5471492Y-26199364D01*
X-37079Y-24151745D02*
X772445Y-24151745D01*
X867683Y-24199364D01*
X915302Y-24246983D01*
X962921Y-24342221D01*
X962921Y-24532698D01*
X915302Y-24627936D01*
X867683Y-24675555D01*
X772445Y-24723174D01*
X-37079Y-24723174D01*
X962921Y-25723174D02*
X962921Y-25151745D01*
X962921Y-25437459D02*
X-37079Y-25437459D01*
X105778Y-25342221D01*
X201016Y-25246983D01*
X248635Y-25151745D01*
X-37079Y-26342221D02*
X-37079Y-26437460D01*
X10540Y-26532698D01*
X58159Y-26580317D01*
X153397Y-26627936D01*
X343873Y-26675555D01*
X581969Y-26675555D01*
X772445Y-26627936D01*
X867683Y-26580317D01*
X915302Y-26532698D01*
X962921Y-26437460D01*
X962921Y-26342221D01*
X915302Y-26246983D01*
X867683Y-26199364D01*
X772445Y-26151745D01*
X581969Y-26104126D01*
X343873Y-26104126D01*
X153397Y-26151745D01*
X58159Y-26199364D01*
X10540Y-26246983D01*
X-37079Y-26342221D01*
X-24151745Y-10122921D02*
X-24151745Y-10932445D01*
X-24199364Y-11027683D01*
X-24246983Y-11075302D01*
X-24342221Y-11122921D01*
X-24532698Y-11122921D01*
X-24627936Y-11075302D01*
X-24675555Y-11027683D01*
X-24723174Y-10932445D01*
X-24723174Y-10122921D01*
X-25723174Y-11122921D02*
X-25151745Y-11122921D01*
X-25437459Y-11122921D02*
X-25437459Y-10122921D01*
X-25342221Y-10265778D01*
X-25246983Y-10361016D01*
X-25151745Y-10408635D01*
X-26627936Y-10122921D02*
X-26151745Y-10122921D01*
X-26104126Y-10599111D01*
X-26151745Y-10551492D01*
X-26246983Y-10503873D01*
X-26485079Y-10503873D01*
X-26580317Y-10551492D01*
X-26627936Y-10599111D01*
X-26675555Y-10694350D01*
X-26675555Y-10932445D01*
X-26627936Y-11027683D01*
X-26580317Y-11075302D01*
X-26485079Y-11122921D01*
X-26246983Y-11122921D01*
X-26151745Y-11075302D01*
X-26104126Y-11027683D01*
X-24151745Y-5042921D02*
X-24151745Y-5852445D01*
X-24199364Y-5947683D01*
X-24246983Y-5995302D01*
X-24342221Y-6042921D01*
X-24532698Y-6042921D01*
X-24627936Y-5995302D01*
X-24675555Y-5947683D01*
X-24723174Y-5852445D01*
X-24723174Y-5042921D01*
X-25723174Y-6042921D02*
X-25151745Y-6042921D01*
X-25437459Y-6042921D02*
X-25437459Y-5042921D01*
X-25342221Y-5185778D01*
X-25246983Y-5281016D01*
X-25151745Y-5328635D01*
X-26580317Y-5042921D02*
X-26389840Y-5042921D01*
X-26294602Y-5090540D01*
X-26246983Y-5138159D01*
X-26151745Y-5281016D01*
X-26104126Y-5471492D01*
X-26104126Y-5852445D01*
X-26151745Y-5947683D01*
X-26199364Y-5995302D01*
X-26294602Y-6042921D01*
X-26485079Y-6042921D01*
X-26580317Y-5995302D01*
X-26627936Y-5947683D01*
X-26675555Y-5852445D01*
X-26675555Y-5614350D01*
X-26627936Y-5519111D01*
X-26580317Y-5471492D01*
X-26485079Y-5423873D01*
X-26294602Y-5423873D01*
X-26199364Y-5471492D01*
X-26151745Y-5519111D01*
X-26104126Y-5614350D01*
X-24151745Y37079D02*
X-24151745Y-772445D01*
X-24199364Y-867683D01*
X-24246983Y-915302D01*
X-24342221Y-962921D01*
X-24532698Y-962921D01*
X-24627936Y-915302D01*
X-24675555Y-867683D01*
X-24723174Y-772445D01*
X-24723174Y37079D01*
X-25723174Y-962921D02*
X-25151745Y-962921D01*
X-25437459Y-962921D02*
X-25437459Y37079D01*
X-25342221Y-105778D01*
X-25246983Y-201016D01*
X-25151745Y-248635D01*
X-26056507Y37079D02*
X-26723174Y37079D01*
X-26294602Y-962921D01*
X-24151745Y5117079D02*
X-24151745Y4307555D01*
X-24199364Y4212317D01*
X-24246983Y4164698D01*
X-24342221Y4117079D01*
X-24532698Y4117079D01*
X-24627936Y4164698D01*
X-24675555Y4212317D01*
X-24723174Y4307555D01*
X-24723174Y5117079D01*
X-25723174Y4117079D02*
X-25151745Y4117079D01*
X-25437459Y4117079D02*
X-25437459Y5117079D01*
X-25342221Y4974222D01*
X-25246983Y4878984D01*
X-25151745Y4831365D01*
X-26294602Y4688508D02*
X-26199364Y4736127D01*
X-26151745Y4783746D01*
X-26104126Y4878984D01*
X-26104126Y4926603D01*
X-26151745Y5021841D01*
X-26199364Y5069460D01*
X-26294602Y5117079D01*
X-26485079Y5117079D01*
X-26580317Y5069460D01*
X-26627936Y5021841D01*
X-26675555Y4926603D01*
X-26675555Y4878984D01*
X-26627936Y4783746D01*
X-26580317Y4736127D01*
X-26485079Y4688508D01*
X-26294602Y4688508D01*
X-26199364Y4640889D01*
X-26151745Y4593270D01*
X-26104126Y4498031D01*
X-26104126Y4307555D01*
X-26151745Y4212317D01*
X-26199364Y4164698D01*
X-26294602Y4117079D01*
X-26485079Y4117079D01*
X-26580317Y4164698D01*
X-26627936Y4212317D01*
X-26675555Y4307555D01*
X-26675555Y4498031D01*
X-26627936Y4593270D01*
X-26580317Y4640889D01*
X-26485079Y4688508D01*
X-11218159Y26627935D02*
X-10408635Y26627935D01*
X-10313397Y26580316D01*
X-10265778Y26532697D01*
X-10218159Y26437459D01*
X-10218159Y26246982D01*
X-10265778Y26151744D01*
X-10313397Y26104125D01*
X-10408635Y26056506D01*
X-11218159Y26056506D01*
X-11122921Y25627935D02*
X-11170540Y25580316D01*
X-11218159Y25485078D01*
X-11218159Y25246982D01*
X-11170540Y25151744D01*
X-11122921Y25104125D01*
X-11027683Y25056506D01*
X-10932445Y25056506D01*
X-10789588Y25104125D01*
X-10218159Y25675554D01*
X-10218159Y25056506D01*
X-11122921Y24675554D02*
X-11170540Y24627935D01*
X-11218159Y24532697D01*
X-11218159Y24294601D01*
X-11170540Y24199363D01*
X-11122921Y24151744D01*
X-11027683Y24104125D01*
X-10932445Y24104125D01*
X-10789588Y24151744D01*
X-10218159Y24723173D01*
X-10218159Y24104125D01*
X-6138159Y26627935D02*
X-5328635Y26627935D01*
X-5233397Y26580316D01*
X-5185778Y26532697D01*
X-5138159Y26437459D01*
X-5138159Y26246982D01*
X-5185778Y26151744D01*
X-5233397Y26104125D01*
X-5328635Y26056506D01*
X-6138159Y26056506D01*
X-6042921Y25627935D02*
X-6090540Y25580316D01*
X-6138159Y25485078D01*
X-6138159Y25246982D01*
X-6090540Y25151744D01*
X-6042921Y25104125D01*
X-5947683Y25056506D01*
X-5852445Y25056506D01*
X-5709588Y25104125D01*
X-5138159Y25675554D01*
X-5138159Y25056506D01*
X-6138159Y24723173D02*
X-6138159Y24104125D01*
X-5757207Y24437459D01*
X-5757207Y24294601D01*
X-5709588Y24199363D01*
X-5661969Y24151744D01*
X-5566730Y24104125D01*
X-5328635Y24104125D01*
X-5233397Y24151744D01*
X-5185778Y24199363D01*
X-5138159Y24294601D01*
X-5138159Y24580316D01*
X-5185778Y24675554D01*
X-5233397Y24723173D01*
X-1058159Y26627935D02*
X-248635Y26627935D01*
X-153397Y26580316D01*
X-105778Y26532697D01*
X-58159Y26437459D01*
X-58159Y26246982D01*
X-105778Y26151744D01*
X-153397Y26104125D01*
X-248635Y26056506D01*
X-1058159Y26056506D01*
X-962921Y25627935D02*
X-1010540Y25580316D01*
X-1058159Y25485078D01*
X-1058159Y25246982D01*
X-1010540Y25151744D01*
X-962921Y25104125D01*
X-867683Y25056506D01*
X-772445Y25056506D01*
X-629588Y25104125D01*
X-58159Y25675554D01*
X-58159Y25056506D01*
X-724826Y24199363D02*
X-58159Y24199363D01*
X-1105778Y24437459D02*
X-391492Y24675554D01*
X-391492Y24056506D01*
X4021841Y26627935D02*
X4831365Y26627935D01*
X4926603Y26580316D01*
X4974222Y26532697D01*
X5021841Y26437459D01*
X5021841Y26246982D01*
X4974222Y26151744D01*
X4926603Y26104125D01*
X4831365Y26056506D01*
X4021841Y26056506D01*
X4117079Y25627935D02*
X4069460Y25580316D01*
X4021841Y25485078D01*
X4021841Y25246982D01*
X4069460Y25151744D01*
X4117079Y25104125D01*
X4212317Y25056506D01*
X4307555Y25056506D01*
X4450412Y25104125D01*
X5021841Y25675554D01*
X5021841Y25056506D01*
X4021841Y24151744D02*
X4021841Y24627935D01*
X4498031Y24675554D01*
X4450412Y24627935D01*
X4402793Y24532697D01*
X4402793Y24294601D01*
X4450412Y24199363D01*
X4498031Y24151744D01*
X4593270Y24104125D01*
X4831365Y24104125D01*
X4926603Y24151744D01*
X4974222Y24199363D01*
X5021841Y24294601D01*
X5021841Y24532697D01*
X4974222Y24627935D01*
X4926603Y24675554D01*
X26627935Y11218159D02*
X26627935Y10408635D01*
X26580316Y10313397D01*
X26532697Y10265778D01*
X26437459Y10218159D01*
X26246982Y10218159D01*
X26151744Y10265778D01*
X26104125Y10313397D01*
X26056506Y10408635D01*
X26056506Y11218159D01*
X25627935Y11122921D02*
X25580316Y11170540D01*
X25485078Y11218159D01*
X25246982Y11218159D01*
X25151744Y11170540D01*
X25104125Y11122921D01*
X25056506Y11027683D01*
X25056506Y10932445D01*
X25104125Y10789588D01*
X25675554Y10218159D01*
X25056506Y10218159D01*
X24580316Y10218159D02*
X24389840Y10218159D01*
X24294601Y10265778D01*
X24246982Y10313397D01*
X24151744Y10456254D01*
X24104125Y10646730D01*
X24104125Y11027683D01*
X24151744Y11122921D01*
X24199363Y11170540D01*
X24294601Y11218159D01*
X24485078Y11218159D01*
X24580316Y11170540D01*
X24627935Y11122921D01*
X24675554Y11027683D01*
X24675554Y10789588D01*
X24627935Y10694350D01*
X24580316Y10646730D01*
X24485078Y10599111D01*
X24294601Y10599111D01*
X24199363Y10646730D01*
X24151744Y10694350D01*
X24104125Y10789588D01*
X26627935Y6138159D02*
X26627935Y5328635D01*
X26580316Y5233397D01*
X26532697Y5185778D01*
X26437459Y5138159D01*
X26246982Y5138159D01*
X26151744Y5185778D01*
X26104125Y5233397D01*
X26056506Y5328635D01*
X26056506Y6138159D01*
X25675554Y6138159D02*
X25056506Y6138159D01*
X25389840Y5757207D01*
X25246982Y5757207D01*
X25151744Y5709588D01*
X25104125Y5661969D01*
X25056506Y5566730D01*
X25056506Y5328635D01*
X25104125Y5233397D01*
X25151744Y5185778D01*
X25246982Y5138159D01*
X25532697Y5138159D01*
X25627935Y5185778D01*
X25675554Y5233397D01*
X24437459Y6138159D02*
X24342220Y6138159D01*
X24246982Y6090540D01*
X24199363Y6042921D01*
X24151744Y5947683D01*
X24104125Y5757207D01*
X24104125Y5519111D01*
X24151744Y5328635D01*
X24199363Y5233397D01*
X24246982Y5185778D01*
X24342220Y5138159D01*
X24437459Y5138159D01*
X24532697Y5185778D01*
X24580316Y5233397D01*
X24627935Y5328635D01*
X24675554Y5519111D01*
X24675554Y5757207D01*
X24627935Y5947683D01*
X24580316Y6042921D01*
X24532697Y6090540D01*
X24437459Y6138159D01*
X26627935Y1058159D02*
X26627935Y248635D01*
X26580316Y153397D01*
X26532697Y105778D01*
X26437459Y58159D01*
X26246982Y58159D01*
X26151744Y105778D01*
X26104125Y153397D01*
X26056506Y248635D01*
X26056506Y1058159D01*
X25675554Y1058159D02*
X25056506Y1058159D01*
X25389840Y677207D01*
X25246982Y677207D01*
X25151744Y629588D01*
X25104125Y581969D01*
X25056506Y486730D01*
X25056506Y248635D01*
X25104125Y153397D01*
X25151744Y105778D01*
X25246982Y58159D01*
X25532697Y58159D01*
X25627935Y105778D01*
X25675554Y153397D01*
X24104125Y58159D02*
X24675554Y58159D01*
X24389840Y58159D02*
X24389840Y1058159D01*
X24485078Y915302D01*
X24580316Y820064D01*
X24675554Y772445D01*
X26627935Y-4021841D02*
X26627935Y-4831365D01*
X26580316Y-4926603D01*
X26532697Y-4974222D01*
X26437459Y-5021841D01*
X26246982Y-5021841D01*
X26151744Y-4974222D01*
X26104125Y-4926603D01*
X26056506Y-4831365D01*
X26056506Y-4021841D01*
X25675554Y-4021841D02*
X25056506Y-4021841D01*
X25389840Y-4402793D01*
X25246982Y-4402793D01*
X25151744Y-4450412D01*
X25104125Y-4498031D01*
X25056506Y-4593270D01*
X25056506Y-4831365D01*
X25104125Y-4926603D01*
X25151744Y-4974222D01*
X25246982Y-5021841D01*
X25532697Y-5021841D01*
X25627935Y-4974222D01*
X25675554Y-4926603D01*
X24675554Y-4117079D02*
X24627935Y-4069460D01*
X24532697Y-4021841D01*
X24294601Y-4021841D01*
X24199363Y-4069460D01*
X24151744Y-4117079D01*
X24104125Y-4212317D01*
X24104125Y-4307555D01*
X24151744Y-4450412D01*
X24723173Y-5021841D01*
X24104125Y-5021841D01*
X5940665Y8676094D02*
X5940665Y8608751D01*
X6008009Y8474064D01*
X6075352Y8406720D01*
X6210040Y8339376D01*
X6344727Y8339376D01*
X6445742Y8373048D01*
X6614101Y8474063D01*
X6715116Y8575079D01*
X6816132Y8743437D01*
X6849803Y8844453D01*
X6849803Y8979140D01*
X6782459Y9113827D01*
X6715116Y9181171D01*
X6580429Y9248514D01*
X6513085Y9248514D01*
X5199887Y9282186D02*
X5603948Y8878124D01*
X5401918Y9080155D02*
X6109025Y9787261D01*
X6075353Y9618903D01*
X6075353Y9484216D01*
X6109025Y9383201D01*
X5469261Y10427025D02*
X5401917Y10494369D01*
X5300902Y10528041D01*
X5233559Y10528041D01*
X5132544Y10494369D01*
X4964185Y10393354D01*
X4795826Y10224994D01*
X4694811Y10056636D01*
X4661139Y9955621D01*
X4661139Y9888277D01*
X4694811Y9787262D01*
X4762155Y9719918D01*
X4863170Y9686246D01*
X4930513Y9686246D01*
X5031528Y9719918D01*
X5199887Y9820933D01*
X5368246Y9989292D01*
X5469261Y10157651D01*
X5502933Y10258666D01*
X5502933Y10326010D01*
X5469261Y10427025D01*
X4795826Y11100460D02*
X4728482Y11167804D01*
X4627467Y11201476D01*
X4560124Y11201476D01*
X4459108Y11167804D01*
X4290750Y11066789D01*
X4122391Y10898430D01*
X4021375Y10730071D01*
X3987704Y10629056D01*
X3987704Y10561712D01*
X4021375Y10460697D01*
X4088720Y10393353D01*
X4189735Y10359681D01*
X4257078Y10359681D01*
X4358093Y10393353D01*
X4526452Y10494368D01*
X4694811Y10662728D01*
X4795826Y10831086D01*
X4829498Y10932101D01*
X4829498Y10999445D01*
X4795826Y11100460D01*
X-9435171Y-6191742D02*
X-9435171Y-6259085D01*
X-9367827Y-6393772D01*
X-9300484Y-6461116D01*
X-9165796Y-6528460D01*
X-9031109Y-6528460D01*
X-8930094Y-6494788D01*
X-8761735Y-6393773D01*
X-8660720Y-6292757D01*
X-8559704Y-6124399D01*
X-8526033Y-6023383D01*
X-8526033Y-5888696D01*
X-8593377Y-5754009D01*
X-8660720Y-5686665D01*
X-8795407Y-5619322D01*
X-8862751Y-5619322D01*
X-10175949Y-5585650D02*
X-9771888Y-5989712D01*
X-9973918Y-5787681D02*
X-9266811Y-5080575D01*
X-9300483Y-5248933D01*
X-9300483Y-5383620D01*
X-9266811Y-5484635D01*
X-9906575Y-4440811D02*
X-9973919Y-4373467D01*
X-10074934Y-4339795D01*
X-10142277Y-4339795D01*
X-10243292Y-4373467D01*
X-10411651Y-4474482D01*
X-10580010Y-4642842D01*
X-10681025Y-4811200D01*
X-10714697Y-4912215D01*
X-10714697Y-4979559D01*
X-10681025Y-5080574D01*
X-10613681Y-5147918D01*
X-10512666Y-5181590D01*
X-10445323Y-5181590D01*
X-10344308Y-5147918D01*
X-10175949Y-5046903D01*
X-10007590Y-4878544D01*
X-9906575Y-4710185D01*
X-9872903Y-4609170D01*
X-9872903Y-4541826D01*
X-9906575Y-4440811D01*
X-11522819Y-4238780D02*
X-11118758Y-4642842D01*
X-11320788Y-4440811D02*
X-10613681Y-3733704D01*
X-10647353Y-3902063D01*
X-10647353Y-4036750D01*
X-10613681Y-4137765D01*
X-14763258Y-1942171D02*
X-14695915Y-1942171D01*
X-14561228Y-1874827D01*
X-14493884Y-1807484D01*
X-14426540Y-1672796D01*
X-14426540Y-1538109D01*
X-14460212Y-1437094D01*
X-14561227Y-1268735D01*
X-14662243Y-1167720D01*
X-14830601Y-1066704D01*
X-14931617Y-1033033D01*
X-15066304Y-1033033D01*
X-15200991Y-1100377D01*
X-15268335Y-1167720D01*
X-15335678Y-1302407D01*
X-15335678Y-1369751D01*
X-15369350Y-2682949D02*
X-14965288Y-2278888D01*
X-15167319Y-2480918D02*
X-15874425Y-1773811D01*
X-15706067Y-1807483D01*
X-15571380Y-1807483D01*
X-15470365Y-1773811D01*
X-16514189Y-2413575D02*
X-16581533Y-2480919D01*
X-16615205Y-2581934D01*
X-16615205Y-2649277D01*
X-16581533Y-2750292D01*
X-16480518Y-2918651D01*
X-16312158Y-3087010D01*
X-16143800Y-3188025D01*
X-16042785Y-3221697D01*
X-15975441Y-3221697D01*
X-15874426Y-3188025D01*
X-15807082Y-3120681D01*
X-15773410Y-3019666D01*
X-15773410Y-2952323D01*
X-15807082Y-2851308D01*
X-15908097Y-2682949D01*
X-16076456Y-2514590D01*
X-16244815Y-2413575D01*
X-16345830Y-2379903D01*
X-16413174Y-2379903D01*
X-16514189Y-2413575D01*
X-16951922Y-2985994D02*
X-17019265Y-2985994D01*
X-17120280Y-3019666D01*
X-17288640Y-3188025D01*
X-17322311Y-3289041D01*
X-17322311Y-3356384D01*
X-17288640Y-3457399D01*
X-17221296Y-3524743D01*
X-17086609Y-3592086D01*
X-16278487Y-3592086D01*
X-16716220Y-4029819D01*
X-13248094Y-3457335D02*
X-13180751Y-3457335D01*
X-13046064Y-3389991D01*
X-12978720Y-3322648D01*
X-12911376Y-3187960D01*
X-12911376Y-3053273D01*
X-12945048Y-2952258D01*
X-13046063Y-2783899D01*
X-13147079Y-2682884D01*
X-13315437Y-2581868D01*
X-13416453Y-2548197D01*
X-13551140Y-2548197D01*
X-13685827Y-2615541D01*
X-13753171Y-2682884D01*
X-13820514Y-2817571D01*
X-13820514Y-2884915D01*
X-13854186Y-4198113D02*
X-13450124Y-3794052D01*
X-13652155Y-3996082D02*
X-14359261Y-3288975D01*
X-14190903Y-3322647D01*
X-14056216Y-3322647D01*
X-13955201Y-3288975D01*
X-14999025Y-3928739D02*
X-15066369Y-3996083D01*
X-15100041Y-4097098D01*
X-15100041Y-4164441D01*
X-15066369Y-4265456D01*
X-14965354Y-4433815D01*
X-14796994Y-4602174D01*
X-14628636Y-4703189D01*
X-14527621Y-4736861D01*
X-14460277Y-4736861D01*
X-14359262Y-4703189D01*
X-14291918Y-4635845D01*
X-14258246Y-4534830D01*
X-14258246Y-4467487D01*
X-14291918Y-4366472D01*
X-14392933Y-4198113D01*
X-14561292Y-4029754D01*
X-14729651Y-3928739D01*
X-14830666Y-3895067D01*
X-14898010Y-3895067D01*
X-14999025Y-3928739D01*
X-15470430Y-4400143D02*
X-15908163Y-4837876D01*
X-15403086Y-4871547D01*
X-15504102Y-4972563D01*
X-15537774Y-5073578D01*
X-15537774Y-5140922D01*
X-15504101Y-5241938D01*
X-15335743Y-5410296D01*
X-15234728Y-5443968D01*
X-15167384Y-5443968D01*
X-15066369Y-5410296D01*
X-14864338Y-5208265D01*
X-14830666Y-5107250D01*
X-14830666Y-5039907D01*
X-548094Y14068665D02*
X-480751Y14068665D01*
X-346064Y14136009D01*
X-278720Y14203352D01*
X-211376Y14338040D01*
X-211376Y14472727D01*
X-245048Y14573742D01*
X-346063Y14742101D01*
X-447079Y14843116D01*
X-615437Y14944132D01*
X-716453Y14977803D01*
X-851140Y14977803D01*
X-985827Y14910459D01*
X-1053171Y14843116D01*
X-1120514Y14708429D01*
X-1120514Y14641085D01*
X-1154186Y13327887D02*
X-750124Y13731948D01*
X-952155Y13529918D02*
X-1659261Y14237025D01*
X-1490903Y14203353D01*
X-1356216Y14203353D01*
X-1255201Y14237025D01*
X-2299025Y13597261D02*
X-2366369Y13529917D01*
X-2400041Y13428902D01*
X-2400041Y13361559D01*
X-2366369Y13260544D01*
X-2265354Y13092185D01*
X-2096994Y12923826D01*
X-1928636Y12822811D01*
X-1827621Y12789139D01*
X-1760277Y12789139D01*
X-1659262Y12822811D01*
X-1591918Y12890155D01*
X-1558246Y12991170D01*
X-1558246Y13058513D01*
X-1591918Y13159528D01*
X-1692933Y13327887D01*
X-1861292Y13496246D01*
X-2029651Y13597261D01*
X-2130666Y13630933D01*
X-2198010Y13630933D01*
X-2299025Y13597261D01*
X-2905117Y12519765D02*
X-2433712Y12048360D01*
X-3006132Y12957498D02*
X-2332696Y12620780D01*
X-2770430Y12183047D01*
X-5120094Y9496665D02*
X-5052751Y9496665D01*
X-4918064Y9564009D01*
X-4850720Y9631352D01*
X-4783376Y9766040D01*
X-4783376Y9900727D01*
X-4817048Y10001742D01*
X-4918063Y10170101D01*
X-5019079Y10271116D01*
X-5187437Y10372132D01*
X-5288453Y10405803D01*
X-5423140Y10405803D01*
X-5557827Y10338459D01*
X-5625171Y10271116D01*
X-5692514Y10136429D01*
X-5692514Y10069085D01*
X-5726186Y8755887D02*
X-5322124Y9159948D01*
X-5524155Y8957918D02*
X-6231261Y9665025D01*
X-6062903Y9631353D01*
X-5928216Y9631353D01*
X-5827201Y9665025D01*
X-6871025Y9025261D02*
X-6938369Y8957917D01*
X-6972041Y8856902D01*
X-6972041Y8789559D01*
X-6938369Y8688544D01*
X-6837354Y8520185D01*
X-6668994Y8351826D01*
X-6500636Y8250811D01*
X-6399621Y8217139D01*
X-6332277Y8217139D01*
X-6231262Y8250811D01*
X-6163918Y8318155D01*
X-6130246Y8419170D01*
X-6130246Y8486513D01*
X-6163918Y8587528D01*
X-6264933Y8755887D01*
X-6433292Y8924246D01*
X-6601651Y9025261D01*
X-6702666Y9058933D01*
X-6770010Y9058933D01*
X-6871025Y9025261D01*
X-7746491Y8149795D02*
X-7409773Y8486513D01*
X-7039384Y8183468D01*
X-7106728Y8183468D01*
X-7207743Y8149796D01*
X-7376102Y7981437D01*
X-7409774Y7880422D01*
X-7409774Y7813078D01*
X-7376101Y7712062D01*
X-7207743Y7543704D01*
X-7106728Y7510032D01*
X-7039384Y7510032D01*
X-6938369Y7543704D01*
X-6770010Y7712063D01*
X-6736338Y7813078D01*
X-6736338Y7880422D01*
X-1437094Y14957665D02*
X-1369751Y14957665D01*
X-1235064Y15025009D01*
X-1167720Y15092352D01*
X-1100376Y15227040D01*
X-1100376Y15361727D01*
X-1134048Y15462742D01*
X-1235063Y15631101D01*
X-1336079Y15732116D01*
X-1504437Y15833132D01*
X-1605453Y15866803D01*
X-1740140Y15866803D01*
X-1874827Y15799459D01*
X-1942171Y15732116D01*
X-2009514Y15597429D01*
X-2009514Y15530085D01*
X-2043186Y14216887D02*
X-1639124Y14620948D01*
X-1841155Y14418918D02*
X-2548261Y15126025D01*
X-2379903Y15092353D01*
X-2245216Y15092353D01*
X-2144201Y15126025D01*
X-3188025Y14486261D02*
X-3255369Y14418917D01*
X-3289041Y14317902D01*
X-3289041Y14250559D01*
X-3255369Y14149544D01*
X-3154354Y13981185D01*
X-2985994Y13812826D01*
X-2817636Y13711811D01*
X-2716621Y13678139D01*
X-2649277Y13678139D01*
X-2548262Y13711811D01*
X-2480918Y13779155D01*
X-2447246Y13880170D01*
X-2447246Y13947513D01*
X-2480918Y14048528D01*
X-2581933Y14216887D01*
X-2750292Y14385246D01*
X-2918651Y14486261D01*
X-3019666Y14519933D01*
X-3087010Y14519933D01*
X-3188025Y14486261D01*
X-4029819Y13644467D02*
X-3895132Y13779155D01*
X-3794116Y13812826D01*
X-3726773Y13812826D01*
X-3558414Y13779155D01*
X-3390056Y13678140D01*
X-3120681Y13408765D01*
X-3087010Y13307750D01*
X-3087010Y13240406D01*
X-3120681Y13139391D01*
X-3255369Y13004704D01*
X-3356384Y12971032D01*
X-3423728Y12971032D01*
X-3524743Y13004704D01*
X-3693101Y13173062D01*
X-3726774Y13274078D01*
X-3726774Y13341422D01*
X-3693102Y13442437D01*
X-3558414Y13577124D01*
X-3457399Y13610796D01*
X-3390056Y13610796D01*
X-3289040Y13577124D01*
X8947307Y-6679606D02*
X9014650Y-6679606D01*
X9149337Y-6612262D01*
X9216681Y-6544919D01*
X9284025Y-6410231D01*
X9284025Y-6275544D01*
X9250353Y-6174529D01*
X9149338Y-6006171D01*
X9048322Y-5905155D01*
X8879963Y-5804140D01*
X8778948Y-5770468D01*
X8644261Y-5770468D01*
X8509574Y-5837812D01*
X8442230Y-5905155D01*
X8374887Y-6039842D01*
X8374887Y-6107186D01*
X7701452Y-6645934D02*
X7836140Y-6511246D01*
X7937155Y-6477575D01*
X8004498Y-6477575D01*
X8172857Y-6511246D01*
X8341215Y-6612261D01*
X8610590Y-6881636D01*
X8644261Y-6982651D01*
X8644261Y-7049994D01*
X8610590Y-7151010D01*
X8475902Y-7285697D01*
X8374887Y-7319369D01*
X8307544Y-7319369D01*
X8206528Y-7285697D01*
X8038170Y-7117339D01*
X8004497Y-7016323D01*
X8004497Y-6948979D01*
X8038169Y-6847964D01*
X8172857Y-6713277D01*
X8273872Y-6679605D01*
X8341215Y-6679605D01*
X8442231Y-6713277D01*
X3613307Y-12013606D02*
X3680650Y-12013606D01*
X3815337Y-11946262D01*
X3882681Y-11878919D01*
X3950025Y-11744231D01*
X3950025Y-11609544D01*
X3916353Y-11508529D01*
X3815338Y-11340171D01*
X3714322Y-11239155D01*
X3545963Y-11138140D01*
X3444948Y-11104468D01*
X3310261Y-11104468D01*
X3175574Y-11171812D01*
X3108230Y-11239155D01*
X3040887Y-11373842D01*
X3040887Y-11441186D01*
X2737842Y-11609544D02*
X2266437Y-12080949D01*
X3276590Y-12485010D01*
X13141230Y1475529D02*
X13141230Y1408186D01*
X13208574Y1273499D01*
X13275917Y1206155D01*
X13410605Y1138811D01*
X13545292Y1138811D01*
X13646307Y1172483D01*
X13814665Y1273498D01*
X13915681Y1374514D01*
X14016696Y1542873D01*
X14050368Y1643888D01*
X14050368Y1778575D01*
X13983024Y1913262D01*
X13915681Y1980606D01*
X13780994Y2047949D01*
X13713650Y2047949D01*
X13073888Y2216308D02*
X13174903Y2182636D01*
X13242246Y2182636D01*
X13343261Y2216308D01*
X13376933Y2249979D01*
X13410605Y2350994D01*
X13410605Y2418338D01*
X13376933Y2519353D01*
X13242246Y2654041D01*
X13141230Y2687712D01*
X13073887Y2687712D01*
X12972872Y2654041D01*
X12939200Y2620369D01*
X12905528Y2519354D01*
X12905528Y2452010D01*
X12939200Y2350995D01*
X13073888Y2216308D01*
X13107559Y2115292D01*
X13107559Y2047949D01*
X13073887Y1946933D01*
X12939200Y1812246D01*
X12838185Y1778575D01*
X12770842Y1778575D01*
X12669826Y1812246D01*
X12535139Y1946934D01*
X12501467Y2047949D01*
X12501467Y2115292D01*
X12535139Y2216308D01*
X12669826Y2350994D01*
X12770842Y2384667D01*
X12838185Y2384667D01*
X12939200Y2350995D01*
X-1980606Y-13646307D02*
X-1980606Y-13713650D01*
X-1913262Y-13848337D01*
X-1845919Y-13915681D01*
X-1711231Y-13983025D01*
X-1576544Y-13983025D01*
X-1475529Y-13949353D01*
X-1307171Y-13848338D01*
X-1206155Y-13747322D01*
X-1105140Y-13578963D01*
X-1071468Y-13477948D01*
X-1071468Y-13343261D01*
X-1138812Y-13208574D01*
X-1206155Y-13141230D01*
X-1340842Y-13073887D01*
X-1408186Y-13073887D01*
X-2384666Y-13376933D02*
X-2519353Y-13242246D01*
X-2553025Y-13141230D01*
X-2553025Y-13073887D01*
X-2519354Y-12905528D01*
X-2418339Y-12737170D01*
X-2148964Y-12467795D01*
X-2047949Y-12434124D01*
X-1980606Y-12434124D01*
X-1879590Y-12467795D01*
X-1744903Y-12602483D01*
X-1711231Y-12703498D01*
X-1711231Y-12770842D01*
X-1744903Y-12871857D01*
X-1913261Y-13040215D01*
X-2014277Y-13073887D01*
X-2081621Y-13073888D01*
X-2182636Y-13040216D01*
X-2317323Y-12905528D01*
X-2350995Y-12804513D01*
X-2350994Y-12737169D01*
X-2317323Y-12636154D01*
X9540948Y5075811D02*
X9540948Y5008468D01*
X9608292Y4873781D01*
X9675635Y4806437D01*
X9810323Y4739093D01*
X9945010Y4739093D01*
X10046025Y4772765D01*
X10214383Y4873780D01*
X10315399Y4974796D01*
X10416414Y5143155D01*
X10450086Y5244170D01*
X10450086Y5378857D01*
X10382742Y5513544D01*
X10315399Y5580888D01*
X10180712Y5648231D01*
X10113368Y5648231D01*
X8800170Y5681903D02*
X9204231Y5277842D01*
X9002201Y5479872D02*
X9709308Y6186979D01*
X9675636Y6018620D01*
X9675636Y5883933D01*
X9709308Y5782918D01*
X9069544Y6826742D02*
X9002200Y6894086D01*
X8901185Y6927758D01*
X8833842Y6927758D01*
X8732826Y6894086D01*
X8564468Y6793071D01*
X8396108Y6624712D01*
X8295093Y6456353D01*
X8261422Y6355338D01*
X8261422Y6287994D01*
X8295093Y6186979D01*
X8362437Y6119635D01*
X8463453Y6085963D01*
X8530796Y6085963D01*
X8631811Y6119635D01*
X8800170Y6220650D01*
X8968529Y6389010D01*
X9069544Y6557368D01*
X9103216Y6658383D01*
X9103216Y6725727D01*
X9069544Y6826742D01*
X-6342888Y-9284025D02*
X-6342888Y-9351368D01*
X-6275544Y-9486055D01*
X-6208201Y-9553399D01*
X-6073513Y-9620743D01*
X-5938826Y-9620743D01*
X-5837811Y-9587071D01*
X-5669453Y-9486056D01*
X-5568437Y-9385040D01*
X-5467422Y-9216681D01*
X-5433750Y-9115666D01*
X-5433750Y-8980979D01*
X-5501094Y-8846292D01*
X-5568437Y-8778948D01*
X-5703124Y-8711605D01*
X-5770468Y-8711605D01*
X-7083666Y-8677933D02*
X-6679605Y-9081994D01*
X-6881635Y-8879964D02*
X-6174528Y-8172857D01*
X-6208200Y-8341216D01*
X-6208200Y-8475903D01*
X-6174528Y-8576918D01*
X-7757101Y-8004498D02*
X-7353040Y-8408559D01*
X-7555070Y-8206529D02*
X-6847963Y-7499422D01*
X-6881635Y-7667781D01*
X-6881635Y-7802468D01*
X-6847963Y-7903483D01*
X476191Y-21826190D02*
X476191Y-22302381D01*
X809524Y-21302381D02*
X476191Y-21826190D01*
X142857Y-21302381D01*
X-142857Y-21397619D02*
X-190476Y-21350000D01*
X-285714Y-21302381D01*
X-523810Y-21302381D01*
X-619048Y-21350000D01*
X-666667Y-21397619D01*
X-714286Y-21492857D01*
X-714286Y-21588095D01*
X-666667Y-21730952D01*
X-95238Y-22302381D01*
X-714286Y-22302381D01*
X-19679087Y-23693417D02*
X-19106667Y-24265837D01*
X-19072995Y-24366852D01*
X-19072995Y-24434195D01*
X-19106667Y-24535210D01*
X-19241355Y-24669898D01*
X-19342370Y-24703570D01*
X-19409713Y-24703570D01*
X-19510728Y-24669898D01*
X-20083148Y-24097478D01*
X-20722912Y-24737241D02*
X-20588224Y-24602554D01*
X-20487209Y-24568882D01*
X-20419865Y-24568882D01*
X-20251507Y-24602554D01*
X-20083148Y-24703569D01*
X-19813774Y-24972943D01*
X-19780102Y-25073959D01*
X-19780102Y-25141302D01*
X-19813774Y-25242317D01*
X-19948461Y-25377005D01*
X-20049477Y-25410676D01*
X-20116820Y-25410676D01*
X-20217835Y-25377005D01*
X-20386194Y-25208646D01*
X-20419866Y-25107630D01*
X-20419866Y-25040287D01*
X-20386194Y-24939272D01*
X-20251507Y-24804584D01*
X-20150492Y-24770912D01*
X-20083148Y-24770912D01*
X-19982132Y-24804585D01*
X-22524867Y17084004D02*
X-22457524Y17084004D01*
X-22322837Y17151348D01*
X-22255493Y17218691D01*
X-22188149Y17353379D01*
X-22188149Y17488066D01*
X-22221821Y17589081D01*
X-22322836Y17757439D01*
X-22423852Y17858455D01*
X-22592211Y17959470D01*
X-22693226Y17993142D01*
X-22827913Y17993142D01*
X-22962600Y17925798D01*
X-23029944Y17858455D01*
X-23097287Y17723768D01*
X-23097287Y17656424D01*
X-23535020Y16881974D02*
X-23063615Y16410569D01*
X-23636035Y17319707D02*
X-22962600Y16982989D01*
X-23400333Y16545256D01*
X-24040096Y16713615D02*
X-24107439Y16713615D01*
X-24208455Y16679944D01*
X-24376814Y16511584D01*
X-24410486Y16410569D01*
X-24410486Y16343226D01*
X-24376814Y16242211D01*
X-24309470Y16174867D01*
X-24174784Y16107524D01*
X-23366661Y16107524D01*
X-23804394Y15669791D01*
X23939081Y-16679944D02*
X24006424Y-16679944D01*
X24141111Y-16612600D01*
X24208455Y-16545257D01*
X24275799Y-16410569D01*
X24275799Y-16275882D01*
X24242127Y-16174867D01*
X24141112Y-16006509D01*
X24040096Y-15905493D01*
X23871737Y-15804478D01*
X23770722Y-15770806D01*
X23636035Y-15770806D01*
X23501348Y-15838150D01*
X23434004Y-15905493D01*
X23366661Y-16040180D01*
X23366661Y-16107524D01*
X22659554Y-16679944D02*
X22996272Y-16343226D01*
X23366661Y-16646271D01*
X23299317Y-16646271D01*
X23198302Y-16679943D01*
X23029943Y-16848302D01*
X22996271Y-16949317D01*
X22996271Y-17016661D01*
X23029944Y-17117677D01*
X23198302Y-17286035D01*
X23299317Y-17319707D01*
X23366661Y-17319707D01*
X23467676Y-17286035D01*
X23636035Y-17117676D01*
X23669707Y-17016661D01*
X23669707Y-16949317D01*
X22423852Y-17050333D02*
X22356509Y-17050333D01*
X22255493Y-17084004D01*
X22087134Y-17252364D01*
X22053462Y-17353379D01*
X22053462Y-17420722D01*
X22087134Y-17521737D01*
X22154478Y-17589081D01*
X22289164Y-17656424D01*
X23097287Y-17656424D01*
X22659554Y-18094157D01*
X-13298150Y8530721D02*
X-13230807Y8530721D01*
X-13096120Y8598065D01*
X-13028776Y8665408D01*
X-12961432Y8800096D01*
X-12961432Y8934783D01*
X-12995104Y9035798D01*
X-13096119Y9204157D01*
X-13197135Y9305172D01*
X-13365493Y9406188D01*
X-13466509Y9439859D01*
X-13601196Y9439859D01*
X-13735883Y9372515D01*
X-13803227Y9305172D01*
X-13870570Y9170485D01*
X-13870570Y9103141D01*
X-13904242Y7789943D02*
X-13500180Y8194004D01*
X-13702211Y7991974D02*
X-14409317Y8699081D01*
X-14240959Y8665409D01*
X-14106272Y8665409D01*
X-14005257Y8699081D01*
X-15049081Y8059317D02*
X-15116425Y7991973D01*
X-15150097Y7890958D01*
X-15150097Y7823615D01*
X-15116425Y7722600D01*
X-15015410Y7554241D01*
X-14847050Y7385882D01*
X-14678692Y7284867D01*
X-14577677Y7251195D01*
X-14510333Y7251195D01*
X-14409318Y7284867D01*
X-14341974Y7352211D01*
X-14308302Y7453226D01*
X-14308302Y7520569D01*
X-14341974Y7621584D01*
X-14442989Y7789943D01*
X-14611348Y7958302D01*
X-14779707Y8059317D01*
X-14880722Y8092989D01*
X-14948066Y8092989D01*
X-15049081Y8059317D01*
X-15520486Y7587913D02*
X-15991890Y7116508D01*
X-14981737Y6712447D01*
X15385798Y-7453227D02*
X15453141Y-7453227D01*
X15587828Y-7385883D01*
X15655172Y-7318540D01*
X15722516Y-7183852D01*
X15722516Y-7049165D01*
X15688844Y-6948150D01*
X15587829Y-6779791D01*
X15486813Y-6678776D01*
X15318455Y-6577760D01*
X15217439Y-6544089D01*
X15082752Y-6544089D01*
X14948065Y-6611433D01*
X14880721Y-6678776D01*
X14813378Y-6813463D01*
X14813378Y-6880807D01*
X14779706Y-8194005D02*
X15183768Y-7789944D01*
X14981737Y-7991974D02*
X14274631Y-7284867D01*
X14442989Y-7318539D01*
X14577676Y-7318539D01*
X14678691Y-7284867D01*
X13634867Y-7924631D02*
X13567523Y-7991975D01*
X13533851Y-8092990D01*
X13533851Y-8160333D01*
X13567523Y-8261348D01*
X13668538Y-8429707D01*
X13836898Y-8598066D01*
X14005256Y-8699081D01*
X14106271Y-8732753D01*
X14173615Y-8732753D01*
X14274630Y-8699081D01*
X14341974Y-8631737D01*
X14375646Y-8530722D01*
X14375646Y-8463379D01*
X14341974Y-8362364D01*
X14240959Y-8194005D01*
X14072600Y-8025646D01*
X13904241Y-7924631D01*
X13803226Y-7890959D01*
X13735882Y-7890959D01*
X13634867Y-7924631D01*
X13298149Y-8867439D02*
X13331821Y-8766424D01*
X13331821Y-8699081D01*
X13298149Y-8598066D01*
X13264478Y-8564394D01*
X13163462Y-8530722D01*
X13096119Y-8530722D01*
X12995104Y-8564394D01*
X12860416Y-8699081D01*
X12826745Y-8800097D01*
X12826745Y-8867440D01*
X12860416Y-8968455D01*
X12894088Y-9002127D01*
X12995103Y-9035799D01*
X13062447Y-9035799D01*
X13163462Y-9002127D01*
X13298149Y-8867439D01*
X13399164Y-8833768D01*
X13466508Y-8833768D01*
X13567524Y-8867440D01*
X13702211Y-9002127D01*
X13735882Y-9103142D01*
X13735882Y-9170486D01*
X13702211Y-9271501D01*
X13567523Y-9406188D01*
X13466508Y-9439860D01*
X13399164Y-9439860D01*
X13298149Y-9406188D01*
X13163462Y-9271501D01*
X13129790Y-9170486D01*
X13129790Y-9103142D01*
X13163462Y-9002127D01*
X-19409279Y-30516850D02*
X-19409279Y-30584193D01*
X-19341935Y-30718880D01*
X-19274592Y-30786224D01*
X-19139904Y-30853568D01*
X-19005217Y-30853568D01*
X-18904202Y-30819896D01*
X-18735843Y-30718881D01*
X-18634828Y-30617865D01*
X-18533812Y-30449507D01*
X-18500141Y-30348491D01*
X-18500141Y-30213804D01*
X-18567485Y-30079117D01*
X-18634828Y-30011773D01*
X-18769515Y-29944430D01*
X-18836859Y-29944430D01*
X-20150057Y-29910758D02*
X-19745996Y-30314820D01*
X-19948026Y-30112789D02*
X-19240919Y-29405683D01*
X-19274591Y-29574041D01*
X-19274591Y-29708728D01*
X-19240919Y-29809743D01*
X-20823492Y-29237323D02*
X-20419431Y-29641385D01*
X-20621461Y-29439354D02*
X-19914354Y-28732248D01*
X-19948026Y-28900606D01*
X-19948026Y-29035293D01*
X-19914354Y-29136308D01*
X-20352087Y-28294514D02*
X-20789820Y-27856781D01*
X-20823491Y-28361858D01*
X-20924507Y-28260842D01*
X-21025522Y-28227170D01*
X-21092866Y-28227170D01*
X-21193882Y-28260843D01*
X-21362240Y-28429201D01*
X-21395912Y-28530216D01*
X-21395912Y-28597560D01*
X-21362240Y-28698575D01*
X-21160209Y-28900606D01*
X-21059194Y-28934278D01*
X-20991851Y-28934278D01*
X-5117079Y-24151745D02*
X-4307555Y-24151745D01*
X-4212317Y-24199364D01*
X-4164698Y-24246983D01*
X-4117079Y-24342221D01*
X-4117079Y-24532698D01*
X-4164698Y-24627936D01*
X-4212317Y-24675555D01*
X-4307555Y-24723174D01*
X-5117079Y-24723174D01*
X-4117079Y-25723174D02*
X-4117079Y-25151745D01*
X-4117079Y-25437459D02*
X-5117079Y-25437459D01*
X-4974222Y-25342221D01*
X-4878984Y-25246983D01*
X-4831365Y-25151745D01*
X-4117079Y-26675555D02*
X-4117079Y-26104126D01*
X-4117079Y-26389840D02*
X-5117079Y-26389840D01*
X-4974222Y-26294602D01*
X-4878984Y-26199364D01*
X-4831365Y-26104126D01*
M02*
