G04 #@! TF.FileFunction,Copper,L3,Inr,Plane*
%FSLAX46Y46*%
G04 Gerber Fmt 4.6, Leading zero omitted, Abs format (unit mm)*
G04 Created by KiCad (PCBNEW 4.0.6-e0-6349~53~ubuntu14.04.1) date Sat Apr  1 16:27:06 2017*
%MOMM*%
%LPD*%
G01*
G04 APERTURE LIST*
%ADD10C,0.200000*%
%ADD11C,3.500000*%
%ADD12C,1.727200*%
%ADD13R,1.727200X1.727200*%
%ADD14O,1.727200X1.727200*%
%ADD15C,0.950000*%
%ADD16C,1.550000*%
%ADD17C,0.600000*%
%ADD18C,0.250000*%
%ADD19C,0.254000*%
G04 APERTURE END LIST*
D10*
D11*
X-28575000Y17780000D03*
D10*
G36*
X14077763Y24705922D02*
X12640922Y26142763D01*
X13862237Y27364078D01*
X15299078Y25927237D01*
X14077763Y24705922D01*
X14077763Y24705922D01*
G37*
D12*
X15658288Y27938814D02*
X15873814Y27723288D01*
X17454339Y29734865D02*
X17669865Y29519339D01*
D13*
X11430000Y-28575000D03*
D14*
X11430000Y-31115000D03*
X8890000Y-28575000D03*
X8890000Y-31115000D03*
X6350000Y-28575000D03*
X6350000Y-31115000D03*
X3810000Y-28575000D03*
X3810000Y-31115000D03*
X1270000Y-28575000D03*
X1270000Y-31115000D03*
X-1270000Y-28575000D03*
X-1270000Y-31115000D03*
X-3810000Y-28575000D03*
X-3810000Y-31115000D03*
X-6350000Y-28575000D03*
X-6350000Y-31115000D03*
X-8890000Y-28575000D03*
X-8890000Y-31115000D03*
X-11430000Y-28575000D03*
X-11430000Y-31115000D03*
D13*
X-28575000Y-11430000D03*
D14*
X-31115000Y-11430000D03*
X-28575000Y-8890000D03*
X-31115000Y-8890000D03*
X-28575000Y-6350000D03*
X-31115000Y-6350000D03*
X-28575000Y-3810000D03*
X-31115000Y-3810000D03*
X-28575000Y-1270000D03*
X-31115000Y-1270000D03*
X-28575000Y1270000D03*
X-31115000Y1270000D03*
X-28575000Y3810000D03*
X-31115000Y3810000D03*
X-28575000Y6350000D03*
X-31115000Y6350000D03*
X-28575000Y8890000D03*
X-31115000Y8890000D03*
X-28575000Y11430000D03*
X-31115000Y11430000D03*
D13*
X-11430000Y28575000D03*
D14*
X-11430000Y31115000D03*
X-8890000Y28575000D03*
X-8890000Y31115000D03*
X-6350000Y28575000D03*
X-6350000Y31115000D03*
X-3810000Y28575000D03*
X-3810000Y31115000D03*
X-1270000Y28575000D03*
X-1270000Y31115000D03*
X1270000Y28575000D03*
X1270000Y31115000D03*
X3810000Y28575000D03*
X3810000Y31115000D03*
X6350000Y28575000D03*
X6350000Y31115000D03*
X8890000Y28575000D03*
X8890000Y31115000D03*
X11430000Y28575000D03*
X11430000Y31115000D03*
D13*
X28575000Y11430000D03*
D14*
X31115000Y11430000D03*
X28575000Y8890000D03*
X31115000Y8890000D03*
X28575000Y6350000D03*
X31115000Y6350000D03*
X28575000Y3810000D03*
X31115000Y3810000D03*
X28575000Y1270000D03*
X31115000Y1270000D03*
X28575000Y-1270000D03*
X31115000Y-1270000D03*
X28575000Y-3810000D03*
X31115000Y-3810000D03*
X28575000Y-6350000D03*
X31115000Y-6350000D03*
X28575000Y-8890000D03*
X31115000Y-8890000D03*
X28575000Y-11430000D03*
X31115000Y-11430000D03*
D15*
X-19986714Y-23523521D03*
X-23522248Y-19987987D03*
D16*
X-21188796Y-26139816D03*
X-26138543Y-21190068D03*
D10*
G36*
X-25290000Y20478685D02*
X-26511315Y21700000D01*
X-25290000Y22921315D01*
X-24068685Y21700000D01*
X-25290000Y20478685D01*
X-25290000Y20478685D01*
G37*
D12*
X-23493949Y19903949D02*
X-23493949Y19903949D01*
X-23493949Y23496051D02*
X-23493949Y23496051D01*
X-21697898Y21700000D02*
X-21697898Y21700000D01*
X-21697898Y25292102D02*
X-21697898Y25292102D01*
X-19901846Y23496051D02*
X-19901846Y23496051D01*
D10*
G36*
X25290000Y-20478685D02*
X26511315Y-21700000D01*
X25290000Y-22921315D01*
X24068685Y-21700000D01*
X25290000Y-20478685D01*
X25290000Y-20478685D01*
G37*
D12*
X23493949Y-19903949D02*
X23493949Y-19903949D01*
X23493949Y-23496051D02*
X23493949Y-23496051D01*
X21697898Y-21700000D02*
X21697898Y-21700000D01*
X21697898Y-25292102D02*
X21697898Y-25292102D01*
X19901846Y-23496051D02*
X19901846Y-23496051D01*
D11*
X-17780000Y28575000D03*
X28575000Y-17780000D03*
X17780000Y-28575000D03*
D17*
X23950000Y22550000D03*
X19750000Y4600000D03*
X-9850000Y7450000D03*
X21000000Y14800000D03*
X-16750000Y11400000D03*
X8700000Y9900000D03*
X16500000Y18400000D03*
X19200000Y-7950000D03*
X-8850000Y-15750000D03*
X-19200000Y7950000D03*
X9200000Y13750000D03*
X-13150000Y-9800000D03*
X-15750000Y-8850000D03*
X-9750000Y13850000D03*
X1050000Y23750000D03*
X-23750000Y1000000D03*
X-1000000Y-23750000D03*
X23750000Y-1050000D03*
X-3050000Y21250000D03*
X-21250000Y-3050000D03*
X21250000Y3050000D03*
X3050000Y-21250000D03*
X13650000Y9300000D03*
X9050000Y-15050000D03*
X13750000Y-9200000D03*
X-13750000Y9200000D03*
X5100000Y-2800000D03*
X-5200000Y-6050000D03*
X5750000Y-3350000D03*
X3550000Y-4150000D03*
X4200000Y-4650000D03*
X-9600000Y2900000D03*
X-8500000Y4650000D03*
X-6850000Y6400000D03*
X4650000Y26300000D03*
X5300000Y25800000D03*
X5400000Y3950000D03*
X9500000Y-2600000D03*
X7000000Y4300000D03*
X7100000Y3500000D03*
X8000000Y3500000D03*
X8900000Y-3800000D03*
X8100000Y-4800000D03*
X-3100000Y-9300000D03*
X-4400000Y-8900000D03*
X21250000Y-700000D03*
X5250000Y-50000D03*
X4450000Y-1750000D03*
X-3150000Y-2950000D03*
X50000Y5250000D03*
X700000Y21250000D03*
X-5000000Y-500000D03*
X-21250000Y700000D03*
X500000Y-5000000D03*
X-700000Y-21200000D03*
X10600000Y-14200000D03*
X-9144000Y-8509000D03*
X15918750Y-918750D03*
X15918750Y918750D03*
X918750Y15918750D03*
X-918750Y15918750D03*
X-15918750Y-918750D03*
X-15918750Y918750D03*
X-918750Y-15918750D03*
X918750Y-15918750D03*
X26770000Y17780000D03*
X11500000Y5800000D03*
X-11300000Y8450000D03*
X-8850000Y8150000D03*
X-10550000Y-6650000D03*
X-10850000Y10850000D03*
X5800000Y-11150000D03*
X-9950000Y-25200000D03*
X25200000Y-9950000D03*
X9950000Y25150000D03*
X-25200000Y9950000D03*
X1350000Y4550000D03*
X15050000Y20000000D03*
X10950000Y14600000D03*
X-250000Y25250000D03*
X-25250000Y-250000D03*
X250000Y-25250000D03*
X25250000Y250000D03*
X5000000Y1500000D03*
X1500000Y-5000000D03*
X-5000000Y-1500000D03*
X-1500000Y5000000D03*
X-8550000Y-24050000D03*
X-3500000Y-24050000D03*
X1600000Y-24200000D03*
X6650000Y-24000000D03*
X-24000000Y-6650000D03*
X-24050000Y-1600000D03*
X-24050000Y3500000D03*
X-24050000Y8550000D03*
X-6700000Y24050000D03*
X-1600000Y24050000D03*
X3500000Y24050000D03*
X8550000Y24050000D03*
X24050000Y6700000D03*
X24050000Y1600000D03*
X24050000Y-3500000D03*
X24050000Y-8550000D03*
X10600000Y-6350000D03*
X-2750000Y-4600000D03*
X-3700000Y-4550000D03*
X-5550000Y-3650000D03*
X-6050000Y-4300000D03*
X2750000Y9550000D03*
X-4750000Y4100000D03*
X-4700000Y5050000D03*
X-4200000Y6450000D03*
X-5050000Y6500000D03*
X3700000Y8600000D03*
X5000000Y8300000D03*
X-22900000Y-8050000D03*
X-22000000Y-8050000D03*
X-21350000Y-6750000D03*
X-21350000Y-7550000D03*
X-14150000Y-7700000D03*
X-13350000Y-7900000D03*
X-13200000Y-6600000D03*
X-12400000Y-6700000D03*
X-1550000Y-4900000D03*
X2650000Y1150000D03*
X0Y0D03*
X-4000000Y3650000D03*
X-11750000Y7400000D03*
X-12550000Y7300000D03*
X-13350000Y7150000D03*
X-14150000Y7000000D03*
X-23150000Y4900000D03*
X-22350000Y4850000D03*
X-21550000Y4700000D03*
X-20700000Y4700000D03*
X-8050000Y22900000D03*
X-8050000Y22000000D03*
X-6750000Y21350000D03*
X-7600000Y21300000D03*
X-7800000Y14100000D03*
X-8450000Y13300000D03*
X-6700000Y13200000D03*
X-7350000Y12400000D03*
X7450000Y11750000D03*
X7300000Y12550000D03*
X7150000Y13350000D03*
X7000000Y14150000D03*
X4850000Y23650000D03*
X4850000Y22750000D03*
X4700000Y21950000D03*
X4700000Y21050000D03*
X22900000Y8050000D03*
X22000000Y8050000D03*
X21350000Y6750000D03*
X21350000Y7550000D03*
X14150000Y7800000D03*
X13350000Y8000000D03*
X13200000Y6700000D03*
X12550000Y7150000D03*
X11750000Y-7450000D03*
X12550000Y-7300000D03*
X13350000Y-7150000D03*
X14150000Y-7000000D03*
X23350000Y-4900000D03*
X22450000Y-4900000D03*
X21650000Y-4700000D03*
X20700000Y-4700000D03*
X8100000Y-22850000D03*
X8100000Y-21950000D03*
X6800000Y-21300000D03*
X7600000Y-21300000D03*
X7750000Y-14150000D03*
X7950000Y-13350000D03*
X6650000Y-13200000D03*
X6850000Y-12400000D03*
X-7450000Y-11750000D03*
X-7300000Y-12550000D03*
X-7150000Y-13350000D03*
X-7000000Y-14150000D03*
X-4900000Y-23250000D03*
X-4850000Y-22350000D03*
X-4700000Y-21550000D03*
X-4700000Y-20650000D03*
X-20600000Y1400000D03*
X-12450000Y9000000D03*
X-12450000Y-7700000D03*
X-8350000Y12450000D03*
X1400000Y20600000D03*
X9050000Y12400000D03*
X15650000Y-12850000D03*
X-13850000Y-13850000D03*
X-14450000Y14450000D03*
X0Y26300000D03*
X-26300000Y0D03*
X0Y-26300000D03*
X26300000Y0D03*
X20600000Y-1400000D03*
X12400000Y-9000000D03*
X12500000Y8000000D03*
X-8250000Y-11650000D03*
X-1400000Y-20600000D03*
X7950000Y-12450000D03*
X-23500000Y17850000D03*
X-12650000Y-9000000D03*
X-8900000Y-12200000D03*
X-23250000Y-23250000D03*
X-22300000Y-23200000D03*
X-18750000Y22050000D03*
X-17100000Y-20250000D03*
X-21800000Y-14000000D03*
X-18250000Y23150000D03*
X26500000Y-5300000D03*
X7450000Y5550000D03*
X11350000Y8400000D03*
X3950000Y4150000D03*
X3350000Y4750000D03*
X4700000Y5250000D03*
X5250000Y5900000D03*
X4750000Y6550000D03*
X12250000Y13250000D03*
X18400000Y13500000D03*
X14250000Y11250000D03*
X4600000Y3550000D03*
X-24550000Y-23650000D03*
X-23100000Y-16850000D03*
X-18450000Y25350000D03*
X-21250000Y16850000D03*
X-15250000Y-20250000D03*
X-23750000Y-17500000D03*
X7850000Y-10550000D03*
X-23100000Y-14650000D03*
X5900000Y-5400000D03*
X27200000Y14650000D03*
D18*
X750000Y-27250000D02*
X150000Y-27850000D01*
X1150000Y-27250000D02*
X750000Y-27250000D01*
X1150000Y-27250000D02*
X9150000Y-27250000D01*
X27200000Y-1000000D02*
X27200000Y-800000D01*
X11430000Y-19070000D02*
X19050000Y-11450000D01*
X19050000Y-11450000D02*
X25700000Y-11450000D01*
X25700000Y-11450000D02*
X27200000Y-9950000D01*
X27200000Y-9950000D02*
X27200000Y-1000000D01*
X11430000Y-28575000D02*
X11430000Y-19070000D01*
X9150000Y-27250000D02*
X10105000Y-27250000D01*
X10105000Y-27250000D02*
X11430000Y-28575000D01*
X27850000Y-150000D02*
X27850000Y150000D01*
X27200000Y-800000D02*
X27850000Y-150000D01*
X27850000Y150000D02*
X27200000Y800000D01*
X27200000Y800000D02*
X27200000Y1200000D01*
X27200000Y8950000D02*
X27200000Y10055000D01*
X27200000Y1200000D02*
X27200000Y8950000D01*
X-9800000Y-27250000D02*
X-750000Y-27250000D01*
X-11400000Y-25650000D02*
X-9800000Y-27250000D01*
X-11400000Y-19100000D02*
X-11400000Y-25650000D01*
X-19070000Y-11430000D02*
X-11400000Y-19100000D01*
X-150000Y-27850000D02*
X-750000Y-27250000D01*
X150000Y-27850000D02*
X-150000Y-27850000D01*
X-28575000Y-11430000D02*
X-19070000Y-11430000D01*
X-27250000Y-750000D02*
X-27250000Y-1300000D01*
X-27850000Y-150000D02*
X-27250000Y-750000D01*
X-27850000Y150000D02*
X-27850000Y-150000D01*
X-27250000Y-8900000D02*
X-27250000Y-10105000D01*
X-27250000Y-1300000D02*
X-27250000Y-8900000D01*
X-27250000Y-10105000D02*
X-28575000Y-11430000D01*
X-27250000Y750000D02*
X-27850000Y150000D01*
X-27250000Y950000D02*
X-27250000Y750000D01*
X-11430000Y19070000D02*
X-19050000Y11450000D01*
X-19050000Y11450000D02*
X-25550000Y11450000D01*
X-25550000Y11450000D02*
X-27250000Y9750000D01*
X-27250000Y9750000D02*
X-27250000Y950000D01*
X-11430000Y28575000D02*
X-11430000Y19070000D01*
X-750000Y27250000D02*
X-1150000Y27250000D01*
X-150000Y27850000D02*
X-750000Y27250000D01*
X150000Y27850000D02*
X-150000Y27850000D01*
X-9000000Y27250000D02*
X-10105000Y27250000D01*
X-1150000Y27250000D02*
X-9000000Y27250000D01*
X-10105000Y27250000D02*
X-11430000Y28575000D01*
X750000Y27250000D02*
X150000Y27850000D01*
X27200000Y10055000D02*
X28575000Y11430000D01*
X1000000Y27250000D02*
X750000Y27250000D01*
X19070000Y11430000D02*
X11450000Y19050000D01*
X11450000Y19050000D02*
X11450000Y25600000D01*
X11450000Y25600000D02*
X9800000Y27250000D01*
X9800000Y27250000D02*
X1000000Y27250000D01*
X28575000Y11430000D02*
X19070000Y11430000D01*
X-20600000Y1400000D02*
X-19350000Y1400000D01*
X-12450000Y9000000D02*
X-13050000Y9000000D01*
X-13050000Y9000000D02*
X-19350000Y2700000D01*
X-19350000Y2700000D02*
X-19350000Y1400000D01*
X-19350000Y1400000D02*
X-19350000Y-1350000D01*
X-19350000Y-1350000D02*
X-13450000Y-7250000D01*
X-13450000Y-7250000D02*
X-12900000Y-7250000D01*
X-12900000Y-7250000D02*
X-12450000Y-7700000D01*
X-7800000Y13000000D02*
X-8350000Y12450000D01*
X-7350000Y13450000D02*
X-7800000Y13000000D01*
X-1450000Y19350000D02*
X-7350000Y13450000D01*
X1400000Y19350000D02*
X-1450000Y19350000D01*
X1400000Y20600000D02*
X1400000Y19350000D01*
X9050000Y12400000D02*
X9050000Y13000000D01*
X9050000Y13000000D02*
X2700000Y19350000D01*
X2700000Y19350000D02*
X1400000Y19350000D01*
X20600000Y-1400000D02*
X19400000Y-1400000D01*
X12400000Y-9000000D02*
X13050000Y-9000000D01*
X13050000Y-9000000D02*
X19400000Y-2650000D01*
X19400000Y-2650000D02*
X19400000Y-1400000D01*
X19400000Y-1400000D02*
X19400000Y1400000D01*
X19400000Y1400000D02*
X13450000Y7350000D01*
X13450000Y7350000D02*
X13150000Y7350000D01*
X13150000Y7350000D02*
X12500000Y8000000D01*
X-8250000Y-13800000D02*
X-2700000Y-19350000D01*
X-8250000Y-11650000D02*
X-8250000Y-13800000D01*
X-1400000Y-20600000D02*
X-1400000Y-19350000D01*
X1825000Y-18925000D02*
X1400000Y-19350000D01*
X1400000Y-19350000D02*
X-1400000Y-19350000D01*
X-1400000Y-19350000D02*
X-2700000Y-19350000D01*
X7950000Y-12450000D02*
X7450000Y-12950000D01*
X7450000Y-12950000D02*
X7300000Y-13100000D01*
X7300000Y-13100000D02*
X7300000Y-13450000D01*
X7300000Y-13450000D02*
X6900000Y-13850000D01*
X6900000Y-13850000D02*
X3350000Y-17400000D01*
X3350000Y-17400000D02*
X1825000Y-18925000D01*
D19*
G36*
X2764117Y5486277D02*
X2557808Y5280327D01*
X2415162Y4936799D01*
X2414838Y4564833D01*
X2556883Y4221057D01*
X2819673Y3957808D01*
X3058762Y3858529D01*
X3156883Y3621057D01*
X3419673Y3357808D01*
X3719117Y3233467D01*
X3806883Y3021057D01*
X4069673Y2757808D01*
X4413201Y2615162D01*
X4785167Y2614838D01*
X5128943Y2756883D01*
X5311386Y2939008D01*
X8250394Y0D01*
X5918326Y-2332068D01*
X5893117Y-2271057D01*
X5630327Y-2007808D01*
X5286799Y-1865162D01*
X4914833Y-1864838D01*
X4571057Y-2006883D01*
X4307808Y-2269673D01*
X4165162Y-2613201D01*
X4164838Y-2985167D01*
X4306883Y-3328943D01*
X4569673Y-3592192D01*
X4632227Y-3618167D01*
X4491681Y-3758713D01*
X4386799Y-3715162D01*
X4381999Y-3715158D01*
X4343117Y-3621057D01*
X4080327Y-3357808D01*
X3736799Y-3215162D01*
X3364833Y-3214838D01*
X3021057Y-3356883D01*
X2757808Y-3619673D01*
X2615162Y-3963201D01*
X2614838Y-4335167D01*
X2756883Y-4678943D01*
X3019673Y-4942192D01*
X3223546Y-5026848D01*
X0Y-8250394D01*
X-1817449Y-6432945D01*
X-1721057Y-6393117D01*
X-1457808Y-6130327D01*
X-1315162Y-5786799D01*
X-1314838Y-5414833D01*
X-1409733Y-5185167D01*
X564838Y-5185167D01*
X706883Y-5528943D01*
X969673Y-5792192D01*
X1313201Y-5934838D01*
X1685167Y-5935162D01*
X2028943Y-5793117D01*
X2292192Y-5530327D01*
X2434838Y-5186799D01*
X2435162Y-4814833D01*
X2293117Y-4471057D01*
X2030327Y-4207808D01*
X1686799Y-4065162D01*
X1314833Y-4064838D01*
X971057Y-4206883D01*
X707808Y-4469673D01*
X565162Y-4813201D01*
X564838Y-5185167D01*
X-1409733Y-5185167D01*
X-1456883Y-5071057D01*
X-1719673Y-4807808D01*
X-2063201Y-4665162D01*
X-2435167Y-4664838D01*
X-2704747Y-4776226D01*
X-2706883Y-4771057D01*
X-2969673Y-4507808D01*
X-3313201Y-4365162D01*
X-3685167Y-4364838D01*
X-3826966Y-4423428D01*
X-6565227Y-1685167D01*
X-5935162Y-1685167D01*
X-5793117Y-2028943D01*
X-5530327Y-2292192D01*
X-5186799Y-2434838D01*
X-4814833Y-2435162D01*
X-4471057Y-2293117D01*
X-4207808Y-2030327D01*
X-4065162Y-1686799D01*
X-4064838Y-1314833D01*
X-4206883Y-971057D01*
X-4469673Y-707808D01*
X-4813201Y-565162D01*
X-5185167Y-564838D01*
X-5528943Y-706883D01*
X-5792192Y-969673D01*
X-5934838Y-1313201D01*
X-5935162Y-1685167D01*
X-6565227Y-1685167D01*
X-8065227Y-185167D01*
X-935162Y-185167D01*
X-793117Y-528943D01*
X-530327Y-792192D01*
X-186799Y-934838D01*
X185167Y-935162D01*
X528943Y-793117D01*
X792192Y-530327D01*
X934838Y-186799D01*
X935162Y185167D01*
X793117Y528943D01*
X530327Y792192D01*
X186799Y934838D01*
X-185167Y935162D01*
X-528943Y793117D01*
X-792192Y530327D01*
X-934838Y186799D01*
X-935162Y-185167D01*
X-8065227Y-185167D01*
X-8250394Y0D01*
X-7285561Y964833D01*
X1714838Y964833D01*
X1856883Y621057D01*
X2119673Y357808D01*
X2463201Y215162D01*
X2835167Y214838D01*
X3178943Y356883D01*
X3442192Y619673D01*
X3584838Y963201D01*
X3585144Y1314833D01*
X4064838Y1314833D01*
X4206883Y971057D01*
X4469673Y707808D01*
X4813201Y565162D01*
X5185167Y564838D01*
X5528943Y706883D01*
X5792192Y969673D01*
X5934838Y1313201D01*
X5935162Y1685167D01*
X5793117Y2028943D01*
X5530327Y2292192D01*
X5186799Y2434838D01*
X4814833Y2435162D01*
X4471057Y2293117D01*
X4207808Y2030327D01*
X4065162Y1686799D01*
X4064838Y1314833D01*
X3585144Y1314833D01*
X3585162Y1335167D01*
X3443117Y1678943D01*
X3180327Y1942192D01*
X2836799Y2084838D01*
X2464833Y2085162D01*
X2121057Y1943117D01*
X1857808Y1680327D01*
X1715162Y1336799D01*
X1714838Y964833D01*
X-7285561Y964833D01*
X-5041681Y3208713D01*
X-4936799Y3165162D01*
X-4811296Y3165053D01*
X-4793117Y3121057D01*
X-4530327Y2857808D01*
X-4186799Y2715162D01*
X-3814833Y2714838D01*
X-3471057Y2856883D01*
X-3207808Y3119673D01*
X-3065162Y3463201D01*
X-3064838Y3835167D01*
X-3206883Y4178943D01*
X-3469673Y4442192D01*
X-3708876Y4541518D01*
X-3435561Y4814833D01*
X-2435162Y4814833D01*
X-2293117Y4471057D01*
X-2030327Y4207808D01*
X-1686799Y4065162D01*
X-1314833Y4064838D01*
X-971057Y4206883D01*
X-812832Y4364833D01*
X414838Y4364833D01*
X556883Y4021057D01*
X819673Y3757808D01*
X1163201Y3615162D01*
X1535167Y3614838D01*
X1878943Y3756883D01*
X2142192Y4019673D01*
X2284838Y4363201D01*
X2285162Y4735167D01*
X2143117Y5078943D01*
X1880327Y5342192D01*
X1536799Y5484838D01*
X1164833Y5485162D01*
X821057Y5343117D01*
X557808Y5080327D01*
X415162Y4736799D01*
X414838Y4364833D01*
X-812832Y4364833D01*
X-707808Y4469673D01*
X-565162Y4813201D01*
X-564838Y5185167D01*
X-706883Y5528943D01*
X-969673Y5792192D01*
X-1313201Y5934838D01*
X-1685167Y5935162D01*
X-2028943Y5793117D01*
X-2292192Y5530327D01*
X-2434838Y5186799D01*
X-2435162Y4814833D01*
X-3435561Y4814833D01*
X0Y8250394D01*
X2764117Y5486277D01*
X2764117Y5486277D01*
G37*
X2764117Y5486277D02*
X2557808Y5280327D01*
X2415162Y4936799D01*
X2414838Y4564833D01*
X2556883Y4221057D01*
X2819673Y3957808D01*
X3058762Y3858529D01*
X3156883Y3621057D01*
X3419673Y3357808D01*
X3719117Y3233467D01*
X3806883Y3021057D01*
X4069673Y2757808D01*
X4413201Y2615162D01*
X4785167Y2614838D01*
X5128943Y2756883D01*
X5311386Y2939008D01*
X8250394Y0D01*
X5918326Y-2332068D01*
X5893117Y-2271057D01*
X5630327Y-2007808D01*
X5286799Y-1865162D01*
X4914833Y-1864838D01*
X4571057Y-2006883D01*
X4307808Y-2269673D01*
X4165162Y-2613201D01*
X4164838Y-2985167D01*
X4306883Y-3328943D01*
X4569673Y-3592192D01*
X4632227Y-3618167D01*
X4491681Y-3758713D01*
X4386799Y-3715162D01*
X4381999Y-3715158D01*
X4343117Y-3621057D01*
X4080327Y-3357808D01*
X3736799Y-3215162D01*
X3364833Y-3214838D01*
X3021057Y-3356883D01*
X2757808Y-3619673D01*
X2615162Y-3963201D01*
X2614838Y-4335167D01*
X2756883Y-4678943D01*
X3019673Y-4942192D01*
X3223546Y-5026848D01*
X0Y-8250394D01*
X-1817449Y-6432945D01*
X-1721057Y-6393117D01*
X-1457808Y-6130327D01*
X-1315162Y-5786799D01*
X-1314838Y-5414833D01*
X-1409733Y-5185167D01*
X564838Y-5185167D01*
X706883Y-5528943D01*
X969673Y-5792192D01*
X1313201Y-5934838D01*
X1685167Y-5935162D01*
X2028943Y-5793117D01*
X2292192Y-5530327D01*
X2434838Y-5186799D01*
X2435162Y-4814833D01*
X2293117Y-4471057D01*
X2030327Y-4207808D01*
X1686799Y-4065162D01*
X1314833Y-4064838D01*
X971057Y-4206883D01*
X707808Y-4469673D01*
X565162Y-4813201D01*
X564838Y-5185167D01*
X-1409733Y-5185167D01*
X-1456883Y-5071057D01*
X-1719673Y-4807808D01*
X-2063201Y-4665162D01*
X-2435167Y-4664838D01*
X-2704747Y-4776226D01*
X-2706883Y-4771057D01*
X-2969673Y-4507808D01*
X-3313201Y-4365162D01*
X-3685167Y-4364838D01*
X-3826966Y-4423428D01*
X-6565227Y-1685167D01*
X-5935162Y-1685167D01*
X-5793117Y-2028943D01*
X-5530327Y-2292192D01*
X-5186799Y-2434838D01*
X-4814833Y-2435162D01*
X-4471057Y-2293117D01*
X-4207808Y-2030327D01*
X-4065162Y-1686799D01*
X-4064838Y-1314833D01*
X-4206883Y-971057D01*
X-4469673Y-707808D01*
X-4813201Y-565162D01*
X-5185167Y-564838D01*
X-5528943Y-706883D01*
X-5792192Y-969673D01*
X-5934838Y-1313201D01*
X-5935162Y-1685167D01*
X-6565227Y-1685167D01*
X-8065227Y-185167D01*
X-935162Y-185167D01*
X-793117Y-528943D01*
X-530327Y-792192D01*
X-186799Y-934838D01*
X185167Y-935162D01*
X528943Y-793117D01*
X792192Y-530327D01*
X934838Y-186799D01*
X935162Y185167D01*
X793117Y528943D01*
X530327Y792192D01*
X186799Y934838D01*
X-185167Y935162D01*
X-528943Y793117D01*
X-792192Y530327D01*
X-934838Y186799D01*
X-935162Y-185167D01*
X-8065227Y-185167D01*
X-8250394Y0D01*
X-7285561Y964833D01*
X1714838Y964833D01*
X1856883Y621057D01*
X2119673Y357808D01*
X2463201Y215162D01*
X2835167Y214838D01*
X3178943Y356883D01*
X3442192Y619673D01*
X3584838Y963201D01*
X3585144Y1314833D01*
X4064838Y1314833D01*
X4206883Y971057D01*
X4469673Y707808D01*
X4813201Y565162D01*
X5185167Y564838D01*
X5528943Y706883D01*
X5792192Y969673D01*
X5934838Y1313201D01*
X5935162Y1685167D01*
X5793117Y2028943D01*
X5530327Y2292192D01*
X5186799Y2434838D01*
X4814833Y2435162D01*
X4471057Y2293117D01*
X4207808Y2030327D01*
X4065162Y1686799D01*
X4064838Y1314833D01*
X3585144Y1314833D01*
X3585162Y1335167D01*
X3443117Y1678943D01*
X3180327Y1942192D01*
X2836799Y2084838D01*
X2464833Y2085162D01*
X2121057Y1943117D01*
X1857808Y1680327D01*
X1715162Y1336799D01*
X1714838Y964833D01*
X-7285561Y964833D01*
X-5041681Y3208713D01*
X-4936799Y3165162D01*
X-4811296Y3165053D01*
X-4793117Y3121057D01*
X-4530327Y2857808D01*
X-4186799Y2715162D01*
X-3814833Y2714838D01*
X-3471057Y2856883D01*
X-3207808Y3119673D01*
X-3065162Y3463201D01*
X-3064838Y3835167D01*
X-3206883Y4178943D01*
X-3469673Y4442192D01*
X-3708876Y4541518D01*
X-3435561Y4814833D01*
X-2435162Y4814833D01*
X-2293117Y4471057D01*
X-2030327Y4207808D01*
X-1686799Y4065162D01*
X-1314833Y4064838D01*
X-971057Y4206883D01*
X-812832Y4364833D01*
X414838Y4364833D01*
X556883Y4021057D01*
X819673Y3757808D01*
X1163201Y3615162D01*
X1535167Y3614838D01*
X1878943Y3756883D01*
X2142192Y4019673D01*
X2284838Y4363201D01*
X2285162Y4735167D01*
X2143117Y5078943D01*
X1880327Y5342192D01*
X1536799Y5484838D01*
X1164833Y5485162D01*
X821057Y5343117D01*
X557808Y5080327D01*
X415162Y4736799D01*
X414838Y4364833D01*
X-812832Y4364833D01*
X-707808Y4469673D01*
X-565162Y4813201D01*
X-564838Y5185167D01*
X-706883Y5528943D01*
X-969673Y5792192D01*
X-1313201Y5934838D01*
X-1685167Y5935162D01*
X-2028943Y5793117D01*
X-2292192Y5530327D01*
X-2434838Y5186799D01*
X-2435162Y4814833D01*
X-3435561Y4814833D01*
X0Y8250394D01*
X2764117Y5486277D01*
G36*
X6364917Y12455477D02*
X6364838Y12364833D01*
X6506883Y12021057D01*
X6537439Y11990448D01*
X6515162Y11936799D01*
X6514838Y11564833D01*
X6656883Y11221057D01*
X6919673Y10957808D01*
X7263201Y10815162D01*
X7635167Y10814838D01*
X7897261Y10923133D01*
X10415004Y8405390D01*
X10414838Y8214833D01*
X10556883Y7871057D01*
X10819673Y7607808D01*
X11163201Y7465162D01*
X11355399Y7464995D01*
X11615047Y7205347D01*
X11614838Y6964833D01*
X11714648Y6723274D01*
X11686799Y6734838D01*
X11314833Y6735162D01*
X10971057Y6593117D01*
X10707808Y6330327D01*
X10565162Y5986799D01*
X10564838Y5614833D01*
X10706883Y5271057D01*
X10969673Y5007808D01*
X11313201Y4865162D01*
X11685167Y4864838D01*
X12028943Y5006883D01*
X12292192Y5269673D01*
X12434838Y5613201D01*
X12435162Y5985167D01*
X12335352Y6226726D01*
X12363201Y6215162D01*
X12388668Y6215140D01*
X12406883Y6171057D01*
X12669673Y5907808D01*
X13013201Y5765162D01*
X13055269Y5765125D01*
X18640000Y180394D01*
X18640000Y-180394D01*
X12455477Y-6364917D01*
X12364833Y-6364838D01*
X12021057Y-6506883D01*
X11990448Y-6537439D01*
X11936799Y-6515162D01*
X11564833Y-6514838D01*
X11534846Y-6527228D01*
X11535162Y-6164833D01*
X11393117Y-5821057D01*
X11130327Y-5557808D01*
X10786799Y-5415162D01*
X10414833Y-5414838D01*
X10071057Y-5556883D01*
X9807808Y-5819673D01*
X9665162Y-6163201D01*
X9664838Y-6535167D01*
X9806883Y-6878943D01*
X10069673Y-7142192D01*
X10413201Y-7284838D01*
X10785167Y-7285162D01*
X10815154Y-7272772D01*
X10814838Y-7635167D01*
X10923133Y-7897261D01*
X8688793Y-10131601D01*
X8643117Y-10021057D01*
X8380327Y-9757808D01*
X8036799Y-9615162D01*
X7664833Y-9614838D01*
X7321057Y-9756883D01*
X7057808Y-10019673D01*
X6915162Y-10363201D01*
X6914838Y-10735167D01*
X7056883Y-11078943D01*
X7319673Y-11342192D01*
X7431689Y-11388705D01*
X7261802Y-11558592D01*
X7036799Y-11465162D01*
X6681665Y-11464853D01*
X6734838Y-11336799D01*
X6735162Y-10964833D01*
X6593117Y-10621057D01*
X6330327Y-10357808D01*
X5986799Y-10215162D01*
X5614833Y-10214838D01*
X5271057Y-10356883D01*
X5007808Y-10619673D01*
X4865162Y-10963201D01*
X4864838Y-11335167D01*
X5006883Y-11678943D01*
X5269673Y-11942192D01*
X5613201Y-12084838D01*
X5968335Y-12085147D01*
X5915162Y-12213201D01*
X5914838Y-12585167D01*
X5922905Y-12604690D01*
X5857808Y-12669673D01*
X5715162Y-13013201D01*
X5715082Y-13105312D01*
X230394Y-18590000D01*
X-230394Y-18590000D01*
X-2716477Y-16103917D01*
X-1853912Y-16103917D01*
X-1711867Y-16447693D01*
X-1449077Y-16710942D01*
X-1105549Y-16853588D01*
X-733583Y-16853912D01*
X-389807Y-16711867D01*
X-126558Y-16449077D01*
X136Y-16143966D01*
X125633Y-16447693D01*
X388423Y-16710942D01*
X731951Y-16853588D01*
X1103917Y-16853912D01*
X1447693Y-16711867D01*
X1710942Y-16449077D01*
X1853588Y-16105549D01*
X1853912Y-15733583D01*
X1711867Y-15389807D01*
X1449077Y-15126558D01*
X1105549Y-14983912D01*
X733583Y-14983588D01*
X389807Y-15125633D01*
X126558Y-15388423D01*
X-136Y-15693534D01*
X-125633Y-15389807D01*
X-388423Y-15126558D01*
X-731951Y-14983912D01*
X-1103917Y-14983588D01*
X-1447693Y-15125633D01*
X-1710942Y-15388423D01*
X-1853588Y-15731951D01*
X-1853912Y-16103917D01*
X-2716477Y-16103917D01*
X-6364917Y-12455477D01*
X-6364838Y-12364833D01*
X-6506883Y-12021057D01*
X-6537439Y-11990448D01*
X-6515162Y-11936799D01*
X-6514838Y-11564833D01*
X-6656883Y-11221057D01*
X-6919673Y-10957808D01*
X-7263201Y-10815162D01*
X-7635167Y-10814838D01*
X-7729394Y-10853772D01*
X-8063201Y-10715162D01*
X-8105269Y-10715125D01*
X-11602603Y-7217791D01*
X-11465162Y-6886799D01*
X-11465159Y-6883578D01*
X-11343117Y-7178943D01*
X-11080327Y-7442192D01*
X-10736799Y-7584838D01*
X-10364833Y-7585162D01*
X-10021057Y-7443117D01*
X-9757808Y-7180327D01*
X-9615162Y-6836799D01*
X-9614838Y-6464833D01*
X-9756883Y-6121057D01*
X-10019673Y-5857808D01*
X-10363201Y-5715162D01*
X-10735167Y-5714838D01*
X-11078943Y-5856883D01*
X-11342192Y-6119673D01*
X-11484838Y-6463201D01*
X-11484841Y-6466422D01*
X-11606883Y-6171057D01*
X-11869673Y-5907808D01*
X-12213201Y-5765162D01*
X-12585167Y-5764838D01*
X-12679394Y-5803772D01*
X-13013201Y-5665162D01*
X-13155356Y-5665038D01*
X-18590000Y-230394D01*
X-18590000Y230394D01*
X-18086811Y733583D01*
X-16853912Y733583D01*
X-16711867Y389807D01*
X-16449077Y126558D01*
X-16143966Y-136D01*
X-16447693Y-125633D01*
X-16710942Y-388423D01*
X-16853588Y-731951D01*
X-16853912Y-1103917D01*
X-16711867Y-1447693D01*
X-16449077Y-1710942D01*
X-16105549Y-1853588D01*
X-15733583Y-1853912D01*
X-15389807Y-1711867D01*
X-15126558Y-1449077D01*
X-14983912Y-1105549D01*
X-14983588Y-733583D01*
X-15125633Y-389807D01*
X-15388423Y-126558D01*
X-15688982Y-1754D01*
X-11626988Y-1754D01*
X-11616300Y-51022D01*
X-11589803Y-89803D01*
X-7785127Y-3894479D01*
X-7785162Y-3935167D01*
X-7675641Y-4200228D01*
X-7784838Y-4463201D01*
X-7785162Y-4835167D01*
X-7643117Y-5178943D01*
X-7380327Y-5442192D01*
X-7036799Y-5584838D01*
X-6664833Y-5585162D01*
X-6321057Y-5443117D01*
X-6278736Y-5400870D01*
X-5956113Y-5723493D01*
X-6278943Y-5856883D01*
X-6542192Y-6119673D01*
X-6684838Y-6463201D01*
X-6685162Y-6835167D01*
X-6543117Y-7178943D01*
X-6280327Y-7442192D01*
X-5936799Y-7584838D01*
X-5564833Y-7585162D01*
X-5221057Y-7443117D01*
X-4957808Y-7180327D01*
X-4823273Y-6856333D01*
X-3306113Y-8373493D01*
X-3562162Y-8479290D01*
X-3606883Y-8371057D01*
X-3869673Y-8107808D01*
X-4213201Y-7965162D01*
X-4585167Y-7964838D01*
X-4928943Y-8106883D01*
X-5192192Y-8369673D01*
X-5334838Y-8713201D01*
X-5335162Y-9085167D01*
X-5193117Y-9428943D01*
X-4930327Y-9692192D01*
X-4586799Y-9834838D01*
X-4214833Y-9835162D01*
X-3937838Y-9720710D01*
X-3893117Y-9828943D01*
X-3630327Y-10092192D01*
X-3286799Y-10234838D01*
X-2914833Y-10235162D01*
X-2571057Y-10093117D01*
X-2307808Y-9830327D01*
X-2173273Y-9506333D01*
X-89803Y-11589803D01*
X-47789Y-11617666D01*
X1754Y-11626988D01*
X51022Y-11616300D01*
X89803Y-11589803D01*
X5452868Y-6226738D01*
X5713201Y-6334838D01*
X6085167Y-6335162D01*
X6428943Y-6193117D01*
X6692192Y-5930327D01*
X6834838Y-5586799D01*
X6835162Y-5214833D01*
X6726867Y-4952739D01*
X7235289Y-4444317D01*
X7165162Y-4613201D01*
X7164838Y-4985167D01*
X7306883Y-5328943D01*
X7569673Y-5592192D01*
X7913201Y-5734838D01*
X8285167Y-5735162D01*
X8628943Y-5593117D01*
X8892192Y-5330327D01*
X9034838Y-4986799D01*
X9035057Y-4735118D01*
X9085167Y-4735162D01*
X9428943Y-4593117D01*
X9692192Y-4330327D01*
X9834838Y-3986799D01*
X9835162Y-3614833D01*
X9785170Y-3493842D01*
X10028943Y-3393117D01*
X10292192Y-3130327D01*
X10434838Y-2786799D01*
X10435162Y-2414833D01*
X10293117Y-2071057D01*
X10030327Y-1807808D01*
X9918311Y-1761295D01*
X11589803Y-89803D01*
X11617666Y-47789D01*
X11626988Y1754D01*
X11616300Y51022D01*
X11589803Y89803D01*
X10946023Y733583D01*
X14983588Y733583D01*
X15125633Y389807D01*
X15388423Y126558D01*
X15693534Y-136D01*
X15389807Y-125633D01*
X15126558Y-388423D01*
X14983912Y-731951D01*
X14983588Y-1103917D01*
X15125633Y-1447693D01*
X15388423Y-1710942D01*
X15731951Y-1853588D01*
X16103917Y-1853912D01*
X16447693Y-1711867D01*
X16710942Y-1449077D01*
X16853588Y-1105549D01*
X16853912Y-733583D01*
X16711867Y-389807D01*
X16449077Y-126558D01*
X16143966Y136D01*
X16447693Y125633D01*
X16710942Y388423D01*
X16853588Y731951D01*
X16853912Y1103917D01*
X16711867Y1447693D01*
X16449077Y1710942D01*
X16105549Y1853588D01*
X15733583Y1853912D01*
X15389807Y1711867D01*
X15126558Y1449077D01*
X14983912Y1105549D01*
X14983588Y733583D01*
X10946023Y733583D01*
X8751027Y2928579D01*
X8792192Y2969673D01*
X8934838Y3313201D01*
X8935162Y3685167D01*
X8793117Y4028943D01*
X8530327Y4292192D01*
X8186799Y4434838D01*
X7935118Y4435057D01*
X7935162Y4485167D01*
X7845648Y4701807D01*
X7978943Y4756883D01*
X8242192Y5019673D01*
X8384838Y5363201D01*
X8385162Y5735167D01*
X8243117Y6078943D01*
X7980327Y6342192D01*
X7636799Y6484838D01*
X7264833Y6485162D01*
X6921057Y6343117D01*
X6657808Y6080327D01*
X6515162Y5736799D01*
X6514838Y5364833D01*
X6604352Y5148193D01*
X6552739Y5126867D01*
X6120749Y5558857D01*
X6184838Y5713201D01*
X6185162Y6085167D01*
X6043117Y6428943D01*
X5780327Y6692192D01*
X5685159Y6731709D01*
X5685162Y6735167D01*
X5543117Y7078943D01*
X5280327Y7342192D01*
X5205529Y7373251D01*
X5528943Y7506883D01*
X5792192Y7769673D01*
X5934838Y8113201D01*
X5935162Y8485167D01*
X5793117Y8828943D01*
X5530327Y9092192D01*
X5186799Y9234838D01*
X4814833Y9235162D01*
X4502544Y9106127D01*
X4493117Y9128943D01*
X4230327Y9392192D01*
X3886799Y9534838D01*
X3684988Y9535014D01*
X3685162Y9735167D01*
X3543117Y10078943D01*
X3280327Y10342192D01*
X2936799Y10484838D01*
X2564833Y10485162D01*
X2221057Y10343117D01*
X1957808Y10080327D01*
X1852614Y9826992D01*
X89803Y11589803D01*
X47789Y11617666D01*
X-1754Y11626988D01*
X-51022Y11616300D01*
X-89803Y11589803D01*
X-4294523Y7385083D01*
X-4385167Y7385162D01*
X-4564811Y7310935D01*
X-4863201Y7434838D01*
X-5235167Y7435162D01*
X-5578943Y7293117D01*
X-5842192Y7030327D01*
X-5970800Y6720606D01*
X-6056883Y6928943D01*
X-6319673Y7192192D01*
X-6663201Y7334838D01*
X-7035167Y7335162D01*
X-7378943Y7193117D01*
X-7642192Y6930327D01*
X-7784838Y6586799D01*
X-7785162Y6214833D01*
X-7643117Y5871057D01*
X-7380327Y5607808D01*
X-7036799Y5465162D01*
X-6664833Y5464838D01*
X-6321057Y5606883D01*
X-6057808Y5869673D01*
X-5929200Y6179394D01*
X-5843117Y5971057D01*
X-5775892Y5903714D01*
X-8664899Y3014707D01*
X-8664838Y3085167D01*
X-8806883Y3428943D01*
X-9069673Y3692192D01*
X-9413201Y3834838D01*
X-9785167Y3835162D01*
X-10128943Y3693117D01*
X-10392192Y3430327D01*
X-10534838Y3086799D01*
X-10535162Y2714833D01*
X-10393117Y2371057D01*
X-10130327Y2107808D01*
X-9786799Y1965162D01*
X-9714507Y1965099D01*
X-11589803Y89803D01*
X-11617666Y47789D01*
X-11626988Y-1754D01*
X-15688982Y-1754D01*
X-15693534Y136D01*
X-15389807Y125633D01*
X-15126558Y388423D01*
X-14983912Y731951D01*
X-14983588Y1103917D01*
X-15125633Y1447693D01*
X-15388423Y1710942D01*
X-15731951Y1853588D01*
X-16103917Y1853912D01*
X-16447693Y1711867D01*
X-16710942Y1449077D01*
X-16853588Y1105549D01*
X-16853912Y733583D01*
X-18086811Y733583D01*
X-14355561Y4464833D01*
X-9435162Y4464833D01*
X-9293117Y4121057D01*
X-9030327Y3857808D01*
X-8686799Y3715162D01*
X-8314833Y3714838D01*
X-7971057Y3856883D01*
X-7707808Y4119673D01*
X-7565162Y4463201D01*
X-7564838Y4835167D01*
X-7706883Y5178943D01*
X-7969673Y5442192D01*
X-8313201Y5584838D01*
X-8685167Y5585162D01*
X-9028943Y5443117D01*
X-9292192Y5180327D01*
X-9434838Y4836799D01*
X-9435162Y4464833D01*
X-14355561Y4464833D01*
X-12455477Y6364917D01*
X-12364833Y6364838D01*
X-12029185Y6503524D01*
X-11936799Y6465162D01*
X-11564833Y6464838D01*
X-11221057Y6606883D01*
X-10957808Y6869673D01*
X-10815162Y7213201D01*
X-10814838Y7585167D01*
X-10833765Y7630973D01*
X-10771057Y7656883D01*
X-10507808Y7919673D01*
X-10489056Y7964833D01*
X-9785162Y7964833D01*
X-9643117Y7621057D01*
X-9380327Y7357808D01*
X-9036799Y7215162D01*
X-8664833Y7214838D01*
X-8321057Y7356883D01*
X-8057808Y7619673D01*
X-7915162Y7963201D01*
X-7914838Y8335167D01*
X-8056883Y8678943D01*
X-8319673Y8942192D01*
X-8663201Y9084838D01*
X-9035167Y9085162D01*
X-9378943Y8943117D01*
X-9642192Y8680327D01*
X-9784838Y8336799D01*
X-9785162Y7964833D01*
X-10489056Y7964833D01*
X-10365162Y8263201D01*
X-10364995Y8455399D01*
X-7355390Y11465004D01*
X-7164833Y11464838D01*
X-6821057Y11606883D01*
X-6557808Y11869673D01*
X-6415162Y12213201D01*
X-6415081Y12306055D01*
X-6171057Y12406883D01*
X-5907808Y12669673D01*
X-5765162Y13013201D01*
X-5765125Y13055269D01*
X-3086811Y15733583D01*
X-1853912Y15733583D01*
X-1711867Y15389807D01*
X-1449077Y15126558D01*
X-1105549Y14983912D01*
X-733583Y14983588D01*
X-389807Y15125633D01*
X-126558Y15388423D01*
X136Y15693534D01*
X125633Y15389807D01*
X388423Y15126558D01*
X731951Y14983912D01*
X1103917Y14983588D01*
X1447693Y15125633D01*
X1710942Y15388423D01*
X1853588Y15731951D01*
X1853912Y16103917D01*
X1711867Y16447693D01*
X1449077Y16710942D01*
X1105549Y16853588D01*
X733583Y16853912D01*
X389807Y16711867D01*
X126558Y16449077D01*
X-136Y16143966D01*
X-125633Y16447693D01*
X-388423Y16710942D01*
X-731951Y16853588D01*
X-1103917Y16853912D01*
X-1447693Y16711867D01*
X-1710942Y16449077D01*
X-1853588Y16105549D01*
X-1853912Y15733583D01*
X-3086811Y15733583D01*
X-230394Y18590000D01*
X230394Y18590000D01*
X6364917Y12455477D01*
X6364917Y12455477D01*
G37*
X6364917Y12455477D02*
X6364838Y12364833D01*
X6506883Y12021057D01*
X6537439Y11990448D01*
X6515162Y11936799D01*
X6514838Y11564833D01*
X6656883Y11221057D01*
X6919673Y10957808D01*
X7263201Y10815162D01*
X7635167Y10814838D01*
X7897261Y10923133D01*
X10415004Y8405390D01*
X10414838Y8214833D01*
X10556883Y7871057D01*
X10819673Y7607808D01*
X11163201Y7465162D01*
X11355399Y7464995D01*
X11615047Y7205347D01*
X11614838Y6964833D01*
X11714648Y6723274D01*
X11686799Y6734838D01*
X11314833Y6735162D01*
X10971057Y6593117D01*
X10707808Y6330327D01*
X10565162Y5986799D01*
X10564838Y5614833D01*
X10706883Y5271057D01*
X10969673Y5007808D01*
X11313201Y4865162D01*
X11685167Y4864838D01*
X12028943Y5006883D01*
X12292192Y5269673D01*
X12434838Y5613201D01*
X12435162Y5985167D01*
X12335352Y6226726D01*
X12363201Y6215162D01*
X12388668Y6215140D01*
X12406883Y6171057D01*
X12669673Y5907808D01*
X13013201Y5765162D01*
X13055269Y5765125D01*
X18640000Y180394D01*
X18640000Y-180394D01*
X12455477Y-6364917D01*
X12364833Y-6364838D01*
X12021057Y-6506883D01*
X11990448Y-6537439D01*
X11936799Y-6515162D01*
X11564833Y-6514838D01*
X11534846Y-6527228D01*
X11535162Y-6164833D01*
X11393117Y-5821057D01*
X11130327Y-5557808D01*
X10786799Y-5415162D01*
X10414833Y-5414838D01*
X10071057Y-5556883D01*
X9807808Y-5819673D01*
X9665162Y-6163201D01*
X9664838Y-6535167D01*
X9806883Y-6878943D01*
X10069673Y-7142192D01*
X10413201Y-7284838D01*
X10785167Y-7285162D01*
X10815154Y-7272772D01*
X10814838Y-7635167D01*
X10923133Y-7897261D01*
X8688793Y-10131601D01*
X8643117Y-10021057D01*
X8380327Y-9757808D01*
X8036799Y-9615162D01*
X7664833Y-9614838D01*
X7321057Y-9756883D01*
X7057808Y-10019673D01*
X6915162Y-10363201D01*
X6914838Y-10735167D01*
X7056883Y-11078943D01*
X7319673Y-11342192D01*
X7431689Y-11388705D01*
X7261802Y-11558592D01*
X7036799Y-11465162D01*
X6681665Y-11464853D01*
X6734838Y-11336799D01*
X6735162Y-10964833D01*
X6593117Y-10621057D01*
X6330327Y-10357808D01*
X5986799Y-10215162D01*
X5614833Y-10214838D01*
X5271057Y-10356883D01*
X5007808Y-10619673D01*
X4865162Y-10963201D01*
X4864838Y-11335167D01*
X5006883Y-11678943D01*
X5269673Y-11942192D01*
X5613201Y-12084838D01*
X5968335Y-12085147D01*
X5915162Y-12213201D01*
X5914838Y-12585167D01*
X5922905Y-12604690D01*
X5857808Y-12669673D01*
X5715162Y-13013201D01*
X5715082Y-13105312D01*
X230394Y-18590000D01*
X-230394Y-18590000D01*
X-2716477Y-16103917D01*
X-1853912Y-16103917D01*
X-1711867Y-16447693D01*
X-1449077Y-16710942D01*
X-1105549Y-16853588D01*
X-733583Y-16853912D01*
X-389807Y-16711867D01*
X-126558Y-16449077D01*
X136Y-16143966D01*
X125633Y-16447693D01*
X388423Y-16710942D01*
X731951Y-16853588D01*
X1103917Y-16853912D01*
X1447693Y-16711867D01*
X1710942Y-16449077D01*
X1853588Y-16105549D01*
X1853912Y-15733583D01*
X1711867Y-15389807D01*
X1449077Y-15126558D01*
X1105549Y-14983912D01*
X733583Y-14983588D01*
X389807Y-15125633D01*
X126558Y-15388423D01*
X-136Y-15693534D01*
X-125633Y-15389807D01*
X-388423Y-15126558D01*
X-731951Y-14983912D01*
X-1103917Y-14983588D01*
X-1447693Y-15125633D01*
X-1710942Y-15388423D01*
X-1853588Y-15731951D01*
X-1853912Y-16103917D01*
X-2716477Y-16103917D01*
X-6364917Y-12455477D01*
X-6364838Y-12364833D01*
X-6506883Y-12021057D01*
X-6537439Y-11990448D01*
X-6515162Y-11936799D01*
X-6514838Y-11564833D01*
X-6656883Y-11221057D01*
X-6919673Y-10957808D01*
X-7263201Y-10815162D01*
X-7635167Y-10814838D01*
X-7729394Y-10853772D01*
X-8063201Y-10715162D01*
X-8105269Y-10715125D01*
X-11602603Y-7217791D01*
X-11465162Y-6886799D01*
X-11465159Y-6883578D01*
X-11343117Y-7178943D01*
X-11080327Y-7442192D01*
X-10736799Y-7584838D01*
X-10364833Y-7585162D01*
X-10021057Y-7443117D01*
X-9757808Y-7180327D01*
X-9615162Y-6836799D01*
X-9614838Y-6464833D01*
X-9756883Y-6121057D01*
X-10019673Y-5857808D01*
X-10363201Y-5715162D01*
X-10735167Y-5714838D01*
X-11078943Y-5856883D01*
X-11342192Y-6119673D01*
X-11484838Y-6463201D01*
X-11484841Y-6466422D01*
X-11606883Y-6171057D01*
X-11869673Y-5907808D01*
X-12213201Y-5765162D01*
X-12585167Y-5764838D01*
X-12679394Y-5803772D01*
X-13013201Y-5665162D01*
X-13155356Y-5665038D01*
X-18590000Y-230394D01*
X-18590000Y230394D01*
X-18086811Y733583D01*
X-16853912Y733583D01*
X-16711867Y389807D01*
X-16449077Y126558D01*
X-16143966Y-136D01*
X-16447693Y-125633D01*
X-16710942Y-388423D01*
X-16853588Y-731951D01*
X-16853912Y-1103917D01*
X-16711867Y-1447693D01*
X-16449077Y-1710942D01*
X-16105549Y-1853588D01*
X-15733583Y-1853912D01*
X-15389807Y-1711867D01*
X-15126558Y-1449077D01*
X-14983912Y-1105549D01*
X-14983588Y-733583D01*
X-15125633Y-389807D01*
X-15388423Y-126558D01*
X-15688982Y-1754D01*
X-11626988Y-1754D01*
X-11616300Y-51022D01*
X-11589803Y-89803D01*
X-7785127Y-3894479D01*
X-7785162Y-3935167D01*
X-7675641Y-4200228D01*
X-7784838Y-4463201D01*
X-7785162Y-4835167D01*
X-7643117Y-5178943D01*
X-7380327Y-5442192D01*
X-7036799Y-5584838D01*
X-6664833Y-5585162D01*
X-6321057Y-5443117D01*
X-6278736Y-5400870D01*
X-5956113Y-5723493D01*
X-6278943Y-5856883D01*
X-6542192Y-6119673D01*
X-6684838Y-6463201D01*
X-6685162Y-6835167D01*
X-6543117Y-7178943D01*
X-6280327Y-7442192D01*
X-5936799Y-7584838D01*
X-5564833Y-7585162D01*
X-5221057Y-7443117D01*
X-4957808Y-7180327D01*
X-4823273Y-6856333D01*
X-3306113Y-8373493D01*
X-3562162Y-8479290D01*
X-3606883Y-8371057D01*
X-3869673Y-8107808D01*
X-4213201Y-7965162D01*
X-4585167Y-7964838D01*
X-4928943Y-8106883D01*
X-5192192Y-8369673D01*
X-5334838Y-8713201D01*
X-5335162Y-9085167D01*
X-5193117Y-9428943D01*
X-4930327Y-9692192D01*
X-4586799Y-9834838D01*
X-4214833Y-9835162D01*
X-3937838Y-9720710D01*
X-3893117Y-9828943D01*
X-3630327Y-10092192D01*
X-3286799Y-10234838D01*
X-2914833Y-10235162D01*
X-2571057Y-10093117D01*
X-2307808Y-9830327D01*
X-2173273Y-9506333D01*
X-89803Y-11589803D01*
X-47789Y-11617666D01*
X1754Y-11626988D01*
X51022Y-11616300D01*
X89803Y-11589803D01*
X5452868Y-6226738D01*
X5713201Y-6334838D01*
X6085167Y-6335162D01*
X6428943Y-6193117D01*
X6692192Y-5930327D01*
X6834838Y-5586799D01*
X6835162Y-5214833D01*
X6726867Y-4952739D01*
X7235289Y-4444317D01*
X7165162Y-4613201D01*
X7164838Y-4985167D01*
X7306883Y-5328943D01*
X7569673Y-5592192D01*
X7913201Y-5734838D01*
X8285167Y-5735162D01*
X8628943Y-5593117D01*
X8892192Y-5330327D01*
X9034838Y-4986799D01*
X9035057Y-4735118D01*
X9085167Y-4735162D01*
X9428943Y-4593117D01*
X9692192Y-4330327D01*
X9834838Y-3986799D01*
X9835162Y-3614833D01*
X9785170Y-3493842D01*
X10028943Y-3393117D01*
X10292192Y-3130327D01*
X10434838Y-2786799D01*
X10435162Y-2414833D01*
X10293117Y-2071057D01*
X10030327Y-1807808D01*
X9918311Y-1761295D01*
X11589803Y-89803D01*
X11617666Y-47789D01*
X11626988Y1754D01*
X11616300Y51022D01*
X11589803Y89803D01*
X10946023Y733583D01*
X14983588Y733583D01*
X15125633Y389807D01*
X15388423Y126558D01*
X15693534Y-136D01*
X15389807Y-125633D01*
X15126558Y-388423D01*
X14983912Y-731951D01*
X14983588Y-1103917D01*
X15125633Y-1447693D01*
X15388423Y-1710942D01*
X15731951Y-1853588D01*
X16103917Y-1853912D01*
X16447693Y-1711867D01*
X16710942Y-1449077D01*
X16853588Y-1105549D01*
X16853912Y-733583D01*
X16711867Y-389807D01*
X16449077Y-126558D01*
X16143966Y136D01*
X16447693Y125633D01*
X16710942Y388423D01*
X16853588Y731951D01*
X16853912Y1103917D01*
X16711867Y1447693D01*
X16449077Y1710942D01*
X16105549Y1853588D01*
X15733583Y1853912D01*
X15389807Y1711867D01*
X15126558Y1449077D01*
X14983912Y1105549D01*
X14983588Y733583D01*
X10946023Y733583D01*
X8751027Y2928579D01*
X8792192Y2969673D01*
X8934838Y3313201D01*
X8935162Y3685167D01*
X8793117Y4028943D01*
X8530327Y4292192D01*
X8186799Y4434838D01*
X7935118Y4435057D01*
X7935162Y4485167D01*
X7845648Y4701807D01*
X7978943Y4756883D01*
X8242192Y5019673D01*
X8384838Y5363201D01*
X8385162Y5735167D01*
X8243117Y6078943D01*
X7980327Y6342192D01*
X7636799Y6484838D01*
X7264833Y6485162D01*
X6921057Y6343117D01*
X6657808Y6080327D01*
X6515162Y5736799D01*
X6514838Y5364833D01*
X6604352Y5148193D01*
X6552739Y5126867D01*
X6120749Y5558857D01*
X6184838Y5713201D01*
X6185162Y6085167D01*
X6043117Y6428943D01*
X5780327Y6692192D01*
X5685159Y6731709D01*
X5685162Y6735167D01*
X5543117Y7078943D01*
X5280327Y7342192D01*
X5205529Y7373251D01*
X5528943Y7506883D01*
X5792192Y7769673D01*
X5934838Y8113201D01*
X5935162Y8485167D01*
X5793117Y8828943D01*
X5530327Y9092192D01*
X5186799Y9234838D01*
X4814833Y9235162D01*
X4502544Y9106127D01*
X4493117Y9128943D01*
X4230327Y9392192D01*
X3886799Y9534838D01*
X3684988Y9535014D01*
X3685162Y9735167D01*
X3543117Y10078943D01*
X3280327Y10342192D01*
X2936799Y10484838D01*
X2564833Y10485162D01*
X2221057Y10343117D01*
X1957808Y10080327D01*
X1852614Y9826992D01*
X89803Y11589803D01*
X47789Y11617666D01*
X-1754Y11626988D01*
X-51022Y11616300D01*
X-89803Y11589803D01*
X-4294523Y7385083D01*
X-4385167Y7385162D01*
X-4564811Y7310935D01*
X-4863201Y7434838D01*
X-5235167Y7435162D01*
X-5578943Y7293117D01*
X-5842192Y7030327D01*
X-5970800Y6720606D01*
X-6056883Y6928943D01*
X-6319673Y7192192D01*
X-6663201Y7334838D01*
X-7035167Y7335162D01*
X-7378943Y7193117D01*
X-7642192Y6930327D01*
X-7784838Y6586799D01*
X-7785162Y6214833D01*
X-7643117Y5871057D01*
X-7380327Y5607808D01*
X-7036799Y5465162D01*
X-6664833Y5464838D01*
X-6321057Y5606883D01*
X-6057808Y5869673D01*
X-5929200Y6179394D01*
X-5843117Y5971057D01*
X-5775892Y5903714D01*
X-8664899Y3014707D01*
X-8664838Y3085167D01*
X-8806883Y3428943D01*
X-9069673Y3692192D01*
X-9413201Y3834838D01*
X-9785167Y3835162D01*
X-10128943Y3693117D01*
X-10392192Y3430327D01*
X-10534838Y3086799D01*
X-10535162Y2714833D01*
X-10393117Y2371057D01*
X-10130327Y2107808D01*
X-9786799Y1965162D01*
X-9714507Y1965099D01*
X-11589803Y89803D01*
X-11617666Y47789D01*
X-11626988Y-1754D01*
X-15688982Y-1754D01*
X-15693534Y136D01*
X-15389807Y125633D01*
X-15126558Y388423D01*
X-14983912Y731951D01*
X-14983588Y1103917D01*
X-15125633Y1447693D01*
X-15388423Y1710942D01*
X-15731951Y1853588D01*
X-16103917Y1853912D01*
X-16447693Y1711867D01*
X-16710942Y1449077D01*
X-16853588Y1105549D01*
X-16853912Y733583D01*
X-18086811Y733583D01*
X-14355561Y4464833D01*
X-9435162Y4464833D01*
X-9293117Y4121057D01*
X-9030327Y3857808D01*
X-8686799Y3715162D01*
X-8314833Y3714838D01*
X-7971057Y3856883D01*
X-7707808Y4119673D01*
X-7565162Y4463201D01*
X-7564838Y4835167D01*
X-7706883Y5178943D01*
X-7969673Y5442192D01*
X-8313201Y5584838D01*
X-8685167Y5585162D01*
X-9028943Y5443117D01*
X-9292192Y5180327D01*
X-9434838Y4836799D01*
X-9435162Y4464833D01*
X-14355561Y4464833D01*
X-12455477Y6364917D01*
X-12364833Y6364838D01*
X-12029185Y6503524D01*
X-11936799Y6465162D01*
X-11564833Y6464838D01*
X-11221057Y6606883D01*
X-10957808Y6869673D01*
X-10815162Y7213201D01*
X-10814838Y7585167D01*
X-10833765Y7630973D01*
X-10771057Y7656883D01*
X-10507808Y7919673D01*
X-10489056Y7964833D01*
X-9785162Y7964833D01*
X-9643117Y7621057D01*
X-9380327Y7357808D01*
X-9036799Y7215162D01*
X-8664833Y7214838D01*
X-8321057Y7356883D01*
X-8057808Y7619673D01*
X-7915162Y7963201D01*
X-7914838Y8335167D01*
X-8056883Y8678943D01*
X-8319673Y8942192D01*
X-8663201Y9084838D01*
X-9035167Y9085162D01*
X-9378943Y8943117D01*
X-9642192Y8680327D01*
X-9784838Y8336799D01*
X-9785162Y7964833D01*
X-10489056Y7964833D01*
X-10365162Y8263201D01*
X-10364995Y8455399D01*
X-7355390Y11465004D01*
X-7164833Y11464838D01*
X-6821057Y11606883D01*
X-6557808Y11869673D01*
X-6415162Y12213201D01*
X-6415081Y12306055D01*
X-6171057Y12406883D01*
X-5907808Y12669673D01*
X-5765162Y13013201D01*
X-5765125Y13055269D01*
X-3086811Y15733583D01*
X-1853912Y15733583D01*
X-1711867Y15389807D01*
X-1449077Y15126558D01*
X-1105549Y14983912D01*
X-733583Y14983588D01*
X-389807Y15125633D01*
X-126558Y15388423D01*
X136Y15693534D01*
X125633Y15389807D01*
X388423Y15126558D01*
X731951Y14983912D01*
X1103917Y14983588D01*
X1447693Y15125633D01*
X1710942Y15388423D01*
X1853588Y15731951D01*
X1853912Y16103917D01*
X1711867Y16447693D01*
X1449077Y16710942D01*
X1105549Y16853588D01*
X733583Y16853912D01*
X389807Y16711867D01*
X126558Y16449077D01*
X-136Y16143966D01*
X-125633Y16447693D01*
X-388423Y16710942D01*
X-731951Y16853588D01*
X-1103917Y16853912D01*
X-1447693Y16711867D01*
X-1710942Y16449077D01*
X-1853588Y16105549D01*
X-1853912Y15733583D01*
X-3086811Y15733583D01*
X-230394Y18590000D01*
X230394Y18590000D01*
X6364917Y12455477D01*
G36*
X3765004Y21055390D02*
X3764838Y20864833D01*
X3906883Y20521057D01*
X4169673Y20257808D01*
X4513201Y20115162D01*
X4705399Y20114995D01*
X10020570Y14799824D01*
X10015162Y14786799D01*
X10014838Y14414833D01*
X10156883Y14071057D01*
X10419673Y13807808D01*
X10763201Y13665162D01*
X11135167Y13664838D01*
X11149595Y13670799D01*
X11335241Y13485153D01*
X11315162Y13436799D01*
X11314838Y13064833D01*
X11456883Y12721057D01*
X11719673Y12457808D01*
X12063201Y12315162D01*
X12435167Y12314838D01*
X12484976Y12335418D01*
X13335241Y11485153D01*
X13315162Y11436799D01*
X13314838Y11064833D01*
X13456883Y10721057D01*
X13719673Y10457808D01*
X14063201Y10315162D01*
X14435167Y10314838D01*
X14484976Y10335418D01*
X19366982Y5453412D01*
X19221057Y5393117D01*
X18957808Y5130327D01*
X18815162Y4786799D01*
X18814838Y4414833D01*
X18956883Y4071057D01*
X19219673Y3807808D01*
X19563201Y3665162D01*
X19935167Y3664838D01*
X20278943Y3806883D01*
X20542192Y4069673D01*
X20603376Y4217018D01*
X23115091Y1705303D01*
X23114838Y1414833D01*
X23256883Y1071057D01*
X23519673Y807808D01*
X23863201Y665162D01*
X24155487Y664907D01*
X24335241Y485153D01*
X24315162Y436799D01*
X24314838Y64833D01*
X24456883Y-278943D01*
X24499130Y-321264D01*
X21005813Y-3814581D01*
X20886799Y-3765162D01*
X20514833Y-3764838D01*
X20171057Y-3906883D01*
X19907808Y-4169673D01*
X19765162Y-4513201D01*
X19764838Y-4885167D01*
X19814657Y-5005737D01*
X11271333Y-13549061D01*
X11130327Y-13407808D01*
X10786799Y-13265162D01*
X10414833Y-13264838D01*
X10071057Y-13406883D01*
X9807808Y-13669673D01*
X9665162Y-14013201D01*
X9664838Y-14385167D01*
X9806883Y-14728943D01*
X9949043Y-14871351D01*
X1555434Y-23264960D01*
X1414833Y-23264838D01*
X1071057Y-23406883D01*
X807808Y-23669673D01*
X665162Y-24013201D01*
X665038Y-24155356D01*
X485153Y-24335241D01*
X436799Y-24315162D01*
X64833Y-24314838D01*
X-278943Y-24456883D01*
X-321264Y-24499130D01*
X-3829252Y-20991142D01*
X-3765162Y-20836799D01*
X-3764838Y-20464833D01*
X-3906883Y-20121057D01*
X-4169673Y-19857808D01*
X-4513201Y-19715162D01*
X-4885167Y-19714838D01*
X-5041118Y-19779276D01*
X-23115091Y-1705303D01*
X-23114838Y-1414833D01*
X-23256883Y-1071057D01*
X-23519673Y-807808D01*
X-23863201Y-665162D01*
X-24155487Y-664907D01*
X-24335241Y-485153D01*
X-24315162Y-436799D01*
X-24314838Y-64833D01*
X-24340901Y-1754D01*
X-22626988Y-1754D01*
X-22616300Y-51022D01*
X-22589803Y-89803D01*
X-15084909Y-7594697D01*
X-15085162Y-7885167D01*
X-14943117Y-8228943D01*
X-14680327Y-8492192D01*
X-14336799Y-8634838D01*
X-14044513Y-8635093D01*
X-13585083Y-9094523D01*
X-13585162Y-9185167D01*
X-13443117Y-9528943D01*
X-13180327Y-9792192D01*
X-12836799Y-9934838D01*
X-12744688Y-9934918D01*
X-11884865Y-10794741D01*
X-11885162Y-11135167D01*
X-11743117Y-11478943D01*
X-11480327Y-11742192D01*
X-11136799Y-11884838D01*
X-10794470Y-11885136D01*
X-9010000Y-13669606D01*
X-9010000Y-13800000D01*
X-8952148Y-14090839D01*
X-8787401Y-14337401D01*
X-3237401Y-19887401D01*
X-2990840Y-20052148D01*
X-2700000Y-20110000D01*
X-2569606Y-20110000D01*
X-2314759Y-20364847D01*
X-2334838Y-20413201D01*
X-2335162Y-20785167D01*
X-2193117Y-21128943D01*
X-1930327Y-21392192D01*
X-1586799Y-21534838D01*
X-1573315Y-21534850D01*
X-1493117Y-21728943D01*
X-1230327Y-21992192D01*
X-886799Y-22134838D01*
X-544470Y-22135136D01*
X-89803Y-22589803D01*
X-47789Y-22617666D01*
X1754Y-22626988D01*
X51022Y-22616300D01*
X89803Y-22589803D01*
X7594741Y-15084865D01*
X7935167Y-15085162D01*
X8278943Y-14943117D01*
X8542192Y-14680327D01*
X8684838Y-14336799D01*
X8685136Y-13994470D01*
X12856596Y-9823010D01*
X12928943Y-9793117D01*
X12962118Y-9760000D01*
X13050000Y-9760000D01*
X13340839Y-9702148D01*
X13587401Y-9537401D01*
X19937401Y-3187401D01*
X20102148Y-2940839D01*
X20160000Y-2650000D01*
X20160000Y-2519606D01*
X20364847Y-2314759D01*
X20413201Y-2334838D01*
X20785167Y-2335162D01*
X21128943Y-2193117D01*
X21392192Y-1930327D01*
X21531239Y-1595466D01*
X21778943Y-1493117D01*
X22042192Y-1230327D01*
X22184838Y-886799D01*
X22185162Y-514833D01*
X22179201Y-500405D01*
X22589803Y-89803D01*
X22617666Y-47789D01*
X22626988Y1754D01*
X22616300Y51022D01*
X22589803Y89803D01*
X15079430Y7600176D01*
X15084838Y7613201D01*
X15085162Y7985167D01*
X14943117Y8328943D01*
X14680327Y8592192D01*
X14336799Y8734838D01*
X13964833Y8735162D01*
X13950406Y8729200D01*
X9908217Y12771389D01*
X9843117Y12928943D01*
X9810000Y12962118D01*
X9810000Y13000000D01*
X9752148Y13290839D01*
X9587401Y13537401D01*
X3237401Y19887401D01*
X2990839Y20052148D01*
X2700000Y20110000D01*
X2569606Y20110000D01*
X2314759Y20364847D01*
X2334838Y20413201D01*
X2335162Y20785167D01*
X2193117Y21128943D01*
X1930327Y21392192D01*
X1595466Y21531239D01*
X1493117Y21778943D01*
X1230327Y22042192D01*
X886799Y22184838D01*
X514833Y22185162D01*
X500405Y22179201D01*
X89803Y22589803D01*
X47789Y22617666D01*
X-1754Y22626988D01*
X-51022Y22616300D01*
X-89803Y22589803D01*
X-7644741Y15034865D01*
X-7985167Y15035162D01*
X-8328943Y14893117D01*
X-8592192Y14630327D01*
X-8734838Y14286799D01*
X-8734919Y14193945D01*
X-8978943Y14093117D01*
X-9242192Y13830327D01*
X-9384838Y13486799D01*
X-9385005Y13294601D01*
X-10894566Y11785040D01*
X-11035167Y11785162D01*
X-11378943Y11643117D01*
X-11642192Y11380327D01*
X-11784838Y11036799D01*
X-11784962Y10894644D01*
X-12821389Y9858217D01*
X-12978943Y9793117D01*
X-13012118Y9760000D01*
X-13050000Y9760000D01*
X-13285272Y9713201D01*
X-13340840Y9702148D01*
X-13587401Y9537401D01*
X-19887401Y3237401D01*
X-20052148Y2990839D01*
X-20110000Y2700000D01*
X-20110000Y2569606D01*
X-20364847Y2314759D01*
X-20413201Y2334838D01*
X-20785167Y2335162D01*
X-21128943Y2193117D01*
X-21392192Y1930327D01*
X-21531239Y1595466D01*
X-21778943Y1493117D01*
X-22042192Y1230327D01*
X-22184838Y886799D01*
X-22185162Y514833D01*
X-22179201Y500405D01*
X-22589803Y89803D01*
X-22617666Y47789D01*
X-22626988Y-1754D01*
X-24340901Y-1754D01*
X-24456883Y278943D01*
X-24499130Y321264D01*
X-21005813Y3814581D01*
X-20886799Y3765162D01*
X-20514833Y3764838D01*
X-20171057Y3906883D01*
X-19907808Y4169673D01*
X-19765162Y4513201D01*
X-19764838Y4885167D01*
X-19814657Y5005737D01*
X-1705303Y23115091D01*
X-1414833Y23114838D01*
X-1071057Y23256883D01*
X-807808Y23519673D01*
X-665162Y23863201D01*
X-664907Y24155487D01*
X-485153Y24335241D01*
X-436799Y24315162D01*
X-64833Y24314838D01*
X278943Y24456883D01*
X321264Y24499130D01*
X3765004Y21055390D01*
X3765004Y21055390D01*
G37*
X3765004Y21055390D02*
X3764838Y20864833D01*
X3906883Y20521057D01*
X4169673Y20257808D01*
X4513201Y20115162D01*
X4705399Y20114995D01*
X10020570Y14799824D01*
X10015162Y14786799D01*
X10014838Y14414833D01*
X10156883Y14071057D01*
X10419673Y13807808D01*
X10763201Y13665162D01*
X11135167Y13664838D01*
X11149595Y13670799D01*
X11335241Y13485153D01*
X11315162Y13436799D01*
X11314838Y13064833D01*
X11456883Y12721057D01*
X11719673Y12457808D01*
X12063201Y12315162D01*
X12435167Y12314838D01*
X12484976Y12335418D01*
X13335241Y11485153D01*
X13315162Y11436799D01*
X13314838Y11064833D01*
X13456883Y10721057D01*
X13719673Y10457808D01*
X14063201Y10315162D01*
X14435167Y10314838D01*
X14484976Y10335418D01*
X19366982Y5453412D01*
X19221057Y5393117D01*
X18957808Y5130327D01*
X18815162Y4786799D01*
X18814838Y4414833D01*
X18956883Y4071057D01*
X19219673Y3807808D01*
X19563201Y3665162D01*
X19935167Y3664838D01*
X20278943Y3806883D01*
X20542192Y4069673D01*
X20603376Y4217018D01*
X23115091Y1705303D01*
X23114838Y1414833D01*
X23256883Y1071057D01*
X23519673Y807808D01*
X23863201Y665162D01*
X24155487Y664907D01*
X24335241Y485153D01*
X24315162Y436799D01*
X24314838Y64833D01*
X24456883Y-278943D01*
X24499130Y-321264D01*
X21005813Y-3814581D01*
X20886799Y-3765162D01*
X20514833Y-3764838D01*
X20171057Y-3906883D01*
X19907808Y-4169673D01*
X19765162Y-4513201D01*
X19764838Y-4885167D01*
X19814657Y-5005737D01*
X11271333Y-13549061D01*
X11130327Y-13407808D01*
X10786799Y-13265162D01*
X10414833Y-13264838D01*
X10071057Y-13406883D01*
X9807808Y-13669673D01*
X9665162Y-14013201D01*
X9664838Y-14385167D01*
X9806883Y-14728943D01*
X9949043Y-14871351D01*
X1555434Y-23264960D01*
X1414833Y-23264838D01*
X1071057Y-23406883D01*
X807808Y-23669673D01*
X665162Y-24013201D01*
X665038Y-24155356D01*
X485153Y-24335241D01*
X436799Y-24315162D01*
X64833Y-24314838D01*
X-278943Y-24456883D01*
X-321264Y-24499130D01*
X-3829252Y-20991142D01*
X-3765162Y-20836799D01*
X-3764838Y-20464833D01*
X-3906883Y-20121057D01*
X-4169673Y-19857808D01*
X-4513201Y-19715162D01*
X-4885167Y-19714838D01*
X-5041118Y-19779276D01*
X-23115091Y-1705303D01*
X-23114838Y-1414833D01*
X-23256883Y-1071057D01*
X-23519673Y-807808D01*
X-23863201Y-665162D01*
X-24155487Y-664907D01*
X-24335241Y-485153D01*
X-24315162Y-436799D01*
X-24314838Y-64833D01*
X-24340901Y-1754D01*
X-22626988Y-1754D01*
X-22616300Y-51022D01*
X-22589803Y-89803D01*
X-15084909Y-7594697D01*
X-15085162Y-7885167D01*
X-14943117Y-8228943D01*
X-14680327Y-8492192D01*
X-14336799Y-8634838D01*
X-14044513Y-8635093D01*
X-13585083Y-9094523D01*
X-13585162Y-9185167D01*
X-13443117Y-9528943D01*
X-13180327Y-9792192D01*
X-12836799Y-9934838D01*
X-12744688Y-9934918D01*
X-11884865Y-10794741D01*
X-11885162Y-11135167D01*
X-11743117Y-11478943D01*
X-11480327Y-11742192D01*
X-11136799Y-11884838D01*
X-10794470Y-11885136D01*
X-9010000Y-13669606D01*
X-9010000Y-13800000D01*
X-8952148Y-14090839D01*
X-8787401Y-14337401D01*
X-3237401Y-19887401D01*
X-2990840Y-20052148D01*
X-2700000Y-20110000D01*
X-2569606Y-20110000D01*
X-2314759Y-20364847D01*
X-2334838Y-20413201D01*
X-2335162Y-20785167D01*
X-2193117Y-21128943D01*
X-1930327Y-21392192D01*
X-1586799Y-21534838D01*
X-1573315Y-21534850D01*
X-1493117Y-21728943D01*
X-1230327Y-21992192D01*
X-886799Y-22134838D01*
X-544470Y-22135136D01*
X-89803Y-22589803D01*
X-47789Y-22617666D01*
X1754Y-22626988D01*
X51022Y-22616300D01*
X89803Y-22589803D01*
X7594741Y-15084865D01*
X7935167Y-15085162D01*
X8278943Y-14943117D01*
X8542192Y-14680327D01*
X8684838Y-14336799D01*
X8685136Y-13994470D01*
X12856596Y-9823010D01*
X12928943Y-9793117D01*
X12962118Y-9760000D01*
X13050000Y-9760000D01*
X13340839Y-9702148D01*
X13587401Y-9537401D01*
X19937401Y-3187401D01*
X20102148Y-2940839D01*
X20160000Y-2650000D01*
X20160000Y-2519606D01*
X20364847Y-2314759D01*
X20413201Y-2334838D01*
X20785167Y-2335162D01*
X21128943Y-2193117D01*
X21392192Y-1930327D01*
X21531239Y-1595466D01*
X21778943Y-1493117D01*
X22042192Y-1230327D01*
X22184838Y-886799D01*
X22185162Y-514833D01*
X22179201Y-500405D01*
X22589803Y-89803D01*
X22617666Y-47789D01*
X22626988Y1754D01*
X22616300Y51022D01*
X22589803Y89803D01*
X15079430Y7600176D01*
X15084838Y7613201D01*
X15085162Y7985167D01*
X14943117Y8328943D01*
X14680327Y8592192D01*
X14336799Y8734838D01*
X13964833Y8735162D01*
X13950406Y8729200D01*
X9908217Y12771389D01*
X9843117Y12928943D01*
X9810000Y12962118D01*
X9810000Y13000000D01*
X9752148Y13290839D01*
X9587401Y13537401D01*
X3237401Y19887401D01*
X2990839Y20052148D01*
X2700000Y20110000D01*
X2569606Y20110000D01*
X2314759Y20364847D01*
X2334838Y20413201D01*
X2335162Y20785167D01*
X2193117Y21128943D01*
X1930327Y21392192D01*
X1595466Y21531239D01*
X1493117Y21778943D01*
X1230327Y22042192D01*
X886799Y22184838D01*
X514833Y22185162D01*
X500405Y22179201D01*
X89803Y22589803D01*
X47789Y22617666D01*
X-1754Y22626988D01*
X-51022Y22616300D01*
X-89803Y22589803D01*
X-7644741Y15034865D01*
X-7985167Y15035162D01*
X-8328943Y14893117D01*
X-8592192Y14630327D01*
X-8734838Y14286799D01*
X-8734919Y14193945D01*
X-8978943Y14093117D01*
X-9242192Y13830327D01*
X-9384838Y13486799D01*
X-9385005Y13294601D01*
X-10894566Y11785040D01*
X-11035167Y11785162D01*
X-11378943Y11643117D01*
X-11642192Y11380327D01*
X-11784838Y11036799D01*
X-11784962Y10894644D01*
X-12821389Y9858217D01*
X-12978943Y9793117D01*
X-13012118Y9760000D01*
X-13050000Y9760000D01*
X-13285272Y9713201D01*
X-13340840Y9702148D01*
X-13587401Y9537401D01*
X-19887401Y3237401D01*
X-20052148Y2990839D01*
X-20110000Y2700000D01*
X-20110000Y2569606D01*
X-20364847Y2314759D01*
X-20413201Y2334838D01*
X-20785167Y2335162D01*
X-21128943Y2193117D01*
X-21392192Y1930327D01*
X-21531239Y1595466D01*
X-21778943Y1493117D01*
X-22042192Y1230327D01*
X-22184838Y886799D01*
X-22185162Y514833D01*
X-22179201Y500405D01*
X-22589803Y89803D01*
X-22617666Y47789D01*
X-22626988Y-1754D01*
X-24340901Y-1754D01*
X-24456883Y278943D01*
X-24499130Y321264D01*
X-21005813Y3814581D01*
X-20886799Y3765162D01*
X-20514833Y3764838D01*
X-20171057Y3906883D01*
X-19907808Y4169673D01*
X-19765162Y4513201D01*
X-19764838Y4885167D01*
X-19814657Y5005737D01*
X-1705303Y23115091D01*
X-1414833Y23114838D01*
X-1071057Y23256883D01*
X-807808Y23519673D01*
X-665162Y23863201D01*
X-664907Y24155487D01*
X-485153Y24335241D01*
X-436799Y24315162D01*
X-64833Y24314838D01*
X278943Y24456883D01*
X321264Y24499130D01*
X3765004Y21055390D01*
G36*
X212599Y26712599D02*
X459161Y26547852D01*
X750000Y26490000D01*
X830394Y26490000D01*
X1410197Y25910197D01*
X1452211Y25882334D01*
X1500000Y25873000D01*
X3814761Y25873000D01*
X3856883Y25771057D01*
X4119673Y25507808D01*
X4463201Y25365162D01*
X4468001Y25365158D01*
X4506883Y25271057D01*
X4769673Y25007808D01*
X5113201Y24865162D01*
X5485167Y24864838D01*
X5828943Y25006883D01*
X6092192Y25269673D01*
X6234838Y25613201D01*
X6235064Y25873000D01*
X9350818Y25873000D01*
X9157808Y25680327D01*
X9015162Y25336799D01*
X9014838Y24964833D01*
X9062444Y24849618D01*
X8736799Y24984838D01*
X8364833Y24985162D01*
X8021057Y24843117D01*
X7757808Y24580327D01*
X7615162Y24236799D01*
X7614838Y23864833D01*
X7756883Y23521057D01*
X8019673Y23257808D01*
X8363201Y23115162D01*
X8735167Y23114838D01*
X9078943Y23256883D01*
X9342192Y23519673D01*
X9484838Y23863201D01*
X9485162Y24235167D01*
X9437556Y24350382D01*
X9763201Y24215162D01*
X10135167Y24214838D01*
X10373000Y24313108D01*
X10373000Y19500000D01*
X10383006Y19450590D01*
X10410197Y19410197D01*
X10690000Y19130394D01*
X10690000Y19050000D01*
X10747852Y18759161D01*
X10912599Y18512599D01*
X18532599Y10892599D01*
X18779160Y10727852D01*
X19070000Y10670000D01*
X19150394Y10670000D01*
X19410197Y10410197D01*
X19452211Y10382334D01*
X19500000Y10373000D01*
X25873000Y10373000D01*
X25873000Y1500000D01*
X25883006Y1450590D01*
X25910197Y1410197D01*
X26440000Y880394D01*
X26440000Y800000D01*
X26497852Y509161D01*
X26662599Y262599D01*
X26925198Y0D01*
X26662599Y-262599D01*
X26497852Y-509161D01*
X26440000Y-800000D01*
X26440000Y-880394D01*
X25910197Y-1410197D01*
X25882334Y-1452211D01*
X25873000Y-1500000D01*
X25873000Y-4604769D01*
X25707808Y-4769673D01*
X25565162Y-5113201D01*
X25564838Y-5485167D01*
X25706883Y-5828943D01*
X25873000Y-5995350D01*
X25873000Y-9300730D01*
X25730327Y-9157808D01*
X25386799Y-9015162D01*
X25014833Y-9014838D01*
X24832202Y-9090299D01*
X24842192Y-9080327D01*
X24984838Y-8736799D01*
X24985162Y-8364833D01*
X24843117Y-8021057D01*
X24580327Y-7757808D01*
X24236799Y-7615162D01*
X23864833Y-7614838D01*
X23521057Y-7756883D01*
X23257808Y-8019673D01*
X23115162Y-8363201D01*
X23114838Y-8735167D01*
X23256883Y-9078943D01*
X23519673Y-9342192D01*
X23863201Y-9484838D01*
X24235167Y-9485162D01*
X24417798Y-9409701D01*
X24407808Y-9419673D01*
X24265162Y-9763201D01*
X24264838Y-10135167D01*
X24363108Y-10373000D01*
X19500000Y-10373000D01*
X19450590Y-10383006D01*
X19410197Y-10410197D01*
X19130394Y-10690000D01*
X19050000Y-10690000D01*
X18759160Y-10747852D01*
X18512599Y-10912599D01*
X10892599Y-18532599D01*
X10727852Y-18779161D01*
X10670000Y-19070000D01*
X10670000Y-19150394D01*
X10410197Y-19410197D01*
X10382334Y-19452211D01*
X10373000Y-19500000D01*
X10373000Y-25873000D01*
X1500000Y-25873000D01*
X1450590Y-25883006D01*
X1410197Y-25910197D01*
X830394Y-26490000D01*
X750000Y-26490000D01*
X459161Y-26547852D01*
X212599Y-26712599D01*
X0Y-26925198D01*
X-212599Y-26712599D01*
X-459161Y-26547852D01*
X-750000Y-26490000D01*
X-830394Y-26490000D01*
X-1410197Y-25910197D01*
X-1452211Y-25882334D01*
X-1500000Y-25873000D01*
X-9300730Y-25873000D01*
X-9157808Y-25730327D01*
X-9015162Y-25386799D01*
X-9014838Y-25014833D01*
X-9090299Y-24832202D01*
X-9080327Y-24842192D01*
X-8736799Y-24984838D01*
X-8364833Y-24985162D01*
X-8021057Y-24843117D01*
X-7757808Y-24580327D01*
X-7615162Y-24236799D01*
X-7614838Y-23864833D01*
X-7756883Y-23521057D01*
X-8019673Y-23257808D01*
X-8363201Y-23115162D01*
X-8735167Y-23114838D01*
X-9078943Y-23256883D01*
X-9342192Y-23519673D01*
X-9484838Y-23863201D01*
X-9485162Y-24235167D01*
X-9409701Y-24417798D01*
X-9419673Y-24407808D01*
X-9763201Y-24265162D01*
X-10135167Y-24264838D01*
X-10373000Y-24363108D01*
X-10373000Y-19500000D01*
X-10383006Y-19450590D01*
X-10410197Y-19410197D01*
X-10640000Y-19180394D01*
X-10640000Y-19100000D01*
X-10697852Y-18809161D01*
X-10862599Y-18562599D01*
X-18532599Y-10892599D01*
X-18779161Y-10727852D01*
X-19070000Y-10670000D01*
X-19150394Y-10670000D01*
X-19410197Y-10410197D01*
X-19452211Y-10382334D01*
X-19500000Y-10373000D01*
X-25873000Y-10373000D01*
X-25873000Y-6835167D01*
X-24935162Y-6835167D01*
X-24793117Y-7178943D01*
X-24530327Y-7442192D01*
X-24186799Y-7584838D01*
X-23814833Y-7585162D01*
X-23699618Y-7537556D01*
X-23834838Y-7863201D01*
X-23835162Y-8235167D01*
X-23693117Y-8578943D01*
X-23430327Y-8842192D01*
X-23086799Y-8984838D01*
X-22714833Y-8985162D01*
X-22449772Y-8875641D01*
X-22186799Y-8984838D01*
X-21814833Y-8985162D01*
X-21471057Y-8843117D01*
X-21207808Y-8580327D01*
X-21168291Y-8485159D01*
X-21164833Y-8485162D01*
X-20821057Y-8343117D01*
X-20557808Y-8080327D01*
X-20415162Y-7736799D01*
X-20414838Y-7364833D01*
X-20503648Y-7149896D01*
X-20415162Y-6936799D01*
X-20414838Y-6564833D01*
X-20556883Y-6221057D01*
X-20819673Y-5957808D01*
X-21163201Y-5815162D01*
X-21535167Y-5814838D01*
X-21878943Y-5956883D01*
X-22142192Y-6219673D01*
X-22284838Y-6563201D01*
X-22285162Y-6935167D01*
X-22207168Y-7123928D01*
X-22450228Y-7224359D01*
X-22713201Y-7115162D01*
X-23085167Y-7114838D01*
X-23200382Y-7162444D01*
X-23065162Y-6836799D01*
X-23064838Y-6464833D01*
X-23206883Y-6121057D01*
X-23469673Y-5857808D01*
X-23813201Y-5715162D01*
X-24185167Y-5714838D01*
X-24528943Y-5856883D01*
X-24792192Y-6119673D01*
X-24934838Y-6463201D01*
X-24935162Y-6835167D01*
X-25873000Y-6835167D01*
X-25873000Y-1500000D01*
X-25883006Y-1450590D01*
X-25910197Y-1410197D01*
X-26490000Y-830394D01*
X-26490000Y-750000D01*
X-26547852Y-459161D01*
X-26563884Y-435167D01*
X-26185162Y-435167D01*
X-26043117Y-778943D01*
X-25780327Y-1042192D01*
X-25436799Y-1184838D01*
X-25064833Y-1185162D01*
X-25015024Y-1164582D01*
X-24920749Y-1258857D01*
X-24984838Y-1413201D01*
X-24985162Y-1785167D01*
X-24843117Y-2128943D01*
X-24580327Y-2392192D01*
X-24236799Y-2534838D01*
X-23864833Y-2535162D01*
X-23708882Y-2470724D01*
X-5634909Y-20544697D01*
X-5635162Y-20835167D01*
X-5525641Y-21100228D01*
X-5634838Y-21363201D01*
X-5635162Y-21735167D01*
X-5612494Y-21790027D01*
X-5642192Y-21819673D01*
X-5784838Y-22163201D01*
X-5785162Y-22535167D01*
X-5700580Y-22739873D01*
X-5834838Y-23063201D01*
X-5835162Y-23435167D01*
X-5693117Y-23778943D01*
X-5430327Y-24042192D01*
X-5086799Y-24184838D01*
X-4714833Y-24185162D01*
X-4435018Y-24069545D01*
X-4435162Y-24235167D01*
X-4293117Y-24578943D01*
X-4030327Y-24842192D01*
X-3686799Y-24984838D01*
X-3314833Y-24985162D01*
X-2971057Y-24843117D01*
X-2707808Y-24580327D01*
X-2565162Y-24236799D01*
X-2564838Y-23864833D01*
X-2706883Y-23521057D01*
X-2969673Y-23257808D01*
X-3313201Y-23115162D01*
X-3685167Y-23114838D01*
X-3964982Y-23230455D01*
X-3964838Y-23064833D01*
X-4049420Y-22860127D01*
X-3915162Y-22536799D01*
X-3914925Y-22264681D01*
X-643423Y-25536183D01*
X-543117Y-25778943D01*
X-280327Y-26042192D01*
X63201Y-26184838D01*
X435167Y-26185162D01*
X778943Y-26043117D01*
X1042192Y-25780327D01*
X1184838Y-25436799D01*
X1185162Y-25064833D01*
X1172850Y-25035035D01*
X1413201Y-25134838D01*
X1785167Y-25135162D01*
X2128943Y-24993117D01*
X2392192Y-24730327D01*
X2534838Y-24386799D01*
X2535013Y-24185167D01*
X5714838Y-24185167D01*
X5856883Y-24528943D01*
X6119673Y-24792192D01*
X6463201Y-24934838D01*
X6835167Y-24935162D01*
X7178943Y-24793117D01*
X7442192Y-24530327D01*
X7584838Y-24186799D01*
X7585162Y-23814833D01*
X7474389Y-23546742D01*
X7569673Y-23642192D01*
X7913201Y-23784838D01*
X8285167Y-23785162D01*
X8628943Y-23643117D01*
X8892192Y-23380327D01*
X9034838Y-23036799D01*
X9035162Y-22664833D01*
X8925641Y-22399772D01*
X9034838Y-22136799D01*
X9035162Y-21764833D01*
X8893117Y-21421057D01*
X8630327Y-21157808D01*
X8535159Y-21118291D01*
X8535162Y-21114833D01*
X8393117Y-20771057D01*
X8130327Y-20507808D01*
X7786799Y-20365162D01*
X7414833Y-20364838D01*
X7199896Y-20453648D01*
X6986799Y-20365162D01*
X6614833Y-20364838D01*
X6271057Y-20506883D01*
X6007808Y-20769673D01*
X5865162Y-21113201D01*
X5864838Y-21485167D01*
X6006883Y-21828943D01*
X6269673Y-22092192D01*
X6613201Y-22234838D01*
X6985167Y-22235162D01*
X7173928Y-22157168D01*
X7274359Y-22400228D01*
X7165162Y-22663201D01*
X7164838Y-23035167D01*
X7275611Y-23303258D01*
X7180327Y-23207808D01*
X6836799Y-23065162D01*
X6464833Y-23064838D01*
X6121057Y-23206883D01*
X5857808Y-23469673D01*
X5715162Y-23813201D01*
X5714838Y-24185167D01*
X2535013Y-24185167D01*
X2535162Y-24014833D01*
X2426867Y-23752739D01*
X18265030Y-7914576D01*
X18264838Y-8135167D01*
X18406883Y-8478943D01*
X18669673Y-8742192D01*
X19013201Y-8884838D01*
X19385167Y-8885162D01*
X19728943Y-8743117D01*
X19992192Y-8480327D01*
X20134838Y-8136799D01*
X20135162Y-7764833D01*
X19993117Y-7421057D01*
X19730327Y-7157808D01*
X19386799Y-7015162D01*
X19164638Y-7014968D01*
X20544741Y-5634865D01*
X20885167Y-5635162D01*
X21175290Y-5515286D01*
X21463201Y-5634838D01*
X21835167Y-5635162D01*
X21854690Y-5627095D01*
X21919673Y-5692192D01*
X22263201Y-5834838D01*
X22635167Y-5835162D01*
X22900228Y-5725641D01*
X23163201Y-5834838D01*
X23535167Y-5835162D01*
X23878943Y-5693117D01*
X24142192Y-5430327D01*
X24284838Y-5086799D01*
X24285162Y-4714833D01*
X24169581Y-4435105D01*
X24235167Y-4435162D01*
X24578943Y-4293117D01*
X24842192Y-4030327D01*
X24984838Y-3686799D01*
X24985162Y-3314833D01*
X24843117Y-2971057D01*
X24580327Y-2707808D01*
X24236799Y-2565162D01*
X23864833Y-2564838D01*
X23521057Y-2706883D01*
X23257808Y-2969673D01*
X23115162Y-3313201D01*
X23114838Y-3685167D01*
X23230419Y-3964895D01*
X23164833Y-3964838D01*
X22899772Y-4074359D01*
X22636799Y-3965162D01*
X22264833Y-3964838D01*
X22245310Y-3972905D01*
X22226022Y-3953584D01*
X25536183Y-643423D01*
X25778943Y-543117D01*
X26042192Y-280327D01*
X26184838Y63201D01*
X26185162Y435167D01*
X26043117Y778943D01*
X25780327Y1042192D01*
X25436799Y1184838D01*
X25064833Y1185162D01*
X25015024Y1164582D01*
X24920749Y1258857D01*
X24984838Y1413201D01*
X24985162Y1785167D01*
X24843117Y2128943D01*
X24580327Y2392192D01*
X24236799Y2534838D01*
X23864833Y2535162D01*
X23708882Y2470724D01*
X18814773Y7364833D01*
X20414838Y7364833D01*
X20503648Y7149896D01*
X20415162Y6936799D01*
X20414838Y6564833D01*
X20556883Y6221057D01*
X20819673Y5957808D01*
X21163201Y5815162D01*
X21535167Y5814838D01*
X21878943Y5956883D01*
X22142192Y6219673D01*
X22284838Y6563201D01*
X22285162Y6935167D01*
X22207168Y7123928D01*
X22450228Y7224359D01*
X22713201Y7115162D01*
X23085167Y7114838D01*
X23235676Y7177027D01*
X23115162Y6886799D01*
X23114838Y6514833D01*
X23256883Y6171057D01*
X23519673Y5907808D01*
X23863201Y5765162D01*
X24235167Y5764838D01*
X24578943Y5906883D01*
X24842192Y6169673D01*
X24984838Y6513201D01*
X24985162Y6885167D01*
X24843117Y7228943D01*
X24580327Y7492192D01*
X24236799Y7634838D01*
X23864833Y7635162D01*
X23714324Y7572973D01*
X23834838Y7863201D01*
X23835162Y8235167D01*
X23693117Y8578943D01*
X23430327Y8842192D01*
X23086799Y8984838D01*
X22714833Y8985162D01*
X22449772Y8875641D01*
X22186799Y8984838D01*
X21814833Y8985162D01*
X21471057Y8843117D01*
X21207808Y8580327D01*
X21168291Y8485159D01*
X21164833Y8485162D01*
X20821057Y8343117D01*
X20557808Y8080327D01*
X20415162Y7736799D01*
X20414838Y7364833D01*
X18814773Y7364833D01*
X15164759Y11014847D01*
X15184838Y11063201D01*
X15185162Y11435167D01*
X15043117Y11778943D01*
X14780327Y12042192D01*
X14436799Y12184838D01*
X14064833Y12185162D01*
X14015024Y12164582D01*
X13164759Y13014847D01*
X13184838Y13063201D01*
X13185162Y13435167D01*
X13043117Y13778943D01*
X12780327Y14042192D01*
X12436799Y14184838D01*
X12064833Y14185162D01*
X12015024Y14164582D01*
X11850089Y14329517D01*
X11884838Y14413201D01*
X11885162Y14785167D01*
X11743117Y15128943D01*
X11480327Y15392192D01*
X11136799Y15534838D01*
X10764833Y15535162D01*
X10679643Y15499963D01*
X5541408Y20638198D01*
X5634838Y20863201D01*
X5635162Y21235167D01*
X5525641Y21500228D01*
X5634838Y21763201D01*
X5635162Y22135167D01*
X5612494Y22190027D01*
X5642192Y22219673D01*
X5784838Y22563201D01*
X5785162Y22935167D01*
X5675641Y23200228D01*
X5784838Y23463201D01*
X5785162Y23835167D01*
X5643117Y24178943D01*
X5380327Y24442192D01*
X5036799Y24584838D01*
X4664833Y24585162D01*
X4345129Y24453063D01*
X4293117Y24578943D01*
X4030327Y24842192D01*
X3686799Y24984838D01*
X3314833Y24985162D01*
X2971057Y24843117D01*
X2707808Y24580327D01*
X2565162Y24236799D01*
X2564838Y23864833D01*
X2706883Y23521057D01*
X2969673Y23257808D01*
X3313201Y23115162D01*
X3685167Y23114838D01*
X4004871Y23246937D01*
X4024359Y23199772D01*
X3915162Y22936799D01*
X3914838Y22564833D01*
X3937506Y22509973D01*
X3907808Y22480327D01*
X3846624Y22332982D01*
X643423Y25536183D01*
X543117Y25778943D01*
X280327Y26042192D01*
X-63201Y26184838D01*
X-435167Y26185162D01*
X-778943Y26043117D01*
X-1042192Y25780327D01*
X-1184838Y25436799D01*
X-1185162Y25064833D01*
X-1164582Y25015024D01*
X-1258857Y24920749D01*
X-1413201Y24984838D01*
X-1785167Y24985162D01*
X-2128943Y24843117D01*
X-2392192Y24580327D01*
X-2534838Y24236799D01*
X-2535162Y23864833D01*
X-2470724Y23708882D01*
X-18265030Y7914576D01*
X-18264838Y8135167D01*
X-18406883Y8478943D01*
X-18669673Y8742192D01*
X-19013201Y8884838D01*
X-19385167Y8885162D01*
X-19728943Y8743117D01*
X-19992192Y8480327D01*
X-20134838Y8136799D01*
X-20135162Y7764833D01*
X-19993117Y7421057D01*
X-19730327Y7157808D01*
X-19386799Y7015162D01*
X-19164638Y7014968D01*
X-20544741Y5634865D01*
X-20885167Y5635162D01*
X-21125166Y5535997D01*
X-21363201Y5634838D01*
X-21735167Y5635162D01*
X-21790027Y5612494D01*
X-21819673Y5642192D01*
X-22163201Y5784838D01*
X-22535167Y5785162D01*
X-22689749Y5721290D01*
X-22963201Y5834838D01*
X-23335167Y5835162D01*
X-23678943Y5693117D01*
X-23942192Y5430327D01*
X-24084838Y5086799D01*
X-24085162Y4714833D01*
X-23969509Y4434931D01*
X-24235167Y4435162D01*
X-24578943Y4293117D01*
X-24842192Y4030327D01*
X-24984838Y3686799D01*
X-24985162Y3314833D01*
X-24843117Y2971057D01*
X-24580327Y2707808D01*
X-24236799Y2565162D01*
X-23864833Y2564838D01*
X-23521057Y2706883D01*
X-23257808Y2969673D01*
X-23115162Y3313201D01*
X-23114838Y3685167D01*
X-23230491Y3965069D01*
X-22964833Y3964838D01*
X-22810251Y4028710D01*
X-22536799Y3915162D01*
X-22264681Y3914925D01*
X-25536183Y643423D01*
X-25778943Y543117D01*
X-26042192Y280327D01*
X-26184838Y-63201D01*
X-26185162Y-435167D01*
X-26563884Y-435167D01*
X-26712599Y-212599D01*
X-26925198Y0D01*
X-26712599Y212599D01*
X-26547852Y459161D01*
X-26490000Y750000D01*
X-26490000Y830394D01*
X-25910197Y1410197D01*
X-25882334Y1452211D01*
X-25873000Y1500000D01*
X-25873000Y9300730D01*
X-25730327Y9157808D01*
X-25386799Y9015162D01*
X-25014833Y9014838D01*
X-24832202Y9090299D01*
X-24842192Y9080327D01*
X-24984838Y8736799D01*
X-24985162Y8364833D01*
X-24843117Y8021057D01*
X-24580327Y7757808D01*
X-24236799Y7615162D01*
X-23864833Y7614838D01*
X-23521057Y7756883D01*
X-23257808Y8019673D01*
X-23115162Y8363201D01*
X-23114838Y8735167D01*
X-23256883Y9078943D01*
X-23519673Y9342192D01*
X-23863201Y9484838D01*
X-24235167Y9485162D01*
X-24417798Y9409701D01*
X-24407808Y9419673D01*
X-24265162Y9763201D01*
X-24264838Y10135167D01*
X-24363108Y10373000D01*
X-19500000Y10373000D01*
X-19450590Y10383006D01*
X-19410197Y10410197D01*
X-19130394Y10690000D01*
X-19050000Y10690000D01*
X-18759161Y10747852D01*
X-18512599Y10912599D01*
X-17575795Y11849403D01*
X-17684838Y11586799D01*
X-17685162Y11214833D01*
X-17543117Y10871057D01*
X-17280327Y10607808D01*
X-16936799Y10465162D01*
X-16564833Y10464838D01*
X-16221057Y10606883D01*
X-15957808Y10869673D01*
X-15815162Y11213201D01*
X-15814838Y11585167D01*
X-15956883Y11928943D01*
X-16219673Y12192192D01*
X-16563201Y12334838D01*
X-16935167Y12335162D01*
X-17199084Y12226114D01*
X-10892599Y18532599D01*
X-10727852Y18779160D01*
X-10670000Y19070000D01*
X-10670000Y19150394D01*
X-10410197Y19410197D01*
X-10382334Y19452211D01*
X-10373000Y19500000D01*
X-10373000Y22714833D01*
X-8985162Y22714833D01*
X-8875641Y22449772D01*
X-8984838Y22186799D01*
X-8985162Y21814833D01*
X-8843117Y21471057D01*
X-8580327Y21207808D01*
X-8535097Y21189027D01*
X-8535162Y21114833D01*
X-8393117Y20771057D01*
X-8130327Y20507808D01*
X-7786799Y20365162D01*
X-7414833Y20364838D01*
X-7114479Y20488941D01*
X-6936799Y20415162D01*
X-6564833Y20414838D01*
X-6221057Y20556883D01*
X-5957808Y20819673D01*
X-5815162Y21163201D01*
X-5814838Y21535167D01*
X-5956883Y21878943D01*
X-6219673Y22142192D01*
X-6563201Y22284838D01*
X-6935167Y22285162D01*
X-7123928Y22207168D01*
X-7224359Y22450228D01*
X-7115162Y22713201D01*
X-7114838Y23085167D01*
X-7177027Y23235676D01*
X-6886799Y23115162D01*
X-6514833Y23114838D01*
X-6171057Y23256883D01*
X-5907808Y23519673D01*
X-5765162Y23863201D01*
X-5764838Y24235167D01*
X-5906883Y24578943D01*
X-6169673Y24842192D01*
X-6513201Y24984838D01*
X-6885167Y24985162D01*
X-7228943Y24843117D01*
X-7492192Y24580327D01*
X-7634838Y24236799D01*
X-7635162Y23864833D01*
X-7572973Y23714324D01*
X-7863201Y23834838D01*
X-8235167Y23835162D01*
X-8578943Y23693117D01*
X-8842192Y23430327D01*
X-8984838Y23086799D01*
X-8985162Y22714833D01*
X-10373000Y22714833D01*
X-10373000Y25873000D01*
X-1500000Y25873000D01*
X-1450590Y25883006D01*
X-1410197Y25910197D01*
X-830394Y26490000D01*
X-750000Y26490000D01*
X-459161Y26547852D01*
X-212599Y26712599D01*
X0Y26925198D01*
X212599Y26712599D01*
X212599Y26712599D01*
G37*
X212599Y26712599D02*
X459161Y26547852D01*
X750000Y26490000D01*
X830394Y26490000D01*
X1410197Y25910197D01*
X1452211Y25882334D01*
X1500000Y25873000D01*
X3814761Y25873000D01*
X3856883Y25771057D01*
X4119673Y25507808D01*
X4463201Y25365162D01*
X4468001Y25365158D01*
X4506883Y25271057D01*
X4769673Y25007808D01*
X5113201Y24865162D01*
X5485167Y24864838D01*
X5828943Y25006883D01*
X6092192Y25269673D01*
X6234838Y25613201D01*
X6235064Y25873000D01*
X9350818Y25873000D01*
X9157808Y25680327D01*
X9015162Y25336799D01*
X9014838Y24964833D01*
X9062444Y24849618D01*
X8736799Y24984838D01*
X8364833Y24985162D01*
X8021057Y24843117D01*
X7757808Y24580327D01*
X7615162Y24236799D01*
X7614838Y23864833D01*
X7756883Y23521057D01*
X8019673Y23257808D01*
X8363201Y23115162D01*
X8735167Y23114838D01*
X9078943Y23256883D01*
X9342192Y23519673D01*
X9484838Y23863201D01*
X9485162Y24235167D01*
X9437556Y24350382D01*
X9763201Y24215162D01*
X10135167Y24214838D01*
X10373000Y24313108D01*
X10373000Y19500000D01*
X10383006Y19450590D01*
X10410197Y19410197D01*
X10690000Y19130394D01*
X10690000Y19050000D01*
X10747852Y18759161D01*
X10912599Y18512599D01*
X18532599Y10892599D01*
X18779160Y10727852D01*
X19070000Y10670000D01*
X19150394Y10670000D01*
X19410197Y10410197D01*
X19452211Y10382334D01*
X19500000Y10373000D01*
X25873000Y10373000D01*
X25873000Y1500000D01*
X25883006Y1450590D01*
X25910197Y1410197D01*
X26440000Y880394D01*
X26440000Y800000D01*
X26497852Y509161D01*
X26662599Y262599D01*
X26925198Y0D01*
X26662599Y-262599D01*
X26497852Y-509161D01*
X26440000Y-800000D01*
X26440000Y-880394D01*
X25910197Y-1410197D01*
X25882334Y-1452211D01*
X25873000Y-1500000D01*
X25873000Y-4604769D01*
X25707808Y-4769673D01*
X25565162Y-5113201D01*
X25564838Y-5485167D01*
X25706883Y-5828943D01*
X25873000Y-5995350D01*
X25873000Y-9300730D01*
X25730327Y-9157808D01*
X25386799Y-9015162D01*
X25014833Y-9014838D01*
X24832202Y-9090299D01*
X24842192Y-9080327D01*
X24984838Y-8736799D01*
X24985162Y-8364833D01*
X24843117Y-8021057D01*
X24580327Y-7757808D01*
X24236799Y-7615162D01*
X23864833Y-7614838D01*
X23521057Y-7756883D01*
X23257808Y-8019673D01*
X23115162Y-8363201D01*
X23114838Y-8735167D01*
X23256883Y-9078943D01*
X23519673Y-9342192D01*
X23863201Y-9484838D01*
X24235167Y-9485162D01*
X24417798Y-9409701D01*
X24407808Y-9419673D01*
X24265162Y-9763201D01*
X24264838Y-10135167D01*
X24363108Y-10373000D01*
X19500000Y-10373000D01*
X19450590Y-10383006D01*
X19410197Y-10410197D01*
X19130394Y-10690000D01*
X19050000Y-10690000D01*
X18759160Y-10747852D01*
X18512599Y-10912599D01*
X10892599Y-18532599D01*
X10727852Y-18779161D01*
X10670000Y-19070000D01*
X10670000Y-19150394D01*
X10410197Y-19410197D01*
X10382334Y-19452211D01*
X10373000Y-19500000D01*
X10373000Y-25873000D01*
X1500000Y-25873000D01*
X1450590Y-25883006D01*
X1410197Y-25910197D01*
X830394Y-26490000D01*
X750000Y-26490000D01*
X459161Y-26547852D01*
X212599Y-26712599D01*
X0Y-26925198D01*
X-212599Y-26712599D01*
X-459161Y-26547852D01*
X-750000Y-26490000D01*
X-830394Y-26490000D01*
X-1410197Y-25910197D01*
X-1452211Y-25882334D01*
X-1500000Y-25873000D01*
X-9300730Y-25873000D01*
X-9157808Y-25730327D01*
X-9015162Y-25386799D01*
X-9014838Y-25014833D01*
X-9090299Y-24832202D01*
X-9080327Y-24842192D01*
X-8736799Y-24984838D01*
X-8364833Y-24985162D01*
X-8021057Y-24843117D01*
X-7757808Y-24580327D01*
X-7615162Y-24236799D01*
X-7614838Y-23864833D01*
X-7756883Y-23521057D01*
X-8019673Y-23257808D01*
X-8363201Y-23115162D01*
X-8735167Y-23114838D01*
X-9078943Y-23256883D01*
X-9342192Y-23519673D01*
X-9484838Y-23863201D01*
X-9485162Y-24235167D01*
X-9409701Y-24417798D01*
X-9419673Y-24407808D01*
X-9763201Y-24265162D01*
X-10135167Y-24264838D01*
X-10373000Y-24363108D01*
X-10373000Y-19500000D01*
X-10383006Y-19450590D01*
X-10410197Y-19410197D01*
X-10640000Y-19180394D01*
X-10640000Y-19100000D01*
X-10697852Y-18809161D01*
X-10862599Y-18562599D01*
X-18532599Y-10892599D01*
X-18779161Y-10727852D01*
X-19070000Y-10670000D01*
X-19150394Y-10670000D01*
X-19410197Y-10410197D01*
X-19452211Y-10382334D01*
X-19500000Y-10373000D01*
X-25873000Y-10373000D01*
X-25873000Y-6835167D01*
X-24935162Y-6835167D01*
X-24793117Y-7178943D01*
X-24530327Y-7442192D01*
X-24186799Y-7584838D01*
X-23814833Y-7585162D01*
X-23699618Y-7537556D01*
X-23834838Y-7863201D01*
X-23835162Y-8235167D01*
X-23693117Y-8578943D01*
X-23430327Y-8842192D01*
X-23086799Y-8984838D01*
X-22714833Y-8985162D01*
X-22449772Y-8875641D01*
X-22186799Y-8984838D01*
X-21814833Y-8985162D01*
X-21471057Y-8843117D01*
X-21207808Y-8580327D01*
X-21168291Y-8485159D01*
X-21164833Y-8485162D01*
X-20821057Y-8343117D01*
X-20557808Y-8080327D01*
X-20415162Y-7736799D01*
X-20414838Y-7364833D01*
X-20503648Y-7149896D01*
X-20415162Y-6936799D01*
X-20414838Y-6564833D01*
X-20556883Y-6221057D01*
X-20819673Y-5957808D01*
X-21163201Y-5815162D01*
X-21535167Y-5814838D01*
X-21878943Y-5956883D01*
X-22142192Y-6219673D01*
X-22284838Y-6563201D01*
X-22285162Y-6935167D01*
X-22207168Y-7123928D01*
X-22450228Y-7224359D01*
X-22713201Y-7115162D01*
X-23085167Y-7114838D01*
X-23200382Y-7162444D01*
X-23065162Y-6836799D01*
X-23064838Y-6464833D01*
X-23206883Y-6121057D01*
X-23469673Y-5857808D01*
X-23813201Y-5715162D01*
X-24185167Y-5714838D01*
X-24528943Y-5856883D01*
X-24792192Y-6119673D01*
X-24934838Y-6463201D01*
X-24935162Y-6835167D01*
X-25873000Y-6835167D01*
X-25873000Y-1500000D01*
X-25883006Y-1450590D01*
X-25910197Y-1410197D01*
X-26490000Y-830394D01*
X-26490000Y-750000D01*
X-26547852Y-459161D01*
X-26563884Y-435167D01*
X-26185162Y-435167D01*
X-26043117Y-778943D01*
X-25780327Y-1042192D01*
X-25436799Y-1184838D01*
X-25064833Y-1185162D01*
X-25015024Y-1164582D01*
X-24920749Y-1258857D01*
X-24984838Y-1413201D01*
X-24985162Y-1785167D01*
X-24843117Y-2128943D01*
X-24580327Y-2392192D01*
X-24236799Y-2534838D01*
X-23864833Y-2535162D01*
X-23708882Y-2470724D01*
X-5634909Y-20544697D01*
X-5635162Y-20835167D01*
X-5525641Y-21100228D01*
X-5634838Y-21363201D01*
X-5635162Y-21735167D01*
X-5612494Y-21790027D01*
X-5642192Y-21819673D01*
X-5784838Y-22163201D01*
X-5785162Y-22535167D01*
X-5700580Y-22739873D01*
X-5834838Y-23063201D01*
X-5835162Y-23435167D01*
X-5693117Y-23778943D01*
X-5430327Y-24042192D01*
X-5086799Y-24184838D01*
X-4714833Y-24185162D01*
X-4435018Y-24069545D01*
X-4435162Y-24235167D01*
X-4293117Y-24578943D01*
X-4030327Y-24842192D01*
X-3686799Y-24984838D01*
X-3314833Y-24985162D01*
X-2971057Y-24843117D01*
X-2707808Y-24580327D01*
X-2565162Y-24236799D01*
X-2564838Y-23864833D01*
X-2706883Y-23521057D01*
X-2969673Y-23257808D01*
X-3313201Y-23115162D01*
X-3685167Y-23114838D01*
X-3964982Y-23230455D01*
X-3964838Y-23064833D01*
X-4049420Y-22860127D01*
X-3915162Y-22536799D01*
X-3914925Y-22264681D01*
X-643423Y-25536183D01*
X-543117Y-25778943D01*
X-280327Y-26042192D01*
X63201Y-26184838D01*
X435167Y-26185162D01*
X778943Y-26043117D01*
X1042192Y-25780327D01*
X1184838Y-25436799D01*
X1185162Y-25064833D01*
X1172850Y-25035035D01*
X1413201Y-25134838D01*
X1785167Y-25135162D01*
X2128943Y-24993117D01*
X2392192Y-24730327D01*
X2534838Y-24386799D01*
X2535013Y-24185167D01*
X5714838Y-24185167D01*
X5856883Y-24528943D01*
X6119673Y-24792192D01*
X6463201Y-24934838D01*
X6835167Y-24935162D01*
X7178943Y-24793117D01*
X7442192Y-24530327D01*
X7584838Y-24186799D01*
X7585162Y-23814833D01*
X7474389Y-23546742D01*
X7569673Y-23642192D01*
X7913201Y-23784838D01*
X8285167Y-23785162D01*
X8628943Y-23643117D01*
X8892192Y-23380327D01*
X9034838Y-23036799D01*
X9035162Y-22664833D01*
X8925641Y-22399772D01*
X9034838Y-22136799D01*
X9035162Y-21764833D01*
X8893117Y-21421057D01*
X8630327Y-21157808D01*
X8535159Y-21118291D01*
X8535162Y-21114833D01*
X8393117Y-20771057D01*
X8130327Y-20507808D01*
X7786799Y-20365162D01*
X7414833Y-20364838D01*
X7199896Y-20453648D01*
X6986799Y-20365162D01*
X6614833Y-20364838D01*
X6271057Y-20506883D01*
X6007808Y-20769673D01*
X5865162Y-21113201D01*
X5864838Y-21485167D01*
X6006883Y-21828943D01*
X6269673Y-22092192D01*
X6613201Y-22234838D01*
X6985167Y-22235162D01*
X7173928Y-22157168D01*
X7274359Y-22400228D01*
X7165162Y-22663201D01*
X7164838Y-23035167D01*
X7275611Y-23303258D01*
X7180327Y-23207808D01*
X6836799Y-23065162D01*
X6464833Y-23064838D01*
X6121057Y-23206883D01*
X5857808Y-23469673D01*
X5715162Y-23813201D01*
X5714838Y-24185167D01*
X2535013Y-24185167D01*
X2535162Y-24014833D01*
X2426867Y-23752739D01*
X18265030Y-7914576D01*
X18264838Y-8135167D01*
X18406883Y-8478943D01*
X18669673Y-8742192D01*
X19013201Y-8884838D01*
X19385167Y-8885162D01*
X19728943Y-8743117D01*
X19992192Y-8480327D01*
X20134838Y-8136799D01*
X20135162Y-7764833D01*
X19993117Y-7421057D01*
X19730327Y-7157808D01*
X19386799Y-7015162D01*
X19164638Y-7014968D01*
X20544741Y-5634865D01*
X20885167Y-5635162D01*
X21175290Y-5515286D01*
X21463201Y-5634838D01*
X21835167Y-5635162D01*
X21854690Y-5627095D01*
X21919673Y-5692192D01*
X22263201Y-5834838D01*
X22635167Y-5835162D01*
X22900228Y-5725641D01*
X23163201Y-5834838D01*
X23535167Y-5835162D01*
X23878943Y-5693117D01*
X24142192Y-5430327D01*
X24284838Y-5086799D01*
X24285162Y-4714833D01*
X24169581Y-4435105D01*
X24235167Y-4435162D01*
X24578943Y-4293117D01*
X24842192Y-4030327D01*
X24984838Y-3686799D01*
X24985162Y-3314833D01*
X24843117Y-2971057D01*
X24580327Y-2707808D01*
X24236799Y-2565162D01*
X23864833Y-2564838D01*
X23521057Y-2706883D01*
X23257808Y-2969673D01*
X23115162Y-3313201D01*
X23114838Y-3685167D01*
X23230419Y-3964895D01*
X23164833Y-3964838D01*
X22899772Y-4074359D01*
X22636799Y-3965162D01*
X22264833Y-3964838D01*
X22245310Y-3972905D01*
X22226022Y-3953584D01*
X25536183Y-643423D01*
X25778943Y-543117D01*
X26042192Y-280327D01*
X26184838Y63201D01*
X26185162Y435167D01*
X26043117Y778943D01*
X25780327Y1042192D01*
X25436799Y1184838D01*
X25064833Y1185162D01*
X25015024Y1164582D01*
X24920749Y1258857D01*
X24984838Y1413201D01*
X24985162Y1785167D01*
X24843117Y2128943D01*
X24580327Y2392192D01*
X24236799Y2534838D01*
X23864833Y2535162D01*
X23708882Y2470724D01*
X18814773Y7364833D01*
X20414838Y7364833D01*
X20503648Y7149896D01*
X20415162Y6936799D01*
X20414838Y6564833D01*
X20556883Y6221057D01*
X20819673Y5957808D01*
X21163201Y5815162D01*
X21535167Y5814838D01*
X21878943Y5956883D01*
X22142192Y6219673D01*
X22284838Y6563201D01*
X22285162Y6935167D01*
X22207168Y7123928D01*
X22450228Y7224359D01*
X22713201Y7115162D01*
X23085167Y7114838D01*
X23235676Y7177027D01*
X23115162Y6886799D01*
X23114838Y6514833D01*
X23256883Y6171057D01*
X23519673Y5907808D01*
X23863201Y5765162D01*
X24235167Y5764838D01*
X24578943Y5906883D01*
X24842192Y6169673D01*
X24984838Y6513201D01*
X24985162Y6885167D01*
X24843117Y7228943D01*
X24580327Y7492192D01*
X24236799Y7634838D01*
X23864833Y7635162D01*
X23714324Y7572973D01*
X23834838Y7863201D01*
X23835162Y8235167D01*
X23693117Y8578943D01*
X23430327Y8842192D01*
X23086799Y8984838D01*
X22714833Y8985162D01*
X22449772Y8875641D01*
X22186799Y8984838D01*
X21814833Y8985162D01*
X21471057Y8843117D01*
X21207808Y8580327D01*
X21168291Y8485159D01*
X21164833Y8485162D01*
X20821057Y8343117D01*
X20557808Y8080327D01*
X20415162Y7736799D01*
X20414838Y7364833D01*
X18814773Y7364833D01*
X15164759Y11014847D01*
X15184838Y11063201D01*
X15185162Y11435167D01*
X15043117Y11778943D01*
X14780327Y12042192D01*
X14436799Y12184838D01*
X14064833Y12185162D01*
X14015024Y12164582D01*
X13164759Y13014847D01*
X13184838Y13063201D01*
X13185162Y13435167D01*
X13043117Y13778943D01*
X12780327Y14042192D01*
X12436799Y14184838D01*
X12064833Y14185162D01*
X12015024Y14164582D01*
X11850089Y14329517D01*
X11884838Y14413201D01*
X11885162Y14785167D01*
X11743117Y15128943D01*
X11480327Y15392192D01*
X11136799Y15534838D01*
X10764833Y15535162D01*
X10679643Y15499963D01*
X5541408Y20638198D01*
X5634838Y20863201D01*
X5635162Y21235167D01*
X5525641Y21500228D01*
X5634838Y21763201D01*
X5635162Y22135167D01*
X5612494Y22190027D01*
X5642192Y22219673D01*
X5784838Y22563201D01*
X5785162Y22935167D01*
X5675641Y23200228D01*
X5784838Y23463201D01*
X5785162Y23835167D01*
X5643117Y24178943D01*
X5380327Y24442192D01*
X5036799Y24584838D01*
X4664833Y24585162D01*
X4345129Y24453063D01*
X4293117Y24578943D01*
X4030327Y24842192D01*
X3686799Y24984838D01*
X3314833Y24985162D01*
X2971057Y24843117D01*
X2707808Y24580327D01*
X2565162Y24236799D01*
X2564838Y23864833D01*
X2706883Y23521057D01*
X2969673Y23257808D01*
X3313201Y23115162D01*
X3685167Y23114838D01*
X4004871Y23246937D01*
X4024359Y23199772D01*
X3915162Y22936799D01*
X3914838Y22564833D01*
X3937506Y22509973D01*
X3907808Y22480327D01*
X3846624Y22332982D01*
X643423Y25536183D01*
X543117Y25778943D01*
X280327Y26042192D01*
X-63201Y26184838D01*
X-435167Y26185162D01*
X-778943Y26043117D01*
X-1042192Y25780327D01*
X-1184838Y25436799D01*
X-1185162Y25064833D01*
X-1164582Y25015024D01*
X-1258857Y24920749D01*
X-1413201Y24984838D01*
X-1785167Y24985162D01*
X-2128943Y24843117D01*
X-2392192Y24580327D01*
X-2534838Y24236799D01*
X-2535162Y23864833D01*
X-2470724Y23708882D01*
X-18265030Y7914576D01*
X-18264838Y8135167D01*
X-18406883Y8478943D01*
X-18669673Y8742192D01*
X-19013201Y8884838D01*
X-19385167Y8885162D01*
X-19728943Y8743117D01*
X-19992192Y8480327D01*
X-20134838Y8136799D01*
X-20135162Y7764833D01*
X-19993117Y7421057D01*
X-19730327Y7157808D01*
X-19386799Y7015162D01*
X-19164638Y7014968D01*
X-20544741Y5634865D01*
X-20885167Y5635162D01*
X-21125166Y5535997D01*
X-21363201Y5634838D01*
X-21735167Y5635162D01*
X-21790027Y5612494D01*
X-21819673Y5642192D01*
X-22163201Y5784838D01*
X-22535167Y5785162D01*
X-22689749Y5721290D01*
X-22963201Y5834838D01*
X-23335167Y5835162D01*
X-23678943Y5693117D01*
X-23942192Y5430327D01*
X-24084838Y5086799D01*
X-24085162Y4714833D01*
X-23969509Y4434931D01*
X-24235167Y4435162D01*
X-24578943Y4293117D01*
X-24842192Y4030327D01*
X-24984838Y3686799D01*
X-24985162Y3314833D01*
X-24843117Y2971057D01*
X-24580327Y2707808D01*
X-24236799Y2565162D01*
X-23864833Y2564838D01*
X-23521057Y2706883D01*
X-23257808Y2969673D01*
X-23115162Y3313201D01*
X-23114838Y3685167D01*
X-23230491Y3965069D01*
X-22964833Y3964838D01*
X-22810251Y4028710D01*
X-22536799Y3915162D01*
X-22264681Y3914925D01*
X-25536183Y643423D01*
X-25778943Y543117D01*
X-26042192Y280327D01*
X-26184838Y-63201D01*
X-26185162Y-435167D01*
X-26563884Y-435167D01*
X-26712599Y-212599D01*
X-26925198Y0D01*
X-26712599Y212599D01*
X-26547852Y459161D01*
X-26490000Y750000D01*
X-26490000Y830394D01*
X-25910197Y1410197D01*
X-25882334Y1452211D01*
X-25873000Y1500000D01*
X-25873000Y9300730D01*
X-25730327Y9157808D01*
X-25386799Y9015162D01*
X-25014833Y9014838D01*
X-24832202Y9090299D01*
X-24842192Y9080327D01*
X-24984838Y8736799D01*
X-24985162Y8364833D01*
X-24843117Y8021057D01*
X-24580327Y7757808D01*
X-24236799Y7615162D01*
X-23864833Y7614838D01*
X-23521057Y7756883D01*
X-23257808Y8019673D01*
X-23115162Y8363201D01*
X-23114838Y8735167D01*
X-23256883Y9078943D01*
X-23519673Y9342192D01*
X-23863201Y9484838D01*
X-24235167Y9485162D01*
X-24417798Y9409701D01*
X-24407808Y9419673D01*
X-24265162Y9763201D01*
X-24264838Y10135167D01*
X-24363108Y10373000D01*
X-19500000Y10373000D01*
X-19450590Y10383006D01*
X-19410197Y10410197D01*
X-19130394Y10690000D01*
X-19050000Y10690000D01*
X-18759161Y10747852D01*
X-18512599Y10912599D01*
X-17575795Y11849403D01*
X-17684838Y11586799D01*
X-17685162Y11214833D01*
X-17543117Y10871057D01*
X-17280327Y10607808D01*
X-16936799Y10465162D01*
X-16564833Y10464838D01*
X-16221057Y10606883D01*
X-15957808Y10869673D01*
X-15815162Y11213201D01*
X-15814838Y11585167D01*
X-15956883Y11928943D01*
X-16219673Y12192192D01*
X-16563201Y12334838D01*
X-16935167Y12335162D01*
X-17199084Y12226114D01*
X-10892599Y18532599D01*
X-10727852Y18779160D01*
X-10670000Y19070000D01*
X-10670000Y19150394D01*
X-10410197Y19410197D01*
X-10382334Y19452211D01*
X-10373000Y19500000D01*
X-10373000Y22714833D01*
X-8985162Y22714833D01*
X-8875641Y22449772D01*
X-8984838Y22186799D01*
X-8985162Y21814833D01*
X-8843117Y21471057D01*
X-8580327Y21207808D01*
X-8535097Y21189027D01*
X-8535162Y21114833D01*
X-8393117Y20771057D01*
X-8130327Y20507808D01*
X-7786799Y20365162D01*
X-7414833Y20364838D01*
X-7114479Y20488941D01*
X-6936799Y20415162D01*
X-6564833Y20414838D01*
X-6221057Y20556883D01*
X-5957808Y20819673D01*
X-5815162Y21163201D01*
X-5814838Y21535167D01*
X-5956883Y21878943D01*
X-6219673Y22142192D01*
X-6563201Y22284838D01*
X-6935167Y22285162D01*
X-7123928Y22207168D01*
X-7224359Y22450228D01*
X-7115162Y22713201D01*
X-7114838Y23085167D01*
X-7177027Y23235676D01*
X-6886799Y23115162D01*
X-6514833Y23114838D01*
X-6171057Y23256883D01*
X-5907808Y23519673D01*
X-5765162Y23863201D01*
X-5764838Y24235167D01*
X-5906883Y24578943D01*
X-6169673Y24842192D01*
X-6513201Y24984838D01*
X-6885167Y24985162D01*
X-7228943Y24843117D01*
X-7492192Y24580327D01*
X-7634838Y24236799D01*
X-7635162Y23864833D01*
X-7572973Y23714324D01*
X-7863201Y23834838D01*
X-8235167Y23835162D01*
X-8578943Y23693117D01*
X-8842192Y23430327D01*
X-8984838Y23086799D01*
X-8985162Y22714833D01*
X-10373000Y22714833D01*
X-10373000Y25873000D01*
X-1500000Y25873000D01*
X-1450590Y25883006D01*
X-1410197Y25910197D01*
X-830394Y26490000D01*
X-750000Y26490000D01*
X-459161Y26547852D01*
X-212599Y26712599D01*
X0Y26925198D01*
X212599Y26712599D01*
M02*
