G04 #@! TF.FileFunction,Paste,Top*
%FSLAX46Y46*%
G04 Gerber Fmt 4.6, Leading zero omitted, Abs format (unit mm)*
G04 Created by KiCad (PCBNEW 4.0.6-e0-6349~53~ubuntu14.04.1) date Fri Mar 31 01:21:10 2017*
%MOMM*%
%LPD*%
G01*
G04 APERTURE LIST*
%ADD10C,0.100000*%
%ADD11R,0.850000X0.300000*%
%ADD12R,0.300000X0.850000*%
%ADD13R,1.102500X1.102500*%
%ADD14R,0.500000X0.600000*%
%ADD15R,0.600000X0.500000*%
G04 APERTURE END LIST*
D10*
G36*
X-9250986Y-16817029D02*
X-9958093Y-17524136D01*
X-10453068Y-17029161D01*
X-9745961Y-16322054D01*
X-9250986Y-16817029D01*
X-9250986Y-16817029D01*
G37*
G36*
X-10665200Y-15402816D02*
X-11372307Y-16109923D01*
X-11867282Y-15614948D01*
X-11160175Y-14907841D01*
X-10665200Y-15402816D01*
X-10665200Y-15402816D01*
G37*
G36*
X-12079414Y-13988602D02*
X-12786521Y-14695709D01*
X-13281496Y-14200734D01*
X-12574389Y-13493627D01*
X-12079414Y-13988602D01*
X-12079414Y-13988602D01*
G37*
G36*
X-13493627Y-12574389D02*
X-14200734Y-13281496D01*
X-14695709Y-12786521D01*
X-13988602Y-12079414D01*
X-13493627Y-12574389D01*
X-13493627Y-12574389D01*
G37*
G36*
X-14907841Y-11160175D02*
X-15614948Y-11867282D01*
X-16109923Y-11372307D01*
X-15402816Y-10665200D01*
X-14907841Y-11160175D01*
X-14907841Y-11160175D01*
G37*
G36*
X-16322054Y-9745961D02*
X-17029161Y-10453068D01*
X-17524136Y-9958093D01*
X-16817029Y-9250986D01*
X-16322054Y-9745961D01*
X-16322054Y-9745961D01*
G37*
G36*
X-18867639Y-9392408D02*
X-19362614Y-9887383D01*
X-20352563Y-8897434D01*
X-19857588Y-8402459D01*
X-18867639Y-9392408D01*
X-18867639Y-9392408D01*
G37*
G36*
X-20281853Y-10806621D02*
X-20776828Y-11301596D01*
X-21766777Y-10311647D01*
X-21271802Y-9816672D01*
X-20281853Y-10806621D01*
X-20281853Y-10806621D01*
G37*
G36*
X-21696066Y-12220835D02*
X-22191041Y-12715810D01*
X-23180990Y-11725861D01*
X-22686015Y-11230886D01*
X-21696066Y-12220835D01*
X-21696066Y-12220835D01*
G37*
G36*
X-23110280Y-13635048D02*
X-23605255Y-14130023D01*
X-24595204Y-13140074D01*
X-24100229Y-12645099D01*
X-23110280Y-13635048D01*
X-23110280Y-13635048D01*
G37*
G36*
X-24524493Y-15049262D02*
X-25019468Y-15544237D01*
X-26009417Y-14554288D01*
X-25514442Y-14059313D01*
X-24524493Y-15049262D01*
X-24524493Y-15049262D01*
G37*
G36*
X-25938707Y-16463475D02*
X-26433682Y-16958450D01*
X-27423631Y-15968501D01*
X-26928656Y-15473526D01*
X-25938707Y-16463475D01*
X-25938707Y-16463475D01*
G37*
G36*
X-27352920Y-17877689D02*
X-27847895Y-18372664D01*
X-28837844Y-17382715D01*
X-28342869Y-16887740D01*
X-27352920Y-17877689D01*
X-27352920Y-17877689D01*
G37*
G36*
X-28767134Y-19291903D02*
X-29262109Y-19786878D01*
X-30252058Y-18796929D01*
X-29757083Y-18301954D01*
X-28767134Y-19291903D01*
X-28767134Y-19291903D01*
G37*
G36*
X-8402459Y-19857588D02*
X-8897434Y-20352563D01*
X-9887383Y-19362614D01*
X-9392408Y-18867639D01*
X-8402459Y-19857588D01*
X-8402459Y-19857588D01*
G37*
G36*
X-9816672Y-21271802D02*
X-10311647Y-21766777D01*
X-11301596Y-20776828D01*
X-10806621Y-20281853D01*
X-9816672Y-21271802D01*
X-9816672Y-21271802D01*
G37*
G36*
X-11230886Y-22686015D02*
X-11725861Y-23180990D01*
X-12715810Y-22191041D01*
X-12220835Y-21696066D01*
X-11230886Y-22686015D01*
X-11230886Y-22686015D01*
G37*
G36*
X-12645099Y-24100229D02*
X-13140074Y-24595204D01*
X-14130023Y-23605255D01*
X-13635048Y-23110280D01*
X-12645099Y-24100229D01*
X-12645099Y-24100229D01*
G37*
G36*
X-14059313Y-25514442D02*
X-14554288Y-26009417D01*
X-15544237Y-25019468D01*
X-15049262Y-24524493D01*
X-14059313Y-25514442D01*
X-14059313Y-25514442D01*
G37*
G36*
X-15473526Y-26928656D02*
X-15968501Y-27423631D01*
X-16958450Y-26433682D01*
X-16463475Y-25938707D01*
X-15473526Y-26928656D01*
X-15473526Y-26928656D01*
G37*
G36*
X-16887740Y-28342869D02*
X-17382715Y-28837844D01*
X-18372664Y-27847895D01*
X-17877689Y-27352920D01*
X-16887740Y-28342869D01*
X-16887740Y-28342869D01*
G37*
G36*
X-18301954Y-29757083D02*
X-18796929Y-30252058D01*
X-19786878Y-29262109D01*
X-19291903Y-28767134D01*
X-18301954Y-29757083D01*
X-18301954Y-29757083D01*
G37*
G36*
X-12140642Y13024526D02*
X-11681023Y13484145D01*
X-10931490Y12734612D01*
X-11391109Y12274993D01*
X-12140642Y13024526D01*
X-12140642Y13024526D01*
G37*
G36*
X-12812393Y12352774D02*
X-12352774Y12812393D01*
X-11603241Y12062860D01*
X-12062860Y11603241D01*
X-12812393Y12352774D01*
X-12812393Y12352774D01*
G37*
G36*
X-13484145Y11681023D02*
X-13024526Y12140642D01*
X-12274993Y11391109D01*
X-12734612Y10931490D01*
X-13484145Y11681023D01*
X-13484145Y11681023D01*
G37*
G36*
X-11928510Y10125388D02*
X-11468891Y10585007D01*
X-10719358Y9835474D01*
X-11178977Y9375855D01*
X-11928510Y10125388D01*
X-11928510Y10125388D01*
G37*
G36*
X-10585007Y11468891D02*
X-10125388Y11928510D01*
X-9375855Y11178977D01*
X-9835474Y10719358D01*
X-10585007Y11468891D01*
X-10585007Y11468891D01*
G37*
G36*
X-10484526Y-9600642D02*
X-10944145Y-9141023D01*
X-10194612Y-8391490D01*
X-9734993Y-8851109D01*
X-10484526Y-9600642D01*
X-10484526Y-9600642D01*
G37*
G36*
X-9812774Y-10272393D02*
X-10272393Y-9812774D01*
X-9522860Y-9063241D01*
X-9063241Y-9522860D01*
X-9812774Y-10272393D01*
X-9812774Y-10272393D01*
G37*
G36*
X-9141023Y-10944145D02*
X-9600642Y-10484526D01*
X-8851109Y-9734993D01*
X-8391490Y-10194612D01*
X-9141023Y-10944145D01*
X-9141023Y-10944145D01*
G37*
G36*
X-7585388Y-9388510D02*
X-8045007Y-8928891D01*
X-7295474Y-8179358D01*
X-6835855Y-8638977D01*
X-7585388Y-9388510D01*
X-7585388Y-9388510D01*
G37*
G36*
X-8928891Y-8045007D02*
X-9388510Y-7585388D01*
X-8638977Y-6835855D01*
X-8179358Y-7295474D01*
X-8928891Y-8045007D01*
X-8928891Y-8045007D01*
G37*
G36*
X14045642Y-14929526D02*
X13586023Y-15389145D01*
X12836490Y-14639612D01*
X13296109Y-14179993D01*
X14045642Y-14929526D01*
X14045642Y-14929526D01*
G37*
G36*
X14717393Y-14257774D02*
X14257774Y-14717393D01*
X13508241Y-13967860D01*
X13967860Y-13508241D01*
X14717393Y-14257774D01*
X14717393Y-14257774D01*
G37*
G36*
X15389145Y-13586023D02*
X14929526Y-14045642D01*
X14179993Y-13296109D01*
X14639612Y-12836490D01*
X15389145Y-13586023D01*
X15389145Y-13586023D01*
G37*
G36*
X13833510Y-12030388D02*
X13373891Y-12490007D01*
X12624358Y-11740474D01*
X13083977Y-11280855D01*
X13833510Y-12030388D01*
X13833510Y-12030388D01*
G37*
G36*
X12490007Y-13373891D02*
X12030388Y-13833510D01*
X11280855Y-13083977D01*
X11740474Y-12624358D01*
X12490007Y-13373891D01*
X12490007Y-13373891D01*
G37*
G36*
X17775812Y9431951D02*
X19119315Y10775454D01*
X20109264Y9785505D01*
X18765761Y8442002D01*
X17775812Y9431951D01*
X17775812Y9431951D01*
G37*
G36*
X9184464Y19437512D02*
X10527967Y20781015D01*
X11517916Y19791066D01*
X10174413Y18447563D01*
X9184464Y19437512D01*
X9184464Y19437512D01*
G37*
G36*
X23856930Y23715509D02*
X24846879Y24705458D01*
X25766118Y23786219D01*
X24776169Y22796270D01*
X23856930Y23715509D01*
X23856930Y23715509D01*
G37*
G36*
X19826422Y27746018D02*
X20816371Y28735967D01*
X21735610Y27816728D01*
X20745661Y26826779D01*
X19826422Y27746018D01*
X19826422Y27746018D01*
G37*
G36*
X17231339Y15053451D02*
X18291999Y16114111D01*
X18857685Y15548425D01*
X17797025Y14487765D01*
X17231339Y15053451D01*
X17231339Y15053451D01*
G37*
G36*
X16736365Y16114111D02*
X17797025Y17174771D01*
X18362711Y16609085D01*
X17302051Y15548425D01*
X16736365Y16114111D01*
X16736365Y16114111D01*
G37*
G36*
X15675704Y16609086D02*
X16736364Y17669746D01*
X17302050Y17104060D01*
X16241390Y16043400D01*
X15675704Y16609086D01*
X15675704Y16609086D01*
G37*
G36*
X14756466Y17245482D02*
X15817126Y18306142D01*
X16382812Y17740456D01*
X15322152Y16679796D01*
X14756466Y17245482D01*
X14756466Y17245482D01*
G37*
G36*
X14120069Y18164721D02*
X15180729Y19225381D01*
X15746415Y18659695D01*
X14685755Y17599035D01*
X14120069Y18164721D01*
X14120069Y18164721D01*
G37*
G36*
X13200831Y18801117D02*
X14261491Y19861777D01*
X14827177Y19296091D01*
X13766517Y18235431D01*
X13200831Y18801117D01*
X13200831Y18801117D01*
G37*
G36*
X12564435Y19720356D02*
X13625095Y20781016D01*
X14190781Y20215330D01*
X13130121Y19154670D01*
X12564435Y19720356D01*
X12564435Y19720356D01*
G37*
G36*
X11786617Y20498173D02*
X12847277Y21558833D01*
X13412963Y20993147D01*
X12352303Y19932487D01*
X11786617Y20498173D01*
X11786617Y20498173D01*
G37*
G36*
X21230028Y26971736D02*
X21901779Y27643487D01*
X22608886Y26936380D01*
X21937135Y26264629D01*
X21230028Y26971736D01*
X21230028Y26971736D01*
G37*
D11*
X4450000Y-18750000D03*
X4450000Y-18250000D03*
X4450000Y-17750000D03*
X4450000Y-17250000D03*
X4450000Y-16750000D03*
X4450000Y-16250000D03*
X4450000Y-15750000D03*
X4450000Y-15250000D03*
X4450000Y-14750000D03*
X4450000Y-14250000D03*
X4450000Y-13750000D03*
X4450000Y-13250000D03*
X4450000Y-12750000D03*
X4450000Y-12250000D03*
X4450000Y-11750000D03*
X4450000Y-11250000D03*
D12*
X3750000Y-10550000D03*
X3250000Y-10550000D03*
X2750000Y-10550000D03*
X2250000Y-10550000D03*
X1750000Y-10550000D03*
X1250000Y-10550000D03*
X750000Y-10550000D03*
X250000Y-10550000D03*
X-250000Y-10550000D03*
X-750000Y-10550000D03*
X-1250000Y-10550000D03*
X-1750000Y-10550000D03*
X-2250000Y-10550000D03*
X-2750000Y-10550000D03*
X-3250000Y-10550000D03*
X-3750000Y-10550000D03*
D11*
X-4450000Y-11250000D03*
X-4450000Y-11750000D03*
X-4450000Y-12250000D03*
X-4450000Y-12750000D03*
X-4450000Y-13250000D03*
X-4450000Y-13750000D03*
X-4450000Y-14250000D03*
X-4450000Y-14750000D03*
X-4450000Y-15250000D03*
X-4450000Y-15750000D03*
X-4450000Y-16250000D03*
X-4450000Y-16750000D03*
X-4450000Y-17250000D03*
X-4450000Y-17750000D03*
X-4450000Y-18250000D03*
X-4450000Y-18750000D03*
D12*
X-3750000Y-19450000D03*
X-3250000Y-19450000D03*
X-2750000Y-19450000D03*
X-2250000Y-19450000D03*
X-1750000Y-19450000D03*
X-1250000Y-19450000D03*
X-750000Y-19450000D03*
X-250000Y-19450000D03*
X250000Y-19450000D03*
X750000Y-19450000D03*
X1250000Y-19450000D03*
X1750000Y-19450000D03*
X2250000Y-19450000D03*
X2750000Y-19450000D03*
X3250000Y-19450000D03*
X3750000Y-19450000D03*
D13*
X-2756250Y-12243750D03*
X-2756250Y-14081250D03*
X-2756250Y-15918750D03*
X-2756250Y-17756250D03*
X-918750Y-12243750D03*
X-918750Y-14081250D03*
X-918750Y-15918750D03*
X-918750Y-17756250D03*
X918750Y-12243750D03*
X918750Y-14081250D03*
X918750Y-15918750D03*
X918750Y-17756250D03*
X2756250Y-12243750D03*
X2756250Y-14081250D03*
X2756250Y-15918750D03*
X2756250Y-17756250D03*
D12*
X-18750000Y-4450000D03*
X-18250000Y-4450000D03*
X-17750000Y-4450000D03*
X-17250000Y-4450000D03*
X-16750000Y-4450000D03*
X-16250000Y-4450000D03*
X-15750000Y-4450000D03*
X-15250000Y-4450000D03*
X-14750000Y-4450000D03*
X-14250000Y-4450000D03*
X-13750000Y-4450000D03*
X-13250000Y-4450000D03*
X-12750000Y-4450000D03*
X-12250000Y-4450000D03*
X-11750000Y-4450000D03*
X-11250000Y-4450000D03*
D11*
X-10550000Y-3750000D03*
X-10550000Y-3250000D03*
X-10550000Y-2750000D03*
X-10550000Y-2250000D03*
X-10550000Y-1750000D03*
X-10550000Y-1250000D03*
X-10550000Y-750000D03*
X-10550000Y-250000D03*
X-10550000Y250000D03*
X-10550000Y750000D03*
X-10550000Y1250000D03*
X-10550000Y1750000D03*
X-10550000Y2250000D03*
X-10550000Y2750000D03*
X-10550000Y3250000D03*
X-10550000Y3750000D03*
D12*
X-11250000Y4450000D03*
X-11750000Y4450000D03*
X-12250000Y4450000D03*
X-12750000Y4450000D03*
X-13250000Y4450000D03*
X-13750000Y4450000D03*
X-14250000Y4450000D03*
X-14750000Y4450000D03*
X-15250000Y4450000D03*
X-15750000Y4450000D03*
X-16250000Y4450000D03*
X-16750000Y4450000D03*
X-17250000Y4450000D03*
X-17750000Y4450000D03*
X-18250000Y4450000D03*
X-18750000Y4450000D03*
D11*
X-19450000Y3750000D03*
X-19450000Y3250000D03*
X-19450000Y2750000D03*
X-19450000Y2250000D03*
X-19450000Y1750000D03*
X-19450000Y1250000D03*
X-19450000Y750000D03*
X-19450000Y250000D03*
X-19450000Y-250000D03*
X-19450000Y-750000D03*
X-19450000Y-1250000D03*
X-19450000Y-1750000D03*
X-19450000Y-2250000D03*
X-19450000Y-2750000D03*
X-19450000Y-3250000D03*
X-19450000Y-3750000D03*
D13*
X-12243750Y2756250D03*
X-14081250Y2756250D03*
X-15918750Y2756250D03*
X-17756250Y2756250D03*
X-12243750Y918750D03*
X-14081250Y918750D03*
X-15918750Y918750D03*
X-17756250Y918750D03*
X-12243750Y-918750D03*
X-14081250Y-918750D03*
X-15918750Y-918750D03*
X-17756250Y-918750D03*
X-12243750Y-2756250D03*
X-14081250Y-2756250D03*
X-15918750Y-2756250D03*
X-17756250Y-2756250D03*
D11*
X-4450000Y18750000D03*
X-4450000Y18250000D03*
X-4450000Y17750000D03*
X-4450000Y17250000D03*
X-4450000Y16750000D03*
X-4450000Y16250000D03*
X-4450000Y15750000D03*
X-4450000Y15250000D03*
X-4450000Y14750000D03*
X-4450000Y14250000D03*
X-4450000Y13750000D03*
X-4450000Y13250000D03*
X-4450000Y12750000D03*
X-4450000Y12250000D03*
X-4450000Y11750000D03*
X-4450000Y11250000D03*
D12*
X-3750000Y10550000D03*
X-3250000Y10550000D03*
X-2750000Y10550000D03*
X-2250000Y10550000D03*
X-1750000Y10550000D03*
X-1250000Y10550000D03*
X-750000Y10550000D03*
X-250000Y10550000D03*
X250000Y10550000D03*
X750000Y10550000D03*
X1250000Y10550000D03*
X1750000Y10550000D03*
X2250000Y10550000D03*
X2750000Y10550000D03*
X3250000Y10550000D03*
X3750000Y10550000D03*
D11*
X4450000Y11250000D03*
X4450000Y11750000D03*
X4450000Y12250000D03*
X4450000Y12750000D03*
X4450000Y13250000D03*
X4450000Y13750000D03*
X4450000Y14250000D03*
X4450000Y14750000D03*
X4450000Y15250000D03*
X4450000Y15750000D03*
X4450000Y16250000D03*
X4450000Y16750000D03*
X4450000Y17250000D03*
X4450000Y17750000D03*
X4450000Y18250000D03*
X4450000Y18750000D03*
D12*
X3750000Y19450000D03*
X3250000Y19450000D03*
X2750000Y19450000D03*
X2250000Y19450000D03*
X1750000Y19450000D03*
X1250000Y19450000D03*
X750000Y19450000D03*
X250000Y19450000D03*
X-250000Y19450000D03*
X-750000Y19450000D03*
X-1250000Y19450000D03*
X-1750000Y19450000D03*
X-2250000Y19450000D03*
X-2750000Y19450000D03*
X-3250000Y19450000D03*
X-3750000Y19450000D03*
D13*
X2756250Y12243750D03*
X2756250Y14081250D03*
X2756250Y15918750D03*
X2756250Y17756250D03*
X918750Y12243750D03*
X918750Y14081250D03*
X918750Y15918750D03*
X918750Y17756250D03*
X-918750Y12243750D03*
X-918750Y14081250D03*
X-918750Y15918750D03*
X-918750Y17756250D03*
X-2756250Y12243750D03*
X-2756250Y14081250D03*
X-2756250Y15918750D03*
X-2756250Y17756250D03*
D12*
X18750000Y4450000D03*
X18250000Y4450000D03*
X17750000Y4450000D03*
X17250000Y4450000D03*
X16750000Y4450000D03*
X16250000Y4450000D03*
X15750000Y4450000D03*
X15250000Y4450000D03*
X14750000Y4450000D03*
X14250000Y4450000D03*
X13750000Y4450000D03*
X13250000Y4450000D03*
X12750000Y4450000D03*
X12250000Y4450000D03*
X11750000Y4450000D03*
X11250000Y4450000D03*
D11*
X10550000Y3750000D03*
X10550000Y3250000D03*
X10550000Y2750000D03*
X10550000Y2250000D03*
X10550000Y1750000D03*
X10550000Y1250000D03*
X10550000Y750000D03*
X10550000Y250000D03*
X10550000Y-250000D03*
X10550000Y-750000D03*
X10550000Y-1250000D03*
X10550000Y-1750000D03*
X10550000Y-2250000D03*
X10550000Y-2750000D03*
X10550000Y-3250000D03*
X10550000Y-3750000D03*
D12*
X11250000Y-4450000D03*
X11750000Y-4450000D03*
X12250000Y-4450000D03*
X12750000Y-4450000D03*
X13250000Y-4450000D03*
X13750000Y-4450000D03*
X14250000Y-4450000D03*
X14750000Y-4450000D03*
X15250000Y-4450000D03*
X15750000Y-4450000D03*
X16250000Y-4450000D03*
X16750000Y-4450000D03*
X17250000Y-4450000D03*
X17750000Y-4450000D03*
X18250000Y-4450000D03*
X18750000Y-4450000D03*
D11*
X19450000Y-3750000D03*
X19450000Y-3250000D03*
X19450000Y-2750000D03*
X19450000Y-2250000D03*
X19450000Y-1750000D03*
X19450000Y-1250000D03*
X19450000Y-750000D03*
X19450000Y-250000D03*
X19450000Y250000D03*
X19450000Y750000D03*
X19450000Y1250000D03*
X19450000Y1750000D03*
X19450000Y2250000D03*
X19450000Y2750000D03*
X19450000Y3250000D03*
X19450000Y3750000D03*
D13*
X12243750Y-2756250D03*
X14081250Y-2756250D03*
X15918750Y-2756250D03*
X17756250Y-2756250D03*
X12243750Y-918750D03*
X14081250Y-918750D03*
X15918750Y-918750D03*
X17756250Y-918750D03*
X12243750Y918750D03*
X14081250Y918750D03*
X15918750Y918750D03*
X17756250Y918750D03*
X12243750Y2756250D03*
X14081250Y2756250D03*
X15918750Y2756250D03*
X17756250Y2756250D03*
D14*
X8000000Y-16950000D03*
X8000000Y-18050000D03*
X8000000Y-14950000D03*
X8000000Y-16050000D03*
D15*
X1450000Y-6000000D03*
X2550000Y-6000000D03*
X-550000Y-6000000D03*
X550000Y-6000000D03*
D14*
X7000000Y-16950000D03*
X7000000Y-18050000D03*
X7000000Y-14950000D03*
X7000000Y-16050000D03*
D15*
X1450000Y-7000000D03*
X2550000Y-7000000D03*
X-550000Y-7000000D03*
X550000Y-7000000D03*
D14*
X-7000000Y-18050000D03*
X-7000000Y-16950000D03*
X-7000000Y-16050000D03*
X-7000000Y-14950000D03*
X-3000000Y-20950000D03*
X-3000000Y-22050000D03*
D15*
X3050000Y-22000000D03*
X1950000Y-22000000D03*
X1050000Y-22000000D03*
X-50000Y-22000000D03*
X-950000Y-22000000D03*
X-2050000Y-22000000D03*
X2050000Y-21000000D03*
X950000Y-21000000D03*
D14*
X-8000000Y-18050000D03*
X-8000000Y-16950000D03*
X-8000000Y-16050000D03*
X-8000000Y-14950000D03*
D15*
X3050000Y-23000000D03*
X1950000Y-23000000D03*
X1050000Y-23000000D03*
X-50000Y-23000000D03*
X-950000Y-23000000D03*
X-2050000Y-23000000D03*
X-2950000Y-23000000D03*
X-4050000Y-23000000D03*
X-16950000Y-8000000D03*
X-18050000Y-8000000D03*
X-14950000Y-8000000D03*
X-16050000Y-8000000D03*
D14*
X-6000000Y-1450000D03*
X-6000000Y-2550000D03*
X-6000000Y550000D03*
X-6000000Y-550000D03*
D15*
X-16950000Y-7000000D03*
X-18050000Y-7000000D03*
X-14950000Y-7000000D03*
X-16050000Y-7000000D03*
D14*
X-7000000Y-1450000D03*
X-7000000Y-2550000D03*
X-7000000Y550000D03*
X-7000000Y-550000D03*
D15*
X-18050000Y7000000D03*
X-16950000Y7000000D03*
X-16050000Y7000000D03*
X-14950000Y7000000D03*
X-20950000Y3000000D03*
X-22050000Y3000000D03*
D14*
X-22000000Y-3050000D03*
X-22000000Y-1950000D03*
X-22000000Y-1050000D03*
X-22000000Y50000D03*
X-22000000Y950000D03*
X-22000000Y2050000D03*
X-21000000Y-2050000D03*
X-21000000Y-950000D03*
D15*
X-18050000Y8000000D03*
X-16950000Y8000000D03*
X-16050000Y8000000D03*
X-14950000Y8000000D03*
D14*
X-23000000Y-3050000D03*
X-23000000Y-1950000D03*
X-23000000Y-1050000D03*
X-23000000Y50000D03*
X-23000000Y950000D03*
X-23000000Y2050000D03*
X-23000000Y2950000D03*
X-23000000Y4050000D03*
X-8000000Y16950000D03*
X-8000000Y18050000D03*
X-8000000Y14950000D03*
X-8000000Y16050000D03*
D15*
X-1450000Y6000000D03*
X-2550000Y6000000D03*
X550000Y6000000D03*
X-550000Y6000000D03*
D14*
X-7000000Y16950000D03*
X-7000000Y18050000D03*
X-7000000Y14950000D03*
X-7000000Y16050000D03*
D15*
X-1450000Y7000000D03*
X-2550000Y7000000D03*
X550000Y7000000D03*
X-550000Y7000000D03*
D14*
X7000000Y18050000D03*
X7000000Y16950000D03*
X7000000Y16050000D03*
X7000000Y14950000D03*
X3000000Y20950000D03*
X3000000Y22050000D03*
D15*
X-3050000Y22000000D03*
X-1950000Y22000000D03*
X-1050000Y22000000D03*
X50000Y22000000D03*
X950000Y22000000D03*
X2050000Y22000000D03*
X-2050000Y21000000D03*
X-950000Y21000000D03*
D14*
X8000000Y18050000D03*
X8000000Y16950000D03*
X8000000Y16050000D03*
X8000000Y14950000D03*
D15*
X-3050000Y23000000D03*
X-1950000Y23000000D03*
X-1050000Y23000000D03*
X50000Y23000000D03*
X950000Y23000000D03*
X2050000Y23000000D03*
X2950000Y23000000D03*
X4050000Y23000000D03*
X16950000Y8000000D03*
X18050000Y8000000D03*
X14950000Y8000000D03*
X16050000Y8000000D03*
D14*
X6000000Y1450000D03*
X6000000Y2550000D03*
X6000000Y-550000D03*
X6000000Y550000D03*
D15*
X16950000Y7000000D03*
X18050000Y7000000D03*
X14950000Y7000000D03*
X16050000Y7000000D03*
D14*
X7000000Y1450000D03*
X7000000Y2550000D03*
X7000000Y-550000D03*
X7000000Y550000D03*
D15*
X18050000Y-7000000D03*
X16950000Y-7000000D03*
X16050000Y-7000000D03*
X14950000Y-7000000D03*
X20950000Y-3000000D03*
X22050000Y-3000000D03*
D14*
X22000000Y3050000D03*
X22000000Y1950000D03*
X22000000Y1050000D03*
X22000000Y-50000D03*
X22000000Y-950000D03*
X22000000Y-2050000D03*
X21000000Y2050000D03*
X21000000Y950000D03*
D15*
X18050000Y-8000000D03*
X16950000Y-8000000D03*
X16050000Y-8000000D03*
X14950000Y-8000000D03*
D14*
X23000000Y3050000D03*
X23000000Y1950000D03*
X23000000Y1050000D03*
X23000000Y-50000D03*
X23000000Y-950000D03*
X23000000Y-2050000D03*
X23000000Y-2950000D03*
X23000000Y-4050000D03*
D10*
G36*
X11474264Y-6072182D02*
X11827818Y-6425736D01*
X11403554Y-6850000D01*
X11050000Y-6496446D01*
X11474264Y-6072182D01*
X11474264Y-6072182D01*
G37*
G36*
X10696446Y-6850000D02*
X11050000Y-7203554D01*
X10625736Y-7627818D01*
X10272182Y-7274264D01*
X10696446Y-6850000D01*
X10696446Y-6850000D01*
G37*
G36*
X5875736Y-12377818D02*
X5522182Y-12024264D01*
X5946446Y-11600000D01*
X6300000Y-11953554D01*
X5875736Y-12377818D01*
X5875736Y-12377818D01*
G37*
G36*
X6653554Y-11600000D02*
X6300000Y-11246446D01*
X6724264Y-10822182D01*
X7077818Y-11175736D01*
X6653554Y-11600000D01*
X6653554Y-11600000D01*
G37*
G36*
X-10462660Y-15165011D02*
X-9599989Y-14302340D01*
X-8956522Y-14945807D01*
X-9819193Y-15808478D01*
X-10462660Y-15165011D01*
X-10462660Y-15165011D01*
G37*
G36*
X-12633478Y-12994193D02*
X-11770807Y-12131522D01*
X-11127340Y-12774989D01*
X-11990011Y-13637660D01*
X-12633478Y-12994193D01*
X-12633478Y-12994193D01*
G37*
G36*
X-14302340Y-9599989D02*
X-15165011Y-10462660D01*
X-15808478Y-9819193D01*
X-14945807Y-8956522D01*
X-14302340Y-9599989D01*
X-14302340Y-9599989D01*
G37*
G36*
X-12131522Y-11770807D02*
X-12994193Y-12633478D01*
X-13637660Y-11990011D01*
X-12774989Y-11127340D01*
X-12131522Y-11770807D01*
X-12131522Y-11770807D01*
G37*
G36*
X-20872196Y17513439D02*
X-21084328Y17725571D01*
X-20483288Y18326611D01*
X-20271156Y18114479D01*
X-20872196Y17513439D01*
X-20872196Y17513439D01*
G37*
G36*
X-20518642Y17159886D02*
X-20730774Y17372018D01*
X-20129734Y17973058D01*
X-19917602Y17760926D01*
X-20518642Y17159886D01*
X-20518642Y17159886D01*
G37*
G36*
X-20165089Y16806332D02*
X-20377221Y17018464D01*
X-19776181Y17619504D01*
X-19564049Y17407372D01*
X-20165089Y16806332D01*
X-20165089Y16806332D01*
G37*
G36*
X-19811536Y16452779D02*
X-20023668Y16664911D01*
X-19422628Y17265951D01*
X-19210496Y17053819D01*
X-19811536Y16452779D01*
X-19811536Y16452779D01*
G37*
G36*
X-19457982Y16099226D02*
X-19670114Y16311358D01*
X-19069074Y16912398D01*
X-18856942Y16700266D01*
X-19457982Y16099226D01*
X-19457982Y16099226D01*
G37*
G36*
X-19104429Y15745672D02*
X-19316561Y15957804D01*
X-18715521Y16558844D01*
X-18503389Y16346712D01*
X-19104429Y15745672D01*
X-19104429Y15745672D01*
G37*
G36*
X-17513439Y15957804D02*
X-17725571Y15745672D01*
X-18326611Y16346712D01*
X-18114479Y16558844D01*
X-17513439Y15957804D01*
X-17513439Y15957804D01*
G37*
G36*
X-17159886Y16311358D02*
X-17372018Y16099226D01*
X-17973058Y16700266D01*
X-17760926Y16912398D01*
X-17159886Y16311358D01*
X-17159886Y16311358D01*
G37*
G36*
X-16806332Y16664911D02*
X-17018464Y16452779D01*
X-17619504Y17053819D01*
X-17407372Y17265951D01*
X-16806332Y16664911D01*
X-16806332Y16664911D01*
G37*
G36*
X-16452779Y17018464D02*
X-16664911Y16806332D01*
X-17265951Y17407372D01*
X-17053819Y17619504D01*
X-16452779Y17018464D01*
X-16452779Y17018464D01*
G37*
G36*
X-16099226Y17372018D02*
X-16311358Y17159886D01*
X-16912398Y17760926D01*
X-16700266Y17973058D01*
X-16099226Y17372018D01*
X-16099226Y17372018D01*
G37*
G36*
X-15745672Y17725571D02*
X-15957804Y17513439D01*
X-16558844Y18114479D01*
X-16346712Y18326611D01*
X-15745672Y17725571D01*
X-15745672Y17725571D01*
G37*
G36*
X-16346712Y18503389D02*
X-16558844Y18715521D01*
X-15957804Y19316561D01*
X-15745672Y19104429D01*
X-16346712Y18503389D01*
X-16346712Y18503389D01*
G37*
G36*
X-16700266Y18856942D02*
X-16912398Y19069074D01*
X-16311358Y19670114D01*
X-16099226Y19457982D01*
X-16700266Y18856942D01*
X-16700266Y18856942D01*
G37*
G36*
X-17053819Y19210496D02*
X-17265951Y19422628D01*
X-16664911Y20023668D01*
X-16452779Y19811536D01*
X-17053819Y19210496D01*
X-17053819Y19210496D01*
G37*
G36*
X-17407372Y19564049D02*
X-17619504Y19776181D01*
X-17018464Y20377221D01*
X-16806332Y20165089D01*
X-17407372Y19564049D01*
X-17407372Y19564049D01*
G37*
G36*
X-17760926Y19917602D02*
X-17973058Y20129734D01*
X-17372018Y20730774D01*
X-17159886Y20518642D01*
X-17760926Y19917602D01*
X-17760926Y19917602D01*
G37*
G36*
X-18114479Y20271156D02*
X-18326611Y20483288D01*
X-17725571Y21084328D01*
X-17513439Y20872196D01*
X-18114479Y20271156D01*
X-18114479Y20271156D01*
G37*
G36*
X-18503389Y20483288D02*
X-18715521Y20271156D01*
X-19316561Y20872196D01*
X-19104429Y21084328D01*
X-18503389Y20483288D01*
X-18503389Y20483288D01*
G37*
G36*
X-18856942Y20129734D02*
X-19069074Y19917602D01*
X-19670114Y20518642D01*
X-19457982Y20730774D01*
X-18856942Y20129734D01*
X-18856942Y20129734D01*
G37*
G36*
X-19210496Y19776181D02*
X-19422628Y19564049D01*
X-20023668Y20165089D01*
X-19811536Y20377221D01*
X-19210496Y19776181D01*
X-19210496Y19776181D01*
G37*
G36*
X-19564049Y19422628D02*
X-19776181Y19210496D01*
X-20377221Y19811536D01*
X-20165089Y20023668D01*
X-19564049Y19422628D01*
X-19564049Y19422628D01*
G37*
G36*
X-19917602Y19069074D02*
X-20129734Y18856942D01*
X-20730774Y19457982D01*
X-20518642Y19670114D01*
X-19917602Y19069074D01*
X-19917602Y19069074D01*
G37*
G36*
X-20271156Y18715521D02*
X-20483288Y18503389D01*
X-21084328Y19104429D01*
X-20872196Y19316561D01*
X-20271156Y18715521D01*
X-20271156Y18715521D01*
G37*
G36*
X-17495761Y17863457D02*
X-18047304Y18415000D01*
X-17495761Y18966543D01*
X-16944218Y18415000D01*
X-17495761Y17863457D01*
X-17495761Y17863457D01*
G37*
G36*
X-18415000Y18782696D02*
X-18966543Y19334239D01*
X-18415000Y19885782D01*
X-17863457Y19334239D01*
X-18415000Y18782696D01*
X-18415000Y18782696D01*
G37*
G36*
X-18415000Y16944218D02*
X-18966543Y17495761D01*
X-18415000Y18047304D01*
X-17863457Y17495761D01*
X-18415000Y16944218D01*
X-18415000Y16944218D01*
G37*
G36*
X-19334239Y17863457D02*
X-19885782Y18415000D01*
X-19334239Y18966543D01*
X-18782696Y18415000D01*
X-19334239Y17863457D01*
X-19334239Y17863457D01*
G37*
G36*
X-25064426Y16814431D02*
X-26054050Y15824807D01*
X-26901786Y16672543D01*
X-25912162Y17662167D01*
X-25064426Y16814431D01*
X-25064426Y16814431D01*
G37*
G36*
X-26350399Y18100403D02*
X-27340023Y17110779D01*
X-28047667Y17818423D01*
X-27058043Y18808047D01*
X-26350399Y18100403D01*
X-26350399Y18100403D01*
G37*
G36*
X-27905779Y16545023D02*
X-28895403Y15555399D01*
X-29603047Y16263043D01*
X-28613423Y17252667D01*
X-27905779Y16545023D01*
X-27905779Y16545023D01*
G37*
G36*
X-26562333Y15201577D02*
X-27551957Y14211953D01*
X-28259601Y14919597D01*
X-27269977Y15909221D01*
X-26562333Y15201577D01*
X-26562333Y15201577D01*
G37*
G36*
X-11287182Y-11219264D02*
X-11640736Y-11572818D01*
X-12065000Y-11148554D01*
X-11711446Y-10795000D01*
X-11287182Y-11219264D01*
X-11287182Y-11219264D01*
G37*
G36*
X-12065000Y-10441446D02*
X-12418554Y-10795000D01*
X-12842818Y-10370736D01*
X-12489264Y-10017182D01*
X-12065000Y-10441446D01*
X-12065000Y-10441446D01*
G37*
G36*
X5460532Y-8076828D02*
X6379771Y-7157589D01*
X7793984Y-8571802D01*
X6874745Y-9491041D01*
X5460532Y-8076828D01*
X5460532Y-8076828D01*
G37*
G36*
X8288959Y-10905255D02*
X9208198Y-9986016D01*
X10622411Y-11400229D01*
X9703172Y-12319468D01*
X8288959Y-10905255D01*
X8288959Y-10905255D01*
G37*
G36*
X9986016Y-9208198D02*
X10905255Y-8288959D01*
X12319468Y-9703172D01*
X11400229Y-10622411D01*
X9986016Y-9208198D01*
X9986016Y-9208198D01*
G37*
G36*
X7157589Y-6379771D02*
X8076828Y-5460532D01*
X9491041Y-6874745D01*
X8571802Y-7793984D01*
X7157589Y-6379771D01*
X7157589Y-6379771D01*
G37*
G36*
X-19701992Y15578338D02*
X-19171662Y15048008D01*
X-19737348Y14482322D01*
X-20267678Y15012652D01*
X-19701992Y15578338D01*
X-19701992Y15578338D01*
G37*
G36*
X-20762652Y14517678D02*
X-20232322Y13987348D01*
X-20798008Y13421662D01*
X-21328338Y13951992D01*
X-20762652Y14517678D01*
X-20762652Y14517678D01*
G37*
G36*
X-17998008Y13971662D02*
X-18528338Y14501992D01*
X-17962652Y15067678D01*
X-17432322Y14537348D01*
X-17998008Y13971662D01*
X-17998008Y13971662D01*
G37*
G36*
X-16937348Y15032322D02*
X-17467678Y15562652D01*
X-16901992Y16128338D01*
X-16371662Y15598008D01*
X-16937348Y15032322D01*
X-16937348Y15032322D01*
G37*
G36*
X-14010008Y11367662D02*
X-14540338Y11897992D01*
X-13974652Y12463678D01*
X-13444322Y11933348D01*
X-14010008Y11367662D01*
X-14010008Y11367662D01*
G37*
G36*
X-12949348Y12428322D02*
X-13479678Y12958652D01*
X-12913992Y13524338D01*
X-12383662Y12994008D01*
X-12949348Y12428322D01*
X-12949348Y12428322D01*
G37*
G36*
X13675992Y-16318338D02*
X13145662Y-15788008D01*
X13711348Y-15222322D01*
X14241678Y-15752652D01*
X13675992Y-16318338D01*
X13675992Y-16318338D01*
G37*
G36*
X14736652Y-15257678D02*
X14206322Y-14727348D01*
X14772008Y-14161662D01*
X15302338Y-14691992D01*
X14736652Y-15257678D01*
X14736652Y-15257678D01*
G37*
G36*
X-8976992Y11619338D02*
X-8446662Y11089008D01*
X-9012348Y10523322D01*
X-9542678Y11053652D01*
X-8976992Y11619338D01*
X-8976992Y11619338D01*
G37*
G36*
X-10037652Y10558678D02*
X-9507322Y10028348D01*
X-10073008Y9462662D01*
X-10603338Y9992992D01*
X-10037652Y10558678D01*
X-10037652Y10558678D01*
G37*
G36*
X10881992Y-13524338D02*
X10351662Y-12994008D01*
X10917348Y-12428322D01*
X11447678Y-12958652D01*
X10881992Y-13524338D01*
X10881992Y-13524338D01*
G37*
G36*
X11942652Y-12463678D02*
X11412322Y-11933348D01*
X11978008Y-11367662D01*
X12508338Y-11897992D01*
X11942652Y-12463678D01*
X11942652Y-12463678D01*
G37*
G36*
X-8954662Y-11470008D02*
X-9484992Y-12000338D01*
X-10050678Y-11434652D01*
X-9520348Y-10904322D01*
X-8954662Y-11470008D01*
X-8954662Y-11470008D01*
G37*
G36*
X-10015322Y-10409348D02*
X-10545652Y-10939678D01*
X-11111338Y-10373992D01*
X-10581008Y-9843662D01*
X-10015322Y-10409348D01*
X-10015322Y-10409348D01*
G37*
G36*
X-8952338Y-6436992D02*
X-8422008Y-5906662D01*
X-7856322Y-6472348D01*
X-8386652Y-7002678D01*
X-8952338Y-6436992D01*
X-8952338Y-6436992D01*
G37*
G36*
X-7891678Y-7497652D02*
X-7361348Y-6967322D01*
X-6795662Y-7533008D01*
X-7325992Y-8063338D01*
X-7891678Y-7497652D01*
X-7891678Y-7497652D01*
G37*
G36*
X-19225736Y14727818D02*
X-18872182Y14374264D01*
X-19296446Y13950000D01*
X-19650000Y14303554D01*
X-19225736Y14727818D01*
X-19225736Y14727818D01*
G37*
G36*
X-20003554Y13950000D02*
X-19650000Y13596446D01*
X-20074264Y13172182D01*
X-20427818Y13525736D01*
X-20003554Y13950000D01*
X-20003554Y13950000D01*
G37*
G36*
X-17274264Y13722182D02*
X-17627818Y14075736D01*
X-17203554Y14500000D01*
X-16850000Y14146446D01*
X-17274264Y13722182D01*
X-17274264Y13722182D01*
G37*
G36*
X-16496446Y14500000D02*
X-16850000Y14853554D01*
X-16425736Y15277818D01*
X-16072182Y14924264D01*
X-16496446Y14500000D01*
X-16496446Y14500000D01*
G37*
G36*
X-11746338Y-11643992D02*
X-11216008Y-11113662D01*
X-10650322Y-11679348D01*
X-11180652Y-12209678D01*
X-11746338Y-11643992D01*
X-11746338Y-11643992D01*
G37*
G36*
X-10685678Y-12704652D02*
X-10155348Y-12174322D01*
X-9589662Y-12740008D01*
X-10119992Y-13270338D01*
X-10685678Y-12704652D01*
X-10685678Y-12704652D01*
G37*
M02*
