G04 #@! TF.FileFunction,Copper,L2,Inr,Plane*
%FSLAX46Y46*%
G04 Gerber Fmt 4.6, Leading zero omitted, Abs format (unit mm)*
G04 Created by KiCad (PCBNEW 4.0.6-e0-6349~53~ubuntu14.04.1) date Wed Mar 22 00:16:22 2017*
%MOMM*%
%LPD*%
G01*
G04 APERTURE LIST*
%ADD10C,0.100000*%
%ADD11C,1.727200*%
%ADD12R,1.350000X1.350000*%
%ADD13C,1.350000*%
%ADD14R,2.032000X2.032000*%
%ADD15O,2.032000X2.032000*%
%ADD16R,1.727200X1.727200*%
%ADD17O,1.727200X1.727200*%
%ADD18C,0.950000*%
%ADD19C,1.550000*%
%ADD20C,0.600000*%
%ADD21C,0.254000*%
G04 APERTURE END LIST*
D10*
G36*
X64170922Y31392237D02*
X65607763Y32829078D01*
X66829078Y31607763D01*
X65392237Y30170922D01*
X64170922Y31392237D01*
X64170922Y31392237D01*
G37*
D11*
X67403814Y29811712D02*
X67188288Y29596186D01*
X69199865Y28015661D02*
X68984339Y27800135D01*
D12*
X52950000Y65950000D03*
D13*
X52950000Y63950000D03*
X52950000Y61950000D03*
D14*
X0Y-45075001D03*
D15*
X2540000Y-45075001D03*
D16*
X11430000Y-28575000D03*
D17*
X11430000Y-31115000D03*
X8890000Y-28575000D03*
X8890000Y-31115000D03*
X6350000Y-28575000D03*
X6350000Y-31115000D03*
X3810000Y-28575000D03*
X3810000Y-31115000D03*
X1270000Y-28575000D03*
X1270000Y-31115000D03*
X-1270000Y-28575000D03*
X-1270000Y-31115000D03*
X-3810000Y-28575000D03*
X-3810000Y-31115000D03*
X-6350000Y-28575000D03*
X-6350000Y-31115000D03*
X-8890000Y-28575000D03*
X-8890000Y-31115000D03*
X-11430000Y-28575000D03*
X-11430000Y-31115000D03*
D16*
X-28575000Y-11430000D03*
D17*
X-31115000Y-11430000D03*
X-28575000Y-8890000D03*
X-31115000Y-8890000D03*
X-28575000Y-6350000D03*
X-31115000Y-6350000D03*
X-28575000Y-3810000D03*
X-31115000Y-3810000D03*
X-28575000Y-1270000D03*
X-31115000Y-1270000D03*
X-28575000Y1270000D03*
X-31115000Y1270000D03*
X-28575000Y3810000D03*
X-31115000Y3810000D03*
X-28575000Y6350000D03*
X-31115000Y6350000D03*
X-28575000Y8890000D03*
X-31115000Y8890000D03*
X-28575000Y11430000D03*
X-31115000Y11430000D03*
D16*
X-11430000Y28575000D03*
D17*
X-11430000Y31115000D03*
X-8890000Y28575000D03*
X-8890000Y31115000D03*
X-6350000Y28575000D03*
X-6350000Y31115000D03*
X-3810000Y28575000D03*
X-3810000Y31115000D03*
X-1270000Y28575000D03*
X-1270000Y31115000D03*
X1270000Y28575000D03*
X1270000Y31115000D03*
X3810000Y28575000D03*
X3810000Y31115000D03*
X6350000Y28575000D03*
X6350000Y31115000D03*
X8890000Y28575000D03*
X8890000Y31115000D03*
X11430000Y28575000D03*
X11430000Y31115000D03*
D16*
X28575000Y11430000D03*
D17*
X31115000Y11430000D03*
X28575000Y8890000D03*
X31115000Y8890000D03*
X28575000Y6350000D03*
X31115000Y6350000D03*
X28575000Y3810000D03*
X31115000Y3810000D03*
X28575000Y1270000D03*
X31115000Y1270000D03*
X28575000Y-1270000D03*
X31115000Y-1270000D03*
X28575000Y-3810000D03*
X31115000Y-3810000D03*
X28575000Y-6350000D03*
X31115000Y-6350000D03*
X28575000Y-8890000D03*
X31115000Y-8890000D03*
X28575000Y-11430000D03*
X31115000Y-11430000D03*
D10*
G36*
X-27832237Y17720922D02*
X-29269078Y19157763D01*
X-28047763Y20379078D01*
X-26610922Y18942237D01*
X-27832237Y17720922D01*
X-27832237Y17720922D01*
G37*
D11*
X-26251712Y20953814D02*
X-26036186Y20738288D01*
X-24455661Y22749865D02*
X-24240135Y22534339D01*
X-22659609Y24545917D02*
X-22444083Y24330391D01*
X-20863558Y26341968D02*
X-20648032Y26126442D01*
X-19067507Y28138019D02*
X-18851981Y27922493D01*
D10*
G36*
X27832237Y-17720922D02*
X29269078Y-19157763D01*
X28047763Y-20379078D01*
X26610922Y-18942237D01*
X27832237Y-17720922D01*
X27832237Y-17720922D01*
G37*
D11*
X26251712Y-20953814D02*
X26036186Y-20738288D01*
X24455661Y-22749865D02*
X24240135Y-22534339D01*
X22659609Y-24545917D02*
X22444083Y-24330391D01*
X20863558Y-26341968D02*
X20648032Y-26126442D01*
X19067507Y-28138019D02*
X18851981Y-27922493D01*
D18*
X-23523521Y-19986714D03*
X-19987987Y-23522248D03*
D19*
X-26139816Y-21188796D03*
X-21190068Y-26138543D03*
D20*
X4500000Y8500000D03*
X9050000Y-14650000D03*
X13750000Y-9200000D03*
X9200000Y13750000D03*
X-13750000Y9200000D03*
X-9200000Y-13750000D03*
X24000000Y-1000000D03*
X-1000000Y-24000000D03*
X-24000000Y1000000D03*
X1000000Y24000000D03*
X5100000Y-3500000D03*
X5950000Y-3550000D03*
X3550000Y-7000000D03*
X4450000Y-7000000D03*
X6450000Y4950000D03*
X7000000Y4300000D03*
X7100000Y3500000D03*
X8000000Y3500000D03*
X500000Y-5000000D03*
X-5000000Y-500000D03*
X-500000Y5000000D03*
X5000000Y500000D03*
X-3175000Y2540000D03*
X10000000Y11000000D03*
X-12000000Y11000000D03*
X11500000Y-10000000D03*
X7500000Y5500000D03*
X3000000Y-2500000D03*
X5000000Y1500000D03*
X1500000Y-5000000D03*
X-5000000Y-1500000D03*
X-1500000Y5000000D03*
X-2750000Y-6050000D03*
X-4400000Y-5300000D03*
X-6850000Y-3750000D03*
X-6850000Y-4650000D03*
X-4200000Y4650000D03*
X-4200000Y5550000D03*
X-3700000Y6950000D03*
X-4550000Y7000000D03*
X8100000Y-22850000D03*
X8100000Y-21950000D03*
X6800000Y-21300000D03*
X7600000Y-21300000D03*
X7750000Y-14150000D03*
X7950000Y-13350000D03*
X6650000Y-13200000D03*
X6850000Y-12400000D03*
X-7450000Y-11750000D03*
X-7300000Y-12550000D03*
X-7150000Y-13350000D03*
X-7000000Y-14150000D03*
X-4900000Y-23250000D03*
X-4850000Y-22350000D03*
X-4700000Y-21550000D03*
X-4700000Y-20650000D03*
X-22900000Y-8050000D03*
X-22000000Y-8050000D03*
X-21350000Y-6750000D03*
X-21350000Y-7550000D03*
X-14150000Y-7700000D03*
X-13350000Y-7900000D03*
X-13200000Y-6600000D03*
X-12400000Y-6700000D03*
X-11750000Y7400000D03*
X-12550000Y7300000D03*
X-13350000Y7150000D03*
X-14150000Y7000000D03*
X-23150000Y4900000D03*
X-22350000Y4850000D03*
X-21550000Y4700000D03*
X-20700000Y4700000D03*
X-8050000Y22900000D03*
X-8050000Y22000000D03*
X-6750000Y21350000D03*
X-7600000Y21300000D03*
X-7800000Y14100000D03*
X-8000000Y13300000D03*
X-6700000Y13200000D03*
X-6900000Y12400000D03*
X7450000Y11750000D03*
X7300000Y12550000D03*
X7150000Y13350000D03*
X7000000Y14150000D03*
X4850000Y23650000D03*
X4850000Y22750000D03*
X4700000Y21950000D03*
X4700000Y21050000D03*
X22900000Y8050000D03*
X22000000Y8050000D03*
X21350000Y6750000D03*
X21350000Y7550000D03*
X14150000Y7800000D03*
X13350000Y8000000D03*
X13200000Y6700000D03*
X12550000Y7150000D03*
X11750000Y-7450000D03*
X12550000Y-7300000D03*
X13350000Y-7150000D03*
X14150000Y-7000000D03*
X23350000Y-4900000D03*
X22450000Y-4900000D03*
X21650000Y-4700000D03*
X20700000Y-4700000D03*
X-8800000Y-12150000D03*
X7950000Y-12450000D03*
X-12450000Y9000000D03*
X-12450000Y-7700000D03*
X16500000Y13000000D03*
X-15500000Y14000000D03*
X15000000Y-13500000D03*
X9050000Y12400000D03*
X-7900000Y12450000D03*
X12400000Y-9000000D03*
X12500000Y8000000D03*
X-22225000Y-23495000D03*
X-24130000Y-21590000D03*
D21*
G36*
X1510197Y25310197D02*
X1552211Y25282334D01*
X1600000Y25273000D01*
X10033000Y25273000D01*
X10033000Y16840000D01*
X10043006Y16790590D01*
X10070197Y16750197D01*
X16750197Y10070197D01*
X16792211Y10042334D01*
X16840000Y10033000D01*
X25273000Y10033000D01*
X25273000Y1600000D01*
X25283006Y1550590D01*
X25310197Y1510197D01*
X26820394Y0D01*
X25310197Y-1510197D01*
X25282334Y-1552211D01*
X25273000Y-1600000D01*
X25273000Y-10033000D01*
X16840000Y-10033000D01*
X16790590Y-10043006D01*
X16750197Y-10070197D01*
X10070197Y-16750197D01*
X10042334Y-16792211D01*
X10033000Y-16840000D01*
X10033000Y-25273000D01*
X1600000Y-25273000D01*
X1550590Y-25283006D01*
X1510197Y-25310197D01*
X0Y-26820394D01*
X-1510197Y-25310197D01*
X-1552211Y-25282334D01*
X-1600000Y-25273000D01*
X-10033000Y-25273000D01*
X-10033000Y-24185167D01*
X-1935162Y-24185167D01*
X-1793117Y-24528943D01*
X-1530327Y-24792192D01*
X-1186799Y-24934838D01*
X-814833Y-24935162D01*
X-471057Y-24793117D01*
X-207808Y-24530327D01*
X-65162Y-24186799D01*
X-64838Y-23814833D01*
X-206883Y-23471057D01*
X-469673Y-23207808D01*
X-813201Y-23065162D01*
X-1185167Y-23064838D01*
X-1528943Y-23206883D01*
X-1792192Y-23469673D01*
X-1934838Y-23813201D01*
X-1935162Y-24185167D01*
X-10033000Y-24185167D01*
X-10033000Y-23435167D01*
X-5835162Y-23435167D01*
X-5693117Y-23778943D01*
X-5430327Y-24042192D01*
X-5086799Y-24184838D01*
X-4714833Y-24185162D01*
X-4371057Y-24043117D01*
X-4107808Y-23780327D01*
X-3965162Y-23436799D01*
X-3964838Y-23064833D01*
X-4049420Y-22860127D01*
X-3915162Y-22536799D01*
X-3914838Y-22164833D01*
X-3937506Y-22109973D01*
X-3907808Y-22080327D01*
X-3765162Y-21736799D01*
X-3764943Y-21485167D01*
X5864838Y-21485167D01*
X6006883Y-21828943D01*
X6269673Y-22092192D01*
X6613201Y-22234838D01*
X6985167Y-22235162D01*
X7173928Y-22157168D01*
X7274359Y-22400228D01*
X7165162Y-22663201D01*
X7164838Y-23035167D01*
X7306883Y-23378943D01*
X7569673Y-23642192D01*
X7913201Y-23784838D01*
X8285167Y-23785162D01*
X8628943Y-23643117D01*
X8892192Y-23380327D01*
X9034838Y-23036799D01*
X9035162Y-22664833D01*
X8925641Y-22399772D01*
X9034838Y-22136799D01*
X9035162Y-21764833D01*
X8893117Y-21421057D01*
X8630327Y-21157808D01*
X8535159Y-21118291D01*
X8535162Y-21114833D01*
X8393117Y-20771057D01*
X8130327Y-20507808D01*
X7786799Y-20365162D01*
X7414833Y-20364838D01*
X7199896Y-20453648D01*
X6986799Y-20365162D01*
X6614833Y-20364838D01*
X6271057Y-20506883D01*
X6007808Y-20769673D01*
X5865162Y-21113201D01*
X5864838Y-21485167D01*
X-3764943Y-21485167D01*
X-3764838Y-21364833D01*
X-3874359Y-21099772D01*
X-3765162Y-20836799D01*
X-3764838Y-20464833D01*
X-3906883Y-20121057D01*
X-4169673Y-19857808D01*
X-4513201Y-19715162D01*
X-4885167Y-19714838D01*
X-5228943Y-19856883D01*
X-5492192Y-20119673D01*
X-5634838Y-20463201D01*
X-5635162Y-20835167D01*
X-5525641Y-21100228D01*
X-5634838Y-21363201D01*
X-5635162Y-21735167D01*
X-5612494Y-21790027D01*
X-5642192Y-21819673D01*
X-5784838Y-22163201D01*
X-5785162Y-22535167D01*
X-5700580Y-22739873D01*
X-5834838Y-23063201D01*
X-5835162Y-23435167D01*
X-10033000Y-23435167D01*
X-10033000Y-16840000D01*
X-10043006Y-16790590D01*
X-10070197Y-16750197D01*
X-13585241Y-13235153D01*
X-13565162Y-13186799D01*
X-13564838Y-12814833D01*
X-13706883Y-12471057D01*
X-13969673Y-12207808D01*
X-14313201Y-12065162D01*
X-14685167Y-12064838D01*
X-14734976Y-12085418D01*
X-14885227Y-11935167D01*
X-8385162Y-11935167D01*
X-8243117Y-12278943D01*
X-8212561Y-12309552D01*
X-8234838Y-12363201D01*
X-8235162Y-12735167D01*
X-8093117Y-13078943D01*
X-8062561Y-13109552D01*
X-8084838Y-13163201D01*
X-8085162Y-13535167D01*
X-7943117Y-13878943D01*
X-7912561Y-13909552D01*
X-7934838Y-13963201D01*
X-7935162Y-14335167D01*
X-7793117Y-14678943D01*
X-7530327Y-14942192D01*
X-7186799Y-15084838D01*
X-6814833Y-15085162D01*
X-6471057Y-14943117D01*
X-6207808Y-14680327D01*
X-6065162Y-14336799D01*
X-6064838Y-13964833D01*
X-6206883Y-13621057D01*
X-6237439Y-13590448D01*
X-6215162Y-13536799D01*
X-6215030Y-13385167D01*
X5714838Y-13385167D01*
X5856883Y-13728943D01*
X6119673Y-13992192D01*
X6463201Y-14134838D01*
X6815012Y-14135144D01*
X6814838Y-14335167D01*
X6956883Y-14678943D01*
X7219673Y-14942192D01*
X7563201Y-15084838D01*
X7935167Y-15085162D01*
X8278943Y-14943117D01*
X8542192Y-14680327D01*
X8684838Y-14336799D01*
X8685162Y-13964833D01*
X8677095Y-13945310D01*
X8742192Y-13880327D01*
X8884838Y-13536799D01*
X8885162Y-13164833D01*
X8743117Y-12821057D01*
X8480327Y-12557808D01*
X8136799Y-12415162D01*
X7784988Y-12414856D01*
X7785162Y-12214833D01*
X7643117Y-11871057D01*
X7380327Y-11607808D01*
X7036799Y-11465162D01*
X6664833Y-11464838D01*
X6321057Y-11606883D01*
X6057808Y-11869673D01*
X5915162Y-12213201D01*
X5914838Y-12585167D01*
X5922905Y-12604690D01*
X5857808Y-12669673D01*
X5715162Y-13013201D01*
X5714838Y-13385167D01*
X-6215030Y-13385167D01*
X-6214838Y-13164833D01*
X-6356883Y-12821057D01*
X-6387439Y-12790448D01*
X-6365162Y-12736799D01*
X-6364838Y-12364833D01*
X-6506883Y-12021057D01*
X-6537439Y-11990448D01*
X-6515162Y-11936799D01*
X-6514838Y-11564833D01*
X-6656883Y-11221057D01*
X-6919673Y-10957808D01*
X-7263201Y-10815162D01*
X-7635167Y-10814838D01*
X-7978943Y-10956883D01*
X-8242192Y-11219673D01*
X-8384838Y-11563201D01*
X-8385162Y-11935167D01*
X-14885227Y-11935167D01*
X-16750197Y-10070197D01*
X-16792211Y-10042334D01*
X-16840000Y-10033000D01*
X-25273000Y-10033000D01*
X-25273000Y-8235167D01*
X-23835162Y-8235167D01*
X-23693117Y-8578943D01*
X-23430327Y-8842192D01*
X-23086799Y-8984838D01*
X-22714833Y-8985162D01*
X-22449772Y-8875641D01*
X-22186799Y-8984838D01*
X-21814833Y-8985162D01*
X-21471057Y-8843117D01*
X-21207808Y-8580327D01*
X-21168291Y-8485159D01*
X-21164833Y-8485162D01*
X-20821057Y-8343117D01*
X-20557808Y-8080327D01*
X-20476771Y-7885167D01*
X-15085162Y-7885167D01*
X-14943117Y-8228943D01*
X-14680327Y-8492192D01*
X-14336799Y-8634838D01*
X-13964833Y-8635162D01*
X-13945310Y-8627095D01*
X-13880327Y-8692192D01*
X-13536799Y-8834838D01*
X-13164833Y-8835162D01*
X-12821057Y-8693117D01*
X-12557808Y-8430327D01*
X-12415162Y-8086799D01*
X-12414838Y-7714833D01*
X-12447841Y-7634959D01*
X-12214833Y-7635162D01*
X-11871057Y-7493117D01*
X-11607808Y-7230327D01*
X-11589056Y-7185167D01*
X2614838Y-7185167D01*
X2756883Y-7528943D01*
X3019673Y-7792192D01*
X3363201Y-7934838D01*
X3735167Y-7935162D01*
X4000228Y-7825641D01*
X4263201Y-7934838D01*
X4635167Y-7935162D01*
X4978943Y-7793117D01*
X5137168Y-7635167D01*
X10814838Y-7635167D01*
X10956883Y-7978943D01*
X11219673Y-8242192D01*
X11563201Y-8384838D01*
X11935167Y-8385162D01*
X12278943Y-8243117D01*
X12309552Y-8212561D01*
X12363201Y-8234838D01*
X12735167Y-8235162D01*
X13078943Y-8093117D01*
X13109552Y-8062561D01*
X13163201Y-8084838D01*
X13535167Y-8085162D01*
X13878943Y-7943117D01*
X13909552Y-7912561D01*
X13963201Y-7934838D01*
X14335167Y-7935162D01*
X14678943Y-7793117D01*
X14942192Y-7530327D01*
X15084838Y-7186799D01*
X15085162Y-6814833D01*
X14943117Y-6471057D01*
X14680327Y-6207808D01*
X14336799Y-6065162D01*
X13964833Y-6064838D01*
X13621057Y-6206883D01*
X13590448Y-6237439D01*
X13536799Y-6215162D01*
X13164833Y-6214838D01*
X12821057Y-6356883D01*
X12790448Y-6387439D01*
X12736799Y-6365162D01*
X12364833Y-6364838D01*
X12021057Y-6506883D01*
X11990448Y-6537439D01*
X11936799Y-6515162D01*
X11564833Y-6514838D01*
X11221057Y-6656883D01*
X10957808Y-6919673D01*
X10815162Y-7263201D01*
X10814838Y-7635167D01*
X5137168Y-7635167D01*
X5242192Y-7530327D01*
X5384838Y-7186799D01*
X5385162Y-6814833D01*
X5243117Y-6471057D01*
X4980327Y-6207808D01*
X4636799Y-6065162D01*
X4264833Y-6064838D01*
X3999772Y-6174359D01*
X3736799Y-6065162D01*
X3364833Y-6064838D01*
X3021057Y-6206883D01*
X2757808Y-6469673D01*
X2615162Y-6813201D01*
X2614838Y-7185167D01*
X-11589056Y-7185167D01*
X-11465162Y-6886799D01*
X-11464838Y-6514833D01*
X-11606883Y-6171057D01*
X-11869673Y-5907808D01*
X-12213201Y-5765162D01*
X-12585167Y-5764838D01*
X-12679394Y-5803772D01*
X-13013201Y-5665162D01*
X-13385167Y-5664838D01*
X-13728943Y-5806883D01*
X-13992192Y-6069673D01*
X-14134838Y-6413201D01*
X-14135144Y-6765012D01*
X-14335167Y-6764838D01*
X-14678943Y-6906883D01*
X-14942192Y-7169673D01*
X-15084838Y-7513201D01*
X-15085162Y-7885167D01*
X-20476771Y-7885167D01*
X-20415162Y-7736799D01*
X-20414838Y-7364833D01*
X-20503648Y-7149896D01*
X-20415162Y-6936799D01*
X-20414838Y-6564833D01*
X-20556883Y-6221057D01*
X-20819673Y-5957808D01*
X-21163201Y-5815162D01*
X-21535167Y-5814838D01*
X-21878943Y-5956883D01*
X-22142192Y-6219673D01*
X-22284838Y-6563201D01*
X-22285162Y-6935167D01*
X-22207168Y-7123928D01*
X-22450228Y-7224359D01*
X-22713201Y-7115162D01*
X-23085167Y-7114838D01*
X-23428943Y-7256883D01*
X-23692192Y-7519673D01*
X-23834838Y-7863201D01*
X-23835162Y-8235167D01*
X-25273000Y-8235167D01*
X-25273000Y-3935167D01*
X-7785162Y-3935167D01*
X-7675641Y-4200228D01*
X-7784838Y-4463201D01*
X-7785162Y-4835167D01*
X-7643117Y-5178943D01*
X-7380327Y-5442192D01*
X-7036799Y-5584838D01*
X-6664833Y-5585162D01*
X-6422827Y-5485167D01*
X-5335162Y-5485167D01*
X-5193117Y-5828943D01*
X-4930327Y-6092192D01*
X-4586799Y-6234838D01*
X-4214833Y-6235162D01*
X-3871057Y-6093117D01*
X-3684876Y-5907261D01*
X-3685162Y-6235167D01*
X-3543117Y-6578943D01*
X-3280327Y-6842192D01*
X-2936799Y-6984838D01*
X-2564833Y-6985162D01*
X-2221057Y-6843117D01*
X-1957808Y-6580327D01*
X-1815162Y-6236799D01*
X-1814838Y-5864833D01*
X-1956883Y-5521057D01*
X-2219673Y-5257808D01*
X-2394611Y-5185167D01*
X-435162Y-5185167D01*
X-293117Y-5528943D01*
X-30327Y-5792192D01*
X313201Y-5934838D01*
X685167Y-5935162D01*
X1028943Y-5793117D01*
X1292192Y-5530327D01*
X1434838Y-5186799D01*
X1435100Y-4885167D01*
X19764838Y-4885167D01*
X19906883Y-5228943D01*
X20169673Y-5492192D01*
X20513201Y-5634838D01*
X20885167Y-5635162D01*
X21175290Y-5515286D01*
X21463201Y-5634838D01*
X21835167Y-5635162D01*
X21854690Y-5627095D01*
X21919673Y-5692192D01*
X22263201Y-5834838D01*
X22635167Y-5835162D01*
X22900228Y-5725641D01*
X23163201Y-5834838D01*
X23535167Y-5835162D01*
X23878943Y-5693117D01*
X24142192Y-5430327D01*
X24284838Y-5086799D01*
X24285162Y-4714833D01*
X24143117Y-4371057D01*
X23880327Y-4107808D01*
X23536799Y-3965162D01*
X23164833Y-3964838D01*
X22899772Y-4074359D01*
X22636799Y-3965162D01*
X22264833Y-3964838D01*
X22245310Y-3972905D01*
X22180327Y-3907808D01*
X21836799Y-3765162D01*
X21464833Y-3764838D01*
X21174710Y-3884714D01*
X20886799Y-3765162D01*
X20514833Y-3764838D01*
X20171057Y-3906883D01*
X19907808Y-4169673D01*
X19765162Y-4513201D01*
X19764838Y-4885167D01*
X1435100Y-4885167D01*
X1435162Y-4814833D01*
X1293117Y-4471057D01*
X1030327Y-4207808D01*
X686799Y-4065162D01*
X314833Y-4064838D01*
X-28943Y-4206883D01*
X-292192Y-4469673D01*
X-434838Y-4813201D01*
X-435162Y-5185167D01*
X-2394611Y-5185167D01*
X-2563201Y-5115162D01*
X-2935167Y-5114838D01*
X-3278943Y-5256883D01*
X-3465124Y-5442739D01*
X-3464838Y-5114833D01*
X-3606883Y-4771057D01*
X-3869673Y-4507808D01*
X-4213201Y-4365162D01*
X-4585167Y-4364838D01*
X-4928943Y-4506883D01*
X-5192192Y-4769673D01*
X-5334838Y-5113201D01*
X-5335162Y-5485167D01*
X-6422827Y-5485167D01*
X-6321057Y-5443117D01*
X-6057808Y-5180327D01*
X-5915162Y-4836799D01*
X-5914838Y-4464833D01*
X-6024359Y-4199772D01*
X-5915162Y-3936799D01*
X-5914943Y-3685167D01*
X4164838Y-3685167D01*
X4306883Y-4028943D01*
X4569673Y-4292192D01*
X4913201Y-4434838D01*
X5285167Y-4435162D01*
X5464811Y-4360935D01*
X5763201Y-4484838D01*
X6135167Y-4485162D01*
X6478943Y-4343117D01*
X6742192Y-4080327D01*
X6884838Y-3736799D01*
X6885162Y-3364833D01*
X6743117Y-3021057D01*
X6480327Y-2757808D01*
X6136799Y-2615162D01*
X5764833Y-2614838D01*
X5585189Y-2689065D01*
X5286799Y-2565162D01*
X4914833Y-2564838D01*
X4571057Y-2706883D01*
X4307808Y-2969673D01*
X4165162Y-3313201D01*
X4164838Y-3685167D01*
X-5914943Y-3685167D01*
X-5914838Y-3564833D01*
X-6056883Y-3221057D01*
X-6319673Y-2957808D01*
X-6663201Y-2815162D01*
X-7035167Y-2814838D01*
X-7378943Y-2956883D01*
X-7642192Y-3219673D01*
X-7784838Y-3563201D01*
X-7785162Y-3935167D01*
X-25273000Y-3935167D01*
X-25273000Y-1600000D01*
X-25283006Y-1550590D01*
X-25310197Y-1510197D01*
X-26135227Y-685167D01*
X-5935162Y-685167D01*
X-5793117Y-1028943D01*
X-5530327Y-1292192D01*
X-5186799Y-1434838D01*
X-4814833Y-1435162D01*
X-4471057Y-1293117D01*
X-4362919Y-1185167D01*
X23064838Y-1185167D01*
X23206883Y-1528943D01*
X23469673Y-1792192D01*
X23813201Y-1934838D01*
X24185167Y-1935162D01*
X24528943Y-1793117D01*
X24792192Y-1530327D01*
X24934838Y-1186799D01*
X24935162Y-814833D01*
X24793117Y-471057D01*
X24530327Y-207808D01*
X24186799Y-65162D01*
X23814833Y-64838D01*
X23471057Y-206883D01*
X23207808Y-469673D01*
X23065162Y-813201D01*
X23064838Y-1185167D01*
X-4362919Y-1185167D01*
X-4207808Y-1030327D01*
X-4065162Y-686799D01*
X-4064838Y-314833D01*
X-4206883Y28943D01*
X-4469673Y292192D01*
X-4524198Y314833D01*
X4064838Y314833D01*
X4206883Y-28943D01*
X4469673Y-292192D01*
X4813201Y-434838D01*
X5185167Y-435162D01*
X5528943Y-293117D01*
X5792192Y-30327D01*
X5934838Y313201D01*
X5935162Y685167D01*
X5793117Y1028943D01*
X5530327Y1292192D01*
X5186799Y1434838D01*
X4814833Y1435162D01*
X4471057Y1293117D01*
X4207808Y1030327D01*
X4065162Y686799D01*
X4064838Y314833D01*
X-4524198Y314833D01*
X-4813201Y434838D01*
X-5185167Y435162D01*
X-5528943Y293117D01*
X-5792192Y30327D01*
X-5934838Y-313201D01*
X-5935162Y-685167D01*
X-26135227Y-685167D01*
X-26820394Y0D01*
X-26005561Y814833D01*
X-24935162Y814833D01*
X-24793117Y471057D01*
X-24530327Y207808D01*
X-24186799Y65162D01*
X-23814833Y64838D01*
X-23471057Y206883D01*
X-23207808Y469673D01*
X-23065162Y813201D01*
X-23064838Y1185167D01*
X-23206883Y1528943D01*
X-23469673Y1792192D01*
X-23813201Y1934838D01*
X-24185167Y1935162D01*
X-24528943Y1793117D01*
X-24792192Y1530327D01*
X-24934838Y1186799D01*
X-24935162Y814833D01*
X-26005561Y814833D01*
X-25310197Y1510197D01*
X-25282334Y1552211D01*
X-25273000Y1600000D01*
X-25273000Y2354833D01*
X-4110162Y2354833D01*
X-3968117Y2011057D01*
X-3705327Y1747808D01*
X-3361799Y1605162D01*
X-2989833Y1604838D01*
X-2646057Y1746883D01*
X-2382808Y2009673D01*
X-2240162Y2353201D01*
X-2239838Y2725167D01*
X-2381883Y3068943D01*
X-2644673Y3332192D01*
X-2988201Y3474838D01*
X-3360167Y3475162D01*
X-3703943Y3333117D01*
X-3967192Y3070327D01*
X-4109838Y2726799D01*
X-4110162Y2354833D01*
X-25273000Y2354833D01*
X-25273000Y4714833D01*
X-24085162Y4714833D01*
X-23943117Y4371057D01*
X-23680327Y4107808D01*
X-23336799Y3965162D01*
X-22964833Y3964838D01*
X-22810251Y4028710D01*
X-22536799Y3915162D01*
X-22164833Y3914838D01*
X-22109973Y3937506D01*
X-22080327Y3907808D01*
X-21736799Y3765162D01*
X-21364833Y3764838D01*
X-21124834Y3864003D01*
X-20886799Y3765162D01*
X-20514833Y3764838D01*
X-20171057Y3906883D01*
X-19907808Y4169673D01*
X-19765162Y4513201D01*
X-19764838Y4885167D01*
X-19906883Y5228943D01*
X-20169673Y5492192D01*
X-20513201Y5634838D01*
X-20885167Y5635162D01*
X-21125166Y5535997D01*
X-21363201Y5634838D01*
X-21735167Y5635162D01*
X-21790027Y5612494D01*
X-21819673Y5642192D01*
X-22163201Y5784838D01*
X-22535167Y5785162D01*
X-22689749Y5721290D01*
X-22963201Y5834838D01*
X-23335167Y5835162D01*
X-23678943Y5693117D01*
X-23942192Y5430327D01*
X-24084838Y5086799D01*
X-24085162Y4714833D01*
X-25273000Y4714833D01*
X-25273000Y6814833D01*
X-15085162Y6814833D01*
X-14943117Y6471057D01*
X-14680327Y6207808D01*
X-14336799Y6065162D01*
X-13964833Y6064838D01*
X-13621057Y6206883D01*
X-13590448Y6237439D01*
X-13536799Y6215162D01*
X-13164833Y6214838D01*
X-12821057Y6356883D01*
X-12790448Y6387439D01*
X-12736799Y6365162D01*
X-12364833Y6364838D01*
X-12029185Y6503524D01*
X-11936799Y6465162D01*
X-11564833Y6464838D01*
X-11221057Y6606883D01*
X-11012744Y6814833D01*
X-5485162Y6814833D01*
X-5343117Y6471057D01*
X-5080327Y6207808D01*
X-4927895Y6144512D01*
X-4992192Y6080327D01*
X-5134838Y5736799D01*
X-5135162Y5364833D01*
X-5025641Y5099772D01*
X-5134838Y4836799D01*
X-5135162Y4464833D01*
X-4993117Y4121057D01*
X-4730327Y3857808D01*
X-4386799Y3715162D01*
X-4014833Y3714838D01*
X-3671057Y3856883D01*
X-3407808Y4119673D01*
X-3265162Y4463201D01*
X-3264856Y4814833D01*
X-1435162Y4814833D01*
X-1293117Y4471057D01*
X-1030327Y4207808D01*
X-686799Y4065162D01*
X-314833Y4064838D01*
X28943Y4206883D01*
X292192Y4469673D01*
X414753Y4764833D01*
X5514838Y4764833D01*
X5656883Y4421057D01*
X5919673Y4157808D01*
X6073468Y4093946D01*
X6203524Y3779185D01*
X6165162Y3686799D01*
X6164838Y3314833D01*
X6306883Y2971057D01*
X6569673Y2707808D01*
X6913201Y2565162D01*
X7285167Y2564838D01*
X7550228Y2674359D01*
X7813201Y2565162D01*
X8185167Y2564838D01*
X8528943Y2706883D01*
X8792192Y2969673D01*
X8934838Y3313201D01*
X8935162Y3685167D01*
X8793117Y4028943D01*
X8530327Y4292192D01*
X8186799Y4434838D01*
X7935118Y4435057D01*
X7935162Y4485167D01*
X7793117Y4828943D01*
X7530327Y5092192D01*
X7376532Y5156054D01*
X7243117Y5478943D01*
X6980327Y5742192D01*
X6636799Y5884838D01*
X6264833Y5885162D01*
X5921057Y5743117D01*
X5657808Y5480327D01*
X5515162Y5136799D01*
X5514838Y4764833D01*
X414753Y4764833D01*
X434838Y4813201D01*
X435162Y5185167D01*
X293117Y5528943D01*
X30327Y5792192D01*
X-313201Y5934838D01*
X-685167Y5935162D01*
X-1028943Y5793117D01*
X-1292192Y5530327D01*
X-1434838Y5186799D01*
X-1435162Y4814833D01*
X-3264856Y4814833D01*
X-3264838Y4835167D01*
X-3374359Y5100228D01*
X-3265162Y5363201D01*
X-3264838Y5735167D01*
X-3400000Y6062286D01*
X-3171057Y6156883D01*
X-2907808Y6419673D01*
X-2765162Y6763201D01*
X-2764987Y6964833D01*
X11614838Y6964833D01*
X11756883Y6621057D01*
X12019673Y6357808D01*
X12363201Y6215162D01*
X12388668Y6215140D01*
X12406883Y6171057D01*
X12669673Y5907808D01*
X13013201Y5765162D01*
X13385167Y5764838D01*
X13728943Y5906883D01*
X13992192Y6169673D01*
X14134838Y6513201D01*
X14135144Y6865012D01*
X14335167Y6864838D01*
X14678943Y7006883D01*
X14942192Y7269673D01*
X14981706Y7364833D01*
X20414838Y7364833D01*
X20503648Y7149896D01*
X20415162Y6936799D01*
X20414838Y6564833D01*
X20556883Y6221057D01*
X20819673Y5957808D01*
X21163201Y5815162D01*
X21535167Y5814838D01*
X21878943Y5956883D01*
X22142192Y6219673D01*
X22284838Y6563201D01*
X22285162Y6935167D01*
X22207168Y7123928D01*
X22450228Y7224359D01*
X22713201Y7115162D01*
X23085167Y7114838D01*
X23428943Y7256883D01*
X23692192Y7519673D01*
X23834838Y7863201D01*
X23835162Y8235167D01*
X23693117Y8578943D01*
X23430327Y8842192D01*
X23086799Y8984838D01*
X22714833Y8985162D01*
X22449772Y8875641D01*
X22186799Y8984838D01*
X21814833Y8985162D01*
X21471057Y8843117D01*
X21207808Y8580327D01*
X21168291Y8485159D01*
X21164833Y8485162D01*
X20821057Y8343117D01*
X20557808Y8080327D01*
X20415162Y7736799D01*
X20414838Y7364833D01*
X14981706Y7364833D01*
X15084838Y7613201D01*
X15085162Y7985167D01*
X14943117Y8328943D01*
X14680327Y8592192D01*
X14336799Y8734838D01*
X13964833Y8735162D01*
X13945310Y8727095D01*
X13880327Y8792192D01*
X13536799Y8934838D01*
X13164833Y8935162D01*
X12821057Y8793117D01*
X12557808Y8530327D01*
X12415162Y8186799D01*
X12415073Y8085118D01*
X12364833Y8085162D01*
X12021057Y7943117D01*
X11757808Y7680327D01*
X11615162Y7336799D01*
X11614838Y6964833D01*
X-2764987Y6964833D01*
X-2764838Y7135167D01*
X-2906883Y7478943D01*
X-3169673Y7742192D01*
X-3513201Y7884838D01*
X-3885167Y7885162D01*
X-4064811Y7810935D01*
X-4363201Y7934838D01*
X-4735167Y7935162D01*
X-5078943Y7793117D01*
X-5342192Y7530327D01*
X-5484838Y7186799D01*
X-5485162Y6814833D01*
X-11012744Y6814833D01*
X-10957808Y6869673D01*
X-10815162Y7213201D01*
X-10814838Y7585167D01*
X-10956883Y7928943D01*
X-11219673Y8192192D01*
X-11515023Y8314833D01*
X3564838Y8314833D01*
X3706883Y7971057D01*
X3969673Y7707808D01*
X4313201Y7565162D01*
X4685167Y7564838D01*
X5028943Y7706883D01*
X5292192Y7969673D01*
X5434838Y8313201D01*
X5435162Y8685167D01*
X5293117Y9028943D01*
X5030327Y9292192D01*
X4686799Y9434838D01*
X4314833Y9435162D01*
X3971057Y9293117D01*
X3707808Y9030327D01*
X3565162Y8686799D01*
X3564838Y8314833D01*
X-11515023Y8314833D01*
X-11563201Y8334838D01*
X-11935167Y8335162D01*
X-12270815Y8196476D01*
X-12363201Y8234838D01*
X-12735167Y8235162D01*
X-13078943Y8093117D01*
X-13109552Y8062561D01*
X-13163201Y8084838D01*
X-13535167Y8085162D01*
X-13878943Y7943117D01*
X-13909552Y7912561D01*
X-13963201Y7934838D01*
X-14335167Y7935162D01*
X-14678943Y7793117D01*
X-14942192Y7530327D01*
X-15084838Y7186799D01*
X-15085162Y6814833D01*
X-25273000Y6814833D01*
X-25273000Y10033000D01*
X-16840000Y10033000D01*
X-16790590Y10043006D01*
X-16750197Y10070197D01*
X-13705561Y13114833D01*
X-8935162Y13114833D01*
X-8793117Y12771057D01*
X-8530327Y12507808D01*
X-8186799Y12365162D01*
X-7835031Y12364856D01*
X-7835162Y12214833D01*
X-7693117Y11871057D01*
X-7430327Y11607808D01*
X-7086799Y11465162D01*
X-6714833Y11464838D01*
X-6371057Y11606883D01*
X-6107808Y11869673D01*
X-5965162Y12213201D01*
X-5964838Y12585167D01*
X-5972905Y12604690D01*
X-5907808Y12669673D01*
X-5765162Y13013201D01*
X-5764838Y13385167D01*
X-5906883Y13728943D01*
X-6142361Y13964833D01*
X6064838Y13964833D01*
X6206883Y13621057D01*
X6237439Y13590448D01*
X6215162Y13536799D01*
X6214838Y13164833D01*
X6356883Y12821057D01*
X6387439Y12790448D01*
X6365162Y12736799D01*
X6364838Y12364833D01*
X6506883Y12021057D01*
X6537439Y11990448D01*
X6515162Y11936799D01*
X6514838Y11564833D01*
X6656883Y11221057D01*
X6919673Y10957808D01*
X7263201Y10815162D01*
X7635167Y10814838D01*
X7978943Y10956883D01*
X8242192Y11219673D01*
X8384838Y11563201D01*
X8385162Y11935167D01*
X8243117Y12278943D01*
X8212561Y12309552D01*
X8234838Y12363201D01*
X8235162Y12735167D01*
X8093117Y13078943D01*
X8062561Y13109552D01*
X8084838Y13163201D01*
X8085162Y13535167D01*
X7943117Y13878943D01*
X7912561Y13909552D01*
X7934838Y13963201D01*
X7935162Y14335167D01*
X7793117Y14678943D01*
X7530327Y14942192D01*
X7186799Y15084838D01*
X6814833Y15085162D01*
X6471057Y14943117D01*
X6207808Y14680327D01*
X6065162Y14336799D01*
X6064838Y13964833D01*
X-6142361Y13964833D01*
X-6169673Y13992192D01*
X-6513201Y14134838D01*
X-6864969Y14135144D01*
X-6864838Y14285167D01*
X-7006883Y14628943D01*
X-7269673Y14892192D01*
X-7613201Y15034838D01*
X-7985167Y15035162D01*
X-8328943Y14893117D01*
X-8592192Y14630327D01*
X-8734838Y14286799D01*
X-8735162Y13914833D01*
X-8727095Y13895310D01*
X-8792192Y13830327D01*
X-8934838Y13486799D01*
X-8935162Y13114833D01*
X-13705561Y13114833D01*
X-10070197Y16750197D01*
X-10042334Y16792211D01*
X-10033000Y16840000D01*
X-10033000Y22714833D01*
X-8985162Y22714833D01*
X-8875641Y22449772D01*
X-8984838Y22186799D01*
X-8985162Y21814833D01*
X-8843117Y21471057D01*
X-8580327Y21207808D01*
X-8535097Y21189027D01*
X-8535162Y21114833D01*
X-8393117Y20771057D01*
X-8130327Y20507808D01*
X-7786799Y20365162D01*
X-7414833Y20364838D01*
X-7114479Y20488941D01*
X-6936799Y20415162D01*
X-6564833Y20414838D01*
X-6221057Y20556883D01*
X-5957808Y20819673D01*
X-5815162Y21163201D01*
X-5814838Y21535167D01*
X-5909733Y21764833D01*
X3764838Y21764833D01*
X3874359Y21499772D01*
X3765162Y21236799D01*
X3764838Y20864833D01*
X3906883Y20521057D01*
X4169673Y20257808D01*
X4513201Y20115162D01*
X4885167Y20114838D01*
X5228943Y20256883D01*
X5492192Y20519673D01*
X5634838Y20863201D01*
X5635162Y21235167D01*
X5525641Y21500228D01*
X5634838Y21763201D01*
X5635162Y22135167D01*
X5612494Y22190027D01*
X5642192Y22219673D01*
X5784838Y22563201D01*
X5785162Y22935167D01*
X5675641Y23200228D01*
X5784838Y23463201D01*
X5785162Y23835167D01*
X5643117Y24178943D01*
X5380327Y24442192D01*
X5036799Y24584838D01*
X4664833Y24585162D01*
X4321057Y24443117D01*
X4057808Y24180327D01*
X3915162Y23836799D01*
X3914838Y23464833D01*
X4024359Y23199772D01*
X3915162Y22936799D01*
X3914838Y22564833D01*
X3937506Y22509973D01*
X3907808Y22480327D01*
X3765162Y22136799D01*
X3764838Y21764833D01*
X-5909733Y21764833D01*
X-5956883Y21878943D01*
X-6219673Y22142192D01*
X-6563201Y22284838D01*
X-6935167Y22285162D01*
X-7123928Y22207168D01*
X-7224359Y22450228D01*
X-7115162Y22713201D01*
X-7114838Y23085167D01*
X-7256883Y23428943D01*
X-7519673Y23692192D01*
X-7815023Y23814833D01*
X64838Y23814833D01*
X206883Y23471057D01*
X469673Y23207808D01*
X813201Y23065162D01*
X1185167Y23064838D01*
X1528943Y23206883D01*
X1792192Y23469673D01*
X1934838Y23813201D01*
X1935162Y24185167D01*
X1793117Y24528943D01*
X1530327Y24792192D01*
X1186799Y24934838D01*
X814833Y24935162D01*
X471057Y24793117D01*
X207808Y24530327D01*
X65162Y24186799D01*
X64838Y23814833D01*
X-7815023Y23814833D01*
X-7863201Y23834838D01*
X-8235167Y23835162D01*
X-8578943Y23693117D01*
X-8842192Y23430327D01*
X-8984838Y23086799D01*
X-8985162Y22714833D01*
X-10033000Y22714833D01*
X-10033000Y25273000D01*
X-1600000Y25273000D01*
X-1550590Y25283006D01*
X-1510197Y25310197D01*
X0Y26820394D01*
X1510197Y25310197D01*
X1510197Y25310197D01*
G37*
X1510197Y25310197D02*
X1552211Y25282334D01*
X1600000Y25273000D01*
X10033000Y25273000D01*
X10033000Y16840000D01*
X10043006Y16790590D01*
X10070197Y16750197D01*
X16750197Y10070197D01*
X16792211Y10042334D01*
X16840000Y10033000D01*
X25273000Y10033000D01*
X25273000Y1600000D01*
X25283006Y1550590D01*
X25310197Y1510197D01*
X26820394Y0D01*
X25310197Y-1510197D01*
X25282334Y-1552211D01*
X25273000Y-1600000D01*
X25273000Y-10033000D01*
X16840000Y-10033000D01*
X16790590Y-10043006D01*
X16750197Y-10070197D01*
X10070197Y-16750197D01*
X10042334Y-16792211D01*
X10033000Y-16840000D01*
X10033000Y-25273000D01*
X1600000Y-25273000D01*
X1550590Y-25283006D01*
X1510197Y-25310197D01*
X0Y-26820394D01*
X-1510197Y-25310197D01*
X-1552211Y-25282334D01*
X-1600000Y-25273000D01*
X-10033000Y-25273000D01*
X-10033000Y-24185167D01*
X-1935162Y-24185167D01*
X-1793117Y-24528943D01*
X-1530327Y-24792192D01*
X-1186799Y-24934838D01*
X-814833Y-24935162D01*
X-471057Y-24793117D01*
X-207808Y-24530327D01*
X-65162Y-24186799D01*
X-64838Y-23814833D01*
X-206883Y-23471057D01*
X-469673Y-23207808D01*
X-813201Y-23065162D01*
X-1185167Y-23064838D01*
X-1528943Y-23206883D01*
X-1792192Y-23469673D01*
X-1934838Y-23813201D01*
X-1935162Y-24185167D01*
X-10033000Y-24185167D01*
X-10033000Y-23435167D01*
X-5835162Y-23435167D01*
X-5693117Y-23778943D01*
X-5430327Y-24042192D01*
X-5086799Y-24184838D01*
X-4714833Y-24185162D01*
X-4371057Y-24043117D01*
X-4107808Y-23780327D01*
X-3965162Y-23436799D01*
X-3964838Y-23064833D01*
X-4049420Y-22860127D01*
X-3915162Y-22536799D01*
X-3914838Y-22164833D01*
X-3937506Y-22109973D01*
X-3907808Y-22080327D01*
X-3765162Y-21736799D01*
X-3764943Y-21485167D01*
X5864838Y-21485167D01*
X6006883Y-21828943D01*
X6269673Y-22092192D01*
X6613201Y-22234838D01*
X6985167Y-22235162D01*
X7173928Y-22157168D01*
X7274359Y-22400228D01*
X7165162Y-22663201D01*
X7164838Y-23035167D01*
X7306883Y-23378943D01*
X7569673Y-23642192D01*
X7913201Y-23784838D01*
X8285167Y-23785162D01*
X8628943Y-23643117D01*
X8892192Y-23380327D01*
X9034838Y-23036799D01*
X9035162Y-22664833D01*
X8925641Y-22399772D01*
X9034838Y-22136799D01*
X9035162Y-21764833D01*
X8893117Y-21421057D01*
X8630327Y-21157808D01*
X8535159Y-21118291D01*
X8535162Y-21114833D01*
X8393117Y-20771057D01*
X8130327Y-20507808D01*
X7786799Y-20365162D01*
X7414833Y-20364838D01*
X7199896Y-20453648D01*
X6986799Y-20365162D01*
X6614833Y-20364838D01*
X6271057Y-20506883D01*
X6007808Y-20769673D01*
X5865162Y-21113201D01*
X5864838Y-21485167D01*
X-3764943Y-21485167D01*
X-3764838Y-21364833D01*
X-3874359Y-21099772D01*
X-3765162Y-20836799D01*
X-3764838Y-20464833D01*
X-3906883Y-20121057D01*
X-4169673Y-19857808D01*
X-4513201Y-19715162D01*
X-4885167Y-19714838D01*
X-5228943Y-19856883D01*
X-5492192Y-20119673D01*
X-5634838Y-20463201D01*
X-5635162Y-20835167D01*
X-5525641Y-21100228D01*
X-5634838Y-21363201D01*
X-5635162Y-21735167D01*
X-5612494Y-21790027D01*
X-5642192Y-21819673D01*
X-5784838Y-22163201D01*
X-5785162Y-22535167D01*
X-5700580Y-22739873D01*
X-5834838Y-23063201D01*
X-5835162Y-23435167D01*
X-10033000Y-23435167D01*
X-10033000Y-16840000D01*
X-10043006Y-16790590D01*
X-10070197Y-16750197D01*
X-13585241Y-13235153D01*
X-13565162Y-13186799D01*
X-13564838Y-12814833D01*
X-13706883Y-12471057D01*
X-13969673Y-12207808D01*
X-14313201Y-12065162D01*
X-14685167Y-12064838D01*
X-14734976Y-12085418D01*
X-14885227Y-11935167D01*
X-8385162Y-11935167D01*
X-8243117Y-12278943D01*
X-8212561Y-12309552D01*
X-8234838Y-12363201D01*
X-8235162Y-12735167D01*
X-8093117Y-13078943D01*
X-8062561Y-13109552D01*
X-8084838Y-13163201D01*
X-8085162Y-13535167D01*
X-7943117Y-13878943D01*
X-7912561Y-13909552D01*
X-7934838Y-13963201D01*
X-7935162Y-14335167D01*
X-7793117Y-14678943D01*
X-7530327Y-14942192D01*
X-7186799Y-15084838D01*
X-6814833Y-15085162D01*
X-6471057Y-14943117D01*
X-6207808Y-14680327D01*
X-6065162Y-14336799D01*
X-6064838Y-13964833D01*
X-6206883Y-13621057D01*
X-6237439Y-13590448D01*
X-6215162Y-13536799D01*
X-6215030Y-13385167D01*
X5714838Y-13385167D01*
X5856883Y-13728943D01*
X6119673Y-13992192D01*
X6463201Y-14134838D01*
X6815012Y-14135144D01*
X6814838Y-14335167D01*
X6956883Y-14678943D01*
X7219673Y-14942192D01*
X7563201Y-15084838D01*
X7935167Y-15085162D01*
X8278943Y-14943117D01*
X8542192Y-14680327D01*
X8684838Y-14336799D01*
X8685162Y-13964833D01*
X8677095Y-13945310D01*
X8742192Y-13880327D01*
X8884838Y-13536799D01*
X8885162Y-13164833D01*
X8743117Y-12821057D01*
X8480327Y-12557808D01*
X8136799Y-12415162D01*
X7784988Y-12414856D01*
X7785162Y-12214833D01*
X7643117Y-11871057D01*
X7380327Y-11607808D01*
X7036799Y-11465162D01*
X6664833Y-11464838D01*
X6321057Y-11606883D01*
X6057808Y-11869673D01*
X5915162Y-12213201D01*
X5914838Y-12585167D01*
X5922905Y-12604690D01*
X5857808Y-12669673D01*
X5715162Y-13013201D01*
X5714838Y-13385167D01*
X-6215030Y-13385167D01*
X-6214838Y-13164833D01*
X-6356883Y-12821057D01*
X-6387439Y-12790448D01*
X-6365162Y-12736799D01*
X-6364838Y-12364833D01*
X-6506883Y-12021057D01*
X-6537439Y-11990448D01*
X-6515162Y-11936799D01*
X-6514838Y-11564833D01*
X-6656883Y-11221057D01*
X-6919673Y-10957808D01*
X-7263201Y-10815162D01*
X-7635167Y-10814838D01*
X-7978943Y-10956883D01*
X-8242192Y-11219673D01*
X-8384838Y-11563201D01*
X-8385162Y-11935167D01*
X-14885227Y-11935167D01*
X-16750197Y-10070197D01*
X-16792211Y-10042334D01*
X-16840000Y-10033000D01*
X-25273000Y-10033000D01*
X-25273000Y-8235167D01*
X-23835162Y-8235167D01*
X-23693117Y-8578943D01*
X-23430327Y-8842192D01*
X-23086799Y-8984838D01*
X-22714833Y-8985162D01*
X-22449772Y-8875641D01*
X-22186799Y-8984838D01*
X-21814833Y-8985162D01*
X-21471057Y-8843117D01*
X-21207808Y-8580327D01*
X-21168291Y-8485159D01*
X-21164833Y-8485162D01*
X-20821057Y-8343117D01*
X-20557808Y-8080327D01*
X-20476771Y-7885167D01*
X-15085162Y-7885167D01*
X-14943117Y-8228943D01*
X-14680327Y-8492192D01*
X-14336799Y-8634838D01*
X-13964833Y-8635162D01*
X-13945310Y-8627095D01*
X-13880327Y-8692192D01*
X-13536799Y-8834838D01*
X-13164833Y-8835162D01*
X-12821057Y-8693117D01*
X-12557808Y-8430327D01*
X-12415162Y-8086799D01*
X-12414838Y-7714833D01*
X-12447841Y-7634959D01*
X-12214833Y-7635162D01*
X-11871057Y-7493117D01*
X-11607808Y-7230327D01*
X-11589056Y-7185167D01*
X2614838Y-7185167D01*
X2756883Y-7528943D01*
X3019673Y-7792192D01*
X3363201Y-7934838D01*
X3735167Y-7935162D01*
X4000228Y-7825641D01*
X4263201Y-7934838D01*
X4635167Y-7935162D01*
X4978943Y-7793117D01*
X5137168Y-7635167D01*
X10814838Y-7635167D01*
X10956883Y-7978943D01*
X11219673Y-8242192D01*
X11563201Y-8384838D01*
X11935167Y-8385162D01*
X12278943Y-8243117D01*
X12309552Y-8212561D01*
X12363201Y-8234838D01*
X12735167Y-8235162D01*
X13078943Y-8093117D01*
X13109552Y-8062561D01*
X13163201Y-8084838D01*
X13535167Y-8085162D01*
X13878943Y-7943117D01*
X13909552Y-7912561D01*
X13963201Y-7934838D01*
X14335167Y-7935162D01*
X14678943Y-7793117D01*
X14942192Y-7530327D01*
X15084838Y-7186799D01*
X15085162Y-6814833D01*
X14943117Y-6471057D01*
X14680327Y-6207808D01*
X14336799Y-6065162D01*
X13964833Y-6064838D01*
X13621057Y-6206883D01*
X13590448Y-6237439D01*
X13536799Y-6215162D01*
X13164833Y-6214838D01*
X12821057Y-6356883D01*
X12790448Y-6387439D01*
X12736799Y-6365162D01*
X12364833Y-6364838D01*
X12021057Y-6506883D01*
X11990448Y-6537439D01*
X11936799Y-6515162D01*
X11564833Y-6514838D01*
X11221057Y-6656883D01*
X10957808Y-6919673D01*
X10815162Y-7263201D01*
X10814838Y-7635167D01*
X5137168Y-7635167D01*
X5242192Y-7530327D01*
X5384838Y-7186799D01*
X5385162Y-6814833D01*
X5243117Y-6471057D01*
X4980327Y-6207808D01*
X4636799Y-6065162D01*
X4264833Y-6064838D01*
X3999772Y-6174359D01*
X3736799Y-6065162D01*
X3364833Y-6064838D01*
X3021057Y-6206883D01*
X2757808Y-6469673D01*
X2615162Y-6813201D01*
X2614838Y-7185167D01*
X-11589056Y-7185167D01*
X-11465162Y-6886799D01*
X-11464838Y-6514833D01*
X-11606883Y-6171057D01*
X-11869673Y-5907808D01*
X-12213201Y-5765162D01*
X-12585167Y-5764838D01*
X-12679394Y-5803772D01*
X-13013201Y-5665162D01*
X-13385167Y-5664838D01*
X-13728943Y-5806883D01*
X-13992192Y-6069673D01*
X-14134838Y-6413201D01*
X-14135144Y-6765012D01*
X-14335167Y-6764838D01*
X-14678943Y-6906883D01*
X-14942192Y-7169673D01*
X-15084838Y-7513201D01*
X-15085162Y-7885167D01*
X-20476771Y-7885167D01*
X-20415162Y-7736799D01*
X-20414838Y-7364833D01*
X-20503648Y-7149896D01*
X-20415162Y-6936799D01*
X-20414838Y-6564833D01*
X-20556883Y-6221057D01*
X-20819673Y-5957808D01*
X-21163201Y-5815162D01*
X-21535167Y-5814838D01*
X-21878943Y-5956883D01*
X-22142192Y-6219673D01*
X-22284838Y-6563201D01*
X-22285162Y-6935167D01*
X-22207168Y-7123928D01*
X-22450228Y-7224359D01*
X-22713201Y-7115162D01*
X-23085167Y-7114838D01*
X-23428943Y-7256883D01*
X-23692192Y-7519673D01*
X-23834838Y-7863201D01*
X-23835162Y-8235167D01*
X-25273000Y-8235167D01*
X-25273000Y-3935167D01*
X-7785162Y-3935167D01*
X-7675641Y-4200228D01*
X-7784838Y-4463201D01*
X-7785162Y-4835167D01*
X-7643117Y-5178943D01*
X-7380327Y-5442192D01*
X-7036799Y-5584838D01*
X-6664833Y-5585162D01*
X-6422827Y-5485167D01*
X-5335162Y-5485167D01*
X-5193117Y-5828943D01*
X-4930327Y-6092192D01*
X-4586799Y-6234838D01*
X-4214833Y-6235162D01*
X-3871057Y-6093117D01*
X-3684876Y-5907261D01*
X-3685162Y-6235167D01*
X-3543117Y-6578943D01*
X-3280327Y-6842192D01*
X-2936799Y-6984838D01*
X-2564833Y-6985162D01*
X-2221057Y-6843117D01*
X-1957808Y-6580327D01*
X-1815162Y-6236799D01*
X-1814838Y-5864833D01*
X-1956883Y-5521057D01*
X-2219673Y-5257808D01*
X-2394611Y-5185167D01*
X-435162Y-5185167D01*
X-293117Y-5528943D01*
X-30327Y-5792192D01*
X313201Y-5934838D01*
X685167Y-5935162D01*
X1028943Y-5793117D01*
X1292192Y-5530327D01*
X1434838Y-5186799D01*
X1435100Y-4885167D01*
X19764838Y-4885167D01*
X19906883Y-5228943D01*
X20169673Y-5492192D01*
X20513201Y-5634838D01*
X20885167Y-5635162D01*
X21175290Y-5515286D01*
X21463201Y-5634838D01*
X21835167Y-5635162D01*
X21854690Y-5627095D01*
X21919673Y-5692192D01*
X22263201Y-5834838D01*
X22635167Y-5835162D01*
X22900228Y-5725641D01*
X23163201Y-5834838D01*
X23535167Y-5835162D01*
X23878943Y-5693117D01*
X24142192Y-5430327D01*
X24284838Y-5086799D01*
X24285162Y-4714833D01*
X24143117Y-4371057D01*
X23880327Y-4107808D01*
X23536799Y-3965162D01*
X23164833Y-3964838D01*
X22899772Y-4074359D01*
X22636799Y-3965162D01*
X22264833Y-3964838D01*
X22245310Y-3972905D01*
X22180327Y-3907808D01*
X21836799Y-3765162D01*
X21464833Y-3764838D01*
X21174710Y-3884714D01*
X20886799Y-3765162D01*
X20514833Y-3764838D01*
X20171057Y-3906883D01*
X19907808Y-4169673D01*
X19765162Y-4513201D01*
X19764838Y-4885167D01*
X1435100Y-4885167D01*
X1435162Y-4814833D01*
X1293117Y-4471057D01*
X1030327Y-4207808D01*
X686799Y-4065162D01*
X314833Y-4064838D01*
X-28943Y-4206883D01*
X-292192Y-4469673D01*
X-434838Y-4813201D01*
X-435162Y-5185167D01*
X-2394611Y-5185167D01*
X-2563201Y-5115162D01*
X-2935167Y-5114838D01*
X-3278943Y-5256883D01*
X-3465124Y-5442739D01*
X-3464838Y-5114833D01*
X-3606883Y-4771057D01*
X-3869673Y-4507808D01*
X-4213201Y-4365162D01*
X-4585167Y-4364838D01*
X-4928943Y-4506883D01*
X-5192192Y-4769673D01*
X-5334838Y-5113201D01*
X-5335162Y-5485167D01*
X-6422827Y-5485167D01*
X-6321057Y-5443117D01*
X-6057808Y-5180327D01*
X-5915162Y-4836799D01*
X-5914838Y-4464833D01*
X-6024359Y-4199772D01*
X-5915162Y-3936799D01*
X-5914943Y-3685167D01*
X4164838Y-3685167D01*
X4306883Y-4028943D01*
X4569673Y-4292192D01*
X4913201Y-4434838D01*
X5285167Y-4435162D01*
X5464811Y-4360935D01*
X5763201Y-4484838D01*
X6135167Y-4485162D01*
X6478943Y-4343117D01*
X6742192Y-4080327D01*
X6884838Y-3736799D01*
X6885162Y-3364833D01*
X6743117Y-3021057D01*
X6480327Y-2757808D01*
X6136799Y-2615162D01*
X5764833Y-2614838D01*
X5585189Y-2689065D01*
X5286799Y-2565162D01*
X4914833Y-2564838D01*
X4571057Y-2706883D01*
X4307808Y-2969673D01*
X4165162Y-3313201D01*
X4164838Y-3685167D01*
X-5914943Y-3685167D01*
X-5914838Y-3564833D01*
X-6056883Y-3221057D01*
X-6319673Y-2957808D01*
X-6663201Y-2815162D01*
X-7035167Y-2814838D01*
X-7378943Y-2956883D01*
X-7642192Y-3219673D01*
X-7784838Y-3563201D01*
X-7785162Y-3935167D01*
X-25273000Y-3935167D01*
X-25273000Y-1600000D01*
X-25283006Y-1550590D01*
X-25310197Y-1510197D01*
X-26135227Y-685167D01*
X-5935162Y-685167D01*
X-5793117Y-1028943D01*
X-5530327Y-1292192D01*
X-5186799Y-1434838D01*
X-4814833Y-1435162D01*
X-4471057Y-1293117D01*
X-4362919Y-1185167D01*
X23064838Y-1185167D01*
X23206883Y-1528943D01*
X23469673Y-1792192D01*
X23813201Y-1934838D01*
X24185167Y-1935162D01*
X24528943Y-1793117D01*
X24792192Y-1530327D01*
X24934838Y-1186799D01*
X24935162Y-814833D01*
X24793117Y-471057D01*
X24530327Y-207808D01*
X24186799Y-65162D01*
X23814833Y-64838D01*
X23471057Y-206883D01*
X23207808Y-469673D01*
X23065162Y-813201D01*
X23064838Y-1185167D01*
X-4362919Y-1185167D01*
X-4207808Y-1030327D01*
X-4065162Y-686799D01*
X-4064838Y-314833D01*
X-4206883Y28943D01*
X-4469673Y292192D01*
X-4524198Y314833D01*
X4064838Y314833D01*
X4206883Y-28943D01*
X4469673Y-292192D01*
X4813201Y-434838D01*
X5185167Y-435162D01*
X5528943Y-293117D01*
X5792192Y-30327D01*
X5934838Y313201D01*
X5935162Y685167D01*
X5793117Y1028943D01*
X5530327Y1292192D01*
X5186799Y1434838D01*
X4814833Y1435162D01*
X4471057Y1293117D01*
X4207808Y1030327D01*
X4065162Y686799D01*
X4064838Y314833D01*
X-4524198Y314833D01*
X-4813201Y434838D01*
X-5185167Y435162D01*
X-5528943Y293117D01*
X-5792192Y30327D01*
X-5934838Y-313201D01*
X-5935162Y-685167D01*
X-26135227Y-685167D01*
X-26820394Y0D01*
X-26005561Y814833D01*
X-24935162Y814833D01*
X-24793117Y471057D01*
X-24530327Y207808D01*
X-24186799Y65162D01*
X-23814833Y64838D01*
X-23471057Y206883D01*
X-23207808Y469673D01*
X-23065162Y813201D01*
X-23064838Y1185167D01*
X-23206883Y1528943D01*
X-23469673Y1792192D01*
X-23813201Y1934838D01*
X-24185167Y1935162D01*
X-24528943Y1793117D01*
X-24792192Y1530327D01*
X-24934838Y1186799D01*
X-24935162Y814833D01*
X-26005561Y814833D01*
X-25310197Y1510197D01*
X-25282334Y1552211D01*
X-25273000Y1600000D01*
X-25273000Y2354833D01*
X-4110162Y2354833D01*
X-3968117Y2011057D01*
X-3705327Y1747808D01*
X-3361799Y1605162D01*
X-2989833Y1604838D01*
X-2646057Y1746883D01*
X-2382808Y2009673D01*
X-2240162Y2353201D01*
X-2239838Y2725167D01*
X-2381883Y3068943D01*
X-2644673Y3332192D01*
X-2988201Y3474838D01*
X-3360167Y3475162D01*
X-3703943Y3333117D01*
X-3967192Y3070327D01*
X-4109838Y2726799D01*
X-4110162Y2354833D01*
X-25273000Y2354833D01*
X-25273000Y4714833D01*
X-24085162Y4714833D01*
X-23943117Y4371057D01*
X-23680327Y4107808D01*
X-23336799Y3965162D01*
X-22964833Y3964838D01*
X-22810251Y4028710D01*
X-22536799Y3915162D01*
X-22164833Y3914838D01*
X-22109973Y3937506D01*
X-22080327Y3907808D01*
X-21736799Y3765162D01*
X-21364833Y3764838D01*
X-21124834Y3864003D01*
X-20886799Y3765162D01*
X-20514833Y3764838D01*
X-20171057Y3906883D01*
X-19907808Y4169673D01*
X-19765162Y4513201D01*
X-19764838Y4885167D01*
X-19906883Y5228943D01*
X-20169673Y5492192D01*
X-20513201Y5634838D01*
X-20885167Y5635162D01*
X-21125166Y5535997D01*
X-21363201Y5634838D01*
X-21735167Y5635162D01*
X-21790027Y5612494D01*
X-21819673Y5642192D01*
X-22163201Y5784838D01*
X-22535167Y5785162D01*
X-22689749Y5721290D01*
X-22963201Y5834838D01*
X-23335167Y5835162D01*
X-23678943Y5693117D01*
X-23942192Y5430327D01*
X-24084838Y5086799D01*
X-24085162Y4714833D01*
X-25273000Y4714833D01*
X-25273000Y6814833D01*
X-15085162Y6814833D01*
X-14943117Y6471057D01*
X-14680327Y6207808D01*
X-14336799Y6065162D01*
X-13964833Y6064838D01*
X-13621057Y6206883D01*
X-13590448Y6237439D01*
X-13536799Y6215162D01*
X-13164833Y6214838D01*
X-12821057Y6356883D01*
X-12790448Y6387439D01*
X-12736799Y6365162D01*
X-12364833Y6364838D01*
X-12029185Y6503524D01*
X-11936799Y6465162D01*
X-11564833Y6464838D01*
X-11221057Y6606883D01*
X-11012744Y6814833D01*
X-5485162Y6814833D01*
X-5343117Y6471057D01*
X-5080327Y6207808D01*
X-4927895Y6144512D01*
X-4992192Y6080327D01*
X-5134838Y5736799D01*
X-5135162Y5364833D01*
X-5025641Y5099772D01*
X-5134838Y4836799D01*
X-5135162Y4464833D01*
X-4993117Y4121057D01*
X-4730327Y3857808D01*
X-4386799Y3715162D01*
X-4014833Y3714838D01*
X-3671057Y3856883D01*
X-3407808Y4119673D01*
X-3265162Y4463201D01*
X-3264856Y4814833D01*
X-1435162Y4814833D01*
X-1293117Y4471057D01*
X-1030327Y4207808D01*
X-686799Y4065162D01*
X-314833Y4064838D01*
X28943Y4206883D01*
X292192Y4469673D01*
X414753Y4764833D01*
X5514838Y4764833D01*
X5656883Y4421057D01*
X5919673Y4157808D01*
X6073468Y4093946D01*
X6203524Y3779185D01*
X6165162Y3686799D01*
X6164838Y3314833D01*
X6306883Y2971057D01*
X6569673Y2707808D01*
X6913201Y2565162D01*
X7285167Y2564838D01*
X7550228Y2674359D01*
X7813201Y2565162D01*
X8185167Y2564838D01*
X8528943Y2706883D01*
X8792192Y2969673D01*
X8934838Y3313201D01*
X8935162Y3685167D01*
X8793117Y4028943D01*
X8530327Y4292192D01*
X8186799Y4434838D01*
X7935118Y4435057D01*
X7935162Y4485167D01*
X7793117Y4828943D01*
X7530327Y5092192D01*
X7376532Y5156054D01*
X7243117Y5478943D01*
X6980327Y5742192D01*
X6636799Y5884838D01*
X6264833Y5885162D01*
X5921057Y5743117D01*
X5657808Y5480327D01*
X5515162Y5136799D01*
X5514838Y4764833D01*
X414753Y4764833D01*
X434838Y4813201D01*
X435162Y5185167D01*
X293117Y5528943D01*
X30327Y5792192D01*
X-313201Y5934838D01*
X-685167Y5935162D01*
X-1028943Y5793117D01*
X-1292192Y5530327D01*
X-1434838Y5186799D01*
X-1435162Y4814833D01*
X-3264856Y4814833D01*
X-3264838Y4835167D01*
X-3374359Y5100228D01*
X-3265162Y5363201D01*
X-3264838Y5735167D01*
X-3400000Y6062286D01*
X-3171057Y6156883D01*
X-2907808Y6419673D01*
X-2765162Y6763201D01*
X-2764987Y6964833D01*
X11614838Y6964833D01*
X11756883Y6621057D01*
X12019673Y6357808D01*
X12363201Y6215162D01*
X12388668Y6215140D01*
X12406883Y6171057D01*
X12669673Y5907808D01*
X13013201Y5765162D01*
X13385167Y5764838D01*
X13728943Y5906883D01*
X13992192Y6169673D01*
X14134838Y6513201D01*
X14135144Y6865012D01*
X14335167Y6864838D01*
X14678943Y7006883D01*
X14942192Y7269673D01*
X14981706Y7364833D01*
X20414838Y7364833D01*
X20503648Y7149896D01*
X20415162Y6936799D01*
X20414838Y6564833D01*
X20556883Y6221057D01*
X20819673Y5957808D01*
X21163201Y5815162D01*
X21535167Y5814838D01*
X21878943Y5956883D01*
X22142192Y6219673D01*
X22284838Y6563201D01*
X22285162Y6935167D01*
X22207168Y7123928D01*
X22450228Y7224359D01*
X22713201Y7115162D01*
X23085167Y7114838D01*
X23428943Y7256883D01*
X23692192Y7519673D01*
X23834838Y7863201D01*
X23835162Y8235167D01*
X23693117Y8578943D01*
X23430327Y8842192D01*
X23086799Y8984838D01*
X22714833Y8985162D01*
X22449772Y8875641D01*
X22186799Y8984838D01*
X21814833Y8985162D01*
X21471057Y8843117D01*
X21207808Y8580327D01*
X21168291Y8485159D01*
X21164833Y8485162D01*
X20821057Y8343117D01*
X20557808Y8080327D01*
X20415162Y7736799D01*
X20414838Y7364833D01*
X14981706Y7364833D01*
X15084838Y7613201D01*
X15085162Y7985167D01*
X14943117Y8328943D01*
X14680327Y8592192D01*
X14336799Y8734838D01*
X13964833Y8735162D01*
X13945310Y8727095D01*
X13880327Y8792192D01*
X13536799Y8934838D01*
X13164833Y8935162D01*
X12821057Y8793117D01*
X12557808Y8530327D01*
X12415162Y8186799D01*
X12415073Y8085118D01*
X12364833Y8085162D01*
X12021057Y7943117D01*
X11757808Y7680327D01*
X11615162Y7336799D01*
X11614838Y6964833D01*
X-2764987Y6964833D01*
X-2764838Y7135167D01*
X-2906883Y7478943D01*
X-3169673Y7742192D01*
X-3513201Y7884838D01*
X-3885167Y7885162D01*
X-4064811Y7810935D01*
X-4363201Y7934838D01*
X-4735167Y7935162D01*
X-5078943Y7793117D01*
X-5342192Y7530327D01*
X-5484838Y7186799D01*
X-5485162Y6814833D01*
X-11012744Y6814833D01*
X-10957808Y6869673D01*
X-10815162Y7213201D01*
X-10814838Y7585167D01*
X-10956883Y7928943D01*
X-11219673Y8192192D01*
X-11515023Y8314833D01*
X3564838Y8314833D01*
X3706883Y7971057D01*
X3969673Y7707808D01*
X4313201Y7565162D01*
X4685167Y7564838D01*
X5028943Y7706883D01*
X5292192Y7969673D01*
X5434838Y8313201D01*
X5435162Y8685167D01*
X5293117Y9028943D01*
X5030327Y9292192D01*
X4686799Y9434838D01*
X4314833Y9435162D01*
X3971057Y9293117D01*
X3707808Y9030327D01*
X3565162Y8686799D01*
X3564838Y8314833D01*
X-11515023Y8314833D01*
X-11563201Y8334838D01*
X-11935167Y8335162D01*
X-12270815Y8196476D01*
X-12363201Y8234838D01*
X-12735167Y8235162D01*
X-13078943Y8093117D01*
X-13109552Y8062561D01*
X-13163201Y8084838D01*
X-13535167Y8085162D01*
X-13878943Y7943117D01*
X-13909552Y7912561D01*
X-13963201Y7934838D01*
X-14335167Y7935162D01*
X-14678943Y7793117D01*
X-14942192Y7530327D01*
X-15084838Y7186799D01*
X-15085162Y6814833D01*
X-25273000Y6814833D01*
X-25273000Y10033000D01*
X-16840000Y10033000D01*
X-16790590Y10043006D01*
X-16750197Y10070197D01*
X-13705561Y13114833D01*
X-8935162Y13114833D01*
X-8793117Y12771057D01*
X-8530327Y12507808D01*
X-8186799Y12365162D01*
X-7835031Y12364856D01*
X-7835162Y12214833D01*
X-7693117Y11871057D01*
X-7430327Y11607808D01*
X-7086799Y11465162D01*
X-6714833Y11464838D01*
X-6371057Y11606883D01*
X-6107808Y11869673D01*
X-5965162Y12213201D01*
X-5964838Y12585167D01*
X-5972905Y12604690D01*
X-5907808Y12669673D01*
X-5765162Y13013201D01*
X-5764838Y13385167D01*
X-5906883Y13728943D01*
X-6142361Y13964833D01*
X6064838Y13964833D01*
X6206883Y13621057D01*
X6237439Y13590448D01*
X6215162Y13536799D01*
X6214838Y13164833D01*
X6356883Y12821057D01*
X6387439Y12790448D01*
X6365162Y12736799D01*
X6364838Y12364833D01*
X6506883Y12021057D01*
X6537439Y11990448D01*
X6515162Y11936799D01*
X6514838Y11564833D01*
X6656883Y11221057D01*
X6919673Y10957808D01*
X7263201Y10815162D01*
X7635167Y10814838D01*
X7978943Y10956883D01*
X8242192Y11219673D01*
X8384838Y11563201D01*
X8385162Y11935167D01*
X8243117Y12278943D01*
X8212561Y12309552D01*
X8234838Y12363201D01*
X8235162Y12735167D01*
X8093117Y13078943D01*
X8062561Y13109552D01*
X8084838Y13163201D01*
X8085162Y13535167D01*
X7943117Y13878943D01*
X7912561Y13909552D01*
X7934838Y13963201D01*
X7935162Y14335167D01*
X7793117Y14678943D01*
X7530327Y14942192D01*
X7186799Y15084838D01*
X6814833Y15085162D01*
X6471057Y14943117D01*
X6207808Y14680327D01*
X6065162Y14336799D01*
X6064838Y13964833D01*
X-6142361Y13964833D01*
X-6169673Y13992192D01*
X-6513201Y14134838D01*
X-6864969Y14135144D01*
X-6864838Y14285167D01*
X-7006883Y14628943D01*
X-7269673Y14892192D01*
X-7613201Y15034838D01*
X-7985167Y15035162D01*
X-8328943Y14893117D01*
X-8592192Y14630327D01*
X-8734838Y14286799D01*
X-8735162Y13914833D01*
X-8727095Y13895310D01*
X-8792192Y13830327D01*
X-8934838Y13486799D01*
X-8935162Y13114833D01*
X-13705561Y13114833D01*
X-10070197Y16750197D01*
X-10042334Y16792211D01*
X-10033000Y16840000D01*
X-10033000Y22714833D01*
X-8985162Y22714833D01*
X-8875641Y22449772D01*
X-8984838Y22186799D01*
X-8985162Y21814833D01*
X-8843117Y21471057D01*
X-8580327Y21207808D01*
X-8535097Y21189027D01*
X-8535162Y21114833D01*
X-8393117Y20771057D01*
X-8130327Y20507808D01*
X-7786799Y20365162D01*
X-7414833Y20364838D01*
X-7114479Y20488941D01*
X-6936799Y20415162D01*
X-6564833Y20414838D01*
X-6221057Y20556883D01*
X-5957808Y20819673D01*
X-5815162Y21163201D01*
X-5814838Y21535167D01*
X-5909733Y21764833D01*
X3764838Y21764833D01*
X3874359Y21499772D01*
X3765162Y21236799D01*
X3764838Y20864833D01*
X3906883Y20521057D01*
X4169673Y20257808D01*
X4513201Y20115162D01*
X4885167Y20114838D01*
X5228943Y20256883D01*
X5492192Y20519673D01*
X5634838Y20863201D01*
X5635162Y21235167D01*
X5525641Y21500228D01*
X5634838Y21763201D01*
X5635162Y22135167D01*
X5612494Y22190027D01*
X5642192Y22219673D01*
X5784838Y22563201D01*
X5785162Y22935167D01*
X5675641Y23200228D01*
X5784838Y23463201D01*
X5785162Y23835167D01*
X5643117Y24178943D01*
X5380327Y24442192D01*
X5036799Y24584838D01*
X4664833Y24585162D01*
X4321057Y24443117D01*
X4057808Y24180327D01*
X3915162Y23836799D01*
X3914838Y23464833D01*
X4024359Y23199772D01*
X3915162Y22936799D01*
X3914838Y22564833D01*
X3937506Y22509973D01*
X3907808Y22480327D01*
X3765162Y22136799D01*
X3764838Y21764833D01*
X-5909733Y21764833D01*
X-5956883Y21878943D01*
X-6219673Y22142192D01*
X-6563201Y22284838D01*
X-6935167Y22285162D01*
X-7123928Y22207168D01*
X-7224359Y22450228D01*
X-7115162Y22713201D01*
X-7114838Y23085167D01*
X-7256883Y23428943D01*
X-7519673Y23692192D01*
X-7815023Y23814833D01*
X64838Y23814833D01*
X206883Y23471057D01*
X469673Y23207808D01*
X813201Y23065162D01*
X1185167Y23064838D01*
X1528943Y23206883D01*
X1792192Y23469673D01*
X1934838Y23813201D01*
X1935162Y24185167D01*
X1793117Y24528943D01*
X1530327Y24792192D01*
X1186799Y24934838D01*
X814833Y24935162D01*
X471057Y24793117D01*
X207808Y24530327D01*
X65162Y24186799D01*
X64838Y23814833D01*
X-7815023Y23814833D01*
X-7863201Y23834838D01*
X-8235167Y23835162D01*
X-8578943Y23693117D01*
X-8842192Y23430327D01*
X-8984838Y23086799D01*
X-8985162Y22714833D01*
X-10033000Y22714833D01*
X-10033000Y25273000D01*
X-1600000Y25273000D01*
X-1550590Y25283006D01*
X-1510197Y25310197D01*
X0Y26820394D01*
X1510197Y25310197D01*
M02*
