M48
;DRILL file {KiCad 4.0.6-e0-6349~53~ubuntu14.04.1} date Fri Mar 31 03:17:48 2017
;FORMAT={-:-/ absolute / metric / decimal}
FMAT,2
METRIC,TZ
T1C0.400
T2C0.500
T3C0.550
T4C1.016
%
G90
G05
M71
T1
X-26.4Y-13.4
X-26.3Y0.
X-25.25Y-0.25
X-25.2Y9.95
X-24.05Y8.55
X-24.05Y3.5
X-24.05Y-1.6
X-24.Y-6.65
X-23.75Y1.
X-23.7Y-16.2
X-23.25Y-23.25
X-23.15Y4.9
X-23.1Y-12.75
X-22.9Y-8.05
X-22.7Y-15.65
X-22.35Y4.85
X-22.3Y-23.2
X-22.2Y15.9
X-22.Y-8.05
X-21.55Y4.7
X-21.35Y-6.75
X-21.35Y-7.55
X-21.25Y16.85
X-21.25Y13.3
X-21.25Y0.7
X-21.25Y-3.05
X-20.7Y4.7
X-20.6Y1.4
X-18.75Y22.05
X-18.25Y23.15
X-17.1Y-20.25
X-16.75Y11.4
X-16.3Y16.25
X-15.8Y22.
X-15.75Y-8.85
X-15.4Y-28.2
X-14.45Y14.45
X-14.15Y7.
X-14.15Y-7.7
X-13.85Y-13.85
X-13.75Y9.2
X-13.35Y7.15
X-13.35Y-7.9
X-13.2Y-6.6
X-13.15Y-9.8
X-12.65Y-9.
X-12.55Y7.3
X-12.45Y9.
X-12.45Y-7.7
X-12.4Y-6.7
X-11.75Y7.4
X-11.3Y8.45
X-10.95Y-10.95
X-10.85Y10.85
X-10.55Y-6.65
X-9.95Y-25.2
X-9.85Y7.45
X-9.75Y13.85
X-9.6Y2.9
X-8.9Y-12.2
X-8.85Y8.15
X-8.85Y-15.75
X-8.55Y-24.05
X-8.5Y4.65
X-8.45Y13.3
X-8.35Y12.45
X-8.25Y-11.65
X-8.05Y22.9
X-8.05Y22.
X-7.8Y14.1
X-7.6Y21.3
X-7.45Y-11.75
X-7.35Y12.4
X-7.3Y-12.55
X-7.15Y-13.35
X-7.Y-14.15
X-6.85Y6.4
X-6.85Y-3.75
X-6.85Y-4.65
X-6.75Y21.35
X-6.7Y24.05
X-6.7Y13.2
X-5.75Y-6.65
X-5.05Y6.5
X-5.Y-0.5
X-5.Y-1.5
X-4.9Y-23.25
X-4.85Y-22.35
X-4.75Y4.1
X-4.7Y5.05
X-4.7Y-20.65
X-4.7Y-21.55
X-4.4Y-5.3
X-4.4Y-8.9
X-4.2Y6.45
X-4.Y3.65
X-3.5Y-5.3
X-3.5Y-24.05
X-3.15Y-2.95
X-3.1Y-9.3
X-3.05Y21.25
X-2.25Y-5.6
X-1.6Y24.05
X-1.5Y5.
X-1.4Y-20.6
X-1.Y-23.75
X-0.7Y-21.2
X-0.25Y25.25
X0.Y26.3
X0.Y0.
X0.Y-26.3
X0.05Y5.25
X0.25Y-25.25
X0.5Y-5.
X0.7Y21.25
X1.05Y23.75
X1.35Y4.55
X1.4Y20.6
X1.5Y-5.
X1.6Y-24.2
X2.65Y1.15
X2.75Y9.55
X3.05Y-21.25
X3.35Y4.75
X3.5Y24.05
X3.55Y-5.55
X3.7Y8.6
X3.95Y4.15
X4.4Y-5.65
X4.45Y-1.75
X4.6Y3.55
X4.65Y26.3
X4.7Y21.95
X4.7Y21.05
X4.7Y5.25
X4.75Y6.55
X4.85Y23.65
X4.85Y22.75
X5.Y8.3
X5.Y1.5
X5.1Y-2.8
X5.25Y5.9
X5.25Y-0.05
X5.3Y25.8
X5.4Y3.95
X5.55Y-7.25
X5.75Y-3.35
X5.8Y-11.15
X6.65Y-13.2
X6.65Y-24.
X6.8Y-21.3
X6.85Y-12.4
X7.Y14.15
X7.Y4.3
X7.1Y3.5
X7.15Y13.35
X7.3Y12.55
X7.45Y11.75
X7.45Y5.55
X7.6Y-21.3
X7.75Y-14.15
X7.85Y-10.55
X7.95Y-12.45
X7.95Y-13.35
X8.Y3.5
X8.1Y-4.8
X8.1Y-21.95
X8.1Y-22.85
X8.55Y24.05
X8.7Y9.9
X8.9Y-3.8
X9.05Y12.4
X9.05Y-15.05
X9.2Y13.75
X9.5Y-2.6
X9.95Y25.15
X10.6Y-6.35
X10.6Y-14.2
X10.95Y14.6
X11.35Y8.4
X11.5Y5.8
X11.75Y-7.45
X12.25Y13.25
X12.4Y-9.
X12.5Y8.
X12.55Y7.15
X12.55Y-7.3
X13.2Y6.7
X13.35Y8.
X13.35Y-7.15
X13.65Y9.3
X13.75Y-9.2
X14.15Y7.8
X14.15Y-7.
X14.25Y11.25
X15.05Y20.
X15.85Y-13.45
X16.5Y18.4
X18.4Y13.5
X19.75Y4.6
X20.6Y-1.4
X20.7Y-4.7
X21.15Y25.05
X21.25Y3.05
X21.25Y-0.7
X21.35Y7.55
X21.35Y6.75
X21.65Y-4.7
X22.Y8.05
X22.45Y-4.9
X22.9Y8.05
X23.35Y-4.9
X23.75Y-1.05
X24.05Y6.7
X24.05Y1.6
X24.05Y-3.5
X24.05Y-8.55
X24.8Y21.3
X25.2Y-9.95
X25.25Y0.25
X26.3Y0.
X26.5Y-5.3
X29.15Y13.9
T4
X-31.115Y11.43
X-31.115Y8.89
X-31.115Y6.35
X-31.115Y3.81
X-31.115Y1.27
X-31.115Y-1.27
X-31.115Y-3.81
X-31.115Y-6.35
X-31.115Y-8.89
X-31.115Y-11.43
X-28.575Y11.43
X-28.575Y8.89
X-28.575Y6.35
X-28.575Y3.81
X-28.575Y1.27
X-28.575Y-1.27
X-28.575Y-3.81
X-28.575Y-6.35
X-28.575Y-8.89
X-28.575Y-11.43
X-25.29Y21.7
X-23.494Y23.496
X-23.494Y19.904
X-21.698Y25.292
X-21.698Y21.7
X-19.902Y23.496
X-11.43Y31.115
X-11.43Y28.575
X-11.43Y-28.575
X-11.43Y-31.115
X-8.89Y31.115
X-8.89Y28.575
X-8.89Y-28.575
X-8.89Y-31.115
X-6.35Y31.115
X-6.35Y28.575
X-6.35Y-28.575
X-6.35Y-31.115
X-3.81Y31.115
X-3.81Y28.575
X-3.81Y-28.575
X-3.81Y-31.115
X-1.27Y31.115
X-1.27Y28.575
X-1.27Y-28.575
X-1.27Y-31.115
X1.27Y31.115
X1.27Y28.575
X1.27Y-28.575
X1.27Y-31.115
X3.81Y31.115
X3.81Y28.575
X3.81Y-28.575
X3.81Y-31.115
X6.35Y31.115
X6.35Y28.575
X6.35Y-28.575
X6.35Y-31.115
X8.89Y31.115
X8.89Y28.575
X8.89Y-28.575
X8.89Y-31.115
X11.43Y31.115
X11.43Y28.575
X11.43Y-28.575
X11.43Y-31.115
X13.97Y26.035
X15.766Y27.831
X17.562Y29.627
X19.902Y-23.496
X21.698Y-21.7
X21.698Y-25.292
X23.494Y-19.904
X23.494Y-23.496
X25.29Y-21.7
X28.575Y11.43
X28.575Y8.89
X28.575Y6.35
X28.575Y3.81
X28.575Y1.27
X28.575Y-1.27
X28.575Y-3.81
X28.575Y-6.35
X28.575Y-8.89
X28.575Y-11.43
X31.115Y11.43
X31.115Y8.89
X31.115Y6.35
X31.115Y3.81
X31.115Y1.27
X31.115Y-1.27
X31.115Y-3.81
X31.115Y-6.35
X31.115Y-8.89
X31.115Y-11.43
T2
X-26.368Y-21.42G85X-25.909Y-20.96
G05
X-21.419Y-26.37G85X-20.959Y-25.91
G05
T3
X-23.628Y-19.882G85X-23.416Y-20.094
G05
X-20.093Y-23.417G85X-19.881Y-23.63
G05
T0
M30
