G04 #@! TF.FileFunction,Legend,Top*
%FSLAX46Y46*%
G04 Gerber Fmt 4.6, Leading zero omitted, Abs format (unit mm)*
G04 Created by KiCad (PCBNEW 4.0.6-e0-6349~53~ubuntu14.04.1) date Tue Apr  4 22:28:19 2017*
%MOMM*%
%LPD*%
G01*
G04 APERTURE LIST*
%ADD10C,0.200000*%
%ADD11C,0.120000*%
%ADD12C,0.150000*%
G04 APERTURE END LIST*
D10*
D11*
X-2400000Y-3700000D02*
X-2700000Y-3700000D01*
X-2700000Y-3700000D02*
X-2700000Y3700000D01*
X-2700000Y3700000D02*
X-2400000Y3700000D01*
X2400000Y-4200000D02*
X2400000Y-3700000D01*
X2400000Y-3700000D02*
X2700000Y-3700000D01*
X2700000Y-3700000D02*
X2700000Y3700000D01*
X2700000Y3700000D02*
X2400000Y3700000D01*
X300000Y-4200000D02*
X300000Y-3700000D01*
X300000Y-3700000D02*
X-300000Y-3700000D01*
X-300000Y3700000D02*
X300000Y3700000D01*
D12*
X12873984Y27131016D02*
X11777969Y26035000D01*
X11777969Y26035000D02*
X13970000Y23842969D01*
X13970000Y23842969D02*
X15066016Y24938984D01*
X13970000Y27831051D02*
X17562102Y31423154D01*
X17562102Y31423154D02*
X19358154Y29627102D01*
X19358154Y29627102D02*
X15766051Y26035000D01*
X15766051Y26035000D02*
X13970000Y27831051D01*
X-10340051Y12844214D02*
G75*
G03X-10340051Y12844214I-100000J0D01*
G01*
X-10227918Y12278528D02*
X-10581472Y12632082D01*
X-12278528Y10227918D02*
X-10227918Y12278528D01*
X-12632082Y10581472D02*
X-12278528Y10227918D01*
X-10581472Y12632082D02*
X-12632082Y10581472D01*
X-10204214Y-7900051D02*
G75*
G03X-10204214Y-7900051I-100000J0D01*
G01*
X-9738528Y-7687918D02*
X-10092082Y-8041472D01*
X-7687918Y-9738528D02*
X-9738528Y-7687918D01*
X-8041472Y-10092082D02*
X-7687918Y-9738528D01*
X-10092082Y-8041472D02*
X-8041472Y-10092082D01*
X17775812Y11411851D02*
X17068705Y10704744D01*
X17068705Y10704744D02*
X18836472Y8936977D01*
X19685000Y29584495D02*
X9644084Y19543579D01*
X9644084Y19543579D02*
X17775812Y11411851D01*
X18836472Y8936977D02*
X29584495Y19685000D01*
X29584495Y19685000D02*
X19685000Y29584495D01*
X11684000Y-30099000D02*
X11684000Y-29591000D01*
X11176000Y-30099000D02*
X11176000Y-29591000D01*
X-11684000Y-30099000D02*
X-11684000Y-29591000D01*
X-11176000Y-30099000D02*
X-11176000Y-29591000D01*
X-6096000Y-30099000D02*
X-6096000Y-29591000D01*
X-6604000Y-30099000D02*
X-6604000Y-29591000D01*
X-8636000Y-30099000D02*
X-8636000Y-29591000D01*
X-9144000Y-30099000D02*
X-9144000Y-29591000D01*
X-4064000Y-30099000D02*
X-4064000Y-29591000D01*
X-3556000Y-30099000D02*
X-3556000Y-29591000D01*
X-1524000Y-30099000D02*
X-1524000Y-29591000D01*
X-1016000Y-30099000D02*
X-1016000Y-29591000D01*
X9144000Y-30099000D02*
X9144000Y-29591000D01*
X8636000Y-30099000D02*
X8636000Y-29591000D01*
X6604000Y-30099000D02*
X6604000Y-29591000D01*
X6096000Y-30099000D02*
X6096000Y-29591000D01*
X1016000Y-30099000D02*
X1016000Y-29591000D01*
X1524000Y-30099000D02*
X1524000Y-29591000D01*
X3556000Y-30099000D02*
X3556000Y-29591000D01*
X4064000Y-30099000D02*
X4064000Y-29591000D01*
X-11684000Y-32639000D02*
X-11684000Y-32131000D01*
X-11176000Y-32639000D02*
X-11176000Y-32131000D01*
X-9144000Y-32639000D02*
X-9144000Y-32131000D01*
X-8636000Y-32639000D02*
X-8636000Y-32131000D01*
X-3556000Y-32639000D02*
X-3556000Y-32131000D01*
X-4064000Y-32639000D02*
X-4064000Y-32131000D01*
X-6096000Y-32639000D02*
X-6096000Y-32131000D01*
X-6604000Y-32639000D02*
X-6604000Y-32131000D01*
X-1524000Y-32639000D02*
X-1524000Y-32131000D01*
X-1016000Y-32639000D02*
X-1016000Y-32131000D01*
X1016000Y-32639000D02*
X1016000Y-32131000D01*
X1524000Y-32639000D02*
X1524000Y-32131000D01*
X11684000Y-32639000D02*
X11684000Y-32131000D01*
X11176000Y-32639000D02*
X11176000Y-32131000D01*
X9144000Y-32639000D02*
X9144000Y-32131000D01*
X8636000Y-32639000D02*
X8636000Y-32131000D01*
X3556000Y-32639000D02*
X3556000Y-32131000D01*
X4064000Y-32639000D02*
X4064000Y-32131000D01*
X6096000Y-32639000D02*
X6096000Y-32131000D01*
X6604000Y-32639000D02*
X6604000Y-32131000D01*
X12980000Y-28575000D02*
X12980000Y-27425000D01*
X12980000Y-27425000D02*
X11430000Y-27425000D01*
X11557000Y-35179000D02*
X11557000Y-41148000D01*
X11557000Y-41148000D02*
X11303000Y-41148000D01*
X11303000Y-41148000D02*
X11303000Y-35306000D01*
X11303000Y-35306000D02*
X11430000Y-35306000D01*
X11430000Y-35306000D02*
X11430000Y-41148000D01*
X-7620000Y-32639000D02*
X-7620000Y-35179000D01*
X-7620000Y-32639000D02*
X-10160000Y-32639000D01*
X-10160000Y-32639000D02*
X-10160000Y-35179000D01*
X-8636000Y-35179000D02*
X-8636000Y-41275000D01*
X-8636000Y-41275000D02*
X-9144000Y-41275000D01*
X-9144000Y-41275000D02*
X-9144000Y-35179000D01*
X-10160000Y-35179000D02*
X-7620000Y-35179000D01*
X-12700000Y-35179000D02*
X-10160000Y-35179000D01*
X-11684000Y-41275000D02*
X-11684000Y-35179000D01*
X-11176000Y-41275000D02*
X-11684000Y-41275000D01*
X-11176000Y-35179000D02*
X-11176000Y-41275000D01*
X-10160000Y-32639000D02*
X-12700000Y-32639000D01*
X-10160000Y-32639000D02*
X-10160000Y-35179000D01*
X-12700000Y-32639000D02*
X-12700000Y-35179000D01*
X2540000Y-32639000D02*
X2540000Y-35179000D01*
X2540000Y-32639000D02*
X0Y-32639000D01*
X0Y-32639000D02*
X0Y-35179000D01*
X1524000Y-35179000D02*
X1524000Y-41275000D01*
X1524000Y-41275000D02*
X1016000Y-41275000D01*
X1016000Y-41275000D02*
X1016000Y-35179000D01*
X0Y-35179000D02*
X2540000Y-35179000D01*
X-2540000Y-35179000D02*
X0Y-35179000D01*
X-1524000Y-41275000D02*
X-1524000Y-35179000D01*
X-1016000Y-41275000D02*
X-1524000Y-41275000D01*
X-1016000Y-35179000D02*
X-1016000Y-41275000D01*
X-2540000Y-32639000D02*
X-2540000Y-35179000D01*
X0Y-32639000D02*
X-2540000Y-32639000D01*
X0Y-32639000D02*
X0Y-35179000D01*
X-5080000Y-32639000D02*
X-5080000Y-35179000D01*
X-5080000Y-32639000D02*
X-7620000Y-32639000D01*
X-7620000Y-32639000D02*
X-7620000Y-35179000D01*
X-6096000Y-35179000D02*
X-6096000Y-41275000D01*
X-6096000Y-41275000D02*
X-6604000Y-41275000D01*
X-6604000Y-41275000D02*
X-6604000Y-35179000D01*
X-7620000Y-35179000D02*
X-5080000Y-35179000D01*
X-5080000Y-35179000D02*
X-2540000Y-35179000D01*
X-4064000Y-41275000D02*
X-4064000Y-35179000D01*
X-3556000Y-41275000D02*
X-4064000Y-41275000D01*
X-3556000Y-35179000D02*
X-3556000Y-41275000D01*
X-5080000Y-32639000D02*
X-5080000Y-35179000D01*
X-2540000Y-32639000D02*
X-5080000Y-32639000D01*
X-2540000Y-32639000D02*
X-2540000Y-35179000D01*
X7620000Y-32639000D02*
X7620000Y-35179000D01*
X7620000Y-32639000D02*
X5080000Y-32639000D01*
X5080000Y-32639000D02*
X5080000Y-35179000D01*
X6604000Y-35179000D02*
X6604000Y-41275000D01*
X6604000Y-41275000D02*
X6096000Y-41275000D01*
X6096000Y-41275000D02*
X6096000Y-35179000D01*
X5080000Y-35179000D02*
X7620000Y-35179000D01*
X2540000Y-35179000D02*
X5080000Y-35179000D01*
X3556000Y-41275000D02*
X3556000Y-35179000D01*
X4064000Y-41275000D02*
X3556000Y-41275000D01*
X4064000Y-35179000D02*
X4064000Y-41275000D01*
X2540000Y-32639000D02*
X2540000Y-35179000D01*
X5080000Y-32639000D02*
X2540000Y-32639000D01*
X5080000Y-32639000D02*
X5080000Y-35179000D01*
X10160000Y-32639000D02*
X10160000Y-35179000D01*
X10160000Y-32639000D02*
X7620000Y-32639000D01*
X7620000Y-32639000D02*
X7620000Y-35179000D01*
X9144000Y-35179000D02*
X9144000Y-41275000D01*
X9144000Y-41275000D02*
X8636000Y-41275000D01*
X8636000Y-41275000D02*
X8636000Y-35179000D01*
X7620000Y-35179000D02*
X10160000Y-35179000D01*
X10160000Y-35179000D02*
X12700000Y-35179000D01*
X11176000Y-41275000D02*
X11176000Y-35179000D01*
X11684000Y-41275000D02*
X11176000Y-41275000D01*
X11684000Y-35179000D02*
X11684000Y-41275000D01*
X10160000Y-32639000D02*
X10160000Y-35179000D01*
X12700000Y-32639000D02*
X10160000Y-32639000D01*
X12700000Y-32639000D02*
X12700000Y-35179000D01*
X-30099000Y-11684000D02*
X-29591000Y-11684000D01*
X-30099000Y-11176000D02*
X-29591000Y-11176000D01*
X-30099000Y11684000D02*
X-29591000Y11684000D01*
X-30099000Y11176000D02*
X-29591000Y11176000D01*
X-30099000Y6096000D02*
X-29591000Y6096000D01*
X-30099000Y6604000D02*
X-29591000Y6604000D01*
X-30099000Y8636000D02*
X-29591000Y8636000D01*
X-30099000Y9144000D02*
X-29591000Y9144000D01*
X-30099000Y4064000D02*
X-29591000Y4064000D01*
X-30099000Y3556000D02*
X-29591000Y3556000D01*
X-30099000Y1524000D02*
X-29591000Y1524000D01*
X-30099000Y1016000D02*
X-29591000Y1016000D01*
X-30099000Y-9144000D02*
X-29591000Y-9144000D01*
X-30099000Y-8636000D02*
X-29591000Y-8636000D01*
X-30099000Y-6604000D02*
X-29591000Y-6604000D01*
X-30099000Y-6096000D02*
X-29591000Y-6096000D01*
X-30099000Y-1016000D02*
X-29591000Y-1016000D01*
X-30099000Y-1524000D02*
X-29591000Y-1524000D01*
X-30099000Y-3556000D02*
X-29591000Y-3556000D01*
X-30099000Y-4064000D02*
X-29591000Y-4064000D01*
X-32639000Y11684000D02*
X-32131000Y11684000D01*
X-32639000Y11176000D02*
X-32131000Y11176000D01*
X-32639000Y9144000D02*
X-32131000Y9144000D01*
X-32639000Y8636000D02*
X-32131000Y8636000D01*
X-32639000Y3556000D02*
X-32131000Y3556000D01*
X-32639000Y4064000D02*
X-32131000Y4064000D01*
X-32639000Y6096000D02*
X-32131000Y6096000D01*
X-32639000Y6604000D02*
X-32131000Y6604000D01*
X-32639000Y1524000D02*
X-32131000Y1524000D01*
X-32639000Y1016000D02*
X-32131000Y1016000D01*
X-32639000Y-1016000D02*
X-32131000Y-1016000D01*
X-32639000Y-1524000D02*
X-32131000Y-1524000D01*
X-32639000Y-11684000D02*
X-32131000Y-11684000D01*
X-32639000Y-11176000D02*
X-32131000Y-11176000D01*
X-32639000Y-9144000D02*
X-32131000Y-9144000D01*
X-32639000Y-8636000D02*
X-32131000Y-8636000D01*
X-32639000Y-3556000D02*
X-32131000Y-3556000D01*
X-32639000Y-4064000D02*
X-32131000Y-4064000D01*
X-32639000Y-6096000D02*
X-32131000Y-6096000D01*
X-32639000Y-6604000D02*
X-32131000Y-6604000D01*
X-28575000Y-12980000D02*
X-27425000Y-12980000D01*
X-27425000Y-12980000D02*
X-27425000Y-11430000D01*
X-35179000Y-11557000D02*
X-41148000Y-11557000D01*
X-41148000Y-11557000D02*
X-41148000Y-11303000D01*
X-41148000Y-11303000D02*
X-35306000Y-11303000D01*
X-35306000Y-11303000D02*
X-35306000Y-11430000D01*
X-35306000Y-11430000D02*
X-41148000Y-11430000D01*
X-32639000Y7620000D02*
X-35179000Y7620000D01*
X-32639000Y7620000D02*
X-32639000Y10160000D01*
X-32639000Y10160000D02*
X-35179000Y10160000D01*
X-35179000Y8636000D02*
X-41275000Y8636000D01*
X-41275000Y8636000D02*
X-41275000Y9144000D01*
X-41275000Y9144000D02*
X-35179000Y9144000D01*
X-35179000Y10160000D02*
X-35179000Y7620000D01*
X-35179000Y12700000D02*
X-35179000Y10160000D01*
X-41275000Y11684000D02*
X-35179000Y11684000D01*
X-41275000Y11176000D02*
X-41275000Y11684000D01*
X-35179000Y11176000D02*
X-41275000Y11176000D01*
X-32639000Y10160000D02*
X-32639000Y12700000D01*
X-32639000Y10160000D02*
X-35179000Y10160000D01*
X-32639000Y12700000D02*
X-35179000Y12700000D01*
X-32639000Y-2540000D02*
X-35179000Y-2540000D01*
X-32639000Y-2540000D02*
X-32639000Y0D01*
X-32639000Y0D02*
X-35179000Y0D01*
X-35179000Y-1524000D02*
X-41275000Y-1524000D01*
X-41275000Y-1524000D02*
X-41275000Y-1016000D01*
X-41275000Y-1016000D02*
X-35179000Y-1016000D01*
X-35179000Y0D02*
X-35179000Y-2540000D01*
X-35179000Y2540000D02*
X-35179000Y0D01*
X-41275000Y1524000D02*
X-35179000Y1524000D01*
X-41275000Y1016000D02*
X-41275000Y1524000D01*
X-35179000Y1016000D02*
X-41275000Y1016000D01*
X-32639000Y2540000D02*
X-35179000Y2540000D01*
X-32639000Y0D02*
X-32639000Y2540000D01*
X-32639000Y0D02*
X-35179000Y0D01*
X-32639000Y5080000D02*
X-35179000Y5080000D01*
X-32639000Y5080000D02*
X-32639000Y7620000D01*
X-32639000Y7620000D02*
X-35179000Y7620000D01*
X-35179000Y6096000D02*
X-41275000Y6096000D01*
X-41275000Y6096000D02*
X-41275000Y6604000D01*
X-41275000Y6604000D02*
X-35179000Y6604000D01*
X-35179000Y7620000D02*
X-35179000Y5080000D01*
X-35179000Y5080000D02*
X-35179000Y2540000D01*
X-41275000Y4064000D02*
X-35179000Y4064000D01*
X-41275000Y3556000D02*
X-41275000Y4064000D01*
X-35179000Y3556000D02*
X-41275000Y3556000D01*
X-32639000Y5080000D02*
X-35179000Y5080000D01*
X-32639000Y2540000D02*
X-32639000Y5080000D01*
X-32639000Y2540000D02*
X-35179000Y2540000D01*
X-32639000Y-7620000D02*
X-35179000Y-7620000D01*
X-32639000Y-7620000D02*
X-32639000Y-5080000D01*
X-32639000Y-5080000D02*
X-35179000Y-5080000D01*
X-35179000Y-6604000D02*
X-41275000Y-6604000D01*
X-41275000Y-6604000D02*
X-41275000Y-6096000D01*
X-41275000Y-6096000D02*
X-35179000Y-6096000D01*
X-35179000Y-5080000D02*
X-35179000Y-7620000D01*
X-35179000Y-2540000D02*
X-35179000Y-5080000D01*
X-41275000Y-3556000D02*
X-35179000Y-3556000D01*
X-41275000Y-4064000D02*
X-41275000Y-3556000D01*
X-35179000Y-4064000D02*
X-41275000Y-4064000D01*
X-32639000Y-2540000D02*
X-35179000Y-2540000D01*
X-32639000Y-5080000D02*
X-32639000Y-2540000D01*
X-32639000Y-5080000D02*
X-35179000Y-5080000D01*
X-32639000Y-10160000D02*
X-35179000Y-10160000D01*
X-32639000Y-10160000D02*
X-32639000Y-7620000D01*
X-32639000Y-7620000D02*
X-35179000Y-7620000D01*
X-35179000Y-9144000D02*
X-41275000Y-9144000D01*
X-41275000Y-9144000D02*
X-41275000Y-8636000D01*
X-41275000Y-8636000D02*
X-35179000Y-8636000D01*
X-35179000Y-7620000D02*
X-35179000Y-10160000D01*
X-35179000Y-10160000D02*
X-35179000Y-12700000D01*
X-41275000Y-11176000D02*
X-35179000Y-11176000D01*
X-41275000Y-11684000D02*
X-41275000Y-11176000D01*
X-35179000Y-11684000D02*
X-41275000Y-11684000D01*
X-32639000Y-10160000D02*
X-35179000Y-10160000D01*
X-32639000Y-12700000D02*
X-32639000Y-10160000D01*
X-32639000Y-12700000D02*
X-35179000Y-12700000D01*
X-11684000Y30099000D02*
X-11684000Y29591000D01*
X-11176000Y30099000D02*
X-11176000Y29591000D01*
X11684000Y30099000D02*
X11684000Y29591000D01*
X11176000Y30099000D02*
X11176000Y29591000D01*
X6096000Y30099000D02*
X6096000Y29591000D01*
X6604000Y30099000D02*
X6604000Y29591000D01*
X8636000Y30099000D02*
X8636000Y29591000D01*
X9144000Y30099000D02*
X9144000Y29591000D01*
X4064000Y30099000D02*
X4064000Y29591000D01*
X3556000Y30099000D02*
X3556000Y29591000D01*
X1524000Y30099000D02*
X1524000Y29591000D01*
X1016000Y30099000D02*
X1016000Y29591000D01*
X-9144000Y30099000D02*
X-9144000Y29591000D01*
X-8636000Y30099000D02*
X-8636000Y29591000D01*
X-6604000Y30099000D02*
X-6604000Y29591000D01*
X-6096000Y30099000D02*
X-6096000Y29591000D01*
X-1016000Y30099000D02*
X-1016000Y29591000D01*
X-1524000Y30099000D02*
X-1524000Y29591000D01*
X-3556000Y30099000D02*
X-3556000Y29591000D01*
X-4064000Y30099000D02*
X-4064000Y29591000D01*
X11684000Y32639000D02*
X11684000Y32131000D01*
X11176000Y32639000D02*
X11176000Y32131000D01*
X9144000Y32639000D02*
X9144000Y32131000D01*
X8636000Y32639000D02*
X8636000Y32131000D01*
X3556000Y32639000D02*
X3556000Y32131000D01*
X4064000Y32639000D02*
X4064000Y32131000D01*
X6096000Y32639000D02*
X6096000Y32131000D01*
X6604000Y32639000D02*
X6604000Y32131000D01*
X1524000Y32639000D02*
X1524000Y32131000D01*
X1016000Y32639000D02*
X1016000Y32131000D01*
X-1016000Y32639000D02*
X-1016000Y32131000D01*
X-1524000Y32639000D02*
X-1524000Y32131000D01*
X-11684000Y32639000D02*
X-11684000Y32131000D01*
X-11176000Y32639000D02*
X-11176000Y32131000D01*
X-9144000Y32639000D02*
X-9144000Y32131000D01*
X-8636000Y32639000D02*
X-8636000Y32131000D01*
X-3556000Y32639000D02*
X-3556000Y32131000D01*
X-4064000Y32639000D02*
X-4064000Y32131000D01*
X-6096000Y32639000D02*
X-6096000Y32131000D01*
X-6604000Y32639000D02*
X-6604000Y32131000D01*
X-12980000Y28575000D02*
X-12980000Y27425000D01*
X-12980000Y27425000D02*
X-11430000Y27425000D01*
X-11557000Y35179000D02*
X-11557000Y41148000D01*
X-11557000Y41148000D02*
X-11303000Y41148000D01*
X-11303000Y41148000D02*
X-11303000Y35306000D01*
X-11303000Y35306000D02*
X-11430000Y35306000D01*
X-11430000Y35306000D02*
X-11430000Y41148000D01*
X7620000Y32639000D02*
X7620000Y35179000D01*
X7620000Y32639000D02*
X10160000Y32639000D01*
X10160000Y32639000D02*
X10160000Y35179000D01*
X8636000Y35179000D02*
X8636000Y41275000D01*
X8636000Y41275000D02*
X9144000Y41275000D01*
X9144000Y41275000D02*
X9144000Y35179000D01*
X10160000Y35179000D02*
X7620000Y35179000D01*
X12700000Y35179000D02*
X10160000Y35179000D01*
X11684000Y41275000D02*
X11684000Y35179000D01*
X11176000Y41275000D02*
X11684000Y41275000D01*
X11176000Y35179000D02*
X11176000Y41275000D01*
X10160000Y32639000D02*
X12700000Y32639000D01*
X10160000Y32639000D02*
X10160000Y35179000D01*
X12700000Y32639000D02*
X12700000Y35179000D01*
X-2540000Y32639000D02*
X-2540000Y35179000D01*
X-2540000Y32639000D02*
X0Y32639000D01*
X0Y32639000D02*
X0Y35179000D01*
X-1524000Y35179000D02*
X-1524000Y41275000D01*
X-1524000Y41275000D02*
X-1016000Y41275000D01*
X-1016000Y41275000D02*
X-1016000Y35179000D01*
X0Y35179000D02*
X-2540000Y35179000D01*
X2540000Y35179000D02*
X0Y35179000D01*
X1524000Y41275000D02*
X1524000Y35179000D01*
X1016000Y41275000D02*
X1524000Y41275000D01*
X1016000Y35179000D02*
X1016000Y41275000D01*
X2540000Y32639000D02*
X2540000Y35179000D01*
X0Y32639000D02*
X2540000Y32639000D01*
X0Y32639000D02*
X0Y35179000D01*
X5080000Y32639000D02*
X5080000Y35179000D01*
X5080000Y32639000D02*
X7620000Y32639000D01*
X7620000Y32639000D02*
X7620000Y35179000D01*
X6096000Y35179000D02*
X6096000Y41275000D01*
X6096000Y41275000D02*
X6604000Y41275000D01*
X6604000Y41275000D02*
X6604000Y35179000D01*
X7620000Y35179000D02*
X5080000Y35179000D01*
X5080000Y35179000D02*
X2540000Y35179000D01*
X4064000Y41275000D02*
X4064000Y35179000D01*
X3556000Y41275000D02*
X4064000Y41275000D01*
X3556000Y35179000D02*
X3556000Y41275000D01*
X5080000Y32639000D02*
X5080000Y35179000D01*
X2540000Y32639000D02*
X5080000Y32639000D01*
X2540000Y32639000D02*
X2540000Y35179000D01*
X-7620000Y32639000D02*
X-7620000Y35179000D01*
X-7620000Y32639000D02*
X-5080000Y32639000D01*
X-5080000Y32639000D02*
X-5080000Y35179000D01*
X-6604000Y35179000D02*
X-6604000Y41275000D01*
X-6604000Y41275000D02*
X-6096000Y41275000D01*
X-6096000Y41275000D02*
X-6096000Y35179000D01*
X-5080000Y35179000D02*
X-7620000Y35179000D01*
X-2540000Y35179000D02*
X-5080000Y35179000D01*
X-3556000Y41275000D02*
X-3556000Y35179000D01*
X-4064000Y41275000D02*
X-3556000Y41275000D01*
X-4064000Y35179000D02*
X-4064000Y41275000D01*
X-2540000Y32639000D02*
X-2540000Y35179000D01*
X-5080000Y32639000D02*
X-2540000Y32639000D01*
X-5080000Y32639000D02*
X-5080000Y35179000D01*
X-10160000Y32639000D02*
X-10160000Y35179000D01*
X-10160000Y32639000D02*
X-7620000Y32639000D01*
X-7620000Y32639000D02*
X-7620000Y35179000D01*
X-9144000Y35179000D02*
X-9144000Y41275000D01*
X-9144000Y41275000D02*
X-8636000Y41275000D01*
X-8636000Y41275000D02*
X-8636000Y35179000D01*
X-7620000Y35179000D02*
X-10160000Y35179000D01*
X-10160000Y35179000D02*
X-12700000Y35179000D01*
X-11176000Y41275000D02*
X-11176000Y35179000D01*
X-11684000Y41275000D02*
X-11176000Y41275000D01*
X-11684000Y35179000D02*
X-11684000Y41275000D01*
X-10160000Y32639000D02*
X-10160000Y35179000D01*
X-12700000Y32639000D02*
X-10160000Y32639000D01*
X-12700000Y32639000D02*
X-12700000Y35179000D01*
X30099000Y11684000D02*
X29591000Y11684000D01*
X30099000Y11176000D02*
X29591000Y11176000D01*
X30099000Y-11684000D02*
X29591000Y-11684000D01*
X30099000Y-11176000D02*
X29591000Y-11176000D01*
X30099000Y-6096000D02*
X29591000Y-6096000D01*
X30099000Y-6604000D02*
X29591000Y-6604000D01*
X30099000Y-8636000D02*
X29591000Y-8636000D01*
X30099000Y-9144000D02*
X29591000Y-9144000D01*
X30099000Y-4064000D02*
X29591000Y-4064000D01*
X30099000Y-3556000D02*
X29591000Y-3556000D01*
X30099000Y-1524000D02*
X29591000Y-1524000D01*
X30099000Y-1016000D02*
X29591000Y-1016000D01*
X30099000Y9144000D02*
X29591000Y9144000D01*
X30099000Y8636000D02*
X29591000Y8636000D01*
X30099000Y6604000D02*
X29591000Y6604000D01*
X30099000Y6096000D02*
X29591000Y6096000D01*
X30099000Y1016000D02*
X29591000Y1016000D01*
X30099000Y1524000D02*
X29591000Y1524000D01*
X30099000Y3556000D02*
X29591000Y3556000D01*
X30099000Y4064000D02*
X29591000Y4064000D01*
X32639000Y-11684000D02*
X32131000Y-11684000D01*
X32639000Y-11176000D02*
X32131000Y-11176000D01*
X32639000Y-9144000D02*
X32131000Y-9144000D01*
X32639000Y-8636000D02*
X32131000Y-8636000D01*
X32639000Y-3556000D02*
X32131000Y-3556000D01*
X32639000Y-4064000D02*
X32131000Y-4064000D01*
X32639000Y-6096000D02*
X32131000Y-6096000D01*
X32639000Y-6604000D02*
X32131000Y-6604000D01*
X32639000Y-1524000D02*
X32131000Y-1524000D01*
X32639000Y-1016000D02*
X32131000Y-1016000D01*
X32639000Y1016000D02*
X32131000Y1016000D01*
X32639000Y1524000D02*
X32131000Y1524000D01*
X32639000Y11684000D02*
X32131000Y11684000D01*
X32639000Y11176000D02*
X32131000Y11176000D01*
X32639000Y9144000D02*
X32131000Y9144000D01*
X32639000Y8636000D02*
X32131000Y8636000D01*
X32639000Y3556000D02*
X32131000Y3556000D01*
X32639000Y4064000D02*
X32131000Y4064000D01*
X32639000Y6096000D02*
X32131000Y6096000D01*
X32639000Y6604000D02*
X32131000Y6604000D01*
X28575000Y12980000D02*
X27425000Y12980000D01*
X27425000Y12980000D02*
X27425000Y11430000D01*
X35179000Y11557000D02*
X41148000Y11557000D01*
X41148000Y11557000D02*
X41148000Y11303000D01*
X41148000Y11303000D02*
X35306000Y11303000D01*
X35306000Y11303000D02*
X35306000Y11430000D01*
X35306000Y11430000D02*
X41148000Y11430000D01*
X32639000Y-7620000D02*
X35179000Y-7620000D01*
X32639000Y-7620000D02*
X32639000Y-10160000D01*
X32639000Y-10160000D02*
X35179000Y-10160000D01*
X35179000Y-8636000D02*
X41275000Y-8636000D01*
X41275000Y-8636000D02*
X41275000Y-9144000D01*
X41275000Y-9144000D02*
X35179000Y-9144000D01*
X35179000Y-10160000D02*
X35179000Y-7620000D01*
X35179000Y-12700000D02*
X35179000Y-10160000D01*
X41275000Y-11684000D02*
X35179000Y-11684000D01*
X41275000Y-11176000D02*
X41275000Y-11684000D01*
X35179000Y-11176000D02*
X41275000Y-11176000D01*
X32639000Y-10160000D02*
X32639000Y-12700000D01*
X32639000Y-10160000D02*
X35179000Y-10160000D01*
X32639000Y-12700000D02*
X35179000Y-12700000D01*
X32639000Y2540000D02*
X35179000Y2540000D01*
X32639000Y2540000D02*
X32639000Y0D01*
X32639000Y0D02*
X35179000Y0D01*
X35179000Y1524000D02*
X41275000Y1524000D01*
X41275000Y1524000D02*
X41275000Y1016000D01*
X41275000Y1016000D02*
X35179000Y1016000D01*
X35179000Y0D02*
X35179000Y2540000D01*
X35179000Y-2540000D02*
X35179000Y0D01*
X41275000Y-1524000D02*
X35179000Y-1524000D01*
X41275000Y-1016000D02*
X41275000Y-1524000D01*
X35179000Y-1016000D02*
X41275000Y-1016000D01*
X32639000Y-2540000D02*
X35179000Y-2540000D01*
X32639000Y0D02*
X32639000Y-2540000D01*
X32639000Y0D02*
X35179000Y0D01*
X32639000Y-5080000D02*
X35179000Y-5080000D01*
X32639000Y-5080000D02*
X32639000Y-7620000D01*
X32639000Y-7620000D02*
X35179000Y-7620000D01*
X35179000Y-6096000D02*
X41275000Y-6096000D01*
X41275000Y-6096000D02*
X41275000Y-6604000D01*
X41275000Y-6604000D02*
X35179000Y-6604000D01*
X35179000Y-7620000D02*
X35179000Y-5080000D01*
X35179000Y-5080000D02*
X35179000Y-2540000D01*
X41275000Y-4064000D02*
X35179000Y-4064000D01*
X41275000Y-3556000D02*
X41275000Y-4064000D01*
X35179000Y-3556000D02*
X41275000Y-3556000D01*
X32639000Y-5080000D02*
X35179000Y-5080000D01*
X32639000Y-2540000D02*
X32639000Y-5080000D01*
X32639000Y-2540000D02*
X35179000Y-2540000D01*
X32639000Y7620000D02*
X35179000Y7620000D01*
X32639000Y7620000D02*
X32639000Y5080000D01*
X32639000Y5080000D02*
X35179000Y5080000D01*
X35179000Y6604000D02*
X41275000Y6604000D01*
X41275000Y6604000D02*
X41275000Y6096000D01*
X41275000Y6096000D02*
X35179000Y6096000D01*
X35179000Y5080000D02*
X35179000Y7620000D01*
X35179000Y2540000D02*
X35179000Y5080000D01*
X41275000Y3556000D02*
X35179000Y3556000D01*
X41275000Y4064000D02*
X41275000Y3556000D01*
X35179000Y4064000D02*
X41275000Y4064000D01*
X32639000Y2540000D02*
X35179000Y2540000D01*
X32639000Y5080000D02*
X32639000Y2540000D01*
X32639000Y5080000D02*
X35179000Y5080000D01*
X32639000Y10160000D02*
X35179000Y10160000D01*
X32639000Y10160000D02*
X32639000Y7620000D01*
X32639000Y7620000D02*
X35179000Y7620000D01*
X35179000Y9144000D02*
X41275000Y9144000D01*
X41275000Y9144000D02*
X41275000Y8636000D01*
X41275000Y8636000D02*
X35179000Y8636000D01*
X35179000Y7620000D02*
X35179000Y10160000D01*
X35179000Y10160000D02*
X35179000Y12700000D01*
X41275000Y11176000D02*
X35179000Y11176000D01*
X41275000Y11684000D02*
X41275000Y11176000D01*
X35179000Y11684000D02*
X41275000Y11684000D01*
X32639000Y10160000D02*
X35179000Y10160000D01*
X32639000Y12700000D02*
X32639000Y10160000D01*
X32639000Y12700000D02*
X35179000Y12700000D01*
X-4700000Y-19700000D02*
X-4700000Y-19125000D01*
X4700000Y-10300000D02*
X4700000Y-10875000D01*
X-4700000Y-10300000D02*
X-4700000Y-10875000D01*
X4700000Y-19700000D02*
X4125000Y-19700000D01*
X4700000Y-10300000D02*
X4125000Y-10300000D01*
X-4700000Y-10300000D02*
X-4125000Y-10300000D01*
X-4700000Y-19700000D02*
X-4125000Y-19700000D01*
X-19700000Y4700000D02*
X-19125000Y4700000D01*
X-10300000Y-4700000D02*
X-10875000Y-4700000D01*
X-10300000Y4700000D02*
X-10875000Y4700000D01*
X-19700000Y-4700000D02*
X-19700000Y-4125000D01*
X-10300000Y-4700000D02*
X-10300000Y-4125000D01*
X-10300000Y4700000D02*
X-10300000Y4125000D01*
X-19700000Y4700000D02*
X-19700000Y4125000D01*
X4700000Y19700000D02*
X4700000Y19125000D01*
X-4700000Y10300000D02*
X-4700000Y10875000D01*
X4700000Y10300000D02*
X4700000Y10875000D01*
X-4700000Y19700000D02*
X-4125000Y19700000D01*
X-4700000Y10300000D02*
X-4125000Y10300000D01*
X4700000Y10300000D02*
X4125000Y10300000D01*
X4700000Y19700000D02*
X4125000Y19700000D01*
X19700000Y-4700000D02*
X19125000Y-4700000D01*
X10300000Y4700000D02*
X10875000Y4700000D01*
X10300000Y-4700000D02*
X10875000Y-4700000D01*
X19700000Y4700000D02*
X19700000Y4125000D01*
X10300000Y4700000D02*
X10300000Y4125000D01*
X10300000Y-4700000D02*
X10300000Y-4125000D01*
X19700000Y-4700000D02*
X19700000Y-4125000D01*
X8475000Y-17750000D02*
X8475000Y-17250000D01*
X7525000Y-17250000D02*
X7525000Y-17750000D01*
X8475000Y-15750000D02*
X8475000Y-15250000D01*
X7525000Y-15250000D02*
X7525000Y-15750000D01*
X2250000Y-5525000D02*
X1750000Y-5525000D01*
X1750000Y-6475000D02*
X2250000Y-6475000D01*
X250000Y-5525000D02*
X-250000Y-5525000D01*
X-250000Y-6475000D02*
X250000Y-6475000D01*
X7475000Y-17750000D02*
X7475000Y-17250000D01*
X6525000Y-17250000D02*
X6525000Y-17750000D01*
X7475000Y-15750000D02*
X7475000Y-15250000D01*
X6525000Y-15250000D02*
X6525000Y-15750000D01*
X2250000Y-6525000D02*
X1750000Y-6525000D01*
X1750000Y-7475000D02*
X2250000Y-7475000D01*
X250000Y-6525000D02*
X-250000Y-6525000D01*
X-250000Y-7475000D02*
X250000Y-7475000D01*
X-7475000Y-17250000D02*
X-7475000Y-17750000D01*
X-6525000Y-17750000D02*
X-6525000Y-17250000D01*
X-7475000Y-15250000D02*
X-7475000Y-15750000D01*
X-6525000Y-15750000D02*
X-6525000Y-15250000D01*
X-2525000Y-21750000D02*
X-2525000Y-21250000D01*
X-3475000Y-21250000D02*
X-3475000Y-21750000D01*
X2250000Y-22475000D02*
X2750000Y-22475000D01*
X2750000Y-21525000D02*
X2250000Y-21525000D01*
X250000Y-22475000D02*
X750000Y-22475000D01*
X750000Y-21525000D02*
X250000Y-21525000D01*
X-1750000Y-22475000D02*
X-1250000Y-22475000D01*
X-1250000Y-21525000D02*
X-1750000Y-21525000D01*
X2250000Y-21475000D02*
X2750000Y-21475000D01*
X2750000Y-20525000D02*
X2250000Y-20525000D01*
X-8475000Y-17250000D02*
X-8475000Y-17750000D01*
X-7525000Y-17750000D02*
X-7525000Y-17250000D01*
X-8475000Y-15250000D02*
X-8475000Y-15750000D01*
X-7525000Y-15750000D02*
X-7525000Y-15250000D01*
X2250000Y-23475000D02*
X2750000Y-23475000D01*
X2750000Y-22525000D02*
X2250000Y-22525000D01*
X250000Y-23475000D02*
X750000Y-23475000D01*
X750000Y-22525000D02*
X250000Y-22525000D01*
X-1750000Y-23475000D02*
X-1250000Y-23475000D01*
X-1250000Y-22525000D02*
X-1750000Y-22525000D01*
X-3750000Y-23475000D02*
X-3250000Y-23475000D01*
X-3250000Y-22525000D02*
X-3750000Y-22525000D01*
X-17750000Y-8475000D02*
X-17250000Y-8475000D01*
X-17250000Y-7525000D02*
X-17750000Y-7525000D01*
X-15750000Y-8475000D02*
X-15250000Y-8475000D01*
X-15250000Y-7525000D02*
X-15750000Y-7525000D01*
X-5525000Y-2250000D02*
X-5525000Y-1750000D01*
X-6475000Y-1750000D02*
X-6475000Y-2250000D01*
X-5525000Y-250000D02*
X-5525000Y250000D01*
X-6475000Y250000D02*
X-6475000Y-250000D01*
X-17750000Y-7475000D02*
X-17250000Y-7475000D01*
X-17250000Y-6525000D02*
X-17750000Y-6525000D01*
X-15750000Y-7475000D02*
X-15250000Y-7475000D01*
X-15250000Y-6525000D02*
X-15750000Y-6525000D01*
X-6525000Y-2250000D02*
X-6525000Y-1750000D01*
X-7475000Y-1750000D02*
X-7475000Y-2250000D01*
X-6525000Y-250000D02*
X-6525000Y250000D01*
X-7475000Y250000D02*
X-7475000Y-250000D01*
X-17250000Y7475000D02*
X-17750000Y7475000D01*
X-17750000Y6525000D02*
X-17250000Y6525000D01*
X-15250000Y7475000D02*
X-15750000Y7475000D01*
X-15750000Y6525000D02*
X-15250000Y6525000D01*
X-21750000Y2525000D02*
X-21250000Y2525000D01*
X-21250000Y3475000D02*
X-21750000Y3475000D01*
X-22475000Y-2250000D02*
X-22475000Y-2750000D01*
X-21525000Y-2750000D02*
X-21525000Y-2250000D01*
X-22475000Y-250000D02*
X-22475000Y-750000D01*
X-21525000Y-750000D02*
X-21525000Y-250000D01*
X-22475000Y1750000D02*
X-22475000Y1250000D01*
X-21525000Y1250000D02*
X-21525000Y1750000D01*
X-21475000Y-2250000D02*
X-21475000Y-2750000D01*
X-20525000Y-2750000D02*
X-20525000Y-2250000D01*
X-17250000Y8475000D02*
X-17750000Y8475000D01*
X-17750000Y7525000D02*
X-17250000Y7525000D01*
X-15250000Y8475000D02*
X-15750000Y8475000D01*
X-15750000Y7525000D02*
X-15250000Y7525000D01*
X-23475000Y-2250000D02*
X-23475000Y-2750000D01*
X-22525000Y-2750000D02*
X-22525000Y-2250000D01*
X-23475000Y-250000D02*
X-23475000Y-750000D01*
X-22525000Y-750000D02*
X-22525000Y-250000D01*
X-23475000Y1750000D02*
X-23475000Y1250000D01*
X-22525000Y1250000D02*
X-22525000Y1750000D01*
X-23475000Y3750000D02*
X-23475000Y3250000D01*
X-22525000Y3250000D02*
X-22525000Y3750000D01*
X-8475000Y17750000D02*
X-8475000Y17250000D01*
X-7525000Y17250000D02*
X-7525000Y17750000D01*
X-8475000Y15750000D02*
X-8475000Y15250000D01*
X-7525000Y15250000D02*
X-7525000Y15750000D01*
X-2250000Y5525000D02*
X-1750000Y5525000D01*
X-1750000Y6475000D02*
X-2250000Y6475000D01*
X-250000Y5525000D02*
X250000Y5525000D01*
X250000Y6475000D02*
X-250000Y6475000D01*
X-7475000Y17750000D02*
X-7475000Y17250000D01*
X-6525000Y17250000D02*
X-6525000Y17750000D01*
X-7475000Y15750000D02*
X-7475000Y15250000D01*
X-6525000Y15250000D02*
X-6525000Y15750000D01*
X-2250000Y6525000D02*
X-1750000Y6525000D01*
X-1750000Y7475000D02*
X-2250000Y7475000D01*
X-250000Y6525000D02*
X250000Y6525000D01*
X250000Y7475000D02*
X-250000Y7475000D01*
X7475000Y17250000D02*
X7475000Y17750000D01*
X6525000Y17750000D02*
X6525000Y17250000D01*
X7475000Y15250000D02*
X7475000Y15750000D01*
X6525000Y15750000D02*
X6525000Y15250000D01*
X2525000Y21750000D02*
X2525000Y21250000D01*
X3475000Y21250000D02*
X3475000Y21750000D01*
X-2250000Y22475000D02*
X-2750000Y22475000D01*
X-2750000Y21525000D02*
X-2250000Y21525000D01*
X-250000Y22475000D02*
X-750000Y22475000D01*
X-750000Y21525000D02*
X-250000Y21525000D01*
X1750000Y22475000D02*
X1250000Y22475000D01*
X1250000Y21525000D02*
X1750000Y21525000D01*
X-2250000Y21475000D02*
X-2750000Y21475000D01*
X-2750000Y20525000D02*
X-2250000Y20525000D01*
X8475000Y17250000D02*
X8475000Y17750000D01*
X7525000Y17750000D02*
X7525000Y17250000D01*
X8475000Y15250000D02*
X8475000Y15750000D01*
X7525000Y15750000D02*
X7525000Y15250000D01*
X-2250000Y23475000D02*
X-2750000Y23475000D01*
X-2750000Y22525000D02*
X-2250000Y22525000D01*
X-250000Y23475000D02*
X-750000Y23475000D01*
X-750000Y22525000D02*
X-250000Y22525000D01*
X1750000Y23475000D02*
X1250000Y23475000D01*
X1250000Y22525000D02*
X1750000Y22525000D01*
X3750000Y23475000D02*
X3250000Y23475000D01*
X3250000Y22525000D02*
X3750000Y22525000D01*
X17750000Y8475000D02*
X17250000Y8475000D01*
X17250000Y7525000D02*
X17750000Y7525000D01*
X15750000Y8475000D02*
X15250000Y8475000D01*
X15250000Y7525000D02*
X15750000Y7525000D01*
X5525000Y2250000D02*
X5525000Y1750000D01*
X6475000Y1750000D02*
X6475000Y2250000D01*
X5525000Y250000D02*
X5525000Y-250000D01*
X6475000Y-250000D02*
X6475000Y250000D01*
X17750000Y7475000D02*
X17250000Y7475000D01*
X17250000Y6525000D02*
X17750000Y6525000D01*
X15750000Y7475000D02*
X15250000Y7475000D01*
X15250000Y6525000D02*
X15750000Y6525000D01*
X6525000Y2250000D02*
X6525000Y1750000D01*
X7475000Y1750000D02*
X7475000Y2250000D01*
X6525000Y250000D02*
X6525000Y-250000D01*
X7475000Y-250000D02*
X7475000Y250000D01*
X17250000Y-7475000D02*
X17750000Y-7475000D01*
X17750000Y-6525000D02*
X17250000Y-6525000D01*
X15250000Y-7475000D02*
X15750000Y-7475000D01*
X15750000Y-6525000D02*
X15250000Y-6525000D01*
X21750000Y-2525000D02*
X21250000Y-2525000D01*
X21250000Y-3475000D02*
X21750000Y-3475000D01*
X22475000Y2250000D02*
X22475000Y2750000D01*
X21525000Y2750000D02*
X21525000Y2250000D01*
X22475000Y250000D02*
X22475000Y750000D01*
X21525000Y750000D02*
X21525000Y250000D01*
X22475000Y-1750000D02*
X22475000Y-1250000D01*
X21525000Y-1250000D02*
X21525000Y-1750000D01*
X21475000Y2250000D02*
X21475000Y2750000D01*
X20525000Y2750000D02*
X20525000Y2250000D01*
X17250000Y-8475000D02*
X17750000Y-8475000D01*
X17750000Y-7525000D02*
X17250000Y-7525000D01*
X15250000Y-8475000D02*
X15750000Y-8475000D01*
X15750000Y-7525000D02*
X15250000Y-7525000D01*
X23475000Y2250000D02*
X23475000Y2750000D01*
X22525000Y2750000D02*
X22525000Y2250000D01*
X23475000Y250000D02*
X23475000Y750000D01*
X22525000Y750000D02*
X22525000Y250000D01*
X23475000Y-1750000D02*
X23475000Y-1250000D01*
X22525000Y-1250000D02*
X22525000Y-1750000D01*
X23475000Y-3750000D02*
X23475000Y-3250000D01*
X22525000Y-3250000D02*
X22525000Y-3750000D01*
X10889901Y-6345348D02*
X10536348Y-6698901D01*
X11208099Y-7370652D02*
X11561652Y-7017099D01*
X6509099Y-12196652D02*
X6862652Y-11843099D01*
X6190901Y-11171348D02*
X5837348Y-11524901D01*
X-10229315Y-13404315D02*
X-11183909Y-12449720D01*
X-11183909Y-12449720D02*
X-12315280Y-13581091D01*
X-12315280Y-13581091D02*
X-10406091Y-15490280D01*
X-10406091Y-15490280D02*
X-9274720Y-14358909D01*
X-9274720Y-14358909D02*
X-10229315Y-13404315D01*
X-14535685Y-11360685D02*
X-13581091Y-12315280D01*
X-13581091Y-12315280D02*
X-12449720Y-11183909D01*
X-12449720Y-11183909D02*
X-14358909Y-9274720D01*
X-14358909Y-9274720D02*
X-15490280Y-10406091D01*
X-15490280Y-10406091D02*
X-14535685Y-11360685D01*
X-18415000Y21455559D02*
X-18043769Y21084328D01*
X-18415000Y15374441D02*
X-18786231Y15745672D01*
X-15374441Y18415000D02*
X-15745672Y18786231D01*
X-21455559Y18415000D02*
X-21084328Y18786231D01*
X-18415000Y15374441D02*
X-18043769Y15745672D01*
X-15374441Y18415000D02*
X-15745672Y18043769D01*
X-18415000Y21455559D02*
X-18786231Y21084328D01*
X-21717903Y15047823D02*
X-21216805Y15548921D01*
X-21216805Y15548921D02*
X-21500581Y15832697D01*
D11*
X-12659117Y-10855563D02*
X-12305563Y-11209117D01*
X-11640883Y-10544437D02*
X-11994437Y-10190883D01*
D12*
X8180101Y-8462944D02*
X7685126Y-7967969D01*
X8462944Y-10867107D02*
X8109390Y-11220660D01*
X9454364Y-11858527D02*
X8462944Y-10867107D01*
X10866371Y-8462208D02*
X11857792Y-9453629D01*
X11857056Y-12139899D02*
X12139899Y-11857056D01*
X8180101Y-8462944D02*
X8462944Y-8180101D01*
D11*
X-19578249Y14323223D02*
X-20073223Y13828249D01*
X-20921751Y14676777D02*
X-20426777Y15171751D01*
X-18121751Y15226777D02*
X-17626777Y15721751D01*
X-16778249Y14873223D02*
X-17273223Y14378249D01*
X-14260751Y12876777D02*
X-13765777Y13371751D01*
X-12917249Y12523223D02*
X-13412223Y12028249D01*
X-8599249Y9983223D02*
X-9094223Y9488249D01*
X-9942751Y10336777D02*
X-9447777Y10831751D01*
X-10336777Y-11720751D02*
X-10831751Y-11225777D01*
X-9983223Y-10377249D02*
X-9488249Y-10872223D01*
X-6681223Y-6948249D02*
X-6186249Y-7443223D01*
X-7034777Y-8291751D02*
X-7529751Y-7796777D01*
X-19494437Y13440883D02*
X-19140883Y13794437D01*
X-19805563Y14459117D02*
X-20159117Y14105563D01*
X-17005563Y15009117D02*
X-17359117Y14655563D01*
X-16694437Y13990883D02*
X-16340883Y14344437D01*
X-10491223Y-11520249D02*
X-9996249Y-12015223D01*
X-10844777Y-12863751D02*
X-11339751Y-12368777D01*
D12*
X-21697898Y27088154D02*
X-25290000Y23496051D01*
X-27482031Y21700000D02*
X-26386016Y22796016D01*
X-25290000Y19903949D02*
X-23493949Y21700000D01*
X-23493949Y21700000D02*
X-25290000Y23496051D01*
X-21697898Y27088154D02*
X-18105795Y23496051D01*
X-18105795Y23496051D02*
X-21697898Y19903949D01*
X-27482031Y21700000D02*
X-26386016Y20603984D01*
X-23493949Y18107898D02*
X-25290000Y19903949D01*
X-21697898Y19903949D02*
X-23493949Y18107898D01*
X21697898Y-27088154D02*
X25290000Y-23496051D01*
X27482031Y-21700000D02*
X26386016Y-22796016D01*
X25290000Y-19903949D02*
X23493949Y-21700000D01*
X23493949Y-21700000D02*
X25290000Y-23496051D01*
X21697898Y-27088154D02*
X18105795Y-23496051D01*
X18105795Y-23496051D02*
X21697898Y-19903949D01*
X27482031Y-21700000D02*
X26386016Y-20603984D01*
X23493949Y-18107898D02*
X25290000Y-19903949D01*
X21697898Y-19903949D02*
X23493949Y-18107898D01*
X-24418427Y-35732136D02*
X-35732136Y-24418427D01*
X-35732136Y-24418427D02*
X-18761573Y-7447864D01*
X-18761573Y-7447864D02*
X-7447864Y-18761573D01*
X-7447864Y-18761573D02*
X-24418427Y-35732136D01*
D11*
X28700883Y15084437D02*
X29054437Y14730883D01*
X29719117Y15395563D02*
X29365563Y15749117D01*
X-15749117Y-29365563D02*
X-15395563Y-29719117D01*
X-14730883Y-29054437D02*
X-15084437Y-28700883D01*
D12*
X6460000Y-7370000D02*
X6460000Y-7870000D01*
X7510000Y-7870000D02*
X7510000Y-7370000D01*
X-14029546Y-28742008D02*
X-13675992Y-28388454D01*
X-14418454Y-27645992D02*
X-14772008Y-27999546D01*
X-24324454Y-10881992D02*
X-24678008Y-11235546D01*
X-23935546Y-11978008D02*
X-23581992Y-11624454D01*
D11*
X32881371Y17713478D02*
X32259117Y17798330D01*
X32259117Y17798330D02*
X32032843Y17572056D01*
X32881371Y17713478D02*
X33588478Y17006371D01*
X33588478Y17006371D02*
X33673330Y16384117D01*
X33673330Y16384117D02*
X33447056Y16157843D01*
X29593324Y16051777D02*
X31926777Y13718324D01*
X29805456Y16263909D02*
X29593324Y16051777D01*
X31926777Y13718324D02*
X32138909Y13930456D01*
X31361091Y17819544D02*
X31573223Y18031676D01*
X31573223Y18031676D02*
X33906676Y15698223D01*
X33906676Y15698223D02*
X33694544Y15486091D01*
X-17006371Y-33588478D02*
X-16384117Y-33673330D01*
X-16384117Y-33673330D02*
X-16157843Y-33447056D01*
X-17006371Y-33588478D02*
X-17713478Y-32881371D01*
X-17713478Y-32881371D02*
X-17798330Y-32259117D01*
X-17798330Y-32259117D02*
X-17572056Y-32032843D01*
X-13718324Y-31926777D02*
X-16051777Y-29593324D01*
X-13930456Y-32138909D02*
X-13718324Y-31926777D01*
X-16051777Y-29593324D02*
X-16263909Y-29805456D01*
X-15486091Y-33694544D02*
X-15698223Y-33906676D01*
X-15698223Y-33906676D02*
X-18031676Y-31573223D01*
X-18031676Y-31573223D02*
X-17819544Y-31361091D01*
D12*
X-4247619Y-761905D02*
X-3438095Y-761905D01*
X-3342857Y-714286D01*
X-3295238Y-666667D01*
X-3247619Y-571429D01*
X-3247619Y-380952D01*
X-3295238Y-285714D01*
X-3342857Y-238095D01*
X-3438095Y-190476D01*
X-4247619Y-190476D01*
X-4247619Y190476D02*
X-4247619Y809524D01*
X-3866667Y476190D01*
X-3866667Y619048D01*
X-3819048Y714286D01*
X-3771429Y761905D01*
X-3676190Y809524D01*
X-3438095Y809524D01*
X-3342857Y761905D01*
X-3295238Y714286D01*
X-3247619Y619048D01*
X-3247619Y333333D01*
X-3295238Y238095D01*
X-3342857Y190476D01*
X-29833333Y14297619D02*
X-29833333Y15297619D01*
X-29499999Y14583333D01*
X-29166666Y15297619D01*
X-29166666Y14297619D01*
X-28690476Y14297619D02*
X-28690476Y15297619D01*
X-28690476Y14821429D02*
X-28119047Y14821429D01*
X-28119047Y14297619D02*
X-28119047Y15297619D01*
X-27214285Y14964286D02*
X-27214285Y14297619D01*
X-27452381Y15345238D02*
X-27690476Y14630952D01*
X-27071428Y14630952D01*
X14711252Y29571488D02*
X14004145Y30278595D01*
X14273519Y30547970D01*
X14374535Y30581641D01*
X14441878Y30581641D01*
X14542893Y30547970D01*
X14643908Y30446955D01*
X14677580Y30345939D01*
X14677580Y30278596D01*
X14643908Y30177581D01*
X14374534Y29908206D01*
X15788748Y30648985D02*
X15384687Y30244924D01*
X15586717Y30446954D02*
X14879610Y31154061D01*
X14913282Y30985702D01*
X14913282Y30851015D01*
X14879610Y30750000D01*
X16462183Y31322420D02*
X16058122Y30918359D01*
X16260152Y31120389D02*
X15553045Y31827496D01*
X15586717Y31659137D01*
X15586717Y31524450D01*
X15553045Y31423435D01*
X-8738240Y13762690D02*
X-9310660Y13190271D01*
X-9344332Y13089255D01*
X-9344332Y13021912D01*
X-9310660Y12920897D01*
X-9175973Y12786209D01*
X-9074957Y12752538D01*
X-9007614Y12752538D01*
X-8906599Y12786209D01*
X-8334179Y13358629D01*
X-8064805Y13089255D02*
X-7627072Y12651522D01*
X-8132149Y12617851D01*
X-8031133Y12516836D01*
X-7997461Y12415820D01*
X-7997461Y12348477D01*
X-8031133Y12247461D01*
X-8199492Y12079102D01*
X-8300507Y12045431D01*
X-8367851Y12045431D01*
X-8468866Y12079102D01*
X-8670897Y12281133D01*
X-8704569Y12382149D01*
X-8704569Y12449492D01*
X-7997462Y11607698D02*
X-7862775Y11473012D01*
X-7761759Y11439339D01*
X-7694416Y11439339D01*
X-7526057Y11473011D01*
X-7357698Y11574026D01*
X-7088324Y11843400D01*
X-7054652Y11944416D01*
X-7054652Y12011759D01*
X-7088324Y12112774D01*
X-7223012Y12247462D01*
X-7324027Y12281133D01*
X-7391370Y12281133D01*
X-7492385Y12247462D01*
X-7660744Y12079103D01*
X-7694416Y11978088D01*
X-7694416Y11910744D01*
X-7660745Y11809729D01*
X-7526057Y11675041D01*
X-7425042Y11641369D01*
X-7357698Y11641370D01*
X-7256683Y11675042D01*
X-10925973Y-6651523D02*
X-10353553Y-7223943D01*
X-10252538Y-7257615D01*
X-10185195Y-7257615D01*
X-10084180Y-7223943D01*
X-9949492Y-7089255D01*
X-9915820Y-6988240D01*
X-9915820Y-6920897D01*
X-9949492Y-6819882D01*
X-10521912Y-6247462D01*
X-9107698Y-6247462D02*
X-9511760Y-6651523D01*
X-9309729Y-6449493D02*
X-10016836Y-5742386D01*
X-9983164Y-5910745D01*
X-9983164Y-6045431D01*
X-10016836Y-6146447D01*
X18489653Y20240583D02*
X17917233Y19668164D01*
X17883561Y19567148D01*
X17883561Y19499805D01*
X17917233Y19398790D01*
X18051920Y19264102D01*
X18152936Y19230431D01*
X18220279Y19230431D01*
X18321294Y19264102D01*
X18893714Y19836522D01*
X19297775Y18961057D02*
X18826371Y18489652D01*
X19398790Y19398790D02*
X18725355Y19062072D01*
X19163088Y18624339D01*
X19836523Y18893713D02*
X20274256Y18455980D01*
X19769179Y18422309D01*
X19870195Y18321293D01*
X19903867Y18220278D01*
X19903867Y18152935D01*
X19870195Y18051919D01*
X19701836Y17883560D01*
X19600821Y17849889D01*
X19533477Y17849889D01*
X19432462Y17883560D01*
X19230431Y18085591D01*
X19196760Y18186607D01*
X19196760Y18253950D01*
X14702381Y-29238095D02*
X13702381Y-29238095D01*
X13702381Y-28857142D01*
X13750000Y-28761904D01*
X13797619Y-28714285D01*
X13892857Y-28666666D01*
X14035714Y-28666666D01*
X14130952Y-28714285D01*
X14178571Y-28761904D01*
X14226190Y-28857142D01*
X14226190Y-29238095D01*
X14702381Y-27714285D02*
X14702381Y-28285714D01*
X14702381Y-28000000D02*
X13702381Y-28000000D01*
X13845238Y-28095238D01*
X13940476Y-28190476D01*
X13988095Y-28285714D01*
X-30488095Y-14702381D02*
X-30488095Y-13702381D01*
X-30107142Y-13702381D01*
X-30011904Y-13750000D01*
X-29964285Y-13797619D01*
X-29916666Y-13892857D01*
X-29916666Y-14035714D01*
X-29964285Y-14130952D01*
X-30011904Y-14178571D01*
X-30107142Y-14226190D01*
X-30488095Y-14226190D01*
X-29535714Y-13797619D02*
X-29488095Y-13750000D01*
X-29392857Y-13702381D01*
X-29154761Y-13702381D01*
X-29059523Y-13750000D01*
X-29011904Y-13797619D01*
X-28964285Y-13892857D01*
X-28964285Y-13988095D01*
X-29011904Y-14130952D01*
X-29583333Y-14702381D01*
X-28964285Y-14702381D01*
X-11047619Y25511905D02*
X-12047619Y25511905D01*
X-12047619Y25892858D01*
X-12000000Y25988096D01*
X-11952381Y26035715D01*
X-11857143Y26083334D01*
X-11714286Y26083334D01*
X-11619048Y26035715D01*
X-11571429Y25988096D01*
X-11523810Y25892858D01*
X-11523810Y25511905D01*
X-12047619Y26416667D02*
X-12047619Y27035715D01*
X-11666667Y26702381D01*
X-11666667Y26845239D01*
X-11619048Y26940477D01*
X-11571429Y26988096D01*
X-11476190Y27035715D01*
X-11238095Y27035715D01*
X-11142857Y26988096D01*
X-11095238Y26940477D01*
X-11047619Y26845239D01*
X-11047619Y26559524D01*
X-11095238Y26464286D01*
X-11142857Y26416667D01*
X25511905Y11047619D02*
X25511905Y12047619D01*
X25892858Y12047619D01*
X25988096Y12000000D01*
X26035715Y11952381D01*
X26083334Y11857143D01*
X26083334Y11714286D01*
X26035715Y11619048D01*
X25988096Y11571429D01*
X25892858Y11523810D01*
X25511905Y11523810D01*
X26940477Y11714286D02*
X26940477Y11047619D01*
X26702381Y12095238D02*
X26464286Y11380952D01*
X27083334Y11380952D01*
X3761905Y-22202381D02*
X3761905Y-23011905D01*
X3809524Y-23107143D01*
X3857143Y-23154762D01*
X3952381Y-23202381D01*
X4142858Y-23202381D01*
X4238096Y-23154762D01*
X4285715Y-23107143D01*
X4333334Y-23011905D01*
X4333334Y-22202381D01*
X5333334Y-23202381D02*
X4761905Y-23202381D01*
X5047619Y-23202381D02*
X5047619Y-22202381D01*
X4952381Y-22345238D01*
X4857143Y-22440476D01*
X4761905Y-22488095D01*
X5666667Y-22202381D02*
X6285715Y-22202381D01*
X5952381Y-22583333D01*
X6095239Y-22583333D01*
X6190477Y-22630952D01*
X6238096Y-22678571D01*
X6285715Y-22773810D01*
X6285715Y-23011905D01*
X6238096Y-23107143D01*
X6190477Y-23154762D01*
X6095239Y-23202381D01*
X5809524Y-23202381D01*
X5714286Y-23154762D01*
X5666667Y-23107143D01*
X-23547619Y-5988095D02*
X-22738095Y-5988095D01*
X-22642857Y-5940476D01*
X-22595238Y-5892857D01*
X-22547619Y-5797619D01*
X-22547619Y-5607142D01*
X-22595238Y-5511904D01*
X-22642857Y-5464285D01*
X-22738095Y-5416666D01*
X-23547619Y-5416666D01*
X-23452381Y-4988095D02*
X-23500000Y-4940476D01*
X-23547619Y-4845238D01*
X-23547619Y-4607142D01*
X-23500000Y-4511904D01*
X-23452381Y-4464285D01*
X-23357143Y-4416666D01*
X-23261905Y-4416666D01*
X-23119048Y-4464285D01*
X-22547619Y-5035714D01*
X-22547619Y-4416666D01*
X-23547619Y-3797619D02*
X-23547619Y-3702380D01*
X-23500000Y-3607142D01*
X-23452381Y-3559523D01*
X-23357143Y-3511904D01*
X-23166667Y-3464285D01*
X-22928571Y-3464285D01*
X-22738095Y-3511904D01*
X-22642857Y-3559523D01*
X-22595238Y-3607142D01*
X-22547619Y-3702380D01*
X-22547619Y-3797619D01*
X-22595238Y-3892857D01*
X-22642857Y-3940476D01*
X-22738095Y-3988095D01*
X-22928571Y-4035714D01*
X-23166667Y-4035714D01*
X-23357143Y-3988095D01*
X-23452381Y-3940476D01*
X-23500000Y-3892857D01*
X-23547619Y-3797619D01*
X-6238095Y23297619D02*
X-6238095Y22488095D01*
X-6190476Y22392857D01*
X-6142857Y22345238D01*
X-6047619Y22297619D01*
X-5857142Y22297619D01*
X-5761904Y22345238D01*
X-5714285Y22392857D01*
X-5666666Y22488095D01*
X-5666666Y23297619D01*
X-5238095Y23202381D02*
X-5190476Y23250000D01*
X-5095238Y23297619D01*
X-4857142Y23297619D01*
X-4761904Y23250000D01*
X-4714285Y23202381D01*
X-4666666Y23107143D01*
X-4666666Y23011905D01*
X-4714285Y22869048D01*
X-5285714Y22297619D01*
X-4666666Y22297619D01*
X-4333333Y23297619D02*
X-3666666Y23297619D01*
X-4095238Y22297619D01*
X22202381Y3761905D02*
X23011905Y3761905D01*
X23107143Y3809524D01*
X23154762Y3857143D01*
X23202381Y3952381D01*
X23202381Y4142858D01*
X23154762Y4238096D01*
X23107143Y4285715D01*
X23011905Y4333334D01*
X22202381Y4333334D01*
X22202381Y4714286D02*
X22202381Y5333334D01*
X22583333Y5000000D01*
X22583333Y5142858D01*
X22630952Y5238096D01*
X22678571Y5285715D01*
X22773810Y5333334D01*
X23011905Y5333334D01*
X23107143Y5285715D01*
X23154762Y5238096D01*
X23202381Y5142858D01*
X23202381Y4857143D01*
X23154762Y4761905D01*
X23107143Y4714286D01*
X22535714Y6190477D02*
X23202381Y6190477D01*
X22154762Y5952381D02*
X22869048Y5714286D01*
X22869048Y6333334D01*
X10857143Y-19142857D02*
X10904762Y-19190476D01*
X10952381Y-19333333D01*
X10952381Y-19428571D01*
X10904762Y-19571429D01*
X10809524Y-19666667D01*
X10714286Y-19714286D01*
X10523810Y-19761905D01*
X10380952Y-19761905D01*
X10190476Y-19714286D01*
X10095238Y-19666667D01*
X10000000Y-19571429D01*
X9952381Y-19428571D01*
X9952381Y-19333333D01*
X10000000Y-19190476D01*
X10047619Y-19142857D01*
X10952381Y-18190476D02*
X10952381Y-18761905D01*
X10952381Y-18476191D02*
X9952381Y-18476191D01*
X10095238Y-18571429D01*
X10190476Y-18666667D01*
X10238095Y-18761905D01*
X10047619Y-17809524D02*
X10000000Y-17761905D01*
X9952381Y-17666667D01*
X9952381Y-17428571D01*
X10000000Y-17333333D01*
X10047619Y-17285714D01*
X10142857Y-17238095D01*
X10238095Y-17238095D01*
X10380952Y-17285714D01*
X10952381Y-17857143D01*
X10952381Y-17238095D01*
X10857143Y-16142857D02*
X10904762Y-16190476D01*
X10952381Y-16333333D01*
X10952381Y-16428571D01*
X10904762Y-16571429D01*
X10809524Y-16666667D01*
X10714286Y-16714286D01*
X10523810Y-16761905D01*
X10380952Y-16761905D01*
X10190476Y-16714286D01*
X10095238Y-16666667D01*
X10000000Y-16571429D01*
X9952381Y-16428571D01*
X9952381Y-16333333D01*
X10000000Y-16190476D01*
X10047619Y-16142857D01*
X10952381Y-15190476D02*
X10952381Y-15761905D01*
X10952381Y-15476191D02*
X9952381Y-15476191D01*
X10095238Y-15571429D01*
X10190476Y-15666667D01*
X10238095Y-15761905D01*
X9952381Y-14857143D02*
X9952381Y-14238095D01*
X10333333Y-14571429D01*
X10333333Y-14428571D01*
X10380952Y-14333333D01*
X10428571Y-14285714D01*
X10523810Y-14238095D01*
X10761905Y-14238095D01*
X10857143Y-14285714D01*
X10904762Y-14333333D01*
X10952381Y-14428571D01*
X10952381Y-14714286D01*
X10904762Y-14809524D01*
X10857143Y-14857143D01*
X1607143Y-8357143D02*
X1559524Y-8404762D01*
X1416667Y-8452381D01*
X1321429Y-8452381D01*
X1178571Y-8404762D01*
X1083333Y-8309524D01*
X1035714Y-8214286D01*
X988095Y-8023810D01*
X988095Y-7880952D01*
X1035714Y-7690476D01*
X1083333Y-7595238D01*
X1178571Y-7500000D01*
X1321429Y-7452381D01*
X1416667Y-7452381D01*
X1559524Y-7500000D01*
X1607143Y-7547619D01*
X2559524Y-8452381D02*
X1988095Y-8452381D01*
X2273809Y-8452381D02*
X2273809Y-7452381D01*
X2178571Y-7595238D01*
X2083333Y-7690476D01*
X1988095Y-7738095D01*
X3416667Y-7785714D02*
X3416667Y-8452381D01*
X3178571Y-7404762D02*
X2940476Y-8119048D01*
X3559524Y-8119048D01*
X-1642857Y-8357143D02*
X-1690476Y-8404762D01*
X-1833333Y-8452381D01*
X-1928571Y-8452381D01*
X-2071429Y-8404762D01*
X-2166667Y-8309524D01*
X-2214286Y-8214286D01*
X-2261905Y-8023810D01*
X-2261905Y-7880952D01*
X-2214286Y-7690476D01*
X-2166667Y-7595238D01*
X-2071429Y-7500000D01*
X-1928571Y-7452381D01*
X-1833333Y-7452381D01*
X-1690476Y-7500000D01*
X-1642857Y-7547619D01*
X-690476Y-8452381D02*
X-1261905Y-8452381D01*
X-976191Y-8452381D02*
X-976191Y-7452381D01*
X-1071429Y-7595238D01*
X-1166667Y-7690476D01*
X-1261905Y-7738095D01*
X214286Y-7452381D02*
X-261905Y-7452381D01*
X-309524Y-7928571D01*
X-261905Y-7880952D01*
X-166667Y-7833333D01*
X71429Y-7833333D01*
X166667Y-7880952D01*
X214286Y-7928571D01*
X261905Y-8023810D01*
X261905Y-8261905D01*
X214286Y-8357143D01*
X166667Y-8404762D01*
X71429Y-8452381D01*
X-166667Y-8452381D01*
X-261905Y-8404762D01*
X-309524Y-8357143D01*
X9607143Y-19142857D02*
X9654762Y-19190476D01*
X9702381Y-19333333D01*
X9702381Y-19428571D01*
X9654762Y-19571429D01*
X9559524Y-19666667D01*
X9464286Y-19714286D01*
X9273810Y-19761905D01*
X9130952Y-19761905D01*
X8940476Y-19714286D01*
X8845238Y-19666667D01*
X8750000Y-19571429D01*
X8702381Y-19428571D01*
X8702381Y-19333333D01*
X8750000Y-19190476D01*
X8797619Y-19142857D01*
X9702381Y-18190476D02*
X9702381Y-18761905D01*
X9702381Y-18476191D02*
X8702381Y-18476191D01*
X8845238Y-18571429D01*
X8940476Y-18666667D01*
X8988095Y-18761905D01*
X8702381Y-17333333D02*
X8702381Y-17523810D01*
X8750000Y-17619048D01*
X8797619Y-17666667D01*
X8940476Y-17761905D01*
X9130952Y-17809524D01*
X9511905Y-17809524D01*
X9607143Y-17761905D01*
X9654762Y-17714286D01*
X9702381Y-17619048D01*
X9702381Y-17428571D01*
X9654762Y-17333333D01*
X9607143Y-17285714D01*
X9511905Y-17238095D01*
X9273810Y-17238095D01*
X9178571Y-17285714D01*
X9130952Y-17333333D01*
X9083333Y-17428571D01*
X9083333Y-17619048D01*
X9130952Y-17714286D01*
X9178571Y-17761905D01*
X9273810Y-17809524D01*
X9607143Y-16142857D02*
X9654762Y-16190476D01*
X9702381Y-16333333D01*
X9702381Y-16428571D01*
X9654762Y-16571429D01*
X9559524Y-16666667D01*
X9464286Y-16714286D01*
X9273810Y-16761905D01*
X9130952Y-16761905D01*
X8940476Y-16714286D01*
X8845238Y-16666667D01*
X8750000Y-16571429D01*
X8702381Y-16428571D01*
X8702381Y-16333333D01*
X8750000Y-16190476D01*
X8797619Y-16142857D01*
X9702381Y-15190476D02*
X9702381Y-15761905D01*
X9702381Y-15476191D02*
X8702381Y-15476191D01*
X8845238Y-15571429D01*
X8940476Y-15666667D01*
X8988095Y-15761905D01*
X8702381Y-14857143D02*
X8702381Y-14190476D01*
X9702381Y-14619048D01*
X1607143Y-9607143D02*
X1559524Y-9654762D01*
X1416667Y-9702381D01*
X1321429Y-9702381D01*
X1178571Y-9654762D01*
X1083333Y-9559524D01*
X1035714Y-9464286D01*
X988095Y-9273810D01*
X988095Y-9130952D01*
X1035714Y-8940476D01*
X1083333Y-8845238D01*
X1178571Y-8750000D01*
X1321429Y-8702381D01*
X1416667Y-8702381D01*
X1559524Y-8750000D01*
X1607143Y-8797619D01*
X2559524Y-9702381D02*
X1988095Y-9702381D01*
X2273809Y-9702381D02*
X2273809Y-8702381D01*
X2178571Y-8845238D01*
X2083333Y-8940476D01*
X1988095Y-8988095D01*
X3130952Y-9130952D02*
X3035714Y-9083333D01*
X2988095Y-9035714D01*
X2940476Y-8940476D01*
X2940476Y-8892857D01*
X2988095Y-8797619D01*
X3035714Y-8750000D01*
X3130952Y-8702381D01*
X3321429Y-8702381D01*
X3416667Y-8750000D01*
X3464286Y-8797619D01*
X3511905Y-8892857D01*
X3511905Y-8940476D01*
X3464286Y-9035714D01*
X3416667Y-9083333D01*
X3321429Y-9130952D01*
X3130952Y-9130952D01*
X3035714Y-9178571D01*
X2988095Y-9226190D01*
X2940476Y-9321429D01*
X2940476Y-9511905D01*
X2988095Y-9607143D01*
X3035714Y-9654762D01*
X3130952Y-9702381D01*
X3321429Y-9702381D01*
X3416667Y-9654762D01*
X3464286Y-9607143D01*
X3511905Y-9511905D01*
X3511905Y-9321429D01*
X3464286Y-9226190D01*
X3416667Y-9178571D01*
X3321429Y-9130952D01*
X-1642857Y-9607143D02*
X-1690476Y-9654762D01*
X-1833333Y-9702381D01*
X-1928571Y-9702381D01*
X-2071429Y-9654762D01*
X-2166667Y-9559524D01*
X-2214286Y-9464286D01*
X-2261905Y-9273810D01*
X-2261905Y-9130952D01*
X-2214286Y-8940476D01*
X-2166667Y-8845238D01*
X-2071429Y-8750000D01*
X-1928571Y-8702381D01*
X-1833333Y-8702381D01*
X-1690476Y-8750000D01*
X-1642857Y-8797619D01*
X-690476Y-9702381D02*
X-1261905Y-9702381D01*
X-976191Y-9702381D02*
X-976191Y-8702381D01*
X-1071429Y-8845238D01*
X-1166667Y-8940476D01*
X-1261905Y-8988095D01*
X-214286Y-9702381D02*
X-23810Y-9702381D01*
X71429Y-9654762D01*
X119048Y-9607143D01*
X214286Y-9464286D01*
X261905Y-9273810D01*
X261905Y-8892857D01*
X214286Y-8797619D01*
X166667Y-8750000D01*
X71429Y-8702381D01*
X-119048Y-8702381D01*
X-214286Y-8750000D01*
X-261905Y-8797619D01*
X-309524Y-8892857D01*
X-309524Y-9130952D01*
X-261905Y-9226190D01*
X-214286Y-9273810D01*
X-119048Y-9321429D01*
X71429Y-9321429D01*
X166667Y-9273810D01*
X214286Y-9226190D01*
X261905Y-9130952D01*
X-6392857Y-21892857D02*
X-6345238Y-21940476D01*
X-6297619Y-22083333D01*
X-6297619Y-22178571D01*
X-6345238Y-22321429D01*
X-6440476Y-22416667D01*
X-6535714Y-22464286D01*
X-6726190Y-22511905D01*
X-6869048Y-22511905D01*
X-7059524Y-22464286D01*
X-7154762Y-22416667D01*
X-7250000Y-22321429D01*
X-7297619Y-22178571D01*
X-7297619Y-22083333D01*
X-7250000Y-21940476D01*
X-7202381Y-21892857D01*
X-7202381Y-21511905D02*
X-7250000Y-21464286D01*
X-7297619Y-21369048D01*
X-7297619Y-21130952D01*
X-7250000Y-21035714D01*
X-7202381Y-20988095D01*
X-7107143Y-20940476D01*
X-7011905Y-20940476D01*
X-6869048Y-20988095D01*
X-6297619Y-21559524D01*
X-6297619Y-20940476D01*
X-7297619Y-20321429D02*
X-7297619Y-20226190D01*
X-7250000Y-20130952D01*
X-7202381Y-20083333D01*
X-7107143Y-20035714D01*
X-6916667Y-19988095D01*
X-6678571Y-19988095D01*
X-6488095Y-20035714D01*
X-6392857Y-20083333D01*
X-6345238Y-20130952D01*
X-6297619Y-20226190D01*
X-6297619Y-20321429D01*
X-6345238Y-20416667D01*
X-6392857Y-20464286D01*
X-6488095Y-20511905D01*
X-6678571Y-20559524D01*
X-6916667Y-20559524D01*
X-7107143Y-20511905D01*
X-7202381Y-20464286D01*
X-7250000Y-20416667D01*
X-7297619Y-20321429D01*
X-5642857Y-14142857D02*
X-5595238Y-14190476D01*
X-5547619Y-14333333D01*
X-5547619Y-14428571D01*
X-5595238Y-14571429D01*
X-5690476Y-14666667D01*
X-5785714Y-14714286D01*
X-5976190Y-14761905D01*
X-6119048Y-14761905D01*
X-6309524Y-14714286D01*
X-6404762Y-14666667D01*
X-6500000Y-14571429D01*
X-6547619Y-14428571D01*
X-6547619Y-14333333D01*
X-6500000Y-14190476D01*
X-6452381Y-14142857D01*
X-6452381Y-13761905D02*
X-6500000Y-13714286D01*
X-6547619Y-13619048D01*
X-6547619Y-13380952D01*
X-6500000Y-13285714D01*
X-6452381Y-13238095D01*
X-6357143Y-13190476D01*
X-6261905Y-13190476D01*
X-6119048Y-13238095D01*
X-5547619Y-13809524D01*
X-5547619Y-13190476D01*
X-5547619Y-12238095D02*
X-5547619Y-12809524D01*
X-5547619Y-12523810D02*
X-6547619Y-12523810D01*
X-6404762Y-12619048D01*
X-6309524Y-12714286D01*
X-6261905Y-12809524D01*
X-5142857Y-22392857D02*
X-5095238Y-22440476D01*
X-5047619Y-22583333D01*
X-5047619Y-22678571D01*
X-5095238Y-22821429D01*
X-5190476Y-22916667D01*
X-5285714Y-22964286D01*
X-5476190Y-23011905D01*
X-5619048Y-23011905D01*
X-5809524Y-22964286D01*
X-5904762Y-22916667D01*
X-6000000Y-22821429D01*
X-6047619Y-22678571D01*
X-6047619Y-22583333D01*
X-6000000Y-22440476D01*
X-5952381Y-22392857D01*
X-5952381Y-22011905D02*
X-6000000Y-21964286D01*
X-6047619Y-21869048D01*
X-6047619Y-21630952D01*
X-6000000Y-21535714D01*
X-5952381Y-21488095D01*
X-5857143Y-21440476D01*
X-5761905Y-21440476D01*
X-5619048Y-21488095D01*
X-5047619Y-22059524D01*
X-5047619Y-21440476D01*
X-5952381Y-21059524D02*
X-6000000Y-21011905D01*
X-6047619Y-20916667D01*
X-6047619Y-20678571D01*
X-6000000Y-20583333D01*
X-5952381Y-20535714D01*
X-5857143Y-20488095D01*
X-5761905Y-20488095D01*
X-5619048Y-20535714D01*
X-5047619Y-21107143D01*
X-5047619Y-20488095D01*
X3357143Y-25357143D02*
X3309524Y-25404762D01*
X3166667Y-25452381D01*
X3071429Y-25452381D01*
X2928571Y-25404762D01*
X2833333Y-25309524D01*
X2785714Y-25214286D01*
X2738095Y-25023810D01*
X2738095Y-24880952D01*
X2785714Y-24690476D01*
X2833333Y-24595238D01*
X2928571Y-24500000D01*
X3071429Y-24452381D01*
X3166667Y-24452381D01*
X3309524Y-24500000D01*
X3357143Y-24547619D01*
X3738095Y-24547619D02*
X3785714Y-24500000D01*
X3880952Y-24452381D01*
X4119048Y-24452381D01*
X4214286Y-24500000D01*
X4261905Y-24547619D01*
X4309524Y-24642857D01*
X4309524Y-24738095D01*
X4261905Y-24880952D01*
X3690476Y-25452381D01*
X4309524Y-25452381D01*
X4642857Y-24452381D02*
X5261905Y-24452381D01*
X4928571Y-24833333D01*
X5071429Y-24833333D01*
X5166667Y-24880952D01*
X5214286Y-24928571D01*
X5261905Y-25023810D01*
X5261905Y-25261905D01*
X5214286Y-25357143D01*
X5166667Y-25404762D01*
X5071429Y-25452381D01*
X4785714Y-25452381D01*
X4690476Y-25404762D01*
X4642857Y-25357143D01*
X357143Y-25357143D02*
X309524Y-25404762D01*
X166667Y-25452381D01*
X71429Y-25452381D01*
X-71429Y-25404762D01*
X-166667Y-25309524D01*
X-214286Y-25214286D01*
X-261905Y-25023810D01*
X-261905Y-24880952D01*
X-214286Y-24690476D01*
X-166667Y-24595238D01*
X-71429Y-24500000D01*
X71429Y-24452381D01*
X166667Y-24452381D01*
X309524Y-24500000D01*
X357143Y-24547619D01*
X738095Y-24547619D02*
X785714Y-24500000D01*
X880952Y-24452381D01*
X1119048Y-24452381D01*
X1214286Y-24500000D01*
X1261905Y-24547619D01*
X1309524Y-24642857D01*
X1309524Y-24738095D01*
X1261905Y-24880952D01*
X690476Y-25452381D01*
X1309524Y-25452381D01*
X2166667Y-24452381D02*
X1976190Y-24452381D01*
X1880952Y-24500000D01*
X1833333Y-24547619D01*
X1738095Y-24690476D01*
X1690476Y-24880952D01*
X1690476Y-25261905D01*
X1738095Y-25357143D01*
X1785714Y-25404762D01*
X1880952Y-25452381D01*
X2071429Y-25452381D01*
X2166667Y-25404762D01*
X2214286Y-25357143D01*
X2261905Y-25261905D01*
X2261905Y-25023810D01*
X2214286Y-24928571D01*
X2166667Y-24880952D01*
X2071429Y-24833333D01*
X1880952Y-24833333D01*
X1785714Y-24880952D01*
X1738095Y-24928571D01*
X1690476Y-25023810D01*
X-2642857Y-25357143D02*
X-2690476Y-25404762D01*
X-2833333Y-25452381D01*
X-2928571Y-25452381D01*
X-3071429Y-25404762D01*
X-3166667Y-25309524D01*
X-3214286Y-25214286D01*
X-3261905Y-25023810D01*
X-3261905Y-24880952D01*
X-3214286Y-24690476D01*
X-3166667Y-24595238D01*
X-3071429Y-24500000D01*
X-2928571Y-24452381D01*
X-2833333Y-24452381D01*
X-2690476Y-24500000D01*
X-2642857Y-24547619D01*
X-2261905Y-24547619D02*
X-2214286Y-24500000D01*
X-2119048Y-24452381D01*
X-1880952Y-24452381D01*
X-1785714Y-24500000D01*
X-1738095Y-24547619D01*
X-1690476Y-24642857D01*
X-1690476Y-24738095D01*
X-1738095Y-24880952D01*
X-2309524Y-25452381D01*
X-1690476Y-25452381D01*
X-1357143Y-24452381D02*
X-690476Y-24452381D01*
X-1119048Y-25452381D01*
X4357143Y-21857143D02*
X4309524Y-21904762D01*
X4166667Y-21952381D01*
X4071429Y-21952381D01*
X3928571Y-21904762D01*
X3833333Y-21809524D01*
X3785714Y-21714286D01*
X3738095Y-21523810D01*
X3738095Y-21380952D01*
X3785714Y-21190476D01*
X3833333Y-21095238D01*
X3928571Y-21000000D01*
X4071429Y-20952381D01*
X4166667Y-20952381D01*
X4309524Y-21000000D01*
X4357143Y-21047619D01*
X4738095Y-21047619D02*
X4785714Y-21000000D01*
X4880952Y-20952381D01*
X5119048Y-20952381D01*
X5214286Y-21000000D01*
X5261905Y-21047619D01*
X5309524Y-21142857D01*
X5309524Y-21238095D01*
X5261905Y-21380952D01*
X4690476Y-21952381D01*
X5309524Y-21952381D01*
X5880952Y-21380952D02*
X5785714Y-21333333D01*
X5738095Y-21285714D01*
X5690476Y-21190476D01*
X5690476Y-21142857D01*
X5738095Y-21047619D01*
X5785714Y-21000000D01*
X5880952Y-20952381D01*
X6071429Y-20952381D01*
X6166667Y-21000000D01*
X6214286Y-21047619D01*
X6261905Y-21142857D01*
X6261905Y-21190476D01*
X6214286Y-21285714D01*
X6166667Y-21333333D01*
X6071429Y-21380952D01*
X5880952Y-21380952D01*
X5785714Y-21428571D01*
X5738095Y-21476190D01*
X5690476Y-21571429D01*
X5690476Y-21761905D01*
X5738095Y-21857143D01*
X5785714Y-21904762D01*
X5880952Y-21952381D01*
X6071429Y-21952381D01*
X6166667Y-21904762D01*
X6214286Y-21857143D01*
X6261905Y-21761905D01*
X6261905Y-21571429D01*
X6214286Y-21476190D01*
X6166667Y-21428571D01*
X6071429Y-21380952D01*
X-7642857Y-21892857D02*
X-7595238Y-21940476D01*
X-7547619Y-22083333D01*
X-7547619Y-22178571D01*
X-7595238Y-22321429D01*
X-7690476Y-22416667D01*
X-7785714Y-22464286D01*
X-7976190Y-22511905D01*
X-8119048Y-22511905D01*
X-8309524Y-22464286D01*
X-8404762Y-22416667D01*
X-8500000Y-22321429D01*
X-8547619Y-22178571D01*
X-8547619Y-22083333D01*
X-8500000Y-21940476D01*
X-8452381Y-21892857D01*
X-8452381Y-21511905D02*
X-8500000Y-21464286D01*
X-8547619Y-21369048D01*
X-8547619Y-21130952D01*
X-8500000Y-21035714D01*
X-8452381Y-20988095D01*
X-8357143Y-20940476D01*
X-8261905Y-20940476D01*
X-8119048Y-20988095D01*
X-7547619Y-21559524D01*
X-7547619Y-20940476D01*
X-7547619Y-20464286D02*
X-7547619Y-20273810D01*
X-7595238Y-20178571D01*
X-7642857Y-20130952D01*
X-7785714Y-20035714D01*
X-7976190Y-19988095D01*
X-8357143Y-19988095D01*
X-8452381Y-20035714D01*
X-8500000Y-20083333D01*
X-8547619Y-20178571D01*
X-8547619Y-20369048D01*
X-8500000Y-20464286D01*
X-8452381Y-20511905D01*
X-8357143Y-20559524D01*
X-8119048Y-20559524D01*
X-8023810Y-20511905D01*
X-7976190Y-20464286D01*
X-7928571Y-20369048D01*
X-7928571Y-20178571D01*
X-7976190Y-20083333D01*
X-8023810Y-20035714D01*
X-8119048Y-19988095D01*
X-7642857Y-14142857D02*
X-7595238Y-14190476D01*
X-7547619Y-14333333D01*
X-7547619Y-14428571D01*
X-7595238Y-14571429D01*
X-7690476Y-14666667D01*
X-7785714Y-14714286D01*
X-7976190Y-14761905D01*
X-8119048Y-14761905D01*
X-8309524Y-14714286D01*
X-8404762Y-14666667D01*
X-8500000Y-14571429D01*
X-8547619Y-14428571D01*
X-8547619Y-14333333D01*
X-8500000Y-14190476D01*
X-8452381Y-14142857D01*
X-8547619Y-13809524D02*
X-8547619Y-13190476D01*
X-8166667Y-13523810D01*
X-8166667Y-13380952D01*
X-8119048Y-13285714D01*
X-8071429Y-13238095D01*
X-7976190Y-13190476D01*
X-7738095Y-13190476D01*
X-7642857Y-13238095D01*
X-7595238Y-13285714D01*
X-7547619Y-13380952D01*
X-7547619Y-13666667D01*
X-7595238Y-13761905D01*
X-7642857Y-13809524D01*
X-8547619Y-12571429D02*
X-8547619Y-12476190D01*
X-8500000Y-12380952D01*
X-8452381Y-12333333D01*
X-8357143Y-12285714D01*
X-8166667Y-12238095D01*
X-7928571Y-12238095D01*
X-7738095Y-12285714D01*
X-7642857Y-12333333D01*
X-7595238Y-12380952D01*
X-7547619Y-12476190D01*
X-7547619Y-12571429D01*
X-7595238Y-12666667D01*
X-7642857Y-12714286D01*
X-7738095Y-12761905D01*
X-7928571Y-12809524D01*
X-8166667Y-12809524D01*
X-8357143Y-12761905D01*
X-8452381Y-12714286D01*
X-8500000Y-12666667D01*
X-8547619Y-12571429D01*
X3357143Y-26607143D02*
X3309524Y-26654762D01*
X3166667Y-26702381D01*
X3071429Y-26702381D01*
X2928571Y-26654762D01*
X2833333Y-26559524D01*
X2785714Y-26464286D01*
X2738095Y-26273810D01*
X2738095Y-26130952D01*
X2785714Y-25940476D01*
X2833333Y-25845238D01*
X2928571Y-25750000D01*
X3071429Y-25702381D01*
X3166667Y-25702381D01*
X3309524Y-25750000D01*
X3357143Y-25797619D01*
X3690476Y-25702381D02*
X4309524Y-25702381D01*
X3976190Y-26083333D01*
X4119048Y-26083333D01*
X4214286Y-26130952D01*
X4261905Y-26178571D01*
X4309524Y-26273810D01*
X4309524Y-26511905D01*
X4261905Y-26607143D01*
X4214286Y-26654762D01*
X4119048Y-26702381D01*
X3833333Y-26702381D01*
X3738095Y-26654762D01*
X3690476Y-26607143D01*
X5261905Y-26702381D02*
X4690476Y-26702381D01*
X4976190Y-26702381D02*
X4976190Y-25702381D01*
X4880952Y-25845238D01*
X4785714Y-25940476D01*
X4690476Y-25988095D01*
X357143Y-26607143D02*
X309524Y-26654762D01*
X166667Y-26702381D01*
X71429Y-26702381D01*
X-71429Y-26654762D01*
X-166667Y-26559524D01*
X-214286Y-26464286D01*
X-261905Y-26273810D01*
X-261905Y-26130952D01*
X-214286Y-25940476D01*
X-166667Y-25845238D01*
X-71429Y-25750000D01*
X71429Y-25702381D01*
X166667Y-25702381D01*
X309524Y-25750000D01*
X357143Y-25797619D01*
X690476Y-25702381D02*
X1309524Y-25702381D01*
X976190Y-26083333D01*
X1119048Y-26083333D01*
X1214286Y-26130952D01*
X1261905Y-26178571D01*
X1309524Y-26273810D01*
X1309524Y-26511905D01*
X1261905Y-26607143D01*
X1214286Y-26654762D01*
X1119048Y-26702381D01*
X833333Y-26702381D01*
X738095Y-26654762D01*
X690476Y-26607143D01*
X1690476Y-25797619D02*
X1738095Y-25750000D01*
X1833333Y-25702381D01*
X2071429Y-25702381D01*
X2166667Y-25750000D01*
X2214286Y-25797619D01*
X2261905Y-25892857D01*
X2261905Y-25988095D01*
X2214286Y-26130952D01*
X1642857Y-26702381D01*
X2261905Y-26702381D01*
X-2642857Y-26607143D02*
X-2690476Y-26654762D01*
X-2833333Y-26702381D01*
X-2928571Y-26702381D01*
X-3071429Y-26654762D01*
X-3166667Y-26559524D01*
X-3214286Y-26464286D01*
X-3261905Y-26273810D01*
X-3261905Y-26130952D01*
X-3214286Y-25940476D01*
X-3166667Y-25845238D01*
X-3071429Y-25750000D01*
X-2928571Y-25702381D01*
X-2833333Y-25702381D01*
X-2690476Y-25750000D01*
X-2642857Y-25797619D01*
X-2309524Y-25702381D02*
X-1690476Y-25702381D01*
X-2023810Y-26083333D01*
X-1880952Y-26083333D01*
X-1785714Y-26130952D01*
X-1738095Y-26178571D01*
X-1690476Y-26273810D01*
X-1690476Y-26511905D01*
X-1738095Y-26607143D01*
X-1785714Y-26654762D01*
X-1880952Y-26702381D01*
X-2166667Y-26702381D01*
X-2261905Y-26654762D01*
X-2309524Y-26607143D01*
X-1357143Y-25702381D02*
X-738095Y-25702381D01*
X-1071429Y-26083333D01*
X-928571Y-26083333D01*
X-833333Y-26130952D01*
X-785714Y-26178571D01*
X-738095Y-26273810D01*
X-738095Y-26511905D01*
X-785714Y-26607143D01*
X-833333Y-26654762D01*
X-928571Y-26702381D01*
X-1214286Y-26702381D01*
X-1309524Y-26654762D01*
X-1357143Y-26607143D01*
X-5642857Y-26607143D02*
X-5690476Y-26654762D01*
X-5833333Y-26702381D01*
X-5928571Y-26702381D01*
X-6071429Y-26654762D01*
X-6166667Y-26559524D01*
X-6214286Y-26464286D01*
X-6261905Y-26273810D01*
X-6261905Y-26130952D01*
X-6214286Y-25940476D01*
X-6166667Y-25845238D01*
X-6071429Y-25750000D01*
X-5928571Y-25702381D01*
X-5833333Y-25702381D01*
X-5690476Y-25750000D01*
X-5642857Y-25797619D01*
X-5309524Y-25702381D02*
X-4690476Y-25702381D01*
X-5023810Y-26083333D01*
X-4880952Y-26083333D01*
X-4785714Y-26130952D01*
X-4738095Y-26178571D01*
X-4690476Y-26273810D01*
X-4690476Y-26511905D01*
X-4738095Y-26607143D01*
X-4785714Y-26654762D01*
X-4880952Y-26702381D01*
X-5166667Y-26702381D01*
X-5261905Y-26654762D01*
X-5309524Y-26607143D01*
X-3833333Y-26035714D02*
X-3833333Y-26702381D01*
X-4071429Y-25654762D02*
X-4309524Y-26369048D01*
X-3690476Y-26369048D01*
X-20392857Y-7107143D02*
X-20440476Y-7154762D01*
X-20583333Y-7202381D01*
X-20678571Y-7202381D01*
X-20821429Y-7154762D01*
X-20916667Y-7059524D01*
X-20964286Y-6964286D01*
X-21011905Y-6773810D01*
X-21011905Y-6630952D01*
X-20964286Y-6440476D01*
X-20916667Y-6345238D01*
X-20821429Y-6250000D01*
X-20678571Y-6202381D01*
X-20583333Y-6202381D01*
X-20440476Y-6250000D01*
X-20392857Y-6297619D01*
X-20059524Y-6202381D02*
X-19440476Y-6202381D01*
X-19773810Y-6583333D01*
X-19630952Y-6583333D01*
X-19535714Y-6630952D01*
X-19488095Y-6678571D01*
X-19440476Y-6773810D01*
X-19440476Y-7011905D01*
X-19488095Y-7107143D01*
X-19535714Y-7154762D01*
X-19630952Y-7202381D01*
X-19916667Y-7202381D01*
X-20011905Y-7154762D01*
X-20059524Y-7107143D01*
X-18535714Y-6202381D02*
X-19011905Y-6202381D01*
X-19059524Y-6678571D01*
X-19011905Y-6630952D01*
X-18916667Y-6583333D01*
X-18678571Y-6583333D01*
X-18583333Y-6630952D01*
X-18535714Y-6678571D01*
X-18488095Y-6773810D01*
X-18488095Y-7011905D01*
X-18535714Y-7107143D01*
X-18583333Y-7154762D01*
X-18678571Y-7202381D01*
X-18916667Y-7202381D01*
X-19011905Y-7154762D01*
X-19059524Y-7107143D01*
X-12642857Y-8857143D02*
X-12690476Y-8904762D01*
X-12833333Y-8952381D01*
X-12928571Y-8952381D01*
X-13071429Y-8904762D01*
X-13166667Y-8809524D01*
X-13214286Y-8714286D01*
X-13261905Y-8523810D01*
X-13261905Y-8380952D01*
X-13214286Y-8190476D01*
X-13166667Y-8095238D01*
X-13071429Y-8000000D01*
X-12928571Y-7952381D01*
X-12833333Y-7952381D01*
X-12690476Y-8000000D01*
X-12642857Y-8047619D01*
X-12309524Y-7952381D02*
X-11690476Y-7952381D01*
X-12023810Y-8333333D01*
X-11880952Y-8333333D01*
X-11785714Y-8380952D01*
X-11738095Y-8428571D01*
X-11690476Y-8523810D01*
X-11690476Y-8761905D01*
X-11738095Y-8857143D01*
X-11785714Y-8904762D01*
X-11880952Y-8952381D01*
X-12166667Y-8952381D01*
X-12261905Y-8904762D01*
X-12309524Y-8857143D01*
X-10833333Y-7952381D02*
X-11023810Y-7952381D01*
X-11119048Y-8000000D01*
X-11166667Y-8047619D01*
X-11261905Y-8190476D01*
X-11309524Y-8380952D01*
X-11309524Y-8761905D01*
X-11261905Y-8857143D01*
X-11214286Y-8904762D01*
X-11119048Y-8952381D01*
X-10928571Y-8952381D01*
X-10833333Y-8904762D01*
X-10785714Y-8857143D01*
X-10738095Y-8761905D01*
X-10738095Y-8523810D01*
X-10785714Y-8428571D01*
X-10833333Y-8380952D01*
X-10928571Y-8333333D01*
X-11119048Y-8333333D01*
X-11214286Y-8380952D01*
X-11261905Y-8428571D01*
X-11309524Y-8523810D01*
X-7642857Y-3142857D02*
X-7595238Y-3190476D01*
X-7547619Y-3333333D01*
X-7547619Y-3428571D01*
X-7595238Y-3571429D01*
X-7690476Y-3666667D01*
X-7785714Y-3714286D01*
X-7976190Y-3761905D01*
X-8119048Y-3761905D01*
X-8309524Y-3714286D01*
X-8404762Y-3666667D01*
X-8500000Y-3571429D01*
X-8547619Y-3428571D01*
X-8547619Y-3333333D01*
X-8500000Y-3190476D01*
X-8452381Y-3142857D01*
X-8547619Y-2809524D02*
X-8547619Y-2190476D01*
X-8166667Y-2523810D01*
X-8166667Y-2380952D01*
X-8119048Y-2285714D01*
X-8071429Y-2238095D01*
X-7976190Y-2190476D01*
X-7738095Y-2190476D01*
X-7642857Y-2238095D01*
X-7595238Y-2285714D01*
X-7547619Y-2380952D01*
X-7547619Y-2666667D01*
X-7595238Y-2761905D01*
X-7642857Y-2809524D01*
X-8547619Y-1857143D02*
X-8547619Y-1190476D01*
X-7547619Y-1619048D01*
X-7642857Y-142857D02*
X-7595238Y-190476D01*
X-7547619Y-333333D01*
X-7547619Y-428571D01*
X-7595238Y-571429D01*
X-7690476Y-666667D01*
X-7785714Y-714286D01*
X-7976190Y-761905D01*
X-8119048Y-761905D01*
X-8309524Y-714286D01*
X-8404762Y-666667D01*
X-8500000Y-571429D01*
X-8547619Y-428571D01*
X-8547619Y-333333D01*
X-8500000Y-190476D01*
X-8452381Y-142857D01*
X-8547619Y190476D02*
X-8547619Y809524D01*
X-8166667Y476190D01*
X-8166667Y619048D01*
X-8119048Y714286D01*
X-8071429Y761905D01*
X-7976190Y809524D01*
X-7738095Y809524D01*
X-7642857Y761905D01*
X-7595238Y714286D01*
X-7547619Y619048D01*
X-7547619Y333333D01*
X-7595238Y238095D01*
X-7642857Y190476D01*
X-8119048Y1380952D02*
X-8166667Y1285714D01*
X-8214286Y1238095D01*
X-8309524Y1190476D01*
X-8357143Y1190476D01*
X-8452381Y1238095D01*
X-8500000Y1285714D01*
X-8547619Y1380952D01*
X-8547619Y1571429D01*
X-8500000Y1666667D01*
X-8452381Y1714286D01*
X-8357143Y1761905D01*
X-8309524Y1761905D01*
X-8214286Y1714286D01*
X-8166667Y1666667D01*
X-8119048Y1571429D01*
X-8119048Y1380952D01*
X-8071429Y1285714D01*
X-8023810Y1238095D01*
X-7928571Y1190476D01*
X-7738095Y1190476D01*
X-7642857Y1238095D01*
X-7595238Y1285714D01*
X-7547619Y1380952D01*
X-7547619Y1571429D01*
X-7595238Y1666667D01*
X-7642857Y1714286D01*
X-7738095Y1761905D01*
X-7928571Y1761905D01*
X-8023810Y1714286D01*
X-8071429Y1666667D01*
X-8119048Y1571429D01*
X-20392857Y-5857143D02*
X-20440476Y-5904762D01*
X-20583333Y-5952381D01*
X-20678571Y-5952381D01*
X-20821429Y-5904762D01*
X-20916667Y-5809524D01*
X-20964286Y-5714286D01*
X-21011905Y-5523810D01*
X-21011905Y-5380952D01*
X-20964286Y-5190476D01*
X-20916667Y-5095238D01*
X-20821429Y-5000000D01*
X-20678571Y-4952381D01*
X-20583333Y-4952381D01*
X-20440476Y-5000000D01*
X-20392857Y-5047619D01*
X-20059524Y-4952381D02*
X-19440476Y-4952381D01*
X-19773810Y-5333333D01*
X-19630952Y-5333333D01*
X-19535714Y-5380952D01*
X-19488095Y-5428571D01*
X-19440476Y-5523810D01*
X-19440476Y-5761905D01*
X-19488095Y-5857143D01*
X-19535714Y-5904762D01*
X-19630952Y-5952381D01*
X-19916667Y-5952381D01*
X-20011905Y-5904762D01*
X-20059524Y-5857143D01*
X-18964286Y-5952381D02*
X-18773810Y-5952381D01*
X-18678571Y-5904762D01*
X-18630952Y-5857143D01*
X-18535714Y-5714286D01*
X-18488095Y-5523810D01*
X-18488095Y-5142857D01*
X-18535714Y-5047619D01*
X-18583333Y-5000000D01*
X-18678571Y-4952381D01*
X-18869048Y-4952381D01*
X-18964286Y-5000000D01*
X-19011905Y-5047619D01*
X-19059524Y-5142857D01*
X-19059524Y-5380952D01*
X-19011905Y-5476190D01*
X-18964286Y-5523810D01*
X-18869048Y-5571429D01*
X-18678571Y-5571429D01*
X-18583333Y-5523810D01*
X-18535714Y-5476190D01*
X-18488095Y-5380952D01*
X-13892857Y-6107143D02*
X-13940476Y-6154762D01*
X-14083333Y-6202381D01*
X-14178571Y-6202381D01*
X-14321429Y-6154762D01*
X-14416667Y-6059524D01*
X-14464286Y-5964286D01*
X-14511905Y-5773810D01*
X-14511905Y-5630952D01*
X-14464286Y-5440476D01*
X-14416667Y-5345238D01*
X-14321429Y-5250000D01*
X-14178571Y-5202381D01*
X-14083333Y-5202381D01*
X-13940476Y-5250000D01*
X-13892857Y-5297619D01*
X-13035714Y-5535714D02*
X-13035714Y-6202381D01*
X-13273810Y-5154762D02*
X-13511905Y-5869048D01*
X-12892857Y-5869048D01*
X-12321429Y-5202381D02*
X-12226190Y-5202381D01*
X-12130952Y-5250000D01*
X-12083333Y-5297619D01*
X-12035714Y-5392857D01*
X-11988095Y-5583333D01*
X-11988095Y-5821429D01*
X-12035714Y-6011905D01*
X-12083333Y-6107143D01*
X-12130952Y-6154762D01*
X-12226190Y-6202381D01*
X-12321429Y-6202381D01*
X-12416667Y-6154762D01*
X-12464286Y-6107143D01*
X-12511905Y-6011905D01*
X-12559524Y-5821429D01*
X-12559524Y-5583333D01*
X-12511905Y-5392857D01*
X-12464286Y-5297619D01*
X-12416667Y-5250000D01*
X-12321429Y-5202381D01*
X-8892857Y-3142857D02*
X-8845238Y-3190476D01*
X-8797619Y-3333333D01*
X-8797619Y-3428571D01*
X-8845238Y-3571429D01*
X-8940476Y-3666667D01*
X-9035714Y-3714286D01*
X-9226190Y-3761905D01*
X-9369048Y-3761905D01*
X-9559524Y-3714286D01*
X-9654762Y-3666667D01*
X-9750000Y-3571429D01*
X-9797619Y-3428571D01*
X-9797619Y-3333333D01*
X-9750000Y-3190476D01*
X-9702381Y-3142857D01*
X-9464286Y-2285714D02*
X-8797619Y-2285714D01*
X-9845238Y-2523810D02*
X-9130952Y-2761905D01*
X-9130952Y-2142857D01*
X-8797619Y-1238095D02*
X-8797619Y-1809524D01*
X-8797619Y-1523810D02*
X-9797619Y-1523810D01*
X-9654762Y-1619048D01*
X-9559524Y-1714286D01*
X-9511905Y-1809524D01*
X-8892857Y-142857D02*
X-8845238Y-190476D01*
X-8797619Y-333333D01*
X-8797619Y-428571D01*
X-8845238Y-571429D01*
X-8940476Y-666667D01*
X-9035714Y-714286D01*
X-9226190Y-761905D01*
X-9369048Y-761905D01*
X-9559524Y-714286D01*
X-9654762Y-666667D01*
X-9750000Y-571429D01*
X-9797619Y-428571D01*
X-9797619Y-333333D01*
X-9750000Y-190476D01*
X-9702381Y-142857D01*
X-9464286Y714286D02*
X-8797619Y714286D01*
X-9845238Y476190D02*
X-9130952Y238095D01*
X-9130952Y857143D01*
X-9797619Y1142857D02*
X-9797619Y1761905D01*
X-9416667Y1428571D01*
X-9416667Y1571429D01*
X-9369048Y1666667D01*
X-9321429Y1714286D01*
X-9226190Y1761905D01*
X-8988095Y1761905D01*
X-8892857Y1714286D01*
X-8845238Y1666667D01*
X-8797619Y1571429D01*
X-8797619Y1285714D01*
X-8845238Y1190476D01*
X-8892857Y1142857D01*
X-19892857Y8642857D02*
X-19940476Y8595238D01*
X-20083333Y8547619D01*
X-20178571Y8547619D01*
X-20321429Y8595238D01*
X-20416667Y8690476D01*
X-20464286Y8785714D01*
X-20511905Y8976190D01*
X-20511905Y9119048D01*
X-20464286Y9309524D01*
X-20416667Y9404762D01*
X-20321429Y9500000D01*
X-20178571Y9547619D01*
X-20083333Y9547619D01*
X-19940476Y9500000D01*
X-19892857Y9452381D01*
X-19035714Y9214286D02*
X-19035714Y8547619D01*
X-19273810Y9595238D02*
X-19511905Y8880952D01*
X-18892857Y8880952D01*
X-18083333Y9214286D02*
X-18083333Y8547619D01*
X-18321429Y9595238D02*
X-18559524Y8880952D01*
X-17940476Y8880952D01*
X-16142857Y8892857D02*
X-16190476Y8845238D01*
X-16333333Y8797619D01*
X-16428571Y8797619D01*
X-16571429Y8845238D01*
X-16666667Y8940476D01*
X-16714286Y9035714D01*
X-16761905Y9226190D01*
X-16761905Y9369048D01*
X-16714286Y9559524D01*
X-16666667Y9654762D01*
X-16571429Y9750000D01*
X-16428571Y9797619D01*
X-16333333Y9797619D01*
X-16190476Y9750000D01*
X-16142857Y9702381D01*
X-15285714Y9464286D02*
X-15285714Y8797619D01*
X-15523810Y9845238D02*
X-15761905Y9130952D01*
X-15142857Y9130952D01*
X-14285714Y9797619D02*
X-14761905Y9797619D01*
X-14809524Y9321429D01*
X-14761905Y9369048D01*
X-14666667Y9416667D01*
X-14428571Y9416667D01*
X-14333333Y9369048D01*
X-14285714Y9321429D01*
X-14238095Y9226190D01*
X-14238095Y8988095D01*
X-14285714Y8892857D01*
X-14333333Y8845238D01*
X-14428571Y8797619D01*
X-14666667Y8797619D01*
X-14761905Y8845238D01*
X-14809524Y8892857D01*
X-22142857Y5392857D02*
X-22190476Y5345238D01*
X-22333333Y5297619D01*
X-22428571Y5297619D01*
X-22571429Y5345238D01*
X-22666667Y5440476D01*
X-22714286Y5535714D01*
X-22761905Y5726190D01*
X-22761905Y5869048D01*
X-22714286Y6059524D01*
X-22666667Y6154762D01*
X-22571429Y6250000D01*
X-22428571Y6297619D01*
X-22333333Y6297619D01*
X-22190476Y6250000D01*
X-22142857Y6202381D01*
X-21285714Y5964286D02*
X-21285714Y5297619D01*
X-21523810Y6345238D02*
X-21761905Y5630952D01*
X-21142857Y5630952D01*
X-20333333Y6297619D02*
X-20523810Y6297619D01*
X-20619048Y6250000D01*
X-20666667Y6202381D01*
X-20761905Y6059524D01*
X-20809524Y5869048D01*
X-20809524Y5488095D01*
X-20761905Y5392857D01*
X-20714286Y5345238D01*
X-20619048Y5297619D01*
X-20428571Y5297619D01*
X-20333333Y5345238D01*
X-20285714Y5392857D01*
X-20238095Y5488095D01*
X-20238095Y5726190D01*
X-20285714Y5821429D01*
X-20333333Y5869048D01*
X-20428571Y5916667D01*
X-20619048Y5916667D01*
X-20714286Y5869048D01*
X-20761905Y5821429D01*
X-20809524Y5726190D01*
X-24392857Y-4392857D02*
X-24345238Y-4440476D01*
X-24297619Y-4583333D01*
X-24297619Y-4678571D01*
X-24345238Y-4821429D01*
X-24440476Y-4916667D01*
X-24535714Y-4964286D01*
X-24726190Y-5011905D01*
X-24869048Y-5011905D01*
X-25059524Y-4964286D01*
X-25154762Y-4916667D01*
X-25250000Y-4821429D01*
X-25297619Y-4678571D01*
X-25297619Y-4583333D01*
X-25250000Y-4440476D01*
X-25202381Y-4392857D01*
X-24964286Y-3535714D02*
X-24297619Y-3535714D01*
X-25345238Y-3773810D02*
X-24630952Y-4011905D01*
X-24630952Y-3392857D01*
X-25297619Y-3107143D02*
X-25297619Y-2440476D01*
X-24297619Y-2869048D01*
X-24392857Y-1392857D02*
X-24345238Y-1440476D01*
X-24297619Y-1583333D01*
X-24297619Y-1678571D01*
X-24345238Y-1821429D01*
X-24440476Y-1916667D01*
X-24535714Y-1964286D01*
X-24726190Y-2011905D01*
X-24869048Y-2011905D01*
X-25059524Y-1964286D01*
X-25154762Y-1916667D01*
X-25250000Y-1821429D01*
X-25297619Y-1678571D01*
X-25297619Y-1583333D01*
X-25250000Y-1440476D01*
X-25202381Y-1392857D01*
X-24964286Y-535714D02*
X-24297619Y-535714D01*
X-25345238Y-773810D02*
X-24630952Y-1011905D01*
X-24630952Y-392857D01*
X-24869048Y130952D02*
X-24916667Y35714D01*
X-24964286Y-11905D01*
X-25059524Y-59524D01*
X-25107143Y-59524D01*
X-25202381Y-11905D01*
X-25250000Y35714D01*
X-25297619Y130952D01*
X-25297619Y321429D01*
X-25250000Y416667D01*
X-25202381Y464286D01*
X-25107143Y511905D01*
X-25059524Y511905D01*
X-24964286Y464286D01*
X-24916667Y416667D01*
X-24869048Y321429D01*
X-24869048Y130952D01*
X-24821429Y35714D01*
X-24773810Y-11905D01*
X-24678571Y-59524D01*
X-24488095Y-59524D01*
X-24392857Y-11905D01*
X-24345238Y35714D01*
X-24297619Y130952D01*
X-24297619Y321429D01*
X-24345238Y416667D01*
X-24392857Y464286D01*
X-24488095Y511905D01*
X-24678571Y511905D01*
X-24773810Y464286D01*
X-24821429Y416667D01*
X-24869048Y321429D01*
X-24392857Y1607143D02*
X-24345238Y1559524D01*
X-24297619Y1416667D01*
X-24297619Y1321429D01*
X-24345238Y1178571D01*
X-24440476Y1083333D01*
X-24535714Y1035714D01*
X-24726190Y988095D01*
X-24869048Y988095D01*
X-25059524Y1035714D01*
X-25154762Y1083333D01*
X-25250000Y1178571D01*
X-25297619Y1321429D01*
X-25297619Y1416667D01*
X-25250000Y1559524D01*
X-25202381Y1607143D01*
X-24964286Y2464286D02*
X-24297619Y2464286D01*
X-25345238Y2226190D02*
X-24630952Y1988095D01*
X-24630952Y2607143D01*
X-24297619Y3035714D02*
X-24297619Y3226190D01*
X-24345238Y3321429D01*
X-24392857Y3369048D01*
X-24535714Y3464286D01*
X-24726190Y3511905D01*
X-25107143Y3511905D01*
X-25202381Y3464286D01*
X-25250000Y3416667D01*
X-25297619Y3321429D01*
X-25297619Y3130952D01*
X-25250000Y3035714D01*
X-25202381Y2988095D01*
X-25107143Y2940476D01*
X-24869048Y2940476D01*
X-24773810Y2988095D01*
X-24726190Y3035714D01*
X-24678571Y3130952D01*
X-24678571Y3321429D01*
X-24726190Y3416667D01*
X-24773810Y3464286D01*
X-24869048Y3511905D01*
X-21392857Y-5392857D02*
X-21345238Y-5440476D01*
X-21297619Y-5583333D01*
X-21297619Y-5678571D01*
X-21345238Y-5821429D01*
X-21440476Y-5916667D01*
X-21535714Y-5964286D01*
X-21726190Y-6011905D01*
X-21869048Y-6011905D01*
X-22059524Y-5964286D01*
X-22154762Y-5916667D01*
X-22250000Y-5821429D01*
X-22297619Y-5678571D01*
X-22297619Y-5583333D01*
X-22250000Y-5440476D01*
X-22202381Y-5392857D01*
X-22297619Y-4488095D02*
X-22297619Y-4964286D01*
X-21821429Y-5011905D01*
X-21869048Y-4964286D01*
X-21916667Y-4869048D01*
X-21916667Y-4630952D01*
X-21869048Y-4535714D01*
X-21821429Y-4488095D01*
X-21726190Y-4440476D01*
X-21488095Y-4440476D01*
X-21392857Y-4488095D01*
X-21345238Y-4535714D01*
X-21297619Y-4630952D01*
X-21297619Y-4869048D01*
X-21345238Y-4964286D01*
X-21392857Y-5011905D01*
X-22297619Y-3821429D02*
X-22297619Y-3726190D01*
X-22250000Y-3630952D01*
X-22202381Y-3583333D01*
X-22107143Y-3535714D01*
X-21916667Y-3488095D01*
X-21678571Y-3488095D01*
X-21488095Y-3535714D01*
X-21392857Y-3583333D01*
X-21345238Y-3630952D01*
X-21297619Y-3726190D01*
X-21297619Y-3821429D01*
X-21345238Y-3916667D01*
X-21392857Y-3964286D01*
X-21488095Y-4011905D01*
X-21678571Y-4059524D01*
X-21916667Y-4059524D01*
X-22107143Y-4011905D01*
X-22202381Y-3964286D01*
X-22250000Y-3916667D01*
X-22297619Y-3821429D01*
X-19892857Y9892857D02*
X-19940476Y9845238D01*
X-20083333Y9797619D01*
X-20178571Y9797619D01*
X-20321429Y9845238D01*
X-20416667Y9940476D01*
X-20464286Y10035714D01*
X-20511905Y10226190D01*
X-20511905Y10369048D01*
X-20464286Y10559524D01*
X-20416667Y10654762D01*
X-20321429Y10750000D01*
X-20178571Y10797619D01*
X-20083333Y10797619D01*
X-19940476Y10750000D01*
X-19892857Y10702381D01*
X-18988095Y10797619D02*
X-19464286Y10797619D01*
X-19511905Y10321429D01*
X-19464286Y10369048D01*
X-19369048Y10416667D01*
X-19130952Y10416667D01*
X-19035714Y10369048D01*
X-18988095Y10321429D01*
X-18940476Y10226190D01*
X-18940476Y9988095D01*
X-18988095Y9892857D01*
X-19035714Y9845238D01*
X-19130952Y9797619D01*
X-19369048Y9797619D01*
X-19464286Y9845238D01*
X-19511905Y9892857D01*
X-17988095Y9797619D02*
X-18559524Y9797619D01*
X-18273810Y9797619D02*
X-18273810Y10797619D01*
X-18369048Y10654762D01*
X-18464286Y10559524D01*
X-18559524Y10511905D01*
X-16142857Y10142857D02*
X-16190476Y10095238D01*
X-16333333Y10047619D01*
X-16428571Y10047619D01*
X-16571429Y10095238D01*
X-16666667Y10190476D01*
X-16714286Y10285714D01*
X-16761905Y10476190D01*
X-16761905Y10619048D01*
X-16714286Y10809524D01*
X-16666667Y10904762D01*
X-16571429Y11000000D01*
X-16428571Y11047619D01*
X-16333333Y11047619D01*
X-16190476Y11000000D01*
X-16142857Y10952381D01*
X-15238095Y11047619D02*
X-15714286Y11047619D01*
X-15761905Y10571429D01*
X-15714286Y10619048D01*
X-15619048Y10666667D01*
X-15380952Y10666667D01*
X-15285714Y10619048D01*
X-15238095Y10571429D01*
X-15190476Y10476190D01*
X-15190476Y10238095D01*
X-15238095Y10142857D01*
X-15285714Y10095238D01*
X-15380952Y10047619D01*
X-15619048Y10047619D01*
X-15714286Y10095238D01*
X-15761905Y10142857D01*
X-14857143Y11047619D02*
X-14238095Y11047619D01*
X-14571429Y10666667D01*
X-14428571Y10666667D01*
X-14333333Y10619048D01*
X-14285714Y10571429D01*
X-14238095Y10476190D01*
X-14238095Y10238095D01*
X-14285714Y10142857D01*
X-14333333Y10095238D01*
X-14428571Y10047619D01*
X-14714286Y10047619D01*
X-14809524Y10095238D01*
X-14857143Y10142857D01*
X-25642857Y-4392857D02*
X-25595238Y-4440476D01*
X-25547619Y-4583333D01*
X-25547619Y-4678571D01*
X-25595238Y-4821429D01*
X-25690476Y-4916667D01*
X-25785714Y-4964286D01*
X-25976190Y-5011905D01*
X-26119048Y-5011905D01*
X-26309524Y-4964286D01*
X-26404762Y-4916667D01*
X-26500000Y-4821429D01*
X-26547619Y-4678571D01*
X-26547619Y-4583333D01*
X-26500000Y-4440476D01*
X-26452381Y-4392857D01*
X-26547619Y-3488095D02*
X-26547619Y-3964286D01*
X-26071429Y-4011905D01*
X-26119048Y-3964286D01*
X-26166667Y-3869048D01*
X-26166667Y-3630952D01*
X-26119048Y-3535714D01*
X-26071429Y-3488095D01*
X-25976190Y-3440476D01*
X-25738095Y-3440476D01*
X-25642857Y-3488095D01*
X-25595238Y-3535714D01*
X-25547619Y-3630952D01*
X-25547619Y-3869048D01*
X-25595238Y-3964286D01*
X-25642857Y-4011905D01*
X-26214286Y-2583333D02*
X-25547619Y-2583333D01*
X-26595238Y-2821429D02*
X-25880952Y-3059524D01*
X-25880952Y-2440476D01*
X-25642857Y-1392857D02*
X-25595238Y-1440476D01*
X-25547619Y-1583333D01*
X-25547619Y-1678571D01*
X-25595238Y-1821429D01*
X-25690476Y-1916667D01*
X-25785714Y-1964286D01*
X-25976190Y-2011905D01*
X-26119048Y-2011905D01*
X-26309524Y-1964286D01*
X-26404762Y-1916667D01*
X-26500000Y-1821429D01*
X-26547619Y-1678571D01*
X-26547619Y-1583333D01*
X-26500000Y-1440476D01*
X-26452381Y-1392857D01*
X-26547619Y-488095D02*
X-26547619Y-964286D01*
X-26071429Y-1011905D01*
X-26119048Y-964286D01*
X-26166667Y-869048D01*
X-26166667Y-630952D01*
X-26119048Y-535714D01*
X-26071429Y-488095D01*
X-25976190Y-440476D01*
X-25738095Y-440476D01*
X-25642857Y-488095D01*
X-25595238Y-535714D01*
X-25547619Y-630952D01*
X-25547619Y-869048D01*
X-25595238Y-964286D01*
X-25642857Y-1011905D01*
X-26547619Y464286D02*
X-26547619Y-11905D01*
X-26071429Y-59524D01*
X-26119048Y-11905D01*
X-26166667Y83333D01*
X-26166667Y321429D01*
X-26119048Y416667D01*
X-26071429Y464286D01*
X-25976190Y511905D01*
X-25738095Y511905D01*
X-25642857Y464286D01*
X-25595238Y416667D01*
X-25547619Y321429D01*
X-25547619Y83333D01*
X-25595238Y-11905D01*
X-25642857Y-59524D01*
X-25642857Y1607143D02*
X-25595238Y1559524D01*
X-25547619Y1416667D01*
X-25547619Y1321429D01*
X-25595238Y1178571D01*
X-25690476Y1083333D01*
X-25785714Y1035714D01*
X-25976190Y988095D01*
X-26119048Y988095D01*
X-26309524Y1035714D01*
X-26404762Y1083333D01*
X-26500000Y1178571D01*
X-26547619Y1321429D01*
X-26547619Y1416667D01*
X-26500000Y1559524D01*
X-26452381Y1607143D01*
X-26547619Y2511905D02*
X-26547619Y2035714D01*
X-26071429Y1988095D01*
X-26119048Y2035714D01*
X-26166667Y2130952D01*
X-26166667Y2369048D01*
X-26119048Y2464286D01*
X-26071429Y2511905D01*
X-25976190Y2559524D01*
X-25738095Y2559524D01*
X-25642857Y2511905D01*
X-25595238Y2464286D01*
X-25547619Y2369048D01*
X-25547619Y2130952D01*
X-25595238Y2035714D01*
X-25642857Y1988095D01*
X-26547619Y3416667D02*
X-26547619Y3226190D01*
X-26500000Y3130952D01*
X-26452381Y3083333D01*
X-26309524Y2988095D01*
X-26119048Y2940476D01*
X-25738095Y2940476D01*
X-25642857Y2988095D01*
X-25595238Y3035714D01*
X-25547619Y3130952D01*
X-25547619Y3321429D01*
X-25595238Y3416667D01*
X-25642857Y3464286D01*
X-25738095Y3511905D01*
X-25976190Y3511905D01*
X-26071429Y3464286D01*
X-26119048Y3416667D01*
X-26166667Y3321429D01*
X-26166667Y3130952D01*
X-26119048Y3035714D01*
X-26071429Y2988095D01*
X-25976190Y2940476D01*
X-25642857Y4607143D02*
X-25595238Y4559524D01*
X-25547619Y4416667D01*
X-25547619Y4321429D01*
X-25595238Y4178571D01*
X-25690476Y4083333D01*
X-25785714Y4035714D01*
X-25976190Y3988095D01*
X-26119048Y3988095D01*
X-26309524Y4035714D01*
X-26404762Y4083333D01*
X-26500000Y4178571D01*
X-26547619Y4321429D01*
X-26547619Y4416667D01*
X-26500000Y4559524D01*
X-26452381Y4607143D01*
X-26547619Y5511905D02*
X-26547619Y5035714D01*
X-26071429Y4988095D01*
X-26119048Y5035714D01*
X-26166667Y5130952D01*
X-26166667Y5369048D01*
X-26119048Y5464286D01*
X-26071429Y5511905D01*
X-25976190Y5559524D01*
X-25738095Y5559524D01*
X-25642857Y5511905D01*
X-25595238Y5464286D01*
X-25547619Y5369048D01*
X-25547619Y5130952D01*
X-25595238Y5035714D01*
X-25642857Y4988095D01*
X-26547619Y5892857D02*
X-26547619Y6559524D01*
X-25547619Y6130952D01*
X-10142857Y17607143D02*
X-10095238Y17559524D01*
X-10047619Y17416667D01*
X-10047619Y17321429D01*
X-10095238Y17178571D01*
X-10190476Y17083333D01*
X-10285714Y17035714D01*
X-10476190Y16988095D01*
X-10619048Y16988095D01*
X-10809524Y17035714D01*
X-10904762Y17083333D01*
X-11000000Y17178571D01*
X-11047619Y17321429D01*
X-11047619Y17416667D01*
X-11000000Y17559524D01*
X-10952381Y17607143D01*
X-11047619Y18511905D02*
X-11047619Y18035714D01*
X-10571429Y17988095D01*
X-10619048Y18035714D01*
X-10666667Y18130952D01*
X-10666667Y18369048D01*
X-10619048Y18464286D01*
X-10571429Y18511905D01*
X-10476190Y18559524D01*
X-10238095Y18559524D01*
X-10142857Y18511905D01*
X-10095238Y18464286D01*
X-10047619Y18369048D01*
X-10047619Y18130952D01*
X-10095238Y18035714D01*
X-10142857Y17988095D01*
X-10619048Y19130952D02*
X-10666667Y19035714D01*
X-10714286Y18988095D01*
X-10809524Y18940476D01*
X-10857143Y18940476D01*
X-10952381Y18988095D01*
X-11000000Y19035714D01*
X-11047619Y19130952D01*
X-11047619Y19321429D01*
X-11000000Y19416667D01*
X-10952381Y19464286D01*
X-10857143Y19511905D01*
X-10809524Y19511905D01*
X-10714286Y19464286D01*
X-10666667Y19416667D01*
X-10619048Y19321429D01*
X-10619048Y19130952D01*
X-10571429Y19035714D01*
X-10523810Y18988095D01*
X-10428571Y18940476D01*
X-10238095Y18940476D01*
X-10142857Y18988095D01*
X-10095238Y19035714D01*
X-10047619Y19130952D01*
X-10047619Y19321429D01*
X-10095238Y19416667D01*
X-10142857Y19464286D01*
X-10238095Y19511905D01*
X-10428571Y19511905D01*
X-10523810Y19464286D01*
X-10571429Y19416667D01*
X-10619048Y19321429D01*
X-10142857Y14607143D02*
X-10095238Y14559524D01*
X-10047619Y14416667D01*
X-10047619Y14321429D01*
X-10095238Y14178571D01*
X-10190476Y14083333D01*
X-10285714Y14035714D01*
X-10476190Y13988095D01*
X-10619048Y13988095D01*
X-10809524Y14035714D01*
X-10904762Y14083333D01*
X-11000000Y14178571D01*
X-11047619Y14321429D01*
X-11047619Y14416667D01*
X-11000000Y14559524D01*
X-10952381Y14607143D01*
X-11047619Y15511905D02*
X-11047619Y15035714D01*
X-10571429Y14988095D01*
X-10619048Y15035714D01*
X-10666667Y15130952D01*
X-10666667Y15369048D01*
X-10619048Y15464286D01*
X-10571429Y15511905D01*
X-10476190Y15559524D01*
X-10238095Y15559524D01*
X-10142857Y15511905D01*
X-10095238Y15464286D01*
X-10047619Y15369048D01*
X-10047619Y15130952D01*
X-10095238Y15035714D01*
X-10142857Y14988095D01*
X-10047619Y16035714D02*
X-10047619Y16226190D01*
X-10095238Y16321429D01*
X-10142857Y16369048D01*
X-10285714Y16464286D01*
X-10476190Y16511905D01*
X-10857143Y16511905D01*
X-10952381Y16464286D01*
X-11000000Y16416667D01*
X-11047619Y16321429D01*
X-11047619Y16130952D01*
X-11000000Y16035714D01*
X-10952381Y15988095D01*
X-10857143Y15940476D01*
X-10619048Y15940476D01*
X-10523810Y15988095D01*
X-10476190Y16035714D01*
X-10428571Y16130952D01*
X-10428571Y16321429D01*
X-10476190Y16416667D01*
X-10523810Y16464286D01*
X-10619048Y16511905D01*
X-3392857Y7642857D02*
X-3440476Y7595238D01*
X-3583333Y7547619D01*
X-3678571Y7547619D01*
X-3821429Y7595238D01*
X-3916667Y7690476D01*
X-3964286Y7785714D01*
X-4011905Y7976190D01*
X-4011905Y8119048D01*
X-3964286Y8309524D01*
X-3916667Y8404762D01*
X-3821429Y8500000D01*
X-3678571Y8547619D01*
X-3583333Y8547619D01*
X-3440476Y8500000D01*
X-3392857Y8452381D01*
X-2535714Y8547619D02*
X-2726191Y8547619D01*
X-2821429Y8500000D01*
X-2869048Y8452381D01*
X-2964286Y8309524D01*
X-3011905Y8119048D01*
X-3011905Y7738095D01*
X-2964286Y7642857D01*
X-2916667Y7595238D01*
X-2821429Y7547619D01*
X-2630952Y7547619D01*
X-2535714Y7595238D01*
X-2488095Y7642857D01*
X-2440476Y7738095D01*
X-2440476Y7976190D01*
X-2488095Y8071429D01*
X-2535714Y8119048D01*
X-2630952Y8166667D01*
X-2821429Y8166667D01*
X-2916667Y8119048D01*
X-2964286Y8071429D01*
X-3011905Y7976190D01*
X-1821429Y8547619D02*
X-1726190Y8547619D01*
X-1630952Y8500000D01*
X-1583333Y8452381D01*
X-1535714Y8357143D01*
X-1488095Y8166667D01*
X-1488095Y7928571D01*
X-1535714Y7738095D01*
X-1583333Y7642857D01*
X-1630952Y7595238D01*
X-1726190Y7547619D01*
X-1821429Y7547619D01*
X-1916667Y7595238D01*
X-1964286Y7642857D01*
X-2011905Y7738095D01*
X-2059524Y7928571D01*
X-2059524Y8166667D01*
X-2011905Y8357143D01*
X-1964286Y8452381D01*
X-1916667Y8500000D01*
X-1821429Y8547619D01*
X-392857Y7642857D02*
X-440476Y7595238D01*
X-583333Y7547619D01*
X-678571Y7547619D01*
X-821429Y7595238D01*
X-916667Y7690476D01*
X-964286Y7785714D01*
X-1011905Y7976190D01*
X-1011905Y8119048D01*
X-964286Y8309524D01*
X-916667Y8404762D01*
X-821429Y8500000D01*
X-678571Y8547619D01*
X-583333Y8547619D01*
X-440476Y8500000D01*
X-392857Y8452381D01*
X464286Y8547619D02*
X273809Y8547619D01*
X178571Y8500000D01*
X130952Y8452381D01*
X35714Y8309524D01*
X-11905Y8119048D01*
X-11905Y7738095D01*
X35714Y7642857D01*
X83333Y7595238D01*
X178571Y7547619D01*
X369048Y7547619D01*
X464286Y7595238D01*
X511905Y7642857D01*
X559524Y7738095D01*
X559524Y7976190D01*
X511905Y8071429D01*
X464286Y8119048D01*
X369048Y8166667D01*
X178571Y8166667D01*
X83333Y8119048D01*
X35714Y8071429D01*
X-11905Y7976190D01*
X1511905Y7547619D02*
X940476Y7547619D01*
X1226190Y7547619D02*
X1226190Y8547619D01*
X1130952Y8404762D01*
X1035714Y8309524D01*
X940476Y8261905D01*
X-8392857Y17607143D02*
X-8345238Y17559524D01*
X-8297619Y17416667D01*
X-8297619Y17321429D01*
X-8345238Y17178571D01*
X-8440476Y17083333D01*
X-8535714Y17035714D01*
X-8726190Y16988095D01*
X-8869048Y16988095D01*
X-9059524Y17035714D01*
X-9154762Y17083333D01*
X-9250000Y17178571D01*
X-9297619Y17321429D01*
X-9297619Y17416667D01*
X-9250000Y17559524D01*
X-9202381Y17607143D01*
X-9297619Y18464286D02*
X-9297619Y18273809D01*
X-9250000Y18178571D01*
X-9202381Y18130952D01*
X-9059524Y18035714D01*
X-8869048Y17988095D01*
X-8488095Y17988095D01*
X-8392857Y18035714D01*
X-8345238Y18083333D01*
X-8297619Y18178571D01*
X-8297619Y18369048D01*
X-8345238Y18464286D01*
X-8392857Y18511905D01*
X-8488095Y18559524D01*
X-8726190Y18559524D01*
X-8821429Y18511905D01*
X-8869048Y18464286D01*
X-8916667Y18369048D01*
X-8916667Y18178571D01*
X-8869048Y18083333D01*
X-8821429Y18035714D01*
X-8726190Y17988095D01*
X-9202381Y18940476D02*
X-9250000Y18988095D01*
X-9297619Y19083333D01*
X-9297619Y19321429D01*
X-9250000Y19416667D01*
X-9202381Y19464286D01*
X-9107143Y19511905D01*
X-9011905Y19511905D01*
X-8869048Y19464286D01*
X-8297619Y18892857D01*
X-8297619Y19511905D01*
X-8392857Y14607143D02*
X-8345238Y14559524D01*
X-8297619Y14416667D01*
X-8297619Y14321429D01*
X-8345238Y14178571D01*
X-8440476Y14083333D01*
X-8535714Y14035714D01*
X-8726190Y13988095D01*
X-8869048Y13988095D01*
X-9059524Y14035714D01*
X-9154762Y14083333D01*
X-9250000Y14178571D01*
X-9297619Y14321429D01*
X-9297619Y14416667D01*
X-9250000Y14559524D01*
X-9202381Y14607143D01*
X-9297619Y15464286D02*
X-9297619Y15273809D01*
X-9250000Y15178571D01*
X-9202381Y15130952D01*
X-9059524Y15035714D01*
X-8869048Y14988095D01*
X-8488095Y14988095D01*
X-8392857Y15035714D01*
X-8345238Y15083333D01*
X-8297619Y15178571D01*
X-8297619Y15369048D01*
X-8345238Y15464286D01*
X-8392857Y15511905D01*
X-8488095Y15559524D01*
X-8726190Y15559524D01*
X-8821429Y15511905D01*
X-8869048Y15464286D01*
X-8916667Y15369048D01*
X-8916667Y15178571D01*
X-8869048Y15083333D01*
X-8821429Y15035714D01*
X-8726190Y14988095D01*
X-9297619Y15892857D02*
X-9297619Y16511905D01*
X-8916667Y16178571D01*
X-8916667Y16321429D01*
X-8869048Y16416667D01*
X-8821429Y16464286D01*
X-8726190Y16511905D01*
X-8488095Y16511905D01*
X-8392857Y16464286D01*
X-8345238Y16416667D01*
X-8297619Y16321429D01*
X-8297619Y16035714D01*
X-8345238Y15940476D01*
X-8392857Y15892857D01*
X-3392857Y8892857D02*
X-3440476Y8845238D01*
X-3583333Y8797619D01*
X-3678571Y8797619D01*
X-3821429Y8845238D01*
X-3916667Y8940476D01*
X-3964286Y9035714D01*
X-4011905Y9226190D01*
X-4011905Y9369048D01*
X-3964286Y9559524D01*
X-3916667Y9654762D01*
X-3821429Y9750000D01*
X-3678571Y9797619D01*
X-3583333Y9797619D01*
X-3440476Y9750000D01*
X-3392857Y9702381D01*
X-2535714Y9797619D02*
X-2726191Y9797619D01*
X-2821429Y9750000D01*
X-2869048Y9702381D01*
X-2964286Y9559524D01*
X-3011905Y9369048D01*
X-3011905Y8988095D01*
X-2964286Y8892857D01*
X-2916667Y8845238D01*
X-2821429Y8797619D01*
X-2630952Y8797619D01*
X-2535714Y8845238D01*
X-2488095Y8892857D01*
X-2440476Y8988095D01*
X-2440476Y9226190D01*
X-2488095Y9321429D01*
X-2535714Y9369048D01*
X-2630952Y9416667D01*
X-2821429Y9416667D01*
X-2916667Y9369048D01*
X-2964286Y9321429D01*
X-3011905Y9226190D01*
X-1583333Y9464286D02*
X-1583333Y8797619D01*
X-1821429Y9845238D02*
X-2059524Y9130952D01*
X-1440476Y9130952D01*
X-392857Y8892857D02*
X-440476Y8845238D01*
X-583333Y8797619D01*
X-678571Y8797619D01*
X-821429Y8845238D01*
X-916667Y8940476D01*
X-964286Y9035714D01*
X-1011905Y9226190D01*
X-1011905Y9369048D01*
X-964286Y9559524D01*
X-916667Y9654762D01*
X-821429Y9750000D01*
X-678571Y9797619D01*
X-583333Y9797619D01*
X-440476Y9750000D01*
X-392857Y9702381D01*
X464286Y9797619D02*
X273809Y9797619D01*
X178571Y9750000D01*
X130952Y9702381D01*
X35714Y9559524D01*
X-11905Y9369048D01*
X-11905Y8988095D01*
X35714Y8892857D01*
X83333Y8845238D01*
X178571Y8797619D01*
X369048Y8797619D01*
X464286Y8845238D01*
X511905Y8892857D01*
X559524Y8988095D01*
X559524Y9226190D01*
X511905Y9321429D01*
X464286Y9369048D01*
X369048Y9416667D01*
X178571Y9416667D01*
X83333Y9369048D01*
X35714Y9321429D01*
X-11905Y9226190D01*
X1464286Y9797619D02*
X988095Y9797619D01*
X940476Y9321429D01*
X988095Y9369048D01*
X1083333Y9416667D01*
X1321429Y9416667D01*
X1416667Y9369048D01*
X1464286Y9321429D01*
X1511905Y9226190D01*
X1511905Y8988095D01*
X1464286Y8892857D01*
X1416667Y8845238D01*
X1321429Y8797619D01*
X1083333Y8797619D01*
X988095Y8845238D01*
X940476Y8892857D01*
X7357143Y19357143D02*
X7404762Y19309524D01*
X7452381Y19166667D01*
X7452381Y19071429D01*
X7404762Y18928571D01*
X7309524Y18833333D01*
X7214286Y18785714D01*
X7023810Y18738095D01*
X6880952Y18738095D01*
X6690476Y18785714D01*
X6595238Y18833333D01*
X6500000Y18928571D01*
X6452381Y19071429D01*
X6452381Y19166667D01*
X6500000Y19309524D01*
X6547619Y19357143D01*
X6452381Y20214286D02*
X6452381Y20023809D01*
X6500000Y19928571D01*
X6547619Y19880952D01*
X6690476Y19785714D01*
X6880952Y19738095D01*
X7261905Y19738095D01*
X7357143Y19785714D01*
X7404762Y19833333D01*
X7452381Y19928571D01*
X7452381Y20119048D01*
X7404762Y20214286D01*
X7357143Y20261905D01*
X7261905Y20309524D01*
X7023810Y20309524D01*
X6928571Y20261905D01*
X6880952Y20214286D01*
X6833333Y20119048D01*
X6833333Y19928571D01*
X6880952Y19833333D01*
X6928571Y19785714D01*
X7023810Y19738095D01*
X6452381Y21166667D02*
X6452381Y20976190D01*
X6500000Y20880952D01*
X6547619Y20833333D01*
X6690476Y20738095D01*
X6880952Y20690476D01*
X7261905Y20690476D01*
X7357143Y20738095D01*
X7404762Y20785714D01*
X7452381Y20880952D01*
X7452381Y21071429D01*
X7404762Y21166667D01*
X7357143Y21214286D01*
X7261905Y21261905D01*
X7023810Y21261905D01*
X6928571Y21214286D01*
X6880952Y21166667D01*
X6833333Y21071429D01*
X6833333Y20880952D01*
X6880952Y20785714D01*
X6928571Y20738095D01*
X7023810Y20690476D01*
X9607143Y14857143D02*
X9654762Y14809524D01*
X9702381Y14666667D01*
X9702381Y14571429D01*
X9654762Y14428571D01*
X9559524Y14333333D01*
X9464286Y14285714D01*
X9273810Y14238095D01*
X9130952Y14238095D01*
X8940476Y14285714D01*
X8845238Y14333333D01*
X8750000Y14428571D01*
X8702381Y14571429D01*
X8702381Y14666667D01*
X8750000Y14809524D01*
X8797619Y14857143D01*
X8702381Y15714286D02*
X8702381Y15523809D01*
X8750000Y15428571D01*
X8797619Y15380952D01*
X8940476Y15285714D01*
X9130952Y15238095D01*
X9511905Y15238095D01*
X9607143Y15285714D01*
X9654762Y15333333D01*
X9702381Y15428571D01*
X9702381Y15619048D01*
X9654762Y15714286D01*
X9607143Y15761905D01*
X9511905Y15809524D01*
X9273810Y15809524D01*
X9178571Y15761905D01*
X9130952Y15714286D01*
X9083333Y15619048D01*
X9083333Y15428571D01*
X9130952Y15333333D01*
X9178571Y15285714D01*
X9273810Y15238095D01*
X8702381Y16142857D02*
X8702381Y16809524D01*
X9702381Y16380952D01*
X6107143Y20857143D02*
X6154762Y20809524D01*
X6202381Y20666667D01*
X6202381Y20571429D01*
X6154762Y20428571D01*
X6059524Y20333333D01*
X5964286Y20285714D01*
X5773810Y20238095D01*
X5630952Y20238095D01*
X5440476Y20285714D01*
X5345238Y20333333D01*
X5250000Y20428571D01*
X5202381Y20571429D01*
X5202381Y20666667D01*
X5250000Y20809524D01*
X5297619Y20857143D01*
X5202381Y21714286D02*
X5202381Y21523809D01*
X5250000Y21428571D01*
X5297619Y21380952D01*
X5440476Y21285714D01*
X5630952Y21238095D01*
X6011905Y21238095D01*
X6107143Y21285714D01*
X6154762Y21333333D01*
X6202381Y21428571D01*
X6202381Y21619048D01*
X6154762Y21714286D01*
X6107143Y21761905D01*
X6011905Y21809524D01*
X5773810Y21809524D01*
X5678571Y21761905D01*
X5630952Y21714286D01*
X5583333Y21619048D01*
X5583333Y21428571D01*
X5630952Y21333333D01*
X5678571Y21285714D01*
X5773810Y21238095D01*
X5630952Y22380952D02*
X5583333Y22285714D01*
X5535714Y22238095D01*
X5440476Y22190476D01*
X5392857Y22190476D01*
X5297619Y22238095D01*
X5250000Y22285714D01*
X5202381Y22380952D01*
X5202381Y22571429D01*
X5250000Y22666667D01*
X5297619Y22714286D01*
X5392857Y22761905D01*
X5440476Y22761905D01*
X5535714Y22714286D01*
X5583333Y22666667D01*
X5630952Y22571429D01*
X5630952Y22380952D01*
X5678571Y22285714D01*
X5726190Y22238095D01*
X5821429Y22190476D01*
X6011905Y22190476D01*
X6107143Y22238095D01*
X6154762Y22285714D01*
X6202381Y22380952D01*
X6202381Y22571429D01*
X6154762Y22666667D01*
X6107143Y22714286D01*
X6011905Y22761905D01*
X5821429Y22761905D01*
X5726190Y22714286D01*
X5678571Y22666667D01*
X5630952Y22571429D01*
X-4892857Y24392857D02*
X-4940476Y24345238D01*
X-5083333Y24297619D01*
X-5178571Y24297619D01*
X-5321429Y24345238D01*
X-5416667Y24440476D01*
X-5464286Y24535714D01*
X-5511905Y24726190D01*
X-5511905Y24869048D01*
X-5464286Y25059524D01*
X-5416667Y25154762D01*
X-5321429Y25250000D01*
X-5178571Y25297619D01*
X-5083333Y25297619D01*
X-4940476Y25250000D01*
X-4892857Y25202381D01*
X-4035714Y25297619D02*
X-4226191Y25297619D01*
X-4321429Y25250000D01*
X-4369048Y25202381D01*
X-4464286Y25059524D01*
X-4511905Y24869048D01*
X-4511905Y24488095D01*
X-4464286Y24392857D01*
X-4416667Y24345238D01*
X-4321429Y24297619D01*
X-4130952Y24297619D01*
X-4035714Y24345238D01*
X-3988095Y24392857D01*
X-3940476Y24488095D01*
X-3940476Y24726190D01*
X-3988095Y24821429D01*
X-4035714Y24869048D01*
X-4130952Y24916667D01*
X-4321429Y24916667D01*
X-4416667Y24869048D01*
X-4464286Y24821429D01*
X-4511905Y24726190D01*
X-3464286Y24297619D02*
X-3273810Y24297619D01*
X-3178571Y24345238D01*
X-3130952Y24392857D01*
X-3035714Y24535714D01*
X-2988095Y24726190D01*
X-2988095Y25107143D01*
X-3035714Y25202381D01*
X-3083333Y25250000D01*
X-3178571Y25297619D01*
X-3369048Y25297619D01*
X-3464286Y25250000D01*
X-3511905Y25202381D01*
X-3559524Y25107143D01*
X-3559524Y24869048D01*
X-3511905Y24773810D01*
X-3464286Y24726190D01*
X-3369048Y24678571D01*
X-3178571Y24678571D01*
X-3083333Y24726190D01*
X-3035714Y24773810D01*
X-2988095Y24869048D01*
X-1892857Y24392857D02*
X-1940476Y24345238D01*
X-2083333Y24297619D01*
X-2178571Y24297619D01*
X-2321429Y24345238D01*
X-2416667Y24440476D01*
X-2464286Y24535714D01*
X-2511905Y24726190D01*
X-2511905Y24869048D01*
X-2464286Y25059524D01*
X-2416667Y25154762D01*
X-2321429Y25250000D01*
X-2178571Y25297619D01*
X-2083333Y25297619D01*
X-1940476Y25250000D01*
X-1892857Y25202381D01*
X-1559524Y25297619D02*
X-892857Y25297619D01*
X-1321429Y24297619D01*
X-321429Y25297619D02*
X-226190Y25297619D01*
X-130952Y25250000D01*
X-83333Y25202381D01*
X-35714Y25107143D01*
X11905Y24916667D01*
X11905Y24678571D01*
X-35714Y24488095D01*
X-83333Y24392857D01*
X-130952Y24345238D01*
X-226190Y24297619D01*
X-321429Y24297619D01*
X-416667Y24345238D01*
X-464286Y24392857D01*
X-511905Y24488095D01*
X-559524Y24678571D01*
X-559524Y24916667D01*
X-511905Y25107143D01*
X-464286Y25202381D01*
X-416667Y25250000D01*
X-321429Y25297619D01*
X1107143Y24392857D02*
X1059524Y24345238D01*
X916667Y24297619D01*
X821429Y24297619D01*
X678571Y24345238D01*
X583333Y24440476D01*
X535714Y24535714D01*
X488095Y24726190D01*
X488095Y24869048D01*
X535714Y25059524D01*
X583333Y25154762D01*
X678571Y25250000D01*
X821429Y25297619D01*
X916667Y25297619D01*
X1059524Y25250000D01*
X1107143Y25202381D01*
X1440476Y25297619D02*
X2107143Y25297619D01*
X1678571Y24297619D01*
X3011905Y24297619D02*
X2440476Y24297619D01*
X2726190Y24297619D02*
X2726190Y25297619D01*
X2630952Y25154762D01*
X2535714Y25059524D01*
X2440476Y25011905D01*
X-5642857Y21142857D02*
X-5690476Y21095238D01*
X-5833333Y21047619D01*
X-5928571Y21047619D01*
X-6071429Y21095238D01*
X-6166667Y21190476D01*
X-6214286Y21285714D01*
X-6261905Y21476190D01*
X-6261905Y21619048D01*
X-6214286Y21809524D01*
X-6166667Y21904762D01*
X-6071429Y22000000D01*
X-5928571Y22047619D01*
X-5833333Y22047619D01*
X-5690476Y22000000D01*
X-5642857Y21952381D01*
X-5309524Y22047619D02*
X-4642857Y22047619D01*
X-5071429Y21047619D01*
X-4309524Y21952381D02*
X-4261905Y22000000D01*
X-4166667Y22047619D01*
X-3928571Y22047619D01*
X-3833333Y22000000D01*
X-3785714Y21952381D01*
X-3738095Y21857143D01*
X-3738095Y21761905D01*
X-3785714Y21619048D01*
X-4357143Y21047619D01*
X-3738095Y21047619D01*
X8607143Y19357143D02*
X8654762Y19309524D01*
X8702381Y19166667D01*
X8702381Y19071429D01*
X8654762Y18928571D01*
X8559524Y18833333D01*
X8464286Y18785714D01*
X8273810Y18738095D01*
X8130952Y18738095D01*
X7940476Y18785714D01*
X7845238Y18833333D01*
X7750000Y18928571D01*
X7702381Y19071429D01*
X7702381Y19166667D01*
X7750000Y19309524D01*
X7797619Y19357143D01*
X7702381Y19690476D02*
X7702381Y20357143D01*
X8702381Y19928571D01*
X7702381Y20642857D02*
X7702381Y21261905D01*
X8083333Y20928571D01*
X8083333Y21071429D01*
X8130952Y21166667D01*
X8178571Y21214286D01*
X8273810Y21261905D01*
X8511905Y21261905D01*
X8607143Y21214286D01*
X8654762Y21166667D01*
X8702381Y21071429D01*
X8702381Y20785714D01*
X8654762Y20690476D01*
X8607143Y20642857D01*
X10857143Y14857143D02*
X10904762Y14809524D01*
X10952381Y14666667D01*
X10952381Y14571429D01*
X10904762Y14428571D01*
X10809524Y14333333D01*
X10714286Y14285714D01*
X10523810Y14238095D01*
X10380952Y14238095D01*
X10190476Y14285714D01*
X10095238Y14333333D01*
X10000000Y14428571D01*
X9952381Y14571429D01*
X9952381Y14666667D01*
X10000000Y14809524D01*
X10047619Y14857143D01*
X9952381Y15190476D02*
X9952381Y15857143D01*
X10952381Y15428571D01*
X10285714Y16666667D02*
X10952381Y16666667D01*
X9904762Y16428571D02*
X10619048Y16190476D01*
X10619048Y16809524D01*
X-4892857Y25642857D02*
X-4940476Y25595238D01*
X-5083333Y25547619D01*
X-5178571Y25547619D01*
X-5321429Y25595238D01*
X-5416667Y25690476D01*
X-5464286Y25785714D01*
X-5511905Y25976190D01*
X-5511905Y26119048D01*
X-5464286Y26309524D01*
X-5416667Y26404762D01*
X-5321429Y26500000D01*
X-5178571Y26547619D01*
X-5083333Y26547619D01*
X-4940476Y26500000D01*
X-4892857Y26452381D01*
X-4559524Y26547619D02*
X-3892857Y26547619D01*
X-4321429Y25547619D01*
X-3035714Y26547619D02*
X-3511905Y26547619D01*
X-3559524Y26071429D01*
X-3511905Y26119048D01*
X-3416667Y26166667D01*
X-3178571Y26166667D01*
X-3083333Y26119048D01*
X-3035714Y26071429D01*
X-2988095Y25976190D01*
X-2988095Y25738095D01*
X-3035714Y25642857D01*
X-3083333Y25595238D01*
X-3178571Y25547619D01*
X-3416667Y25547619D01*
X-3511905Y25595238D01*
X-3559524Y25642857D01*
X-1892857Y25642857D02*
X-1940476Y25595238D01*
X-2083333Y25547619D01*
X-2178571Y25547619D01*
X-2321429Y25595238D01*
X-2416667Y25690476D01*
X-2464286Y25785714D01*
X-2511905Y25976190D01*
X-2511905Y26119048D01*
X-2464286Y26309524D01*
X-2416667Y26404762D01*
X-2321429Y26500000D01*
X-2178571Y26547619D01*
X-2083333Y26547619D01*
X-1940476Y26500000D01*
X-1892857Y26452381D01*
X-1559524Y26547619D02*
X-892857Y26547619D01*
X-1321429Y25547619D01*
X-83333Y26547619D02*
X-273810Y26547619D01*
X-369048Y26500000D01*
X-416667Y26452381D01*
X-511905Y26309524D01*
X-559524Y26119048D01*
X-559524Y25738095D01*
X-511905Y25642857D01*
X-464286Y25595238D01*
X-369048Y25547619D01*
X-178571Y25547619D01*
X-83333Y25595238D01*
X-35714Y25642857D01*
X11905Y25738095D01*
X11905Y25976190D01*
X-35714Y26071429D01*
X-83333Y26119048D01*
X-178571Y26166667D01*
X-369048Y26166667D01*
X-464286Y26119048D01*
X-511905Y26071429D01*
X-559524Y25976190D01*
X1107143Y25642857D02*
X1059524Y25595238D01*
X916667Y25547619D01*
X821429Y25547619D01*
X678571Y25595238D01*
X583333Y25690476D01*
X535714Y25785714D01*
X488095Y25976190D01*
X488095Y26119048D01*
X535714Y26309524D01*
X583333Y26404762D01*
X678571Y26500000D01*
X821429Y26547619D01*
X916667Y26547619D01*
X1059524Y26500000D01*
X1107143Y26452381D01*
X1440476Y26547619D02*
X2107143Y26547619D01*
X1678571Y25547619D01*
X2392857Y26547619D02*
X3059524Y26547619D01*
X2630952Y25547619D01*
X4107143Y25642857D02*
X4059524Y25595238D01*
X3916667Y25547619D01*
X3821429Y25547619D01*
X3678571Y25595238D01*
X3583333Y25690476D01*
X3535714Y25785714D01*
X3488095Y25976190D01*
X3488095Y26119048D01*
X3535714Y26309524D01*
X3583333Y26404762D01*
X3678571Y26500000D01*
X3821429Y26547619D01*
X3916667Y26547619D01*
X4059524Y26500000D01*
X4107143Y26452381D01*
X4440476Y26547619D02*
X5107143Y26547619D01*
X4678571Y25547619D01*
X5630952Y26119048D02*
X5535714Y26166667D01*
X5488095Y26214286D01*
X5440476Y26309524D01*
X5440476Y26357143D01*
X5488095Y26452381D01*
X5535714Y26500000D01*
X5630952Y26547619D01*
X5821429Y26547619D01*
X5916667Y26500000D01*
X5964286Y26452381D01*
X6011905Y26357143D01*
X6011905Y26309524D01*
X5964286Y26214286D01*
X5916667Y26166667D01*
X5821429Y26119048D01*
X5630952Y26119048D01*
X5535714Y26071429D01*
X5488095Y26023810D01*
X5440476Y25928571D01*
X5440476Y25738095D01*
X5488095Y25642857D01*
X5535714Y25595238D01*
X5630952Y25547619D01*
X5821429Y25547619D01*
X5916667Y25595238D01*
X5964286Y25642857D01*
X6011905Y25738095D01*
X6011905Y25928571D01*
X5964286Y26023810D01*
X5916667Y26071429D01*
X5821429Y26119048D01*
X19107143Y7892857D02*
X19059524Y7845238D01*
X18916667Y7797619D01*
X18821429Y7797619D01*
X18678571Y7845238D01*
X18583333Y7940476D01*
X18535714Y8035714D01*
X18488095Y8226190D01*
X18488095Y8369048D01*
X18535714Y8559524D01*
X18583333Y8654762D01*
X18678571Y8750000D01*
X18821429Y8797619D01*
X18916667Y8797619D01*
X19059524Y8750000D01*
X19107143Y8702381D01*
X19440476Y8797619D02*
X20107143Y8797619D01*
X19678571Y7797619D01*
X20535714Y7797619D02*
X20726190Y7797619D01*
X20821429Y7845238D01*
X20869048Y7892857D01*
X20964286Y8035714D01*
X21011905Y8226190D01*
X21011905Y8607143D01*
X20964286Y8702381D01*
X20916667Y8750000D01*
X20821429Y8797619D01*
X20630952Y8797619D01*
X20535714Y8750000D01*
X20488095Y8702381D01*
X20440476Y8607143D01*
X20440476Y8369048D01*
X20488095Y8273810D01*
X20535714Y8226190D01*
X20630952Y8178571D01*
X20821429Y8178571D01*
X20916667Y8226190D01*
X20964286Y8273810D01*
X21011905Y8369048D01*
X13107143Y9642857D02*
X13059524Y9595238D01*
X12916667Y9547619D01*
X12821429Y9547619D01*
X12678571Y9595238D01*
X12583333Y9690476D01*
X12535714Y9785714D01*
X12488095Y9976190D01*
X12488095Y10119048D01*
X12535714Y10309524D01*
X12583333Y10404762D01*
X12678571Y10500000D01*
X12821429Y10547619D01*
X12916667Y10547619D01*
X13059524Y10500000D01*
X13107143Y10452381D01*
X13678571Y10119048D02*
X13583333Y10166667D01*
X13535714Y10214286D01*
X13488095Y10309524D01*
X13488095Y10357143D01*
X13535714Y10452381D01*
X13583333Y10500000D01*
X13678571Y10547619D01*
X13869048Y10547619D01*
X13964286Y10500000D01*
X14011905Y10452381D01*
X14059524Y10357143D01*
X14059524Y10309524D01*
X14011905Y10214286D01*
X13964286Y10166667D01*
X13869048Y10119048D01*
X13678571Y10119048D01*
X13583333Y10071429D01*
X13535714Y10023810D01*
X13488095Y9928571D01*
X13488095Y9738095D01*
X13535714Y9642857D01*
X13583333Y9595238D01*
X13678571Y9547619D01*
X13869048Y9547619D01*
X13964286Y9595238D01*
X14011905Y9642857D01*
X14059524Y9738095D01*
X14059524Y9928571D01*
X14011905Y10023810D01*
X13964286Y10071429D01*
X13869048Y10119048D01*
X14678571Y10547619D02*
X14773810Y10547619D01*
X14869048Y10500000D01*
X14916667Y10452381D01*
X14964286Y10357143D01*
X15011905Y10166667D01*
X15011905Y9928571D01*
X14964286Y9738095D01*
X14916667Y9642857D01*
X14869048Y9595238D01*
X14773810Y9547619D01*
X14678571Y9547619D01*
X14583333Y9595238D01*
X14535714Y9642857D01*
X14488095Y9738095D01*
X14440476Y9928571D01*
X14440476Y10166667D01*
X14488095Y10357143D01*
X14535714Y10452381D01*
X14583333Y10500000D01*
X14678571Y10547619D01*
X8607143Y107143D02*
X8654762Y59524D01*
X8702381Y-83333D01*
X8702381Y-178571D01*
X8654762Y-321429D01*
X8559524Y-416667D01*
X8464286Y-464286D01*
X8273810Y-511905D01*
X8130952Y-511905D01*
X7940476Y-464286D01*
X7845238Y-416667D01*
X7750000Y-321429D01*
X7702381Y-178571D01*
X7702381Y-83333D01*
X7750000Y59524D01*
X7797619Y107143D01*
X8130952Y678571D02*
X8083333Y583333D01*
X8035714Y535714D01*
X7940476Y488095D01*
X7892857Y488095D01*
X7797619Y535714D01*
X7750000Y583333D01*
X7702381Y678571D01*
X7702381Y869048D01*
X7750000Y964286D01*
X7797619Y1011905D01*
X7892857Y1059524D01*
X7940476Y1059524D01*
X8035714Y1011905D01*
X8083333Y964286D01*
X8130952Y869048D01*
X8130952Y678571D01*
X8178571Y583333D01*
X8226190Y535714D01*
X8321429Y488095D01*
X8511905Y488095D01*
X8607143Y535714D01*
X8654762Y583333D01*
X8702381Y678571D01*
X8702381Y869048D01*
X8654762Y964286D01*
X8607143Y1011905D01*
X8511905Y1059524D01*
X8321429Y1059524D01*
X8226190Y1011905D01*
X8178571Y964286D01*
X8130952Y869048D01*
X8702381Y2011905D02*
X8702381Y1440476D01*
X8702381Y1726190D02*
X7702381Y1726190D01*
X7845238Y1630952D01*
X7940476Y1535714D01*
X7988095Y1440476D01*
X6107143Y-3142857D02*
X6154762Y-3190476D01*
X6202381Y-3333333D01*
X6202381Y-3428571D01*
X6154762Y-3571429D01*
X6059524Y-3666667D01*
X5964286Y-3714286D01*
X5773810Y-3761905D01*
X5630952Y-3761905D01*
X5440476Y-3714286D01*
X5345238Y-3666667D01*
X5250000Y-3571429D01*
X5202381Y-3428571D01*
X5202381Y-3333333D01*
X5250000Y-3190476D01*
X5297619Y-3142857D01*
X5630952Y-2571429D02*
X5583333Y-2666667D01*
X5535714Y-2714286D01*
X5440476Y-2761905D01*
X5392857Y-2761905D01*
X5297619Y-2714286D01*
X5250000Y-2666667D01*
X5202381Y-2571429D01*
X5202381Y-2380952D01*
X5250000Y-2285714D01*
X5297619Y-2238095D01*
X5392857Y-2190476D01*
X5440476Y-2190476D01*
X5535714Y-2238095D01*
X5583333Y-2285714D01*
X5630952Y-2380952D01*
X5630952Y-2571429D01*
X5678571Y-2666667D01*
X5726190Y-2714286D01*
X5821429Y-2761905D01*
X6011905Y-2761905D01*
X6107143Y-2714286D01*
X6154762Y-2666667D01*
X6202381Y-2571429D01*
X6202381Y-2380952D01*
X6154762Y-2285714D01*
X6107143Y-2238095D01*
X6011905Y-2190476D01*
X5821429Y-2190476D01*
X5726190Y-2238095D01*
X5678571Y-2285714D01*
X5630952Y-2380952D01*
X5297619Y-1809524D02*
X5250000Y-1761905D01*
X5202381Y-1666667D01*
X5202381Y-1428571D01*
X5250000Y-1333333D01*
X5297619Y-1285714D01*
X5392857Y-1238095D01*
X5488095Y-1238095D01*
X5630952Y-1285714D01*
X6202381Y-1857143D01*
X6202381Y-1238095D01*
X19107143Y6642857D02*
X19059524Y6595238D01*
X18916667Y6547619D01*
X18821429Y6547619D01*
X18678571Y6595238D01*
X18583333Y6690476D01*
X18535714Y6785714D01*
X18488095Y6976190D01*
X18488095Y7119048D01*
X18535714Y7309524D01*
X18583333Y7404762D01*
X18678571Y7500000D01*
X18821429Y7547619D01*
X18916667Y7547619D01*
X19059524Y7500000D01*
X19107143Y7452381D01*
X19678571Y7119048D02*
X19583333Y7166667D01*
X19535714Y7214286D01*
X19488095Y7309524D01*
X19488095Y7357143D01*
X19535714Y7452381D01*
X19583333Y7500000D01*
X19678571Y7547619D01*
X19869048Y7547619D01*
X19964286Y7500000D01*
X20011905Y7452381D01*
X20059524Y7357143D01*
X20059524Y7309524D01*
X20011905Y7214286D01*
X19964286Y7166667D01*
X19869048Y7119048D01*
X19678571Y7119048D01*
X19583333Y7071429D01*
X19535714Y7023810D01*
X19488095Y6928571D01*
X19488095Y6738095D01*
X19535714Y6642857D01*
X19583333Y6595238D01*
X19678571Y6547619D01*
X19869048Y6547619D01*
X19964286Y6595238D01*
X20011905Y6642857D01*
X20059524Y6738095D01*
X20059524Y6928571D01*
X20011905Y7023810D01*
X19964286Y7071429D01*
X19869048Y7119048D01*
X20392857Y7547619D02*
X21011905Y7547619D01*
X20678571Y7166667D01*
X20821429Y7166667D01*
X20916667Y7119048D01*
X20964286Y7071429D01*
X21011905Y6976190D01*
X21011905Y6738095D01*
X20964286Y6642857D01*
X20916667Y6595238D01*
X20821429Y6547619D01*
X20535714Y6547619D01*
X20440476Y6595238D01*
X20392857Y6642857D01*
X13107143Y8392857D02*
X13059524Y8345238D01*
X12916667Y8297619D01*
X12821429Y8297619D01*
X12678571Y8345238D01*
X12583333Y8440476D01*
X12535714Y8535714D01*
X12488095Y8726190D01*
X12488095Y8869048D01*
X12535714Y9059524D01*
X12583333Y9154762D01*
X12678571Y9250000D01*
X12821429Y9297619D01*
X12916667Y9297619D01*
X13059524Y9250000D01*
X13107143Y9202381D01*
X13678571Y8869048D02*
X13583333Y8916667D01*
X13535714Y8964286D01*
X13488095Y9059524D01*
X13488095Y9107143D01*
X13535714Y9202381D01*
X13583333Y9250000D01*
X13678571Y9297619D01*
X13869048Y9297619D01*
X13964286Y9250000D01*
X14011905Y9202381D01*
X14059524Y9107143D01*
X14059524Y9059524D01*
X14011905Y8964286D01*
X13964286Y8916667D01*
X13869048Y8869048D01*
X13678571Y8869048D01*
X13583333Y8821429D01*
X13535714Y8773810D01*
X13488095Y8678571D01*
X13488095Y8488095D01*
X13535714Y8392857D01*
X13583333Y8345238D01*
X13678571Y8297619D01*
X13869048Y8297619D01*
X13964286Y8345238D01*
X14011905Y8392857D01*
X14059524Y8488095D01*
X14059524Y8678571D01*
X14011905Y8773810D01*
X13964286Y8821429D01*
X13869048Y8869048D01*
X14916667Y8964286D02*
X14916667Y8297619D01*
X14678571Y9345238D02*
X14440476Y8630952D01*
X15059524Y8630952D01*
X9857143Y107143D02*
X9904762Y59524D01*
X9952381Y-83333D01*
X9952381Y-178571D01*
X9904762Y-321429D01*
X9809524Y-416667D01*
X9714286Y-464286D01*
X9523810Y-511905D01*
X9380952Y-511905D01*
X9190476Y-464286D01*
X9095238Y-416667D01*
X9000000Y-321429D01*
X8952381Y-178571D01*
X8952381Y-83333D01*
X9000000Y59524D01*
X9047619Y107143D01*
X9380952Y678571D02*
X9333333Y583333D01*
X9285714Y535714D01*
X9190476Y488095D01*
X9142857Y488095D01*
X9047619Y535714D01*
X9000000Y583333D01*
X8952381Y678571D01*
X8952381Y869048D01*
X9000000Y964286D01*
X9047619Y1011905D01*
X9142857Y1059524D01*
X9190476Y1059524D01*
X9285714Y1011905D01*
X9333333Y964286D01*
X9380952Y869048D01*
X9380952Y678571D01*
X9428571Y583333D01*
X9476190Y535714D01*
X9571429Y488095D01*
X9761905Y488095D01*
X9857143Y535714D01*
X9904762Y583333D01*
X9952381Y678571D01*
X9952381Y869048D01*
X9904762Y964286D01*
X9857143Y1011905D01*
X9761905Y1059524D01*
X9571429Y1059524D01*
X9476190Y1011905D01*
X9428571Y964286D01*
X9380952Y869048D01*
X8952381Y1964286D02*
X8952381Y1488095D01*
X9428571Y1440476D01*
X9380952Y1488095D01*
X9333333Y1583333D01*
X9333333Y1821429D01*
X9380952Y1916667D01*
X9428571Y1964286D01*
X9523810Y2011905D01*
X9761905Y2011905D01*
X9857143Y1964286D01*
X9904762Y1916667D01*
X9952381Y1821429D01*
X9952381Y1583333D01*
X9904762Y1488095D01*
X9857143Y1440476D01*
X7357143Y-3142857D02*
X7404762Y-3190476D01*
X7452381Y-3333333D01*
X7452381Y-3428571D01*
X7404762Y-3571429D01*
X7309524Y-3666667D01*
X7214286Y-3714286D01*
X7023810Y-3761905D01*
X6880952Y-3761905D01*
X6690476Y-3714286D01*
X6595238Y-3666667D01*
X6500000Y-3571429D01*
X6452381Y-3428571D01*
X6452381Y-3333333D01*
X6500000Y-3190476D01*
X6547619Y-3142857D01*
X6880952Y-2571429D02*
X6833333Y-2666667D01*
X6785714Y-2714286D01*
X6690476Y-2761905D01*
X6642857Y-2761905D01*
X6547619Y-2714286D01*
X6500000Y-2666667D01*
X6452381Y-2571429D01*
X6452381Y-2380952D01*
X6500000Y-2285714D01*
X6547619Y-2238095D01*
X6642857Y-2190476D01*
X6690476Y-2190476D01*
X6785714Y-2238095D01*
X6833333Y-2285714D01*
X6880952Y-2380952D01*
X6880952Y-2571429D01*
X6928571Y-2666667D01*
X6976190Y-2714286D01*
X7071429Y-2761905D01*
X7261905Y-2761905D01*
X7357143Y-2714286D01*
X7404762Y-2666667D01*
X7452381Y-2571429D01*
X7452381Y-2380952D01*
X7404762Y-2285714D01*
X7357143Y-2238095D01*
X7261905Y-2190476D01*
X7071429Y-2190476D01*
X6976190Y-2238095D01*
X6928571Y-2285714D01*
X6880952Y-2380952D01*
X6452381Y-1333333D02*
X6452381Y-1523810D01*
X6500000Y-1619048D01*
X6547619Y-1666667D01*
X6690476Y-1761905D01*
X6880952Y-1809524D01*
X7261905Y-1809524D01*
X7357143Y-1761905D01*
X7404762Y-1714286D01*
X7452381Y-1619048D01*
X7452381Y-1428571D01*
X7404762Y-1333333D01*
X7357143Y-1285714D01*
X7261905Y-1238095D01*
X7023810Y-1238095D01*
X6928571Y-1285714D01*
X6880952Y-1333333D01*
X6833333Y-1428571D01*
X6833333Y-1619048D01*
X6880952Y-1714286D01*
X6928571Y-1761905D01*
X7023810Y-1809524D01*
X19357143Y-7357143D02*
X19309524Y-7404762D01*
X19166667Y-7452381D01*
X19071429Y-7452381D01*
X18928571Y-7404762D01*
X18833333Y-7309524D01*
X18785714Y-7214286D01*
X18738095Y-7023810D01*
X18738095Y-6880952D01*
X18785714Y-6690476D01*
X18833333Y-6595238D01*
X18928571Y-6500000D01*
X19071429Y-6452381D01*
X19166667Y-6452381D01*
X19309524Y-6500000D01*
X19357143Y-6547619D01*
X19928571Y-6880952D02*
X19833333Y-6833333D01*
X19785714Y-6785714D01*
X19738095Y-6690476D01*
X19738095Y-6642857D01*
X19785714Y-6547619D01*
X19833333Y-6500000D01*
X19928571Y-6452381D01*
X20119048Y-6452381D01*
X20214286Y-6500000D01*
X20261905Y-6547619D01*
X20309524Y-6642857D01*
X20309524Y-6690476D01*
X20261905Y-6785714D01*
X20214286Y-6833333D01*
X20119048Y-6880952D01*
X19928571Y-6880952D01*
X19833333Y-6928571D01*
X19785714Y-6976190D01*
X19738095Y-7071429D01*
X19738095Y-7261905D01*
X19785714Y-7357143D01*
X19833333Y-7404762D01*
X19928571Y-7452381D01*
X20119048Y-7452381D01*
X20214286Y-7404762D01*
X20261905Y-7357143D01*
X20309524Y-7261905D01*
X20309524Y-7071429D01*
X20261905Y-6976190D01*
X20214286Y-6928571D01*
X20119048Y-6880952D01*
X20642857Y-6452381D02*
X21309524Y-6452381D01*
X20880952Y-7452381D01*
X14857143Y-9607143D02*
X14809524Y-9654762D01*
X14666667Y-9702381D01*
X14571429Y-9702381D01*
X14428571Y-9654762D01*
X14333333Y-9559524D01*
X14285714Y-9464286D01*
X14238095Y-9273810D01*
X14238095Y-9130952D01*
X14285714Y-8940476D01*
X14333333Y-8845238D01*
X14428571Y-8750000D01*
X14571429Y-8702381D01*
X14666667Y-8702381D01*
X14809524Y-8750000D01*
X14857143Y-8797619D01*
X15428571Y-9130952D02*
X15333333Y-9083333D01*
X15285714Y-9035714D01*
X15238095Y-8940476D01*
X15238095Y-8892857D01*
X15285714Y-8797619D01*
X15333333Y-8750000D01*
X15428571Y-8702381D01*
X15619048Y-8702381D01*
X15714286Y-8750000D01*
X15761905Y-8797619D01*
X15809524Y-8892857D01*
X15809524Y-8940476D01*
X15761905Y-9035714D01*
X15714286Y-9083333D01*
X15619048Y-9130952D01*
X15428571Y-9130952D01*
X15333333Y-9178571D01*
X15285714Y-9226190D01*
X15238095Y-9321429D01*
X15238095Y-9511905D01*
X15285714Y-9607143D01*
X15333333Y-9654762D01*
X15428571Y-9702381D01*
X15619048Y-9702381D01*
X15714286Y-9654762D01*
X15761905Y-9607143D01*
X15809524Y-9511905D01*
X15809524Y-9321429D01*
X15761905Y-9226190D01*
X15714286Y-9178571D01*
X15619048Y-9130952D01*
X16380952Y-9130952D02*
X16285714Y-9083333D01*
X16238095Y-9035714D01*
X16190476Y-8940476D01*
X16190476Y-8892857D01*
X16238095Y-8797619D01*
X16285714Y-8750000D01*
X16380952Y-8702381D01*
X16571429Y-8702381D01*
X16666667Y-8750000D01*
X16714286Y-8797619D01*
X16761905Y-8892857D01*
X16761905Y-8940476D01*
X16714286Y-9035714D01*
X16666667Y-9083333D01*
X16571429Y-9130952D01*
X16380952Y-9130952D01*
X16285714Y-9178571D01*
X16238095Y-9226190D01*
X16190476Y-9321429D01*
X16190476Y-9511905D01*
X16238095Y-9607143D01*
X16285714Y-9654762D01*
X16380952Y-9702381D01*
X16571429Y-9702381D01*
X16666667Y-9654762D01*
X16714286Y-9607143D01*
X16761905Y-9511905D01*
X16761905Y-9321429D01*
X16714286Y-9226190D01*
X16666667Y-9178571D01*
X16571429Y-9130952D01*
X20857143Y-6107143D02*
X20809524Y-6154762D01*
X20666667Y-6202381D01*
X20571429Y-6202381D01*
X20428571Y-6154762D01*
X20333333Y-6059524D01*
X20285714Y-5964286D01*
X20238095Y-5773810D01*
X20238095Y-5630952D01*
X20285714Y-5440476D01*
X20333333Y-5345238D01*
X20428571Y-5250000D01*
X20571429Y-5202381D01*
X20666667Y-5202381D01*
X20809524Y-5250000D01*
X20857143Y-5297619D01*
X21428571Y-5630952D02*
X21333333Y-5583333D01*
X21285714Y-5535714D01*
X21238095Y-5440476D01*
X21238095Y-5392857D01*
X21285714Y-5297619D01*
X21333333Y-5250000D01*
X21428571Y-5202381D01*
X21619048Y-5202381D01*
X21714286Y-5250000D01*
X21761905Y-5297619D01*
X21809524Y-5392857D01*
X21809524Y-5440476D01*
X21761905Y-5535714D01*
X21714286Y-5583333D01*
X21619048Y-5630952D01*
X21428571Y-5630952D01*
X21333333Y-5678571D01*
X21285714Y-5726190D01*
X21238095Y-5821429D01*
X21238095Y-6011905D01*
X21285714Y-6107143D01*
X21333333Y-6154762D01*
X21428571Y-6202381D01*
X21619048Y-6202381D01*
X21714286Y-6154762D01*
X21761905Y-6107143D01*
X21809524Y-6011905D01*
X21809524Y-5821429D01*
X21761905Y-5726190D01*
X21714286Y-5678571D01*
X21619048Y-5630952D01*
X22285714Y-6202381D02*
X22476190Y-6202381D01*
X22571429Y-6154762D01*
X22619048Y-6107143D01*
X22714286Y-5964286D01*
X22761905Y-5773810D01*
X22761905Y-5392857D01*
X22714286Y-5297619D01*
X22666667Y-5250000D01*
X22571429Y-5202381D01*
X22380952Y-5202381D01*
X22285714Y-5250000D01*
X22238095Y-5297619D01*
X22190476Y-5392857D01*
X22190476Y-5630952D01*
X22238095Y-5726190D01*
X22285714Y-5773810D01*
X22380952Y-5821429D01*
X22571429Y-5821429D01*
X22666667Y-5773810D01*
X22714286Y-5726190D01*
X22761905Y-5630952D01*
X25357143Y3357143D02*
X25404762Y3309524D01*
X25452381Y3166667D01*
X25452381Y3071429D01*
X25404762Y2928571D01*
X25309524Y2833333D01*
X25214286Y2785714D01*
X25023810Y2738095D01*
X24880952Y2738095D01*
X24690476Y2785714D01*
X24595238Y2833333D01*
X24500000Y2928571D01*
X24452381Y3071429D01*
X24452381Y3166667D01*
X24500000Y3309524D01*
X24547619Y3357143D01*
X25452381Y3833333D02*
X25452381Y4023809D01*
X25404762Y4119048D01*
X25357143Y4166667D01*
X25214286Y4261905D01*
X25023810Y4309524D01*
X24642857Y4309524D01*
X24547619Y4261905D01*
X24500000Y4214286D01*
X24452381Y4119048D01*
X24452381Y3928571D01*
X24500000Y3833333D01*
X24547619Y3785714D01*
X24642857Y3738095D01*
X24880952Y3738095D01*
X24976190Y3785714D01*
X25023810Y3833333D01*
X25071429Y3928571D01*
X25071429Y4119048D01*
X25023810Y4214286D01*
X24976190Y4261905D01*
X24880952Y4309524D01*
X24452381Y4928571D02*
X24452381Y5023810D01*
X24500000Y5119048D01*
X24547619Y5166667D01*
X24642857Y5214286D01*
X24833333Y5261905D01*
X25071429Y5261905D01*
X25261905Y5214286D01*
X25357143Y5166667D01*
X25404762Y5119048D01*
X25452381Y5023810D01*
X25452381Y4928571D01*
X25404762Y4833333D01*
X25357143Y4785714D01*
X25261905Y4738095D01*
X25071429Y4690476D01*
X24833333Y4690476D01*
X24642857Y4738095D01*
X24547619Y4785714D01*
X24500000Y4833333D01*
X24452381Y4928571D01*
X25357143Y357143D02*
X25404762Y309524D01*
X25452381Y166667D01*
X25452381Y71429D01*
X25404762Y-71429D01*
X25309524Y-166667D01*
X25214286Y-214286D01*
X25023810Y-261905D01*
X24880952Y-261905D01*
X24690476Y-214286D01*
X24595238Y-166667D01*
X24500000Y-71429D01*
X24452381Y71429D01*
X24452381Y166667D01*
X24500000Y309524D01*
X24547619Y357143D01*
X25452381Y833333D02*
X25452381Y1023809D01*
X25404762Y1119048D01*
X25357143Y1166667D01*
X25214286Y1261905D01*
X25023810Y1309524D01*
X24642857Y1309524D01*
X24547619Y1261905D01*
X24500000Y1214286D01*
X24452381Y1119048D01*
X24452381Y928571D01*
X24500000Y833333D01*
X24547619Y785714D01*
X24642857Y738095D01*
X24880952Y738095D01*
X24976190Y785714D01*
X25023810Y833333D01*
X25071429Y928571D01*
X25071429Y1119048D01*
X25023810Y1214286D01*
X24976190Y1261905D01*
X24880952Y1309524D01*
X25452381Y2261905D02*
X25452381Y1690476D01*
X25452381Y1976190D02*
X24452381Y1976190D01*
X24595238Y1880952D01*
X24690476Y1785714D01*
X24738095Y1690476D01*
X25357143Y-2642857D02*
X25404762Y-2690476D01*
X25452381Y-2833333D01*
X25452381Y-2928571D01*
X25404762Y-3071429D01*
X25309524Y-3166667D01*
X25214286Y-3214286D01*
X25023810Y-3261905D01*
X24880952Y-3261905D01*
X24690476Y-3214286D01*
X24595238Y-3166667D01*
X24500000Y-3071429D01*
X24452381Y-2928571D01*
X24452381Y-2833333D01*
X24500000Y-2690476D01*
X24547619Y-2642857D01*
X25452381Y-2166667D02*
X25452381Y-1976191D01*
X25404762Y-1880952D01*
X25357143Y-1833333D01*
X25214286Y-1738095D01*
X25023810Y-1690476D01*
X24642857Y-1690476D01*
X24547619Y-1738095D01*
X24500000Y-1785714D01*
X24452381Y-1880952D01*
X24452381Y-2071429D01*
X24500000Y-2166667D01*
X24547619Y-2214286D01*
X24642857Y-2261905D01*
X24880952Y-2261905D01*
X24976190Y-2214286D01*
X25023810Y-2166667D01*
X25071429Y-2071429D01*
X25071429Y-1880952D01*
X25023810Y-1785714D01*
X24976190Y-1738095D01*
X24880952Y-1690476D01*
X24547619Y-1309524D02*
X24500000Y-1261905D01*
X24452381Y-1166667D01*
X24452381Y-928571D01*
X24500000Y-833333D01*
X24547619Y-785714D01*
X24642857Y-738095D01*
X24738095Y-738095D01*
X24880952Y-785714D01*
X25452381Y-1357143D01*
X25452381Y-738095D01*
X21857143Y4357143D02*
X21904762Y4309524D01*
X21952381Y4166667D01*
X21952381Y4071429D01*
X21904762Y3928571D01*
X21809524Y3833333D01*
X21714286Y3785714D01*
X21523810Y3738095D01*
X21380952Y3738095D01*
X21190476Y3785714D01*
X21095238Y3833333D01*
X21000000Y3928571D01*
X20952381Y4071429D01*
X20952381Y4166667D01*
X21000000Y4309524D01*
X21047619Y4357143D01*
X21952381Y4833333D02*
X21952381Y5023809D01*
X21904762Y5119048D01*
X21857143Y5166667D01*
X21714286Y5261905D01*
X21523810Y5309524D01*
X21142857Y5309524D01*
X21047619Y5261905D01*
X21000000Y5214286D01*
X20952381Y5119048D01*
X20952381Y4928571D01*
X21000000Y4833333D01*
X21047619Y4785714D01*
X21142857Y4738095D01*
X21380952Y4738095D01*
X21476190Y4785714D01*
X21523810Y4833333D01*
X21571429Y4928571D01*
X21571429Y5119048D01*
X21523810Y5214286D01*
X21476190Y5261905D01*
X21380952Y5309524D01*
X20952381Y5642857D02*
X20952381Y6261905D01*
X21333333Y5928571D01*
X21333333Y6071429D01*
X21380952Y6166667D01*
X21428571Y6214286D01*
X21523810Y6261905D01*
X21761905Y6261905D01*
X21857143Y6214286D01*
X21904762Y6166667D01*
X21952381Y6071429D01*
X21952381Y5785714D01*
X21904762Y5690476D01*
X21857143Y5642857D01*
X19357143Y-8607143D02*
X19309524Y-8654762D01*
X19166667Y-8702381D01*
X19071429Y-8702381D01*
X18928571Y-8654762D01*
X18833333Y-8559524D01*
X18785714Y-8464286D01*
X18738095Y-8273810D01*
X18738095Y-8130952D01*
X18785714Y-7940476D01*
X18833333Y-7845238D01*
X18928571Y-7750000D01*
X19071429Y-7702381D01*
X19166667Y-7702381D01*
X19309524Y-7750000D01*
X19357143Y-7797619D01*
X19833333Y-8702381D02*
X20023809Y-8702381D01*
X20119048Y-8654762D01*
X20166667Y-8607143D01*
X20261905Y-8464286D01*
X20309524Y-8273810D01*
X20309524Y-7892857D01*
X20261905Y-7797619D01*
X20214286Y-7750000D01*
X20119048Y-7702381D01*
X19928571Y-7702381D01*
X19833333Y-7750000D01*
X19785714Y-7797619D01*
X19738095Y-7892857D01*
X19738095Y-8130952D01*
X19785714Y-8226190D01*
X19833333Y-8273810D01*
X19928571Y-8321429D01*
X20119048Y-8321429D01*
X20214286Y-8273810D01*
X20261905Y-8226190D01*
X20309524Y-8130952D01*
X21166667Y-8035714D02*
X21166667Y-8702381D01*
X20928571Y-7654762D02*
X20690476Y-8369048D01*
X21309524Y-8369048D01*
X14857143Y-10857143D02*
X14809524Y-10904762D01*
X14666667Y-10952381D01*
X14571429Y-10952381D01*
X14428571Y-10904762D01*
X14333333Y-10809524D01*
X14285714Y-10714286D01*
X14238095Y-10523810D01*
X14238095Y-10380952D01*
X14285714Y-10190476D01*
X14333333Y-10095238D01*
X14428571Y-10000000D01*
X14571429Y-9952381D01*
X14666667Y-9952381D01*
X14809524Y-10000000D01*
X14857143Y-10047619D01*
X15333333Y-10952381D02*
X15523809Y-10952381D01*
X15619048Y-10904762D01*
X15666667Y-10857143D01*
X15761905Y-10714286D01*
X15809524Y-10523810D01*
X15809524Y-10142857D01*
X15761905Y-10047619D01*
X15714286Y-10000000D01*
X15619048Y-9952381D01*
X15428571Y-9952381D01*
X15333333Y-10000000D01*
X15285714Y-10047619D01*
X15238095Y-10142857D01*
X15238095Y-10380952D01*
X15285714Y-10476190D01*
X15333333Y-10523810D01*
X15428571Y-10571429D01*
X15619048Y-10571429D01*
X15714286Y-10523810D01*
X15761905Y-10476190D01*
X15809524Y-10380952D01*
X16714286Y-9952381D02*
X16238095Y-9952381D01*
X16190476Y-10428571D01*
X16238095Y-10380952D01*
X16333333Y-10333333D01*
X16571429Y-10333333D01*
X16666667Y-10380952D01*
X16714286Y-10428571D01*
X16761905Y-10523810D01*
X16761905Y-10761905D01*
X16714286Y-10857143D01*
X16666667Y-10904762D01*
X16571429Y-10952381D01*
X16333333Y-10952381D01*
X16238095Y-10904762D01*
X16190476Y-10857143D01*
X26607143Y3357143D02*
X26654762Y3309524D01*
X26702381Y3166667D01*
X26702381Y3071429D01*
X26654762Y2928571D01*
X26559524Y2833333D01*
X26464286Y2785714D01*
X26273810Y2738095D01*
X26130952Y2738095D01*
X25940476Y2785714D01*
X25845238Y2833333D01*
X25750000Y2928571D01*
X25702381Y3071429D01*
X25702381Y3166667D01*
X25750000Y3309524D01*
X25797619Y3357143D01*
X26702381Y3833333D02*
X26702381Y4023809D01*
X26654762Y4119048D01*
X26607143Y4166667D01*
X26464286Y4261905D01*
X26273810Y4309524D01*
X25892857Y4309524D01*
X25797619Y4261905D01*
X25750000Y4214286D01*
X25702381Y4119048D01*
X25702381Y3928571D01*
X25750000Y3833333D01*
X25797619Y3785714D01*
X25892857Y3738095D01*
X26130952Y3738095D01*
X26226190Y3785714D01*
X26273810Y3833333D01*
X26321429Y3928571D01*
X26321429Y4119048D01*
X26273810Y4214286D01*
X26226190Y4261905D01*
X26130952Y4309524D01*
X25702381Y5166667D02*
X25702381Y4976190D01*
X25750000Y4880952D01*
X25797619Y4833333D01*
X25940476Y4738095D01*
X26130952Y4690476D01*
X26511905Y4690476D01*
X26607143Y4738095D01*
X26654762Y4785714D01*
X26702381Y4880952D01*
X26702381Y5071429D01*
X26654762Y5166667D01*
X26607143Y5214286D01*
X26511905Y5261905D01*
X26273810Y5261905D01*
X26178571Y5214286D01*
X26130952Y5166667D01*
X26083333Y5071429D01*
X26083333Y4880952D01*
X26130952Y4785714D01*
X26178571Y4738095D01*
X26273810Y4690476D01*
X26607143Y357143D02*
X26654762Y309524D01*
X26702381Y166667D01*
X26702381Y71429D01*
X26654762Y-71429D01*
X26559524Y-166667D01*
X26464286Y-214286D01*
X26273810Y-261905D01*
X26130952Y-261905D01*
X25940476Y-214286D01*
X25845238Y-166667D01*
X25750000Y-71429D01*
X25702381Y71429D01*
X25702381Y166667D01*
X25750000Y309524D01*
X25797619Y357143D01*
X26702381Y833333D02*
X26702381Y1023809D01*
X26654762Y1119048D01*
X26607143Y1166667D01*
X26464286Y1261905D01*
X26273810Y1309524D01*
X25892857Y1309524D01*
X25797619Y1261905D01*
X25750000Y1214286D01*
X25702381Y1119048D01*
X25702381Y928571D01*
X25750000Y833333D01*
X25797619Y785714D01*
X25892857Y738095D01*
X26130952Y738095D01*
X26226190Y785714D01*
X26273810Y833333D01*
X26321429Y928571D01*
X26321429Y1119048D01*
X26273810Y1214286D01*
X26226190Y1261905D01*
X26130952Y1309524D01*
X25702381Y1642857D02*
X25702381Y2309524D01*
X26702381Y1880952D01*
X26607143Y-2642857D02*
X26654762Y-2690476D01*
X26702381Y-2833333D01*
X26702381Y-2928571D01*
X26654762Y-3071429D01*
X26559524Y-3166667D01*
X26464286Y-3214286D01*
X26273810Y-3261905D01*
X26130952Y-3261905D01*
X25940476Y-3214286D01*
X25845238Y-3166667D01*
X25750000Y-3071429D01*
X25702381Y-2928571D01*
X25702381Y-2833333D01*
X25750000Y-2690476D01*
X25797619Y-2642857D01*
X26702381Y-2166667D02*
X26702381Y-1976191D01*
X26654762Y-1880952D01*
X26607143Y-1833333D01*
X26464286Y-1738095D01*
X26273810Y-1690476D01*
X25892857Y-1690476D01*
X25797619Y-1738095D01*
X25750000Y-1785714D01*
X25702381Y-1880952D01*
X25702381Y-2071429D01*
X25750000Y-2166667D01*
X25797619Y-2214286D01*
X25892857Y-2261905D01*
X26130952Y-2261905D01*
X26226190Y-2214286D01*
X26273810Y-2166667D01*
X26321429Y-2071429D01*
X26321429Y-1880952D01*
X26273810Y-1785714D01*
X26226190Y-1738095D01*
X26130952Y-1690476D01*
X26130952Y-1119048D02*
X26083333Y-1214286D01*
X26035714Y-1261905D01*
X25940476Y-1309524D01*
X25892857Y-1309524D01*
X25797619Y-1261905D01*
X25750000Y-1214286D01*
X25702381Y-1119048D01*
X25702381Y-928571D01*
X25750000Y-833333D01*
X25797619Y-785714D01*
X25892857Y-738095D01*
X25940476Y-738095D01*
X26035714Y-785714D01*
X26083333Y-833333D01*
X26130952Y-928571D01*
X26130952Y-1119048D01*
X26178571Y-1214286D01*
X26226190Y-1261905D01*
X26321429Y-1309524D01*
X26511905Y-1309524D01*
X26607143Y-1261905D01*
X26654762Y-1214286D01*
X26702381Y-1119048D01*
X26702381Y-928571D01*
X26654762Y-833333D01*
X26607143Y-785714D01*
X26511905Y-738095D01*
X26321429Y-738095D01*
X26226190Y-785714D01*
X26178571Y-833333D01*
X26130952Y-928571D01*
X26607143Y-5642857D02*
X26654762Y-5690476D01*
X26702381Y-5833333D01*
X26702381Y-5928571D01*
X26654762Y-6071429D01*
X26559524Y-6166667D01*
X26464286Y-6214286D01*
X26273810Y-6261905D01*
X26130952Y-6261905D01*
X25940476Y-6214286D01*
X25845238Y-6166667D01*
X25750000Y-6071429D01*
X25702381Y-5928571D01*
X25702381Y-5833333D01*
X25750000Y-5690476D01*
X25797619Y-5642857D01*
X26702381Y-5166667D02*
X26702381Y-4976191D01*
X26654762Y-4880952D01*
X26607143Y-4833333D01*
X26464286Y-4738095D01*
X26273810Y-4690476D01*
X25892857Y-4690476D01*
X25797619Y-4738095D01*
X25750000Y-4785714D01*
X25702381Y-4880952D01*
X25702381Y-5071429D01*
X25750000Y-5166667D01*
X25797619Y-5214286D01*
X25892857Y-5261905D01*
X26130952Y-5261905D01*
X26226190Y-5214286D01*
X26273810Y-5166667D01*
X26321429Y-5071429D01*
X26321429Y-4880952D01*
X26273810Y-4785714D01*
X26226190Y-4738095D01*
X26130952Y-4690476D01*
X26702381Y-4214286D02*
X26702381Y-4023810D01*
X26654762Y-3928571D01*
X26607143Y-3880952D01*
X26464286Y-3785714D01*
X26273810Y-3738095D01*
X25892857Y-3738095D01*
X25797619Y-3785714D01*
X25750000Y-3833333D01*
X25702381Y-3928571D01*
X25702381Y-4119048D01*
X25750000Y-4214286D01*
X25797619Y-4261905D01*
X25892857Y-4309524D01*
X26130952Y-4309524D01*
X26226190Y-4261905D01*
X26273810Y-4214286D01*
X26321429Y-4119048D01*
X26321429Y-3928571D01*
X26273810Y-3833333D01*
X26226190Y-3785714D01*
X26130952Y-3738095D01*
X9981606Y-6026307D02*
X9981606Y-6093650D01*
X9914262Y-6228337D01*
X9846919Y-6295681D01*
X9712231Y-6363025D01*
X9577544Y-6363025D01*
X9476529Y-6329353D01*
X9308171Y-6228338D01*
X9207155Y-6127322D01*
X9106140Y-5958963D01*
X9072468Y-5857948D01*
X9072468Y-5723261D01*
X9139812Y-5588574D01*
X9207155Y-5521230D01*
X9341842Y-5453887D01*
X9409186Y-5453887D01*
X9577544Y-5150842D02*
X10015277Y-4713108D01*
X10048948Y-5218185D01*
X10149964Y-5117169D01*
X10250979Y-5083497D01*
X10318323Y-5083497D01*
X10419339Y-5117170D01*
X10587697Y-5285528D01*
X10621369Y-5386544D01*
X10621369Y-5453887D01*
X10587697Y-5554902D01*
X10385666Y-5756933D01*
X10284651Y-5790605D01*
X10217308Y-5790605D01*
X5884688Y-10370389D02*
X5884688Y-10437732D01*
X5817344Y-10572419D01*
X5750001Y-10639763D01*
X5615313Y-10707107D01*
X5480626Y-10707107D01*
X5379611Y-10673435D01*
X5211253Y-10572420D01*
X5110237Y-10471404D01*
X5009222Y-10303045D01*
X4975550Y-10202030D01*
X4975550Y-10067343D01*
X5042894Y-9932656D01*
X5110237Y-9865312D01*
X5244924Y-9797969D01*
X5312268Y-9797969D01*
X6086718Y-9360236D02*
X6558123Y-9831641D01*
X5648985Y-9259222D02*
X5985703Y-9932657D01*
X6423436Y-9494924D01*
X-14091794Y-16547970D02*
X-13384687Y-15840863D01*
X-13216328Y-16009222D01*
X-13148984Y-16143909D01*
X-13148984Y-16278596D01*
X-13182656Y-16379611D01*
X-13283671Y-16547970D01*
X-13384687Y-16648986D01*
X-13553045Y-16750001D01*
X-13654061Y-16783672D01*
X-13788747Y-16783672D01*
X-13923435Y-16716328D01*
X-14091794Y-16547970D01*
X-13014297Y-17625466D02*
X-13418359Y-17221405D01*
X-13216328Y-17423435D02*
X-12509222Y-16716328D01*
X-12677580Y-16750000D01*
X-12812267Y-16750000D01*
X-12913282Y-16716328D01*
X-17341794Y-13297970D02*
X-16634687Y-12590863D01*
X-16466328Y-12759222D01*
X-16398984Y-12893909D01*
X-16398984Y-13028596D01*
X-16432656Y-13129611D01*
X-16533671Y-13297970D01*
X-16634687Y-13398986D01*
X-16803045Y-13500001D01*
X-16904061Y-13533672D01*
X-17038747Y-13533672D01*
X-17173435Y-13466328D01*
X-17341794Y-13297970D01*
X-16028595Y-13331641D02*
X-15961252Y-13331641D01*
X-15860237Y-13365313D01*
X-15691877Y-13533672D01*
X-15658206Y-13634688D01*
X-15658206Y-13702031D01*
X-15691877Y-13803046D01*
X-15759221Y-13870390D01*
X-15893908Y-13937733D01*
X-16702030Y-13937733D01*
X-16264297Y-14375466D01*
X-16512690Y20761760D02*
X-15940271Y20189340D01*
X-15839255Y20155668D01*
X-15771912Y20155668D01*
X-15670897Y20189340D01*
X-15536209Y20324027D01*
X-15502538Y20425043D01*
X-15502538Y20492386D01*
X-15536209Y20593401D01*
X-16108629Y21165821D01*
X-15233164Y21569882D02*
X-14761759Y21098478D01*
X-15670897Y21670897D02*
X-15334179Y20997462D01*
X-14896446Y21435195D01*
X-14963790Y22310660D02*
X-14896446Y22378004D01*
X-14795431Y22411676D01*
X-14728087Y22411676D01*
X-14627072Y22378004D01*
X-14458714Y22276989D01*
X-14290354Y22108630D01*
X-14189339Y21940271D01*
X-14155667Y21839256D01*
X-14155667Y21771913D01*
X-14189339Y21670898D01*
X-14256683Y21603553D01*
X-14357698Y21569882D01*
X-14425042Y21569882D01*
X-14526057Y21603553D01*
X-14694416Y21704569D01*
X-14862775Y21872928D01*
X-14963790Y22041286D01*
X-14997462Y22142302D01*
X-14997462Y22209645D01*
X-14963790Y22310660D01*
X-27919114Y12606065D02*
X-27212007Y13313172D01*
X-27043648Y13144813D01*
X-26976304Y13010126D01*
X-26976304Y12875439D01*
X-27009976Y12774424D01*
X-27110991Y12606065D01*
X-27212007Y12505049D01*
X-27380365Y12404034D01*
X-27481381Y12370363D01*
X-27616067Y12370363D01*
X-27750755Y12437707D01*
X-27919114Y12606065D01*
X-26572244Y12673409D02*
X-26134510Y12235676D01*
X-26639587Y12202005D01*
X-26538571Y12100989D01*
X-26504899Y11999974D01*
X-26504899Y11932630D01*
X-26538572Y11831614D01*
X-26706930Y11663256D01*
X-26807946Y11629584D01*
X-26875289Y11629584D01*
X-26976304Y11663256D01*
X-27178335Y11865287D01*
X-27212007Y11966302D01*
X-27212007Y12033645D01*
X-16543824Y-12211253D02*
X-16611167Y-12211253D01*
X-16745854Y-12143909D01*
X-16813198Y-12076566D01*
X-16880542Y-11941878D01*
X-16880542Y-11807191D01*
X-16846870Y-11706176D01*
X-16745855Y-11537817D01*
X-16644839Y-11436802D01*
X-16476481Y-11335786D01*
X-16375465Y-11302115D01*
X-16240778Y-11302115D01*
X-16106091Y-11369459D01*
X-16038747Y-11436802D01*
X-15971404Y-11571489D01*
X-15971404Y-11638833D01*
X-15937732Y-12952031D02*
X-16341794Y-12547970D01*
X-16139763Y-12750000D02*
X-15432657Y-12042893D01*
X-15601015Y-12076565D01*
X-15735702Y-12076565D01*
X-15836717Y-12042893D01*
X-15264297Y-13625466D02*
X-15668359Y-13221405D01*
X-15466328Y-13423435D02*
X-14759222Y-12716328D01*
X-14927580Y-12750000D01*
X-15062267Y-12750000D01*
X-15163282Y-12716328D01*
X-13917427Y-13558123D02*
X-14254145Y-13221405D01*
X-14624534Y-13524450D01*
X-14557190Y-13524450D01*
X-14456175Y-13558122D01*
X-14287816Y-13726481D01*
X-14254144Y-13827496D01*
X-14254144Y-13894840D01*
X-14287817Y-13995856D01*
X-14456175Y-14164214D01*
X-14557190Y-14197886D01*
X-14624534Y-14197886D01*
X-14725549Y-14164214D01*
X-14893908Y-13995855D01*
X-14927580Y-13894840D01*
X-14927580Y-13827496D01*
X12930118Y-12896446D02*
X12593400Y-13233164D01*
X13064805Y-12290355D02*
X12930118Y-12896446D01*
X13536210Y-12761760D01*
X13670897Y-13031133D02*
X13738240Y-13031133D01*
X13839255Y-13064805D01*
X14007615Y-13233164D01*
X14041286Y-13334180D01*
X14041286Y-13401523D01*
X14007615Y-13502538D01*
X13940271Y-13569882D01*
X13805584Y-13637225D01*
X12997462Y-13637225D01*
X13435195Y-14074958D01*
X-23038747Y11206176D02*
X-23038747Y11138833D01*
X-23106091Y11004146D01*
X-23173434Y10936802D01*
X-23308122Y10869458D01*
X-23442809Y10869458D01*
X-23543824Y10903130D01*
X-23712183Y11004145D01*
X-23813198Y11105161D01*
X-23914214Y11273519D01*
X-23947885Y11374535D01*
X-23947885Y11509222D01*
X-23880541Y11643909D01*
X-23813198Y11711253D01*
X-23678511Y11778596D01*
X-23611167Y11778596D01*
X-22297969Y11812268D02*
X-22702030Y11408206D01*
X-22500000Y11610237D02*
X-23207107Y12317343D01*
X-23173435Y12148985D01*
X-23173435Y12014298D01*
X-23207107Y11913283D01*
X-21624534Y12485703D02*
X-22028595Y12081641D01*
X-21826565Y12283672D02*
X-22533672Y12990778D01*
X-22500000Y12822420D01*
X-22500000Y12687733D01*
X-22533672Y12586718D01*
X-20951099Y13159138D02*
X-21355160Y12755076D01*
X-21153130Y12957107D02*
X-21860237Y13664214D01*
X-21826565Y13495855D01*
X-21826565Y13361168D01*
X-21860237Y13260153D01*
X-15538746Y16206176D02*
X-15538746Y16138833D01*
X-15606090Y16004146D01*
X-15673433Y15936802D01*
X-15808121Y15869458D01*
X-15942808Y15869458D01*
X-16043823Y15903130D01*
X-16212182Y16004145D01*
X-16313197Y16105161D01*
X-16414213Y16273519D01*
X-16447884Y16374535D01*
X-16447884Y16509222D01*
X-16380540Y16643909D01*
X-16313197Y16711253D01*
X-16178510Y16778596D01*
X-16111166Y16778596D01*
X-14797968Y16812268D02*
X-15202029Y16408206D01*
X-14999999Y16610237D02*
X-15707106Y17317343D01*
X-15673434Y17148985D01*
X-15673434Y17014298D01*
X-15707106Y16913283D01*
X-14124533Y17485703D02*
X-14528594Y17081641D01*
X-14326564Y17283672D02*
X-15033671Y17990778D01*
X-14999999Y17822420D01*
X-14999999Y17687733D01*
X-15033671Y17586718D01*
X-14494923Y18394840D02*
X-14494923Y18462183D01*
X-14461251Y18563198D01*
X-14292892Y18731558D01*
X-14191876Y18765229D01*
X-14124533Y18765229D01*
X-14023518Y18731558D01*
X-13956174Y18664214D01*
X-13888831Y18529527D01*
X-13888831Y17721405D01*
X-13451098Y18159138D01*
X-15038747Y12456176D02*
X-15038747Y12388833D01*
X-15106091Y12254146D01*
X-15173434Y12186802D01*
X-15308122Y12119458D01*
X-15442809Y12119458D01*
X-15543824Y12153130D01*
X-15712183Y12254145D01*
X-15813198Y12355161D01*
X-15914214Y12523519D01*
X-15947885Y12624535D01*
X-15947885Y12759222D01*
X-15880541Y12893909D01*
X-15813198Y12961253D01*
X-15678511Y13028596D01*
X-15611167Y13028596D01*
X-14297969Y13062268D02*
X-14702030Y12658206D01*
X-14500000Y12860237D02*
X-15207107Y13567343D01*
X-15173435Y13398985D01*
X-15173435Y13264298D01*
X-15207107Y13163283D01*
X-13624534Y13735703D02*
X-14028595Y13331641D01*
X-13826565Y13533672D02*
X-14533672Y14240778D01*
X-14500000Y14072420D01*
X-14500000Y13937733D01*
X-14533672Y13836718D01*
X-14095939Y14678512D02*
X-13624534Y15149916D01*
X-13220473Y14139763D01*
X-8749087Y8055516D02*
X-8749087Y7988173D01*
X-8816431Y7853486D01*
X-8883774Y7786142D01*
X-9018462Y7718798D01*
X-9153149Y7718798D01*
X-9254164Y7752470D01*
X-9422523Y7853485D01*
X-9523538Y7954501D01*
X-9624554Y8122859D01*
X-9658225Y8223875D01*
X-9658225Y8358562D01*
X-9590881Y8493249D01*
X-9523538Y8560593D01*
X-9388851Y8627936D01*
X-9321507Y8627936D01*
X-8008309Y8661608D02*
X-8412370Y8257546D01*
X-8210340Y8459577D02*
X-8917447Y9166683D01*
X-8883775Y8998325D01*
X-8883775Y8863638D01*
X-8917447Y8762623D01*
X-8378699Y9570745D02*
X-8378699Y9638088D01*
X-8345027Y9739103D01*
X-8176668Y9907463D01*
X-8075652Y9941134D01*
X-8008309Y9941134D01*
X-7907294Y9907463D01*
X-7839950Y9840119D01*
X-7772607Y9705432D01*
X-7772607Y8897310D01*
X-7334874Y9335043D01*
X-6661439Y10008478D02*
X-7065500Y9604416D01*
X-6863470Y9806447D02*
X-7570577Y10513554D01*
X-7536905Y10345195D01*
X-7536905Y10210508D01*
X-7570577Y10109493D01*
X-7543824Y-10461253D02*
X-7611167Y-10461253D01*
X-7745854Y-10393909D01*
X-7813198Y-10326566D01*
X-7880542Y-10191878D01*
X-7880542Y-10057191D01*
X-7846870Y-9956176D01*
X-7745855Y-9787817D01*
X-7644839Y-9686802D01*
X-7476481Y-9585786D01*
X-7375465Y-9552115D01*
X-7240778Y-9552115D01*
X-7106091Y-9619459D01*
X-7038747Y-9686802D01*
X-6971404Y-9821489D01*
X-6971404Y-9888833D01*
X-6937732Y-11202031D02*
X-7341794Y-10797970D01*
X-7139763Y-11000000D02*
X-6432657Y-10292893D01*
X-6601015Y-10326565D01*
X-6735702Y-10326565D01*
X-6836717Y-10292893D01*
X-6264297Y-11875466D02*
X-6668359Y-11471405D01*
X-6466328Y-11673435D02*
X-5759222Y-10966328D01*
X-5927580Y-11000000D01*
X-6062267Y-11000000D01*
X-6163282Y-10966328D01*
X-5927580Y-12212183D02*
X-5792893Y-12346870D01*
X-5691877Y-12380543D01*
X-5624534Y-12380543D01*
X-5456175Y-12346871D01*
X-5287817Y-12245856D01*
X-5018442Y-11976481D01*
X-4984771Y-11875466D01*
X-4984771Y-11808123D01*
X-5018442Y-11707107D01*
X-5153130Y-11572420D01*
X-5254145Y-11538748D01*
X-5321488Y-11538748D01*
X-5422504Y-11572420D01*
X-5590862Y-11740778D01*
X-5624534Y-11841794D01*
X-5624535Y-11909138D01*
X-5590863Y-12010153D01*
X-5456175Y-12144841D01*
X-5355160Y-12178512D01*
X-5287816Y-12178512D01*
X-5186801Y-12144840D01*
X-7543824Y-5711253D02*
X-7611167Y-5711253D01*
X-7745854Y-5643909D01*
X-7813198Y-5576566D01*
X-7880542Y-5441878D01*
X-7880542Y-5307191D01*
X-7846870Y-5206176D01*
X-7745855Y-5037817D01*
X-7644839Y-4936802D01*
X-7476481Y-4835786D01*
X-7375465Y-4802115D01*
X-7240778Y-4802115D01*
X-7106091Y-4869459D01*
X-7038747Y-4936802D01*
X-6971404Y-5071489D01*
X-6971404Y-5138833D01*
X-6937732Y-6452031D02*
X-7341794Y-6047970D01*
X-7139763Y-6250000D02*
X-6432657Y-5542893D01*
X-6601015Y-5576565D01*
X-6735702Y-5576565D01*
X-6836717Y-5542893D01*
X-6028595Y-6081641D02*
X-5961252Y-6081641D01*
X-5860237Y-6115313D01*
X-5691877Y-6283672D01*
X-5658206Y-6384688D01*
X-5658206Y-6452031D01*
X-5691877Y-6553046D01*
X-5759221Y-6620390D01*
X-5893908Y-6687733D01*
X-6702030Y-6687733D01*
X-6264297Y-7125466D01*
X-5355160Y-6755076D02*
X-5287817Y-6755076D01*
X-5186802Y-6788748D01*
X-5018442Y-6957107D01*
X-4984771Y-7058123D01*
X-4984771Y-7125466D01*
X-5018442Y-7226481D01*
X-5085786Y-7293825D01*
X-5220473Y-7361168D01*
X-6028595Y-7361168D01*
X-5590862Y-7798901D01*
X-22038747Y10206176D02*
X-22038747Y10138833D01*
X-22106091Y10004146D01*
X-22173434Y9936802D01*
X-22308122Y9869458D01*
X-22442809Y9869458D01*
X-22543824Y9903130D01*
X-22712183Y10004145D01*
X-22813198Y10105161D01*
X-22914214Y10273519D01*
X-22947885Y10374535D01*
X-22947885Y10509222D01*
X-22880541Y10643909D01*
X-22813198Y10711253D01*
X-22678511Y10778596D01*
X-22611167Y10778596D01*
X-21297969Y10812268D02*
X-21702030Y10408206D01*
X-21500000Y10610237D02*
X-22207107Y11317343D01*
X-22173435Y11148985D01*
X-22173435Y11014298D01*
X-22207107Y10913283D01*
X-21567343Y11957107D02*
X-21499999Y12024451D01*
X-21398984Y12058123D01*
X-21331641Y12058123D01*
X-21230626Y12024451D01*
X-21062267Y11923436D01*
X-20893908Y11755076D01*
X-20792893Y11586718D01*
X-20759221Y11485703D01*
X-20759221Y11418359D01*
X-20792893Y11317344D01*
X-20860237Y11250000D01*
X-20961252Y11216328D01*
X-21028595Y11216328D01*
X-21129610Y11250000D01*
X-21297969Y11351015D01*
X-21466328Y11519374D01*
X-21567343Y11687733D01*
X-21601015Y11788748D01*
X-21601015Y11856092D01*
X-21567343Y11957107D01*
X-20287817Y11822420D02*
X-20153130Y11957107D01*
X-20119457Y12058123D01*
X-20119457Y12125466D01*
X-20153129Y12293825D01*
X-20254144Y12462183D01*
X-20523519Y12731558D01*
X-20624534Y12765229D01*
X-20691877Y12765229D01*
X-20792893Y12731558D01*
X-20927580Y12596870D01*
X-20961252Y12495855D01*
X-20961252Y12428512D01*
X-20927580Y12327496D01*
X-20759222Y12159138D01*
X-20658206Y12125466D01*
X-20590862Y12125465D01*
X-20489847Y12159137D01*
X-20355159Y12293825D01*
X-20321488Y12394840D01*
X-20321488Y12462184D01*
X-20355160Y12563199D01*
X-14538747Y15206176D02*
X-14538747Y15138833D01*
X-14606091Y15004146D01*
X-14673434Y14936802D01*
X-14808122Y14869458D01*
X-14942809Y14869458D01*
X-15043824Y14903130D01*
X-15212183Y15004145D01*
X-15313198Y15105161D01*
X-15414214Y15273519D01*
X-15447885Y15374535D01*
X-15447885Y15509222D01*
X-15380541Y15643909D01*
X-15313198Y15711253D01*
X-15178511Y15778596D01*
X-15111167Y15778596D01*
X-13797969Y15812268D02*
X-14202030Y15408206D01*
X-14000000Y15610237D02*
X-14707107Y16317343D01*
X-14673435Y16148985D01*
X-14673435Y16014298D01*
X-14707107Y15913283D01*
X-13124534Y16485703D02*
X-13528595Y16081641D01*
X-13326565Y16283672D02*
X-14033672Y16990778D01*
X-14000000Y16822420D01*
X-14000000Y16687733D01*
X-14033672Y16586718D01*
X-13393908Y17630542D02*
X-13326564Y17697886D01*
X-13225549Y17731558D01*
X-13158206Y17731558D01*
X-13057190Y17697886D01*
X-12888832Y17596871D01*
X-12720473Y17428512D01*
X-12619457Y17260153D01*
X-12585786Y17159138D01*
X-12585786Y17091794D01*
X-12619457Y16990779D01*
X-12686802Y16923435D01*
X-12787817Y16889763D01*
X-12855160Y16889763D01*
X-12956175Y16923435D01*
X-13124534Y17024450D01*
X-13292893Y17192810D01*
X-13393908Y17361168D01*
X-13427580Y17462183D01*
X-13427580Y17529527D01*
X-13393908Y17630542D01*
X-13793824Y-14961253D02*
X-13861167Y-14961253D01*
X-13995854Y-14893909D01*
X-14063198Y-14826566D01*
X-14130542Y-14691878D01*
X-14130542Y-14557191D01*
X-14096870Y-14456176D01*
X-13995855Y-14287817D01*
X-13894839Y-14186802D01*
X-13726481Y-14085786D01*
X-13625465Y-14052115D01*
X-13490778Y-14052115D01*
X-13356091Y-14119459D01*
X-13288747Y-14186802D01*
X-13221404Y-14321489D01*
X-13221404Y-14388833D01*
X-13187732Y-15702031D02*
X-13591794Y-15297970D01*
X-13389763Y-15500000D02*
X-12682657Y-14792893D01*
X-12851015Y-14826565D01*
X-12985702Y-14826565D01*
X-13086717Y-14792893D01*
X-12514297Y-16375466D02*
X-12918359Y-15971405D01*
X-12716328Y-16173435D02*
X-12009222Y-15466328D01*
X-12177580Y-15500000D01*
X-12312267Y-15500000D01*
X-12413282Y-15466328D01*
X-11436801Y-16510153D02*
X-11908206Y-16981558D01*
X-11335786Y-16072420D02*
X-12009222Y-16409138D01*
X-11571488Y-16846871D01*
X-26452030Y18658207D02*
X-27159137Y19365314D01*
X-26889763Y19634689D01*
X-26788747Y19668360D01*
X-26721404Y19668360D01*
X-26620389Y19634689D01*
X-26519374Y19533673D01*
X-26485702Y19432658D01*
X-26485702Y19365315D01*
X-26519374Y19264300D01*
X-26788748Y18994925D01*
X-26148984Y20375467D02*
X-26283672Y20240779D01*
X-26317343Y20139764D01*
X-26317343Y20072421D01*
X-26283672Y19904062D01*
X-26182657Y19735704D01*
X-25913282Y19466329D01*
X-25812267Y19432658D01*
X-25744924Y19432658D01*
X-25643908Y19466329D01*
X-25509221Y19601017D01*
X-25475549Y19702032D01*
X-25475549Y19769375D01*
X-25509221Y19870391D01*
X-25677579Y20038749D01*
X-25778595Y20072422D01*
X-25845939Y20072422D01*
X-25946954Y20038750D01*
X-26081641Y19904062D01*
X-26115313Y19803047D01*
X-26115313Y19735704D01*
X-26081641Y19634688D01*
X19797971Y-20841794D02*
X19090864Y-20134687D01*
X19360238Y-19865312D01*
X19461254Y-19831641D01*
X19528597Y-19831641D01*
X19629612Y-19865312D01*
X19730627Y-19966328D01*
X19764299Y-20067343D01*
X19764299Y-20134686D01*
X19730627Y-20235701D01*
X19461253Y-20505076D01*
X19730627Y-19494924D02*
X20202032Y-19023519D01*
X20606093Y-20033672D01*
X-16583333Y25297619D02*
X-16583333Y26297619D01*
X-16249999Y25583333D01*
X-15916666Y26297619D01*
X-15916666Y25297619D01*
X-15440476Y25297619D02*
X-15440476Y26297619D01*
X-15440476Y25821429D02*
X-14869047Y25821429D01*
X-14869047Y25297619D02*
X-14869047Y26297619D01*
X-14488095Y26297619D02*
X-13869047Y26297619D01*
X-14202381Y25916667D01*
X-14059523Y25916667D01*
X-13964285Y25869048D01*
X-13916666Y25821429D01*
X-13869047Y25726190D01*
X-13869047Y25488095D01*
X-13916666Y25392857D01*
X-13964285Y25345238D01*
X-14059523Y25297619D01*
X-14345238Y25297619D01*
X-14440476Y25345238D01*
X-14488095Y25392857D01*
X27241667Y-15482381D02*
X27241667Y-14482381D01*
X27575001Y-15196667D01*
X27908334Y-14482381D01*
X27908334Y-15482381D01*
X28384524Y-15482381D02*
X28384524Y-14482381D01*
X28384524Y-14958571D02*
X28955953Y-14958571D01*
X28955953Y-15482381D02*
X28955953Y-14482381D01*
X29955953Y-15482381D02*
X29384524Y-15482381D01*
X29670238Y-15482381D02*
X29670238Y-14482381D01*
X29575000Y-14625238D01*
X29479762Y-14720476D01*
X29384524Y-14768095D01*
X16446667Y-26277381D02*
X16446667Y-25277381D01*
X16780001Y-25991667D01*
X17113334Y-25277381D01*
X17113334Y-26277381D01*
X17589524Y-26277381D02*
X17589524Y-25277381D01*
X17589524Y-25753571D02*
X18160953Y-25753571D01*
X18160953Y-26277381D02*
X18160953Y-25277381D01*
X18589524Y-25372619D02*
X18637143Y-25325000D01*
X18732381Y-25277381D01*
X18970477Y-25277381D01*
X19065715Y-25325000D01*
X19113334Y-25372619D01*
X19160953Y-25467857D01*
X19160953Y-25563095D01*
X19113334Y-25705952D01*
X18541905Y-26277381D01*
X19160953Y-26277381D01*
X-21034416Y-19956920D02*
X-21606836Y-20529340D01*
X-21640508Y-20630355D01*
X-21640508Y-20697698D01*
X-21606836Y-20798713D01*
X-21472148Y-20933401D01*
X-21371133Y-20967073D01*
X-21303790Y-20967073D01*
X-21202775Y-20933401D01*
X-20630355Y-20360981D01*
X-19956920Y-21034416D02*
X-20293638Y-20697698D01*
X-20664026Y-21000744D01*
X-20596683Y-21000744D01*
X-20495668Y-21034415D01*
X-20327309Y-21202775D01*
X-20293637Y-21303790D01*
X-20293637Y-21371133D01*
X-20327309Y-21472149D01*
X-20495668Y-21640508D01*
X-20596683Y-21674179D01*
X-20664026Y-21674179D01*
X-20765042Y-21640508D01*
X-20933401Y-21472148D01*
X-20967073Y-21371133D01*
X-20967073Y-21303790D01*
X27206176Y14788747D02*
X27138833Y14788747D01*
X27004146Y14856091D01*
X26936802Y14923434D01*
X26869458Y15058122D01*
X26869458Y15192809D01*
X26903130Y15293824D01*
X27004145Y15462183D01*
X27105161Y15563198D01*
X27273519Y15664214D01*
X27374535Y15697885D01*
X27509222Y15697885D01*
X27643909Y15630541D01*
X27711253Y15563198D01*
X27778596Y15428511D01*
X27778596Y15361167D01*
X27812268Y14047969D02*
X27408206Y14452030D01*
X27610237Y14250000D02*
X28317343Y14957107D01*
X28148985Y14923435D01*
X28014298Y14923435D01*
X27913283Y14957107D01*
X28721405Y14418359D02*
X28788748Y14418359D01*
X28889763Y14384687D01*
X29058123Y14216328D01*
X29091794Y14115312D01*
X29091794Y14047969D01*
X29058123Y13946954D01*
X28990779Y13879610D01*
X28856092Y13812267D01*
X28047970Y13812267D01*
X28485703Y13374534D01*
X29832573Y13441877D02*
X29495855Y13778595D01*
X29125466Y13475550D01*
X29192810Y13475550D01*
X29293825Y13441878D01*
X29462184Y13273519D01*
X29495856Y13172504D01*
X29495856Y13105160D01*
X29462183Y13004144D01*
X29293825Y12835786D01*
X29192810Y12802114D01*
X29125466Y12802114D01*
X29024451Y12835786D01*
X28856092Y13004145D01*
X28822420Y13105160D01*
X28822420Y13172504D01*
X-12793824Y-25711253D02*
X-12861167Y-25711253D01*
X-12995854Y-25643909D01*
X-13063198Y-25576566D01*
X-13130542Y-25441878D01*
X-13130542Y-25307191D01*
X-13096870Y-25206176D01*
X-12995855Y-25037817D01*
X-12894839Y-24936802D01*
X-12726481Y-24835786D01*
X-12625465Y-24802115D01*
X-12490778Y-24802115D01*
X-12356091Y-24869459D01*
X-12288747Y-24936802D01*
X-12221404Y-25071489D01*
X-12221404Y-25138833D01*
X-12187732Y-26452031D02*
X-12591794Y-26047970D01*
X-12389763Y-26250000D02*
X-11682657Y-25542893D01*
X-11851015Y-25576565D01*
X-11985702Y-25576565D01*
X-12086717Y-25542893D01*
X-11278595Y-26081641D02*
X-11211252Y-26081641D01*
X-11110237Y-26115313D01*
X-10941877Y-26283672D01*
X-10908206Y-26384688D01*
X-10908206Y-26452031D01*
X-10941877Y-26553046D01*
X-11009221Y-26620390D01*
X-11143908Y-26687733D01*
X-11952030Y-26687733D01*
X-11514297Y-27125466D01*
X-10201099Y-27024451D02*
X-10335786Y-26889763D01*
X-10436802Y-26856092D01*
X-10504145Y-26856092D01*
X-10672504Y-26889763D01*
X-10840862Y-26990778D01*
X-11110237Y-27260153D01*
X-11143908Y-27361168D01*
X-11143908Y-27428512D01*
X-11110237Y-27529527D01*
X-10975549Y-27664214D01*
X-10874534Y-27697886D01*
X-10807190Y-27697886D01*
X-10706175Y-27664214D01*
X-10537817Y-27495856D01*
X-10504144Y-27394840D01*
X-10504144Y-27327496D01*
X-10537816Y-27226481D01*
X-10672504Y-27091794D01*
X-10773519Y-27058122D01*
X-10840862Y-27058122D01*
X-10941878Y-27091794D01*
X5637381Y-7786666D02*
X5161190Y-8120000D01*
X5637381Y-8358095D02*
X4637381Y-8358095D01*
X4637381Y-7977142D01*
X4685000Y-7881904D01*
X4732619Y-7834285D01*
X4827857Y-7786666D01*
X4970714Y-7786666D01*
X5065952Y-7834285D01*
X5113571Y-7881904D01*
X5161190Y-7977142D01*
X5161190Y-8358095D01*
X5637381Y-6834285D02*
X5637381Y-7405714D01*
X5637381Y-7120000D02*
X4637381Y-7120000D01*
X4780238Y-7215238D01*
X4875476Y-7310476D01*
X4923095Y-7405714D01*
X-13547968Y-26937732D02*
X-14120389Y-26836717D01*
X-13952029Y-27341794D02*
X-14659136Y-26634687D01*
X-14389762Y-26365312D01*
X-14288746Y-26331641D01*
X-14221403Y-26331641D01*
X-14120388Y-26365312D01*
X-14019373Y-26466328D01*
X-13985701Y-26567343D01*
X-13985701Y-26634686D01*
X-14019373Y-26735701D01*
X-14288747Y-27005076D01*
X-13413281Y-25860236D02*
X-12941876Y-26331641D01*
X-13851014Y-25759222D02*
X-13514296Y-26432657D01*
X-13076563Y-25994924D01*
X-25200761Y-10594940D02*
X-25773182Y-10493925D01*
X-25604822Y-10999002D02*
X-26311929Y-10291895D01*
X-26042555Y-10022520D01*
X-25941539Y-9988849D01*
X-25874196Y-9988849D01*
X-25773181Y-10022520D01*
X-25672166Y-10123536D01*
X-25638494Y-10224551D01*
X-25638494Y-10291894D01*
X-25672166Y-10392909D01*
X-25941540Y-10662284D01*
X-25301776Y-9281742D02*
X-25436464Y-9416430D01*
X-25470135Y-9517445D01*
X-25470135Y-9584788D01*
X-25436464Y-9753147D01*
X-25335449Y-9921505D01*
X-25066074Y-10190880D01*
X-24965059Y-10224551D01*
X-24897716Y-10224551D01*
X-24796700Y-10190880D01*
X-24662013Y-10056192D01*
X-24628341Y-9955177D01*
X-24628341Y-9887834D01*
X-24662013Y-9786818D01*
X-24830371Y-9618460D01*
X-24931387Y-9584787D01*
X-24998731Y-9584787D01*
X-25099746Y-9618459D01*
X-25234433Y-9753147D01*
X-25268105Y-9854162D01*
X-25268105Y-9921505D01*
X-25234433Y-10022521D01*
X29770981Y14156598D02*
X29838325Y14021911D01*
X30006684Y13853552D01*
X30107699Y13819880D01*
X30175043Y13819880D01*
X30276058Y13853552D01*
X30343401Y13920895D01*
X30377073Y14021910D01*
X30377073Y14089254D01*
X30343402Y14190270D01*
X30242386Y14358629D01*
X30208714Y14459644D01*
X30208714Y14526987D01*
X30242386Y14628003D01*
X30309729Y14695346D01*
X30410745Y14729018D01*
X30478088Y14729018D01*
X30579103Y14695346D01*
X30747462Y14526987D01*
X30814806Y14392300D01*
X31084180Y14190270D02*
X30545431Y13314804D01*
X31185196Y13685193D01*
X30814806Y13045430D01*
X31690271Y13584178D01*
X31622928Y12237308D02*
X31218867Y12641369D01*
X31420897Y12439339D02*
X32128004Y13146446D01*
X31959645Y13112774D01*
X31824958Y13112774D01*
X31723943Y13146446D01*
X-14979019Y-30343401D02*
X-14911675Y-30478088D01*
X-14743316Y-30646447D01*
X-14642301Y-30680119D01*
X-14574957Y-30680119D01*
X-14473942Y-30646447D01*
X-14406599Y-30579104D01*
X-14372927Y-30478089D01*
X-14372927Y-30410745D01*
X-14406598Y-30309729D01*
X-14507614Y-30141370D01*
X-14541286Y-30040355D01*
X-14541286Y-29973012D01*
X-14507614Y-29871996D01*
X-14440271Y-29804653D01*
X-14339255Y-29770981D01*
X-14271912Y-29770981D01*
X-14170897Y-29804653D01*
X-14002538Y-29973012D01*
X-13935194Y-30107699D01*
X-13665820Y-30309729D02*
X-14204569Y-31185195D01*
X-13564804Y-30814806D01*
X-13935194Y-31454569D01*
X-13059729Y-30915821D01*
X-12857698Y-31117851D02*
X-12419965Y-31555584D01*
X-12925042Y-31589255D01*
X-12824026Y-31690271D01*
X-12790354Y-31791286D01*
X-12790354Y-31858630D01*
X-12824027Y-31959646D01*
X-12992385Y-32128004D01*
X-13093400Y-32161676D01*
X-13160744Y-32161676D01*
X-13261759Y-32128004D01*
X-13463790Y-31925973D01*
X-13497462Y-31824958D01*
X-13497462Y-31757615D01*
M02*
