G04 #@! TF.FileFunction,Copper,L1,Top,Signal*
%FSLAX46Y46*%
G04 Gerber Fmt 4.6, Leading zero omitted, Abs format (unit mm)*
G04 Created by KiCad (PCBNEW 4.0.6-e0-6349~53~ubuntu14.04.1) date Wed Apr  5 00:03:45 2017*
%MOMM*%
%LPD*%
G01*
G04 APERTURE LIST*
%ADD10C,0.200000*%
%ADD11R,1.700000X2.100000*%
%ADD12C,3.500000*%
%ADD13C,1.727200*%
%ADD14R,1.727200X1.727200*%
%ADD15O,1.727200X1.727200*%
%ADD16R,0.850000X0.300000*%
%ADD17R,0.300000X0.850000*%
%ADD18R,1.837500X1.837500*%
%ADD19R,0.500000X0.600000*%
%ADD20R,0.600000X0.500000*%
%ADD21C,0.950000*%
%ADD22C,1.550000*%
%ADD23R,0.600000X0.400000*%
%ADD24C,0.600000*%
%ADD25C,0.250000*%
G04 APERTURE END LIST*
D10*
D11*
X1350000Y-2950000D03*
X1350000Y2950000D03*
X-1350000Y2950000D03*
X-1350000Y-2950000D03*
D12*
X-28575000Y17780000D03*
D10*
G36*
X14077763Y24705922D02*
X12640922Y26142763D01*
X13862237Y27364078D01*
X15299078Y25927237D01*
X14077763Y24705922D01*
X14077763Y24705922D01*
G37*
D13*
X15658288Y27938814D02*
X15873814Y27723288D01*
X17454339Y29734865D02*
X17669865Y29519339D01*
D10*
G36*
X-12140642Y13024526D02*
X-11681023Y13484145D01*
X-10931490Y12734612D01*
X-11391109Y12274993D01*
X-12140642Y13024526D01*
X-12140642Y13024526D01*
G37*
G36*
X-12812393Y12352774D02*
X-12352774Y12812393D01*
X-11603241Y12062860D01*
X-12062860Y11603241D01*
X-12812393Y12352774D01*
X-12812393Y12352774D01*
G37*
G36*
X-13484145Y11681023D02*
X-13024526Y12140642D01*
X-12274993Y11391109D01*
X-12734612Y10931490D01*
X-13484145Y11681023D01*
X-13484145Y11681023D01*
G37*
G36*
X-11928510Y10125388D02*
X-11468891Y10585007D01*
X-10719358Y9835474D01*
X-11178977Y9375855D01*
X-11928510Y10125388D01*
X-11928510Y10125388D01*
G37*
G36*
X-10585007Y11468891D02*
X-10125388Y11928510D01*
X-9375855Y11178977D01*
X-9835474Y10719358D01*
X-10585007Y11468891D01*
X-10585007Y11468891D01*
G37*
G36*
X-10484526Y-9600642D02*
X-10944145Y-9141023D01*
X-10194612Y-8391490D01*
X-9734993Y-8851109D01*
X-10484526Y-9600642D01*
X-10484526Y-9600642D01*
G37*
G36*
X-9812774Y-10272393D02*
X-10272393Y-9812774D01*
X-9522860Y-9063241D01*
X-9063241Y-9522860D01*
X-9812774Y-10272393D01*
X-9812774Y-10272393D01*
G37*
G36*
X-9141023Y-10944145D02*
X-9600642Y-10484526D01*
X-8851109Y-9734993D01*
X-8391490Y-10194612D01*
X-9141023Y-10944145D01*
X-9141023Y-10944145D01*
G37*
G36*
X-7585388Y-9388510D02*
X-8045007Y-8928891D01*
X-7295474Y-8179358D01*
X-6835855Y-8638977D01*
X-7585388Y-9388510D01*
X-7585388Y-9388510D01*
G37*
G36*
X-8928891Y-8045007D02*
X-9388510Y-7585388D01*
X-8638977Y-6835855D01*
X-8179358Y-7295474D01*
X-8928891Y-8045007D01*
X-8928891Y-8045007D01*
G37*
G36*
X17775812Y9431951D02*
X19119315Y10775454D01*
X20109264Y9785505D01*
X18765761Y8442002D01*
X17775812Y9431951D01*
X17775812Y9431951D01*
G37*
G36*
X9184464Y19437512D02*
X10527967Y20781015D01*
X11517916Y19791066D01*
X10174413Y18447563D01*
X9184464Y19437512D01*
X9184464Y19437512D01*
G37*
G36*
X23856930Y23715509D02*
X24846879Y24705458D01*
X25766118Y23786219D01*
X24776169Y22796270D01*
X23856930Y23715509D01*
X23856930Y23715509D01*
G37*
G36*
X19826422Y27746018D02*
X20816371Y28735967D01*
X21735610Y27816728D01*
X20745661Y26826779D01*
X19826422Y27746018D01*
X19826422Y27746018D01*
G37*
G36*
X17231339Y15053451D02*
X18291999Y16114111D01*
X18857685Y15548425D01*
X17797025Y14487765D01*
X17231339Y15053451D01*
X17231339Y15053451D01*
G37*
G36*
X16736365Y16114111D02*
X17797025Y17174771D01*
X18362711Y16609085D01*
X17302051Y15548425D01*
X16736365Y16114111D01*
X16736365Y16114111D01*
G37*
G36*
X15675704Y16609086D02*
X16736364Y17669746D01*
X17302050Y17104060D01*
X16241390Y16043400D01*
X15675704Y16609086D01*
X15675704Y16609086D01*
G37*
G36*
X14756466Y17245482D02*
X15817126Y18306142D01*
X16382812Y17740456D01*
X15322152Y16679796D01*
X14756466Y17245482D01*
X14756466Y17245482D01*
G37*
G36*
X14120069Y18164721D02*
X15180729Y19225381D01*
X15746415Y18659695D01*
X14685755Y17599035D01*
X14120069Y18164721D01*
X14120069Y18164721D01*
G37*
G36*
X13200831Y18801117D02*
X14261491Y19861777D01*
X14827177Y19296091D01*
X13766517Y18235431D01*
X13200831Y18801117D01*
X13200831Y18801117D01*
G37*
G36*
X12564435Y19720356D02*
X13625095Y20781016D01*
X14190781Y20215330D01*
X13130121Y19154670D01*
X12564435Y19720356D01*
X12564435Y19720356D01*
G37*
G36*
X11786617Y20498173D02*
X12847277Y21558833D01*
X13412963Y20993147D01*
X12352303Y19932487D01*
X11786617Y20498173D01*
X11786617Y20498173D01*
G37*
G36*
X21230028Y26971736D02*
X21901779Y27643487D01*
X22608886Y26936380D01*
X21937135Y26264629D01*
X21230028Y26971736D01*
X21230028Y26971736D01*
G37*
D14*
X11430000Y-28575000D03*
D15*
X11430000Y-31115000D03*
X8890000Y-28575000D03*
X8890000Y-31115000D03*
X6350000Y-28575000D03*
X6350000Y-31115000D03*
X3810000Y-28575000D03*
X3810000Y-31115000D03*
X1270000Y-28575000D03*
X1270000Y-31115000D03*
X-1270000Y-28575000D03*
X-1270000Y-31115000D03*
X-3810000Y-28575000D03*
X-3810000Y-31115000D03*
X-6350000Y-28575000D03*
X-6350000Y-31115000D03*
X-8890000Y-28575000D03*
X-8890000Y-31115000D03*
X-11430000Y-28575000D03*
X-11430000Y-31115000D03*
D14*
X-28575000Y-11430000D03*
D15*
X-31115000Y-11430000D03*
X-28575000Y-8890000D03*
X-31115000Y-8890000D03*
X-28575000Y-6350000D03*
X-31115000Y-6350000D03*
X-28575000Y-3810000D03*
X-31115000Y-3810000D03*
X-28575000Y-1270000D03*
X-31115000Y-1270000D03*
X-28575000Y1270000D03*
X-31115000Y1270000D03*
X-28575000Y3810000D03*
X-31115000Y3810000D03*
X-28575000Y6350000D03*
X-31115000Y6350000D03*
X-28575000Y8890000D03*
X-31115000Y8890000D03*
X-28575000Y11430000D03*
X-31115000Y11430000D03*
D14*
X-11430000Y28575000D03*
D15*
X-11430000Y31115000D03*
X-8890000Y28575000D03*
X-8890000Y31115000D03*
X-6350000Y28575000D03*
X-6350000Y31115000D03*
X-3810000Y28575000D03*
X-3810000Y31115000D03*
X-1270000Y28575000D03*
X-1270000Y31115000D03*
X1270000Y28575000D03*
X1270000Y31115000D03*
X3810000Y28575000D03*
X3810000Y31115000D03*
X6350000Y28575000D03*
X6350000Y31115000D03*
X8890000Y28575000D03*
X8890000Y31115000D03*
X11430000Y28575000D03*
X11430000Y31115000D03*
D14*
X28575000Y11430000D03*
D15*
X31115000Y11430000D03*
X28575000Y8890000D03*
X31115000Y8890000D03*
X28575000Y6350000D03*
X31115000Y6350000D03*
X28575000Y3810000D03*
X31115000Y3810000D03*
X28575000Y1270000D03*
X31115000Y1270000D03*
X28575000Y-1270000D03*
X31115000Y-1270000D03*
X28575000Y-3810000D03*
X31115000Y-3810000D03*
X28575000Y-6350000D03*
X31115000Y-6350000D03*
X28575000Y-8890000D03*
X31115000Y-8890000D03*
X28575000Y-11430000D03*
X31115000Y-11430000D03*
D16*
X4450000Y-18750000D03*
X4450000Y-18250000D03*
X4450000Y-17750000D03*
X4450000Y-17250000D03*
X4450000Y-16750000D03*
X4450000Y-16250000D03*
X4450000Y-15750000D03*
X4450000Y-15250000D03*
X4450000Y-14750000D03*
X4450000Y-14250000D03*
X4450000Y-13750000D03*
X4450000Y-13250000D03*
X4450000Y-12750000D03*
X4450000Y-12250000D03*
X4450000Y-11750000D03*
X4450000Y-11250000D03*
D17*
X3750000Y-10550000D03*
X3250000Y-10550000D03*
X2750000Y-10550000D03*
X2250000Y-10550000D03*
X1750000Y-10550000D03*
X1250000Y-10550000D03*
X750000Y-10550000D03*
X250000Y-10550000D03*
X-250000Y-10550000D03*
X-750000Y-10550000D03*
X-1250000Y-10550000D03*
X-1750000Y-10550000D03*
X-2250000Y-10550000D03*
X-2750000Y-10550000D03*
X-3250000Y-10550000D03*
X-3750000Y-10550000D03*
D16*
X-4450000Y-11250000D03*
X-4450000Y-11750000D03*
X-4450000Y-12250000D03*
X-4450000Y-12750000D03*
X-4450000Y-13250000D03*
X-4450000Y-13750000D03*
X-4450000Y-14250000D03*
X-4450000Y-14750000D03*
X-4450000Y-15250000D03*
X-4450000Y-15750000D03*
X-4450000Y-16250000D03*
X-4450000Y-16750000D03*
X-4450000Y-17250000D03*
X-4450000Y-17750000D03*
X-4450000Y-18250000D03*
X-4450000Y-18750000D03*
D17*
X-3750000Y-19450000D03*
X-3250000Y-19450000D03*
X-2750000Y-19450000D03*
X-2250000Y-19450000D03*
X-1750000Y-19450000D03*
X-1250000Y-19450000D03*
X-750000Y-19450000D03*
X-250000Y-19450000D03*
X250000Y-19450000D03*
X750000Y-19450000D03*
X1250000Y-19450000D03*
X1750000Y-19450000D03*
X2250000Y-19450000D03*
X2750000Y-19450000D03*
X3250000Y-19450000D03*
X3750000Y-19450000D03*
D18*
X-2756250Y-12243750D03*
X-2756250Y-14081250D03*
X-2756250Y-15918750D03*
X-2756250Y-17756250D03*
X-918750Y-12243750D03*
X-918750Y-14081250D03*
X-918750Y-15918750D03*
X-918750Y-17756250D03*
X918750Y-12243750D03*
X918750Y-14081250D03*
X918750Y-15918750D03*
X918750Y-17756250D03*
X2756250Y-12243750D03*
X2756250Y-14081250D03*
X2756250Y-15918750D03*
X2756250Y-17756250D03*
D17*
X-18750000Y-4450000D03*
X-18250000Y-4450000D03*
X-17750000Y-4450000D03*
X-17250000Y-4450000D03*
X-16750000Y-4450000D03*
X-16250000Y-4450000D03*
X-15750000Y-4450000D03*
X-15250000Y-4450000D03*
X-14750000Y-4450000D03*
X-14250000Y-4450000D03*
X-13750000Y-4450000D03*
X-13250000Y-4450000D03*
X-12750000Y-4450000D03*
X-12250000Y-4450000D03*
X-11750000Y-4450000D03*
X-11250000Y-4450000D03*
D16*
X-10550000Y-3750000D03*
X-10550000Y-3250000D03*
X-10550000Y-2750000D03*
X-10550000Y-2250000D03*
X-10550000Y-1750000D03*
X-10550000Y-1250000D03*
X-10550000Y-750000D03*
X-10550000Y-250000D03*
X-10550000Y250000D03*
X-10550000Y750000D03*
X-10550000Y1250000D03*
X-10550000Y1750000D03*
X-10550000Y2250000D03*
X-10550000Y2750000D03*
X-10550000Y3250000D03*
X-10550000Y3750000D03*
D17*
X-11250000Y4450000D03*
X-11750000Y4450000D03*
X-12250000Y4450000D03*
X-12750000Y4450000D03*
X-13250000Y4450000D03*
X-13750000Y4450000D03*
X-14250000Y4450000D03*
X-14750000Y4450000D03*
X-15250000Y4450000D03*
X-15750000Y4450000D03*
X-16250000Y4450000D03*
X-16750000Y4450000D03*
X-17250000Y4450000D03*
X-17750000Y4450000D03*
X-18250000Y4450000D03*
X-18750000Y4450000D03*
D16*
X-19450000Y3750000D03*
X-19450000Y3250000D03*
X-19450000Y2750000D03*
X-19450000Y2250000D03*
X-19450000Y1750000D03*
X-19450000Y1250000D03*
X-19450000Y750000D03*
X-19450000Y250000D03*
X-19450000Y-250000D03*
X-19450000Y-750000D03*
X-19450000Y-1250000D03*
X-19450000Y-1750000D03*
X-19450000Y-2250000D03*
X-19450000Y-2750000D03*
X-19450000Y-3250000D03*
X-19450000Y-3750000D03*
D18*
X-12243750Y2756250D03*
X-14081250Y2756250D03*
X-15918750Y2756250D03*
X-17756250Y2756250D03*
X-12243750Y918750D03*
X-14081250Y918750D03*
X-15918750Y918750D03*
X-17756250Y918750D03*
X-12243750Y-918750D03*
X-14081250Y-918750D03*
X-15918750Y-918750D03*
X-17756250Y-918750D03*
X-12243750Y-2756250D03*
X-14081250Y-2756250D03*
X-15918750Y-2756250D03*
X-17756250Y-2756250D03*
D16*
X-4450000Y18750000D03*
X-4450000Y18250000D03*
X-4450000Y17750000D03*
X-4450000Y17250000D03*
X-4450000Y16750000D03*
X-4450000Y16250000D03*
X-4450000Y15750000D03*
X-4450000Y15250000D03*
X-4450000Y14750000D03*
X-4450000Y14250000D03*
X-4450000Y13750000D03*
X-4450000Y13250000D03*
X-4450000Y12750000D03*
X-4450000Y12250000D03*
X-4450000Y11750000D03*
X-4450000Y11250000D03*
D17*
X-3750000Y10550000D03*
X-3250000Y10550000D03*
X-2750000Y10550000D03*
X-2250000Y10550000D03*
X-1750000Y10550000D03*
X-1250000Y10550000D03*
X-750000Y10550000D03*
X-250000Y10550000D03*
X250000Y10550000D03*
X750000Y10550000D03*
X1250000Y10550000D03*
X1750000Y10550000D03*
X2250000Y10550000D03*
X2750000Y10550000D03*
X3250000Y10550000D03*
X3750000Y10550000D03*
D16*
X4450000Y11250000D03*
X4450000Y11750000D03*
X4450000Y12250000D03*
X4450000Y12750000D03*
X4450000Y13250000D03*
X4450000Y13750000D03*
X4450000Y14250000D03*
X4450000Y14750000D03*
X4450000Y15250000D03*
X4450000Y15750000D03*
X4450000Y16250000D03*
X4450000Y16750000D03*
X4450000Y17250000D03*
X4450000Y17750000D03*
X4450000Y18250000D03*
X4450000Y18750000D03*
D17*
X3750000Y19450000D03*
X3250000Y19450000D03*
X2750000Y19450000D03*
X2250000Y19450000D03*
X1750000Y19450000D03*
X1250000Y19450000D03*
X750000Y19450000D03*
X250000Y19450000D03*
X-250000Y19450000D03*
X-750000Y19450000D03*
X-1250000Y19450000D03*
X-1750000Y19450000D03*
X-2250000Y19450000D03*
X-2750000Y19450000D03*
X-3250000Y19450000D03*
X-3750000Y19450000D03*
D18*
X2756250Y12243750D03*
X2756250Y14081250D03*
X2756250Y15918750D03*
X2756250Y17756250D03*
X918750Y12243750D03*
X918750Y14081250D03*
X918750Y15918750D03*
X918750Y17756250D03*
X-918750Y12243750D03*
X-918750Y14081250D03*
X-918750Y15918750D03*
X-918750Y17756250D03*
X-2756250Y12243750D03*
X-2756250Y14081250D03*
X-2756250Y15918750D03*
X-2756250Y17756250D03*
D17*
X18750000Y4450000D03*
X18250000Y4450000D03*
X17750000Y4450000D03*
X17250000Y4450000D03*
X16750000Y4450000D03*
X16250000Y4450000D03*
X15750000Y4450000D03*
X15250000Y4450000D03*
X14750000Y4450000D03*
X14250000Y4450000D03*
X13750000Y4450000D03*
X13250000Y4450000D03*
X12750000Y4450000D03*
X12250000Y4450000D03*
X11750000Y4450000D03*
X11250000Y4450000D03*
D16*
X10550000Y3750000D03*
X10550000Y3250000D03*
X10550000Y2750000D03*
X10550000Y2250000D03*
X10550000Y1750000D03*
X10550000Y1250000D03*
X10550000Y750000D03*
X10550000Y250000D03*
X10550000Y-250000D03*
X10550000Y-750000D03*
X10550000Y-1250000D03*
X10550000Y-1750000D03*
X10550000Y-2250000D03*
X10550000Y-2750000D03*
X10550000Y-3250000D03*
X10550000Y-3750000D03*
D17*
X11250000Y-4450000D03*
X11750000Y-4450000D03*
X12250000Y-4450000D03*
X12750000Y-4450000D03*
X13250000Y-4450000D03*
X13750000Y-4450000D03*
X14250000Y-4450000D03*
X14750000Y-4450000D03*
X15250000Y-4450000D03*
X15750000Y-4450000D03*
X16250000Y-4450000D03*
X16750000Y-4450000D03*
X17250000Y-4450000D03*
X17750000Y-4450000D03*
X18250000Y-4450000D03*
X18750000Y-4450000D03*
D16*
X19450000Y-3750000D03*
X19450000Y-3250000D03*
X19450000Y-2750000D03*
X19450000Y-2250000D03*
X19450000Y-1750000D03*
X19450000Y-1250000D03*
X19450000Y-750000D03*
X19450000Y-250000D03*
X19450000Y250000D03*
X19450000Y750000D03*
X19450000Y1250000D03*
X19450000Y1750000D03*
X19450000Y2250000D03*
X19450000Y2750000D03*
X19450000Y3250000D03*
X19450000Y3750000D03*
D18*
X12243750Y-2756250D03*
X14081250Y-2756250D03*
X15918750Y-2756250D03*
X17756250Y-2756250D03*
X12243750Y-918750D03*
X14081250Y-918750D03*
X15918750Y-918750D03*
X17756250Y-918750D03*
X12243750Y918750D03*
X14081250Y918750D03*
X15918750Y918750D03*
X17756250Y918750D03*
X12243750Y2756250D03*
X14081250Y2756250D03*
X15918750Y2756250D03*
X17756250Y2756250D03*
D19*
X8000000Y-16950000D03*
X8000000Y-18050000D03*
X8000000Y-14950000D03*
X8000000Y-16050000D03*
D20*
X1450000Y-6000000D03*
X2550000Y-6000000D03*
X-550000Y-6000000D03*
X550000Y-6000000D03*
D19*
X7000000Y-16950000D03*
X7000000Y-18050000D03*
X7000000Y-14950000D03*
X7000000Y-16050000D03*
D20*
X1450000Y-7000000D03*
X2550000Y-7000000D03*
X-550000Y-7000000D03*
X550000Y-7000000D03*
D19*
X-7000000Y-18050000D03*
X-7000000Y-16950000D03*
X-7000000Y-16050000D03*
X-7000000Y-14950000D03*
X-3000000Y-20950000D03*
X-3000000Y-22050000D03*
D20*
X3050000Y-22000000D03*
X1950000Y-22000000D03*
X1050000Y-22000000D03*
X-50000Y-22000000D03*
X-950000Y-22000000D03*
X-2050000Y-22000000D03*
X3050000Y-21000000D03*
X1950000Y-21000000D03*
D19*
X-8000000Y-18050000D03*
X-8000000Y-16950000D03*
X-8000000Y-16050000D03*
X-8000000Y-14950000D03*
D20*
X3050000Y-23000000D03*
X1950000Y-23000000D03*
X1050000Y-23000000D03*
X-50000Y-23000000D03*
X-950000Y-23000000D03*
X-2050000Y-23000000D03*
X-2950000Y-23000000D03*
X-4050000Y-23000000D03*
X-16950000Y-8000000D03*
X-18050000Y-8000000D03*
X-14950000Y-8000000D03*
X-16050000Y-8000000D03*
D19*
X-6000000Y-1450000D03*
X-6000000Y-2550000D03*
X-6000000Y550000D03*
X-6000000Y-550000D03*
D20*
X-16950000Y-7000000D03*
X-18050000Y-7000000D03*
X-14950000Y-7000000D03*
X-16050000Y-7000000D03*
D19*
X-7000000Y-1450000D03*
X-7000000Y-2550000D03*
X-7000000Y550000D03*
X-7000000Y-550000D03*
D20*
X-18050000Y7000000D03*
X-16950000Y7000000D03*
X-16050000Y7000000D03*
X-14950000Y7000000D03*
X-20950000Y3000000D03*
X-22050000Y3000000D03*
D19*
X-22000000Y-3050000D03*
X-22000000Y-1950000D03*
X-22000000Y-1050000D03*
X-22000000Y50000D03*
X-22000000Y950000D03*
X-22000000Y2050000D03*
X-21000000Y-3050000D03*
X-21000000Y-1950000D03*
D20*
X-18050000Y8000000D03*
X-16950000Y8000000D03*
X-16050000Y8000000D03*
X-14950000Y8000000D03*
D19*
X-23000000Y-3050000D03*
X-23000000Y-1950000D03*
X-23000000Y-1050000D03*
X-23000000Y50000D03*
X-23000000Y950000D03*
X-23000000Y2050000D03*
X-23000000Y2950000D03*
X-23000000Y4050000D03*
X-8000000Y16950000D03*
X-8000000Y18050000D03*
X-8000000Y14950000D03*
X-8000000Y16050000D03*
D20*
X-1450000Y6000000D03*
X-2550000Y6000000D03*
X550000Y6000000D03*
X-550000Y6000000D03*
D19*
X-7000000Y16950000D03*
X-7000000Y18050000D03*
X-7000000Y14950000D03*
X-7000000Y16050000D03*
D20*
X-1450000Y7000000D03*
X-2550000Y7000000D03*
X550000Y7000000D03*
X-550000Y7000000D03*
D19*
X7000000Y18050000D03*
X7000000Y16950000D03*
X7000000Y16050000D03*
X7000000Y14950000D03*
X3000000Y20950000D03*
X3000000Y22050000D03*
D20*
X-3050000Y22000000D03*
X-1950000Y22000000D03*
X-1050000Y22000000D03*
X50000Y22000000D03*
X950000Y22000000D03*
X2050000Y22000000D03*
X-3050000Y21000000D03*
X-1950000Y21000000D03*
D19*
X8000000Y18050000D03*
X8000000Y16950000D03*
X8000000Y16050000D03*
X8000000Y14950000D03*
D20*
X-3050000Y23000000D03*
X-1950000Y23000000D03*
X-1050000Y23000000D03*
X50000Y23000000D03*
X950000Y23000000D03*
X2050000Y23000000D03*
X2950000Y23000000D03*
X4050000Y23000000D03*
X16950000Y8000000D03*
X18050000Y8000000D03*
X14950000Y8000000D03*
X16050000Y8000000D03*
D19*
X6000000Y1450000D03*
X6000000Y2550000D03*
X6000000Y-550000D03*
X6000000Y550000D03*
D20*
X16950000Y7000000D03*
X18050000Y7000000D03*
X14950000Y7000000D03*
X16050000Y7000000D03*
D19*
X7000000Y1450000D03*
X7000000Y2550000D03*
X7000000Y-550000D03*
X7000000Y550000D03*
D20*
X18050000Y-7000000D03*
X16950000Y-7000000D03*
X16050000Y-7000000D03*
X14950000Y-7000000D03*
X20950000Y-3000000D03*
X22050000Y-3000000D03*
D19*
X22000000Y3050000D03*
X22000000Y1950000D03*
X22000000Y1050000D03*
X22000000Y-50000D03*
X22000000Y-950000D03*
X22000000Y-2050000D03*
X21000000Y3050000D03*
X21000000Y1950000D03*
D20*
X18050000Y-8000000D03*
X16950000Y-8000000D03*
X16050000Y-8000000D03*
X14950000Y-8000000D03*
D19*
X23000000Y3050000D03*
X23000000Y1950000D03*
X23000000Y1050000D03*
X23000000Y-50000D03*
X23000000Y-950000D03*
X23000000Y-2050000D03*
X23000000Y-2950000D03*
X23000000Y-4050000D03*
D10*
G36*
X10624736Y-7635818D02*
X10271182Y-7282264D01*
X10695446Y-6858000D01*
X11049000Y-7211554D01*
X10624736Y-7635818D01*
X10624736Y-7635818D01*
G37*
G36*
X11402554Y-6858000D02*
X11049000Y-6504446D01*
X11473264Y-6080182D01*
X11826818Y-6433736D01*
X11402554Y-6858000D01*
X11402554Y-6858000D01*
G37*
G36*
X6774264Y-10906182D02*
X7127818Y-11259736D01*
X6703554Y-11684000D01*
X6350000Y-11330446D01*
X6774264Y-10906182D01*
X6774264Y-10906182D01*
G37*
G36*
X5996446Y-11684000D02*
X6350000Y-12037554D01*
X5925736Y-12461818D01*
X5572182Y-12108264D01*
X5996446Y-11684000D01*
X5996446Y-11684000D01*
G37*
G36*
X-10462660Y-15165011D02*
X-9599989Y-14302340D01*
X-8956522Y-14945807D01*
X-9819193Y-15808478D01*
X-10462660Y-15165011D01*
X-10462660Y-15165011D01*
G37*
G36*
X-12633478Y-12994193D02*
X-11770807Y-12131522D01*
X-11127340Y-12774989D01*
X-11990011Y-13637660D01*
X-12633478Y-12994193D01*
X-12633478Y-12994193D01*
G37*
G36*
X-14302340Y-9599989D02*
X-15165011Y-10462660D01*
X-15808478Y-9819193D01*
X-14945807Y-8956522D01*
X-14302340Y-9599989D01*
X-14302340Y-9599989D01*
G37*
G36*
X-12131522Y-11770807D02*
X-12994193Y-12633478D01*
X-13637660Y-11990011D01*
X-12774989Y-11127340D01*
X-12131522Y-11770807D01*
X-12131522Y-11770807D01*
G37*
G36*
X-20872196Y17513439D02*
X-21084328Y17725571D01*
X-20483288Y18326611D01*
X-20271156Y18114479D01*
X-20872196Y17513439D01*
X-20872196Y17513439D01*
G37*
G36*
X-20518642Y17159886D02*
X-20730774Y17372018D01*
X-20129734Y17973058D01*
X-19917602Y17760926D01*
X-20518642Y17159886D01*
X-20518642Y17159886D01*
G37*
G36*
X-20165089Y16806332D02*
X-20377221Y17018464D01*
X-19776181Y17619504D01*
X-19564049Y17407372D01*
X-20165089Y16806332D01*
X-20165089Y16806332D01*
G37*
G36*
X-19811536Y16452779D02*
X-20023668Y16664911D01*
X-19422628Y17265951D01*
X-19210496Y17053819D01*
X-19811536Y16452779D01*
X-19811536Y16452779D01*
G37*
G36*
X-19457982Y16099226D02*
X-19670114Y16311358D01*
X-19069074Y16912398D01*
X-18856942Y16700266D01*
X-19457982Y16099226D01*
X-19457982Y16099226D01*
G37*
G36*
X-19104429Y15745672D02*
X-19316561Y15957804D01*
X-18715521Y16558844D01*
X-18503389Y16346712D01*
X-19104429Y15745672D01*
X-19104429Y15745672D01*
G37*
G36*
X-17513439Y15957804D02*
X-17725571Y15745672D01*
X-18326611Y16346712D01*
X-18114479Y16558844D01*
X-17513439Y15957804D01*
X-17513439Y15957804D01*
G37*
G36*
X-17159886Y16311358D02*
X-17372018Y16099226D01*
X-17973058Y16700266D01*
X-17760926Y16912398D01*
X-17159886Y16311358D01*
X-17159886Y16311358D01*
G37*
G36*
X-16806332Y16664911D02*
X-17018464Y16452779D01*
X-17619504Y17053819D01*
X-17407372Y17265951D01*
X-16806332Y16664911D01*
X-16806332Y16664911D01*
G37*
G36*
X-16452779Y17018464D02*
X-16664911Y16806332D01*
X-17265951Y17407372D01*
X-17053819Y17619504D01*
X-16452779Y17018464D01*
X-16452779Y17018464D01*
G37*
G36*
X-16099226Y17372018D02*
X-16311358Y17159886D01*
X-16912398Y17760926D01*
X-16700266Y17973058D01*
X-16099226Y17372018D01*
X-16099226Y17372018D01*
G37*
G36*
X-15745672Y17725571D02*
X-15957804Y17513439D01*
X-16558844Y18114479D01*
X-16346712Y18326611D01*
X-15745672Y17725571D01*
X-15745672Y17725571D01*
G37*
G36*
X-16346712Y18503389D02*
X-16558844Y18715521D01*
X-15957804Y19316561D01*
X-15745672Y19104429D01*
X-16346712Y18503389D01*
X-16346712Y18503389D01*
G37*
G36*
X-16700266Y18856942D02*
X-16912398Y19069074D01*
X-16311358Y19670114D01*
X-16099226Y19457982D01*
X-16700266Y18856942D01*
X-16700266Y18856942D01*
G37*
G36*
X-17053819Y19210496D02*
X-17265951Y19422628D01*
X-16664911Y20023668D01*
X-16452779Y19811536D01*
X-17053819Y19210496D01*
X-17053819Y19210496D01*
G37*
G36*
X-17407372Y19564049D02*
X-17619504Y19776181D01*
X-17018464Y20377221D01*
X-16806332Y20165089D01*
X-17407372Y19564049D01*
X-17407372Y19564049D01*
G37*
G36*
X-17760926Y19917602D02*
X-17973058Y20129734D01*
X-17372018Y20730774D01*
X-17159886Y20518642D01*
X-17760926Y19917602D01*
X-17760926Y19917602D01*
G37*
G36*
X-18114479Y20271156D02*
X-18326611Y20483288D01*
X-17725571Y21084328D01*
X-17513439Y20872196D01*
X-18114479Y20271156D01*
X-18114479Y20271156D01*
G37*
G36*
X-18503389Y20483288D02*
X-18715521Y20271156D01*
X-19316561Y20872196D01*
X-19104429Y21084328D01*
X-18503389Y20483288D01*
X-18503389Y20483288D01*
G37*
G36*
X-18856942Y20129734D02*
X-19069074Y19917602D01*
X-19670114Y20518642D01*
X-19457982Y20730774D01*
X-18856942Y20129734D01*
X-18856942Y20129734D01*
G37*
G36*
X-19210496Y19776181D02*
X-19422628Y19564049D01*
X-20023668Y20165089D01*
X-19811536Y20377221D01*
X-19210496Y19776181D01*
X-19210496Y19776181D01*
G37*
G36*
X-19564049Y19422628D02*
X-19776181Y19210496D01*
X-20377221Y19811536D01*
X-20165089Y20023668D01*
X-19564049Y19422628D01*
X-19564049Y19422628D01*
G37*
G36*
X-19917602Y19069074D02*
X-20129734Y18856942D01*
X-20730774Y19457982D01*
X-20518642Y19670114D01*
X-19917602Y19069074D01*
X-19917602Y19069074D01*
G37*
G36*
X-20271156Y18715521D02*
X-20483288Y18503389D01*
X-21084328Y19104429D01*
X-20872196Y19316561D01*
X-20271156Y18715521D01*
X-20271156Y18715521D01*
G37*
G36*
X-17495761Y17495761D02*
X-18415000Y18415000D01*
X-17495761Y19334239D01*
X-16576522Y18415000D01*
X-17495761Y17495761D01*
X-17495761Y17495761D01*
G37*
G36*
X-18415000Y18415000D02*
X-19334239Y19334239D01*
X-18415000Y20253478D01*
X-17495761Y19334239D01*
X-18415000Y18415000D01*
X-18415000Y18415000D01*
G37*
G36*
X-18415000Y16576522D02*
X-19334239Y17495761D01*
X-18415000Y18415000D01*
X-17495761Y17495761D01*
X-18415000Y16576522D01*
X-18415000Y16576522D01*
G37*
G36*
X-19334239Y17495761D02*
X-20253478Y18415000D01*
X-19334239Y19334239D01*
X-18415000Y18415000D01*
X-19334239Y17495761D01*
X-19334239Y17495761D01*
G37*
G36*
X-21889426Y15544431D02*
X-22879050Y14554807D01*
X-23726786Y15402543D01*
X-22737162Y16392167D01*
X-21889426Y15544431D01*
X-21889426Y15544431D01*
G37*
G36*
X-23175399Y16830403D02*
X-24165023Y15840779D01*
X-24872667Y16548423D01*
X-23883043Y17538047D01*
X-23175399Y16830403D01*
X-23175399Y16830403D01*
G37*
G36*
X-24730779Y15275023D02*
X-25720403Y14285399D01*
X-26428047Y14993043D01*
X-25438423Y15982667D01*
X-24730779Y15275023D01*
X-24730779Y15275023D01*
G37*
G36*
X-23387333Y13931577D02*
X-24376957Y12941953D01*
X-25084601Y13649597D01*
X-24094977Y14639221D01*
X-23387333Y13931577D01*
X-23387333Y13931577D01*
G37*
G36*
X-11372182Y-11124264D02*
X-11725736Y-11477818D01*
X-12150000Y-11053554D01*
X-11796446Y-10700000D01*
X-11372182Y-11124264D01*
X-11372182Y-11124264D01*
G37*
G36*
X-12150000Y-10346446D02*
X-12503554Y-10700000D01*
X-12927818Y-10275736D01*
X-12574264Y-9922182D01*
X-12150000Y-10346446D01*
X-12150000Y-10346446D01*
G37*
D21*
X-19986714Y-23523521D03*
X-23522248Y-19987987D03*
D22*
X-21188796Y-26139816D03*
X-26138543Y-21190068D03*
D10*
G36*
X6730532Y-9346828D02*
X7649771Y-8427589D01*
X9063984Y-9841802D01*
X8144745Y-10761041D01*
X6730532Y-9346828D01*
X6730532Y-9346828D01*
G37*
G36*
X9558959Y-12175255D02*
X10478198Y-11256016D01*
X11892411Y-12670229D01*
X10973172Y-13589468D01*
X9558959Y-12175255D01*
X9558959Y-12175255D01*
G37*
G36*
X11256016Y-10478198D02*
X12175255Y-9558959D01*
X13589468Y-10973172D01*
X12670229Y-11892411D01*
X11256016Y-10478198D01*
X11256016Y-10478198D01*
G37*
G36*
X8427589Y-7649771D02*
X9346828Y-6730532D01*
X10761041Y-8144745D01*
X9841802Y-9063984D01*
X8427589Y-7649771D01*
X8427589Y-7649771D01*
G37*
G36*
X-19701992Y15578338D02*
X-19171662Y15048008D01*
X-19737348Y14482322D01*
X-20267678Y15012652D01*
X-19701992Y15578338D01*
X-19701992Y15578338D01*
G37*
G36*
X-20762652Y14517678D02*
X-20232322Y13987348D01*
X-20798008Y13421662D01*
X-21328338Y13951992D01*
X-20762652Y14517678D01*
X-20762652Y14517678D01*
G37*
G36*
X-17998008Y13971662D02*
X-18528338Y14501992D01*
X-17962652Y15067678D01*
X-17432322Y14537348D01*
X-17998008Y13971662D01*
X-17998008Y13971662D01*
G37*
G36*
X-16937348Y15032322D02*
X-17467678Y15562652D01*
X-16901992Y16128338D01*
X-16371662Y15598008D01*
X-16937348Y15032322D01*
X-16937348Y15032322D01*
G37*
G36*
X-14137008Y11621662D02*
X-14667338Y12151992D01*
X-14101652Y12717678D01*
X-13571322Y12187348D01*
X-14137008Y11621662D01*
X-14137008Y11621662D01*
G37*
G36*
X-13076348Y12682322D02*
X-13606678Y13212652D01*
X-13040992Y13778338D01*
X-12510662Y13248008D01*
X-13076348Y12682322D01*
X-13076348Y12682322D01*
G37*
G36*
X-8722992Y11238338D02*
X-8192662Y10708008D01*
X-8758348Y10142322D01*
X-9288678Y10672652D01*
X-8722992Y11238338D01*
X-8722992Y11238338D01*
G37*
G36*
X-9783652Y10177678D02*
X-9253322Y9647348D01*
X-9819008Y9081662D01*
X-10349338Y9611992D01*
X-9783652Y10177678D01*
X-9783652Y10177678D01*
G37*
G36*
X-9081662Y-11597008D02*
X-9611992Y-12127338D01*
X-10177678Y-11561652D01*
X-9647348Y-11031322D01*
X-9081662Y-11597008D01*
X-9081662Y-11597008D01*
G37*
G36*
X-10142322Y-10536348D02*
X-10672652Y-11066678D01*
X-11238338Y-10500992D01*
X-10708008Y-9970662D01*
X-10142322Y-10536348D01*
X-10142322Y-10536348D01*
G37*
G36*
X-7936338Y-7071992D02*
X-7406008Y-6541662D01*
X-6840322Y-7107348D01*
X-7370652Y-7637678D01*
X-7936338Y-7071992D01*
X-7936338Y-7071992D01*
G37*
G36*
X-6875678Y-8132652D02*
X-6345348Y-7602322D01*
X-5779662Y-8168008D01*
X-6309992Y-8698338D01*
X-6875678Y-8132652D01*
X-6875678Y-8132652D01*
G37*
G36*
X-19225736Y14727818D02*
X-18872182Y14374264D01*
X-19296446Y13950000D01*
X-19650000Y14303554D01*
X-19225736Y14727818D01*
X-19225736Y14727818D01*
G37*
G36*
X-20003554Y13950000D02*
X-19650000Y13596446D01*
X-20074264Y13172182D01*
X-20427818Y13525736D01*
X-20003554Y13950000D01*
X-20003554Y13950000D01*
G37*
G36*
X-17274264Y13722182D02*
X-17627818Y14075736D01*
X-17203554Y14500000D01*
X-16850000Y14146446D01*
X-17274264Y13722182D01*
X-17274264Y13722182D01*
G37*
G36*
X-16496446Y14500000D02*
X-16850000Y14853554D01*
X-16425736Y15277818D01*
X-16072182Y14924264D01*
X-16496446Y14500000D01*
X-16496446Y14500000D01*
G37*
G36*
X-11746338Y-11643992D02*
X-11216008Y-11113662D01*
X-10650322Y-11679348D01*
X-11180652Y-12209678D01*
X-11746338Y-11643992D01*
X-11746338Y-11643992D01*
G37*
G36*
X-10685678Y-12704652D02*
X-10155348Y-12174322D01*
X-9589662Y-12740008D01*
X-10119992Y-13270338D01*
X-10685678Y-12704652D01*
X-10685678Y-12704652D01*
G37*
G36*
X-25290000Y20478685D02*
X-26511315Y21700000D01*
X-25290000Y22921315D01*
X-24068685Y21700000D01*
X-25290000Y20478685D01*
X-25290000Y20478685D01*
G37*
D13*
X-23493949Y19903949D02*
X-23493949Y19903949D01*
X-23493949Y23496051D02*
X-23493949Y23496051D01*
X-21697898Y21700000D02*
X-21697898Y21700000D01*
X-21697898Y25292102D02*
X-21697898Y25292102D01*
X-19901846Y23496051D02*
X-19901846Y23496051D01*
D10*
G36*
X25290000Y-20478685D02*
X26511315Y-21700000D01*
X25290000Y-22921315D01*
X24068685Y-21700000D01*
X25290000Y-20478685D01*
X25290000Y-20478685D01*
G37*
D13*
X23493949Y-19903949D02*
X23493949Y-19903949D01*
X23493949Y-23496051D02*
X23493949Y-23496051D01*
X21697898Y-21700000D02*
X21697898Y-21700000D01*
X21697898Y-25292102D02*
X21697898Y-25292102D01*
X19901846Y-23496051D02*
X19901846Y-23496051D01*
D12*
X-17780000Y28575000D03*
X28575000Y-17780000D03*
X17780000Y-28575000D03*
D10*
G36*
X-9250986Y-16817029D02*
X-9958093Y-17524136D01*
X-10453068Y-17029161D01*
X-9745961Y-16322054D01*
X-9250986Y-16817029D01*
X-9250986Y-16817029D01*
G37*
G36*
X-10665200Y-15402816D02*
X-11372307Y-16109923D01*
X-11867282Y-15614948D01*
X-11160175Y-14907841D01*
X-10665200Y-15402816D01*
X-10665200Y-15402816D01*
G37*
G36*
X-12079414Y-13988602D02*
X-12786521Y-14695709D01*
X-13281496Y-14200734D01*
X-12574389Y-13493627D01*
X-12079414Y-13988602D01*
X-12079414Y-13988602D01*
G37*
G36*
X-13493627Y-12574389D02*
X-14200734Y-13281496D01*
X-14695709Y-12786521D01*
X-13988602Y-12079414D01*
X-13493627Y-12574389D01*
X-13493627Y-12574389D01*
G37*
G36*
X-14907841Y-11160175D02*
X-15614948Y-11867282D01*
X-16109923Y-11372307D01*
X-15402816Y-10665200D01*
X-14907841Y-11160175D01*
X-14907841Y-11160175D01*
G37*
G36*
X-16322054Y-9745961D02*
X-17029161Y-10453068D01*
X-17524136Y-9958093D01*
X-16817029Y-9250986D01*
X-16322054Y-9745961D01*
X-16322054Y-9745961D01*
G37*
G36*
X-18867639Y-9392408D02*
X-19362614Y-9887383D01*
X-20352563Y-8897434D01*
X-19857588Y-8402459D01*
X-18867639Y-9392408D01*
X-18867639Y-9392408D01*
G37*
G36*
X-20281853Y-10806621D02*
X-20776828Y-11301596D01*
X-21766777Y-10311647D01*
X-21271802Y-9816672D01*
X-20281853Y-10806621D01*
X-20281853Y-10806621D01*
G37*
G36*
X-21696066Y-12220835D02*
X-22191041Y-12715810D01*
X-23180990Y-11725861D01*
X-22686015Y-11230886D01*
X-21696066Y-12220835D01*
X-21696066Y-12220835D01*
G37*
G36*
X-23110280Y-13635048D02*
X-23605255Y-14130023D01*
X-24595204Y-13140074D01*
X-24100229Y-12645099D01*
X-23110280Y-13635048D01*
X-23110280Y-13635048D01*
G37*
G36*
X-24524493Y-15049262D02*
X-25019468Y-15544237D01*
X-26009417Y-14554288D01*
X-25514442Y-14059313D01*
X-24524493Y-15049262D01*
X-24524493Y-15049262D01*
G37*
G36*
X-25938707Y-16463475D02*
X-26433682Y-16958450D01*
X-27423631Y-15968501D01*
X-26928656Y-15473526D01*
X-25938707Y-16463475D01*
X-25938707Y-16463475D01*
G37*
G36*
X-27352920Y-17877689D02*
X-27847895Y-18372664D01*
X-28837844Y-17382715D01*
X-28342869Y-16887740D01*
X-27352920Y-17877689D01*
X-27352920Y-17877689D01*
G37*
G36*
X-28767134Y-19291903D02*
X-29262109Y-19786878D01*
X-30252058Y-18796929D01*
X-29757083Y-18301954D01*
X-28767134Y-19291903D01*
X-28767134Y-19291903D01*
G37*
G36*
X-8402459Y-19857588D02*
X-8897434Y-20352563D01*
X-9887383Y-19362614D01*
X-9392408Y-18867639D01*
X-8402459Y-19857588D01*
X-8402459Y-19857588D01*
G37*
G36*
X-9816672Y-21271802D02*
X-10311647Y-21766777D01*
X-11301596Y-20776828D01*
X-10806621Y-20281853D01*
X-9816672Y-21271802D01*
X-9816672Y-21271802D01*
G37*
G36*
X-11230886Y-22686015D02*
X-11725861Y-23180990D01*
X-12715810Y-22191041D01*
X-12220835Y-21696066D01*
X-11230886Y-22686015D01*
X-11230886Y-22686015D01*
G37*
G36*
X-12645099Y-24100229D02*
X-13140074Y-24595204D01*
X-14130023Y-23605255D01*
X-13635048Y-23110280D01*
X-12645099Y-24100229D01*
X-12645099Y-24100229D01*
G37*
G36*
X-14059313Y-25514442D02*
X-14554288Y-26009417D01*
X-15544237Y-25019468D01*
X-15049262Y-24524493D01*
X-14059313Y-25514442D01*
X-14059313Y-25514442D01*
G37*
G36*
X-15473526Y-26928656D02*
X-15968501Y-27423631D01*
X-16958450Y-26433682D01*
X-16463475Y-25938707D01*
X-15473526Y-26928656D01*
X-15473526Y-26928656D01*
G37*
G36*
X-16887740Y-28342869D02*
X-17382715Y-28837844D01*
X-18372664Y-27847895D01*
X-17877689Y-27352920D01*
X-16887740Y-28342869D01*
X-16887740Y-28342869D01*
G37*
G36*
X-18301954Y-29757083D02*
X-18796929Y-30252058D01*
X-19786878Y-29262109D01*
X-19291903Y-28767134D01*
X-18301954Y-29757083D01*
X-18301954Y-29757083D01*
G37*
G36*
X29987818Y14815736D02*
X29634264Y14462182D01*
X29210000Y14886446D01*
X29563554Y15240000D01*
X29987818Y14815736D01*
X29987818Y14815736D01*
G37*
G36*
X29210000Y15593554D02*
X28856446Y15240000D01*
X28432182Y15664264D01*
X28785736Y16017818D01*
X29210000Y15593554D01*
X29210000Y15593554D01*
G37*
G36*
X-14462182Y-29634264D02*
X-14815736Y-29987818D01*
X-15240000Y-29563554D01*
X-14886446Y-29210000D01*
X-14462182Y-29634264D01*
X-14462182Y-29634264D01*
G37*
G36*
X-15240000Y-28856446D02*
X-15593554Y-29210000D01*
X-16017818Y-28785736D01*
X-15664264Y-28432182D01*
X-15240000Y-28856446D01*
X-15240000Y-28856446D01*
G37*
D23*
X6985000Y-8070000D03*
X6985000Y-7170000D03*
D10*
G36*
X-13976513Y-27522249D02*
X-13552249Y-27946513D01*
X-13835091Y-28229355D01*
X-14259355Y-27805091D01*
X-13976513Y-27522249D01*
X-13976513Y-27522249D01*
G37*
G36*
X-14612909Y-28158645D02*
X-14188645Y-28582909D01*
X-14471487Y-28865751D01*
X-14895751Y-28441487D01*
X-14612909Y-28158645D01*
X-14612909Y-28158645D01*
G37*
G36*
X-24377487Y-12101751D02*
X-24801751Y-11677487D01*
X-24518909Y-11394645D01*
X-24094645Y-11818909D01*
X-24377487Y-12101751D01*
X-24377487Y-12101751D01*
G37*
G36*
X-23741091Y-11465355D02*
X-24165355Y-11041091D01*
X-23882513Y-10758249D01*
X-23458249Y-11182513D01*
X-23741091Y-11465355D01*
X-23741091Y-11465355D01*
G37*
G36*
X29628679Y16794239D02*
X30830761Y17996321D01*
X31467157Y17359925D01*
X30265075Y16157843D01*
X29628679Y16794239D01*
X29628679Y16794239D01*
G37*
G36*
X32032843Y14390075D02*
X33234925Y15592157D01*
X33871321Y14955761D01*
X32669239Y13753679D01*
X32032843Y14390075D01*
X32032843Y14390075D01*
G37*
G36*
X-13753679Y-32669239D02*
X-14955761Y-33871321D01*
X-15592157Y-33234925D01*
X-14390075Y-32032843D01*
X-13753679Y-32669239D01*
X-13753679Y-32669239D01*
G37*
G36*
X-16157843Y-30265075D02*
X-17359925Y-31467157D01*
X-17996321Y-30830761D01*
X-16794239Y-29628679D01*
X-16157843Y-30265075D01*
X-16157843Y-30265075D01*
G37*
D24*
X23700000Y14600000D03*
X23950000Y22550000D03*
X8900000Y10100000D03*
X16450000Y19300000D03*
X25450000Y13100000D03*
X19375000Y16425000D03*
X-10200000Y12950000D03*
X-9850000Y7450000D03*
X-16750000Y11400000D03*
X-4600000Y-7550000D03*
X-600000Y-9550000D03*
X3900000Y-9450000D03*
X11700000Y5500000D03*
X-11550000Y-5450000D03*
X7150000Y-5350000D03*
X-8850000Y-15750000D03*
X20500000Y3800000D03*
X-20500000Y-3800000D03*
X-3800000Y20500000D03*
X3850000Y-20500000D03*
X-17300000Y8800000D03*
X17300000Y-8800000D03*
X-2050000Y-21150000D03*
X-21100000Y2050000D03*
X-6100000Y16500000D03*
X-15750000Y-8850000D03*
X-13750000Y9200000D03*
X2100000Y21050000D03*
X9200000Y13750000D03*
X21050000Y-2100000D03*
X15500000Y8750000D03*
X9050000Y-15050000D03*
X13750000Y-9200000D03*
X-8700000Y-8700000D03*
X4050000Y-2150000D03*
X-4700000Y-6700000D03*
X4700000Y-2750000D03*
X3400000Y-5200000D03*
X3950000Y-6100000D03*
X-9500000Y2450000D03*
X-9150000Y3950000D03*
X-8100000Y4800000D03*
X5700000Y23750000D03*
X6250000Y23150000D03*
X5950000Y3500000D03*
X9500000Y-2300000D03*
X7900000Y3650000D03*
X8450000Y2950000D03*
X9250000Y2450000D03*
X7900000Y-3550000D03*
X7900000Y-4850000D03*
X-3250000Y-9400000D03*
X-3250000Y-7500000D03*
X1050000Y21000000D03*
X21000000Y-1050000D03*
X-21050000Y1100000D03*
X-1100000Y-21050000D03*
X50000Y-5150000D03*
X5250000Y-50000D03*
X50000Y5250000D03*
X-5000000Y-500000D03*
X-11100000Y-7050000D03*
X-2950000Y-2550000D03*
X-10750000Y-19200000D03*
X20850000Y-10800000D03*
X10800000Y21800000D03*
X-20800000Y10750000D03*
X9350000Y20650000D03*
X-19850000Y-4500000D03*
X-23150000Y9650000D03*
X-24000000Y-9150000D03*
X-24000000Y-4100000D03*
X-10750000Y10650000D03*
X9700000Y23200000D03*
X-9150000Y24000000D03*
X-4150000Y24000000D03*
X-4500000Y19850000D03*
X24000000Y9150000D03*
X24000000Y4150000D03*
X19700000Y4650000D03*
X23150000Y-9600000D03*
X-9650000Y-23300000D03*
X9200000Y-24000000D03*
X4150000Y-24000000D03*
X4500000Y-19850000D03*
X8400000Y9450000D03*
X12350000Y16600000D03*
X-10950000Y7800000D03*
X-8250000Y-11000000D03*
X11350000Y6500000D03*
X2400000Y8900000D03*
X25450000Y13950000D03*
X19450000Y15450000D03*
X-1350000Y-24000000D03*
X-6050000Y-24000000D03*
X24000000Y-1450000D03*
X24000000Y-6100000D03*
X1150000Y24000000D03*
X7000000Y23550000D03*
X-24000000Y1500000D03*
X-24000000Y6000000D03*
X10650000Y-6350000D03*
X-11650000Y-6250000D03*
X-9600000Y-8200000D03*
X5850000Y-11150000D03*
X15050000Y20000000D03*
X-9550000Y12400000D03*
X-8800000Y8200000D03*
X5000000Y1500000D03*
X1350000Y4550000D03*
X-1500000Y5000000D03*
X-4950000Y-1450000D03*
X1450000Y-5250000D03*
X-3700000Y-3650000D03*
X-4500000Y-3500000D03*
X-5550000Y-3650000D03*
X-6350000Y-3850000D03*
X1800000Y9550000D03*
X-4150000Y4600000D03*
X-4150000Y5500000D03*
X-4150000Y6350000D03*
X-4400000Y7150000D03*
X3700000Y8600000D03*
X5000000Y8300000D03*
X-22900000Y-8050000D03*
X-22000000Y-8050000D03*
X-21350000Y-6750000D03*
X-21350000Y-7550000D03*
X-14150000Y-7700000D03*
X-13350000Y-7900000D03*
X-13200000Y-6600000D03*
X-12400000Y-6700000D03*
X2650000Y1150000D03*
X0Y0D03*
X-1900000Y-4700000D03*
X-5750000Y2100000D03*
X-11750000Y7400000D03*
X-12550000Y7300000D03*
X-13350000Y7150000D03*
X-14150000Y7000000D03*
X-23150000Y4900000D03*
X-22350000Y4850000D03*
X-21550000Y4700000D03*
X-20700000Y4700000D03*
X-27050000Y0D03*
X-20800000Y-400000D03*
X-8050000Y22900000D03*
X-8050000Y22000000D03*
X-6750000Y21350000D03*
X-7600000Y21300000D03*
X-8150000Y19950000D03*
X-8350000Y20750000D03*
X-9700000Y18250000D03*
X-9700000Y19150000D03*
X7450000Y11750000D03*
X7300000Y12550000D03*
X7150000Y13350000D03*
X7000000Y14150000D03*
X4850000Y23650000D03*
X4850000Y22750000D03*
X4700000Y21950000D03*
X4700000Y21050000D03*
X0Y27050000D03*
X-400000Y20700000D03*
X22900000Y8050000D03*
X22000000Y8050000D03*
X21350000Y6750000D03*
X21350000Y7550000D03*
X14150000Y7800000D03*
X13350000Y8000000D03*
X13200000Y6700000D03*
X12450000Y7150000D03*
X11750000Y-7450000D03*
X12550000Y-7300000D03*
X13350000Y-7150000D03*
X14150000Y-7000000D03*
X23350000Y-4900000D03*
X22450000Y-4900000D03*
X21650000Y-4700000D03*
X20700000Y-4700000D03*
X27050000Y0D03*
X20750000Y400000D03*
X8100000Y-22850000D03*
X8100000Y-21950000D03*
X6800000Y-21300000D03*
X7600000Y-21300000D03*
X7750000Y-14150000D03*
X7950000Y-13350000D03*
X6650000Y-13200000D03*
X6850000Y-12400000D03*
X-7450000Y-11750000D03*
X-7300000Y-12550000D03*
X-7150000Y-13350000D03*
X-7000000Y-14150000D03*
X-4900000Y-23250000D03*
X-4850000Y-22350000D03*
X-4700000Y-21550000D03*
X-4700000Y-20650000D03*
X0Y-27050000D03*
X400000Y-20800000D03*
X-20400000Y1600000D03*
X-12450000Y-7700000D03*
X-12450000Y9000000D03*
X-7500000Y14100000D03*
X1600000Y20400000D03*
X9050000Y12400000D03*
X-9100000Y-12450000D03*
X-14450000Y14450000D03*
X23750000Y500000D03*
X-500000Y23750000D03*
X-23850000Y-500000D03*
X450000Y-23950000D03*
X-13850000Y-13850000D03*
X-13100000Y-9200000D03*
X20400000Y-1600000D03*
X12500000Y8000000D03*
X12400000Y-9000000D03*
X-8500000Y-11900000D03*
X-1600000Y-20400000D03*
X7950000Y-12450000D03*
X-23500000Y17850000D03*
X-17050000Y-11350000D03*
X-11300000Y-17000000D03*
X-9200000Y-13950000D03*
X-23250000Y-23250000D03*
X-22300000Y-23200000D03*
X-18750000Y22050000D03*
X-17100000Y-20250000D03*
X-21800000Y-14000000D03*
X-18250000Y23150000D03*
X7050000Y5250000D03*
X16200000Y10350000D03*
X3950000Y4150000D03*
X3350000Y4750000D03*
X4700000Y5250000D03*
X5250000Y5900000D03*
X4750000Y6550000D03*
X15450000Y16000000D03*
X19100000Y12900000D03*
X14750000Y10750000D03*
X4600000Y3550000D03*
X-23100000Y-16850000D03*
X-24550000Y-23650000D03*
X-18450000Y25350000D03*
X-21250000Y16850000D03*
X-15250000Y-20250000D03*
X-23750000Y-17500000D03*
X7550000Y-10950000D03*
X-23100000Y-14650000D03*
X6650000Y-6450000D03*
X25950000Y15850000D03*
X7850000Y5400000D03*
X27850000Y0D03*
X0Y-27850000D03*
X-27850000Y0D03*
X0Y27850000D03*
D25*
X23700000Y22300000D02*
X23950000Y22550000D01*
X23700000Y14600000D02*
X23700000Y22300000D01*
X30547918Y17077082D02*
X29099745Y15628909D01*
X29099745Y15628909D02*
X28821091Y15628909D01*
X30547918Y17077082D02*
X30091091Y16620255D01*
X27050000Y19450000D02*
X28176396Y19450000D01*
X28176396Y19450000D02*
X29528198Y18098198D01*
X23950000Y22550000D02*
X27050000Y19450000D01*
X29528198Y18098198D02*
X29528198Y18096802D01*
X29528198Y18096802D02*
X30547918Y17077082D01*
X8900000Y10100000D02*
X9850000Y10100000D01*
X9850000Y10100000D02*
X10150000Y10400000D01*
X15569639Y17492969D02*
X16450000Y18373330D01*
X16450000Y18373330D02*
X16450000Y19300000D01*
X16500000Y19250000D02*
X16450000Y19300000D01*
X16500000Y19250000D02*
X16450000Y19300000D01*
X-10200000Y11543503D02*
X-9980431Y11323934D01*
X-10200000Y12950000D02*
X-10200000Y11543503D01*
X-9980431Y11323934D02*
X-9346827Y10690330D01*
X-9346827Y10690330D02*
X-8740670Y10690330D01*
X-9850000Y7450000D02*
X-9850000Y8550000D01*
X-9850000Y8550000D02*
X-8740670Y9659330D01*
X-11323934Y9980431D02*
X-10043503Y8700000D01*
X-8740670Y9659330D02*
X-8740670Y10690330D01*
X-9850000Y7450000D02*
X-9850000Y8506497D01*
X-9850000Y8506497D02*
X-11323934Y9980431D01*
X-9850000Y8506497D02*
X-11323934Y9980431D01*
X-15330431Y9980431D02*
X-11323934Y9980431D01*
X-16750000Y11400000D02*
X-15330431Y9980431D01*
X-9727827Y11071330D02*
X-9980431Y11323934D01*
X-10043503Y8700000D02*
X-9700000Y8700000D01*
X-9700000Y8700000D02*
X-8740670Y9659330D01*
X11200000Y13123330D02*
X15569639Y17492969D01*
X11200000Y13123330D02*
X11200000Y11450000D01*
X11200000Y11450000D02*
X10150000Y10400000D01*
X-7000000Y-16950000D02*
X-8000000Y-16950000D01*
X-8000000Y-16950000D02*
X-8150000Y-16950000D01*
X-8000000Y-16950000D02*
X-8150000Y-16950000D01*
X-8150000Y-16950000D02*
X-8850000Y-16250000D01*
X-8850000Y-16250000D02*
X-8850000Y-15750000D01*
X-8000000Y-16950000D02*
X-8150000Y-16950000D01*
X-8150000Y-16950000D02*
X-8850000Y-16250000D01*
X-8850000Y-16250000D02*
X-8850000Y-15750000D01*
X20500000Y3800000D02*
X20600000Y3700000D01*
X-20500000Y-3800000D02*
X-20600000Y-3700000D01*
X-3800000Y20500000D02*
X-3700000Y20600000D01*
X19450000Y2750000D02*
X20000000Y2750000D01*
X20400000Y3500000D02*
X20600000Y3700000D01*
X20400000Y3150000D02*
X20400000Y3500000D01*
X20000000Y2750000D02*
X20400000Y3150000D01*
X-16950000Y8150000D02*
X-16500000Y8600000D01*
X16950000Y-8150000D02*
X16500000Y-8600000D01*
X3750000Y-20600000D02*
X3700000Y-20600000D01*
X3750000Y-20600000D02*
X3850000Y-20500000D01*
X-16950000Y8000000D02*
X-16950000Y8450000D01*
X-16950000Y8450000D02*
X-17300000Y8800000D01*
X16950000Y-8000000D02*
X16950000Y-8450000D01*
X16950000Y-8450000D02*
X17300000Y-8800000D01*
X-2750000Y19450000D02*
X-2750000Y20000000D01*
X-2750000Y20000000D02*
X-3150000Y20400000D01*
X-3150000Y20400000D02*
X-3500000Y20400000D01*
X-3500000Y20400000D02*
X-3700000Y20600000D01*
X-3700000Y21400000D02*
X-3100000Y22000000D01*
X-3700000Y20600000D02*
X-3700000Y21400000D01*
X-3100000Y22000000D02*
X-3050000Y22000000D01*
X21400000Y3700000D02*
X22000000Y3100000D01*
X20600000Y3700000D02*
X21400000Y3700000D01*
X22000000Y3100000D02*
X22000000Y3050000D01*
X-19450000Y-2750000D02*
X-20000000Y-2750000D01*
X-20000000Y-2750000D02*
X-20400000Y-3150000D01*
X-20400000Y-3150000D02*
X-20400000Y-3500000D01*
X-20400000Y-3500000D02*
X-20600000Y-3700000D01*
X-21400000Y-3700000D02*
X-22000000Y-3100000D01*
X-20600000Y-3700000D02*
X-21400000Y-3700000D01*
X-22000000Y-3100000D02*
X-22000000Y-3050000D01*
X2750000Y-19450000D02*
X2750000Y-20000000D01*
X2750000Y-20000000D02*
X3150000Y-20400000D01*
X3150000Y-20400000D02*
X3500000Y-20400000D01*
X3500000Y-20400000D02*
X3700000Y-20600000D01*
X3700000Y-21400000D02*
X3100000Y-22000000D01*
X3700000Y-20600000D02*
X3700000Y-21400000D01*
X3100000Y-22000000D02*
X3050000Y-22000000D01*
X3050000Y-22000000D02*
X3050000Y-23000000D01*
X16950000Y-8000000D02*
X17000000Y-8000000D01*
X-16250000Y4450000D02*
X-16250000Y5650000D01*
X8000000Y-16950000D02*
X8150000Y-16950000D01*
X16950000Y-8000000D02*
X16950000Y-8150000D01*
X8000000Y16950000D02*
X8150000Y16950000D01*
X-16950000Y8000000D02*
X-16950000Y8150000D01*
X-16950000Y7000000D02*
X-16950000Y8000000D01*
X-16950000Y6350000D02*
X-16950000Y7000000D01*
X-16250000Y5650000D02*
X-16950000Y6350000D01*
X-4450000Y-16250000D02*
X-5650000Y-16250000D01*
X-6350000Y-16950000D02*
X-7000000Y-16950000D01*
X-5650000Y-16250000D02*
X-6350000Y-16950000D01*
X7000000Y-16950000D02*
X8000000Y-16950000D01*
X4450000Y-16250000D02*
X5600000Y-16250000D01*
X6350000Y-17000000D02*
X6750000Y-17000000D01*
X5600000Y-16250000D02*
X6350000Y-17000000D01*
X6750000Y-17000000D02*
X7000000Y-16950000D01*
X16950000Y-7000000D02*
X16950000Y-8000000D01*
X16250000Y-4450000D02*
X16250000Y-5650000D01*
X16950000Y-6350000D02*
X16950000Y-7000000D01*
X16250000Y-5650000D02*
X16950000Y-6350000D01*
X7000000Y16950000D02*
X8000000Y16950000D01*
X4450000Y16250000D02*
X5600000Y16250000D01*
X6300000Y16950000D02*
X7000000Y16950000D01*
X5600000Y16250000D02*
X6300000Y16950000D01*
X23000000Y3050000D02*
X23000000Y3000000D01*
X3050000Y-23000000D02*
X3000000Y-23000000D01*
X-23000000Y-3050000D02*
X-23000000Y-3000000D01*
X-3050000Y23000000D02*
X-3000000Y23000000D01*
X-23000000Y-3050000D02*
X-23000000Y-3035000D01*
X-22000000Y-3050000D02*
X-23000000Y-3050000D01*
X22000000Y3050000D02*
X23000000Y3050000D01*
X-3050000Y22000000D02*
X-3050000Y23000000D01*
X-2250000Y-20950000D02*
X-2050000Y-21150000D01*
X-2250000Y-20950000D02*
X-2250000Y-20650000D01*
X-2250000Y-20100000D02*
X-2250000Y-20650000D01*
X-2250000Y-19450000D02*
X-2250000Y-20100000D01*
X-2250000Y-20650000D02*
X-2250000Y-20800000D01*
X-2250000Y-20800000D02*
X-1050000Y-22000000D01*
X-1050000Y-22000000D02*
X-950000Y-22000000D01*
X750000Y-19450000D02*
X750000Y-20250000D01*
X700000Y-21400000D02*
X600000Y-21400000D01*
X1150000Y-20950000D02*
X700000Y-21400000D01*
X1150000Y-20650000D02*
X1150000Y-20950000D01*
X750000Y-20250000D02*
X1150000Y-20650000D01*
X375000Y-21625000D02*
X600000Y-21400000D01*
X375000Y-21625000D02*
X0Y-22000000D01*
X-1050000Y-22000000D02*
X-950000Y-22000000D01*
X-950000Y-22000000D02*
X-1050000Y-22000000D01*
X-950000Y-22000000D02*
X-1000000Y-22000000D01*
X0Y-22000000D02*
X-50000Y-22000000D01*
X-50000Y-23000000D02*
X-950000Y-23000000D01*
X-950000Y-22000000D02*
X-950000Y-23000000D01*
X-50000Y-22000000D02*
X-50000Y-23000000D01*
X0Y-23050000D02*
X-50000Y-23000000D01*
X-20900000Y2250000D02*
X-21100000Y2050000D01*
X-20900000Y2250000D02*
X-19450000Y2250000D01*
X-22000000Y950000D02*
X-22000000Y1050000D01*
X-22000000Y1050000D02*
X-20800000Y2250000D01*
X-20800000Y2250000D02*
X-19450000Y2250000D01*
X-6100000Y16750000D02*
X-6300000Y16950000D01*
X-6100000Y16750000D02*
X-6100000Y16500000D01*
X-16250000Y-8850000D02*
X-15750000Y-8850000D01*
X-16950000Y-8150000D02*
X-16250000Y-8850000D01*
X-16500000Y8600000D02*
X-14350000Y8600000D01*
X-14350000Y8600000D02*
X-13750000Y9200000D01*
X-20250000Y-750000D02*
X-20550000Y-1050000D01*
X-21050000Y-1050000D02*
X-22000000Y-100000D01*
X-20550000Y-1050000D02*
X-21050000Y-1050000D01*
X-22000000Y-100000D02*
X-22000000Y50000D01*
X-19450000Y-750000D02*
X-20250000Y-750000D01*
X-22000000Y0D02*
X-22000000Y50000D01*
X-16950000Y-8000000D02*
X-16950000Y-8150000D01*
X-16950000Y-7000000D02*
X-16950000Y-8000000D01*
X-16250000Y-4450000D02*
X-16250000Y-5600000D01*
X-16950000Y-6300000D02*
X-16950000Y-7000000D01*
X-16250000Y-5600000D02*
X-16950000Y-6300000D01*
X-7000000Y16950000D02*
X-8000000Y16950000D01*
X-6300000Y16950000D02*
X-7000000Y16950000D01*
X-23000000Y50000D02*
X-23000000Y950000D01*
X-22000000Y950000D02*
X-23000000Y950000D01*
X-22000000Y50000D02*
X-23000000Y50000D01*
X-4450000Y16250000D02*
X-5600000Y16250000D01*
X-5600000Y16250000D02*
X-6300000Y16950000D01*
X950000Y22000000D02*
X1900000Y21050000D01*
X1900000Y21050000D02*
X2100000Y21050000D01*
X2250000Y20900000D02*
X2100000Y21050000D01*
X2250000Y20900000D02*
X2250000Y19450000D01*
X-750000Y20150000D02*
X-1050000Y20450000D01*
X-1050000Y20950000D02*
X-600000Y21400000D01*
X-1050000Y20450000D02*
X-1050000Y20950000D01*
X-750000Y19450000D02*
X-750000Y20150000D01*
X-600000Y21400000D02*
X0Y22000000D01*
X0Y22000000D02*
X50000Y22000000D01*
X1000000Y22000000D02*
X950000Y22000000D01*
X8150000Y16950000D02*
X8600000Y16500000D01*
X8600000Y16500000D02*
X8600000Y14350000D01*
X8600000Y14350000D02*
X9200000Y13750000D01*
X950000Y23000000D02*
X50000Y23000000D01*
X950000Y22000000D02*
X950000Y23000000D01*
X50000Y22000000D02*
X50000Y23000000D01*
X0Y21950000D02*
X50000Y22000000D01*
X20900000Y-2250000D02*
X21050000Y-2100000D01*
X20900000Y-2250000D02*
X19450000Y-2250000D01*
X22000000Y-950000D02*
X20700000Y-2250000D01*
X20700000Y-2250000D02*
X19450000Y-2250000D01*
X16350000Y8750000D02*
X15500000Y8750000D01*
X16350000Y8750000D02*
X16950000Y8150000D01*
X8600000Y-15500000D02*
X9050000Y-15050000D01*
X8600000Y-15500000D02*
X8600000Y-16500000D01*
X16500000Y-8600000D02*
X14350000Y-8600000D01*
X14350000Y-8600000D02*
X13750000Y-9200000D01*
X19450000Y750000D02*
X20150000Y750000D01*
X20150000Y750000D02*
X20450000Y1050000D01*
X21050000Y1050000D02*
X21400000Y700000D01*
X20450000Y1050000D02*
X21050000Y1050000D01*
X21400000Y700000D02*
X21400000Y650000D01*
X16950000Y8000000D02*
X16950000Y8150000D01*
X21400000Y650000D02*
X21400000Y650000D01*
X21400000Y650000D02*
X21550000Y500000D01*
X21550000Y500000D02*
X22000000Y50000D01*
X22000000Y-1000000D02*
X22000000Y-950000D01*
X22000000Y50000D02*
X22000000Y-50000D01*
X8150000Y-16950000D02*
X8600000Y-16500000D01*
X8150000Y-16950000D02*
X8600000Y-16500000D01*
X16950000Y7000000D02*
X16950000Y8000000D01*
X16250000Y4450000D02*
X16250000Y5600000D01*
X16950000Y6300000D02*
X16950000Y7000000D01*
X16250000Y5600000D02*
X16950000Y6300000D01*
X23000000Y-50000D02*
X23000000Y-950000D01*
X22000000Y-950000D02*
X23000000Y-950000D01*
X22000000Y-50000D02*
X23000000Y-50000D01*
X23050000Y-1000000D02*
X23000000Y-950000D01*
X-7440431Y-8783934D02*
X-8616066Y-8783934D01*
X-8616066Y-8783934D02*
X-8700000Y-8700000D01*
X-8783934Y-7440431D02*
X-7739091Y-7440431D01*
X-7739091Y-7440431D02*
X-7388330Y-7089670D01*
X-7440431Y-8783934D02*
X-7440431Y-7141771D01*
X-8783934Y-7440431D02*
X-8700000Y-7524365D01*
X-8700000Y-7524365D02*
X-8700000Y-8700000D01*
X4050000Y-4100000D02*
X4600000Y-4650000D01*
X4050000Y-2150000D02*
X4050000Y-4100000D01*
X4600000Y-5600000D02*
X4600000Y-4650000D01*
X3975000Y-7875000D02*
X4600000Y-7250000D01*
X2750000Y-10550000D02*
X2750000Y-10000000D01*
X3600000Y-8250000D02*
X3975000Y-7875000D01*
X2750000Y-10000000D02*
X2750000Y-9600000D01*
X2750000Y-9100000D02*
X3600000Y-8250000D01*
X2750000Y-9600000D02*
X2750000Y-9100000D01*
X4600000Y-7250000D02*
X4600000Y-5600000D01*
X-5700000Y-9950000D02*
X-5700000Y-8950000D01*
X-5200000Y-7200000D02*
X-4700000Y-6700000D01*
X-5200000Y-8450000D02*
X-5200000Y-7200000D01*
X-5700000Y-8950000D02*
X-5200000Y-8450000D01*
X-5000000Y-12750000D02*
X-5200000Y-12750000D01*
X-5700000Y-12250000D02*
X-5700000Y-9950000D01*
X-5200000Y-12750000D02*
X-5700000Y-12250000D01*
X-4450000Y-12750000D02*
X-5000000Y-12750000D01*
X4700000Y-4050000D02*
X5050000Y-4400000D01*
X4700000Y-2750000D02*
X4700000Y-4050000D01*
X5050000Y-5350000D02*
X5050000Y-4400000D01*
X4450000Y-8050000D02*
X5050000Y-7450000D01*
X5050000Y-7450000D02*
X5050000Y-6550000D01*
X5050000Y-6550000D02*
X5050000Y-5350000D01*
X3250000Y-10550000D02*
X3250000Y-9250000D01*
X3250000Y-9250000D02*
X4450000Y-8050000D01*
X1750000Y-10550000D02*
X1750000Y-8800000D01*
X3300000Y-5300000D02*
X3400000Y-5200000D01*
X3300000Y-7250000D02*
X3300000Y-5300000D01*
X1750000Y-8800000D02*
X3300000Y-7250000D01*
X3950000Y-6600000D02*
X3950000Y-6100000D01*
X3550000Y-7650000D02*
X3950000Y-7250000D01*
X3950000Y-7250000D02*
X3950000Y-6600000D01*
X3450000Y-7750000D02*
X3550000Y-7650000D01*
X2250000Y-9300000D02*
X2250000Y-8950000D01*
X2250000Y-8950000D02*
X3450000Y-7750000D01*
X2250000Y-9550000D02*
X2250000Y-9300000D01*
X2250000Y-10550000D02*
X2250000Y-9550000D01*
X-9800000Y2750000D02*
X-10550000Y2750000D01*
X-9500000Y2450000D02*
X-9800000Y2750000D01*
X-9650000Y4450000D02*
X-9150000Y3950000D01*
X-11250000Y4450000D02*
X-9650000Y4450000D01*
X-11250000Y4450000D02*
X-11200000Y4400000D01*
X-11900000Y6400000D02*
X-9700000Y6400000D01*
X-9700000Y6400000D02*
X-8100000Y4800000D01*
X-12750000Y4450000D02*
X-12750000Y5550000D01*
X-12750000Y5550000D02*
X-11900000Y6400000D01*
X4650000Y24800000D02*
X4650000Y25900000D01*
X5150000Y27050000D02*
X6750000Y27050000D01*
X4650000Y26550000D02*
X5150000Y27050000D01*
X4650000Y26300000D02*
X4650000Y26550000D01*
X6750000Y27050000D02*
X11950000Y27050000D01*
X14697102Y28900000D02*
X15766051Y27831051D01*
X11950000Y27050000D02*
X13800000Y28900000D01*
X13800000Y28900000D02*
X14697102Y28900000D01*
X4650000Y25900000D02*
X4650000Y26300000D01*
X5700000Y23750000D02*
X4650000Y24800000D01*
X6350000Y23850000D02*
X6350000Y24000000D01*
X5300000Y25050000D02*
X5300000Y25800000D01*
X6350000Y24000000D02*
X5300000Y25050000D01*
X6350000Y23250000D02*
X6350000Y23850000D01*
X6250000Y23150000D02*
X6350000Y23250000D01*
X5300000Y26300000D02*
X5300000Y25800000D01*
X5300000Y26300000D02*
X5600000Y26600000D01*
X5600000Y26600000D02*
X13405000Y26600000D01*
X5300000Y26300000D02*
X5600000Y26600000D01*
X13405000Y26600000D02*
X13970000Y26035000D01*
X10550000Y3250000D02*
X10000000Y3250000D01*
X6600000Y4150000D02*
X5950000Y3500000D01*
X7500000Y4150000D02*
X6600000Y4150000D01*
X7650000Y4300000D02*
X7500000Y4150000D01*
X8950000Y4300000D02*
X7650000Y4300000D01*
X10000000Y3250000D02*
X8950000Y4300000D01*
X10550000Y-2750000D02*
X9950000Y-2750000D01*
X9950000Y-2750000D02*
X9500000Y-2300000D01*
X9950000Y-2750000D02*
X9500000Y-2300000D01*
X9475000Y3125000D02*
X8750000Y3850000D01*
X8100000Y3850000D02*
X7900000Y3650000D01*
X8750000Y3850000D02*
X8100000Y3850000D01*
X10550000Y2750000D02*
X9850000Y2750000D01*
X9850000Y2750000D02*
X9475000Y3125000D01*
X10550000Y1750000D02*
X9000000Y1750000D01*
X8450000Y2300000D02*
X8450000Y2950000D01*
X9000000Y1750000D02*
X8450000Y2300000D01*
X10550000Y2250000D02*
X9450000Y2250000D01*
X9450000Y2250000D02*
X9250000Y2450000D01*
X11250000Y-4450000D02*
X11050000Y-4250000D01*
X8150000Y-3550000D02*
X7900000Y-3550000D01*
X8850000Y-4250000D02*
X8150000Y-3550000D01*
X11050000Y-4250000D02*
X8850000Y-4250000D01*
X12750000Y-4450000D02*
X12750000Y-5200000D01*
X12250000Y-5700000D02*
X9700000Y-5700000D01*
X12750000Y-5200000D02*
X12250000Y-5700000D01*
X8700000Y-5400000D02*
X8150000Y-4850000D01*
X8150000Y-4850000D02*
X7900000Y-4850000D01*
X8825000Y-5525000D02*
X8700000Y-5400000D01*
X9700000Y-5700000D02*
X9000000Y-5700000D01*
X9000000Y-5700000D02*
X8825000Y-5525000D01*
X-2750000Y-10550000D02*
X-2750000Y-9900000D01*
X-2750000Y-9900000D02*
X-3250000Y-9400000D01*
X-4450000Y-11250000D02*
X-4450000Y-9050000D01*
X-3250000Y-7850000D02*
X-3250000Y-7500000D01*
X-4450000Y-9050000D02*
X-3250000Y-7850000D01*
X-3750000Y-10550000D02*
X-3900000Y-10400000D01*
X-3900000Y-10400000D02*
X-3900000Y-9150000D01*
X-1250000Y-6500000D02*
X-1250000Y-5000000D01*
X-3900000Y-9150000D02*
X-1250000Y-6500000D01*
X-1250000Y-5000000D02*
X-800000Y-4550000D01*
X0Y-4250000D02*
X0Y-1850000D01*
X-300000Y-4550000D02*
X0Y-4250000D01*
X0Y-1850000D02*
X-1350000Y-500000D01*
X-800000Y-4550000D02*
X-300000Y-4550000D01*
X-9850000Y3750000D02*
X-7500000Y1400000D01*
X-2900000Y1400000D02*
X-1350000Y2950000D01*
X-7500000Y1400000D02*
X-2900000Y1400000D01*
X-10550000Y3750000D02*
X-9950000Y3750000D01*
X-9950000Y3750000D02*
X-9850000Y3750000D01*
X-1350000Y-500000D02*
X-1350000Y2950000D01*
X200000Y1400000D02*
X-1350000Y2950000D01*
X3800000Y450000D02*
X1150000Y450000D01*
X1150000Y450000D02*
X200000Y1400000D01*
X5450000Y-1200000D02*
X3800000Y450000D01*
X7150000Y-2900000D02*
X5450000Y-1200000D01*
X1400000Y6050000D02*
X1400000Y5950000D01*
X3050000Y7700000D02*
X1400000Y6050000D01*
X1400000Y5950000D02*
X1400000Y5700000D01*
X1400000Y5700000D02*
X-1350000Y2950000D01*
X3375000Y9225000D02*
X3050000Y8900000D01*
X3050000Y8900000D02*
X3050000Y7700000D01*
X3750000Y10550000D02*
X3750000Y9600000D01*
X3750000Y9600000D02*
X3375000Y9225000D01*
X8500000Y-3250000D02*
X8150000Y-2900000D01*
X10550000Y-3750000D02*
X9550000Y-3750000D01*
X9000000Y-3750000D02*
X8500000Y-3250000D01*
X9550000Y-3750000D02*
X9000000Y-3750000D01*
X8150000Y-2900000D02*
X7150000Y-2900000D01*
X750000Y-10550000D02*
X750000Y-8000000D01*
X1450000Y-7300000D02*
X1450000Y-7000000D01*
X750000Y-8000000D02*
X1450000Y-7300000D01*
X1450000Y-7000000D02*
X1450000Y-6000000D01*
X750000Y20700000D02*
X1050000Y21000000D01*
X750000Y20350000D02*
X750000Y20700000D01*
X1250000Y19450000D02*
X1250000Y19850000D01*
X1250000Y19850000D02*
X750000Y20350000D01*
X750000Y19450000D02*
X750000Y20350000D01*
X19450000Y-1250000D02*
X19850000Y-1250000D01*
X19850000Y-1250000D02*
X20350000Y-750000D01*
X19450000Y-750000D02*
X20350000Y-750000D01*
X20350000Y-750000D02*
X20700000Y-750000D01*
X20700000Y-750000D02*
X21000000Y-1050000D01*
X-19450000Y1250000D02*
X-19850000Y1250000D01*
X-19850000Y1250000D02*
X-20350000Y750000D01*
X-19450000Y750000D02*
X-20350000Y750000D01*
X-20350000Y750000D02*
X-20700000Y750000D01*
X-20700000Y750000D02*
X-21050000Y1100000D01*
X-550000Y-5750000D02*
X50000Y-5150000D01*
X-550000Y-5750000D02*
X-550000Y-6000000D01*
X-1250000Y-19450000D02*
X-1250000Y-19850000D01*
X-1250000Y-19850000D02*
X-750000Y-20350000D01*
X-750000Y-20350000D02*
X-750000Y-20700000D01*
X-750000Y-20700000D02*
X-1100000Y-21050000D01*
X-750000Y-19450000D02*
X-750000Y-20700000D01*
X-750000Y-20700000D02*
X-1100000Y-21050000D01*
X5250000Y-50000D02*
X6000000Y-500000D01*
X50000Y5250000D02*
X550000Y6000000D01*
X250000Y-10550000D02*
X250000Y-7800000D01*
X250000Y-7800000D02*
X-550000Y-7000000D01*
X-5000000Y-500000D02*
X-6000000Y500000D01*
X-550000Y-6000000D02*
X-500000Y-6000000D01*
X-6000000Y550000D02*
X-6000000Y500000D01*
X550000Y6000000D02*
X500000Y6000000D01*
X6000000Y-550000D02*
X6000000Y-500000D01*
X-250000Y10550000D02*
X-250000Y7800000D01*
X-250000Y7800000D02*
X550000Y7000000D01*
X-10550000Y-250000D02*
X-7800000Y-250000D01*
X-7800000Y-250000D02*
X-7000000Y550000D01*
X250000Y-7800000D02*
X-550000Y-7000000D01*
X10550000Y250000D02*
X7800000Y250000D01*
X7800000Y250000D02*
X7000000Y-550000D01*
X7000000Y-550000D02*
X6000000Y-550000D01*
X-550000Y-7000000D02*
X-550000Y-6000000D01*
X-7000000Y550000D02*
X-6000000Y550000D01*
X550000Y7000000D02*
X550000Y6000000D01*
X-10000000Y-6050000D02*
X-11000000Y-7050000D01*
X-11000000Y-7050000D02*
X-11100000Y-7050000D01*
X-1750000Y-2550000D02*
X-2950000Y-2550000D01*
X-2950000Y-4850000D02*
X-2600000Y-4500000D01*
X-2600000Y-2900000D02*
X-2950000Y-2550000D01*
X-2600000Y-4500000D02*
X-2600000Y-2900000D01*
X-10000000Y-6050000D02*
X-4150000Y-6050000D01*
X-4150000Y-6050000D02*
X-2950000Y-4850000D01*
X-1350000Y-2950000D02*
X-1750000Y-2550000D01*
X-1350000Y-3250000D02*
X-1350000Y-2950000D01*
X-2750000Y-19450000D02*
X-2750000Y-20700000D01*
X-2750000Y-20700000D02*
X-3000000Y-20950000D01*
X-8000000Y-18050000D02*
X-9600000Y-18050000D01*
X-9600000Y-18050000D02*
X-10750000Y-19200000D01*
X18050000Y-8000000D02*
X20850000Y-10800000D01*
X8000000Y18050000D02*
X8000000Y19000000D01*
X8000000Y19000000D02*
X10800000Y21800000D01*
X-18050000Y8000000D02*
X-20800000Y10750000D01*
X-10650000Y10650000D02*
X-10750000Y10650000D01*
X-10650000Y10650000D02*
X-10275000Y10275000D01*
X14014004Y19048604D02*
X12700000Y17734600D01*
X12700000Y16950000D02*
X12350000Y16600000D01*
X12700000Y17734600D02*
X12700000Y16950000D01*
X25450000Y13950000D02*
X28697818Y13950000D01*
X28697818Y13950000D02*
X29598909Y14851091D01*
X25450000Y13950000D02*
X32229164Y13950000D01*
X32229164Y13950000D02*
X32952082Y14672918D01*
X10769091Y-6469091D02*
X10650000Y-6350000D01*
X10769091Y-6469091D02*
X11437909Y-6469091D01*
X-12207817Y12207817D02*
X-13058670Y13058670D01*
X-13058670Y13058670D02*
X-13058670Y13230330D01*
X-12931670Y12976330D02*
X-12931670Y12931670D01*
X-12931670Y12931670D02*
X-12207817Y12207817D01*
X-12207817Y12207817D02*
X-12946091Y12946091D01*
X-12946091Y12946091D02*
X-13088909Y12946091D01*
X-9913909Y9913909D02*
X-10275000Y10275000D01*
X-10275000Y10275000D02*
X-10850000Y10850000D01*
X-10850000Y10850000D02*
X-12207817Y12207817D01*
X-9913909Y9913909D02*
X-9913909Y9771091D01*
X-12207817Y12207817D02*
X-11935000Y11935000D01*
X-9350000Y-8450000D02*
X-9350000Y-9350000D01*
X-9350000Y-8450000D02*
X-9600000Y-8200000D01*
X-10690330Y-10518670D02*
X-10518670Y-10518670D01*
X-10518670Y-10518670D02*
X-9667817Y-9667817D01*
X-10690330Y-10518670D02*
X-10690330Y-11153670D01*
X-10690330Y-11153670D02*
X-11198330Y-11661670D01*
X-9839477Y-9667817D02*
X-9667817Y-9667817D01*
X-11676091Y-11183909D02*
X-11010852Y-10518670D01*
X-11010852Y-10518670D02*
X-10690330Y-10518670D01*
X-9667817Y-9667817D02*
X-9350000Y-9350000D01*
X-9667817Y-9667817D02*
X-9400000Y-9400000D01*
X-9350000Y-9350000D02*
X-8200000Y-9350000D01*
X-8200000Y-9350000D02*
X-7750000Y-9800000D01*
X-7750000Y-9800000D02*
X-7450000Y-9800000D01*
X-6327670Y-8677670D02*
X-6327670Y-8150330D01*
X32495255Y14216091D02*
X32952082Y14672918D01*
X-9667817Y-9667817D02*
X-9712477Y-9667817D01*
X1250000Y-10550000D02*
X1250000Y-8300000D01*
X1250000Y-8300000D02*
X2550000Y-7000000D01*
X1250000Y-10550000D02*
X1250000Y-11912500D01*
X1250000Y-11912500D02*
X918750Y-12243750D01*
X918750Y-12243750D02*
X918750Y-14081250D01*
X918750Y-12243750D02*
X2756250Y-12243750D01*
X2756250Y-12243750D02*
X2756250Y-14081250D01*
X918750Y-15918750D02*
X918750Y-14081250D01*
X918750Y-14081250D02*
X-918750Y-12243750D01*
X-918750Y-12243750D02*
X-918750Y-14081250D01*
X-918750Y-14081250D02*
X-918750Y-15918750D01*
X1250000Y-11912500D02*
X918750Y-12243750D01*
X-19450000Y250000D02*
X-18425000Y250000D01*
X10550000Y-3250000D02*
X11750000Y-3250000D01*
X11750000Y-3250000D02*
X12243750Y-2756250D01*
X14081250Y-2756250D02*
X12243750Y-2756250D01*
X11750000Y-3250000D02*
X12243750Y-2756250D01*
X7800000Y4750000D02*
X7450000Y4750000D01*
X6150000Y4600000D02*
X5850000Y4300000D01*
X7300000Y4600000D02*
X6150000Y4600000D01*
X7450000Y4750000D02*
X7300000Y4600000D01*
X10550000Y3750000D02*
X9550000Y4750000D01*
X9550000Y4750000D02*
X8800000Y4750000D01*
X8800000Y4750000D02*
X7800000Y4750000D01*
X5850000Y4300000D02*
X5250000Y3700000D01*
X250000Y18425000D02*
X918750Y17756250D01*
X250000Y19450000D02*
X250000Y18425000D01*
X250000Y18425000D02*
X918750Y17756250D01*
X-7450000Y-9800000D02*
X-6327670Y-8677670D01*
X250000Y18425000D02*
X918750Y17756250D01*
X5961091Y-12072909D02*
X5961091Y-11261091D01*
X5961091Y-11261091D02*
X5850000Y-11150000D01*
X19450000Y-250000D02*
X18425000Y-250000D01*
X18425000Y-250000D02*
X17756250Y-918750D01*
X14965400Y20000000D02*
X14014004Y19048604D01*
X15050000Y20000000D02*
X14965400Y20000000D01*
X5911091Y-11988909D02*
X5911091Y-11961091D01*
X-250000Y-19450000D02*
X-250000Y-18425000D01*
X-250000Y-18425000D02*
X-918750Y-17756250D01*
X3050000Y-21000000D02*
X3000000Y-21000000D01*
X3000000Y-21000000D02*
X2000000Y-22000000D01*
X2000000Y-22000000D02*
X1950000Y-22000000D01*
X2450000Y-20400000D02*
X2300000Y-20400000D01*
X1750000Y-19950000D02*
X2200000Y-20400000D01*
X2200000Y-20400000D02*
X2300000Y-20400000D01*
X2250000Y-19450000D02*
X2250000Y-20200000D01*
X2250000Y-20200000D02*
X2450000Y-20400000D01*
X2450000Y-20400000D02*
X3050000Y-21000000D01*
X-918750Y-15918750D02*
X-918750Y-17756250D01*
X-918750Y-17756250D02*
X-2756250Y-17756250D01*
X-7000000Y-16050000D02*
X-8000000Y-16050000D01*
X-4450000Y-15750000D02*
X-6700000Y-15750000D01*
X-6700000Y-15750000D02*
X-7000000Y-16050000D01*
X-4450000Y-15750000D02*
X-2925000Y-15750000D01*
X-1750000Y-18587500D02*
X-918750Y-17756250D01*
X-250000Y-18425000D02*
X-918750Y-17756250D01*
X-1750000Y-19450000D02*
X-1750000Y-18587500D01*
X1950000Y-22000000D02*
X1950000Y-23000000D01*
X1950000Y-22000000D02*
X1950000Y-22100000D01*
X1950000Y-22100000D02*
X1050000Y-23000000D01*
X1950000Y-22000000D02*
X1050000Y-22000000D01*
X2050000Y-21900000D02*
X1950000Y-22000000D01*
X-21000000Y-3050000D02*
X-21000000Y-3000000D01*
X-21000000Y-3000000D02*
X-22000000Y-2000000D01*
X-22000000Y-2000000D02*
X-22000000Y-1950000D01*
X-20400000Y-2200000D02*
X-20400000Y-2450000D01*
X-19450000Y-2250000D02*
X-20200000Y-2250000D01*
X-20200000Y-2250000D02*
X-20400000Y-2450000D01*
X-20400000Y-2450000D02*
X-21000000Y-3050000D01*
X-16050000Y7000000D02*
X-16050000Y8000000D01*
X-15750000Y4450000D02*
X-15750000Y6700000D01*
X-15750000Y6700000D02*
X-16050000Y7000000D01*
X-18050000Y7000000D02*
X-18050000Y8000000D01*
X-18050000Y6800000D02*
X-18050000Y7000000D01*
X-19450000Y-2250000D02*
X-18262500Y-2250000D01*
X-22000000Y-1950000D02*
X-23000000Y-1950000D01*
X-22100000Y-1950000D02*
X-23000000Y-1050000D01*
X-22000000Y-1950000D02*
X-22000000Y-1050000D01*
X-22000000Y-1950000D02*
X-22100000Y-1950000D01*
X-21900000Y-2050000D02*
X-22000000Y-1950000D01*
X-1750000Y19850000D02*
X-2050000Y20150000D01*
X-2050000Y20150000D02*
X-2250000Y20150000D01*
X-3050000Y21000000D02*
X-3000000Y21000000D01*
X-3000000Y21000000D02*
X-2000000Y22000000D01*
X-2000000Y22000000D02*
X-1950000Y22000000D01*
X-2250000Y19450000D02*
X-2250000Y20150000D01*
X-2250000Y20150000D02*
X-3050000Y20950000D01*
X-3050000Y20950000D02*
X-3050000Y21000000D01*
X918750Y15918750D02*
X918750Y17756250D01*
X4450000Y15750000D02*
X6700000Y15750000D01*
X6700000Y15750000D02*
X7000000Y16050000D01*
X7000000Y16050000D02*
X8000000Y16050000D01*
X-2250000Y19450000D02*
X-2250000Y18262500D01*
X1750000Y19450000D02*
X1750000Y18587500D01*
X1750000Y18587500D02*
X918750Y17756250D01*
X250000Y18425000D02*
X918750Y17756250D01*
X7000000Y18050000D02*
X8000000Y18050000D01*
X6750000Y18050000D02*
X7000000Y18050000D01*
X-1950000Y22000000D02*
X-1050000Y22000000D01*
X-1950000Y22000000D02*
X-1950000Y22100000D01*
X-1950000Y22100000D02*
X-1050000Y23000000D01*
X-1950000Y22000000D02*
X-1950000Y23000000D01*
X-2050000Y21900000D02*
X-1950000Y22000000D01*
X21000000Y3050000D02*
X21000000Y3000000D01*
X21000000Y3000000D02*
X22000000Y2000000D01*
X22000000Y2000000D02*
X22000000Y1950000D01*
X19850000Y1750000D02*
X20150000Y2050000D01*
X20150000Y2050000D02*
X20150000Y2250000D01*
X19450000Y2250000D02*
X20150000Y2250000D01*
X20150000Y2250000D02*
X20400000Y2500000D01*
X20400000Y2500000D02*
X20950000Y3050000D01*
X20950000Y3050000D02*
X21000000Y3050000D01*
X15918750Y-918750D02*
X17756250Y-918750D01*
X17756250Y-918750D02*
X17756250Y-2756250D01*
X16050000Y-7000000D02*
X16050000Y-8000000D01*
X15750000Y-4450000D02*
X15750000Y-6700000D01*
X15750000Y-6700000D02*
X16050000Y-7000000D01*
X15750000Y-4450000D02*
X15750000Y-2925000D01*
X19450000Y-1750000D02*
X18587500Y-1750000D01*
X18587500Y-1750000D02*
X17756250Y-918750D01*
X18425000Y-250000D02*
X17756250Y-918750D01*
X18050000Y-7000000D02*
X18050000Y-8000000D01*
X18050000Y-6800000D02*
X18050000Y-7000000D01*
X22000000Y1950000D02*
X22000000Y1050000D01*
X22000000Y1950000D02*
X22100000Y1950000D01*
X22100000Y1950000D02*
X23000000Y1050000D01*
X22000000Y1950000D02*
X23000000Y1950000D01*
X21900000Y2050000D02*
X22000000Y1950000D01*
X-3250000Y-10550000D02*
X-3250000Y-11750000D01*
X-3250000Y-11750000D02*
X-2756250Y-12243750D01*
X-2756250Y-14081250D02*
X-2756250Y-12243750D01*
X-3250000Y-11750000D02*
X-2756250Y-12243750D01*
X-7800000Y9200000D02*
X-8800000Y8200000D01*
X-9550000Y12400000D02*
X-9400000Y12400000D01*
X-9400000Y12400000D02*
X-7800000Y10800000D01*
X-7800000Y10800000D02*
X-7800000Y9200000D01*
X1750000Y-19950000D02*
X1750000Y-19450000D01*
X2756250Y-14081250D02*
X2756250Y-15918750D01*
X2756250Y-15918750D02*
X2756250Y-17756250D01*
X2756250Y-17756250D02*
X918750Y-17756250D01*
X7000000Y-16050000D02*
X8000000Y-16050000D01*
X4450000Y-15750000D02*
X6700000Y-15750000D01*
X6700000Y-15750000D02*
X7000000Y-16050000D01*
X1750000Y-19450000D02*
X1750000Y-18587500D01*
X1750000Y-18587500D02*
X918750Y-17756250D01*
X4450000Y-15750000D02*
X2925000Y-15750000D01*
X2925000Y-15750000D02*
X2756250Y-15918750D01*
X4450000Y-16750000D02*
X3587500Y-16750000D01*
X3587500Y-16750000D02*
X2756250Y-15918750D01*
X7000000Y-18050000D02*
X8000000Y-18050000D01*
X4450000Y-16750000D02*
X5450000Y-16750000D01*
X5450000Y-16750000D02*
X6750000Y-18050000D01*
X6750000Y-18050000D02*
X7000000Y-18050000D01*
X2250000Y-18262500D02*
X2756250Y-17756250D01*
X2250000Y-19450000D02*
X2250000Y-18262500D01*
X-3000000Y-22050000D02*
X-3000000Y-22950000D01*
X-3000000Y-22950000D02*
X-2950000Y-23000000D01*
X-3000000Y-22050000D02*
X-2050000Y-23000000D01*
X-3000000Y-22050000D02*
X-2100000Y-22050000D01*
X-2100000Y-22050000D02*
X-2050000Y-22000000D01*
X-3250000Y-19450000D02*
X-3250000Y-20150000D01*
X-3600000Y-21450000D02*
X-3000000Y-22050000D01*
X-3600000Y-20500000D02*
X-3600000Y-21450000D01*
X-3250000Y-20150000D02*
X-3600000Y-20500000D01*
X-2756250Y-17756250D02*
X-2756250Y-15918750D01*
X-2756250Y-15918750D02*
X-2756250Y-14081250D01*
X-3587500Y-16750000D02*
X-2756250Y-15918750D01*
X-2925000Y-15750000D02*
X-2756250Y-15918750D01*
X-7000000Y-18050000D02*
X-8000000Y-18050000D01*
X-4450000Y-16750000D02*
X-5500000Y-16750000D01*
X-5500000Y-16750000D02*
X-6800000Y-18050000D01*
X-6800000Y-18050000D02*
X-7000000Y-18050000D01*
X-4450000Y-16750000D02*
X-3587500Y-16750000D01*
X-18425000Y250000D02*
X-17756250Y918750D01*
X-14081250Y918750D02*
X-15918750Y918750D01*
X-19450000Y-1750000D02*
X-19950000Y-1750000D01*
X-19950000Y-1750000D02*
X-20400000Y-2200000D01*
X-14081250Y-2756250D02*
X-15918750Y-2756250D01*
X-15918750Y-2756250D02*
X-17756250Y-2756250D01*
X-17756250Y-2756250D02*
X-17756250Y-918750D01*
X-17756250Y-918750D02*
X-15918750Y-918750D01*
X-15918750Y-918750D02*
X-14081250Y-918750D01*
X-14081250Y-918750D02*
X-12243750Y918750D01*
X-12243750Y918750D02*
X-14081250Y918750D01*
X-15918750Y918750D02*
X-17756250Y918750D01*
X-17756250Y918750D02*
X-17756250Y2756250D01*
X-16050000Y-7000000D02*
X-16050000Y-8000000D01*
X-15750000Y-4450000D02*
X-15750000Y-6700000D01*
X-15750000Y-6700000D02*
X-16050000Y-7000000D01*
X-18587500Y-1750000D02*
X-17756250Y-918750D01*
X-15750000Y-4450000D02*
X-15750000Y-2925000D01*
X-15750000Y-2925000D02*
X-15918750Y-2756250D01*
X-16750000Y-3587500D02*
X-15918750Y-2756250D01*
X-18425000Y250000D02*
X-17756250Y918750D01*
X-18587500Y1750000D02*
X-17756250Y918750D01*
X-18050000Y-7000000D02*
X-18050000Y-8000000D01*
X-16750000Y-4450000D02*
X-16750000Y-5450000D01*
X-16750000Y-5450000D02*
X-18050000Y-6750000D01*
X-18050000Y-6750000D02*
X-18050000Y-7000000D01*
X-19450000Y1750000D02*
X-18587500Y1750000D01*
X-19450000Y-1750000D02*
X-18587500Y-1750000D01*
X-16750000Y-4450000D02*
X-16750000Y-3587500D01*
X-18262500Y-2250000D02*
X-17756250Y-2756250D01*
X-22050000Y3000000D02*
X-22950000Y3000000D01*
X-19450000Y3250000D02*
X-18250000Y3250000D01*
X-22050000Y3000000D02*
X-22050000Y2100000D01*
X-22050000Y2100000D02*
X-22000000Y2050000D01*
X-22050000Y3000000D02*
X-23000000Y2050000D01*
X-22950000Y3000000D02*
X-23000000Y2950000D01*
X-19450000Y3250000D02*
X-20150000Y3250000D01*
X-21450000Y3600000D02*
X-22050000Y3000000D01*
X-20500000Y3600000D02*
X-21450000Y3600000D01*
X-20150000Y3250000D02*
X-20500000Y3600000D01*
X-17756250Y2756250D02*
X-15918750Y2756250D01*
X-15918750Y2756250D02*
X-14081250Y2756250D01*
X-15750000Y4450000D02*
X-15750000Y2925000D01*
X-15750000Y2925000D02*
X-15918750Y2756250D01*
X-16750000Y3587500D02*
X-15918750Y2756250D01*
X-16750000Y4450000D02*
X-16750000Y5500000D01*
X-16750000Y5500000D02*
X-18050000Y6800000D01*
X-16750000Y4450000D02*
X-16750000Y3587500D01*
X-1750000Y19450000D02*
X-1750000Y19850000D01*
X-918750Y14081250D02*
X-2756250Y15918750D01*
X918750Y15918750D02*
X-918750Y14081250D01*
X918750Y15918750D02*
X-918750Y17756250D01*
X918750Y15918750D02*
X2756250Y17756250D01*
X918750Y14081250D02*
X918750Y15918750D01*
X918750Y14081250D02*
X2756250Y14081250D01*
X-7000000Y16050000D02*
X-8000000Y16050000D01*
X-4450000Y15750000D02*
X-6700000Y15750000D01*
X-6700000Y15750000D02*
X-7000000Y16050000D01*
X-4450000Y15750000D02*
X-2925000Y15750000D01*
X-2925000Y15750000D02*
X-2756250Y15918750D01*
X-3587500Y16750000D02*
X-2756250Y15918750D01*
X-1750000Y18587500D02*
X-918750Y17756250D01*
X-7000000Y18050000D02*
X-8000000Y18050000D01*
X-4450000Y16750000D02*
X-5450000Y16750000D01*
X-5450000Y16750000D02*
X-6750000Y18050000D01*
X-6750000Y18050000D02*
X-7000000Y18050000D01*
X-4450000Y16750000D02*
X-3587500Y16750000D01*
X-1750000Y19450000D02*
X-1750000Y18587500D01*
X-918750Y15918750D02*
X-918750Y17756250D01*
X-918750Y15918750D02*
X-2756250Y17756250D01*
X918750Y15918750D02*
X-918750Y15918750D01*
X-2250000Y18262500D02*
X-2756250Y17756250D01*
X3250000Y19450000D02*
X3250000Y18250000D01*
X3250000Y19450000D02*
X3250000Y20150000D01*
X3600000Y21450000D02*
X3000000Y22050000D01*
X3600000Y20500000D02*
X3600000Y21450000D01*
X3250000Y20150000D02*
X3600000Y20500000D01*
X3000000Y22050000D02*
X3000000Y22950000D01*
X3000000Y22950000D02*
X2950000Y23000000D01*
X3000000Y22050000D02*
X2050000Y23000000D01*
X3000000Y22050000D02*
X2100000Y22050000D01*
X2100000Y22050000D02*
X2050000Y22000000D01*
X918750Y14081250D02*
X2756250Y15918750D01*
X4450000Y15750000D02*
X2925000Y15750000D01*
X2925000Y15750000D02*
X2756250Y15918750D01*
X4450000Y16750000D02*
X3587500Y16750000D01*
X3587500Y16750000D02*
X2756250Y15918750D01*
X4450000Y16750000D02*
X5450000Y16750000D01*
X5450000Y16750000D02*
X6750000Y18050000D01*
X19450000Y1750000D02*
X19850000Y1750000D01*
X14081250Y2756250D02*
X15918750Y2756250D01*
X15918750Y2756250D02*
X17756250Y2756250D01*
X17756250Y2756250D02*
X17756250Y918750D01*
X17756250Y918750D02*
X15918750Y918750D01*
X15918750Y918750D02*
X14081250Y918750D01*
X14081250Y918750D02*
X12243750Y-918750D01*
X12243750Y-918750D02*
X14081250Y-918750D01*
X14081250Y-918750D02*
X15918750Y-918750D01*
X16050000Y7000000D02*
X16050000Y8000000D01*
X15750000Y4450000D02*
X15750000Y6700000D01*
X15750000Y6700000D02*
X16050000Y7000000D01*
X16750000Y4450000D02*
X16750000Y3587500D01*
X16750000Y3587500D02*
X15918750Y2756250D01*
X15750000Y4450000D02*
X15750000Y2925000D01*
X15750000Y2925000D02*
X15918750Y2756250D01*
X19450000Y1750000D02*
X18587500Y1750000D01*
X18587500Y1750000D02*
X17756250Y918750D01*
X18050000Y7000000D02*
X18050000Y8000000D01*
X16750000Y4450000D02*
X16750000Y5450000D01*
X16750000Y5450000D02*
X18050000Y6750000D01*
X18050000Y6750000D02*
X18050000Y7000000D01*
X19450000Y2250000D02*
X18262500Y2250000D01*
X18262500Y2250000D02*
X17756250Y2756250D01*
X22050000Y-3000000D02*
X22950000Y-3000000D01*
X22950000Y-3000000D02*
X23000000Y-2950000D01*
X22050000Y-3000000D02*
X23000000Y-2050000D01*
X22050000Y-3000000D02*
X22050000Y-2100000D01*
X22050000Y-2100000D02*
X22000000Y-2050000D01*
X19450000Y-3250000D02*
X20150000Y-3250000D01*
X21450000Y-3600000D02*
X22050000Y-3000000D01*
X20500000Y-3600000D02*
X21450000Y-3600000D01*
X20150000Y-3250000D02*
X20500000Y-3600000D01*
X17756250Y-2756250D02*
X15918750Y-2756250D01*
X15918750Y-2756250D02*
X14081250Y-2756250D01*
X15750000Y-2925000D02*
X15918750Y-2756250D01*
X16750000Y-4450000D02*
X16750000Y-3587500D01*
X16750000Y-3587500D02*
X15918750Y-2756250D01*
X16750000Y-4450000D02*
X16750000Y-5500000D01*
X16750000Y-5500000D02*
X18050000Y-6800000D01*
X-18250000Y3250000D02*
X-17756250Y2756250D01*
X3250000Y18250000D02*
X2756250Y17756250D01*
X19450000Y-3250000D02*
X18250000Y-3250000D01*
X18250000Y-3250000D02*
X17756250Y-2756250D01*
X-3250000Y-18250000D02*
X-2756250Y-17756250D01*
X-3250000Y-19450000D02*
X-3250000Y-18250000D01*
X-1500000Y5000000D02*
X-2500000Y6000000D01*
X-1250000Y10550000D02*
X-1250000Y11912500D01*
X-1250000Y11912500D02*
X-918750Y12243750D01*
X-2550000Y5250000D02*
X-2550000Y6000000D01*
X-3850000Y3950000D02*
X-2550000Y5250000D01*
X-4400000Y3950000D02*
X-3850000Y3950000D01*
X-2550000Y6000000D02*
X-2500000Y6000000D01*
X-1250000Y10550000D02*
X-1250000Y8300000D01*
X-1250000Y8300000D02*
X-2550000Y7000000D01*
X-550000Y6000000D02*
X-550000Y7000000D01*
X-2550000Y6000000D02*
X-1950000Y5400000D01*
X-950000Y5400000D02*
X-550000Y5800000D01*
X-1950000Y5400000D02*
X-950000Y5400000D01*
X-550000Y5800000D02*
X-550000Y6000000D01*
X-2550000Y7000000D02*
X-2550000Y6000000D01*
X-918750Y12243750D02*
X918750Y14081250D01*
X-918750Y12243750D02*
X918750Y12243750D01*
X-918750Y12243750D02*
X-918750Y14081250D01*
X-918750Y12243750D02*
X-2756250Y14081250D01*
X-918750Y12243750D02*
X-2756250Y12243750D01*
X-1250000Y11912500D02*
X-918750Y12243750D01*
X-10550000Y-3750000D02*
X-9450000Y-3750000D01*
X-7400000Y-5000000D02*
X-7000000Y-5400000D01*
X-8200000Y-5000000D02*
X-7400000Y-5000000D01*
X-9450000Y-3750000D02*
X-8200000Y-5000000D01*
X-3900000Y-2550000D02*
X-6000000Y-2550000D01*
X-3050000Y-3400000D02*
X-3900000Y-2550000D01*
X-3050000Y-3900000D02*
X-3050000Y-3400000D01*
X-4550000Y-5400000D02*
X-3050000Y-3900000D01*
X-7000000Y-5400000D02*
X-4550000Y-5400000D01*
X-10550000Y-1250000D02*
X-11912500Y-1250000D01*
X-11912500Y-1250000D02*
X-12243750Y-918750D01*
X-6000000Y-2550000D02*
X-5400000Y-1950000D01*
X-6000000Y-2550000D02*
X-6000000Y-2500000D01*
X-10550000Y-1250000D02*
X-8300000Y-1250000D01*
X-8300000Y-1250000D02*
X-7000000Y-2550000D01*
X-7000000Y-2550000D02*
X-6000000Y-2550000D01*
X-12243750Y-918750D02*
X-12243750Y-2756250D01*
X-12243750Y-2756250D02*
X-14081250Y-2756250D01*
X-11912500Y-1250000D02*
X-12243750Y-918750D01*
X5000000Y1500000D02*
X6000000Y2500000D01*
X1350000Y4550000D02*
X1350000Y2950000D01*
X10550000Y1250000D02*
X11912500Y1250000D01*
X11912500Y1250000D02*
X12243750Y918750D01*
X5250000Y3300000D02*
X6000000Y2550000D01*
X5250000Y3700000D02*
X5250000Y3300000D01*
X1450000Y-5250000D02*
X1750000Y-5250000D01*
X1750000Y-5250000D02*
X2500000Y-6000000D01*
X1150000Y-5250000D02*
X1450000Y-5250000D01*
X550000Y-5850000D02*
X1150000Y-5250000D01*
X550000Y-6000000D02*
X550000Y-5850000D01*
X-4950000Y-1450000D02*
X-4950000Y-1500000D01*
X-4950000Y-1500000D02*
X-5400000Y-1950000D01*
X-5400000Y-1000000D02*
X-4950000Y-1450000D01*
X-5400000Y-1000000D02*
X-5850000Y-550000D01*
X6000000Y2550000D02*
X6000000Y2500000D01*
X10550000Y1250000D02*
X8300000Y1250000D01*
X8300000Y1250000D02*
X7000000Y2550000D01*
X6000000Y550000D02*
X7000000Y550000D01*
X6000000Y2550000D02*
X5400000Y1950000D01*
X5400000Y1000000D02*
X5850000Y550000D01*
X5400000Y1950000D02*
X5400000Y1000000D01*
X5850000Y550000D02*
X6000000Y550000D01*
X-5850000Y-550000D02*
X-6000000Y-550000D01*
X7000000Y2550000D02*
X6000000Y2550000D01*
X550000Y-6000000D02*
X550000Y-7000000D01*
X-7000000Y-550000D02*
X-6000000Y-550000D01*
X12243750Y918750D02*
X12243750Y2756250D01*
X12243750Y2756250D02*
X14081250Y2756250D01*
X11912500Y1250000D02*
X12243750Y918750D01*
X3750000Y-10550000D02*
X5500000Y-8800000D01*
X-10550000Y3250000D02*
X-11750000Y3250000D01*
X-11750000Y3250000D02*
X-12243750Y2756250D01*
X-14081250Y2756250D02*
X-12243750Y2756250D01*
X-11750000Y3250000D02*
X-12243750Y2756250D01*
X3250000Y10550000D02*
X3250000Y11750000D01*
X3250000Y11750000D02*
X2756250Y12243750D01*
X918750Y12243750D02*
X2756250Y12243750D01*
X3250000Y11750000D02*
X2756250Y12243750D01*
X-3750000Y10550000D02*
X-3750000Y10000000D01*
X-5950000Y5500000D02*
X-4400000Y3950000D01*
X-5950000Y7800000D02*
X-5950000Y5500000D01*
X-3750000Y10000000D02*
X-5950000Y7800000D01*
X2750000Y-2550000D02*
X2750000Y-5800000D01*
X3800000Y-1500000D02*
X2750000Y-2550000D01*
X4450000Y-1500000D02*
X3800000Y-1500000D01*
X5500000Y-2550000D02*
X4450000Y-1500000D01*
X5500000Y-8800000D02*
X5500000Y-2550000D01*
X2750000Y-5800000D02*
X2550000Y-6000000D01*
X2500000Y-6000000D02*
X2550000Y-6000000D01*
X2550000Y-6000000D02*
X2500000Y-6000000D01*
X2550000Y-7000000D02*
X2550000Y-6000000D01*
X1250000Y-19450000D02*
X1250000Y-20100000D01*
X1250000Y-20100000D02*
X1950000Y-20800000D01*
X1950000Y-20800000D02*
X1950000Y-21000000D01*
X-19450000Y3750000D02*
X-20000000Y3750000D01*
X-20300000Y4050000D02*
X-23000000Y4050000D01*
X-20000000Y3750000D02*
X-20300000Y4050000D01*
X-10550000Y-750000D02*
X-7950000Y-750000D01*
X-7950000Y-750000D02*
X-7250000Y-1450000D01*
X-7250000Y-1450000D02*
X-7000000Y-1450000D01*
X-7000000Y-1450000D02*
X-6000000Y-1450000D01*
X-19450000Y2750000D02*
X-20700000Y2750000D01*
X-20700000Y2750000D02*
X-20950000Y3000000D01*
X-19450000Y-1250000D02*
X-20100000Y-1250000D01*
X-20100000Y-1250000D02*
X-20800000Y-1950000D01*
X-20800000Y-1950000D02*
X-21000000Y-1950000D01*
X3750000Y19450000D02*
X3750000Y20000000D01*
X4050000Y20300000D02*
X4050000Y23000000D01*
X3750000Y20000000D02*
X4050000Y20300000D01*
X-750000Y10550000D02*
X-750000Y8000000D01*
X-1450000Y7300000D02*
X-1450000Y7000000D01*
X-750000Y8000000D02*
X-1450000Y7300000D01*
X-1450000Y7000000D02*
X-1450000Y6000000D01*
X-1250000Y7200000D02*
X-1450000Y7000000D01*
X2750000Y19450000D02*
X2750000Y20700000D01*
X2750000Y20700000D02*
X3000000Y20950000D01*
X-1250000Y19450000D02*
X-1250000Y20000000D01*
X-1950000Y20700000D02*
X-1950000Y21000000D01*
X-1250000Y20000000D02*
X-1950000Y20700000D01*
X19450000Y-3750000D02*
X20000000Y-3750000D01*
X20300000Y-4050000D02*
X23000000Y-4050000D01*
X20000000Y-3750000D02*
X20300000Y-4050000D01*
X10550000Y750000D02*
X8000000Y750000D01*
X7300000Y1450000D02*
X7000000Y1450000D01*
X8000000Y750000D02*
X7300000Y1450000D01*
X7000000Y1450000D02*
X6000000Y1450000D01*
X19450000Y-2750000D02*
X20700000Y-2750000D01*
X20700000Y-2750000D02*
X20950000Y-3000000D01*
X19450000Y1250000D02*
X20000000Y1250000D01*
X20700000Y1950000D02*
X21000000Y1950000D01*
X20000000Y1250000D02*
X20700000Y1950000D01*
X-3750000Y-19450000D02*
X-3750000Y-20000000D01*
X-4050000Y-20300000D02*
X-4050000Y-23000000D01*
X-3750000Y-20000000D02*
X-4050000Y-20300000D01*
X-9800000Y-3250000D02*
X-9300000Y-3250000D01*
X-6800000Y-4950000D02*
X-5000000Y-4950000D01*
X-7200000Y-4550000D02*
X-6800000Y-4950000D01*
X-8000000Y-4550000D02*
X-7200000Y-4550000D01*
X-9300000Y-3250000D02*
X-8000000Y-4550000D01*
X-5000000Y-4950000D02*
X-3700000Y-3650000D01*
X-10550000Y-3250000D02*
X-9800000Y-3250000D01*
X-9650000Y-2750000D02*
X-9150000Y-2750000D01*
X-6600000Y-4500000D02*
X-5500000Y-4500000D01*
X-7000000Y-4100000D02*
X-6600000Y-4500000D01*
X-7800000Y-4100000D02*
X-7000000Y-4100000D01*
X-9150000Y-2750000D02*
X-7800000Y-4100000D01*
X-5500000Y-4500000D02*
X-4500000Y-3500000D01*
X-10550000Y-2750000D02*
X-9650000Y-2750000D01*
X-7775000Y-2825000D02*
X-7400000Y-3200000D01*
X-6000000Y-3200000D02*
X-5550000Y-3650000D01*
X-7400000Y-3200000D02*
X-6000000Y-3200000D01*
X-7775000Y-2825000D02*
X-8850000Y-1750000D01*
X-10550000Y-1750000D02*
X-8850000Y-1750000D01*
X-9250000Y-2250000D02*
X-9000000Y-2250000D01*
X-7600000Y-3650000D02*
X-6550000Y-3650000D01*
X-9000000Y-2250000D02*
X-7600000Y-3650000D01*
X-6550000Y-3650000D02*
X-6350000Y-3850000D01*
X-10550000Y-2250000D02*
X-9250000Y-2250000D01*
X2750000Y10550000D02*
X2750000Y9950000D01*
X2350000Y9550000D02*
X1800000Y9550000D01*
X2750000Y9950000D02*
X2350000Y9550000D01*
X-4800000Y8300000D02*
X-5500000Y7600000D01*
X-5500000Y5950000D02*
X-4150000Y4600000D01*
X-5500000Y7600000D02*
X-5500000Y5950000D01*
X-3250000Y10550000D02*
X-3250000Y9850000D01*
X-3250000Y9850000D02*
X-4800000Y8300000D01*
X-4350000Y8100000D02*
X-5050000Y7400000D01*
X-4200000Y5500000D02*
X-4150000Y5500000D01*
X-5050000Y6350000D02*
X-4200000Y5500000D01*
X-5050000Y7400000D02*
X-5050000Y6350000D01*
X-2750000Y10550000D02*
X-2750000Y9700000D01*
X-2750000Y9700000D02*
X-4350000Y8100000D01*
X-3800000Y6850000D02*
X-4150000Y6500000D01*
X-4150000Y6500000D02*
X-4150000Y6350000D01*
X-3750000Y6900000D02*
X-3800000Y6850000D01*
X-1750000Y10550000D02*
X-1750000Y8900000D01*
X-1750000Y8900000D02*
X-3750000Y6900000D01*
X-3625000Y7925000D02*
X-4400000Y7150000D01*
X-2250000Y10550000D02*
X-2250000Y9300000D01*
X-2250000Y9300000D02*
X-3625000Y7925000D01*
X4250000Y9750000D02*
X4250000Y9200000D01*
X4250000Y9150000D02*
X3700000Y8600000D01*
X4250000Y9200000D02*
X4250000Y9150000D01*
X4450000Y11250000D02*
X4250000Y11050000D01*
X4250000Y11050000D02*
X4250000Y9750000D01*
X5700000Y9350000D02*
X5700000Y9000000D01*
X5700000Y9000000D02*
X5000000Y8300000D01*
X4450000Y12750000D02*
X5200000Y12750000D01*
X5700000Y12250000D02*
X5700000Y9350000D01*
X5200000Y12750000D02*
X5700000Y12250000D01*
X-18750000Y-4450000D02*
X-18750000Y-4700000D01*
X-18750000Y-4700000D02*
X-19700000Y-5650000D01*
X-19700000Y-5650000D02*
X-21850000Y-5650000D01*
X-21850000Y-5650000D02*
X-22900000Y-6700000D01*
X-22900000Y-6700000D02*
X-22900000Y-8050000D01*
X-21650000Y-6100000D02*
X-22000000Y-6450000D01*
X-19500000Y-6100000D02*
X-21650000Y-6100000D01*
X-18600000Y-5200000D02*
X-19500000Y-6100000D01*
X-18450000Y-5200000D02*
X-18600000Y-5200000D01*
X-18250000Y-5000000D02*
X-18450000Y-5200000D01*
X-18250000Y-4450000D02*
X-18250000Y-5000000D01*
X-22000000Y-6450000D02*
X-22000000Y-8050000D01*
X-17750000Y-4450000D02*
X-17750000Y-5150000D01*
X-17750000Y-5150000D02*
X-18250000Y-5650000D01*
X-18250000Y-5650000D02*
X-18400000Y-5650000D01*
X-18400000Y-5650000D02*
X-19500000Y-6750000D01*
X-19500000Y-6750000D02*
X-21350000Y-6750000D01*
X-18200000Y-6100000D02*
X-19650000Y-7550000D01*
X-19650000Y-7550000D02*
X-21350000Y-7550000D01*
X-17250000Y-4450000D02*
X-17250000Y-5300000D01*
X-17250000Y-5300000D02*
X-18050000Y-6100000D01*
X-18050000Y-6100000D02*
X-18200000Y-6100000D01*
X-14750000Y-4450000D02*
X-14750000Y-6150000D01*
X-14750000Y-6150000D02*
X-14300000Y-6600000D01*
X-14300000Y-6600000D02*
X-14300000Y-7550000D01*
X-14300000Y-7550000D02*
X-14150000Y-7700000D01*
X-13350000Y-7350000D02*
X-13350000Y-7900000D01*
X-13850000Y-6350000D02*
X-13850000Y-6850000D01*
X-13850000Y-6850000D02*
X-13350000Y-7350000D01*
X-14250000Y-4450000D02*
X-14250000Y-5950000D01*
X-14250000Y-5950000D02*
X-13850000Y-6350000D01*
X-13750000Y-4450000D02*
X-13750000Y-5750000D01*
X-13400000Y-6400000D02*
X-13200000Y-6600000D01*
X-13400000Y-6100000D02*
X-13400000Y-6400000D01*
X-13750000Y-5750000D02*
X-13400000Y-6100000D01*
X-12400000Y-6450000D02*
X-12400000Y-6700000D01*
X-13250000Y-5600000D02*
X-12400000Y-6450000D01*
X-13250000Y-4450000D02*
X-13250000Y-5600000D01*
X12250000Y-4450000D02*
X12250000Y-5050000D01*
X12050000Y-5250000D02*
X10400000Y-5250000D01*
X12250000Y-5050000D02*
X12050000Y-5250000D01*
X2700000Y6700000D02*
X2700000Y1200000D01*
X2700000Y1200000D02*
X2650000Y1150000D01*
X4350000Y8350000D02*
X2700000Y6700000D01*
X5250000Y9800000D02*
X5250000Y9500000D01*
X4350000Y8600000D02*
X4350000Y8350000D01*
X5250000Y9500000D02*
X4350000Y8600000D01*
X4450000Y12250000D02*
X5050000Y12250000D01*
X5250000Y12050000D02*
X5250000Y9800000D01*
X5050000Y12250000D02*
X5250000Y12050000D01*
X10400000Y-5250000D02*
X9800000Y-5250000D01*
X8625000Y-4675000D02*
X8150000Y-4200000D01*
X7650000Y-4200000D02*
X7000000Y-3550000D01*
X8150000Y-4200000D02*
X7650000Y-4200000D01*
X8875000Y-4925000D02*
X8625000Y-4675000D01*
X7000000Y-3550000D02*
X7000000Y-3400000D01*
X9800000Y-5250000D02*
X9200000Y-5250000D01*
X7000000Y-3400000D02*
X5250000Y-1650000D01*
X9200000Y-5250000D02*
X8875000Y-4925000D01*
X5250000Y-1650000D02*
X3600000Y0D01*
X3600000Y0D02*
X0Y0D01*
X-5050000Y-12250000D02*
X-5250000Y-12050000D01*
X-1900000Y-6450000D02*
X-1900000Y-4700000D01*
X-2300000Y-6850000D02*
X-1900000Y-6450000D01*
X-3550000Y-6850000D02*
X-2300000Y-6850000D01*
X-3950000Y-7250000D02*
X-3550000Y-6850000D01*
X-3950000Y-7850000D02*
X-3950000Y-7250000D01*
X-5250000Y-9150000D02*
X-3950000Y-7850000D01*
X-5250000Y-12050000D02*
X-5250000Y-9150000D01*
X-4450000Y-12250000D02*
X-5050000Y-12250000D01*
X-7700000Y3450000D02*
X-6350000Y2100000D01*
X-6350000Y2100000D02*
X-5750000Y2100000D01*
X-11750000Y4450000D02*
X-11750000Y5050000D01*
X-11750000Y5050000D02*
X-11400000Y5400000D01*
X-9650000Y5400000D02*
X-7700000Y3450000D01*
X-11400000Y5400000D02*
X-9650000Y5400000D01*
X-12000000Y5350000D02*
X-11750000Y5100000D01*
X-12250000Y5100000D02*
X-12000000Y5350000D01*
X-12250000Y4450000D02*
X-12250000Y5100000D01*
X-11750000Y5100000D02*
X-11750000Y4450000D01*
X-11900000Y7050000D02*
X-11750000Y7200000D01*
X-13250000Y5700000D02*
X-11900000Y7050000D01*
X-13250000Y4450000D02*
X-13250000Y5700000D01*
X-11750000Y7200000D02*
X-11750000Y7400000D01*
X-13750000Y4450000D02*
X-13750000Y5850000D01*
X-12550000Y7050000D02*
X-12550000Y7300000D01*
X-13750000Y5850000D02*
X-12550000Y7050000D01*
X-14250000Y4450000D02*
X-14250000Y6000000D01*
X-13350000Y6900000D02*
X-13350000Y7150000D01*
X-14250000Y6000000D02*
X-13350000Y6900000D01*
X-14750000Y4450000D02*
X-14750000Y6150000D01*
X-14750000Y6150000D02*
X-14150000Y6750000D01*
X-14150000Y6750000D02*
X-14150000Y7000000D01*
X-21800000Y6250000D02*
X-23150000Y4900000D01*
X-17250000Y4450000D02*
X-17250000Y5350000D01*
X-18150000Y6250000D02*
X-21800000Y6250000D01*
X-17250000Y5350000D02*
X-18150000Y6250000D01*
X-21400000Y5800000D02*
X-22350000Y4850000D01*
X-18400000Y5800000D02*
X-21400000Y5800000D01*
X-17750000Y4450000D02*
X-17750000Y5150000D01*
X-17750000Y5150000D02*
X-18400000Y5800000D01*
X-18250000Y5000000D02*
X-18600000Y5350000D01*
X-18600000Y5350000D02*
X-20900000Y5350000D01*
X-18250000Y4450000D02*
X-18250000Y5000000D01*
X-20900000Y5350000D02*
X-21550000Y4700000D01*
X-20300000Y4700000D02*
X-20700000Y4700000D01*
X-18750000Y4450000D02*
X-20050000Y4450000D01*
X-20050000Y4450000D02*
X-20300000Y4700000D01*
X-19450000Y-250000D02*
X-20650000Y-250000D01*
X-20650000Y-250000D02*
X-20800000Y-400000D01*
X-5050000Y18950000D02*
X-5050000Y19100000D01*
X-5500000Y19550000D02*
X-5500000Y21650000D01*
X-5050000Y19100000D02*
X-5500000Y19550000D01*
X-4450000Y18750000D02*
X-4850000Y18750000D01*
X-4850000Y18750000D02*
X-5050000Y18950000D01*
X-5500000Y21650000D02*
X-5650000Y21800000D01*
X-4450000Y18750000D02*
X-4700000Y18750000D01*
X-5650000Y21800000D02*
X-6750000Y22900000D01*
X-6750000Y22900000D02*
X-8050000Y22900000D01*
X-5500000Y18750000D02*
X-5500000Y18900000D01*
X-5950000Y19350000D02*
X-5950000Y21450000D01*
X-5500000Y18900000D02*
X-5950000Y19350000D01*
X-5000000Y18250000D02*
X-5500000Y18750000D01*
X-4450000Y18250000D02*
X-5000000Y18250000D01*
X-5000000Y18250000D02*
X-5500000Y18750000D01*
X-5950000Y21450000D02*
X-6100000Y21600000D01*
X-6100000Y21600000D02*
X-6500000Y22000000D01*
X-6500000Y22000000D02*
X-8050000Y22000000D01*
X-5950000Y18550000D02*
X-5950000Y18700000D01*
X-5950000Y18700000D02*
X-6400000Y19150000D01*
X-6400000Y19150000D02*
X-6400000Y21000000D01*
X-6400000Y21000000D02*
X-6750000Y21350000D01*
X-5150000Y17750000D02*
X-5950000Y18550000D01*
X-4450000Y17750000D02*
X-5150000Y17750000D01*
X-6400000Y18350000D02*
X-6400000Y18500000D01*
X-6400000Y18500000D02*
X-6850000Y18950000D01*
X-6850000Y18950000D02*
X-6850000Y20550000D01*
X-6850000Y20550000D02*
X-7600000Y21300000D01*
X-4450000Y17250000D02*
X-5300000Y17250000D01*
X-5300000Y17250000D02*
X-6400000Y18350000D01*
X-7750000Y13450000D02*
X-8600000Y14300000D01*
X-7250000Y13450000D02*
X-7750000Y13450000D01*
X-5950000Y14750000D02*
X-7250000Y13450000D01*
X-5150000Y14750000D02*
X-5950000Y14750000D01*
X-8600000Y14300000D02*
X-8600000Y14500000D01*
X-4450000Y14750000D02*
X-5150000Y14750000D01*
X-8600000Y19500000D02*
X-8150000Y19950000D01*
X-8600000Y18850000D02*
X-8600000Y19500000D01*
X-8600000Y17850000D02*
X-8600000Y18850000D01*
X-8600000Y14500000D02*
X-8600000Y17850000D01*
X-9050000Y14100000D02*
X-9050000Y14300000D01*
X-7950000Y13000000D02*
X-9050000Y14100000D01*
X-7050000Y13000000D02*
X-7950000Y13000000D01*
X-5800000Y14250000D02*
X-7050000Y13000000D01*
X-4450000Y14250000D02*
X-5800000Y14250000D01*
X-9050000Y20050000D02*
X-8350000Y20750000D01*
X-9050000Y14300000D02*
X-9050000Y20050000D01*
X-9500000Y13900000D02*
X-9500000Y14300000D01*
X-8150000Y12550000D02*
X-9500000Y13900000D01*
X-6850000Y12550000D02*
X-8150000Y12550000D01*
X-5650000Y13750000D02*
X-6850000Y12550000D01*
X-4450000Y13750000D02*
X-5650000Y13750000D01*
X-9500000Y14300000D02*
X-9500000Y18050000D01*
X-9500000Y18050000D02*
X-9700000Y18250000D01*
X-10350000Y14100000D02*
X-10350000Y14800000D01*
X-8350000Y12100000D02*
X-10350000Y14100000D01*
X-6650000Y12100000D02*
X-8350000Y12100000D01*
X-5500000Y13250000D02*
X-6650000Y12100000D01*
X-4450000Y13250000D02*
X-5500000Y13250000D01*
X-10350000Y14800000D02*
X-10350000Y18500000D01*
X-10350000Y18500000D02*
X-9700000Y19150000D01*
X5700000Y13250000D02*
X7200000Y11750000D01*
X7200000Y11750000D02*
X7450000Y11750000D01*
X4450000Y13250000D02*
X5700000Y13250000D01*
X5850000Y13750000D02*
X7050000Y12550000D01*
X7050000Y12550000D02*
X7300000Y12550000D01*
X4450000Y13750000D02*
X5850000Y13750000D01*
X6900000Y13350000D02*
X7150000Y13350000D01*
X6000000Y14250000D02*
X6900000Y13350000D01*
X4450000Y14250000D02*
X6000000Y14250000D01*
X4450000Y14750000D02*
X6150000Y14750000D01*
X6150000Y14750000D02*
X6750000Y14150000D01*
X6750000Y14150000D02*
X7000000Y14150000D01*
X4450000Y17250000D02*
X5300000Y17250000D01*
X5300000Y17250000D02*
X6250000Y18200000D01*
X6250000Y18200000D02*
X6250000Y22250000D01*
X6250000Y22250000D02*
X4850000Y23650000D01*
X4850000Y22700000D02*
X4850000Y22750000D01*
X5800000Y21750000D02*
X4850000Y22700000D01*
X5800000Y18400000D02*
X5800000Y21750000D01*
X4450000Y17750000D02*
X5150000Y17750000D01*
X5150000Y17750000D02*
X5800000Y18400000D01*
X5350000Y21300000D02*
X4700000Y21950000D01*
X5350000Y18600000D02*
X5350000Y21300000D01*
X5000000Y18250000D02*
X5350000Y18600000D01*
X4450000Y18250000D02*
X5000000Y18250000D01*
X4450000Y18750000D02*
X4450000Y20050000D01*
X4700000Y20300000D02*
X4700000Y21050000D01*
X4450000Y20050000D02*
X4700000Y20300000D01*
X-250000Y19450000D02*
X-250000Y20550000D01*
X-250000Y20550000D02*
X-400000Y20700000D01*
X18750000Y4450000D02*
X18750000Y4700000D01*
X18750000Y4700000D02*
X19700000Y5650000D01*
X19700000Y5650000D02*
X21800000Y5650000D01*
X21800000Y5650000D02*
X22900000Y6750000D01*
X22900000Y6750000D02*
X22900000Y8050000D01*
X19500000Y6100000D02*
X21600000Y6100000D01*
X22000000Y6500000D02*
X22000000Y8050000D01*
X21600000Y6100000D02*
X22000000Y6500000D01*
X18750000Y5500000D02*
X18900000Y5500000D01*
X18900000Y5500000D02*
X19500000Y6100000D01*
X18250000Y4450000D02*
X18250000Y5000000D01*
X18250000Y5000000D02*
X18750000Y5500000D01*
X17750000Y4450000D02*
X17750000Y5150000D01*
X17750000Y5150000D02*
X18550000Y5950000D01*
X18550000Y5950000D02*
X18700000Y5950000D01*
X18700000Y5950000D02*
X19500000Y6750000D01*
X19500000Y6750000D02*
X21350000Y6750000D01*
X18500000Y6400000D02*
X19650000Y7550000D01*
X19650000Y7550000D02*
X21350000Y7550000D01*
X17250000Y4450000D02*
X17250000Y5300000D01*
X18350000Y6400000D02*
X18500000Y6400000D01*
X17250000Y5300000D02*
X18350000Y6400000D01*
X14300000Y6600000D02*
X14300000Y7650000D01*
X14300000Y7650000D02*
X14150000Y7800000D01*
X14750000Y6150000D02*
X14300000Y6600000D01*
X14750000Y4450000D02*
X14750000Y6150000D01*
X13850000Y6950000D02*
X13350000Y7450000D01*
X13350000Y7450000D02*
X13350000Y8000000D01*
X13850000Y6400000D02*
X13850000Y6950000D01*
X14250000Y6000000D02*
X13850000Y6400000D01*
X14250000Y4450000D02*
X14250000Y6000000D01*
X13750000Y4450000D02*
X13750000Y5850000D01*
X13400000Y6500000D02*
X13200000Y6700000D01*
X13400000Y6200000D02*
X13400000Y6500000D01*
X13750000Y5850000D02*
X13400000Y6200000D01*
X12450000Y6500000D02*
X12450000Y7150000D01*
X13000000Y5950000D02*
X12450000Y6500000D01*
X13250000Y5700000D02*
X13000000Y5950000D01*
X13250000Y4450000D02*
X13250000Y5700000D01*
X13250000Y-4450000D02*
X13250000Y-5700000D01*
X11750000Y-7200000D02*
X11750000Y-7450000D01*
X13250000Y-5700000D02*
X11750000Y-7200000D01*
X13750000Y-4450000D02*
X13750000Y-5850000D01*
X12550000Y-7050000D02*
X12550000Y-7300000D01*
X13750000Y-5850000D02*
X12550000Y-7050000D01*
X14250000Y-4450000D02*
X14250000Y-6000000D01*
X13350000Y-6900000D02*
X13350000Y-7150000D01*
X14250000Y-6000000D02*
X13350000Y-6900000D01*
X14750000Y-6150000D02*
X14150000Y-6750000D01*
X14150000Y-6750000D02*
X14150000Y-7000000D01*
X14750000Y-4450000D02*
X14750000Y-6150000D01*
X17250000Y-4450000D02*
X17250000Y-5350000D01*
X17250000Y-5350000D02*
X18150000Y-6250000D01*
X18150000Y-6250000D02*
X22000000Y-6250000D01*
X22000000Y-6250000D02*
X23350000Y-4900000D01*
X21550000Y-5800000D02*
X22450000Y-4900000D01*
X18350000Y-5800000D02*
X21550000Y-5800000D01*
X17750000Y-4450000D02*
X17750000Y-5200000D01*
X17750000Y-5200000D02*
X18350000Y-5800000D01*
X21000000Y-5350000D02*
X21650000Y-4700000D01*
X18550000Y-5350000D02*
X21000000Y-5350000D01*
X18250000Y-5050000D02*
X18550000Y-5350000D01*
X18250000Y-4450000D02*
X18250000Y-5050000D01*
X20300000Y-4700000D02*
X20700000Y-4700000D01*
X20050000Y-4450000D02*
X20300000Y-4700000D01*
X18750000Y-4450000D02*
X20050000Y-4450000D01*
X19450000Y250000D02*
X20600000Y250000D01*
X20600000Y250000D02*
X20750000Y400000D01*
X4450000Y-18750000D02*
X5700000Y-20000000D01*
X6800000Y-22850000D02*
X8100000Y-22850000D01*
X5700000Y-21750000D02*
X6800000Y-22850000D01*
X5700000Y-20000000D02*
X5700000Y-21750000D01*
X4450000Y-18250000D02*
X5000000Y-18250000D01*
X5000000Y-18250000D02*
X5500000Y-18750000D01*
X5500000Y-18750000D02*
X5500000Y-18900000D01*
X5500000Y-18900000D02*
X6150000Y-19550000D01*
X6150000Y-19550000D02*
X6150000Y-21550000D01*
X6150000Y-21550000D02*
X6550000Y-21950000D01*
X6550000Y-21950000D02*
X8100000Y-21950000D01*
X6800000Y-19550000D02*
X6800000Y-21300000D01*
X5950000Y-18700000D02*
X6800000Y-19550000D01*
X4450000Y-17750000D02*
X5150000Y-17750000D01*
X5150000Y-17750000D02*
X5950000Y-18550000D01*
X5950000Y-18550000D02*
X5950000Y-18700000D01*
X6400000Y-18500000D02*
X7600000Y-19700000D01*
X7600000Y-19700000D02*
X7600000Y-21300000D01*
X4450000Y-17250000D02*
X5300000Y-17250000D01*
X6400000Y-18350000D02*
X6400000Y-18500000D01*
X5300000Y-17250000D02*
X6400000Y-18350000D01*
X4450000Y-14750000D02*
X6150000Y-14750000D01*
X6150000Y-14750000D02*
X6600000Y-14300000D01*
X6600000Y-14300000D02*
X7600000Y-14300000D01*
X7600000Y-14300000D02*
X7750000Y-14150000D01*
X6600000Y-14300000D02*
X7650000Y-14300000D01*
X4450000Y-14250000D02*
X6000000Y-14250000D01*
X6000000Y-14250000D02*
X6400000Y-13850000D01*
X6400000Y-13850000D02*
X6900000Y-13850000D01*
X6900000Y-13850000D02*
X7400000Y-13350000D01*
X7400000Y-13350000D02*
X7950000Y-13350000D01*
X4450000Y-13750000D02*
X5850000Y-13750000D01*
X6400000Y-13200000D02*
X6650000Y-13200000D01*
X5850000Y-13750000D02*
X6400000Y-13200000D01*
X6550000Y-12400000D02*
X6850000Y-12400000D01*
X5700000Y-13250000D02*
X6550000Y-12400000D01*
X4450000Y-13250000D02*
X5700000Y-13250000D01*
X-4450000Y-13250000D02*
X-5700000Y-13250000D01*
X-5700000Y-13250000D02*
X-7200000Y-11750000D01*
X-7200000Y-11750000D02*
X-7450000Y-11750000D01*
X-5850000Y-13750000D02*
X-7050000Y-12550000D01*
X-7050000Y-12550000D02*
X-7300000Y-12550000D01*
X-4450000Y-13750000D02*
X-5850000Y-13750000D01*
X-4450000Y-14250000D02*
X-6000000Y-14250000D01*
X-6900000Y-13350000D02*
X-7150000Y-13350000D01*
X-6000000Y-14250000D02*
X-6900000Y-13350000D01*
X-6150000Y-14750000D02*
X-6750000Y-14150000D01*
X-6750000Y-14150000D02*
X-7000000Y-14150000D01*
X-4450000Y-14750000D02*
X-6150000Y-14750000D01*
X-4450000Y-17250000D02*
X-5350000Y-17250000D01*
X-5350000Y-17250000D02*
X-6250000Y-18150000D01*
X-6250000Y-18150000D02*
X-6250000Y-21900000D01*
X-6250000Y-21900000D02*
X-4900000Y-23250000D01*
X-5800000Y-21400000D02*
X-4850000Y-22350000D01*
X-5800000Y-18350000D02*
X-5800000Y-21400000D01*
X-5200000Y-17750000D02*
X-5800000Y-18350000D01*
X-4450000Y-17750000D02*
X-5200000Y-17750000D01*
X-4450000Y-18250000D02*
X-5050000Y-18250000D01*
X-5350000Y-20900000D02*
X-4700000Y-21550000D01*
X-5350000Y-18550000D02*
X-5350000Y-20900000D01*
X-5050000Y-18250000D02*
X-5350000Y-18550000D01*
X-4700000Y-20300000D02*
X-4700000Y-20650000D01*
X-4450000Y-20050000D02*
X-4700000Y-20300000D01*
X-4450000Y-18750000D02*
X-4450000Y-20050000D01*
X250000Y-19450000D02*
X250000Y-20650000D01*
X250000Y-20650000D02*
X400000Y-20800000D01*
X-12450000Y-7700000D02*
X-12450000Y-7900000D01*
X-12450000Y-7900000D02*
X-13100000Y-8550000D01*
X-13100000Y-8550000D02*
X-14400000Y-8550000D01*
X-14400000Y-8550000D02*
X-14950000Y-8000000D01*
X-13350000Y8100000D02*
X-12450000Y9000000D01*
X-13350000Y8100000D02*
X-14850000Y8100000D01*
X-14950000Y-8000000D02*
X-14750000Y-8000000D01*
X-14950000Y8000000D02*
X-14850000Y8100000D01*
X-14950000Y7000000D02*
X-14950000Y8000000D01*
X-15250000Y4450000D02*
X-15250000Y6700000D01*
X-15250000Y6700000D02*
X-14950000Y7000000D01*
X-14950000Y-7000000D02*
X-14950000Y-8000000D01*
X-15250000Y-4450000D02*
X-15250000Y-6700000D01*
X-15250000Y-6700000D02*
X-14950000Y-7000000D01*
X-8000000Y14950000D02*
X-8000000Y14600000D01*
X-8000000Y14600000D02*
X-7500000Y14100000D01*
X8100000Y13350000D02*
X8100000Y14850000D01*
X8100000Y13350000D02*
X9050000Y12400000D01*
X-8000000Y14950000D02*
X-8000000Y14800000D01*
X8000000Y14950000D02*
X8100000Y14850000D01*
X-7000000Y14950000D02*
X-8000000Y14950000D01*
X-4450000Y15250000D02*
X-6700000Y15250000D01*
X-6700000Y15250000D02*
X-7000000Y14950000D01*
X7000000Y14950000D02*
X8000000Y14950000D01*
X4450000Y15250000D02*
X6700000Y15250000D01*
X6700000Y15250000D02*
X7000000Y14950000D01*
X-9865340Y-12450000D02*
X-10137670Y-12722330D01*
X-9100000Y-12450000D02*
X-9865340Y-12450000D01*
X-12879569Y11536066D02*
X-13513173Y12169670D01*
X-13513173Y12169670D02*
X-14119330Y12169670D01*
X-12879569Y11536066D02*
X-14450000Y13106497D01*
X-13106497Y14450000D02*
X-14450000Y14450000D01*
X-13106497Y14450000D02*
X-11536066Y12879569D01*
X-14450000Y13106497D02*
X-14450000Y14450000D01*
X-10974569Y-9631066D02*
X-10339569Y-8996066D01*
X-8996066Y-10339569D02*
X-9631066Y-10974569D01*
X-9631066Y-11678884D02*
X-9631066Y-10974569D01*
X-9631066Y-11678884D02*
X-10406091Y-12453909D01*
X-12884591Y-12884591D02*
X-13850000Y-13850000D01*
X-12884591Y-11880409D02*
X-12884591Y-10836773D01*
X-12884591Y-10836773D02*
X-12453909Y-10406091D01*
X-12453909Y-10406091D02*
X-11678884Y-9631066D01*
X-11678884Y-9631066D02*
X-10974569Y-9631066D01*
X-11880409Y-12884591D02*
X-12884591Y-11880409D01*
X-9375670Y-11452330D02*
X-10807931Y-12884591D01*
X-10807931Y-12884591D02*
X-11880409Y-12884591D01*
X-10836773Y-12884591D02*
X-10406091Y-12453909D01*
X-11880409Y-12884591D02*
X-10836773Y-12884591D01*
X-13723909Y-13723909D02*
X-13700000Y-13700000D01*
X-13723909Y-13723909D02*
X-13700000Y-13700000D01*
X-12884591Y-11880409D02*
X-12884591Y-12884591D01*
X-12884591Y-12884591D02*
X-13850000Y-13850000D01*
X-11880409Y-12884591D02*
X-12884591Y-12884591D01*
X-12453909Y-10406091D02*
X-11678884Y-9631066D01*
X-11678884Y-9631066D02*
X-10974569Y-9631066D01*
X-12884591Y-10836773D02*
X-12453909Y-10406091D01*
X-13100000Y-9760000D02*
X-12453909Y-10406091D01*
X-13100000Y-9200000D02*
X-13100000Y-9760000D01*
X12500000Y8000000D02*
X12500000Y8050000D01*
X12500000Y8050000D02*
X13100000Y8650000D01*
X13100000Y8650000D02*
X14300000Y8650000D01*
X14300000Y8650000D02*
X14950000Y8000000D01*
X13300000Y-8100000D02*
X12400000Y-9000000D01*
X13300000Y-8100000D02*
X14850000Y-8100000D01*
X14950000Y8000000D02*
X14900000Y8000000D01*
X14950000Y-8000000D02*
X14850000Y-8100000D01*
X14950000Y-7000000D02*
X14950000Y-8000000D01*
X15250000Y-4450000D02*
X15250000Y-6700000D01*
X15250000Y-6700000D02*
X14950000Y-7000000D01*
X14950000Y7000000D02*
X14950000Y8000000D01*
X15250000Y4450000D02*
X15250000Y6700000D01*
X15250000Y6700000D02*
X14950000Y7000000D01*
X-8100000Y-12850000D02*
X-8100000Y-12300000D01*
X-8100000Y-12850000D02*
X-8100000Y-14850000D01*
X-8100000Y-12300000D02*
X-8500000Y-11900000D01*
X7950000Y-12450000D02*
X8600000Y-13100000D01*
X8600000Y-13100000D02*
X8600000Y-14350000D01*
X8600000Y-14350000D02*
X8000000Y-14950000D01*
X-8100000Y-14850000D02*
X-8000000Y-14950000D01*
X8000000Y-14950000D02*
X8000000Y-14800000D01*
X-8000000Y-14950000D02*
X-8100000Y-14850000D01*
X-7000000Y-14950000D02*
X-8000000Y-14950000D01*
X-4450000Y-15250000D02*
X-6700000Y-15250000D01*
X-6700000Y-15250000D02*
X-7000000Y-14950000D01*
X7000000Y-14950000D02*
X8000000Y-14950000D01*
X4450000Y-15250000D02*
X6700000Y-15250000D01*
X6700000Y-15250000D02*
X7000000Y-14950000D01*
X-23500000Y17850000D02*
X-23500000Y17213446D01*
X-23500000Y17213446D02*
X-24024033Y16689413D01*
X-21750000Y26500000D02*
X-20650000Y26500000D01*
X-15250000Y21100000D02*
X-15250000Y17250000D01*
X-20650000Y26500000D02*
X-15250000Y21100000D01*
X-25290000Y21700000D02*
X-25290000Y23410000D01*
X-15250000Y17250000D02*
X-16919670Y15580330D01*
X-22200000Y26500000D02*
X-21750000Y26500000D01*
X-25290000Y23410000D02*
X-22200000Y26500000D01*
X-16919670Y15630330D02*
X-16919670Y15580330D01*
X-16919670Y15580330D02*
X-16461091Y15121751D01*
X-16461091Y15121751D02*
X-16461091Y14888909D01*
X-17920025Y16152258D02*
X-17348097Y15580330D01*
X-17348097Y15580330D02*
X-16919670Y15580330D01*
X-17566472Y16505812D02*
X-17920025Y16152259D01*
X-17920025Y16152259D02*
X-17920025Y16152258D01*
X-17050000Y-11350000D02*
X-15409591Y-9709591D01*
X-15409591Y-9709591D02*
X-15055409Y-9709591D01*
X-9709591Y-15055409D02*
X-9709591Y-15409591D01*
X-9709591Y-15409591D02*
X-11300000Y-17000000D01*
X-9709591Y-15055409D02*
X-9200000Y-14545818D01*
X-9200000Y-14545818D02*
X-9200000Y-13950000D01*
X-25579413Y15134033D02*
X-23934033Y15134033D01*
X-21500000Y15683553D02*
X-19970635Y17212918D01*
X-21500000Y15450000D02*
X-21500000Y15683553D01*
X-22750000Y14200000D02*
X-21500000Y15450000D01*
X-23000000Y14200000D02*
X-22750000Y14200000D01*
X-23934033Y15134033D02*
X-23000000Y14200000D01*
X-28050000Y14800000D02*
X-25913446Y14800000D01*
X-25913446Y14800000D02*
X-25579413Y15134033D01*
X-26850000Y-15100000D02*
X-27050000Y-15100000D01*
X-31550000Y-16050000D02*
X-33700000Y-13900000D01*
X-28000000Y-16050000D02*
X-31550000Y-16050000D01*
X-27050000Y-15100000D02*
X-28000000Y-16050000D01*
X-28453446Y14800000D02*
X-28050000Y14800000D01*
X-33025000Y14375000D02*
X-32600000Y14800000D01*
X-32600000Y14800000D02*
X-28453446Y14800000D01*
X-24800000Y-20950000D02*
X-25100000Y-20650000D01*
X-25100000Y-16850000D02*
X-26850000Y-15100000D01*
X-25100000Y-20650000D02*
X-25100000Y-16850000D01*
X-23250000Y-22500000D02*
X-24600000Y-21150000D01*
X-23250000Y-23250000D02*
X-23250000Y-22500000D01*
X-33700000Y13700000D02*
X-33025000Y14375000D01*
X-33700000Y-13900000D02*
X-33700000Y13700000D01*
X-24600000Y-21150000D02*
X-24800000Y-20950000D01*
X-24235967Y13790587D02*
X-24195380Y13750000D01*
X-24195380Y13750000D02*
X-22500000Y13750000D01*
X-21050000Y15426447D02*
X-19617082Y16859365D01*
X-21050000Y15200000D02*
X-21050000Y15426447D01*
X-22500000Y13750000D02*
X-21050000Y15200000D01*
X-26900000Y14350000D02*
X-26250000Y14350000D01*
X-25690587Y13790587D02*
X-24235967Y13790587D01*
X-26250000Y14350000D02*
X-25690587Y13790587D01*
X-26700000Y-14350000D02*
X-27000000Y-14350000D01*
X-31400000Y-15550000D02*
X-32325000Y-14625000D01*
X-32325000Y-14625000D02*
X-33250000Y-13700000D01*
X-28200000Y-15550000D02*
X-31400000Y-15550000D01*
X-27000000Y-14350000D02*
X-28200000Y-15550000D01*
X-32750000Y14000000D02*
X-32400000Y14350000D01*
X-32400000Y14350000D02*
X-26900000Y14350000D01*
X-24625000Y-20475000D02*
X-24625000Y-16425000D01*
X-24625000Y-16425000D02*
X-26700000Y-14350000D01*
X-33250000Y13500000D02*
X-32750000Y14000000D01*
X-33250000Y-13700000D02*
X-33250000Y13500000D01*
X-22300000Y-22800000D02*
X-24075000Y-21025000D01*
X-24075000Y-21025000D02*
X-24625000Y-20475000D01*
X-22300000Y-23200000D02*
X-22300000Y-22800000D01*
X-34600000Y14100000D02*
X-33000000Y15700000D01*
X-33000000Y15700000D02*
X-30100000Y15700000D01*
X-28095382Y-17630202D02*
X-31269798Y-17630202D01*
X-34600000Y-14300000D02*
X-34600000Y14100000D01*
X-31269798Y-17630202D02*
X-34600000Y-14300000D01*
X-28095382Y-17630202D02*
X-28225584Y-17500000D01*
X-30100000Y15700000D02*
X-26850000Y15700000D01*
X-24700000Y17850000D02*
X-24700000Y20400000D01*
X-26850000Y15700000D02*
X-24700000Y17850000D01*
X-24700000Y20400000D02*
X-23400000Y21700000D01*
X-23400000Y21700000D02*
X-21697898Y21700000D01*
X-19263528Y20324188D02*
X-20638289Y21698949D01*
X-20638289Y21698949D02*
X-21698949Y21698949D01*
X-22150000Y22150000D02*
X-21698949Y21698949D01*
X-17920025Y20677742D02*
X-18750000Y21507717D01*
X-18750000Y21507717D02*
X-18750000Y22050000D01*
X-10559134Y-21024315D02*
X-16325685Y-21024315D01*
X-16325685Y-21024315D02*
X-17100000Y-20250000D01*
X-28700000Y15250000D02*
X-26650000Y15250000D01*
X-24150000Y19247898D02*
X-23493949Y19903949D01*
X-24150000Y17750000D02*
X-24150000Y19247898D01*
X-26650000Y15250000D02*
X-24150000Y17750000D01*
X-29200000Y15250000D02*
X-28700000Y15250000D01*
X-23493949Y19706051D02*
X-23493949Y19903949D01*
X-34150000Y13900000D02*
X-32800000Y15250000D01*
X-32800000Y15250000D02*
X-29200000Y15250000D01*
X-19617082Y19970635D02*
X-20046447Y20400000D01*
X-21697102Y19902898D02*
X-23495000Y19902898D01*
X-21200000Y20400000D02*
X-21697102Y19902898D01*
X-20046447Y20400000D02*
X-21200000Y20400000D01*
X-29509596Y-19044416D02*
X-29855584Y-19044416D01*
X-29509596Y-19044416D02*
X-28044416Y-19044416D01*
X-34150000Y-14100000D02*
X-34150000Y13900000D01*
X-31700000Y-16550000D02*
X-34150000Y-14100000D01*
X-28200000Y-16550000D02*
X-31700000Y-16550000D01*
X-27000000Y-17750000D02*
X-28200000Y-16550000D01*
X-27000000Y-18000000D02*
X-27000000Y-17750000D01*
X-28044416Y-19044416D02*
X-27000000Y-18000000D01*
X-21024315Y-10559134D02*
X-21315181Y-10850000D01*
X-23550000Y-10850000D02*
X-23811802Y-11111802D01*
X-21315181Y-10850000D02*
X-23550000Y-10850000D01*
X-21024315Y-13224315D02*
X-21800000Y-14000000D01*
X-21024315Y-10559134D02*
X-21024315Y-13224315D01*
X-18909975Y20677742D02*
X-19400000Y21167767D01*
X-18250000Y23150000D02*
X-18550000Y23150000D01*
X-19400000Y21167767D02*
X-19400000Y22300000D01*
X-19400000Y22300000D02*
X-18550000Y23150000D01*
X7050000Y5500000D02*
X7525000Y5975000D01*
X7050000Y5250000D02*
X7050000Y5500000D01*
X9000000Y7450000D02*
X10100000Y7450000D01*
X7525000Y5975000D02*
X9000000Y7450000D01*
X15950000Y10100000D02*
X16200000Y10350000D01*
X10100000Y7450000D02*
X12750000Y10100000D01*
X12750000Y10100000D02*
X15950000Y10100000D01*
X12250000Y18500000D02*
X12250000Y17500000D01*
X13377608Y19967843D02*
X12250000Y18840235D01*
X12250000Y18840235D02*
X12250000Y18500000D01*
X12250000Y17500000D02*
X10300000Y15550000D01*
X10300000Y15550000D02*
X10300000Y12100000D01*
X9500000Y11300000D02*
X8550000Y11300000D01*
X8550000Y11300000D02*
X7300000Y10050000D01*
X10300000Y12100000D02*
X9500000Y11300000D01*
X7300000Y9050000D02*
X5450000Y7200000D01*
X5450000Y7200000D02*
X4500000Y7200000D01*
X4500000Y7200000D02*
X3800000Y6500000D01*
X7300000Y10050000D02*
X7300000Y9050000D01*
X3800000Y5250000D02*
X4000000Y5050000D01*
X4000000Y5050000D02*
X4000000Y4200000D01*
X4000000Y4200000D02*
X3950000Y4150000D01*
X3800000Y6500000D02*
X3800000Y5250000D01*
X9850000Y14000000D02*
X9850000Y15950000D01*
X9850000Y15950000D02*
X11600000Y17700000D01*
X11600000Y19100000D02*
X11600000Y17700000D01*
X12599790Y20745660D02*
X11900000Y20045870D01*
X11900000Y19400000D02*
X11600000Y19100000D01*
X11900000Y20045870D02*
X11900000Y19400000D01*
X9850000Y14000000D02*
X9850000Y12300000D01*
X9300000Y11750000D02*
X8350000Y11750000D01*
X8350000Y11750000D02*
X6850000Y10250000D01*
X9850000Y12300000D02*
X9300000Y11750000D01*
X6850000Y9250000D02*
X5250000Y7650000D01*
X5250000Y7650000D02*
X4300000Y7650000D01*
X4300000Y7650000D02*
X3150000Y6500000D01*
X6850000Y10250000D02*
X6850000Y9250000D01*
X3150000Y4950000D02*
X3350000Y4750000D01*
X3150000Y6500000D02*
X3150000Y4950000D01*
X5500000Y5250000D02*
X4700000Y5250000D01*
X8600000Y8350000D02*
X5500000Y5250000D01*
X9700000Y8350000D02*
X8600000Y8350000D01*
X17593574Y14850000D02*
X16200000Y14850000D01*
X16200000Y14850000D02*
X9700000Y8350000D01*
X18044512Y15300938D02*
X17593574Y14850000D01*
X8500000Y8800000D02*
X8350000Y8800000D01*
X5450000Y5900000D02*
X5250000Y5900000D01*
X8350000Y8800000D02*
X5450000Y5900000D01*
X16837940Y15650000D02*
X16350000Y15650000D01*
X16350000Y15650000D02*
X15950000Y15250000D01*
X17549538Y16361598D02*
X16837940Y15650000D01*
X9500000Y8800000D02*
X8500000Y8800000D01*
X15950000Y15250000D02*
X9500000Y8800000D01*
X6050000Y7150000D02*
X5450000Y6550000D01*
X5450000Y6550000D02*
X4750000Y6550000D01*
X7750000Y9850000D02*
X7750000Y8850000D01*
X7750000Y8850000D02*
X6050000Y7150000D01*
X10750000Y11900000D02*
X9700000Y10850000D01*
X8750000Y10850000D02*
X7750000Y9850000D01*
X9700000Y10850000D02*
X8750000Y10850000D01*
X13150000Y16628966D02*
X13150000Y15850000D01*
X13150000Y15850000D02*
X10750000Y13450000D01*
X10750000Y13450000D02*
X10750000Y11900000D01*
X14933242Y18412208D02*
X13150000Y16628966D01*
X15632304Y16000000D02*
X15450000Y16000000D01*
X16488877Y16856573D02*
X15632304Y16000000D01*
X17800000Y12900000D02*
X15650000Y10750000D01*
X19100000Y12900000D02*
X17800000Y12900000D01*
X14750000Y10750000D02*
X15650000Y10750000D01*
X21919457Y26954058D02*
X23250000Y25623515D01*
X23250000Y16100000D02*
X21250000Y14100000D01*
X23250000Y25623515D02*
X23250000Y16100000D01*
X20900000Y14100000D02*
X21250000Y14100000D01*
X17500000Y14100000D02*
X20900000Y14100000D01*
X10200000Y8200000D02*
X9900000Y7900000D01*
X17500000Y14100000D02*
X16100000Y14100000D01*
X16100000Y14100000D02*
X10200000Y8200000D01*
X9900000Y7900000D02*
X8800000Y7900000D01*
X5500000Y4600000D02*
X5150000Y4600000D01*
X8800000Y7900000D02*
X5500000Y4600000D01*
X4650000Y4100000D02*
X4650000Y3600000D01*
X4650000Y3600000D02*
X4600000Y3550000D01*
X5150000Y4600000D02*
X4650000Y4100000D01*
X-19719670Y15030330D02*
X-19261091Y14571751D01*
X-19261091Y14571751D02*
X-19261091Y14338909D01*
X-18909975Y16152258D02*
X-19719670Y15342563D01*
X-19719670Y15342563D02*
X-19719670Y15030330D01*
X-19610101Y-9144921D02*
X-19915180Y-9450000D01*
X-24550000Y-10950000D02*
X-24550000Y-11646396D01*
X-24000000Y-10400000D02*
X-24550000Y-10950000D01*
X-22350000Y-10400000D02*
X-24000000Y-10400000D01*
X-21400000Y-9450000D02*
X-22350000Y-10400000D01*
X-19915180Y-9450000D02*
X-21400000Y-9450000D01*
X-24550000Y-11646396D02*
X-24448198Y-11748198D01*
X-19610101Y-13360101D02*
X-19610101Y-9144921D01*
X-23100000Y-16850000D02*
X-19610101Y-13360101D01*
X-17077082Y-30547918D02*
X-17077082Y-30269264D01*
X-17077082Y-30269264D02*
X-15628909Y-28821091D01*
X-18750000Y-28450000D02*
X-17077082Y-30122918D01*
X-18750000Y-27000000D02*
X-18750000Y-28450000D01*
X-20750000Y-25000000D02*
X-18750000Y-27000000D01*
X-23200000Y-25000000D02*
X-20750000Y-25000000D01*
X-24550000Y-23650000D02*
X-23200000Y-25000000D01*
X-17077082Y-30122918D02*
X-17077082Y-30547918D01*
X-21545330Y16345330D02*
X-22417173Y15473487D01*
X-22417173Y15473487D02*
X-22808106Y15473487D01*
X-18450000Y25350000D02*
X-14800000Y21700000D01*
X-14800000Y21700000D02*
X-14800000Y15700000D01*
X-14800000Y15700000D02*
X-16388909Y14111091D01*
X-16388909Y14111091D02*
X-17238909Y14111091D01*
X-21545330Y16345330D02*
X-20324188Y17566472D01*
X-19334239Y18415000D02*
X-18415000Y17495761D01*
X-19334239Y18415000D02*
X-17495761Y18415000D01*
X-19334239Y18415000D02*
X-18415000Y19334239D01*
X-20038909Y13561091D02*
X-18938909Y13561091D01*
X-18938909Y13561091D02*
X-17980330Y14519670D01*
X-20780330Y13769670D02*
X-20780330Y13969670D01*
X-20780330Y13969670D02*
X-20371751Y13561091D01*
X-20371751Y13561091D02*
X-20038909Y13561091D01*
X-17980330Y14519670D02*
X-17571751Y14111091D01*
X-17571751Y14111091D02*
X-17238909Y14111091D01*
X-20324188Y17566472D02*
X-19475660Y18415000D01*
X-19475660Y18415000D02*
X-19334239Y18415000D01*
X-20324188Y17566472D02*
X-21040660Y16850000D01*
X-21040660Y16850000D02*
X-21250000Y16850000D01*
X-9144921Y-19610101D02*
X-10210101Y-19610101D01*
X-11650000Y-19900000D02*
X-11939899Y-19610101D01*
X-10500000Y-19900000D02*
X-11650000Y-19900000D01*
X-10210101Y-19610101D02*
X-10500000Y-19900000D01*
X-13550000Y-19610101D02*
X-14610101Y-19610101D01*
X-14610101Y-19610101D02*
X-15250000Y-20250000D01*
X-9144921Y-19610101D02*
X-9144921Y-21094921D01*
X-13905802Y-25855802D02*
X-13905802Y-27875802D01*
X-9144921Y-21094921D02*
X-13905802Y-25855802D01*
X-22438528Y-11973348D02*
X-22438528Y-15238528D01*
X-23750000Y-16550000D02*
X-23750000Y-17500000D01*
X-22438528Y-15238528D02*
X-23750000Y-16550000D01*
X-23750000Y-17500000D02*
X-20800000Y-17500000D01*
X-18689899Y-19610101D02*
X-15650000Y-19610101D01*
X-15650000Y-19610101D02*
X-13550000Y-19610101D01*
X-13550000Y-19610101D02*
X-11939899Y-19610101D01*
X-20800000Y-17500000D02*
X-18689899Y-19610101D01*
X8300000Y-11200000D02*
X7800000Y-11200000D01*
X7800000Y-11200000D02*
X7550000Y-10950000D01*
X12422742Y-10725685D02*
X8774315Y-10725685D01*
X8774315Y-10725685D02*
X8300000Y-11200000D01*
X10660091Y-7246909D02*
X10660091Y-7360091D01*
X10660091Y-7360091D02*
X11250000Y-7950000D01*
X11250000Y-7950000D02*
X11250000Y-9552943D01*
X11250000Y-9552943D02*
X12422742Y-10725685D01*
X7897258Y-9594315D02*
X7897258Y-8982258D01*
X7897258Y-8982258D02*
X6985000Y-8070000D01*
X6738909Y-11295091D02*
X6738909Y-10752664D01*
X6738909Y-10752664D02*
X7897258Y-9594315D01*
X-16215988Y-26681169D02*
X-14851091Y-28046066D01*
X-14851091Y-29598909D02*
X-14851091Y-28821091D01*
X-14851091Y-28821091D02*
X-14542198Y-28512198D01*
X-14851091Y-29598909D02*
X-14672918Y-29777082D01*
X-14672918Y-29777082D02*
X-14672918Y-32952082D01*
X-14851091Y-28046066D02*
X-14851091Y-29598909D01*
X-23852742Y-13387561D02*
X-23852742Y-13897258D01*
X-23852742Y-13897258D02*
X-23100000Y-14650000D01*
X-23737561Y-13387561D02*
X-23852742Y-13387561D01*
X6985000Y-7170000D02*
X6985000Y-6785000D01*
X6985000Y-6785000D02*
X6650000Y-6450000D01*
X21350000Y11950000D02*
X22050000Y11950000D01*
X22050000Y11950000D02*
X25950000Y15850000D01*
X20750000Y11950000D02*
X21350000Y11950000D01*
X9450000Y7000000D02*
X10000000Y7000000D01*
X7850000Y5400000D02*
X9450000Y7000000D01*
X10000000Y7000000D02*
X10300000Y7000000D01*
X10300000Y7000000D02*
X12950000Y9650000D01*
X12950000Y9650000D02*
X17250000Y9650000D01*
X17250000Y9650000D02*
X19550000Y11950000D01*
X19550000Y11950000D02*
X20750000Y11950000D01*
M02*
