M48
;DRILL file {KiCad 4.0.6-e0-6349~53~ubuntu14.04.1} date Wed Apr 12 14:04:24 2017
;FORMAT={-:-/ absolute / metric / decimal}
FMAT,2
METRIC,TZ
T1C0.400
T2C0.500
T3C0.550
T4C1.016
T5C2.200
%
G90
G05
M71
T1
X-27.85Y0.
X-27.55Y-20.35
X-24.25Y-22.45
X-24.Y6.
X-24.Y2.55
X-24.Y-4.1
X-24.Y-9.15
X-23.95Y-1.
X-23.8Y-0.1
X-23.75Y-17.5
X-23.5Y17.85
X-23.25Y-23.25
X-23.15Y9.65
X-23.15Y4.9
X-23.1Y-14.65
X-22.9Y-8.05
X-22.65Y-16.4
X-22.35Y4.85
X-22.3Y-23.2
X-22.Y-8.05
X-21.8Y-14.
X-21.55Y4.7
X-21.35Y-6.75
X-21.35Y-7.55
X-21.3Y-24.1
X-21.25Y16.85
X-21.15Y11.1
X-21.1Y2.05
X-21.05Y1.1
X-20.8Y-0.35
X-20.7Y4.7
X-20.5Y-3.8
X-20.4Y1.6
X-19.95Y-28.5
X-19.85Y-4.5
X-18.75Y22.05
X-18.45Y25.35
X-18.25Y23.15
X-17.05Y-11.35
X-16.95Y8.75
X-16.75Y11.75
X-16.6Y-20.5
X-16.25Y-5.95
X-16.05Y8.75
X-16.05Y-8.75
X-15.65Y-19.61
X-15.Y-13.6
X-14.45Y14.45
X-14.3Y-14.3
X-14.15Y7.
X-14.15Y-7.7
X-13.6Y-15.
X-13.35Y7.15
X-13.35Y-7.9
X-13.2Y-6.6
X-13.1Y-9.2
X-12.55Y7.3
X-12.45Y9.
X-12.45Y-7.7
X-12.4Y-6.7
X-12.1Y-18.7
X-11.75Y7.4
X-11.65Y-6.25
X-11.55Y-5.45
X-11.45Y-9.85
X-11.3Y-17.
X-11.1Y-7.05
X-10.95Y7.8
X-10.75Y10.65
X-10.4Y19.15
X-10.2Y12.95
X-9.85Y7.45
X-9.75Y18.65
X-9.65Y-23.3
X-9.6Y-8.2
X-9.55Y12.4
X-9.5Y2.45
X-9.2Y-13.8
X-9.15Y24.
X-9.15Y3.95
X-9.1Y-12.45
X-9.Y-16.05
X-8.8Y8.2
X-8.75Y16.05
X-8.75Y-18.05
X-8.6Y-16.95
X-8.5Y-11.9
X-8.35Y20.75
X-8.25Y-11.
X-8.15Y19.95
X-8.1Y4.8
X-8.05Y22.9
X-8.05Y22.
X-7.6Y21.3
X-7.5Y14.1
X-7.45Y-11.75
X-7.3Y-12.55
X-7.15Y-13.35
X-7.Y-14.15
X-6.75Y21.35
X-6.35Y-3.85
X-6.1Y16.5
X-6.05Y-24.
X-5.75Y2.1
X-5.55Y-3.65
X-5.4Y-7.1
X-5.Y-0.5
X-4.95Y-1.45
X-4.9Y-23.25
X-4.85Y-22.35
X-4.75Y-3.3
X-4.75Y-7.75
X-4.7Y-20.65
X-4.7Y-21.55
X-4.5Y19.85
X-4.4Y7.15
X-4.15Y24.
X-4.15Y6.35
X-4.15Y5.5
X-4.15Y4.6
X-4.Y-3.4
X-3.8Y20.5
X-3.25Y-7.5
X-3.25Y-9.4
X-3.05Y-2.15
X-2.05Y-21.15
X-1.9Y-24.65
X-1.6Y-20.4
X-1.5Y5.
X-1.35Y-4.7
X-1.1Y-21.05
X-1.Y23.95
X-0.6Y-9.55
X-0.4Y20.7
X-0.05Y23.8
X0.Y27.85
X0.Y0.
X0.05Y5.25
X0.05Y-5.15
X0.1Y-23.8
X0.35Y-20.8
X1.Y-23.95
X1.05Y21.
X1.35Y4.55
X1.45Y-5.25
X1.6Y20.4
X1.8Y9.55
X1.95Y24.6
X2.1Y21.05
X2.4Y8.9
X2.65Y1.15
X3.35Y4.75
X3.4Y-5.2
X3.7Y8.6
X3.85Y-20.5
X3.9Y-9.45
X3.95Y4.15
X3.95Y-6.1
X4.05Y-2.15
X4.15Y-24.
X4.5Y-19.85
X4.6Y3.55
X4.7Y21.95
X4.7Y21.05
X4.7Y5.25
X4.7Y-2.75
X4.75Y6.55
X4.85Y23.65
X4.85Y22.75
X5.Y8.3
X5.Y1.5
X5.25Y5.9
X5.25Y-0.05
X5.7Y23.75
X5.85Y-11.15
X5.95Y3.5
X6.25Y23.15
X6.65Y-13.2
X6.8Y-21.3
X6.85Y-12.4
X7.Y23.55
X7.Y14.15
X7.Y-4.
X7.03Y-5.97
X7.05Y5.25
X7.15Y13.35
X7.3Y12.55
X7.45Y11.75
X7.45Y-3.1
X7.6Y-21.3
X7.75Y-5.2
X7.75Y-14.15
X7.85Y5.4
X7.9Y3.65
X7.95Y-12.45
X7.95Y-13.35
X8.1Y-21.95
X8.1Y-22.85
X8.4Y9.45
X8.45Y2.95
X8.7Y-11.35
X8.75Y-4.3
X8.75Y-16.95
X8.8Y-16.05
X8.9Y16.95
X8.9Y16.05
X9.2Y13.15
X9.2Y-24.
X9.25Y2.45
X9.5Y-3.2
X9.7Y23.2
X9.75Y10.95
X10.Y-12.5
X10.65Y-6.35
X11.15Y22.15
X11.35Y6.5
X11.7Y5.5
X11.75Y-7.45
X12.4Y-9.
X12.45Y7.15
X12.5Y8.
X12.55Y-7.3
X13.2Y18.2
X13.2Y6.7
X13.35Y8.
X13.35Y-7.15
X14.15Y7.8
X14.15Y-7.
X14.75Y10.75
X15.45Y16.
X16.05Y8.9
X16.2Y10.35
X16.35Y6.05
X16.6Y-8.8
X16.9Y20.85
X17.4Y-8.8
X18.Y13.45
X19.7Y4.65
X20.4Y-1.6
X20.5Y3.8
X20.7Y-4.7
X20.75Y17.05
X20.75Y0.4
X21.Y-1.05
X21.05Y-2.1
X21.15Y-11.1
X21.35Y7.55
X21.35Y6.75
X21.65Y-4.7
X22.Y8.05
X22.45Y-4.9
X22.9Y8.05
X23.15Y-9.6
X23.35Y-4.9
X23.8Y0.1
X23.95Y22.55
X24.Y9.15
X24.Y4.15
X24.Y0.95
X24.Y-6.1
X24.65Y-1.85
X24.7Y17.1
X27.85Y0.
T4
X-31.115Y11.43
X-31.115Y8.89
X-31.115Y6.35
X-31.115Y3.81
X-31.115Y1.27
X-31.115Y-1.27
X-31.115Y-3.81
X-31.115Y-6.35
X-31.115Y-8.89
X-31.115Y-11.43
X-28.575Y11.43
X-28.575Y8.89
X-28.575Y6.35
X-28.575Y3.81
X-28.575Y1.27
X-28.575Y-1.27
X-28.575Y-3.81
X-28.575Y-6.35
X-28.575Y-8.89
X-28.575Y-11.43
X-25.29Y21.7
X-23.494Y23.496
X-23.494Y19.904
X-21.698Y25.292
X-21.698Y21.7
X-19.902Y23.496
X-11.43Y31.115
X-11.43Y28.575
X-11.43Y-28.575
X-11.43Y-31.115
X-8.89Y31.115
X-8.89Y28.575
X-8.89Y-28.575
X-8.89Y-31.115
X-6.35Y31.115
X-6.35Y28.575
X-6.35Y-28.575
X-6.35Y-31.115
X-3.81Y31.115
X-3.81Y28.575
X-3.81Y-28.575
X-3.81Y-31.115
X-1.27Y31.115
X-1.27Y28.575
X-1.27Y-28.575
X-1.27Y-31.115
X1.27Y31.115
X1.27Y28.575
X1.27Y-28.575
X1.27Y-31.115
X3.81Y31.115
X3.81Y28.575
X3.81Y-28.575
X3.81Y-31.115
X6.35Y31.115
X6.35Y28.575
X6.35Y-28.575
X6.35Y-31.115
X8.89Y31.115
X8.89Y28.575
X8.89Y-28.575
X8.89Y-31.115
X11.43Y31.115
X11.43Y28.575
X11.43Y-28.575
X11.43Y-31.115
X13.97Y26.035
X15.766Y27.831
X17.562Y29.627
X19.902Y-23.496
X21.698Y-21.7
X21.698Y-25.292
X23.494Y-19.904
X23.494Y-23.496
X25.29Y-21.7
X26.144Y14.079
X27.94Y15.875
X28.575Y11.43
X28.575Y8.89
X28.575Y6.35
X28.575Y3.81
X28.575Y1.27
X28.575Y-1.27
X28.575Y-3.81
X28.575Y-6.35
X28.575Y-8.89
X28.575Y-11.43
X31.115Y11.43
X31.115Y8.89
X31.115Y6.35
X31.115Y3.81
X31.115Y1.27
X31.115Y-1.27
X31.115Y-3.81
X31.115Y-6.35
X31.115Y-8.89
X31.115Y-11.43
T5
X-28.575Y17.78
X-17.78Y28.575
X17.78Y-28.575
X28.575Y-17.78
T2
X-26.368Y-21.42G85X-25.909Y-20.96
G05
X-21.419Y-26.37G85X-20.959Y-25.91
G05
T3
X-23.628Y-19.882G85X-23.416Y-20.094
G05
X-20.093Y-23.417G85X-19.881Y-23.63
G05
T0
M30
