G04 #@! TF.FileFunction,Other,Comment*
%FSLAX46Y46*%
G04 Gerber Fmt 4.6, Leading zero omitted, Abs format (unit mm)*
G04 Created by KiCad (PCBNEW 4.0.6-e0-6349~53~ubuntu14.04.1) date Tue Mar 21 08:09:45 2017*
%MOMM*%
%LPD*%
G01*
G04 APERTURE LIST*
%ADD10C,0.100000*%
%ADD11C,0.200000*%
G04 APERTURE END LIST*
D10*
D11*
X150000000Y-105000000D02*
X185000000Y-105000000D01*
X150000000Y-105000000D02*
X115075000Y-105000000D01*
X150000000Y-105000000D02*
X125235000Y-129765000D01*
X150000000Y-105000000D02*
X150000000Y-139925000D01*
X150000000Y-105000000D02*
X174765000Y-129765000D01*
X150000000Y-105000000D02*
X174765000Y-80235000D01*
X164500000Y-70000000D02*
X135500000Y-70000000D01*
X185000000Y-90500000D02*
X164500000Y-70000000D01*
X185000000Y-119500000D02*
X185000000Y-90500000D01*
X164500000Y-140000000D02*
X185000000Y-119500000D01*
X135500000Y-140000000D02*
X164500000Y-140000000D01*
X115000000Y-119500000D02*
X135500000Y-140000000D01*
X115000000Y-90500000D02*
X115000000Y-119500000D01*
X135500000Y-70000000D02*
X115000000Y-90500000D01*
X150000000Y-105000000D02*
X125250000Y-80250000D01*
X150000000Y-105000000D02*
X150000000Y-70000000D01*
X115000000Y-90000000D02*
X135000000Y-70000000D01*
X115000000Y-120000000D02*
X115000000Y-90000000D01*
X135000000Y-140000000D02*
X115000000Y-120000000D01*
X165000000Y-140000000D02*
X135000000Y-140000000D01*
X185000000Y-120000000D02*
X165000000Y-140000000D01*
X185000000Y-90000000D02*
X185000000Y-120000000D01*
X165000000Y-70000000D02*
X185000000Y-90000000D01*
X135000000Y-70000000D02*
X165000000Y-70000000D01*
M02*
