G04 #@! TF.FileFunction,Copper,L3,Inr,Plane*
%FSLAX46Y46*%
G04 Gerber Fmt 4.6, Leading zero omitted, Abs format (unit mm)*
G04 Created by KiCad (PCBNEW 4.0.6-e0-6349~53~ubuntu14.04.1) date Tue Mar 21 08:09:45 2017*
%MOMM*%
%LPD*%
G01*
G04 APERTURE LIST*
%ADD10C,0.100000*%
%ADD11R,1.727200X1.727200*%
%ADD12O,1.727200X1.727200*%
%ADD13C,1.727200*%
%ADD14C,0.950000*%
%ADD15C,1.000000*%
%ADD16C,0.600000*%
%ADD17C,0.250000*%
%ADD18C,0.254000*%
G04 APERTURE END LIST*
D10*
D11*
X161430000Y-133575000D03*
D12*
X161430000Y-136115000D03*
X158890000Y-133575000D03*
X158890000Y-136115000D03*
X156350000Y-133575000D03*
X156350000Y-136115000D03*
X153810000Y-133575000D03*
X153810000Y-136115000D03*
X151270000Y-133575000D03*
X151270000Y-136115000D03*
X148730000Y-133575000D03*
X148730000Y-136115000D03*
X146190000Y-133575000D03*
X146190000Y-136115000D03*
X143650000Y-133575000D03*
X143650000Y-136115000D03*
X141110000Y-133575000D03*
X141110000Y-136115000D03*
X138570000Y-133575000D03*
X138570000Y-136115000D03*
D11*
X121425000Y-116430000D03*
D12*
X118885000Y-116430000D03*
X121425000Y-113890000D03*
X118885000Y-113890000D03*
X121425000Y-111350000D03*
X118885000Y-111350000D03*
X121425000Y-108810000D03*
X118885000Y-108810000D03*
X121425000Y-106270000D03*
X118885000Y-106270000D03*
X121425000Y-103730000D03*
X118885000Y-103730000D03*
X121425000Y-101190000D03*
X118885000Y-101190000D03*
X121425000Y-98650000D03*
X118885000Y-98650000D03*
X121425000Y-96110000D03*
X118885000Y-96110000D03*
X121425000Y-93570000D03*
X118885000Y-93570000D03*
D11*
X138570000Y-76425000D03*
D12*
X138570000Y-73885000D03*
X141110000Y-76425000D03*
X141110000Y-73885000D03*
X143650000Y-76425000D03*
X143650000Y-73885000D03*
X146190000Y-76425000D03*
X146190000Y-73885000D03*
X148730000Y-76425000D03*
X148730000Y-73885000D03*
X151270000Y-76425000D03*
X151270000Y-73885000D03*
X153810000Y-76425000D03*
X153810000Y-73885000D03*
X156350000Y-76425000D03*
X156350000Y-73885000D03*
X158890000Y-76425000D03*
X158890000Y-73885000D03*
X161430000Y-76425000D03*
X161430000Y-73885000D03*
D11*
X178575000Y-93570000D03*
D12*
X181115000Y-93570000D03*
X178575000Y-96110000D03*
X181115000Y-96110000D03*
X178575000Y-98650000D03*
X181115000Y-98650000D03*
X178575000Y-101190000D03*
X181115000Y-101190000D03*
X178575000Y-103730000D03*
X181115000Y-103730000D03*
X178575000Y-106270000D03*
X181115000Y-106270000D03*
X178575000Y-108810000D03*
X181115000Y-108810000D03*
X178575000Y-111350000D03*
X181115000Y-111350000D03*
X178575000Y-113890000D03*
X181115000Y-113890000D03*
X178575000Y-116430000D03*
X181115000Y-116430000D03*
D10*
G36*
X122167763Y-87279078D02*
X120730922Y-85842237D01*
X121952237Y-84620922D01*
X123389078Y-86057763D01*
X122167763Y-87279078D01*
X122167763Y-87279078D01*
G37*
D13*
X123748288Y-84046186D02*
X123963814Y-84261712D01*
X125544339Y-82250135D02*
X125759865Y-82465661D01*
X127340391Y-80454083D02*
X127555917Y-80669609D01*
X129136442Y-78658032D02*
X129351968Y-78873558D01*
X130932493Y-76861981D02*
X131148019Y-77077507D01*
D10*
G36*
X177832237Y-122720922D02*
X179269078Y-124157763D01*
X178047763Y-125379078D01*
X176610922Y-123942237D01*
X177832237Y-122720922D01*
X177832237Y-122720922D01*
G37*
D13*
X176251712Y-125953814D02*
X176036186Y-125738288D01*
X174455661Y-127749865D02*
X174240135Y-127534339D01*
X172659609Y-129545917D02*
X172444083Y-129330391D01*
X170863558Y-131341968D02*
X170648032Y-131126442D01*
X169067507Y-133138019D02*
X168851981Y-132922493D01*
D14*
X126370413Y-124880648D02*
X126582545Y-125092780D01*
X129905947Y-128416182D02*
X130118079Y-128628314D01*
D15*
X123665730Y-126383250D02*
X124054638Y-125994342D01*
X128615478Y-131332997D02*
X129004386Y-130944089D01*
D16*
X154500000Y-96500000D03*
X159050000Y-119650000D03*
X163750000Y-114200000D03*
X159200000Y-91250000D03*
X136250000Y-95800000D03*
X140800000Y-118750000D03*
X174000000Y-106000000D03*
X149000000Y-129000000D03*
X126000000Y-104000000D03*
X151000000Y-81000000D03*
X155100000Y-108500000D03*
X155950000Y-108550000D03*
X153550000Y-112000000D03*
X154450000Y-112000000D03*
X156450000Y-100050000D03*
X157000000Y-100700000D03*
X157100000Y-101500000D03*
X158000000Y-101500000D03*
X150500000Y-110000000D03*
X145000000Y-105500000D03*
X149500000Y-100000000D03*
X155000000Y-104500000D03*
X146825000Y-102460000D03*
X160000000Y-94000000D03*
X138000000Y-94000000D03*
X161500000Y-115000000D03*
X157500000Y-99500000D03*
X153000000Y-107500000D03*
X155000000Y-103500000D03*
X151500000Y-110000000D03*
X145000000Y-106500000D03*
X148500000Y-100000000D03*
X147250000Y-111050000D03*
X145600000Y-110300000D03*
X143150000Y-108750000D03*
X143150000Y-109650000D03*
X145800000Y-100350000D03*
X145800000Y-99450000D03*
X146300000Y-98050000D03*
X145450000Y-98000000D03*
X158100000Y-127850000D03*
X158100000Y-126950000D03*
X156800000Y-126300000D03*
X157600000Y-126300000D03*
X157750000Y-119150000D03*
X157950000Y-118350000D03*
X156650000Y-118200000D03*
X156850000Y-117400000D03*
X142550000Y-116750000D03*
X142700000Y-117550000D03*
X142850000Y-118350000D03*
X143000000Y-119150000D03*
X145100000Y-128250000D03*
X145150000Y-127350000D03*
X145300000Y-126550000D03*
X145300000Y-125650000D03*
X127100000Y-113050000D03*
X128000000Y-113050000D03*
X128650000Y-111750000D03*
X128650000Y-112550000D03*
X135850000Y-112700000D03*
X136650000Y-112900000D03*
X136800000Y-111600000D03*
X137600000Y-111700000D03*
X138250000Y-97600000D03*
X137450000Y-97700000D03*
X136650000Y-97850000D03*
X135850000Y-98000000D03*
X126850000Y-100100000D03*
X127650000Y-100150000D03*
X128450000Y-100300000D03*
X129300000Y-100300000D03*
X141950000Y-82100000D03*
X141950000Y-83000000D03*
X143250000Y-83650000D03*
X142400000Y-83700000D03*
X142200000Y-90900000D03*
X142000000Y-91700000D03*
X143300000Y-91800000D03*
X143100000Y-92600000D03*
X157450000Y-93250000D03*
X157300000Y-92450000D03*
X157150000Y-91650000D03*
X157000000Y-90850000D03*
X154850000Y-81350000D03*
X154850000Y-82250000D03*
X154700000Y-83050000D03*
X154700000Y-83950000D03*
X172900000Y-96950000D03*
X172000000Y-96950000D03*
X171350000Y-98250000D03*
X171350000Y-97450000D03*
X164150000Y-97200000D03*
X163350000Y-97000000D03*
X163200000Y-98300000D03*
X162550000Y-97850000D03*
X161750000Y-112450000D03*
X162550000Y-112300000D03*
X163350000Y-112150000D03*
X164150000Y-112000000D03*
X173350000Y-109900000D03*
X172450000Y-109900000D03*
X171650000Y-109700000D03*
X170700000Y-109700000D03*
X141200000Y-117150000D03*
X157950000Y-117450000D03*
X137550000Y-96000000D03*
X137550000Y-112700000D03*
X166500000Y-92000000D03*
X134500000Y-91000000D03*
X165000000Y-118500000D03*
X159050000Y-92600000D03*
X142100000Y-92550000D03*
X162400000Y-114000000D03*
X162500000Y-97000000D03*
X127775000Y-128495000D03*
X125870000Y-126590000D03*
D17*
X151825000Y-123925000D02*
X151400000Y-124350000D01*
X147300000Y-124350000D02*
X141200000Y-118250000D01*
X151400000Y-124350000D02*
X147300000Y-124350000D01*
X141200000Y-118250000D02*
X141200000Y-117150000D01*
X157950000Y-117450000D02*
X157450000Y-117950000D01*
X157450000Y-117950000D02*
X157300000Y-118100000D01*
X157300000Y-118100000D02*
X157300000Y-118450000D01*
X157300000Y-118450000D02*
X156900000Y-118850000D01*
X156900000Y-118850000D02*
X153350000Y-122400000D01*
X153350000Y-122400000D02*
X151825000Y-123925000D01*
X137550000Y-96000000D02*
X136950000Y-96000000D01*
X136950000Y-96000000D02*
X130650000Y-102300000D01*
X130650000Y-102300000D02*
X130650000Y-106350000D01*
X130650000Y-106350000D02*
X136550000Y-112250000D01*
X136550000Y-112250000D02*
X137100000Y-112250000D01*
X137100000Y-112250000D02*
X137550000Y-112700000D01*
X159050000Y-92600000D02*
X159050000Y-92000000D01*
X159050000Y-92000000D02*
X152700000Y-85650000D01*
X152700000Y-85650000D02*
X148550000Y-85650000D01*
X148550000Y-85650000D02*
X142650000Y-91550000D01*
X142650000Y-91550000D02*
X142650000Y-92000000D01*
X142650000Y-92000000D02*
X142100000Y-92550000D01*
X162400000Y-114000000D02*
X163050000Y-114000000D01*
X163050000Y-114000000D02*
X169400000Y-107650000D01*
X169400000Y-107650000D02*
X169400000Y-103600000D01*
X169400000Y-103600000D02*
X163450000Y-97650000D01*
X163450000Y-97650000D02*
X163150000Y-97650000D01*
X163150000Y-97650000D02*
X162500000Y-97000000D01*
D18*
G36*
X158250394Y-105000000D02*
X155568330Y-107682064D01*
X155286799Y-107565162D01*
X154914833Y-107564838D01*
X154571057Y-107706883D01*
X154307808Y-107969673D01*
X154165162Y-108313201D01*
X154164838Y-108685167D01*
X154281904Y-108968490D01*
X150000000Y-113250394D01*
X148126617Y-111377011D01*
X148184838Y-111236799D01*
X148185162Y-110864833D01*
X148043117Y-110521057D01*
X147780327Y-110257808D01*
X147605389Y-110185167D01*
X150564838Y-110185167D01*
X150706883Y-110528943D01*
X150969673Y-110792192D01*
X151313201Y-110934838D01*
X151685167Y-110935162D01*
X152028943Y-110793117D01*
X152292192Y-110530327D01*
X152434838Y-110186799D01*
X152435162Y-109814833D01*
X152293117Y-109471057D01*
X152030327Y-109207808D01*
X151686799Y-109065162D01*
X151314833Y-109064838D01*
X150971057Y-109206883D01*
X150707808Y-109469673D01*
X150565162Y-109813201D01*
X150564838Y-110185167D01*
X147605389Y-110185167D01*
X147436799Y-110115162D01*
X147064833Y-110114838D01*
X146923034Y-110173428D01*
X144434773Y-107685167D01*
X152064838Y-107685167D01*
X152206883Y-108028943D01*
X152469673Y-108292192D01*
X152813201Y-108434838D01*
X153185167Y-108435162D01*
X153528943Y-108293117D01*
X153792192Y-108030327D01*
X153934838Y-107686799D01*
X153935162Y-107314833D01*
X153793117Y-106971057D01*
X153530327Y-106707808D01*
X153186799Y-106565162D01*
X152814833Y-106564838D01*
X152471057Y-106706883D01*
X152207808Y-106969673D01*
X152065162Y-107313201D01*
X152064838Y-107685167D01*
X144434773Y-107685167D01*
X143434773Y-106685167D01*
X144064838Y-106685167D01*
X144206883Y-107028943D01*
X144469673Y-107292192D01*
X144813201Y-107434838D01*
X145185167Y-107435162D01*
X145528943Y-107293117D01*
X145792192Y-107030327D01*
X145934838Y-106686799D01*
X145935162Y-106314833D01*
X145793117Y-105971057D01*
X145530327Y-105707808D01*
X145186799Y-105565162D01*
X144814833Y-105564838D01*
X144471057Y-105706883D01*
X144207808Y-105969673D01*
X144065162Y-106313201D01*
X144064838Y-106685167D01*
X143434773Y-106685167D01*
X141749606Y-105000000D01*
X143064439Y-103685167D01*
X154064838Y-103685167D01*
X154206883Y-104028943D01*
X154469673Y-104292192D01*
X154813201Y-104434838D01*
X155185167Y-104435162D01*
X155528943Y-104293117D01*
X155792192Y-104030327D01*
X155934838Y-103686799D01*
X155935162Y-103314833D01*
X155793117Y-102971057D01*
X155530327Y-102707808D01*
X155186799Y-102565162D01*
X154814833Y-102564838D01*
X154471057Y-102706883D01*
X154207808Y-102969673D01*
X154065162Y-103313201D01*
X154064838Y-103685167D01*
X143064439Y-103685167D01*
X145508319Y-101241287D01*
X145613201Y-101284838D01*
X145985167Y-101285162D01*
X146328943Y-101143117D01*
X146592192Y-100880327D01*
X146734838Y-100536799D01*
X146735144Y-100185167D01*
X147564838Y-100185167D01*
X147706883Y-100528943D01*
X147969673Y-100792192D01*
X148313201Y-100934838D01*
X148685167Y-100935162D01*
X149028943Y-100793117D01*
X149292192Y-100530327D01*
X149434838Y-100186799D01*
X149435162Y-99814833D01*
X149293117Y-99471057D01*
X149030327Y-99207808D01*
X148686799Y-99065162D01*
X148314833Y-99064838D01*
X147971057Y-99206883D01*
X147707808Y-99469673D01*
X147565162Y-99813201D01*
X147564838Y-100185167D01*
X146735144Y-100185167D01*
X146735162Y-100164833D01*
X146691191Y-100058415D01*
X150000000Y-96749606D01*
X158250394Y-105000000D01*
X158250394Y-105000000D01*
G37*
X158250394Y-105000000D02*
X155568330Y-107682064D01*
X155286799Y-107565162D01*
X154914833Y-107564838D01*
X154571057Y-107706883D01*
X154307808Y-107969673D01*
X154165162Y-108313201D01*
X154164838Y-108685167D01*
X154281904Y-108968490D01*
X150000000Y-113250394D01*
X148126617Y-111377011D01*
X148184838Y-111236799D01*
X148185162Y-110864833D01*
X148043117Y-110521057D01*
X147780327Y-110257808D01*
X147605389Y-110185167D01*
X150564838Y-110185167D01*
X150706883Y-110528943D01*
X150969673Y-110792192D01*
X151313201Y-110934838D01*
X151685167Y-110935162D01*
X152028943Y-110793117D01*
X152292192Y-110530327D01*
X152434838Y-110186799D01*
X152435162Y-109814833D01*
X152293117Y-109471057D01*
X152030327Y-109207808D01*
X151686799Y-109065162D01*
X151314833Y-109064838D01*
X150971057Y-109206883D01*
X150707808Y-109469673D01*
X150565162Y-109813201D01*
X150564838Y-110185167D01*
X147605389Y-110185167D01*
X147436799Y-110115162D01*
X147064833Y-110114838D01*
X146923034Y-110173428D01*
X144434773Y-107685167D01*
X152064838Y-107685167D01*
X152206883Y-108028943D01*
X152469673Y-108292192D01*
X152813201Y-108434838D01*
X153185167Y-108435162D01*
X153528943Y-108293117D01*
X153792192Y-108030327D01*
X153934838Y-107686799D01*
X153935162Y-107314833D01*
X153793117Y-106971057D01*
X153530327Y-106707808D01*
X153186799Y-106565162D01*
X152814833Y-106564838D01*
X152471057Y-106706883D01*
X152207808Y-106969673D01*
X152065162Y-107313201D01*
X152064838Y-107685167D01*
X144434773Y-107685167D01*
X143434773Y-106685167D01*
X144064838Y-106685167D01*
X144206883Y-107028943D01*
X144469673Y-107292192D01*
X144813201Y-107434838D01*
X145185167Y-107435162D01*
X145528943Y-107293117D01*
X145792192Y-107030327D01*
X145934838Y-106686799D01*
X145935162Y-106314833D01*
X145793117Y-105971057D01*
X145530327Y-105707808D01*
X145186799Y-105565162D01*
X144814833Y-105564838D01*
X144471057Y-105706883D01*
X144207808Y-105969673D01*
X144065162Y-106313201D01*
X144064838Y-106685167D01*
X143434773Y-106685167D01*
X141749606Y-105000000D01*
X143064439Y-103685167D01*
X154064838Y-103685167D01*
X154206883Y-104028943D01*
X154469673Y-104292192D01*
X154813201Y-104434838D01*
X155185167Y-104435162D01*
X155528943Y-104293117D01*
X155792192Y-104030327D01*
X155934838Y-103686799D01*
X155935162Y-103314833D01*
X155793117Y-102971057D01*
X155530327Y-102707808D01*
X155186799Y-102565162D01*
X154814833Y-102564838D01*
X154471057Y-102706883D01*
X154207808Y-102969673D01*
X154065162Y-103313201D01*
X154064838Y-103685167D01*
X143064439Y-103685167D01*
X145508319Y-101241287D01*
X145613201Y-101284838D01*
X145985167Y-101285162D01*
X146328943Y-101143117D01*
X146592192Y-100880327D01*
X146734838Y-100536799D01*
X146735144Y-100185167D01*
X147564838Y-100185167D01*
X147706883Y-100528943D01*
X147969673Y-100792192D01*
X148313201Y-100934838D01*
X148685167Y-100935162D01*
X149028943Y-100793117D01*
X149292192Y-100530327D01*
X149434838Y-100186799D01*
X149435162Y-99814833D01*
X149293117Y-99471057D01*
X149030327Y-99207808D01*
X148686799Y-99065162D01*
X148314833Y-99064838D01*
X147971057Y-99206883D01*
X147707808Y-99469673D01*
X147565162Y-99813201D01*
X147564838Y-100185167D01*
X146735144Y-100185167D01*
X146735162Y-100164833D01*
X146691191Y-100058415D01*
X150000000Y-96749606D01*
X158250394Y-105000000D01*
G36*
X156364917Y-92544523D02*
X156364838Y-92635167D01*
X156506883Y-92978943D01*
X156537439Y-93009552D01*
X156515162Y-93063201D01*
X156514838Y-93435167D01*
X156656883Y-93778943D01*
X156919673Y-94042192D01*
X157263201Y-94184838D01*
X157635167Y-94185162D01*
X157897261Y-94076867D01*
X161615047Y-97794653D01*
X161614838Y-98035167D01*
X161756883Y-98378943D01*
X162019673Y-98642192D01*
X162363201Y-98784838D01*
X162388668Y-98784860D01*
X162406883Y-98828943D01*
X162669673Y-99092192D01*
X163013201Y-99234838D01*
X163055269Y-99234875D01*
X168820394Y-105000000D01*
X162455477Y-111364917D01*
X162364833Y-111364838D01*
X162021057Y-111506883D01*
X161990448Y-111537439D01*
X161936799Y-111515162D01*
X161564833Y-111514838D01*
X161221057Y-111656883D01*
X160957808Y-111919673D01*
X160815162Y-112263201D01*
X160814838Y-112635167D01*
X160923133Y-112897261D01*
X157261802Y-116558592D01*
X157036799Y-116465162D01*
X156664833Y-116464838D01*
X156321057Y-116606883D01*
X156057808Y-116869673D01*
X155915162Y-117213201D01*
X155914838Y-117585167D01*
X155922905Y-117604690D01*
X155857808Y-117669673D01*
X155715162Y-118013201D01*
X155715082Y-118105312D01*
X150000000Y-123820394D01*
X143635083Y-117455477D01*
X143635162Y-117364833D01*
X143493117Y-117021057D01*
X143462561Y-116990448D01*
X143484838Y-116936799D01*
X143485162Y-116564833D01*
X143343117Y-116221057D01*
X143080327Y-115957808D01*
X142736799Y-115815162D01*
X142364833Y-115814838D01*
X142102739Y-115923133D01*
X138397397Y-112217791D01*
X138534838Y-111886799D01*
X138535162Y-111514833D01*
X138393117Y-111171057D01*
X138130327Y-110907808D01*
X137786799Y-110765162D01*
X137414833Y-110764838D01*
X137320606Y-110803772D01*
X136986799Y-110665162D01*
X136844644Y-110665038D01*
X131181360Y-105001754D01*
X138373012Y-105001754D01*
X138383700Y-105051022D01*
X138410197Y-105089803D01*
X142214873Y-108894479D01*
X142214838Y-108935167D01*
X142324359Y-109200228D01*
X142215162Y-109463201D01*
X142214838Y-109835167D01*
X142356883Y-110178943D01*
X142619673Y-110442192D01*
X142963201Y-110584838D01*
X143335167Y-110585162D01*
X143678943Y-110443117D01*
X143721264Y-110400870D01*
X149910197Y-116589803D01*
X149952211Y-116617666D01*
X150001754Y-116626988D01*
X150051022Y-116616300D01*
X150089803Y-116589803D01*
X153750976Y-112928630D01*
X154000228Y-112825641D01*
X154263201Y-112934838D01*
X154635167Y-112935162D01*
X154978943Y-112793117D01*
X155242192Y-112530327D01*
X155384838Y-112186799D01*
X155385162Y-111814833D01*
X155243117Y-111471057D01*
X155225848Y-111453758D01*
X161589803Y-105089803D01*
X161617666Y-105047789D01*
X161626988Y-104998246D01*
X161616300Y-104948978D01*
X161589803Y-104910197D01*
X158751027Y-102071421D01*
X158792192Y-102030327D01*
X158934838Y-101686799D01*
X158935162Y-101314833D01*
X158793117Y-100971057D01*
X158530327Y-100707808D01*
X158186799Y-100565162D01*
X157935118Y-100564943D01*
X157935162Y-100514833D01*
X157870587Y-100358548D01*
X158028943Y-100293117D01*
X158292192Y-100030327D01*
X158434838Y-99686799D01*
X158435162Y-99314833D01*
X158293117Y-98971057D01*
X158030327Y-98707808D01*
X157686799Y-98565162D01*
X157314833Y-98564838D01*
X156971057Y-98706883D01*
X156707808Y-98969673D01*
X156645837Y-99118915D01*
X156636799Y-99115162D01*
X156264833Y-99114838D01*
X155931977Y-99252371D01*
X150089803Y-93410197D01*
X150047789Y-93382334D01*
X149998246Y-93373012D01*
X149948978Y-93383700D01*
X149910197Y-93410197D01*
X146205477Y-97114917D01*
X146114833Y-97114838D01*
X145935189Y-97189065D01*
X145636799Y-97065162D01*
X145264833Y-97064838D01*
X144921057Y-97206883D01*
X144657808Y-97469673D01*
X144515162Y-97813201D01*
X144514838Y-98185167D01*
X144656883Y-98528943D01*
X144724108Y-98596286D01*
X138410197Y-104910197D01*
X138382334Y-104952211D01*
X138373012Y-105001754D01*
X131181360Y-105001754D01*
X131179606Y-105000000D01*
X137544523Y-98635083D01*
X137635167Y-98635162D01*
X137970815Y-98496476D01*
X138063201Y-98534838D01*
X138435167Y-98535162D01*
X138778943Y-98393117D01*
X139042192Y-98130327D01*
X139184838Y-97786799D01*
X139185162Y-97414833D01*
X139062248Y-97117358D01*
X142723528Y-93456078D01*
X142913201Y-93534838D01*
X143285167Y-93535162D01*
X143628943Y-93393117D01*
X143892192Y-93130327D01*
X144034838Y-92786799D01*
X144035162Y-92414833D01*
X144027095Y-92395310D01*
X144092192Y-92330327D01*
X144234838Y-91986799D01*
X144234875Y-91944731D01*
X150000000Y-86179606D01*
X156364917Y-92544523D01*
X156364917Y-92544523D01*
G37*
X156364917Y-92544523D02*
X156364838Y-92635167D01*
X156506883Y-92978943D01*
X156537439Y-93009552D01*
X156515162Y-93063201D01*
X156514838Y-93435167D01*
X156656883Y-93778943D01*
X156919673Y-94042192D01*
X157263201Y-94184838D01*
X157635167Y-94185162D01*
X157897261Y-94076867D01*
X161615047Y-97794653D01*
X161614838Y-98035167D01*
X161756883Y-98378943D01*
X162019673Y-98642192D01*
X162363201Y-98784838D01*
X162388668Y-98784860D01*
X162406883Y-98828943D01*
X162669673Y-99092192D01*
X163013201Y-99234838D01*
X163055269Y-99234875D01*
X168820394Y-105000000D01*
X162455477Y-111364917D01*
X162364833Y-111364838D01*
X162021057Y-111506883D01*
X161990448Y-111537439D01*
X161936799Y-111515162D01*
X161564833Y-111514838D01*
X161221057Y-111656883D01*
X160957808Y-111919673D01*
X160815162Y-112263201D01*
X160814838Y-112635167D01*
X160923133Y-112897261D01*
X157261802Y-116558592D01*
X157036799Y-116465162D01*
X156664833Y-116464838D01*
X156321057Y-116606883D01*
X156057808Y-116869673D01*
X155915162Y-117213201D01*
X155914838Y-117585167D01*
X155922905Y-117604690D01*
X155857808Y-117669673D01*
X155715162Y-118013201D01*
X155715082Y-118105312D01*
X150000000Y-123820394D01*
X143635083Y-117455477D01*
X143635162Y-117364833D01*
X143493117Y-117021057D01*
X143462561Y-116990448D01*
X143484838Y-116936799D01*
X143485162Y-116564833D01*
X143343117Y-116221057D01*
X143080327Y-115957808D01*
X142736799Y-115815162D01*
X142364833Y-115814838D01*
X142102739Y-115923133D01*
X138397397Y-112217791D01*
X138534838Y-111886799D01*
X138535162Y-111514833D01*
X138393117Y-111171057D01*
X138130327Y-110907808D01*
X137786799Y-110765162D01*
X137414833Y-110764838D01*
X137320606Y-110803772D01*
X136986799Y-110665162D01*
X136844644Y-110665038D01*
X131181360Y-105001754D01*
X138373012Y-105001754D01*
X138383700Y-105051022D01*
X138410197Y-105089803D01*
X142214873Y-108894479D01*
X142214838Y-108935167D01*
X142324359Y-109200228D01*
X142215162Y-109463201D01*
X142214838Y-109835167D01*
X142356883Y-110178943D01*
X142619673Y-110442192D01*
X142963201Y-110584838D01*
X143335167Y-110585162D01*
X143678943Y-110443117D01*
X143721264Y-110400870D01*
X149910197Y-116589803D01*
X149952211Y-116617666D01*
X150001754Y-116626988D01*
X150051022Y-116616300D01*
X150089803Y-116589803D01*
X153750976Y-112928630D01*
X154000228Y-112825641D01*
X154263201Y-112934838D01*
X154635167Y-112935162D01*
X154978943Y-112793117D01*
X155242192Y-112530327D01*
X155384838Y-112186799D01*
X155385162Y-111814833D01*
X155243117Y-111471057D01*
X155225848Y-111453758D01*
X161589803Y-105089803D01*
X161617666Y-105047789D01*
X161626988Y-104998246D01*
X161616300Y-104948978D01*
X161589803Y-104910197D01*
X158751027Y-102071421D01*
X158792192Y-102030327D01*
X158934838Y-101686799D01*
X158935162Y-101314833D01*
X158793117Y-100971057D01*
X158530327Y-100707808D01*
X158186799Y-100565162D01*
X157935118Y-100564943D01*
X157935162Y-100514833D01*
X157870587Y-100358548D01*
X158028943Y-100293117D01*
X158292192Y-100030327D01*
X158434838Y-99686799D01*
X158435162Y-99314833D01*
X158293117Y-98971057D01*
X158030327Y-98707808D01*
X157686799Y-98565162D01*
X157314833Y-98564838D01*
X156971057Y-98706883D01*
X156707808Y-98969673D01*
X156645837Y-99118915D01*
X156636799Y-99115162D01*
X156264833Y-99114838D01*
X155931977Y-99252371D01*
X150089803Y-93410197D01*
X150047789Y-93382334D01*
X149998246Y-93373012D01*
X149948978Y-93383700D01*
X149910197Y-93410197D01*
X146205477Y-97114917D01*
X146114833Y-97114838D01*
X145935189Y-97189065D01*
X145636799Y-97065162D01*
X145264833Y-97064838D01*
X144921057Y-97206883D01*
X144657808Y-97469673D01*
X144515162Y-97813201D01*
X144514838Y-98185167D01*
X144656883Y-98528943D01*
X144724108Y-98596286D01*
X138410197Y-104910197D01*
X138382334Y-104952211D01*
X138373012Y-105001754D01*
X131181360Y-105001754D01*
X131179606Y-105000000D01*
X137544523Y-98635083D01*
X137635167Y-98635162D01*
X137970815Y-98496476D01*
X138063201Y-98534838D01*
X138435167Y-98535162D01*
X138778943Y-98393117D01*
X139042192Y-98130327D01*
X139184838Y-97786799D01*
X139185162Y-97414833D01*
X139062248Y-97117358D01*
X142723528Y-93456078D01*
X142913201Y-93534838D01*
X143285167Y-93535162D01*
X143628943Y-93393117D01*
X143892192Y-93130327D01*
X144034838Y-92786799D01*
X144035162Y-92414833D01*
X144027095Y-92395310D01*
X144092192Y-92330327D01*
X144234838Y-91986799D01*
X144234875Y-91944731D01*
X150000000Y-86179606D01*
X156364917Y-92544523D01*
G36*
X151410197Y-79089803D02*
X151452211Y-79117666D01*
X151500000Y-79127000D01*
X160373000Y-79127000D01*
X160373000Y-85500000D01*
X160383006Y-85549410D01*
X160410197Y-85589803D01*
X169410197Y-94589803D01*
X169452211Y-94617666D01*
X169500000Y-94627000D01*
X175873000Y-94627000D01*
X175873000Y-103500000D01*
X175883006Y-103549410D01*
X175910197Y-103589803D01*
X177320394Y-105000000D01*
X175910197Y-106410197D01*
X175882334Y-106452211D01*
X175873000Y-106500000D01*
X175873000Y-115373000D01*
X169500000Y-115373000D01*
X169450590Y-115383006D01*
X169410197Y-115410197D01*
X160410197Y-124410197D01*
X160382334Y-124452211D01*
X160373000Y-124500000D01*
X160373000Y-130873000D01*
X151500000Y-130873000D01*
X151450590Y-130883006D01*
X151410197Y-130910197D01*
X150000000Y-132320394D01*
X148589803Y-130910197D01*
X148547789Y-130882334D01*
X148500000Y-130873000D01*
X139627000Y-130873000D01*
X139627000Y-124500000D01*
X139616994Y-124450590D01*
X139589803Y-124410197D01*
X130589803Y-115410197D01*
X130547789Y-115382334D01*
X130500000Y-115373000D01*
X124127000Y-115373000D01*
X124127000Y-113235167D01*
X126164838Y-113235167D01*
X126306883Y-113578943D01*
X126569673Y-113842192D01*
X126913201Y-113984838D01*
X127285167Y-113985162D01*
X127550228Y-113875641D01*
X127813201Y-113984838D01*
X128185167Y-113985162D01*
X128528943Y-113843117D01*
X128792192Y-113580327D01*
X128831709Y-113485159D01*
X128835167Y-113485162D01*
X129178943Y-113343117D01*
X129442192Y-113080327D01*
X129584838Y-112736799D01*
X129585162Y-112364833D01*
X129496352Y-112149896D01*
X129584838Y-111936799D01*
X129585162Y-111564833D01*
X129443117Y-111221057D01*
X129180327Y-110957808D01*
X128836799Y-110815162D01*
X128464833Y-110814838D01*
X128121057Y-110956883D01*
X127857808Y-111219673D01*
X127715162Y-111563201D01*
X127714838Y-111935167D01*
X127792832Y-112123928D01*
X127549772Y-112224359D01*
X127286799Y-112115162D01*
X126914833Y-112114838D01*
X126571057Y-112256883D01*
X126307808Y-112519673D01*
X126165162Y-112863201D01*
X126164838Y-113235167D01*
X124127000Y-113235167D01*
X124127000Y-106500000D01*
X124116994Y-106450590D01*
X124089803Y-106410197D01*
X122681360Y-105001754D01*
X123873012Y-105001754D01*
X123883700Y-105051022D01*
X123910197Y-105089803D01*
X144365091Y-125544697D01*
X144364838Y-125835167D01*
X144474359Y-126100228D01*
X144365162Y-126363201D01*
X144364838Y-126735167D01*
X144387506Y-126790027D01*
X144357808Y-126819673D01*
X144215162Y-127163201D01*
X144214838Y-127535167D01*
X144299420Y-127739873D01*
X144165162Y-128063201D01*
X144164838Y-128435167D01*
X144306883Y-128778943D01*
X144569673Y-129042192D01*
X144913201Y-129184838D01*
X145285167Y-129185162D01*
X145628943Y-129043117D01*
X145892192Y-128780327D01*
X146034838Y-128436799D01*
X146035162Y-128064833D01*
X145950580Y-127860127D01*
X146084838Y-127536799D01*
X146085075Y-127264681D01*
X148106577Y-129286183D01*
X148206883Y-129528943D01*
X148469673Y-129792192D01*
X148714068Y-129893674D01*
X149910197Y-131089803D01*
X149952211Y-131117666D01*
X150001754Y-131126988D01*
X150051022Y-131116300D01*
X150089803Y-131089803D01*
X154694439Y-126485167D01*
X155864838Y-126485167D01*
X156006883Y-126828943D01*
X156269673Y-127092192D01*
X156613201Y-127234838D01*
X156985167Y-127235162D01*
X157173928Y-127157168D01*
X157274359Y-127400228D01*
X157165162Y-127663201D01*
X157164838Y-128035167D01*
X157306883Y-128378943D01*
X157569673Y-128642192D01*
X157913201Y-128784838D01*
X158285167Y-128785162D01*
X158628943Y-128643117D01*
X158892192Y-128380327D01*
X159034838Y-128036799D01*
X159035162Y-127664833D01*
X158925641Y-127399772D01*
X159034838Y-127136799D01*
X159035162Y-126764833D01*
X158893117Y-126421057D01*
X158630327Y-126157808D01*
X158535159Y-126118291D01*
X158535162Y-126114833D01*
X158393117Y-125771057D01*
X158130327Y-125507808D01*
X157786799Y-125365162D01*
X157414833Y-125364838D01*
X157199896Y-125453648D01*
X156986799Y-125365162D01*
X156614833Y-125364838D01*
X156271057Y-125506883D01*
X156007808Y-125769673D01*
X155865162Y-126113201D01*
X155864838Y-126485167D01*
X154694439Y-126485167D01*
X170544741Y-110634865D01*
X170885167Y-110635162D01*
X171175290Y-110515286D01*
X171463201Y-110634838D01*
X171835167Y-110635162D01*
X171854690Y-110627095D01*
X171919673Y-110692192D01*
X172263201Y-110834838D01*
X172635167Y-110835162D01*
X172900228Y-110725641D01*
X173163201Y-110834838D01*
X173535167Y-110835162D01*
X173878943Y-110693117D01*
X174142192Y-110430327D01*
X174284838Y-110086799D01*
X174285162Y-109714833D01*
X174143117Y-109371057D01*
X173880327Y-109107808D01*
X173536799Y-108965162D01*
X173164833Y-108964838D01*
X172899772Y-109074359D01*
X172636799Y-108965162D01*
X172264833Y-108964838D01*
X172245310Y-108972905D01*
X172226022Y-108953584D01*
X174286183Y-106893423D01*
X174528943Y-106793117D01*
X174792192Y-106530327D01*
X174893674Y-106285932D01*
X176089803Y-105089803D01*
X176117666Y-105047789D01*
X176126988Y-104998246D01*
X176116300Y-104948978D01*
X176089803Y-104910197D01*
X168814773Y-97635167D01*
X170414838Y-97635167D01*
X170503648Y-97850104D01*
X170415162Y-98063201D01*
X170414838Y-98435167D01*
X170556883Y-98778943D01*
X170819673Y-99042192D01*
X171163201Y-99184838D01*
X171535167Y-99185162D01*
X171878943Y-99043117D01*
X172142192Y-98780327D01*
X172284838Y-98436799D01*
X172285162Y-98064833D01*
X172207168Y-97876072D01*
X172450228Y-97775641D01*
X172713201Y-97884838D01*
X173085167Y-97885162D01*
X173428943Y-97743117D01*
X173692192Y-97480327D01*
X173834838Y-97136799D01*
X173835162Y-96764833D01*
X173693117Y-96421057D01*
X173430327Y-96157808D01*
X173086799Y-96015162D01*
X172714833Y-96014838D01*
X172449772Y-96124359D01*
X172186799Y-96015162D01*
X171814833Y-96014838D01*
X171471057Y-96156883D01*
X171207808Y-96419673D01*
X171168291Y-96514841D01*
X171164833Y-96514838D01*
X170821057Y-96656883D01*
X170557808Y-96919673D01*
X170415162Y-97263201D01*
X170414838Y-97635167D01*
X168814773Y-97635167D01*
X155541408Y-84361802D01*
X155634838Y-84136799D01*
X155635162Y-83764833D01*
X155525641Y-83499772D01*
X155634838Y-83236799D01*
X155635162Y-82864833D01*
X155612494Y-82809973D01*
X155642192Y-82780327D01*
X155784838Y-82436799D01*
X155785162Y-82064833D01*
X155675641Y-81799772D01*
X155784838Y-81536799D01*
X155785162Y-81164833D01*
X155643117Y-80821057D01*
X155380327Y-80557808D01*
X155036799Y-80415162D01*
X154664833Y-80414838D01*
X154321057Y-80556883D01*
X154057808Y-80819673D01*
X153915162Y-81163201D01*
X153914838Y-81535167D01*
X154024359Y-81800228D01*
X153915162Y-82063201D01*
X153914838Y-82435167D01*
X153937506Y-82490027D01*
X153907808Y-82519673D01*
X153846624Y-82667018D01*
X151893423Y-80713817D01*
X151793117Y-80471057D01*
X151530327Y-80207808D01*
X151285932Y-80106326D01*
X150089803Y-78910197D01*
X150047789Y-78882334D01*
X149998246Y-78873012D01*
X149948978Y-78883700D01*
X149910197Y-78910197D01*
X129455259Y-99365135D01*
X129114833Y-99364838D01*
X128874834Y-99464003D01*
X128636799Y-99365162D01*
X128264833Y-99364838D01*
X128209973Y-99387506D01*
X128180327Y-99357808D01*
X127836799Y-99215162D01*
X127464833Y-99214838D01*
X127310251Y-99278710D01*
X127036799Y-99165162D01*
X126664833Y-99164838D01*
X126321057Y-99306883D01*
X126057808Y-99569673D01*
X125915162Y-99913201D01*
X125914838Y-100285167D01*
X126056883Y-100628943D01*
X126319673Y-100892192D01*
X126663201Y-101034838D01*
X127035167Y-101035162D01*
X127189749Y-100971290D01*
X127463201Y-101084838D01*
X127735319Y-101085075D01*
X125713817Y-103106577D01*
X125471057Y-103206883D01*
X125207808Y-103469673D01*
X125106326Y-103714068D01*
X123910197Y-104910197D01*
X123882334Y-104952211D01*
X123873012Y-105001754D01*
X122681360Y-105001754D01*
X122679606Y-105000000D01*
X124089803Y-103589803D01*
X124117666Y-103547789D01*
X124127000Y-103500000D01*
X124127000Y-94627000D01*
X130500000Y-94627000D01*
X130549410Y-94616994D01*
X130589803Y-94589803D01*
X139589803Y-85589803D01*
X139617666Y-85547789D01*
X139627000Y-85500000D01*
X139627000Y-82285167D01*
X141014838Y-82285167D01*
X141124359Y-82550228D01*
X141015162Y-82813201D01*
X141014838Y-83185167D01*
X141156883Y-83528943D01*
X141419673Y-83792192D01*
X141464903Y-83810973D01*
X141464838Y-83885167D01*
X141606883Y-84228943D01*
X141869673Y-84492192D01*
X142213201Y-84634838D01*
X142585167Y-84635162D01*
X142885521Y-84511059D01*
X143063201Y-84584838D01*
X143435167Y-84585162D01*
X143778943Y-84443117D01*
X144042192Y-84180327D01*
X144184838Y-83836799D01*
X144185162Y-83464833D01*
X144043117Y-83121057D01*
X143780327Y-82857808D01*
X143436799Y-82715162D01*
X143064833Y-82714838D01*
X142876072Y-82792832D01*
X142775641Y-82549772D01*
X142884838Y-82286799D01*
X142885162Y-81914833D01*
X142743117Y-81571057D01*
X142480327Y-81307808D01*
X142136799Y-81165162D01*
X141764833Y-81164838D01*
X141421057Y-81306883D01*
X141157808Y-81569673D01*
X141015162Y-81913201D01*
X141014838Y-82285167D01*
X139627000Y-82285167D01*
X139627000Y-79127000D01*
X148500000Y-79127000D01*
X148549410Y-79116994D01*
X148589803Y-79089803D01*
X150000000Y-77679606D01*
X151410197Y-79089803D01*
X151410197Y-79089803D01*
G37*
X151410197Y-79089803D02*
X151452211Y-79117666D01*
X151500000Y-79127000D01*
X160373000Y-79127000D01*
X160373000Y-85500000D01*
X160383006Y-85549410D01*
X160410197Y-85589803D01*
X169410197Y-94589803D01*
X169452211Y-94617666D01*
X169500000Y-94627000D01*
X175873000Y-94627000D01*
X175873000Y-103500000D01*
X175883006Y-103549410D01*
X175910197Y-103589803D01*
X177320394Y-105000000D01*
X175910197Y-106410197D01*
X175882334Y-106452211D01*
X175873000Y-106500000D01*
X175873000Y-115373000D01*
X169500000Y-115373000D01*
X169450590Y-115383006D01*
X169410197Y-115410197D01*
X160410197Y-124410197D01*
X160382334Y-124452211D01*
X160373000Y-124500000D01*
X160373000Y-130873000D01*
X151500000Y-130873000D01*
X151450590Y-130883006D01*
X151410197Y-130910197D01*
X150000000Y-132320394D01*
X148589803Y-130910197D01*
X148547789Y-130882334D01*
X148500000Y-130873000D01*
X139627000Y-130873000D01*
X139627000Y-124500000D01*
X139616994Y-124450590D01*
X139589803Y-124410197D01*
X130589803Y-115410197D01*
X130547789Y-115382334D01*
X130500000Y-115373000D01*
X124127000Y-115373000D01*
X124127000Y-113235167D01*
X126164838Y-113235167D01*
X126306883Y-113578943D01*
X126569673Y-113842192D01*
X126913201Y-113984838D01*
X127285167Y-113985162D01*
X127550228Y-113875641D01*
X127813201Y-113984838D01*
X128185167Y-113985162D01*
X128528943Y-113843117D01*
X128792192Y-113580327D01*
X128831709Y-113485159D01*
X128835167Y-113485162D01*
X129178943Y-113343117D01*
X129442192Y-113080327D01*
X129584838Y-112736799D01*
X129585162Y-112364833D01*
X129496352Y-112149896D01*
X129584838Y-111936799D01*
X129585162Y-111564833D01*
X129443117Y-111221057D01*
X129180327Y-110957808D01*
X128836799Y-110815162D01*
X128464833Y-110814838D01*
X128121057Y-110956883D01*
X127857808Y-111219673D01*
X127715162Y-111563201D01*
X127714838Y-111935167D01*
X127792832Y-112123928D01*
X127549772Y-112224359D01*
X127286799Y-112115162D01*
X126914833Y-112114838D01*
X126571057Y-112256883D01*
X126307808Y-112519673D01*
X126165162Y-112863201D01*
X126164838Y-113235167D01*
X124127000Y-113235167D01*
X124127000Y-106500000D01*
X124116994Y-106450590D01*
X124089803Y-106410197D01*
X122681360Y-105001754D01*
X123873012Y-105001754D01*
X123883700Y-105051022D01*
X123910197Y-105089803D01*
X144365091Y-125544697D01*
X144364838Y-125835167D01*
X144474359Y-126100228D01*
X144365162Y-126363201D01*
X144364838Y-126735167D01*
X144387506Y-126790027D01*
X144357808Y-126819673D01*
X144215162Y-127163201D01*
X144214838Y-127535167D01*
X144299420Y-127739873D01*
X144165162Y-128063201D01*
X144164838Y-128435167D01*
X144306883Y-128778943D01*
X144569673Y-129042192D01*
X144913201Y-129184838D01*
X145285167Y-129185162D01*
X145628943Y-129043117D01*
X145892192Y-128780327D01*
X146034838Y-128436799D01*
X146035162Y-128064833D01*
X145950580Y-127860127D01*
X146084838Y-127536799D01*
X146085075Y-127264681D01*
X148106577Y-129286183D01*
X148206883Y-129528943D01*
X148469673Y-129792192D01*
X148714068Y-129893674D01*
X149910197Y-131089803D01*
X149952211Y-131117666D01*
X150001754Y-131126988D01*
X150051022Y-131116300D01*
X150089803Y-131089803D01*
X154694439Y-126485167D01*
X155864838Y-126485167D01*
X156006883Y-126828943D01*
X156269673Y-127092192D01*
X156613201Y-127234838D01*
X156985167Y-127235162D01*
X157173928Y-127157168D01*
X157274359Y-127400228D01*
X157165162Y-127663201D01*
X157164838Y-128035167D01*
X157306883Y-128378943D01*
X157569673Y-128642192D01*
X157913201Y-128784838D01*
X158285167Y-128785162D01*
X158628943Y-128643117D01*
X158892192Y-128380327D01*
X159034838Y-128036799D01*
X159035162Y-127664833D01*
X158925641Y-127399772D01*
X159034838Y-127136799D01*
X159035162Y-126764833D01*
X158893117Y-126421057D01*
X158630327Y-126157808D01*
X158535159Y-126118291D01*
X158535162Y-126114833D01*
X158393117Y-125771057D01*
X158130327Y-125507808D01*
X157786799Y-125365162D01*
X157414833Y-125364838D01*
X157199896Y-125453648D01*
X156986799Y-125365162D01*
X156614833Y-125364838D01*
X156271057Y-125506883D01*
X156007808Y-125769673D01*
X155865162Y-126113201D01*
X155864838Y-126485167D01*
X154694439Y-126485167D01*
X170544741Y-110634865D01*
X170885167Y-110635162D01*
X171175290Y-110515286D01*
X171463201Y-110634838D01*
X171835167Y-110635162D01*
X171854690Y-110627095D01*
X171919673Y-110692192D01*
X172263201Y-110834838D01*
X172635167Y-110835162D01*
X172900228Y-110725641D01*
X173163201Y-110834838D01*
X173535167Y-110835162D01*
X173878943Y-110693117D01*
X174142192Y-110430327D01*
X174284838Y-110086799D01*
X174285162Y-109714833D01*
X174143117Y-109371057D01*
X173880327Y-109107808D01*
X173536799Y-108965162D01*
X173164833Y-108964838D01*
X172899772Y-109074359D01*
X172636799Y-108965162D01*
X172264833Y-108964838D01*
X172245310Y-108972905D01*
X172226022Y-108953584D01*
X174286183Y-106893423D01*
X174528943Y-106793117D01*
X174792192Y-106530327D01*
X174893674Y-106285932D01*
X176089803Y-105089803D01*
X176117666Y-105047789D01*
X176126988Y-104998246D01*
X176116300Y-104948978D01*
X176089803Y-104910197D01*
X168814773Y-97635167D01*
X170414838Y-97635167D01*
X170503648Y-97850104D01*
X170415162Y-98063201D01*
X170414838Y-98435167D01*
X170556883Y-98778943D01*
X170819673Y-99042192D01*
X171163201Y-99184838D01*
X171535167Y-99185162D01*
X171878943Y-99043117D01*
X172142192Y-98780327D01*
X172284838Y-98436799D01*
X172285162Y-98064833D01*
X172207168Y-97876072D01*
X172450228Y-97775641D01*
X172713201Y-97884838D01*
X173085167Y-97885162D01*
X173428943Y-97743117D01*
X173692192Y-97480327D01*
X173834838Y-97136799D01*
X173835162Y-96764833D01*
X173693117Y-96421057D01*
X173430327Y-96157808D01*
X173086799Y-96015162D01*
X172714833Y-96014838D01*
X172449772Y-96124359D01*
X172186799Y-96015162D01*
X171814833Y-96014838D01*
X171471057Y-96156883D01*
X171207808Y-96419673D01*
X171168291Y-96514841D01*
X171164833Y-96514838D01*
X170821057Y-96656883D01*
X170557808Y-96919673D01*
X170415162Y-97263201D01*
X170414838Y-97635167D01*
X168814773Y-97635167D01*
X155541408Y-84361802D01*
X155634838Y-84136799D01*
X155635162Y-83764833D01*
X155525641Y-83499772D01*
X155634838Y-83236799D01*
X155635162Y-82864833D01*
X155612494Y-82809973D01*
X155642192Y-82780327D01*
X155784838Y-82436799D01*
X155785162Y-82064833D01*
X155675641Y-81799772D01*
X155784838Y-81536799D01*
X155785162Y-81164833D01*
X155643117Y-80821057D01*
X155380327Y-80557808D01*
X155036799Y-80415162D01*
X154664833Y-80414838D01*
X154321057Y-80556883D01*
X154057808Y-80819673D01*
X153915162Y-81163201D01*
X153914838Y-81535167D01*
X154024359Y-81800228D01*
X153915162Y-82063201D01*
X153914838Y-82435167D01*
X153937506Y-82490027D01*
X153907808Y-82519673D01*
X153846624Y-82667018D01*
X151893423Y-80713817D01*
X151793117Y-80471057D01*
X151530327Y-80207808D01*
X151285932Y-80106326D01*
X150089803Y-78910197D01*
X150047789Y-78882334D01*
X149998246Y-78873012D01*
X149948978Y-78883700D01*
X149910197Y-78910197D01*
X129455259Y-99365135D01*
X129114833Y-99364838D01*
X128874834Y-99464003D01*
X128636799Y-99365162D01*
X128264833Y-99364838D01*
X128209973Y-99387506D01*
X128180327Y-99357808D01*
X127836799Y-99215162D01*
X127464833Y-99214838D01*
X127310251Y-99278710D01*
X127036799Y-99165162D01*
X126664833Y-99164838D01*
X126321057Y-99306883D01*
X126057808Y-99569673D01*
X125915162Y-99913201D01*
X125914838Y-100285167D01*
X126056883Y-100628943D01*
X126319673Y-100892192D01*
X126663201Y-101034838D01*
X127035167Y-101035162D01*
X127189749Y-100971290D01*
X127463201Y-101084838D01*
X127735319Y-101085075D01*
X125713817Y-103106577D01*
X125471057Y-103206883D01*
X125207808Y-103469673D01*
X125106326Y-103714068D01*
X123910197Y-104910197D01*
X123882334Y-104952211D01*
X123873012Y-105001754D01*
X122681360Y-105001754D01*
X122679606Y-105000000D01*
X124089803Y-103589803D01*
X124117666Y-103547789D01*
X124127000Y-103500000D01*
X124127000Y-94627000D01*
X130500000Y-94627000D01*
X130549410Y-94616994D01*
X130589803Y-94589803D01*
X139589803Y-85589803D01*
X139617666Y-85547789D01*
X139627000Y-85500000D01*
X139627000Y-82285167D01*
X141014838Y-82285167D01*
X141124359Y-82550228D01*
X141015162Y-82813201D01*
X141014838Y-83185167D01*
X141156883Y-83528943D01*
X141419673Y-83792192D01*
X141464903Y-83810973D01*
X141464838Y-83885167D01*
X141606883Y-84228943D01*
X141869673Y-84492192D01*
X142213201Y-84634838D01*
X142585167Y-84635162D01*
X142885521Y-84511059D01*
X143063201Y-84584838D01*
X143435167Y-84585162D01*
X143778943Y-84443117D01*
X144042192Y-84180327D01*
X144184838Y-83836799D01*
X144185162Y-83464833D01*
X144043117Y-83121057D01*
X143780327Y-82857808D01*
X143436799Y-82715162D01*
X143064833Y-82714838D01*
X142876072Y-82792832D01*
X142775641Y-82549772D01*
X142884838Y-82286799D01*
X142885162Y-81914833D01*
X142743117Y-81571057D01*
X142480327Y-81307808D01*
X142136799Y-81165162D01*
X141764833Y-81164838D01*
X141421057Y-81306883D01*
X141157808Y-81569673D01*
X141015162Y-81913201D01*
X141014838Y-82285167D01*
X139627000Y-82285167D01*
X139627000Y-79127000D01*
X148500000Y-79127000D01*
X148549410Y-79116994D01*
X148589803Y-79089803D01*
X150000000Y-77679606D01*
X151410197Y-79089803D01*
M02*
