%FSLAX45Y45*%
G04 Gerber Fmt 4.5, Leading zero omitted, Abs format (unit mm)*
G04 Created by KiCad (PCBNEW 4.0.6-e0-6349~53~ubuntu14.04.1) date Tue Mar 21 08:09:53 2017*
%MOMM*%
%LPD*%
G01*
G04 APERTURE LIST*
%ADD10C,0.127000*%
%ADD11C,0.150000*%
%ADD12C,0.200000*%
%ADD13C,0.300000*%
G04 APERTURE END LIST*
D10*
D11*
X16450000Y-14000000D02*
X18500000Y-11950000D01*
X13550000Y-14000000D02*
X16450000Y-14000000D01*
X11500000Y-11950000D02*
X13550000Y-14000000D01*
X11500000Y-9050000D02*
X11500000Y-11950000D01*
X13550000Y-7000000D02*
X11500000Y-9050000D01*
X16450000Y-7000000D02*
X13550000Y-7000000D01*
X18500000Y-9050000D02*
X16450000Y-7000000D01*
X18500000Y-11950000D02*
X18500000Y-9050000D01*
D12*
X12567000Y-12639000D02*
X12607000Y-12679000D01*
X12607000Y-12639000D02*
X12567000Y-12679000D01*
X12580000Y-10380000D02*
X12620000Y-10420000D01*
X12620000Y-10380000D02*
X12580000Y-10420000D01*
X12665000Y-9990000D02*
X12705000Y-10030000D01*
X12705000Y-9990000D02*
X12665000Y-10030000D01*
X12690000Y-11285000D02*
X12730000Y-11325000D01*
X12730000Y-11285000D02*
X12690000Y-11325000D01*
X12745000Y-9995000D02*
X12785000Y-10035000D01*
X12785000Y-9995000D02*
X12745000Y-10035000D01*
X12757500Y-12829500D02*
X12797500Y-12869500D01*
X12797500Y-12829500D02*
X12757500Y-12869500D01*
X12780000Y-11285000D02*
X12820000Y-11325000D01*
X12820000Y-11285000D02*
X12780000Y-11325000D01*
X12825000Y-10010000D02*
X12865000Y-10050000D01*
X12865000Y-10010000D02*
X12825000Y-10050000D01*
X12845000Y-11155000D02*
X12885000Y-11195000D01*
X12885000Y-11155000D02*
X12845000Y-11195000D01*
X12845000Y-11235000D02*
X12885000Y-11275000D01*
X12885000Y-11235000D02*
X12845000Y-11275000D01*
X12910000Y-10010000D02*
X12950000Y-10050000D01*
X12950000Y-10010000D02*
X12910000Y-10050000D01*
X13430000Y-9080000D02*
X13470000Y-9120000D01*
X13470000Y-9080000D02*
X13430000Y-9120000D01*
X13565000Y-9780000D02*
X13605000Y-9820000D01*
X13605000Y-9780000D02*
X13565000Y-9820000D01*
X13565000Y-11250000D02*
X13605000Y-11290000D01*
X13605000Y-11250000D02*
X13565000Y-11290000D01*
X13605000Y-9560000D02*
X13645000Y-9600000D01*
X13645000Y-9560000D02*
X13605000Y-9600000D01*
X13645000Y-9765000D02*
X13685000Y-9805000D01*
X13685000Y-9765000D02*
X13645000Y-9805000D01*
X13645000Y-11270000D02*
X13685000Y-11310000D01*
X13685000Y-11270000D02*
X13645000Y-11310000D01*
X13660000Y-11140000D02*
X13700000Y-11180000D01*
X13700000Y-11140000D02*
X13660000Y-11180000D01*
X13725000Y-9750000D02*
X13765000Y-9790000D01*
X13765000Y-9750000D02*
X13725000Y-9790000D01*
X13735000Y-9580000D02*
X13775000Y-9620000D01*
X13775000Y-9580000D02*
X13735000Y-9620000D01*
X13735000Y-11250000D02*
X13775000Y-11290000D01*
X13775000Y-11250000D02*
X13735000Y-11290000D01*
X13740000Y-11150000D02*
X13780000Y-11190000D01*
X13780000Y-11150000D02*
X13740000Y-11190000D01*
X13780000Y-9380000D02*
X13820000Y-9420000D01*
X13820000Y-9380000D02*
X13780000Y-9420000D01*
X13805000Y-9740000D02*
X13845000Y-9780000D01*
X13845000Y-9740000D02*
X13805000Y-9780000D01*
X14060000Y-11855000D02*
X14100000Y-11895000D01*
X14100000Y-11855000D02*
X14060000Y-11895000D01*
X14100000Y-11695000D02*
X14140000Y-11735000D01*
X14140000Y-11695000D02*
X14100000Y-11735000D01*
X14175000Y-8190000D02*
X14215000Y-8230000D01*
X14215000Y-8190000D02*
X14175000Y-8230000D01*
X14175000Y-8280000D02*
X14215000Y-8320000D01*
X14215000Y-8280000D02*
X14175000Y-8320000D01*
X14180000Y-9150000D02*
X14220000Y-9190000D01*
X14220000Y-9150000D02*
X14180000Y-9190000D01*
X14190000Y-9235000D02*
X14230000Y-9275000D01*
X14230000Y-9235000D02*
X14190000Y-9275000D01*
X14200000Y-9070000D02*
X14240000Y-9110000D01*
X14240000Y-9070000D02*
X14200000Y-9110000D01*
X14220000Y-8350000D02*
X14260000Y-8390000D01*
X14260000Y-8350000D02*
X14220000Y-8390000D01*
X14235000Y-11655000D02*
X14275000Y-11695000D01*
X14275000Y-11655000D02*
X14235000Y-11695000D01*
X14250000Y-11735000D02*
X14290000Y-11775000D01*
X14290000Y-11735000D02*
X14250000Y-11775000D01*
X14265000Y-11815000D02*
X14305000Y-11855000D01*
X14305000Y-11815000D02*
X14265000Y-11855000D01*
X14280000Y-11895000D02*
X14320000Y-11935000D01*
X14320000Y-11895000D02*
X14280000Y-11935000D01*
X14290000Y-9240000D02*
X14330000Y-9280000D01*
X14330000Y-9240000D02*
X14290000Y-9280000D01*
X14295000Y-10855000D02*
X14335000Y-10895000D01*
X14335000Y-10855000D02*
X14295000Y-10895000D01*
X14295000Y-10945000D02*
X14335000Y-10985000D01*
X14335000Y-10945000D02*
X14295000Y-10985000D01*
X14305000Y-8345000D02*
X14345000Y-8385000D01*
X14345000Y-8345000D02*
X14305000Y-8385000D01*
X14310000Y-9160000D02*
X14350000Y-9200000D01*
X14350000Y-9160000D02*
X14310000Y-9200000D01*
X14480000Y-10530000D02*
X14520000Y-10570000D01*
X14520000Y-10530000D02*
X14480000Y-10570000D01*
X14480000Y-10630000D02*
X14520000Y-10670000D01*
X14520000Y-10630000D02*
X14480000Y-10670000D01*
X14490000Y-12805000D02*
X14530000Y-12845000D01*
X14530000Y-12805000D02*
X14490000Y-12845000D01*
X14495000Y-12715000D02*
X14535000Y-12755000D01*
X14535000Y-12715000D02*
X14495000Y-12755000D01*
X14510000Y-12545000D02*
X14550000Y-12585000D01*
X14550000Y-12545000D02*
X14510000Y-12585000D01*
X14510000Y-12635000D02*
X14550000Y-12675000D01*
X14550000Y-12635000D02*
X14510000Y-12675000D01*
X14525000Y-9780000D02*
X14565000Y-9820000D01*
X14565000Y-9780000D02*
X14525000Y-9820000D01*
X14540000Y-11010000D02*
X14580000Y-11050000D01*
X14580000Y-11010000D02*
X14540000Y-11050000D01*
X14560000Y-9925000D02*
X14600000Y-9965000D01*
X14600000Y-9925000D02*
X14560000Y-9965000D01*
X14560000Y-10015000D02*
X14600000Y-10055000D01*
X14600000Y-10015000D02*
X14560000Y-10055000D01*
X14610000Y-9785000D02*
X14650000Y-9825000D01*
X14650000Y-9785000D02*
X14610000Y-9825000D01*
X14662500Y-10226000D02*
X14702500Y-10266000D01*
X14702500Y-10226000D02*
X14662500Y-10266000D01*
X14705000Y-11085000D02*
X14745000Y-11125000D01*
X14745000Y-11085000D02*
X14705000Y-11125000D01*
X14830000Y-9980000D02*
X14870000Y-10020000D01*
X14870000Y-9980000D02*
X14830000Y-10020000D01*
X14880000Y-12880000D02*
X14920000Y-12920000D01*
X14920000Y-12880000D02*
X14880000Y-12920000D01*
X14930000Y-9980000D02*
X14970000Y-10020000D01*
X14970000Y-9980000D02*
X14930000Y-10020000D01*
X15030000Y-10980000D02*
X15070000Y-11020000D01*
X15070000Y-10980000D02*
X15030000Y-11020000D01*
X15080000Y-8080000D02*
X15120000Y-8120000D01*
X15120000Y-8080000D02*
X15080000Y-8120000D01*
X15130000Y-10980000D02*
X15170000Y-11020000D01*
X15170000Y-10980000D02*
X15130000Y-11020000D01*
X15280000Y-10730000D02*
X15320000Y-10770000D01*
X15320000Y-10730000D02*
X15280000Y-10770000D01*
X15335000Y-11180000D02*
X15375000Y-11220000D01*
X15375000Y-11180000D02*
X15335000Y-11220000D01*
X15425000Y-11180000D02*
X15465000Y-11220000D01*
X15465000Y-11180000D02*
X15425000Y-11220000D01*
X15430000Y-9630000D02*
X15470000Y-9670000D01*
X15470000Y-9630000D02*
X15430000Y-9670000D01*
X15450000Y-8285000D02*
X15490000Y-8325000D01*
X15490000Y-8285000D02*
X15450000Y-8325000D01*
X15450000Y-8375000D02*
X15490000Y-8415000D01*
X15490000Y-8375000D02*
X15450000Y-8415000D01*
X15465000Y-8115000D02*
X15505000Y-8155000D01*
X15505000Y-8115000D02*
X15465000Y-8155000D01*
X15465000Y-8205000D02*
X15505000Y-8245000D01*
X15505000Y-8205000D02*
X15465000Y-8245000D01*
X15480000Y-10330000D02*
X15520000Y-10370000D01*
X15520000Y-10330000D02*
X15480000Y-10370000D01*
X15480000Y-10430000D02*
X15520000Y-10470000D01*
X15520000Y-10430000D02*
X15480000Y-10470000D01*
X15490000Y-10830000D02*
X15530000Y-10870000D01*
X15530000Y-10830000D02*
X15490000Y-10870000D01*
X15575000Y-10835000D02*
X15615000Y-10875000D01*
X15615000Y-10835000D02*
X15575000Y-10875000D01*
X15625000Y-9985000D02*
X15665000Y-10025000D01*
X15665000Y-9985000D02*
X15625000Y-10025000D01*
X15645000Y-11800000D02*
X15685000Y-11840000D01*
X15685000Y-11800000D02*
X15645000Y-11840000D01*
X15660000Y-12610000D02*
X15700000Y-12650000D01*
X15700000Y-12610000D02*
X15660000Y-12650000D01*
X15665000Y-11720000D02*
X15705000Y-11760000D01*
X15705000Y-11720000D02*
X15665000Y-11760000D01*
X15680000Y-9065000D02*
X15720000Y-9105000D01*
X15720000Y-9065000D02*
X15680000Y-9105000D01*
X15680000Y-10050000D02*
X15720000Y-10090000D01*
X15720000Y-10050000D02*
X15680000Y-10090000D01*
X15690000Y-10130000D02*
X15730000Y-10170000D01*
X15730000Y-10130000D02*
X15690000Y-10170000D01*
X15695000Y-9145000D02*
X15735000Y-9185000D01*
X15735000Y-9145000D02*
X15695000Y-9185000D01*
X15710000Y-9225000D02*
X15750000Y-9265000D01*
X15750000Y-9225000D02*
X15710000Y-9265000D01*
X15725000Y-9305000D02*
X15765000Y-9345000D01*
X15765000Y-9305000D02*
X15725000Y-9345000D01*
X15730000Y-9930000D02*
X15770000Y-9970000D01*
X15770000Y-9930000D02*
X15730000Y-9970000D01*
X15740000Y-12610000D02*
X15780000Y-12650000D01*
X15780000Y-12610000D02*
X15740000Y-12650000D01*
X15755000Y-11895000D02*
X15795000Y-11935000D01*
X15795000Y-11895000D02*
X15755000Y-11935000D01*
X15775000Y-11725000D02*
X15815000Y-11765000D01*
X15815000Y-11725000D02*
X15775000Y-11765000D01*
X15775000Y-11815000D02*
X15815000Y-11855000D01*
X15815000Y-11815000D02*
X15775000Y-11855000D01*
X15780000Y-10130000D02*
X15820000Y-10170000D01*
X15820000Y-10130000D02*
X15780000Y-10170000D01*
X15790000Y-12675000D02*
X15830000Y-12715000D01*
X15830000Y-12675000D02*
X15790000Y-12715000D01*
X15790000Y-12765000D02*
X15830000Y-12805000D01*
X15830000Y-12765000D02*
X15790000Y-12805000D01*
X15885000Y-9240000D02*
X15925000Y-9280000D01*
X15925000Y-9240000D02*
X15885000Y-9280000D01*
X15885000Y-11945000D02*
X15925000Y-11985000D01*
X15925000Y-11945000D02*
X15885000Y-11985000D01*
X15900000Y-9105000D02*
X15940000Y-9145000D01*
X15940000Y-9105000D02*
X15900000Y-9145000D01*
X15980000Y-9380000D02*
X16020000Y-9420000D01*
X16020000Y-9380000D02*
X15980000Y-9420000D01*
X16130000Y-11480000D02*
X16170000Y-11520000D01*
X16170000Y-11480000D02*
X16130000Y-11520000D01*
X16155000Y-11225000D02*
X16195000Y-11265000D01*
X16195000Y-11225000D02*
X16155000Y-11265000D01*
X16220000Y-11380000D02*
X16260000Y-11420000D01*
X16260000Y-11380000D02*
X16220000Y-11420000D01*
X16230000Y-9680000D02*
X16270000Y-9720000D01*
X16270000Y-9680000D02*
X16230000Y-9720000D01*
X16235000Y-9765000D02*
X16275000Y-9805000D01*
X16275000Y-9765000D02*
X16235000Y-9805000D01*
X16235000Y-11210000D02*
X16275000Y-11250000D01*
X16275000Y-11210000D02*
X16235000Y-11250000D01*
X16300000Y-9810000D02*
X16340000Y-9850000D01*
X16340000Y-9810000D02*
X16300000Y-9850000D01*
X16315000Y-9680000D02*
X16355000Y-9720000D01*
X16355000Y-9680000D02*
X16315000Y-9720000D01*
X16315000Y-11195000D02*
X16355000Y-11235000D01*
X16355000Y-11195000D02*
X16315000Y-11235000D01*
X16355000Y-11400000D02*
X16395000Y-11440000D01*
X16395000Y-11400000D02*
X16355000Y-11440000D01*
X16395000Y-9700000D02*
X16435000Y-9740000D01*
X16435000Y-9700000D02*
X16395000Y-9740000D01*
X16395000Y-11180000D02*
X16435000Y-11220000D01*
X16435000Y-11180000D02*
X16395000Y-11220000D01*
X16480000Y-11830000D02*
X16520000Y-11870000D01*
X16520000Y-11830000D02*
X16480000Y-11870000D01*
X16630000Y-9180000D02*
X16670000Y-9220000D01*
X16670000Y-9180000D02*
X16630000Y-9220000D01*
X17050000Y-10950000D02*
X17090000Y-10990000D01*
X17090000Y-10950000D02*
X17050000Y-10990000D01*
X17115000Y-9725000D02*
X17155000Y-9765000D01*
X17155000Y-9725000D02*
X17115000Y-9765000D01*
X17115000Y-9805000D02*
X17155000Y-9845000D01*
X17155000Y-9805000D02*
X17115000Y-9845000D01*
X17145000Y-10950000D02*
X17185000Y-10990000D01*
X17185000Y-10950000D02*
X17145000Y-10990000D01*
X17180000Y-9675000D02*
X17220000Y-9715000D01*
X17220000Y-9675000D02*
X17180000Y-9715000D01*
X17225000Y-10970000D02*
X17265000Y-11010000D01*
X17265000Y-10970000D02*
X17225000Y-11010000D01*
X17270000Y-9675000D02*
X17310000Y-9715000D01*
X17310000Y-9675000D02*
X17270000Y-9715000D01*
X17315000Y-10970000D02*
X17355000Y-11010000D01*
X17355000Y-10970000D02*
X17315000Y-11010000D01*
X17380000Y-10580000D02*
X17420000Y-10620000D01*
X17420000Y-10580000D02*
X17380000Y-10620000D01*
X12411018Y-12618880D02*
G75*
G03X12411018Y-12618880I-25000J0D01*
G01*
X12373644Y-12652467D02*
X12419606Y-12606505D01*
X12352431Y-12631254D02*
X12398393Y-12585292D01*
X12419606Y-12606505D02*
G75*
G03X12398393Y-12585292I-10607J10607D01*
G01*
X12352431Y-12631254D02*
G75*
G03X12373644Y-12652467I10607J-10607D01*
G01*
X12905993Y-13113854D02*
G75*
G03X12905993Y-13113854I-25000J0D01*
G01*
X12868619Y-13147442D02*
X12914581Y-13101480D01*
X12847406Y-13126229D02*
X12893368Y-13080267D01*
X12914581Y-13101480D02*
G75*
G03X12893368Y-13080267I-10607J10607D01*
G01*
X12847406Y-13126229D02*
G75*
G03X12868619Y-13147442I10607J-10607D01*
G01*
X12647648Y-12471171D02*
X12647648Y-12526171D01*
X12620148Y-12498671D02*
X12675148Y-12498671D01*
X12624667Y-12500439D02*
X12645880Y-12521652D01*
X12649416Y-12475690D02*
X12670629Y-12496904D01*
X12645880Y-12521652D02*
G75*
G03X12670629Y-12496904I12374J12374D01*
G01*
X12649416Y-12475690D02*
G75*
G03X12624667Y-12500439I-12374J-12374D01*
G01*
X13001201Y-12824725D02*
X13001201Y-12879725D01*
X12973701Y-12852225D02*
X13028701Y-12852225D01*
X12978220Y-12853993D02*
X12999433Y-12875206D01*
X13002969Y-12829244D02*
X13024182Y-12850457D01*
X12999433Y-12875206D02*
G75*
G03X13024182Y-12850457I12374J12374D01*
G01*
X13002969Y-12829244D02*
G75*
G03X12978220Y-12853993I-12374J-12374D01*
G01*
X11924421Y-9392921D02*
X11924421Y-9321079D01*
X11852579Y-9321079D01*
X11852579Y-9392921D01*
X11924421Y-9392921D01*
X11924421Y-9646921D02*
X11924421Y-9575079D01*
X11852579Y-9575079D01*
X11852579Y-9646921D01*
X11924421Y-9646921D01*
X11924421Y-9900921D02*
X11924421Y-9829079D01*
X11852579Y-9829079D01*
X11852579Y-9900921D01*
X11924421Y-9900921D01*
X11924421Y-10154921D02*
X11924421Y-10083079D01*
X11852579Y-10083079D01*
X11852579Y-10154921D01*
X11924421Y-10154921D01*
X11924421Y-10408921D02*
X11924421Y-10337079D01*
X11852579Y-10337079D01*
X11852579Y-10408921D01*
X11924421Y-10408921D01*
X11924421Y-10662921D02*
X11924421Y-10591079D01*
X11852579Y-10591079D01*
X11852579Y-10662921D01*
X11924421Y-10662921D01*
X11924421Y-10916921D02*
X11924421Y-10845079D01*
X11852579Y-10845079D01*
X11852579Y-10916921D01*
X11924421Y-10916921D01*
X11924421Y-11170921D02*
X11924421Y-11099079D01*
X11852579Y-11099079D01*
X11852579Y-11170921D01*
X11924421Y-11170921D01*
X11924421Y-11424921D02*
X11924421Y-11353079D01*
X11852579Y-11353079D01*
X11852579Y-11424921D01*
X11924421Y-11424921D01*
X11924421Y-11678921D02*
X11924421Y-11607079D01*
X11852579Y-11607079D01*
X11852579Y-11678921D01*
X11924421Y-11678921D01*
X12178421Y-9392921D02*
X12178421Y-9321079D01*
X12106579Y-9321079D01*
X12106579Y-9392921D01*
X12178421Y-9392921D01*
X12178421Y-9646921D02*
X12178421Y-9575079D01*
X12106579Y-9575079D01*
X12106579Y-9646921D01*
X12178421Y-9646921D01*
X12178421Y-9900921D02*
X12178421Y-9829079D01*
X12106579Y-9829079D01*
X12106579Y-9900921D01*
X12178421Y-9900921D01*
X12178421Y-10154921D02*
X12178421Y-10083079D01*
X12106579Y-10083079D01*
X12106579Y-10154921D01*
X12178421Y-10154921D01*
X12178421Y-10408921D02*
X12178421Y-10337079D01*
X12106579Y-10337079D01*
X12106579Y-10408921D01*
X12178421Y-10408921D01*
X12178421Y-10662921D02*
X12178421Y-10591079D01*
X12106579Y-10591079D01*
X12106579Y-10662921D01*
X12178421Y-10662921D01*
X12178421Y-10916921D02*
X12178421Y-10845079D01*
X12106579Y-10845079D01*
X12106579Y-10916921D01*
X12178421Y-10916921D01*
X12178421Y-11170921D02*
X12178421Y-11099079D01*
X12106579Y-11099079D01*
X12106579Y-11170921D01*
X12178421Y-11170921D01*
X12178421Y-11424921D02*
X12178421Y-11353079D01*
X12106579Y-11353079D01*
X12106579Y-11424921D01*
X12178421Y-11424921D01*
X12178421Y-11678921D02*
X12178421Y-11607079D01*
X12106579Y-11607079D01*
X12106579Y-11678921D01*
X12178421Y-11678921D01*
X12241921Y-8630921D02*
X12241921Y-8559079D01*
X12170079Y-8559079D01*
X12170079Y-8630921D01*
X12241921Y-8630921D01*
X12421526Y-8451316D02*
X12421526Y-8379473D01*
X12349684Y-8379473D01*
X12349684Y-8451316D01*
X12421526Y-8451316D01*
X12601132Y-8271711D02*
X12601132Y-8199868D01*
X12529289Y-8199868D01*
X12529289Y-8271711D01*
X12601132Y-8271711D01*
X12780737Y-8092106D02*
X12780737Y-8020263D01*
X12708894Y-8020263D01*
X12708894Y-8092106D01*
X12780737Y-8092106D01*
X12960342Y-7912501D02*
X12960342Y-7840658D01*
X12888499Y-7840658D01*
X12888499Y-7912501D01*
X12960342Y-7912501D01*
X13139947Y-7732896D02*
X13139947Y-7661053D01*
X13068104Y-7661053D01*
X13068104Y-7732896D01*
X13139947Y-7732896D01*
X13892921Y-7424421D02*
X13892921Y-7352579D01*
X13821079Y-7352579D01*
X13821079Y-7424421D01*
X13892921Y-7424421D01*
X13892921Y-7678421D02*
X13892921Y-7606579D01*
X13821079Y-7606579D01*
X13821079Y-7678421D01*
X13892921Y-7678421D01*
X13892921Y-13393421D02*
X13892921Y-13321579D01*
X13821079Y-13321579D01*
X13821079Y-13393421D01*
X13892921Y-13393421D01*
X13892921Y-13647421D02*
X13892921Y-13575579D01*
X13821079Y-13575579D01*
X13821079Y-13647421D01*
X13892921Y-13647421D01*
X14146921Y-7424421D02*
X14146921Y-7352579D01*
X14075079Y-7352579D01*
X14075079Y-7424421D01*
X14146921Y-7424421D01*
X14146921Y-7678421D02*
X14146921Y-7606579D01*
X14075079Y-7606579D01*
X14075079Y-7678421D01*
X14146921Y-7678421D01*
X14146921Y-13393421D02*
X14146921Y-13321579D01*
X14075079Y-13321579D01*
X14075079Y-13393421D01*
X14146921Y-13393421D01*
X14146921Y-13647421D02*
X14146921Y-13575579D01*
X14075079Y-13575579D01*
X14075079Y-13647421D01*
X14146921Y-13647421D01*
X14400921Y-7424421D02*
X14400921Y-7352579D01*
X14329079Y-7352579D01*
X14329079Y-7424421D01*
X14400921Y-7424421D01*
X14400921Y-7678421D02*
X14400921Y-7606579D01*
X14329079Y-7606579D01*
X14329079Y-7678421D01*
X14400921Y-7678421D01*
X14400921Y-13393421D02*
X14400921Y-13321579D01*
X14329079Y-13321579D01*
X14329079Y-13393421D01*
X14400921Y-13393421D01*
X14400921Y-13647421D02*
X14400921Y-13575579D01*
X14329079Y-13575579D01*
X14329079Y-13647421D01*
X14400921Y-13647421D01*
X14654921Y-7424421D02*
X14654921Y-7352579D01*
X14583079Y-7352579D01*
X14583079Y-7424421D01*
X14654921Y-7424421D01*
X14654921Y-7678421D02*
X14654921Y-7606579D01*
X14583079Y-7606579D01*
X14583079Y-7678421D01*
X14654921Y-7678421D01*
X14654921Y-13393421D02*
X14654921Y-13321579D01*
X14583079Y-13321579D01*
X14583079Y-13393421D01*
X14654921Y-13393421D01*
X14654921Y-13647421D02*
X14654921Y-13575579D01*
X14583079Y-13575579D01*
X14583079Y-13647421D01*
X14654921Y-13647421D01*
X14908921Y-7424421D02*
X14908921Y-7352579D01*
X14837079Y-7352579D01*
X14837079Y-7424421D01*
X14908921Y-7424421D01*
X14908921Y-7678421D02*
X14908921Y-7606579D01*
X14837079Y-7606579D01*
X14837079Y-7678421D01*
X14908921Y-7678421D01*
X14908921Y-13393421D02*
X14908921Y-13321579D01*
X14837079Y-13321579D01*
X14837079Y-13393421D01*
X14908921Y-13393421D01*
X14908921Y-13647421D02*
X14908921Y-13575579D01*
X14837079Y-13575579D01*
X14837079Y-13647421D01*
X14908921Y-13647421D01*
X15162921Y-7424421D02*
X15162921Y-7352579D01*
X15091079Y-7352579D01*
X15091079Y-7424421D01*
X15162921Y-7424421D01*
X15162921Y-7678421D02*
X15162921Y-7606579D01*
X15091079Y-7606579D01*
X15091079Y-7678421D01*
X15162921Y-7678421D01*
X15162921Y-13393421D02*
X15162921Y-13321579D01*
X15091079Y-13321579D01*
X15091079Y-13393421D01*
X15162921Y-13393421D01*
X15162921Y-13647421D02*
X15162921Y-13575579D01*
X15091079Y-13575579D01*
X15091079Y-13647421D01*
X15162921Y-13647421D01*
X15416921Y-7424421D02*
X15416921Y-7352579D01*
X15345079Y-7352579D01*
X15345079Y-7424421D01*
X15416921Y-7424421D01*
X15416921Y-7678421D02*
X15416921Y-7606579D01*
X15345079Y-7606579D01*
X15345079Y-7678421D01*
X15416921Y-7678421D01*
X15416921Y-13393421D02*
X15416921Y-13321579D01*
X15345079Y-13321579D01*
X15345079Y-13393421D01*
X15416921Y-13393421D01*
X15416921Y-13647421D02*
X15416921Y-13575579D01*
X15345079Y-13575579D01*
X15345079Y-13647421D01*
X15416921Y-13647421D01*
X15670921Y-7424421D02*
X15670921Y-7352579D01*
X15599079Y-7352579D01*
X15599079Y-7424421D01*
X15670921Y-7424421D01*
X15670921Y-7678421D02*
X15670921Y-7606579D01*
X15599079Y-7606579D01*
X15599079Y-7678421D01*
X15670921Y-7678421D01*
X15670921Y-13393421D02*
X15670921Y-13321579D01*
X15599079Y-13321579D01*
X15599079Y-13393421D01*
X15670921Y-13393421D01*
X15670921Y-13647421D02*
X15670921Y-13575579D01*
X15599079Y-13575579D01*
X15599079Y-13647421D01*
X15670921Y-13647421D01*
X15924921Y-7424421D02*
X15924921Y-7352579D01*
X15853079Y-7352579D01*
X15853079Y-7424421D01*
X15924921Y-7424421D01*
X15924921Y-7678421D02*
X15924921Y-7606579D01*
X15853079Y-7606579D01*
X15853079Y-7678421D01*
X15924921Y-7678421D01*
X15924921Y-13393421D02*
X15924921Y-13321579D01*
X15853079Y-13321579D01*
X15853079Y-13393421D01*
X15924921Y-13393421D01*
X15924921Y-13647421D02*
X15924921Y-13575579D01*
X15853079Y-13575579D01*
X15853079Y-13647421D01*
X15924921Y-13647421D01*
X16178921Y-7424421D02*
X16178921Y-7352579D01*
X16107079Y-7352579D01*
X16107079Y-7424421D01*
X16178921Y-7424421D01*
X16178921Y-7678421D02*
X16178921Y-7606579D01*
X16107079Y-7606579D01*
X16107079Y-7678421D01*
X16178921Y-7678421D01*
X16178921Y-13393421D02*
X16178921Y-13321579D01*
X16107079Y-13321579D01*
X16107079Y-13393421D01*
X16178921Y-13393421D01*
X16178921Y-13647421D02*
X16178921Y-13575579D01*
X16107079Y-13575579D01*
X16107079Y-13647421D01*
X16178921Y-13647421D01*
X16931896Y-13338947D02*
X16931896Y-13267104D01*
X16860053Y-13267104D01*
X16860053Y-13338947D01*
X16931896Y-13338947D01*
X17111501Y-13159342D02*
X17111501Y-13087499D01*
X17039658Y-13087499D01*
X17039658Y-13159342D01*
X17111501Y-13159342D01*
X17291106Y-12979737D02*
X17291106Y-12907894D01*
X17219263Y-12907894D01*
X17219263Y-12979737D01*
X17291106Y-12979737D01*
X17470711Y-12800132D02*
X17470711Y-12728289D01*
X17398868Y-12728289D01*
X17398868Y-12800132D01*
X17470711Y-12800132D01*
X17650316Y-12620526D02*
X17650316Y-12548684D01*
X17578474Y-12548684D01*
X17578474Y-12620526D01*
X17650316Y-12620526D01*
X17829921Y-12440921D02*
X17829921Y-12369079D01*
X17758079Y-12369079D01*
X17758079Y-12440921D01*
X17829921Y-12440921D01*
X17893421Y-9392921D02*
X17893421Y-9321079D01*
X17821579Y-9321079D01*
X17821579Y-9392921D01*
X17893421Y-9392921D01*
X17893421Y-9646921D02*
X17893421Y-9575079D01*
X17821579Y-9575079D01*
X17821579Y-9646921D01*
X17893421Y-9646921D01*
X17893421Y-9900921D02*
X17893421Y-9829079D01*
X17821579Y-9829079D01*
X17821579Y-9900921D01*
X17893421Y-9900921D01*
X17893421Y-10154921D02*
X17893421Y-10083079D01*
X17821579Y-10083079D01*
X17821579Y-10154921D01*
X17893421Y-10154921D01*
X17893421Y-10408921D02*
X17893421Y-10337079D01*
X17821579Y-10337079D01*
X17821579Y-10408921D01*
X17893421Y-10408921D01*
X17893421Y-10662921D02*
X17893421Y-10591079D01*
X17821579Y-10591079D01*
X17821579Y-10662921D01*
X17893421Y-10662921D01*
X17893421Y-10916921D02*
X17893421Y-10845079D01*
X17821579Y-10845079D01*
X17821579Y-10916921D01*
X17893421Y-10916921D01*
X17893421Y-11170921D02*
X17893421Y-11099079D01*
X17821579Y-11099079D01*
X17821579Y-11170921D01*
X17893421Y-11170921D01*
X17893421Y-11424921D02*
X17893421Y-11353079D01*
X17821579Y-11353079D01*
X17821579Y-11424921D01*
X17893421Y-11424921D01*
X17893421Y-11678921D02*
X17893421Y-11607079D01*
X17821579Y-11607079D01*
X17821579Y-11678921D01*
X17893421Y-11678921D01*
X18147421Y-9392921D02*
X18147421Y-9321079D01*
X18075579Y-9321079D01*
X18075579Y-9392921D01*
X18147421Y-9392921D01*
X18147421Y-9646921D02*
X18147421Y-9575079D01*
X18075579Y-9575079D01*
X18075579Y-9646921D01*
X18147421Y-9646921D01*
X18147421Y-9900921D02*
X18147421Y-9829079D01*
X18075579Y-9829079D01*
X18075579Y-9900921D01*
X18147421Y-9900921D01*
X18147421Y-10154921D02*
X18147421Y-10083079D01*
X18075579Y-10083079D01*
X18075579Y-10154921D01*
X18147421Y-10154921D01*
X18147421Y-10408921D02*
X18147421Y-10337079D01*
X18075579Y-10337079D01*
X18075579Y-10408921D01*
X18147421Y-10408921D01*
X18147421Y-10662921D02*
X18147421Y-10591079D01*
X18075579Y-10591079D01*
X18075579Y-10662921D01*
X18147421Y-10662921D01*
X18147421Y-10916921D02*
X18147421Y-10845079D01*
X18075579Y-10845079D01*
X18075579Y-10916921D01*
X18147421Y-10916921D01*
X18147421Y-11170921D02*
X18147421Y-11099079D01*
X18075579Y-11099079D01*
X18075579Y-11170921D01*
X18147421Y-11170921D01*
X18147421Y-11424921D02*
X18147421Y-11353079D01*
X18075579Y-11353079D01*
X18075579Y-11424921D01*
X18147421Y-11424921D01*
X18147421Y-11678921D02*
X18147421Y-11607079D01*
X18075579Y-11607079D01*
X18075579Y-11678921D01*
X18147421Y-11678921D01*
D13*
X11763928Y-14473214D02*
X11763928Y-14173214D01*
X11835357Y-14173214D01*
X11878214Y-14187500D01*
X11906786Y-14216071D01*
X11921071Y-14244643D01*
X11935357Y-14301786D01*
X11935357Y-14344643D01*
X11921071Y-14401786D01*
X11906786Y-14430357D01*
X11878214Y-14458929D01*
X11835357Y-14473214D01*
X11763928Y-14473214D01*
X12063928Y-14473214D02*
X12063928Y-14273214D01*
X12063928Y-14330357D02*
X12078214Y-14301786D01*
X12092500Y-14287500D01*
X12121071Y-14273214D01*
X12149643Y-14273214D01*
X12249643Y-14473214D02*
X12249643Y-14273214D01*
X12249643Y-14173214D02*
X12235357Y-14187500D01*
X12249643Y-14201786D01*
X12263928Y-14187500D01*
X12249643Y-14173214D01*
X12249643Y-14201786D01*
X12435357Y-14473214D02*
X12406786Y-14458929D01*
X12392500Y-14430357D01*
X12392500Y-14173214D01*
X12592500Y-14473214D02*
X12563928Y-14458929D01*
X12549643Y-14430357D01*
X12549643Y-14173214D01*
X12935357Y-14473214D02*
X12935357Y-14173214D01*
X13035357Y-14387500D01*
X13135357Y-14173214D01*
X13135357Y-14473214D01*
X13406786Y-14473214D02*
X13406786Y-14316071D01*
X13392500Y-14287500D01*
X13363928Y-14273214D01*
X13306786Y-14273214D01*
X13278214Y-14287500D01*
X13406786Y-14458929D02*
X13378214Y-14473214D01*
X13306786Y-14473214D01*
X13278214Y-14458929D01*
X13263928Y-14430357D01*
X13263928Y-14401786D01*
X13278214Y-14373214D01*
X13306786Y-14358929D01*
X13378214Y-14358929D01*
X13406786Y-14344643D01*
X13549643Y-14273214D02*
X13549643Y-14573214D01*
X13549643Y-14287500D02*
X13578214Y-14273214D01*
X13635357Y-14273214D01*
X13663928Y-14287500D01*
X13678214Y-14301786D01*
X13692500Y-14330357D01*
X13692500Y-14416071D01*
X13678214Y-14444643D01*
X13663928Y-14458929D01*
X13635357Y-14473214D01*
X13578214Y-14473214D01*
X13549643Y-14458929D01*
X13821071Y-14444643D02*
X13835357Y-14458929D01*
X13821071Y-14473214D01*
X13806786Y-14458929D01*
X13821071Y-14444643D01*
X13821071Y-14473214D01*
X13821071Y-14287500D02*
X13835357Y-14301786D01*
X13821071Y-14316071D01*
X13806786Y-14301786D01*
X13821071Y-14287500D01*
X13821071Y-14316071D01*
X11452500Y-14947500D02*
X11492500Y-14987500D01*
X11492500Y-14947500D02*
X11452500Y-14987500D01*
X11821071Y-14803214D02*
X11849643Y-14803214D01*
X11878214Y-14817500D01*
X11892500Y-14831786D01*
X11906786Y-14860357D01*
X11921071Y-14917500D01*
X11921071Y-14988929D01*
X11906786Y-15046071D01*
X11892500Y-15074643D01*
X11878214Y-15088929D01*
X11849643Y-15103214D01*
X11821071Y-15103214D01*
X11792500Y-15088929D01*
X11778214Y-15074643D01*
X11763928Y-15046071D01*
X11749643Y-14988929D01*
X11749643Y-14917500D01*
X11763928Y-14860357D01*
X11778214Y-14831786D01*
X11792500Y-14817500D01*
X11821071Y-14803214D01*
X12049643Y-15074643D02*
X12063928Y-15088929D01*
X12049643Y-15103214D01*
X12035357Y-15088929D01*
X12049643Y-15074643D01*
X12049643Y-15103214D01*
X12321071Y-14903214D02*
X12321071Y-15103214D01*
X12249643Y-14788929D02*
X12178214Y-15003214D01*
X12363928Y-15003214D01*
X12535357Y-14803214D02*
X12563928Y-14803214D01*
X12592500Y-14817500D01*
X12606786Y-14831786D01*
X12621071Y-14860357D01*
X12635357Y-14917500D01*
X12635357Y-14988929D01*
X12621071Y-15046071D01*
X12606786Y-15074643D01*
X12592500Y-15088929D01*
X12563928Y-15103214D01*
X12535357Y-15103214D01*
X12506786Y-15088929D01*
X12492500Y-15074643D01*
X12478214Y-15046071D01*
X12463928Y-14988929D01*
X12463928Y-14917500D01*
X12478214Y-14860357D01*
X12492500Y-14831786D01*
X12506786Y-14817500D01*
X12535357Y-14803214D01*
X12763928Y-15103214D02*
X12763928Y-14903214D01*
X12763928Y-14931786D02*
X12778214Y-14917500D01*
X12806786Y-14903214D01*
X12849643Y-14903214D01*
X12878214Y-14917500D01*
X12892500Y-14946071D01*
X12892500Y-15103214D01*
X12892500Y-14946071D02*
X12906786Y-14917500D01*
X12935357Y-14903214D01*
X12978214Y-14903214D01*
X13006786Y-14917500D01*
X13021071Y-14946071D01*
X13021071Y-15103214D01*
X13163928Y-15103214D02*
X13163928Y-14903214D01*
X13163928Y-14931786D02*
X13178214Y-14917500D01*
X13206786Y-14903214D01*
X13249643Y-14903214D01*
X13278214Y-14917500D01*
X13292500Y-14946071D01*
X13292500Y-15103214D01*
X13292500Y-14946071D02*
X13306786Y-14917500D01*
X13335357Y-14903214D01*
X13378214Y-14903214D01*
X13406786Y-14917500D01*
X13421071Y-14946071D01*
X13421071Y-15103214D01*
X14006786Y-14788929D02*
X13749643Y-15174643D01*
X14392500Y-14803214D02*
X14421071Y-14803214D01*
X14449643Y-14817500D01*
X14463928Y-14831786D01*
X14478214Y-14860357D01*
X14492500Y-14917500D01*
X14492500Y-14988929D01*
X14478214Y-15046071D01*
X14463928Y-15074643D01*
X14449643Y-15088929D01*
X14421071Y-15103214D01*
X14392500Y-15103214D01*
X14363928Y-15088929D01*
X14349643Y-15074643D01*
X14335357Y-15046071D01*
X14321071Y-14988929D01*
X14321071Y-14917500D01*
X14335357Y-14860357D01*
X14349643Y-14831786D01*
X14363928Y-14817500D01*
X14392500Y-14803214D01*
X14621071Y-15074643D02*
X14635357Y-15088929D01*
X14621071Y-15103214D01*
X14606786Y-15088929D01*
X14621071Y-15074643D01*
X14621071Y-15103214D01*
X14821071Y-14803214D02*
X14849643Y-14803214D01*
X14878214Y-14817500D01*
X14892500Y-14831786D01*
X14906785Y-14860357D01*
X14921071Y-14917500D01*
X14921071Y-14988929D01*
X14906785Y-15046071D01*
X14892500Y-15074643D01*
X14878214Y-15088929D01*
X14849643Y-15103214D01*
X14821071Y-15103214D01*
X14792500Y-15088929D01*
X14778214Y-15074643D01*
X14763928Y-15046071D01*
X14749643Y-14988929D01*
X14749643Y-14917500D01*
X14763928Y-14860357D01*
X14778214Y-14831786D01*
X14792500Y-14817500D01*
X14821071Y-14803214D01*
X15206785Y-15103214D02*
X15035357Y-15103214D01*
X15121071Y-15103214D02*
X15121071Y-14803214D01*
X15092500Y-14846071D01*
X15063928Y-14874643D01*
X15035357Y-14888929D01*
X15463928Y-14803214D02*
X15406785Y-14803214D01*
X15378214Y-14817500D01*
X15363928Y-14831786D01*
X15335357Y-14874643D01*
X15321071Y-14931786D01*
X15321071Y-15046071D01*
X15335357Y-15074643D01*
X15349643Y-15088929D01*
X15378214Y-15103214D01*
X15435357Y-15103214D01*
X15463928Y-15088929D01*
X15478214Y-15074643D01*
X15492500Y-15046071D01*
X15492500Y-14974643D01*
X15478214Y-14946071D01*
X15463928Y-14931786D01*
X15435357Y-14917500D01*
X15378214Y-14917500D01*
X15349643Y-14931786D01*
X15335357Y-14946071D01*
X15321071Y-14974643D01*
X15606786Y-14803214D02*
X15606786Y-14860357D01*
X15721071Y-14803214D02*
X15721071Y-14860357D01*
X16163928Y-15217500D02*
X16149643Y-15203214D01*
X16121071Y-15160357D01*
X16106785Y-15131786D01*
X16092500Y-15088929D01*
X16078214Y-15017500D01*
X16078214Y-14960357D01*
X16092500Y-14888929D01*
X16106785Y-14846071D01*
X16121071Y-14817500D01*
X16149643Y-14774643D01*
X16163928Y-14760357D01*
X16435357Y-15103214D02*
X16263928Y-15103214D01*
X16349643Y-15103214D02*
X16349643Y-14803214D01*
X16321071Y-14846071D01*
X16292500Y-14874643D01*
X16263928Y-14888929D01*
X16721071Y-15103214D02*
X16549643Y-15103214D01*
X16635357Y-15103214D02*
X16635357Y-14803214D01*
X16606785Y-14846071D01*
X16578214Y-14874643D01*
X16549643Y-14888929D01*
X16821071Y-14803214D02*
X17021071Y-14803214D01*
X16892500Y-15103214D01*
X17363928Y-15103214D02*
X17363928Y-14803214D01*
X17492500Y-15103214D02*
X17492500Y-14946071D01*
X17478214Y-14917500D01*
X17449643Y-14903214D01*
X17406786Y-14903214D01*
X17378214Y-14917500D01*
X17363928Y-14931786D01*
X17678214Y-15103214D02*
X17649643Y-15088929D01*
X17635357Y-15074643D01*
X17621071Y-15046071D01*
X17621071Y-14960357D01*
X17635357Y-14931786D01*
X17649643Y-14917500D01*
X17678214Y-14903214D01*
X17721071Y-14903214D01*
X17749643Y-14917500D01*
X17763928Y-14931786D01*
X17778214Y-14960357D01*
X17778214Y-15046071D01*
X17763928Y-15074643D01*
X17749643Y-15088929D01*
X17721071Y-15103214D01*
X17678214Y-15103214D01*
X17949643Y-15103214D02*
X17921071Y-15088929D01*
X17906786Y-15060357D01*
X17906786Y-14803214D01*
X18178214Y-15088929D02*
X18149643Y-15103214D01*
X18092500Y-15103214D01*
X18063929Y-15088929D01*
X18049643Y-15060357D01*
X18049643Y-14946071D01*
X18063929Y-14917500D01*
X18092500Y-14903214D01*
X18149643Y-14903214D01*
X18178214Y-14917500D01*
X18192500Y-14946071D01*
X18192500Y-14974643D01*
X18049643Y-15003214D01*
X18306786Y-15088929D02*
X18335357Y-15103214D01*
X18392500Y-15103214D01*
X18421071Y-15088929D01*
X18435357Y-15060357D01*
X18435357Y-15046071D01*
X18421071Y-15017500D01*
X18392500Y-15003214D01*
X18349643Y-15003214D01*
X18321071Y-14988929D01*
X18306786Y-14960357D01*
X18306786Y-14946071D01*
X18321071Y-14917500D01*
X18349643Y-14903214D01*
X18392500Y-14903214D01*
X18421071Y-14917500D01*
X18535357Y-15217500D02*
X18549643Y-15203214D01*
X18578214Y-15160357D01*
X18592500Y-15131786D01*
X18606786Y-15088929D01*
X18621071Y-15017500D01*
X18621071Y-14960357D01*
X18606786Y-14888929D01*
X18592500Y-14846071D01*
X18578214Y-14817500D01*
X18549643Y-14774643D01*
X18535357Y-14760357D01*
X11492500Y-15363500D02*
G75*
G03X11492500Y-15363500I-25000J0D01*
G01*
X11821071Y-15199214D02*
X11849643Y-15199214D01*
X11878214Y-15213500D01*
X11892500Y-15227786D01*
X11906786Y-15256357D01*
X11921071Y-15313500D01*
X11921071Y-15384929D01*
X11906786Y-15442071D01*
X11892500Y-15470643D01*
X11878214Y-15484929D01*
X11849643Y-15499214D01*
X11821071Y-15499214D01*
X11792500Y-15484929D01*
X11778214Y-15470643D01*
X11763928Y-15442071D01*
X11749643Y-15384929D01*
X11749643Y-15313500D01*
X11763928Y-15256357D01*
X11778214Y-15227786D01*
X11792500Y-15213500D01*
X11821071Y-15199214D01*
X12049643Y-15470643D02*
X12063928Y-15484929D01*
X12049643Y-15499214D01*
X12035357Y-15484929D01*
X12049643Y-15470643D01*
X12049643Y-15499214D01*
X12335357Y-15199214D02*
X12192500Y-15199214D01*
X12178214Y-15342071D01*
X12192500Y-15327786D01*
X12221071Y-15313500D01*
X12292500Y-15313500D01*
X12321071Y-15327786D01*
X12335357Y-15342071D01*
X12349643Y-15370643D01*
X12349643Y-15442071D01*
X12335357Y-15470643D01*
X12321071Y-15484929D01*
X12292500Y-15499214D01*
X12221071Y-15499214D01*
X12192500Y-15484929D01*
X12178214Y-15470643D01*
X12535357Y-15199214D02*
X12563928Y-15199214D01*
X12592500Y-15213500D01*
X12606786Y-15227786D01*
X12621071Y-15256357D01*
X12635357Y-15313500D01*
X12635357Y-15384929D01*
X12621071Y-15442071D01*
X12606786Y-15470643D01*
X12592500Y-15484929D01*
X12563928Y-15499214D01*
X12535357Y-15499214D01*
X12506786Y-15484929D01*
X12492500Y-15470643D01*
X12478214Y-15442071D01*
X12463928Y-15384929D01*
X12463928Y-15313500D01*
X12478214Y-15256357D01*
X12492500Y-15227786D01*
X12506786Y-15213500D01*
X12535357Y-15199214D01*
X12763928Y-15499214D02*
X12763928Y-15299214D01*
X12763928Y-15327786D02*
X12778214Y-15313500D01*
X12806786Y-15299214D01*
X12849643Y-15299214D01*
X12878214Y-15313500D01*
X12892500Y-15342071D01*
X12892500Y-15499214D01*
X12892500Y-15342071D02*
X12906786Y-15313500D01*
X12935357Y-15299214D01*
X12978214Y-15299214D01*
X13006786Y-15313500D01*
X13021071Y-15342071D01*
X13021071Y-15499214D01*
X13163928Y-15499214D02*
X13163928Y-15299214D01*
X13163928Y-15327786D02*
X13178214Y-15313500D01*
X13206786Y-15299214D01*
X13249643Y-15299214D01*
X13278214Y-15313500D01*
X13292500Y-15342071D01*
X13292500Y-15499214D01*
X13292500Y-15342071D02*
X13306786Y-15313500D01*
X13335357Y-15299214D01*
X13378214Y-15299214D01*
X13406786Y-15313500D01*
X13421071Y-15342071D01*
X13421071Y-15499214D01*
X14006786Y-15184929D02*
X13749643Y-15570643D01*
X14392500Y-15199214D02*
X14421071Y-15199214D01*
X14449643Y-15213500D01*
X14463928Y-15227786D01*
X14478214Y-15256357D01*
X14492500Y-15313500D01*
X14492500Y-15384929D01*
X14478214Y-15442071D01*
X14463928Y-15470643D01*
X14449643Y-15484929D01*
X14421071Y-15499214D01*
X14392500Y-15499214D01*
X14363928Y-15484929D01*
X14349643Y-15470643D01*
X14335357Y-15442071D01*
X14321071Y-15384929D01*
X14321071Y-15313500D01*
X14335357Y-15256357D01*
X14349643Y-15227786D01*
X14363928Y-15213500D01*
X14392500Y-15199214D01*
X14621071Y-15470643D02*
X14635357Y-15484929D01*
X14621071Y-15499214D01*
X14606786Y-15484929D01*
X14621071Y-15470643D01*
X14621071Y-15499214D01*
X14821071Y-15199214D02*
X14849643Y-15199214D01*
X14878214Y-15213500D01*
X14892500Y-15227786D01*
X14906785Y-15256357D01*
X14921071Y-15313500D01*
X14921071Y-15384929D01*
X14906785Y-15442071D01*
X14892500Y-15470643D01*
X14878214Y-15484929D01*
X14849643Y-15499214D01*
X14821071Y-15499214D01*
X14792500Y-15484929D01*
X14778214Y-15470643D01*
X14763928Y-15442071D01*
X14749643Y-15384929D01*
X14749643Y-15313500D01*
X14763928Y-15256357D01*
X14778214Y-15227786D01*
X14792500Y-15213500D01*
X14821071Y-15199214D01*
X15035357Y-15227786D02*
X15049643Y-15213500D01*
X15078214Y-15199214D01*
X15149643Y-15199214D01*
X15178214Y-15213500D01*
X15192500Y-15227786D01*
X15206785Y-15256357D01*
X15206785Y-15284929D01*
X15192500Y-15327786D01*
X15021071Y-15499214D01*
X15206785Y-15499214D01*
X15392500Y-15199214D02*
X15421071Y-15199214D01*
X15449643Y-15213500D01*
X15463928Y-15227786D01*
X15478214Y-15256357D01*
X15492500Y-15313500D01*
X15492500Y-15384929D01*
X15478214Y-15442071D01*
X15463928Y-15470643D01*
X15449643Y-15484929D01*
X15421071Y-15499214D01*
X15392500Y-15499214D01*
X15363928Y-15484929D01*
X15349643Y-15470643D01*
X15335357Y-15442071D01*
X15321071Y-15384929D01*
X15321071Y-15313500D01*
X15335357Y-15256357D01*
X15349643Y-15227786D01*
X15363928Y-15213500D01*
X15392500Y-15199214D01*
X15606786Y-15199214D02*
X15606786Y-15256357D01*
X15721071Y-15199214D02*
X15721071Y-15256357D01*
X16163928Y-15613500D02*
X16149643Y-15599214D01*
X16121071Y-15556357D01*
X16106785Y-15527786D01*
X16092500Y-15484929D01*
X16078214Y-15413500D01*
X16078214Y-15356357D01*
X16092500Y-15284929D01*
X16106785Y-15242071D01*
X16121071Y-15213500D01*
X16149643Y-15170643D01*
X16163928Y-15156357D01*
X16335357Y-15199214D02*
X16363928Y-15199214D01*
X16392500Y-15213500D01*
X16406785Y-15227786D01*
X16421071Y-15256357D01*
X16435357Y-15313500D01*
X16435357Y-15384929D01*
X16421071Y-15442071D01*
X16406785Y-15470643D01*
X16392500Y-15484929D01*
X16363928Y-15499214D01*
X16335357Y-15499214D01*
X16306785Y-15484929D01*
X16292500Y-15470643D01*
X16278214Y-15442071D01*
X16263928Y-15384929D01*
X16263928Y-15313500D01*
X16278214Y-15256357D01*
X16292500Y-15227786D01*
X16306785Y-15213500D01*
X16335357Y-15199214D01*
X16792500Y-15499214D02*
X16792500Y-15199214D01*
X16921071Y-15499214D02*
X16921071Y-15342071D01*
X16906786Y-15313500D01*
X16878214Y-15299214D01*
X16835357Y-15299214D01*
X16806786Y-15313500D01*
X16792500Y-15327786D01*
X17106786Y-15499214D02*
X17078214Y-15484929D01*
X17063928Y-15470643D01*
X17049643Y-15442071D01*
X17049643Y-15356357D01*
X17063928Y-15327786D01*
X17078214Y-15313500D01*
X17106786Y-15299214D01*
X17149643Y-15299214D01*
X17178214Y-15313500D01*
X17192500Y-15327786D01*
X17206786Y-15356357D01*
X17206786Y-15442071D01*
X17192500Y-15470643D01*
X17178214Y-15484929D01*
X17149643Y-15499214D01*
X17106786Y-15499214D01*
X17378214Y-15499214D02*
X17349643Y-15484929D01*
X17335357Y-15456357D01*
X17335357Y-15199214D01*
X17606786Y-15484929D02*
X17578214Y-15499214D01*
X17521071Y-15499214D01*
X17492500Y-15484929D01*
X17478214Y-15456357D01*
X17478214Y-15342071D01*
X17492500Y-15313500D01*
X17521071Y-15299214D01*
X17578214Y-15299214D01*
X17606786Y-15313500D01*
X17621071Y-15342071D01*
X17621071Y-15370643D01*
X17478214Y-15399214D01*
X17735357Y-15484929D02*
X17763929Y-15499214D01*
X17821071Y-15499214D01*
X17849643Y-15484929D01*
X17863929Y-15456357D01*
X17863929Y-15442071D01*
X17849643Y-15413500D01*
X17821071Y-15399214D01*
X17778214Y-15399214D01*
X17749643Y-15384929D01*
X17735357Y-15356357D01*
X17735357Y-15342071D01*
X17749643Y-15313500D01*
X17778214Y-15299214D01*
X17821071Y-15299214D01*
X17849643Y-15313500D01*
X18221071Y-15384929D02*
X18449643Y-15384929D01*
X18335357Y-15499214D02*
X18335357Y-15270643D01*
X18806786Y-15227786D02*
X18821071Y-15213500D01*
X18849643Y-15199214D01*
X18921071Y-15199214D01*
X18949643Y-15213500D01*
X18963928Y-15227786D01*
X18978214Y-15256357D01*
X18978214Y-15284929D01*
X18963928Y-15327786D01*
X18792500Y-15499214D01*
X18978214Y-15499214D01*
X19321071Y-15484929D02*
X19349643Y-15499214D01*
X19406786Y-15499214D01*
X19435357Y-15484929D01*
X19449643Y-15456357D01*
X19449643Y-15442071D01*
X19435357Y-15413500D01*
X19406786Y-15399214D01*
X19363928Y-15399214D01*
X19335357Y-15384929D01*
X19321071Y-15356357D01*
X19321071Y-15342071D01*
X19335357Y-15313500D01*
X19363928Y-15299214D01*
X19406786Y-15299214D01*
X19435357Y-15313500D01*
X19621071Y-15499214D02*
X19592500Y-15484929D01*
X19578214Y-15456357D01*
X19578214Y-15199214D01*
X19778214Y-15499214D02*
X19749643Y-15484929D01*
X19735357Y-15470643D01*
X19721071Y-15442071D01*
X19721071Y-15356357D01*
X19735357Y-15327786D01*
X19749643Y-15313500D01*
X19778214Y-15299214D01*
X19821071Y-15299214D01*
X19849643Y-15313500D01*
X19863928Y-15327786D01*
X19878214Y-15356357D01*
X19878214Y-15442071D01*
X19863928Y-15470643D01*
X19849643Y-15484929D01*
X19821071Y-15499214D01*
X19778214Y-15499214D01*
X19963928Y-15299214D02*
X20078214Y-15299214D01*
X20006786Y-15199214D02*
X20006786Y-15456357D01*
X20021071Y-15484929D01*
X20049643Y-15499214D01*
X20078214Y-15499214D01*
X20163929Y-15484929D02*
X20192500Y-15499214D01*
X20249643Y-15499214D01*
X20278214Y-15484929D01*
X20292500Y-15456357D01*
X20292500Y-15442071D01*
X20278214Y-15413500D01*
X20249643Y-15399214D01*
X20206786Y-15399214D01*
X20178214Y-15384929D01*
X20163929Y-15356357D01*
X20163929Y-15342071D01*
X20178214Y-15313500D01*
X20206786Y-15299214D01*
X20249643Y-15299214D01*
X20278214Y-15313500D01*
X20392500Y-15613500D02*
X20406786Y-15599214D01*
X20435357Y-15556357D01*
X20449643Y-15527786D01*
X20463928Y-15484929D01*
X20478214Y-15413500D01*
X20478214Y-15356357D01*
X20463928Y-15284929D01*
X20449643Y-15242071D01*
X20435357Y-15213500D01*
X20406786Y-15170643D01*
X20392500Y-15156357D01*
X11465000Y-15732000D02*
X11465000Y-15787000D01*
X11437500Y-15759500D02*
X11492500Y-15759500D01*
X11821071Y-15595214D02*
X11849643Y-15595214D01*
X11878214Y-15609500D01*
X11892500Y-15623786D01*
X11906786Y-15652357D01*
X11921071Y-15709500D01*
X11921071Y-15780929D01*
X11906786Y-15838071D01*
X11892500Y-15866643D01*
X11878214Y-15880929D01*
X11849643Y-15895214D01*
X11821071Y-15895214D01*
X11792500Y-15880929D01*
X11778214Y-15866643D01*
X11763928Y-15838071D01*
X11749643Y-15780929D01*
X11749643Y-15709500D01*
X11763928Y-15652357D01*
X11778214Y-15623786D01*
X11792500Y-15609500D01*
X11821071Y-15595214D01*
X12049643Y-15866643D02*
X12063928Y-15880929D01*
X12049643Y-15895214D01*
X12035357Y-15880929D01*
X12049643Y-15866643D01*
X12049643Y-15895214D01*
X12335357Y-15595214D02*
X12192500Y-15595214D01*
X12178214Y-15738071D01*
X12192500Y-15723786D01*
X12221071Y-15709500D01*
X12292500Y-15709500D01*
X12321071Y-15723786D01*
X12335357Y-15738071D01*
X12349643Y-15766643D01*
X12349643Y-15838071D01*
X12335357Y-15866643D01*
X12321071Y-15880929D01*
X12292500Y-15895214D01*
X12221071Y-15895214D01*
X12192500Y-15880929D01*
X12178214Y-15866643D01*
X12621071Y-15595214D02*
X12478214Y-15595214D01*
X12463928Y-15738071D01*
X12478214Y-15723786D01*
X12506786Y-15709500D01*
X12578214Y-15709500D01*
X12606786Y-15723786D01*
X12621071Y-15738071D01*
X12635357Y-15766643D01*
X12635357Y-15838071D01*
X12621071Y-15866643D01*
X12606786Y-15880929D01*
X12578214Y-15895214D01*
X12506786Y-15895214D01*
X12478214Y-15880929D01*
X12463928Y-15866643D01*
X12763928Y-15895214D02*
X12763928Y-15695214D01*
X12763928Y-15723786D02*
X12778214Y-15709500D01*
X12806786Y-15695214D01*
X12849643Y-15695214D01*
X12878214Y-15709500D01*
X12892500Y-15738071D01*
X12892500Y-15895214D01*
X12892500Y-15738071D02*
X12906786Y-15709500D01*
X12935357Y-15695214D01*
X12978214Y-15695214D01*
X13006786Y-15709500D01*
X13021071Y-15738071D01*
X13021071Y-15895214D01*
X13163928Y-15895214D02*
X13163928Y-15695214D01*
X13163928Y-15723786D02*
X13178214Y-15709500D01*
X13206786Y-15695214D01*
X13249643Y-15695214D01*
X13278214Y-15709500D01*
X13292500Y-15738071D01*
X13292500Y-15895214D01*
X13292500Y-15738071D02*
X13306786Y-15709500D01*
X13335357Y-15695214D01*
X13378214Y-15695214D01*
X13406786Y-15709500D01*
X13421071Y-15738071D01*
X13421071Y-15895214D01*
X14006786Y-15580929D02*
X13749643Y-15966643D01*
X14392500Y-15595214D02*
X14421071Y-15595214D01*
X14449643Y-15609500D01*
X14463928Y-15623786D01*
X14478214Y-15652357D01*
X14492500Y-15709500D01*
X14492500Y-15780929D01*
X14478214Y-15838071D01*
X14463928Y-15866643D01*
X14449643Y-15880929D01*
X14421071Y-15895214D01*
X14392500Y-15895214D01*
X14363928Y-15880929D01*
X14349643Y-15866643D01*
X14335357Y-15838071D01*
X14321071Y-15780929D01*
X14321071Y-15709500D01*
X14335357Y-15652357D01*
X14349643Y-15623786D01*
X14363928Y-15609500D01*
X14392500Y-15595214D01*
X14621071Y-15866643D02*
X14635357Y-15880929D01*
X14621071Y-15895214D01*
X14606786Y-15880929D01*
X14621071Y-15866643D01*
X14621071Y-15895214D01*
X14821071Y-15595214D02*
X14849643Y-15595214D01*
X14878214Y-15609500D01*
X14892500Y-15623786D01*
X14906785Y-15652357D01*
X14921071Y-15709500D01*
X14921071Y-15780929D01*
X14906785Y-15838071D01*
X14892500Y-15866643D01*
X14878214Y-15880929D01*
X14849643Y-15895214D01*
X14821071Y-15895214D01*
X14792500Y-15880929D01*
X14778214Y-15866643D01*
X14763928Y-15838071D01*
X14749643Y-15780929D01*
X14749643Y-15709500D01*
X14763928Y-15652357D01*
X14778214Y-15623786D01*
X14792500Y-15609500D01*
X14821071Y-15595214D01*
X15035357Y-15623786D02*
X15049643Y-15609500D01*
X15078214Y-15595214D01*
X15149643Y-15595214D01*
X15178214Y-15609500D01*
X15192500Y-15623786D01*
X15206785Y-15652357D01*
X15206785Y-15680929D01*
X15192500Y-15723786D01*
X15021071Y-15895214D01*
X15206785Y-15895214D01*
X15321071Y-15623786D02*
X15335357Y-15609500D01*
X15363928Y-15595214D01*
X15435357Y-15595214D01*
X15463928Y-15609500D01*
X15478214Y-15623786D01*
X15492500Y-15652357D01*
X15492500Y-15680929D01*
X15478214Y-15723786D01*
X15306785Y-15895214D01*
X15492500Y-15895214D01*
X15606786Y-15595214D02*
X15606786Y-15652357D01*
X15721071Y-15595214D02*
X15721071Y-15652357D01*
X16163928Y-16009500D02*
X16149643Y-15995214D01*
X16121071Y-15952357D01*
X16106785Y-15923786D01*
X16092500Y-15880929D01*
X16078214Y-15809500D01*
X16078214Y-15752357D01*
X16092500Y-15680929D01*
X16106785Y-15638071D01*
X16121071Y-15609500D01*
X16149643Y-15566643D01*
X16163928Y-15552357D01*
X16335357Y-15595214D02*
X16363928Y-15595214D01*
X16392500Y-15609500D01*
X16406785Y-15623786D01*
X16421071Y-15652357D01*
X16435357Y-15709500D01*
X16435357Y-15780929D01*
X16421071Y-15838071D01*
X16406785Y-15866643D01*
X16392500Y-15880929D01*
X16363928Y-15895214D01*
X16335357Y-15895214D01*
X16306785Y-15880929D01*
X16292500Y-15866643D01*
X16278214Y-15838071D01*
X16263928Y-15780929D01*
X16263928Y-15709500D01*
X16278214Y-15652357D01*
X16292500Y-15623786D01*
X16306785Y-15609500D01*
X16335357Y-15595214D01*
X16792500Y-15895214D02*
X16792500Y-15595214D01*
X16921071Y-15895214D02*
X16921071Y-15738071D01*
X16906786Y-15709500D01*
X16878214Y-15695214D01*
X16835357Y-15695214D01*
X16806786Y-15709500D01*
X16792500Y-15723786D01*
X17106786Y-15895214D02*
X17078214Y-15880929D01*
X17063928Y-15866643D01*
X17049643Y-15838071D01*
X17049643Y-15752357D01*
X17063928Y-15723786D01*
X17078214Y-15709500D01*
X17106786Y-15695214D01*
X17149643Y-15695214D01*
X17178214Y-15709500D01*
X17192500Y-15723786D01*
X17206786Y-15752357D01*
X17206786Y-15838071D01*
X17192500Y-15866643D01*
X17178214Y-15880929D01*
X17149643Y-15895214D01*
X17106786Y-15895214D01*
X17378214Y-15895214D02*
X17349643Y-15880929D01*
X17335357Y-15852357D01*
X17335357Y-15595214D01*
X17606786Y-15880929D02*
X17578214Y-15895214D01*
X17521071Y-15895214D01*
X17492500Y-15880929D01*
X17478214Y-15852357D01*
X17478214Y-15738071D01*
X17492500Y-15709500D01*
X17521071Y-15695214D01*
X17578214Y-15695214D01*
X17606786Y-15709500D01*
X17621071Y-15738071D01*
X17621071Y-15766643D01*
X17478214Y-15795214D01*
X17735357Y-15880929D02*
X17763929Y-15895214D01*
X17821071Y-15895214D01*
X17849643Y-15880929D01*
X17863929Y-15852357D01*
X17863929Y-15838071D01*
X17849643Y-15809500D01*
X17821071Y-15795214D01*
X17778214Y-15795214D01*
X17749643Y-15780929D01*
X17735357Y-15752357D01*
X17735357Y-15738071D01*
X17749643Y-15709500D01*
X17778214Y-15695214D01*
X17821071Y-15695214D01*
X17849643Y-15709500D01*
X18221071Y-15780929D02*
X18449643Y-15780929D01*
X18335357Y-15895214D02*
X18335357Y-15666643D01*
X18806786Y-15623786D02*
X18821071Y-15609500D01*
X18849643Y-15595214D01*
X18921071Y-15595214D01*
X18949643Y-15609500D01*
X18963928Y-15623786D01*
X18978214Y-15652357D01*
X18978214Y-15680929D01*
X18963928Y-15723786D01*
X18792500Y-15895214D01*
X18978214Y-15895214D01*
X19321071Y-15880929D02*
X19349643Y-15895214D01*
X19406786Y-15895214D01*
X19435357Y-15880929D01*
X19449643Y-15852357D01*
X19449643Y-15838071D01*
X19435357Y-15809500D01*
X19406786Y-15795214D01*
X19363928Y-15795214D01*
X19335357Y-15780929D01*
X19321071Y-15752357D01*
X19321071Y-15738071D01*
X19335357Y-15709500D01*
X19363928Y-15695214D01*
X19406786Y-15695214D01*
X19435357Y-15709500D01*
X19621071Y-15895214D02*
X19592500Y-15880929D01*
X19578214Y-15852357D01*
X19578214Y-15595214D01*
X19778214Y-15895214D02*
X19749643Y-15880929D01*
X19735357Y-15866643D01*
X19721071Y-15838071D01*
X19721071Y-15752357D01*
X19735357Y-15723786D01*
X19749643Y-15709500D01*
X19778214Y-15695214D01*
X19821071Y-15695214D01*
X19849643Y-15709500D01*
X19863928Y-15723786D01*
X19878214Y-15752357D01*
X19878214Y-15838071D01*
X19863928Y-15866643D01*
X19849643Y-15880929D01*
X19821071Y-15895214D01*
X19778214Y-15895214D01*
X19963928Y-15695214D02*
X20078214Y-15695214D01*
X20006786Y-15595214D02*
X20006786Y-15852357D01*
X20021071Y-15880929D01*
X20049643Y-15895214D01*
X20078214Y-15895214D01*
X20163929Y-15880929D02*
X20192500Y-15895214D01*
X20249643Y-15895214D01*
X20278214Y-15880929D01*
X20292500Y-15852357D01*
X20292500Y-15838071D01*
X20278214Y-15809500D01*
X20249643Y-15795214D01*
X20206786Y-15795214D01*
X20178214Y-15780929D01*
X20163929Y-15752357D01*
X20163929Y-15738071D01*
X20178214Y-15709500D01*
X20206786Y-15695214D01*
X20249643Y-15695214D01*
X20278214Y-15709500D01*
X20392500Y-16009500D02*
X20406786Y-15995214D01*
X20435357Y-15952357D01*
X20449643Y-15923786D01*
X20463928Y-15880929D01*
X20478214Y-15809500D01*
X20478214Y-15752357D01*
X20463928Y-15680929D01*
X20449643Y-15638071D01*
X20435357Y-15609500D01*
X20406786Y-15566643D01*
X20392500Y-15552357D01*
X11477621Y-16191421D02*
X11477621Y-16119579D01*
X11405778Y-16119579D01*
X11405778Y-16191421D01*
X11477621Y-16191421D01*
X11921071Y-16291214D02*
X11749643Y-16291214D01*
X11835357Y-16291214D02*
X11835357Y-15991214D01*
X11806786Y-16034071D01*
X11778214Y-16062643D01*
X11749643Y-16076929D01*
X12049643Y-16262643D02*
X12063928Y-16276929D01*
X12049643Y-16291214D01*
X12035357Y-16276929D01*
X12049643Y-16262643D01*
X12049643Y-16291214D01*
X12249643Y-15991214D02*
X12278214Y-15991214D01*
X12306786Y-16005500D01*
X12321071Y-16019786D01*
X12335357Y-16048357D01*
X12349643Y-16105500D01*
X12349643Y-16176929D01*
X12335357Y-16234071D01*
X12321071Y-16262643D01*
X12306786Y-16276929D01*
X12278214Y-16291214D01*
X12249643Y-16291214D01*
X12221071Y-16276929D01*
X12206786Y-16262643D01*
X12192500Y-16234071D01*
X12178214Y-16176929D01*
X12178214Y-16105500D01*
X12192500Y-16048357D01*
X12206786Y-16019786D01*
X12221071Y-16005500D01*
X12249643Y-15991214D01*
X12463928Y-16019786D02*
X12478214Y-16005500D01*
X12506786Y-15991214D01*
X12578214Y-15991214D01*
X12606786Y-16005500D01*
X12621071Y-16019786D01*
X12635357Y-16048357D01*
X12635357Y-16076929D01*
X12621071Y-16119786D01*
X12449643Y-16291214D01*
X12635357Y-16291214D01*
X12763928Y-16291214D02*
X12763928Y-16091214D01*
X12763928Y-16119786D02*
X12778214Y-16105500D01*
X12806786Y-16091214D01*
X12849643Y-16091214D01*
X12878214Y-16105500D01*
X12892500Y-16134071D01*
X12892500Y-16291214D01*
X12892500Y-16134071D02*
X12906786Y-16105500D01*
X12935357Y-16091214D01*
X12978214Y-16091214D01*
X13006786Y-16105500D01*
X13021071Y-16134071D01*
X13021071Y-16291214D01*
X13163928Y-16291214D02*
X13163928Y-16091214D01*
X13163928Y-16119786D02*
X13178214Y-16105500D01*
X13206786Y-16091214D01*
X13249643Y-16091214D01*
X13278214Y-16105500D01*
X13292500Y-16134071D01*
X13292500Y-16291214D01*
X13292500Y-16134071D02*
X13306786Y-16105500D01*
X13335357Y-16091214D01*
X13378214Y-16091214D01*
X13406786Y-16105500D01*
X13421071Y-16134071D01*
X13421071Y-16291214D01*
X14006786Y-15976929D02*
X13749643Y-16362643D01*
X14392500Y-15991214D02*
X14421071Y-15991214D01*
X14449643Y-16005500D01*
X14463928Y-16019786D01*
X14478214Y-16048357D01*
X14492500Y-16105500D01*
X14492500Y-16176929D01*
X14478214Y-16234071D01*
X14463928Y-16262643D01*
X14449643Y-16276929D01*
X14421071Y-16291214D01*
X14392500Y-16291214D01*
X14363928Y-16276929D01*
X14349643Y-16262643D01*
X14335357Y-16234071D01*
X14321071Y-16176929D01*
X14321071Y-16105500D01*
X14335357Y-16048357D01*
X14349643Y-16019786D01*
X14363928Y-16005500D01*
X14392500Y-15991214D01*
X14621071Y-16262643D02*
X14635357Y-16276929D01*
X14621071Y-16291214D01*
X14606786Y-16276929D01*
X14621071Y-16262643D01*
X14621071Y-16291214D01*
X14821071Y-15991214D02*
X14849643Y-15991214D01*
X14878214Y-16005500D01*
X14892500Y-16019786D01*
X14906785Y-16048357D01*
X14921071Y-16105500D01*
X14921071Y-16176929D01*
X14906785Y-16234071D01*
X14892500Y-16262643D01*
X14878214Y-16276929D01*
X14849643Y-16291214D01*
X14821071Y-16291214D01*
X14792500Y-16276929D01*
X14778214Y-16262643D01*
X14763928Y-16234071D01*
X14749643Y-16176929D01*
X14749643Y-16105500D01*
X14763928Y-16048357D01*
X14778214Y-16019786D01*
X14792500Y-16005500D01*
X14821071Y-15991214D01*
X15178214Y-16091214D02*
X15178214Y-16291214D01*
X15106785Y-15976929D02*
X15035357Y-16191214D01*
X15221071Y-16191214D01*
X15392500Y-15991214D02*
X15421071Y-15991214D01*
X15449643Y-16005500D01*
X15463928Y-16019786D01*
X15478214Y-16048357D01*
X15492500Y-16105500D01*
X15492500Y-16176929D01*
X15478214Y-16234071D01*
X15463928Y-16262643D01*
X15449643Y-16276929D01*
X15421071Y-16291214D01*
X15392500Y-16291214D01*
X15363928Y-16276929D01*
X15349643Y-16262643D01*
X15335357Y-16234071D01*
X15321071Y-16176929D01*
X15321071Y-16105500D01*
X15335357Y-16048357D01*
X15349643Y-16019786D01*
X15363928Y-16005500D01*
X15392500Y-15991214D01*
X15606786Y-15991214D02*
X15606786Y-16048357D01*
X15721071Y-15991214D02*
X15721071Y-16048357D01*
X16163928Y-16405500D02*
X16149643Y-16391214D01*
X16121071Y-16348357D01*
X16106785Y-16319786D01*
X16092500Y-16276929D01*
X16078214Y-16205500D01*
X16078214Y-16148357D01*
X16092500Y-16076929D01*
X16106785Y-16034071D01*
X16121071Y-16005500D01*
X16149643Y-15962643D01*
X16163928Y-15948357D01*
X16292500Y-16291214D02*
X16349643Y-16291214D01*
X16378214Y-16276929D01*
X16392500Y-16262643D01*
X16421071Y-16219786D01*
X16435357Y-16162643D01*
X16435357Y-16048357D01*
X16421071Y-16019786D01*
X16406785Y-16005500D01*
X16378214Y-15991214D01*
X16321071Y-15991214D01*
X16292500Y-16005500D01*
X16278214Y-16019786D01*
X16263928Y-16048357D01*
X16263928Y-16119786D01*
X16278214Y-16148357D01*
X16292500Y-16162643D01*
X16321071Y-16176929D01*
X16378214Y-16176929D01*
X16406785Y-16162643D01*
X16421071Y-16148357D01*
X16435357Y-16119786D01*
X16549643Y-16019786D02*
X16563928Y-16005500D01*
X16592500Y-15991214D01*
X16663928Y-15991214D01*
X16692500Y-16005500D01*
X16706785Y-16019786D01*
X16721071Y-16048357D01*
X16721071Y-16076929D01*
X16706785Y-16119786D01*
X16535357Y-16291214D01*
X16721071Y-16291214D01*
X17078214Y-16291214D02*
X17078214Y-15991214D01*
X17206786Y-16291214D02*
X17206786Y-16134071D01*
X17192500Y-16105500D01*
X17163928Y-16091214D01*
X17121071Y-16091214D01*
X17092500Y-16105500D01*
X17078214Y-16119786D01*
X17392500Y-16291214D02*
X17363928Y-16276929D01*
X17349643Y-16262643D01*
X17335357Y-16234071D01*
X17335357Y-16148357D01*
X17349643Y-16119786D01*
X17363928Y-16105500D01*
X17392500Y-16091214D01*
X17435357Y-16091214D01*
X17463928Y-16105500D01*
X17478214Y-16119786D01*
X17492500Y-16148357D01*
X17492500Y-16234071D01*
X17478214Y-16262643D01*
X17463928Y-16276929D01*
X17435357Y-16291214D01*
X17392500Y-16291214D01*
X17663928Y-16291214D02*
X17635357Y-16276929D01*
X17621071Y-16248357D01*
X17621071Y-15991214D01*
X17892500Y-16276929D02*
X17863929Y-16291214D01*
X17806786Y-16291214D01*
X17778214Y-16276929D01*
X17763929Y-16248357D01*
X17763929Y-16134071D01*
X17778214Y-16105500D01*
X17806786Y-16091214D01*
X17863929Y-16091214D01*
X17892500Y-16105500D01*
X17906786Y-16134071D01*
X17906786Y-16162643D01*
X17763929Y-16191214D01*
X18021071Y-16276929D02*
X18049643Y-16291214D01*
X18106786Y-16291214D01*
X18135357Y-16276929D01*
X18149643Y-16248357D01*
X18149643Y-16234071D01*
X18135357Y-16205500D01*
X18106786Y-16191214D01*
X18063929Y-16191214D01*
X18035357Y-16176929D01*
X18021071Y-16148357D01*
X18021071Y-16134071D01*
X18035357Y-16105500D01*
X18063929Y-16091214D01*
X18106786Y-16091214D01*
X18135357Y-16105500D01*
X18249643Y-16405500D02*
X18263929Y-16391214D01*
X18292500Y-16348357D01*
X18306786Y-16319786D01*
X18321071Y-16276929D01*
X18335357Y-16205500D01*
X18335357Y-16148357D01*
X18321071Y-16076929D01*
X18306786Y-16034071D01*
X18292500Y-16005500D01*
X18263929Y-15962643D01*
X18249643Y-15948357D01*
M02*
