G04 #@! TF.FileFunction,Copper,L3,Inr,Plane*
%FSLAX46Y46*%
G04 Gerber Fmt 4.6, Leading zero omitted, Abs format (unit mm)*
G04 Created by KiCad (PCBNEW 4.0.6-e0-6349~53~ubuntu14.04.1) date Mon Mar 20 16:46:31 2017*
%MOMM*%
%LPD*%
G01*
G04 APERTURE LIST*
%ADD10C,0.100000*%
%ADD11R,1.727200X1.727200*%
%ADD12O,1.727200X1.727200*%
%ADD13C,1.727200*%
%ADD14C,0.950000*%
%ADD15C,1.000000*%
%ADD16R,1.350000X1.350000*%
%ADD17C,1.350000*%
%ADD18C,0.600000*%
%ADD19C,0.250000*%
%ADD20C,0.254000*%
G04 APERTURE END LIST*
D10*
D11*
X11430000Y-28575000D03*
D12*
X11430000Y-31115000D03*
X8890000Y-28575000D03*
X8890000Y-31115000D03*
X6350000Y-28575000D03*
X6350000Y-31115000D03*
X3810000Y-28575000D03*
X3810000Y-31115000D03*
X1270000Y-28575000D03*
X1270000Y-31115000D03*
X-1270000Y-28575000D03*
X-1270000Y-31115000D03*
X-3810000Y-28575000D03*
X-3810000Y-31115000D03*
X-6350000Y-28575000D03*
X-6350000Y-31115000D03*
X-8890000Y-28575000D03*
X-8890000Y-31115000D03*
X-11430000Y-28575000D03*
X-11430000Y-31115000D03*
D11*
X-28575000Y-11430000D03*
D12*
X-31115000Y-11430000D03*
X-28575000Y-8890000D03*
X-31115000Y-8890000D03*
X-28575000Y-6350000D03*
X-31115000Y-6350000D03*
X-28575000Y-3810000D03*
X-31115000Y-3810000D03*
X-28575000Y-1270000D03*
X-31115000Y-1270000D03*
X-28575000Y1270000D03*
X-31115000Y1270000D03*
X-28575000Y3810000D03*
X-31115000Y3810000D03*
X-28575000Y6350000D03*
X-31115000Y6350000D03*
X-28575000Y8890000D03*
X-31115000Y8890000D03*
X-28575000Y11430000D03*
X-31115000Y11430000D03*
D11*
X-11430000Y28575000D03*
D12*
X-11430000Y31115000D03*
X-8890000Y28575000D03*
X-8890000Y31115000D03*
X-6350000Y28575000D03*
X-6350000Y31115000D03*
X-3810000Y28575000D03*
X-3810000Y31115000D03*
X-1270000Y28575000D03*
X-1270000Y31115000D03*
X1270000Y28575000D03*
X1270000Y31115000D03*
X3810000Y28575000D03*
X3810000Y31115000D03*
X6350000Y28575000D03*
X6350000Y31115000D03*
X8890000Y28575000D03*
X8890000Y31115000D03*
X11430000Y28575000D03*
X11430000Y31115000D03*
D11*
X28575000Y11430000D03*
D12*
X31115000Y11430000D03*
X28575000Y8890000D03*
X31115000Y8890000D03*
X28575000Y6350000D03*
X31115000Y6350000D03*
X28575000Y3810000D03*
X31115000Y3810000D03*
X28575000Y1270000D03*
X31115000Y1270000D03*
X28575000Y-1270000D03*
X31115000Y-1270000D03*
X28575000Y-3810000D03*
X31115000Y-3810000D03*
X28575000Y-6350000D03*
X31115000Y-6350000D03*
X28575000Y-8890000D03*
X31115000Y-8890000D03*
X28575000Y-11430000D03*
X31115000Y-11430000D03*
D10*
G36*
X64170922Y31392237D02*
X65607763Y32829078D01*
X66829078Y31607763D01*
X65392237Y30170922D01*
X64170922Y31392237D01*
X64170922Y31392237D01*
G37*
D13*
X67403814Y29811712D02*
X67188288Y29596186D01*
X69199865Y28015661D02*
X68984339Y27800135D01*
D10*
G36*
X-27832237Y17720922D02*
X-29269078Y19157763D01*
X-28047763Y20379078D01*
X-26610922Y18942237D01*
X-27832237Y17720922D01*
X-27832237Y17720922D01*
G37*
D13*
X-26251712Y20953814D02*
X-26036186Y20738288D01*
X-24455661Y22749865D02*
X-24240135Y22534339D01*
X-22659609Y24545917D02*
X-22444083Y24330391D01*
X-20863558Y26341968D02*
X-20648032Y26126442D01*
X-19067507Y28138019D02*
X-18851981Y27922493D01*
D10*
G36*
X27832237Y-17720922D02*
X29269078Y-19157763D01*
X28047763Y-20379078D01*
X26610922Y-18942237D01*
X27832237Y-17720922D01*
X27832237Y-17720922D01*
G37*
D13*
X26251712Y-20953814D02*
X26036186Y-20738288D01*
X24455661Y-22749865D02*
X24240135Y-22534339D01*
X22659609Y-24545917D02*
X22444083Y-24330391D01*
X20863558Y-26341968D02*
X20648032Y-26126442D01*
X19067507Y-28138019D02*
X18851981Y-27922493D01*
D14*
X-23629587Y-19880648D02*
X-23417455Y-20092780D01*
X-20094053Y-23416182D02*
X-19881921Y-23628314D01*
D15*
X-26334270Y-21383250D02*
X-25945362Y-20994342D01*
X-21384522Y-26332997D02*
X-20995614Y-25944089D01*
D16*
X46300000Y52600000D03*
D17*
X46300000Y50600000D03*
X46300000Y48600000D03*
D18*
X4500000Y8500000D03*
X9500000Y-15000000D03*
X24000000Y-1000000D03*
X15000000Y9500000D03*
X9500000Y15000000D03*
X-1000000Y-24000000D03*
X-24000000Y1000000D03*
X-9500000Y15000000D03*
X1000000Y24000000D03*
X13500000Y-9500000D03*
X-9500000Y-13500000D03*
X-13450000Y-9500000D03*
X-13500000Y9500000D03*
X5100000Y-3500000D03*
X5950000Y-3550000D03*
X3550000Y-7000000D03*
X4450000Y-7000000D03*
X6450000Y4950000D03*
X7000000Y4300000D03*
X7100000Y3500000D03*
X8000000Y3500000D03*
X500000Y-5000000D03*
X-5000000Y-500000D03*
X-500000Y5000000D03*
X5000000Y500000D03*
X-3175000Y2540000D03*
X7500000Y5500000D03*
X3000000Y-2500000D03*
X5000000Y1500000D03*
X1500000Y-5000000D03*
X-5000000Y-1500000D03*
X-1500000Y5000000D03*
X-2750000Y-6050000D03*
X-4400000Y-5300000D03*
X-6850000Y-3750000D03*
X-6850000Y-4650000D03*
X-4200000Y4650000D03*
X-4200000Y5550000D03*
X-3700000Y6950000D03*
X-4550000Y7000000D03*
X-4900000Y-23250000D03*
X-4850000Y-22350000D03*
X-4700000Y-21550000D03*
X-4700000Y-20650000D03*
X-23150000Y4900000D03*
X-22350000Y4850000D03*
X-21550000Y4700000D03*
X-20700000Y4700000D03*
X-7800000Y18600000D03*
X4850000Y23650000D03*
X4850000Y22750000D03*
X4700000Y21950000D03*
X4700000Y21050000D03*
X23350000Y-4900000D03*
X22450000Y-4900000D03*
X21650000Y-4700000D03*
X20700000Y-4700000D03*
X-22225000Y-23495000D03*
X-24130000Y-21590000D03*
D19*
X-13450000Y-9500000D02*
X-13500000Y-9500000D01*
D20*
G36*
X8250394Y0D02*
X5568330Y-2682064D01*
X5286799Y-2565162D01*
X4914833Y-2564838D01*
X4571057Y-2706883D01*
X4307808Y-2969673D01*
X4165162Y-3313201D01*
X4164838Y-3685167D01*
X4281904Y-3968490D01*
X0Y-8250394D01*
X-1873383Y-6377011D01*
X-1815162Y-6236799D01*
X-1814838Y-5864833D01*
X-1956883Y-5521057D01*
X-2219673Y-5257808D01*
X-2394611Y-5185167D01*
X564838Y-5185167D01*
X706883Y-5528943D01*
X969673Y-5792192D01*
X1313201Y-5934838D01*
X1685167Y-5935162D01*
X2028943Y-5793117D01*
X2292192Y-5530327D01*
X2434838Y-5186799D01*
X2435162Y-4814833D01*
X2293117Y-4471057D01*
X2030327Y-4207808D01*
X1686799Y-4065162D01*
X1314833Y-4064838D01*
X971057Y-4206883D01*
X707808Y-4469673D01*
X565162Y-4813201D01*
X564838Y-5185167D01*
X-2394611Y-5185167D01*
X-2563201Y-5115162D01*
X-2935167Y-5114838D01*
X-3076966Y-5173428D01*
X-5565227Y-2685167D01*
X2064838Y-2685167D01*
X2206883Y-3028943D01*
X2469673Y-3292192D01*
X2813201Y-3434838D01*
X3185167Y-3435162D01*
X3528943Y-3293117D01*
X3792192Y-3030327D01*
X3934838Y-2686799D01*
X3935162Y-2314833D01*
X3793117Y-1971057D01*
X3530327Y-1707808D01*
X3186799Y-1565162D01*
X2814833Y-1564838D01*
X2471057Y-1706883D01*
X2207808Y-1969673D01*
X2065162Y-2313201D01*
X2064838Y-2685167D01*
X-5565227Y-2685167D01*
X-6565227Y-1685167D01*
X-5935162Y-1685167D01*
X-5793117Y-2028943D01*
X-5530327Y-2292192D01*
X-5186799Y-2434838D01*
X-4814833Y-2435162D01*
X-4471057Y-2293117D01*
X-4207808Y-2030327D01*
X-4065162Y-1686799D01*
X-4064838Y-1314833D01*
X-4206883Y-971057D01*
X-4469673Y-707808D01*
X-4813201Y-565162D01*
X-5185167Y-564838D01*
X-5528943Y-706883D01*
X-5792192Y-969673D01*
X-5934838Y-1313201D01*
X-5935162Y-1685167D01*
X-6565227Y-1685167D01*
X-8250394Y0D01*
X-6935561Y1314833D01*
X4064838Y1314833D01*
X4206883Y971057D01*
X4469673Y707808D01*
X4813201Y565162D01*
X5185167Y564838D01*
X5528943Y706883D01*
X5792192Y969673D01*
X5934838Y1313201D01*
X5935162Y1685167D01*
X5793117Y2028943D01*
X5530327Y2292192D01*
X5186799Y2434838D01*
X4814833Y2435162D01*
X4471057Y2293117D01*
X4207808Y2030327D01*
X4065162Y1686799D01*
X4064838Y1314833D01*
X-6935561Y1314833D01*
X-4491681Y3758713D01*
X-4386799Y3715162D01*
X-4014833Y3714838D01*
X-3671057Y3856883D01*
X-3407808Y4119673D01*
X-3265162Y4463201D01*
X-3264856Y4814833D01*
X-2435162Y4814833D01*
X-2293117Y4471057D01*
X-2030327Y4207808D01*
X-1686799Y4065162D01*
X-1314833Y4064838D01*
X-971057Y4206883D01*
X-707808Y4469673D01*
X-565162Y4813201D01*
X-564838Y5185167D01*
X-706883Y5528943D01*
X-969673Y5792192D01*
X-1313201Y5934838D01*
X-1685167Y5935162D01*
X-2028943Y5793117D01*
X-2292192Y5530327D01*
X-2434838Y5186799D01*
X-2435162Y4814833D01*
X-3264856Y4814833D01*
X-3264838Y4835167D01*
X-3308809Y4941585D01*
X0Y8250394D01*
X8250394Y0D01*
X8250394Y0D01*
G37*
X8250394Y0D02*
X5568330Y-2682064D01*
X5286799Y-2565162D01*
X4914833Y-2564838D01*
X4571057Y-2706883D01*
X4307808Y-2969673D01*
X4165162Y-3313201D01*
X4164838Y-3685167D01*
X4281904Y-3968490D01*
X0Y-8250394D01*
X-1873383Y-6377011D01*
X-1815162Y-6236799D01*
X-1814838Y-5864833D01*
X-1956883Y-5521057D01*
X-2219673Y-5257808D01*
X-2394611Y-5185167D01*
X564838Y-5185167D01*
X706883Y-5528943D01*
X969673Y-5792192D01*
X1313201Y-5934838D01*
X1685167Y-5935162D01*
X2028943Y-5793117D01*
X2292192Y-5530327D01*
X2434838Y-5186799D01*
X2435162Y-4814833D01*
X2293117Y-4471057D01*
X2030327Y-4207808D01*
X1686799Y-4065162D01*
X1314833Y-4064838D01*
X971057Y-4206883D01*
X707808Y-4469673D01*
X565162Y-4813201D01*
X564838Y-5185167D01*
X-2394611Y-5185167D01*
X-2563201Y-5115162D01*
X-2935167Y-5114838D01*
X-3076966Y-5173428D01*
X-5565227Y-2685167D01*
X2064838Y-2685167D01*
X2206883Y-3028943D01*
X2469673Y-3292192D01*
X2813201Y-3434838D01*
X3185167Y-3435162D01*
X3528943Y-3293117D01*
X3792192Y-3030327D01*
X3934838Y-2686799D01*
X3935162Y-2314833D01*
X3793117Y-1971057D01*
X3530327Y-1707808D01*
X3186799Y-1565162D01*
X2814833Y-1564838D01*
X2471057Y-1706883D01*
X2207808Y-1969673D01*
X2065162Y-2313201D01*
X2064838Y-2685167D01*
X-5565227Y-2685167D01*
X-6565227Y-1685167D01*
X-5935162Y-1685167D01*
X-5793117Y-2028943D01*
X-5530327Y-2292192D01*
X-5186799Y-2434838D01*
X-4814833Y-2435162D01*
X-4471057Y-2293117D01*
X-4207808Y-2030327D01*
X-4065162Y-1686799D01*
X-4064838Y-1314833D01*
X-4206883Y-971057D01*
X-4469673Y-707808D01*
X-4813201Y-565162D01*
X-5185167Y-564838D01*
X-5528943Y-706883D01*
X-5792192Y-969673D01*
X-5934838Y-1313201D01*
X-5935162Y-1685167D01*
X-6565227Y-1685167D01*
X-8250394Y0D01*
X-6935561Y1314833D01*
X4064838Y1314833D01*
X4206883Y971057D01*
X4469673Y707808D01*
X4813201Y565162D01*
X5185167Y564838D01*
X5528943Y706883D01*
X5792192Y969673D01*
X5934838Y1313201D01*
X5935162Y1685167D01*
X5793117Y2028943D01*
X5530327Y2292192D01*
X5186799Y2434838D01*
X4814833Y2435162D01*
X4471057Y2293117D01*
X4207808Y2030327D01*
X4065162Y1686799D01*
X4064838Y1314833D01*
X-6935561Y1314833D01*
X-4491681Y3758713D01*
X-4386799Y3715162D01*
X-4014833Y3714838D01*
X-3671057Y3856883D01*
X-3407808Y4119673D01*
X-3265162Y4463201D01*
X-3264856Y4814833D01*
X-2435162Y4814833D01*
X-2293117Y4471057D01*
X-2030327Y4207808D01*
X-1686799Y4065162D01*
X-1314833Y4064838D01*
X-971057Y4206883D01*
X-707808Y4469673D01*
X-565162Y4813201D01*
X-564838Y5185167D01*
X-706883Y5528943D01*
X-969673Y5792192D01*
X-1313201Y5934838D01*
X-1685167Y5935162D01*
X-2028943Y5793117D01*
X-2292192Y5530327D01*
X-2434838Y5186799D01*
X-2435162Y4814833D01*
X-3264856Y4814833D01*
X-3264838Y4835167D01*
X-3308809Y4941585D01*
X0Y8250394D01*
X8250394Y0D01*
G36*
X18820394Y0D02*
X0Y-18820394D01*
X-18818640Y-1754D01*
X-11626988Y-1754D01*
X-11616300Y-51022D01*
X-11589803Y-89803D01*
X-7785127Y-3894479D01*
X-7785162Y-3935167D01*
X-7675641Y-4200228D01*
X-7784838Y-4463201D01*
X-7785162Y-4835167D01*
X-7643117Y-5178943D01*
X-7380327Y-5442192D01*
X-7036799Y-5584838D01*
X-6664833Y-5585162D01*
X-6321057Y-5443117D01*
X-6278736Y-5400870D01*
X-89803Y-11589803D01*
X-47789Y-11617666D01*
X1754Y-11626988D01*
X51022Y-11616300D01*
X89803Y-11589803D01*
X3750976Y-7928630D01*
X4000228Y-7825641D01*
X4263201Y-7934838D01*
X4635167Y-7935162D01*
X4978943Y-7793117D01*
X5242192Y-7530327D01*
X5384838Y-7186799D01*
X5385162Y-6814833D01*
X5243117Y-6471057D01*
X5225848Y-6453758D01*
X11589803Y-89803D01*
X11617666Y-47789D01*
X11626988Y1754D01*
X11616300Y51022D01*
X11589803Y89803D01*
X8751027Y2928579D01*
X8792192Y2969673D01*
X8934838Y3313201D01*
X8935162Y3685167D01*
X8793117Y4028943D01*
X8530327Y4292192D01*
X8186799Y4434838D01*
X7935118Y4435057D01*
X7935162Y4485167D01*
X7870587Y4641452D01*
X8028943Y4706883D01*
X8292192Y4969673D01*
X8434838Y5313201D01*
X8435162Y5685167D01*
X8293117Y6028943D01*
X8030327Y6292192D01*
X7686799Y6434838D01*
X7314833Y6435162D01*
X6971057Y6293117D01*
X6707808Y6030327D01*
X6645837Y5881085D01*
X6636799Y5884838D01*
X6264833Y5885162D01*
X5931977Y5747629D01*
X89803Y11589803D01*
X47789Y11617666D01*
X-1754Y11626988D01*
X-51022Y11616300D01*
X-89803Y11589803D01*
X-3794523Y7885083D01*
X-3885167Y7885162D01*
X-4064811Y7810935D01*
X-4363201Y7934838D01*
X-4735167Y7935162D01*
X-5078943Y7793117D01*
X-5342192Y7530327D01*
X-5484838Y7186799D01*
X-5485162Y6814833D01*
X-5343117Y6471057D01*
X-5275892Y6403714D01*
X-11589803Y89803D01*
X-11617666Y47789D01*
X-11626988Y-1754D01*
X-18818640Y-1754D01*
X-18820394Y0D01*
X0Y18820394D01*
X18820394Y0D01*
X18820394Y0D01*
G37*
X18820394Y0D02*
X0Y-18820394D01*
X-18818640Y-1754D01*
X-11626988Y-1754D01*
X-11616300Y-51022D01*
X-11589803Y-89803D01*
X-7785127Y-3894479D01*
X-7785162Y-3935167D01*
X-7675641Y-4200228D01*
X-7784838Y-4463201D01*
X-7785162Y-4835167D01*
X-7643117Y-5178943D01*
X-7380327Y-5442192D01*
X-7036799Y-5584838D01*
X-6664833Y-5585162D01*
X-6321057Y-5443117D01*
X-6278736Y-5400870D01*
X-89803Y-11589803D01*
X-47789Y-11617666D01*
X1754Y-11626988D01*
X51022Y-11616300D01*
X89803Y-11589803D01*
X3750976Y-7928630D01*
X4000228Y-7825641D01*
X4263201Y-7934838D01*
X4635167Y-7935162D01*
X4978943Y-7793117D01*
X5242192Y-7530327D01*
X5384838Y-7186799D01*
X5385162Y-6814833D01*
X5243117Y-6471057D01*
X5225848Y-6453758D01*
X11589803Y-89803D01*
X11617666Y-47789D01*
X11626988Y1754D01*
X11616300Y51022D01*
X11589803Y89803D01*
X8751027Y2928579D01*
X8792192Y2969673D01*
X8934838Y3313201D01*
X8935162Y3685167D01*
X8793117Y4028943D01*
X8530327Y4292192D01*
X8186799Y4434838D01*
X7935118Y4435057D01*
X7935162Y4485167D01*
X7870587Y4641452D01*
X8028943Y4706883D01*
X8292192Y4969673D01*
X8434838Y5313201D01*
X8435162Y5685167D01*
X8293117Y6028943D01*
X8030327Y6292192D01*
X7686799Y6434838D01*
X7314833Y6435162D01*
X6971057Y6293117D01*
X6707808Y6030327D01*
X6645837Y5881085D01*
X6636799Y5884838D01*
X6264833Y5885162D01*
X5931977Y5747629D01*
X89803Y11589803D01*
X47789Y11617666D01*
X-1754Y11626988D01*
X-51022Y11616300D01*
X-89803Y11589803D01*
X-3794523Y7885083D01*
X-3885167Y7885162D01*
X-4064811Y7810935D01*
X-4363201Y7934838D01*
X-4735167Y7935162D01*
X-5078943Y7793117D01*
X-5342192Y7530327D01*
X-5484838Y7186799D01*
X-5485162Y6814833D01*
X-5343117Y6471057D01*
X-5275892Y6403714D01*
X-11589803Y89803D01*
X-11617666Y47789D01*
X-11626988Y-1754D01*
X-18818640Y-1754D01*
X-18820394Y0D01*
X0Y18820394D01*
X18820394Y0D01*
G36*
X3765004Y21055390D02*
X3764838Y20864833D01*
X3906883Y20521057D01*
X4169673Y20257808D01*
X4513201Y20115162D01*
X4705399Y20114995D01*
X24820394Y0D01*
X21005813Y-3814581D01*
X20886799Y-3765162D01*
X20514833Y-3764838D01*
X20171057Y-3906883D01*
X19907808Y-4169673D01*
X19765162Y-4513201D01*
X19764838Y-4885167D01*
X19814657Y-5005737D01*
X0Y-24820394D01*
X-3829252Y-20991142D01*
X-3765162Y-20836799D01*
X-3764838Y-20464833D01*
X-3906883Y-20121057D01*
X-4169673Y-19857808D01*
X-4513201Y-19715162D01*
X-4885167Y-19714838D01*
X-5041118Y-19779276D01*
X-24818640Y-1754D01*
X-22626988Y-1754D01*
X-22616300Y-51022D01*
X-22589803Y-89803D01*
X-89803Y-22589803D01*
X-47789Y-22617666D01*
X1754Y-22626988D01*
X51022Y-22616300D01*
X89803Y-22589803D01*
X22589803Y-89803D01*
X22617666Y-47789D01*
X22626988Y1754D01*
X22616300Y51022D01*
X22589803Y89803D01*
X89803Y22589803D01*
X47789Y22617666D01*
X-1754Y22626988D01*
X-51022Y22616300D01*
X-89803Y22589803D01*
X-22589803Y89803D01*
X-22617666Y47789D01*
X-22626988Y-1754D01*
X-24818640Y-1754D01*
X-24820394Y0D01*
X-21005813Y3814581D01*
X-20886799Y3765162D01*
X-20514833Y3764838D01*
X-20171057Y3906883D01*
X-19907808Y4169673D01*
X-19765162Y4513201D01*
X-19764838Y4885167D01*
X-19814657Y5005737D01*
X0Y24820394D01*
X3765004Y21055390D01*
X3765004Y21055390D01*
G37*
X3765004Y21055390D02*
X3764838Y20864833D01*
X3906883Y20521057D01*
X4169673Y20257808D01*
X4513201Y20115162D01*
X4705399Y20114995D01*
X24820394Y0D01*
X21005813Y-3814581D01*
X20886799Y-3765162D01*
X20514833Y-3764838D01*
X20171057Y-3906883D01*
X19907808Y-4169673D01*
X19765162Y-4513201D01*
X19764838Y-4885167D01*
X19814657Y-5005737D01*
X0Y-24820394D01*
X-3829252Y-20991142D01*
X-3765162Y-20836799D01*
X-3764838Y-20464833D01*
X-3906883Y-20121057D01*
X-4169673Y-19857808D01*
X-4513201Y-19715162D01*
X-4885167Y-19714838D01*
X-5041118Y-19779276D01*
X-24818640Y-1754D01*
X-22626988Y-1754D01*
X-22616300Y-51022D01*
X-22589803Y-89803D01*
X-89803Y-22589803D01*
X-47789Y-22617666D01*
X1754Y-22626988D01*
X51022Y-22616300D01*
X89803Y-22589803D01*
X22589803Y-89803D01*
X22617666Y-47789D01*
X22626988Y1754D01*
X22616300Y51022D01*
X22589803Y89803D01*
X89803Y22589803D01*
X47789Y22617666D01*
X-1754Y22626988D01*
X-51022Y22616300D01*
X-89803Y22589803D01*
X-22589803Y89803D01*
X-22617666Y47789D01*
X-22626988Y-1754D01*
X-24818640Y-1754D01*
X-24820394Y0D01*
X-21005813Y3814581D01*
X-20886799Y3765162D01*
X-20514833Y3764838D01*
X-20171057Y3906883D01*
X-19907808Y4169673D01*
X-19765162Y4513201D01*
X-19764838Y4885167D01*
X-19814657Y5005737D01*
X0Y24820394D01*
X3765004Y21055390D01*
M02*
