M48
;DRILL file {KiCad 4.0.6-e0-6349~53~ubuntu14.04.1} date Wed Mar 22 00:16:27 2017
;FORMAT={-:-/ absolute / metric / decimal}
FMAT,2
METRIC,TZ
T1C0.400
T2C0.500
T3C0.550
T4C0.800
T5C1.016
%
G90
G05
M71
T1
X-24.13Y-21.59
X-24.Y1.
X-23.15Y4.9
X-22.9Y-8.05
X-22.35Y4.85
X-22.225Y-23.495
X-22.Y-8.05
X-21.55Y4.7
X-21.35Y-6.75
X-21.35Y-7.55
X-20.7Y4.7
X-15.5Y14.
X-14.15Y7.
X-14.15Y-7.7
X-13.75Y9.2
X-13.35Y7.15
X-13.35Y-7.9
X-13.2Y-6.6
X-12.55Y7.3
X-12.45Y9.
X-12.45Y-7.7
X-12.4Y-6.7
X-12.Y11.
X-11.75Y7.4
X-9.2Y-13.75
X-8.8Y-12.15
X-8.05Y22.9
X-8.05Y22.
X-8.Y13.3
X-7.9Y12.45
X-7.8Y14.1
X-7.6Y21.3
X-7.45Y-11.75
X-7.3Y-12.55
X-7.15Y-13.35
X-7.Y-14.15
X-6.9Y12.4
X-6.85Y-3.75
X-6.85Y-4.65
X-6.75Y21.35
X-6.7Y13.2
X-5.Y-0.5
X-5.Y-1.5
X-4.9Y-23.25
X-4.85Y-22.35
X-4.7Y-20.65
X-4.7Y-21.55
X-4.55Y7.
X-4.4Y-5.3
X-4.2Y5.55
X-4.2Y4.65
X-3.7Y6.95
X-3.175Y2.54
X-2.75Y-6.05
X-1.5Y5.
X-1.Y-24.
X-0.5Y5.
X0.5Y-5.
X1.Y24.
X1.5Y-5.
X3.Y-2.5
X3.55Y-7.
X4.45Y-7.
X4.5Y8.5
X4.7Y21.95
X4.7Y21.05
X4.85Y23.65
X4.85Y22.75
X5.Y1.5
X5.Y0.5
X5.1Y-3.5
X5.95Y-3.55
X6.45Y4.95
X6.65Y-13.2
X6.8Y-21.3
X6.85Y-12.4
X7.Y14.15
X7.Y4.3
X7.1Y3.5
X7.15Y13.35
X7.3Y12.55
X7.45Y11.75
X7.5Y5.5
X7.6Y-21.3
X7.75Y-14.15
X7.95Y-12.45
X7.95Y-13.35
X8.Y3.5
X8.1Y-21.95
X8.1Y-22.85
X9.05Y12.4
X9.05Y-14.65
X9.2Y13.75
X10.Y11.
X11.5Y-10.
X11.75Y-7.45
X12.4Y-9.
X12.5Y8.
X12.55Y7.15
X12.55Y-7.3
X13.2Y6.7
X13.35Y8.
X13.35Y-7.15
X13.75Y-9.2
X14.15Y7.8
X14.15Y-7.
X15.Y-13.5
X16.5Y13.
X20.7Y-4.7
X21.35Y7.55
X21.35Y6.75
X21.65Y-4.7
X22.Y8.05
X22.45Y-4.9
X22.9Y8.05
X23.35Y-4.9
X24.Y-1.
T4
X52.95Y65.95
X52.95Y63.95
X52.95Y61.95
T5
X-31.115Y11.43
X-31.115Y8.89
X-31.115Y6.35
X-31.115Y3.81
X-31.115Y1.27
X-31.115Y-1.27
X-31.115Y-3.81
X-31.115Y-6.35
X-31.115Y-8.89
X-31.115Y-11.43
X-28.575Y11.43
X-28.575Y8.89
X-28.575Y6.35
X-28.575Y3.81
X-28.575Y1.27
X-28.575Y-1.27
X-28.575Y-3.81
X-28.575Y-6.35
X-28.575Y-8.89
X-28.575Y-11.43
X-27.94Y19.05
X-26.144Y20.846
X-24.348Y22.642
X-22.552Y24.438
X-20.756Y26.234
X-18.96Y28.03
X-11.43Y31.115
X-11.43Y28.575
X-11.43Y-28.575
X-11.43Y-31.115
X-8.89Y31.115
X-8.89Y28.575
X-8.89Y-28.575
X-8.89Y-31.115
X-6.35Y31.115
X-6.35Y28.575
X-6.35Y-28.575
X-6.35Y-31.115
X-3.81Y31.115
X-3.81Y28.575
X-3.81Y-28.575
X-3.81Y-31.115
X-1.27Y31.115
X-1.27Y28.575
X-1.27Y-28.575
X-1.27Y-31.115
X0.Y-45.075
X1.27Y31.115
X1.27Y28.575
X1.27Y-28.575
X1.27Y-31.115
X2.54Y-45.075
X3.81Y31.115
X3.81Y28.575
X3.81Y-28.575
X3.81Y-31.115
X6.35Y31.115
X6.35Y28.575
X6.35Y-28.575
X6.35Y-31.115
X8.89Y31.115
X8.89Y28.575
X8.89Y-28.575
X8.89Y-31.115
X11.43Y31.115
X11.43Y28.575
X11.43Y-28.575
X11.43Y-31.115
X18.96Y-28.03
X20.756Y-26.234
X22.552Y-24.438
X24.348Y-22.642
X26.144Y-20.846
X27.94Y-19.05
X28.575Y11.43
X28.575Y8.89
X28.575Y6.35
X28.575Y3.81
X28.575Y1.27
X28.575Y-1.27
X28.575Y-3.81
X28.575Y-6.35
X28.575Y-8.89
X28.575Y-11.43
X31.115Y11.43
X31.115Y8.89
X31.115Y6.35
X31.115Y3.81
X31.115Y1.27
X31.115Y-1.27
X31.115Y-3.81
X31.115Y-6.35
X31.115Y-8.89
X31.115Y-11.43
X65.5Y31.5
X67.296Y29.704
X69.092Y27.908
T2
X-26.37Y-21.419G85X-25.91Y-20.959
G05
X-21.42Y-26.368G85X-20.96Y-25.909
G05
T3
X-23.63Y-19.881G85X-23.417Y-20.093
G05
X-20.094Y-23.416G85X-19.882Y-23.628
G05
T0
M30
