M48
;DRILL file {KiCad 4.0.6-e0-6349~53~ubuntu14.04.1} date Mon Mar 20 16:46:41 2017
;FORMAT={-:-/ absolute / metric / decimal}
FMAT,2
METRIC,TZ
T1C0.400
T2C0.500
T3C0.550
T4C0.800
T5C1.016
%
G90
G05
M71
T1
X-24.13Y-21.59
X-24.Y1.
X-23.15Y4.9
X-22.35Y4.85
X-22.225Y-23.495
X-21.55Y4.7
X-20.7Y4.7
X-13.5Y9.5
X-13.45Y-9.5
X-9.5Y15.
X-9.5Y-13.5
X-7.8Y18.6
X-6.85Y-3.75
X-6.85Y-4.65
X-5.Y-0.5
X-5.Y-1.5
X-4.9Y-23.25
X-4.85Y-22.35
X-4.7Y-20.65
X-4.7Y-21.55
X-4.55Y7.
X-4.4Y-5.3
X-4.2Y5.55
X-4.2Y4.65
X-3.7Y6.95
X-3.175Y2.54
X-2.75Y-6.05
X-1.5Y5.
X-1.Y-24.
X-0.5Y5.
X0.5Y-5.
X1.Y24.
X1.5Y-5.
X3.Y-2.5
X3.55Y-7.
X4.45Y-7.
X4.5Y8.5
X4.7Y21.95
X4.7Y21.05
X4.85Y23.65
X4.85Y22.75
X5.Y1.5
X5.Y0.5
X5.1Y-3.5
X5.95Y-3.55
X6.45Y4.95
X7.Y4.3
X7.1Y3.5
X7.5Y5.5
X8.Y3.5
X9.5Y15.
X9.5Y-15.
X13.5Y-9.5
X15.Y9.5
X20.7Y-4.7
X21.65Y-4.7
X22.45Y-4.9
X23.35Y-4.9
X24.Y-1.
T4
X46.3Y52.6
X46.3Y50.6
X46.3Y48.6
T5
X-31.115Y11.43
X-31.115Y8.89
X-31.115Y6.35
X-31.115Y3.81
X-31.115Y1.27
X-31.115Y-1.27
X-31.115Y-3.81
X-31.115Y-6.35
X-31.115Y-8.89
X-31.115Y-11.43
X-28.575Y11.43
X-28.575Y8.89
X-28.575Y6.35
X-28.575Y3.81
X-28.575Y1.27
X-28.575Y-1.27
X-28.575Y-3.81
X-28.575Y-6.35
X-28.575Y-8.89
X-28.575Y-11.43
X-27.94Y19.05
X-26.144Y20.846
X-24.348Y22.642
X-22.552Y24.438
X-20.756Y26.234
X-18.96Y28.03
X-11.43Y31.115
X-11.43Y28.575
X-11.43Y-28.575
X-11.43Y-31.115
X-8.89Y31.115
X-8.89Y28.575
X-8.89Y-28.575
X-8.89Y-31.115
X-6.35Y31.115
X-6.35Y28.575
X-6.35Y-28.575
X-6.35Y-31.115
X-3.81Y31.115
X-3.81Y28.575
X-3.81Y-28.575
X-3.81Y-31.115
X-1.27Y31.115
X-1.27Y28.575
X-1.27Y-28.575
X-1.27Y-31.115
X1.27Y31.115
X1.27Y28.575
X1.27Y-28.575
X1.27Y-31.115
X3.81Y31.115
X3.81Y28.575
X3.81Y-28.575
X3.81Y-31.115
X6.35Y31.115
X6.35Y28.575
X6.35Y-28.575
X6.35Y-31.115
X8.89Y31.115
X8.89Y28.575
X8.89Y-28.575
X8.89Y-31.115
X11.43Y31.115
X11.43Y28.575
X11.43Y-28.575
X11.43Y-31.115
X18.96Y-28.03
X20.756Y-26.234
X22.552Y-24.438
X24.348Y-22.642
X26.144Y-20.846
X27.94Y-19.05
X28.575Y11.43
X28.575Y8.89
X28.575Y6.35
X28.575Y3.81
X28.575Y1.27
X28.575Y-1.27
X28.575Y-3.81
X28.575Y-6.35
X28.575Y-8.89
X28.575Y-11.43
X31.115Y11.43
X31.115Y8.89
X31.115Y6.35
X31.115Y3.81
X31.115Y1.27
X31.115Y-1.27
X31.115Y-3.81
X31.115Y-6.35
X31.115Y-8.89
X31.115Y-11.43
X65.5Y31.5
X67.296Y29.704
X69.092Y27.908
T2
X-26.37Y-21.419G85X-25.91Y-20.959
G05
X-21.42Y-26.368G85X-20.96Y-25.909
G05
T3
X-23.63Y-19.881G85X-23.417Y-20.093
G05
X-20.094Y-23.416G85X-19.882Y-23.628
G05
T0
M30
