%FSLAX45Y45*%
G04 Gerber Fmt 4.5, Leading zero omitted, Abs format (unit mm)*
G04 Created by KiCad (PCBNEW 4.0.6-e0-6349~53~ubuntu14.04.1) date Mon Mar 20 16:46:42 2017*
%MOMM*%
%LPD*%
G01*
G04 APERTURE LIST*
%ADD10C,0.127000*%
%ADD11C,0.150000*%
%ADD12C,0.200000*%
%ADD13C,0.300000*%
G04 APERTURE END LIST*
D10*
D11*
X1450000Y-3500000D02*
X3500000Y-1450000D01*
X-1450000Y-3500000D02*
X1450000Y-3500000D01*
X-3500000Y-1450000D02*
X-1450000Y-3500000D01*
X-3500000Y1450000D02*
X-3500000Y-1450000D01*
X-1450000Y3500000D02*
X-3500000Y1450000D01*
X1450000Y3500000D02*
X-1450000Y3500000D01*
X3500000Y1450000D02*
X1450000Y3500000D01*
X3500000Y-1450000D02*
X3500000Y1450000D01*
D12*
X-6657731Y-3830599D02*
X-6567731Y-3920599D01*
X-6567731Y-3830599D02*
X-6657731Y-3920599D01*
X-6445599Y-4042731D02*
X-6355599Y-4132731D01*
X-6355599Y-4042731D02*
X-6445599Y-4132731D01*
X5302269Y3609400D02*
X5392269Y3519400D01*
X5392269Y3609400D02*
X5302269Y3519400D01*
X5514401Y3397268D02*
X5604400Y3307268D01*
X5604400Y3397268D02*
X5514401Y3307268D01*
D13*
X-3236071Y-3973214D02*
X-3236071Y-3673214D01*
X-3164643Y-3673214D01*
X-3121786Y-3687500D01*
X-3093214Y-3716071D01*
X-3078929Y-3744643D01*
X-3064643Y-3801786D01*
X-3064643Y-3844643D01*
X-3078929Y-3901786D01*
X-3093214Y-3930357D01*
X-3121786Y-3958929D01*
X-3164643Y-3973214D01*
X-3236071Y-3973214D01*
X-2936071Y-3973214D02*
X-2936071Y-3773214D01*
X-2936071Y-3830357D02*
X-2921786Y-3801786D01*
X-2907500Y-3787500D01*
X-2878929Y-3773214D01*
X-2850357Y-3773214D01*
X-2750357Y-3973214D02*
X-2750357Y-3773214D01*
X-2750357Y-3673214D02*
X-2764643Y-3687500D01*
X-2750357Y-3701786D01*
X-2736072Y-3687500D01*
X-2750357Y-3673214D01*
X-2750357Y-3701786D01*
X-2564643Y-3973214D02*
X-2593214Y-3958929D01*
X-2607500Y-3930357D01*
X-2607500Y-3673214D01*
X-2407500Y-3973214D02*
X-2436072Y-3958929D01*
X-2450357Y-3930357D01*
X-2450357Y-3673214D01*
X-2064643Y-3973214D02*
X-2064643Y-3673214D01*
X-1964643Y-3887500D01*
X-1864643Y-3673214D01*
X-1864643Y-3973214D01*
X-1593214Y-3973214D02*
X-1593214Y-3816071D01*
X-1607500Y-3787500D01*
X-1636071Y-3773214D01*
X-1693214Y-3773214D01*
X-1721786Y-3787500D01*
X-1593214Y-3958929D02*
X-1621786Y-3973214D01*
X-1693214Y-3973214D01*
X-1721786Y-3958929D01*
X-1736071Y-3930357D01*
X-1736071Y-3901786D01*
X-1721786Y-3873214D01*
X-1693214Y-3858929D01*
X-1621786Y-3858929D01*
X-1593214Y-3844643D01*
X-1450357Y-3773214D02*
X-1450357Y-4073214D01*
X-1450357Y-3787500D02*
X-1421786Y-3773214D01*
X-1364643Y-3773214D01*
X-1336072Y-3787500D01*
X-1321786Y-3801786D01*
X-1307500Y-3830357D01*
X-1307500Y-3916071D01*
X-1321786Y-3944643D01*
X-1336072Y-3958929D01*
X-1364643Y-3973214D01*
X-1421786Y-3973214D01*
X-1450357Y-3958929D01*
X-1178929Y-3944643D02*
X-1164643Y-3958929D01*
X-1178929Y-3973214D01*
X-1193214Y-3958929D01*
X-1178929Y-3944643D01*
X-1178929Y-3973214D01*
X-1178929Y-3787500D02*
X-1164643Y-3801786D01*
X-1178929Y-3816071D01*
X-1193214Y-3801786D01*
X-1178929Y-3787500D01*
X-1178929Y-3816071D01*
X-3597500Y-4422500D02*
X-3507500Y-4512500D01*
X-3507500Y-4422500D02*
X-3597500Y-4512500D01*
X-3178929Y-4303214D02*
X-3150357Y-4303214D01*
X-3121786Y-4317500D01*
X-3107500Y-4331786D01*
X-3093214Y-4360357D01*
X-3078929Y-4417500D01*
X-3078929Y-4488929D01*
X-3093214Y-4546072D01*
X-3107500Y-4574643D01*
X-3121786Y-4588929D01*
X-3150357Y-4603214D01*
X-3178929Y-4603214D01*
X-3207500Y-4588929D01*
X-3221786Y-4574643D01*
X-3236071Y-4546072D01*
X-3250357Y-4488929D01*
X-3250357Y-4417500D01*
X-3236071Y-4360357D01*
X-3221786Y-4331786D01*
X-3207500Y-4317500D01*
X-3178929Y-4303214D01*
X-2950357Y-4574643D02*
X-2936071Y-4588929D01*
X-2950357Y-4603214D01*
X-2964643Y-4588929D01*
X-2950357Y-4574643D01*
X-2950357Y-4603214D01*
X-2793214Y-4603214D02*
X-2736072Y-4603214D01*
X-2707500Y-4588929D01*
X-2693214Y-4574643D01*
X-2664643Y-4531786D01*
X-2650357Y-4474643D01*
X-2650357Y-4360357D01*
X-2664643Y-4331786D01*
X-2678929Y-4317500D01*
X-2707500Y-4303214D01*
X-2764643Y-4303214D01*
X-2793214Y-4317500D01*
X-2807500Y-4331786D01*
X-2821786Y-4360357D01*
X-2821786Y-4431786D01*
X-2807500Y-4460357D01*
X-2793214Y-4474643D01*
X-2764643Y-4488929D01*
X-2707500Y-4488929D01*
X-2678929Y-4474643D01*
X-2664643Y-4460357D01*
X-2650357Y-4431786D01*
X-2464643Y-4303214D02*
X-2436072Y-4303214D01*
X-2407500Y-4317500D01*
X-2393214Y-4331786D01*
X-2378929Y-4360357D01*
X-2364643Y-4417500D01*
X-2364643Y-4488929D01*
X-2378929Y-4546072D01*
X-2393214Y-4574643D01*
X-2407500Y-4588929D01*
X-2436072Y-4603214D01*
X-2464643Y-4603214D01*
X-2493214Y-4588929D01*
X-2507500Y-4574643D01*
X-2521786Y-4546072D01*
X-2536072Y-4488929D01*
X-2536072Y-4417500D01*
X-2521786Y-4360357D01*
X-2507500Y-4331786D01*
X-2493214Y-4317500D01*
X-2464643Y-4303214D01*
X-2236072Y-4603214D02*
X-2236072Y-4403214D01*
X-2236072Y-4431786D02*
X-2221786Y-4417500D01*
X-2193214Y-4403214D01*
X-2150357Y-4403214D01*
X-2121786Y-4417500D01*
X-2107500Y-4446072D01*
X-2107500Y-4603214D01*
X-2107500Y-4446072D02*
X-2093214Y-4417500D01*
X-2064643Y-4403214D01*
X-2021786Y-4403214D01*
X-1993214Y-4417500D01*
X-1978929Y-4446072D01*
X-1978929Y-4603214D01*
X-1836071Y-4603214D02*
X-1836071Y-4403214D01*
X-1836071Y-4431786D02*
X-1821786Y-4417500D01*
X-1793214Y-4403214D01*
X-1750357Y-4403214D01*
X-1721786Y-4417500D01*
X-1707500Y-4446072D01*
X-1707500Y-4603214D01*
X-1707500Y-4446072D02*
X-1693214Y-4417500D01*
X-1664643Y-4403214D01*
X-1621786Y-4403214D01*
X-1593214Y-4417500D01*
X-1578929Y-4446072D01*
X-1578929Y-4603214D01*
X-993214Y-4288929D02*
X-1250357Y-4674643D01*
X-607500Y-4303214D02*
X-578929Y-4303214D01*
X-550357Y-4317500D01*
X-536072Y-4331786D01*
X-521786Y-4360357D01*
X-507500Y-4417500D01*
X-507500Y-4488929D01*
X-521786Y-4546072D01*
X-536072Y-4574643D01*
X-550357Y-4588929D01*
X-578929Y-4603214D01*
X-607500Y-4603214D01*
X-636072Y-4588929D01*
X-650357Y-4574643D01*
X-664643Y-4546072D01*
X-678929Y-4488929D01*
X-678929Y-4417500D01*
X-664643Y-4360357D01*
X-650357Y-4331786D01*
X-636072Y-4317500D01*
X-607500Y-4303214D01*
X-378929Y-4574643D02*
X-364643Y-4588929D01*
X-378929Y-4603214D01*
X-393214Y-4588929D01*
X-378929Y-4574643D01*
X-378929Y-4603214D01*
X-178929Y-4303214D02*
X-150357Y-4303214D01*
X-121786Y-4317500D01*
X-107500Y-4331786D01*
X-93214Y-4360357D01*
X-78929Y-4417500D01*
X-78929Y-4488929D01*
X-93214Y-4546072D01*
X-107500Y-4574643D01*
X-121786Y-4588929D01*
X-150357Y-4603214D01*
X-178929Y-4603214D01*
X-207500Y-4588929D01*
X-221786Y-4574643D01*
X-236072Y-4546072D01*
X-250357Y-4488929D01*
X-250357Y-4417500D01*
X-236072Y-4360357D01*
X-221786Y-4331786D01*
X-207500Y-4317500D01*
X-178929Y-4303214D01*
X21071Y-4303214D02*
X206785Y-4303214D01*
X106785Y-4417500D01*
X149643Y-4417500D01*
X178214Y-4431786D01*
X192500Y-4446072D01*
X206785Y-4474643D01*
X206785Y-4546072D01*
X192500Y-4574643D01*
X178214Y-4588929D01*
X149643Y-4603214D01*
X63928Y-4603214D01*
X35357Y-4588929D01*
X21071Y-4574643D01*
X478214Y-4303214D02*
X335357Y-4303214D01*
X321071Y-4446072D01*
X335357Y-4431786D01*
X363928Y-4417500D01*
X435357Y-4417500D01*
X463928Y-4431786D01*
X478214Y-4446072D01*
X492500Y-4474643D01*
X492500Y-4546072D01*
X478214Y-4574643D01*
X463928Y-4588929D01*
X435357Y-4603214D01*
X363928Y-4603214D01*
X335357Y-4588929D01*
X321071Y-4574643D01*
X606786Y-4303214D02*
X606786Y-4360357D01*
X721071Y-4303214D02*
X721071Y-4360357D01*
X1163928Y-4717500D02*
X1149643Y-4703214D01*
X1121071Y-4660357D01*
X1106786Y-4631786D01*
X1092500Y-4588929D01*
X1078214Y-4517500D01*
X1078214Y-4460357D01*
X1092500Y-4388929D01*
X1106786Y-4346072D01*
X1121071Y-4317500D01*
X1149643Y-4274643D01*
X1163928Y-4260357D01*
X1406785Y-4403214D02*
X1406785Y-4603214D01*
X1335357Y-4288929D02*
X1263928Y-4503214D01*
X1449643Y-4503214D01*
X1792500Y-4603214D02*
X1792500Y-4303214D01*
X1921071Y-4603214D02*
X1921071Y-4446072D01*
X1906785Y-4417500D01*
X1878214Y-4403214D01*
X1835357Y-4403214D01*
X1806785Y-4417500D01*
X1792500Y-4431786D01*
X2106786Y-4603214D02*
X2078214Y-4588929D01*
X2063928Y-4574643D01*
X2049643Y-4546072D01*
X2049643Y-4460357D01*
X2063928Y-4431786D01*
X2078214Y-4417500D01*
X2106786Y-4403214D01*
X2149643Y-4403214D01*
X2178214Y-4417500D01*
X2192500Y-4431786D01*
X2206786Y-4460357D01*
X2206786Y-4546072D01*
X2192500Y-4574643D01*
X2178214Y-4588929D01*
X2149643Y-4603214D01*
X2106786Y-4603214D01*
X2378214Y-4603214D02*
X2349643Y-4588929D01*
X2335357Y-4560357D01*
X2335357Y-4303214D01*
X2606786Y-4588929D02*
X2578214Y-4603214D01*
X2521071Y-4603214D01*
X2492500Y-4588929D01*
X2478214Y-4560357D01*
X2478214Y-4446072D01*
X2492500Y-4417500D01*
X2521071Y-4403214D01*
X2578214Y-4403214D01*
X2606786Y-4417500D01*
X2621071Y-4446072D01*
X2621071Y-4474643D01*
X2478214Y-4503214D01*
X2735357Y-4588929D02*
X2763929Y-4603214D01*
X2821071Y-4603214D01*
X2849643Y-4588929D01*
X2863928Y-4560357D01*
X2863928Y-4546072D01*
X2849643Y-4517500D01*
X2821071Y-4503214D01*
X2778214Y-4503214D01*
X2749643Y-4488929D01*
X2735357Y-4460357D01*
X2735357Y-4446072D01*
X2749643Y-4417500D01*
X2778214Y-4403214D01*
X2821071Y-4403214D01*
X2849643Y-4417500D01*
X2963928Y-4717500D02*
X2978214Y-4703214D01*
X3006786Y-4660357D01*
X3021071Y-4631786D01*
X3035357Y-4588929D01*
X3049643Y-4517500D01*
X3049643Y-4460357D01*
X3035357Y-4388929D01*
X3021071Y-4346072D01*
X3006786Y-4317500D01*
X2978214Y-4274643D01*
X2963928Y-4260357D01*
X3506786Y-4717500D02*
X3492500Y-4703214D01*
X3463928Y-4660357D01*
X3449643Y-4631786D01*
X3435357Y-4588929D01*
X3421071Y-4517500D01*
X3421071Y-4460357D01*
X3435357Y-4388929D01*
X3449643Y-4346072D01*
X3463928Y-4317500D01*
X3492500Y-4274643D01*
X3506786Y-4260357D01*
X3621071Y-4403214D02*
X3621071Y-4603214D01*
X3621071Y-4431786D02*
X3635357Y-4417500D01*
X3663928Y-4403214D01*
X3706786Y-4403214D01*
X3735357Y-4417500D01*
X3749643Y-4446072D01*
X3749643Y-4603214D01*
X3935357Y-4603214D02*
X3906786Y-4588929D01*
X3892500Y-4574643D01*
X3878214Y-4546072D01*
X3878214Y-4460357D01*
X3892500Y-4431786D01*
X3906786Y-4417500D01*
X3935357Y-4403214D01*
X3978214Y-4403214D01*
X4006786Y-4417500D01*
X4021071Y-4431786D01*
X4035357Y-4460357D01*
X4035357Y-4546072D01*
X4021071Y-4574643D01*
X4006786Y-4588929D01*
X3978214Y-4603214D01*
X3935357Y-4603214D01*
X4121071Y-4403214D02*
X4235357Y-4403214D01*
X4163928Y-4303214D02*
X4163928Y-4560357D01*
X4178214Y-4588929D01*
X4206786Y-4603214D01*
X4235357Y-4603214D01*
X4563929Y-4403214D02*
X4563929Y-4703214D01*
X4563929Y-4417500D02*
X4592500Y-4403214D01*
X4649643Y-4403214D01*
X4678214Y-4417500D01*
X4692500Y-4431786D01*
X4706786Y-4460357D01*
X4706786Y-4546072D01*
X4692500Y-4574643D01*
X4678214Y-4588929D01*
X4649643Y-4603214D01*
X4592500Y-4603214D01*
X4563929Y-4588929D01*
X4878214Y-4603214D02*
X4849643Y-4588929D01*
X4835357Y-4560357D01*
X4835357Y-4303214D01*
X5121071Y-4603214D02*
X5121071Y-4446072D01*
X5106786Y-4417500D01*
X5078214Y-4403214D01*
X5021071Y-4403214D01*
X4992500Y-4417500D01*
X5121071Y-4588929D02*
X5092500Y-4603214D01*
X5021071Y-4603214D01*
X4992500Y-4588929D01*
X4978214Y-4560357D01*
X4978214Y-4531786D01*
X4992500Y-4503214D01*
X5021071Y-4488929D01*
X5092500Y-4488929D01*
X5121071Y-4474643D01*
X5221071Y-4403214D02*
X5335357Y-4403214D01*
X5263929Y-4303214D02*
X5263929Y-4560357D01*
X5278214Y-4588929D01*
X5306786Y-4603214D01*
X5335357Y-4603214D01*
X5549643Y-4588929D02*
X5521072Y-4603214D01*
X5463929Y-4603214D01*
X5435357Y-4588929D01*
X5421072Y-4560357D01*
X5421072Y-4446072D01*
X5435357Y-4417500D01*
X5463929Y-4403214D01*
X5521072Y-4403214D01*
X5549643Y-4417500D01*
X5563929Y-4446072D01*
X5563929Y-4474643D01*
X5421072Y-4503214D01*
X5821071Y-4603214D02*
X5821071Y-4303214D01*
X5821071Y-4588929D02*
X5792500Y-4603214D01*
X5735357Y-4603214D01*
X5706786Y-4588929D01*
X5692500Y-4574643D01*
X5678214Y-4546072D01*
X5678214Y-4460357D01*
X5692500Y-4431786D01*
X5706786Y-4417500D01*
X5735357Y-4403214D01*
X5792500Y-4403214D01*
X5821071Y-4417500D01*
X5935357Y-4717500D02*
X5949643Y-4703214D01*
X5978214Y-4660357D01*
X5992500Y-4631786D01*
X6006786Y-4588929D01*
X6021071Y-4517500D01*
X6021071Y-4460357D01*
X6006786Y-4388929D01*
X5992500Y-4346072D01*
X5978214Y-4317500D01*
X5949643Y-4274643D01*
X5935357Y-4260357D01*
M02*
