G04 #@! TF.FileFunction,Copper,L2,Inr,Plane*
%FSLAX46Y46*%
G04 Gerber Fmt 4.6, Leading zero omitted, Abs format (unit mm)*
G04 Created by KiCad (PCBNEW 4.0.6-e0-6349~53~ubuntu14.04.1) date Mon Mar 20 16:46:31 2017*
%MOMM*%
%LPD*%
G01*
G04 APERTURE LIST*
%ADD10C,0.100000*%
%ADD11R,1.727200X1.727200*%
%ADD12O,1.727200X1.727200*%
%ADD13C,1.727200*%
%ADD14C,0.950000*%
%ADD15C,1.000000*%
%ADD16R,1.350000X1.350000*%
%ADD17C,1.350000*%
%ADD18C,0.600000*%
%ADD19C,0.254000*%
G04 APERTURE END LIST*
D10*
D11*
X11430000Y-28575000D03*
D12*
X11430000Y-31115000D03*
X8890000Y-28575000D03*
X8890000Y-31115000D03*
X6350000Y-28575000D03*
X6350000Y-31115000D03*
X3810000Y-28575000D03*
X3810000Y-31115000D03*
X1270000Y-28575000D03*
X1270000Y-31115000D03*
X-1270000Y-28575000D03*
X-1270000Y-31115000D03*
X-3810000Y-28575000D03*
X-3810000Y-31115000D03*
X-6350000Y-28575000D03*
X-6350000Y-31115000D03*
X-8890000Y-28575000D03*
X-8890000Y-31115000D03*
X-11430000Y-28575000D03*
X-11430000Y-31115000D03*
D11*
X-28575000Y-11430000D03*
D12*
X-31115000Y-11430000D03*
X-28575000Y-8890000D03*
X-31115000Y-8890000D03*
X-28575000Y-6350000D03*
X-31115000Y-6350000D03*
X-28575000Y-3810000D03*
X-31115000Y-3810000D03*
X-28575000Y-1270000D03*
X-31115000Y-1270000D03*
X-28575000Y1270000D03*
X-31115000Y1270000D03*
X-28575000Y3810000D03*
X-31115000Y3810000D03*
X-28575000Y6350000D03*
X-31115000Y6350000D03*
X-28575000Y8890000D03*
X-31115000Y8890000D03*
X-28575000Y11430000D03*
X-31115000Y11430000D03*
D11*
X-11430000Y28575000D03*
D12*
X-11430000Y31115000D03*
X-8890000Y28575000D03*
X-8890000Y31115000D03*
X-6350000Y28575000D03*
X-6350000Y31115000D03*
X-3810000Y28575000D03*
X-3810000Y31115000D03*
X-1270000Y28575000D03*
X-1270000Y31115000D03*
X1270000Y28575000D03*
X1270000Y31115000D03*
X3810000Y28575000D03*
X3810000Y31115000D03*
X6350000Y28575000D03*
X6350000Y31115000D03*
X8890000Y28575000D03*
X8890000Y31115000D03*
X11430000Y28575000D03*
X11430000Y31115000D03*
D11*
X28575000Y11430000D03*
D12*
X31115000Y11430000D03*
X28575000Y8890000D03*
X31115000Y8890000D03*
X28575000Y6350000D03*
X31115000Y6350000D03*
X28575000Y3810000D03*
X31115000Y3810000D03*
X28575000Y1270000D03*
X31115000Y1270000D03*
X28575000Y-1270000D03*
X31115000Y-1270000D03*
X28575000Y-3810000D03*
X31115000Y-3810000D03*
X28575000Y-6350000D03*
X31115000Y-6350000D03*
X28575000Y-8890000D03*
X31115000Y-8890000D03*
X28575000Y-11430000D03*
X31115000Y-11430000D03*
D10*
G36*
X64170922Y31392237D02*
X65607763Y32829078D01*
X66829078Y31607763D01*
X65392237Y30170922D01*
X64170922Y31392237D01*
X64170922Y31392237D01*
G37*
D13*
X67403814Y29811712D02*
X67188288Y29596186D01*
X69199865Y28015661D02*
X68984339Y27800135D01*
D10*
G36*
X-27832237Y17720922D02*
X-29269078Y19157763D01*
X-28047763Y20379078D01*
X-26610922Y18942237D01*
X-27832237Y17720922D01*
X-27832237Y17720922D01*
G37*
D13*
X-26251712Y20953814D02*
X-26036186Y20738288D01*
X-24455661Y22749865D02*
X-24240135Y22534339D01*
X-22659609Y24545917D02*
X-22444083Y24330391D01*
X-20863558Y26341968D02*
X-20648032Y26126442D01*
X-19067507Y28138019D02*
X-18851981Y27922493D01*
D10*
G36*
X27832237Y-17720922D02*
X29269078Y-19157763D01*
X28047763Y-20379078D01*
X26610922Y-18942237D01*
X27832237Y-17720922D01*
X27832237Y-17720922D01*
G37*
D13*
X26251712Y-20953814D02*
X26036186Y-20738288D01*
X24455661Y-22749865D02*
X24240135Y-22534339D01*
X22659609Y-24545917D02*
X22444083Y-24330391D01*
X20863558Y-26341968D02*
X20648032Y-26126442D01*
X19067507Y-28138019D02*
X18851981Y-27922493D01*
D14*
X-23629587Y-19880648D02*
X-23417455Y-20092780D01*
X-20094053Y-23416182D02*
X-19881921Y-23628314D01*
D15*
X-26334270Y-21383250D02*
X-25945362Y-20994342D01*
X-21384522Y-26332997D02*
X-20995614Y-25944089D01*
D16*
X46300000Y52600000D03*
D17*
X46300000Y50600000D03*
X46300000Y48600000D03*
D18*
X4500000Y8500000D03*
X9500000Y-15000000D03*
X24000000Y-1000000D03*
X15000000Y9500000D03*
X9500000Y15000000D03*
X-1000000Y-24000000D03*
X-24000000Y1000000D03*
X-9500000Y15000000D03*
X1000000Y24000000D03*
X13500000Y-9500000D03*
X-9500000Y-13500000D03*
X-13450000Y-9500000D03*
X-13500000Y9500000D03*
X5100000Y-3500000D03*
X5950000Y-3550000D03*
X3550000Y-7000000D03*
X4450000Y-7000000D03*
X6450000Y4950000D03*
X7000000Y4300000D03*
X7100000Y3500000D03*
X8000000Y3500000D03*
X500000Y-5000000D03*
X-5000000Y-500000D03*
X-500000Y5000000D03*
X5000000Y500000D03*
X-3175000Y2540000D03*
X7500000Y5500000D03*
X3000000Y-2500000D03*
X5000000Y1500000D03*
X1500000Y-5000000D03*
X-5000000Y-1500000D03*
X-1500000Y5000000D03*
X-2750000Y-6050000D03*
X-4400000Y-5300000D03*
X-6850000Y-3750000D03*
X-6850000Y-4650000D03*
X-4200000Y4650000D03*
X-4200000Y5550000D03*
X-3700000Y6950000D03*
X-4550000Y7000000D03*
X-4900000Y-23250000D03*
X-4850000Y-22350000D03*
X-4700000Y-21550000D03*
X-4700000Y-20650000D03*
X-23150000Y4900000D03*
X-22350000Y4850000D03*
X-21550000Y4700000D03*
X-20700000Y4700000D03*
X-7800000Y18600000D03*
X4850000Y23650000D03*
X4850000Y22750000D03*
X4700000Y21950000D03*
X4700000Y21050000D03*
X23350000Y-4900000D03*
X22450000Y-4900000D03*
X21650000Y-4700000D03*
X20700000Y-4700000D03*
X-22225000Y-23495000D03*
X-24130000Y-21590000D03*
D19*
G36*
X1510197Y25310197D02*
X1552211Y25282334D01*
X1600000Y25273000D01*
X10033000Y25273000D01*
X10033000Y16840000D01*
X10043006Y16790590D01*
X10070197Y16750197D01*
X16750197Y10070197D01*
X16792211Y10042334D01*
X16840000Y10033000D01*
X25273000Y10033000D01*
X25273000Y1600000D01*
X25283006Y1550590D01*
X25310197Y1510197D01*
X26820394Y0D01*
X25310197Y-1510197D01*
X25282334Y-1552211D01*
X25273000Y-1600000D01*
X25273000Y-10033000D01*
X16840000Y-10033000D01*
X16790590Y-10043006D01*
X16750197Y-10070197D01*
X10070197Y-16750197D01*
X10042334Y-16792211D01*
X10033000Y-16840000D01*
X10033000Y-25273000D01*
X1600000Y-25273000D01*
X1550590Y-25283006D01*
X1510197Y-25310197D01*
X0Y-26820394D01*
X-1510197Y-25310197D01*
X-1552211Y-25282334D01*
X-1600000Y-25273000D01*
X-10033000Y-25273000D01*
X-10033000Y-24185167D01*
X-1935162Y-24185167D01*
X-1793117Y-24528943D01*
X-1530327Y-24792192D01*
X-1186799Y-24934838D01*
X-814833Y-24935162D01*
X-471057Y-24793117D01*
X-207808Y-24530327D01*
X-65162Y-24186799D01*
X-64838Y-23814833D01*
X-206883Y-23471057D01*
X-469673Y-23207808D01*
X-813201Y-23065162D01*
X-1185167Y-23064838D01*
X-1528943Y-23206883D01*
X-1792192Y-23469673D01*
X-1934838Y-23813201D01*
X-1935162Y-24185167D01*
X-10033000Y-24185167D01*
X-10033000Y-23435167D01*
X-5835162Y-23435167D01*
X-5693117Y-23778943D01*
X-5430327Y-24042192D01*
X-5086799Y-24184838D01*
X-4714833Y-24185162D01*
X-4371057Y-24043117D01*
X-4107808Y-23780327D01*
X-3965162Y-23436799D01*
X-3964838Y-23064833D01*
X-4049420Y-22860127D01*
X-3915162Y-22536799D01*
X-3914838Y-22164833D01*
X-3937506Y-22109973D01*
X-3907808Y-22080327D01*
X-3765162Y-21736799D01*
X-3764838Y-21364833D01*
X-3874359Y-21099772D01*
X-3765162Y-20836799D01*
X-3764838Y-20464833D01*
X-3906883Y-20121057D01*
X-4169673Y-19857808D01*
X-4513201Y-19715162D01*
X-4885167Y-19714838D01*
X-5228943Y-19856883D01*
X-5492192Y-20119673D01*
X-5634838Y-20463201D01*
X-5635162Y-20835167D01*
X-5525641Y-21100228D01*
X-5634838Y-21363201D01*
X-5635162Y-21735167D01*
X-5612494Y-21790027D01*
X-5642192Y-21819673D01*
X-5784838Y-22163201D01*
X-5785162Y-22535167D01*
X-5700580Y-22739873D01*
X-5834838Y-23063201D01*
X-5835162Y-23435167D01*
X-10033000Y-23435167D01*
X-10033000Y-16840000D01*
X-10043006Y-16790590D01*
X-10070197Y-16750197D01*
X-11635227Y-15185167D01*
X8564838Y-15185167D01*
X8706883Y-15528943D01*
X8969673Y-15792192D01*
X9313201Y-15934838D01*
X9685167Y-15935162D01*
X10028943Y-15793117D01*
X10292192Y-15530327D01*
X10434838Y-15186799D01*
X10435162Y-14814833D01*
X10293117Y-14471057D01*
X10030327Y-14207808D01*
X9686799Y-14065162D01*
X9314833Y-14064838D01*
X8971057Y-14206883D01*
X8707808Y-14469673D01*
X8565162Y-14813201D01*
X8564838Y-15185167D01*
X-11635227Y-15185167D01*
X-13135227Y-13685167D01*
X-10435162Y-13685167D01*
X-10293117Y-14028943D01*
X-10030327Y-14292192D01*
X-9686799Y-14434838D01*
X-9314833Y-14435162D01*
X-8971057Y-14293117D01*
X-8707808Y-14030327D01*
X-8565162Y-13686799D01*
X-8564838Y-13314833D01*
X-8706883Y-12971057D01*
X-8969673Y-12707808D01*
X-9313201Y-12565162D01*
X-9685167Y-12564838D01*
X-10028943Y-12706883D01*
X-10292192Y-12969673D01*
X-10434838Y-13313201D01*
X-10435162Y-13685167D01*
X-13135227Y-13685167D01*
X-16750197Y-10070197D01*
X-16792211Y-10042334D01*
X-16840000Y-10033000D01*
X-25273000Y-10033000D01*
X-25273000Y-9685167D01*
X-14385162Y-9685167D01*
X-14243117Y-10028943D01*
X-13980327Y-10292192D01*
X-13636799Y-10434838D01*
X-13264833Y-10435162D01*
X-12921057Y-10293117D01*
X-12657808Y-10030327D01*
X-12515162Y-9686799D01*
X-12515161Y-9685167D01*
X12564838Y-9685167D01*
X12706883Y-10028943D01*
X12969673Y-10292192D01*
X13313201Y-10434838D01*
X13685167Y-10435162D01*
X14028943Y-10293117D01*
X14292192Y-10030327D01*
X14434838Y-9686799D01*
X14435162Y-9314833D01*
X14293117Y-8971057D01*
X14030327Y-8707808D01*
X13686799Y-8565162D01*
X13314833Y-8564838D01*
X12971057Y-8706883D01*
X12707808Y-8969673D01*
X12565162Y-9313201D01*
X12564838Y-9685167D01*
X-12515161Y-9685167D01*
X-12514838Y-9314833D01*
X-12656883Y-8971057D01*
X-12919673Y-8707808D01*
X-13263201Y-8565162D01*
X-13635167Y-8564838D01*
X-13978943Y-8706883D01*
X-14242192Y-8969673D01*
X-14384838Y-9313201D01*
X-14385162Y-9685167D01*
X-25273000Y-9685167D01*
X-25273000Y-7185167D01*
X2614838Y-7185167D01*
X2756883Y-7528943D01*
X3019673Y-7792192D01*
X3363201Y-7934838D01*
X3735167Y-7935162D01*
X4000228Y-7825641D01*
X4263201Y-7934838D01*
X4635167Y-7935162D01*
X4978943Y-7793117D01*
X5242192Y-7530327D01*
X5384838Y-7186799D01*
X5385162Y-6814833D01*
X5243117Y-6471057D01*
X4980327Y-6207808D01*
X4636799Y-6065162D01*
X4264833Y-6064838D01*
X3999772Y-6174359D01*
X3736799Y-6065162D01*
X3364833Y-6064838D01*
X3021057Y-6206883D01*
X2757808Y-6469673D01*
X2615162Y-6813201D01*
X2614838Y-7185167D01*
X-25273000Y-7185167D01*
X-25273000Y-3935167D01*
X-7785162Y-3935167D01*
X-7675641Y-4200228D01*
X-7784838Y-4463201D01*
X-7785162Y-4835167D01*
X-7643117Y-5178943D01*
X-7380327Y-5442192D01*
X-7036799Y-5584838D01*
X-6664833Y-5585162D01*
X-6422827Y-5485167D01*
X-5335162Y-5485167D01*
X-5193117Y-5828943D01*
X-4930327Y-6092192D01*
X-4586799Y-6234838D01*
X-4214833Y-6235162D01*
X-3871057Y-6093117D01*
X-3684876Y-5907261D01*
X-3685162Y-6235167D01*
X-3543117Y-6578943D01*
X-3280327Y-6842192D01*
X-2936799Y-6984838D01*
X-2564833Y-6985162D01*
X-2221057Y-6843117D01*
X-1957808Y-6580327D01*
X-1815162Y-6236799D01*
X-1814838Y-5864833D01*
X-1956883Y-5521057D01*
X-2219673Y-5257808D01*
X-2394611Y-5185167D01*
X-435162Y-5185167D01*
X-293117Y-5528943D01*
X-30327Y-5792192D01*
X313201Y-5934838D01*
X685167Y-5935162D01*
X1028943Y-5793117D01*
X1292192Y-5530327D01*
X1434838Y-5186799D01*
X1435100Y-4885167D01*
X19764838Y-4885167D01*
X19906883Y-5228943D01*
X20169673Y-5492192D01*
X20513201Y-5634838D01*
X20885167Y-5635162D01*
X21175290Y-5515286D01*
X21463201Y-5634838D01*
X21835167Y-5635162D01*
X21854690Y-5627095D01*
X21919673Y-5692192D01*
X22263201Y-5834838D01*
X22635167Y-5835162D01*
X22900228Y-5725641D01*
X23163201Y-5834838D01*
X23535167Y-5835162D01*
X23878943Y-5693117D01*
X24142192Y-5430327D01*
X24284838Y-5086799D01*
X24285162Y-4714833D01*
X24143117Y-4371057D01*
X23880327Y-4107808D01*
X23536799Y-3965162D01*
X23164833Y-3964838D01*
X22899772Y-4074359D01*
X22636799Y-3965162D01*
X22264833Y-3964838D01*
X22245310Y-3972905D01*
X22180327Y-3907808D01*
X21836799Y-3765162D01*
X21464833Y-3764838D01*
X21174710Y-3884714D01*
X20886799Y-3765162D01*
X20514833Y-3764838D01*
X20171057Y-3906883D01*
X19907808Y-4169673D01*
X19765162Y-4513201D01*
X19764838Y-4885167D01*
X1435100Y-4885167D01*
X1435162Y-4814833D01*
X1293117Y-4471057D01*
X1030327Y-4207808D01*
X686799Y-4065162D01*
X314833Y-4064838D01*
X-28943Y-4206883D01*
X-292192Y-4469673D01*
X-434838Y-4813201D01*
X-435162Y-5185167D01*
X-2394611Y-5185167D01*
X-2563201Y-5115162D01*
X-2935167Y-5114838D01*
X-3278943Y-5256883D01*
X-3465124Y-5442739D01*
X-3464838Y-5114833D01*
X-3606883Y-4771057D01*
X-3869673Y-4507808D01*
X-4213201Y-4365162D01*
X-4585167Y-4364838D01*
X-4928943Y-4506883D01*
X-5192192Y-4769673D01*
X-5334838Y-5113201D01*
X-5335162Y-5485167D01*
X-6422827Y-5485167D01*
X-6321057Y-5443117D01*
X-6057808Y-5180327D01*
X-5915162Y-4836799D01*
X-5914838Y-4464833D01*
X-6024359Y-4199772D01*
X-5915162Y-3936799D01*
X-5914943Y-3685167D01*
X4164838Y-3685167D01*
X4306883Y-4028943D01*
X4569673Y-4292192D01*
X4913201Y-4434838D01*
X5285167Y-4435162D01*
X5464811Y-4360935D01*
X5763201Y-4484838D01*
X6135167Y-4485162D01*
X6478943Y-4343117D01*
X6742192Y-4080327D01*
X6884838Y-3736799D01*
X6885162Y-3364833D01*
X6743117Y-3021057D01*
X6480327Y-2757808D01*
X6136799Y-2615162D01*
X5764833Y-2614838D01*
X5585189Y-2689065D01*
X5286799Y-2565162D01*
X4914833Y-2564838D01*
X4571057Y-2706883D01*
X4307808Y-2969673D01*
X4165162Y-3313201D01*
X4164838Y-3685167D01*
X-5914943Y-3685167D01*
X-5914838Y-3564833D01*
X-6056883Y-3221057D01*
X-6319673Y-2957808D01*
X-6663201Y-2815162D01*
X-7035167Y-2814838D01*
X-7378943Y-2956883D01*
X-7642192Y-3219673D01*
X-7784838Y-3563201D01*
X-7785162Y-3935167D01*
X-25273000Y-3935167D01*
X-25273000Y-1600000D01*
X-25283006Y-1550590D01*
X-25310197Y-1510197D01*
X-26135227Y-685167D01*
X-5935162Y-685167D01*
X-5793117Y-1028943D01*
X-5530327Y-1292192D01*
X-5186799Y-1434838D01*
X-4814833Y-1435162D01*
X-4471057Y-1293117D01*
X-4362919Y-1185167D01*
X23064838Y-1185167D01*
X23206883Y-1528943D01*
X23469673Y-1792192D01*
X23813201Y-1934838D01*
X24185167Y-1935162D01*
X24528943Y-1793117D01*
X24792192Y-1530327D01*
X24934838Y-1186799D01*
X24935162Y-814833D01*
X24793117Y-471057D01*
X24530327Y-207808D01*
X24186799Y-65162D01*
X23814833Y-64838D01*
X23471057Y-206883D01*
X23207808Y-469673D01*
X23065162Y-813201D01*
X23064838Y-1185167D01*
X-4362919Y-1185167D01*
X-4207808Y-1030327D01*
X-4065162Y-686799D01*
X-4064838Y-314833D01*
X-4206883Y28943D01*
X-4469673Y292192D01*
X-4524198Y314833D01*
X4064838Y314833D01*
X4206883Y-28943D01*
X4469673Y-292192D01*
X4813201Y-434838D01*
X5185167Y-435162D01*
X5528943Y-293117D01*
X5792192Y-30327D01*
X5934838Y313201D01*
X5935162Y685167D01*
X5793117Y1028943D01*
X5530327Y1292192D01*
X5186799Y1434838D01*
X4814833Y1435162D01*
X4471057Y1293117D01*
X4207808Y1030327D01*
X4065162Y686799D01*
X4064838Y314833D01*
X-4524198Y314833D01*
X-4813201Y434838D01*
X-5185167Y435162D01*
X-5528943Y293117D01*
X-5792192Y30327D01*
X-5934838Y-313201D01*
X-5935162Y-685167D01*
X-26135227Y-685167D01*
X-26820394Y0D01*
X-26005561Y814833D01*
X-24935162Y814833D01*
X-24793117Y471057D01*
X-24530327Y207808D01*
X-24186799Y65162D01*
X-23814833Y64838D01*
X-23471057Y206883D01*
X-23207808Y469673D01*
X-23065162Y813201D01*
X-23064838Y1185167D01*
X-23206883Y1528943D01*
X-23469673Y1792192D01*
X-23813201Y1934838D01*
X-24185167Y1935162D01*
X-24528943Y1793117D01*
X-24792192Y1530327D01*
X-24934838Y1186799D01*
X-24935162Y814833D01*
X-26005561Y814833D01*
X-25310197Y1510197D01*
X-25282334Y1552211D01*
X-25273000Y1600000D01*
X-25273000Y2354833D01*
X-4110162Y2354833D01*
X-3968117Y2011057D01*
X-3705327Y1747808D01*
X-3361799Y1605162D01*
X-2989833Y1604838D01*
X-2646057Y1746883D01*
X-2382808Y2009673D01*
X-2240162Y2353201D01*
X-2239838Y2725167D01*
X-2381883Y3068943D01*
X-2644673Y3332192D01*
X-2988201Y3474838D01*
X-3360167Y3475162D01*
X-3703943Y3333117D01*
X-3967192Y3070327D01*
X-4109838Y2726799D01*
X-4110162Y2354833D01*
X-25273000Y2354833D01*
X-25273000Y4714833D01*
X-24085162Y4714833D01*
X-23943117Y4371057D01*
X-23680327Y4107808D01*
X-23336799Y3965162D01*
X-22964833Y3964838D01*
X-22810251Y4028710D01*
X-22536799Y3915162D01*
X-22164833Y3914838D01*
X-22109973Y3937506D01*
X-22080327Y3907808D01*
X-21736799Y3765162D01*
X-21364833Y3764838D01*
X-21124834Y3864003D01*
X-20886799Y3765162D01*
X-20514833Y3764838D01*
X-20171057Y3906883D01*
X-19907808Y4169673D01*
X-19765162Y4513201D01*
X-19764838Y4885167D01*
X-19906883Y5228943D01*
X-20169673Y5492192D01*
X-20513201Y5634838D01*
X-20885167Y5635162D01*
X-21125166Y5535997D01*
X-21363201Y5634838D01*
X-21735167Y5635162D01*
X-21790027Y5612494D01*
X-21819673Y5642192D01*
X-22163201Y5784838D01*
X-22535167Y5785162D01*
X-22689749Y5721290D01*
X-22963201Y5834838D01*
X-23335167Y5835162D01*
X-23678943Y5693117D01*
X-23942192Y5430327D01*
X-24084838Y5086799D01*
X-24085162Y4714833D01*
X-25273000Y4714833D01*
X-25273000Y6814833D01*
X-5485162Y6814833D01*
X-5343117Y6471057D01*
X-5080327Y6207808D01*
X-4927895Y6144512D01*
X-4992192Y6080327D01*
X-5134838Y5736799D01*
X-5135162Y5364833D01*
X-5025641Y5099772D01*
X-5134838Y4836799D01*
X-5135162Y4464833D01*
X-4993117Y4121057D01*
X-4730327Y3857808D01*
X-4386799Y3715162D01*
X-4014833Y3714838D01*
X-3671057Y3856883D01*
X-3407808Y4119673D01*
X-3265162Y4463201D01*
X-3264856Y4814833D01*
X-1435162Y4814833D01*
X-1293117Y4471057D01*
X-1030327Y4207808D01*
X-686799Y4065162D01*
X-314833Y4064838D01*
X28943Y4206883D01*
X292192Y4469673D01*
X414753Y4764833D01*
X5514838Y4764833D01*
X5656883Y4421057D01*
X5919673Y4157808D01*
X6073468Y4093946D01*
X6203524Y3779185D01*
X6165162Y3686799D01*
X6164838Y3314833D01*
X6306883Y2971057D01*
X6569673Y2707808D01*
X6913201Y2565162D01*
X7285167Y2564838D01*
X7550228Y2674359D01*
X7813201Y2565162D01*
X8185167Y2564838D01*
X8528943Y2706883D01*
X8792192Y2969673D01*
X8934838Y3313201D01*
X8935162Y3685167D01*
X8793117Y4028943D01*
X8530327Y4292192D01*
X8186799Y4434838D01*
X7935118Y4435057D01*
X7935162Y4485167D01*
X7793117Y4828943D01*
X7530327Y5092192D01*
X7376532Y5156054D01*
X7243117Y5478943D01*
X6980327Y5742192D01*
X6636799Y5884838D01*
X6264833Y5885162D01*
X5921057Y5743117D01*
X5657808Y5480327D01*
X5515162Y5136799D01*
X5514838Y4764833D01*
X414753Y4764833D01*
X434838Y4813201D01*
X435162Y5185167D01*
X293117Y5528943D01*
X30327Y5792192D01*
X-313201Y5934838D01*
X-685167Y5935162D01*
X-1028943Y5793117D01*
X-1292192Y5530327D01*
X-1434838Y5186799D01*
X-1435162Y4814833D01*
X-3264856Y4814833D01*
X-3264838Y4835167D01*
X-3374359Y5100228D01*
X-3265162Y5363201D01*
X-3264838Y5735167D01*
X-3400000Y6062286D01*
X-3171057Y6156883D01*
X-2907808Y6419673D01*
X-2765162Y6763201D01*
X-2764838Y7135167D01*
X-2906883Y7478943D01*
X-3169673Y7742192D01*
X-3513201Y7884838D01*
X-3885167Y7885162D01*
X-4064811Y7810935D01*
X-4363201Y7934838D01*
X-4735167Y7935162D01*
X-5078943Y7793117D01*
X-5342192Y7530327D01*
X-5484838Y7186799D01*
X-5485162Y6814833D01*
X-25273000Y6814833D01*
X-25273000Y8314833D01*
X3564838Y8314833D01*
X3706883Y7971057D01*
X3969673Y7707808D01*
X4313201Y7565162D01*
X4685167Y7564838D01*
X5028943Y7706883D01*
X5292192Y7969673D01*
X5434838Y8313201D01*
X5435162Y8685167D01*
X5293117Y9028943D01*
X5030327Y9292192D01*
X4975802Y9314833D01*
X14064838Y9314833D01*
X14206883Y8971057D01*
X14469673Y8707808D01*
X14813201Y8565162D01*
X15185167Y8564838D01*
X15528943Y8706883D01*
X15792192Y8969673D01*
X15934838Y9313201D01*
X15935162Y9685167D01*
X15793117Y10028943D01*
X15530327Y10292192D01*
X15186799Y10434838D01*
X14814833Y10435162D01*
X14471057Y10293117D01*
X14207808Y10030327D01*
X14065162Y9686799D01*
X14064838Y9314833D01*
X4975802Y9314833D01*
X4686799Y9434838D01*
X4314833Y9435162D01*
X3971057Y9293117D01*
X3707808Y9030327D01*
X3565162Y8686799D01*
X3564838Y8314833D01*
X-25273000Y8314833D01*
X-25273000Y9314833D01*
X-14435162Y9314833D01*
X-14293117Y8971057D01*
X-14030327Y8707808D01*
X-13686799Y8565162D01*
X-13314833Y8564838D01*
X-12971057Y8706883D01*
X-12707808Y8969673D01*
X-12565162Y9313201D01*
X-12564838Y9685167D01*
X-12706883Y10028943D01*
X-12969673Y10292192D01*
X-13313201Y10434838D01*
X-13685167Y10435162D01*
X-14028943Y10293117D01*
X-14292192Y10030327D01*
X-14434838Y9686799D01*
X-14435162Y9314833D01*
X-25273000Y9314833D01*
X-25273000Y10033000D01*
X-16840000Y10033000D01*
X-16790590Y10043006D01*
X-16750197Y10070197D01*
X-12005561Y14814833D01*
X-10435162Y14814833D01*
X-10293117Y14471057D01*
X-10030327Y14207808D01*
X-9686799Y14065162D01*
X-9314833Y14064838D01*
X-8971057Y14206883D01*
X-8707808Y14469673D01*
X-8565162Y14813201D01*
X-8565161Y14814833D01*
X8564838Y14814833D01*
X8706883Y14471057D01*
X8969673Y14207808D01*
X9313201Y14065162D01*
X9685167Y14064838D01*
X10028943Y14206883D01*
X10292192Y14469673D01*
X10434838Y14813201D01*
X10435162Y15185167D01*
X10293117Y15528943D01*
X10030327Y15792192D01*
X9686799Y15934838D01*
X9314833Y15935162D01*
X8971057Y15793117D01*
X8707808Y15530327D01*
X8565162Y15186799D01*
X8564838Y14814833D01*
X-8565161Y14814833D01*
X-8564838Y15185167D01*
X-8706883Y15528943D01*
X-8969673Y15792192D01*
X-9313201Y15934838D01*
X-9685167Y15935162D01*
X-10028943Y15793117D01*
X-10292192Y15530327D01*
X-10434838Y15186799D01*
X-10435162Y14814833D01*
X-12005561Y14814833D01*
X-10070197Y16750197D01*
X-10042334Y16792211D01*
X-10033000Y16840000D01*
X-10033000Y18414833D01*
X-8735162Y18414833D01*
X-8593117Y18071057D01*
X-8330327Y17807808D01*
X-7986799Y17665162D01*
X-7614833Y17664838D01*
X-7271057Y17806883D01*
X-7007808Y18069673D01*
X-6865162Y18413201D01*
X-6864838Y18785167D01*
X-7006883Y19128943D01*
X-7269673Y19392192D01*
X-7613201Y19534838D01*
X-7985167Y19535162D01*
X-8328943Y19393117D01*
X-8592192Y19130327D01*
X-8734838Y18786799D01*
X-8735162Y18414833D01*
X-10033000Y18414833D01*
X-10033000Y21764833D01*
X3764838Y21764833D01*
X3874359Y21499772D01*
X3765162Y21236799D01*
X3764838Y20864833D01*
X3906883Y20521057D01*
X4169673Y20257808D01*
X4513201Y20115162D01*
X4885167Y20114838D01*
X5228943Y20256883D01*
X5492192Y20519673D01*
X5634838Y20863201D01*
X5635162Y21235167D01*
X5525641Y21500228D01*
X5634838Y21763201D01*
X5635162Y22135167D01*
X5612494Y22190027D01*
X5642192Y22219673D01*
X5784838Y22563201D01*
X5785162Y22935167D01*
X5675641Y23200228D01*
X5784838Y23463201D01*
X5785162Y23835167D01*
X5643117Y24178943D01*
X5380327Y24442192D01*
X5036799Y24584838D01*
X4664833Y24585162D01*
X4321057Y24443117D01*
X4057808Y24180327D01*
X3915162Y23836799D01*
X3914838Y23464833D01*
X4024359Y23199772D01*
X3915162Y22936799D01*
X3914838Y22564833D01*
X3937506Y22509973D01*
X3907808Y22480327D01*
X3765162Y22136799D01*
X3764838Y21764833D01*
X-10033000Y21764833D01*
X-10033000Y23814833D01*
X64838Y23814833D01*
X206883Y23471057D01*
X469673Y23207808D01*
X813201Y23065162D01*
X1185167Y23064838D01*
X1528943Y23206883D01*
X1792192Y23469673D01*
X1934838Y23813201D01*
X1935162Y24185167D01*
X1793117Y24528943D01*
X1530327Y24792192D01*
X1186799Y24934838D01*
X814833Y24935162D01*
X471057Y24793117D01*
X207808Y24530327D01*
X65162Y24186799D01*
X64838Y23814833D01*
X-10033000Y23814833D01*
X-10033000Y25273000D01*
X-1600000Y25273000D01*
X-1550590Y25283006D01*
X-1510197Y25310197D01*
X0Y26820394D01*
X1510197Y25310197D01*
X1510197Y25310197D01*
G37*
X1510197Y25310197D02*
X1552211Y25282334D01*
X1600000Y25273000D01*
X10033000Y25273000D01*
X10033000Y16840000D01*
X10043006Y16790590D01*
X10070197Y16750197D01*
X16750197Y10070197D01*
X16792211Y10042334D01*
X16840000Y10033000D01*
X25273000Y10033000D01*
X25273000Y1600000D01*
X25283006Y1550590D01*
X25310197Y1510197D01*
X26820394Y0D01*
X25310197Y-1510197D01*
X25282334Y-1552211D01*
X25273000Y-1600000D01*
X25273000Y-10033000D01*
X16840000Y-10033000D01*
X16790590Y-10043006D01*
X16750197Y-10070197D01*
X10070197Y-16750197D01*
X10042334Y-16792211D01*
X10033000Y-16840000D01*
X10033000Y-25273000D01*
X1600000Y-25273000D01*
X1550590Y-25283006D01*
X1510197Y-25310197D01*
X0Y-26820394D01*
X-1510197Y-25310197D01*
X-1552211Y-25282334D01*
X-1600000Y-25273000D01*
X-10033000Y-25273000D01*
X-10033000Y-24185167D01*
X-1935162Y-24185167D01*
X-1793117Y-24528943D01*
X-1530327Y-24792192D01*
X-1186799Y-24934838D01*
X-814833Y-24935162D01*
X-471057Y-24793117D01*
X-207808Y-24530327D01*
X-65162Y-24186799D01*
X-64838Y-23814833D01*
X-206883Y-23471057D01*
X-469673Y-23207808D01*
X-813201Y-23065162D01*
X-1185167Y-23064838D01*
X-1528943Y-23206883D01*
X-1792192Y-23469673D01*
X-1934838Y-23813201D01*
X-1935162Y-24185167D01*
X-10033000Y-24185167D01*
X-10033000Y-23435167D01*
X-5835162Y-23435167D01*
X-5693117Y-23778943D01*
X-5430327Y-24042192D01*
X-5086799Y-24184838D01*
X-4714833Y-24185162D01*
X-4371057Y-24043117D01*
X-4107808Y-23780327D01*
X-3965162Y-23436799D01*
X-3964838Y-23064833D01*
X-4049420Y-22860127D01*
X-3915162Y-22536799D01*
X-3914838Y-22164833D01*
X-3937506Y-22109973D01*
X-3907808Y-22080327D01*
X-3765162Y-21736799D01*
X-3764838Y-21364833D01*
X-3874359Y-21099772D01*
X-3765162Y-20836799D01*
X-3764838Y-20464833D01*
X-3906883Y-20121057D01*
X-4169673Y-19857808D01*
X-4513201Y-19715162D01*
X-4885167Y-19714838D01*
X-5228943Y-19856883D01*
X-5492192Y-20119673D01*
X-5634838Y-20463201D01*
X-5635162Y-20835167D01*
X-5525641Y-21100228D01*
X-5634838Y-21363201D01*
X-5635162Y-21735167D01*
X-5612494Y-21790027D01*
X-5642192Y-21819673D01*
X-5784838Y-22163201D01*
X-5785162Y-22535167D01*
X-5700580Y-22739873D01*
X-5834838Y-23063201D01*
X-5835162Y-23435167D01*
X-10033000Y-23435167D01*
X-10033000Y-16840000D01*
X-10043006Y-16790590D01*
X-10070197Y-16750197D01*
X-11635227Y-15185167D01*
X8564838Y-15185167D01*
X8706883Y-15528943D01*
X8969673Y-15792192D01*
X9313201Y-15934838D01*
X9685167Y-15935162D01*
X10028943Y-15793117D01*
X10292192Y-15530327D01*
X10434838Y-15186799D01*
X10435162Y-14814833D01*
X10293117Y-14471057D01*
X10030327Y-14207808D01*
X9686799Y-14065162D01*
X9314833Y-14064838D01*
X8971057Y-14206883D01*
X8707808Y-14469673D01*
X8565162Y-14813201D01*
X8564838Y-15185167D01*
X-11635227Y-15185167D01*
X-13135227Y-13685167D01*
X-10435162Y-13685167D01*
X-10293117Y-14028943D01*
X-10030327Y-14292192D01*
X-9686799Y-14434838D01*
X-9314833Y-14435162D01*
X-8971057Y-14293117D01*
X-8707808Y-14030327D01*
X-8565162Y-13686799D01*
X-8564838Y-13314833D01*
X-8706883Y-12971057D01*
X-8969673Y-12707808D01*
X-9313201Y-12565162D01*
X-9685167Y-12564838D01*
X-10028943Y-12706883D01*
X-10292192Y-12969673D01*
X-10434838Y-13313201D01*
X-10435162Y-13685167D01*
X-13135227Y-13685167D01*
X-16750197Y-10070197D01*
X-16792211Y-10042334D01*
X-16840000Y-10033000D01*
X-25273000Y-10033000D01*
X-25273000Y-9685167D01*
X-14385162Y-9685167D01*
X-14243117Y-10028943D01*
X-13980327Y-10292192D01*
X-13636799Y-10434838D01*
X-13264833Y-10435162D01*
X-12921057Y-10293117D01*
X-12657808Y-10030327D01*
X-12515162Y-9686799D01*
X-12515161Y-9685167D01*
X12564838Y-9685167D01*
X12706883Y-10028943D01*
X12969673Y-10292192D01*
X13313201Y-10434838D01*
X13685167Y-10435162D01*
X14028943Y-10293117D01*
X14292192Y-10030327D01*
X14434838Y-9686799D01*
X14435162Y-9314833D01*
X14293117Y-8971057D01*
X14030327Y-8707808D01*
X13686799Y-8565162D01*
X13314833Y-8564838D01*
X12971057Y-8706883D01*
X12707808Y-8969673D01*
X12565162Y-9313201D01*
X12564838Y-9685167D01*
X-12515161Y-9685167D01*
X-12514838Y-9314833D01*
X-12656883Y-8971057D01*
X-12919673Y-8707808D01*
X-13263201Y-8565162D01*
X-13635167Y-8564838D01*
X-13978943Y-8706883D01*
X-14242192Y-8969673D01*
X-14384838Y-9313201D01*
X-14385162Y-9685167D01*
X-25273000Y-9685167D01*
X-25273000Y-7185167D01*
X2614838Y-7185167D01*
X2756883Y-7528943D01*
X3019673Y-7792192D01*
X3363201Y-7934838D01*
X3735167Y-7935162D01*
X4000228Y-7825641D01*
X4263201Y-7934838D01*
X4635167Y-7935162D01*
X4978943Y-7793117D01*
X5242192Y-7530327D01*
X5384838Y-7186799D01*
X5385162Y-6814833D01*
X5243117Y-6471057D01*
X4980327Y-6207808D01*
X4636799Y-6065162D01*
X4264833Y-6064838D01*
X3999772Y-6174359D01*
X3736799Y-6065162D01*
X3364833Y-6064838D01*
X3021057Y-6206883D01*
X2757808Y-6469673D01*
X2615162Y-6813201D01*
X2614838Y-7185167D01*
X-25273000Y-7185167D01*
X-25273000Y-3935167D01*
X-7785162Y-3935167D01*
X-7675641Y-4200228D01*
X-7784838Y-4463201D01*
X-7785162Y-4835167D01*
X-7643117Y-5178943D01*
X-7380327Y-5442192D01*
X-7036799Y-5584838D01*
X-6664833Y-5585162D01*
X-6422827Y-5485167D01*
X-5335162Y-5485167D01*
X-5193117Y-5828943D01*
X-4930327Y-6092192D01*
X-4586799Y-6234838D01*
X-4214833Y-6235162D01*
X-3871057Y-6093117D01*
X-3684876Y-5907261D01*
X-3685162Y-6235167D01*
X-3543117Y-6578943D01*
X-3280327Y-6842192D01*
X-2936799Y-6984838D01*
X-2564833Y-6985162D01*
X-2221057Y-6843117D01*
X-1957808Y-6580327D01*
X-1815162Y-6236799D01*
X-1814838Y-5864833D01*
X-1956883Y-5521057D01*
X-2219673Y-5257808D01*
X-2394611Y-5185167D01*
X-435162Y-5185167D01*
X-293117Y-5528943D01*
X-30327Y-5792192D01*
X313201Y-5934838D01*
X685167Y-5935162D01*
X1028943Y-5793117D01*
X1292192Y-5530327D01*
X1434838Y-5186799D01*
X1435100Y-4885167D01*
X19764838Y-4885167D01*
X19906883Y-5228943D01*
X20169673Y-5492192D01*
X20513201Y-5634838D01*
X20885167Y-5635162D01*
X21175290Y-5515286D01*
X21463201Y-5634838D01*
X21835167Y-5635162D01*
X21854690Y-5627095D01*
X21919673Y-5692192D01*
X22263201Y-5834838D01*
X22635167Y-5835162D01*
X22900228Y-5725641D01*
X23163201Y-5834838D01*
X23535167Y-5835162D01*
X23878943Y-5693117D01*
X24142192Y-5430327D01*
X24284838Y-5086799D01*
X24285162Y-4714833D01*
X24143117Y-4371057D01*
X23880327Y-4107808D01*
X23536799Y-3965162D01*
X23164833Y-3964838D01*
X22899772Y-4074359D01*
X22636799Y-3965162D01*
X22264833Y-3964838D01*
X22245310Y-3972905D01*
X22180327Y-3907808D01*
X21836799Y-3765162D01*
X21464833Y-3764838D01*
X21174710Y-3884714D01*
X20886799Y-3765162D01*
X20514833Y-3764838D01*
X20171057Y-3906883D01*
X19907808Y-4169673D01*
X19765162Y-4513201D01*
X19764838Y-4885167D01*
X1435100Y-4885167D01*
X1435162Y-4814833D01*
X1293117Y-4471057D01*
X1030327Y-4207808D01*
X686799Y-4065162D01*
X314833Y-4064838D01*
X-28943Y-4206883D01*
X-292192Y-4469673D01*
X-434838Y-4813201D01*
X-435162Y-5185167D01*
X-2394611Y-5185167D01*
X-2563201Y-5115162D01*
X-2935167Y-5114838D01*
X-3278943Y-5256883D01*
X-3465124Y-5442739D01*
X-3464838Y-5114833D01*
X-3606883Y-4771057D01*
X-3869673Y-4507808D01*
X-4213201Y-4365162D01*
X-4585167Y-4364838D01*
X-4928943Y-4506883D01*
X-5192192Y-4769673D01*
X-5334838Y-5113201D01*
X-5335162Y-5485167D01*
X-6422827Y-5485167D01*
X-6321057Y-5443117D01*
X-6057808Y-5180327D01*
X-5915162Y-4836799D01*
X-5914838Y-4464833D01*
X-6024359Y-4199772D01*
X-5915162Y-3936799D01*
X-5914943Y-3685167D01*
X4164838Y-3685167D01*
X4306883Y-4028943D01*
X4569673Y-4292192D01*
X4913201Y-4434838D01*
X5285167Y-4435162D01*
X5464811Y-4360935D01*
X5763201Y-4484838D01*
X6135167Y-4485162D01*
X6478943Y-4343117D01*
X6742192Y-4080327D01*
X6884838Y-3736799D01*
X6885162Y-3364833D01*
X6743117Y-3021057D01*
X6480327Y-2757808D01*
X6136799Y-2615162D01*
X5764833Y-2614838D01*
X5585189Y-2689065D01*
X5286799Y-2565162D01*
X4914833Y-2564838D01*
X4571057Y-2706883D01*
X4307808Y-2969673D01*
X4165162Y-3313201D01*
X4164838Y-3685167D01*
X-5914943Y-3685167D01*
X-5914838Y-3564833D01*
X-6056883Y-3221057D01*
X-6319673Y-2957808D01*
X-6663201Y-2815162D01*
X-7035167Y-2814838D01*
X-7378943Y-2956883D01*
X-7642192Y-3219673D01*
X-7784838Y-3563201D01*
X-7785162Y-3935167D01*
X-25273000Y-3935167D01*
X-25273000Y-1600000D01*
X-25283006Y-1550590D01*
X-25310197Y-1510197D01*
X-26135227Y-685167D01*
X-5935162Y-685167D01*
X-5793117Y-1028943D01*
X-5530327Y-1292192D01*
X-5186799Y-1434838D01*
X-4814833Y-1435162D01*
X-4471057Y-1293117D01*
X-4362919Y-1185167D01*
X23064838Y-1185167D01*
X23206883Y-1528943D01*
X23469673Y-1792192D01*
X23813201Y-1934838D01*
X24185167Y-1935162D01*
X24528943Y-1793117D01*
X24792192Y-1530327D01*
X24934838Y-1186799D01*
X24935162Y-814833D01*
X24793117Y-471057D01*
X24530327Y-207808D01*
X24186799Y-65162D01*
X23814833Y-64838D01*
X23471057Y-206883D01*
X23207808Y-469673D01*
X23065162Y-813201D01*
X23064838Y-1185167D01*
X-4362919Y-1185167D01*
X-4207808Y-1030327D01*
X-4065162Y-686799D01*
X-4064838Y-314833D01*
X-4206883Y28943D01*
X-4469673Y292192D01*
X-4524198Y314833D01*
X4064838Y314833D01*
X4206883Y-28943D01*
X4469673Y-292192D01*
X4813201Y-434838D01*
X5185167Y-435162D01*
X5528943Y-293117D01*
X5792192Y-30327D01*
X5934838Y313201D01*
X5935162Y685167D01*
X5793117Y1028943D01*
X5530327Y1292192D01*
X5186799Y1434838D01*
X4814833Y1435162D01*
X4471057Y1293117D01*
X4207808Y1030327D01*
X4065162Y686799D01*
X4064838Y314833D01*
X-4524198Y314833D01*
X-4813201Y434838D01*
X-5185167Y435162D01*
X-5528943Y293117D01*
X-5792192Y30327D01*
X-5934838Y-313201D01*
X-5935162Y-685167D01*
X-26135227Y-685167D01*
X-26820394Y0D01*
X-26005561Y814833D01*
X-24935162Y814833D01*
X-24793117Y471057D01*
X-24530327Y207808D01*
X-24186799Y65162D01*
X-23814833Y64838D01*
X-23471057Y206883D01*
X-23207808Y469673D01*
X-23065162Y813201D01*
X-23064838Y1185167D01*
X-23206883Y1528943D01*
X-23469673Y1792192D01*
X-23813201Y1934838D01*
X-24185167Y1935162D01*
X-24528943Y1793117D01*
X-24792192Y1530327D01*
X-24934838Y1186799D01*
X-24935162Y814833D01*
X-26005561Y814833D01*
X-25310197Y1510197D01*
X-25282334Y1552211D01*
X-25273000Y1600000D01*
X-25273000Y2354833D01*
X-4110162Y2354833D01*
X-3968117Y2011057D01*
X-3705327Y1747808D01*
X-3361799Y1605162D01*
X-2989833Y1604838D01*
X-2646057Y1746883D01*
X-2382808Y2009673D01*
X-2240162Y2353201D01*
X-2239838Y2725167D01*
X-2381883Y3068943D01*
X-2644673Y3332192D01*
X-2988201Y3474838D01*
X-3360167Y3475162D01*
X-3703943Y3333117D01*
X-3967192Y3070327D01*
X-4109838Y2726799D01*
X-4110162Y2354833D01*
X-25273000Y2354833D01*
X-25273000Y4714833D01*
X-24085162Y4714833D01*
X-23943117Y4371057D01*
X-23680327Y4107808D01*
X-23336799Y3965162D01*
X-22964833Y3964838D01*
X-22810251Y4028710D01*
X-22536799Y3915162D01*
X-22164833Y3914838D01*
X-22109973Y3937506D01*
X-22080327Y3907808D01*
X-21736799Y3765162D01*
X-21364833Y3764838D01*
X-21124834Y3864003D01*
X-20886799Y3765162D01*
X-20514833Y3764838D01*
X-20171057Y3906883D01*
X-19907808Y4169673D01*
X-19765162Y4513201D01*
X-19764838Y4885167D01*
X-19906883Y5228943D01*
X-20169673Y5492192D01*
X-20513201Y5634838D01*
X-20885167Y5635162D01*
X-21125166Y5535997D01*
X-21363201Y5634838D01*
X-21735167Y5635162D01*
X-21790027Y5612494D01*
X-21819673Y5642192D01*
X-22163201Y5784838D01*
X-22535167Y5785162D01*
X-22689749Y5721290D01*
X-22963201Y5834838D01*
X-23335167Y5835162D01*
X-23678943Y5693117D01*
X-23942192Y5430327D01*
X-24084838Y5086799D01*
X-24085162Y4714833D01*
X-25273000Y4714833D01*
X-25273000Y6814833D01*
X-5485162Y6814833D01*
X-5343117Y6471057D01*
X-5080327Y6207808D01*
X-4927895Y6144512D01*
X-4992192Y6080327D01*
X-5134838Y5736799D01*
X-5135162Y5364833D01*
X-5025641Y5099772D01*
X-5134838Y4836799D01*
X-5135162Y4464833D01*
X-4993117Y4121057D01*
X-4730327Y3857808D01*
X-4386799Y3715162D01*
X-4014833Y3714838D01*
X-3671057Y3856883D01*
X-3407808Y4119673D01*
X-3265162Y4463201D01*
X-3264856Y4814833D01*
X-1435162Y4814833D01*
X-1293117Y4471057D01*
X-1030327Y4207808D01*
X-686799Y4065162D01*
X-314833Y4064838D01*
X28943Y4206883D01*
X292192Y4469673D01*
X414753Y4764833D01*
X5514838Y4764833D01*
X5656883Y4421057D01*
X5919673Y4157808D01*
X6073468Y4093946D01*
X6203524Y3779185D01*
X6165162Y3686799D01*
X6164838Y3314833D01*
X6306883Y2971057D01*
X6569673Y2707808D01*
X6913201Y2565162D01*
X7285167Y2564838D01*
X7550228Y2674359D01*
X7813201Y2565162D01*
X8185167Y2564838D01*
X8528943Y2706883D01*
X8792192Y2969673D01*
X8934838Y3313201D01*
X8935162Y3685167D01*
X8793117Y4028943D01*
X8530327Y4292192D01*
X8186799Y4434838D01*
X7935118Y4435057D01*
X7935162Y4485167D01*
X7793117Y4828943D01*
X7530327Y5092192D01*
X7376532Y5156054D01*
X7243117Y5478943D01*
X6980327Y5742192D01*
X6636799Y5884838D01*
X6264833Y5885162D01*
X5921057Y5743117D01*
X5657808Y5480327D01*
X5515162Y5136799D01*
X5514838Y4764833D01*
X414753Y4764833D01*
X434838Y4813201D01*
X435162Y5185167D01*
X293117Y5528943D01*
X30327Y5792192D01*
X-313201Y5934838D01*
X-685167Y5935162D01*
X-1028943Y5793117D01*
X-1292192Y5530327D01*
X-1434838Y5186799D01*
X-1435162Y4814833D01*
X-3264856Y4814833D01*
X-3264838Y4835167D01*
X-3374359Y5100228D01*
X-3265162Y5363201D01*
X-3264838Y5735167D01*
X-3400000Y6062286D01*
X-3171057Y6156883D01*
X-2907808Y6419673D01*
X-2765162Y6763201D01*
X-2764838Y7135167D01*
X-2906883Y7478943D01*
X-3169673Y7742192D01*
X-3513201Y7884838D01*
X-3885167Y7885162D01*
X-4064811Y7810935D01*
X-4363201Y7934838D01*
X-4735167Y7935162D01*
X-5078943Y7793117D01*
X-5342192Y7530327D01*
X-5484838Y7186799D01*
X-5485162Y6814833D01*
X-25273000Y6814833D01*
X-25273000Y8314833D01*
X3564838Y8314833D01*
X3706883Y7971057D01*
X3969673Y7707808D01*
X4313201Y7565162D01*
X4685167Y7564838D01*
X5028943Y7706883D01*
X5292192Y7969673D01*
X5434838Y8313201D01*
X5435162Y8685167D01*
X5293117Y9028943D01*
X5030327Y9292192D01*
X4975802Y9314833D01*
X14064838Y9314833D01*
X14206883Y8971057D01*
X14469673Y8707808D01*
X14813201Y8565162D01*
X15185167Y8564838D01*
X15528943Y8706883D01*
X15792192Y8969673D01*
X15934838Y9313201D01*
X15935162Y9685167D01*
X15793117Y10028943D01*
X15530327Y10292192D01*
X15186799Y10434838D01*
X14814833Y10435162D01*
X14471057Y10293117D01*
X14207808Y10030327D01*
X14065162Y9686799D01*
X14064838Y9314833D01*
X4975802Y9314833D01*
X4686799Y9434838D01*
X4314833Y9435162D01*
X3971057Y9293117D01*
X3707808Y9030327D01*
X3565162Y8686799D01*
X3564838Y8314833D01*
X-25273000Y8314833D01*
X-25273000Y9314833D01*
X-14435162Y9314833D01*
X-14293117Y8971057D01*
X-14030327Y8707808D01*
X-13686799Y8565162D01*
X-13314833Y8564838D01*
X-12971057Y8706883D01*
X-12707808Y8969673D01*
X-12565162Y9313201D01*
X-12564838Y9685167D01*
X-12706883Y10028943D01*
X-12969673Y10292192D01*
X-13313201Y10434838D01*
X-13685167Y10435162D01*
X-14028943Y10293117D01*
X-14292192Y10030327D01*
X-14434838Y9686799D01*
X-14435162Y9314833D01*
X-25273000Y9314833D01*
X-25273000Y10033000D01*
X-16840000Y10033000D01*
X-16790590Y10043006D01*
X-16750197Y10070197D01*
X-12005561Y14814833D01*
X-10435162Y14814833D01*
X-10293117Y14471057D01*
X-10030327Y14207808D01*
X-9686799Y14065162D01*
X-9314833Y14064838D01*
X-8971057Y14206883D01*
X-8707808Y14469673D01*
X-8565162Y14813201D01*
X-8565161Y14814833D01*
X8564838Y14814833D01*
X8706883Y14471057D01*
X8969673Y14207808D01*
X9313201Y14065162D01*
X9685167Y14064838D01*
X10028943Y14206883D01*
X10292192Y14469673D01*
X10434838Y14813201D01*
X10435162Y15185167D01*
X10293117Y15528943D01*
X10030327Y15792192D01*
X9686799Y15934838D01*
X9314833Y15935162D01*
X8971057Y15793117D01*
X8707808Y15530327D01*
X8565162Y15186799D01*
X8564838Y14814833D01*
X-8565161Y14814833D01*
X-8564838Y15185167D01*
X-8706883Y15528943D01*
X-8969673Y15792192D01*
X-9313201Y15934838D01*
X-9685167Y15935162D01*
X-10028943Y15793117D01*
X-10292192Y15530327D01*
X-10434838Y15186799D01*
X-10435162Y14814833D01*
X-12005561Y14814833D01*
X-10070197Y16750197D01*
X-10042334Y16792211D01*
X-10033000Y16840000D01*
X-10033000Y18414833D01*
X-8735162Y18414833D01*
X-8593117Y18071057D01*
X-8330327Y17807808D01*
X-7986799Y17665162D01*
X-7614833Y17664838D01*
X-7271057Y17806883D01*
X-7007808Y18069673D01*
X-6865162Y18413201D01*
X-6864838Y18785167D01*
X-7006883Y19128943D01*
X-7269673Y19392192D01*
X-7613201Y19534838D01*
X-7985167Y19535162D01*
X-8328943Y19393117D01*
X-8592192Y19130327D01*
X-8734838Y18786799D01*
X-8735162Y18414833D01*
X-10033000Y18414833D01*
X-10033000Y21764833D01*
X3764838Y21764833D01*
X3874359Y21499772D01*
X3765162Y21236799D01*
X3764838Y20864833D01*
X3906883Y20521057D01*
X4169673Y20257808D01*
X4513201Y20115162D01*
X4885167Y20114838D01*
X5228943Y20256883D01*
X5492192Y20519673D01*
X5634838Y20863201D01*
X5635162Y21235167D01*
X5525641Y21500228D01*
X5634838Y21763201D01*
X5635162Y22135167D01*
X5612494Y22190027D01*
X5642192Y22219673D01*
X5784838Y22563201D01*
X5785162Y22935167D01*
X5675641Y23200228D01*
X5784838Y23463201D01*
X5785162Y23835167D01*
X5643117Y24178943D01*
X5380327Y24442192D01*
X5036799Y24584838D01*
X4664833Y24585162D01*
X4321057Y24443117D01*
X4057808Y24180327D01*
X3915162Y23836799D01*
X3914838Y23464833D01*
X4024359Y23199772D01*
X3915162Y22936799D01*
X3914838Y22564833D01*
X3937506Y22509973D01*
X3907808Y22480327D01*
X3765162Y22136799D01*
X3764838Y21764833D01*
X-10033000Y21764833D01*
X-10033000Y23814833D01*
X64838Y23814833D01*
X206883Y23471057D01*
X469673Y23207808D01*
X813201Y23065162D01*
X1185167Y23064838D01*
X1528943Y23206883D01*
X1792192Y23469673D01*
X1934838Y23813201D01*
X1935162Y24185167D01*
X1793117Y24528943D01*
X1530327Y24792192D01*
X1186799Y24934838D01*
X814833Y24935162D01*
X471057Y24793117D01*
X207808Y24530327D01*
X65162Y24186799D01*
X64838Y23814833D01*
X-10033000Y23814833D01*
X-10033000Y25273000D01*
X-1600000Y25273000D01*
X-1550590Y25283006D01*
X-1510197Y25310197D01*
X0Y26820394D01*
X1510197Y25310197D01*
M02*
