G04 #@! TF.FileFunction,Copper,L4,Bot,Signal*
%FSLAX46Y46*%
G04 Gerber Fmt 4.6, Leading zero omitted, Abs format (unit mm)*
G04 Created by KiCad (PCBNEW 4.0.6-e0-6349~53~ubuntu14.04.1) date Tue Mar 21 08:09:45 2017*
%MOMM*%
%LPD*%
G01*
G04 APERTURE LIST*
%ADD10C,0.100000*%
%ADD11R,0.850000X0.300000*%
%ADD12R,0.300000X0.850000*%
%ADD13R,1.300000X1.300000*%
%ADD14R,1.727200X1.727200*%
%ADD15O,1.727200X1.727200*%
%ADD16R,0.500000X0.600000*%
%ADD17R,0.749300X0.398780*%
%ADD18R,0.398780X0.749300*%
%ADD19R,1.600000X1.300000*%
%ADD20C,1.727200*%
%ADD21C,0.950000*%
%ADD22C,1.000000*%
%ADD23C,0.600000*%
%ADD24C,0.250000*%
G04 APERTURE END LIST*
D10*
G36*
X167524136Y-95041907D02*
X166817029Y-95749014D01*
X166322054Y-95254039D01*
X167029161Y-94546932D01*
X167524136Y-95041907D01*
X167524136Y-95041907D01*
G37*
G36*
X166109923Y-93627693D02*
X165402816Y-94334800D01*
X164907841Y-93839825D01*
X165614948Y-93132718D01*
X166109923Y-93627693D01*
X166109923Y-93627693D01*
G37*
G36*
X164695709Y-92213479D02*
X163988602Y-92920586D01*
X163493627Y-92425611D01*
X164200734Y-91718504D01*
X164695709Y-92213479D01*
X164695709Y-92213479D01*
G37*
G36*
X163281496Y-90799266D02*
X162574389Y-91506373D01*
X162079414Y-91011398D01*
X162786521Y-90304291D01*
X163281496Y-90799266D01*
X163281496Y-90799266D01*
G37*
G36*
X161867282Y-89385052D02*
X161160175Y-90092159D01*
X160665200Y-89597184D01*
X161372307Y-88890077D01*
X161867282Y-89385052D01*
X161867282Y-89385052D01*
G37*
G36*
X160453068Y-87970839D02*
X159745961Y-88677946D01*
X159250986Y-88182971D01*
X159958093Y-87475864D01*
X160453068Y-87970839D01*
X160453068Y-87970839D01*
G37*
G36*
X159887383Y-85637386D02*
X159392408Y-86132361D01*
X158402459Y-85142412D01*
X158897434Y-84647437D01*
X159887383Y-85637386D01*
X159887383Y-85637386D01*
G37*
G36*
X161301596Y-84223172D02*
X160806621Y-84718147D01*
X159816672Y-83728198D01*
X160311647Y-83233223D01*
X161301596Y-84223172D01*
X161301596Y-84223172D01*
G37*
G36*
X162715810Y-82808959D02*
X162220835Y-83303934D01*
X161230886Y-82313985D01*
X161725861Y-81819010D01*
X162715810Y-82808959D01*
X162715810Y-82808959D01*
G37*
G36*
X164130023Y-81394745D02*
X163635048Y-81889720D01*
X162645099Y-80899771D01*
X163140074Y-80404796D01*
X164130023Y-81394745D01*
X164130023Y-81394745D01*
G37*
G36*
X165544237Y-79980532D02*
X165049262Y-80475507D01*
X164059313Y-79485558D01*
X164554288Y-78990583D01*
X165544237Y-79980532D01*
X165544237Y-79980532D01*
G37*
G36*
X166958450Y-78566318D02*
X166463475Y-79061293D01*
X165473526Y-78071344D01*
X165968501Y-77576369D01*
X166958450Y-78566318D01*
X166958450Y-78566318D01*
G37*
G36*
X168372664Y-77152105D02*
X167877689Y-77647080D01*
X166887740Y-76657131D01*
X167382715Y-76162156D01*
X168372664Y-77152105D01*
X168372664Y-77152105D01*
G37*
G36*
X169786878Y-75737891D02*
X169291903Y-76232866D01*
X168301954Y-75242917D01*
X168796929Y-74747942D01*
X169786878Y-75737891D01*
X169786878Y-75737891D01*
G37*
G36*
X170352563Y-96102566D02*
X169857588Y-96597541D01*
X168867639Y-95607592D01*
X169362614Y-95112617D01*
X170352563Y-96102566D01*
X170352563Y-96102566D01*
G37*
G36*
X171766777Y-94688353D02*
X171271802Y-95183328D01*
X170281853Y-94193379D01*
X170776828Y-93698404D01*
X171766777Y-94688353D01*
X171766777Y-94688353D01*
G37*
G36*
X173180990Y-93274139D02*
X172686015Y-93769114D01*
X171696066Y-92779165D01*
X172191041Y-92284190D01*
X173180990Y-93274139D01*
X173180990Y-93274139D01*
G37*
G36*
X174595204Y-91859926D02*
X174100229Y-92354901D01*
X173110280Y-91364952D01*
X173605255Y-90869977D01*
X174595204Y-91859926D01*
X174595204Y-91859926D01*
G37*
G36*
X176009417Y-90445712D02*
X175514442Y-90940687D01*
X174524493Y-89950738D01*
X175019468Y-89455763D01*
X176009417Y-90445712D01*
X176009417Y-90445712D01*
G37*
G36*
X177423631Y-89031499D02*
X176928656Y-89526474D01*
X175938707Y-88536525D01*
X176433682Y-88041550D01*
X177423631Y-89031499D01*
X177423631Y-89031499D01*
G37*
G36*
X178837844Y-87617285D02*
X178342869Y-88112260D01*
X177352920Y-87122311D01*
X177847895Y-86627336D01*
X178837844Y-87617285D01*
X178837844Y-87617285D01*
G37*
G36*
X180252058Y-86203071D02*
X179757083Y-86698046D01*
X178767134Y-85708097D01*
X179262109Y-85213122D01*
X180252058Y-86203071D01*
X180252058Y-86203071D01*
G37*
D11*
X151950000Y-84065000D03*
X151950000Y-84565000D03*
X151950000Y-85065000D03*
X151950000Y-85565000D03*
X151950000Y-86065000D03*
X151950000Y-86565000D03*
D12*
X151250000Y-87265000D03*
X150750000Y-87265000D03*
X150250000Y-87265000D03*
X149750000Y-87265000D03*
X149250000Y-87265000D03*
X148750000Y-87265000D03*
D11*
X148050000Y-86565000D03*
X148050000Y-86065000D03*
X148050000Y-85565000D03*
X148050000Y-85065000D03*
X148050000Y-84565000D03*
X148050000Y-84065000D03*
D12*
X148750000Y-83365000D03*
X149250000Y-83365000D03*
X149750000Y-83365000D03*
X150250000Y-83365000D03*
X150750000Y-83365000D03*
X151250000Y-83365000D03*
D13*
X149350000Y-85965000D03*
X149350000Y-84665000D03*
X150650000Y-85965000D03*
X150650000Y-84665000D03*
D10*
G36*
X126316402Y-88026845D02*
X126740666Y-87602581D01*
X127801326Y-88663241D01*
X127377062Y-89087505D01*
X126316402Y-88026845D01*
X126316402Y-88026845D01*
G37*
G36*
X127214427Y-87128819D02*
X127638691Y-86704555D01*
X128699351Y-87765215D01*
X128275087Y-88189479D01*
X127214427Y-87128819D01*
X127214427Y-87128819D01*
G37*
G36*
X128112453Y-86230794D02*
X128536717Y-85806530D01*
X129597377Y-86867190D01*
X129173113Y-87291454D01*
X128112453Y-86230794D01*
X128112453Y-86230794D01*
G37*
G36*
X129010479Y-85332768D02*
X129434743Y-84908504D01*
X130495403Y-85969164D01*
X130071139Y-86393428D01*
X129010479Y-85332768D01*
X129010479Y-85332768D01*
G37*
G36*
X129908504Y-84434743D02*
X130332768Y-84010479D01*
X131393428Y-85071139D01*
X130969164Y-85495403D01*
X129908504Y-84434743D01*
X129908504Y-84434743D01*
G37*
G36*
X130806530Y-83536717D02*
X131230794Y-83112453D01*
X132291454Y-84173113D01*
X131867190Y-84597377D01*
X130806530Y-83536717D01*
X130806530Y-83536717D01*
G37*
G36*
X131704555Y-82638691D02*
X132128819Y-82214427D01*
X133189479Y-83275087D01*
X132765215Y-83699351D01*
X131704555Y-82638691D01*
X131704555Y-82638691D01*
G37*
G36*
X132602581Y-81740666D02*
X133026845Y-81316402D01*
X134087505Y-82377062D01*
X133663241Y-82801326D01*
X132602581Y-81740666D01*
X132602581Y-81740666D01*
G37*
G36*
X139178674Y-88316759D02*
X139602938Y-87892495D01*
X140663598Y-88953155D01*
X140239334Y-89377419D01*
X139178674Y-88316759D01*
X139178674Y-88316759D01*
G37*
G36*
X138280649Y-89214785D02*
X138704913Y-88790521D01*
X139765573Y-89851181D01*
X139341309Y-90275445D01*
X138280649Y-89214785D01*
X138280649Y-89214785D01*
G37*
G36*
X137382623Y-90112810D02*
X137806887Y-89688546D01*
X138867547Y-90749206D01*
X138443283Y-91173470D01*
X137382623Y-90112810D01*
X137382623Y-90112810D01*
G37*
G36*
X136484597Y-91010836D02*
X136908861Y-90586572D01*
X137969521Y-91647232D01*
X137545257Y-92071496D01*
X136484597Y-91010836D01*
X136484597Y-91010836D01*
G37*
G36*
X135586572Y-91908861D02*
X136010836Y-91484597D01*
X137071496Y-92545257D01*
X136647232Y-92969521D01*
X135586572Y-91908861D01*
X135586572Y-91908861D01*
G37*
G36*
X134688546Y-92806887D02*
X135112810Y-92382623D01*
X136173470Y-93443283D01*
X135749206Y-93867547D01*
X134688546Y-92806887D01*
X134688546Y-92806887D01*
G37*
G36*
X133790521Y-93704913D02*
X134214785Y-93280649D01*
X135275445Y-94341309D01*
X134851181Y-94765573D01*
X133790521Y-93704913D01*
X133790521Y-93704913D01*
G37*
G36*
X132892495Y-94602938D02*
X133316759Y-94178674D01*
X134377419Y-95239334D01*
X133953155Y-95663598D01*
X132892495Y-94602938D01*
X132892495Y-94602938D01*
G37*
G36*
X137980128Y-119565456D02*
X136848757Y-118434085D01*
X138050838Y-117232004D01*
X139182209Y-118363375D01*
X137980128Y-119565456D01*
X137980128Y-119565456D01*
G37*
G36*
X139394342Y-120979670D02*
X138262971Y-119848299D01*
X139465052Y-118646218D01*
X140596423Y-119777589D01*
X139394342Y-120979670D01*
X139394342Y-120979670D01*
G37*
G36*
X136565915Y-118151243D02*
X135434544Y-117019872D01*
X136636625Y-115817791D01*
X137767996Y-116949162D01*
X136565915Y-118151243D01*
X136565915Y-118151243D01*
G37*
G36*
X135151701Y-116737029D02*
X134020330Y-115605658D01*
X135222411Y-114403577D01*
X136353782Y-115534948D01*
X135151701Y-116737029D01*
X135151701Y-116737029D01*
G37*
G36*
X127514948Y-124373782D02*
X126383577Y-123242411D01*
X127585658Y-122040330D01*
X128717029Y-123171701D01*
X127514948Y-124373782D01*
X127514948Y-124373782D01*
G37*
G36*
X128929162Y-125787996D02*
X127797791Y-124656625D01*
X128999872Y-123454544D01*
X130131243Y-124585915D01*
X128929162Y-125787996D01*
X128929162Y-125787996D01*
G37*
G36*
X131757589Y-128616423D02*
X130626218Y-127485052D01*
X131828299Y-126282971D01*
X132959670Y-127414342D01*
X131757589Y-128616423D01*
X131757589Y-128616423D01*
G37*
G36*
X130343375Y-127202209D02*
X129212004Y-126070838D01*
X130414085Y-124868757D01*
X131545456Y-126000128D01*
X130343375Y-127202209D01*
X130343375Y-127202209D01*
G37*
G36*
X164407301Y-106820800D02*
X164195169Y-107032932D01*
X163099153Y-105936916D01*
X163311285Y-105724784D01*
X164407301Y-106820800D01*
X164407301Y-106820800D01*
G37*
G36*
X164053748Y-107174354D02*
X163841616Y-107386486D01*
X162745600Y-106290470D01*
X162957732Y-106078338D01*
X164053748Y-107174354D01*
X164053748Y-107174354D01*
G37*
G36*
X163700194Y-107527907D02*
X163488062Y-107740039D01*
X162392046Y-106644023D01*
X162604178Y-106431891D01*
X163700194Y-107527907D01*
X163700194Y-107527907D01*
G37*
G36*
X163346641Y-107881460D02*
X163134509Y-108093592D01*
X162038493Y-106997576D01*
X162250625Y-106785444D01*
X163346641Y-107881460D01*
X163346641Y-107881460D01*
G37*
G36*
X162993087Y-108235014D02*
X162780955Y-108447146D01*
X161684939Y-107351130D01*
X161897071Y-107138998D01*
X162993087Y-108235014D01*
X162993087Y-108235014D01*
G37*
G36*
X162639534Y-108588567D02*
X162427402Y-108800699D01*
X161331386Y-107704683D01*
X161543518Y-107492551D01*
X162639534Y-108588567D01*
X162639534Y-108588567D01*
G37*
G36*
X162285981Y-108942121D02*
X162073849Y-109154253D01*
X160977833Y-108058237D01*
X161189965Y-107846105D01*
X162285981Y-108942121D01*
X162285981Y-108942121D01*
G37*
G36*
X161932427Y-109295674D02*
X161720295Y-109507806D01*
X160624279Y-108411790D01*
X160836411Y-108199658D01*
X161932427Y-109295674D01*
X161932427Y-109295674D01*
G37*
G36*
X161578874Y-109649227D02*
X161366742Y-109861359D01*
X160270726Y-108765343D01*
X160482858Y-108553211D01*
X161578874Y-109649227D01*
X161578874Y-109649227D01*
G37*
G36*
X161225320Y-110002781D02*
X161013188Y-110214913D01*
X159917172Y-109118897D01*
X160129304Y-108906765D01*
X161225320Y-110002781D01*
X161225320Y-110002781D01*
G37*
G36*
X160871767Y-110356334D02*
X160659635Y-110568466D01*
X159563619Y-109472450D01*
X159775751Y-109260318D01*
X160871767Y-110356334D01*
X160871767Y-110356334D01*
G37*
G36*
X160518214Y-110709888D02*
X160306082Y-110922020D01*
X159210066Y-109826004D01*
X159422198Y-109613872D01*
X160518214Y-110709888D01*
X160518214Y-110709888D01*
G37*
G36*
X160164660Y-111063441D02*
X159952528Y-111275573D01*
X158856512Y-110179557D01*
X159068644Y-109967425D01*
X160164660Y-111063441D01*
X160164660Y-111063441D01*
G37*
G36*
X159811107Y-111416994D02*
X159598975Y-111629126D01*
X158502959Y-110533110D01*
X158715091Y-110320978D01*
X159811107Y-111416994D01*
X159811107Y-111416994D01*
G37*
G36*
X159457553Y-111770548D02*
X159245421Y-111982680D01*
X158149405Y-110886664D01*
X158361537Y-110674532D01*
X159457553Y-111770548D01*
X159457553Y-111770548D01*
G37*
G36*
X159104000Y-112124101D02*
X158891868Y-112336233D01*
X157795852Y-111240217D01*
X158007984Y-111028085D01*
X159104000Y-112124101D01*
X159104000Y-112124101D01*
G37*
G36*
X158750447Y-112477654D02*
X158538315Y-112689786D01*
X157442299Y-111593770D01*
X157654431Y-111381638D01*
X158750447Y-112477654D01*
X158750447Y-112477654D01*
G37*
G36*
X158396893Y-112831208D02*
X158184761Y-113043340D01*
X157088745Y-111947324D01*
X157300877Y-111735192D01*
X158396893Y-112831208D01*
X158396893Y-112831208D01*
G37*
G36*
X158043340Y-113184761D02*
X157831208Y-113396893D01*
X156735192Y-112300877D01*
X156947324Y-112088745D01*
X158043340Y-113184761D01*
X158043340Y-113184761D01*
G37*
G36*
X157689786Y-113538315D02*
X157477654Y-113750447D01*
X156381638Y-112654431D01*
X156593770Y-112442299D01*
X157689786Y-113538315D01*
X157689786Y-113538315D01*
G37*
G36*
X157336233Y-113891868D02*
X157124101Y-114104000D01*
X156028085Y-113007984D01*
X156240217Y-112795852D01*
X157336233Y-113891868D01*
X157336233Y-113891868D01*
G37*
G36*
X156982680Y-114245421D02*
X156770548Y-114457553D01*
X155674532Y-113361537D01*
X155886664Y-113149405D01*
X156982680Y-114245421D01*
X156982680Y-114245421D01*
G37*
G36*
X156629126Y-114598975D02*
X156416994Y-114811107D01*
X155320978Y-113715091D01*
X155533110Y-113502959D01*
X156629126Y-114598975D01*
X156629126Y-114598975D01*
G37*
G36*
X156275573Y-114952528D02*
X156063441Y-115164660D01*
X154967425Y-114068644D01*
X155179557Y-113856512D01*
X156275573Y-114952528D01*
X156275573Y-114952528D01*
G37*
G36*
X155922020Y-115306082D02*
X155709888Y-115518214D01*
X154613872Y-114422198D01*
X154826004Y-114210066D01*
X155922020Y-115306082D01*
X155922020Y-115306082D01*
G37*
G36*
X155568466Y-115659635D02*
X155356334Y-115871767D01*
X154260318Y-114775751D01*
X154472450Y-114563619D01*
X155568466Y-115659635D01*
X155568466Y-115659635D01*
G37*
G36*
X155214913Y-116013188D02*
X155002781Y-116225320D01*
X153906765Y-115129304D01*
X154118897Y-114917172D01*
X155214913Y-116013188D01*
X155214913Y-116013188D01*
G37*
G36*
X154861359Y-116366742D02*
X154649227Y-116578874D01*
X153553211Y-115482858D01*
X153765343Y-115270726D01*
X154861359Y-116366742D01*
X154861359Y-116366742D01*
G37*
G36*
X154507806Y-116720295D02*
X154295674Y-116932427D01*
X153199658Y-115836411D01*
X153411790Y-115624279D01*
X154507806Y-116720295D01*
X154507806Y-116720295D01*
G37*
G36*
X154154253Y-117073849D02*
X153942121Y-117285981D01*
X152846105Y-116189965D01*
X153058237Y-115977833D01*
X154154253Y-117073849D01*
X154154253Y-117073849D01*
G37*
G36*
X153800699Y-117427402D02*
X153588567Y-117639534D01*
X152492551Y-116543518D01*
X152704683Y-116331386D01*
X153800699Y-117427402D01*
X153800699Y-117427402D01*
G37*
G36*
X153447146Y-117780955D02*
X153235014Y-117993087D01*
X152138998Y-116897071D01*
X152351130Y-116684939D01*
X153447146Y-117780955D01*
X153447146Y-117780955D01*
G37*
G36*
X153093592Y-118134509D02*
X152881460Y-118346641D01*
X151785444Y-117250625D01*
X151997576Y-117038493D01*
X153093592Y-118134509D01*
X153093592Y-118134509D01*
G37*
G36*
X152740039Y-118488062D02*
X152527907Y-118700194D01*
X151431891Y-117604178D01*
X151644023Y-117392046D01*
X152740039Y-118488062D01*
X152740039Y-118488062D01*
G37*
G36*
X152386486Y-118841616D02*
X152174354Y-119053748D01*
X151078338Y-117957732D01*
X151290470Y-117745600D01*
X152386486Y-118841616D01*
X152386486Y-118841616D01*
G37*
G36*
X152032932Y-119195169D02*
X151820800Y-119407301D01*
X150724784Y-118311285D01*
X150936916Y-118099153D01*
X152032932Y-119195169D01*
X152032932Y-119195169D01*
G37*
G36*
X148179200Y-119407301D02*
X147967068Y-119195169D01*
X149063084Y-118099153D01*
X149275216Y-118311285D01*
X148179200Y-119407301D01*
X148179200Y-119407301D01*
G37*
G36*
X147825646Y-119053748D02*
X147613514Y-118841616D01*
X148709530Y-117745600D01*
X148921662Y-117957732D01*
X147825646Y-119053748D01*
X147825646Y-119053748D01*
G37*
G36*
X147472093Y-118700194D02*
X147259961Y-118488062D01*
X148355977Y-117392046D01*
X148568109Y-117604178D01*
X147472093Y-118700194D01*
X147472093Y-118700194D01*
G37*
G36*
X147118540Y-118346641D02*
X146906408Y-118134509D01*
X148002424Y-117038493D01*
X148214556Y-117250625D01*
X147118540Y-118346641D01*
X147118540Y-118346641D01*
G37*
G36*
X146764986Y-117993087D02*
X146552854Y-117780955D01*
X147648870Y-116684939D01*
X147861002Y-116897071D01*
X146764986Y-117993087D01*
X146764986Y-117993087D01*
G37*
G36*
X146411433Y-117639534D02*
X146199301Y-117427402D01*
X147295317Y-116331386D01*
X147507449Y-116543518D01*
X146411433Y-117639534D01*
X146411433Y-117639534D01*
G37*
G36*
X146057879Y-117285981D02*
X145845747Y-117073849D01*
X146941763Y-115977833D01*
X147153895Y-116189965D01*
X146057879Y-117285981D01*
X146057879Y-117285981D01*
G37*
G36*
X145704326Y-116932427D02*
X145492194Y-116720295D01*
X146588210Y-115624279D01*
X146800342Y-115836411D01*
X145704326Y-116932427D01*
X145704326Y-116932427D01*
G37*
G36*
X145350773Y-116578874D02*
X145138641Y-116366742D01*
X146234657Y-115270726D01*
X146446789Y-115482858D01*
X145350773Y-116578874D01*
X145350773Y-116578874D01*
G37*
G36*
X144997219Y-116225320D02*
X144785087Y-116013188D01*
X145881103Y-114917172D01*
X146093235Y-115129304D01*
X144997219Y-116225320D01*
X144997219Y-116225320D01*
G37*
G36*
X144643666Y-115871767D02*
X144431534Y-115659635D01*
X145527550Y-114563619D01*
X145739682Y-114775751D01*
X144643666Y-115871767D01*
X144643666Y-115871767D01*
G37*
G36*
X144290112Y-115518214D02*
X144077980Y-115306082D01*
X145173996Y-114210066D01*
X145386128Y-114422198D01*
X144290112Y-115518214D01*
X144290112Y-115518214D01*
G37*
G36*
X143936559Y-115164660D02*
X143724427Y-114952528D01*
X144820443Y-113856512D01*
X145032575Y-114068644D01*
X143936559Y-115164660D01*
X143936559Y-115164660D01*
G37*
G36*
X143583006Y-114811107D02*
X143370874Y-114598975D01*
X144466890Y-113502959D01*
X144679022Y-113715091D01*
X143583006Y-114811107D01*
X143583006Y-114811107D01*
G37*
G36*
X143229452Y-114457553D02*
X143017320Y-114245421D01*
X144113336Y-113149405D01*
X144325468Y-113361537D01*
X143229452Y-114457553D01*
X143229452Y-114457553D01*
G37*
G36*
X142875899Y-114104000D02*
X142663767Y-113891868D01*
X143759783Y-112795852D01*
X143971915Y-113007984D01*
X142875899Y-114104000D01*
X142875899Y-114104000D01*
G37*
G36*
X142522346Y-113750447D02*
X142310214Y-113538315D01*
X143406230Y-112442299D01*
X143618362Y-112654431D01*
X142522346Y-113750447D01*
X142522346Y-113750447D01*
G37*
G36*
X142168792Y-113396893D02*
X141956660Y-113184761D01*
X143052676Y-112088745D01*
X143264808Y-112300877D01*
X142168792Y-113396893D01*
X142168792Y-113396893D01*
G37*
G36*
X141815239Y-113043340D02*
X141603107Y-112831208D01*
X142699123Y-111735192D01*
X142911255Y-111947324D01*
X141815239Y-113043340D01*
X141815239Y-113043340D01*
G37*
G36*
X141461685Y-112689786D02*
X141249553Y-112477654D01*
X142345569Y-111381638D01*
X142557701Y-111593770D01*
X141461685Y-112689786D01*
X141461685Y-112689786D01*
G37*
G36*
X141108132Y-112336233D02*
X140896000Y-112124101D01*
X141992016Y-111028085D01*
X142204148Y-111240217D01*
X141108132Y-112336233D01*
X141108132Y-112336233D01*
G37*
G36*
X140754579Y-111982680D02*
X140542447Y-111770548D01*
X141638463Y-110674532D01*
X141850595Y-110886664D01*
X140754579Y-111982680D01*
X140754579Y-111982680D01*
G37*
G36*
X140401025Y-111629126D02*
X140188893Y-111416994D01*
X141284909Y-110320978D01*
X141497041Y-110533110D01*
X140401025Y-111629126D01*
X140401025Y-111629126D01*
G37*
G36*
X140047472Y-111275573D02*
X139835340Y-111063441D01*
X140931356Y-109967425D01*
X141143488Y-110179557D01*
X140047472Y-111275573D01*
X140047472Y-111275573D01*
G37*
G36*
X139693918Y-110922020D02*
X139481786Y-110709888D01*
X140577802Y-109613872D01*
X140789934Y-109826004D01*
X139693918Y-110922020D01*
X139693918Y-110922020D01*
G37*
G36*
X139340365Y-110568466D02*
X139128233Y-110356334D01*
X140224249Y-109260318D01*
X140436381Y-109472450D01*
X139340365Y-110568466D01*
X139340365Y-110568466D01*
G37*
G36*
X138986812Y-110214913D02*
X138774680Y-110002781D01*
X139870696Y-108906765D01*
X140082828Y-109118897D01*
X138986812Y-110214913D01*
X138986812Y-110214913D01*
G37*
G36*
X138633258Y-109861359D02*
X138421126Y-109649227D01*
X139517142Y-108553211D01*
X139729274Y-108765343D01*
X138633258Y-109861359D01*
X138633258Y-109861359D01*
G37*
G36*
X138279705Y-109507806D02*
X138067573Y-109295674D01*
X139163589Y-108199658D01*
X139375721Y-108411790D01*
X138279705Y-109507806D01*
X138279705Y-109507806D01*
G37*
G36*
X137926151Y-109154253D02*
X137714019Y-108942121D01*
X138810035Y-107846105D01*
X139022167Y-108058237D01*
X137926151Y-109154253D01*
X137926151Y-109154253D01*
G37*
G36*
X137572598Y-108800699D02*
X137360466Y-108588567D01*
X138456482Y-107492551D01*
X138668614Y-107704683D01*
X137572598Y-108800699D01*
X137572598Y-108800699D01*
G37*
G36*
X137219045Y-108447146D02*
X137006913Y-108235014D01*
X138102929Y-107138998D01*
X138315061Y-107351130D01*
X137219045Y-108447146D01*
X137219045Y-108447146D01*
G37*
G36*
X136865491Y-108093592D02*
X136653359Y-107881460D01*
X137749375Y-106785444D01*
X137961507Y-106997576D01*
X136865491Y-108093592D01*
X136865491Y-108093592D01*
G37*
G36*
X136511938Y-107740039D02*
X136299806Y-107527907D01*
X137395822Y-106431891D01*
X137607954Y-106644023D01*
X136511938Y-107740039D01*
X136511938Y-107740039D01*
G37*
G36*
X136158384Y-107386486D02*
X135946252Y-107174354D01*
X137042268Y-106078338D01*
X137254400Y-106290470D01*
X136158384Y-107386486D01*
X136158384Y-107386486D01*
G37*
G36*
X135804831Y-107032932D02*
X135592699Y-106820800D01*
X136688715Y-105724784D01*
X136900847Y-105936916D01*
X135804831Y-107032932D01*
X135804831Y-107032932D01*
G37*
G36*
X136900847Y-104063084D02*
X136688715Y-104275216D01*
X135592699Y-103179200D01*
X135804831Y-102967068D01*
X136900847Y-104063084D01*
X136900847Y-104063084D01*
G37*
G36*
X137254400Y-103709530D02*
X137042268Y-103921662D01*
X135946252Y-102825646D01*
X136158384Y-102613514D01*
X137254400Y-103709530D01*
X137254400Y-103709530D01*
G37*
G36*
X137607954Y-103355977D02*
X137395822Y-103568109D01*
X136299806Y-102472093D01*
X136511938Y-102259961D01*
X137607954Y-103355977D01*
X137607954Y-103355977D01*
G37*
G36*
X137961507Y-103002424D02*
X137749375Y-103214556D01*
X136653359Y-102118540D01*
X136865491Y-101906408D01*
X137961507Y-103002424D01*
X137961507Y-103002424D01*
G37*
G36*
X138315061Y-102648870D02*
X138102929Y-102861002D01*
X137006913Y-101764986D01*
X137219045Y-101552854D01*
X138315061Y-102648870D01*
X138315061Y-102648870D01*
G37*
G36*
X138668614Y-102295317D02*
X138456482Y-102507449D01*
X137360466Y-101411433D01*
X137572598Y-101199301D01*
X138668614Y-102295317D01*
X138668614Y-102295317D01*
G37*
G36*
X139022167Y-101941763D02*
X138810035Y-102153895D01*
X137714019Y-101057879D01*
X137926151Y-100845747D01*
X139022167Y-101941763D01*
X139022167Y-101941763D01*
G37*
G36*
X139375721Y-101588210D02*
X139163589Y-101800342D01*
X138067573Y-100704326D01*
X138279705Y-100492194D01*
X139375721Y-101588210D01*
X139375721Y-101588210D01*
G37*
G36*
X139729274Y-101234657D02*
X139517142Y-101446789D01*
X138421126Y-100350773D01*
X138633258Y-100138641D01*
X139729274Y-101234657D01*
X139729274Y-101234657D01*
G37*
G36*
X140082828Y-100881103D02*
X139870696Y-101093235D01*
X138774680Y-99997219D01*
X138986812Y-99785087D01*
X140082828Y-100881103D01*
X140082828Y-100881103D01*
G37*
G36*
X140436381Y-100527550D02*
X140224249Y-100739682D01*
X139128233Y-99643666D01*
X139340365Y-99431534D01*
X140436381Y-100527550D01*
X140436381Y-100527550D01*
G37*
G36*
X140789934Y-100173996D02*
X140577802Y-100386128D01*
X139481786Y-99290112D01*
X139693918Y-99077980D01*
X140789934Y-100173996D01*
X140789934Y-100173996D01*
G37*
G36*
X141143488Y-99820443D02*
X140931356Y-100032575D01*
X139835340Y-98936559D01*
X140047472Y-98724427D01*
X141143488Y-99820443D01*
X141143488Y-99820443D01*
G37*
G36*
X141497041Y-99466890D02*
X141284909Y-99679022D01*
X140188893Y-98583006D01*
X140401025Y-98370874D01*
X141497041Y-99466890D01*
X141497041Y-99466890D01*
G37*
G36*
X141850595Y-99113336D02*
X141638463Y-99325468D01*
X140542447Y-98229452D01*
X140754579Y-98017320D01*
X141850595Y-99113336D01*
X141850595Y-99113336D01*
G37*
G36*
X142204148Y-98759783D02*
X141992016Y-98971915D01*
X140896000Y-97875899D01*
X141108132Y-97663767D01*
X142204148Y-98759783D01*
X142204148Y-98759783D01*
G37*
G36*
X142557701Y-98406230D02*
X142345569Y-98618362D01*
X141249553Y-97522346D01*
X141461685Y-97310214D01*
X142557701Y-98406230D01*
X142557701Y-98406230D01*
G37*
G36*
X142911255Y-98052676D02*
X142699123Y-98264808D01*
X141603107Y-97168792D01*
X141815239Y-96956660D01*
X142911255Y-98052676D01*
X142911255Y-98052676D01*
G37*
G36*
X143264808Y-97699123D02*
X143052676Y-97911255D01*
X141956660Y-96815239D01*
X142168792Y-96603107D01*
X143264808Y-97699123D01*
X143264808Y-97699123D01*
G37*
G36*
X143618362Y-97345569D02*
X143406230Y-97557701D01*
X142310214Y-96461685D01*
X142522346Y-96249553D01*
X143618362Y-97345569D01*
X143618362Y-97345569D01*
G37*
G36*
X143971915Y-96992016D02*
X143759783Y-97204148D01*
X142663767Y-96108132D01*
X142875899Y-95896000D01*
X143971915Y-96992016D01*
X143971915Y-96992016D01*
G37*
G36*
X144325468Y-96638463D02*
X144113336Y-96850595D01*
X143017320Y-95754579D01*
X143229452Y-95542447D01*
X144325468Y-96638463D01*
X144325468Y-96638463D01*
G37*
G36*
X144679022Y-96284909D02*
X144466890Y-96497041D01*
X143370874Y-95401025D01*
X143583006Y-95188893D01*
X144679022Y-96284909D01*
X144679022Y-96284909D01*
G37*
G36*
X145032575Y-95931356D02*
X144820443Y-96143488D01*
X143724427Y-95047472D01*
X143936559Y-94835340D01*
X145032575Y-95931356D01*
X145032575Y-95931356D01*
G37*
G36*
X145386128Y-95577802D02*
X145173996Y-95789934D01*
X144077980Y-94693918D01*
X144290112Y-94481786D01*
X145386128Y-95577802D01*
X145386128Y-95577802D01*
G37*
G36*
X145739682Y-95224249D02*
X145527550Y-95436381D01*
X144431534Y-94340365D01*
X144643666Y-94128233D01*
X145739682Y-95224249D01*
X145739682Y-95224249D01*
G37*
G36*
X146093235Y-94870696D02*
X145881103Y-95082828D01*
X144785087Y-93986812D01*
X144997219Y-93774680D01*
X146093235Y-94870696D01*
X146093235Y-94870696D01*
G37*
G36*
X146446789Y-94517142D02*
X146234657Y-94729274D01*
X145138641Y-93633258D01*
X145350773Y-93421126D01*
X146446789Y-94517142D01*
X146446789Y-94517142D01*
G37*
G36*
X146800342Y-94163589D02*
X146588210Y-94375721D01*
X145492194Y-93279705D01*
X145704326Y-93067573D01*
X146800342Y-94163589D01*
X146800342Y-94163589D01*
G37*
G36*
X147153895Y-93810035D02*
X146941763Y-94022167D01*
X145845747Y-92926151D01*
X146057879Y-92714019D01*
X147153895Y-93810035D01*
X147153895Y-93810035D01*
G37*
G36*
X147507449Y-93456482D02*
X147295317Y-93668614D01*
X146199301Y-92572598D01*
X146411433Y-92360466D01*
X147507449Y-93456482D01*
X147507449Y-93456482D01*
G37*
G36*
X147861002Y-93102929D02*
X147648870Y-93315061D01*
X146552854Y-92219045D01*
X146764986Y-92006913D01*
X147861002Y-93102929D01*
X147861002Y-93102929D01*
G37*
G36*
X148214556Y-92749375D02*
X148002424Y-92961507D01*
X146906408Y-91865491D01*
X147118540Y-91653359D01*
X148214556Y-92749375D01*
X148214556Y-92749375D01*
G37*
G36*
X148568109Y-92395822D02*
X148355977Y-92607954D01*
X147259961Y-91511938D01*
X147472093Y-91299806D01*
X148568109Y-92395822D01*
X148568109Y-92395822D01*
G37*
G36*
X148921662Y-92042268D02*
X148709530Y-92254400D01*
X147613514Y-91158384D01*
X147825646Y-90946252D01*
X148921662Y-92042268D01*
X148921662Y-92042268D01*
G37*
G36*
X149275216Y-91688715D02*
X149063084Y-91900847D01*
X147967068Y-90804831D01*
X148179200Y-90592699D01*
X149275216Y-91688715D01*
X149275216Y-91688715D01*
G37*
G36*
X150936916Y-91900847D02*
X150724784Y-91688715D01*
X151820800Y-90592699D01*
X152032932Y-90804831D01*
X150936916Y-91900847D01*
X150936916Y-91900847D01*
G37*
G36*
X151290470Y-92254400D02*
X151078338Y-92042268D01*
X152174354Y-90946252D01*
X152386486Y-91158384D01*
X151290470Y-92254400D01*
X151290470Y-92254400D01*
G37*
G36*
X151644023Y-92607954D02*
X151431891Y-92395822D01*
X152527907Y-91299806D01*
X152740039Y-91511938D01*
X151644023Y-92607954D01*
X151644023Y-92607954D01*
G37*
G36*
X151997576Y-92961507D02*
X151785444Y-92749375D01*
X152881460Y-91653359D01*
X153093592Y-91865491D01*
X151997576Y-92961507D01*
X151997576Y-92961507D01*
G37*
G36*
X152351130Y-93315061D02*
X152138998Y-93102929D01*
X153235014Y-92006913D01*
X153447146Y-92219045D01*
X152351130Y-93315061D01*
X152351130Y-93315061D01*
G37*
G36*
X152704683Y-93668614D02*
X152492551Y-93456482D01*
X153588567Y-92360466D01*
X153800699Y-92572598D01*
X152704683Y-93668614D01*
X152704683Y-93668614D01*
G37*
G36*
X153058237Y-94022167D02*
X152846105Y-93810035D01*
X153942121Y-92714019D01*
X154154253Y-92926151D01*
X153058237Y-94022167D01*
X153058237Y-94022167D01*
G37*
G36*
X153411790Y-94375721D02*
X153199658Y-94163589D01*
X154295674Y-93067573D01*
X154507806Y-93279705D01*
X153411790Y-94375721D01*
X153411790Y-94375721D01*
G37*
G36*
X153765343Y-94729274D02*
X153553211Y-94517142D01*
X154649227Y-93421126D01*
X154861359Y-93633258D01*
X153765343Y-94729274D01*
X153765343Y-94729274D01*
G37*
G36*
X154118897Y-95082828D02*
X153906765Y-94870696D01*
X155002781Y-93774680D01*
X155214913Y-93986812D01*
X154118897Y-95082828D01*
X154118897Y-95082828D01*
G37*
G36*
X154472450Y-95436381D02*
X154260318Y-95224249D01*
X155356334Y-94128233D01*
X155568466Y-94340365D01*
X154472450Y-95436381D01*
X154472450Y-95436381D01*
G37*
G36*
X154826004Y-95789934D02*
X154613872Y-95577802D01*
X155709888Y-94481786D01*
X155922020Y-94693918D01*
X154826004Y-95789934D01*
X154826004Y-95789934D01*
G37*
G36*
X155179557Y-96143488D02*
X154967425Y-95931356D01*
X156063441Y-94835340D01*
X156275573Y-95047472D01*
X155179557Y-96143488D01*
X155179557Y-96143488D01*
G37*
G36*
X155533110Y-96497041D02*
X155320978Y-96284909D01*
X156416994Y-95188893D01*
X156629126Y-95401025D01*
X155533110Y-96497041D01*
X155533110Y-96497041D01*
G37*
G36*
X155886664Y-96850595D02*
X155674532Y-96638463D01*
X156770548Y-95542447D01*
X156982680Y-95754579D01*
X155886664Y-96850595D01*
X155886664Y-96850595D01*
G37*
G36*
X156240217Y-97204148D02*
X156028085Y-96992016D01*
X157124101Y-95896000D01*
X157336233Y-96108132D01*
X156240217Y-97204148D01*
X156240217Y-97204148D01*
G37*
G36*
X156593770Y-97557701D02*
X156381638Y-97345569D01*
X157477654Y-96249553D01*
X157689786Y-96461685D01*
X156593770Y-97557701D01*
X156593770Y-97557701D01*
G37*
G36*
X156947324Y-97911255D02*
X156735192Y-97699123D01*
X157831208Y-96603107D01*
X158043340Y-96815239D01*
X156947324Y-97911255D01*
X156947324Y-97911255D01*
G37*
G36*
X157300877Y-98264808D02*
X157088745Y-98052676D01*
X158184761Y-96956660D01*
X158396893Y-97168792D01*
X157300877Y-98264808D01*
X157300877Y-98264808D01*
G37*
G36*
X157654431Y-98618362D02*
X157442299Y-98406230D01*
X158538315Y-97310214D01*
X158750447Y-97522346D01*
X157654431Y-98618362D01*
X157654431Y-98618362D01*
G37*
G36*
X158007984Y-98971915D02*
X157795852Y-98759783D01*
X158891868Y-97663767D01*
X159104000Y-97875899D01*
X158007984Y-98971915D01*
X158007984Y-98971915D01*
G37*
G36*
X158361537Y-99325468D02*
X158149405Y-99113336D01*
X159245421Y-98017320D01*
X159457553Y-98229452D01*
X158361537Y-99325468D01*
X158361537Y-99325468D01*
G37*
G36*
X158715091Y-99679022D02*
X158502959Y-99466890D01*
X159598975Y-98370874D01*
X159811107Y-98583006D01*
X158715091Y-99679022D01*
X158715091Y-99679022D01*
G37*
G36*
X159068644Y-100032575D02*
X158856512Y-99820443D01*
X159952528Y-98724427D01*
X160164660Y-98936559D01*
X159068644Y-100032575D01*
X159068644Y-100032575D01*
G37*
G36*
X159422198Y-100386128D02*
X159210066Y-100173996D01*
X160306082Y-99077980D01*
X160518214Y-99290112D01*
X159422198Y-100386128D01*
X159422198Y-100386128D01*
G37*
G36*
X159775751Y-100739682D02*
X159563619Y-100527550D01*
X160659635Y-99431534D01*
X160871767Y-99643666D01*
X159775751Y-100739682D01*
X159775751Y-100739682D01*
G37*
G36*
X160129304Y-101093235D02*
X159917172Y-100881103D01*
X161013188Y-99785087D01*
X161225320Y-99997219D01*
X160129304Y-101093235D01*
X160129304Y-101093235D01*
G37*
G36*
X160482858Y-101446789D02*
X160270726Y-101234657D01*
X161366742Y-100138641D01*
X161578874Y-100350773D01*
X160482858Y-101446789D01*
X160482858Y-101446789D01*
G37*
G36*
X160836411Y-101800342D02*
X160624279Y-101588210D01*
X161720295Y-100492194D01*
X161932427Y-100704326D01*
X160836411Y-101800342D01*
X160836411Y-101800342D01*
G37*
G36*
X161189965Y-102153895D02*
X160977833Y-101941763D01*
X162073849Y-100845747D01*
X162285981Y-101057879D01*
X161189965Y-102153895D01*
X161189965Y-102153895D01*
G37*
G36*
X161543518Y-102507449D02*
X161331386Y-102295317D01*
X162427402Y-101199301D01*
X162639534Y-101411433D01*
X161543518Y-102507449D01*
X161543518Y-102507449D01*
G37*
G36*
X161897071Y-102861002D02*
X161684939Y-102648870D01*
X162780955Y-101552854D01*
X162993087Y-101764986D01*
X161897071Y-102861002D01*
X161897071Y-102861002D01*
G37*
G36*
X162250625Y-103214556D02*
X162038493Y-103002424D01*
X163134509Y-101906408D01*
X163346641Y-102118540D01*
X162250625Y-103214556D01*
X162250625Y-103214556D01*
G37*
G36*
X162604178Y-103568109D02*
X162392046Y-103355977D01*
X163488062Y-102259961D01*
X163700194Y-102472093D01*
X162604178Y-103568109D01*
X162604178Y-103568109D01*
G37*
G36*
X162957732Y-103921662D02*
X162745600Y-103709530D01*
X163841616Y-102613514D01*
X164053748Y-102825646D01*
X162957732Y-103921662D01*
X162957732Y-103921662D01*
G37*
G36*
X163311285Y-104275216D02*
X163099153Y-104063084D01*
X164195169Y-102967068D01*
X164407301Y-103179200D01*
X163311285Y-104275216D01*
X163311285Y-104275216D01*
G37*
G36*
X173683598Y-121973155D02*
X173259334Y-122397419D01*
X172198674Y-121336759D01*
X172622938Y-120912495D01*
X173683598Y-121973155D01*
X173683598Y-121973155D01*
G37*
G36*
X172785573Y-122871181D02*
X172361309Y-123295445D01*
X171300649Y-122234785D01*
X171724913Y-121810521D01*
X172785573Y-122871181D01*
X172785573Y-122871181D01*
G37*
G36*
X171887547Y-123769206D02*
X171463283Y-124193470D01*
X170402623Y-123132810D01*
X170826887Y-122708546D01*
X171887547Y-123769206D01*
X171887547Y-123769206D01*
G37*
G36*
X170989521Y-124667232D02*
X170565257Y-125091496D01*
X169504597Y-124030836D01*
X169928861Y-123606572D01*
X170989521Y-124667232D01*
X170989521Y-124667232D01*
G37*
G36*
X170091496Y-125565257D02*
X169667232Y-125989521D01*
X168606572Y-124928861D01*
X169030836Y-124504597D01*
X170091496Y-125565257D01*
X170091496Y-125565257D01*
G37*
G36*
X169193470Y-126463283D02*
X168769206Y-126887547D01*
X167708546Y-125826887D01*
X168132810Y-125402623D01*
X169193470Y-126463283D01*
X169193470Y-126463283D01*
G37*
G36*
X168295445Y-127361309D02*
X167871181Y-127785573D01*
X166810521Y-126724913D01*
X167234785Y-126300649D01*
X168295445Y-127361309D01*
X168295445Y-127361309D01*
G37*
G36*
X167397419Y-128259334D02*
X166973155Y-128683598D01*
X165912495Y-127622938D01*
X166336759Y-127198674D01*
X167397419Y-128259334D01*
X167397419Y-128259334D01*
G37*
G36*
X160821326Y-121683241D02*
X160397062Y-122107505D01*
X159336402Y-121046845D01*
X159760666Y-120622581D01*
X160821326Y-121683241D01*
X160821326Y-121683241D01*
G37*
G36*
X161719351Y-120785215D02*
X161295087Y-121209479D01*
X160234427Y-120148819D01*
X160658691Y-119724555D01*
X161719351Y-120785215D01*
X161719351Y-120785215D01*
G37*
G36*
X162617377Y-119887190D02*
X162193113Y-120311454D01*
X161132453Y-119250794D01*
X161556717Y-118826530D01*
X162617377Y-119887190D01*
X162617377Y-119887190D01*
G37*
G36*
X163515403Y-118989164D02*
X163091139Y-119413428D01*
X162030479Y-118352768D01*
X162454743Y-117928504D01*
X163515403Y-118989164D01*
X163515403Y-118989164D01*
G37*
G36*
X164413428Y-118091139D02*
X163989164Y-118515403D01*
X162928504Y-117454743D01*
X163352768Y-117030479D01*
X164413428Y-118091139D01*
X164413428Y-118091139D01*
G37*
G36*
X165311454Y-117193113D02*
X164887190Y-117617377D01*
X163826530Y-116556717D01*
X164250794Y-116132453D01*
X165311454Y-117193113D01*
X165311454Y-117193113D01*
G37*
G36*
X166209479Y-116295087D02*
X165785215Y-116719351D01*
X164724555Y-115658691D01*
X165148819Y-115234427D01*
X166209479Y-116295087D01*
X166209479Y-116295087D01*
G37*
G36*
X167107505Y-115397062D02*
X166683241Y-115821326D01*
X165622581Y-114760666D01*
X166046845Y-114336402D01*
X167107505Y-115397062D01*
X167107505Y-115397062D01*
G37*
D14*
X161430000Y-133575000D03*
D15*
X161430000Y-136115000D03*
X158890000Y-133575000D03*
X158890000Y-136115000D03*
X156350000Y-133575000D03*
X156350000Y-136115000D03*
X153810000Y-133575000D03*
X153810000Y-136115000D03*
X151270000Y-133575000D03*
X151270000Y-136115000D03*
X148730000Y-133575000D03*
X148730000Y-136115000D03*
X146190000Y-133575000D03*
X146190000Y-136115000D03*
X143650000Y-133575000D03*
X143650000Y-136115000D03*
X141110000Y-133575000D03*
X141110000Y-136115000D03*
X138570000Y-133575000D03*
X138570000Y-136115000D03*
D14*
X121425000Y-116430000D03*
D15*
X118885000Y-116430000D03*
X121425000Y-113890000D03*
X118885000Y-113890000D03*
X121425000Y-111350000D03*
X118885000Y-111350000D03*
X121425000Y-108810000D03*
X118885000Y-108810000D03*
X121425000Y-106270000D03*
X118885000Y-106270000D03*
X121425000Y-103730000D03*
X118885000Y-103730000D03*
X121425000Y-101190000D03*
X118885000Y-101190000D03*
X121425000Y-98650000D03*
X118885000Y-98650000D03*
X121425000Y-96110000D03*
X118885000Y-96110000D03*
X121425000Y-93570000D03*
X118885000Y-93570000D03*
D14*
X138570000Y-76425000D03*
D15*
X138570000Y-73885000D03*
X141110000Y-76425000D03*
X141110000Y-73885000D03*
X143650000Y-76425000D03*
X143650000Y-73885000D03*
X146190000Y-76425000D03*
X146190000Y-73885000D03*
X148730000Y-76425000D03*
X148730000Y-73885000D03*
X151270000Y-76425000D03*
X151270000Y-73885000D03*
X153810000Y-76425000D03*
X153810000Y-73885000D03*
X156350000Y-76425000D03*
X156350000Y-73885000D03*
X158890000Y-76425000D03*
X158890000Y-73885000D03*
X161430000Y-76425000D03*
X161430000Y-73885000D03*
D14*
X178575000Y-93570000D03*
D15*
X181115000Y-93570000D03*
X178575000Y-96110000D03*
X181115000Y-96110000D03*
X178575000Y-98650000D03*
X181115000Y-98650000D03*
X178575000Y-101190000D03*
X181115000Y-101190000D03*
X178575000Y-103730000D03*
X181115000Y-103730000D03*
X178575000Y-106270000D03*
X181115000Y-106270000D03*
X178575000Y-108810000D03*
X181115000Y-108810000D03*
X178575000Y-111350000D03*
X181115000Y-111350000D03*
X178575000Y-113890000D03*
X181115000Y-113890000D03*
X178575000Y-116430000D03*
X181115000Y-116430000D03*
D16*
X153810000Y-122230000D03*
X153810000Y-123330000D03*
X146190000Y-122230000D03*
X146190000Y-123330000D03*
D17*
X156670040Y-131050240D03*
X156670040Y-130400000D03*
X156670040Y-129749760D03*
X158569960Y-129749760D03*
X158569960Y-130400000D03*
X158569960Y-131050240D03*
X151590040Y-131050240D03*
X151590040Y-130400000D03*
X151590040Y-129749760D03*
X153489960Y-129749760D03*
X153489960Y-130400000D03*
X153489960Y-131050240D03*
X146510040Y-131050240D03*
X146510040Y-130400000D03*
X146510040Y-129749760D03*
X148409960Y-129749760D03*
X148409960Y-130400000D03*
X148409960Y-131050240D03*
D18*
X123949760Y-111670040D03*
X124600000Y-111670040D03*
X125250240Y-111670040D03*
X125250240Y-113569960D03*
X124600000Y-113569960D03*
X123949760Y-113569960D03*
X123949760Y-106590040D03*
X124600000Y-106590040D03*
X125250240Y-106590040D03*
X125250240Y-108489960D03*
X124600000Y-108489960D03*
X123949760Y-108489960D03*
X123949760Y-101510040D03*
X124600000Y-101510040D03*
X125250240Y-101510040D03*
X125250240Y-103409960D03*
X124600000Y-103409960D03*
X123949760Y-103409960D03*
X123949760Y-96430040D03*
X124600000Y-96430040D03*
X125250240Y-96430040D03*
X125250240Y-98329960D03*
X124600000Y-98329960D03*
X123949760Y-98329960D03*
D17*
X143329960Y-78949760D03*
X143329960Y-79600000D03*
X143329960Y-80250240D03*
X141430040Y-80250240D03*
X141430040Y-79600000D03*
X141430040Y-78949760D03*
X148409960Y-78949760D03*
X148409960Y-79600000D03*
X148409960Y-80250240D03*
X146510040Y-80250240D03*
X146510040Y-79600000D03*
X146510040Y-78949760D03*
X153489960Y-78949760D03*
X153489960Y-79600000D03*
X153489960Y-80250240D03*
X151590040Y-80250240D03*
X151590040Y-79600000D03*
X151590040Y-78949760D03*
X158569960Y-78949760D03*
X158569960Y-79600000D03*
X158569960Y-80250240D03*
X156670040Y-80250240D03*
X156670040Y-79600000D03*
X156670040Y-78949760D03*
D18*
X176050240Y-98329960D03*
X175400000Y-98329960D03*
X174749760Y-98329960D03*
X174749760Y-96430040D03*
X175400000Y-96430040D03*
X176050240Y-96430040D03*
X176050240Y-103409960D03*
X175400000Y-103409960D03*
X174749760Y-103409960D03*
X174749760Y-101510040D03*
X175400000Y-101510040D03*
X176050240Y-101510040D03*
X176050240Y-108489960D03*
X175400000Y-108489960D03*
X174749760Y-108489960D03*
X174749760Y-106590040D03*
X175400000Y-106590040D03*
X176050240Y-106590040D03*
X176050240Y-113569960D03*
X175400000Y-113569960D03*
X174749760Y-113569960D03*
X174749760Y-111670040D03*
X175400000Y-111670040D03*
X176050240Y-111670040D03*
D10*
G36*
X155826182Y-93653736D02*
X156179736Y-93300182D01*
X156604000Y-93724446D01*
X156250446Y-94078000D01*
X155826182Y-93653736D01*
X155826182Y-93653736D01*
G37*
G36*
X156604000Y-94431554D02*
X156957554Y-94078000D01*
X157381818Y-94502264D01*
X157028264Y-94855818D01*
X156604000Y-94431554D01*
X156604000Y-94431554D01*
G37*
G36*
X139601818Y-111774264D02*
X139248264Y-112127818D01*
X138824000Y-111703554D01*
X139177554Y-111350000D01*
X139601818Y-111774264D01*
X139601818Y-111774264D01*
G37*
G36*
X138824000Y-110996446D02*
X138470446Y-111350000D01*
X138046182Y-110925736D01*
X138399736Y-110572182D01*
X138824000Y-110996446D01*
X138824000Y-110996446D01*
G37*
G36*
X135819264Y-107905182D02*
X136172818Y-108258736D01*
X135748554Y-108683000D01*
X135395000Y-108329446D01*
X135819264Y-107905182D01*
X135819264Y-107905182D01*
G37*
G36*
X135041446Y-108683000D02*
X135395000Y-109036554D01*
X134970736Y-109460818D01*
X134617182Y-109107264D01*
X135041446Y-108683000D01*
X135041446Y-108683000D01*
G37*
G36*
X134081736Y-108571818D02*
X133728182Y-108218264D01*
X134152446Y-107794000D01*
X134506000Y-108147554D01*
X134081736Y-108571818D01*
X134081736Y-108571818D01*
G37*
G36*
X134859554Y-107794000D02*
X134506000Y-107440446D01*
X134930264Y-107016182D01*
X135283818Y-107369736D01*
X134859554Y-107794000D01*
X134859554Y-107794000D01*
G37*
G36*
X146781736Y-91045818D02*
X146428182Y-90692264D01*
X146852446Y-90268000D01*
X147206000Y-90621554D01*
X146781736Y-91045818D01*
X146781736Y-91045818D01*
G37*
G36*
X147559554Y-90268000D02*
X147206000Y-89914446D01*
X147630264Y-89490182D01*
X147983818Y-89843736D01*
X147559554Y-90268000D01*
X147559554Y-90268000D01*
G37*
G36*
X142209736Y-95617818D02*
X141856182Y-95264264D01*
X142280446Y-94840000D01*
X142634000Y-95193554D01*
X142209736Y-95617818D01*
X142209736Y-95617818D01*
G37*
G36*
X142987554Y-94840000D02*
X142634000Y-94486446D01*
X143058264Y-94062182D01*
X143411818Y-94415736D01*
X142987554Y-94840000D01*
X142987554Y-94840000D01*
G37*
G36*
X145892736Y-90156818D02*
X145539182Y-89803264D01*
X145963446Y-89379000D01*
X146317000Y-89732554D01*
X145892736Y-90156818D01*
X145892736Y-90156818D01*
G37*
G36*
X146670554Y-89379000D02*
X146317000Y-89025446D01*
X146741264Y-88601182D01*
X147094818Y-88954736D01*
X146670554Y-89379000D01*
X146670554Y-89379000D01*
G37*
G36*
X160203264Y-111969182D02*
X160556818Y-112322736D01*
X160132554Y-112747000D01*
X159779000Y-112393446D01*
X160203264Y-111969182D01*
X160203264Y-111969182D01*
G37*
G36*
X159425446Y-112747000D02*
X159779000Y-113100554D01*
X159354736Y-113524818D01*
X159001182Y-113171264D01*
X159425446Y-112747000D01*
X159425446Y-112747000D01*
G37*
G36*
X154869264Y-117303182D02*
X155222818Y-117656736D01*
X154798554Y-118081000D01*
X154445000Y-117727446D01*
X154869264Y-117303182D01*
X154869264Y-117303182D01*
G37*
G36*
X154091446Y-118081000D02*
X154445000Y-118434554D01*
X154020736Y-118858818D01*
X153667182Y-118505264D01*
X154091446Y-118081000D01*
X154091446Y-118081000D01*
G37*
G36*
X163700182Y-101527736D02*
X164053736Y-101174182D01*
X164478000Y-101598446D01*
X164124446Y-101952000D01*
X163700182Y-101527736D01*
X163700182Y-101527736D01*
G37*
G36*
X164478000Y-102305554D02*
X164831554Y-101952000D01*
X165255818Y-102376264D01*
X164902264Y-102729818D01*
X164478000Y-102305554D01*
X164478000Y-102305554D01*
G37*
G36*
X147729818Y-119902264D02*
X147376264Y-120255818D01*
X146952000Y-119831554D01*
X147305554Y-119478000D01*
X147729818Y-119902264D01*
X147729818Y-119902264D01*
G37*
G36*
X146952000Y-119124446D02*
X146598446Y-119478000D01*
X146174182Y-119053736D01*
X146527736Y-118700182D01*
X146952000Y-119124446D01*
X146952000Y-119124446D01*
G37*
G36*
X159763182Y-97590736D02*
X160116736Y-97237182D01*
X160541000Y-97661446D01*
X160187446Y-98015000D01*
X159763182Y-97590736D01*
X159763182Y-97590736D01*
G37*
G36*
X160541000Y-98368554D02*
X160894554Y-98015000D01*
X161318818Y-98439264D01*
X160965264Y-98792818D01*
X160541000Y-98368554D01*
X160541000Y-98368554D01*
G37*
G36*
X143030818Y-115203264D02*
X142677264Y-115556818D01*
X142253000Y-115132554D01*
X142606554Y-114779000D01*
X143030818Y-115203264D01*
X143030818Y-115203264D01*
G37*
G36*
X142253000Y-114425446D02*
X141899446Y-114779000D01*
X141475182Y-114354736D01*
X141828736Y-114001182D01*
X142253000Y-114425446D01*
X142253000Y-114425446D01*
G37*
D19*
X148350000Y-123050000D03*
X151650000Y-123050000D03*
X151650000Y-125050000D03*
X148350000Y-125050000D03*
D10*
G36*
X122167763Y-87279078D02*
X120730922Y-85842237D01*
X121952237Y-84620922D01*
X123389078Y-86057763D01*
X122167763Y-87279078D01*
X122167763Y-87279078D01*
G37*
D20*
X123748288Y-84046186D02*
X123963814Y-84261712D01*
X125544339Y-82250135D02*
X125759865Y-82465661D01*
X127340391Y-80454083D02*
X127555917Y-80669609D01*
X129136442Y-78658032D02*
X129351968Y-78873558D01*
X130932493Y-76861981D02*
X131148019Y-77077507D01*
D10*
G36*
X177832237Y-122720922D02*
X179269078Y-124157763D01*
X178047763Y-125379078D01*
X176610922Y-123942237D01*
X177832237Y-122720922D01*
X177832237Y-122720922D01*
G37*
D20*
X176251712Y-125953814D02*
X176036186Y-125738288D01*
X174455661Y-127749865D02*
X174240135Y-127534339D01*
X172659609Y-129545917D02*
X172444083Y-129330391D01*
X170863558Y-131341968D02*
X170648032Y-131126442D01*
X169067507Y-133138019D02*
X168851981Y-132922493D01*
D10*
G36*
X132471023Y-129615855D02*
X132930642Y-130075474D01*
X132181109Y-130825007D01*
X131721490Y-130365388D01*
X132471023Y-129615855D01*
X132471023Y-129615855D01*
G37*
G36*
X133142774Y-130287607D02*
X133602393Y-130747226D01*
X132852860Y-131496759D01*
X132393241Y-131037140D01*
X133142774Y-130287607D01*
X133142774Y-130287607D01*
G37*
G36*
X133814526Y-130959358D02*
X134274145Y-131418977D01*
X133524612Y-132168510D01*
X133064993Y-131708891D01*
X133814526Y-130959358D01*
X133814526Y-130959358D01*
G37*
G36*
X132258891Y-132514993D02*
X132718510Y-132974612D01*
X131968977Y-133724145D01*
X131509358Y-133264526D01*
X132258891Y-132514993D01*
X132258891Y-132514993D01*
G37*
G36*
X130915388Y-131171490D02*
X131375007Y-131631109D01*
X130625474Y-132380642D01*
X130165855Y-131921023D01*
X130915388Y-131171490D01*
X130915388Y-131171490D01*
G37*
G36*
X131587140Y-131843241D02*
X132046759Y-132302860D01*
X131297226Y-133052393D01*
X130837607Y-132592774D01*
X131587140Y-131843241D01*
X131587140Y-131843241D01*
G37*
G36*
X125445736Y-87997818D02*
X125092182Y-87644264D01*
X125516446Y-87220000D01*
X125870000Y-87573554D01*
X125445736Y-87997818D01*
X125445736Y-87997818D01*
G37*
G36*
X126223554Y-87220000D02*
X125870000Y-86866446D01*
X126294264Y-86442182D01*
X126647818Y-86795736D01*
X126223554Y-87220000D01*
X126223554Y-87220000D01*
G37*
G36*
X174554264Y-122002182D02*
X174907818Y-122355736D01*
X174483554Y-122780000D01*
X174130000Y-122426446D01*
X174554264Y-122002182D01*
X174554264Y-122002182D01*
G37*
G36*
X173776446Y-122780000D02*
X174130000Y-123133554D01*
X173705736Y-123557818D01*
X173352182Y-123204264D01*
X173776446Y-122780000D01*
X173776446Y-122780000D01*
G37*
G36*
X134335736Y-96887818D02*
X133982182Y-96534264D01*
X134406446Y-96110000D01*
X134760000Y-96463554D01*
X134335736Y-96887818D01*
X134335736Y-96887818D01*
G37*
G36*
X135113554Y-96110000D02*
X134760000Y-95756446D01*
X135184264Y-95332182D01*
X135537818Y-95685736D01*
X135113554Y-96110000D01*
X135113554Y-96110000D01*
G37*
G36*
X165664264Y-113112182D02*
X166017818Y-113465736D01*
X165593554Y-113890000D01*
X165240000Y-113536446D01*
X165664264Y-113112182D01*
X165664264Y-113112182D01*
G37*
G36*
X164886446Y-113890000D02*
X165240000Y-114243554D01*
X164815736Y-114667818D01*
X164462182Y-114314264D01*
X164886446Y-113890000D01*
X164886446Y-113890000D01*
G37*
D21*
X126370413Y-124880648D02*
X126582545Y-125092780D01*
X129905947Y-128416182D02*
X130118079Y-128628314D01*
D22*
X123665730Y-126383250D02*
X124054638Y-125994342D01*
X128615478Y-131332997D02*
X129004386Y-130944089D01*
D10*
G36*
X130172182Y-133150736D02*
X130525736Y-132797182D01*
X130950000Y-133221446D01*
X130596446Y-133575000D01*
X130172182Y-133150736D01*
X130172182Y-133150736D01*
G37*
G36*
X130950000Y-133928554D02*
X131303554Y-133575000D01*
X131727818Y-133999264D01*
X131374264Y-134352818D01*
X130950000Y-133928554D01*
X130950000Y-133928554D01*
G37*
D17*
X141430040Y-131050240D03*
X141430040Y-130400000D03*
X141430040Y-129749760D03*
X143329960Y-129749760D03*
X143329960Y-130400000D03*
X143329960Y-131050240D03*
D23*
X154500000Y-96500000D03*
X159050000Y-119650000D03*
X163750000Y-114200000D03*
X159200000Y-91250000D03*
X136250000Y-95800000D03*
X140800000Y-118750000D03*
X174000000Y-106000000D03*
X149000000Y-129000000D03*
X126000000Y-104000000D03*
X151000000Y-81000000D03*
X155100000Y-108500000D03*
X155950000Y-108550000D03*
X153550000Y-112000000D03*
X154450000Y-112000000D03*
X156450000Y-100050000D03*
X157000000Y-100700000D03*
X157100000Y-101500000D03*
X158000000Y-101500000D03*
X150500000Y-110000000D03*
X145000000Y-105500000D03*
X149500000Y-100000000D03*
X155000000Y-104500000D03*
X146825000Y-102460000D03*
X160000000Y-94000000D03*
X138000000Y-94000000D03*
X161500000Y-115000000D03*
X157500000Y-99500000D03*
X153000000Y-107500000D03*
X155000000Y-103500000D03*
X151500000Y-110000000D03*
X145000000Y-106500000D03*
X148500000Y-100000000D03*
X147250000Y-111050000D03*
X145600000Y-110300000D03*
X143150000Y-108750000D03*
X143150000Y-109650000D03*
X145800000Y-100350000D03*
X145800000Y-99450000D03*
X146300000Y-98050000D03*
X145450000Y-98000000D03*
X158100000Y-127850000D03*
X158100000Y-126950000D03*
X156800000Y-126300000D03*
X157600000Y-126300000D03*
X157750000Y-119150000D03*
X157950000Y-118350000D03*
X156650000Y-118200000D03*
X156850000Y-117400000D03*
X142550000Y-116750000D03*
X142700000Y-117550000D03*
X142850000Y-118350000D03*
X143000000Y-119150000D03*
X145100000Y-128250000D03*
X145150000Y-127350000D03*
X145300000Y-126550000D03*
X145300000Y-125650000D03*
X127100000Y-113050000D03*
X128000000Y-113050000D03*
X128650000Y-111750000D03*
X128650000Y-112550000D03*
X135850000Y-112700000D03*
X136650000Y-112900000D03*
X136800000Y-111600000D03*
X137600000Y-111700000D03*
X138250000Y-97600000D03*
X137450000Y-97700000D03*
X136650000Y-97850000D03*
X135850000Y-98000000D03*
X126850000Y-100100000D03*
X127650000Y-100150000D03*
X128450000Y-100300000D03*
X129300000Y-100300000D03*
X141950000Y-82100000D03*
X141950000Y-83000000D03*
X143250000Y-83650000D03*
X142400000Y-83700000D03*
X142200000Y-90900000D03*
X142000000Y-91700000D03*
X143300000Y-91800000D03*
X143100000Y-92600000D03*
X157450000Y-93250000D03*
X157300000Y-92450000D03*
X157150000Y-91650000D03*
X157000000Y-90850000D03*
X154850000Y-81350000D03*
X154850000Y-82250000D03*
X154700000Y-83050000D03*
X154700000Y-83950000D03*
X172900000Y-96950000D03*
X172000000Y-96950000D03*
X171350000Y-98250000D03*
X171350000Y-97450000D03*
X164150000Y-97200000D03*
X163350000Y-97000000D03*
X163200000Y-98300000D03*
X162550000Y-97850000D03*
X161750000Y-112450000D03*
X162550000Y-112300000D03*
X163350000Y-112150000D03*
X164150000Y-112000000D03*
X173350000Y-109900000D03*
X172450000Y-109900000D03*
X171650000Y-109700000D03*
X170700000Y-109700000D03*
X141200000Y-117150000D03*
X157950000Y-117450000D03*
X137550000Y-96000000D03*
X137550000Y-112700000D03*
X166500000Y-92000000D03*
X134500000Y-91000000D03*
X165000000Y-118500000D03*
X159050000Y-92600000D03*
X142100000Y-92550000D03*
X162400000Y-114000000D03*
X162500000Y-97000000D03*
X127775000Y-128495000D03*
X125870000Y-126590000D03*
D24*
X155621499Y-95489414D02*
X154610913Y-96500000D01*
X154610913Y-96500000D02*
X154500000Y-96500000D01*
X135783909Y-108294091D02*
X135783909Y-108309909D01*
X159157033Y-99024948D02*
X159778072Y-98403909D01*
X159778072Y-98403909D02*
X160929909Y-98403909D01*
X158096373Y-112035712D02*
X159196570Y-113135909D01*
X159196570Y-113135909D02*
X159390091Y-113135909D01*
X153146625Y-116985460D02*
X154056091Y-117894926D01*
X154056091Y-117894926D02*
X154056091Y-118469909D01*
X147914035Y-118046120D02*
X146871064Y-119089091D01*
X146871064Y-119089091D02*
X146563091Y-119089091D01*
X163753227Y-103621142D02*
X164866909Y-102507460D01*
X164866909Y-102507460D02*
X164866909Y-102340909D01*
X155621499Y-95489414D02*
X156644004Y-94466909D01*
X156644004Y-94466909D02*
X156992909Y-94466909D01*
X147594909Y-89879091D02*
X146705909Y-88990091D01*
X148621142Y-91246773D02*
X147594909Y-90220540D01*
X147594909Y-90220540D02*
X147594909Y-89879091D01*
X144024948Y-95842967D02*
X143022909Y-94840928D01*
X143022909Y-94840928D02*
X143022909Y-94451091D01*
X136600326Y-106732412D02*
X135783909Y-107548829D01*
X135783909Y-107548829D02*
X135783909Y-108294091D01*
X143317841Y-113449926D02*
X142377676Y-114390091D01*
X142377676Y-114390091D02*
X141864091Y-114390091D01*
X139782307Y-109914392D02*
X138735608Y-110961091D01*
X138735608Y-110961091D02*
X138435091Y-110961091D01*
X166365043Y-115078864D02*
X165628909Y-114342730D01*
X165628909Y-114342730D02*
X165628909Y-113501091D01*
X162924369Y-105550000D02*
X163753227Y-106378858D01*
X157950000Y-105500000D02*
X162924369Y-105550000D01*
X155100000Y-108500000D02*
X157950000Y-105500000D01*
X162060155Y-106100000D02*
X163046120Y-107085965D01*
X158400000Y-106100000D02*
X162060155Y-106100000D01*
X155950000Y-108550000D02*
X158400000Y-106100000D01*
X161803049Y-106550000D02*
X162692567Y-107439518D01*
X158800000Y-106550000D02*
X161803049Y-106550000D01*
X153550000Y-112000000D02*
X158800000Y-106550000D01*
X161645941Y-107100000D02*
X162339013Y-107793072D01*
X159350000Y-107100000D02*
X161645941Y-107100000D01*
X154450000Y-112000000D02*
X159350000Y-107100000D01*
X151050000Y-92282738D02*
X151732412Y-91600326D01*
X151050000Y-94650000D02*
X151050000Y-92282738D01*
X156450000Y-100050000D02*
X151050000Y-94650000D01*
X159196194Y-100400000D02*
X159864140Y-99732054D01*
X157300000Y-100400000D02*
X159196194Y-100400000D01*
X157000000Y-100700000D02*
X157300000Y-100400000D01*
X159453301Y-100850000D02*
X160217693Y-100085608D01*
X157750000Y-100850000D02*
X159453301Y-100850000D01*
X157100000Y-101500000D02*
X157750000Y-100850000D01*
X159710407Y-101300000D02*
X160571246Y-100439161D01*
X158200000Y-101300000D02*
X159710407Y-101300000D01*
X158000000Y-101500000D02*
X158200000Y-101300000D01*
X160152091Y-97626091D02*
X161041091Y-97626091D01*
X164089091Y-100674091D02*
X164089091Y-101563091D01*
X161041091Y-97626091D02*
X164089091Y-100674091D01*
X158803479Y-98671394D02*
X157974873Y-99500000D01*
X157974873Y-99500000D02*
X157500000Y-99500000D01*
X160078864Y-121365043D02*
X160613821Y-121900000D01*
X166000000Y-116509872D02*
X165467017Y-115976889D01*
X166500000Y-118750000D02*
X166000000Y-116509872D01*
X162850000Y-122400000D02*
X166500000Y-118750000D01*
X160613821Y-121900000D02*
X162850000Y-122400000D01*
X158803479Y-98671394D02*
X159848782Y-97626091D01*
X159848782Y-97626091D02*
X160152091Y-97626091D01*
X158449926Y-111682159D02*
X159125858Y-112358091D01*
X159125858Y-112358091D02*
X160167909Y-112358091D01*
X153500179Y-116631907D02*
X154560363Y-117692091D01*
X154560363Y-117692091D02*
X154833909Y-117692091D01*
X148267588Y-118399674D02*
X147340909Y-119326353D01*
X147340909Y-119326353D02*
X147340909Y-119866909D01*
X155267946Y-95135860D02*
X156215091Y-94188715D01*
X156215091Y-94188715D02*
X156215091Y-93689091D01*
X146817091Y-90656909D02*
X145928091Y-89767909D01*
X148267588Y-91600326D02*
X147324171Y-90656909D01*
X147324171Y-90656909D02*
X146817091Y-90656909D01*
X143671394Y-96196521D02*
X142703782Y-95228909D01*
X142703782Y-95228909D02*
X142245091Y-95228909D01*
X134117091Y-108182909D02*
X135006091Y-109071909D01*
X143671394Y-113803479D02*
X142641909Y-114832964D01*
X142641909Y-114832964D02*
X142641909Y-115167909D01*
X140135860Y-110267946D02*
X139212909Y-111190897D01*
X139212909Y-111190897D02*
X139212909Y-111738909D01*
X136601270Y-116984517D02*
X138015483Y-118398730D01*
X165467017Y-115976889D02*
X165875000Y-116384872D01*
X165467017Y-115976889D02*
X164851091Y-115360963D01*
X164851091Y-115360963D02*
X164851091Y-114278909D01*
X148550000Y-116703049D02*
X147560482Y-117692567D01*
X148550000Y-112350000D02*
X148550000Y-116703049D01*
X147250000Y-111050000D02*
X148550000Y-112350000D01*
X148100000Y-116445941D02*
X147206928Y-117339013D01*
X148100000Y-112800000D02*
X148100000Y-116445941D01*
X145600000Y-110300000D02*
X148100000Y-112800000D01*
X147650000Y-116188835D02*
X146853375Y-116985460D01*
X147650000Y-113250000D02*
X147650000Y-116188835D01*
X143150000Y-108750000D02*
X147650000Y-113250000D01*
X147200000Y-115931728D02*
X146499821Y-116631907D01*
X147200000Y-113700000D02*
X147200000Y-115931728D01*
X143150000Y-109650000D02*
X147200000Y-113700000D01*
X137275631Y-104650000D02*
X136246773Y-103621142D01*
X141500000Y-104650000D02*
X137275631Y-104650000D01*
X145800000Y-100350000D02*
X141500000Y-104650000D01*
X137532738Y-104200000D02*
X136600326Y-103267588D01*
X141050000Y-104200000D02*
X137532738Y-104200000D01*
X145800000Y-99450000D02*
X141050000Y-104200000D01*
X137789845Y-103750000D02*
X136953880Y-102914035D01*
X140600000Y-103750000D02*
X137789845Y-103750000D01*
X146300000Y-98050000D02*
X140600000Y-103750000D01*
X137996951Y-103250000D02*
X137307433Y-102560482D01*
X140200000Y-103250000D02*
X137996951Y-103250000D01*
X145450000Y-98000000D02*
X140200000Y-103250000D01*
X158569960Y-129749760D02*
X158150240Y-129749760D01*
X158890000Y-132440000D02*
X158890000Y-133575000D01*
X157850000Y-131400000D02*
X158890000Y-132440000D01*
X157850000Y-130050000D02*
X157850000Y-131400000D01*
X158150240Y-129749760D02*
X157850000Y-130050000D01*
X158569960Y-128319960D02*
X158569960Y-129749760D01*
X158100000Y-127850000D02*
X158569960Y-128319960D01*
X158569960Y-130400000D02*
X159000000Y-130400000D01*
X159000000Y-130400000D02*
X160150000Y-131550000D01*
X160150000Y-134855000D02*
X158890000Y-136115000D01*
X160150000Y-131550000D02*
X160150000Y-134855000D01*
X159300000Y-130100000D02*
X159000000Y-130400000D01*
X159300000Y-128150000D02*
X159300000Y-130100000D01*
X158100000Y-126950000D02*
X159300000Y-128150000D01*
X156670040Y-130400000D02*
X156250000Y-130400000D01*
X156250000Y-130400000D02*
X155950000Y-130700000D01*
X155950000Y-130700000D02*
X155950000Y-133175000D01*
X155950000Y-133175000D02*
X156350000Y-133575000D01*
X155950000Y-130100000D02*
X156250000Y-130400000D01*
X155950000Y-127150000D02*
X155950000Y-130100000D01*
X156800000Y-126300000D02*
X155950000Y-127150000D01*
X156670040Y-130400000D02*
X156800000Y-130400000D01*
X157600000Y-126300000D02*
X157400000Y-126500000D01*
X157400000Y-130750000D02*
X157099760Y-131050240D01*
X157400000Y-126500000D02*
X157400000Y-130750000D01*
X157099760Y-131050240D02*
X156670040Y-131050240D01*
X156670040Y-131050240D02*
X156670040Y-131920040D01*
X157650000Y-134815000D02*
X156350000Y-136115000D01*
X157650000Y-132900000D02*
X157650000Y-134815000D01*
X156670040Y-131920040D02*
X157650000Y-132900000D01*
X157099760Y-131050240D02*
X156670040Y-131050240D01*
X153489960Y-129749760D02*
X153050240Y-129749760D01*
X153810000Y-132460000D02*
X153810000Y-133575000D01*
X152750000Y-131400000D02*
X153810000Y-132460000D01*
X152750000Y-130050000D02*
X152750000Y-131400000D01*
X153050240Y-129749760D02*
X152750000Y-130050000D01*
X157550000Y-119350000D02*
X157550000Y-124000000D01*
X157750000Y-119150000D02*
X157550000Y-119350000D01*
X157550000Y-124000000D02*
X153489960Y-128060040D01*
X153489960Y-128060040D02*
X153489960Y-129749760D01*
X154200000Y-130100000D02*
X153900000Y-130400000D01*
X154200000Y-128000000D02*
X154200000Y-130100000D01*
X158000000Y-124200000D02*
X154200000Y-128000000D01*
X158000000Y-119800000D02*
X158000000Y-124200000D01*
X158400000Y-119400000D02*
X158000000Y-119800000D01*
X158400000Y-118800000D02*
X158400000Y-119400000D01*
X157950000Y-118350000D02*
X158400000Y-118800000D01*
X153489960Y-130400000D02*
X153900000Y-130400000D01*
X153900000Y-130400000D02*
X155100000Y-131600000D01*
X155100000Y-134825000D02*
X153810000Y-136115000D01*
X155100000Y-131600000D02*
X155100000Y-134825000D01*
X151590040Y-130400000D02*
X151150000Y-130400000D01*
X151150000Y-130400000D02*
X150850000Y-130700000D01*
X150850000Y-130700000D02*
X150850000Y-133155000D01*
X150850000Y-133155000D02*
X151270000Y-133575000D01*
X150850000Y-130100000D02*
X151150000Y-130400000D01*
X150850000Y-129400000D02*
X150850000Y-130100000D01*
X156650000Y-123600000D02*
X150850000Y-129400000D01*
X156650000Y-118200000D02*
X156650000Y-123600000D01*
X151590040Y-131050240D02*
X151590040Y-131890040D01*
X152550000Y-134835000D02*
X151270000Y-136115000D01*
X152550000Y-132850000D02*
X152550000Y-134835000D01*
X151590040Y-131890040D02*
X152550000Y-132850000D01*
X151999760Y-131050240D02*
X151590040Y-131050240D01*
X152300000Y-130750000D02*
X151999760Y-131050240D01*
X152300000Y-128600000D02*
X152300000Y-130750000D01*
X157100000Y-123800000D02*
X152300000Y-128600000D01*
X157100000Y-118650000D02*
X157100000Y-123800000D01*
X157300000Y-118450000D02*
X157100000Y-118650000D01*
X157300000Y-117850000D02*
X157300000Y-118450000D01*
X156850000Y-117400000D02*
X157300000Y-117850000D01*
X141000240Y-131050240D02*
X141430040Y-131050240D01*
X140700000Y-130750000D02*
X141000240Y-131050240D01*
X140700000Y-129400000D02*
X140700000Y-130750000D01*
X142700000Y-127400000D02*
X140700000Y-129400000D01*
X142700000Y-121050000D02*
X142700000Y-127400000D01*
X141450000Y-119800000D02*
X142700000Y-121050000D01*
X141450000Y-117850000D02*
X141450000Y-119800000D01*
X142550000Y-116750000D02*
X141450000Y-117850000D01*
X141430040Y-131050240D02*
X141430040Y-131269960D01*
X139850000Y-134855000D02*
X141110000Y-136115000D01*
X139850000Y-132850000D02*
X139850000Y-134855000D01*
X141430040Y-131269960D02*
X139850000Y-132850000D01*
X142150000Y-130050000D02*
X141800000Y-130400000D01*
X142150000Y-129200000D02*
X142150000Y-130050000D01*
X143150000Y-128200000D02*
X142150000Y-129200000D01*
X143150000Y-120850000D02*
X143150000Y-128200000D01*
X141900000Y-119600000D02*
X143150000Y-120850000D01*
X141900000Y-118350000D02*
X141900000Y-119600000D01*
X142700000Y-117550000D02*
X141900000Y-118350000D01*
X141800000Y-130400000D02*
X141430040Y-130400000D01*
X141430040Y-130400000D02*
X141850000Y-130400000D01*
X141110000Y-132440000D02*
X141110000Y-133575000D01*
X142150000Y-131400000D02*
X141110000Y-132440000D01*
X142150000Y-130700000D02*
X142150000Y-131400000D01*
X141850000Y-130400000D02*
X142150000Y-130700000D01*
X142600000Y-130100000D02*
X142900000Y-130400000D01*
X142600000Y-129400000D02*
X142600000Y-130100000D01*
X143600000Y-128400000D02*
X142600000Y-129400000D01*
X143600000Y-120650000D02*
X143600000Y-128400000D01*
X142350000Y-119400000D02*
X143600000Y-120650000D01*
X142350000Y-118850000D02*
X142350000Y-119400000D01*
X142850000Y-118350000D02*
X142350000Y-118850000D01*
X142900000Y-130400000D02*
X143329960Y-130400000D01*
X143329960Y-130400000D02*
X142900000Y-130400000D01*
X142400000Y-134865000D02*
X143650000Y-136115000D01*
X142400000Y-132850000D02*
X142400000Y-134865000D01*
X142600000Y-132650000D02*
X142400000Y-132850000D01*
X142600000Y-130700000D02*
X142600000Y-132650000D01*
X142900000Y-130400000D02*
X142600000Y-130700000D01*
X144050000Y-129300000D02*
X144050000Y-129449520D01*
X143000000Y-119150000D02*
X144050000Y-120200000D01*
X144050000Y-120200000D02*
X144050000Y-129300000D01*
X144050000Y-129449520D02*
X143749760Y-129749760D01*
X143749760Y-129749760D02*
X143329960Y-129749760D01*
X143329960Y-129749760D02*
X143749760Y-129749760D01*
X143650000Y-131800000D02*
X143650000Y-133575000D01*
X144050000Y-131400000D02*
X143650000Y-131800000D01*
X144050000Y-130050000D02*
X144050000Y-131400000D01*
X143749760Y-129749760D02*
X144050000Y-130050000D01*
X146510040Y-131050240D02*
X146510040Y-131089960D01*
X146510040Y-131089960D02*
X144900000Y-132700000D01*
X144900000Y-134825000D02*
X146190000Y-136115000D01*
X144900000Y-132700000D02*
X144900000Y-134825000D01*
X146100240Y-131050240D02*
X146510040Y-131050240D01*
X145800000Y-130750000D02*
X146100240Y-131050240D01*
X145800000Y-128950000D02*
X145800000Y-130750000D01*
X145100000Y-128250000D02*
X145800000Y-128950000D01*
X146510040Y-130400000D02*
X146950000Y-130400000D01*
X146950000Y-130400000D02*
X147250000Y-130700000D01*
X146190000Y-132460000D02*
X146190000Y-133575000D01*
X147250000Y-131400000D02*
X146190000Y-132460000D01*
X147250000Y-130700000D02*
X147250000Y-131400000D01*
X147250000Y-130100000D02*
X146950000Y-130400000D01*
X147250000Y-129450000D02*
X147250000Y-130100000D01*
X147150000Y-129350000D02*
X147250000Y-129450000D01*
X147050000Y-129250000D02*
X147150000Y-129350000D01*
X145150000Y-127350000D02*
X147050000Y-129250000D01*
X148409960Y-130400000D02*
X148000000Y-130400000D01*
X148000000Y-130400000D02*
X147700000Y-130700000D01*
X147450000Y-134835000D02*
X148730000Y-136115000D01*
X147450000Y-132900000D02*
X147450000Y-134835000D01*
X147700000Y-132650000D02*
X147450000Y-132900000D01*
X147700000Y-130700000D02*
X147700000Y-132650000D01*
X147700000Y-130100000D02*
X148000000Y-130400000D01*
X147700000Y-128950000D02*
X147700000Y-130100000D01*
X145300000Y-126550000D02*
X147700000Y-128950000D01*
X148409960Y-129749760D02*
X148849760Y-129749760D01*
X148730000Y-131820000D02*
X148730000Y-133575000D01*
X149150000Y-131400000D02*
X148730000Y-131820000D01*
X149150000Y-130050000D02*
X149150000Y-131400000D01*
X148849760Y-129749760D02*
X149150000Y-130050000D01*
X148409960Y-128759960D02*
X148409960Y-129749760D01*
X145300000Y-125650000D02*
X148409960Y-128759960D01*
X125250240Y-113569960D02*
X125250240Y-113150240D01*
X122560000Y-113890000D02*
X121425000Y-113890000D01*
X123600000Y-112850000D02*
X122560000Y-113890000D01*
X124950000Y-112850000D02*
X123600000Y-112850000D01*
X125250240Y-113150240D02*
X124950000Y-112850000D01*
X126580040Y-113569960D02*
X125250240Y-113569960D01*
X127100000Y-113050000D02*
X126580040Y-113569960D01*
X124600000Y-113569960D02*
X124600000Y-114000000D01*
X124600000Y-114000000D02*
X123450000Y-115150000D01*
X120145000Y-115150000D02*
X118885000Y-113890000D01*
X123450000Y-115150000D02*
X120145000Y-115150000D01*
X124900000Y-114300000D02*
X124600000Y-114000000D01*
X126750000Y-114300000D02*
X124900000Y-114300000D01*
X128000000Y-113050000D02*
X126750000Y-114300000D01*
X124600000Y-111670040D02*
X124600000Y-111250000D01*
X124600000Y-111250000D02*
X124300000Y-110950000D01*
X124300000Y-110950000D02*
X121825000Y-110950000D01*
X121825000Y-110950000D02*
X121425000Y-111350000D01*
X124900000Y-110950000D02*
X124600000Y-111250000D01*
X127850000Y-110950000D02*
X124900000Y-110950000D01*
X128650000Y-111750000D02*
X127850000Y-110950000D01*
X123949760Y-111670040D02*
X123079960Y-111670040D01*
X120135000Y-112600000D02*
X118885000Y-111350000D01*
X122150000Y-112600000D02*
X120135000Y-112600000D01*
X123079960Y-111670040D02*
X122150000Y-112600000D01*
X123949760Y-112099760D02*
X123949760Y-111670040D01*
X124250000Y-112400000D02*
X123949760Y-112099760D01*
X128500000Y-112400000D02*
X124250000Y-112400000D01*
X128650000Y-112550000D02*
X128500000Y-112400000D01*
X125250240Y-108489960D02*
X125250240Y-108050240D01*
X122540000Y-108810000D02*
X121425000Y-108810000D01*
X123600000Y-107750000D02*
X122540000Y-108810000D01*
X124950000Y-107750000D02*
X123600000Y-107750000D01*
X125250240Y-108050240D02*
X124950000Y-107750000D01*
X135650000Y-112500000D02*
X130950000Y-112500000D01*
X135850000Y-112700000D02*
X135650000Y-112500000D01*
X130950000Y-112500000D02*
X126939960Y-108489960D01*
X126939960Y-108489960D02*
X125250240Y-108489960D01*
X124600000Y-108489960D02*
X124600000Y-108950000D01*
X120175000Y-110100000D02*
X118885000Y-108810000D01*
X123450000Y-110100000D02*
X120175000Y-110100000D01*
X124600000Y-108950000D02*
X123450000Y-110100000D01*
X124600000Y-108900000D02*
X124600000Y-108489960D01*
X130750000Y-112950000D02*
X127000000Y-109200000D01*
X127000000Y-109200000D02*
X124900000Y-109200000D01*
X124900000Y-109200000D02*
X124600000Y-108900000D01*
X135600000Y-113350000D02*
X135200000Y-112950000D01*
X135200000Y-112950000D02*
X130750000Y-112950000D01*
X136650000Y-112900000D02*
X136200000Y-113350000D01*
X136200000Y-113350000D02*
X135600000Y-113350000D01*
X124600000Y-106590040D02*
X124600000Y-106150000D01*
X124600000Y-106150000D02*
X124300000Y-105850000D01*
X124300000Y-105850000D02*
X121845000Y-105850000D01*
X121845000Y-105850000D02*
X121425000Y-106270000D01*
X124900000Y-105850000D02*
X124600000Y-106150000D01*
X125600000Y-105850000D02*
X124900000Y-105850000D01*
X131350000Y-111600000D02*
X125600000Y-105850000D01*
X136800000Y-111600000D02*
X131350000Y-111600000D01*
X123949760Y-106590040D02*
X123109960Y-106590040D01*
X120165000Y-107550000D02*
X118885000Y-106270000D01*
X122150000Y-107550000D02*
X120165000Y-107550000D01*
X123109960Y-106590040D02*
X122150000Y-107550000D01*
X123949760Y-106590040D02*
X123949760Y-106999760D01*
X124250000Y-107300000D02*
X123949760Y-106999760D01*
X126400000Y-107300000D02*
X124250000Y-107300000D01*
X131150000Y-112050000D02*
X126400000Y-107300000D01*
X136350000Y-112050000D02*
X131150000Y-112050000D01*
X136550000Y-112250000D02*
X136350000Y-112050000D01*
X137050000Y-112250000D02*
X136550000Y-112250000D01*
X137600000Y-111700000D02*
X137050000Y-112250000D01*
X123949760Y-96000240D02*
X123949760Y-96430040D01*
X138250000Y-97600000D02*
X137100000Y-96450000D01*
X137100000Y-96450000D02*
X135200000Y-96450000D01*
X135200000Y-96450000D02*
X133950000Y-97700000D01*
X133950000Y-97700000D02*
X127600000Y-97700000D01*
X127600000Y-97700000D02*
X125600000Y-95700000D01*
X125600000Y-95700000D02*
X124250000Y-95700000D01*
X124250000Y-95700000D02*
X123949760Y-96000240D01*
X123949760Y-96430040D02*
X123730040Y-96430040D01*
X120145000Y-94850000D02*
X118885000Y-96110000D01*
X122150000Y-94850000D02*
X120145000Y-94850000D01*
X123730040Y-96430040D02*
X122150000Y-94850000D01*
X124900000Y-97150000D02*
X124600000Y-96850000D01*
X125800000Y-97150000D02*
X124900000Y-97150000D01*
X126800000Y-98150000D02*
X125800000Y-97150000D01*
X134150000Y-98150000D02*
X126800000Y-98150000D01*
X135400000Y-96900000D02*
X134150000Y-98150000D01*
X136650000Y-96900000D02*
X135400000Y-96900000D01*
X137450000Y-97700000D02*
X136650000Y-96900000D01*
X124600000Y-96850000D02*
X124600000Y-96430040D01*
X124600000Y-96850000D02*
X124600000Y-96430040D01*
X124600000Y-96430040D02*
X124600000Y-96850000D01*
X122560000Y-96110000D02*
X121425000Y-96110000D01*
X123600000Y-97150000D02*
X122560000Y-96110000D01*
X124300000Y-97150000D02*
X123600000Y-97150000D01*
X124600000Y-96850000D02*
X124300000Y-97150000D01*
X135200000Y-97750000D02*
X134350000Y-98600000D01*
X134350000Y-98600000D02*
X126600000Y-98600000D01*
X124900000Y-97600000D02*
X124600000Y-97900000D01*
X126600000Y-98600000D02*
X125600000Y-97600000D01*
X125600000Y-97600000D02*
X124900000Y-97600000D01*
X135600000Y-97350000D02*
X135200000Y-97750000D01*
X136150000Y-97350000D02*
X135600000Y-97350000D01*
X136650000Y-97850000D02*
X136150000Y-97350000D01*
X124600000Y-97900000D02*
X124600000Y-98329960D01*
X124600000Y-97900000D02*
X124600000Y-98329960D01*
X124600000Y-97900000D02*
X124600000Y-98329960D01*
X124600000Y-97900000D02*
X124600000Y-98329960D01*
X124600000Y-98329960D02*
X124600000Y-97900000D01*
X124600000Y-97900000D02*
X124300000Y-97600000D01*
X120135000Y-97400000D02*
X118885000Y-98650000D01*
X122150000Y-97400000D02*
X120135000Y-97400000D01*
X122350000Y-97600000D02*
X122150000Y-97400000D01*
X124300000Y-97600000D02*
X122350000Y-97600000D01*
X118310960Y-98650000D02*
X118250000Y-98650000D01*
X135850000Y-98000000D02*
X134800000Y-99050000D01*
X125500480Y-99050000D02*
X125250240Y-98799760D01*
X134800000Y-99050000D02*
X125500480Y-99050000D01*
X125250240Y-98799760D02*
X125250240Y-98329960D01*
X125250240Y-98329960D02*
X125250240Y-98799760D01*
X123200000Y-98650000D02*
X121425000Y-98650000D01*
X123600000Y-99050000D02*
X123200000Y-98650000D01*
X125000000Y-99050000D02*
X123600000Y-99050000D01*
X125250240Y-98799760D02*
X125000000Y-99050000D01*
X123949760Y-101510040D02*
X123710040Y-101510040D01*
X120125000Y-99950000D02*
X118885000Y-101190000D01*
X122150000Y-99950000D02*
X120125000Y-99950000D01*
X123710040Y-101510040D02*
X122150000Y-99950000D01*
X123949760Y-101050240D02*
X123949760Y-101510040D01*
X124200000Y-100800000D02*
X123949760Y-101050240D01*
X126150000Y-100800000D02*
X124200000Y-100800000D01*
X126850000Y-100100000D02*
X126150000Y-100800000D01*
X124600000Y-101510040D02*
X124600000Y-101950000D01*
X124600000Y-101950000D02*
X124350000Y-102200000D01*
X122590000Y-101190000D02*
X121425000Y-101190000D01*
X123600000Y-102200000D02*
X122590000Y-101190000D01*
X124350000Y-102200000D02*
X123600000Y-102200000D01*
X124900000Y-102250000D02*
X124600000Y-101950000D01*
X125550000Y-102250000D02*
X124900000Y-102250000D01*
X127650000Y-100150000D02*
X125550000Y-102250000D01*
X124600000Y-103409960D02*
X124600000Y-102950000D01*
X124600000Y-102950000D02*
X124350000Y-102700000D01*
X120165000Y-102450000D02*
X118885000Y-103730000D01*
X122200000Y-102450000D02*
X120165000Y-102450000D01*
X122450000Y-102700000D02*
X122200000Y-102450000D01*
X124350000Y-102700000D02*
X122450000Y-102700000D01*
X124850000Y-102700000D02*
X124600000Y-102950000D01*
X126050000Y-102700000D02*
X124850000Y-102700000D01*
X128450000Y-100300000D02*
X126050000Y-102700000D01*
X125250240Y-103409960D02*
X125250240Y-103849760D01*
X123180000Y-103730000D02*
X121425000Y-103730000D01*
X123600000Y-104150000D02*
X123180000Y-103730000D01*
X124950000Y-104150000D02*
X123600000Y-104150000D01*
X125250240Y-103849760D02*
X124950000Y-104150000D01*
X126250000Y-103350000D02*
X125310200Y-103350000D01*
X129300000Y-100300000D02*
X126250000Y-103350000D01*
X125310200Y-103350000D02*
X125250240Y-103409960D01*
X141430040Y-80250240D02*
X141849760Y-80250240D01*
X141110000Y-77560000D02*
X141110000Y-76425000D01*
X142150000Y-78600000D02*
X141110000Y-77560000D01*
X142150000Y-79950000D02*
X142150000Y-78600000D01*
X141849760Y-80250240D02*
X142150000Y-79950000D01*
X141430040Y-81580040D02*
X141430040Y-80250240D01*
X141950000Y-82100000D02*
X141430040Y-81580040D01*
X141430040Y-79600000D02*
X141000000Y-79600000D01*
X141000000Y-79600000D02*
X139850000Y-78450000D01*
X139850000Y-75145000D02*
X141110000Y-73885000D01*
X139850000Y-78450000D02*
X139850000Y-75145000D01*
X140700000Y-79900000D02*
X141000000Y-79600000D01*
X140700000Y-81750000D02*
X140700000Y-79900000D01*
X141950000Y-83000000D02*
X140700000Y-81750000D01*
X143329960Y-79600000D02*
X143750000Y-79600000D01*
X143750000Y-79600000D02*
X144050000Y-79300000D01*
X144050000Y-79300000D02*
X144050000Y-76825000D01*
X144050000Y-76825000D02*
X143650000Y-76425000D01*
X144050000Y-79900000D02*
X143750000Y-79600000D01*
X143250000Y-83650000D02*
X144050000Y-82850000D01*
X144050000Y-82850000D02*
X144050000Y-79900000D01*
X143329960Y-78949760D02*
X143329960Y-78129960D01*
X142350000Y-75185000D02*
X143650000Y-73885000D01*
X142350000Y-77150000D02*
X142350000Y-75185000D01*
X143329960Y-78129960D02*
X142350000Y-77150000D01*
X142900240Y-78949760D02*
X143329960Y-78949760D01*
X142400000Y-83700000D02*
X142600000Y-83500000D01*
X142600000Y-83500000D02*
X142600000Y-79250000D01*
X142600000Y-79250000D02*
X142900240Y-78949760D01*
X146510040Y-80250240D02*
X146949760Y-80250240D01*
X146190000Y-77540000D02*
X146190000Y-76425000D01*
X147250000Y-78600000D02*
X146190000Y-77540000D01*
X147250000Y-79950000D02*
X147250000Y-78600000D01*
X146949760Y-80250240D02*
X147250000Y-79950000D01*
X142200000Y-90900000D02*
X142400000Y-90700000D01*
X142400000Y-90700000D02*
X142400000Y-86050000D01*
X142400000Y-86050000D02*
X146510040Y-81939960D01*
X146510040Y-81939960D02*
X146510040Y-80250240D01*
X146510040Y-79600000D02*
X146100000Y-79600000D01*
X144900000Y-75175000D02*
X146190000Y-73885000D01*
X144900000Y-78400000D02*
X144900000Y-75175000D01*
X146100000Y-79600000D02*
X144900000Y-78400000D01*
X146050000Y-79600000D02*
X146510040Y-79600000D01*
X145800000Y-79850000D02*
X146050000Y-79600000D01*
X145800000Y-82000000D02*
X145800000Y-79850000D01*
X141950000Y-85850000D02*
X145800000Y-82000000D01*
X141950000Y-90250000D02*
X141950000Y-85850000D01*
X141550000Y-90650000D02*
X141950000Y-90250000D01*
X141550000Y-91250000D02*
X141550000Y-90650000D01*
X142000000Y-91700000D02*
X141550000Y-91250000D01*
X148409960Y-79600000D02*
X148850000Y-79600000D01*
X148850000Y-79600000D02*
X149150000Y-79300000D01*
X149150000Y-79300000D02*
X149150000Y-76845000D01*
X149150000Y-76845000D02*
X148730000Y-76425000D01*
X149150000Y-79900000D02*
X148850000Y-79600000D01*
X149150000Y-80600000D02*
X149150000Y-79900000D01*
X143300000Y-86450000D02*
X149150000Y-80600000D01*
X143300000Y-91800000D02*
X143300000Y-86450000D01*
X148409960Y-78949760D02*
X148409960Y-78109960D01*
X147450000Y-75165000D02*
X148730000Y-73885000D01*
X147450000Y-77150000D02*
X147450000Y-75165000D01*
X148409960Y-78109960D02*
X147450000Y-77150000D01*
X147950240Y-78949760D02*
X148409960Y-78949760D01*
X147700000Y-79200000D02*
X147950240Y-78949760D01*
X147700000Y-81400000D02*
X147700000Y-79200000D01*
X142850000Y-86250000D02*
X147700000Y-81400000D01*
X142850000Y-91350000D02*
X142850000Y-86250000D01*
X142650000Y-91550000D02*
X142850000Y-91350000D01*
X142650000Y-92150000D02*
X142650000Y-91550000D01*
X143100000Y-92600000D02*
X142650000Y-92150000D01*
X158999760Y-78949760D02*
X158569960Y-78949760D01*
X159300000Y-79250000D02*
X158999760Y-78949760D01*
X159300000Y-80600000D02*
X159300000Y-79250000D01*
X157300000Y-82600000D02*
X159300000Y-80600000D01*
X157300000Y-88950000D02*
X157300000Y-82600000D01*
X158550000Y-90200000D02*
X157300000Y-88950000D01*
X158550000Y-92150000D02*
X158550000Y-90200000D01*
X157450000Y-93250000D02*
X158550000Y-92150000D01*
X158569960Y-78949760D02*
X158569960Y-78780040D01*
X158569960Y-78780040D02*
X160200000Y-77150000D01*
X160200000Y-77150000D02*
X160200000Y-75195000D01*
X160200000Y-75195000D02*
X158890000Y-73885000D01*
X157300000Y-92450000D02*
X157300000Y-92400000D01*
X157850000Y-79900000D02*
X158150000Y-79600000D01*
X157850000Y-80800000D02*
X157850000Y-79900000D01*
X156850000Y-81800000D02*
X157850000Y-80800000D01*
X156850000Y-89150000D02*
X156850000Y-81800000D01*
X158100000Y-90400000D02*
X156850000Y-89150000D01*
X158100000Y-91600000D02*
X158100000Y-90400000D01*
X157300000Y-92400000D02*
X158100000Y-91600000D01*
X158150000Y-79600000D02*
X158569960Y-79600000D01*
X158569960Y-79600000D02*
X158150000Y-79600000D01*
X158890000Y-77560000D02*
X158890000Y-76425000D01*
X157850000Y-78600000D02*
X158890000Y-77560000D01*
X157850000Y-79300000D02*
X157850000Y-78600000D01*
X158150000Y-79600000D02*
X157850000Y-79300000D01*
X157150000Y-91650000D02*
X157150000Y-91550000D01*
X157400000Y-79900000D02*
X157100000Y-79600000D01*
X157400000Y-80600000D02*
X157400000Y-79900000D01*
X156400000Y-81600000D02*
X157400000Y-80600000D01*
X156400000Y-89350000D02*
X156400000Y-81600000D01*
X157650000Y-90600000D02*
X156400000Y-89350000D01*
X157650000Y-91050000D02*
X157650000Y-90600000D01*
X157150000Y-91550000D02*
X157650000Y-91050000D01*
X157100000Y-79600000D02*
X156670040Y-79600000D01*
X156670040Y-79600000D02*
X157100000Y-79600000D01*
X157600000Y-75135000D02*
X156350000Y-73885000D01*
X157600000Y-77150000D02*
X157600000Y-75135000D01*
X157400000Y-77350000D02*
X157600000Y-77150000D01*
X157400000Y-79300000D02*
X157400000Y-77350000D01*
X157100000Y-79600000D02*
X157400000Y-79300000D01*
X157000000Y-90850000D02*
X155950000Y-89800000D01*
X155950000Y-80550480D02*
X156250240Y-80250240D01*
X155950000Y-89800000D02*
X155950000Y-80550480D01*
X156250240Y-80250240D02*
X156670040Y-80250240D01*
X156670040Y-80250240D02*
X156250240Y-80250240D01*
X156250240Y-80250240D02*
X155950000Y-79950000D01*
X156350000Y-78200000D02*
X156350000Y-76425000D01*
X155950000Y-78600000D02*
X156350000Y-78200000D01*
X155950000Y-79950000D02*
X155950000Y-78600000D01*
X153489960Y-78949760D02*
X155100000Y-77339720D01*
X155100000Y-75175000D02*
X153810000Y-73885000D01*
X155100000Y-77339720D02*
X155100000Y-75175000D01*
X153949760Y-78949760D02*
X153489960Y-78949760D01*
X154200000Y-79200000D02*
X153949760Y-78949760D01*
X154200000Y-80700000D02*
X154200000Y-79200000D01*
X154850000Y-81350000D02*
X154200000Y-80700000D01*
X153489960Y-79600000D02*
X153100000Y-79600000D01*
X153810000Y-77590000D02*
X153810000Y-76425000D01*
X152750000Y-78650000D02*
X153810000Y-77590000D01*
X152750000Y-79250000D02*
X152750000Y-78650000D01*
X153100000Y-79600000D02*
X152750000Y-79250000D01*
X153050000Y-79600000D02*
X153489960Y-79600000D01*
X152750000Y-79900000D02*
X153050000Y-79600000D01*
X152750000Y-80700000D02*
X152750000Y-79900000D01*
X154300000Y-82250000D02*
X152750000Y-80700000D01*
X154850000Y-82250000D02*
X154300000Y-82250000D01*
X151590040Y-79600000D02*
X152000000Y-79600000D01*
X152000000Y-79600000D02*
X152300000Y-79300000D01*
X152550000Y-75165000D02*
X151270000Y-73885000D01*
X152550000Y-77100000D02*
X152550000Y-75165000D01*
X152300000Y-77350000D02*
X152550000Y-77100000D01*
X152300000Y-79300000D02*
X152300000Y-77350000D01*
X152300000Y-80100000D02*
X152300000Y-79900000D01*
X154700000Y-83050000D02*
X154450000Y-83050000D01*
X154450000Y-83050000D02*
X152300000Y-80900000D01*
X152300000Y-80900000D02*
X152300000Y-80100000D01*
X152300000Y-79900000D02*
X152000000Y-79600000D01*
X151590040Y-80250240D02*
X151150240Y-80250240D01*
X151270000Y-78180000D02*
X151270000Y-76425000D01*
X150850000Y-78600000D02*
X151270000Y-78180000D01*
X150850000Y-79950000D02*
X150850000Y-78600000D01*
X151150240Y-80250240D02*
X150850000Y-79950000D01*
X151590040Y-80840040D02*
X151590040Y-80250240D01*
X154700000Y-83950000D02*
X151590040Y-80840040D01*
X174749760Y-96430040D02*
X174749760Y-96849760D01*
X177490000Y-96110000D02*
X178575000Y-96110000D01*
X176450000Y-97150000D02*
X177490000Y-96110000D01*
X175050000Y-97150000D02*
X176450000Y-97150000D01*
X174749760Y-96849760D02*
X175050000Y-97150000D01*
X173419960Y-96430040D02*
X174749760Y-96430040D01*
X172900000Y-96950000D02*
X173419960Y-96430040D01*
X175400000Y-96430040D02*
X175400000Y-95950000D01*
X179855000Y-94850000D02*
X181115000Y-96110000D01*
X176500000Y-94850000D02*
X179855000Y-94850000D01*
X175400000Y-95950000D02*
X176500000Y-94850000D01*
X175400000Y-96000000D02*
X175400000Y-96430040D01*
X175100000Y-95700000D02*
X175400000Y-96000000D01*
X173250000Y-95700000D02*
X175100000Y-95700000D01*
X172000000Y-96950000D02*
X173250000Y-95700000D01*
X175400000Y-98329960D02*
X175400000Y-98750000D01*
X175400000Y-98750000D02*
X175700000Y-99050000D01*
X175700000Y-99050000D02*
X178175000Y-99050000D01*
X178175000Y-99050000D02*
X178575000Y-98650000D01*
X175100000Y-99050000D02*
X175400000Y-98750000D01*
X172150000Y-99050000D02*
X175100000Y-99050000D01*
X171350000Y-98250000D02*
X172150000Y-99050000D01*
X176050240Y-98329960D02*
X176920040Y-98329960D01*
X179865000Y-97400000D02*
X181115000Y-98650000D01*
X177850000Y-97400000D02*
X179865000Y-97400000D01*
X176920040Y-98329960D02*
X177850000Y-97400000D01*
X176050240Y-97900240D02*
X176050240Y-98329960D01*
X175750000Y-97600000D02*
X176050240Y-97900240D01*
X171500000Y-97600000D02*
X175750000Y-97600000D01*
X171350000Y-97450000D02*
X171500000Y-97600000D01*
X174749760Y-101510040D02*
X174749760Y-101949760D01*
X177460000Y-101190000D02*
X178575000Y-101190000D01*
X176400000Y-102250000D02*
X177460000Y-101190000D01*
X175050000Y-102250000D02*
X176400000Y-102250000D01*
X174749760Y-101949760D02*
X175050000Y-102250000D01*
X164350000Y-97400000D02*
X168950000Y-97400000D01*
X164150000Y-97200000D02*
X164350000Y-97400000D01*
X168950000Y-97400000D02*
X173060040Y-101510040D01*
X173060040Y-101510040D02*
X174749760Y-101510040D01*
X175400000Y-101510040D02*
X175400000Y-101100000D01*
X179825000Y-99900000D02*
X181115000Y-101190000D01*
X176600000Y-99900000D02*
X179825000Y-99900000D01*
X175400000Y-101100000D02*
X176600000Y-99900000D01*
X175400000Y-101050000D02*
X175400000Y-101510040D01*
X175150000Y-100800000D02*
X175400000Y-101050000D01*
X173000000Y-100800000D02*
X175150000Y-100800000D01*
X169150000Y-96950000D02*
X173000000Y-100800000D01*
X164850000Y-96950000D02*
X169150000Y-96950000D01*
X164450000Y-96550000D02*
X164850000Y-96950000D01*
X163800000Y-96550000D02*
X164450000Y-96550000D01*
X163350000Y-97000000D02*
X163800000Y-96550000D01*
X175400000Y-103409960D02*
X175400000Y-103850000D01*
X175400000Y-103850000D02*
X175700000Y-104150000D01*
X175700000Y-104150000D02*
X178155000Y-104150000D01*
X178155000Y-104150000D02*
X178575000Y-103730000D01*
X175100000Y-104150000D02*
X175400000Y-103850000D01*
X174400000Y-104150000D02*
X175100000Y-104150000D01*
X168550000Y-98300000D02*
X174400000Y-104150000D01*
X163200000Y-98300000D02*
X168550000Y-98300000D01*
X176050240Y-103409960D02*
X176890040Y-103409960D01*
X179835000Y-102450000D02*
X181115000Y-103730000D01*
X177850000Y-102450000D02*
X179835000Y-102450000D01*
X176890040Y-103409960D02*
X177850000Y-102450000D01*
X176050240Y-103000240D02*
X176050240Y-103409960D01*
X175750000Y-102700000D02*
X176050240Y-103000240D01*
X173600000Y-102700000D02*
X175750000Y-102700000D01*
X168750000Y-97850000D02*
X173600000Y-102700000D01*
X163650000Y-97850000D02*
X168750000Y-97850000D01*
X163450000Y-97650000D02*
X163650000Y-97850000D01*
X162750000Y-97650000D02*
X163450000Y-97650000D01*
X162550000Y-97850000D02*
X162750000Y-97650000D01*
X176050240Y-113999760D02*
X176050240Y-113569960D01*
X175750000Y-114300000D02*
X176050240Y-113999760D01*
X174400000Y-114300000D02*
X175750000Y-114300000D01*
X172400000Y-112300000D02*
X174400000Y-114300000D01*
X166050000Y-112300000D02*
X172400000Y-112300000D01*
X164800000Y-113550000D02*
X166050000Y-112300000D01*
X162850000Y-113550000D02*
X164800000Y-113550000D01*
X161750000Y-112450000D02*
X162850000Y-113550000D01*
X176050240Y-113569960D02*
X176269960Y-113569960D01*
X179855000Y-115150000D02*
X181115000Y-113890000D01*
X177850000Y-115150000D02*
X179855000Y-115150000D01*
X176269960Y-113569960D02*
X177850000Y-115150000D01*
X175100000Y-112850000D02*
X175400000Y-113150000D01*
X174200000Y-112850000D02*
X175100000Y-112850000D01*
X173200000Y-111850000D02*
X174200000Y-112850000D01*
X165850000Y-111850000D02*
X173200000Y-111850000D01*
X164600000Y-113100000D02*
X165850000Y-111850000D01*
X163350000Y-113100000D02*
X164600000Y-113100000D01*
X162550000Y-112300000D02*
X163350000Y-113100000D01*
X175400000Y-113150000D02*
X175400000Y-113569960D01*
X175400000Y-113569960D02*
X175400000Y-113150000D01*
X177490000Y-113890000D02*
X178575000Y-113890000D01*
X176450000Y-112850000D02*
X177490000Y-113890000D01*
X175700000Y-112850000D02*
X176450000Y-112850000D01*
X175400000Y-113150000D02*
X175700000Y-112850000D01*
X175100000Y-112400000D02*
X175400000Y-112100000D01*
X174400000Y-112400000D02*
X175100000Y-112400000D01*
X173400000Y-111400000D02*
X174400000Y-112400000D01*
X165650000Y-111400000D02*
X173400000Y-111400000D01*
X164400000Y-112650000D02*
X165650000Y-111400000D01*
X163850000Y-112650000D02*
X164400000Y-112650000D01*
X163350000Y-112150000D02*
X163850000Y-112650000D01*
X175400000Y-112100000D02*
X175400000Y-111670040D01*
X175400000Y-111670040D02*
X175400000Y-112100000D01*
X179815000Y-112650000D02*
X181115000Y-111350000D01*
X177850000Y-112650000D02*
X179815000Y-112650000D01*
X177600000Y-112400000D02*
X177850000Y-112650000D01*
X175700000Y-112400000D02*
X177600000Y-112400000D01*
X175400000Y-112100000D02*
X175700000Y-112400000D01*
X174449520Y-110950000D02*
X174749760Y-111250240D01*
X165200000Y-110950000D02*
X174449520Y-110950000D01*
X164150000Y-112000000D02*
X165200000Y-110950000D01*
X174749760Y-111250240D02*
X174749760Y-111670040D01*
X174749760Y-111670040D02*
X174749760Y-111250240D01*
X176800000Y-111350000D02*
X178575000Y-111350000D01*
X176400000Y-110950000D02*
X176800000Y-111350000D01*
X175050000Y-110950000D02*
X176400000Y-110950000D01*
X174749760Y-111250240D02*
X175050000Y-110950000D01*
X176050240Y-108489960D02*
X176239960Y-108489960D01*
X176239960Y-108489960D02*
X177850000Y-110100000D01*
X179825000Y-110100000D02*
X181115000Y-108810000D01*
X177850000Y-110100000D02*
X179825000Y-110100000D01*
X176050240Y-108949760D02*
X176050240Y-108489960D01*
X175800000Y-109200000D02*
X176050240Y-108949760D01*
X174050000Y-109200000D02*
X175800000Y-109200000D01*
X173350000Y-109900000D02*
X174050000Y-109200000D01*
X175400000Y-108489960D02*
X175400000Y-108050000D01*
X177460000Y-108810000D02*
X178575000Y-108810000D01*
X176400000Y-107750000D02*
X177460000Y-108810000D01*
X175700000Y-107750000D02*
X176400000Y-107750000D01*
X175400000Y-108050000D02*
X175700000Y-107750000D01*
X175400000Y-108100000D02*
X175400000Y-108489960D01*
X175100000Y-107800000D02*
X175400000Y-108100000D01*
X174350000Y-107800000D02*
X175100000Y-107800000D01*
X174200000Y-107950000D02*
X174350000Y-107800000D01*
X174200000Y-108150000D02*
X174200000Y-107950000D01*
X172450000Y-109900000D02*
X174200000Y-108150000D01*
X175400000Y-106590040D02*
X175400000Y-107000000D01*
X175400000Y-107000000D02*
X175700000Y-107300000D01*
X179835000Y-107550000D02*
X181115000Y-106270000D01*
X177850000Y-107550000D02*
X179835000Y-107550000D01*
X177600000Y-107300000D02*
X177850000Y-107550000D01*
X175700000Y-107300000D02*
X177600000Y-107300000D01*
X175100000Y-107300000D02*
X175400000Y-107000000D01*
X174050000Y-107300000D02*
X175100000Y-107300000D01*
X171650000Y-109700000D02*
X174050000Y-107300000D01*
X174749760Y-106590040D02*
X174749760Y-106150240D01*
X176820000Y-106270000D02*
X178575000Y-106270000D01*
X176400000Y-105850000D02*
X176820000Y-106270000D01*
X175050000Y-105850000D02*
X176400000Y-105850000D01*
X174749760Y-106150240D02*
X175050000Y-105850000D01*
X173750000Y-106650000D02*
X174689800Y-106650000D01*
X170700000Y-109700000D02*
X173750000Y-106650000D01*
X174689800Y-106650000D02*
X174749760Y-106590040D01*
X162772941Y-118670966D02*
X161801975Y-117700000D01*
X160932233Y-117700000D02*
X156682159Y-113449926D01*
X161801975Y-117700000D02*
X160932233Y-117700000D01*
X161874915Y-119568992D02*
X162545923Y-120240000D01*
X161004339Y-117065000D02*
X157035712Y-113096373D01*
X161430000Y-117065000D02*
X161004339Y-117065000D01*
X162065000Y-117065000D02*
X161430000Y-117065000D01*
X162700000Y-117700000D02*
X162065000Y-117065000D01*
X163970000Y-118970000D02*
X162700000Y-117700000D01*
X163970000Y-119605000D02*
X163970000Y-118970000D01*
X163335000Y-120240000D02*
X163970000Y-119605000D01*
X162545923Y-120240000D02*
X163335000Y-120240000D01*
X163670966Y-117772941D02*
X162328025Y-116430000D01*
X161076447Y-116430000D02*
X157389266Y-112742819D01*
X162328025Y-116430000D02*
X161076447Y-116430000D01*
X164568992Y-116874915D02*
X163489077Y-115795000D01*
X161148553Y-115795000D02*
X157742819Y-112389266D01*
X163489077Y-115795000D02*
X161148553Y-115795000D01*
X164568992Y-116874915D02*
X164124077Y-116430000D01*
X136246773Y-106378858D02*
X135220540Y-107405091D01*
X135220540Y-107405091D02*
X134894909Y-107405091D01*
X133345043Y-82058864D02*
X134125000Y-82838821D01*
X129680000Y-87855000D02*
X128364872Y-87855000D01*
X134125000Y-83410000D02*
X129680000Y-87855000D01*
X134125000Y-82838821D02*
X134125000Y-83410000D01*
X128364872Y-87855000D02*
X127956889Y-87447017D01*
X131040256Y-76969744D02*
X131585000Y-77514488D01*
X131585000Y-77514488D02*
X131585000Y-80298821D01*
X131585000Y-80298821D02*
X133345043Y-82058864D01*
X126258909Y-86831091D02*
X126505000Y-86585000D01*
X127094872Y-86585000D02*
X127956889Y-87447017D01*
X126505000Y-86585000D02*
X127094872Y-86585000D01*
X127775000Y-128495000D02*
X127140000Y-129130000D01*
X131658503Y-133575000D02*
X132113934Y-133119569D01*
X129680000Y-133575000D02*
X131658503Y-133575000D01*
X129045000Y-132940000D02*
X129680000Y-133575000D01*
X127140000Y-131035000D02*
X129045000Y-132940000D01*
X127140000Y-129130000D02*
X127140000Y-131035000D01*
X122060000Y-85950000D02*
X123330000Y-87220000D01*
X125092182Y-87220000D02*
X125481091Y-87608909D01*
X123330000Y-87220000D02*
X125092182Y-87220000D01*
X125481091Y-87608909D02*
X125727182Y-87855000D01*
X125727182Y-87855000D02*
X126568821Y-87855000D01*
X126568821Y-87855000D02*
X127058864Y-88345043D01*
X132997817Y-130892183D02*
X134125000Y-129765000D01*
X131094213Y-125320000D02*
X130378730Y-126035483D01*
X131585000Y-125320000D02*
X131094213Y-125320000D01*
X134125000Y-127860000D02*
X131585000Y-125320000D01*
X134125000Y-129765000D02*
X134125000Y-127860000D01*
X132997817Y-130892183D02*
X131442183Y-132447817D01*
X128964517Y-124621270D02*
X130378730Y-126035483D01*
X128265787Y-125320000D02*
X128964517Y-124621270D01*
X127775000Y-125320000D02*
X128265787Y-125320000D01*
X126505000Y-126590000D02*
X127775000Y-125320000D01*
X125870000Y-126590000D02*
X126505000Y-126590000D01*
X166654957Y-127941136D02*
X165875000Y-127161179D01*
X170320000Y-122145000D02*
X171635128Y-122145000D01*
X165875000Y-126590000D02*
X170320000Y-122145000D01*
X165875000Y-127161179D02*
X165875000Y-126590000D01*
X171635128Y-122145000D02*
X172043111Y-122552983D01*
X168959744Y-133030256D02*
X168415000Y-132485512D01*
X168415000Y-132485512D02*
X168415000Y-129701179D01*
X168415000Y-129701179D02*
X166654957Y-127941136D01*
X173741091Y-123168909D02*
X173495000Y-123415000D01*
X172905128Y-123415000D02*
X172043111Y-122552983D01*
X173495000Y-123415000D02*
X172905128Y-123415000D01*
X177940000Y-124050000D02*
X177305000Y-123415000D01*
X177305000Y-123415000D02*
X175542818Y-123415000D01*
X175542818Y-123415000D02*
X174518909Y-122391091D01*
X172941136Y-121654957D02*
X173431179Y-122145000D01*
X173431179Y-122145000D02*
X174272818Y-122145000D01*
X174272818Y-122145000D02*
X174518909Y-122391091D01*
X133669569Y-131563934D02*
X134760000Y-130473503D01*
X134760000Y-130473503D02*
X134760000Y-127860000D01*
X131792944Y-129687309D02*
X131792944Y-127449697D01*
X132220000Y-127022641D02*
X131792944Y-127449697D01*
X134760000Y-127860000D02*
X129680000Y-122780000D01*
X129680000Y-122780000D02*
X127977359Y-122780000D01*
X127977359Y-122780000D02*
X127550303Y-123207056D01*
X132326066Y-130220431D02*
X131792944Y-129687309D01*
X127550303Y-123207056D02*
X127977359Y-122780000D01*
X134904485Y-115570303D02*
X135187056Y-115570303D01*
X123856051Y-84153949D02*
X124382102Y-84680000D01*
X124382102Y-84680000D02*
X126985923Y-84680000D01*
X126985923Y-84680000D02*
X128854915Y-86548992D01*
X125652102Y-82357898D02*
X126069204Y-82775000D01*
X126069204Y-82775000D02*
X126876975Y-82775000D01*
X126876975Y-82775000D02*
X129752941Y-85650966D01*
X127448154Y-80561846D02*
X127775000Y-80888692D01*
X127775000Y-80888692D02*
X127775000Y-81876975D01*
X127775000Y-81876975D02*
X130650966Y-84752941D01*
X129244205Y-78765795D02*
X129680000Y-79201590D01*
X129680000Y-79201590D02*
X129680000Y-81985923D01*
X129680000Y-81985923D02*
X131548992Y-83854915D01*
X176143949Y-125846051D02*
X175617898Y-125320000D01*
X175617898Y-125320000D02*
X173014077Y-125320000D01*
X173014077Y-125320000D02*
X171145085Y-123451008D01*
X174347898Y-127642102D02*
X173930796Y-127225000D01*
X173930796Y-127225000D02*
X173123025Y-127225000D01*
X173123025Y-127225000D02*
X170247059Y-124349034D01*
X172551846Y-129438154D02*
X172225000Y-129111308D01*
X172225000Y-129111308D02*
X172225000Y-128123025D01*
X172225000Y-128123025D02*
X169349034Y-125247059D01*
X170755795Y-131234205D02*
X170320000Y-130798410D01*
X170320000Y-130798410D02*
X170320000Y-128014077D01*
X170320000Y-128014077D02*
X168451008Y-126145085D01*
M02*
