M48
;DRILL file {KiCad 4.0.6-e0-6349~53~ubuntu14.04.1} date Tue Mar 21 08:09:51 2017
;FORMAT={-:-/ absolute / metric / decimal}
FMAT,2
METRIC,TZ
T1C0.400
T2C0.500
T3C0.550
T4C1.016
%
G90
G05
M71
T1
X125.87Y-126.59
X126.Y-104.
X126.85Y-100.1
X127.1Y-113.05
X127.65Y-100.15
X127.775Y-128.495
X128.Y-113.05
X128.45Y-100.3
X128.65Y-111.75
X128.65Y-112.55
X129.3Y-100.3
X134.5Y-91.
X135.85Y-98.
X135.85Y-112.7
X136.25Y-95.8
X136.65Y-97.85
X136.65Y-112.9
X136.8Y-111.6
X137.45Y-97.7
X137.55Y-96.
X137.55Y-112.7
X137.6Y-111.7
X138.Y-94.
X138.25Y-97.6
X140.8Y-118.75
X141.2Y-117.15
X141.95Y-82.1
X141.95Y-83.
X142.Y-91.7
X142.1Y-92.55
X142.2Y-90.9
X142.4Y-83.7
X142.55Y-116.75
X142.7Y-117.55
X142.85Y-118.35
X143.Y-119.15
X143.1Y-92.6
X143.15Y-108.75
X143.15Y-109.65
X143.25Y-83.65
X143.3Y-91.8
X145.Y-105.5
X145.Y-106.5
X145.1Y-128.25
X145.15Y-127.35
X145.3Y-125.65
X145.3Y-126.55
X145.45Y-98.
X145.6Y-110.3
X145.8Y-99.45
X145.8Y-100.35
X146.3Y-98.05
X146.825Y-102.46
X147.25Y-111.05
X148.5Y-100.
X149.Y-129.
X149.5Y-100.
X150.5Y-110.
X151.Y-81.
X151.5Y-110.
X153.Y-107.5
X153.55Y-112.
X154.45Y-112.
X154.5Y-96.5
X154.7Y-83.05
X154.7Y-83.95
X154.85Y-81.35
X154.85Y-82.25
X155.Y-103.5
X155.Y-104.5
X155.1Y-108.5
X155.95Y-108.55
X156.45Y-100.05
X156.65Y-118.2
X156.8Y-126.3
X156.85Y-117.4
X157.Y-90.85
X157.Y-100.7
X157.1Y-101.5
X157.15Y-91.65
X157.3Y-92.45
X157.45Y-93.25
X157.5Y-99.5
X157.6Y-126.3
X157.75Y-119.15
X157.95Y-117.45
X157.95Y-118.35
X158.Y-101.5
X158.1Y-126.95
X158.1Y-127.85
X159.05Y-92.6
X159.05Y-119.65
X159.2Y-91.25
X160.Y-94.
X161.5Y-115.
X161.75Y-112.45
X162.4Y-114.
X162.5Y-97.
X162.55Y-97.85
X162.55Y-112.3
X163.2Y-98.3
X163.35Y-97.
X163.35Y-112.15
X163.75Y-114.2
X164.15Y-97.2
X164.15Y-112.
X165.Y-118.5
X166.5Y-92.
X170.7Y-109.7
X171.35Y-97.45
X171.35Y-98.25
X171.65Y-109.7
X172.Y-96.95
X172.45Y-109.9
X172.9Y-96.95
X173.35Y-109.9
X174.Y-106.
T4
X118.885Y-93.57
X118.885Y-96.11
X118.885Y-98.65
X118.885Y-101.19
X118.885Y-103.73
X118.885Y-106.27
X118.885Y-108.81
X118.885Y-111.35
X118.885Y-113.89
X118.885Y-116.43
X121.425Y-93.57
X121.425Y-96.11
X121.425Y-98.65
X121.425Y-101.19
X121.425Y-103.73
X121.425Y-106.27
X121.425Y-108.81
X121.425Y-111.35
X121.425Y-113.89
X121.425Y-116.43
X122.06Y-85.95
X123.856Y-84.154
X125.652Y-82.358
X127.448Y-80.562
X129.244Y-78.766
X131.04Y-76.97
X138.57Y-73.885
X138.57Y-76.425
X138.57Y-133.575
X138.57Y-136.115
X141.11Y-73.885
X141.11Y-76.425
X141.11Y-133.575
X141.11Y-136.115
X143.65Y-73.885
X143.65Y-76.425
X143.65Y-133.575
X143.65Y-136.115
X146.19Y-73.885
X146.19Y-76.425
X146.19Y-133.575
X146.19Y-136.115
X148.73Y-73.885
X148.73Y-76.425
X148.73Y-133.575
X148.73Y-136.115
X151.27Y-73.885
X151.27Y-76.425
X151.27Y-133.575
X151.27Y-136.115
X153.81Y-73.885
X153.81Y-76.425
X153.81Y-133.575
X153.81Y-136.115
X156.35Y-73.885
X156.35Y-76.425
X156.35Y-133.575
X156.35Y-136.115
X158.89Y-73.885
X158.89Y-76.425
X158.89Y-133.575
X158.89Y-136.115
X161.43Y-73.885
X161.43Y-76.425
X161.43Y-133.575
X161.43Y-136.115
X168.96Y-133.03
X170.756Y-131.234
X172.552Y-129.438
X174.348Y-127.642
X176.144Y-125.846
X177.94Y-124.05
X178.575Y-93.57
X178.575Y-96.11
X178.575Y-98.65
X178.575Y-101.19
X178.575Y-103.73
X178.575Y-106.27
X178.575Y-108.81
X178.575Y-111.35
X178.575Y-113.89
X178.575Y-116.43
X181.115Y-93.57
X181.115Y-96.11
X181.115Y-98.65
X181.115Y-101.19
X181.115Y-103.73
X181.115Y-106.27
X181.115Y-108.81
X181.115Y-111.35
X181.115Y-113.89
X181.115Y-116.43
T2
X123.63Y-126.419G85X124.09Y-125.959
G05
X128.58Y-131.368G85X129.04Y-130.909
G05
T3
X126.37Y-124.881G85X126.583Y-125.093
G05
X129.906Y-128.416G85X130.118Y-128.628
G05
T0
M30
