G04 #@! TF.FileFunction,Soldermask,Top*
%FSLAX46Y46*%
G04 Gerber Fmt 4.6, Leading zero omitted, Abs format (unit mm)*
G04 Created by KiCad (PCBNEW 4.0.6-e0-6349~53~ubuntu14.04.1) date Wed Mar 22 00:16:22 2017*
%MOMM*%
%LPD*%
G01*
G04 APERTURE LIST*
%ADD10C,0.100000*%
%ADD11C,1.300000*%
%ADD12C,2.127200*%
%ADD13R,1.750000X1.750000*%
%ADD14C,1.750000*%
%ADD15R,1.000000X0.900000*%
%ADD16R,1.100000X0.700000*%
%ADD17R,1.400000X1.200000*%
%ADD18R,1.160000X1.650000*%
%ADD19R,1.160000X2.000000*%
%ADD20R,2.432000X2.432000*%
%ADD21O,2.432000X2.432000*%
%ADD22R,0.800000X1.000000*%
%ADD23R,1.300000X2.100000*%
%ADD24C,1.200000*%
%ADD25R,0.798780X1.149300*%
%ADD26R,2.000200X2.800300*%
%ADD27R,2.127200X2.127200*%
%ADD28O,2.127200X2.127200*%
%ADD29R,1.250000X0.700000*%
%ADD30R,0.700000X1.250000*%
%ADD31R,2.237500X2.237500*%
%ADD32R,0.900000X1.000000*%
%ADD33R,2.500000X2.100000*%
%ADD34C,1.350000*%
%ADD35C,1.950000*%
G04 APERTURE END LIST*
D10*
D11*
X71294005Y54172685D03*
X69172685Y56294005D03*
D10*
G36*
X71640488Y52680690D02*
X70296985Y51337187D01*
X69519168Y52115004D01*
X70862671Y53458507D01*
X71640488Y52680690D01*
X71640488Y52680690D01*
G37*
G36*
X69519167Y54802010D02*
X68175664Y53458507D01*
X67397847Y54236324D01*
X68741350Y55579827D01*
X69519167Y54802010D01*
X69519167Y54802010D01*
G37*
G36*
X68458507Y55862671D02*
X67115004Y54519168D01*
X66337187Y55296985D01*
X67680690Y56640488D01*
X68458507Y55862671D01*
X68458507Y55862671D01*
G37*
G36*
X74511341Y53359512D02*
X73662813Y52510984D01*
X72672863Y53500934D01*
X73521391Y54349462D01*
X74511341Y53359512D01*
X74511341Y53359512D01*
G37*
G36*
X69349462Y58521391D02*
X68500934Y57672863D01*
X67510984Y58662813D01*
X68359512Y59511341D01*
X69349462Y58521391D01*
X69349462Y58521391D01*
G37*
G36*
X67786756Y56958685D02*
X66938228Y56110157D01*
X65948278Y57100107D01*
X66796806Y57948635D01*
X67786756Y56958685D01*
X67786756Y56958685D01*
G37*
G36*
X72948635Y51796806D02*
X72100107Y50948278D01*
X71110157Y51938228D01*
X71958685Y52786756D01*
X72948635Y51796806D01*
X72948635Y51796806D01*
G37*
G36*
X63888079Y31392237D02*
X65607763Y33111921D01*
X67111921Y31607763D01*
X65392237Y29888079D01*
X63888079Y31392237D01*
X63888079Y31392237D01*
G37*
D12*
X67403814Y29811712D02*
X67188288Y29596186D01*
X69199865Y28015661D02*
X68984339Y27800135D01*
D10*
G36*
X-48325736Y62060660D02*
X-47689340Y61424264D01*
X-48396446Y60717158D01*
X-49032842Y61353554D01*
X-48325736Y62060660D01*
X-48325736Y62060660D01*
G37*
G36*
X-49103554Y61282842D02*
X-48467158Y60646446D01*
X-49174264Y59939340D01*
X-49810660Y60575736D01*
X-49103554Y61282842D01*
X-49103554Y61282842D01*
G37*
G36*
X-45524264Y62839340D02*
X-46160660Y63475736D01*
X-45453554Y64182842D01*
X-44817158Y63546446D01*
X-45524264Y62839340D01*
X-45524264Y62839340D01*
G37*
G36*
X-44746446Y63617158D02*
X-45382842Y64253554D01*
X-44675736Y64960660D01*
X-44039340Y64324264D01*
X-44746446Y63617158D01*
X-44746446Y63617158D01*
G37*
G36*
X-42894526Y59306515D02*
X-43636988Y60048977D01*
X-42604612Y61081353D01*
X-41862150Y60338891D01*
X-42894526Y59306515D01*
X-42894526Y59306515D01*
G37*
G36*
X-42222774Y58634764D02*
X-42965236Y59377226D01*
X-41932860Y60409602D01*
X-41190398Y59667140D01*
X-42222774Y58634764D01*
X-42222774Y58634764D01*
G37*
G36*
X-41551023Y57963012D02*
X-42293485Y58705474D01*
X-41261109Y59737850D01*
X-40518647Y58995388D01*
X-41551023Y57963012D01*
X-41551023Y57963012D01*
G37*
G36*
X-39995388Y59518647D02*
X-40737850Y60261109D01*
X-39705474Y61293485D01*
X-38963012Y60551023D01*
X-39995388Y59518647D01*
X-39995388Y59518647D01*
G37*
G36*
X-41338891Y60862150D02*
X-42081353Y61604612D01*
X-41048977Y62636988D01*
X-40306515Y61894526D01*
X-41338891Y60862150D01*
X-41338891Y60862150D01*
G37*
G36*
X-55747487Y-47354594D02*
X-56454594Y-46647487D01*
X-55888909Y-46081802D01*
X-55181802Y-46788909D01*
X-55747487Y-47354594D01*
X-55747487Y-47354594D01*
G37*
G36*
X-55111091Y-46718198D02*
X-55818198Y-46011091D01*
X-55252513Y-45445406D01*
X-54545406Y-46152513D01*
X-55111091Y-46718198D01*
X-55111091Y-46718198D01*
G37*
D11*
X-64005995Y-40877315D03*
X-66127315Y-38755995D03*
D10*
G36*
X-63659512Y-42369310D02*
X-65003015Y-43712813D01*
X-65780832Y-42934996D01*
X-64437329Y-41591493D01*
X-63659512Y-42369310D01*
X-63659512Y-42369310D01*
G37*
G36*
X-65780833Y-40247990D02*
X-67124336Y-41591493D01*
X-67902153Y-40813676D01*
X-66558650Y-39470173D01*
X-65780833Y-40247990D01*
X-65780833Y-40247990D01*
G37*
G36*
X-66841493Y-39187329D02*
X-68184996Y-40530832D01*
X-68962813Y-39753015D01*
X-67619310Y-38409512D01*
X-66841493Y-39187329D01*
X-66841493Y-39187329D01*
G37*
G36*
X-60788659Y-41690488D02*
X-61637187Y-42539016D01*
X-62627137Y-41549066D01*
X-61778609Y-40700538D01*
X-60788659Y-41690488D01*
X-60788659Y-41690488D01*
G37*
G36*
X-65950538Y-36528609D02*
X-66799066Y-37377137D01*
X-67789016Y-36387187D01*
X-66940488Y-35538659D01*
X-65950538Y-36528609D01*
X-65950538Y-36528609D01*
G37*
G36*
X-67513244Y-38091315D02*
X-68361772Y-38939843D01*
X-69351722Y-37949893D01*
X-68503194Y-37101365D01*
X-67513244Y-38091315D01*
X-67513244Y-38091315D01*
G37*
G36*
X-62351365Y-43253194D02*
X-63199893Y-44101722D01*
X-64189843Y-43111772D01*
X-63341315Y-42263244D01*
X-62351365Y-43253194D01*
X-62351365Y-43253194D01*
G37*
G36*
X-58474264Y-44010660D02*
X-59110660Y-43374264D01*
X-58403554Y-42667158D01*
X-57767158Y-43303554D01*
X-58474264Y-44010660D01*
X-58474264Y-44010660D01*
G37*
G36*
X-57696446Y-43232842D02*
X-58332842Y-42596446D01*
X-57625736Y-41889340D01*
X-56989340Y-42525736D01*
X-57696446Y-43232842D01*
X-57696446Y-43232842D01*
G37*
G36*
X-52774264Y-45410660D02*
X-53410660Y-44774264D01*
X-52703554Y-44067158D01*
X-52067158Y-44703554D01*
X-52774264Y-45410660D01*
X-52774264Y-45410660D01*
G37*
G36*
X-51996446Y-44632842D02*
X-52632842Y-43996446D01*
X-51925736Y-43289340D01*
X-51289340Y-43925736D01*
X-51996446Y-44632842D01*
X-51996446Y-44632842D01*
G37*
G36*
X-62524264Y-47710660D02*
X-63160660Y-47074264D01*
X-62453554Y-46367158D01*
X-61817158Y-47003554D01*
X-62524264Y-47710660D01*
X-62524264Y-47710660D01*
G37*
G36*
X-61746446Y-46932842D02*
X-62382842Y-46296446D01*
X-61675736Y-45589340D01*
X-61039340Y-46225736D01*
X-61746446Y-46932842D01*
X-61746446Y-46932842D01*
G37*
G36*
X-58974264Y-38160660D02*
X-59610660Y-37524264D01*
X-58903554Y-36817158D01*
X-58267158Y-37453554D01*
X-58974264Y-38160660D01*
X-58974264Y-38160660D01*
G37*
G36*
X-58196446Y-37382842D02*
X-58832842Y-36746446D01*
X-58125736Y-36039340D01*
X-57489340Y-36675736D01*
X-58196446Y-37382842D01*
X-58196446Y-37382842D01*
G37*
D13*
X52950000Y65950000D03*
D14*
X52950000Y63950000D03*
X52950000Y61950000D03*
D15*
X-55700000Y51900000D03*
X-54600000Y51900000D03*
X-55800000Y54300000D03*
X-54700000Y54300000D03*
D16*
X-53200000Y55700000D03*
X-53200000Y55050000D03*
X-53200000Y54400000D03*
X-51100000Y55700000D03*
X-51100000Y54400000D03*
X-51100000Y55050000D03*
D17*
X-52150000Y54650000D03*
X-52150000Y55450000D03*
D18*
X-80010000Y19785000D03*
X-71120000Y25935000D03*
X-78740000Y19785000D03*
X-72390000Y25935000D03*
X-77470000Y19785000D03*
X-73660000Y25935000D03*
X-76200000Y19785000D03*
X-74930000Y25935000D03*
X-74930000Y19785000D03*
X-76200000Y25935000D03*
X-73660000Y19785000D03*
X-77470000Y25935000D03*
X-72390000Y19785000D03*
X-78740000Y25935000D03*
X-71120000Y19785000D03*
X-80010000Y25935000D03*
D19*
X-80010000Y8890000D03*
X-71120000Y16510000D03*
X-78740000Y8890000D03*
X-72390000Y16510000D03*
X-77470000Y8890000D03*
X-73660000Y16510000D03*
X-76200000Y8890000D03*
X-74930000Y16510000D03*
X-74930000Y8890000D03*
X-76200000Y16510000D03*
X-73660000Y8890000D03*
X-77470000Y16510000D03*
X-72390000Y8890000D03*
X-78740000Y16510000D03*
X-71120000Y8890000D03*
X-80010000Y16510000D03*
D15*
X-550000Y-45075001D03*
X550000Y-45075001D03*
X-550000Y-45075001D03*
X550000Y-45075001D03*
X-550000Y-45075001D03*
X550000Y-45075001D03*
D20*
X0Y-45075001D03*
D21*
X2540000Y-45075001D03*
D22*
X-450000Y-45075001D03*
X450000Y-45075001D03*
D23*
X-1700000Y-45075001D03*
X1700000Y-45075001D03*
D24*
X0Y-45075001D03*
D25*
X-650240Y-46024961D03*
X0Y-46024961D03*
X650240Y-46024961D03*
X650240Y-44125041D03*
X0Y-44125041D03*
X-650240Y-44125041D03*
X-650240Y-46024961D03*
X0Y-46024961D03*
X650240Y-46024961D03*
X650240Y-44125041D03*
X0Y-44125041D03*
X-650240Y-44125041D03*
X-650240Y-46024961D03*
X0Y-46024961D03*
X650240Y-46024961D03*
X650240Y-44125041D03*
X0Y-44125041D03*
X-650240Y-44125041D03*
X-650240Y-46024961D03*
X0Y-46024961D03*
X650240Y-46024961D03*
X650240Y-44125041D03*
X0Y-44125041D03*
X-650240Y-44125041D03*
D26*
X-2250440Y-45075001D03*
X2250440Y-45075001D03*
D10*
G36*
X23993485Y-34094526D02*
X23251023Y-34836988D01*
X22218647Y-33804612D01*
X22961109Y-33062150D01*
X23993485Y-34094526D01*
X23993485Y-34094526D01*
G37*
G36*
X24665236Y-33422774D02*
X23922774Y-34165236D01*
X22890398Y-33132860D01*
X23632860Y-32390398D01*
X24665236Y-33422774D01*
X24665236Y-33422774D01*
G37*
G36*
X25336988Y-32751023D02*
X24594526Y-33493485D01*
X23562150Y-32461109D01*
X24304612Y-31718647D01*
X25336988Y-32751023D01*
X25336988Y-32751023D01*
G37*
G36*
X23781353Y-31195388D02*
X23038891Y-31937850D01*
X22006515Y-30905474D01*
X22748977Y-30163012D01*
X23781353Y-31195388D01*
X23781353Y-31195388D01*
G37*
G36*
X22437850Y-32538891D02*
X21695388Y-33281353D01*
X20663012Y-32248977D01*
X21405474Y-31506515D01*
X22437850Y-32538891D01*
X22437850Y-32538891D01*
G37*
G36*
X17492969Y9431951D02*
X19119315Y11058297D01*
X20392107Y9785505D01*
X18765761Y8159159D01*
X17492969Y9431951D01*
X17492969Y9431951D01*
G37*
G36*
X8901621Y19437512D02*
X10527967Y21063858D01*
X11800759Y19791066D01*
X10174413Y18164720D01*
X8901621Y19437512D01*
X8901621Y19437512D01*
G37*
G36*
X23574087Y23715509D02*
X24846879Y24988301D01*
X26048961Y23786219D01*
X24776169Y22513427D01*
X23574087Y23715509D01*
X23574087Y23715509D01*
G37*
G36*
X19543579Y27746018D02*
X20816371Y29018810D01*
X22018453Y27816728D01*
X20745661Y26543936D01*
X19543579Y27746018D01*
X19543579Y27746018D01*
G37*
G36*
X16948496Y15053451D02*
X18291999Y16396954D01*
X19140528Y15548425D01*
X17797025Y14204922D01*
X16948496Y15053451D01*
X16948496Y15053451D01*
G37*
G36*
X16453522Y16114111D02*
X17797025Y17457614D01*
X18645554Y16609085D01*
X17302051Y15265582D01*
X16453522Y16114111D01*
X16453522Y16114111D01*
G37*
G36*
X15392861Y16609086D02*
X16736364Y17952589D01*
X17584893Y17104060D01*
X16241390Y15760557D01*
X15392861Y16609086D01*
X15392861Y16609086D01*
G37*
G36*
X14473623Y17245482D02*
X15817126Y18588985D01*
X16665655Y17740456D01*
X15322152Y16396953D01*
X14473623Y17245482D01*
X14473623Y17245482D01*
G37*
G36*
X13837226Y18164721D02*
X15180729Y19508224D01*
X16029258Y18659695D01*
X14685755Y17316192D01*
X13837226Y18164721D01*
X13837226Y18164721D01*
G37*
G36*
X12917988Y18801117D02*
X14261491Y20144620D01*
X15110020Y19296091D01*
X13766517Y17952588D01*
X12917988Y18801117D01*
X12917988Y18801117D01*
G37*
G36*
X12281592Y19720356D02*
X13625095Y21063859D01*
X14473624Y20215330D01*
X13130121Y18871827D01*
X12281592Y19720356D01*
X12281592Y19720356D01*
G37*
G36*
X11503774Y20498173D02*
X12847277Y21841676D01*
X13695806Y20993147D01*
X12352303Y19649644D01*
X11503774Y20498173D01*
X11503774Y20498173D01*
G37*
G36*
X20947185Y26971736D02*
X21901779Y27926330D01*
X22891729Y26936380D01*
X21937135Y25981786D01*
X20947185Y26971736D01*
X20947185Y26971736D01*
G37*
D27*
X11430000Y-28575000D03*
D28*
X11430000Y-31115000D03*
X8890000Y-28575000D03*
X8890000Y-31115000D03*
X6350000Y-28575000D03*
X6350000Y-31115000D03*
X3810000Y-28575000D03*
X3810000Y-31115000D03*
X1270000Y-28575000D03*
X1270000Y-31115000D03*
X-1270000Y-28575000D03*
X-1270000Y-31115000D03*
X-3810000Y-28575000D03*
X-3810000Y-31115000D03*
X-6350000Y-28575000D03*
X-6350000Y-31115000D03*
X-8890000Y-28575000D03*
X-8890000Y-31115000D03*
X-11430000Y-28575000D03*
X-11430000Y-31115000D03*
D27*
X-28575000Y-11430000D03*
D28*
X-31115000Y-11430000D03*
X-28575000Y-8890000D03*
X-31115000Y-8890000D03*
X-28575000Y-6350000D03*
X-31115000Y-6350000D03*
X-28575000Y-3810000D03*
X-31115000Y-3810000D03*
X-28575000Y-1270000D03*
X-31115000Y-1270000D03*
X-28575000Y1270000D03*
X-31115000Y1270000D03*
X-28575000Y3810000D03*
X-31115000Y3810000D03*
X-28575000Y6350000D03*
X-31115000Y6350000D03*
X-28575000Y8890000D03*
X-31115000Y8890000D03*
X-28575000Y11430000D03*
X-31115000Y11430000D03*
D27*
X-11430000Y28575000D03*
D28*
X-11430000Y31115000D03*
X-8890000Y28575000D03*
X-8890000Y31115000D03*
X-6350000Y28575000D03*
X-6350000Y31115000D03*
X-3810000Y28575000D03*
X-3810000Y31115000D03*
X-1270000Y28575000D03*
X-1270000Y31115000D03*
X1270000Y28575000D03*
X1270000Y31115000D03*
X3810000Y28575000D03*
X3810000Y31115000D03*
X6350000Y28575000D03*
X6350000Y31115000D03*
X8890000Y28575000D03*
X8890000Y31115000D03*
X11430000Y28575000D03*
X11430000Y31115000D03*
D27*
X28575000Y11430000D03*
D28*
X31115000Y11430000D03*
X28575000Y8890000D03*
X31115000Y8890000D03*
X28575000Y6350000D03*
X31115000Y6350000D03*
X28575000Y3810000D03*
X31115000Y3810000D03*
X28575000Y1270000D03*
X31115000Y1270000D03*
X28575000Y-1270000D03*
X31115000Y-1270000D03*
X28575000Y-3810000D03*
X31115000Y-3810000D03*
X28575000Y-6350000D03*
X31115000Y-6350000D03*
X28575000Y-8890000D03*
X31115000Y-8890000D03*
X28575000Y-11430000D03*
X31115000Y-11430000D03*
D29*
X4450000Y-18750000D03*
X4450000Y-18250000D03*
X4450000Y-17750000D03*
X4450000Y-17250000D03*
X4450000Y-16750000D03*
X4450000Y-16250000D03*
X4450000Y-15750000D03*
X4450000Y-15250000D03*
X4450000Y-14750000D03*
X4450000Y-14250000D03*
X4450000Y-13750000D03*
X4450000Y-13250000D03*
X4450000Y-12750000D03*
X4450000Y-12250000D03*
X4450000Y-11750000D03*
X4450000Y-11250000D03*
D30*
X3750000Y-10550000D03*
X3250000Y-10550000D03*
X2750000Y-10550000D03*
X2250000Y-10550000D03*
X1750000Y-10550000D03*
X1250000Y-10550000D03*
X750000Y-10550000D03*
X250000Y-10550000D03*
X-250000Y-10550000D03*
X-750000Y-10550000D03*
X-1250000Y-10550000D03*
X-1750000Y-10550000D03*
X-2250000Y-10550000D03*
X-2750000Y-10550000D03*
X-3250000Y-10550000D03*
X-3750000Y-10550000D03*
D29*
X-4450000Y-11250000D03*
X-4450000Y-11750000D03*
X-4450000Y-12250000D03*
X-4450000Y-12750000D03*
X-4450000Y-13250000D03*
X-4450000Y-13750000D03*
X-4450000Y-14250000D03*
X-4450000Y-14750000D03*
X-4450000Y-15250000D03*
X-4450000Y-15750000D03*
X-4450000Y-16250000D03*
X-4450000Y-16750000D03*
X-4450000Y-17250000D03*
X-4450000Y-17750000D03*
X-4450000Y-18250000D03*
X-4450000Y-18750000D03*
D30*
X-3750000Y-19450000D03*
X-3250000Y-19450000D03*
X-2750000Y-19450000D03*
X-2250000Y-19450000D03*
X-1750000Y-19450000D03*
X-1250000Y-19450000D03*
X-750000Y-19450000D03*
X-250000Y-19450000D03*
X250000Y-19450000D03*
X750000Y-19450000D03*
X1250000Y-19450000D03*
X1750000Y-19450000D03*
X2250000Y-19450000D03*
X2750000Y-19450000D03*
X3250000Y-19450000D03*
X3750000Y-19450000D03*
D31*
X-2756250Y-12243750D03*
X-2756250Y-14081250D03*
X-2756250Y-15918750D03*
X-2756250Y-17756250D03*
X-918750Y-12243750D03*
X-918750Y-14081250D03*
X-918750Y-15918750D03*
X-918750Y-17756250D03*
X918750Y-12243750D03*
X918750Y-14081250D03*
X918750Y-15918750D03*
X918750Y-17756250D03*
X2756250Y-12243750D03*
X2756250Y-14081250D03*
X2756250Y-15918750D03*
X2756250Y-17756250D03*
D30*
X-18750000Y-4450000D03*
X-18250000Y-4450000D03*
X-17750000Y-4450000D03*
X-17250000Y-4450000D03*
X-16750000Y-4450000D03*
X-16250000Y-4450000D03*
X-15750000Y-4450000D03*
X-15250000Y-4450000D03*
X-14750000Y-4450000D03*
X-14250000Y-4450000D03*
X-13750000Y-4450000D03*
X-13250000Y-4450000D03*
X-12750000Y-4450000D03*
X-12250000Y-4450000D03*
X-11750000Y-4450000D03*
X-11250000Y-4450000D03*
D29*
X-10550000Y-3750000D03*
X-10550000Y-3250000D03*
X-10550000Y-2750000D03*
X-10550000Y-2250000D03*
X-10550000Y-1750000D03*
X-10550000Y-1250000D03*
X-10550000Y-750000D03*
X-10550000Y-250000D03*
X-10550000Y250000D03*
X-10550000Y750000D03*
X-10550000Y1250000D03*
X-10550000Y1750000D03*
X-10550000Y2250000D03*
X-10550000Y2750000D03*
X-10550000Y3250000D03*
X-10550000Y3750000D03*
D30*
X-11250000Y4450000D03*
X-11750000Y4450000D03*
X-12250000Y4450000D03*
X-12750000Y4450000D03*
X-13250000Y4450000D03*
X-13750000Y4450000D03*
X-14250000Y4450000D03*
X-14750000Y4450000D03*
X-15250000Y4450000D03*
X-15750000Y4450000D03*
X-16250000Y4450000D03*
X-16750000Y4450000D03*
X-17250000Y4450000D03*
X-17750000Y4450000D03*
X-18250000Y4450000D03*
X-18750000Y4450000D03*
D29*
X-19450000Y3750000D03*
X-19450000Y3250000D03*
X-19450000Y2750000D03*
X-19450000Y2250000D03*
X-19450000Y1750000D03*
X-19450000Y1250000D03*
X-19450000Y750000D03*
X-19450000Y250000D03*
X-19450000Y-250000D03*
X-19450000Y-750000D03*
X-19450000Y-1250000D03*
X-19450000Y-1750000D03*
X-19450000Y-2250000D03*
X-19450000Y-2750000D03*
X-19450000Y-3250000D03*
X-19450000Y-3750000D03*
D31*
X-12243750Y2756250D03*
X-14081250Y2756250D03*
X-15918750Y2756250D03*
X-17756250Y2756250D03*
X-12243750Y918750D03*
X-14081250Y918750D03*
X-15918750Y918750D03*
X-17756250Y918750D03*
X-12243750Y-918750D03*
X-14081250Y-918750D03*
X-15918750Y-918750D03*
X-17756250Y-918750D03*
X-12243750Y-2756250D03*
X-14081250Y-2756250D03*
X-15918750Y-2756250D03*
X-17756250Y-2756250D03*
D29*
X-4450000Y18750000D03*
X-4450000Y18250000D03*
X-4450000Y17750000D03*
X-4450000Y17250000D03*
X-4450000Y16750000D03*
X-4450000Y16250000D03*
X-4450000Y15750000D03*
X-4450000Y15250000D03*
X-4450000Y14750000D03*
X-4450000Y14250000D03*
X-4450000Y13750000D03*
X-4450000Y13250000D03*
X-4450000Y12750000D03*
X-4450000Y12250000D03*
X-4450000Y11750000D03*
X-4450000Y11250000D03*
D30*
X-3750000Y10550000D03*
X-3250000Y10550000D03*
X-2750000Y10550000D03*
X-2250000Y10550000D03*
X-1750000Y10550000D03*
X-1250000Y10550000D03*
X-750000Y10550000D03*
X-250000Y10550000D03*
X250000Y10550000D03*
X750000Y10550000D03*
X1250000Y10550000D03*
X1750000Y10550000D03*
X2250000Y10550000D03*
X2750000Y10550000D03*
X3250000Y10550000D03*
X3750000Y10550000D03*
D29*
X4450000Y11250000D03*
X4450000Y11750000D03*
X4450000Y12250000D03*
X4450000Y12750000D03*
X4450000Y13250000D03*
X4450000Y13750000D03*
X4450000Y14250000D03*
X4450000Y14750000D03*
X4450000Y15250000D03*
X4450000Y15750000D03*
X4450000Y16250000D03*
X4450000Y16750000D03*
X4450000Y17250000D03*
X4450000Y17750000D03*
X4450000Y18250000D03*
X4450000Y18750000D03*
D30*
X3750000Y19450000D03*
X3250000Y19450000D03*
X2750000Y19450000D03*
X2250000Y19450000D03*
X1750000Y19450000D03*
X1250000Y19450000D03*
X750000Y19450000D03*
X250000Y19450000D03*
X-250000Y19450000D03*
X-750000Y19450000D03*
X-1250000Y19450000D03*
X-1750000Y19450000D03*
X-2250000Y19450000D03*
X-2750000Y19450000D03*
X-3250000Y19450000D03*
X-3750000Y19450000D03*
D31*
X2756250Y12243750D03*
X2756250Y14081250D03*
X2756250Y15918750D03*
X2756250Y17756250D03*
X918750Y12243750D03*
X918750Y14081250D03*
X918750Y15918750D03*
X918750Y17756250D03*
X-918750Y12243750D03*
X-918750Y14081250D03*
X-918750Y15918750D03*
X-918750Y17756250D03*
X-2756250Y12243750D03*
X-2756250Y14081250D03*
X-2756250Y15918750D03*
X-2756250Y17756250D03*
D30*
X18750000Y4450000D03*
X18250000Y4450000D03*
X17750000Y4450000D03*
X17250000Y4450000D03*
X16750000Y4450000D03*
X16250000Y4450000D03*
X15750000Y4450000D03*
X15250000Y4450000D03*
X14750000Y4450000D03*
X14250000Y4450000D03*
X13750000Y4450000D03*
X13250000Y4450000D03*
X12750000Y4450000D03*
X12250000Y4450000D03*
X11750000Y4450000D03*
X11250000Y4450000D03*
D29*
X10550000Y3750000D03*
X10550000Y3250000D03*
X10550000Y2750000D03*
X10550000Y2250000D03*
X10550000Y1750000D03*
X10550000Y1250000D03*
X10550000Y750000D03*
X10550000Y250000D03*
X10550000Y-250000D03*
X10550000Y-750000D03*
X10550000Y-1250000D03*
X10550000Y-1750000D03*
X10550000Y-2250000D03*
X10550000Y-2750000D03*
X10550000Y-3250000D03*
X10550000Y-3750000D03*
D30*
X11250000Y-4450000D03*
X11750000Y-4450000D03*
X12250000Y-4450000D03*
X12750000Y-4450000D03*
X13250000Y-4450000D03*
X13750000Y-4450000D03*
X14250000Y-4450000D03*
X14750000Y-4450000D03*
X15250000Y-4450000D03*
X15750000Y-4450000D03*
X16250000Y-4450000D03*
X16750000Y-4450000D03*
X17250000Y-4450000D03*
X17750000Y-4450000D03*
X18250000Y-4450000D03*
X18750000Y-4450000D03*
D29*
X19450000Y-3750000D03*
X19450000Y-3250000D03*
X19450000Y-2750000D03*
X19450000Y-2250000D03*
X19450000Y-1750000D03*
X19450000Y-1250000D03*
X19450000Y-750000D03*
X19450000Y-250000D03*
X19450000Y250000D03*
X19450000Y750000D03*
X19450000Y1250000D03*
X19450000Y1750000D03*
X19450000Y2250000D03*
X19450000Y2750000D03*
X19450000Y3250000D03*
X19450000Y3750000D03*
D31*
X12243750Y-2756250D03*
X14081250Y-2756250D03*
X15918750Y-2756250D03*
X17756250Y-2756250D03*
X12243750Y-918750D03*
X14081250Y-918750D03*
X15918750Y-918750D03*
X17756250Y-918750D03*
X12243750Y918750D03*
X14081250Y918750D03*
X15918750Y918750D03*
X17756250Y918750D03*
X12243750Y2756250D03*
X14081250Y2756250D03*
X15918750Y2756250D03*
X17756250Y2756250D03*
D32*
X8000000Y-16950000D03*
X8000000Y-18050000D03*
X8000000Y-14950000D03*
X8000000Y-16050000D03*
D15*
X1450000Y-6000000D03*
X2550000Y-6000000D03*
X-550000Y-6000000D03*
X550000Y-6000000D03*
D32*
X7000000Y-16950000D03*
X7000000Y-18050000D03*
X7000000Y-14950000D03*
X7000000Y-16050000D03*
D15*
X1450000Y-7000000D03*
X2550000Y-7000000D03*
X-550000Y-7000000D03*
X550000Y-7000000D03*
D32*
X-7000000Y-18050000D03*
X-7000000Y-16950000D03*
X-7000000Y-16050000D03*
X-7000000Y-14950000D03*
X-3000000Y-20950000D03*
X-3000000Y-22050000D03*
D15*
X3050000Y-22000000D03*
X1950000Y-22000000D03*
X1050000Y-22000000D03*
X-50000Y-22000000D03*
X-950000Y-22000000D03*
X-2050000Y-22000000D03*
X2050000Y-21000000D03*
X950000Y-21000000D03*
D32*
X-8000000Y-18050000D03*
X-8000000Y-16950000D03*
X-8000000Y-16050000D03*
X-8000000Y-14950000D03*
D15*
X3050000Y-23000000D03*
X1950000Y-23000000D03*
X1050000Y-23000000D03*
X-50000Y-23000000D03*
X-950000Y-23000000D03*
X-2050000Y-23000000D03*
X-2950000Y-23000000D03*
X-4050000Y-23000000D03*
X-16950000Y-8000000D03*
X-18050000Y-8000000D03*
X-14950000Y-8000000D03*
X-16050000Y-8000000D03*
D32*
X-6000000Y-1450000D03*
X-6000000Y-2550000D03*
X-6000000Y550000D03*
X-6000000Y-550000D03*
D15*
X-16950000Y-7000000D03*
X-18050000Y-7000000D03*
X-14950000Y-7000000D03*
X-16050000Y-7000000D03*
D32*
X-7000000Y-1450000D03*
X-7000000Y-2550000D03*
X-7000000Y550000D03*
X-7000000Y-550000D03*
D15*
X-18050000Y7000000D03*
X-16950000Y7000000D03*
X-16050000Y7000000D03*
X-14950000Y7000000D03*
X-20950000Y3000000D03*
X-22050000Y3000000D03*
D32*
X-22000000Y-3050000D03*
X-22000000Y-1950000D03*
X-22000000Y-1050000D03*
X-22000000Y50000D03*
X-22000000Y950000D03*
X-22000000Y2050000D03*
X-21000000Y-2050000D03*
X-21000000Y-950000D03*
D15*
X-18050000Y8000000D03*
X-16950000Y8000000D03*
X-16050000Y8000000D03*
X-14950000Y8000000D03*
D32*
X-23000000Y-3050000D03*
X-23000000Y-1950000D03*
X-23000000Y-1050000D03*
X-23000000Y50000D03*
X-23000000Y950000D03*
X-23000000Y2050000D03*
X-23000000Y2950000D03*
X-23000000Y4050000D03*
X-8000000Y16950000D03*
X-8000000Y18050000D03*
X-8000000Y14950000D03*
X-8000000Y16050000D03*
D15*
X-1450000Y6000000D03*
X-2550000Y6000000D03*
X550000Y6000000D03*
X-550000Y6000000D03*
D32*
X-7000000Y16950000D03*
X-7000000Y18050000D03*
X-7000000Y14950000D03*
X-7000000Y16050000D03*
D15*
X-1450000Y7000000D03*
X-2550000Y7000000D03*
X550000Y7000000D03*
X-550000Y7000000D03*
D32*
X7000000Y18050000D03*
X7000000Y16950000D03*
X7000000Y16050000D03*
X7000000Y14950000D03*
X3000000Y20950000D03*
X3000000Y22050000D03*
D15*
X-3050000Y22000000D03*
X-1950000Y22000000D03*
X-1050000Y22000000D03*
X50000Y22000000D03*
X950000Y22000000D03*
X2050000Y22000000D03*
X-2050000Y21000000D03*
X-950000Y21000000D03*
D32*
X8000000Y18050000D03*
X8000000Y16950000D03*
X8000000Y16050000D03*
X8000000Y14950000D03*
D15*
X-3050000Y23000000D03*
X-1950000Y23000000D03*
X-1050000Y23000000D03*
X50000Y23000000D03*
X950000Y23000000D03*
X2050000Y23000000D03*
X2950000Y23000000D03*
X4050000Y23000000D03*
X16950000Y8000000D03*
X18050000Y8000000D03*
X14950000Y8000000D03*
X16050000Y8000000D03*
D32*
X6000000Y1450000D03*
X6000000Y2550000D03*
X6000000Y-550000D03*
X6000000Y550000D03*
D15*
X16950000Y7000000D03*
X18050000Y7000000D03*
X14950000Y7000000D03*
X16050000Y7000000D03*
D32*
X7000000Y1450000D03*
X7000000Y2550000D03*
X7000000Y-550000D03*
X7000000Y550000D03*
D15*
X18050000Y-7000000D03*
X16950000Y-7000000D03*
X16050000Y-7000000D03*
X14950000Y-7000000D03*
X20950000Y-3000000D03*
X22050000Y-3000000D03*
D32*
X22000000Y3050000D03*
X22000000Y1950000D03*
X22000000Y1050000D03*
X22000000Y-50000D03*
X22000000Y-950000D03*
X22000000Y-2050000D03*
X21000000Y2050000D03*
X21000000Y950000D03*
D15*
X18050000Y-8000000D03*
X16950000Y-8000000D03*
X16050000Y-8000000D03*
X14950000Y-8000000D03*
D32*
X23000000Y3050000D03*
X23000000Y1950000D03*
X23000000Y1050000D03*
X23000000Y-50000D03*
X23000000Y-950000D03*
X23000000Y-2050000D03*
X23000000Y-2950000D03*
X23000000Y-4050000D03*
D10*
G36*
X27663485Y-30169526D02*
X26921023Y-30911988D01*
X25888647Y-29879612D01*
X26631109Y-29137150D01*
X27663485Y-30169526D01*
X27663485Y-30169526D01*
G37*
G36*
X28335236Y-29497774D02*
X27592774Y-30240236D01*
X26560398Y-29207860D01*
X27302860Y-28465398D01*
X28335236Y-29497774D01*
X28335236Y-29497774D01*
G37*
G36*
X29006988Y-28826023D02*
X28264526Y-29568485D01*
X27232150Y-28536109D01*
X27974612Y-27793647D01*
X29006988Y-28826023D01*
X29006988Y-28826023D01*
G37*
G36*
X27451353Y-27270388D02*
X26708891Y-28012850D01*
X25676515Y-26980474D01*
X26418977Y-26238012D01*
X27451353Y-27270388D01*
X27451353Y-27270388D01*
G37*
G36*
X26107850Y-28613891D02*
X25365388Y-29356353D01*
X24333012Y-28323977D01*
X25075474Y-27581515D01*
X26107850Y-28613891D01*
X26107850Y-28613891D01*
G37*
G36*
X31473485Y-26359526D02*
X30731023Y-27101988D01*
X29698647Y-26069612D01*
X30441109Y-25327150D01*
X31473485Y-26359526D01*
X31473485Y-26359526D01*
G37*
G36*
X32145236Y-25687774D02*
X31402774Y-26430236D01*
X30370398Y-25397860D01*
X31112860Y-24655398D01*
X32145236Y-25687774D01*
X32145236Y-25687774D01*
G37*
G36*
X32816988Y-25016023D02*
X32074526Y-25758485D01*
X31042150Y-24726109D01*
X31784612Y-23983647D01*
X32816988Y-25016023D01*
X32816988Y-25016023D01*
G37*
G36*
X31261353Y-23460388D02*
X30518891Y-24202850D01*
X29486515Y-23170474D01*
X30228977Y-22428012D01*
X31261353Y-23460388D01*
X31261353Y-23460388D01*
G37*
G36*
X29917850Y-24803891D02*
X29175388Y-25546353D01*
X28143012Y-24513977D01*
X28885474Y-23771515D01*
X29917850Y-24803891D01*
X29917850Y-24803891D01*
G37*
G36*
X12400133Y-14387103D02*
X11693026Y-15094210D01*
X10314167Y-13715351D01*
X11021274Y-13008244D01*
X12400133Y-14387103D01*
X12400133Y-14387103D01*
G37*
G36*
X13298159Y-13489077D02*
X12591052Y-14196184D01*
X11212193Y-12817325D01*
X11919300Y-12110218D01*
X13298159Y-13489077D01*
X13298159Y-13489077D01*
G37*
G36*
X14196184Y-12591052D02*
X13489077Y-13298159D01*
X12110218Y-11919300D01*
X12817325Y-11212193D01*
X14196184Y-12591052D01*
X14196184Y-12591052D01*
G37*
G36*
X15094210Y-11693026D02*
X14387103Y-12400133D01*
X13008244Y-11021274D01*
X13715351Y-10314167D01*
X15094210Y-11693026D01*
X15094210Y-11693026D01*
G37*
G36*
X11275833Y-7874649D02*
X10568726Y-8581756D01*
X9189867Y-7202897D01*
X9896974Y-6495790D01*
X11275833Y-7874649D01*
X11275833Y-7874649D01*
G37*
G36*
X10377807Y-8772675D02*
X9670700Y-9479782D01*
X8291841Y-8100923D01*
X8998948Y-7393816D01*
X10377807Y-8772675D01*
X10377807Y-8772675D01*
G37*
G36*
X9479782Y-9670700D02*
X8772675Y-10377807D01*
X7393816Y-8998948D01*
X8100923Y-8291841D01*
X9479782Y-9670700D01*
X9479782Y-9670700D01*
G37*
G36*
X8581756Y-10568726D02*
X7874649Y-11275833D01*
X6495790Y-9896974D01*
X7202897Y-9189867D01*
X8581756Y-10568726D01*
X8581756Y-10568726D01*
G37*
G36*
X-14387103Y-12400133D02*
X-15094210Y-11693026D01*
X-13715351Y-10314167D01*
X-13008244Y-11021274D01*
X-14387103Y-12400133D01*
X-14387103Y-12400133D01*
G37*
G36*
X-13489077Y-13298159D02*
X-14196184Y-12591052D01*
X-12817325Y-11212193D01*
X-12110218Y-11919300D01*
X-13489077Y-13298159D01*
X-13489077Y-13298159D01*
G37*
G36*
X-12591052Y-14196184D02*
X-13298159Y-13489077D01*
X-11919300Y-12110218D01*
X-11212193Y-12817325D01*
X-12591052Y-14196184D01*
X-12591052Y-14196184D01*
G37*
G36*
X-11693026Y-15094210D02*
X-12400133Y-14387103D01*
X-11021274Y-13008244D01*
X-10314167Y-13715351D01*
X-11693026Y-15094210D01*
X-11693026Y-15094210D01*
G37*
G36*
X-7874649Y-11275833D02*
X-8581756Y-10568726D01*
X-7202897Y-9189867D01*
X-6495790Y-9896974D01*
X-7874649Y-11275833D01*
X-7874649Y-11275833D01*
G37*
G36*
X-8772675Y-10377807D02*
X-9479782Y-9670700D01*
X-8100923Y-8291841D01*
X-7393816Y-8998948D01*
X-8772675Y-10377807D01*
X-8772675Y-10377807D01*
G37*
G36*
X-9670700Y-9479782D02*
X-10377807Y-8772675D01*
X-8998948Y-7393816D01*
X-8291841Y-8100923D01*
X-9670700Y-9479782D01*
X-9670700Y-9479782D01*
G37*
G36*
X-10568726Y-8581756D02*
X-11275833Y-7874649D01*
X-9896974Y-6495790D01*
X-9189867Y-7202897D01*
X-10568726Y-8581756D01*
X-10568726Y-8581756D01*
G37*
G36*
X-12400133Y14387103D02*
X-11693026Y15094210D01*
X-10314167Y13715351D01*
X-11021274Y13008244D01*
X-12400133Y14387103D01*
X-12400133Y14387103D01*
G37*
G36*
X-13298159Y13489077D02*
X-12591052Y14196184D01*
X-11212193Y12817325D01*
X-11919300Y12110218D01*
X-13298159Y13489077D01*
X-13298159Y13489077D01*
G37*
G36*
X-14196184Y12591052D02*
X-13489077Y13298159D01*
X-12110218Y11919300D01*
X-12817325Y11212193D01*
X-14196184Y12591052D01*
X-14196184Y12591052D01*
G37*
G36*
X-15094210Y11693026D02*
X-14387103Y12400133D01*
X-13008244Y11021274D01*
X-13715351Y10314167D01*
X-15094210Y11693026D01*
X-15094210Y11693026D01*
G37*
G36*
X-11275833Y7874649D02*
X-10568726Y8581756D01*
X-9189867Y7202897D01*
X-9896974Y6495790D01*
X-11275833Y7874649D01*
X-11275833Y7874649D01*
G37*
G36*
X-10377807Y8772675D02*
X-9670700Y9479782D01*
X-8291841Y8100923D01*
X-8998948Y7393816D01*
X-10377807Y8772675D01*
X-10377807Y8772675D01*
G37*
G36*
X-9479782Y9670700D02*
X-8772675Y10377807D01*
X-7393816Y8998948D01*
X-8100923Y8291841D01*
X-9479782Y9670700D01*
X-9479782Y9670700D01*
G37*
G36*
X-8581756Y10568726D02*
X-7874649Y11275833D01*
X-6495790Y9896974D01*
X-7202897Y9189867D01*
X-8581756Y10568726D01*
X-8581756Y10568726D01*
G37*
G36*
X14387103Y12400133D02*
X15094210Y11693026D01*
X13715351Y10314167D01*
X13008244Y11021274D01*
X14387103Y12400133D01*
X14387103Y12400133D01*
G37*
G36*
X13489077Y13298159D02*
X14196184Y12591052D01*
X12817325Y11212193D01*
X12110218Y11919300D01*
X13489077Y13298159D01*
X13489077Y13298159D01*
G37*
G36*
X12591052Y14196184D02*
X13298159Y13489077D01*
X11919300Y12110218D01*
X11212193Y12817325D01*
X12591052Y14196184D01*
X12591052Y14196184D01*
G37*
G36*
X11693026Y15094210D02*
X12400133Y14387103D01*
X11021274Y13008244D01*
X10314167Y13715351D01*
X11693026Y15094210D01*
X11693026Y15094210D01*
G37*
G36*
X7874649Y11275833D02*
X8581756Y10568726D01*
X7202897Y9189867D01*
X6495790Y9896974D01*
X7874649Y11275833D01*
X7874649Y11275833D01*
G37*
G36*
X8772675Y10377807D02*
X9479782Y9670700D01*
X8100923Y8291841D01*
X7393816Y8998948D01*
X8772675Y10377807D01*
X8772675Y10377807D01*
G37*
G36*
X9670700Y9479782D02*
X10377807Y8772675D01*
X8998948Y7393816D01*
X8291841Y8100923D01*
X9670700Y9479782D01*
X9670700Y9479782D01*
G37*
G36*
X10568726Y8581756D02*
X11275833Y7874649D01*
X9896974Y6495790D01*
X9189867Y7202897D01*
X10568726Y8581756D01*
X10568726Y8581756D01*
G37*
D33*
X-2950000Y-1350000D03*
X2950000Y-1350000D03*
X2950000Y1350000D03*
X-2950000Y1350000D03*
D10*
G36*
X-27832237Y17438079D02*
X-29551921Y19157763D01*
X-28047763Y20661921D01*
X-26328079Y18942237D01*
X-27832237Y17438079D01*
X-27832237Y17438079D01*
G37*
D12*
X-26251712Y20953814D02*
X-26036186Y20738288D01*
X-24455661Y22749865D02*
X-24240135Y22534339D01*
X-22659609Y24545917D02*
X-22444083Y24330391D01*
X-20863558Y26341968D02*
X-20648032Y26126442D01*
X-19067507Y28138019D02*
X-18851981Y27922493D01*
D10*
G36*
X27832237Y-17438079D02*
X29551921Y-19157763D01*
X28047763Y-20661921D01*
X26328079Y-18942237D01*
X27832237Y-17438079D01*
X27832237Y-17438079D01*
G37*
D12*
X26251712Y-20953814D02*
X26036186Y-20738288D01*
X24455661Y-22749865D02*
X24240135Y-22534339D01*
X22659609Y-24545917D02*
X22444083Y-24330391D01*
X20863558Y-26341968D02*
X20648032Y-26126442D01*
X19067507Y-28138019D02*
X18851981Y-27922493D01*
D10*
G36*
X-11380502Y-18340011D02*
X-10234989Y-17194498D01*
X-9308680Y-18120807D01*
X-10454193Y-19266320D01*
X-11380502Y-18340011D01*
X-11380502Y-18340011D01*
G37*
G36*
X-13551320Y-16169193D02*
X-12405807Y-15023680D01*
X-11479498Y-15949989D01*
X-12625011Y-17095502D01*
X-13551320Y-16169193D01*
X-13551320Y-16169193D01*
G37*
G36*
X-17194498Y-10234989D02*
X-18340011Y-11380502D01*
X-19266320Y-10454193D01*
X-18120807Y-9308680D01*
X-17194498Y-10234989D01*
X-17194498Y-10234989D01*
G37*
G36*
X-15023680Y-12405807D02*
X-16169193Y-13551320D01*
X-17095502Y-12625011D01*
X-15949989Y-11479498D01*
X-15023680Y-12405807D01*
X-15023680Y-12405807D01*
G37*
G36*
X-20872196Y-19599404D02*
X-21367171Y-19104429D01*
X-20483288Y-18220546D01*
X-19988313Y-18715521D01*
X-20872196Y-19599404D01*
X-20872196Y-19599404D01*
G37*
G36*
X-20518642Y-19952957D02*
X-21013617Y-19457982D01*
X-20129734Y-18574099D01*
X-19634759Y-19069074D01*
X-20518642Y-19952957D01*
X-20518642Y-19952957D01*
G37*
G36*
X-20165089Y-20306511D02*
X-20660064Y-19811536D01*
X-19776181Y-18927653D01*
X-19281206Y-19422628D01*
X-20165089Y-20306511D01*
X-20165089Y-20306511D01*
G37*
G36*
X-19811536Y-20660064D02*
X-20306511Y-20165089D01*
X-19422628Y-19281206D01*
X-18927653Y-19776181D01*
X-19811536Y-20660064D01*
X-19811536Y-20660064D01*
G37*
G36*
X-19457982Y-21013617D02*
X-19952957Y-20518642D01*
X-19069074Y-19634759D01*
X-18574099Y-20129734D01*
X-19457982Y-21013617D01*
X-19457982Y-21013617D01*
G37*
G36*
X-19104429Y-21367171D02*
X-19599404Y-20872196D01*
X-18715521Y-19988313D01*
X-18220546Y-20483288D01*
X-19104429Y-21367171D01*
X-19104429Y-21367171D01*
G37*
G36*
X-17230596Y-20872196D02*
X-17725571Y-21367171D01*
X-18609454Y-20483288D01*
X-18114479Y-19988313D01*
X-17230596Y-20872196D01*
X-17230596Y-20872196D01*
G37*
G36*
X-16877043Y-20518642D02*
X-17372018Y-21013617D01*
X-18255901Y-20129734D01*
X-17760926Y-19634759D01*
X-16877043Y-20518642D01*
X-16877043Y-20518642D01*
G37*
G36*
X-16523489Y-20165089D02*
X-17018464Y-20660064D01*
X-17902347Y-19776181D01*
X-17407372Y-19281206D01*
X-16523489Y-20165089D01*
X-16523489Y-20165089D01*
G37*
G36*
X-16169936Y-19811536D02*
X-16664911Y-20306511D01*
X-17548794Y-19422628D01*
X-17053819Y-18927653D01*
X-16169936Y-19811536D01*
X-16169936Y-19811536D01*
G37*
G36*
X-15816383Y-19457982D02*
X-16311358Y-19952957D01*
X-17195241Y-19069074D01*
X-16700266Y-18574099D01*
X-15816383Y-19457982D01*
X-15816383Y-19457982D01*
G37*
G36*
X-15462829Y-19104429D02*
X-15957804Y-19599404D01*
X-16841687Y-18715521D01*
X-16346712Y-18220546D01*
X-15462829Y-19104429D01*
X-15462829Y-19104429D01*
G37*
G36*
X-16346712Y-18609454D02*
X-16841687Y-18114479D01*
X-15957804Y-17230596D01*
X-15462829Y-17725571D01*
X-16346712Y-18609454D01*
X-16346712Y-18609454D01*
G37*
G36*
X-16700266Y-18255901D02*
X-17195241Y-17760926D01*
X-16311358Y-16877043D01*
X-15816383Y-17372018D01*
X-16700266Y-18255901D01*
X-16700266Y-18255901D01*
G37*
G36*
X-17053819Y-17902347D02*
X-17548794Y-17407372D01*
X-16664911Y-16523489D01*
X-16169936Y-17018464D01*
X-17053819Y-17902347D01*
X-17053819Y-17902347D01*
G37*
G36*
X-17407372Y-17548794D02*
X-17902347Y-17053819D01*
X-17018464Y-16169936D01*
X-16523489Y-16664911D01*
X-17407372Y-17548794D01*
X-17407372Y-17548794D01*
G37*
G36*
X-17760926Y-17195241D02*
X-18255901Y-16700266D01*
X-17372018Y-15816383D01*
X-16877043Y-16311358D01*
X-17760926Y-17195241D01*
X-17760926Y-17195241D01*
G37*
G36*
X-18114479Y-16841687D02*
X-18609454Y-16346712D01*
X-17725571Y-15462829D01*
X-17230596Y-15957804D01*
X-18114479Y-16841687D01*
X-18114479Y-16841687D01*
G37*
G36*
X-18220546Y-16346712D02*
X-18715521Y-16841687D01*
X-19599404Y-15957804D01*
X-19104429Y-15462829D01*
X-18220546Y-16346712D01*
X-18220546Y-16346712D01*
G37*
G36*
X-18574099Y-16700266D02*
X-19069074Y-17195241D01*
X-19952957Y-16311358D01*
X-19457982Y-15816383D01*
X-18574099Y-16700266D01*
X-18574099Y-16700266D01*
G37*
G36*
X-18927653Y-17053819D02*
X-19422628Y-17548794D01*
X-20306511Y-16664911D01*
X-19811536Y-16169936D01*
X-18927653Y-17053819D01*
X-18927653Y-17053819D01*
G37*
G36*
X-19281206Y-17407372D02*
X-19776181Y-17902347D01*
X-20660064Y-17018464D01*
X-20165089Y-16523489D01*
X-19281206Y-17407372D01*
X-19281206Y-17407372D01*
G37*
G36*
X-19634759Y-17760926D02*
X-20129734Y-18255901D01*
X-21013617Y-17372018D01*
X-20518642Y-16877043D01*
X-19634759Y-17760926D01*
X-19634759Y-17760926D01*
G37*
G36*
X-19988313Y-18114479D02*
X-20483288Y-18609454D01*
X-21367171Y-17725571D01*
X-20872196Y-17230596D01*
X-19988313Y-18114479D01*
X-19988313Y-18114479D01*
G37*
G36*
X-17495761Y-19617082D02*
X-18697843Y-18415000D01*
X-17495761Y-17212918D01*
X-16293679Y-18415000D01*
X-17495761Y-19617082D01*
X-17495761Y-19617082D01*
G37*
G36*
X-18415000Y-18697843D02*
X-19617082Y-17495761D01*
X-18415000Y-16293679D01*
X-17212918Y-17495761D01*
X-18415000Y-18697843D01*
X-18415000Y-18697843D01*
G37*
G36*
X-18415000Y-20536321D02*
X-19617082Y-19334239D01*
X-18415000Y-18132157D01*
X-17212918Y-19334239D01*
X-18415000Y-20536321D01*
X-18415000Y-20536321D01*
G37*
G36*
X-19334239Y-19617082D02*
X-20536321Y-18415000D01*
X-19334239Y-17212918D01*
X-18132157Y-18415000D01*
X-19334239Y-19617082D01*
X-19334239Y-19617082D01*
G37*
G36*
X-24781583Y-17475569D02*
X-26054050Y-18748036D01*
X-27184629Y-17617457D01*
X-25912162Y-16344990D01*
X-24781583Y-17475569D01*
X-24781583Y-17475569D01*
G37*
G36*
X-26067556Y-16189597D02*
X-27340023Y-17462064D01*
X-28330510Y-16471577D01*
X-27058043Y-15199110D01*
X-26067556Y-16189597D01*
X-26067556Y-16189597D01*
G37*
G36*
X-27622936Y-17744977D02*
X-28895403Y-19017444D01*
X-29885890Y-18026957D01*
X-28613423Y-16754490D01*
X-27622936Y-17744977D01*
X-27622936Y-17744977D01*
G37*
G36*
X-26279490Y-19088423D02*
X-27551957Y-20360890D01*
X-28542444Y-19370403D01*
X-27269977Y-18097936D01*
X-26279490Y-19088423D01*
X-26279490Y-19088423D01*
G37*
G36*
X-12910736Y-14179340D02*
X-12274340Y-14815736D01*
X-12981446Y-15522842D01*
X-13617842Y-14886446D01*
X-12910736Y-14179340D01*
X-12910736Y-14179340D01*
G37*
G36*
X-13688554Y-14957158D02*
X-13052158Y-15593554D01*
X-13759264Y-16300660D01*
X-14395660Y-15664264D01*
X-13688554Y-14957158D01*
X-13688554Y-14957158D01*
G37*
G36*
X-14815736Y-12274340D02*
X-14179340Y-12910736D01*
X-14886446Y-13617842D01*
X-15522842Y-12981446D01*
X-14815736Y-12274340D01*
X-14815736Y-12274340D01*
G37*
G36*
X-15593554Y-13052158D02*
X-14957158Y-13688554D01*
X-15664264Y-14395660D01*
X-16300660Y-13759264D01*
X-15593554Y-13052158D01*
X-15593554Y-13052158D01*
G37*
G36*
X-23010869Y-21736803D02*
X-23576554Y-21171118D01*
X-22339117Y-19933681D01*
X-21773432Y-20499366D01*
X-23010869Y-21736803D01*
X-23010869Y-21736803D01*
G37*
G36*
X-22551249Y-22196423D02*
X-23116934Y-21630738D01*
X-21879497Y-20393301D01*
X-21313812Y-20958986D01*
X-22551249Y-22196423D01*
X-22551249Y-22196423D01*
G37*
G36*
X-22091630Y-22656042D02*
X-22657315Y-22090357D01*
X-21419878Y-20852920D01*
X-20854193Y-21418605D01*
X-22091630Y-22656042D01*
X-22091630Y-22656042D01*
G37*
G36*
X-21632010Y-23115661D02*
X-22197695Y-22549976D01*
X-20960258Y-21312539D01*
X-20394573Y-21878224D01*
X-21632010Y-23115661D01*
X-21632010Y-23115661D01*
G37*
G36*
X-21172391Y-23575281D02*
X-21738076Y-23009596D01*
X-20500639Y-21772159D01*
X-19934954Y-22337844D01*
X-21172391Y-23575281D01*
X-21172391Y-23575281D01*
G37*
D34*
X-23523521Y-19986714D03*
X-19987987Y-23522248D03*
D35*
X-26139816Y-21188796D03*
X-21190068Y-26138543D03*
M02*
