G04 #@! TF.FileFunction,Soldermask,Bot*
%FSLAX46Y46*%
G04 Gerber Fmt 4.6, Leading zero omitted, Abs format (unit mm)*
G04 Created by KiCad (PCBNEW 4.0.6-e0-6349~53~ubuntu14.04.1) date Tue Mar 21 08:09:45 2017*
%MOMM*%
%LPD*%
G01*
G04 APERTURE LIST*
%ADD10C,0.100000*%
%ADD11R,1.250000X0.700000*%
%ADD12R,0.700000X1.250000*%
%ADD13R,1.700000X1.700000*%
%ADD14R,2.127200X2.127200*%
%ADD15O,2.127200X2.127200*%
%ADD16R,0.900000X1.000000*%
%ADD17R,1.149300X0.798780*%
%ADD18R,0.798780X1.149300*%
%ADD19R,2.000000X1.700000*%
%ADD20C,2.127200*%
%ADD21C,1.350000*%
%ADD22C,1.400000*%
G04 APERTURE END LIST*
D10*
G36*
X167806978Y-95041907D02*
X166817029Y-96031856D01*
X166039212Y-95254039D01*
X167029161Y-94264090D01*
X167806978Y-95041907D01*
X167806978Y-95041907D01*
G37*
G36*
X166392765Y-93627693D02*
X165402816Y-94617642D01*
X164624999Y-93839825D01*
X165614948Y-92849876D01*
X166392765Y-93627693D01*
X166392765Y-93627693D01*
G37*
G36*
X164978551Y-92213479D02*
X163988602Y-93203428D01*
X163210785Y-92425611D01*
X164200734Y-91435662D01*
X164978551Y-92213479D01*
X164978551Y-92213479D01*
G37*
G36*
X163564338Y-90799266D02*
X162574389Y-91789215D01*
X161796572Y-91011398D01*
X162786521Y-90021449D01*
X163564338Y-90799266D01*
X163564338Y-90799266D01*
G37*
G36*
X162150124Y-89385052D02*
X161160175Y-90375001D01*
X160382358Y-89597184D01*
X161372307Y-88607235D01*
X162150124Y-89385052D01*
X162150124Y-89385052D01*
G37*
G36*
X160735910Y-87970839D02*
X159745961Y-88960788D01*
X158968144Y-88182971D01*
X159958093Y-87193022D01*
X160735910Y-87970839D01*
X160735910Y-87970839D01*
G37*
G36*
X160170226Y-85637386D02*
X159392408Y-86415204D01*
X158119616Y-85142412D01*
X158897434Y-84364594D01*
X160170226Y-85637386D01*
X160170226Y-85637386D01*
G37*
G36*
X161584439Y-84223172D02*
X160806621Y-85000990D01*
X159533829Y-83728198D01*
X160311647Y-82950380D01*
X161584439Y-84223172D01*
X161584439Y-84223172D01*
G37*
G36*
X162998653Y-82808959D02*
X162220835Y-83586777D01*
X160948043Y-82313985D01*
X161725861Y-81536167D01*
X162998653Y-82808959D01*
X162998653Y-82808959D01*
G37*
G36*
X164412866Y-81394745D02*
X163635048Y-82172563D01*
X162362256Y-80899771D01*
X163140074Y-80121953D01*
X164412866Y-81394745D01*
X164412866Y-81394745D01*
G37*
G36*
X165827080Y-79980532D02*
X165049262Y-80758350D01*
X163776470Y-79485558D01*
X164554288Y-78707740D01*
X165827080Y-79980532D01*
X165827080Y-79980532D01*
G37*
G36*
X167241293Y-78566318D02*
X166463475Y-79344136D01*
X165190683Y-78071344D01*
X165968501Y-77293526D01*
X167241293Y-78566318D01*
X167241293Y-78566318D01*
G37*
G36*
X168655507Y-77152105D02*
X167877689Y-77929923D01*
X166604897Y-76657131D01*
X167382715Y-75879313D01*
X168655507Y-77152105D01*
X168655507Y-77152105D01*
G37*
G36*
X170069721Y-75737891D02*
X169291903Y-76515709D01*
X168019111Y-75242917D01*
X168796929Y-74465099D01*
X170069721Y-75737891D01*
X170069721Y-75737891D01*
G37*
G36*
X170635406Y-96102566D02*
X169857588Y-96880384D01*
X168584796Y-95607592D01*
X169362614Y-94829774D01*
X170635406Y-96102566D01*
X170635406Y-96102566D01*
G37*
G36*
X172049620Y-94688353D02*
X171271802Y-95466171D01*
X169999010Y-94193379D01*
X170776828Y-93415561D01*
X172049620Y-94688353D01*
X172049620Y-94688353D01*
G37*
G36*
X173463833Y-93274139D02*
X172686015Y-94051957D01*
X171413223Y-92779165D01*
X172191041Y-92001347D01*
X173463833Y-93274139D01*
X173463833Y-93274139D01*
G37*
G36*
X174878047Y-91859926D02*
X174100229Y-92637744D01*
X172827437Y-91364952D01*
X173605255Y-90587134D01*
X174878047Y-91859926D01*
X174878047Y-91859926D01*
G37*
G36*
X176292260Y-90445712D02*
X175514442Y-91223530D01*
X174241650Y-89950738D01*
X175019468Y-89172920D01*
X176292260Y-90445712D01*
X176292260Y-90445712D01*
G37*
G36*
X177706474Y-89031499D02*
X176928656Y-89809317D01*
X175655864Y-88536525D01*
X176433682Y-87758707D01*
X177706474Y-89031499D01*
X177706474Y-89031499D01*
G37*
G36*
X179120687Y-87617285D02*
X178342869Y-88395103D01*
X177070077Y-87122311D01*
X177847895Y-86344493D01*
X179120687Y-87617285D01*
X179120687Y-87617285D01*
G37*
G36*
X180534901Y-86203071D02*
X179757083Y-86980889D01*
X178484291Y-85708097D01*
X179262109Y-84930279D01*
X180534901Y-86203071D01*
X180534901Y-86203071D01*
G37*
D11*
X151950000Y-84065000D03*
X151950000Y-84565000D03*
X151950000Y-85065000D03*
X151950000Y-85565000D03*
X151950000Y-86065000D03*
X151950000Y-86565000D03*
D12*
X151250000Y-87265000D03*
X150750000Y-87265000D03*
X150250000Y-87265000D03*
X149750000Y-87265000D03*
X149250000Y-87265000D03*
X148750000Y-87265000D03*
D11*
X148050000Y-86565000D03*
X148050000Y-86065000D03*
X148050000Y-85565000D03*
X148050000Y-85065000D03*
X148050000Y-84565000D03*
X148050000Y-84065000D03*
D12*
X148750000Y-83365000D03*
X149250000Y-83365000D03*
X149750000Y-83365000D03*
X150250000Y-83365000D03*
X150750000Y-83365000D03*
X151250000Y-83365000D03*
D13*
X149350000Y-85965000D03*
X149350000Y-84665000D03*
X150650000Y-85965000D03*
X150650000Y-84665000D03*
D10*
G36*
X126033559Y-88026845D02*
X126740666Y-87319738D01*
X128084169Y-88663241D01*
X127377062Y-89370348D01*
X126033559Y-88026845D01*
X126033559Y-88026845D01*
G37*
G36*
X126931584Y-87128819D02*
X127638691Y-86421712D01*
X128982194Y-87765215D01*
X128275087Y-88472322D01*
X126931584Y-87128819D01*
X126931584Y-87128819D01*
G37*
G36*
X127829610Y-86230794D02*
X128536717Y-85523687D01*
X129880220Y-86867190D01*
X129173113Y-87574297D01*
X127829610Y-86230794D01*
X127829610Y-86230794D01*
G37*
G36*
X128727636Y-85332768D02*
X129434743Y-84625661D01*
X130778246Y-85969164D01*
X130071139Y-86676271D01*
X128727636Y-85332768D01*
X128727636Y-85332768D01*
G37*
G36*
X129625661Y-84434743D02*
X130332768Y-83727636D01*
X131676271Y-85071139D01*
X130969164Y-85778246D01*
X129625661Y-84434743D01*
X129625661Y-84434743D01*
G37*
G36*
X130523687Y-83536717D02*
X131230794Y-82829610D01*
X132574297Y-84173113D01*
X131867190Y-84880220D01*
X130523687Y-83536717D01*
X130523687Y-83536717D01*
G37*
G36*
X131421712Y-82638691D02*
X132128819Y-81931584D01*
X133472322Y-83275087D01*
X132765215Y-83982194D01*
X131421712Y-82638691D01*
X131421712Y-82638691D01*
G37*
G36*
X132319738Y-81740666D02*
X133026845Y-81033559D01*
X134370348Y-82377062D01*
X133663241Y-83084169D01*
X132319738Y-81740666D01*
X132319738Y-81740666D01*
G37*
G36*
X138895831Y-88316759D02*
X139602938Y-87609652D01*
X140946441Y-88953155D01*
X140239334Y-89660262D01*
X138895831Y-88316759D01*
X138895831Y-88316759D01*
G37*
G36*
X137997806Y-89214785D02*
X138704913Y-88507678D01*
X140048416Y-89851181D01*
X139341309Y-90558288D01*
X137997806Y-89214785D01*
X137997806Y-89214785D01*
G37*
G36*
X137099780Y-90112810D02*
X137806887Y-89405703D01*
X139150390Y-90749206D01*
X138443283Y-91456313D01*
X137099780Y-90112810D01*
X137099780Y-90112810D01*
G37*
G36*
X136201754Y-91010836D02*
X136908861Y-90303729D01*
X138252364Y-91647232D01*
X137545257Y-92354339D01*
X136201754Y-91010836D01*
X136201754Y-91010836D01*
G37*
G36*
X135303729Y-91908861D02*
X136010836Y-91201754D01*
X137354339Y-92545257D01*
X136647232Y-93252364D01*
X135303729Y-91908861D01*
X135303729Y-91908861D01*
G37*
G36*
X134405703Y-92806887D02*
X135112810Y-92099780D01*
X136456313Y-93443283D01*
X135749206Y-94150390D01*
X134405703Y-92806887D01*
X134405703Y-92806887D01*
G37*
G36*
X133507678Y-93704913D02*
X134214785Y-92997806D01*
X135558288Y-94341309D01*
X134851181Y-95048416D01*
X133507678Y-93704913D01*
X133507678Y-93704913D01*
G37*
G36*
X132609652Y-94602938D02*
X133316759Y-93895831D01*
X134660262Y-95239334D01*
X133953155Y-95946441D01*
X132609652Y-94602938D01*
X132609652Y-94602938D01*
G37*
G36*
X137980128Y-119848299D02*
X136565914Y-118434085D01*
X138050838Y-116949161D01*
X139465052Y-118363375D01*
X137980128Y-119848299D01*
X137980128Y-119848299D01*
G37*
G36*
X139394342Y-121262513D02*
X137980128Y-119848299D01*
X139465052Y-118363375D01*
X140879266Y-119777589D01*
X139394342Y-121262513D01*
X139394342Y-121262513D01*
G37*
G36*
X136565915Y-118434086D02*
X135151701Y-117019872D01*
X136636625Y-115534948D01*
X138050839Y-116949162D01*
X136565915Y-118434086D01*
X136565915Y-118434086D01*
G37*
G36*
X135151701Y-117019872D02*
X133737487Y-115605658D01*
X135222411Y-114120734D01*
X136636625Y-115534948D01*
X135151701Y-117019872D01*
X135151701Y-117019872D01*
G37*
G36*
X127514948Y-124656625D02*
X126100734Y-123242411D01*
X127585658Y-121757487D01*
X128999872Y-123171701D01*
X127514948Y-124656625D01*
X127514948Y-124656625D01*
G37*
G36*
X128929162Y-126070839D02*
X127514948Y-124656625D01*
X128999872Y-123171701D01*
X130414086Y-124585915D01*
X128929162Y-126070839D01*
X128929162Y-126070839D01*
G37*
G36*
X131757589Y-128899266D02*
X130343375Y-127485052D01*
X131828299Y-126000128D01*
X133242513Y-127414342D01*
X131757589Y-128899266D01*
X131757589Y-128899266D01*
G37*
G36*
X130343375Y-127485052D02*
X128929161Y-126070838D01*
X130414085Y-124585914D01*
X131828299Y-126000128D01*
X130343375Y-127485052D01*
X130343375Y-127485052D01*
G37*
G36*
X164690143Y-106820800D02*
X164195169Y-107315774D01*
X162816311Y-105936916D01*
X163311285Y-105441942D01*
X164690143Y-106820800D01*
X164690143Y-106820800D01*
G37*
G36*
X164336590Y-107174354D02*
X163841616Y-107669328D01*
X162462758Y-106290470D01*
X162957732Y-105795496D01*
X164336590Y-107174354D01*
X164336590Y-107174354D01*
G37*
G36*
X163983036Y-107527907D02*
X163488062Y-108022881D01*
X162109204Y-106644023D01*
X162604178Y-106149049D01*
X163983036Y-107527907D01*
X163983036Y-107527907D01*
G37*
G36*
X163629483Y-107881460D02*
X163134509Y-108376434D01*
X161755651Y-106997576D01*
X162250625Y-106502602D01*
X163629483Y-107881460D01*
X163629483Y-107881460D01*
G37*
G36*
X163275929Y-108235014D02*
X162780955Y-108729988D01*
X161402097Y-107351130D01*
X161897071Y-106856156D01*
X163275929Y-108235014D01*
X163275929Y-108235014D01*
G37*
G36*
X162922376Y-108588567D02*
X162427402Y-109083541D01*
X161048544Y-107704683D01*
X161543518Y-107209709D01*
X162922376Y-108588567D01*
X162922376Y-108588567D01*
G37*
G36*
X162568823Y-108942121D02*
X162073849Y-109437095D01*
X160694991Y-108058237D01*
X161189965Y-107563263D01*
X162568823Y-108942121D01*
X162568823Y-108942121D01*
G37*
G36*
X162215269Y-109295674D02*
X161720295Y-109790648D01*
X160341437Y-108411790D01*
X160836411Y-107916816D01*
X162215269Y-109295674D01*
X162215269Y-109295674D01*
G37*
G36*
X161861716Y-109649227D02*
X161366742Y-110144201D01*
X159987884Y-108765343D01*
X160482858Y-108270369D01*
X161861716Y-109649227D01*
X161861716Y-109649227D01*
G37*
G36*
X161508162Y-110002781D02*
X161013188Y-110497755D01*
X159634330Y-109118897D01*
X160129304Y-108623923D01*
X161508162Y-110002781D01*
X161508162Y-110002781D01*
G37*
G36*
X161154609Y-110356334D02*
X160659635Y-110851308D01*
X159280777Y-109472450D01*
X159775751Y-108977476D01*
X161154609Y-110356334D01*
X161154609Y-110356334D01*
G37*
G36*
X160801056Y-110709888D02*
X160306082Y-111204862D01*
X158927224Y-109826004D01*
X159422198Y-109331030D01*
X160801056Y-110709888D01*
X160801056Y-110709888D01*
G37*
G36*
X160447502Y-111063441D02*
X159952528Y-111558415D01*
X158573670Y-110179557D01*
X159068644Y-109684583D01*
X160447502Y-111063441D01*
X160447502Y-111063441D01*
G37*
G36*
X160093949Y-111416994D02*
X159598975Y-111911968D01*
X158220117Y-110533110D01*
X158715091Y-110038136D01*
X160093949Y-111416994D01*
X160093949Y-111416994D01*
G37*
G36*
X159740395Y-111770548D02*
X159245421Y-112265522D01*
X157866563Y-110886664D01*
X158361537Y-110391690D01*
X159740395Y-111770548D01*
X159740395Y-111770548D01*
G37*
G36*
X159386842Y-112124101D02*
X158891868Y-112619075D01*
X157513010Y-111240217D01*
X158007984Y-110745243D01*
X159386842Y-112124101D01*
X159386842Y-112124101D01*
G37*
G36*
X159033289Y-112477654D02*
X158538315Y-112972628D01*
X157159457Y-111593770D01*
X157654431Y-111098796D01*
X159033289Y-112477654D01*
X159033289Y-112477654D01*
G37*
G36*
X158679735Y-112831208D02*
X158184761Y-113326182D01*
X156805903Y-111947324D01*
X157300877Y-111452350D01*
X158679735Y-112831208D01*
X158679735Y-112831208D01*
G37*
G36*
X158326182Y-113184761D02*
X157831208Y-113679735D01*
X156452350Y-112300877D01*
X156947324Y-111805903D01*
X158326182Y-113184761D01*
X158326182Y-113184761D01*
G37*
G36*
X157972628Y-113538315D02*
X157477654Y-114033289D01*
X156098796Y-112654431D01*
X156593770Y-112159457D01*
X157972628Y-113538315D01*
X157972628Y-113538315D01*
G37*
G36*
X157619075Y-113891868D02*
X157124101Y-114386842D01*
X155745243Y-113007984D01*
X156240217Y-112513010D01*
X157619075Y-113891868D01*
X157619075Y-113891868D01*
G37*
G36*
X157265522Y-114245421D02*
X156770548Y-114740395D01*
X155391690Y-113361537D01*
X155886664Y-112866563D01*
X157265522Y-114245421D01*
X157265522Y-114245421D01*
G37*
G36*
X156911968Y-114598975D02*
X156416994Y-115093949D01*
X155038136Y-113715091D01*
X155533110Y-113220117D01*
X156911968Y-114598975D01*
X156911968Y-114598975D01*
G37*
G36*
X156558415Y-114952528D02*
X156063441Y-115447502D01*
X154684583Y-114068644D01*
X155179557Y-113573670D01*
X156558415Y-114952528D01*
X156558415Y-114952528D01*
G37*
G36*
X156204862Y-115306082D02*
X155709888Y-115801056D01*
X154331030Y-114422198D01*
X154826004Y-113927224D01*
X156204862Y-115306082D01*
X156204862Y-115306082D01*
G37*
G36*
X155851308Y-115659635D02*
X155356334Y-116154609D01*
X153977476Y-114775751D01*
X154472450Y-114280777D01*
X155851308Y-115659635D01*
X155851308Y-115659635D01*
G37*
G36*
X155497755Y-116013188D02*
X155002781Y-116508162D01*
X153623923Y-115129304D01*
X154118897Y-114634330D01*
X155497755Y-116013188D01*
X155497755Y-116013188D01*
G37*
G36*
X155144201Y-116366742D02*
X154649227Y-116861716D01*
X153270369Y-115482858D01*
X153765343Y-114987884D01*
X155144201Y-116366742D01*
X155144201Y-116366742D01*
G37*
G36*
X154790648Y-116720295D02*
X154295674Y-117215269D01*
X152916816Y-115836411D01*
X153411790Y-115341437D01*
X154790648Y-116720295D01*
X154790648Y-116720295D01*
G37*
G36*
X154437095Y-117073849D02*
X153942121Y-117568823D01*
X152563263Y-116189965D01*
X153058237Y-115694991D01*
X154437095Y-117073849D01*
X154437095Y-117073849D01*
G37*
G36*
X154083541Y-117427402D02*
X153588567Y-117922376D01*
X152209709Y-116543518D01*
X152704683Y-116048544D01*
X154083541Y-117427402D01*
X154083541Y-117427402D01*
G37*
G36*
X153729988Y-117780955D02*
X153235014Y-118275929D01*
X151856156Y-116897071D01*
X152351130Y-116402097D01*
X153729988Y-117780955D01*
X153729988Y-117780955D01*
G37*
G36*
X153376434Y-118134509D02*
X152881460Y-118629483D01*
X151502602Y-117250625D01*
X151997576Y-116755651D01*
X153376434Y-118134509D01*
X153376434Y-118134509D01*
G37*
G36*
X153022881Y-118488062D02*
X152527907Y-118983036D01*
X151149049Y-117604178D01*
X151644023Y-117109204D01*
X153022881Y-118488062D01*
X153022881Y-118488062D01*
G37*
G36*
X152669328Y-118841616D02*
X152174354Y-119336590D01*
X150795496Y-117957732D01*
X151290470Y-117462758D01*
X152669328Y-118841616D01*
X152669328Y-118841616D01*
G37*
G36*
X152315774Y-119195169D02*
X151820800Y-119690143D01*
X150441942Y-118311285D01*
X150936916Y-117816311D01*
X152315774Y-119195169D01*
X152315774Y-119195169D01*
G37*
G36*
X148179200Y-119690143D02*
X147684226Y-119195169D01*
X149063084Y-117816311D01*
X149558058Y-118311285D01*
X148179200Y-119690143D01*
X148179200Y-119690143D01*
G37*
G36*
X147825646Y-119336590D02*
X147330672Y-118841616D01*
X148709530Y-117462758D01*
X149204504Y-117957732D01*
X147825646Y-119336590D01*
X147825646Y-119336590D01*
G37*
G36*
X147472093Y-118983036D02*
X146977119Y-118488062D01*
X148355977Y-117109204D01*
X148850951Y-117604178D01*
X147472093Y-118983036D01*
X147472093Y-118983036D01*
G37*
G36*
X147118540Y-118629483D02*
X146623566Y-118134509D01*
X148002424Y-116755651D01*
X148497398Y-117250625D01*
X147118540Y-118629483D01*
X147118540Y-118629483D01*
G37*
G36*
X146764986Y-118275929D02*
X146270012Y-117780955D01*
X147648870Y-116402097D01*
X148143844Y-116897071D01*
X146764986Y-118275929D01*
X146764986Y-118275929D01*
G37*
G36*
X146411433Y-117922376D02*
X145916459Y-117427402D01*
X147295317Y-116048544D01*
X147790291Y-116543518D01*
X146411433Y-117922376D01*
X146411433Y-117922376D01*
G37*
G36*
X146057879Y-117568823D02*
X145562905Y-117073849D01*
X146941763Y-115694991D01*
X147436737Y-116189965D01*
X146057879Y-117568823D01*
X146057879Y-117568823D01*
G37*
G36*
X145704326Y-117215269D02*
X145209352Y-116720295D01*
X146588210Y-115341437D01*
X147083184Y-115836411D01*
X145704326Y-117215269D01*
X145704326Y-117215269D01*
G37*
G36*
X145350773Y-116861716D02*
X144855799Y-116366742D01*
X146234657Y-114987884D01*
X146729631Y-115482858D01*
X145350773Y-116861716D01*
X145350773Y-116861716D01*
G37*
G36*
X144997219Y-116508162D02*
X144502245Y-116013188D01*
X145881103Y-114634330D01*
X146376077Y-115129304D01*
X144997219Y-116508162D01*
X144997219Y-116508162D01*
G37*
G36*
X144643666Y-116154609D02*
X144148692Y-115659635D01*
X145527550Y-114280777D01*
X146022524Y-114775751D01*
X144643666Y-116154609D01*
X144643666Y-116154609D01*
G37*
G36*
X144290112Y-115801056D02*
X143795138Y-115306082D01*
X145173996Y-113927224D01*
X145668970Y-114422198D01*
X144290112Y-115801056D01*
X144290112Y-115801056D01*
G37*
G36*
X143936559Y-115447502D02*
X143441585Y-114952528D01*
X144820443Y-113573670D01*
X145315417Y-114068644D01*
X143936559Y-115447502D01*
X143936559Y-115447502D01*
G37*
G36*
X143583006Y-115093949D02*
X143088032Y-114598975D01*
X144466890Y-113220117D01*
X144961864Y-113715091D01*
X143583006Y-115093949D01*
X143583006Y-115093949D01*
G37*
G36*
X143229452Y-114740395D02*
X142734478Y-114245421D01*
X144113336Y-112866563D01*
X144608310Y-113361537D01*
X143229452Y-114740395D01*
X143229452Y-114740395D01*
G37*
G36*
X142875899Y-114386842D02*
X142380925Y-113891868D01*
X143759783Y-112513010D01*
X144254757Y-113007984D01*
X142875899Y-114386842D01*
X142875899Y-114386842D01*
G37*
G36*
X142522346Y-114033289D02*
X142027372Y-113538315D01*
X143406230Y-112159457D01*
X143901204Y-112654431D01*
X142522346Y-114033289D01*
X142522346Y-114033289D01*
G37*
G36*
X142168792Y-113679735D02*
X141673818Y-113184761D01*
X143052676Y-111805903D01*
X143547650Y-112300877D01*
X142168792Y-113679735D01*
X142168792Y-113679735D01*
G37*
G36*
X141815239Y-113326182D02*
X141320265Y-112831208D01*
X142699123Y-111452350D01*
X143194097Y-111947324D01*
X141815239Y-113326182D01*
X141815239Y-113326182D01*
G37*
G36*
X141461685Y-112972628D02*
X140966711Y-112477654D01*
X142345569Y-111098796D01*
X142840543Y-111593770D01*
X141461685Y-112972628D01*
X141461685Y-112972628D01*
G37*
G36*
X141108132Y-112619075D02*
X140613158Y-112124101D01*
X141992016Y-110745243D01*
X142486990Y-111240217D01*
X141108132Y-112619075D01*
X141108132Y-112619075D01*
G37*
G36*
X140754579Y-112265522D02*
X140259605Y-111770548D01*
X141638463Y-110391690D01*
X142133437Y-110886664D01*
X140754579Y-112265522D01*
X140754579Y-112265522D01*
G37*
G36*
X140401025Y-111911968D02*
X139906051Y-111416994D01*
X141284909Y-110038136D01*
X141779883Y-110533110D01*
X140401025Y-111911968D01*
X140401025Y-111911968D01*
G37*
G36*
X140047472Y-111558415D02*
X139552498Y-111063441D01*
X140931356Y-109684583D01*
X141426330Y-110179557D01*
X140047472Y-111558415D01*
X140047472Y-111558415D01*
G37*
G36*
X139693918Y-111204862D02*
X139198944Y-110709888D01*
X140577802Y-109331030D01*
X141072776Y-109826004D01*
X139693918Y-111204862D01*
X139693918Y-111204862D01*
G37*
G36*
X139340365Y-110851308D02*
X138845391Y-110356334D01*
X140224249Y-108977476D01*
X140719223Y-109472450D01*
X139340365Y-110851308D01*
X139340365Y-110851308D01*
G37*
G36*
X138986812Y-110497755D02*
X138491838Y-110002781D01*
X139870696Y-108623923D01*
X140365670Y-109118897D01*
X138986812Y-110497755D01*
X138986812Y-110497755D01*
G37*
G36*
X138633258Y-110144201D02*
X138138284Y-109649227D01*
X139517142Y-108270369D01*
X140012116Y-108765343D01*
X138633258Y-110144201D01*
X138633258Y-110144201D01*
G37*
G36*
X138279705Y-109790648D02*
X137784731Y-109295674D01*
X139163589Y-107916816D01*
X139658563Y-108411790D01*
X138279705Y-109790648D01*
X138279705Y-109790648D01*
G37*
G36*
X137926151Y-109437095D02*
X137431177Y-108942121D01*
X138810035Y-107563263D01*
X139305009Y-108058237D01*
X137926151Y-109437095D01*
X137926151Y-109437095D01*
G37*
G36*
X137572598Y-109083541D02*
X137077624Y-108588567D01*
X138456482Y-107209709D01*
X138951456Y-107704683D01*
X137572598Y-109083541D01*
X137572598Y-109083541D01*
G37*
G36*
X137219045Y-108729988D02*
X136724071Y-108235014D01*
X138102929Y-106856156D01*
X138597903Y-107351130D01*
X137219045Y-108729988D01*
X137219045Y-108729988D01*
G37*
G36*
X136865491Y-108376434D02*
X136370517Y-107881460D01*
X137749375Y-106502602D01*
X138244349Y-106997576D01*
X136865491Y-108376434D01*
X136865491Y-108376434D01*
G37*
G36*
X136511938Y-108022881D02*
X136016964Y-107527907D01*
X137395822Y-106149049D01*
X137890796Y-106644023D01*
X136511938Y-108022881D01*
X136511938Y-108022881D01*
G37*
G36*
X136158384Y-107669328D02*
X135663410Y-107174354D01*
X137042268Y-105795496D01*
X137537242Y-106290470D01*
X136158384Y-107669328D01*
X136158384Y-107669328D01*
G37*
G36*
X135804831Y-107315774D02*
X135309857Y-106820800D01*
X136688715Y-105441942D01*
X137183689Y-105936916D01*
X135804831Y-107315774D01*
X135804831Y-107315774D01*
G37*
G36*
X137183689Y-104063084D02*
X136688715Y-104558058D01*
X135309857Y-103179200D01*
X135804831Y-102684226D01*
X137183689Y-104063084D01*
X137183689Y-104063084D01*
G37*
G36*
X137537242Y-103709530D02*
X137042268Y-104204504D01*
X135663410Y-102825646D01*
X136158384Y-102330672D01*
X137537242Y-103709530D01*
X137537242Y-103709530D01*
G37*
G36*
X137890796Y-103355977D02*
X137395822Y-103850951D01*
X136016964Y-102472093D01*
X136511938Y-101977119D01*
X137890796Y-103355977D01*
X137890796Y-103355977D01*
G37*
G36*
X138244349Y-103002424D02*
X137749375Y-103497398D01*
X136370517Y-102118540D01*
X136865491Y-101623566D01*
X138244349Y-103002424D01*
X138244349Y-103002424D01*
G37*
G36*
X138597903Y-102648870D02*
X138102929Y-103143844D01*
X136724071Y-101764986D01*
X137219045Y-101270012D01*
X138597903Y-102648870D01*
X138597903Y-102648870D01*
G37*
G36*
X138951456Y-102295317D02*
X138456482Y-102790291D01*
X137077624Y-101411433D01*
X137572598Y-100916459D01*
X138951456Y-102295317D01*
X138951456Y-102295317D01*
G37*
G36*
X139305009Y-101941763D02*
X138810035Y-102436737D01*
X137431177Y-101057879D01*
X137926151Y-100562905D01*
X139305009Y-101941763D01*
X139305009Y-101941763D01*
G37*
G36*
X139658563Y-101588210D02*
X139163589Y-102083184D01*
X137784731Y-100704326D01*
X138279705Y-100209352D01*
X139658563Y-101588210D01*
X139658563Y-101588210D01*
G37*
G36*
X140012116Y-101234657D02*
X139517142Y-101729631D01*
X138138284Y-100350773D01*
X138633258Y-99855799D01*
X140012116Y-101234657D01*
X140012116Y-101234657D01*
G37*
G36*
X140365670Y-100881103D02*
X139870696Y-101376077D01*
X138491838Y-99997219D01*
X138986812Y-99502245D01*
X140365670Y-100881103D01*
X140365670Y-100881103D01*
G37*
G36*
X140719223Y-100527550D02*
X140224249Y-101022524D01*
X138845391Y-99643666D01*
X139340365Y-99148692D01*
X140719223Y-100527550D01*
X140719223Y-100527550D01*
G37*
G36*
X141072776Y-100173996D02*
X140577802Y-100668970D01*
X139198944Y-99290112D01*
X139693918Y-98795138D01*
X141072776Y-100173996D01*
X141072776Y-100173996D01*
G37*
G36*
X141426330Y-99820443D02*
X140931356Y-100315417D01*
X139552498Y-98936559D01*
X140047472Y-98441585D01*
X141426330Y-99820443D01*
X141426330Y-99820443D01*
G37*
G36*
X141779883Y-99466890D02*
X141284909Y-99961864D01*
X139906051Y-98583006D01*
X140401025Y-98088032D01*
X141779883Y-99466890D01*
X141779883Y-99466890D01*
G37*
G36*
X142133437Y-99113336D02*
X141638463Y-99608310D01*
X140259605Y-98229452D01*
X140754579Y-97734478D01*
X142133437Y-99113336D01*
X142133437Y-99113336D01*
G37*
G36*
X142486990Y-98759783D02*
X141992016Y-99254757D01*
X140613158Y-97875899D01*
X141108132Y-97380925D01*
X142486990Y-98759783D01*
X142486990Y-98759783D01*
G37*
G36*
X142840543Y-98406230D02*
X142345569Y-98901204D01*
X140966711Y-97522346D01*
X141461685Y-97027372D01*
X142840543Y-98406230D01*
X142840543Y-98406230D01*
G37*
G36*
X143194097Y-98052676D02*
X142699123Y-98547650D01*
X141320265Y-97168792D01*
X141815239Y-96673818D01*
X143194097Y-98052676D01*
X143194097Y-98052676D01*
G37*
G36*
X143547650Y-97699123D02*
X143052676Y-98194097D01*
X141673818Y-96815239D01*
X142168792Y-96320265D01*
X143547650Y-97699123D01*
X143547650Y-97699123D01*
G37*
G36*
X143901204Y-97345569D02*
X143406230Y-97840543D01*
X142027372Y-96461685D01*
X142522346Y-95966711D01*
X143901204Y-97345569D01*
X143901204Y-97345569D01*
G37*
G36*
X144254757Y-96992016D02*
X143759783Y-97486990D01*
X142380925Y-96108132D01*
X142875899Y-95613158D01*
X144254757Y-96992016D01*
X144254757Y-96992016D01*
G37*
G36*
X144608310Y-96638463D02*
X144113336Y-97133437D01*
X142734478Y-95754579D01*
X143229452Y-95259605D01*
X144608310Y-96638463D01*
X144608310Y-96638463D01*
G37*
G36*
X144961864Y-96284909D02*
X144466890Y-96779883D01*
X143088032Y-95401025D01*
X143583006Y-94906051D01*
X144961864Y-96284909D01*
X144961864Y-96284909D01*
G37*
G36*
X145315417Y-95931356D02*
X144820443Y-96426330D01*
X143441585Y-95047472D01*
X143936559Y-94552498D01*
X145315417Y-95931356D01*
X145315417Y-95931356D01*
G37*
G36*
X145668970Y-95577802D02*
X145173996Y-96072776D01*
X143795138Y-94693918D01*
X144290112Y-94198944D01*
X145668970Y-95577802D01*
X145668970Y-95577802D01*
G37*
G36*
X146022524Y-95224249D02*
X145527550Y-95719223D01*
X144148692Y-94340365D01*
X144643666Y-93845391D01*
X146022524Y-95224249D01*
X146022524Y-95224249D01*
G37*
G36*
X146376077Y-94870696D02*
X145881103Y-95365670D01*
X144502245Y-93986812D01*
X144997219Y-93491838D01*
X146376077Y-94870696D01*
X146376077Y-94870696D01*
G37*
G36*
X146729631Y-94517142D02*
X146234657Y-95012116D01*
X144855799Y-93633258D01*
X145350773Y-93138284D01*
X146729631Y-94517142D01*
X146729631Y-94517142D01*
G37*
G36*
X147083184Y-94163589D02*
X146588210Y-94658563D01*
X145209352Y-93279705D01*
X145704326Y-92784731D01*
X147083184Y-94163589D01*
X147083184Y-94163589D01*
G37*
G36*
X147436737Y-93810035D02*
X146941763Y-94305009D01*
X145562905Y-92926151D01*
X146057879Y-92431177D01*
X147436737Y-93810035D01*
X147436737Y-93810035D01*
G37*
G36*
X147790291Y-93456482D02*
X147295317Y-93951456D01*
X145916459Y-92572598D01*
X146411433Y-92077624D01*
X147790291Y-93456482D01*
X147790291Y-93456482D01*
G37*
G36*
X148143844Y-93102929D02*
X147648870Y-93597903D01*
X146270012Y-92219045D01*
X146764986Y-91724071D01*
X148143844Y-93102929D01*
X148143844Y-93102929D01*
G37*
G36*
X148497398Y-92749375D02*
X148002424Y-93244349D01*
X146623566Y-91865491D01*
X147118540Y-91370517D01*
X148497398Y-92749375D01*
X148497398Y-92749375D01*
G37*
G36*
X148850951Y-92395822D02*
X148355977Y-92890796D01*
X146977119Y-91511938D01*
X147472093Y-91016964D01*
X148850951Y-92395822D01*
X148850951Y-92395822D01*
G37*
G36*
X149204504Y-92042268D02*
X148709530Y-92537242D01*
X147330672Y-91158384D01*
X147825646Y-90663410D01*
X149204504Y-92042268D01*
X149204504Y-92042268D01*
G37*
G36*
X149558058Y-91688715D02*
X149063084Y-92183689D01*
X147684226Y-90804831D01*
X148179200Y-90309857D01*
X149558058Y-91688715D01*
X149558058Y-91688715D01*
G37*
G36*
X150936916Y-92183689D02*
X150441942Y-91688715D01*
X151820800Y-90309857D01*
X152315774Y-90804831D01*
X150936916Y-92183689D01*
X150936916Y-92183689D01*
G37*
G36*
X151290470Y-92537242D02*
X150795496Y-92042268D01*
X152174354Y-90663410D01*
X152669328Y-91158384D01*
X151290470Y-92537242D01*
X151290470Y-92537242D01*
G37*
G36*
X151644023Y-92890796D02*
X151149049Y-92395822D01*
X152527907Y-91016964D01*
X153022881Y-91511938D01*
X151644023Y-92890796D01*
X151644023Y-92890796D01*
G37*
G36*
X151997576Y-93244349D02*
X151502602Y-92749375D01*
X152881460Y-91370517D01*
X153376434Y-91865491D01*
X151997576Y-93244349D01*
X151997576Y-93244349D01*
G37*
G36*
X152351130Y-93597903D02*
X151856156Y-93102929D01*
X153235014Y-91724071D01*
X153729988Y-92219045D01*
X152351130Y-93597903D01*
X152351130Y-93597903D01*
G37*
G36*
X152704683Y-93951456D02*
X152209709Y-93456482D01*
X153588567Y-92077624D01*
X154083541Y-92572598D01*
X152704683Y-93951456D01*
X152704683Y-93951456D01*
G37*
G36*
X153058237Y-94305009D02*
X152563263Y-93810035D01*
X153942121Y-92431177D01*
X154437095Y-92926151D01*
X153058237Y-94305009D01*
X153058237Y-94305009D01*
G37*
G36*
X153411790Y-94658563D02*
X152916816Y-94163589D01*
X154295674Y-92784731D01*
X154790648Y-93279705D01*
X153411790Y-94658563D01*
X153411790Y-94658563D01*
G37*
G36*
X153765343Y-95012116D02*
X153270369Y-94517142D01*
X154649227Y-93138284D01*
X155144201Y-93633258D01*
X153765343Y-95012116D01*
X153765343Y-95012116D01*
G37*
G36*
X154118897Y-95365670D02*
X153623923Y-94870696D01*
X155002781Y-93491838D01*
X155497755Y-93986812D01*
X154118897Y-95365670D01*
X154118897Y-95365670D01*
G37*
G36*
X154472450Y-95719223D02*
X153977476Y-95224249D01*
X155356334Y-93845391D01*
X155851308Y-94340365D01*
X154472450Y-95719223D01*
X154472450Y-95719223D01*
G37*
G36*
X154826004Y-96072776D02*
X154331030Y-95577802D01*
X155709888Y-94198944D01*
X156204862Y-94693918D01*
X154826004Y-96072776D01*
X154826004Y-96072776D01*
G37*
G36*
X155179557Y-96426330D02*
X154684583Y-95931356D01*
X156063441Y-94552498D01*
X156558415Y-95047472D01*
X155179557Y-96426330D01*
X155179557Y-96426330D01*
G37*
G36*
X155533110Y-96779883D02*
X155038136Y-96284909D01*
X156416994Y-94906051D01*
X156911968Y-95401025D01*
X155533110Y-96779883D01*
X155533110Y-96779883D01*
G37*
G36*
X155886664Y-97133437D02*
X155391690Y-96638463D01*
X156770548Y-95259605D01*
X157265522Y-95754579D01*
X155886664Y-97133437D01*
X155886664Y-97133437D01*
G37*
G36*
X156240217Y-97486990D02*
X155745243Y-96992016D01*
X157124101Y-95613158D01*
X157619075Y-96108132D01*
X156240217Y-97486990D01*
X156240217Y-97486990D01*
G37*
G36*
X156593770Y-97840543D02*
X156098796Y-97345569D01*
X157477654Y-95966711D01*
X157972628Y-96461685D01*
X156593770Y-97840543D01*
X156593770Y-97840543D01*
G37*
G36*
X156947324Y-98194097D02*
X156452350Y-97699123D01*
X157831208Y-96320265D01*
X158326182Y-96815239D01*
X156947324Y-98194097D01*
X156947324Y-98194097D01*
G37*
G36*
X157300877Y-98547650D02*
X156805903Y-98052676D01*
X158184761Y-96673818D01*
X158679735Y-97168792D01*
X157300877Y-98547650D01*
X157300877Y-98547650D01*
G37*
G36*
X157654431Y-98901204D02*
X157159457Y-98406230D01*
X158538315Y-97027372D01*
X159033289Y-97522346D01*
X157654431Y-98901204D01*
X157654431Y-98901204D01*
G37*
G36*
X158007984Y-99254757D02*
X157513010Y-98759783D01*
X158891868Y-97380925D01*
X159386842Y-97875899D01*
X158007984Y-99254757D01*
X158007984Y-99254757D01*
G37*
G36*
X158361537Y-99608310D02*
X157866563Y-99113336D01*
X159245421Y-97734478D01*
X159740395Y-98229452D01*
X158361537Y-99608310D01*
X158361537Y-99608310D01*
G37*
G36*
X158715091Y-99961864D02*
X158220117Y-99466890D01*
X159598975Y-98088032D01*
X160093949Y-98583006D01*
X158715091Y-99961864D01*
X158715091Y-99961864D01*
G37*
G36*
X159068644Y-100315417D02*
X158573670Y-99820443D01*
X159952528Y-98441585D01*
X160447502Y-98936559D01*
X159068644Y-100315417D01*
X159068644Y-100315417D01*
G37*
G36*
X159422198Y-100668970D02*
X158927224Y-100173996D01*
X160306082Y-98795138D01*
X160801056Y-99290112D01*
X159422198Y-100668970D01*
X159422198Y-100668970D01*
G37*
G36*
X159775751Y-101022524D02*
X159280777Y-100527550D01*
X160659635Y-99148692D01*
X161154609Y-99643666D01*
X159775751Y-101022524D01*
X159775751Y-101022524D01*
G37*
G36*
X160129304Y-101376077D02*
X159634330Y-100881103D01*
X161013188Y-99502245D01*
X161508162Y-99997219D01*
X160129304Y-101376077D01*
X160129304Y-101376077D01*
G37*
G36*
X160482858Y-101729631D02*
X159987884Y-101234657D01*
X161366742Y-99855799D01*
X161861716Y-100350773D01*
X160482858Y-101729631D01*
X160482858Y-101729631D01*
G37*
G36*
X160836411Y-102083184D02*
X160341437Y-101588210D01*
X161720295Y-100209352D01*
X162215269Y-100704326D01*
X160836411Y-102083184D01*
X160836411Y-102083184D01*
G37*
G36*
X161189965Y-102436737D02*
X160694991Y-101941763D01*
X162073849Y-100562905D01*
X162568823Y-101057879D01*
X161189965Y-102436737D01*
X161189965Y-102436737D01*
G37*
G36*
X161543518Y-102790291D02*
X161048544Y-102295317D01*
X162427402Y-100916459D01*
X162922376Y-101411433D01*
X161543518Y-102790291D01*
X161543518Y-102790291D01*
G37*
G36*
X161897071Y-103143844D02*
X161402097Y-102648870D01*
X162780955Y-101270012D01*
X163275929Y-101764986D01*
X161897071Y-103143844D01*
X161897071Y-103143844D01*
G37*
G36*
X162250625Y-103497398D02*
X161755651Y-103002424D01*
X163134509Y-101623566D01*
X163629483Y-102118540D01*
X162250625Y-103497398D01*
X162250625Y-103497398D01*
G37*
G36*
X162604178Y-103850951D02*
X162109204Y-103355977D01*
X163488062Y-101977119D01*
X163983036Y-102472093D01*
X162604178Y-103850951D01*
X162604178Y-103850951D01*
G37*
G36*
X162957732Y-104204504D02*
X162462758Y-103709530D01*
X163841616Y-102330672D01*
X164336590Y-102825646D01*
X162957732Y-104204504D01*
X162957732Y-104204504D01*
G37*
G36*
X163311285Y-104558058D02*
X162816311Y-104063084D01*
X164195169Y-102684226D01*
X164690143Y-103179200D01*
X163311285Y-104558058D01*
X163311285Y-104558058D01*
G37*
G36*
X173966441Y-121973155D02*
X173259334Y-122680262D01*
X171915831Y-121336759D01*
X172622938Y-120629652D01*
X173966441Y-121973155D01*
X173966441Y-121973155D01*
G37*
G36*
X173068416Y-122871181D02*
X172361309Y-123578288D01*
X171017806Y-122234785D01*
X171724913Y-121527678D01*
X173068416Y-122871181D01*
X173068416Y-122871181D01*
G37*
G36*
X172170390Y-123769206D02*
X171463283Y-124476313D01*
X170119780Y-123132810D01*
X170826887Y-122425703D01*
X172170390Y-123769206D01*
X172170390Y-123769206D01*
G37*
G36*
X171272364Y-124667232D02*
X170565257Y-125374339D01*
X169221754Y-124030836D01*
X169928861Y-123323729D01*
X171272364Y-124667232D01*
X171272364Y-124667232D01*
G37*
G36*
X170374339Y-125565257D02*
X169667232Y-126272364D01*
X168323729Y-124928861D01*
X169030836Y-124221754D01*
X170374339Y-125565257D01*
X170374339Y-125565257D01*
G37*
G36*
X169476313Y-126463283D02*
X168769206Y-127170390D01*
X167425703Y-125826887D01*
X168132810Y-125119780D01*
X169476313Y-126463283D01*
X169476313Y-126463283D01*
G37*
G36*
X168578288Y-127361309D02*
X167871181Y-128068416D01*
X166527678Y-126724913D01*
X167234785Y-126017806D01*
X168578288Y-127361309D01*
X168578288Y-127361309D01*
G37*
G36*
X167680262Y-128259334D02*
X166973155Y-128966441D01*
X165629652Y-127622938D01*
X166336759Y-126915831D01*
X167680262Y-128259334D01*
X167680262Y-128259334D01*
G37*
G36*
X161104169Y-121683241D02*
X160397062Y-122390348D01*
X159053559Y-121046845D01*
X159760666Y-120339738D01*
X161104169Y-121683241D01*
X161104169Y-121683241D01*
G37*
G36*
X162002194Y-120785215D02*
X161295087Y-121492322D01*
X159951584Y-120148819D01*
X160658691Y-119441712D01*
X162002194Y-120785215D01*
X162002194Y-120785215D01*
G37*
G36*
X162900220Y-119887190D02*
X162193113Y-120594297D01*
X160849610Y-119250794D01*
X161556717Y-118543687D01*
X162900220Y-119887190D01*
X162900220Y-119887190D01*
G37*
G36*
X163798246Y-118989164D02*
X163091139Y-119696271D01*
X161747636Y-118352768D01*
X162454743Y-117645661D01*
X163798246Y-118989164D01*
X163798246Y-118989164D01*
G37*
G36*
X164696271Y-118091139D02*
X163989164Y-118798246D01*
X162645661Y-117454743D01*
X163352768Y-116747636D01*
X164696271Y-118091139D01*
X164696271Y-118091139D01*
G37*
G36*
X165594297Y-117193113D02*
X164887190Y-117900220D01*
X163543687Y-116556717D01*
X164250794Y-115849610D01*
X165594297Y-117193113D01*
X165594297Y-117193113D01*
G37*
G36*
X166492322Y-116295087D02*
X165785215Y-117002194D01*
X164441712Y-115658691D01*
X165148819Y-114951584D01*
X166492322Y-116295087D01*
X166492322Y-116295087D01*
G37*
G36*
X167390348Y-115397062D02*
X166683241Y-116104169D01*
X165339738Y-114760666D01*
X166046845Y-114053559D01*
X167390348Y-115397062D01*
X167390348Y-115397062D01*
G37*
D14*
X161430000Y-133575000D03*
D15*
X161430000Y-136115000D03*
X158890000Y-133575000D03*
X158890000Y-136115000D03*
X156350000Y-133575000D03*
X156350000Y-136115000D03*
X153810000Y-133575000D03*
X153810000Y-136115000D03*
X151270000Y-133575000D03*
X151270000Y-136115000D03*
X148730000Y-133575000D03*
X148730000Y-136115000D03*
X146190000Y-133575000D03*
X146190000Y-136115000D03*
X143650000Y-133575000D03*
X143650000Y-136115000D03*
X141110000Y-133575000D03*
X141110000Y-136115000D03*
X138570000Y-133575000D03*
X138570000Y-136115000D03*
D14*
X121425000Y-116430000D03*
D15*
X118885000Y-116430000D03*
X121425000Y-113890000D03*
X118885000Y-113890000D03*
X121425000Y-111350000D03*
X118885000Y-111350000D03*
X121425000Y-108810000D03*
X118885000Y-108810000D03*
X121425000Y-106270000D03*
X118885000Y-106270000D03*
X121425000Y-103730000D03*
X118885000Y-103730000D03*
X121425000Y-101190000D03*
X118885000Y-101190000D03*
X121425000Y-98650000D03*
X118885000Y-98650000D03*
X121425000Y-96110000D03*
X118885000Y-96110000D03*
X121425000Y-93570000D03*
X118885000Y-93570000D03*
D14*
X138570000Y-76425000D03*
D15*
X138570000Y-73885000D03*
X141110000Y-76425000D03*
X141110000Y-73885000D03*
X143650000Y-76425000D03*
X143650000Y-73885000D03*
X146190000Y-76425000D03*
X146190000Y-73885000D03*
X148730000Y-76425000D03*
X148730000Y-73885000D03*
X151270000Y-76425000D03*
X151270000Y-73885000D03*
X153810000Y-76425000D03*
X153810000Y-73885000D03*
X156350000Y-76425000D03*
X156350000Y-73885000D03*
X158890000Y-76425000D03*
X158890000Y-73885000D03*
X161430000Y-76425000D03*
X161430000Y-73885000D03*
D14*
X178575000Y-93570000D03*
D15*
X181115000Y-93570000D03*
X178575000Y-96110000D03*
X181115000Y-96110000D03*
X178575000Y-98650000D03*
X181115000Y-98650000D03*
X178575000Y-101190000D03*
X181115000Y-101190000D03*
X178575000Y-103730000D03*
X181115000Y-103730000D03*
X178575000Y-106270000D03*
X181115000Y-106270000D03*
X178575000Y-108810000D03*
X181115000Y-108810000D03*
X178575000Y-111350000D03*
X181115000Y-111350000D03*
X178575000Y-113890000D03*
X181115000Y-113890000D03*
X178575000Y-116430000D03*
X181115000Y-116430000D03*
D16*
X153810000Y-122230000D03*
X153810000Y-123330000D03*
X146190000Y-122230000D03*
X146190000Y-123330000D03*
D17*
X156670040Y-131050240D03*
X156670040Y-130400000D03*
X156670040Y-129749760D03*
X158569960Y-129749760D03*
X158569960Y-130400000D03*
X158569960Y-131050240D03*
X151590040Y-131050240D03*
X151590040Y-130400000D03*
X151590040Y-129749760D03*
X153489960Y-129749760D03*
X153489960Y-130400000D03*
X153489960Y-131050240D03*
X146510040Y-131050240D03*
X146510040Y-130400000D03*
X146510040Y-129749760D03*
X148409960Y-129749760D03*
X148409960Y-130400000D03*
X148409960Y-131050240D03*
D18*
X123949760Y-111670040D03*
X124600000Y-111670040D03*
X125250240Y-111670040D03*
X125250240Y-113569960D03*
X124600000Y-113569960D03*
X123949760Y-113569960D03*
X123949760Y-106590040D03*
X124600000Y-106590040D03*
X125250240Y-106590040D03*
X125250240Y-108489960D03*
X124600000Y-108489960D03*
X123949760Y-108489960D03*
X123949760Y-101510040D03*
X124600000Y-101510040D03*
X125250240Y-101510040D03*
X125250240Y-103409960D03*
X124600000Y-103409960D03*
X123949760Y-103409960D03*
X123949760Y-96430040D03*
X124600000Y-96430040D03*
X125250240Y-96430040D03*
X125250240Y-98329960D03*
X124600000Y-98329960D03*
X123949760Y-98329960D03*
D17*
X143329960Y-78949760D03*
X143329960Y-79600000D03*
X143329960Y-80250240D03*
X141430040Y-80250240D03*
X141430040Y-79600000D03*
X141430040Y-78949760D03*
X148409960Y-78949760D03*
X148409960Y-79600000D03*
X148409960Y-80250240D03*
X146510040Y-80250240D03*
X146510040Y-79600000D03*
X146510040Y-78949760D03*
X153489960Y-78949760D03*
X153489960Y-79600000D03*
X153489960Y-80250240D03*
X151590040Y-80250240D03*
X151590040Y-79600000D03*
X151590040Y-78949760D03*
X158569960Y-78949760D03*
X158569960Y-79600000D03*
X158569960Y-80250240D03*
X156670040Y-80250240D03*
X156670040Y-79600000D03*
X156670040Y-78949760D03*
D18*
X176050240Y-98329960D03*
X175400000Y-98329960D03*
X174749760Y-98329960D03*
X174749760Y-96430040D03*
X175400000Y-96430040D03*
X176050240Y-96430040D03*
X176050240Y-103409960D03*
X175400000Y-103409960D03*
X174749760Y-103409960D03*
X174749760Y-101510040D03*
X175400000Y-101510040D03*
X176050240Y-101510040D03*
X176050240Y-108489960D03*
X175400000Y-108489960D03*
X174749760Y-108489960D03*
X174749760Y-106590040D03*
X175400000Y-106590040D03*
X176050240Y-106590040D03*
X176050240Y-113569960D03*
X175400000Y-113569960D03*
X174749760Y-113569960D03*
X174749760Y-111670040D03*
X175400000Y-111670040D03*
X176050240Y-111670040D03*
D10*
G36*
X155543340Y-93653736D02*
X156179736Y-93017340D01*
X156886842Y-93724446D01*
X156250446Y-94360842D01*
X155543340Y-93653736D01*
X155543340Y-93653736D01*
G37*
G36*
X156321158Y-94431554D02*
X156957554Y-93795158D01*
X157664660Y-94502264D01*
X157028264Y-95138660D01*
X156321158Y-94431554D01*
X156321158Y-94431554D01*
G37*
G36*
X139884660Y-111774264D02*
X139248264Y-112410660D01*
X138541158Y-111703554D01*
X139177554Y-111067158D01*
X139884660Y-111774264D01*
X139884660Y-111774264D01*
G37*
G36*
X139106842Y-110996446D02*
X138470446Y-111632842D01*
X137763340Y-110925736D01*
X138399736Y-110289340D01*
X139106842Y-110996446D01*
X139106842Y-110996446D01*
G37*
G36*
X135819264Y-107622340D02*
X136455660Y-108258736D01*
X135748554Y-108965842D01*
X135112158Y-108329446D01*
X135819264Y-107622340D01*
X135819264Y-107622340D01*
G37*
G36*
X135041446Y-108400158D02*
X135677842Y-109036554D01*
X134970736Y-109743660D01*
X134334340Y-109107264D01*
X135041446Y-108400158D01*
X135041446Y-108400158D01*
G37*
G36*
X134081736Y-108854660D02*
X133445340Y-108218264D01*
X134152446Y-107511158D01*
X134788842Y-108147554D01*
X134081736Y-108854660D01*
X134081736Y-108854660D01*
G37*
G36*
X134859554Y-108076842D02*
X134223158Y-107440446D01*
X134930264Y-106733340D01*
X135566660Y-107369736D01*
X134859554Y-108076842D01*
X134859554Y-108076842D01*
G37*
G36*
X146781736Y-91328660D02*
X146145340Y-90692264D01*
X146852446Y-89985158D01*
X147488842Y-90621554D01*
X146781736Y-91328660D01*
X146781736Y-91328660D01*
G37*
G36*
X147559554Y-90550842D02*
X146923158Y-89914446D01*
X147630264Y-89207340D01*
X148266660Y-89843736D01*
X147559554Y-90550842D01*
X147559554Y-90550842D01*
G37*
G36*
X142209736Y-95900660D02*
X141573340Y-95264264D01*
X142280446Y-94557158D01*
X142916842Y-95193554D01*
X142209736Y-95900660D01*
X142209736Y-95900660D01*
G37*
G36*
X142987554Y-95122842D02*
X142351158Y-94486446D01*
X143058264Y-93779340D01*
X143694660Y-94415736D01*
X142987554Y-95122842D01*
X142987554Y-95122842D01*
G37*
G36*
X145892736Y-90439660D02*
X145256340Y-89803264D01*
X145963446Y-89096158D01*
X146599842Y-89732554D01*
X145892736Y-90439660D01*
X145892736Y-90439660D01*
G37*
G36*
X146670554Y-89661842D02*
X146034158Y-89025446D01*
X146741264Y-88318340D01*
X147377660Y-88954736D01*
X146670554Y-89661842D01*
X146670554Y-89661842D01*
G37*
G36*
X160203264Y-111686340D02*
X160839660Y-112322736D01*
X160132554Y-113029842D01*
X159496158Y-112393446D01*
X160203264Y-111686340D01*
X160203264Y-111686340D01*
G37*
G36*
X159425446Y-112464158D02*
X160061842Y-113100554D01*
X159354736Y-113807660D01*
X158718340Y-113171264D01*
X159425446Y-112464158D01*
X159425446Y-112464158D01*
G37*
G36*
X154869264Y-117020340D02*
X155505660Y-117656736D01*
X154798554Y-118363842D01*
X154162158Y-117727446D01*
X154869264Y-117020340D01*
X154869264Y-117020340D01*
G37*
G36*
X154091446Y-117798158D02*
X154727842Y-118434554D01*
X154020736Y-119141660D01*
X153384340Y-118505264D01*
X154091446Y-117798158D01*
X154091446Y-117798158D01*
G37*
G36*
X163417340Y-101527736D02*
X164053736Y-100891340D01*
X164760842Y-101598446D01*
X164124446Y-102234842D01*
X163417340Y-101527736D01*
X163417340Y-101527736D01*
G37*
G36*
X164195158Y-102305554D02*
X164831554Y-101669158D01*
X165538660Y-102376264D01*
X164902264Y-103012660D01*
X164195158Y-102305554D01*
X164195158Y-102305554D01*
G37*
G36*
X148012660Y-119902264D02*
X147376264Y-120538660D01*
X146669158Y-119831554D01*
X147305554Y-119195158D01*
X148012660Y-119902264D01*
X148012660Y-119902264D01*
G37*
G36*
X147234842Y-119124446D02*
X146598446Y-119760842D01*
X145891340Y-119053736D01*
X146527736Y-118417340D01*
X147234842Y-119124446D01*
X147234842Y-119124446D01*
G37*
G36*
X159480340Y-97590736D02*
X160116736Y-96954340D01*
X160823842Y-97661446D01*
X160187446Y-98297842D01*
X159480340Y-97590736D01*
X159480340Y-97590736D01*
G37*
G36*
X160258158Y-98368554D02*
X160894554Y-97732158D01*
X161601660Y-98439264D01*
X160965264Y-99075660D01*
X160258158Y-98368554D01*
X160258158Y-98368554D01*
G37*
G36*
X143313660Y-115203264D02*
X142677264Y-115839660D01*
X141970158Y-115132554D01*
X142606554Y-114496158D01*
X143313660Y-115203264D01*
X143313660Y-115203264D01*
G37*
G36*
X142535842Y-114425446D02*
X141899446Y-115061842D01*
X141192340Y-114354736D01*
X141828736Y-113718340D01*
X142535842Y-114425446D01*
X142535842Y-114425446D01*
G37*
D19*
X148350000Y-123050000D03*
X151650000Y-123050000D03*
X151650000Y-125050000D03*
X148350000Y-125050000D03*
D10*
G36*
X122167763Y-87561921D02*
X120448079Y-85842237D01*
X121952237Y-84338079D01*
X123671921Y-86057763D01*
X122167763Y-87561921D01*
X122167763Y-87561921D01*
G37*
D20*
X123748288Y-84046186D02*
X123963814Y-84261712D01*
X125544339Y-82250135D02*
X125759865Y-82465661D01*
X127340391Y-80454083D02*
X127555917Y-80669609D01*
X129136442Y-78658032D02*
X129351968Y-78873558D01*
X130932493Y-76861981D02*
X131148019Y-77077507D01*
D10*
G36*
X177832237Y-122438079D02*
X179551921Y-124157763D01*
X178047763Y-125661921D01*
X176328079Y-123942237D01*
X177832237Y-122438079D01*
X177832237Y-122438079D01*
G37*
D20*
X176251712Y-125953814D02*
X176036186Y-125738288D01*
X174455661Y-127749865D02*
X174240135Y-127534339D01*
X172659609Y-129545917D02*
X172444083Y-129330391D01*
X170863558Y-131341968D02*
X170648032Y-131126442D01*
X169067507Y-133138019D02*
X168851981Y-132922493D01*
D10*
G36*
X132471023Y-129333012D02*
X133213485Y-130075474D01*
X132181109Y-131107850D01*
X131438647Y-130365388D01*
X132471023Y-129333012D01*
X132471023Y-129333012D01*
G37*
G36*
X133142774Y-130004764D02*
X133885236Y-130747226D01*
X132852860Y-131779602D01*
X132110398Y-131037140D01*
X133142774Y-130004764D01*
X133142774Y-130004764D01*
G37*
G36*
X133814526Y-130676515D02*
X134556988Y-131418977D01*
X133524612Y-132451353D01*
X132782150Y-131708891D01*
X133814526Y-130676515D01*
X133814526Y-130676515D01*
G37*
G36*
X132258891Y-132232150D02*
X133001353Y-132974612D01*
X131968977Y-134006988D01*
X131226515Y-133264526D01*
X132258891Y-132232150D01*
X132258891Y-132232150D01*
G37*
G36*
X130915388Y-130888647D02*
X131657850Y-131631109D01*
X130625474Y-132663485D01*
X129883012Y-131921023D01*
X130915388Y-130888647D01*
X130915388Y-130888647D01*
G37*
G36*
X131587140Y-131560398D02*
X132329602Y-132302860D01*
X131297226Y-133335236D01*
X130554764Y-132592774D01*
X131587140Y-131560398D01*
X131587140Y-131560398D01*
G37*
G36*
X125445736Y-88280660D02*
X124809340Y-87644264D01*
X125516446Y-86937158D01*
X126152842Y-87573554D01*
X125445736Y-88280660D01*
X125445736Y-88280660D01*
G37*
G36*
X126223554Y-87502842D02*
X125587158Y-86866446D01*
X126294264Y-86159340D01*
X126930660Y-86795736D01*
X126223554Y-87502842D01*
X126223554Y-87502842D01*
G37*
G36*
X174554264Y-121719340D02*
X175190660Y-122355736D01*
X174483554Y-123062842D01*
X173847158Y-122426446D01*
X174554264Y-121719340D01*
X174554264Y-121719340D01*
G37*
G36*
X173776446Y-122497158D02*
X174412842Y-123133554D01*
X173705736Y-123840660D01*
X173069340Y-123204264D01*
X173776446Y-122497158D01*
X173776446Y-122497158D01*
G37*
G36*
X134335736Y-97170660D02*
X133699340Y-96534264D01*
X134406446Y-95827158D01*
X135042842Y-96463554D01*
X134335736Y-97170660D01*
X134335736Y-97170660D01*
G37*
G36*
X135113554Y-96392842D02*
X134477158Y-95756446D01*
X135184264Y-95049340D01*
X135820660Y-95685736D01*
X135113554Y-96392842D01*
X135113554Y-96392842D01*
G37*
G36*
X165664264Y-112829340D02*
X166300660Y-113465736D01*
X165593554Y-114172842D01*
X164957158Y-113536446D01*
X165664264Y-112829340D01*
X165664264Y-112829340D01*
G37*
G36*
X164886446Y-113607158D02*
X165522842Y-114243554D01*
X164815736Y-114950660D01*
X164179340Y-114314264D01*
X164886446Y-113607158D01*
X164886446Y-113607158D01*
G37*
D21*
X126370413Y-124880648D02*
X126582545Y-125092780D01*
X129905947Y-128416182D02*
X130118079Y-128628314D01*
D22*
X123665730Y-126383250D02*
X124054638Y-125994342D01*
X128615478Y-131332997D02*
X129004386Y-130944089D01*
D10*
G36*
X129889340Y-133150736D02*
X130525736Y-132514340D01*
X131232842Y-133221446D01*
X130596446Y-133857842D01*
X129889340Y-133150736D01*
X129889340Y-133150736D01*
G37*
G36*
X130667158Y-133928554D02*
X131303554Y-133292158D01*
X132010660Y-133999264D01*
X131374264Y-134635660D01*
X130667158Y-133928554D01*
X130667158Y-133928554D01*
G37*
D17*
X141430040Y-131050240D03*
X141430040Y-130400000D03*
X141430040Y-129749760D03*
X143329960Y-129749760D03*
X143329960Y-130400000D03*
X143329960Y-131050240D03*
M02*
