G04 #@! TF.FileFunction,Copper,L1,Top,Signal*
%FSLAX46Y46*%
G04 Gerber Fmt 4.6, Leading zero omitted, Abs format (unit mm)*
G04 Created by KiCad (PCBNEW 4.0.6-e0-6349~53~ubuntu14.04.1) date Mon Mar 20 16:46:31 2017*
%MOMM*%
%LPD*%
G01*
G04 APERTURE LIST*
%ADD10C,0.100000*%
%ADD11R,1.727200X1.727200*%
%ADD12O,1.727200X1.727200*%
%ADD13R,0.850000X0.300000*%
%ADD14R,0.300000X0.850000*%
%ADD15R,1.837500X1.837500*%
%ADD16R,0.500000X0.600000*%
%ADD17R,0.600000X0.500000*%
%ADD18C,1.727200*%
%ADD19R,2.100000X1.700000*%
%ADD20C,0.950000*%
%ADD21C,1.000000*%
%ADD22R,1.350000X1.350000*%
%ADD23C,1.350000*%
%ADD24R,0.700000X0.300000*%
%ADD25R,1.000000X0.800000*%
%ADD26R,0.760000X1.250000*%
%ADD27R,0.760000X1.600000*%
%ADD28C,0.600000*%
%ADD29C,0.250000*%
G04 APERTURE END LIST*
D10*
G36*
X17775812Y9431951D02*
X19119315Y10775454D01*
X20109264Y9785505D01*
X18765761Y8442002D01*
X17775812Y9431951D01*
X17775812Y9431951D01*
G37*
G36*
X9184464Y19437512D02*
X10527967Y20781015D01*
X11517916Y19791066D01*
X10174413Y18447563D01*
X9184464Y19437512D01*
X9184464Y19437512D01*
G37*
G36*
X23856930Y23715509D02*
X24846879Y24705458D01*
X25766118Y23786219D01*
X24776169Y22796270D01*
X23856930Y23715509D01*
X23856930Y23715509D01*
G37*
G36*
X19826422Y27746018D02*
X20816371Y28735967D01*
X21735610Y27816728D01*
X20745661Y26826779D01*
X19826422Y27746018D01*
X19826422Y27746018D01*
G37*
G36*
X17231339Y15053451D02*
X18291999Y16114111D01*
X18857685Y15548425D01*
X17797025Y14487765D01*
X17231339Y15053451D01*
X17231339Y15053451D01*
G37*
G36*
X16736365Y16114111D02*
X17797025Y17174771D01*
X18362711Y16609085D01*
X17302051Y15548425D01*
X16736365Y16114111D01*
X16736365Y16114111D01*
G37*
G36*
X15675704Y16609086D02*
X16736364Y17669746D01*
X17302050Y17104060D01*
X16241390Y16043400D01*
X15675704Y16609086D01*
X15675704Y16609086D01*
G37*
G36*
X14756466Y17245482D02*
X15817126Y18306142D01*
X16382812Y17740456D01*
X15322152Y16679796D01*
X14756466Y17245482D01*
X14756466Y17245482D01*
G37*
G36*
X14120069Y18164721D02*
X15180729Y19225381D01*
X15746415Y18659695D01*
X14685755Y17599035D01*
X14120069Y18164721D01*
X14120069Y18164721D01*
G37*
G36*
X13200831Y18801117D02*
X14261491Y19861777D01*
X14827177Y19296091D01*
X13766517Y18235431D01*
X13200831Y18801117D01*
X13200831Y18801117D01*
G37*
G36*
X12564435Y19720356D02*
X13625095Y20781016D01*
X14190781Y20215330D01*
X13130121Y19154670D01*
X12564435Y19720356D01*
X12564435Y19720356D01*
G37*
G36*
X11786617Y20498173D02*
X12847277Y21558833D01*
X13412963Y20993147D01*
X12352303Y19932487D01*
X11786617Y20498173D01*
X11786617Y20498173D01*
G37*
G36*
X21230028Y26971736D02*
X21901779Y27643487D01*
X22608886Y26936380D01*
X21937135Y26264629D01*
X21230028Y26971736D01*
X21230028Y26971736D01*
G37*
G36*
X55657645Y32030690D02*
X54596985Y30970030D01*
X54102011Y31465004D01*
X55162671Y32525664D01*
X55657645Y32030690D01*
X55657645Y32030690D01*
G37*
G36*
X53536324Y34152010D02*
X52475664Y33091350D01*
X51980690Y33586324D01*
X53041350Y34646984D01*
X53536324Y34152010D01*
X53536324Y34152010D01*
G37*
G36*
X52475664Y35212671D02*
X51415004Y34152011D01*
X50920030Y34646985D01*
X51980690Y35707645D01*
X52475664Y35212671D01*
X52475664Y35212671D01*
G37*
G36*
X58528498Y32709512D02*
X57962813Y32143827D01*
X57255706Y32850934D01*
X57821391Y33416619D01*
X58528498Y32709512D01*
X58528498Y32709512D01*
G37*
G36*
X53366619Y37871391D02*
X52800934Y37305706D01*
X52093827Y38012813D01*
X52659512Y38578498D01*
X53366619Y37871391D01*
X53366619Y37871391D01*
G37*
G36*
X51803913Y36308685D02*
X51238228Y35743000D01*
X50531121Y36450107D01*
X51096806Y37015792D01*
X51803913Y36308685D01*
X51803913Y36308685D01*
G37*
G36*
X56965792Y31146806D02*
X56400107Y30581121D01*
X55693000Y31288228D01*
X56258685Y31853913D01*
X56965792Y31146806D01*
X56965792Y31146806D01*
G37*
D11*
X11430000Y-28575000D03*
D12*
X11430000Y-31115000D03*
X8890000Y-28575000D03*
X8890000Y-31115000D03*
X6350000Y-28575000D03*
X6350000Y-31115000D03*
X3810000Y-28575000D03*
X3810000Y-31115000D03*
X1270000Y-28575000D03*
X1270000Y-31115000D03*
X-1270000Y-28575000D03*
X-1270000Y-31115000D03*
X-3810000Y-28575000D03*
X-3810000Y-31115000D03*
X-6350000Y-28575000D03*
X-6350000Y-31115000D03*
X-8890000Y-28575000D03*
X-8890000Y-31115000D03*
X-11430000Y-28575000D03*
X-11430000Y-31115000D03*
D11*
X-28575000Y-11430000D03*
D12*
X-31115000Y-11430000D03*
X-28575000Y-8890000D03*
X-31115000Y-8890000D03*
X-28575000Y-6350000D03*
X-31115000Y-6350000D03*
X-28575000Y-3810000D03*
X-31115000Y-3810000D03*
X-28575000Y-1270000D03*
X-31115000Y-1270000D03*
X-28575000Y1270000D03*
X-31115000Y1270000D03*
X-28575000Y3810000D03*
X-31115000Y3810000D03*
X-28575000Y6350000D03*
X-31115000Y6350000D03*
X-28575000Y8890000D03*
X-31115000Y8890000D03*
X-28575000Y11430000D03*
X-31115000Y11430000D03*
D11*
X-11430000Y28575000D03*
D12*
X-11430000Y31115000D03*
X-8890000Y28575000D03*
X-8890000Y31115000D03*
X-6350000Y28575000D03*
X-6350000Y31115000D03*
X-3810000Y28575000D03*
X-3810000Y31115000D03*
X-1270000Y28575000D03*
X-1270000Y31115000D03*
X1270000Y28575000D03*
X1270000Y31115000D03*
X3810000Y28575000D03*
X3810000Y31115000D03*
X6350000Y28575000D03*
X6350000Y31115000D03*
X8890000Y28575000D03*
X8890000Y31115000D03*
X11430000Y28575000D03*
X11430000Y31115000D03*
D11*
X28575000Y11430000D03*
D12*
X31115000Y11430000D03*
X28575000Y8890000D03*
X31115000Y8890000D03*
X28575000Y6350000D03*
X31115000Y6350000D03*
X28575000Y3810000D03*
X31115000Y3810000D03*
X28575000Y1270000D03*
X31115000Y1270000D03*
X28575000Y-1270000D03*
X31115000Y-1270000D03*
X28575000Y-3810000D03*
X31115000Y-3810000D03*
X28575000Y-6350000D03*
X31115000Y-6350000D03*
X28575000Y-8890000D03*
X31115000Y-8890000D03*
X28575000Y-11430000D03*
X31115000Y-11430000D03*
D13*
X4450000Y-18750000D03*
X4450000Y-18250000D03*
X4450000Y-17750000D03*
X4450000Y-17250000D03*
X4450000Y-16750000D03*
X4450000Y-16250000D03*
X4450000Y-15750000D03*
X4450000Y-15250000D03*
X4450000Y-14750000D03*
X4450000Y-14250000D03*
X4450000Y-13750000D03*
X4450000Y-13250000D03*
X4450000Y-12750000D03*
X4450000Y-12250000D03*
X4450000Y-11750000D03*
X4450000Y-11250000D03*
D14*
X3750000Y-10550000D03*
X3250000Y-10550000D03*
X2750000Y-10550000D03*
X2250000Y-10550000D03*
X1750000Y-10550000D03*
X1250000Y-10550000D03*
X750000Y-10550000D03*
X250000Y-10550000D03*
X-250000Y-10550000D03*
X-750000Y-10550000D03*
X-1250000Y-10550000D03*
X-1750000Y-10550000D03*
X-2250000Y-10550000D03*
X-2750000Y-10550000D03*
X-3250000Y-10550000D03*
X-3750000Y-10550000D03*
D13*
X-4450000Y-11250000D03*
X-4450000Y-11750000D03*
X-4450000Y-12250000D03*
X-4450000Y-12750000D03*
X-4450000Y-13250000D03*
X-4450000Y-13750000D03*
X-4450000Y-14250000D03*
X-4450000Y-14750000D03*
X-4450000Y-15250000D03*
X-4450000Y-15750000D03*
X-4450000Y-16250000D03*
X-4450000Y-16750000D03*
X-4450000Y-17250000D03*
X-4450000Y-17750000D03*
X-4450000Y-18250000D03*
X-4450000Y-18750000D03*
D14*
X-3750000Y-19450000D03*
X-3250000Y-19450000D03*
X-2750000Y-19450000D03*
X-2250000Y-19450000D03*
X-1750000Y-19450000D03*
X-1250000Y-19450000D03*
X-750000Y-19450000D03*
X-250000Y-19450000D03*
X250000Y-19450000D03*
X750000Y-19450000D03*
X1250000Y-19450000D03*
X1750000Y-19450000D03*
X2250000Y-19450000D03*
X2750000Y-19450000D03*
X3250000Y-19450000D03*
X3750000Y-19450000D03*
D15*
X-2756250Y-12243750D03*
X-2756250Y-14081250D03*
X-2756250Y-15918750D03*
X-2756250Y-17756250D03*
X-918750Y-12243750D03*
X-918750Y-14081250D03*
X-918750Y-15918750D03*
X-918750Y-17756250D03*
X918750Y-12243750D03*
X918750Y-14081250D03*
X918750Y-15918750D03*
X918750Y-17756250D03*
X2756250Y-12243750D03*
X2756250Y-14081250D03*
X2756250Y-15918750D03*
X2756250Y-17756250D03*
D14*
X-18750000Y-4450000D03*
X-18250000Y-4450000D03*
X-17750000Y-4450000D03*
X-17250000Y-4450000D03*
X-16750000Y-4450000D03*
X-16250000Y-4450000D03*
X-15750000Y-4450000D03*
X-15250000Y-4450000D03*
X-14750000Y-4450000D03*
X-14250000Y-4450000D03*
X-13750000Y-4450000D03*
X-13250000Y-4450000D03*
X-12750000Y-4450000D03*
X-12250000Y-4450000D03*
X-11750000Y-4450000D03*
X-11250000Y-4450000D03*
D13*
X-10550000Y-3750000D03*
X-10550000Y-3250000D03*
X-10550000Y-2750000D03*
X-10550000Y-2250000D03*
X-10550000Y-1750000D03*
X-10550000Y-1250000D03*
X-10550000Y-750000D03*
X-10550000Y-250000D03*
X-10550000Y250000D03*
X-10550000Y750000D03*
X-10550000Y1250000D03*
X-10550000Y1750000D03*
X-10550000Y2250000D03*
X-10550000Y2750000D03*
X-10550000Y3250000D03*
X-10550000Y3750000D03*
D14*
X-11250000Y4450000D03*
X-11750000Y4450000D03*
X-12250000Y4450000D03*
X-12750000Y4450000D03*
X-13250000Y4450000D03*
X-13750000Y4450000D03*
X-14250000Y4450000D03*
X-14750000Y4450000D03*
X-15250000Y4450000D03*
X-15750000Y4450000D03*
X-16250000Y4450000D03*
X-16750000Y4450000D03*
X-17250000Y4450000D03*
X-17750000Y4450000D03*
X-18250000Y4450000D03*
X-18750000Y4450000D03*
D13*
X-19450000Y3750000D03*
X-19450000Y3250000D03*
X-19450000Y2750000D03*
X-19450000Y2250000D03*
X-19450000Y1750000D03*
X-19450000Y1250000D03*
X-19450000Y750000D03*
X-19450000Y250000D03*
X-19450000Y-250000D03*
X-19450000Y-750000D03*
X-19450000Y-1250000D03*
X-19450000Y-1750000D03*
X-19450000Y-2250000D03*
X-19450000Y-2750000D03*
X-19450000Y-3250000D03*
X-19450000Y-3750000D03*
D15*
X-12243750Y2756250D03*
X-14081250Y2756250D03*
X-15918750Y2756250D03*
X-17756250Y2756250D03*
X-12243750Y918750D03*
X-14081250Y918750D03*
X-15918750Y918750D03*
X-17756250Y918750D03*
X-12243750Y-918750D03*
X-14081250Y-918750D03*
X-15918750Y-918750D03*
X-17756250Y-918750D03*
X-12243750Y-2756250D03*
X-14081250Y-2756250D03*
X-15918750Y-2756250D03*
X-17756250Y-2756250D03*
D13*
X-4450000Y18750000D03*
X-4450000Y18250000D03*
X-4450000Y17750000D03*
X-4450000Y17250000D03*
X-4450000Y16750000D03*
X-4450000Y16250000D03*
X-4450000Y15750000D03*
X-4450000Y15250000D03*
X-4450000Y14750000D03*
X-4450000Y14250000D03*
X-4450000Y13750000D03*
X-4450000Y13250000D03*
X-4450000Y12750000D03*
X-4450000Y12250000D03*
X-4450000Y11750000D03*
X-4450000Y11250000D03*
D14*
X-3750000Y10550000D03*
X-3250000Y10550000D03*
X-2750000Y10550000D03*
X-2250000Y10550000D03*
X-1750000Y10550000D03*
X-1250000Y10550000D03*
X-750000Y10550000D03*
X-250000Y10550000D03*
X250000Y10550000D03*
X750000Y10550000D03*
X1250000Y10550000D03*
X1750000Y10550000D03*
X2250000Y10550000D03*
X2750000Y10550000D03*
X3250000Y10550000D03*
X3750000Y10550000D03*
D13*
X4450000Y11250000D03*
X4450000Y11750000D03*
X4450000Y12250000D03*
X4450000Y12750000D03*
X4450000Y13250000D03*
X4450000Y13750000D03*
X4450000Y14250000D03*
X4450000Y14750000D03*
X4450000Y15250000D03*
X4450000Y15750000D03*
X4450000Y16250000D03*
X4450000Y16750000D03*
X4450000Y17250000D03*
X4450000Y17750000D03*
X4450000Y18250000D03*
X4450000Y18750000D03*
D14*
X3750000Y19450000D03*
X3250000Y19450000D03*
X2750000Y19450000D03*
X2250000Y19450000D03*
X1750000Y19450000D03*
X1250000Y19450000D03*
X750000Y19450000D03*
X250000Y19450000D03*
X-250000Y19450000D03*
X-750000Y19450000D03*
X-1250000Y19450000D03*
X-1750000Y19450000D03*
X-2250000Y19450000D03*
X-2750000Y19450000D03*
X-3250000Y19450000D03*
X-3750000Y19450000D03*
D15*
X2756250Y12243750D03*
X2756250Y14081250D03*
X2756250Y15918750D03*
X2756250Y17756250D03*
X918750Y12243750D03*
X918750Y14081250D03*
X918750Y15918750D03*
X918750Y17756250D03*
X-918750Y12243750D03*
X-918750Y14081250D03*
X-918750Y15918750D03*
X-918750Y17756250D03*
X-2756250Y12243750D03*
X-2756250Y14081250D03*
X-2756250Y15918750D03*
X-2756250Y17756250D03*
D14*
X18750000Y4450000D03*
X18250000Y4450000D03*
X17750000Y4450000D03*
X17250000Y4450000D03*
X16750000Y4450000D03*
X16250000Y4450000D03*
X15750000Y4450000D03*
X15250000Y4450000D03*
X14750000Y4450000D03*
X14250000Y4450000D03*
X13750000Y4450000D03*
X13250000Y4450000D03*
X12750000Y4450000D03*
X12250000Y4450000D03*
X11750000Y4450000D03*
X11250000Y4450000D03*
D13*
X10550000Y3750000D03*
X10550000Y3250000D03*
X10550000Y2750000D03*
X10550000Y2250000D03*
X10550000Y1750000D03*
X10550000Y1250000D03*
X10550000Y750000D03*
X10550000Y250000D03*
X10550000Y-250000D03*
X10550000Y-750000D03*
X10550000Y-1250000D03*
X10550000Y-1750000D03*
X10550000Y-2250000D03*
X10550000Y-2750000D03*
X10550000Y-3250000D03*
X10550000Y-3750000D03*
D14*
X11250000Y-4450000D03*
X11750000Y-4450000D03*
X12250000Y-4450000D03*
X12750000Y-4450000D03*
X13250000Y-4450000D03*
X13750000Y-4450000D03*
X14250000Y-4450000D03*
X14750000Y-4450000D03*
X15250000Y-4450000D03*
X15750000Y-4450000D03*
X16250000Y-4450000D03*
X16750000Y-4450000D03*
X17250000Y-4450000D03*
X17750000Y-4450000D03*
X18250000Y-4450000D03*
X18750000Y-4450000D03*
D13*
X19450000Y-3750000D03*
X19450000Y-3250000D03*
X19450000Y-2750000D03*
X19450000Y-2250000D03*
X19450000Y-1750000D03*
X19450000Y-1250000D03*
X19450000Y-750000D03*
X19450000Y-250000D03*
X19450000Y250000D03*
X19450000Y750000D03*
X19450000Y1250000D03*
X19450000Y1750000D03*
X19450000Y2250000D03*
X19450000Y2750000D03*
X19450000Y3250000D03*
X19450000Y3750000D03*
D15*
X12243750Y-2756250D03*
X14081250Y-2756250D03*
X15918750Y-2756250D03*
X17756250Y-2756250D03*
X12243750Y-918750D03*
X14081250Y-918750D03*
X15918750Y-918750D03*
X17756250Y-918750D03*
X12243750Y918750D03*
X14081250Y918750D03*
X15918750Y918750D03*
X17756250Y918750D03*
X12243750Y2756250D03*
X14081250Y2756250D03*
X15918750Y2756250D03*
X17756250Y2756250D03*
D16*
X8500000Y-16450000D03*
X8500000Y-17550000D03*
X8500000Y-14450000D03*
X8500000Y-15550000D03*
D17*
X1450000Y-6000000D03*
X2550000Y-6000000D03*
X-550000Y-6000000D03*
X550000Y-6000000D03*
D16*
X7500000Y-16450000D03*
X7500000Y-17550000D03*
X7500000Y-14450000D03*
X7500000Y-15550000D03*
D17*
X1450000Y-7000000D03*
X2550000Y-7000000D03*
X-550000Y-7000000D03*
X550000Y-7000000D03*
D16*
X-7500000Y-17550000D03*
X-7500000Y-16450000D03*
X-7500000Y-15550000D03*
X-7500000Y-14450000D03*
X-3000000Y-20950000D03*
X-3000000Y-22050000D03*
D17*
X3050000Y-22000000D03*
X1950000Y-22000000D03*
X1050000Y-22000000D03*
X-50000Y-22000000D03*
X-950000Y-22000000D03*
X-2050000Y-22000000D03*
X2050000Y-21000000D03*
X950000Y-21000000D03*
D16*
X-8500000Y-17550000D03*
X-8500000Y-16450000D03*
X-8500000Y-15550000D03*
X-8500000Y-14450000D03*
D17*
X3050000Y-23000000D03*
X1950000Y-23000000D03*
X1050000Y-23000000D03*
X-50000Y-23000000D03*
X-950000Y-23000000D03*
X-2050000Y-23000000D03*
X-2950000Y-23000000D03*
X-4050000Y-23000000D03*
X-16450000Y-8500000D03*
X-17550000Y-8500000D03*
X-14450000Y-8500000D03*
X-15550000Y-8500000D03*
D16*
X-6000000Y-1450000D03*
X-6000000Y-2550000D03*
X-6000000Y550000D03*
X-6000000Y-550000D03*
D17*
X-16450000Y-7500000D03*
X-17550000Y-7500000D03*
X-14450000Y-7500000D03*
X-15550000Y-7500000D03*
D16*
X-7000000Y-1450000D03*
X-7000000Y-2550000D03*
X-7000000Y550000D03*
X-7000000Y-550000D03*
D17*
X-17550000Y7500000D03*
X-16450000Y7500000D03*
X-15550000Y7500000D03*
X-14450000Y7500000D03*
X-20950000Y3000000D03*
X-22050000Y3000000D03*
D16*
X-22000000Y-3050000D03*
X-22000000Y-1950000D03*
X-22000000Y-1050000D03*
X-22000000Y50000D03*
X-22000000Y950000D03*
X-22000000Y2050000D03*
X-21000000Y-2050000D03*
X-21000000Y-950000D03*
D17*
X-17550000Y8500000D03*
X-16450000Y8500000D03*
X-15550000Y8500000D03*
X-14450000Y8500000D03*
D16*
X-23000000Y-3050000D03*
X-23000000Y-1950000D03*
X-23000000Y-1050000D03*
X-23000000Y50000D03*
X-23000000Y950000D03*
X-23000000Y2050000D03*
X-23000000Y2950000D03*
X-23000000Y4050000D03*
X-8500000Y16450000D03*
X-8500000Y17550000D03*
X-8500000Y14450000D03*
X-8500000Y15550000D03*
D17*
X-1450000Y6000000D03*
X-2550000Y6000000D03*
X550000Y6000000D03*
X-550000Y6000000D03*
D16*
X-7500000Y16450000D03*
X-7500000Y17550000D03*
X-7500000Y14450000D03*
X-7500000Y15550000D03*
D17*
X-1450000Y7000000D03*
X-2550000Y7000000D03*
X550000Y7000000D03*
X-550000Y7000000D03*
D16*
X7500000Y17550000D03*
X7500000Y16450000D03*
X7500000Y15550000D03*
X7500000Y14450000D03*
X3000000Y20950000D03*
X3000000Y22050000D03*
D17*
X-3050000Y22000000D03*
X-1950000Y22000000D03*
X-1050000Y22000000D03*
X50000Y22000000D03*
X950000Y22000000D03*
X2050000Y22000000D03*
X-2050000Y21000000D03*
X-950000Y21000000D03*
D16*
X8500000Y17550000D03*
X8500000Y16450000D03*
X8500000Y15550000D03*
X8500000Y14450000D03*
D17*
X-3050000Y23000000D03*
X-1950000Y23000000D03*
X-1050000Y23000000D03*
X50000Y23000000D03*
X950000Y23000000D03*
X2050000Y23000000D03*
X2950000Y23000000D03*
X4050000Y23000000D03*
X16450000Y8500000D03*
X17550000Y8500000D03*
X14450000Y8500000D03*
X15550000Y8500000D03*
D16*
X6000000Y1450000D03*
X6000000Y2550000D03*
X6000000Y-550000D03*
X6000000Y550000D03*
D17*
X16450000Y7500000D03*
X17550000Y7500000D03*
X14450000Y7500000D03*
X15550000Y7500000D03*
D16*
X7000000Y1450000D03*
X7000000Y2550000D03*
X7000000Y-550000D03*
X7000000Y550000D03*
D17*
X17550000Y-7500000D03*
X16450000Y-7500000D03*
X15550000Y-7500000D03*
X14450000Y-7500000D03*
X20950000Y-3000000D03*
X22050000Y-3000000D03*
D16*
X22000000Y3050000D03*
X22000000Y1950000D03*
X22000000Y1050000D03*
X22000000Y-50000D03*
X22000000Y-950000D03*
X22000000Y-2050000D03*
X21000000Y2050000D03*
X21000000Y950000D03*
D17*
X17550000Y-8500000D03*
X16450000Y-8500000D03*
X15550000Y-8500000D03*
X14450000Y-8500000D03*
D16*
X23000000Y3050000D03*
X23000000Y1950000D03*
X23000000Y1050000D03*
X23000000Y-50000D03*
X23000000Y-950000D03*
X23000000Y-2050000D03*
X23000000Y-2950000D03*
X23000000Y-4050000D03*
D10*
G36*
X27380642Y-30169526D02*
X26921023Y-30629145D01*
X26171490Y-29879612D01*
X26631109Y-29419993D01*
X27380642Y-30169526D01*
X27380642Y-30169526D01*
G37*
G36*
X28052393Y-29497774D02*
X27592774Y-29957393D01*
X26843241Y-29207860D01*
X27302860Y-28748241D01*
X28052393Y-29497774D01*
X28052393Y-29497774D01*
G37*
G36*
X28724145Y-28826023D02*
X28264526Y-29285642D01*
X27514993Y-28536109D01*
X27974612Y-28076490D01*
X28724145Y-28826023D01*
X28724145Y-28826023D01*
G37*
G36*
X27168510Y-27270388D02*
X26708891Y-27730007D01*
X25959358Y-26980474D01*
X26418977Y-26520855D01*
X27168510Y-27270388D01*
X27168510Y-27270388D01*
G37*
G36*
X25825007Y-28613891D02*
X25365388Y-29073510D01*
X24615855Y-28323977D01*
X25075474Y-27864358D01*
X25825007Y-28613891D01*
X25825007Y-28613891D01*
G37*
G36*
X31190642Y-26359526D02*
X30731023Y-26819145D01*
X29981490Y-26069612D01*
X30441109Y-25609993D01*
X31190642Y-26359526D01*
X31190642Y-26359526D01*
G37*
G36*
X31862393Y-25687774D02*
X31402774Y-26147393D01*
X30653241Y-25397860D01*
X31112860Y-24938241D01*
X31862393Y-25687774D01*
X31862393Y-25687774D01*
G37*
G36*
X32534145Y-25016023D02*
X32074526Y-25475642D01*
X31324993Y-24726109D01*
X31784612Y-24266490D01*
X32534145Y-25016023D01*
X32534145Y-25016023D01*
G37*
G36*
X30978510Y-23460388D02*
X30518891Y-23920007D01*
X29769358Y-23170474D01*
X30228977Y-22710855D01*
X30978510Y-23460388D01*
X30978510Y-23460388D01*
G37*
G36*
X29635007Y-24803891D02*
X29175388Y-25263510D01*
X28425855Y-24513977D01*
X28885474Y-24054358D01*
X29635007Y-24803891D01*
X29635007Y-24803891D01*
G37*
G36*
X12117290Y-14387103D02*
X11693026Y-14811367D01*
X10597010Y-13715351D01*
X11021274Y-13291087D01*
X12117290Y-14387103D01*
X12117290Y-14387103D01*
G37*
G36*
X13015316Y-13489077D02*
X12591052Y-13913341D01*
X11495036Y-12817325D01*
X11919300Y-12393061D01*
X13015316Y-13489077D01*
X13015316Y-13489077D01*
G37*
G36*
X13913341Y-12591052D02*
X13489077Y-13015316D01*
X12393061Y-11919300D01*
X12817325Y-11495036D01*
X13913341Y-12591052D01*
X13913341Y-12591052D01*
G37*
G36*
X14811367Y-11693026D02*
X14387103Y-12117290D01*
X13291087Y-11021274D01*
X13715351Y-10597010D01*
X14811367Y-11693026D01*
X14811367Y-11693026D01*
G37*
G36*
X10992990Y-7874649D02*
X10568726Y-8298913D01*
X9472710Y-7202897D01*
X9896974Y-6778633D01*
X10992990Y-7874649D01*
X10992990Y-7874649D01*
G37*
G36*
X10094964Y-8772675D02*
X9670700Y-9196939D01*
X8574684Y-8100923D01*
X8998948Y-7676659D01*
X10094964Y-8772675D01*
X10094964Y-8772675D01*
G37*
G36*
X9196939Y-9670700D02*
X8772675Y-10094964D01*
X7676659Y-8998948D01*
X8100923Y-8574684D01*
X9196939Y-9670700D01*
X9196939Y-9670700D01*
G37*
G36*
X8298913Y-10568726D02*
X7874649Y-10992990D01*
X6778633Y-9896974D01*
X7202897Y-9472710D01*
X8298913Y-10568726D01*
X8298913Y-10568726D01*
G37*
G36*
X-14387103Y-12117290D02*
X-14811367Y-11693026D01*
X-13715351Y-10597010D01*
X-13291087Y-11021274D01*
X-14387103Y-12117290D01*
X-14387103Y-12117290D01*
G37*
G36*
X-13489077Y-13015316D02*
X-13913341Y-12591052D01*
X-12817325Y-11495036D01*
X-12393061Y-11919300D01*
X-13489077Y-13015316D01*
X-13489077Y-13015316D01*
G37*
G36*
X-12591052Y-13913341D02*
X-13015316Y-13489077D01*
X-11919300Y-12393061D01*
X-11495036Y-12817325D01*
X-12591052Y-13913341D01*
X-12591052Y-13913341D01*
G37*
G36*
X-11693026Y-14811367D02*
X-12117290Y-14387103D01*
X-11021274Y-13291087D01*
X-10597010Y-13715351D01*
X-11693026Y-14811367D01*
X-11693026Y-14811367D01*
G37*
G36*
X-7874649Y-10992990D02*
X-8298913Y-10568726D01*
X-7202897Y-9472710D01*
X-6778633Y-9896974D01*
X-7874649Y-10992990D01*
X-7874649Y-10992990D01*
G37*
G36*
X-8772675Y-10094964D02*
X-9196939Y-9670700D01*
X-8100923Y-8574684D01*
X-7676659Y-8998948D01*
X-8772675Y-10094964D01*
X-8772675Y-10094964D01*
G37*
G36*
X-9670700Y-9196939D02*
X-10094964Y-8772675D01*
X-8998948Y-7676659D01*
X-8574684Y-8100923D01*
X-9670700Y-9196939D01*
X-9670700Y-9196939D01*
G37*
G36*
X-10568726Y-8298913D02*
X-10992990Y-7874649D01*
X-9896974Y-6778633D01*
X-9472710Y-7202897D01*
X-10568726Y-8298913D01*
X-10568726Y-8298913D01*
G37*
G36*
X-12117290Y14387103D02*
X-11693026Y14811367D01*
X-10597010Y13715351D01*
X-11021274Y13291087D01*
X-12117290Y14387103D01*
X-12117290Y14387103D01*
G37*
G36*
X-13015316Y13489077D02*
X-12591052Y13913341D01*
X-11495036Y12817325D01*
X-11919300Y12393061D01*
X-13015316Y13489077D01*
X-13015316Y13489077D01*
G37*
G36*
X-13913341Y12591052D02*
X-13489077Y13015316D01*
X-12393061Y11919300D01*
X-12817325Y11495036D01*
X-13913341Y12591052D01*
X-13913341Y12591052D01*
G37*
G36*
X-14811367Y11693026D02*
X-14387103Y12117290D01*
X-13291087Y11021274D01*
X-13715351Y10597010D01*
X-14811367Y11693026D01*
X-14811367Y11693026D01*
G37*
G36*
X-10992990Y7874649D02*
X-10568726Y8298913D01*
X-9472710Y7202897D01*
X-9896974Y6778633D01*
X-10992990Y7874649D01*
X-10992990Y7874649D01*
G37*
G36*
X-10094964Y8772675D02*
X-9670700Y9196939D01*
X-8574684Y8100923D01*
X-8998948Y7676659D01*
X-10094964Y8772675D01*
X-10094964Y8772675D01*
G37*
G36*
X-9196939Y9670700D02*
X-8772675Y10094964D01*
X-7676659Y8998948D01*
X-8100923Y8574684D01*
X-9196939Y9670700D01*
X-9196939Y9670700D01*
G37*
G36*
X-8298913Y10568726D02*
X-7874649Y10992990D01*
X-6778633Y9896974D01*
X-7202897Y9472710D01*
X-8298913Y10568726D01*
X-8298913Y10568726D01*
G37*
G36*
X13752103Y11482290D02*
X14176367Y11058026D01*
X13080351Y9962010D01*
X12656087Y10386274D01*
X13752103Y11482290D01*
X13752103Y11482290D01*
G37*
G36*
X12854077Y12380316D02*
X13278341Y11956052D01*
X12182325Y10860036D01*
X11758061Y11284300D01*
X12854077Y12380316D01*
X12854077Y12380316D01*
G37*
G36*
X11956052Y13278341D02*
X12380316Y12854077D01*
X11284300Y11758061D01*
X10860036Y12182325D01*
X11956052Y13278341D01*
X11956052Y13278341D01*
G37*
G36*
X11058026Y14176367D02*
X11482290Y13752103D01*
X10386274Y12656087D01*
X9962010Y13080351D01*
X11058026Y14176367D01*
X11058026Y14176367D01*
G37*
G36*
X7239649Y10357990D02*
X7663913Y9933726D01*
X6567897Y8837710D01*
X6143633Y9261974D01*
X7239649Y10357990D01*
X7239649Y10357990D01*
G37*
G36*
X8137675Y9459964D02*
X8561939Y9035700D01*
X7465923Y7939684D01*
X7041659Y8363948D01*
X8137675Y9459964D01*
X8137675Y9459964D01*
G37*
G36*
X9035700Y8561939D02*
X9459964Y8137675D01*
X8363948Y7041659D01*
X7939684Y7465923D01*
X9035700Y8561939D01*
X9035700Y8561939D01*
G37*
G36*
X9933726Y7663913D02*
X10357990Y7239649D01*
X9261974Y6143633D01*
X8837710Y6567897D01*
X9933726Y7663913D01*
X9933726Y7663913D01*
G37*
G36*
X64170922Y31392237D02*
X65607763Y32829078D01*
X66829078Y31607763D01*
X65392237Y30170922D01*
X64170922Y31392237D01*
X64170922Y31392237D01*
G37*
D18*
X67403814Y29811712D02*
X67188288Y29596186D01*
X69199865Y28015661D02*
X68984339Y27800135D01*
D10*
G36*
X-48325736Y61777818D02*
X-47972182Y61424264D01*
X-48396446Y61000000D01*
X-48750000Y61353554D01*
X-48325736Y61777818D01*
X-48325736Y61777818D01*
G37*
G36*
X-49103554Y61000000D02*
X-48750000Y60646446D01*
X-49174264Y60222182D01*
X-49527818Y60575736D01*
X-49103554Y61000000D01*
X-49103554Y61000000D01*
G37*
G36*
X-45524264Y63122182D02*
X-45877818Y63475736D01*
X-45453554Y63900000D01*
X-45100000Y63546446D01*
X-45524264Y63122182D01*
X-45524264Y63122182D01*
G37*
G36*
X-44746446Y63900000D02*
X-45100000Y64253554D01*
X-44675736Y64677818D01*
X-44322182Y64324264D01*
X-44746446Y63900000D01*
X-44746446Y63900000D01*
G37*
G36*
X-42894526Y59589358D02*
X-43354145Y60048977D01*
X-42604612Y60798510D01*
X-42144993Y60338891D01*
X-42894526Y59589358D01*
X-42894526Y59589358D01*
G37*
G36*
X-42222774Y58917607D02*
X-42682393Y59377226D01*
X-41932860Y60126759D01*
X-41473241Y59667140D01*
X-42222774Y58917607D01*
X-42222774Y58917607D01*
G37*
G36*
X-41551023Y58245855D02*
X-42010642Y58705474D01*
X-41261109Y59455007D01*
X-40801490Y58995388D01*
X-41551023Y58245855D01*
X-41551023Y58245855D01*
G37*
G36*
X-39995388Y59801490D02*
X-40455007Y60261109D01*
X-39705474Y61010642D01*
X-39245855Y60551023D01*
X-39995388Y59801490D01*
X-39995388Y59801490D01*
G37*
G36*
X-41338891Y61144993D02*
X-41798510Y61604612D01*
X-41048977Y62354145D01*
X-40589358Y61894526D01*
X-41338891Y61144993D01*
X-41338891Y61144993D01*
G37*
D19*
X-2950000Y-1350000D03*
X2950000Y-1350000D03*
X2950000Y1350000D03*
X-2950000Y1350000D03*
D10*
G36*
X-27832237Y17720922D02*
X-29269078Y19157763D01*
X-28047763Y20379078D01*
X-26610922Y18942237D01*
X-27832237Y17720922D01*
X-27832237Y17720922D01*
G37*
D18*
X-26251712Y20953814D02*
X-26036186Y20738288D01*
X-24455661Y22749865D02*
X-24240135Y22534339D01*
X-22659609Y24545917D02*
X-22444083Y24330391D01*
X-20863558Y26341968D02*
X-20648032Y26126442D01*
X-19067507Y28138019D02*
X-18851981Y27922493D01*
D10*
G36*
X27832237Y-17720922D02*
X29269078Y-19157763D01*
X28047763Y-20379078D01*
X26610922Y-18942237D01*
X27832237Y-17720922D01*
X27832237Y-17720922D01*
G37*
D18*
X26251712Y-20953814D02*
X26036186Y-20738288D01*
X24455661Y-22749865D02*
X24240135Y-22534339D01*
X22659609Y-24545917D02*
X22444083Y-24330391D01*
X20863558Y-26341968D02*
X20648032Y-26126442D01*
X19067507Y-28138019D02*
X18851981Y-27922493D01*
D10*
G36*
X23570642Y-33979526D02*
X23111023Y-34439145D01*
X22361490Y-33689612D01*
X22821109Y-33229993D01*
X23570642Y-33979526D01*
X23570642Y-33979526D01*
G37*
G36*
X24242393Y-33307774D02*
X23782774Y-33767393D01*
X23033241Y-33017860D01*
X23492860Y-32558241D01*
X24242393Y-33307774D01*
X24242393Y-33307774D01*
G37*
G36*
X24914145Y-32636023D02*
X24454526Y-33095642D01*
X23704993Y-32346109D01*
X24164612Y-31886490D01*
X24914145Y-32636023D01*
X24914145Y-32636023D01*
G37*
G36*
X23358510Y-31080388D02*
X22898891Y-31540007D01*
X22149358Y-30790474D01*
X22608977Y-30330855D01*
X23358510Y-31080388D01*
X23358510Y-31080388D01*
G37*
G36*
X22015007Y-32423891D02*
X21555388Y-32883510D01*
X20805855Y-32133977D01*
X21265474Y-31674358D01*
X22015007Y-32423891D01*
X22015007Y-32423891D01*
G37*
G36*
X-20872196Y-19316561D02*
X-21084328Y-19104429D01*
X-20483288Y-18503389D01*
X-20271156Y-18715521D01*
X-20872196Y-19316561D01*
X-20872196Y-19316561D01*
G37*
G36*
X-20518642Y-19670114D02*
X-20730774Y-19457982D01*
X-20129734Y-18856942D01*
X-19917602Y-19069074D01*
X-20518642Y-19670114D01*
X-20518642Y-19670114D01*
G37*
G36*
X-20165089Y-20023668D02*
X-20377221Y-19811536D01*
X-19776181Y-19210496D01*
X-19564049Y-19422628D01*
X-20165089Y-20023668D01*
X-20165089Y-20023668D01*
G37*
G36*
X-19811536Y-20377221D02*
X-20023668Y-20165089D01*
X-19422628Y-19564049D01*
X-19210496Y-19776181D01*
X-19811536Y-20377221D01*
X-19811536Y-20377221D01*
G37*
G36*
X-19457982Y-20730774D02*
X-19670114Y-20518642D01*
X-19069074Y-19917602D01*
X-18856942Y-20129734D01*
X-19457982Y-20730774D01*
X-19457982Y-20730774D01*
G37*
G36*
X-19104429Y-21084328D02*
X-19316561Y-20872196D01*
X-18715521Y-20271156D01*
X-18503389Y-20483288D01*
X-19104429Y-21084328D01*
X-19104429Y-21084328D01*
G37*
G36*
X-17513439Y-20872196D02*
X-17725571Y-21084328D01*
X-18326611Y-20483288D01*
X-18114479Y-20271156D01*
X-17513439Y-20872196D01*
X-17513439Y-20872196D01*
G37*
G36*
X-17159886Y-20518642D02*
X-17372018Y-20730774D01*
X-17973058Y-20129734D01*
X-17760926Y-19917602D01*
X-17159886Y-20518642D01*
X-17159886Y-20518642D01*
G37*
G36*
X-16806332Y-20165089D02*
X-17018464Y-20377221D01*
X-17619504Y-19776181D01*
X-17407372Y-19564049D01*
X-16806332Y-20165089D01*
X-16806332Y-20165089D01*
G37*
G36*
X-16452779Y-19811536D02*
X-16664911Y-20023668D01*
X-17265951Y-19422628D01*
X-17053819Y-19210496D01*
X-16452779Y-19811536D01*
X-16452779Y-19811536D01*
G37*
G36*
X-16099226Y-19457982D02*
X-16311358Y-19670114D01*
X-16912398Y-19069074D01*
X-16700266Y-18856942D01*
X-16099226Y-19457982D01*
X-16099226Y-19457982D01*
G37*
G36*
X-15745672Y-19104429D02*
X-15957804Y-19316561D01*
X-16558844Y-18715521D01*
X-16346712Y-18503389D01*
X-15745672Y-19104429D01*
X-15745672Y-19104429D01*
G37*
G36*
X-16346712Y-18326611D02*
X-16558844Y-18114479D01*
X-15957804Y-17513439D01*
X-15745672Y-17725571D01*
X-16346712Y-18326611D01*
X-16346712Y-18326611D01*
G37*
G36*
X-16700266Y-17973058D02*
X-16912398Y-17760926D01*
X-16311358Y-17159886D01*
X-16099226Y-17372018D01*
X-16700266Y-17973058D01*
X-16700266Y-17973058D01*
G37*
G36*
X-17053819Y-17619504D02*
X-17265951Y-17407372D01*
X-16664911Y-16806332D01*
X-16452779Y-17018464D01*
X-17053819Y-17619504D01*
X-17053819Y-17619504D01*
G37*
G36*
X-17407372Y-17265951D02*
X-17619504Y-17053819D01*
X-17018464Y-16452779D01*
X-16806332Y-16664911D01*
X-17407372Y-17265951D01*
X-17407372Y-17265951D01*
G37*
G36*
X-17760926Y-16912398D02*
X-17973058Y-16700266D01*
X-17372018Y-16099226D01*
X-17159886Y-16311358D01*
X-17760926Y-16912398D01*
X-17760926Y-16912398D01*
G37*
G36*
X-18114479Y-16558844D02*
X-18326611Y-16346712D01*
X-17725571Y-15745672D01*
X-17513439Y-15957804D01*
X-18114479Y-16558844D01*
X-18114479Y-16558844D01*
G37*
G36*
X-18503389Y-16346712D02*
X-18715521Y-16558844D01*
X-19316561Y-15957804D01*
X-19104429Y-15745672D01*
X-18503389Y-16346712D01*
X-18503389Y-16346712D01*
G37*
G36*
X-18856942Y-16700266D02*
X-19069074Y-16912398D01*
X-19670114Y-16311358D01*
X-19457982Y-16099226D01*
X-18856942Y-16700266D01*
X-18856942Y-16700266D01*
G37*
G36*
X-19210496Y-17053819D02*
X-19422628Y-17265951D01*
X-20023668Y-16664911D01*
X-19811536Y-16452779D01*
X-19210496Y-17053819D01*
X-19210496Y-17053819D01*
G37*
G36*
X-19564049Y-17407372D02*
X-19776181Y-17619504D01*
X-20377221Y-17018464D01*
X-20165089Y-16806332D01*
X-19564049Y-17407372D01*
X-19564049Y-17407372D01*
G37*
G36*
X-19917602Y-17760926D02*
X-20129734Y-17973058D01*
X-20730774Y-17372018D01*
X-20518642Y-17159886D01*
X-19917602Y-17760926D01*
X-19917602Y-17760926D01*
G37*
G36*
X-20271156Y-18114479D02*
X-20483288Y-18326611D01*
X-21084328Y-17725571D01*
X-20872196Y-17513439D01*
X-20271156Y-18114479D01*
X-20271156Y-18114479D01*
G37*
G36*
X-17495761Y-19334239D02*
X-18415000Y-18415000D01*
X-17495761Y-17495761D01*
X-16576522Y-18415000D01*
X-17495761Y-19334239D01*
X-17495761Y-19334239D01*
G37*
G36*
X-18415000Y-18415000D02*
X-19334239Y-17495761D01*
X-18415000Y-16576522D01*
X-17495761Y-17495761D01*
X-18415000Y-18415000D01*
X-18415000Y-18415000D01*
G37*
G36*
X-18415000Y-20253478D02*
X-19334239Y-19334239D01*
X-18415000Y-18415000D01*
X-17495761Y-19334239D01*
X-18415000Y-20253478D01*
X-18415000Y-20253478D01*
G37*
G36*
X-19334239Y-19334239D02*
X-20253478Y-18415000D01*
X-19334239Y-17495761D01*
X-18415000Y-18415000D01*
X-19334239Y-19334239D01*
X-19334239Y-19334239D01*
G37*
G36*
X-23010869Y-21453960D02*
X-23293711Y-21171118D01*
X-22339117Y-20216524D01*
X-22056275Y-20499366D01*
X-23010869Y-21453960D01*
X-23010869Y-21453960D01*
G37*
G36*
X-22551249Y-21913580D02*
X-22834091Y-21630738D01*
X-21879497Y-20676144D01*
X-21596655Y-20958986D01*
X-22551249Y-21913580D01*
X-22551249Y-21913580D01*
G37*
G36*
X-22091630Y-22373199D02*
X-22374472Y-22090357D01*
X-21419878Y-21135763D01*
X-21137036Y-21418605D01*
X-22091630Y-22373199D01*
X-22091630Y-22373199D01*
G37*
G36*
X-21632010Y-22832818D02*
X-21914852Y-22549976D01*
X-20960258Y-21595382D01*
X-20677416Y-21878224D01*
X-21632010Y-22832818D01*
X-21632010Y-22832818D01*
G37*
G36*
X-21172391Y-23292438D02*
X-21455233Y-23009596D01*
X-20500639Y-22055002D01*
X-20217797Y-22337844D01*
X-21172391Y-23292438D01*
X-21172391Y-23292438D01*
G37*
D20*
X-23629587Y-19880648D02*
X-23417455Y-20092780D01*
X-20094053Y-23416182D02*
X-19881921Y-23628314D01*
D21*
X-26334270Y-21383250D02*
X-25945362Y-20994342D01*
X-21384522Y-26332997D02*
X-20995614Y-25944089D01*
D10*
G36*
X-55747487Y-47071751D02*
X-56171751Y-46647487D01*
X-55888909Y-46364645D01*
X-55464645Y-46788909D01*
X-55747487Y-47071751D01*
X-55747487Y-47071751D01*
G37*
G36*
X-55111091Y-46435355D02*
X-55535355Y-46011091D01*
X-55252513Y-45728249D01*
X-54828249Y-46152513D01*
X-55111091Y-46435355D01*
X-55111091Y-46435355D01*
G37*
G36*
X-63942355Y-42369310D02*
X-65003015Y-43429970D01*
X-65497989Y-42934996D01*
X-64437329Y-41874336D01*
X-63942355Y-42369310D01*
X-63942355Y-42369310D01*
G37*
G36*
X-66063676Y-40247990D02*
X-67124336Y-41308650D01*
X-67619310Y-40813676D01*
X-66558650Y-39753016D01*
X-66063676Y-40247990D01*
X-66063676Y-40247990D01*
G37*
G36*
X-67124336Y-39187329D02*
X-68184996Y-40247989D01*
X-68679970Y-39753015D01*
X-67619310Y-38692355D01*
X-67124336Y-39187329D01*
X-67124336Y-39187329D01*
G37*
G36*
X-61071502Y-41690488D02*
X-61637187Y-42256173D01*
X-62344294Y-41549066D01*
X-61778609Y-40983381D01*
X-61071502Y-41690488D01*
X-61071502Y-41690488D01*
G37*
G36*
X-66233381Y-36528609D02*
X-66799066Y-37094294D01*
X-67506173Y-36387187D01*
X-66940488Y-35821502D01*
X-66233381Y-36528609D01*
X-66233381Y-36528609D01*
G37*
G36*
X-67796087Y-38091315D02*
X-68361772Y-38657000D01*
X-69068879Y-37949893D01*
X-68503194Y-37384208D01*
X-67796087Y-38091315D01*
X-67796087Y-38091315D01*
G37*
G36*
X-62634208Y-43253194D02*
X-63199893Y-43818879D01*
X-63907000Y-43111772D01*
X-63341315Y-42546087D01*
X-62634208Y-43253194D01*
X-62634208Y-43253194D01*
G37*
G36*
X-58474264Y-43727818D02*
X-58827818Y-43374264D01*
X-58403554Y-42950000D01*
X-58050000Y-43303554D01*
X-58474264Y-43727818D01*
X-58474264Y-43727818D01*
G37*
G36*
X-57696446Y-42950000D02*
X-58050000Y-42596446D01*
X-57625736Y-42172182D01*
X-57272182Y-42525736D01*
X-57696446Y-42950000D01*
X-57696446Y-42950000D01*
G37*
G36*
X-52774264Y-45127818D02*
X-53127818Y-44774264D01*
X-52703554Y-44350000D01*
X-52350000Y-44703554D01*
X-52774264Y-45127818D01*
X-52774264Y-45127818D01*
G37*
G36*
X-51996446Y-44350000D02*
X-52350000Y-43996446D01*
X-51925736Y-43572182D01*
X-51572182Y-43925736D01*
X-51996446Y-44350000D01*
X-51996446Y-44350000D01*
G37*
G36*
X-62524264Y-47427818D02*
X-62877818Y-47074264D01*
X-62453554Y-46650000D01*
X-62100000Y-47003554D01*
X-62524264Y-47427818D01*
X-62524264Y-47427818D01*
G37*
G36*
X-61746446Y-46650000D02*
X-62100000Y-46296446D01*
X-61675736Y-45872182D01*
X-61322182Y-46225736D01*
X-61746446Y-46650000D01*
X-61746446Y-46650000D01*
G37*
G36*
X-58974264Y-37877818D02*
X-59327818Y-37524264D01*
X-58903554Y-37100000D01*
X-58550000Y-37453554D01*
X-58974264Y-37877818D01*
X-58974264Y-37877818D01*
G37*
G36*
X-58196446Y-37100000D02*
X-58550000Y-36746446D01*
X-58125736Y-36322182D01*
X-57772182Y-36675736D01*
X-58196446Y-37100000D01*
X-58196446Y-37100000D01*
G37*
G36*
X-25064426Y-17475569D02*
X-26054050Y-18465193D01*
X-26901786Y-17617457D01*
X-25912162Y-16627833D01*
X-25064426Y-17475569D01*
X-25064426Y-17475569D01*
G37*
G36*
X-26350399Y-16189597D02*
X-27340023Y-17179221D01*
X-28047667Y-16471577D01*
X-27058043Y-15481953D01*
X-26350399Y-16189597D01*
X-26350399Y-16189597D01*
G37*
G36*
X-27905779Y-17744977D02*
X-28895403Y-18734601D01*
X-29603047Y-18026957D01*
X-28613423Y-17037333D01*
X-27905779Y-17744977D01*
X-27905779Y-17744977D01*
G37*
G36*
X-26562333Y-19088423D02*
X-27551957Y-20078047D01*
X-28259601Y-19370403D01*
X-27269977Y-18380779D01*
X-26562333Y-19088423D01*
X-26562333Y-19088423D01*
G37*
D22*
X46300000Y52600000D03*
D23*
X46300000Y50600000D03*
X46300000Y48600000D03*
D17*
X-55700000Y51900000D03*
X-54600000Y51900000D03*
X-55800000Y54300000D03*
X-54700000Y54300000D03*
D24*
X-53200000Y55700000D03*
X-53200000Y55050000D03*
X-53200000Y54400000D03*
X-51100000Y55700000D03*
X-51100000Y54400000D03*
X-51100000Y55050000D03*
D25*
X-52150000Y54650000D03*
X-52150000Y55450000D03*
D26*
X-80010000Y19785000D03*
X-71120000Y25935000D03*
X-78740000Y19785000D03*
X-72390000Y25935000D03*
X-77470000Y19785000D03*
X-73660000Y25935000D03*
X-76200000Y19785000D03*
X-74930000Y25935000D03*
X-74930000Y19785000D03*
X-76200000Y25935000D03*
X-73660000Y19785000D03*
X-77470000Y25935000D03*
X-72390000Y19785000D03*
X-78740000Y25935000D03*
X-71120000Y19785000D03*
X-80010000Y25935000D03*
D27*
X-80010000Y8890000D03*
X-71120000Y16510000D03*
X-78740000Y8890000D03*
X-72390000Y16510000D03*
X-77470000Y8890000D03*
X-73660000Y16510000D03*
X-76200000Y8890000D03*
X-74930000Y16510000D03*
X-74930000Y8890000D03*
X-76200000Y16510000D03*
X-73660000Y8890000D03*
X-77470000Y16510000D03*
X-72390000Y8890000D03*
X-78740000Y16510000D03*
X-71120000Y8890000D03*
X-80010000Y16510000D03*
D28*
X4500000Y8500000D03*
X9500000Y-15000000D03*
X24000000Y-1000000D03*
X15000000Y9500000D03*
X9500000Y15000000D03*
X-1000000Y-24000000D03*
X-24000000Y1000000D03*
X-9500000Y15000000D03*
X1000000Y24000000D03*
X13500000Y-9500000D03*
X-9500000Y-13500000D03*
X-13450000Y-9500000D03*
X-13500000Y9500000D03*
X5100000Y-3500000D03*
X5950000Y-3550000D03*
X3550000Y-7000000D03*
X4450000Y-7000000D03*
X6450000Y4950000D03*
X7000000Y4300000D03*
X7100000Y3500000D03*
X8000000Y3500000D03*
X500000Y-5000000D03*
X-5000000Y-500000D03*
X-500000Y5000000D03*
X5000000Y500000D03*
X-3175000Y2540000D03*
X7500000Y5500000D03*
X3000000Y-2500000D03*
X5000000Y1500000D03*
X1500000Y-5000000D03*
X-5000000Y-1500000D03*
X-1500000Y5000000D03*
X-2750000Y-6050000D03*
X-4400000Y-5300000D03*
X-6850000Y-3750000D03*
X-6850000Y-4650000D03*
X-4200000Y4650000D03*
X-4200000Y5550000D03*
X-3700000Y6950000D03*
X-4550000Y7000000D03*
X-4900000Y-23250000D03*
X-4850000Y-22350000D03*
X-4700000Y-21550000D03*
X-4700000Y-20650000D03*
X-23150000Y4900000D03*
X-22350000Y4850000D03*
X-21550000Y4700000D03*
X-20700000Y4700000D03*
X-7800000Y18600000D03*
X4850000Y23650000D03*
X4850000Y22750000D03*
X4700000Y21950000D03*
X4700000Y21050000D03*
X23350000Y-4900000D03*
X22450000Y-4900000D03*
X21650000Y-4700000D03*
X20700000Y-4700000D03*
X-22225000Y-23495000D03*
X-24130000Y-21590000D03*
D29*
X-4450000Y16250000D02*
X-7300000Y16250000D01*
X-7300000Y16250000D02*
X-7500000Y16450000D01*
X8500000Y-16450000D02*
X9050000Y-16450000D01*
X9500000Y-16000000D02*
X9500000Y-15000000D01*
X9050000Y-16450000D02*
X9500000Y-16000000D01*
X23000000Y3050000D02*
X23000000Y3000000D01*
X23000000Y3000000D02*
X24000000Y2000000D01*
X23950000Y-950000D02*
X24000000Y-1000000D01*
X23000000Y-950000D02*
X23950000Y-950000D01*
X24000000Y2000000D02*
X24000000Y-1000000D01*
X23000000Y-50000D02*
X23000000Y-950000D01*
X16450000Y8500000D02*
X16450000Y8950000D01*
X15900000Y9500000D02*
X15000000Y9500000D01*
X16450000Y8950000D02*
X15900000Y9500000D01*
X8500000Y16450000D02*
X9050000Y16450000D01*
X9500000Y16000000D02*
X9500000Y15000000D01*
X9050000Y16450000D02*
X9500000Y16000000D01*
X-23000000Y50000D02*
X-23000000Y950000D01*
X-50000Y-23000000D02*
X-950000Y-23000000D01*
X3050000Y-23000000D02*
X3000000Y-23000000D01*
X3000000Y-23000000D02*
X2000000Y-24000000D01*
X2000000Y-24000000D02*
X-1000000Y-24000000D01*
X-950000Y-23000000D02*
X-950000Y-23950000D01*
X-950000Y-23950000D02*
X-1000000Y-24000000D01*
X-23000000Y-3050000D02*
X-23000000Y-3000000D01*
X-23000000Y-3000000D02*
X-24000000Y-2000000D01*
X-24000000Y-2000000D02*
X-24000000Y1000000D01*
X-23000000Y950000D02*
X-23950000Y950000D01*
X-23950000Y950000D02*
X-24000000Y1000000D01*
X-8500000Y16450000D02*
X-9050000Y16450000D01*
X-9500000Y16000000D02*
X-9500000Y15000000D01*
X-9050000Y16450000D02*
X-9500000Y16000000D01*
X-3050000Y23000000D02*
X-3000000Y23000000D01*
X-3000000Y23000000D02*
X-2000000Y24000000D01*
X950000Y23950000D02*
X1000000Y24000000D01*
X950000Y23000000D02*
X950000Y23950000D01*
X-2000000Y24000000D02*
X1000000Y24000000D01*
X16450000Y-8500000D02*
X16450000Y-9050000D01*
X16000000Y-9500000D02*
X13500000Y-9500000D01*
X16450000Y-9050000D02*
X16000000Y-9500000D01*
X-8500000Y-16450000D02*
X-9050000Y-16450000D01*
X-9500000Y-16000000D02*
X-9500000Y-13500000D01*
X-9050000Y-16450000D02*
X-9500000Y-16000000D01*
X-16450000Y-8500000D02*
X-16450000Y-9050000D01*
X-16000000Y-9500000D02*
X-13450000Y-9500000D01*
X-16450000Y-9050000D02*
X-16000000Y-9500000D01*
X-16450000Y8500000D02*
X-16450000Y9050000D01*
X-16000000Y9500000D02*
X-13500000Y9500000D01*
X-16450000Y9050000D02*
X-16000000Y9500000D01*
X-16450000Y7500000D02*
X-16450000Y8500000D01*
X-16250000Y4450000D02*
X-16250000Y7300000D01*
X-16250000Y7300000D02*
X-16450000Y7500000D01*
X-23000000Y-3050000D02*
X-23000000Y-3035000D01*
X-22000000Y950000D02*
X-23000000Y950000D01*
X-19450000Y2250000D02*
X-20700000Y2250000D01*
X-20700000Y2250000D02*
X-22000000Y950000D01*
X-22000000Y50000D02*
X-23000000Y50000D01*
X-19450000Y-750000D02*
X-20150000Y-750000D01*
X-20950000Y50000D02*
X-22000000Y50000D01*
X-20150000Y-750000D02*
X-20950000Y50000D01*
X-22000000Y-3050000D02*
X-23000000Y-3050000D01*
X-19450000Y-2750000D02*
X-21700000Y-2750000D01*
X-21700000Y-2750000D02*
X-22000000Y-3050000D01*
X-950000Y-22000000D02*
X-950000Y-23000000D01*
X-2250000Y-19450000D02*
X-2250000Y-20700000D01*
X-2250000Y-20700000D02*
X-950000Y-22000000D01*
X-50000Y-22000000D02*
X-50000Y-23000000D01*
X750000Y-19450000D02*
X750000Y-20150000D01*
X-50000Y-20950000D02*
X-50000Y-22000000D01*
X750000Y-20150000D02*
X-50000Y-20950000D01*
X3050000Y-22000000D02*
X3050000Y-23000000D01*
X2750000Y-19450000D02*
X2750000Y-21700000D01*
X2750000Y-21700000D02*
X3050000Y-22000000D01*
X22000000Y-950000D02*
X23000000Y-950000D01*
X19450000Y-2250000D02*
X20700000Y-2250000D01*
X20700000Y-2250000D02*
X22000000Y-950000D01*
X22000000Y-50000D02*
X23000000Y-50000D01*
X19450000Y750000D02*
X20150000Y750000D01*
X20950000Y-50000D02*
X22000000Y-50000D01*
X20150000Y750000D02*
X20950000Y-50000D01*
X22000000Y3050000D02*
X23000000Y3050000D01*
X19450000Y2750000D02*
X21700000Y2750000D01*
X21700000Y2750000D02*
X22000000Y3050000D01*
X950000Y23000000D02*
X50000Y23000000D01*
X16450000Y7500000D02*
X16450000Y8500000D01*
X16250000Y4450000D02*
X16250000Y7300000D01*
X16250000Y7300000D02*
X16450000Y7500000D01*
X16450000Y-7500000D02*
X16450000Y-8500000D01*
X16250000Y-4450000D02*
X16250000Y-7300000D01*
X16250000Y-7300000D02*
X16450000Y-7500000D01*
X7500000Y-16450000D02*
X8500000Y-16450000D01*
X4450000Y-16250000D02*
X7300000Y-16250000D01*
X7300000Y-16250000D02*
X7500000Y-16450000D01*
X-7500000Y-16450000D02*
X-8500000Y-16450000D01*
X-4450000Y-16250000D02*
X-7300000Y-16250000D01*
X-7300000Y-16250000D02*
X-7500000Y-16450000D01*
X-16450000Y-7500000D02*
X-16450000Y-8500000D01*
X-16250000Y-4450000D02*
X-16250000Y-7300000D01*
X-16250000Y-7300000D02*
X-16450000Y-7500000D01*
X23050000Y-1000000D02*
X23000000Y-950000D01*
X0Y-23050000D02*
X-50000Y-23000000D01*
X-750000Y19450000D02*
X-750000Y20150000D01*
X50000Y20950000D02*
X50000Y22000000D01*
X-750000Y20150000D02*
X50000Y20950000D01*
X950000Y22000000D02*
X950000Y23000000D01*
X2250000Y19450000D02*
X2250000Y20700000D01*
X2250000Y20700000D02*
X950000Y22000000D01*
X50000Y22000000D02*
X50000Y23000000D01*
X-3050000Y22000000D02*
X-3050000Y23000000D01*
X0Y21950000D02*
X50000Y22000000D01*
X-2750000Y19450000D02*
X-2750000Y21700000D01*
X-2750000Y21700000D02*
X-3050000Y22000000D01*
X7500000Y16450000D02*
X8500000Y16450000D01*
X7300000Y16250000D02*
X7500000Y16450000D01*
X-7500000Y16450000D02*
X-8500000Y16450000D01*
X4450000Y16250000D02*
X7300000Y16250000D01*
X2750000Y-10550000D02*
X2750000Y-9650000D01*
X5100000Y-7300000D02*
X5100000Y-3500000D01*
X2750000Y-9650000D02*
X5100000Y-7300000D01*
X5800000Y-3750000D02*
X5800000Y-3700000D01*
X3250000Y-10550000D02*
X3250000Y-9850000D01*
X5800000Y-7300000D02*
X5800000Y-4450000D01*
X3250000Y-9850000D02*
X5800000Y-7300000D01*
X5800000Y-3800000D02*
X5800000Y-4450000D01*
X5800000Y-3750000D02*
X5800000Y-3800000D01*
X5800000Y-3700000D02*
X5950000Y-3550000D01*
X1750000Y-10550000D02*
X1750000Y-8800000D01*
X1750000Y-8800000D02*
X3550000Y-7000000D01*
X2250000Y-10550000D02*
X2250000Y-9200000D01*
X2250000Y-9200000D02*
X4450000Y-7000000D01*
X10550000Y3250000D02*
X9800000Y3250000D01*
X7150000Y4950000D02*
X6450000Y4950000D01*
X7250000Y4850000D02*
X7150000Y4950000D01*
X8200000Y4850000D02*
X7250000Y4850000D01*
X9800000Y3250000D02*
X8200000Y4850000D01*
X10550000Y2750000D02*
X9650000Y2750000D01*
X8100000Y4300000D02*
X7000000Y4300000D01*
X9650000Y2750000D02*
X8100000Y4300000D01*
X10550000Y1750000D02*
X8850000Y1750000D01*
X8850000Y1750000D02*
X7100000Y3500000D01*
X10550000Y2250000D02*
X9250000Y2250000D01*
X9250000Y2250000D02*
X8000000Y3500000D01*
X10550000Y-3750000D02*
X8050000Y-3750000D01*
X8050000Y-3750000D02*
X2950000Y1350000D01*
X-3750000Y-10550000D02*
X-3750000Y-7950000D01*
X-3750000Y-7950000D02*
X-1425667Y-5624318D01*
X-1425667Y-5624318D02*
X-1425000Y-3025000D01*
X-1425000Y-3025000D02*
X2950000Y1350000D01*
X-10550000Y3750000D02*
X550000Y3750000D01*
X550000Y3750000D02*
X2950000Y1350000D01*
X3750000Y10550000D02*
X3750000Y2150000D01*
X3750000Y2150000D02*
X2950000Y1350000D01*
X750000Y-10550000D02*
X750000Y-8000000D01*
X1450000Y-7300000D02*
X1450000Y-7000000D01*
X750000Y-8000000D02*
X1450000Y-7300000D01*
X1450000Y-7000000D02*
X1450000Y-6000000D01*
X-550000Y-6000000D02*
X-500000Y-6000000D01*
X-500000Y-6000000D02*
X500000Y-5000000D01*
X-6000000Y550000D02*
X-6000000Y500000D01*
X-6000000Y500000D02*
X-5000000Y-500000D01*
X550000Y6000000D02*
X500000Y6000000D01*
X500000Y6000000D02*
X-500000Y5000000D01*
X6000000Y-550000D02*
X6000000Y-500000D01*
X6000000Y-500000D02*
X5000000Y500000D01*
X-250000Y10550000D02*
X-250000Y7800000D01*
X-250000Y7800000D02*
X550000Y7000000D01*
X-10550000Y-250000D02*
X-7800000Y-250000D01*
X-7800000Y-250000D02*
X-7000000Y550000D01*
X250000Y-10550000D02*
X250000Y-7800000D01*
X250000Y-7800000D02*
X-550000Y-7000000D01*
X10550000Y250000D02*
X7800000Y250000D01*
X7800000Y250000D02*
X7000000Y-550000D01*
X-2950000Y1350000D02*
X-3175000Y1575000D01*
X-3175000Y1575000D02*
X-3175000Y2540000D01*
X7000000Y-550000D02*
X6000000Y-550000D01*
X-550000Y-7000000D02*
X-550000Y-6000000D01*
X-7000000Y550000D02*
X-6000000Y550000D01*
X550000Y7000000D02*
X550000Y6000000D01*
X-2750000Y-19450000D02*
X-2750000Y-20700000D01*
X-2750000Y-20700000D02*
X-3000000Y-20950000D01*
X-4450000Y15750000D02*
X-7300000Y15750000D01*
X-7300000Y15750000D02*
X-7500000Y15550000D01*
X-4450000Y16750000D02*
X-6700000Y16750000D01*
X-6700000Y16750000D02*
X-7500000Y17550000D01*
X-10550000Y-1250000D02*
X-11912500Y-1250000D01*
X-11912500Y-1250000D02*
X-12243750Y-918750D01*
X-15750000Y4450000D02*
X-15750000Y2925000D01*
X-15750000Y2925000D02*
X-15918750Y2756250D01*
X-16750000Y4450000D02*
X-16750000Y3587500D01*
X-16750000Y3587500D02*
X-15918750Y2756250D01*
X-19450000Y3250000D02*
X-18250000Y3250000D01*
X-18250000Y3250000D02*
X-17756250Y2756250D01*
X-19450000Y1750000D02*
X-18587500Y1750000D01*
X-18587500Y1750000D02*
X-17756250Y918750D01*
X-19450000Y-1750000D02*
X-18587500Y-1750000D01*
X-18587500Y-1750000D02*
X-17756250Y-918750D01*
X-19450000Y-2250000D02*
X-18262500Y-2250000D01*
X-18262500Y-2250000D02*
X-17756250Y-2756250D01*
X-15750000Y-4450000D02*
X-15750000Y-2925000D01*
X-15750000Y-2925000D02*
X-15918750Y-2756250D01*
X-16750000Y-4450000D02*
X-16750000Y-3587500D01*
X-16750000Y-3587500D02*
X-15918750Y-2756250D01*
X-4450000Y-16750000D02*
X-3587500Y-16750000D01*
X-3587500Y-16750000D02*
X-2756250Y-15918750D01*
X-4450000Y-15750000D02*
X-2925000Y-15750000D01*
X-2925000Y-15750000D02*
X-2756250Y-15918750D01*
X-3250000Y-19450000D02*
X-3250000Y-18250000D01*
X-3250000Y-18250000D02*
X-2756250Y-17756250D01*
X-1750000Y-19450000D02*
X-1750000Y-18587500D01*
X-1750000Y-18587500D02*
X-918750Y-17756250D01*
X2250000Y-19450000D02*
X2250000Y-18262500D01*
X2250000Y-18262500D02*
X2756250Y-17756250D01*
X1750000Y-19450000D02*
X1750000Y-18587500D01*
X1750000Y-18587500D02*
X918750Y-17756250D01*
X4450000Y-15750000D02*
X2925000Y-15750000D01*
X2925000Y-15750000D02*
X2756250Y-15918750D01*
X4450000Y-16750000D02*
X3587500Y-16750000D01*
X3587500Y-16750000D02*
X2756250Y-15918750D01*
X1250000Y-10550000D02*
X1250000Y-11912500D01*
X1250000Y-11912500D02*
X918750Y-12243750D01*
X4450000Y15750000D02*
X2925000Y15750000D01*
X2925000Y15750000D02*
X2756250Y15918750D01*
X4450000Y16750000D02*
X3587500Y16750000D01*
X3587500Y16750000D02*
X2756250Y15918750D01*
X-1250000Y10550000D02*
X-1250000Y11912500D01*
X-1250000Y11912500D02*
X-918750Y12243750D01*
X-4450000Y15750000D02*
X-2925000Y15750000D01*
X-2925000Y15750000D02*
X-2756250Y15918750D01*
X-4450000Y16750000D02*
X-3587500Y16750000D01*
X-3587500Y16750000D02*
X-2756250Y15918750D01*
X-2250000Y19450000D02*
X-2250000Y18262500D01*
X-2250000Y18262500D02*
X-2756250Y17756250D01*
X-1750000Y19450000D02*
X-1750000Y18587500D01*
X-1750000Y18587500D02*
X-918750Y17756250D01*
X1750000Y19450000D02*
X1750000Y18587500D01*
X1750000Y18587500D02*
X918750Y17756250D01*
X3250000Y19450000D02*
X3250000Y18250000D01*
X3250000Y18250000D02*
X2756250Y17756250D01*
X16750000Y4450000D02*
X16750000Y3587500D01*
X16750000Y3587500D02*
X15918750Y2756250D01*
X15750000Y4450000D02*
X15750000Y2925000D01*
X15750000Y2925000D02*
X15918750Y2756250D01*
X10550000Y1250000D02*
X11912500Y1250000D01*
X11912500Y1250000D02*
X12243750Y918750D01*
X15750000Y-4450000D02*
X15750000Y-2925000D01*
X15750000Y-2925000D02*
X15918750Y-2756250D01*
X16750000Y-4450000D02*
X16750000Y-3587500D01*
X16750000Y-3587500D02*
X15918750Y-2756250D01*
X19450000Y-3250000D02*
X18250000Y-3250000D01*
X18250000Y-3250000D02*
X17756250Y-2756250D01*
X19450000Y-1750000D02*
X18587500Y-1750000D01*
X18587500Y-1750000D02*
X17756250Y-918750D01*
X19450000Y1750000D02*
X18587500Y1750000D01*
X18587500Y1750000D02*
X17756250Y918750D01*
X19450000Y2250000D02*
X18262500Y2250000D01*
X18262500Y2250000D02*
X17756250Y2756250D01*
X-15550000Y7500000D02*
X-15550000Y8500000D01*
X-15750000Y4450000D02*
X-15750000Y7300000D01*
X-15750000Y7300000D02*
X-15550000Y7500000D01*
X-17550000Y7500000D02*
X-17550000Y8500000D01*
X-16750000Y4450000D02*
X-16750000Y6700000D01*
X-16750000Y6700000D02*
X-17550000Y7500000D01*
X-22050000Y3000000D02*
X-22050000Y2100000D01*
X-22050000Y2100000D02*
X-22000000Y2050000D01*
X-22050000Y3000000D02*
X-23000000Y2050000D01*
X-22050000Y3000000D02*
X-22950000Y3000000D01*
X-22950000Y3000000D02*
X-23000000Y2950000D01*
X-19450000Y3250000D02*
X-20150000Y3250000D01*
X-21450000Y3600000D02*
X-22050000Y3000000D01*
X-20500000Y3600000D02*
X-21450000Y3600000D01*
X-20150000Y3250000D02*
X-20500000Y3600000D01*
X-22000000Y-1950000D02*
X-22000000Y-1050000D01*
X-22000000Y-1950000D02*
X-22100000Y-1950000D01*
X-22100000Y-1950000D02*
X-23000000Y-1050000D01*
X-22000000Y-1950000D02*
X-23000000Y-1950000D01*
X-21000000Y-2050000D02*
X-21900000Y-2050000D01*
X-21900000Y-2050000D02*
X-22000000Y-1950000D01*
X-19450000Y-2250000D02*
X-20800000Y-2250000D01*
X-20800000Y-2250000D02*
X-21000000Y-2050000D01*
X-19450000Y-1750000D02*
X-20700000Y-1750000D01*
X-20700000Y-1750000D02*
X-21000000Y-2050000D01*
X-3000000Y-22050000D02*
X-3000000Y-22950000D01*
X-3000000Y-22950000D02*
X-2950000Y-23000000D01*
X-3000000Y-22050000D02*
X-2050000Y-23000000D01*
X-3000000Y-22050000D02*
X-2100000Y-22050000D01*
X-2100000Y-22050000D02*
X-2050000Y-22000000D01*
X-3250000Y-19450000D02*
X-3250000Y-20150000D01*
X-3600000Y-21450000D02*
X-3000000Y-22050000D01*
X-3600000Y-20500000D02*
X-3600000Y-21450000D01*
X-3250000Y-20150000D02*
X-3600000Y-20500000D01*
X1950000Y-22000000D02*
X1950000Y-23000000D01*
X1950000Y-22000000D02*
X1950000Y-22100000D01*
X1950000Y-22100000D02*
X1050000Y-23000000D01*
X1950000Y-22000000D02*
X1050000Y-22000000D01*
X2050000Y-21000000D02*
X2050000Y-21900000D01*
X2050000Y-21900000D02*
X1950000Y-22000000D01*
X2250000Y-19450000D02*
X2250000Y-20800000D01*
X2250000Y-20800000D02*
X2050000Y-21000000D01*
X1750000Y-19450000D02*
X1750000Y-20700000D01*
X1750000Y-20700000D02*
X2050000Y-21000000D01*
X22050000Y-3000000D02*
X22950000Y-3000000D01*
X22950000Y-3000000D02*
X23000000Y-2950000D01*
X22050000Y-3000000D02*
X23000000Y-2050000D01*
X22050000Y-3000000D02*
X22050000Y-2100000D01*
X22050000Y-2100000D02*
X22000000Y-2050000D01*
X19450000Y-3250000D02*
X20150000Y-3250000D01*
X21450000Y-3600000D02*
X22050000Y-3000000D01*
X20500000Y-3600000D02*
X21450000Y-3600000D01*
X20150000Y-3250000D02*
X20500000Y-3600000D01*
X22000000Y1950000D02*
X22000000Y1050000D01*
X22000000Y1950000D02*
X22100000Y1950000D01*
X22100000Y1950000D02*
X23000000Y1050000D01*
X22000000Y1950000D02*
X23000000Y1950000D01*
X21000000Y2050000D02*
X21900000Y2050000D01*
X21900000Y2050000D02*
X22000000Y1950000D01*
X19450000Y2250000D02*
X20800000Y2250000D01*
X20800000Y2250000D02*
X21000000Y2050000D01*
X19450000Y1750000D02*
X20700000Y1750000D01*
X20700000Y1750000D02*
X21000000Y2050000D01*
X2950000Y-1350000D02*
X2950000Y-2450000D01*
X2950000Y-2450000D02*
X3000000Y-2500000D01*
X6000000Y2550000D02*
X6000000Y2500000D01*
X6000000Y2500000D02*
X5000000Y1500000D01*
X2550000Y-6000000D02*
X2500000Y-6000000D01*
X2500000Y-6000000D02*
X1500000Y-5000000D01*
X-6000000Y-2550000D02*
X-6000000Y-2500000D01*
X-6000000Y-2500000D02*
X-5000000Y-1500000D01*
X-2550000Y6000000D02*
X-2500000Y6000000D01*
X-2500000Y6000000D02*
X-1500000Y5000000D01*
X-1250000Y10550000D02*
X-1250000Y8300000D01*
X-1250000Y8300000D02*
X-2550000Y7000000D01*
X-10550000Y-1250000D02*
X-8300000Y-1250000D01*
X-8300000Y-1250000D02*
X-7000000Y-2550000D01*
X1250000Y-10550000D02*
X1250000Y-8300000D01*
X1250000Y-8300000D02*
X2550000Y-7000000D01*
X10550000Y1250000D02*
X8300000Y1250000D01*
X8300000Y1250000D02*
X7000000Y2550000D01*
X17550000Y7500000D02*
X17550000Y8500000D01*
X16750000Y4450000D02*
X16750000Y6700000D01*
X16750000Y6700000D02*
X17550000Y7500000D01*
X15550000Y7500000D02*
X15550000Y8500000D01*
X15750000Y4450000D02*
X15750000Y7300000D01*
X15750000Y7300000D02*
X15550000Y7500000D01*
X17550000Y-7500000D02*
X17550000Y-8500000D01*
X16750000Y-4450000D02*
X16750000Y-6700000D01*
X16750000Y-6700000D02*
X17550000Y-7500000D01*
X15550000Y-7500000D02*
X15550000Y-8500000D01*
X15750000Y-4450000D02*
X15750000Y-7300000D01*
X15750000Y-7300000D02*
X15550000Y-7500000D01*
X7500000Y-15550000D02*
X8500000Y-15550000D01*
X4450000Y-15750000D02*
X7300000Y-15750000D01*
X7300000Y-15750000D02*
X7500000Y-15550000D01*
X7500000Y-17550000D02*
X8500000Y-17550000D01*
X4450000Y-16750000D02*
X6700000Y-16750000D01*
X6700000Y-16750000D02*
X7500000Y-17550000D01*
X-7500000Y-17550000D02*
X-8500000Y-17550000D01*
X-4450000Y-16750000D02*
X-6700000Y-16750000D01*
X-6700000Y-16750000D02*
X-7500000Y-17550000D01*
X-7500000Y-15550000D02*
X-8500000Y-15550000D01*
X-4450000Y-15750000D02*
X-7300000Y-15750000D01*
X-7300000Y-15750000D02*
X-7500000Y-15550000D01*
X-15550000Y-7500000D02*
X-15550000Y-8500000D01*
X-15750000Y-4450000D02*
X-15750000Y-7300000D01*
X-15750000Y-7300000D02*
X-15550000Y-7500000D01*
X-17550000Y-7500000D02*
X-17550000Y-8500000D01*
X-16750000Y-4450000D02*
X-16750000Y-6700000D01*
X-16750000Y-6700000D02*
X-17550000Y-7500000D01*
X6000000Y550000D02*
X7000000Y550000D01*
X6000000Y2550000D02*
X5400000Y1950000D01*
X5400000Y1000000D02*
X5850000Y550000D01*
X5400000Y1950000D02*
X5400000Y1000000D01*
X5850000Y550000D02*
X6000000Y550000D01*
X2550000Y-6000000D02*
X1950000Y-5400000D01*
X1000000Y-5400000D02*
X550000Y-5850000D01*
X1950000Y-5400000D02*
X1000000Y-5400000D01*
X550000Y-5850000D02*
X550000Y-6000000D01*
X-5400000Y-1450000D02*
X-5400000Y-1000000D01*
X-5400000Y-1950000D02*
X-5400000Y-1450000D01*
X-6000000Y-2550000D02*
X-5400000Y-1950000D01*
X-5400000Y-1000000D02*
X-5850000Y-550000D01*
X-5850000Y-550000D02*
X-6000000Y-550000D01*
X7000000Y2550000D02*
X6000000Y2550000D01*
X550000Y-6000000D02*
X550000Y-7000000D01*
X2550000Y-7000000D02*
X2550000Y-6000000D01*
X-7000000Y-550000D02*
X-6000000Y-550000D01*
X-7000000Y-2550000D02*
X-6000000Y-2550000D01*
X-550000Y6000000D02*
X-550000Y7000000D01*
X-2550000Y6000000D02*
X-1950000Y5400000D01*
X-950000Y5400000D02*
X-550000Y5800000D01*
X-1950000Y5400000D02*
X-950000Y5400000D01*
X-550000Y5800000D02*
X-550000Y6000000D01*
X-2550000Y7000000D02*
X-2550000Y6000000D01*
X3250000Y19450000D02*
X3250000Y20150000D01*
X3600000Y21450000D02*
X3000000Y22050000D01*
X3600000Y20500000D02*
X3600000Y21450000D01*
X3250000Y20150000D02*
X3600000Y20500000D01*
X3000000Y22050000D02*
X3000000Y22950000D01*
X3000000Y22950000D02*
X2950000Y23000000D01*
X3000000Y22050000D02*
X2050000Y23000000D01*
X3000000Y22050000D02*
X2100000Y22050000D01*
X2100000Y22050000D02*
X2050000Y22000000D01*
X-1950000Y22000000D02*
X-1050000Y22000000D01*
X-1950000Y22000000D02*
X-1950000Y22100000D01*
X-1950000Y22100000D02*
X-1050000Y23000000D01*
X-1950000Y22000000D02*
X-1950000Y23000000D01*
X-2050000Y21000000D02*
X-2050000Y21900000D01*
X-2050000Y21900000D02*
X-1950000Y22000000D01*
X-2250000Y19450000D02*
X-2250000Y20800000D01*
X-2250000Y20800000D02*
X-2050000Y21000000D01*
X-1750000Y19450000D02*
X-1750000Y20700000D01*
X-1750000Y20700000D02*
X-2050000Y21000000D01*
X7500000Y17550000D02*
X8500000Y17550000D01*
X6700000Y16750000D02*
X7500000Y17550000D01*
X7500000Y15550000D02*
X8500000Y15550000D01*
X7300000Y15750000D02*
X7500000Y15550000D01*
X-7500000Y17550000D02*
X-8500000Y17550000D01*
X-7500000Y15550000D02*
X-8500000Y15550000D01*
X4450000Y16750000D02*
X6700000Y16750000D01*
X4450000Y15750000D02*
X7300000Y15750000D01*
X-3250000Y-10550000D02*
X-3250000Y-11750000D01*
X-3250000Y-11750000D02*
X-2756250Y-12243750D01*
X-250000Y-19450000D02*
X-250000Y-18425000D01*
X-250000Y-18425000D02*
X-918750Y-17756250D01*
X-10550000Y3250000D02*
X-11750000Y3250000D01*
X-11750000Y3250000D02*
X-12243750Y2756250D01*
X-19450000Y250000D02*
X-18425000Y250000D01*
X-18425000Y250000D02*
X-17756250Y918750D01*
X3250000Y10550000D02*
X3250000Y11750000D01*
X3250000Y11750000D02*
X2756250Y12243750D01*
X250000Y19450000D02*
X250000Y18425000D01*
X250000Y18425000D02*
X918750Y17756250D01*
X10550000Y-3250000D02*
X11750000Y-3250000D01*
X11750000Y-3250000D02*
X12243750Y-2756250D01*
X19450000Y-250000D02*
X18425000Y-250000D01*
X18425000Y-250000D02*
X17756250Y-918750D01*
X1250000Y-19450000D02*
X1250000Y-20700000D01*
X1250000Y-20700000D02*
X950000Y-21000000D01*
X-3750000Y-19450000D02*
X-3750000Y-20000000D01*
X-4050000Y-20300000D02*
X-4050000Y-23000000D01*
X-3750000Y-20000000D02*
X-4050000Y-20300000D01*
X-10550000Y-750000D02*
X-7950000Y-750000D01*
X-7950000Y-750000D02*
X-7250000Y-1450000D01*
X-7250000Y-1450000D02*
X-7000000Y-1450000D01*
X-7000000Y-1450000D02*
X-6000000Y-1450000D01*
X-19450000Y2750000D02*
X-20700000Y2750000D01*
X-20700000Y2750000D02*
X-20950000Y3000000D01*
X-19450000Y-1250000D02*
X-20700000Y-1250000D01*
X-20700000Y-1250000D02*
X-21000000Y-950000D01*
X-19450000Y3750000D02*
X-20000000Y3750000D01*
X-20300000Y4050000D02*
X-23000000Y4050000D01*
X-20000000Y3750000D02*
X-20300000Y4050000D01*
X-750000Y10550000D02*
X-750000Y8000000D01*
X-1450000Y7300000D02*
X-1450000Y7000000D01*
X-750000Y8000000D02*
X-1450000Y7300000D01*
X-1450000Y7000000D02*
X-1450000Y6000000D01*
X-1250000Y7200000D02*
X-1450000Y7000000D01*
X2750000Y19450000D02*
X2750000Y20700000D01*
X2750000Y20700000D02*
X3000000Y20950000D01*
X-1250000Y19450000D02*
X-1250000Y20700000D01*
X-1250000Y20700000D02*
X-950000Y21000000D01*
X3750000Y19450000D02*
X3750000Y20000000D01*
X4050000Y20300000D02*
X4050000Y23000000D01*
X3750000Y20000000D02*
X4050000Y20300000D01*
X10550000Y750000D02*
X8000000Y750000D01*
X7300000Y1450000D02*
X7000000Y1450000D01*
X8000000Y750000D02*
X7300000Y1450000D01*
X7000000Y1450000D02*
X6000000Y1450000D01*
X19450000Y-2750000D02*
X20700000Y-2750000D01*
X20700000Y-2750000D02*
X20950000Y-3000000D01*
X19450000Y1250000D02*
X20700000Y1250000D01*
X20700000Y1250000D02*
X21000000Y950000D01*
X19450000Y-3750000D02*
X20000000Y-3750000D01*
X20300000Y-4050000D02*
X23000000Y-4050000D01*
X20000000Y-3750000D02*
X20300000Y-4050000D01*
X-3900000Y-6050000D02*
X-2750000Y-6050000D01*
X-9800000Y-3250000D02*
X-7000000Y-6050000D01*
X-7000000Y-6050000D02*
X-3900000Y-6050000D01*
X-10550000Y-3250000D02*
X-9800000Y-3250000D01*
X-4750000Y-5300000D02*
X-4400000Y-5300000D01*
X-9650000Y-2750000D02*
X-7100000Y-5300000D01*
X-7100000Y-5300000D02*
X-4750000Y-5300000D01*
X-10550000Y-2750000D02*
X-9650000Y-2750000D01*
X-10550000Y-1750000D02*
X-8850000Y-1750000D01*
X-8850000Y-1750000D02*
X-6850000Y-3750000D01*
X-10550000Y-2250000D02*
X-9250000Y-2250000D01*
X-9250000Y-2250000D02*
X-6850000Y-4650000D01*
X-3250000Y10550000D02*
X-3250000Y9850000D01*
X-5650000Y6100000D02*
X-4200000Y4650000D01*
X-5650000Y7450000D02*
X-5650000Y6100000D01*
X-3250000Y9850000D02*
X-5650000Y7450000D01*
X-2750000Y10550000D02*
X-2750000Y9700000D01*
X-4200000Y5700000D02*
X-4200000Y5550000D01*
X-5200000Y6700000D02*
X-4200000Y5700000D01*
X-5200000Y7250000D02*
X-5200000Y6700000D01*
X-2750000Y9700000D02*
X-5200000Y7250000D01*
X-1750000Y10550000D02*
X-1750000Y8900000D01*
X-1750000Y8900000D02*
X-3700000Y6950000D01*
X-2250000Y10550000D02*
X-2250000Y9300000D01*
X-2250000Y9300000D02*
X-4550000Y7000000D01*
X4450000Y-14750000D02*
X6150000Y-14750000D01*
X7100000Y-13800000D02*
X7700000Y-13800000D01*
X6150000Y-14750000D02*
X7100000Y-13800000D01*
X4450000Y-14250000D02*
X6000000Y-14250000D01*
X6900000Y-13350000D02*
X7900000Y-13350000D01*
X6000000Y-14250000D02*
X6900000Y-13350000D01*
X4450000Y-13750000D02*
X5850000Y-13750000D01*
X6700000Y-12900000D02*
X7700000Y-12900000D01*
X5850000Y-13750000D02*
X6700000Y-12900000D01*
X4450000Y-13250000D02*
X5700000Y-13250000D01*
X6500000Y-12450000D02*
X7400000Y-12450000D01*
X5700000Y-13250000D02*
X6500000Y-12450000D01*
X-4450000Y-13250000D02*
X-5700000Y-13250000D01*
X-6500000Y-12450000D02*
X-7300000Y-12450000D01*
X-5700000Y-13250000D02*
X-6500000Y-12450000D01*
X-4450000Y-13750000D02*
X-5850000Y-13750000D01*
X-6700000Y-12900000D02*
X-7650000Y-12900000D01*
X-5850000Y-13750000D02*
X-6700000Y-12900000D01*
X-4450000Y-14250000D02*
X-6000000Y-14250000D01*
X-6900000Y-13350000D02*
X-7650000Y-13350000D01*
X-6000000Y-14250000D02*
X-6900000Y-13350000D01*
X-4450000Y-14750000D02*
X-6150000Y-14750000D01*
X-7100000Y-13800000D02*
X-7900000Y-13800000D01*
X-6150000Y-14750000D02*
X-7100000Y-13800000D01*
X-4450000Y-17250000D02*
X-5350000Y-17250000D01*
X-6250000Y-21900000D02*
X-4900000Y-23250000D01*
X-6250000Y-18150000D02*
X-6250000Y-21900000D01*
X-5350000Y-17250000D02*
X-6250000Y-18150000D01*
X-4450000Y-17750000D02*
X-5200000Y-17750000D01*
X-5800000Y-21400000D02*
X-4850000Y-22350000D01*
X-5800000Y-18350000D02*
X-5800000Y-21400000D01*
X-5200000Y-17750000D02*
X-5800000Y-18350000D01*
X-4450000Y-18250000D02*
X-5050000Y-18250000D01*
X-5350000Y-20900000D02*
X-4700000Y-21550000D01*
X-5350000Y-18550000D02*
X-5350000Y-20900000D01*
X-5050000Y-18250000D02*
X-5350000Y-18550000D01*
X-4450000Y-18750000D02*
X-4450000Y-20050000D01*
X-4700000Y-20300000D02*
X-4700000Y-20650000D01*
X-4450000Y-20050000D02*
X-4700000Y-20300000D01*
X-14750000Y-4450000D02*
X-14750000Y-6150000D01*
X-13800000Y-7100000D02*
X-13800000Y-8200000D01*
X-14750000Y-6150000D02*
X-13800000Y-7100000D01*
X-14250000Y-4450000D02*
X-14250000Y-6000000D01*
X-13350000Y-6900000D02*
X-13350000Y-7650000D01*
X-14250000Y-6000000D02*
X-13350000Y-6900000D01*
X-13750000Y-4450000D02*
X-13750000Y-5850000D01*
X-12900000Y-6700000D02*
X-12900000Y-7350000D01*
X-13750000Y-5850000D02*
X-12900000Y-6700000D01*
X-13250000Y-4450000D02*
X-13250000Y-5700000D01*
X-12450000Y-6500000D02*
X-12450000Y-7250000D01*
X-13250000Y-5700000D02*
X-12450000Y-6500000D01*
X-13250000Y4450000D02*
X-13250000Y5700000D01*
X-12450000Y6500000D02*
X-12450000Y7850000D01*
X-13250000Y5700000D02*
X-12450000Y6500000D01*
X-13750000Y4450000D02*
X-13750000Y5850000D01*
X-12900000Y6700000D02*
X-12900000Y7950000D01*
X-13750000Y5850000D02*
X-12900000Y6700000D01*
X-14250000Y4450000D02*
X-14250000Y6000000D01*
X-13350000Y6900000D02*
X-13350000Y7500000D01*
X-14250000Y6000000D02*
X-13350000Y6900000D01*
X-14750000Y4450000D02*
X-14750000Y6150000D01*
X-13800000Y7100000D02*
X-13800000Y7550000D01*
X-14750000Y6150000D02*
X-13800000Y7100000D01*
X-17250000Y4450000D02*
X-17250000Y5350000D01*
X-21800000Y6250000D02*
X-23150000Y4900000D01*
X-18150000Y6250000D02*
X-21800000Y6250000D01*
X-17250000Y5350000D02*
X-18150000Y6250000D01*
X-17750000Y4450000D02*
X-17750000Y5150000D01*
X-21400000Y5800000D02*
X-22350000Y4850000D01*
X-18400000Y5800000D02*
X-21400000Y5800000D01*
X-17750000Y5150000D02*
X-18400000Y5800000D01*
X-18250000Y4450000D02*
X-18250000Y5000000D01*
X-20900000Y5350000D02*
X-21550000Y4700000D01*
X-18600000Y5350000D02*
X-20900000Y5350000D01*
X-18250000Y5000000D02*
X-18600000Y5350000D01*
X-18750000Y4450000D02*
X-20050000Y4450000D01*
X-20300000Y4700000D02*
X-20700000Y4700000D01*
X-20050000Y4450000D02*
X-20300000Y4700000D01*
X-4450000Y18250000D02*
X-5800000Y18250000D01*
X-5800000Y18250000D02*
X-6800000Y19250000D01*
X-4450000Y17750000D02*
X-5950000Y17750000D01*
X-5950000Y17750000D02*
X-7200000Y19000000D01*
X-4450000Y17250000D02*
X-6100000Y17250000D01*
X-7450000Y18600000D02*
X-7800000Y18600000D01*
X-6100000Y17250000D02*
X-7450000Y18600000D01*
X-4450000Y14750000D02*
X-6150000Y14750000D01*
X-7100000Y13800000D02*
X-8200000Y13800000D01*
X-6150000Y14750000D02*
X-7100000Y13800000D01*
X-4450000Y14250000D02*
X-6000000Y14250000D01*
X-6900000Y13350000D02*
X-8000000Y13350000D01*
X-6000000Y14250000D02*
X-6900000Y13350000D01*
X-4450000Y13750000D02*
X-5850000Y13750000D01*
X-6700000Y12900000D02*
X-7300000Y12900000D01*
X-5850000Y13750000D02*
X-6700000Y12900000D01*
X-4450000Y13250000D02*
X-5700000Y13250000D01*
X-6500000Y12450000D02*
X-7350000Y12450000D01*
X-5700000Y13250000D02*
X-6500000Y12450000D01*
X4450000Y13250000D02*
X5700000Y13250000D01*
X6500000Y12450000D02*
X8000000Y12450000D01*
X5700000Y13250000D02*
X6500000Y12450000D01*
X4450000Y13750000D02*
X5850000Y13750000D01*
X6700000Y12900000D02*
X7950000Y12900000D01*
X5850000Y13750000D02*
X6700000Y12900000D01*
X4450000Y14250000D02*
X6000000Y14250000D01*
X6900000Y13350000D02*
X8150000Y13350000D01*
X6000000Y14250000D02*
X6900000Y13350000D01*
X4450000Y14750000D02*
X6150000Y14750000D01*
X7100000Y13800000D02*
X7750000Y13800000D01*
X6150000Y14750000D02*
X7100000Y13800000D01*
X4450000Y17250000D02*
X5300000Y17250000D01*
X6250000Y22250000D02*
X4850000Y23650000D01*
X6250000Y18200000D02*
X6250000Y22250000D01*
X5300000Y17250000D02*
X6250000Y18200000D01*
X4450000Y17750000D02*
X5150000Y17750000D01*
X4850000Y22700000D02*
X4850000Y22750000D01*
X5800000Y21750000D02*
X4850000Y22700000D01*
X5800000Y18400000D02*
X5800000Y21750000D01*
X5150000Y17750000D02*
X5800000Y18400000D01*
X5000000Y18250000D02*
X5350000Y18600000D01*
X5350000Y18600000D02*
X5350000Y21300000D01*
X5350000Y21300000D02*
X4700000Y21950000D01*
X4450000Y18250000D02*
X5000000Y18250000D01*
X4450000Y18750000D02*
X4450000Y20050000D01*
X4700000Y20300000D02*
X4700000Y21050000D01*
X4450000Y20050000D02*
X4700000Y20300000D01*
X14750000Y4450000D02*
X14750000Y6150000D01*
X13800000Y7100000D02*
X13800000Y7900000D01*
X14750000Y6150000D02*
X13800000Y7100000D01*
X14250000Y4450000D02*
X14250000Y6000000D01*
X13350000Y6900000D02*
X13350000Y7900000D01*
X14250000Y6000000D02*
X13350000Y6900000D01*
X13750000Y4450000D02*
X13750000Y5850000D01*
X12900000Y6700000D02*
X12900000Y7600000D01*
X13750000Y5850000D02*
X12900000Y6700000D01*
X13250000Y4450000D02*
X13250000Y5700000D01*
X12450000Y6500000D02*
X12450000Y7300000D01*
X13250000Y5700000D02*
X12450000Y6500000D01*
X13250000Y-4450000D02*
X13250000Y-5700000D01*
X12450000Y-6500000D02*
X12450000Y-7550000D01*
X13250000Y-5700000D02*
X12450000Y-6500000D01*
X13750000Y-4450000D02*
X13750000Y-5850000D01*
X12900000Y-6700000D02*
X12900000Y-7550000D01*
X13750000Y-5850000D02*
X12900000Y-6700000D01*
X14250000Y-4450000D02*
X14250000Y-6000000D01*
X13350000Y-6900000D02*
X13350000Y-7800000D01*
X14250000Y-6000000D02*
X13350000Y-6900000D01*
X14750000Y-4450000D02*
X14750000Y-6150000D01*
X13800000Y-7100000D02*
X13800000Y-7650000D01*
X14750000Y-6150000D02*
X13800000Y-7100000D01*
X17250000Y-4450000D02*
X17250000Y-5350000D01*
X22000000Y-6250000D02*
X23350000Y-4900000D01*
X18150000Y-6250000D02*
X22000000Y-6250000D01*
X17250000Y-5350000D02*
X18150000Y-6250000D01*
X17750000Y-4450000D02*
X17750000Y-5200000D01*
X21550000Y-5800000D02*
X22450000Y-4900000D01*
X18350000Y-5800000D02*
X21550000Y-5800000D01*
X17750000Y-5200000D02*
X18350000Y-5800000D01*
X18250000Y-4450000D02*
X18250000Y-5050000D01*
X21000000Y-5350000D02*
X21650000Y-4700000D01*
X18550000Y-5350000D02*
X21000000Y-5350000D01*
X18250000Y-5050000D02*
X18550000Y-5350000D01*
X18750000Y-4450000D02*
X20050000Y-4450000D01*
X20300000Y-4700000D02*
X20700000Y-4700000D01*
X20050000Y-4450000D02*
X20300000Y-4700000D01*
X9334824Y-8436799D02*
X9788025Y-8890000D01*
X9788025Y-8890000D02*
X9788025Y-13161975D01*
X9788025Y-13161975D02*
X8500000Y-14450000D01*
X7500000Y-14450000D02*
X8500000Y-14450000D01*
X4450000Y-15250000D02*
X6700000Y-15250000D01*
X6700000Y-15250000D02*
X7500000Y-14450000D01*
X-7500000Y-14450000D02*
X-8500000Y-14450000D01*
X-4450000Y-15250000D02*
X-6700000Y-15250000D01*
X-6700000Y-15250000D02*
X-7500000Y-14450000D01*
X-8436799Y-9334824D02*
X-9000000Y-9898025D01*
X-11000000Y-8500000D02*
X-14450000Y-8500000D01*
X-9601975Y-9898025D02*
X-11000000Y-8500000D01*
X-9000000Y-9898025D02*
X-9601975Y-9898025D01*
X-14450000Y7500000D02*
X-14450000Y8500000D01*
X-15250000Y4450000D02*
X-15250000Y6700000D01*
X-15250000Y6700000D02*
X-14450000Y7500000D01*
X-15250000Y-4450000D02*
X-15250000Y-6700000D01*
X-15250000Y-6700000D02*
X-14450000Y-7500000D01*
X-14450000Y-8500000D02*
X-14450000Y-7500000D01*
X-4450000Y15250000D02*
X-6700000Y15250000D01*
X-6700000Y15250000D02*
X-7500000Y14450000D01*
X-9334824Y8436799D02*
X-9788025Y8890000D01*
X-9788025Y8890000D02*
X-9788025Y13161975D01*
X-9788025Y13161975D02*
X-8500000Y14450000D01*
X4450000Y15250000D02*
X6700000Y15250000D01*
X7500000Y14450000D02*
X8500000Y14450000D01*
X6700000Y15250000D02*
X7500000Y14450000D01*
X-7500000Y14450000D02*
X-8500000Y14450000D01*
X15250000Y4450000D02*
X15250000Y6700000D01*
X15250000Y6700000D02*
X14450000Y7500000D01*
X7801799Y8699824D02*
X8255000Y9153025D01*
X8255000Y9153025D02*
X13796975Y9153025D01*
X13796975Y9153025D02*
X14450000Y8500000D01*
X14450000Y7500000D02*
X14450000Y8500000D01*
X14450000Y-7500000D02*
X14450000Y-8500000D01*
X15250000Y-4450000D02*
X15250000Y-6700000D01*
X15250000Y-6700000D02*
X14450000Y-7500000D01*
X-22225000Y-23142966D02*
X-22225000Y-23495000D01*
X-21296134Y-22214100D02*
X-22225000Y-23142966D01*
X-27305000Y-16436554D02*
X-27199033Y-16330587D01*
X-22674993Y-20835242D02*
X-22674993Y-20769993D01*
X-22674993Y-20835242D02*
X-23429751Y-21590000D01*
X-23429751Y-21590000D02*
X-24130000Y-21590000D01*
X-29210000Y-18341554D02*
X-28754413Y-17885967D01*
X-28648446Y-17780000D02*
X-28754413Y-17885967D01*
X-21755754Y-21754481D02*
X-21754481Y-21754481D01*
X-27305000Y-19685000D02*
X-27410967Y-19229413D01*
M02*
